<svg width="200" height="50" viewBox="0 0 200 50" fill="none" xmlns="http://www.w3.org/2000/svg">
<g clip-path="url(#clip0_20_18)">
<path fill-rule="evenodd" clip-rule="evenodd" d="M40.8721 7.66347L41.1216 9.25436C41.3182 10.7343 41.4093 12.2278 41.3942 13.7221C41.3926 17.0244 41.0148 20.3146 40.269 23.5219C39.2606 27.8793 37.504 32.0049 35.0864 35.6949C32.2926 39.9325 28.253 44.1007 22.3649 47.4497L21.6446 47.8591L20.9241 47.4497C15.036 44.1007 10.9982 39.9325 8.20277 35.6949C5.78511 32.0049 4.02856 27.8793 3.02001 23.5219C2.27444 20.3152 1.89671 17.0255 1.8949 13.7238C1.87969 12.2295 1.97081 10.7361 2.16751 9.25611L2.41698 7.66522C2.43828 7.53547 2.43502 7.40257 2.40739 7.27416C2.37976 7.14575 2.32833 7.02438 2.25601 6.91705C2.18372 6.80971 2.09199 6.71852 1.9861 6.64874C1.88024 6.57896 1.76233 6.53196 1.63916 6.51046C1.51599 6.48896 1.39 6.4934 1.26846 6.52347C1.14692 6.55357 1.03222 6.60872 0.930987 6.68579C0.82975 6.76283 0.743973 6.86025 0.678597 6.97243C0.613222 7.0846 0.569541 7.20932 0.550071 7.33938L0.3006 8.93027C0.0860187 10.5178 -0.0139475 12.1203 0.00156271 13.7238C0.0027524 17.1882 0.398801 20.6399 1.18119 24.0046C2.24619 28.5993 4.10021 32.9494 6.65141 36.8397C9.60047 41.3161 13.8779 45.7177 20.0338 49.2113L21.2034 49.8752C21.3412 49.9538 21.4954 49.9949 21.652 49.9949C21.8086 49.9949 21.9628 49.9538 22.1006 49.8752L23.2686 49.2113C29.4178 45.716 33.6969 41.3161 36.651 36.8397C39.2007 32.9497 41.0536 28.6002 42.1178 24.0063C42.9001 20.6416 43.2963 17.1899 43.2975 13.7256C43.3129 12.1221 43.2129 10.5196 42.9984 8.932L42.7489 7.34111C42.7295 7.21105 42.6858 7.08635 42.6204 6.97418C42.555 6.86199 42.4692 6.76457 42.368 6.68752C42.2668 6.61047 42.1521 6.5553 42.0305 6.52522C41.909 6.49513 41.783 6.49071 41.6598 6.51221C41.5367 6.53371 41.4188 6.58069 41.3129 6.65047C41.207 6.72025 41.1153 6.81144 41.043 6.91879C40.9707 7.02613 40.9193 7.1475 40.8916 7.27591C40.864 7.40432 40.8607 7.53722 40.8821 7.66696L40.8721 7.66347Z" fill="white"/>
<path fill-rule="evenodd" clip-rule="evenodd" d="M7.58668 6.57966L21.6463 2.04919L36.02 6.67723C36.2606 6.75311 36.52 6.72536 36.7412 6.60005C36.9625 6.47475 37.1277 6.26208 37.2007 6.00862C37.2736 5.75516 37.2484 5.48151 37.1305 5.24761C37.0127 5.01369 36.8118 4.83855 36.5718 4.7605L21.9222 0.0435845C21.7425 -0.0145282 21.5502 -0.0145282 21.3705 0.0435845L7.03322 4.65944C6.91339 4.69722 6.80184 4.75958 6.70495 4.84295C6.60805 4.92631 6.52772 5.02905 6.46856 5.14525C6.40941 5.26145 6.37259 5.38883 6.36024 5.52008C6.34788 5.65131 6.36022 5.78384 6.39655 5.91005C6.43288 6.03625 6.49249 6.15362 6.57196 6.25547C6.65141 6.35731 6.74916 6.44159 6.85959 6.5035C6.97002 6.56539 7.09093 6.60367 7.21544 6.61614C7.33993 6.62861 7.46553 6.61503 7.58502 6.57617L7.58668 6.57966Z" fill="white"/>
<path fill-rule="evenodd" clip-rule="evenodd" d="M0.644416 7.95648L20.8004 49.4487C20.8791 49.6107 20.9982 49.7471 21.1452 49.8429C21.292 49.9387 21.4609 49.9901 21.6336 49.9918C21.8062 49.9933 21.976 49.9451 22.1246 49.8521C22.273 49.759 22.3945 49.6249 22.4757 49.4643L34.7677 25.2176L34.7858 25.1793L42.6533 7.92861C42.76 7.69055 42.7732 7.4177 42.6901 7.1694C42.6071 6.92111 42.4345 6.71742 42.2098 6.60262C41.9852 6.48783 41.7267 6.47119 41.4904 6.55634C41.2541 6.6415 41.0594 6.82155 40.9483 7.05736L33.0941 24.294L21.6711 46.8418L2.32795 7.04342C2.2722 6.92525 2.19476 6.81992 2.10016 6.73355C2.00553 6.64717 1.89559 6.58145 1.77672 6.5402C1.65784 6.49895 1.53239 6.483 1.40763 6.49325C1.28286 6.5035 1.16127 6.53976 1.04989 6.59995C0.938509 6.66012 0.83956 6.74301 0.758773 6.84381C0.677985 6.94461 0.616967 7.06131 0.579253 7.18717C0.541539 7.31301 0.527878 7.44551 0.539065 7.57697C0.55025 7.70844 0.586059 7.83623 0.644416 7.953V7.95648Z" fill="white"/>
<path fill-rule="evenodd" clip-rule="evenodd" d="M10.2927 26.435H32.7071C32.9581 26.435 33.1987 26.3299 33.376 26.1429C33.5533 25.9558 33.6531 25.7021 33.6531 25.4375C33.6531 25.1729 33.5533 24.9191 33.376 24.7321C33.1987 24.545 32.9581 24.4399 32.7071 24.4399H10.2927C10.0418 24.4399 9.80122 24.545 9.62384 24.7321C9.44646 24.9191 9.3468 25.1729 9.3468 25.4375C9.3468 25.7021 9.44646 25.9558 9.62384 26.1429C9.80122 26.3299 10.0418 26.435 10.2927 26.435ZM72.8128 17.8272H58.231C57.979 17.8285 57.7378 17.9347 57.5596 18.1227C57.3813 18.3105 57.2808 18.565 57.2794 18.8308V31.1746C57.2811 31.4402 57.3819 31.6944 57.56 31.8822C57.7381 32.0702 57.9791 32.1764 58.231 32.1783H72.8128V34.2693H58.231C57.8462 34.2711 57.4651 34.1925 57.1092 34.0382C56.7535 33.8836 56.4302 33.6564 56.1582 33.3696C55.8861 33.0825 55.6707 32.7416 55.5243 32.3664C55.3778 31.9911 55.3033 31.5891 55.3051 31.1833V18.8396C55.3033 18.4338 55.3778 18.0316 55.5243 17.6564C55.6707 17.2811 55.8861 16.9402 56.1582 16.6533C56.4302 16.3664 56.7535 16.1391 57.1092 15.9847C57.4651 15.8304 57.8462 15.7518 58.231 15.7536H72.8128V17.8272ZM100.194 15.7432V17.8341H86.1505V23.945H97.4378V26.0535H86.1488V32.1747H100.192V34.2658H84.1662V15.7432H100.194Z" fill="white"/>
<path d="M129.111 18.855V24.2811C129.113 24.6869 129.038 25.0888 128.892 25.4639C128.745 25.8391 128.53 26.18 128.258 26.4669C127.986 26.7538 127.663 26.9809 127.307 27.1355C126.951 27.29 126.57 27.3686 126.185 27.367H123.504L129.014 34.2586H126.405L120.918 27.367H114.475C114.156 27.35 113.839 27.3156 113.523 27.2642V34.2586H111.541V15.7691H126.171C126.555 15.7675 126.936 15.8461 127.292 16.0006C127.648 16.1552 127.971 16.3825 128.243 16.6694C128.515 16.9563 128.73 17.297 128.877 17.6722C129.023 18.0473 129.098 18.4494 129.096 18.855H129.111ZM114.482 25.2586H126.185C126.307 25.2603 126.429 25.2361 126.542 25.1875C126.655 25.1391 126.758 25.067 126.844 24.9759C126.931 24.8848 126.999 24.7764 127.045 24.6572C127.091 24.5378 127.114 24.41 127.112 24.2811V18.855C127.114 18.7242 127.091 18.5945 127.046 18.473C127 18.3516 126.931 18.2409 126.845 18.1475C126.76 18.0519 126.658 17.9761 126.544 17.925C126.43 17.8739 126.307 17.8489 126.184 17.8514H114.48C114.228 17.8527 113.987 17.9589 113.808 18.1469C113.63 18.3347 113.53 18.5892 113.528 18.855V24.2811C113.526 24.4116 113.55 24.5413 113.598 24.6614C113.646 24.7816 113.718 24.8895 113.809 24.9781C113.898 25.0697 114.003 25.1417 114.119 25.1898C114.234 25.238 114.358 25.2614 114.482 25.2586Z" fill="white"/>
<path fill-rule="evenodd" clip-rule="evenodd" d="M139.597 15.7432H157.147V17.8341H149.381V34.2675H147.399V17.8341H139.597V15.7432ZM167.782 34.2588V15.7432H169.764V34.2588H167.782ZM196.116 15.7432H198.65L191.313 25.001L198.676 34.2588H196.116L189.581 26.0552H183.924V34.2588H181.927V15.7432H183.927V23.945H189.584L196.116 15.7432Z" fill="white"/>
</g>
<defs>
<clipPath id="clip0_20_18">
<rect width="200" height="50" fill="white"/>
</clipPath>
</defs>
</svg>
