<svg width="80" height="80" viewBox="0 0 80 80" fill="none" xmlns="http://www.w3.org/2000/svg">
<g clip-path="url(#clip0_4_17097)">
<path d="M78.79 49.6725C73.45 71.12 51.7425 84.14 30.3275 78.8025C8.90752 73.5025 -4.13998 51.7425 1.21002 30.35C6.53752 8.90751 28.2575 -4.13999 49.66 1.19751C71.0925 6.55001 84.14 28.245 78.79 49.6875V49.6725ZM57.63 34.2975C58.4225 28.9975 54.3725 26.135 48.8275 24.2075L50.6275 17.03L46.2375 15.9225L44.495 22.955C43.3475 22.655 42.1525 22.395 40.9525 22.1225L42.7 15.025L38.2975 13.9325L36.5 21.145L33.7 20.4825L27.66 18.97L26.4875 23.6725C26.4875 23.6725 29.745 24.4125 29.665 24.4525C31.4525 24.91 31.775 26.065 31.725 27.005L26.8025 46.7425C26.555 47.2925 25.995 48.1 24.76 47.785C24.8 47.8475 21.5575 46.9925 21.5575 46.9925L19.3575 52.015L25.06 53.435L28.1575 54.2425L26.3475 61.55L30.75 62.63L32.56 55.4025C33.7575 55.7425 34.9025 56.04 36.0475 56.315L34.3575 63.4875L38.7575 64.595L40.5675 57.2925C48.04 58.71 53.6675 58.15 56.0375 51.38C57.9375 45.9225 55.93 42.7875 51.9875 40.73C54.825 40.0775 56.9875 38.19 57.585 34.2975H57.63ZM47.59 48.3725C46.25 53.84 37.07 50.8725 34.09 50.13L36.4975 40.47C39.48 41.2375 49.01 42.7075 47.59 48.3725ZM48.96 34.2325C47.72 39.205 40.09 36.6925 37.6025 36.065L39.7925 27.265C42.265 27.8625 50.245 29.0075 48.96 34.2175V34.2325Z" fill="white"/>
</g>
<defs>
<clipPath id="clip0_4_17097">
<rect width="80" height="80" fill="white"/>
</clipPath>
</defs>
</svg>
