<svg width="141" height="137" viewBox="0 0 141 137" fill="none" xmlns="http://www.w3.org/2000/svg">
<path fill-rule="evenodd" clip-rule="evenodd" d="M66.6364 4.80506C41.1804 6.34356 27.8782 20.3473 26.7167 45.6709H52.3957C52.7173 36.8989 57.7573 30.3412 67.1417 29.3743C76.3532 28.4244 85.0923 30.5558 87.7392 36.6737C90.5982 43.2824 84.1801 50.9622 81.1286 54.1858C75.4804 60.1634 66.306 64.5239 61.5504 70.9733C56.8889 77.293 56.0598 85.6082 55.701 95.7848H78.3329C78.6501 89.2781 79.0964 83.0454 82.1436 79.0015C87.1004 72.4311 94.5029 69.3519 100.707 64.1627C106.633 59.2029 112.867 53.2253 113.926 43.9731C117.104 16.2822 93.8357 3.15606 66.6364 4.80506Z" fill="white"/>
<path d="M67.2182 132.167C75.1097 132.167 81.5069 126.047 81.5069 118.497C81.5069 110.947 75.1097 104.827 67.2182 104.827C59.3267 104.827 52.9294 110.947 52.9294 118.497C52.9294 126.047 59.3267 132.167 67.2182 132.167Z" fill="white"/>
</svg>
