<svg width="120" height="116" viewBox="0 0 120 116" fill="none" xmlns="http://www.w3.org/2000/svg">
<g clip-path="url(#clip0_32_3343)">
<path d="M58.4063 93.3921C54.8119 93.3921 51.7538 94.4829 49.2188 96.6699C46.6819 98.8569 45.4144 101.513 45.4144 104.627C45.4144 108.152 46.6969 110.913 49.2582 112.925C51.8288 114.935 54.8119 115.941 58.2338 115.941C61.7138 115.941 64.7457 114.95 67.3407 112.961C69.9357 110.978 71.2257 108.203 71.2257 104.629C71.2257 101.513 69.9882 98.8587 67.5113 96.6717C65.0288 94.4829 61.9969 93.3921 58.4063 93.3921M95.0419 15.9819C91.7494 11.16 87.0338 7.29348 81.0169 4.50509C75.0432 1.72935 68.0832 0.331543 60.3169 0.331543C51.9619 0.331543 44.5276 2.01288 38.2276 5.33402C31.9144 8.65336 27.0488 12.9154 23.7451 18.0118C20.4188 23.1244 18.7426 28.2642 18.7426 33.2919C18.7426 35.9828 19.8976 38.4876 22.1757 40.7397C24.4651 43.0043 27.3151 44.1529 30.6413 44.1529C36.3038 44.1529 40.1851 40.9383 42.1557 34.6518C43.9501 29.438 46.1607 25.4704 48.7182 22.8391C51.1257 20.3613 55.0294 19.108 60.3188 19.108C64.8807 19.108 68.4788 20.3397 71.3344 22.8752C74.1469 25.3819 75.5138 28.3725 75.5138 32.0097C75.5308 33.7709 75.07 35.5059 74.1769 37.0429C73.2279 38.684 72.0466 40.1902 70.6669 41.518C69.2044 42.9267 66.7932 45.0523 63.4969 47.8262C59.6569 51.0679 56.5576 53.9159 54.2944 56.2654C51.9013 58.7812 49.9791 61.6774 48.6132 64.8256C47.1863 68.0835 46.4644 71.9627 46.4644 76.3602C46.4644 80.1184 47.5519 83.0278 49.7026 85.0107C51.8307 86.9792 54.4801 87.9779 57.5832 87.9779C63.5157 87.9779 67.2413 84.8554 68.3475 79.0149C68.9213 76.5859 69.3394 74.8883 69.6225 73.9185C69.8794 73.0409 70.2507 72.1415 70.7288 71.2421C71.1919 70.3717 71.9269 69.3802 72.9113 68.2894C73.9407 67.1499 75.3413 65.8044 77.0494 64.3037C83.4413 58.8028 87.9488 54.817 90.4501 52.4585C93.0301 50.0222 95.2801 47.1056 97.1457 43.7791C99.0507 40.3658 100.02 36.3584 100.02 31.8634C100.016 26.1674 98.34 20.8291 95.0307 15.9873" fill="white"/>
</g>
<defs>
<clipPath id="clip0_32_3343">
<rect width="120" height="115.581" fill="white" transform="translate(0 0.331543)"/>
</clipPath>
</defs>
</svg>
