<svg width="578" height="487" viewBox="0 0 578 487" fill="none" xmlns="http://www.w3.org/2000/svg">
<g filter="url(#filter0_d_4_8771)">
<g clip-path="url(#clip0_4_8771)">
<path d="M102.504 251.092C95.8239 277.892 68.6712 294.183 41.9094 287.502C15.1087 280.822 -1.18274 253.67 5.49812 226.909C12.1786 200.109 39.2919 183.817 66.0926 190.498C92.8544 197.14 109.185 224.291 102.504 251.092Z" fill="url(#paint0_linear_4_8771)"/>
<path d="M77.8066 232.77C78.7832 226.129 73.7441 222.535 66.791 220.152L69.0566 211.129L63.5879 209.762L61.4004 218.551C59.9551 218.199 58.4707 217.848 56.9863 217.535L59.1738 208.707L53.7051 207.34L51.4785 216.324C50.2676 216.051 49.0957 215.777 47.9629 215.504V215.465L40.3848 213.59L38.9395 219.449C38.9395 219.449 43.002 220.387 42.9238 220.426C45.1504 220.973 45.541 222.457 45.4629 223.629L42.8848 233.902C43.041 233.941 43.2363 233.98 43.4707 234.098C43.2754 234.059 43.0801 234.02 42.8848 233.941L39.291 248.316C39.0176 248.98 38.3145 249.996 36.791 249.605C36.8301 249.684 32.8066 248.629 32.8066 248.629L30.0723 254.918L37.2207 256.715C38.5488 257.066 39.8379 257.379 41.127 257.73L38.8613 266.832L44.3301 268.199L46.5957 259.176C48.0801 259.566 49.5645 259.957 50.9707 260.309L48.7441 269.293L54.2129 270.66L56.4785 261.559C65.8535 263.316 72.8848 262.613 75.8145 254.137C78.1973 247.34 75.6973 243.395 70.7754 240.816C74.4082 239.996 77.1035 237.613 77.8066 232.77ZM65.2676 250.348C63.5879 257.145 52.1035 253.473 48.3926 252.535L51.4004 240.465C55.1113 241.402 67.0645 243.238 65.2676 250.348ZM66.9863 232.652C65.4238 238.863 55.8926 235.699 52.8066 234.918L55.541 223.98C58.627 224.762 68.5879 226.207 66.9863 232.652Z" fill="white"/>
</g>
<path d="M572.504 251.091C565.824 277.891 538.671 294.183 511.909 287.502C485.109 280.821 468.817 253.67 475.498 226.909C482.178 200.109 509.292 183.817 536.093 190.498C562.854 197.139 579.185 224.291 572.504 251.091Z" fill="url(#paint1_linear_4_8771)"/>
<g clip-path="url(#clip1_4_8771)">
<path d="M523.492 199L522.891 200.823V253.708L523.492 254.244L550.983 239.733L523.492 199Z" fill="#343434"/>
<path d="M523.492 199L496 239.733L523.492 254.244V228.575V199Z" fill="#8C8C8C"/>
<path d="M523.492 258.892L523.153 259.26V278.1L523.492 278.982L551 244.388L523.492 258.892Z" fill="#3C3C3B"/>
<path d="M523.492 278.982V258.892L496 244.388L523.492 278.982Z" fill="#8C8C8C"/>
<path d="M523.492 254.244L550.983 239.733L523.492 228.575V254.244Z" fill="#141414"/>
<path d="M496 239.733L523.492 254.244V228.575L496 239.733Z" fill="#393939"/>
</g>
</g>
<defs>
<filter id="filter0_d_4_8771" x="0" y="0.0688477" width="578" height="494.862" filterUnits="userSpaceOnUse" color-interpolation-filters="sRGB">
<feFlood flood-opacity="0" result="BackgroundImageFix"/>
<feColorMatrix in="SourceAlpha" type="matrix" values="0 0 0 0 0 0 0 0 0 0 0 0 0 0 0 0 0 0 127 0" result="hardAlpha"/>
<feOffset dy="4"/>
<feGaussianBlur stdDeviation="2"/>
<feComposite in2="hardAlpha" operator="out"/>
<feColorMatrix type="matrix" values="0 0 0 0 0 0 0 0 0 0 0 0 0 0 0 0 0 0 0.25 0"/>
<feBlend mode="normal" in2="BackgroundImageFix" result="effect1_dropShadow_4_8771"/>
<feBlend mode="normal" in="SourceGraphic" in2="effect1_dropShadow_4_8771" result="shape"/>
</filter>
<linearGradient id="paint0_linear_4_8771" x1="53.9731" y1="188.976" x2="53.9731" y2="288.99" gradientUnits="userSpaceOnUse">
<stop stop-color="#F9AA4B"/>
<stop offset="1" stop-color="#F7931A"/>
</linearGradient>
<linearGradient id="paint1_linear_4_8771" x1="523.973" y1="188.976" x2="523.973" y2="288.99" gradientUnits="userSpaceOnUse">
<stop/>
<stop offset="1"/>
</linearGradient>
<clipPath id="clip0_4_8771">
<rect width="100" height="100" fill="white" transform="translate(4 189)"/>
</clipPath>
<clipPath id="clip1_4_8771">
<rect width="55" height="80" fill="white" transform="translate(496 199)"/>
</clipPath>
</defs>
</svg>
