<svg width="101" height="84" viewBox="0 0 101 84" fill="none" xmlns="http://www.w3.org/2000/svg">
<path d="M49.38 83.6634C49.05 83.5922 49.18 83.3697 49.55 83.3697C49.83 83.3697 49.9 83.4053 49.9 83.5477C49.9 83.7257 49.76 83.7524 49.38 83.6634Z" fill="#E6E6E6"/>
<path d="M52.2 83.5477C52.2 83.4053 52.27 83.3697 52.55 83.3697C52.95 83.3697 53.04 83.5833 52.68 83.6723C52.3 83.7613 52.2 83.7346 52.2 83.5477Z" fill="#E6E6E6"/>
<path d="M46.18 83.1295C45.85 83.0583 45.98 82.8358 46.35 82.8358C46.63 82.8358 46.7 82.8714 46.7 83.0138C46.7 83.1917 46.56 83.2184 46.18 83.1295Z" fill="#E6E6E6"/>
<path d="M45.23 82.7913C44.8 82.6311 44.81 82.4798 45.25 82.4798C45.56 82.4798 45.6 82.5065 45.6 82.7023C45.6 82.8269 45.59 82.9248 45.58 82.9248C45.56 82.9159 45.4 82.8625 45.23 82.7913Z" fill="#E6E6E6"/>
<path d="M57.2 82.4353C57.2 82.2395 57.24 82.2128 57.56 82.2128C58 82.2128 57.98 82.373 57.52 82.5421C57.21 82.6578 57.2 82.6489 57.2 82.4353Z" fill="#E6E6E6"/>
<path d="M49.28 82.284C48.98 82.2129 48.9 82.1506 48.9 81.9904C48.9 81.7946 48.9 81.7946 49.6 81.9726C50.69 82.2662 50.39 82.551 49.28 82.284Z" fill="#E6E6E6"/>
<path d="M58.1 81.9904C58.1 81.7946 58.14 81.7679 58.45 81.7679C58.88 81.7679 58.89 81.8569 58.51 82.0616C58.13 82.2574 58.1 82.2573 58.1 81.9904Z" fill="#E6E6E6"/>
<path d="M47.63 81.7056C47.51 81.67 47.44 81.2339 47.55 81.2339C47.7 81.2339 48.4 81.6077 48.4 81.6789C48.4 81.7679 47.85 81.7857 47.63 81.7056Z" fill="#E6E6E6"/>
<path d="M52.8 81.1805C52.8 80.9937 52.85 80.967 53.15 80.967C53.37 80.967 53.5 81.0115 53.5 81.0827C53.5 81.1538 53.34 81.2428 53.15 81.2962C52.82 81.3941 52.8 81.3852 52.8 81.1805Z" fill="#E6E6E6"/>
<path d="M55.3 81.234C55.3 81.1895 55.45 81.0827 55.63 81.0026C55.8 80.9225 56.21 80.7 56.53 80.5042C57.1 80.1572 57.1 80.1572 57.1 80.433C57.1 80.611 57.05 80.7 56.95 80.7C56.87 80.7 56.8 80.7445 56.8 80.789C56.8 80.8424 56.73 80.878 56.65 80.878C56.57 80.878 56.5 80.9225 56.5 80.967C56.5 81.0204 56.39 81.056 56.25 81.056C56.09 81.056 56 81.1094 56 81.1895C56 81.2784 55.89 81.3229 55.65 81.3229C55.46 81.3229 55.3 81.2873 55.3 81.234V81.234Z" fill="#E6E6E6"/>
<path d="M46.6 80.967C46.6 80.7089 46.6 80.7089 46.95 80.8869C47.14 80.9937 47.3 81.1093 47.3 81.1538C47.3 81.1983 47.14 81.2339 46.95 81.2339C46.63 81.2339 46.6 81.2161 46.6 80.967Z" fill="#E6E6E6"/>
<path d="M48.78 81.0026C48.4 80.8246 48.43 80.7 48.85 80.7C49.16 80.7 49.2 80.7267 49.2 80.9225C49.2 81.1805 49.15 81.1894 48.78 81.0026Z" fill="#E6E6E6"/>
<path d="M53.8 80.8513C53.8 80.7 53.91 80.6021 54.25 80.4508C54.72 80.2461 55.3 80.1928 55.3 80.344C55.3 80.4152 54 81.056 53.85 81.056C53.82 81.056 53.8 80.967 53.8 80.8513Z" fill="#E6E6E6"/>
<path d="M41.58 80.522C41.3 80.2106 41.3 80.2106 41.56 80.1839C41.89 80.1483 41.92 80.175 41.88 80.5309C41.85 80.8335 41.85 80.8335 41.58 80.522V80.522Z" fill="#E6E6E6"/>
<path d="M47.58 80.4686C47.2 80.2907 47.23 80.1661 47.65 80.1661C47.96 80.1661 48 80.1928 48 80.3885C48 80.6466 47.95 80.6555 47.58 80.4686Z" fill="#E6E6E6"/>
<path d="M45 79.9881C45 79.7567 45.03 79.73 45.18 79.8012C45.27 79.8457 45.44 79.9703 45.54 80.0682C45.73 80.255 45.73 80.255 45.37 80.255C45.03 80.255 45 80.2372 45 79.9881V79.9881Z" fill="#E6E6E6"/>
<path d="M55.6 79.9881C55.6 79.8101 55.65 79.7211 55.75 79.7211C55.83 79.7211 55.9 79.6855 55.9 79.6321C55.9 79.5876 56.06 79.5431 56.25 79.5431C56.44 79.5431 56.6 79.5698 56.6 79.6143C56.6 79.6499 56.37 79.8101 56.1 79.9703C55.6 80.255 55.6 80.255 55.6 79.9881Z" fill="#E6E6E6"/>
<path d="M45.78 79.3651C45.45 79.1071 45.45 79.1071 45.83 79.0982C46.18 79.0982 46.2 79.116 46.2 79.3651C46.2 79.5164 46.18 79.6321 46.15 79.6321C46.12 79.6321 45.96 79.5164 45.78 79.3651Z" fill="#E6E6E6"/>
<path d="M57.7 78.4396C57.7 78.2616 57.75 78.1193 57.8 78.1193C57.86 78.1193 57.9 78.057 57.9 77.9858C57.9 77.9146 57.95 77.8523 58 77.8523C58.06 77.8523 58.1 77.7722 58.1 77.6743C58.1 77.5586 58.17 77.4963 58.3 77.4963C58.58 77.4963 58.55 77.7455 58.21 78.226C57.82 78.7778 57.7 78.8223 57.7 78.4396V78.4396Z" fill="#E6E6E6"/>
<path d="M61.8 78.4307C61.8 78.1549 61.83 78.1193 62.05 78.1193C62.35 78.1193 62.35 78.146 62.13 78.4841C61.9 78.8223 61.8 78.8134 61.8 78.4307Z" fill="#E6E6E6"/>
<path d="M44.47 78.1282C44.25 77.79 44.25 77.7633 44.55 77.7633C44.77 77.7633 44.8 77.7989 44.8 78.0748C44.8 78.4574 44.7 78.4663 44.47 78.1282Z" fill="#E6E6E6"/>
<path d="M43.1 77.5408C43.1 77.1849 43.34 77.1048 43.44 77.434C43.54 77.7633 43.51 77.8523 43.3 77.8523C43.14 77.8523 43.1 77.79 43.1 77.5408Z" fill="#E6E6E6"/>
<path d="M59.18 76.6064C59.02 76.1615 59.02 76.1615 59.25 76.1615C59.49 76.1615 59.6 76.3573 59.6 76.8111C59.6 77.2116 59.35 77.087 59.18 76.6064Z" fill="#E6E6E6"/>
<path d="M62.7 76.7488C62.7 76.464 62.73 76.4284 62.95 76.4284C63.19 76.4284 63.2 76.4373 63.07 76.7132C62.88 77.1225 62.7 77.1403 62.7 76.7488V76.7488Z" fill="#E6E6E6"/>
<path d="M58 76.5619C58 76.1793 58.14 76.1615 58.35 76.5174C58.55 76.8556 58.54 76.8734 58.25 76.8734C58.03 76.8734 58 76.8378 58 76.5619Z" fill="#E6E6E6"/>
<path d="M43.3 76.4373C43.3 76.028 43.4 75.8945 43.7 75.8945C43.97 75.8945 43.97 75.8945 43.76 76.295C43.52 76.7488 43.3 76.82 43.3 76.4373Z" fill="#E6E6E6"/>
<path d="M63 76.0369C63 75.7521 63.03 75.7165 63.25 75.7165C63.49 75.7165 63.5 75.7254 63.37 76.0013C63.18 76.4106 63 76.4284 63 76.0369V76.0369Z" fill="#E6E6E6"/>
<path d="M53.98 75.5652C53.68 75.5385 53.6 75.494 53.6 75.3516C53.6 75.1826 53.64 75.1737 54.03 75.2271C54.86 75.3338 55 75.3783 55 75.5029C55 75.6275 54.81 75.6364 53.98 75.5652V75.5652Z" fill="#E6E6E6"/>
<path d="M44.3 75.3071C44.3 75.1203 44.35 75.0936 44.65 75.0936C44.87 75.0936 45 75.1381 45 75.2093C45 75.2805 44.84 75.3694 44.65 75.4228C44.32 75.5207 44.3 75.5118 44.3 75.3071Z" fill="#E6E6E6"/>
<path d="M57.18 75.1559C56.44 74.9512 56.27 74.7376 56.85 74.7376C57.04 74.7376 57.2 74.7821 57.2 74.8266C57.2 74.88 57.36 74.9156 57.55 74.9156C57.86 74.9156 57.9 74.9423 57.9 75.1381C57.9 75.2627 57.89 75.3516 57.88 75.3516C57.86 75.3427 57.55 75.2538 57.18 75.1559Z" fill="#E6E6E6"/>
<path d="M45.2 75.0402C45.2 74.8533 45.25 74.8266 45.55 74.8266C45.74 74.8266 45.9 74.791 45.9 74.7376C45.9 74.6931 46.06 74.6486 46.25 74.6486C46.84 74.6486 46.66 74.8622 45.9 75.0669C45.2 75.2449 45.2 75.2449 45.2 75.0402Z" fill="#E6E6E6"/>
<path d="M55.48 74.7643C55.15 74.6931 55.28 74.4706 55.65 74.4706C55.93 74.4706 56 74.5062 56 74.6486C56 74.8266 55.86 74.8533 55.48 74.7643Z" fill="#E6E6E6"/>
<path d="M47.3 74.5774C47.3 74.4439 47.39 74.3905 47.76 74.3461C48.45 74.266 48.6 74.2749 48.6 74.4173C48.6 74.5418 48.49 74.5774 47.68 74.702C47.35 74.7465 47.3 74.7376 47.3 74.5774Z" fill="#E6E6E6"/>
<path d="M38.16 74.2749C38.06 73.9367 38.09 73.8477 38.3 73.8477C38.46 73.8477 38.5 73.91 38.5 74.1592C38.5 74.5151 38.26 74.5952 38.16 74.2749Z" fill="#E6E6E6"/>
<path d="M49.8 74.2927C49.8 74.1503 49.87 74.1147 50.15 74.1147C50.55 74.1147 50.64 74.3282 50.28 74.4172C49.9 74.5062 49.8 74.4795 49.8 74.2927Z" fill="#E6E6E6"/>
<path d="M37.86 72.495C37.76 72.1569 37.79 72.0679 38 72.0679C38.16 72.0679 38.2 72.1302 38.2 72.3794C38.2 72.7353 37.96 72.8154 37.86 72.495Z" fill="#E6E6E6"/>
<path d="M63.9 70.0656C63.9 69.7096 64.14 69.6296 64.24 69.9588C64.34 70.2881 64.31 70.3771 64.1 70.3771C63.94 70.3771 63.9 70.3148 63.9 70.0656Z" fill="#E6E6E6"/>
<path d="M63.8 69.2647C63.8 68.9087 64.04 68.8286 64.14 69.1579C64.24 69.4872 64.21 69.5761 64 69.5761C63.84 69.5761 63.8 69.5138 63.8 69.2647Z" fill="#E6E6E6"/>
<path d="M63.5 67.4849C63.5 67.1289 63.74 67.0488 63.84 67.3781C63.94 67.7074 63.91 67.7963 63.7 67.7963C63.54 67.7963 63.5 67.734 63.5 67.4849Z" fill="#E6E6E6"/>
<path d="M37.83 66.8886C37.38 66.7551 37.4 66.5505 37.85 66.5505C38.16 66.5505 38.2 66.5772 38.2 66.7729C38.2 66.8975 38.19 66.9954 38.18 66.9865C38.16 66.9776 38 66.9331 37.83 66.8886V66.8886Z" fill="#E6E6E6"/>
<path d="M64.6 66.6395C64.6 66.4971 64.67 66.4615 64.95 66.4615C65.35 66.4615 65.44 66.6751 65.08 66.764C64.7 66.853 64.6 66.8263 64.6 66.6395Z" fill="#E6E6E6"/>
<path d="M36.38 66.6662C36.05 66.595 36.18 66.3725 36.55 66.3725C36.83 66.3725 36.9 66.4081 36.9 66.5505C36.9 66.7284 36.76 66.7551 36.38 66.6662Z" fill="#E6E6E6"/>
<path d="M34.88 66.4882C34.55 66.417 34.68 66.1945 35.05 66.1945C35.33 66.1945 35.4 66.2301 35.4 66.3725C35.4 66.5505 35.26 66.5772 34.88 66.4882Z" fill="#E6E6E6"/>
<path d="M68.1 66.1945C68.1 66.0521 68.17 66.0165 68.45 66.0165C68.85 66.0165 68.94 66.2301 68.58 66.3191C68.2 66.4081 68.1 66.3814 68.1 66.1945Z" fill="#E6E6E6"/>
<path d="M30.88 65.9542C30.55 65.883 30.68 65.6606 31.05 65.6606C31.33 65.6606 31.4 65.6961 31.4 65.8385C31.4 66.0165 31.26 66.0432 30.88 65.9542Z" fill="#E6E6E6"/>
<path d="M28.98 65.6872C28.65 65.6161 28.78 65.3936 29.15 65.3936C29.43 65.3936 29.5 65.4292 29.5 65.5716C29.5 65.7495 29.36 65.7762 28.98 65.6872Z" fill="#E6E6E6"/>
<path d="M72.7 65.5716C72.7 65.4292 72.77 65.3936 73.05 65.3936C73.45 65.3936 73.54 65.6072 73.18 65.6961C72.8 65.7851 72.7 65.7584 72.7 65.5716Z" fill="#E6E6E6"/>
<path d="M74 65.4114C74 65.2779 74.09 65.2245 74.46 65.18C75.15 65.0999 75.3 65.1088 75.3 65.2512C75.3 65.3758 75.19 65.4114 74.38 65.536C74.05 65.5805 74 65.5716 74 65.4114Z" fill="#E6E6E6"/>
<path d="M27.08 65.4203C26.75 65.3491 26.88 65.1266 27.25 65.1266C27.53 65.1266 27.6 65.1622 27.6 65.3046C27.6 65.4826 27.46 65.5093 27.08 65.4203Z" fill="#E6E6E6"/>
<path d="M78.2 64.7706C78.2 64.6283 78.27 64.5927 78.55 64.5927C78.95 64.5927 79.04 64.8062 78.68 64.8952C78.3 64.9842 78.2 64.9575 78.2 64.7706Z" fill="#E6E6E6"/>
<path d="M19.38 64.2634C19.05 64.1922 19.18 63.9697 19.55 63.9697C19.83 63.9697 19.9 64.0053 19.9 64.1477C19.9 64.3257 19.76 64.3524 19.38 64.2634Z" fill="#E6E6E6"/>
<path d="M18.18 64.0854C17.85 64.0142 17.98 63.7917 18.35 63.7917C18.63 63.7917 18.7 63.8273 18.7 63.9697C18.7 64.1477 18.56 64.1744 18.18 64.0854Z" fill="#E6E6E6"/>
<path d="M84 63.8807C84 63.7383 84.07 63.7028 84.35 63.7028C84.75 63.7028 84.84 63.9163 84.48 64.0053C84.1 64.0943 84 64.0676 84 63.8807Z" fill="#E6E6E6"/>
<path d="M15.38 63.6405C15.05 63.5693 15.18 63.3468 15.55 63.3468C15.83 63.3468 15.9 63.3824 15.9 63.5248C15.9 63.7027 15.76 63.7294 15.38 63.6405Z" fill="#E6E6E6"/>
<path d="M86.3 63.5248C86.3 63.3824 86.37 63.3468 86.65 63.3468C87.05 63.3468 87.14 63.5604 86.78 63.6494C86.4 63.7383 86.3 63.7116 86.3 63.5248Z" fill="#E6E6E6"/>
<path d="M87.4 63.3468C87.4 63.2044 87.47 63.1688 87.75 63.1688C88.15 63.1688 88.24 63.3824 87.88 63.4714C87.5 63.5604 87.4 63.5337 87.4 63.3468Z" fill="#E6E6E6"/>
<path d="M13.68 63.3735C13.35 63.3023 13.48 63.0798 13.85 63.0798C14.13 63.0798 14.2 63.1154 14.2 63.2578C14.2 63.4358 14.06 63.4625 13.68 63.3735Z" fill="#E6E6E6"/>
<path d="M90.2 62.9018C90.2 62.7594 90.27 62.7238 90.55 62.7238C90.95 62.7238 91.04 62.9374 90.68 63.0264C90.3 63.1154 90.2 63.0887 90.2 62.9018Z" fill="#E6E6E6"/>
<path d="M92.4 62.5459C92.4 62.4035 92.47 62.3679 92.75 62.3679C93.15 62.3679 93.24 62.5815 92.88 62.6705C92.5 62.7595 92.4 62.7328 92.4 62.5459Z" fill="#E6E6E6"/>
<path d="M94 62.2789C94 62.1365 94.07 62.1009 94.35 62.1009C94.75 62.1009 94.84 62.3145 94.48 62.4035C94.1 62.4925 94 62.4658 94 62.2789Z" fill="#E6E6E6"/>
<path d="M6.58 62.2166C6.25 62.1454 6.38 61.9229 6.75 61.9229C7.03 61.9229 7.1 61.9585 7.1 62.1009C7.1 62.2789 6.96 62.3056 6.58 62.2166Z" fill="#E6E6E6"/>
<path d="M95.1 62.1009C95.1 61.9585 95.17 61.9229 95.45 61.9229C95.85 61.9229 95.94 62.1365 95.58 62.2255C95.2 62.3145 95.1 62.2878 95.1 62.1009Z" fill="#E6E6E6"/>
<path d="M3.88 61.7717C3.55 61.7005 3.68 61.478 4.05 61.478C4.33 61.478 4.4 61.5136 4.4 61.656C4.4 61.8339 4.26 61.8606 3.88 61.7717Z" fill="#E6E6E6"/>
<path d="M0.899994 61.0419C0.899994 60.7749 1.00999 60.5881 1.15999 60.5881C1.24999 60.5881 1.29999 60.6948 1.29999 60.8995C1.29999 61.1487 1.25999 61.211 1.09999 61.211C0.969994 61.211 0.899994 61.1487 0.899994 61.0419Z" fill="#E6E6E6"/>
<path d="M1 59.5914C1 59.3244 1.13 59.0752 1.26 59.0752C1.35 59.0752 1.4 59.182 1.4 59.3867C1.4 59.6359 1.36 59.6982 1.2 59.6982C1.09 59.6982 1 59.6448 1 59.5914Z" fill="#E6E6E6"/>
<path d="M33.4 59.4846C33.4 59.3689 33.68 59.2532 33.98 59.2532C34.04 59.2532 34.1 59.3333 34.1 59.4312C34.1 59.5736 34.03 59.6092 33.75 59.6092C33.52 59.6092 33.4 59.5647 33.4 59.4846Z" fill="#E6E6E6"/>
<path d="M71.3 59.4846C71.3 59.3689 71.58 59.2532 71.88 59.2532C71.94 59.2532 72 59.3333 72 59.4312C72 59.5736 71.93 59.6092 71.65 59.6092C71.42 59.6092 71.3 59.5647 71.3 59.4846Z" fill="#E6E6E6"/>
<path d="M34.7 59.3956C34.7 59.2799 34.98 59.1642 35.28 59.1642C35.34 59.1642 35.4 59.2443 35.4 59.3422C35.4 59.4846 35.33 59.5202 35.05 59.5202C34.82 59.5202 34.7 59.4757 34.7 59.3956Z" fill="#E6E6E6"/>
<path d="M26.18 59.1909C25.88 59.1642 25.8 59.1197 25.8 58.9773C25.8 58.8083 25.84 58.7994 26.23 58.8527C27.06 58.9595 27.2 59.004 27.2 59.1286C27.2 59.2532 27.01 59.2621 26.18 59.1909V59.1909Z" fill="#E6E6E6"/>
<path d="M75.2 59.1286C75.2 59.0129 75.48 58.8972 75.78 58.8972C75.84 58.8972 75.9 58.9773 75.9 59.0752C75.9 59.2176 75.83 59.2532 75.55 59.2532C75.32 59.2532 75.2 59.2087 75.2 59.1286Z" fill="#E6E6E6"/>
<path d="M64.5 58.9862C64.5 58.9417 64.37 58.8972 64.2 58.8972C64.04 58.8972 63.9 58.8616 63.9 58.8083C63.9 58.7638 63.79 58.7193 63.65 58.7193C63.45 58.7193 63.4 58.6748 63.4 58.4879C63.4 58.301 63.43 58.2654 63.58 58.3277C63.67 58.3633 64.08 58.4968 64.47 58.6214C65.26 58.8705 65.43 59.0752 64.85 59.0752C64.66 59.0752 64.5 59.0396 64.5 58.9862V58.9862Z" fill="#E6E6E6"/>
<path d="M37.5 58.8705C37.5 58.7994 37.66 58.7104 37.85 58.657C38.18 58.5591 38.2 58.568 38.2 58.7727C38.2 58.9595 38.15 58.9862 37.85 58.9862C37.63 58.9862 37.5 58.9417 37.5 58.8705Z" fill="#E6E6E6"/>
<path d="M38.32 58.6125C38.35 58.5502 38.51 58.4523 38.68 58.39C38.99 58.2743 39 58.2832 39 58.4968C39 58.6926 38.96 58.7193 38.64 58.7193C38.41 58.7193 38.3 58.6837 38.32 58.6125Z" fill="#E6E6E6"/>
<path d="M30.13 58.568C29.85 58.4701 30 58.2743 30.35 58.2743C30.63 58.2743 30.7 58.3099 30.7 58.4523C30.7 58.6303 30.44 58.6837 30.13 58.568Z" fill="#E6E6E6"/>
<path d="M71.7 58.4523C71.7 58.3099 71.77 58.2743 72.05 58.2743C72.45 58.2743 72.54 58.4879 72.18 58.5769C71.8 58.6659 71.7 58.6392 71.7 58.4523Z" fill="#E6E6E6"/>
<path d="M79.2 58.5057C79.2 58.39 79.48 58.2743 79.78 58.2743C79.84 58.2743 79.9 58.3544 79.9 58.4523C79.9 58.5947 79.83 58.6303 79.55 58.6303C79.32 58.6303 79.2 58.5858 79.2 58.5057Z" fill="#E6E6E6"/>
<path d="M22 58.3633C22 58.1764 22.1 58.1497 22.48 58.2387C22.84 58.3277 22.75 58.5413 22.35 58.5413C22.07 58.5413 22 58.5057 22 58.3633Z" fill="#E6E6E6"/>
<path d="M34.8 58.39C34.8 58.2565 34.93 58.2031 35.58 58.1141C36.57 57.9806 36.7 57.9806 36.7 58.1319C36.7 58.2565 36.32 58.3544 35.23 58.4968C34.85 58.5502 34.8 58.5324 34.8 58.39Z" fill="#E6E6E6"/>
<path d="M66.98 58.479C66.65 58.4078 66.78 58.1853 67.15 58.1853C67.43 58.1853 67.5 58.2209 67.5 58.3633C67.5 58.5413 67.36 58.568 66.98 58.479Z" fill="#E6E6E6"/>
<path d="M100.4 58.3188C100.4 58.0696 100.43 58.0607 100.71 58.1853C100.99 58.3188 100.95 58.5413 100.65 58.5413C100.45 58.5413 100.4 58.4968 100.4 58.3188Z" fill="#E6E6E6"/>
<path d="M39.1 58.2743C39.1 58.2031 39.61 57.9184 39.75 57.9184C39.78 57.9184 39.8 58.0162 39.8 58.1408C39.8 58.3366 39.76 58.3633 39.45 58.3633C39.26 58.3633 39.1 58.3277 39.1 58.2743Z" fill="#E6E6E6"/>
<path d="M62.6 58.0963C62.6 57.8383 62.6 57.8383 62.95 58.0162C63.14 58.123 63.3 58.2387 63.3 58.2832C63.3 58.3277 63.14 58.3633 62.95 58.3633C62.63 58.3633 62.6 58.3455 62.6 58.0963Z" fill="#E6E6E6"/>
<path d="M80.7 58.2387C80.7 58.123 80.98 58.0073 81.28 58.0073C81.34 58.0073 81.4 58.0874 81.4 58.1853C81.4 58.3277 81.33 58.3633 81.05 58.3633C80.82 58.3633 80.7 58.3188 80.7 58.2387Z" fill="#E6E6E6"/>
<path d="M2.02 58.1675C2.05 58.1052 2.21 58.0073 2.38 57.945C2.69 57.8294 2.7 57.8383 2.7 58.0518C2.7 58.2476 2.66 58.2743 2.34 58.2743C2.11 58.2743 2 58.2387 2.02 58.1675Z" fill="#E6E6E6"/>
<path d="M37.2 57.9539C37.2 57.7671 37.25 57.7404 37.55 57.7404C37.77 57.7404 37.9 57.7849 37.9 57.856C37.9 57.9272 37.74 58.0162 37.55 58.0696C37.22 58.1675 37.2 58.1586 37.2 57.9539Z" fill="#E6E6E6"/>
<path d="M81.8 58.0607C81.8 57.945 82.08 57.8294 82.38 57.8294C82.44 57.8294 82.5 57.9094 82.5 58.0073C82.5 58.1497 82.43 58.1853 82.15 58.1853C81.92 58.1853 81.8 58.1408 81.8 58.0607Z" fill="#E6E6E6"/>
<path d="M25.38 58.034C25.05 57.9628 25.18 57.7404 25.55 57.7404C25.83 57.7404 25.9 57.776 25.9 57.9183C25.9 58.0963 25.76 58.123 25.38 58.034Z" fill="#E6E6E6"/>
<path d="M64.33 57.8739C63.9 57.7137 63.91 57.5624 64.35 57.5624C64.66 57.5624 64.7 57.5891 64.7 57.7849C64.7 57.9094 64.69 58.0073 64.68 58.0073C64.66 57.9984 64.5 57.945 64.33 57.8739Z" fill="#E6E6E6"/>
<path d="M3.3 57.7938C3.3 57.6781 3.58 57.5624 3.88 57.5624C3.94 57.5624 4 57.6425 4 57.7404C4 57.8828 3.93 57.9183 3.65 57.9183C3.42 57.9183 3.3 57.8739 3.3 57.7938Z" fill="#E6E6E6"/>
<path d="M17.68 57.8561C17.38 57.8294 17.3 57.7849 17.3 57.6425C17.3 57.4734 17.34 57.4645 17.73 57.5179C18.56 57.6247 18.7 57.6692 18.7 57.7938C18.7 57.9184 18.51 57.9273 17.68 57.8561V57.8561Z" fill="#E6E6E6"/>
<path d="M77.7 57.7404C77.7 57.598 77.77 57.5624 78.05 57.5624C78.45 57.5624 78.54 57.776 78.18 57.865C77.8 57.9539 77.7 57.9272 77.7 57.7404Z" fill="#E6E6E6"/>
<path d="M23.68 57.7671C23.35 57.6959 23.48 57.4734 23.85 57.4734C24.13 57.4734 24.2 57.509 24.2 57.6514C24.2 57.8294 24.06 57.856 23.68 57.7671Z" fill="#E6E6E6"/>
<path d="M40.05 57.7404C40.08 57.6959 40.24 57.5713 40.4 57.4734C40.7 57.2865 40.7 57.2865 40.7 57.5535C40.7 57.8116 40.67 57.8294 40.34 57.8294C40.14 57.8294 40.01 57.7938 40.05 57.7404Z" fill="#E6E6E6"/>
<path d="M84.3 57.7048C84.3 57.5891 84.58 57.4734 84.88 57.4734C84.94 57.4734 85 57.5535 85 57.6514C85 57.7938 84.93 57.8294 84.65 57.8294C84.42 57.8294 84.3 57.7849 84.3 57.7048Z" fill="#E6E6E6"/>
<path d="M97 57.4734C97 57.2865 97.1 57.2598 97.48 57.3488C97.84 57.4378 97.75 57.6514 97.35 57.6514C97.07 57.6514 97 57.6158 97 57.4734Z" fill="#E6E6E6"/>
<path d="M1.3 57.3844C1.3 57.242 1.37 57.2064 1.6 57.2064C1.94 57.2064 1.99 57.331 1.71 57.4734C1.42 57.6069 1.3 57.5802 1.3 57.3844V57.3844Z" fill="#E6E6E6"/>
<path d="M13.8 57.2954C13.8 57.1085 13.9 57.0818 14.28 57.1708C14.64 57.2598 14.55 57.4734 14.15 57.4734C13.87 57.4734 13.8 57.4378 13.8 57.2954Z" fill="#E6E6E6"/>
<path d="M87.8 57.3488C87.8 57.2331 88.08 57.1174 88.38 57.1174C88.44 57.1174 88.5 57.1975 88.5 57.2954C88.5 57.4378 88.43 57.4734 88.15 57.4734C87.92 57.4734 87.8 57.4289 87.8 57.3488Z" fill="#E6E6E6"/>
<path d="M7.3 57.2598C7.3 57.1441 7.58 57.0284 7.88 57.0284C7.94 57.0284 8 57.1085 8 57.2064C8 57.3488 7.93 57.3844 7.65 57.3844C7.42 57.3844 7.3 57.3399 7.3 57.2598Z" fill="#E6E6E6"/>
<path d="M12.6 57.2064C12.6 57.0195 12.7 56.9928 13.08 57.0818C13.44 57.1708 13.35 57.3844 12.95 57.3844C12.67 57.3844 12.6 57.3488 12.6 57.2064Z" fill="#E6E6E6"/>
<path d="M94.6 57.2064C94.6 57.0195 94.7 56.9928 95.08 57.0818C95.44 57.1708 95.35 57.3844 94.95 57.3844C94.67 57.3844 94.6 57.3488 94.6 57.2064Z" fill="#E6E6E6"/>
<path d="M20.48 57.2331C20.15 57.1619 20.28 56.9394 20.65 56.9394C20.93 56.9394 21 56.975 21 57.1174C21 57.2954 20.86 57.3221 20.48 57.2331Z" fill="#E6E6E6"/>
<path d="M81.3 57.1174C81.3 56.975 81.37 56.9394 81.65 56.9394C82.05 56.9394 82.14 57.153 81.78 57.242C81.4 57.331 81.3 57.3043 81.3 57.1174Z" fill="#E6E6E6"/>
<path d="M39.5 56.9483C39.5 56.6903 39.53 56.6725 39.86 56.6725C40.25 56.6725 40.24 56.7526 39.8 57.0284C39.5 57.2153 39.5 57.2153 39.5 56.9483Z" fill="#E6E6E6"/>
<path d="M2.9 56.8505C2.9 56.7081 2.97 56.6725 3.25 56.6725C3.65 56.6725 3.74 56.8861 3.38 56.975C3 57.064 2.9 57.0373 2.9 56.8505Z" fill="#E6E6E6"/>
<path d="M98.18 56.7882C97.85 56.717 97.98 56.4945 98.35 56.4945C98.63 56.4945 98.7 56.5301 98.7 56.6725C98.7 56.8505 98.56 56.8772 98.18 56.7882Z" fill="#E6E6E6"/>
<path d="M85.2 56.5835C85.2 56.4411 85.27 56.4055 85.55 56.4055C85.95 56.4055 86.04 56.6191 85.68 56.7081C85.3 56.7971 85.2 56.7704 85.2 56.5835Z" fill="#E6E6E6"/>
<path d="M15.68 56.6102C15.35 56.539 15.48 56.3165 15.85 56.3165C16.13 56.3165 16.2 56.3521 16.2 56.4945C16.2 56.6725 16.06 56.6992 15.68 56.6102Z" fill="#E6E6E6"/>
<path d="M41.48 56.4322C41.59 56.2898 41.79 55.9695 41.94 55.7203C42.24 55.1952 42.4 55.1151 42.4 55.5156C42.4 55.8449 42.21 56.2275 42.03 56.2275C41.96 56.2275 41.9 56.3254 41.9 56.45C41.9 56.6369 41.85 56.6725 41.59 56.6725C41.29 56.6725 41.29 56.6725 41.48 56.4322Z" fill="#E6E6E6"/>
<path d="M7.6 56.2275C7.6 56.0851 7.67 56.0495 7.95 56.0495C8.35 56.0495 8.44 56.2631 8.08 56.3521C7.7 56.4411 7.6 56.4144 7.6 56.2275Z" fill="#E6E6E6"/>
<path d="M11.93 56.3432C11.65 56.2453 11.8 56.0495 12.15 56.0495C12.43 56.0495 12.5 56.0851 12.5 56.2275C12.5 56.4055 12.24 56.4589 11.93 56.3432Z" fill="#E6E6E6"/>
<path d="M1.5 55.7648C1.5 55.4978 1.63 55.2486 1.76 55.2486C1.85 55.2486 1.9 55.3554 1.9 55.5601C1.9 55.8093 1.86 55.8716 1.7 55.8716C1.59 55.8716 1.5 55.8182 1.5 55.7648Z" fill="#E6E6E6"/>
<path d="M59.8 55.2041C59.8 55.0795 59.76 54.9817 59.7 54.9817C59.65 54.9817 59.6 54.8393 59.6 54.6702C59.6 54.1896 59.82 54.2964 60.07 54.8927C60.29 55.4266 60.29 55.4266 60.04 55.4266C59.85 55.4266 59.8 55.3821 59.8 55.2041V55.2041Z" fill="#E6E6E6"/>
<path d="M61.06 55.2664C61.04 55.2308 60.92 54.9906 60.81 54.7325C60.6 54.2697 60.6 54.2697 60.85 54.2697C61.05 54.2697 61.1 54.3142 61.1 54.4922C61.1 54.6168 61.15 54.7147 61.2 54.7147C61.26 54.7147 61.3 54.8571 61.3 55.0262C61.3 55.3109 61.18 55.4355 61.06 55.2664Z" fill="#E6E6E6"/>
<path d="M1.74 54.4744C1.88 53.7447 1.92 53.6468 2.06 53.6468C2.22 53.6468 2.23 53.7803 2.14 54.3943C2.09 54.7236 2.03 54.8037 1.88 54.8037C1.7 54.8037 1.69 54.7592 1.74 54.4744Z" fill="#E6E6E6"/>
<path d="M41.6 53.8693C41.6 53.6023 41.63 53.5578 41.84 53.5578C42.07 53.5578 42.08 53.5756 41.97 53.8693C41.91 54.0384 41.81 54.1807 41.73 54.1807C41.65 54.1807 41.6 54.065 41.6 53.8693Z" fill="#E6E6E6"/>
<path d="M38.2 53.4866C38.2 53.451 38.29 53.3709 38.4 53.3086C38.51 53.2463 38.6 53.1395 38.6 53.0684C38.6 52.9972 38.67 52.9349 38.75 52.9349C38.85 52.9349 38.9 53.0328 38.9 53.2463C38.9 53.54 38.88 53.5578 38.55 53.5578C38.36 53.5578 38.2 53.5311 38.2 53.4866Z" fill="#E6E6E6"/>
<path d="M60.26 53.362C60.16 53.0239 60.19 52.9349 60.4 52.9349C60.56 52.9349 60.6 52.9972 60.6 53.2463C60.6 53.6023 60.36 53.6824 60.26 53.362Z" fill="#E6E6E6"/>
<path d="M29.1 53.0683C29.1 52.8103 29.14 52.7569 29.31 52.7569C29.45 52.7569 29.5 52.8014 29.47 52.8815C29.44 52.9438 29.48 53.0861 29.56 53.1929C29.7 53.3709 29.7 53.3798 29.41 53.3798C29.12 53.3798 29.1 53.3531 29.1 53.0683Z" fill="#E6E6E6"/>
<path d="M62.5 52.9349C62.5 52.5433 62.52 52.4899 62.71 52.4899C62.89 52.4899 62.92 52.5255 62.87 52.748C62.83 52.8993 62.87 53.0683 62.96 53.1929C63.1 53.3709 63.1 53.3798 62.81 53.3798C62.51 53.3798 62.5 53.3709 62.5 52.9349Z" fill="#E6E6E6"/>
<path d="M70.9 52.7124C70.9 52.3564 71.14 52.2763 71.24 52.6056C71.34 52.9349 71.31 53.0239 71.1 53.0239C70.94 53.0239 70.9 52.9616 70.9 52.7124Z" fill="#E6E6E6"/>
<path d="M60.06 52.5166C59.87 51.6178 59.87 51.511 60.09 51.511C60.22 51.511 60.3 51.5644 60.3 51.6712C60.3 51.7513 60.33 52.0361 60.36 52.2941C60.42 52.6768 60.4 52.7569 60.27 52.7569C60.18 52.7569 60.09 52.6501 60.06 52.5166Z" fill="#E6E6E6"/>
<path d="M38.56 52.2941C38.46 51.956 38.49 51.867 38.7 51.867C38.86 51.867 38.9 51.9293 38.9 52.1784C38.9 52.5344 38.66 52.6145 38.56 52.2941Z" fill="#E6E6E6"/>
<path d="M42.1 51.9115C42.1 51.6623 42.14 51.6 42.3 51.6C42.51 51.6 42.54 51.689 42.44 52.0272C42.34 52.3475 42.1 52.2674 42.1 51.9115Z" fill="#E6E6E6"/>
<path d="M70.7 51.9115C70.7 51.7157 70.75 51.6 70.83 51.6C70.91 51.6 71.01 51.7424 71.07 51.9115C71.18 52.2051 71.17 52.2229 70.94 52.2229C70.73 52.2229 70.7 52.1784 70.7 51.9115Z" fill="#E6E6E6"/>
<path d="M30.5 51.7246C30.76 51.1106 31 50.9682 31 51.4131C31 51.8047 30.9 51.956 30.64 51.956C30.43 51.956 30.41 51.9293 30.5 51.7246Z" fill="#E6E6E6"/>
<path d="M63.8 51.8937C63.8 51.7691 64.38 50.9237 64.54 50.808C64.68 50.7012 64.7 50.7279 64.7 51.0127C64.7 51.1906 64.66 51.333 64.6 51.333C64.55 51.333 64.5 51.3953 64.5 51.4665C64.5 51.5377 64.46 51.6 64.4 51.6C64.35 51.6 64.3 51.6801 64.3 51.778C64.3 51.9115 64.23 51.956 64.05 51.956C63.91 51.956 63.8 51.9293 63.8 51.8937V51.8937Z" fill="#E6E6E6"/>
<path d="M29.4 51.5555C29.4 51.2885 29.43 51.244 29.64 51.244C29.87 51.244 29.88 51.2618 29.77 51.5555C29.71 51.7246 29.61 51.867 29.53 51.867C29.45 51.867 29.4 51.7513 29.4 51.5555Z" fill="#E6E6E6"/>
<path d="M71.65 51.422C71.45 51.0839 71.46 51.0661 71.75 51.0661C71.97 51.0661 72 51.1017 72 51.3775C72 51.7602 71.86 51.778 71.65 51.422Z" fill="#E6E6E6"/>
<path d="M99.2 51.1105C99.2 50.7546 99.44 50.6745 99.54 51.0038C99.64 51.333 99.61 51.422 99.4 51.422C99.24 51.422 99.2 51.3597 99.2 51.1105Z" fill="#E6E6E6"/>
<path d="M70.1 50.9237C70.1 50.5766 70.19 50.5855 70.5 50.9771C70.71 51.244 70.71 51.244 70.41 51.244C70.12 51.244 70.1 51.2173 70.1 50.9237Z" fill="#E6E6E6"/>
<path d="M29.8 50.8436C29.8 50.5588 29.82 50.5321 30.1 50.5321C30.4 50.5321 30.4 50.5321 30.18 50.8436C29.89 51.2351 29.8 51.2351 29.8 50.8436Z" fill="#E6E6E6"/>
<path d="M63.2 50.8436C63.2 50.5588 63.22 50.5321 63.5 50.5321C63.8 50.5321 63.8 50.5321 63.58 50.8436C63.29 51.2351 63.2 51.2351 63.2 50.8436Z" fill="#E6E6E6"/>
<path d="M43.26 50.6567C43.14 50.3719 43.2 50.1761 43.4 50.1761C43.56 50.1761 43.6 50.2384 43.6 50.4876C43.6 50.8169 43.38 50.9237 43.26 50.6567Z" fill="#E6E6E6"/>
<path d="M71.06 50.5321C70.77 50.2206 70.77 50.2206 71.04 50.194C71.39 50.1584 71.42 50.185 71.38 50.541C71.35 50.8347 71.35 50.8347 71.06 50.5321V50.5321Z" fill="#E6E6E6"/>
<path d="M2.7 50.5232C2.7 50.2384 2.94 49.6422 3.06 49.6422C3.21 49.6422 3.24 49.8914 3.14 50.3452C3.09 50.5321 3.02 50.6211 2.89 50.6211C2.78 50.6211 2.7 50.5766 2.7 50.5232V50.5232Z" fill="#E6E6E6"/>
<path d="M35.7 50.3096C35.7 50.2206 35.6 50.1761 35.4 50.1761C35.15 50.1761 35.1 50.1405 35.1 49.9537C35.1 49.749 35.12 49.7401 35.37 49.8291C35.8 49.9715 36.4 50.2918 36.4 50.3719C36.4 50.4075 36.24 50.4431 36.05 50.4431C35.81 50.4431 35.7 50.3986 35.7 50.3096Z" fill="#E6E6E6"/>
<path d="M69.1 50.3096C69.1 50.2206 69 50.1761 68.8 50.1761C68.55 50.1761 68.5 50.1405 68.5 49.9537C68.5 49.749 68.52 49.7401 68.77 49.8291C69.2 49.9715 69.8 50.2918 69.8 50.3719C69.8 50.4075 69.64 50.4431 69.45 50.4431C69.21 50.4431 69.1 50.3986 69.1 50.3096Z" fill="#E6E6E6"/>
<path d="M98.86 50.0783C98.76 49.6244 98.79 49.3752 98.94 49.3752C99.02 49.3752 99.12 49.5443 99.19 49.7668C99.34 50.3007 99.33 50.3541 99.11 50.3541C98.98 50.3541 98.91 50.2651 98.86 50.0783Z" fill="#E6E6E6"/>
<path d="M43.16 49.8914C43.06 49.5532 43.09 49.4642 43.3 49.4642C43.46 49.4642 43.5 49.5265 43.5 49.7757C43.5 50.1316 43.26 50.2117 43.16 49.8914Z" fill="#E6E6E6"/>
<path d="M30.9 49.7312C30.9 49.4909 30.93 49.4642 31.2 49.4642C31.43 49.4642 31.5 49.4286 31.5 49.2862C31.5 49.1438 31.57 49.1083 31.85 49.1083C32.09 49.1083 32.2 49.0638 32.2 48.9748C32.2 48.8858 32.31 48.8413 32.55 48.8413C33.03 48.8413 33.01 49.0549 32.52 49.1794C32.31 49.2417 31.86 49.4464 31.52 49.6422C30.9 49.9982 30.9 49.9982 30.9 49.7312Z" fill="#E6E6E6"/>
<path d="M42 49.6867C42 49.3307 42.24 49.2506 42.34 49.5799C42.44 49.9092 42.41 49.9982 42.2 49.9982C42.04 49.9982 42 49.9359 42 49.6867Z" fill="#E6E6E6"/>
<path d="M69.93 49.6155C69.51 49.3663 69.52 49.2862 69.95 49.2862C70.27 49.2862 70.3 49.304 70.3 49.5532C70.3 49.7045 70.29 49.8202 70.28 49.8113C70.26 49.8113 70.1 49.7223 69.93 49.6155V49.6155Z" fill="#E6E6E6"/>
<path d="M64.9 49.3752C64.9 49.126 65.05 49.0193 65.41 49.0193C65.51 49.0193 65.6 48.9837 65.6 48.9303C65.6 48.8858 65.76 48.8413 65.95 48.8413C66.19 48.8413 66.3 48.8858 66.3 48.9748C66.3 49.046 66.24 49.1083 66.16 49.1083C66.09 49.1083 65.77 49.2239 65.46 49.3574C64.9 49.6155 64.9 49.6155 64.9 49.3752Z" fill="#E6E6E6"/>
<path d="M60.2 49.2684C60.2 49.0015 60.33 48.7523 60.46 48.7523C60.55 48.7523 60.6 48.8591 60.6 49.0638C60.6 49.3129 60.56 49.3752 60.4 49.3752C60.29 49.3752 60.2 49.3218 60.2 49.2684Z" fill="#E6E6E6"/>
<path d="M98.5 48.7078C98.5 48.5387 98.46 48.3963 98.4 48.3963C98.35 48.3963 98.3 48.2539 98.3 48.0849C98.3 47.5776 98.55 47.7022 98.73 48.3073C98.94 48.9837 98.94 49.0193 98.7 49.0193C98.54 49.0193 98.5 48.957 98.5 48.7078Z" fill="#E6E6E6"/>
<path d="M42.55 48.1294C42.35 47.7912 42.36 47.7734 42.65 47.7734C42.87 47.7734 42.9 47.809 42.9 48.0849C42.9 48.4675 42.76 48.4853 42.55 48.1294Z" fill="#E6E6E6"/>
<path d="M59.5 48.0849C59.5 47.9158 59.55 47.7734 59.6 47.7734C59.66 47.7734 59.7 47.6933 59.7 47.5954C59.7 47.4975 59.77 47.4174 59.85 47.4174C59.94 47.4174 60 47.3373 60 47.195C60 47.0704 60.05 46.9725 60.1 46.9725C60.16 46.9725 60.2 46.9102 60.2 46.839C60.2 46.7678 60.27 46.7055 60.35 46.7055C60.43 46.7055 60.5 46.6254 60.5 46.5275C60.5 46.3851 60.57 46.3495 60.81 46.3495C61.15 46.3495 61.15 46.3495 60.62 46.9636C60.44 47.1861 60.15 47.5954 59.99 47.8802C59.66 48.4675 59.5 48.5387 59.5 48.0849V48.0849Z" fill="#E6E6E6"/>
<path d="M97 46.928C97 46.6699 97.02 46.661 97.4 46.839C97.8 47.0259 97.78 47.1505 97.35 47.1505C97.04 47.1505 97 47.1238 97 46.928Z" fill="#E6E6E6"/>
<path d="M4.9 46.9725C4.9 46.9013 5.41 46.6165 5.55 46.6165C5.58 46.6165 5.6 46.7144 5.6 46.839C5.6 47.0348 5.56 47.0615 5.25 47.0615C5.06 47.0615 4.9 47.0259 4.9 46.9725Z" fill="#E6E6E6"/>
<path d="M48.38 46.5008C47.82 46.4296 47.7 46.3851 47.7 46.2516C47.7 46.0559 47.69 46.0559 48.46 46.1716C48.78 46.225 49.2 46.2872 49.38 46.3139C49.57 46.3406 49.7 46.4118 49.7 46.483C49.7 46.6343 49.42 46.6432 48.38 46.5008V46.5008Z" fill="#E6E6E6"/>
<path d="M95.7 46.394C95.7 46.136 95.72 46.1271 96.1 46.305C96.5 46.4919 96.48 46.6165 96.05 46.6165C95.74 46.6165 95.7 46.5898 95.7 46.394Z" fill="#E6E6E6"/>
<path d="M4 46.4652C4 46.4385 4.05 46.2606 4.12 46.0737C4.26 45.6376 4.5 45.6109 4.5 46.0203C4.5 46.2517 4.44 46.3406 4.25 46.4207C4.11 46.4741 4 46.5008 4 46.4652Z" fill="#E6E6E6"/>
<path d="M6.2 46.4385C6.2 46.3851 6.39 46.2606 6.63 46.1716C7.05 46.0025 7.05 46.0025 7.08 46.1894C7.1 46.2872 7.06 46.4118 6.98 46.4474C6.79 46.5542 6.2 46.5453 6.2 46.4385Z" fill="#E6E6E6"/>
<path d="M52.2 46.4029C52.2 46.2872 52.48 46.1716 52.78 46.1716C52.84 46.1716 52.9 46.2517 52.9 46.3495C52.9 46.4919 52.83 46.5275 52.55 46.5275C52.32 46.5275 52.2 46.483 52.2 46.4029Z" fill="#E6E6E6"/>
<path d="M94.8 46.1271C94.8 46.0381 94.69 45.9936 94.45 45.9936C94.21 45.9936 94.1 45.9491 94.1 45.8601C94.1 45.7711 93.99 45.7266 93.75 45.7266C93.56 45.7266 93.4 45.691 93.4 45.6376C93.4 45.5931 93.29 45.5486 93.15 45.5486C93.01 45.5486 92.9 45.513 92.9 45.4596C92.9 45.4151 92.79 45.3706 92.65 45.3706C92.51 45.3706 92.4 45.335 92.4 45.2816C92.4 45.2372 92.29 45.1927 92.15 45.1927C91.95 45.1927 91.9 45.1482 91.9 44.9702C91.9 44.7121 91.74 44.6676 94.09 45.5397C95.49 46.0559 95.79 46.2605 95.16 46.2605C94.91 46.2605 94.8 46.2249 94.8 46.1271V46.1271Z" fill="#E6E6E6"/>
<path d="M96.98 45.9402C96.6 45.7622 96.63 45.6376 97.05 45.6376C97.33 45.6376 97.4 45.602 97.4 45.4596C97.4 45.166 97.66 45.255 97.77 45.5931C97.88 45.8868 97.87 45.9046 97.64 45.9046C97.51 45.9046 97.4 45.9491 97.4 45.9936C97.4 46.1093 97.3 46.1004 96.98 45.9402Z" fill="#E6E6E6"/>
<path d="M45.9 45.9046C45.9 45.8601 45.79 45.8156 45.65 45.8156C45.45 45.8156 45.4 45.7711 45.4 45.602C45.4 45.3795 45.4 45.3795 46 45.5753C46.67 45.7978 46.79 45.9936 46.25 45.9936C46.06 45.9936 45.9 45.958 45.9 45.9046V45.9046Z" fill="#E6E6E6"/>
<path d="M54.52 45.7978C54.55 45.7355 54.71 45.6376 54.88 45.5753C55.19 45.4596 55.2 45.4685 55.2 45.6821C55.2 45.8779 55.16 45.9046 54.84 45.9046C54.61 45.9046 54.5 45.869 54.52 45.7978Z" fill="#E6E6E6"/>
<path d="M38.7 45.5397C38.7 45.2728 38.7 45.2728 39 45.4596C39.44 45.7355 39.45 45.8156 39.06 45.8156C38.73 45.8156 38.7 45.7978 38.7 45.5397Z" fill="#E6E6E6"/>
<path d="M63.05 45.7266C63.08 45.6821 63.24 45.5575 63.4 45.4596C63.7 45.2728 63.7 45.2728 63.7 45.5397C63.7 45.7978 63.67 45.8156 63.34 45.8156C63.14 45.8156 63.01 45.78 63.05 45.7266Z" fill="#E6E6E6"/>
<path d="M5.9 45.5041C5.9 45.3083 5.94 45.2816 6.26 45.2816C6.7 45.2816 6.68 45.4418 6.22 45.6109C5.91 45.7266 5.9 45.7177 5.9 45.5041V45.5041Z" fill="#E6E6E6"/>
<path d="M8.32 45.6198C8.35 45.5575 8.51 45.4596 8.68 45.3973C8.99 45.2817 9 45.2906 9 45.5041C9 45.6999 8.96 45.7266 8.64 45.7266C8.41 45.7266 8.3 45.691 8.32 45.6198Z" fill="#E6E6E6"/>
<path d="M48.98 45.5753C48.65 45.5041 48.78 45.2816 49.15 45.2816C49.43 45.2816 49.5 45.3172 49.5 45.4596C49.5 45.6376 49.36 45.6643 48.98 45.5753Z" fill="#E6E6E6"/>
<path d="M95.88 45.4952C95.5 45.3173 95.53 45.1927 95.95 45.1927C96.26 45.1927 96.3 45.2194 96.3 45.4151C96.3 45.6732 96.25 45.6821 95.88 45.4952Z" fill="#E6E6E6"/>
<path d="M53.1 45.2016C53.1 45.0236 53.35 44.9257 53.83 44.9257C54.21 44.9257 54.17 45.0859 53.75 45.246C53.29 45.4151 53.1 45.4062 53.1 45.2016Z" fill="#E6E6E6"/>
<path d="M9.82 45.0859C9.85 45.0236 10.01 44.9257 10.18 44.8634C10.49 44.7477 10.5 44.7566 10.5 44.9702C10.5 45.166 10.46 45.1927 10.14 45.1927C9.91 45.1927 9.8 45.1571 9.82 45.0859Z" fill="#E6E6E6"/>
<path d="M46.78 45.1304C46.45 45.0592 46.58 44.8367 46.95 44.8367C47.23 44.8367 47.3 44.8723 47.3 45.0147C47.3 45.1927 47.16 45.2194 46.78 45.1304Z" fill="#E6E6E6"/>
<path d="M62.5 44.9257C62.5 44.6765 62.53 44.6587 62.85 44.6587C63.29 44.6587 63.29 44.7388 62.85 44.9969C62.5 45.1927 62.5 45.1927 62.5 44.9257Z" fill="#E6E6E6"/>
<path d="M7.5 44.8812C7.5 44.6854 7.54 44.6587 7.86 44.6587C8.3 44.6587 8.28 44.8189 7.82 44.988C7.51 45.1037 7.5 45.0948 7.5 44.8812V44.8812Z" fill="#E6E6E6"/>
<path d="M54.2 44.8812C54.2 44.6854 54.24 44.6587 54.56 44.6587C55 44.6587 54.98 44.8189 54.52 44.988C54.21 45.1037 54.2 45.0948 54.2 44.8812Z" fill="#E6E6E6"/>
<path d="M93.08 44.454C91.98 44.0714 91.72 43.8578 92.35 43.8578C92.54 43.8578 92.7 43.9023 92.7 43.9468C92.7 44.0002 92.81 44.0358 92.95 44.0358C93.09 44.0358 93.2 44.0803 93.2 44.1248C93.2 44.1782 93.31 44.2138 93.45 44.2138C93.59 44.2138 93.7 44.2583 93.7 44.3028C93.7 44.3562 93.81 44.3917 93.95 44.3917C94.15 44.3917 94.2 44.4362 94.2 44.6142C94.2 44.7388 94.19 44.8367 94.18 44.8278C94.16 44.8278 93.67 44.6587 93.08 44.454V44.454Z" fill="#E6E6E6"/>
<path d="M36.33 44.5074C36.1 44.4006 36 44.2939 36 44.1515C36 44.0358 36.02 43.9468 36.05 43.9468C36.2 43.9468 37.3 44.4985 37.3 44.5697C37.3 44.7032 36.69 44.6676 36.33 44.5074Z" fill="#E6E6E6"/>
<path d="M90.3 44.4451C90.3 44.2405 90.32 44.2316 90.65 44.3295C90.84 44.3828 91 44.4718 91 44.543C91 44.6142 90.87 44.6587 90.65 44.6587C90.35 44.6587 90.3 44.632 90.3 44.4451Z" fill="#E6E6E6"/>
<path d="M55.4 44.3472C55.4 44.1515 55.44 44.1248 55.75 44.1248C56.18 44.1248 56.19 44.2138 55.81 44.4184C55.43 44.6142 55.4 44.6142 55.4 44.3472Z" fill="#E6E6E6"/>
<path d="M57.15 44.4807C57.18 44.4362 57.34 44.3116 57.5 44.2138C57.8 44.0269 57.8 44.0269 57.8 44.2938C57.8 44.5519 57.77 44.5697 57.44 44.5697C57.24 44.5697 57.11 44.5341 57.15 44.4807Z" fill="#E6E6E6"/>
<path d="M65.3 44.4807C65.3 44.4095 65.81 44.1248 65.95 44.1248C65.98 44.1248 66 44.2227 66 44.3472C66 44.543 65.96 44.5697 65.65 44.5697C65.46 44.5697 65.3 44.5341 65.3 44.4807Z" fill="#E6E6E6"/>
<path d="M63.7 44.2049C63.7 43.9913 63.74 43.9468 63.95 43.9468C64.11 43.9468 64.2 43.8934 64.2 43.8133C64.2 43.7243 64.31 43.6798 64.55 43.6798C64.74 43.6798 64.9 43.7154 64.9 43.751C64.9 43.7955 64.63 43.9735 64.3 44.1515C63.7 44.4629 63.7 44.4629 63.7 44.2049Z" fill="#E6E6E6"/>
<path d="M38.03 44.107C37.74 43.9646 37.5 43.8044 37.5 43.7599C37.5 43.7154 37.66 43.6798 37.85 43.6798C38.09 43.6798 38.2 43.7243 38.2 43.8133C38.2 43.8934 38.29 43.9468 38.45 43.9468C38.65 43.9468 38.7 43.9913 38.7 44.1693C38.7 44.4451 38.67 44.4451 38.03 44.107Z" fill="#E6E6E6"/>
<path d="M12.5 44.1871C12.5 44.1248 12.73 44.0091 13 43.929C13.5 43.7866 13.5 43.7866 13.5 43.9913C13.5 44.1248 13.43 44.2138 13.28 44.2494C12.89 44.3384 12.5 44.3117 12.5 44.1871Z" fill="#E6E6E6"/>
<path d="M10.5 43.8133C10.5 43.6175 10.54 43.5908 10.86 43.5908C11.3 43.5908 11.28 43.751 10.82 43.9201C10.51 44.0358 10.5 44.0269 10.5 43.8133V43.8133Z" fill="#E6E6E6"/>
<path d="M66.62 43.929C66.65 43.8667 66.81 43.7688 66.98 43.7065C67.29 43.5908 67.3 43.5997 67.3 43.8133C67.3 44.0091 67.26 44.0358 66.94 44.0358C66.71 44.0358 66.6 44.0002 66.62 43.929Z" fill="#E6E6E6"/>
<path d="M91.53 43.929C91.08 43.7955 91.1 43.5908 91.55 43.5908C91.86 43.5908 91.9 43.6175 91.9 43.8133C91.9 43.9379 91.89 44.0358 91.88 44.0269C91.86 44.018 91.7 43.9735 91.53 43.929Z" fill="#E6E6E6"/>
<path d="M96.6 43.6264C96.6 43.2349 96.78 43.2527 96.97 43.662C97.1 43.9379 97.09 43.9468 96.85 43.9468C96.63 43.9468 96.6 43.9112 96.6 43.6264Z" fill="#E6E6E6"/>
<path d="M11.3 43.5463C11.3 43.3505 11.34 43.3239 11.66 43.3239C12.1 43.3239 12.08 43.484 11.62 43.6531C11.31 43.7688 11.3 43.7599 11.3 43.5463V43.5463Z" fill="#E6E6E6"/>
<path d="M56.9 43.5107C56.9 43.2527 56.93 43.2349 57.26 43.2349C57.65 43.2349 57.64 43.315 57.2 43.5908C56.9 43.7777 56.9 43.7777 56.9 43.5107Z" fill="#E6E6E6"/>
<path d="M14.7 43.5641C14.7 43.4929 15.07 43.3505 15.65 43.2082C16.79 42.9234 16.8 42.9234 16.8 43.1459C16.8 43.2883 16.73 43.3238 16.45 43.3238C16.26 43.3238 16.1 43.3683 16.1 43.4128C16.1 43.4662 15.94 43.5018 15.75 43.5018C15.56 43.5018 15.4 43.5463 15.4 43.5908C15.4 43.6442 15.24 43.6798 15.05 43.6798C14.83 43.6798 14.7 43.6353 14.7 43.5641Z" fill="#E6E6E6"/>
<path d="M34.1 43.4573C34.1 43.2438 34.11 43.2349 34.42 43.3506C34.88 43.5196 34.9 43.6798 34.46 43.6798C34.14 43.6798 34.1 43.6531 34.1 43.4573Z" fill="#E6E6E6"/>
<path d="M67.62 43.573C67.65 43.5107 67.81 43.4129 67.98 43.3506C68.29 43.2349 68.3 43.2438 68.3 43.4573C68.3 43.6531 68.26 43.6798 67.94 43.6798C67.71 43.6798 67.6 43.6442 67.62 43.573Z" fill="#E6E6E6"/>
<path d="M87 43.4662C87 43.2616 87.02 43.2527 87.35 43.3506C87.54 43.4039 87.7 43.4929 87.7 43.5641C87.7 43.6353 87.57 43.6798 87.35 43.6798C87.05 43.6798 87 43.6531 87 43.4662Z" fill="#E6E6E6"/>
<path d="M90.43 43.573C89.98 43.4395 90 43.2349 90.45 43.2349C90.76 43.2349 90.8 43.2616 90.8 43.4573C90.8 43.5819 90.79 43.6798 90.78 43.6709C90.76 43.662 90.6 43.6175 90.43 43.573Z" fill="#E6E6E6"/>
<path d="M7.3 43.4306C7.3 43.3595 7.82 43.0569 7.94 43.0569C7.97 43.0569 8 43.1548 8 43.2794C8 43.4751 7.96 43.5018 7.65 43.5018C7.46 43.5018 7.3 43.4662 7.3 43.4306Z" fill="#E6E6E6"/>
<path d="M36.38 43.3595C36 43.1815 36.03 43.0569 36.45 43.0569C36.76 43.0569 36.8 43.0836 36.8 43.2794C36.8 43.5374 36.75 43.5463 36.38 43.3595Z" fill="#E6E6E6"/>
<path d="M41 43.226C41 42.959 41 42.959 41.3 43.1459C41.74 43.4217 41.75 43.5018 41.36 43.5018C41.03 43.5018 41 43.484 41 43.226Z" fill="#E6E6E6"/>
<path d="M58.75 43.3238C58.78 43.2793 58.94 43.1548 59.1 43.0569C59.4 42.87 59.4 42.87 59.4 43.137C59.4 43.395 59.37 43.4128 59.04 43.4128C58.84 43.4128 58.71 43.3772 58.75 43.3238Z" fill="#E6E6E6"/>
<path d="M65.8 43.1993C65.8 42.9946 65.84 42.9679 66.15 42.9679C66.39 42.9679 66.5 42.9234 66.5 42.8344C66.5 42.7543 66.59 42.7009 66.75 42.7009C66.89 42.7009 67 42.6653 67 42.6119C67 42.5674 67.11 42.5229 67.24 42.5229C67.37 42.5229 67.5 42.4784 67.52 42.425C67.54 42.3717 67.77 42.3094 68.03 42.2827C68.42 42.2382 68.5 42.256 68.5 42.3805C68.5 42.4606 68.44 42.5229 68.38 42.5229C68.28 42.5229 66.54 43.137 65.93 43.3772C65.84 43.4128 65.8 43.3505 65.8 43.1993Z" fill="#E6E6E6"/>
<path d="M33 43.2349C33 43.1904 32.87 43.1459 32.7 43.1459C32.47 43.1459 32.4 43.1103 32.4 42.9679C32.4 42.7543 32.48 42.7454 33.17 42.9412C33.78 43.1103 33.88 43.3238 33.35 43.3238C33.16 43.3238 33 43.2882 33 43.2349Z" fill="#E6E6E6"/>
<path d="M85.6 43.1459C85.6 42.959 85.7 42.9323 86.08 43.0213C86.44 43.1103 86.35 43.3239 85.95 43.3239C85.67 43.3239 85.6 43.2883 85.6 43.1459Z" fill="#E6E6E6"/>
<path d="M96.1 43.0213C96.1 42.8166 96.12 42.8077 96.39 42.8878C96.84 43.0302 96.87 43.2349 96.45 43.2349C96.15 43.2349 96.1 43.2082 96.1 43.0213Z" fill="#E6E6E6"/>
<path d="M16.9 43.0213C16.9 42.9501 17.09 42.8611 17.34 42.7988C17.94 42.6653 18 42.6742 18 42.87C18 42.9857 17.9 43.048 17.69 43.0925C17.18 43.1815 16.9 43.1548 16.9 43.0213Z" fill="#E6E6E6"/>
<path d="M35.33 42.9234C34.9 42.7632 34.91 42.6119 35.35 42.6119C35.66 42.6119 35.7 42.6386 35.7 42.8344C35.7 42.959 35.69 43.0569 35.68 43.0569C35.66 43.048 35.5 42.9946 35.33 42.9234Z" fill="#E6E6E6"/>
<path d="M6.4 42.7454C6.4 42.5496 6.44 42.5229 6.75 42.5229C7.18 42.5229 7.2 42.6475 6.8 42.8344C6.42 43.0124 6.4 43.0035 6.4 42.7454Z" fill="#E6E6E6"/>
<path d="M88.03 42.8611C87.58 42.7276 87.6 42.5229 88.05 42.5229C88.36 42.5229 88.4 42.5496 88.4 42.7454C88.4 42.87 88.39 42.9679 88.38 42.959C88.36 42.9501 88.2 42.9056 88.03 42.8611Z" fill="#E6E6E6"/>
<path d="M14.3 42.6475C14.3 42.4606 14.35 42.4339 14.65 42.4339C14.87 42.4339 15 42.4784 15 42.5496C15 42.6208 14.84 42.7098 14.65 42.7632C14.32 42.8611 14.3 42.8522 14.3 42.6475Z" fill="#E6E6E6"/>
<path d="M83.6 42.7009C83.6 42.514 83.7 42.4873 84.08 42.5763C84.44 42.6653 84.35 42.8789 83.95 42.8789C83.67 42.8789 83.6 42.8433 83.6 42.7009Z" fill="#E6E6E6"/>
<path d="M95.2 42.7454C95.2 42.6564 95.09 42.6119 94.85 42.6119C94.54 42.6119 94.5 42.5852 94.5 42.3895C94.5 42.2026 94.53 42.1848 94.73 42.2471C95.92 42.6653 96.2 42.8789 95.55 42.8789C95.31 42.8789 95.2 42.8344 95.2 42.7454Z" fill="#E6E6E6"/>
<path d="M70.7 42.6653C70.7 42.5496 70.98 42.4339 71.28 42.4339C71.34 42.4339 71.4 42.514 71.4 42.6119C71.4 42.7543 71.33 42.7899 71.05 42.7899C70.82 42.7899 70.7 42.7454 70.7 42.6653Z" fill="#E6E6E6"/>
<path d="M9 42.6119C9 42.5407 10.49 41.811 10.65 41.811C10.68 41.811 10.7 41.9089 10.7 42.0335C10.7 42.2204 10.65 42.256 10.4 42.256C10.22 42.256 10.1 42.3005 10.1 42.3716C10.1 42.4428 9.99 42.5407 9.85 42.5941C9.53 42.7276 9 42.7365 9 42.6119Z" fill="#E6E6E6"/>
<path d="M19 42.5763C19 42.4962 19.19 42.4161 19.5 42.3538C20.17 42.2293 20.2 42.2293 20.2 42.425C20.2 42.5496 20.1 42.603 19.83 42.6475C19.23 42.7276 19 42.7098 19 42.5763Z" fill="#E6E6E6"/>
<path d="M30.3 42.434C30.3 42.2471 30.4 42.2204 30.78 42.3094C31.14 42.3984 31.05 42.6119 30.65 42.6119C30.37 42.6119 30.3 42.5763 30.3 42.434Z" fill="#E6E6E6"/>
<path d="M41.23 42.2471C40.94 42.0513 40.7 41.8733 40.7 41.8555C40.7 41.8288 40.86 41.811 41.05 41.811C41.29 41.811 41.4 41.8555 41.4 41.9445C41.4 42.0157 41.49 42.078 41.6 42.078C41.76 42.078 41.8 42.1403 41.8 42.3449C41.8 42.4962 41.79 42.6119 41.78 42.6119C41.76 42.6119 41.51 42.4517 41.23 42.2471Z" fill="#E6E6E6"/>
<path d="M60 42.5407C60 42.4695 60.52 42.167 60.64 42.167C60.67 42.167 60.7 42.2649 60.7 42.3894C60.7 42.5852 60.66 42.6119 60.35 42.6119C60.16 42.6119 60 42.5763 60 42.5407Z" fill="#E6E6E6"/>
<path d="M86.88 42.5496C86.55 42.4784 86.68 42.256 87.05 42.256C87.33 42.256 87.4 42.2916 87.4 42.4339C87.4 42.6119 87.26 42.6386 86.88 42.5496Z" fill="#E6E6E6"/>
<path d="M58.6 42.256C58.6 42.0068 58.63 41.989 58.95 41.989C59.39 41.989 59.39 42.0691 58.95 42.3271C58.6 42.5229 58.6 42.5229 58.6 42.256Z" fill="#E6E6E6"/>
<path d="M81 42.256C81 42.0691 81.1 42.0424 81.48 42.1314C81.84 42.2204 81.75 42.4339 81.35 42.4339C81.07 42.4339 81 42.3983 81 42.256Z" fill="#E6E6E6"/>
<path d="M7.9 42.0335C7.9 41.8377 7.94 41.811 8.25 41.811C8.68 41.811 8.69 41.9 8.31 42.1047C7.93 42.3005 7.9 42.3005 7.9 42.0335Z" fill="#E6E6E6"/>
<path d="M79.5 42.078C79.5 41.8911 79.6 41.8644 79.98 41.9534C80.34 42.0424 80.25 42.256 79.85 42.256C79.57 42.256 79.5 42.2204 79.5 42.078Z" fill="#E6E6E6"/>
<path d="M23.4 42.0424C23.4 41.9267 23.68 41.811 23.98 41.811C24.04 41.811 24.1 41.8911 24.1 41.989C24.1 42.1314 24.03 42.167 23.75 42.167C23.52 42.167 23.4 42.1225 23.4 42.0424Z" fill="#E6E6E6"/>
<path d="M32.58 42.1047C32.25 42.0335 32.38 41.811 32.75 41.811C33.03 41.811 33.1 41.8466 33.1 41.989C33.1 42.167 32.96 42.1937 32.58 42.1047Z" fill="#E6E6E6"/>
<path d="M60.9 42.078C60.9 41.9979 61.46 41.7131 61.95 41.544C62.17 41.4639 62.2 41.4817 62.2 41.6775C62.2 41.8644 62.15 41.9 61.9 41.9C61.7 41.9 61.6 41.9445 61.6 42.0335C61.6 42.1225 61.49 42.167 61.25 42.167C61.06 42.167 60.9 42.1314 60.9 42.078Z" fill="#E6E6E6"/>
<path d="M69.6 41.9356C69.6 41.7487 69.65 41.722 69.95 41.722C70.14 41.722 70.3 41.6864 70.3 41.633C70.3 41.5885 70.46 41.544 70.65 41.544C71.24 41.544 71.06 41.7576 70.3 41.9623C69.6 42.1403 69.6 42.1403 69.6 41.9356V41.9356Z" fill="#E6E6E6"/>
<path d="M78.4 41.989C78.4 41.8021 78.5 41.7754 78.88 41.8644C79.24 41.9534 79.15 42.167 78.75 42.167C78.47 42.167 78.4 42.1314 78.4 41.989Z" fill="#E6E6E6"/>
<path d="M95.63 41.8555C95.32 41.7398 95.18 41.544 95.4 41.544C95.46 41.544 95.5 41.4017 95.5 41.2326C95.5 41.0635 95.55 40.9211 95.61 40.9211C95.75 40.9211 96.02 41.5173 95.98 41.7665C95.95 41.9623 95.94 41.9712 95.63 41.8555Z" fill="#E6E6E6"/>
<path d="M18.1 41.722C18.1 41.5796 18.17 41.544 18.45 41.544C18.85 41.544 18.94 41.7576 18.58 41.8466C18.2 41.9356 18.1 41.9089 18.1 41.722Z" fill="#E6E6E6"/>
<path d="M59.5 41.6775C59.5 41.4817 59.54 41.455 59.85 41.455C60.28 41.455 60.29 41.544 59.91 41.7487C59.53 41.9445 59.5 41.9445 59.5 41.6775Z" fill="#E6E6E6"/>
<path d="M38.3 41.6775C38.3 41.5974 38.21 41.544 38.05 41.544C37.85 41.544 37.8 41.4995 37.8 41.3216C37.8 41.197 37.83 41.0991 37.86 41.0991C37.98 41.0991 39 41.6775 39 41.7398C39 41.7843 38.84 41.811 38.65 41.811C38.41 41.811 38.3 41.7665 38.3 41.6775Z" fill="#E6E6E6"/>
<path d="M83.28 41.7487C82.95 41.6775 83.08 41.455 83.45 41.455C83.73 41.455 83.8 41.4906 83.8 41.633C83.8 41.811 83.66 41.8377 83.28 41.7487Z" fill="#E6E6E6"/>
<path d="M11.32 41.6152C11.35 41.5529 11.51 41.455 11.68 41.3927C11.99 41.2771 12 41.286 12 41.4995C12 41.6953 11.96 41.722 11.64 41.722C11.41 41.722 11.3 41.6864 11.32 41.6152Z" fill="#E6E6E6"/>
<path d="M20.2 41.3839C20.2 41.2504 20.29 41.197 20.66 41.1525C21.35 41.0724 21.5 41.0813 21.5 41.2237C21.5 41.3483 21.39 41.3838 20.58 41.5084C20.25 41.5529 20.2 41.544 20.2 41.3839Z" fill="#E6E6E6"/>
<path d="M71.9 41.3661C71.9 41.2237 71.97 41.1881 72.25 41.1881C72.65 41.1881 72.74 41.4017 72.38 41.4906C72 41.5796 71.9 41.5529 71.9 41.3661Z" fill="#E6E6E6"/>
<path d="M81.75 41.4995C81.7 41.4817 81.48 41.4462 81.28 41.4106C81.04 41.375 80.9 41.3127 80.9 41.2326C80.9 41.0813 81.05 41.0724 81.74 41.1525C82.1 41.197 82.2 41.2504 82.2 41.375C82.2 41.5351 82.02 41.5796 81.75 41.4995Z" fill="#E6E6E6"/>
<path d="M22.4 41.0991C22.4 40.9567 22.47 40.9211 22.75 40.9211C23.15 40.9211 23.24 41.1347 22.88 41.2237C22.5 41.3127 22.4 41.286 22.4 41.0991Z" fill="#E6E6E6"/>
<path d="M90.2 41.0991C90.2 40.9122 90.3 40.8855 90.68 40.9745C91.04 41.0635 90.95 41.2771 90.55 41.2771C90.27 41.2771 90.2 41.2415 90.2 41.0991Z" fill="#E6E6E6"/>
<path d="M78.28 41.1258C77.95 41.0546 78.08 40.8321 78.45 40.8321C78.73 40.8321 78.8 40.8677 78.8 41.0101C78.8 41.1881 78.66 41.2148 78.28 41.1258Z" fill="#E6E6E6"/>
<path d="M93.33 41.0813C92.88 40.9478 92.9 40.7431 93.35 40.7431C93.66 40.7431 93.7 40.7698 93.7 40.9656C93.7 41.0902 93.69 41.1881 93.68 41.1792C93.66 41.1703 93.5 41.1258 93.33 41.0813Z" fill="#E6E6E6"/>
<path d="M10.5 40.8766C10.5 40.6808 10.54 40.6541 10.85 40.6541C11.28 40.6541 11.3 40.7787 10.9 40.9656C10.52 41.1436 10.5 41.1347 10.5 40.8766Z" fill="#E6E6E6"/>
<path d="M36.76 40.9656C36.68 40.8944 36.54 40.8321 36.46 40.8321C36.36 40.8321 36.3 40.752 36.3 40.6096C36.3 40.485 36.32 40.3872 36.35 40.3872C36.5 40.3872 37.6 40.9389 37.6 41.0101C37.6 41.1525 36.93 41.1169 36.76 40.9656Z" fill="#E6E6E6"/>
<path d="M13.22 40.9033C13.25 40.841 13.41 40.7431 13.58 40.6808C13.89 40.5651 13.9 40.574 13.9 40.7876C13.9 40.9834 13.86 41.0101 13.54 41.0101C13.31 41.0101 13.2 40.9745 13.22 40.9033Z" fill="#E6E6E6"/>
<path d="M88.93 40.9478C88.78 40.9211 88.7 40.841 88.7 40.7342C88.7 40.5384 88.76 40.5295 89.36 40.663C90.18 40.8499 89.8 41.0991 88.93 40.9478V40.9478Z" fill="#E6E6E6"/>
<path d="M38.58 40.6719C38.21 40.4761 38.23 40.3872 38.65 40.3872C38.96 40.3872 39 40.4139 39 40.6096C39 40.8677 38.94 40.8766 38.58 40.6719Z" fill="#E6E6E6"/>
<path d="M61.8 40.6096C61.8 40.4317 61.85 40.3872 62.05 40.3872C62.19 40.3872 62.3 40.3516 62.3 40.2982C62.3 40.2537 62.46 40.2092 62.65 40.2092C62.84 40.2092 63 40.2537 63 40.2982C63 40.3694 61.99 40.8321 61.84 40.8321C61.82 40.8321 61.8 40.7342 61.8 40.6096Z" fill="#E6E6E6"/>
<path d="M91.83 40.6363C91.38 40.5028 91.4 40.2982 91.85 40.2982C92.16 40.2982 92.2 40.3249 92.2 40.5206C92.2 40.6452 92.19 40.7431 92.18 40.7342C92.16 40.7253 92 40.6808 91.83 40.6363Z" fill="#E6E6E6"/>
<path d="M95.1 40.4228C95.1 40.0312 95.28 40.049 95.47 40.4584C95.6 40.7342 95.59 40.7431 95.35 40.7431C95.13 40.7431 95.1 40.7075 95.1 40.4228Z" fill="#E6E6E6"/>
<path d="M65.8 40.4405C65.8 40.3249 66.08 40.2092 66.38 40.2092C66.44 40.2092 66.5 40.2893 66.5 40.3872C66.5 40.5295 66.43 40.5651 66.15 40.5651C65.92 40.5651 65.8 40.5206 65.8 40.4405Z" fill="#E6E6E6"/>
<path d="M86.5 40.2982C86.5 40.1113 86.6 40.0846 86.98 40.1736C87.34 40.2626 87.25 40.4762 86.85 40.4762C86.57 40.4762 86.5 40.4406 86.5 40.2982Z" fill="#E6E6E6"/>
<path d="M35.2 40.1647C35.2 39.9511 35.21 39.9422 35.52 40.0579C35.98 40.227 36 40.3872 35.56 40.3872C35.24 40.3872 35.2 40.3605 35.2 40.1647Z" fill="#E6E6E6"/>
<path d="M37.68 40.2448C37.3 40.0668 37.33 39.9422 37.75 39.9422C38.06 39.9422 38.1 39.9689 38.1 40.1647C38.1 40.4228 38.05 40.4317 37.68 40.2448Z" fill="#E6E6E6"/>
<path d="M63.1 40.1558C63.1 39.9689 63.15 39.9422 63.45 39.9422C63.67 39.9422 63.8 39.9867 63.8 40.0579C63.8 40.1291 63.64 40.2181 63.45 40.2715C63.12 40.3694 63.1 40.3605 63.1 40.1558Z" fill="#E6E6E6"/>
<path d="M15.7 40.0935C15.7 40.0312 15.99 39.8977 16.35 39.7909C17 39.604 17 39.604 17 39.7998C17 39.96 16.91 40.0223 16.61 40.1024C16.1 40.2448 15.7 40.2359 15.7 40.0935Z" fill="#E6E6E6"/>
<path d="M34.2 39.8087C34.2 39.5951 34.21 39.5862 34.52 39.7019C34.98 39.871 35 40.0312 34.56 40.0312C34.24 40.0312 34.2 40.0045 34.2 39.8087Z" fill="#E6E6E6"/>
<path d="M64.3 39.7998C64.3 39.6129 64.35 39.5862 64.65 39.5862C64.87 39.5862 65 39.6307 65 39.7019C65 39.7731 64.84 39.8621 64.65 39.9155C64.32 40.0134 64.3 40.0045 64.3 39.7998Z" fill="#E6E6E6"/>
<path d="M68.7 39.9066C68.7 39.7909 68.98 39.6752 69.28 39.6752C69.34 39.6752 69.4 39.7553 69.4 39.8532C69.4 39.9956 69.33 40.0312 69.05 40.0312C68.82 40.0312 68.7 39.9867 68.7 39.9066Z" fill="#E6E6E6"/>
<path d="M89.08 39.9244C88.66 39.8265 88.56 39.5862 88.94 39.5862C89.46 39.5862 89.8 39.693 89.8 39.8621C89.8 40.049 89.66 40.0579 89.08 39.9244V39.9244Z" fill="#E6E6E6"/>
<path d="M36.48 39.7108C36.1 39.5328 36.13 39.4082 36.55 39.4082C36.86 39.4082 36.9 39.4349 36.9 39.6307C36.9 39.8888 36.85 39.8977 36.48 39.7108Z" fill="#E6E6E6"/>
<path d="M33.4 39.5862C33.4 39.3994 33.5 39.3727 33.88 39.4617C34.24 39.5506 34.15 39.7642 33.75 39.7642C33.47 39.7642 33.4 39.7286 33.4 39.5862Z" fill="#E6E6E6"/>
<path d="M70.9 39.6396C70.9 39.5239 71.18 39.4082 71.48 39.4082C71.54 39.4082 71.6 39.4883 71.6 39.5862C71.6 39.7286 71.53 39.7642 71.25 39.7642C71.02 39.7642 70.9 39.7197 70.9 39.6396Z" fill="#E6E6E6"/>
<path d="M72 39.5506C72 39.435 72.28 39.3193 72.58 39.3193C72.64 39.3193 72.7 39.3994 72.7 39.4972C72.7 39.6396 72.63 39.6752 72.35 39.6752C72.12 39.6752 72 39.6307 72 39.5506Z" fill="#E6E6E6"/>
<path d="M14.7 39.3549C14.7 39.1769 14.75 39.1413 15 39.1413C15.17 39.1413 15.3 39.1057 15.3 39.0523C15.3 39.0078 15.46 38.9633 15.65 38.9633C16.21 38.9633 16.06 39.168 15.35 39.3727C14.7 39.5684 14.7 39.5684 14.7 39.3549Z" fill="#E6E6E6"/>
<path d="M73.5 39.4616C73.5 39.3282 73.71 39.2303 74.01 39.2303C74.13 39.2303 74.2 39.2926 74.2 39.4083C74.2 39.5506 74.13 39.5862 73.85 39.5862C73.62 39.5862 73.5 39.5417 73.5 39.4616Z" fill="#E6E6E6"/>
<path d="M78.3 39.4082C78.3 39.2303 78.52 39.1769 78.84 39.2837C79.14 39.3904 79.02 39.5862 78.65 39.5862C78.37 39.5862 78.3 39.5506 78.3 39.4082Z" fill="#E6E6E6"/>
<path d="M87.08 39.5239C86.75 39.4527 86.88 39.2303 87.25 39.2303C87.53 39.2303 87.6 39.2659 87.6 39.4083C87.6 39.5862 87.46 39.6129 87.08 39.5239Z" fill="#E6E6E6"/>
<path d="M18.5 39.3727C18.5 39.257 18.78 39.1413 19.08 39.1413C19.14 39.1413 19.2 39.2214 19.2 39.3193C19.2 39.4616 19.13 39.4972 18.85 39.4972C18.62 39.4972 18.5 39.4527 18.5 39.3727Z" fill="#E6E6E6"/>
<path d="M32.4 39.3193C32.4 39.1324 32.5 39.1057 32.88 39.1947C33.24 39.2837 33.15 39.4972 32.75 39.4972C32.47 39.4972 32.4 39.4616 32.4 39.3193Z" fill="#E6E6E6"/>
<path d="M35.63 39.3638C35.2 39.2036 35.21 39.0523 35.65 39.0523C35.96 39.0523 36 39.079 36 39.2748C36 39.3994 35.99 39.4972 35.98 39.4972C35.96 39.4883 35.8 39.435 35.63 39.3638Z" fill="#E6E6E6"/>
<path d="M66.6 39.2481C66.6 39.1057 66.75 39.0523 67.53 38.9366C68.68 38.7497 68.9 38.7497 68.9 38.9188C68.9 38.9989 68.76 39.0701 68.53 39.1057C68.32 39.1324 67.84 39.2125 67.47 39.2837C66.61 39.4438 66.6 39.4439 66.6 39.2481V39.2481Z" fill="#E6E6E6"/>
<path d="M34.63 39.0078C34.2 38.8476 34.21 38.6963 34.65 38.6963C34.96 38.6963 35 38.723 35 38.9188C35 39.0434 34.99 39.1413 34.98 39.1413C34.96 39.1324 34.8 39.079 34.63 39.0078Z" fill="#E6E6E6"/>
<path d="M70.3 38.6963C70.3 38.5539 70.37 38.5183 70.65 38.5183C71.05 38.5183 71.14 38.7319 70.78 38.8209C70.4 38.9099 70.3 38.8832 70.3 38.6963Z" fill="#E6E6E6"/>
<path d="M82.08 38.812C81.75 38.7408 81.88 38.5183 82.25 38.5183C82.53 38.5183 82.6 38.5539 82.6 38.6963C82.6 38.8743 82.46 38.901 82.08 38.812Z" fill="#E6E6E6"/>
<path d="M71.2 38.6073C71.2 38.4649 71.27 38.4294 71.55 38.4294C71.95 38.4294 72.04 38.6429 71.68 38.7319C71.3 38.8209 71.2 38.7942 71.2 38.6073Z" fill="#E6E6E6"/>
<path d="M81.08 38.723C80.75 38.6518 80.88 38.4294 81.25 38.4294C81.53 38.4294 81.6 38.4649 81.6 38.6073C81.6 38.7853 81.46 38.812 81.08 38.723Z" fill="#E6E6E6"/>
<path d="M25.3 38.5717C25.3 38.4383 25.51 38.3404 25.81 38.3404C25.93 38.3404 26 38.4027 26 38.5184C26 38.6607 25.93 38.6963 25.65 38.6963C25.42 38.6963 25.3 38.6518 25.3 38.5717Z" fill="#E6E6E6"/>
<path d="M26.2 38.5183C26.2 38.3315 26.5 38.2781 26.84 38.3938C27.17 38.5094 27.01 38.6963 26.6 38.6963C26.27 38.6963 26.2 38.6696 26.2 38.5183Z" fill="#E6E6E6"/>
<path d="M72.3 38.5184C72.3 38.376 72.37 38.3404 72.65 38.3404C73.05 38.3404 73.14 38.554 72.78 38.6429C72.4 38.7319 72.3 38.7052 72.3 38.5184Z" fill="#E6E6E6"/>
<path d="M93.96 38.5539C93.93 38.4739 93.9 38.3137 93.9 38.198C93.9 38.0645 93.84 37.9844 93.75 37.9844C93.65 37.9844 93.6 37.8865 93.6 37.6729C93.6 37.5039 93.64 37.3615 93.7 37.3615C93.78 37.3615 94.5 38.5183 94.5 38.6518C94.5 38.7675 94.01 38.6785 93.96 38.5539Z" fill="#E6E6E6"/>
<path d="M74.2 38.4294C74.2 38.287 74.27 38.2514 74.55 38.2514C74.92 38.2514 75.04 38.4472 74.74 38.5539C74.42 38.6607 74.2 38.6073 74.2 38.4294Z" fill="#E6E6E6"/>
<path d="M77.73 38.545C77.45 38.4472 77.6 38.2514 77.95 38.2514C78.23 38.2514 78.3 38.287 78.3 38.4294C78.3 38.6073 78.04 38.6607 77.73 38.545Z" fill="#E6E6E6"/>
<path d="M31.78 38.2781C31.45 38.2069 31.58 37.9844 31.95 37.9844C32.23 37.9844 32.3 38.02 32.3 38.1624C32.3 38.3404 32.16 38.3671 31.78 38.2781Z" fill="#E6E6E6"/>
<path d="M30.63 38.0556C30.17 37.9666 30.02 37.7174 30.43 37.7174C31.01 37.7174 31.4 37.8331 31.4 37.9933C31.4 38.1802 31.28 38.1891 30.63 38.0556V38.0556Z" fill="#E6E6E6"/>
<path d="M21 37.8954C21 37.753 21.07 37.7174 21.35 37.7174C21.75 37.7174 21.84 37.931 21.48 38.02C21.1 38.109 21 38.0823 21 37.8954Z" fill="#E6E6E6"/>
<path d="M22.4 37.7174C22.4 37.575 22.47 37.5394 22.75 37.5394C23.15 37.5394 23.24 37.753 22.88 37.842C22.5 37.931 22.4 37.9043 22.4 37.7174Z" fill="#E6E6E6"/>
<path d="M23.5 37.6284C23.5 37.4861 23.57 37.4505 23.85 37.4505C24.25 37.4505 24.34 37.664 23.98 37.753C23.6 37.842 23.5 37.8153 23.5 37.6284Z" fill="#E6E6E6"/>
<path d="M8.4 37.228C8.4 37.1034 8.72 36.6495 8.8 36.6495C8.86 36.6495 8.9 36.7919 8.9 36.961C8.9 37.2369 8.87 37.2725 8.65 37.2725C8.51 37.2725 8.4 37.2547 8.4 37.228Z" fill="#E6E6E6"/>
<path d="M92.8 36.3381C92.8 35.9554 92.94 35.9376 93.15 36.2936C93.35 36.6317 93.34 36.6495 93.05 36.6495C92.83 36.6495 92.8 36.6139 92.8 36.3381Z" fill="#E6E6E6"/>
<path d="M92.3 35.5372C92.3 35.288 92.26 35.2257 92.1 35.2257C91.94 35.2257 91.9 35.1634 91.9 34.9142C91.9 34.665 91.86 34.6027 91.7 34.6027C91.54 34.6027 91.5 34.5405 91.5 34.2913C91.5 34.1222 91.54 33.9798 91.58 33.9798C91.65 33.9798 92.8 35.6973 92.8 35.8041C92.8 35.8308 92.69 35.8486 92.55 35.8486C92.33 35.8486 92.3 35.813 92.3 35.5372Z" fill="#E6E6E6"/>
<path d="M9.5 35.4393C9.5 35.3325 10.55 33.8018 10.62 33.8018C10.66 33.8018 10.7 33.9442 10.7 34.1133C10.7 34.3269 10.65 34.4248 10.55 34.4248C10.46 34.4248 10.4 34.5049 10.4 34.6472C10.4 34.8074 10.35 34.8697 10.2 34.8697C10.04 34.8697 10 34.932 10 35.1812C10 35.4571 9.97 35.4927 9.75 35.4927C9.61 35.4927 9.5 35.466 9.5 35.4393Z" fill="#E6E6E6"/>
<path d="M90.7 33.1344C90.7 32.7517 90.8 32.7429 91.03 33.081C91.25 33.4192 91.25 33.4459 90.95 33.4459C90.73 33.4459 90.7 33.4103 90.7 33.1344Z" fill="#E6E6E6"/>
<path d="M11 33.2056C11 33.1077 11.75 32.111 11.83 32.111C11.87 32.111 11.9 32.2534 11.9 32.4225C11.9 32.5916 11.86 32.7339 11.8 32.7339C11.75 32.7339 11.7 32.7962 11.7 32.8674C11.7 32.9386 11.66 33.0009 11.6 33.0009C11.55 33.0009 11.5 33.0632 11.5 33.1344C11.5 33.2145 11.41 33.2679 11.25 33.2679C11.11 33.2679 11 33.2412 11 33.2056Z" fill="#E6E6E6"/>
<path d="M12.32 31.3546C12.61 30.963 12.7 30.963 12.7 31.3546C12.7 31.6394 12.68 31.6661 12.4 31.6661C12.1 31.6661 12.1 31.6661 12.32 31.3546Z" fill="#E6E6E6"/>
<path d="M88.9 30.7316C88.9 30.4558 88.87 30.4202 88.65 30.4202C88.47 30.4202 88.4 30.3757 88.4 30.2422C88.4 30.1443 88.33 30.0642 88.25 30.0642C88.17 30.0642 88.1 29.9841 88.1 29.8862C88.1 29.7883 88.03 29.7083 87.95 29.7083C87.86 29.7083 87.8 29.6282 87.8 29.4858C87.8 29.3256 87.75 29.2633 87.6 29.2633C87.45 29.2633 87.4 29.201 87.4 29.0408C87.4 28.8806 87.35 28.8183 87.2 28.8183C87.04 28.8183 87 28.7561 87 28.498C87 28.3289 87.04 28.2043 87.08 28.231C87.18 28.2844 88.57 29.8684 89.14 30.5804C89.52 31.0431 89.52 31.0431 89.21 31.0431C88.92 31.0431 88.9 31.0164 88.9 30.7316Z" fill="#E6E6E6"/>
<path d="M12.9 30.5982C13.21 30.2066 13.3 30.1977 13.3 30.5448C13.3 30.8384 13.28 30.8651 12.99 30.8651C12.69 30.8651 12.69 30.8651 12.9 30.5982Z" fill="#E6E6E6"/>
<path d="M12 30.1087C12 29.8239 12.02 29.7972 12.3 29.7972C12.6 29.7972 12.6 29.7972 12.38 30.1087C12.09 30.5003 12 30.5003 12 30.1087Z" fill="#E6E6E6"/>
<path d="M88.79 29.023C88.51 28.6849 88.23 28.3645 88.17 28.3111C88.1 28.2221 88.15 28.1954 88.39 28.1954C88.65 28.1954 88.7 28.231 88.7 28.4179C88.7 28.5781 88.75 28.6404 88.9 28.6404C89.03 28.6404 89.1 28.7027 89.1 28.8183C89.1 28.9162 89.17 28.9963 89.25 28.9963C89.35 28.9963 89.4 29.0942 89.4 29.3078C89.4 29.4769 89.38 29.6193 89.36 29.6193C89.34 29.6193 89.08 29.3523 88.79 29.023V29.023Z" fill="#E6E6E6"/>
<path d="M13.2 28.6849C13.2 28.409 13.23 28.3734 13.45 28.3734C13.66 28.3734 13.7 28.3289 13.7 28.1064C13.7 27.9017 13.74 27.8394 13.9 27.8394C14.05 27.8394 14.1 27.7772 14.1 27.617C14.1 27.4301 14.15 27.3945 14.41 27.3945C14.65 27.3945 14.7 27.4212 14.63 27.5102C14.34 27.8572 13.27 28.9963 13.24 28.9963C13.22 28.9963 13.2 28.8539 13.2 28.6849V28.6849Z" fill="#E6E6E6"/>
<path d="M87.48 27.5725C87.2 27.261 87.2 27.261 87.46 27.2343C87.79 27.1987 87.82 27.2254 87.78 27.5814C87.75 27.8839 87.75 27.8839 87.48 27.5725Z" fill="#E6E6E6"/>
<path d="M16 27.1275C16.31 26.736 16.4 26.7271 16.4 27.0741C16.4 27.3678 16.38 27.3945 16.09 27.3945C15.79 27.3945 15.79 27.3945 16 27.1275Z" fill="#E6E6E6"/>
<path d="M85.3 26.7093C85.3 26.3889 85.3 26.3889 85.51 26.558C85.62 26.647 85.76 26.7983 85.81 26.8783C85.89 27.0118 85.86 27.0385 85.6 27.0385C85.32 27.0385 85.3 27.0118 85.3 26.7093V26.7093Z" fill="#E6E6E6"/>
<path d="M11.16 26.7538C11.06 26.4156 11.09 26.3266 11.3 26.3266C11.46 26.3266 11.5 26.3889 11.5 26.6381C11.5 26.994 11.26 27.0741 11.16 26.7538Z" fill="#E6E6E6"/>
<path d="M15.1 26.647C15.1 26.3533 15.12 26.3266 15.41 26.3266C15.71 26.3266 15.71 26.3266 15.5 26.5936C15.19 26.9851 15.1 26.994 15.1 26.647Z" fill="#E6E6E6"/>
<path d="M86.17 26.2554C85.83 25.935 85.83 25.8817 86.2 25.8817C86.48 25.8817 86.5 25.9084 86.5 26.1931C86.5 26.3622 86.49 26.5046 86.47 26.5046C86.45 26.5046 86.32 26.3889 86.17 26.2554Z" fill="#E6E6E6"/>
<path d="M83.54 25.4011C83.51 25.3299 83.5 25.1786 83.52 25.0629C83.55 24.8672 83.56 24.8672 83.95 25.1875C84.35 25.5168 84.35 25.5168 83.97 25.5257C83.73 25.5257 83.57 25.4812 83.54 25.4011Z" fill="#E6E6E6"/>
<path d="M18.46 24.8939C18.56 24.796 18.73 24.6714 18.82 24.6269C18.97 24.5557 19 24.5824 19 24.8138C19 25.0629 18.97 25.0807 18.63 25.0807C18.27 25.0807 18.27 25.0807 18.46 24.8939V24.8939Z" fill="#E6E6E6"/>
<path d="M84.38 24.6358C84.05 24.3777 84.05 24.3777 84.43 24.3688C84.78 24.3688 84.8 24.3866 84.8 24.6358C84.8 24.7871 84.78 24.9027 84.75 24.9027C84.72 24.9027 84.56 24.7871 84.38 24.6358Z" fill="#E6E6E6"/>
<path d="M90.2 24.3243C90.2 24.0751 90.24 24.0128 90.4 24.0128C90.61 24.0128 90.64 24.1018 90.54 24.44C90.44 24.7604 90.2 24.6803 90.2 24.3243Z" fill="#E6E6E6"/>
<path d="M17.7 24.2887C17.7 24.0306 17.73 24.0128 18.06 24.0128C18.45 24.0128 18.44 24.0929 18 24.3688C17.7 24.5557 17.7 24.5557 17.7 24.2887Z" fill="#E6E6E6"/>
<path d="M82.4 24.2709C82.4 24.0039 82.4 24.0039 82.7 24.1908C83.14 24.4667 83.15 24.5468 82.76 24.5468C82.43 24.5468 82.4 24.529 82.4 24.2709Z" fill="#E6E6E6"/>
<path d="M83.38 23.8349C83.05 23.5768 83.05 23.5768 83.43 23.5679C83.78 23.5679 83.8 23.5857 83.8 23.8349C83.8 23.9861 83.78 24.1018 83.75 24.1018C83.72 24.1018 83.56 23.9861 83.38 23.8349Z" fill="#E6E6E6"/>
<path d="M10.56 23.8171C10.46 23.4789 10.49 23.3899 10.7 23.3899C10.86 23.3899 10.9 23.4522 10.9 23.7014C10.9 24.0573 10.66 24.1374 10.56 23.8171Z" fill="#E6E6E6"/>
<path d="M20 23.737C20.19 23.5857 20.47 23.3899 20.63 23.292C20.9 23.114 20.9 23.114 20.9 23.381C20.9 23.6124 20.86 23.6569 20.65 23.6569C20.47 23.6569 20.4 23.7014 20.4 23.8349C20.4 23.9861 20.33 24.0128 20.03 24.0128C19.65 24.0039 19.65 24.0039 20 23.737Z" fill="#E6E6E6"/>
<path d="M90.4 23.3454C90.4 23.0962 90.44 23.0339 90.6 23.0339C90.81 23.0339 90.84 23.1229 90.74 23.4611C90.64 23.7815 90.4 23.7014 90.4 23.3454Z" fill="#E6E6E6"/>
<path d="M19.1 23.2208C19.1 22.9895 19.14 22.945 19.35 22.945C19.53 22.945 19.6 22.9005 19.6 22.767C19.6 22.6335 19.67 22.589 19.85 22.589C20.03 22.589 20.1 22.5445 20.1 22.411C20.1 22.2686 20.17 22.233 20.45 22.233C20.64 22.233 20.8 22.2508 20.8 22.2686C20.8 22.2953 19.8 23.025 19.23 23.4166C19.13 23.4789 19.1 23.4344 19.1 23.2208V23.2208Z" fill="#E6E6E6"/>
<path d="M82.2 22.945C81.85 22.6869 81.85 22.6869 82.23 22.678C82.58 22.678 82.6 22.6958 82.6 22.945C82.6 23.0962 82.59 23.2119 82.57 23.2119C82.56 23.2119 82.39 23.0962 82.2 22.945Z" fill="#E6E6E6"/>
<path d="M80.1 22.6691C80.1 22.4021 80.1 22.4021 80.4 22.589C80.84 22.8649 80.85 22.9449 80.46 22.9449C80.13 22.9449 80.1 22.9272 80.1 22.6691Z" fill="#E6E6E6"/>
<path d="M21.7 22.6157C21.7 22.5712 21.86 22.4555 22.05 22.3398C22.4 22.144 22.4 22.144 22.4 22.411C22.4 22.6602 22.37 22.678 22.05 22.678C21.86 22.678 21.7 22.6513 21.7 22.6157V22.6157Z" fill="#E6E6E6"/>
<path d="M78.8 22.055C78.8 22.0105 78.73 21.9661 78.65 21.9661C78.55 21.9661 78.5 21.8771 78.5 21.6991C78.5 21.4321 78.5 21.4321 79 21.7169C79.27 21.8771 79.5 22.0372 79.5 22.0817C79.5 22.1173 79.34 22.144 79.15 22.144C78.96 22.144 78.8 22.1084 78.8 22.055V22.055Z" fill="#E6E6E6"/>
<path d="M10.16 21.6813C10.06 21.3431 10.09 21.2541 10.3 21.2541C10.46 21.2541 10.5 21.3164 10.5 21.5656C10.5 21.9216 10.26 22.0016 10.16 21.6813Z" fill="#E6E6E6"/>
<path d="M90.8 21.2986C90.8 21.0494 90.84 20.9872 91 20.9872C91.21 20.9872 91.24 21.0761 91.14 21.4143C91.04 21.7347 90.8 21.6546 90.8 21.2986Z" fill="#E6E6E6"/>
<path d="M77.4 21.1206C77.4 20.8537 77.43 20.8537 77.81 21.0494C78.19 21.2541 78.18 21.3431 77.75 21.3431C77.44 21.3431 77.4 21.3164 77.4 21.1206Z" fill="#E6E6E6"/>
<path d="M22.7 20.8537C22.7 20.6579 22.74 20.6312 23.05 20.6312C23.48 20.6312 23.49 20.7202 23.11 20.9249C22.73 21.1206 22.7 21.1206 22.7 20.8537Z" fill="#E6E6E6"/>
<path d="M25 20.7202C25 20.649 25.51 20.3642 25.65 20.3642C25.68 20.3642 25.7 20.4621 25.7 20.5867C25.7 20.7825 25.66 20.8092 25.35 20.8092C25.16 20.8092 25 20.7736 25 20.7202Z" fill="#E6E6E6"/>
<path d="M9.96 20.5244C9.86 20.1862 9.89 20.0972 10.1 20.0972C10.26 20.0972 10.3 20.1595 10.3 20.4087C10.3 20.7647 10.06 20.8448 9.96 20.5244Z" fill="#E6E6E6"/>
<path d="M23.5 20.4532C23.5 20.204 23.53 20.1862 23.85 20.1862C24.29 20.1862 24.29 20.2663 23.85 20.5244C23.5 20.7202 23.5 20.7202 23.5 20.4532Z" fill="#E6E6E6"/>
<path d="M76 20.4087C76 20.1506 76.02 20.1417 76.4 20.3197C76.8 20.5066 76.78 20.6312 76.35 20.6312C76.04 20.6312 76 20.6045 76 20.4087Z" fill="#E6E6E6"/>
<path d="M77.98 20.382C77.61 20.1862 77.63 20.0972 78.05 20.0972C78.36 20.0972 78.4 20.1239 78.4 20.3197C78.4 20.5778 78.34 20.5867 77.98 20.382Z" fill="#E6E6E6"/>
<path d="M26.9 19.8303C26.9 19.7591 27.6 19.3853 27.75 19.3853C27.88 19.3853 27.78 19.8125 27.64 19.8659C27.39 19.946 26.9 19.9282 26.9 19.8303Z" fill="#E6E6E6"/>
<path d="M76.64 19.6434C76.61 19.59 76.78 19.3586 77.04 19.1361C77.5 18.7179 77.5 18.7179 77.5 19.0561C77.5 19.2785 77.45 19.3853 77.36 19.3853C77.29 19.3853 77.2 19.4654 77.17 19.5633C77.11 19.7591 76.76 19.8125 76.64 19.6434V19.6434Z" fill="#E6E6E6"/>
<path d="M25.6 19.3408C25.6 19.145 25.64 19.1183 25.95 19.1183C26.38 19.1183 26.4 19.2429 26 19.4298C25.62 19.6078 25.6 19.5989 25.6 19.3408Z" fill="#E6E6E6"/>
<path d="M75.53 19.1628C75.37 19.0472 75.37 19.0205 75.5 18.9404C75.58 18.8959 75.78 18.8514 75.93 18.8514C76.17 18.8514 76.19 18.8692 76.11 19.0205C75.97 19.2518 75.75 19.3052 75.53 19.1628Z" fill="#E6E6E6"/>
<path d="M72.6 18.8959C72.6 18.6823 72.61 18.6734 72.92 18.7891C73.38 18.9582 73.4 19.1184 72.96 19.1184C72.64 19.1184 72.6 19.0917 72.6 18.8959Z" fill="#E6E6E6"/>
<path d="M91.3 18.4509C91.3 18.2017 91.34 18.1395 91.5 18.1395C91.71 18.1395 91.74 18.2284 91.64 18.5666C91.54 18.887 91.3 18.8069 91.3 18.4509Z" fill="#E6E6E6"/>
<path d="M30.2 18.5043C30.2 18.3975 30.25 18.3708 30.88 18.1483C31.4 17.9615 31.4 17.9615 31.4 18.1839C31.4 18.3619 31.35 18.4064 31.15 18.4064C31.01 18.4064 30.9 18.4509 30.9 18.4954C30.9 18.5488 30.74 18.5844 30.55 18.5844C30.36 18.5844 30.2 18.5488 30.2 18.5043Z" fill="#E6E6E6"/>
<path d="M73.88 18.442C73.5 18.264 73.53 18.1395 73.95 18.1395C74.26 18.1395 74.3 18.1661 74.3 18.3619C74.3 18.62 74.25 18.6289 73.88 18.442Z" fill="#E6E6E6"/>
<path d="M28 18.2729C28 18.0772 28.04 18.0505 28.36 18.0505C28.8 18.0505 28.78 18.2106 28.32 18.3797C28.01 18.4954 28 18.4865 28 18.2729Z" fill="#E6E6E6"/>
<path d="M70.9 18.4064C70.9 18.3619 70.79 18.3174 70.65 18.3174C70.45 18.3174 70.4 18.2729 70.4 18.095C70.4 17.8725 70.4 17.8725 70.92 18.0594C71.55 18.2818 71.6 18.3085 71.6 18.4153C71.6 18.4598 71.44 18.4954 71.25 18.4954C71.06 18.4954 70.9 18.4598 70.9 18.4064Z" fill="#E6E6E6"/>
<path d="M76.9 18.0327C76.9 17.65 77.08 17.4987 77.5 17.5343C77.81 17.561 77.81 17.561 77.36 17.9615C76.9 18.353 76.9 18.353 76.9 18.0327Z" fill="#E6E6E6"/>
<path d="M72.71 17.9704C71.95 17.6856 71.82 17.5165 72.34 17.5165C72.59 17.5165 72.7 17.5521 72.7 17.65C72.7 17.739 72.81 17.7835 73.05 17.7835C73.36 17.7835 73.4 17.8102 73.4 18.006C73.4 18.1306 73.39 18.2284 73.38 18.2284C73.36 18.2195 73.06 18.1128 72.71 17.9704V17.9704Z" fill="#E6E6E6"/>
<path d="M78.4 17.917C78.59 17.7479 78.75 17.6055 78.77 17.6055C78.79 17.6055 78.8 17.7479 78.8 17.917C78.8 18.2195 78.79 18.2284 78.43 18.2284C78.06 18.2284 78.06 18.2284 78.4 17.917Z" fill="#E6E6E6"/>
<path d="M28.9 17.917C28.9 17.7212 28.94 17.6945 29.26 17.6945C29.7 17.6945 29.68 17.8547 29.22 18.0238C28.91 18.1394 28.9 18.1305 28.9 17.917Z" fill="#E6E6E6"/>
<path d="M21 17.7835C21 17.6411 21.04 17.5165 21.08 17.5165C21.13 17.5165 21.29 17.6411 21.45 17.7835C21.74 18.0505 21.74 18.0505 21.37 18.0505C21.03 18.0505 21 18.0327 21 17.7835Z" fill="#E6E6E6"/>
<path d="M32.3 17.7568C32.3 17.6945 32.53 17.5788 32.8 17.4987C33.3 17.3563 33.3 17.3563 33.3 17.561C33.3 17.6945 33.23 17.7835 33.08 17.8191C32.69 17.9081 32.3 17.8814 32.3 17.7568Z" fill="#E6E6E6"/>
<path d="M22 17.383C21.66 17.0716 21.66 17.0716 22.03 17.0716C22.39 17.0716 22.4 17.0805 22.4 17.383C22.4 17.5521 22.39 17.6945 22.37 17.6945C22.35 17.6945 22.19 17.5521 22 17.383Z" fill="#E6E6E6"/>
<path d="M9.46 17.2317C9.36 16.8936 9.39 16.8046 9.6 16.8046C9.76 16.8046 9.8 16.8669 9.8 17.1161C9.8 17.472 9.56 17.5521 9.46 17.2317Z" fill="#E6E6E6"/>
<path d="M67.6 17.2139C67.6 17.0093 67.62 17.0004 67.95 17.0983C68.14 17.1517 68.3 17.2406 68.3 17.3118C68.3 17.383 68.17 17.4275 67.95 17.4275C67.65 17.4275 67.6 17.4008 67.6 17.2139Z" fill="#E6E6E6"/>
<path d="M70.83 17.294C70.4 17.1339 70.41 16.9826 70.85 16.9826C71.16 16.9826 71.2 17.0093 71.2 17.205C71.2 17.3296 71.19 17.4275 71.18 17.4275C71.16 17.4186 71 17.3652 70.83 17.294Z" fill="#E6E6E6"/>
<path d="M78.2 16.8491C78.2 16.5465 78.21 16.5376 78.57 16.5376C78.94 16.5376 78.94 16.5376 78.6 16.8491C78.41 17.0182 78.25 17.1605 78.23 17.1605C78.21 17.1605 78.2 17.0182 78.2 16.8491Z" fill="#E6E6E6"/>
<path d="M66.3 16.8936C66.3 16.7067 66.4 16.68 66.78 16.769C67.14 16.858 67.05 17.0716 66.65 17.0716C66.37 17.0716 66.3 17.036 66.3 16.8936Z" fill="#E6E6E6"/>
<path d="M32.2 16.7601C32.2 16.5643 32.24 16.5376 32.56 16.5376C33 16.5376 32.98 16.6978 32.52 16.8669C32.21 16.9826 32.2 16.9737 32.2 16.7601Z" fill="#E6E6E6"/>
<path d="M19.4 16.4486C19.4 16.2172 19.43 16.1906 19.58 16.2617C19.67 16.3062 19.84 16.4308 19.94 16.5287C20.13 16.7156 20.13 16.7156 19.77 16.7156C19.43 16.7156 19.4 16.6978 19.4 16.4486V16.4486Z" fill="#E6E6E6"/>
<path d="M36.9 16.502C36.9 16.4308 37.14 16.324 37.55 16.235C38.36 16.0571 38.4 16.0571 38.4 16.2528C38.4 16.3774 38.27 16.4397 37.89 16.5198C37.22 16.6622 36.9 16.6533 36.9 16.502Z" fill="#E6E6E6"/>
<path d="M20.25 15.8969C19.85 15.5676 19.85 15.5676 20.23 15.5587C20.63 15.5587 20.74 15.6655 20.68 16.0215C20.65 16.2172 20.64 16.2172 20.25 15.8969Z" fill="#E6E6E6"/>
<path d="M34.5 15.9058C34.5 15.6299 34.57 15.621 34.93 15.8969C35.18 16.0927 35.14 16.1816 34.8 16.1816C34.53 16.1816 34.5 16.155 34.5 15.9058V15.9058Z" fill="#E6E6E6"/>
<path d="M39.1 16.0571C39.1 15.9414 39.38 15.8257 39.68 15.8257C39.74 15.8257 39.8 15.9058 39.8 16.0037C39.8 16.1461 39.73 16.1817 39.45 16.1817C39.22 16.1817 39.1 16.1372 39.1 16.0571Z" fill="#E6E6E6"/>
<path d="M80.76 15.9058C80.86 15.8079 81.03 15.6833 81.12 15.6388C81.27 15.5676 81.3 15.5943 81.3 15.8257C81.3 16.0749 81.27 16.0927 80.93 16.0927C80.57 16.0927 80.57 16.0927 80.76 15.9058V15.9058Z" fill="#E6E6E6"/>
<path d="M61.08 15.9414C60.88 15.9147 60.8 15.8524 60.8 15.7278C60.8 15.532 60.83 15.5231 61.5 15.6566C61.81 15.7189 62 15.799 62 15.8791C62 16.0037 61.7 16.0215 61.08 15.9414Z" fill="#E6E6E6"/>
<path d="M91.7 15.6922C91.7 15.443 91.74 15.3807 91.9 15.3807C92.11 15.3807 92.14 15.4697 92.04 15.8079C91.94 16.1283 91.7 16.0482 91.7 15.6922Z" fill="#E6E6E6"/>
<path d="M18.2 15.4697C18.2 15.2383 18.23 15.2116 18.38 15.2828C18.47 15.3273 18.64 15.4519 18.74 15.5498C18.93 15.7367 18.93 15.7367 18.57 15.7367C18.23 15.7367 18.2 15.7189 18.2 15.4697V15.4697Z" fill="#E6E6E6"/>
<path d="M66.85 15.6477C66.88 15.6032 67.04 15.4786 67.2 15.3807C67.5 15.1939 67.5 15.1939 67.5 15.4608C67.5 15.7189 67.47 15.7367 67.14 15.7367C66.94 15.7367 66.81 15.7011 66.85 15.6477Z" fill="#E6E6E6"/>
<path d="M33.6 15.1939C33.6 14.9269 33.6 14.9269 33.9 15.1138C34.34 15.3896 34.35 15.4697 33.96 15.4697C33.63 15.4697 33.6 15.4519 33.6 15.1939Z" fill="#E6E6E6"/>
<path d="M44 15.3451C44 15.2295 44.28 15.1138 44.58 15.1138C44.64 15.1138 44.7 15.1939 44.7 15.2917C44.7 15.4341 44.63 15.4697 44.35 15.4697C44.12 15.4697 44 15.4252 44 15.3451Z" fill="#E6E6E6"/>
<path d="M80.1 15.2028C80.1 14.9536 80.13 14.9358 80.47 14.9358C80.83 14.9358 80.83 14.9358 80.64 15.1227C80.54 15.2206 80.37 15.3451 80.28 15.3896C80.13 15.4608 80.1 15.4341 80.1 15.2028V15.2028Z" fill="#E6E6E6"/>
<path d="M45.9 15.1672C45.9 15.0515 46.18 14.9358 46.48 14.9358C46.54 14.9358 46.6 15.0159 46.6 15.1138C46.6 15.2561 46.53 15.2917 46.25 15.2917C46.02 15.2917 45.9 15.2472 45.9 15.1672Z" fill="#E6E6E6"/>
<path d="M47.5 15.0782C47.5 14.9625 47.78 14.8468 48.08 14.8468C48.14 14.8468 48.2 14.9269 48.2 15.0248C48.2 15.1672 48.13 15.2028 47.85 15.2028C47.62 15.2028 47.5 15.1583 47.5 15.0782Z" fill="#E6E6E6"/>
<path d="M81.86 15.0159C81.96 14.918 82.13 14.7934 82.22 14.7489C82.37 14.6777 82.4 14.7044 82.4 14.9358C82.4 15.185 82.37 15.2028 82.03 15.2028C81.67 15.2028 81.67 15.2028 81.86 15.0159V15.0159Z" fill="#E6E6E6"/>
<path d="M18.98 14.8468C18.65 14.5887 18.65 14.5887 19.03 14.5798C19.38 14.5798 19.4 14.5976 19.4 14.8468C19.4 14.9981 19.38 15.1138 19.35 15.1138C19.32 15.1138 19.16 14.9981 18.98 14.8468Z" fill="#E6E6E6"/>
<path d="M17.3 14.7578C17.3 14.5264 17.33 14.4997 17.48 14.5709C17.57 14.6154 17.74 14.74 17.84 14.8379C18.03 15.0248 18.03 15.0248 17.67 15.0248C17.33 15.0248 17.3 15.007 17.3 14.7578V14.7578Z" fill="#E6E6E6"/>
<path d="M68.85 14.0904C69.6 13.4852 69.7 13.4496 69.7 13.7789C69.7 14.0192 69.67 14.0459 69.4 14.0459C69.15 14.0459 69.1 14.0815 69.1 14.2683C69.1 14.4641 69.06 14.4908 68.73 14.4908C68.35 14.4908 68.35 14.4908 68.85 14.0904Z" fill="#E6E6E6"/>
<path d="M17.58 13.77C16.34 12.8267 16.4 12.889 16.83 12.889C17.16 12.889 17.2 12.9157 17.2 13.1115C17.2 13.2984 17.25 13.3339 17.5 13.3339C17.77 13.3339 17.8 13.3606 17.8 13.6009C17.8 13.8501 17.83 13.8679 18.15 13.8679C18.47 13.8679 18.5 13.8857 18.5 14.1349C18.5 14.2861 18.48 14.4018 18.46 14.4018C18.44 14.4018 18.04 14.1171 17.58 13.77Z" fill="#E6E6E6"/>
<path d="M32.2 14.126C32.2 13.859 32.2 13.859 32.5 14.0459C32.94 14.3217 32.95 14.4018 32.56 14.4018C32.23 14.4018 32.2 14.384 32.2 14.126Z" fill="#E6E6E6"/>
<path d="M81.5 14.0459C81.5 13.7967 81.53 13.7789 81.87 13.7789C82.23 13.7789 82.23 13.7789 82.04 13.9658C81.94 14.0637 81.77 14.1883 81.68 14.2328C81.53 14.3039 81.5 14.2772 81.5 14.0459V14.0459Z" fill="#E6E6E6"/>
<path d="M9.16 13.9925C9.04 13.7077 9.1 13.5119 9.3 13.5119C9.46 13.5119 9.5 13.5742 9.5 13.8234C9.5 14.1527 9.28 14.2594 9.16 13.9925Z" fill="#E6E6E6"/>
<path d="M83.16 13.948C83.26 13.8501 83.43 13.7255 83.52 13.681C83.67 13.6098 83.7 13.6365 83.7 13.8679C83.7 14.1171 83.67 14.1349 83.33 14.1349C82.97 14.1349 82.97 14.1349 83.16 13.948V13.948Z" fill="#E6E6E6"/>
<path d="M91.9 13.8234C91.9 13.5742 91.94 13.5119 92.1 13.5119C92.31 13.5119 92.34 13.6009 92.24 13.9391C92.14 14.2594 91.9 14.1794 91.9 13.8234Z" fill="#E6E6E6"/>
<path d="M31.4 13.503C31.4 13.2361 31.4 13.2361 31.7 13.4229C32.14 13.6988 32.15 13.7789 31.76 13.7789C31.43 13.7789 31.4 13.7611 31.4 13.503Z" fill="#E6E6E6"/>
<path d="M84.75 12.7466C84.97 12.5775 85.27 12.355 85.43 12.2572C85.7 12.0792 85.7 12.0792 85.7 12.3461C85.7 12.5953 85.67 12.622 85.4 12.622C85.15 12.622 85.1 12.6576 85.1 12.8445C85.1 13.0403 85.06 13.067 84.73 13.067C84.35 13.0581 84.35 13.0581 84.75 12.7466Z" fill="#E6E6E6"/>
<path d="M83.2 12.7199C83.2 12.4618 83.23 12.444 83.55 12.444C83.87 12.444 83.9 12.4262 83.9 12.1771C83.9 11.9368 83.93 11.9101 84.2 11.9101C84.45 11.9101 84.5 11.8745 84.5 11.6876C84.5 11.4918 84.54 11.4651 84.87 11.4651C85.3 11.4651 85.35 11.4028 84.2 12.2839C83.2 13.0403 83.2 13.0403 83.2 12.7199V12.7199Z" fill="#E6E6E6"/>
<path d="M14.1 12.5775C14.1 12.5063 14.01 12.444 13.9 12.444C13.79 12.444 13.7 12.3817 13.7 12.3105C13.7 12.2394 13.61 12.1771 13.5 12.1771C13.34 12.1771 13.3 12.1148 13.3 11.9012C13.3 11.6342 13.3 11.6342 13.74 11.919C13.99 12.0703 14.34 12.3105 14.52 12.4529C14.85 12.7021 14.85 12.7021 14.48 12.711C14.21 12.711 14.1 12.6754 14.1 12.5775V12.5775Z" fill="#E6E6E6"/>
<path d="M15.7 12.355C15.35 12.097 15.35 12.097 15.73 12.0881C16.08 12.0881 16.1 12.1059 16.1 12.355C16.1 12.5063 16.09 12.622 16.07 12.622C16.06 12.622 15.89 12.5063 15.7 12.355Z" fill="#E6E6E6"/>
<path d="M92 11.741C92 11.2427 92.03 11.1092 92.15 11.1092C92.33 11.1092 92.42 11.4117 92.38 11.919C92.36 12.2038 92.3 12.3195 92.18 12.3372C92.02 12.3639 92 12.2928 92 11.741Z" fill="#E6E6E6"/>
<path d="M71.6 12.0525C71.6 12.0258 73.61 10.5218 73.92 10.3261C74.08 10.2193 74.1 10.2371 74.1 10.4773C74.1 10.7265 74.07 10.7532 73.8 10.7532C73.55 10.7532 73.5 10.7888 73.5 10.9757C73.5 11.1626 73.45 11.1982 73.2 11.1982C72.95 11.1982 72.9 11.2338 72.9 11.4206C72.9 11.6075 72.85 11.6431 72.6 11.6431C72.35 11.6431 72.3 11.6787 72.3 11.8656C72.3 12.0614 72.26 12.0881 71.95 12.0881C71.76 12.0881 71.6 12.0703 71.6 12.0525V12.0525Z" fill="#E6E6E6"/>
<path d="M28.9 11.6342C28.9 11.3672 28.9 11.3672 29.2 11.5541C29.64 11.83 29.65 11.9101 29.26 11.9101C28.93 11.9101 28.9 11.8923 28.9 11.6342Z" fill="#E6E6E6"/>
<path d="M11.9 11.1537C11.9 10.8867 11.93 10.8867 12.31 11.0825C12.69 11.2872 12.68 11.3761 12.25 11.3761C11.94 11.3761 11.9 11.3495 11.9 11.1537Z" fill="#E6E6E6"/>
<path d="M13.23 10.8155C12.81 10.5663 12.82 10.4862 13.25 10.4862C13.57 10.4862 13.6 10.504 13.6 10.7532C13.6 10.9045 13.59 11.0202 13.58 11.0113C13.56 11.0113 13.4 10.9223 13.23 10.8155Z" fill="#E6E6E6"/>
<path d="M8.7 10.2371C8.7 10.0146 8.74 9.95229 8.9 9.95229C9.1 9.95229 9.1 9.96119 8.93 10.2015C8.84 10.335 8.75 10.4595 8.73 10.4773C8.71 10.4951 8.7 10.3883 8.7 10.2371V10.2371Z" fill="#E6E6E6"/>
<path d="M88.7 10.1481C88.7 10.0769 89.22 9.77431 89.34 9.77431C89.37 9.77431 89.4 9.8722 89.4 9.99679C89.4 10.1926 89.36 10.2193 89.05 10.2193C88.86 10.2193 88.7 10.1837 88.7 10.1481Z" fill="#E6E6E6"/>
<path d="M74.55 9.8633C74.58 9.81881 74.74 9.69422 74.9 9.59633C75.2 9.40945 75.2 9.40945 75.2 9.67642C75.2 9.93449 75.17 9.95229 74.84 9.95229C74.64 9.95229 74.51 9.9167 74.55 9.8633Z" fill="#E6E6E6"/>
<path d="M8.62 9.26706C8.64 8.9467 8.69 8.83101 8.83 8.81321C8.97 8.78651 9 8.84881 9 9.23147C9 9.63193 8.97 9.68532 8.79 9.68532C8.61 9.68532 8.59 9.64082 8.62 9.26706Z" fill="#E6E6E6"/>
<path d="M88 9.42725C88 9.16918 88.03 9.15138 88.35 9.15138C88.63 9.15138 88.7 9.11578 88.7 8.9734C88.7 8.83101 88.77 8.79541 89.05 8.79541C89.52 8.79541 89.49 8.9289 88.98 9.16028C88.74 9.26707 88.43 9.42725 88.28 9.52514C88 9.69422 88 9.69422 88 9.42725Z" fill="#E6E6E6"/>
<path d="M90.1 9.49844C90.1 9.40055 90.65 9.16917 91.11 9.08908C91.36 9.04459 91.4 9.07128 91.4 9.23147C91.4 9.38275 91.34 9.41835 91.1 9.41835C90.94 9.41835 90.8 9.46284 90.8 9.50734C90.8 9.56073 90.64 9.59633 90.45 9.59633C90.26 9.59633 90.1 9.55183 90.1 9.49844Z" fill="#E6E6E6"/>
<path d="M25.6 9.23147C25.6 8.96449 25.6 8.96449 25.9 9.15137C26.34 9.42725 26.35 9.50734 25.96 9.50734C25.63 9.50734 25.6 9.48954 25.6 9.23147Z" fill="#E6E6E6"/>
<path d="M75.55 9.15138C75.58 9.10688 75.74 8.98229 75.9 8.8844C76.2 8.69752 76.2 8.69752 76.2 8.96449C76.2 9.22257 76.17 9.24037 75.84 9.24037C75.64 9.24037 75.51 9.20477 75.55 9.15138Z" fill="#E6E6E6"/>
<path d="M89.5 8.67083C89.5 8.48394 89.55 8.43945 89.75 8.43945C89.89 8.43945 90 8.40385 90 8.35046C90 8.30596 90.16 8.26147 90.35 8.26147C90.87 8.26147 90.78 8.45725 90.18 8.66193C89.89 8.75982 89.62 8.84881 89.58 8.8666C89.53 8.8844 89.5 8.79541 89.5 8.67083Z" fill="#E6E6E6"/>
<path d="M92.47 8.82211C92.34 8.70642 92.4 8.17248 92.54 8.17248C92.7 8.17248 92.8 8.35936 92.8 8.67083C92.8 8.87551 92.62 8.9556 92.47 8.82211Z" fill="#E6E6E6"/>
<path d="M24.5 8.43055C24.5 8.16358 24.5 8.16358 24.8 8.35046C25.24 8.62633 25.25 8.70642 24.86 8.70642C24.53 8.70642 24.5 8.68862 24.5 8.43055Z" fill="#E6E6E6"/>
<path d="M77.45 7.81651C77.48 7.77202 77.64 7.64743 77.8 7.54954C78.1 7.36266 78.1 7.36266 78.1 7.62963C78.1 7.88771 78.07 7.9055 77.74 7.9055C77.54 7.9055 77.41 7.86991 77.45 7.81651Z" fill="#E6E6E6"/>
<path d="M8.7 7.11349C8.7 6.84651 8.81 6.65963 8.96 6.65963C9.05 6.65963 9.1 6.76642 9.1 6.9711C9.1 7.22028 9.06 7.28257 8.9 7.28257C8.77 7.28257 8.7 7.22028 8.7 7.11349Z" fill="#E6E6E6"/>
<path d="M78.35 7.19358C78.38 7.14908 78.54 7.0245 78.7 6.92661C79 6.73972 79 6.73972 79 7.0067C79 7.26477 78.97 7.28257 78.64 7.28257C78.44 7.28257 78.31 7.24697 78.35 7.19358V7.19358Z" fill="#E6E6E6"/>
<path d="M22.3 7.06009C22.3 6.9889 22.21 6.9266 22.1 6.9266C21.94 6.9266 21.9 6.86431 21.9 6.65073C21.9 6.38376 21.9 6.38376 22.35 6.66853C23.04 7.11349 23.09 7.19358 22.66 7.19358C22.41 7.19358 22.3 7.15798 22.3 7.06009V7.06009Z" fill="#E6E6E6"/>
<path d="M92.3 6.70413C92.3 6.34816 92.54 6.26807 92.64 6.59734C92.74 6.9266 92.71 7.0156 92.5 7.0156C92.34 7.0156 92.3 6.9533 92.3 6.70413Z" fill="#E6E6E6"/>
<path d="M8.8 6.10789C8.8 5.84092 8.93 5.59174 9.06 5.59174C9.15 5.59174 9.2 5.69853 9.2 5.90321C9.2 6.15239 9.16 6.21468 9 6.21468C8.89 6.21468 8.8 6.16128 8.8 6.10789Z" fill="#E6E6E6"/>
<path d="M19.5 5.0489C19.5 4.78193 19.5 4.78193 19.8 4.96881C20.24 5.24468 20.25 5.32477 19.86 5.32477C19.53 5.32477 19.5 5.30697 19.5 5.0489Z" fill="#E6E6E6"/>
<path d="M81.85 4.87982C81.88 4.83532 82.04 4.71073 82.2 4.61284C82.5 4.42596 82.5 4.42596 82.5 4.69293C82.5 4.95101 82.47 4.96881 82.14 4.96881C81.94 4.96881 81.81 4.93321 81.85 4.87982Z" fill="#E6E6E6"/>
<path d="M18.1 4.15899C18.1 3.89202 18.1 3.89202 18.4 4.0789C18.84 4.35477 18.85 4.43486 18.46 4.43486C18.13 4.43486 18.1 4.41706 18.1 4.15899Z" fill="#E6E6E6"/>
<path d="M84.3 3.39367C84.3 3.34917 84.46 3.23349 84.65 3.1178C85 2.92202 85 2.92202 85 3.18899C85 3.43817 84.97 3.45596 84.65 3.45596C84.46 3.45596 84.3 3.42927 84.3 3.39367Z" fill="#E6E6E6"/>
<path d="M16 3.1C16 3.0555 15.93 3.01101 15.85 3.01101C15.76 3.01101 15.7 2.93092 15.7 2.78853C15.7 2.66395 15.73 2.56606 15.76 2.56606C15.88 2.56606 16.7 3.0555 16.7 3.1267C16.7 3.16229 16.54 3.18899 16.35 3.18899C16.16 3.18899 16 3.15339 16 3.1Z" fill="#E6E6E6"/>
<path d="M85.4 2.76183C85.4 2.69954 87.12 1.76514 87.24 1.76514C87.27 1.76514 87.3 1.86303 87.3 1.98761C87.3 2.18339 87.26 2.21009 86.95 2.21009C86.67 2.21009 86.6 2.24569 86.6 2.38807C86.6 2.52156 86.53 2.56605 86.35 2.56605C86.19 2.56605 86.1 2.61945 86.1 2.69954C86.1 2.78853 85.99 2.83303 85.75 2.83303C85.56 2.83303 85.4 2.79743 85.4 2.76183Z" fill="#E6E6E6"/>
<path d="M10.02 1.1422C10.11 0.910821 10.36 0.697243 10.54 0.697243C10.65 0.697243 10.59 1.0977 10.46 1.25788C10.39 1.33798 10.23 1.40917 10.12 1.40917C9.93 1.40917 9.92 1.38247 10.02 1.1422Z" fill="#E6E6E6"/>
</svg>
