<svg width="101" height="84" viewBox="0 0 101 84" fill="none" xmlns="http://www.w3.org/2000/svg">
<path d="M47.48 83.5744C47.15 83.5032 47.28 83.2807 47.65 83.2807C47.93 83.2807 48 83.3163 48 83.4587C48 83.6367 47.86 83.6634 47.48 83.5744Z" fill="#DEDEDE"/>
<path d="M52.7 83.3697C52.7 83.2273 52.77 83.1917 53.05 83.1917C53.45 83.1917 53.54 83.4053 53.18 83.4943C52.8 83.5833 52.7 83.5566 52.7 83.3697Z" fill="#DEDEDE"/>
<path d="M46.38 83.3964C46.05 83.3252 46.18 83.1028 46.55 83.1028C46.83 83.1028 46.9 83.1383 46.9 83.2807C46.9 83.4587 46.76 83.4854 46.38 83.3964Z" fill="#DEDEDE"/>
<path d="M54 83.1027C54 82.9604 54.07 82.9248 54.35 82.9248C54.75 82.9248 54.84 83.1383 54.48 83.2273C54.1 83.3163 54 83.2896 54 83.1027Z" fill="#DEDEDE"/>
<path d="M44.88 83.0405C44.55 82.9693 44.68 82.7468 45.05 82.7468C45.33 82.7468 45.4 82.7824 45.4 82.9248C45.4 83.1028 45.26 83.1295 44.88 83.0405Z" fill="#DEDEDE"/>
<path d="M43.28 82.4264C42.9 82.2484 42.93 82.1238 43.35 82.1238C43.66 82.1238 43.7 82.1505 43.7 82.3463C43.7 82.6044 43.65 82.6133 43.28 82.4264Z" fill="#DEDEDE"/>
<path d="M57.4 81.8124C57.4 81.67 57.46 81.5899 57.55 81.5899C57.63 81.5899 57.7 81.5543 57.7 81.5009C57.7 81.4564 57.84 81.4119 58 81.4119C58.25 81.4119 58.3 81.3763 58.3 81.1894C58.3 80.9937 58.34 80.967 58.66 80.967C58.97 80.967 59.01 80.9848 58.9 81.1005C58.72 81.2873 57.6 82.0349 57.49 82.0349C57.44 82.0349 57.4 81.937 57.4 81.8124Z" fill="#DEDEDE"/>
<path d="M42 81.6789C41.65 81.4208 41.65 81.4208 42.03 81.4119C42.38 81.4119 42.4 81.4297 42.4 81.6789C42.4 81.8302 42.39 81.9459 42.37 81.9459C42.36 81.9459 42.19 81.8302 42 81.6789Z" fill="#DEDEDE"/>
<path d="M59.1 80.5932C59.1 80.2906 59.13 80.255 59.35 80.255C59.56 80.255 59.6 80.2105 59.6 79.9881C59.6 79.7478 59.63 79.7211 59.91 79.7211C60.21 79.7211 60.21 79.7211 60.02 79.9703C59.91 80.1038 59.66 80.3707 59.46 80.5665C59.11 80.9225 59.11 80.9225 59.1 80.5932Z" fill="#DEDEDE"/>
<path d="M60.5 78.8757C60.5 78.5998 60.53 78.5642 60.75 78.5642C61.05 78.5642 61.05 78.5909 60.83 78.9291C60.6 79.2672 60.5 79.2583 60.5 78.8757Z" fill="#DEDEDE"/>
<path d="M38.95 78.4752C38.75 78.1371 38.76 78.1193 39.05 78.1193C39.27 78.1193 39.3 78.1549 39.3 78.4307C39.3 78.8134 39.16 78.8312 38.95 78.4752Z" fill="#DEDEDE"/>
<path d="M61.4 77.3717C61.4 77.087 61.43 77.0514 61.65 77.0514C61.89 77.0514 61.9 77.0603 61.77 77.3361C61.58 77.7455 61.4 77.7633 61.4 77.3717Z" fill="#DEDEDE"/>
<path d="M38.2 77.1315C38.14 77.0336 38.02 76.7933 37.95 76.5975C37.81 76.2505 37.81 76.2505 38.05 76.2505C38.25 76.2505 38.3 76.295 38.3 76.4729C38.3 76.5975 38.35 76.6954 38.4 76.6954C38.46 76.6954 38.5 76.8378 38.5 77.0069C38.5 77.3539 38.36 77.4162 38.2 77.1315Z" fill="#DEDEDE"/>
<path d="M37.06 73.8299C36.96 73.4917 36.99 73.4027 37.2 73.4027C37.36 73.4027 37.4 73.465 37.4 73.7142C37.4 74.0702 37.16 74.1503 37.06 73.8299Z" fill="#DEDEDE"/>
<path d="M62.9 72.1124C62.9 71.8632 62.94 71.8009 63.1 71.8009C63.31 71.8009 63.34 71.8899 63.24 72.2281C63.14 72.5485 62.9 72.4684 62.9 72.1124Z" fill="#DEDEDE"/>
<path d="M37 68.7574C37 68.4905 37.13 68.2413 37.26 68.2413C37.35 68.2413 37.4 68.3481 37.4 68.5527C37.4 68.8019 37.36 68.8642 37.2 68.8642C37.09 68.8642 37 68.8108 37 68.7574Z" fill="#DEDEDE"/>
<path d="M37.24 67.3959C37.3 67.1378 37.27 67.0755 37.05 66.942C36.71 66.7462 36.74 66.6395 37.14 66.6395C37.45 66.6395 37.48 66.6662 37.54 66.9776C37.65 67.5739 37.62 67.7073 37.39 67.7073C37.2 67.7073 37.19 67.6717 37.24 67.3959Z" fill="#DEDEDE"/>
<path d="M62.5 67.0399C62.5 66.7462 62.52 66.7284 62.85 66.7284C63.24 66.7284 63.29 66.8085 63 66.9776C62.89 67.0399 62.8 67.1467 62.8 67.2179C62.8 67.2891 62.73 67.3514 62.65 67.3514C62.55 67.3514 62.5 67.2535 62.5 67.0399Z" fill="#DEDEDE"/>
<path d="M64.3 66.5505C64.3 66.4081 64.37 66.3725 64.65 66.3725C65.05 66.3725 65.14 66.5861 64.78 66.6751C64.4 66.764 64.3 66.7373 64.3 66.5505Z" fill="#DEDEDE"/>
<path d="M66.4 66.2835C66.4 66.1411 66.47 66.1055 66.75 66.1055C67.15 66.1055 67.24 66.3191 66.88 66.4081C66.5 66.4971 66.4 66.4704 66.4 66.2835Z" fill="#DEDEDE"/>
<path d="M31.9 66.239C31.82 66.2212 31.58 66.1856 31.38 66.15C31.14 66.1144 31 66.0521 31 65.972C31 65.8207 31.11 65.8118 31.88 65.8919C32.3 65.9453 32.4 65.9809 32.4 66.1144C32.4 66.2746 32.28 66.3013 31.9 66.239Z" fill="#DEDEDE"/>
<path d="M69.1 65.9275C69.1 65.7851 69.17 65.7495 69.45 65.7495C69.85 65.7495 69.94 65.9631 69.58 66.0521C69.2 66.1411 69.1 66.1144 69.1 65.9275Z" fill="#DEDEDE"/>
<path d="M71 65.6605C71 65.5182 71.07 65.4826 71.35 65.4826C71.75 65.4826 71.84 65.6961 71.48 65.7851C71.1 65.8741 71 65.8474 71 65.6605Z" fill="#DEDEDE"/>
<path d="M27.38 65.5983C27.05 65.5271 27.18 65.3046 27.55 65.3046C27.83 65.3046 27.9 65.3402 27.9 65.4826C27.9 65.6606 27.76 65.6873 27.38 65.5983Z" fill="#DEDEDE"/>
<path d="M25.48 65.3313C25.15 65.2601 25.28 65.0376 25.65 65.0376C25.93 65.0376 26 65.0732 26 65.2156C26 65.3936 25.86 65.4203 25.48 65.3313Z" fill="#DEDEDE"/>
<path d="M74.2 65.2156C74.2 65.0732 74.27 65.0376 74.55 65.0376C74.95 65.0376 75.04 65.2512 74.68 65.3402C74.3 65.4292 74.2 65.4025 74.2 65.2156Z" fill="#DEDEDE"/>
<path d="M23.15 64.9931C23.1 64.9753 22.88 64.9397 22.68 64.9041C22.44 64.8685 22.3 64.8062 22.3 64.7261C22.3 64.5749 22.45 64.566 23.14 64.6461C23.5 64.6905 23.6 64.7439 23.6 64.8685C23.6 65.0287 23.42 65.0732 23.15 64.9931Z" fill="#DEDEDE"/>
<path d="M20.08 64.5304C19.75 64.4592 19.88 64.2367 20.25 64.2367C20.53 64.2367 20.6 64.2723 20.6 64.4147C20.6 64.5927 20.46 64.6194 20.08 64.5304Z" fill="#DEDEDE"/>
<path d="M16.08 63.9074C15.75 63.8362 15.88 63.6138 16.25 63.6138C16.53 63.6138 16.6 63.6494 16.6 63.7918C16.6 63.9697 16.46 63.9964 16.08 63.9074Z" fill="#DEDEDE"/>
<path d="M14.98 63.7294C14.65 63.6583 14.78 63.4358 15.15 63.4358C15.43 63.4358 15.5 63.4714 15.5 63.6138C15.5 63.7917 15.36 63.8184 14.98 63.7294Z" fill="#DEDEDE"/>
<path d="M84.7 63.6138C84.7 63.4714 84.77 63.4358 85.05 63.4358C85.45 63.4358 85.54 63.6494 85.18 63.7383C84.8 63.8273 84.7 63.8006 84.7 63.6138Z" fill="#DEDEDE"/>
<path d="M11.58 63.1955C11.25 63.1243 11.38 62.9018 11.75 62.9018C12.03 62.9018 12.1 62.9374 12.1 63.0798C12.1 63.2578 11.96 63.2845 11.58 63.1955Z" fill="#DEDEDE"/>
<path d="M90.3 62.7239C90.3 62.5815 90.37 62.5459 90.65 62.5459C91.05 62.5459 91.14 62.7595 90.78 62.8484C90.4 62.9374 90.3 62.9107 90.3 62.7239Z" fill="#DEDEDE"/>
<path d="M5.08 62.1276C4.75 62.0564 4.88 61.8339 5.25 61.8339C5.53 61.8339 5.6 61.8695 5.6 62.0119C5.6 62.1899 5.46 62.2166 5.08 62.1276Z" fill="#DEDEDE"/>
<path d="M94.6 62.0119C94.6 61.8695 94.67 61.8339 94.95 61.8339C95.35 61.8339 95.44 62.0475 95.08 62.1365C94.7 62.2255 94.6 62.1988 94.6 62.0119Z" fill="#DEDEDE"/>
<path d="M97.2 61.567C97.2 61.4246 97.27 61.389 97.55 61.389C97.95 61.389 98.04 61.6026 97.68 61.6916C97.3 61.7806 97.2 61.7539 97.2 61.567Z" fill="#DEDEDE"/>
<path d="M98.3 61.389C98.3 61.2466 98.37 61.211 98.65 61.211C99.05 61.211 99.14 61.4246 98.78 61.5136C98.4 61.6026 98.3 61.5759 98.3 61.389Z" fill="#DEDEDE"/>
<path d="M99.3 61.211C99.3 61.0686 99.37 61.033 99.65 61.033C100.05 61.033 100.14 61.2466 99.78 61.3356C99.4 61.4246 99.3 61.3979 99.3 61.211Z" fill="#DEDEDE"/>
<path d="M99.7 60.0096C99.7 59.6804 99.92 59.5736 100.04 59.8405C100.16 60.1253 100.1 60.3211 99.9 60.3211C99.74 60.3211 99.7 60.2588 99.7 60.0096Z" fill="#DEDEDE"/>
<path d="M29.3 59.4312C29.3 59.2532 29.52 59.1998 29.84 59.3066C30.14 59.4134 30.02 59.6092 29.65 59.6092C29.37 59.6092 29.3 59.5736 29.3 59.4312Z" fill="#DEDEDE"/>
<path d="M26.2 59.1642C26.2 58.9773 26.3 58.9506 26.68 59.0396C27.04 59.1286 26.95 59.3422 26.55 59.3422C26.27 59.3422 26.2 59.3066 26.2 59.1642Z" fill="#DEDEDE"/>
<path d="M36.82 58.7905C36.85 58.7282 37.01 58.6303 37.18 58.568C37.49 58.4523 37.5 58.4612 37.5 58.6748C37.5 58.8706 37.46 58.8972 37.14 58.8972C36.91 58.8972 36.8 58.8617 36.82 58.7905Z" fill="#DEDEDE"/>
<path d="M32.7 58.4523C32.7 58.3099 32.77 58.2743 33.05 58.2743C33.42 58.2743 33.54 58.4701 33.24 58.5769C32.92 58.6837 32.7 58.6303 32.7 58.4523Z" fill="#DEDEDE"/>
<path d="M1.3 58.0874C1.3 57.9895 1.9 57.7404 2.15 57.7404C2.39 57.7404 2.33 58.0696 2.08 58.1319C1.72 58.212 1.3 58.1942 1.3 58.0874Z" fill="#DEDEDE"/>
<path d="M24.98 58.123C24.65 58.0518 24.78 57.8294 25.15 57.8294C25.43 57.8294 25.5 57.865 25.5 58.0073C25.5 58.1853 25.36 58.212 24.98 58.123Z" fill="#DEDEDE"/>
<path d="M18.2 57.9183C18.2 57.7315 18.3 57.7048 18.68 57.7938C19.04 57.8827 18.95 58.0963 18.55 58.0963C18.27 58.0963 18.2 58.0607 18.2 57.9183Z" fill="#DEDEDE"/>
<path d="M37 57.6959C37 57.509 37.05 57.4734 37.3 57.4734C37.5 57.4734 37.6 57.4289 37.6 57.3399C37.6 57.2509 37.71 57.2064 37.95 57.2064C38.14 57.2064 38.3 57.242 38.3 57.2954C38.3 57.3755 37.74 57.6603 37.25 57.8294C37.03 57.9094 37 57.8917 37 57.6959Z" fill="#DEDEDE"/>
<path d="M2.7 57.7048C2.7 57.5891 2.98 57.4734 3.28 57.4734C3.34 57.4734 3.4 57.5535 3.4 57.6514C3.4 57.7938 3.33 57.8294 3.05 57.8294C2.82 57.8294 2.7 57.7849 2.7 57.7048Z" fill="#DEDEDE"/>
<path d="M22.18 57.6781C21.85 57.6069 21.98 57.3844 22.35 57.3844C22.63 57.3844 22.7 57.42 22.7 57.5624C22.7 57.7404 22.56 57.7671 22.18 57.6781Z" fill="#DEDEDE"/>
<path d="M5.1 57.3488C5.1 57.2153 5.31 57.1174 5.61 57.1174C5.73 57.1174 5.8 57.1797 5.8 57.2954C5.8 57.4378 5.73 57.4734 5.45 57.4734C5.22 57.4734 5.1 57.4289 5.1 57.3488Z" fill="#DEDEDE"/>
<path d="M18.38 57.0551C18.05 56.9839 18.18 56.7615 18.55 56.7615C18.83 56.7615 18.9 56.7971 18.9 56.9394C18.9 57.1174 18.76 57.1441 18.38 57.0551Z" fill="#DEDEDE"/>
<path d="M40.24 56.7437C40.33 56.628 40.53 56.3699 40.68 56.1652C40.83 55.9516 40.98 55.7826 41.02 55.7826C41.07 55.7826 41.1 55.9249 41.1 56.094C41.1 56.3432 41.06 56.4055 40.9 56.4055C40.74 56.4055 40.7 56.4678 40.7 56.6725C40.7 56.9127 40.67 56.9394 40.39 56.9394C40.08 56.9394 40.08 56.9394 40.24 56.7437Z" fill="#DEDEDE"/>
<path d="M16.38 56.7882C16.05 56.717 16.18 56.4945 16.55 56.4945C16.83 56.4945 16.9 56.5301 16.9 56.6725C16.9 56.8505 16.76 56.8772 16.38 56.7882Z" fill="#DEDEDE"/>
<path d="M5.3 56.3165C5.3 56.1741 5.37 56.1385 5.65 56.1385C6.05 56.1385 6.14 56.3521 5.78 56.4411C5.4 56.5301 5.3 56.5034 5.3 56.3165Z" fill="#DEDEDE"/>
<path d="M12.73 56.4322C12.45 56.3343 12.6 56.1385 12.95 56.1385C13.23 56.1385 13.3 56.1741 13.3 56.3165C13.3 56.4945 13.04 56.5479 12.73 56.4322Z" fill="#DEDEDE"/>
<path d="M0.599991 55.2308C0.599991 54.9639 0.729991 54.7147 0.859991 54.7147C0.949991 54.7147 0.999991 54.8215 0.999991 55.0262C0.999991 55.2753 0.959991 55.3376 0.799991 55.3376C0.689991 55.3376 0.599991 55.2842 0.599991 55.2308Z" fill="#DEDEDE"/>
<path d="M0.900002 53.7358C0.900002 53.4065 1.14 52.7569 1.26 52.7569C1.41 52.7569 1.43 52.9616 1.34 53.4955C1.29 53.7358 1.23 53.8248 1.09 53.8248C0.980001 53.8248 0.900002 53.7892 0.900002 53.7358Z" fill="#DEDEDE"/>
<path d="M42 53.095C42 52.8281 42.13 52.5789 42.26 52.5789C42.35 52.5789 42.4 52.6857 42.4 52.8904C42.4 53.1395 42.36 53.2018 42.2 53.2018C42.09 53.2018 42 53.1484 42 53.095Z" fill="#DEDEDE"/>
<path d="M1.5 51.2351C1.5 50.9504 1.74 50.3541 1.86 50.3541C2.01 50.3541 2.04 50.6033 1.94 51.0572C1.89 51.244 1.82 51.333 1.69 51.333C1.58 51.333 1.5 51.2885 1.5 51.2351Z" fill="#DEDEDE"/>
<path d="M42.29 50.6923C42.29 50.6745 42.26 50.5321 42.24 50.3808C42.2 50.1317 42.22 50.0872 42.39 50.0872C42.56 50.0872 42.6 50.1406 42.6 50.3986C42.6 50.6122 42.55 50.7101 42.45 50.7101C42.37 50.7101 42.3 50.7012 42.29 50.6923Z" fill="#DEDEDE"/>
<path d="M42.06 49.4464C41.96 49.1083 41.99 49.0193 42.2 49.0193C42.36 49.0193 42.4 49.0816 42.4 49.3307C42.4 49.6867 42.16 49.7668 42.06 49.4464Z" fill="#DEDEDE"/>
<path d="M40.8 49.0638C40.8 48.7078 41.04 48.6277 41.14 48.957C41.24 49.2862 41.21 49.3752 41 49.3752C40.84 49.3752 40.8 49.3129 40.8 49.0638Z" fill="#DEDEDE"/>
<path d="M2.1 49.1973C2.1 49.1439 2.17 48.868 2.27 48.5743C2.45 47.9692 2.7 47.8446 2.7 48.3518C2.7 48.5209 2.66 48.6633 2.6 48.6633C2.55 48.6633 2.5 48.8057 2.5 48.9748C2.5 49.2239 2.46 49.2862 2.3 49.2862C2.19 49.2862 2.1 49.2417 2.1 49.1973Z" fill="#DEDEDE"/>
<path d="M41.42 47.8713C41.15 47.4441 41.15 47.4174 41.44 47.4174C41.7 47.4174 41.8 47.5598 41.8 47.9603C41.8 48.3162 41.68 48.2806 41.42 47.8713Z" fill="#DEDEDE"/>
<path d="M2.57 47.6221C2.71 47.284 3 47.2395 3 47.5509C3 47.7289 2.95 47.7734 2.75 47.7734C2.56 47.7734 2.52 47.7378 2.57 47.6221Z" fill="#DEDEDE"/>
<path d="M39.9 47.5954C39.9 47.4975 39.83 47.4174 39.75 47.4174C39.64 47.4174 39.6 47.3195 39.6 47.0971C39.6 46.7144 39.69 46.7589 40.19 47.3729C40.51 47.7734 40.51 47.7734 40.21 47.7734C39.97 47.7734 39.9 47.7378 39.9 47.5954Z" fill="#DEDEDE"/>
<path d="M3.72 47.0437C3.75 46.9814 3.91 46.8835 4.08 46.8212C4.39 46.7055 4.4 46.7144 4.4 46.928C4.4 47.1238 4.36 47.1505 4.04 47.1505C3.81 47.1505 3.7 47.1149 3.72 47.0437Z" fill="#DEDEDE"/>
<path d="M3.04 46.2961C3.07 46.2161 3.1 46.136 3.1 46.1182C3.1 46.1004 3.21 46.0826 3.35 46.0826C3.65 46.0826 3.68 46.2161 3.41 46.3495C3.12 46.483 2.97 46.4563 3.04 46.2961Z" fill="#DEDEDE"/>
<path d="M51.7 46.3139C51.7 46.1983 51.98 46.0826 52.28 46.0826C52.34 46.0826 52.4 46.1627 52.4 46.2605C52.4 46.4029 52.33 46.4385 52.05 46.4385C51.82 46.4385 51.7 46.394 51.7 46.3139Z" fill="#DEDEDE"/>
<path d="M96.73 46.2338C96.56 46.1716 96.5 46.0648 96.5 45.8423C96.5 45.4596 96.67 45.4685 96.86 45.869C97.05 46.2605 97.01 46.3495 96.73 46.2338Z" fill="#DEDEDE"/>
<path d="M45.2 45.9046C45.2 45.7177 45.3 45.691 45.68 45.78C46.04 45.869 45.95 46.0826 45.55 46.0826C45.27 46.0826 45.2 46.047 45.2 45.9046Z" fill="#DEDEDE"/>
<path d="M4.2 45.7711C4.2 45.5753 4.24 45.5486 4.55 45.5486C4.98 45.5486 5 45.6732 4.6 45.8601C4.22 46.0381 4.2 46.0292 4.2 45.7711Z" fill="#DEDEDE"/>
<path d="M6.62 45.8868C6.65 45.8245 6.81 45.7266 6.98 45.6643C7.29 45.5486 7.3 45.5575 7.3 45.7711C7.3 45.9669 7.26 45.9936 6.94 45.9936C6.71 45.9936 6.6 45.958 6.62 45.8868Z" fill="#DEDEDE"/>
<path d="M38.73 45.1215C38.44 44.9435 38.21 44.7655 38.2 44.7299C38.2 44.6854 38.36 44.6587 38.55 44.6587C38.79 44.6587 38.9 44.7032 38.9 44.7922C38.9 44.8634 38.99 44.9257 39.1 44.9257C39.26 44.9257 39.3 44.988 39.3 45.1927C39.3 45.3439 39.29 45.4596 39.28 45.4596C39.26 45.4507 39.02 45.2994 38.73 45.1215Z" fill="#DEDEDE"/>
<path d="M5.8 45.1482C5.8 44.9524 5.84 44.9257 6.15 44.9257C6.58 44.9257 6.6 45.0503 6.2 45.2372C5.82 45.4151 5.8 45.4062 5.8 45.1482Z" fill="#DEDEDE"/>
<path d="M54.9 45.2105C54.9 45.1393 55.42 44.8367 55.54 44.8367C55.57 44.8367 55.6 44.9346 55.6 45.0592C55.6 45.255 55.56 45.2817 55.25 45.2817C55.06 45.2817 54.9 45.2461 54.9 45.2105Z" fill="#DEDEDE"/>
<path d="M3.57 44.9435C3.59 44.8545 3.7 44.7388 3.81 44.6765C3.98 44.5786 4 44.5964 4 44.8367C4 45.0592 3.96 45.1037 3.76 45.1037C3.58 45.1037 3.53 45.0681 3.57 44.9435Z" fill="#DEDEDE"/>
<path d="M55.7 44.7744C55.7 44.7299 55.86 44.6142 56.05 44.4985C56.4 44.3027 56.4 44.3027 56.4 44.5697C56.4 44.8189 56.37 44.8367 56.05 44.8367C55.86 44.8367 55.7 44.81 55.7 44.7744Z" fill="#DEDEDE"/>
<path d="M7.7 44.4362C7.7 44.2583 7.75 44.2138 7.95 44.2138C8.09 44.2138 8.2 44.1782 8.2 44.1248C8.2 44.0803 8.31 44.0358 8.45 44.0358C8.59 44.0358 8.7 44.0002 8.7 43.9468C8.7 43.9023 8.86 43.8578 9.05 43.8578C9.5 43.8578 9.5 44.0091 9.05 44.1782C7.7 44.6765 7.7 44.6765 7.7 44.4362Z" fill="#DEDEDE"/>
<path d="M10.42 44.5519C10.45 44.4896 10.61 44.3917 10.78 44.3294C11.09 44.2138 11.1 44.2227 11.1 44.4362C11.1 44.632 11.06 44.6587 10.74 44.6587C10.51 44.6587 10.4 44.6231 10.42 44.5519Z" fill="#DEDEDE"/>
<path d="M95.9 44.3384C95.9 43.9468 96.08 43.9646 96.27 44.3739C96.4 44.6498 96.39 44.6587 96.15 44.6587C95.93 44.6587 95.9 44.6231 95.9 44.3384Z" fill="#DEDEDE"/>
<path d="M4.6 44.3116C4.6 44.2405 5.62 43.6798 5.75 43.6798C5.78 43.6798 5.8 43.7777 5.8 43.9023C5.8 44.0803 5.75 44.1248 5.55 44.1248C5.39 44.1248 5.3 44.1782 5.3 44.2583C5.3 44.3472 5.19 44.3917 4.95 44.3917C4.76 44.3917 4.6 44.3561 4.6 44.3116Z" fill="#DEDEDE"/>
<path d="M12.12 44.018C12.15 43.9557 12.38 43.8311 12.63 43.751C13.1 43.5908 13.1 43.5908 13.1 43.8044C13.1 44.0269 12.89 44.1248 12.37 44.1248C12.18 44.1248 12.1 44.0892 12.12 44.018Z" fill="#DEDEDE"/>
<path d="M42.78 43.8934C42.4 43.7154 42.43 43.5908 42.85 43.5908C43.16 43.5908 43.2 43.6175 43.2 43.8133C43.2 44.0714 43.15 44.0803 42.78 43.8934Z" fill="#DEDEDE"/>
<path d="M40.5 43.5819C40.5 43.315 40.5 43.315 40.8 43.5018C41.24 43.7777 41.25 43.8578 40.86 43.8578C40.53 43.8578 40.5 43.84 40.5 43.5819Z" fill="#DEDEDE"/>
<path d="M57.26 43.6709C57.36 43.573 57.53 43.4484 57.62 43.4039C57.77 43.3328 57.8 43.3595 57.8 43.5908C57.8 43.84 57.77 43.8578 57.43 43.8578C57.07 43.8578 57.07 43.8578 57.26 43.6709Z" fill="#DEDEDE"/>
<path d="M4.2 43.5463C4.2 43.3061 4.33 43.1459 4.51 43.1459C4.61 43.1459 4.7 43.0836 4.7 43.0124C4.7 42.9234 4.81 42.8789 5.05 42.8789C5.24 42.8789 5.4 42.9145 5.4 42.9501C5.4 42.9946 5.13 43.1726 4.8 43.3505C4.41 43.5552 4.2 43.6264 4.2 43.5463Z" fill="#DEDEDE"/>
<path d="M95.4 43.2349C95.4 43.0658 95.45 42.9679 95.54 42.9679C95.62 42.9679 95.73 43.0925 95.79 43.2349C95.88 43.484 95.87 43.5018 95.64 43.5018C95.44 43.5018 95.4 43.4573 95.4 43.2349Z" fill="#DEDEDE"/>
<path d="M35.23 43.2794C34.8 43.1192 34.81 42.9679 35.25 42.9679C35.56 42.9679 35.6 42.9946 35.6 43.1904C35.6 43.315 35.59 43.4128 35.58 43.4128C35.56 43.404 35.4 43.3506 35.23 43.2794Z" fill="#DEDEDE"/>
<path d="M15.5 43.1103C15.5 42.9946 15.78 42.8789 16.08 42.8789C16.14 42.8789 16.2 42.959 16.2 43.0569C16.2 43.1993 16.13 43.2349 15.85 43.2349C15.62 43.2349 15.5 43.1904 15.5 43.1103Z" fill="#DEDEDE"/>
<path d="M31.7 43.0569C31.7 42.8611 31.9 42.8255 32.21 42.9679C32.51 43.1103 32.44 43.2349 32.05 43.2349C31.77 43.2349 31.7 43.1993 31.7 43.0569Z" fill="#DEDEDE"/>
<path d="M39.6 42.959C39.6 42.692 39.6 42.692 39.9 42.8789C40.34 43.1548 40.35 43.2348 39.96 43.2348C39.63 43.2348 39.6 43.2171 39.6 42.959Z" fill="#DEDEDE"/>
<path d="M56.6 42.9679C56.6 42.7187 56.63 42.7009 56.97 42.7009C57.33 42.7009 57.33 42.7009 57.14 42.8878C57.04 42.9857 56.87 43.1103 56.78 43.1548C56.63 43.226 56.6 43.1993 56.6 42.9679Z" fill="#DEDEDE"/>
<path d="M58.15 43.0569C58.18 43.0124 58.34 42.8878 58.5 42.7899C58.8 42.603 58.8 42.603 58.8 42.87C58.8 43.1281 58.77 43.1459 58.44 43.1459C58.24 43.1459 58.11 43.1103 58.15 43.0569Z" fill="#DEDEDE"/>
<path d="M33.53 42.6831C33.08 42.5496 33.1 42.345 33.55 42.345C33.86 42.345 33.9 42.3717 33.9 42.5674C33.9 42.692 33.89 42.7899 33.88 42.781C33.86 42.7721 33.7 42.7276 33.53 42.6831Z" fill="#DEDEDE"/>
<path d="M38.5 42.256C38.5 41.989 38.5 41.989 38.85 42.1848C39.29 42.4428 39.29 42.5229 38.85 42.5229C38.53 42.5229 38.5 42.5051 38.5 42.256Z" fill="#DEDEDE"/>
<path d="M8.6 42.3538C8.6 42.3094 8.79 42.1937 9.03 42.0869C9.45 41.9 9.45 41.9 9.48 42.0869C9.5 42.1937 9.46 42.3183 9.38 42.3538C9.21 42.4606 8.6 42.4517 8.6 42.3538Z" fill="#DEDEDE"/>
<path d="M14.7 42.256C14.7 42.1136 14.77 42.078 15.05 42.078C15.45 42.078 15.54 42.2916 15.18 42.3806C14.8 42.4695 14.7 42.4428 14.7 42.256Z" fill="#DEDEDE"/>
<path d="M93 42.2115C93 41.9979 93.01 41.989 93.32 42.1047C93.78 42.2738 93.8 42.4339 93.36 42.4339C93.04 42.4339 93 42.4072 93 42.2115Z" fill="#DEDEDE"/>
<path d="M6.7 42.1225C6.7 41.9267 6.74 41.9 7.05 41.9C7.48 41.9 7.49 41.989 7.11 42.1937C6.73 42.3894 6.7 42.3894 6.7 42.1225Z" fill="#DEDEDE"/>
<path d="M20.5 42.2204C20.5 42.1047 20.78 41.989 21.08 41.989C21.14 41.989 21.2 42.0691 21.2 42.167C21.2 42.3094 21.13 42.345 20.85 42.345C20.62 42.345 20.5 42.3005 20.5 42.2204Z" fill="#DEDEDE"/>
<path d="M27.48 42.2827C27.18 42.256 27.1 42.2115 27.1 42.0691C27.1 41.9 27.14 41.8911 27.53 41.9445C28.36 42.0513 28.5 42.0958 28.5 42.2204C28.5 42.3449 28.31 42.3538 27.48 42.2827Z" fill="#DEDEDE"/>
<path d="M26.2 41.989C26.2 41.8021 26.3 41.7754 26.68 41.8644C27.04 41.9534 26.95 42.167 26.55 42.167C26.27 42.167 26.2 42.1314 26.2 41.989Z" fill="#DEDEDE"/>
<path d="M60.1 42.0068C60.1 41.9356 60.62 41.633 60.74 41.633C60.77 41.633 60.8 41.7309 60.8 41.8555C60.8 42.0513 60.76 42.078 60.45 42.078C60.26 42.078 60.1 42.0424 60.1 42.0068Z" fill="#DEDEDE"/>
<path d="M37.6 41.7665C37.6 41.4996 37.63 41.4996 38.01 41.6953C38.39 41.9 38.38 41.989 37.95 41.989C37.64 41.989 37.6 41.9623 37.6 41.7665Z" fill="#DEDEDE"/>
<path d="M30.58 41.8377C30.25 41.7665 30.38 41.544 30.75 41.544C31.03 41.544 31.1 41.5796 31.1 41.722C31.1 41.9 30.96 41.9267 30.58 41.8377Z" fill="#DEDEDE"/>
<path d="M5.13 41.4372C5.32 41.0279 5.5 41.0101 5.5 41.4017C5.5 41.6864 5.47 41.722 5.25 41.722C5.01 41.722 5 41.7131 5.13 41.4372Z" fill="#DEDEDE"/>
<path d="M18.6 41.455C18.6 41.3127 18.67 41.2771 18.95 41.2771C19.35 41.2771 19.44 41.4906 19.08 41.5796C18.7 41.6686 18.6 41.6419 18.6 41.455Z" fill="#DEDEDE"/>
<path d="M29.48 41.5707C29.15 41.4995 29.28 41.2771 29.65 41.2771C29.93 41.2771 30 41.3127 30 41.455C30 41.633 29.86 41.6597 29.48 41.5707Z" fill="#DEDEDE"/>
<path d="M11.02 41.3483C11.05 41.286 11.21 41.1881 11.38 41.1258C11.69 41.0101 11.7 41.019 11.7 41.2326C11.7 41.4284 11.66 41.455 11.34 41.455C11.11 41.455 11 41.4195 11.02 41.3483Z" fill="#DEDEDE"/>
<path d="M28.65 41.4106C28.6 41.3928 28.38 41.3572 28.18 41.3216C27.94 41.286 27.8 41.2237 27.8 41.1436C27.8 40.9923 27.95 40.9834 28.64 41.0635C29 41.108 29.1 41.1614 29.1 41.286C29.1 41.4461 28.92 41.4906 28.65 41.4106Z" fill="#DEDEDE"/>
<path d="M92.63 41.1436C92.2 40.9834 92.21 40.8321 92.65 40.8321C92.96 40.8321 93 40.8588 93 41.0546C93 41.1792 92.99 41.2771 92.98 41.2771C92.96 41.2682 92.8 41.2148 92.63 41.1436Z" fill="#DEDEDE"/>
<path d="M22.6 41.0101C22.6 40.8677 22.67 40.8321 22.95 40.8321C23.32 40.8321 23.44 41.0279 23.14 41.1347C22.82 41.2415 22.6 41.1881 22.6 41.0101Z" fill="#DEDEDE"/>
<path d="M5.4 40.8766C5.4 40.752 5.72 40.2982 5.8 40.2982C5.86 40.2982 5.9 40.4405 5.9 40.6096C5.9 40.8855 5.87 40.9211 5.65 40.9211C5.51 40.9211 5.4 40.9033 5.4 40.8766Z" fill="#DEDEDE"/>
<path d="M35.5 40.6897C35.5 40.5651 35.53 40.4761 35.58 40.4939C36.31 40.8054 36.38 40.9211 35.85 40.9211C35.54 40.9211 35.5 40.8944 35.5 40.6897Z" fill="#DEDEDE"/>
<path d="M12.72 40.7253C12.75 40.663 12.91 40.5651 13.08 40.5028C13.39 40.3872 13.4 40.3961 13.4 40.6096C13.4 40.8054 13.36 40.8321 13.04 40.8321C12.81 40.8321 12.7 40.7965 12.72 40.7253Z" fill="#DEDEDE"/>
<path d="M87.13 40.7698C86.98 40.7431 86.9 40.663 86.9 40.5563C86.9 40.3605 86.96 40.3516 87.56 40.4851C88.38 40.6719 88 40.9211 87.13 40.7698Z" fill="#DEDEDE"/>
<path d="M36.88 40.316C36.51 40.1202 36.53 40.0312 36.95 40.0312C37.26 40.0312 37.3 40.0579 37.3 40.2537C37.3 40.5117 37.24 40.5206 36.88 40.316Z" fill="#DEDEDE"/>
<path d="M14.1 40.2715C14.1 40.1647 14.7 39.9422 14.99 39.9422C15.2 39.9422 15.1 40.2804 14.88 40.3338C14.48 40.4228 14.1 40.3961 14.1 40.2715Z" fill="#DEDEDE"/>
<path d="M33.7 39.9867C33.7 39.7731 33.71 39.7642 34.02 39.8799C34.48 40.049 34.5 40.2092 34.06 40.2092C33.74 40.2092 33.7 40.1825 33.7 39.9867Z" fill="#DEDEDE"/>
<path d="M88.68 40.0579C88.35 39.9867 88.48 39.7642 88.85 39.7642C89.13 39.7642 89.2 39.7998 89.2 39.9422C89.2 40.1202 89.06 40.1469 88.68 40.0579Z" fill="#DEDEDE"/>
<path d="M82.6 39.8532C82.6 39.6663 82.7 39.6396 83.08 39.7286C83.44 39.8176 83.35 40.0312 82.95 40.0312C82.67 40.0312 82.6 39.9956 82.6 39.8532Z" fill="#DEDEDE"/>
<path d="M5.9 39.8977C5.9 39.7731 6.22 39.3193 6.3 39.3193C6.36 39.3193 6.4 39.4617 6.4 39.6307C6.4 39.9066 6.37 39.9422 6.15 39.9422C6.01 39.9422 5.9 39.9244 5.9 39.8977Z" fill="#DEDEDE"/>
<path d="M12.6 39.7108C12.6 39.524 12.65 39.4973 12.95 39.4973C13.17 39.4973 13.3 39.5417 13.3 39.6129C13.3 39.6841 13.14 39.7731 12.95 39.8265C12.62 39.9244 12.6 39.9155 12.6 39.7108Z" fill="#DEDEDE"/>
<path d="M68.3 39.8176C68.3 39.7019 68.58 39.5862 68.88 39.5862C68.94 39.5862 69 39.6663 69 39.7642C69 39.9066 68.93 39.9422 68.65 39.9422C68.42 39.9422 68.3 39.8977 68.3 39.8176Z" fill="#DEDEDE"/>
<path d="M81 39.6752C81 39.4883 81.1 39.4617 81.48 39.5506C81.84 39.6396 81.75 39.8532 81.35 39.8532C81.07 39.8532 81 39.8176 81 39.6752Z" fill="#DEDEDE"/>
<path d="M87.48 39.7909C87.15 39.7197 87.28 39.4973 87.65 39.4973C87.93 39.4973 88 39.5328 88 39.6752C88 39.8532 87.86 39.8799 87.48 39.7909Z" fill="#DEDEDE"/>
<path d="M35.33 39.6307C34.9 39.4706 34.91 39.3193 35.35 39.3193C35.66 39.3193 35.7 39.346 35.7 39.5418C35.7 39.6663 35.69 39.7642 35.68 39.7642C35.66 39.7553 35.5 39.7019 35.33 39.6307Z" fill="#DEDEDE"/>
<path d="M64 39.5862C64 39.4439 64.07 39.4083 64.35 39.4083C64.75 39.4083 64.84 39.6218 64.48 39.7108C64.1 39.7998 64 39.7731 64 39.5862Z" fill="#DEDEDE"/>
<path d="M80.1 39.5862C80.1 39.3994 80.2 39.3727 80.58 39.4617C80.94 39.5506 80.85 39.7642 80.45 39.7642C80.17 39.7642 80.1 39.7286 80.1 39.5862Z" fill="#DEDEDE"/>
<path d="M17.1 39.4617C17.1 39.346 17.38 39.2303 17.68 39.2303C17.74 39.2303 17.8 39.3104 17.8 39.4083C17.8 39.5506 17.73 39.5862 17.45 39.5862C17.22 39.5862 17.1 39.5417 17.1 39.4617Z" fill="#DEDEDE"/>
<path d="M72.62 39.4349C72.64 39.346 72.77 39.2748 72.98 39.257C73.25 39.2214 73.3 39.2481 73.3 39.3994C73.3 39.5506 73.24 39.5862 72.94 39.5862C72.66 39.5862 72.59 39.5506 72.62 39.4349Z" fill="#DEDEDE"/>
<path d="M77.2 39.3994C77.2 39.2481 77.25 39.2214 77.52 39.257C77.73 39.2748 77.86 39.346 77.88 39.4349C77.91 39.5506 77.84 39.5862 77.56 39.5862C77.26 39.5862 77.2 39.5506 77.2 39.3994Z" fill="#DEDEDE"/>
<path d="M30.83 39.346C30.68 39.3193 30.6 39.2392 30.6 39.1324C30.6 38.9366 30.66 38.9277 31.26 39.0612C32.08 39.2481 31.7 39.4973 30.83 39.346Z" fill="#DEDEDE"/>
<path d="M81.98 38.901C81.65 38.8298 81.78 38.6073 82.15 38.6073C82.43 38.6073 82.5 38.6429 82.5 38.7853C82.5 38.9633 82.36 38.99 81.98 38.901Z" fill="#DEDEDE"/>
<path d="M27.9 38.6963C27.9 38.5095 28 38.4828 28.38 38.5717C28.74 38.6607 28.65 38.8743 28.25 38.8743C27.97 38.8743 27.9 38.8387 27.9 38.6963Z" fill="#DEDEDE"/>
<path d="M16.3 38.6073C16.3 38.4649 16.37 38.4294 16.65 38.4294C17.05 38.4294 17.14 38.6429 16.78 38.7319C16.4 38.8209 16.3 38.7942 16.3 38.6073Z" fill="#DEDEDE"/>
<path d="M22.4 38.6607C22.4 38.5272 22.61 38.4294 22.91 38.4294C23.03 38.4294 23.1 38.4916 23.1 38.6073C23.1 38.7497 23.03 38.7853 22.75 38.7853C22.52 38.7853 22.4 38.7408 22.4 38.6607Z" fill="#DEDEDE"/>
<path d="M27 38.6073C27 38.4205 27.1 38.3938 27.48 38.4827C27.84 38.5717 27.75 38.7853 27.35 38.7853C27.07 38.7853 27 38.7497 27 38.6073Z" fill="#DEDEDE"/>
<path d="M24.42 38.545C24.45 38.4116 24.57 38.3849 25.13 38.376C25.72 38.3671 25.8 38.3849 25.8 38.5361C25.8 38.6785 25.71 38.6963 25.09 38.6963C24.47 38.6963 24.39 38.6785 24.42 38.545Z" fill="#DEDEDE"/>
<path d="M78.93 38.634C78.65 38.5361 78.8 38.3404 79.15 38.3404C79.43 38.3404 79.5 38.376 79.5 38.5184C79.5 38.6963 79.24 38.7497 78.93 38.634Z" fill="#DEDEDE"/>
<path d="M73.1 38.4383C73.1 38.287 73.16 38.2514 73.46 38.2514C73.74 38.2514 73.81 38.287 73.78 38.4027C73.76 38.4916 73.63 38.5628 73.42 38.5806C73.15 38.6162 73.1 38.5895 73.1 38.4383Z" fill="#DEDEDE"/>
<path d="M76.75 38.5272C76.59 38.3849 76.74 38.2514 77.05 38.2514C77.33 38.2514 77.4 38.287 77.4 38.4294C77.4 38.5717 77.34 38.6073 77.1 38.5895C76.93 38.5806 76.77 38.5539 76.75 38.5272Z" fill="#DEDEDE"/>
<path d="M17.9 38.2603C17.9 38.1001 18.29 37.9844 18.88 37.9844C19.32 37.9844 19.11 38.2336 18.6 38.3315C17.93 38.4561 17.9 38.4561 17.9 38.2603Z" fill="#DEDEDE"/>
<path d="M92.76 38.198C92.67 38.0022 92.69 37.5394 92.78 37.5394C92.87 37.5394 93.07 37.8242 93.2 38.1268C93.28 38.3137 93.27 38.3404 93.06 38.3404C92.93 38.3404 92.79 38.2781 92.76 38.198Z" fill="#DEDEDE"/>
<path d="M20.6 37.8064C20.6 37.664 20.67 37.6284 20.95 37.6284C21.35 37.6284 21.44 37.842 21.08 37.931C20.7 38.02 20.6 37.9933 20.6 37.8064Z" fill="#DEDEDE"/>
<path d="M27.03 37.7441C26.75 37.6462 26.9 37.4505 27.25 37.4505C27.53 37.4505 27.6 37.4861 27.6 37.6284C27.6 37.8064 27.34 37.8598 27.03 37.7441Z" fill="#DEDEDE"/>
<path d="M8 36.2491C8 36.1245 8.32 35.6706 8.4 35.6706C8.46 35.6706 8.5 35.813 8.5 35.9821C8.5 36.258 8.47 36.2936 8.25 36.2936C8.11 36.2936 8 36.2758 8 36.2491Z" fill="#DEDEDE"/>
<path d="M10.6 32.4047C10.6 32.3157 11.2 31.5148 11.36 31.3991C11.48 31.3012 11.5 31.3368 11.5 31.6127C11.5 31.7906 11.46 31.933 11.4 31.933C11.35 31.933 11.3 31.9953 11.3 32.0665C11.3 32.1377 11.26 32.2 11.2 32.2C11.15 32.2 11.1 32.2623 11.1 32.3335C11.1 32.4136 11.01 32.467 10.85 32.467C10.71 32.467 10.6 32.4403 10.6 32.4047Z" fill="#DEDEDE"/>
<path d="M88.1 30.9897C88.1 30.6427 88.19 30.6516 88.5 31.0431C88.71 31.3101 88.71 31.3101 88.41 31.3101C88.12 31.3101 88.1 31.2834 88.1 30.9897Z" fill="#DEDEDE"/>
<path d="M12.31 30.1087C12.81 29.4947 12.9 29.4502 12.9 29.8329C12.9 30.0553 12.86 30.1532 12.75 30.1532C12.67 30.1532 12.6 30.2333 12.6 30.3312C12.6 30.4736 12.53 30.5092 12.29 30.5092C11.99 30.5092 11.99 30.5092 12.31 30.1087Z" fill="#DEDEDE"/>
<path d="M11.9 29.0497C11.9 28.756 11.92 28.7294 12.21 28.7294C12.51 28.7294 12.51 28.7294 12.3 28.9963C11.99 29.3879 11.9 29.3968 11.9 29.0497Z" fill="#DEDEDE"/>
<path d="M88.2 28.9785C88.2 28.8717 88.32 28.231 88.47 27.5547C88.7 26.5224 88.77 26.3266 88.92 26.3266C89.02 26.3266 89.1 26.3622 89.1 26.3978C89.1 26.4423 88.97 27.0741 88.8 27.795C88.64 28.5158 88.5 29.1298 88.5 29.1476C88.5 29.1565 88.43 29.1743 88.35 29.1743C88.26 29.1743 88.2 29.0942 88.2 28.9785Z" fill="#DEDEDE"/>
<path d="M14.11 28.0619C14.29 27.8395 14.52 27.5992 14.62 27.5102C14.79 27.3767 14.8 27.3856 14.8 27.6882C14.8 27.9551 14.76 28.0174 14.6 28.0174C14.45 28.0174 14.4 28.0797 14.4 28.2399C14.4 28.4268 14.35 28.4624 14.09 28.4624C13.79 28.4624 13.79 28.4624 14.11 28.0619Z" fill="#DEDEDE"/>
<path d="M86.98 28.1064C86.7 27.795 86.7 27.795 86.96 27.7683C87.29 27.7327 87.32 27.7594 87.28 28.1153C87.25 28.4179 87.25 28.4179 86.98 28.1064Z" fill="#DEDEDE"/>
<path d="M85 27.4212C85 27.1008 85 27.1008 85.21 27.2699C85.32 27.3589 85.46 27.5102 85.51 27.5903C85.59 27.7238 85.56 27.7505 85.3 27.7505C85.02 27.7505 85 27.7238 85 27.4212Z" fill="#DEDEDE"/>
<path d="M13.5 27.2788C13.5 26.9762 13.52 26.9495 13.8 26.9495C14.06 26.9495 14.09 26.9762 14.01 27.1097C13.96 27.1898 13.82 27.3411 13.71 27.4301C13.5 27.5992 13.5 27.5992 13.5 27.2788Z" fill="#DEDEDE"/>
<path d="M10.26 27.1987C10.16 26.8606 10.19 26.7716 10.4 26.7716C10.56 26.7716 10.6 26.8339 10.6 27.083C10.6 27.439 10.36 27.5191 10.26 27.1987Z" fill="#DEDEDE"/>
<path d="M85.96 27.0385C85.67 26.7271 85.67 26.7271 85.94 26.7004C86.29 26.6648 86.32 26.6915 86.28 27.0474C86.25 27.3411 86.25 27.3411 85.96 27.0385Z" fill="#DEDEDE"/>
<path d="M84.2 26.6203C84.2 26.2821 84.2 26.2821 84.5 26.5669C84.67 26.7271 84.8 26.8694 84.8 26.8961C84.8 26.9317 84.67 26.9495 84.5 26.9495C84.22 26.9495 84.2 26.9317 84.2 26.6203Z" fill="#DEDEDE"/>
<path d="M85.21 26.2821C84.88 25.9706 84.88 25.9706 85.24 25.9706C85.58 25.9706 85.6 25.9884 85.6 26.2821C85.6 26.4512 85.59 26.5936 85.57 26.5936C85.56 26.5936 85.4 26.4512 85.21 26.2821Z" fill="#DEDEDE"/>
<path d="M9.96 25.7749C9.86 25.4367 9.89 25.3477 10.1 25.3477C10.26 25.3477 10.3 25.41 10.3 25.6592C10.3 26.0151 10.06 26.0952 9.96 25.7749Z" fill="#DEDEDE"/>
<path d="M82.7 25.3121C82.7 25.0095 82.7 25.0095 83.05 25.2854C83.24 25.4367 83.4 25.5702 83.4 25.588C83.4 25.6058 83.24 25.6147 83.05 25.6147C82.72 25.6147 82.7 25.5969 82.7 25.3121Z" fill="#DEDEDE"/>
<path d="M89.1 24.7693C89.1 24.5201 89.14 24.4578 89.3 24.4578C89.51 24.4578 89.54 24.5468 89.44 24.8849C89.34 25.2053 89.1 25.1252 89.1 24.7693Z" fill="#DEDEDE"/>
<path d="M83.25 24.5379C82.95 24.2798 82.95 24.2798 83.33 24.2798C83.68 24.2798 83.7 24.2976 83.7 24.5468C83.7 24.8761 83.63 24.8761 83.25 24.5379Z" fill="#DEDEDE"/>
<path d="M9.46 23.2831C9.36 22.945 9.39 22.856 9.6 22.856C9.76 22.856 9.8 22.9183 9.8 23.1674C9.8 23.5234 9.56 23.6035 9.46 23.2831Z" fill="#DEDEDE"/>
<path d="M80.7 22.589C80.35 22.3309 80.35 22.3309 80.73 22.322C81.08 22.322 81.1 22.3398 81.1 22.589C81.1 22.7403 81.09 22.856 81.07 22.856C81.06 22.856 80.89 22.7403 80.7 22.589Z" fill="#DEDEDE"/>
<path d="M9.26 22.2152C9.16 21.8771 9.19 21.7881 9.4 21.7881C9.56 21.7881 9.6 21.8504 9.6 22.0995C9.6 22.4555 9.36 22.5356 9.26 22.2152Z" fill="#DEDEDE"/>
<path d="M79.93 22.1173C79.51 21.8682 79.52 21.7881 79.95 21.7881C80.27 21.7881 80.3 21.8059 80.3 22.0551C80.3 22.2063 80.29 22.322 80.28 22.3131C80.26 22.3131 80.1 22.2241 79.93 22.1173Z" fill="#DEDEDE"/>
<path d="M19.9 21.9661C19.9 21.7169 19.93 21.6991 20.25 21.6991C20.69 21.6991 20.69 21.7792 20.25 22.0372C19.9 22.233 19.9 22.233 19.9 21.9661Z" fill="#DEDEDE"/>
<path d="M22.5 21.5478C22.5 21.5033 22.66 21.3876 22.85 21.2719C23.2 21.0762 23.2 21.0762 23.2 21.3431C23.2 21.5923 23.17 21.6101 22.85 21.6101C22.66 21.6101 22.5 21.5834 22.5 21.5478Z" fill="#DEDEDE"/>
<path d="M78.48 21.2274C78.22 21.0672 78 20.916 78 20.8804C78 20.8359 78.16 20.8092 78.35 20.8092C78.54 20.8092 78.7 20.8537 78.7 20.8982C78.7 20.9516 78.77 20.9872 78.85 20.9872C78.95 20.9872 79 21.0761 79 21.2541C79 21.4054 78.99 21.5211 78.98 21.5122C78.96 21.5122 78.74 21.3787 78.48 21.2274Z" fill="#DEDEDE"/>
<path d="M77.53 20.6935C77.11 20.4443 77.12 20.3642 77.55 20.3642C77.87 20.3642 77.9 20.382 77.9 20.6312C77.9 20.7825 77.89 20.8982 77.88 20.8893C77.86 20.8893 77.7 20.8003 77.53 20.6935Z" fill="#DEDEDE"/>
<path d="M24.2 20.649C24.2 20.5778 24.72 20.2752 24.84 20.2752C24.87 20.2752 24.9 20.3731 24.9 20.4977C24.9 20.6935 24.86 20.7202 24.55 20.7202C24.36 20.7202 24.2 20.6846 24.2 20.649Z" fill="#DEDEDE"/>
<path d="M74.8 20.3197C74.8 20.0528 74.83 20.0528 75.21 20.2485C75.59 20.4532 75.58 20.5422 75.15 20.5422C74.84 20.5422 74.8 20.5155 74.8 20.3197Z" fill="#DEDEDE"/>
<path d="M8.86 19.9015C8.76 19.5633 8.79 19.4743 9 19.4743C9.16 19.4743 9.2 19.5366 9.2 19.7858C9.2 20.1418 8.96 20.2218 8.86 19.9015Z" fill="#DEDEDE"/>
<path d="M75.99 19.8748C75.59 19.6879 75.6 19.5544 76.02 19.1717C76.39 18.8247 76.39 18.8247 76.39 19.4209C76.38 19.7413 76.35 20.0083 76.32 20.0083C76.28 19.9994 76.13 19.946 75.99 19.8748Z" fill="#DEDEDE"/>
<path d="M90.1 19.6078C90.1 19.3586 90.14 19.2963 90.3 19.2963C90.51 19.2963 90.54 19.3853 90.44 19.7235C90.34 20.0439 90.1 19.9638 90.1 19.6078Z" fill="#DEDEDE"/>
<path d="M71.8 18.9849C71.8 18.7713 71.81 18.7624 72.12 18.8781C72.58 19.0472 72.6 19.2073 72.16 19.2073C71.84 19.2073 71.8 19.1806 71.8 18.9849Z" fill="#DEDEDE"/>
<path d="M27.8 19.0294C27.8 18.9582 28.31 18.6734 28.45 18.6734C28.48 18.6734 28.5 18.7713 28.5 18.8959C28.5 19.0917 28.46 19.1183 28.15 19.1183C27.96 19.1183 27.8 19.0828 27.8 19.0294Z" fill="#DEDEDE"/>
<path d="M8.66 18.6556C8.56 18.3174 8.59 18.2284 8.8 18.2284C8.96 18.2284 9 18.2907 9 18.5399C9 18.8959 8.76 18.976 8.66 18.6556Z" fill="#DEDEDE"/>
<path d="M70.9 18.7624C70.9 18.7179 70.79 18.6734 70.65 18.6734C70.45 18.6734 70.4 18.6289 70.4 18.4509C70.4 18.2284 70.4 18.2284 70.92 18.4153C71.55 18.6378 71.6 18.6645 71.6 18.7713C71.6 18.8158 71.44 18.8514 71.25 18.8514C71.06 18.8514 70.9 18.8158 70.9 18.7624Z" fill="#DEDEDE"/>
<path d="M8.56 17.9437C8.46 17.6055 8.49 17.5165 8.7 17.5165C8.86 17.5165 8.9 17.5788 8.9 17.828C8.9 18.1839 8.66 18.264 8.56 17.9437Z" fill="#DEDEDE"/>
<path d="M20.1 17.8191C20.1 17.4987 20.1 17.4987 20.45 17.7924C20.64 17.9615 20.8 18.1039 20.8 18.1128C20.8 18.1306 20.64 18.1395 20.45 18.1395C20.12 18.1395 20.1 18.1217 20.1 17.8191Z" fill="#DEDEDE"/>
<path d="M28.6 17.65C28.6 17.4542 28.64 17.4275 28.96 17.4275C29.4 17.4275 29.38 17.5877 28.92 17.7568C28.61 17.8725 28.6 17.8636 28.6 17.65Z" fill="#DEDEDE"/>
<path d="M31.92 17.5877C31.95 17.5254 32.11 17.4275 32.28 17.3652C32.59 17.2495 32.6 17.2584 32.6 17.472C32.6 17.6678 32.56 17.6945 32.24 17.6945C32.01 17.6945 31.9 17.6589 31.92 17.5877Z" fill="#DEDEDE"/>
<path d="M20.85 17.2406C20.46 16.8936 20.46 16.8936 20.83 16.8936C21.24 16.8936 21.34 17.0004 21.28 17.3652C21.25 17.5877 21.25 17.5877 20.85 17.2406Z" fill="#DEDEDE"/>
<path d="M90.5 17.1161C90.5 16.8669 90.54 16.8046 90.7 16.8046C90.91 16.8046 90.94 16.8936 90.84 17.2317C90.74 17.5521 90.5 17.472 90.5 17.1161Z" fill="#DEDEDE"/>
<path d="M30.1 17.1161C30.1 16.9203 30.14 16.8936 30.46 16.8936C30.9 16.8936 30.88 17.0538 30.42 17.2228C30.11 17.3385 30.1 17.3296 30.1 17.1161Z" fill="#DEDEDE"/>
<path d="M33.4 17.125C33.4 17.0093 33.68 16.8936 33.98 16.8936C34.04 16.8936 34.1 16.9737 34.1 17.0716C34.1 17.2139 34.03 17.2495 33.75 17.2495C33.52 17.2495 33.4 17.205 33.4 17.125Z" fill="#DEDEDE"/>
<path d="M69.33 17.1428C68.88 17.0093 68.9 16.8046 69.35 16.8046C69.66 16.8046 69.7 16.8313 69.7 17.0271C69.7 17.1517 69.69 17.2495 69.68 17.2406C69.66 17.2317 69.5 17.1872 69.33 17.1428Z" fill="#DEDEDE"/>
<path d="M77.3 16.769C77.3 16.4664 77.32 16.4486 77.65 16.4486C77.84 16.4486 78 16.4575 78 16.4753C78 16.4842 77.84 16.6266 77.65 16.7957C77.3 17.0894 77.3 17.0894 77.3 16.769Z" fill="#DEDEDE"/>
<path d="M18.5 16.5376C18.5 16.3952 18.52 16.2706 18.56 16.2706C18.59 16.2706 18.75 16.3863 18.93 16.5376C19.25 16.8046 19.25 16.8046 18.88 16.8046C18.52 16.8046 18.5 16.7868 18.5 16.5376Z" fill="#DEDEDE"/>
<path d="M67.93 16.6978C67.48 16.5643 67.5 16.3596 67.95 16.3596C68.26 16.3596 68.3 16.3863 68.3 16.5821C68.3 16.7067 68.29 16.8046 68.28 16.7957C68.26 16.7868 68.1 16.7423 67.93 16.6978Z" fill="#DEDEDE"/>
<path d="M90.6 16.4041C90.6 16.155 90.64 16.0927 90.8 16.0927C91.01 16.0927 91.04 16.1816 90.94 16.5198C90.84 16.8402 90.6 16.7601 90.6 16.4041Z" fill="#DEDEDE"/>
<path d="M32.4 16.3952C32.4 16.2084 32.45 16.1817 32.75 16.1817C32.97 16.1817 33.1 16.2262 33.1 16.2973C33.1 16.3685 32.94 16.4575 32.75 16.5109C32.42 16.6088 32.4 16.5999 32.4 16.3952Z" fill="#DEDEDE"/>
<path d="M66.33 16.2528C65.88 16.1194 65.9 15.9147 66.35 15.9147C66.66 15.9147 66.7 15.9414 66.7 16.1372C66.7 16.2617 66.69 16.3596 66.68 16.3507C66.66 16.3418 66.5 16.2973 66.33 16.2528Z" fill="#DEDEDE"/>
<path d="M79.77 15.9147C79.95 15.7634 80.11 15.6477 80.14 15.6477C80.18 15.6477 80.2 15.7723 80.2 15.9147C80.2 16.1639 80.18 16.1817 79.83 16.1817C79.45 16.1817 79.45 16.1817 79.77 15.9147Z" fill="#DEDEDE"/>
<path d="M38.6 15.9681C38.6 15.888 38.79 15.8079 39.1 15.7456C39.77 15.621 39.8 15.621 39.8 15.8168C39.8 15.9414 39.7 15.9948 39.43 16.0393C38.83 16.1194 38.6 16.1016 38.6 15.9681Z" fill="#DEDEDE"/>
<path d="M17.3 15.5587C17.3 15.4163 17.32 15.2917 17.36 15.2917C17.39 15.2917 17.55 15.4074 17.73 15.5587C18.05 15.8257 18.05 15.8257 17.68 15.8257C17.32 15.8257 17.3 15.8079 17.3 15.5587Z" fill="#DEDEDE"/>
<path d="M58.6 15.5587C58.6 15.3718 58.7 15.3451 59.08 15.4341C59.44 15.5231 59.35 15.7367 58.95 15.7367C58.67 15.7367 58.6 15.7011 58.6 15.5587Z" fill="#DEDEDE"/>
<path d="M79.2 15.1138C79.2 14.8646 79.22 14.8468 79.58 14.8468C79.95 14.8468 79.95 14.8468 79.63 15.1138C79.45 15.265 79.29 15.3807 79.26 15.3807C79.22 15.3807 79.2 15.265 79.2 15.1138Z" fill="#DEDEDE"/>
<path d="M80.87 15.0248C81.05 14.8735 81.21 14.7578 81.24 14.7578C81.28 14.7578 81.3 14.8824 81.3 15.0248C81.3 15.2739 81.28 15.2917 80.93 15.2917C80.55 15.2917 80.55 15.2917 80.87 15.0248Z" fill="#DEDEDE"/>
<path d="M46.6 15.0782C46.6 14.9625 46.88 14.8468 47.18 14.8468C47.24 14.8468 47.3 14.9269 47.3 15.0248C47.3 15.1672 47.23 15.2028 46.95 15.2028C46.72 15.2028 46.6 15.1583 46.6 15.0782Z" fill="#DEDEDE"/>
<path d="M52.8 15.0248C52.8 14.8468 53.02 14.7934 53.34 14.9002C53.64 15.007 53.52 15.2028 53.15 15.2028C52.87 15.2028 52.8 15.1672 52.8 15.0248Z" fill="#DEDEDE"/>
<path d="M66.76 14.9269C66.86 14.829 67.03 14.7044 67.12 14.6599C67.27 14.5887 67.3 14.6154 67.3 14.8468C67.3 15.096 67.27 15.1138 66.93 15.1138C66.57 15.1138 66.57 15.1138 66.76 14.9269Z" fill="#DEDEDE"/>
<path d="M8.19 14.0281C8.19 14.0103 8.16 13.8679 8.14 13.7166C8.1 13.4674 8.12 13.4229 8.29 13.4229C8.46 13.4229 8.5 13.4763 8.5 13.7344C8.5 13.948 8.45 14.0459 8.35 14.0459C8.27 14.0459 8.2 14.037 8.19 14.0281Z" fill="#DEDEDE"/>
<path d="M15 13.7789C15 13.5475 15.03 13.5208 15.18 13.592C15.27 13.6365 15.44 13.7611 15.54 13.859C15.73 14.0459 15.73 14.0459 15.37 14.0459C15.03 14.0459 15 14.0281 15 13.7789Z" fill="#DEDEDE"/>
<path d="M82.86 13.414C82.96 13.3161 83.13 13.1916 83.22 13.1471C83.37 13.0759 83.4 13.1026 83.4 13.3339C83.4 13.5831 83.37 13.6009 83.03 13.6009C82.67 13.6009 82.67 13.6009 82.86 13.414Z" fill="#DEDEDE"/>
<path d="M81.5 13.245C81.5 12.9958 81.53 12.978 81.87 12.978C82.23 12.978 82.23 12.978 82.04 13.1649C81.94 13.2628 81.77 13.3873 81.68 13.4318C81.53 13.503 81.5 13.4763 81.5 13.245Z" fill="#DEDEDE"/>
<path d="M14 13.156C14 13.0225 13.93 12.978 13.75 12.978C13.54 12.978 13.5 12.9335 13.5 12.7021C13.5 12.4351 13.5 12.4351 13.78 12.6131C13.93 12.711 14.21 12.9068 14.4 13.0581C14.75 13.325 14.75 13.325 14.38 13.3339C14.07 13.3339 14 13.3072 14 13.156Z" fill="#DEDEDE"/>
<path d="M15.18 12.711C14.85 12.4529 14.85 12.4529 15.23 12.444C15.58 12.444 15.6 12.4618 15.6 12.711C15.6 12.8623 15.58 12.978 15.55 12.978C15.52 12.978 15.36 12.8623 15.18 12.711Z" fill="#DEDEDE"/>
<path d="M69.56 12.7911C69.66 12.6932 69.83 12.5686 69.92 12.5241C70.07 12.4529 70.1 12.4796 70.1 12.711C70.1 12.9602 70.07 12.978 69.73 12.978C69.37 12.978 69.37 12.978 69.56 12.7911Z" fill="#DEDEDE"/>
<path d="M8.1 12.4529C8.1 12.186 8.21 11.9991 8.36 11.9991C8.45 11.9991 8.5 12.1059 8.5 12.3106C8.5 12.5597 8.46 12.622 8.3 12.622C8.17 12.622 8.1 12.5597 8.1 12.4529Z" fill="#DEDEDE"/>
<path d="M91 11.7321C91 11.4918 91.04 11.3761 91.14 11.3761C91.3 11.3761 91.4 11.6609 91.33 11.9101C91.23 12.2394 91 12.1148 91 11.7321Z" fill="#DEDEDE"/>
<path d="M85.05 11.8211C85.08 11.7766 85.24 11.652 85.4 11.5541C85.7 11.3672 85.7 11.3672 85.7 11.6342C85.7 11.8923 85.67 11.9101 85.34 11.9101C85.14 11.9101 85.01 11.8745 85.05 11.8211Z" fill="#DEDEDE"/>
<path d="M8.2 11.6253C8.2 11.3583 8.33 11.1092 8.46 11.1092C8.55 11.1092 8.6 11.216 8.6 11.4206C8.6 11.6698 8.56 11.7321 8.4 11.7321C8.29 11.7321 8.2 11.6787 8.2 11.6253Z" fill="#DEDEDE"/>
<path d="M84.1 11.2961C84.1 11.0647 84.14 11.0202 84.35 11.0202C84.53 11.0202 84.6 10.9757 84.6 10.8422C84.6 10.7265 84.67 10.6642 84.8 10.6642C84.91 10.6642 85 10.6019 85 10.5307C85 10.4417 85.11 10.3972 85.35 10.3972C85.54 10.3972 85.7 10.4239 85.7 10.4684C85.69 10.504 85.46 10.682 85.17 10.86C84.88 11.0469 84.53 11.2783 84.38 11.385C84.1 11.5719 84.1 11.5719 84.1 11.2961Z" fill="#DEDEDE"/>
<path d="M12.65 11.038C12.15 10.7087 12.15 10.7087 12.5 10.682C12.69 10.6642 12.86 10.6909 12.88 10.7443C12.9 10.7977 12.98 10.8422 13.06 10.8422C13.15 10.8422 13.2 10.9401 13.2 11.1092C13.2 11.2605 13.19 11.3761 13.18 11.3761C13.16 11.3761 12.93 11.2249 12.65 11.038Z" fill="#DEDEDE"/>
<path d="M86.2 11.0469C86.2 11.0024 86.36 10.8867 86.55 10.771C86.9 10.5752 86.9 10.5752 86.9 10.8422C86.9 11.0914 86.87 11.1092 86.55 11.1092C86.36 11.1092 86.2 11.0825 86.2 11.0469Z" fill="#DEDEDE"/>
<path d="M9.9 10.7087C9.9 10.4951 9.91 10.4862 10.22 10.6019C10.68 10.771 10.7 10.9312 10.26 10.9312C9.94 10.9312 9.9 10.9045 9.9 10.7087Z" fill="#DEDEDE"/>
<path d="M90.9 10.2638C90.9 9.9078 91.14 9.82771 91.24 10.157C91.34 10.4862 91.31 10.5752 91.1 10.5752C90.94 10.5752 90.9 10.5129 90.9 10.2638Z" fill="#DEDEDE"/>
<path d="M86.7 9.60523C86.7 9.34716 86.73 9.32936 87.06 9.32936C87.45 9.32936 87.44 9.40945 87 9.68532C86.7 9.8722 86.7 9.8722 86.7 9.60523Z" fill="#DEDEDE"/>
<path d="M90.3 9.24037C90.3 9.12468 90.37 9.06239 90.48 9.06239C90.59 9.06239 90.75 9.14248 90.85 9.24037C91.03 9.41835 91.02 9.41835 90.67 9.41835C90.37 9.41835 90.3 9.38275 90.3 9.24037Z" fill="#DEDEDE"/>
<path d="M91.7 9.15138C91.7 9.10688 91.56 8.9289 91.4 8.76872C91.1 8.45725 91.1 8.45725 91.32 8.40386C91.72 8.31487 91.75 8.34156 91.78 8.79542C91.8 9.04459 91.79 9.24037 91.76 9.24037C91.72 9.24037 91.7 9.20477 91.7 9.15138Z" fill="#DEDEDE"/>
<path d="M75.05 8.79541C75.08 8.75092 75.24 8.62633 75.4 8.52844C75.7 8.34156 75.7 8.34156 75.7 8.60853C75.7 8.86661 75.67 8.88441 75.34 8.88441C75.14 8.88441 75.01 8.84881 75.05 8.79541Z" fill="#DEDEDE"/>
<path d="M89.9 8.25257C89.9 8.11019 89.98 8.08349 90.4 8.08349C90.82 8.08349 90.9 8.11019 90.9 8.25257C90.9 8.39496 90.82 8.42165 90.4 8.42165C89.98 8.42165 89.9 8.39496 89.9 8.25257Z" fill="#DEDEDE"/>
<path d="M75.95 8.17248C75.98 8.12798 76.14 8.0034 76.3 7.90551C76.6 7.71863 76.6 7.71862 76.6 7.9856C76.6 8.24367 76.57 8.26147 76.24 8.26147C76.04 8.26147 75.91 8.22587 75.95 8.17248Z" fill="#DEDEDE"/>
<path d="M22.6 7.80762C22.6 7.54064 22.6 7.54064 22.9 7.72752C23.34 8.0034 23.35 8.08349 22.96 8.08349C22.63 8.08349 22.6 8.06569 22.6 7.80762Z" fill="#DEDEDE"/>
<path d="M77.75 6.92661C77.78 6.88211 77.94 6.75752 78.1 6.65963C78.4 6.47275 78.4 6.47275 78.4 6.73972C78.4 6.9978 78.37 7.0156 78.04 7.0156C77.84 7.0156 77.71 6.98 77.75 6.92661Z" fill="#DEDEDE"/>
<path d="M20.5 6.38376C20.5 6.11679 20.5 6.11679 20.8 6.30367C21.24 6.57954 21.25 6.65963 20.86 6.65963C20.53 6.65963 20.5 6.64183 20.5 6.38376Z" fill="#DEDEDE"/>
<path d="M91.2 5.72523C91.2 5.36927 91.44 5.28917 91.54 5.61844C91.64 5.94771 91.61 6.0367 91.4 6.0367C91.24 6.0367 91.2 5.9744 91.2 5.72523Z" fill="#DEDEDE"/>
<path d="M79.75 5.59174C79.78 5.54725 79.94 5.42266 80.1 5.32477C80.4 5.13789 80.4 5.13789 80.4 5.40486C80.4 5.66294 80.37 5.68074 80.04 5.68074C79.84 5.68074 79.71 5.64514 79.75 5.59174Z" fill="#DEDEDE"/>
<path d="M17.8 4.61285C17.8 4.34587 17.8 4.34587 18.15 4.54165C18.59 4.79973 18.59 4.87982 18.15 4.87982C17.83 4.87982 17.8 4.86202 17.8 4.61285Z" fill="#DEDEDE"/>
<path d="M81.8 4.28358C81.8 4.23908 82.03 4.0789 82.3 3.91872C82.8 3.63395 82.8 3.63395 82.8 3.90092C82.8 4.0789 82.75 4.16789 82.65 4.16789C82.57 4.16789 82.5 4.21239 82.5 4.25688C82.5 4.31028 82.34 4.34587 82.15 4.34587C81.96 4.34587 81.8 4.31918 81.8 4.28358Z" fill="#DEDEDE"/>
<path d="M16.8 3.98101C16.8 3.71404 16.8 3.71404 17.1 3.90092C17.54 4.17679 17.55 4.25688 17.16 4.25688C16.83 4.25688 16.8 4.23908 16.8 3.98101Z" fill="#DEDEDE"/>
<path d="M15.9 3.63395C15.9 3.58945 15.83 3.54496 15.75 3.54496C15.67 3.54496 15.6 3.50936 15.6 3.45596C15.6 3.41147 15.53 3.36697 15.45 3.36697C15.36 3.36697 15.3 3.28688 15.3 3.1445C15.3 3.01991 15.33 2.92202 15.37 2.92202C15.48 2.92202 16.6 3.58945 16.6 3.66064C16.6 3.69624 16.44 3.72294 16.25 3.72294C16.06 3.72294 15.9 3.68734 15.9 3.63395Z" fill="#DEDEDE"/>
<path d="M83 3.56275C83 3.49156 83.52 3.18899 83.64 3.18899C83.67 3.18899 83.7 3.28688 83.7 3.41147C83.7 3.60725 83.66 3.63395 83.35 3.63395C83.16 3.63395 83 3.59835 83 3.56275Z" fill="#DEDEDE"/>
<path d="M84.1 2.93982C84.1 2.86863 84.62 2.56606 84.74 2.56606C84.77 2.56606 84.8 2.66395 84.8 2.78853C84.8 2.98431 84.76 3.01101 84.45 3.01101C84.26 3.01101 84.1 2.97541 84.1 2.93982Z" fill="#DEDEDE"/>
<path d="M13.5 2.1656C13.5 1.89863 13.53 1.89863 13.91 2.09441C14.29 2.29909 14.28 2.38808 13.85 2.38808C13.54 2.38808 13.5 2.36138 13.5 2.1656Z" fill="#DEDEDE"/>
<path d="M10 0.875233C10 0.688352 10.1 0.661655 10.48 0.750646C10.84 0.839637 10.75 1.05321 10.35 1.05321C10.07 1.05321 10 1.01762 10 0.875233Z" fill="#DEDEDE"/>
</svg>
