<svg width="405" height="452" viewBox="0 0 405 452" fill="none" xmlns="http://www.w3.org/2000/svg">
<path d="M126.067 451.389C126.067 451.163 126.3 450.709 126.533 450.347C126.907 449.803 127 449.848 127 450.709C127 451.253 126.813 451.707 126.533 451.707C126.3 451.707 126.067 451.571 126.067 451.389Z" fill="#846966"/>
<path d="M131.9 442.277C131.76 441.597 131.947 440.146 132.367 439.058C132.74 437.97 132.973 436.928 132.833 436.747C132.693 436.52 132.973 436.248 133.393 436.157C134.187 435.976 134.187 435.93 133.44 435.885C132.787 435.84 132.6 435.432 132.6 434.253C132.6 432.848 132.74 432.667 133.767 432.667C134.607 432.667 134.84 432.848 134.653 433.347C134.467 433.755 134.653 434.027 135.073 434.027C135.54 434.027 135.82 434.616 135.96 435.976C136.193 437.971 135.587 439.467 134.607 439.467C134.28 439.467 134 439.693 134 439.92C134 440.192 134.327 440.373 134.747 440.373C135.12 440.373 135.307 440.6 135.167 440.827C134.98 441.099 134.653 441.189 134.42 441.053C134.187 440.872 134 441.416 134 442.141C134 444.045 132.32 444.136 131.9 442.277Z" fill="#846966"/>
<path d="M131.06 437.245C131.2 436.701 131.48 436.293 131.713 436.293C132.367 436.293 132.227 437.018 131.48 437.608C130.92 438.061 130.873 437.97 131.06 437.245Z" fill="#846966"/>
<path d="M402.333 431.85C402.333 430.989 403.593 430.128 404.153 430.626C404.48 430.989 403.593 432.349 402.893 432.576C402.567 432.666 402.333 432.349 402.333 431.85Z" fill="#846966"/>
<path d="M131.2 429.765C131.2 426.818 131.527 426.32 133.347 426.32C135.073 426.32 135.213 426.683 134.653 430.083C134.373 431.624 134.233 431.76 132.787 431.76C131.247 431.76 131.2 431.714 131.2 429.765Z" fill="#846966"/>
<path d="M135.867 429.266C135.867 427.997 136.053 427.68 136.8 427.68C137.78 427.68 137.92 428.133 137.453 429.856C136.987 431.488 135.867 431.08 135.867 429.266Z" fill="#846966"/>
<path d="M402.333 429.13C402.333 428.858 402.007 428.36 401.633 427.952C401.027 427.362 400.98 427 401.493 425.458C402.053 423.736 402.707 423.192 403.36 423.872C403.78 424.234 403.22 425.866 402.753 425.594C402.053 425.186 402.287 426.184 403.033 426.773C403.873 427.453 403.78 429.085 402.94 429.402C402.613 429.493 402.333 429.357 402.333 429.13Z" fill="#846966"/>
<path d="M139.88 428.043C139.647 427.589 139.6 426.909 139.787 426.547C139.927 426.184 139.833 425.867 139.647 425.867C139.413 425.867 139.133 426.139 138.993 426.456C138.527 427.771 138.153 426.184 138.433 424.099C138.76 421.832 138.807 421.787 140.347 421.787C141.513 421.787 141.933 421.968 141.933 422.557C141.933 422.965 141.793 423.147 141.607 422.965C141.373 422.784 141 424.008 140.72 425.731C140.393 427.816 140.113 428.541 139.88 428.043Z" fill="#846966"/>
<path d="M146.32 424.824C146.18 424.371 146.133 423.872 146.32 423.736C146.46 423.6 146.413 423.237 146.18 422.965C145.947 422.693 145.62 421.379 145.433 420.109C145.153 418.16 145.247 417.707 145.807 417.707C147.02 417.707 148.047 423.464 147.067 424.96C146.693 425.504 146.6 425.504 146.32 424.824Z" fill="#846966"/>
<path d="M140.813 419.248C140.253 415.077 140.3 414.986 142.633 414.986C144.733 414.986 144.733 414.986 144.733 416.528C144.733 418.341 144.033 419.066 143.567 417.706C143.427 417.208 143.053 416.8 142.82 416.8C142.54 416.8 142.493 417.208 142.633 417.706C143.053 418.976 142.447 421.333 141.747 421.333C141.373 421.333 141 420.472 140.813 419.248Z" fill="#846966"/>
<path d="M152.527 415.984C151.64 415.077 151.453 412.267 152.2 412.267C152.48 412.267 152.9 412.765 153.133 413.4C154.393 416.619 154.113 417.707 152.527 415.984Z" fill="#846966"/>
<path d="M145.2 413.853C145.2 412.584 145.387 412.267 146.087 412.267C147.3 412.267 147.533 410.544 146.553 408.413L145.713 406.6V407.96C145.62 410.861 145.247 411.36 143.287 411.36C142.213 411.36 141.373 411.133 141.28 410.816C139.927 406.056 139.273 404.56 138.62 404.56C137.267 404.56 135.54 399.029 136.753 398.576C136.987 398.485 136.987 397.216 136.707 395.539C136.473 393.952 136.38 391.731 136.567 390.688C136.847 388.784 136.94 388.693 138.48 388.693C139.833 388.693 140.067 388.557 140.067 387.605C140.067 385.747 139.647 385.203 138.387 385.429C137.64 385.565 137.267 385.928 137.267 386.517C137.267 387.016 136.847 388.013 136.287 388.739C135.4 389.963 135.12 390.053 132.32 390.053H129.333V388.467C129.333 387.016 129.427 386.88 130.733 386.88C131.993 386.88 132.133 386.744 132.133 385.475C132.133 384.115 132.18 384.069 134 384.251C135.493 384.387 135.867 384.251 135.867 383.661C135.867 383.253 135.54 382.755 135.12 382.619C134.467 382.392 134.373 381.848 134.607 379.627L134.84 376.907H133.44C132.273 376.907 132.087 377.043 132.367 377.723C132.553 378.131 132.833 379.672 132.973 381.123L133.207 383.752L131.387 383.616C129.66 383.48 129.567 383.389 129.427 381.893C129.333 381.032 129.007 380.125 128.68 379.853C128.307 379.581 127.98 377.723 127.747 375.003C127.513 371.195 127.56 370.56 128.167 370.56C128.54 370.56 128.867 370.832 128.867 371.195C128.867 371.512 129.193 372.101 129.66 372.419C130.36 373.008 130.407 372.917 130.08 371.829C129.847 370.787 129.94 370.56 130.64 370.56C131.34 370.56 131.48 370.288 131.293 369.2C131.153 368.248 130.827 367.84 130.22 367.84C129.567 367.84 129.333 367.523 129.333 366.48C129.333 365.256 129.193 365.12 127.933 365.12C126.3 365.12 125.833 363.941 126.207 360.723C126.44 358.501 125.88 357.413 124.48 357.413C123.92 357.413 123.733 356.96 123.733 355.872C123.733 355.011 123.967 354.149 124.2 354.013C125.04 353.515 124.667 352.88 123.547 352.88C122.333 352.88 121.867 351.928 121.867 349.389C121.867 347.44 123.08 347.395 123.5 349.253C123.687 350.024 124.013 350.613 124.293 350.613C124.527 350.613 124.993 350.024 125.273 349.253C125.6 348.483 126.16 347.893 126.627 347.893C127.187 347.893 127.513 347.349 127.747 345.763C128.26 342.272 126.767 340.051 124.9 341.547C124.06 342.227 123.967 345.672 124.76 346.443C125.18 346.851 125.133 346.987 124.527 346.987C123.92 346.987 123.733 346.579 123.733 345.355C123.733 343.813 122.893 342.453 121.96 342.453C121.027 342.453 120.56 335.381 121.493 335.109C122.38 334.792 121.54 333.387 120.467 333.387C119.767 333.387 119.533 333.069 119.533 332.253C119.533 330.667 118.227 328.853 117.107 328.853C115.987 328.853 114.96 326.632 114.12 322.28C113.14 317.384 113.187 317.067 115.007 317.067C117.06 317.067 117.247 316.84 116.453 315.027C115.613 313.032 115.567 310.267 116.407 310.267C117.293 310.267 119.113 315.616 118.74 317.203C118.367 318.925 116.92 321.645 116.547 321.283C116.407 321.101 116.267 321.736 116.267 322.643C116.267 323.549 116.453 324.32 116.687 324.32C116.92 324.32 117.2 324.864 117.293 325.544C117.387 326.179 117.713 326.813 118.04 326.949C118.88 327.221 118.74 324.819 117.9 324.501C117.013 324.139 116.967 322.96 117.853 322.96C118.227 322.96 118.647 323.504 118.787 324.229C118.973 324.909 119.673 326.723 120.373 328.264C121.4 330.576 121.82 331.12 122.753 331.12C123.92 331.12 123.92 331.528 122.987 336.696C122.707 338.283 122.753 338.373 123.92 338.373C124.9 338.373 125.133 338.147 125.133 337.24C125.133 336.016 125.693 335.789 126.44 336.696C127.327 337.739 129.333 343.451 129.333 344.992C129.333 345.853 129.053 346.941 128.773 347.44C128.353 348.075 128.307 348.437 128.727 348.845C129.1 349.208 129.333 349.117 129.567 348.392C130.22 346.307 131.667 348.075 131.667 350.931C131.667 351.928 131.9 352.925 132.133 353.152C132.693 353.696 134 358.411 134 359.861C134 360.768 133.813 360.859 132.787 360.677C131.76 360.496 131.62 360.587 131.807 361.312C131.947 361.811 132.18 363.216 132.367 364.44C132.507 365.709 132.787 367.205 132.927 367.795L133.207 368.883L133.86 367.659C134.793 365.981 135.587 366.389 135.913 368.747C136.333 371.784 138.667 372.917 138.667 370.061C138.667 369.336 138.9 368.747 139.133 368.747C140.207 368.747 139.133 373.507 136.987 378.131C135.773 380.76 136.333 381.259 138.387 379.4C139.04 378.811 139.6 377.949 139.6 377.541C139.6 376.952 139.74 376.907 140.3 377.36C140.673 377.677 141 378.176 141 378.493C141 378.765 141.84 380.261 142.867 381.712C144.827 384.568 146.04 388.104 144.64 386.971C144.22 386.653 143.8 385.656 143.66 384.704C143.38 383.072 140.907 379.581 140.347 380.08C139.927 380.533 141.373 384.568 142.447 385.883C143.287 386.925 143.333 387.107 142.68 387.243C142.073 387.379 141.933 388.059 142.027 391.549C142.073 395.267 142.213 395.811 143.193 396.717C143.8 397.307 144.267 398.259 144.267 399.029C144.267 400.208 144.967 401.387 145.713 401.387C146.413 401.387 146.46 395.72 145.76 393.907C144.733 391.187 144.313 389.101 144.593 388.421C145.013 387.379 146.133 388.603 146.133 390.053C146.133 390.733 146.553 391.731 147.067 392.32C147.533 392.864 148.233 393.907 148.56 394.632C148.887 395.357 149.307 395.947 149.54 395.947C150.287 395.947 150.427 394.541 149.727 393.091C148.793 391.096 148.327 388.285 148.84 387.651C149.073 387.333 149.447 386.653 149.587 386.109C149.867 385.339 149.727 385.067 149.167 385.067C148.747 385.067 148.467 385.384 148.56 385.792C148.747 386.699 148 387.016 147.067 386.427C146.46 386.064 146.46 385.792 147.253 384.432L148.14 382.845L149.447 383.843C150.147 384.387 150.94 385.339 151.22 385.973C151.92 387.605 152.013 391.957 151.407 393C151.127 393.544 150.893 394.224 150.893 394.587C151.033 396.4 150.753 396.853 149.633 396.853C148.7 396.853 148.467 397.08 148.467 398.077C148.467 398.712 148.747 399.619 149.12 399.981C149.82 400.797 150.567 404.56 149.96 404.56C149.773 404.56 149.68 406.283 149.727 408.413C149.773 411.813 149.727 412.267 148.887 412.493C148.373 412.675 148.093 412.992 148.28 413.219C148.42 413.445 148.28 413.581 147.953 413.536C147.627 413.445 147.113 413.853 146.833 414.443C146.133 415.984 145.2 415.667 145.2 413.853ZM143.24 406.963C142.82 406.509 142.353 405.693 142.167 405.104C141.98 404.515 141.747 404.152 141.607 404.243C141.14 404.696 142.587 407.733 143.287 407.733C143.847 407.733 143.847 407.597 143.24 406.963ZM145.667 405.24C145.667 404.877 145.293 404.56 144.827 404.56C144.407 404.56 143.753 403.971 143.427 403.2C142.773 401.795 141 401.296 141 402.52C141 402.883 141.373 403.2 141.887 403.2C142.4 403.2 142.96 403.744 143.333 404.56C143.94 405.965 145.667 406.464 145.667 405.24ZM142.867 399.165C142.867 398.667 142.633 398.123 142.353 397.941C141.98 397.76 141.933 397.987 142.167 398.667C142.4 399.437 142.353 399.619 141.933 399.347C141.513 399.12 141.42 399.165 141.653 399.483C142.167 400.299 142.867 400.117 142.867 399.165ZM139.6 394.133C139.6 392.909 139.413 391.867 139.18 391.867C138.807 391.867 138.62 395.448 138.993 396.083C139.413 396.808 139.6 396.309 139.6 394.133ZM134.84 386.835C135.307 386.245 135.26 385.973 134.7 385.52C134.093 385.021 134 385.157 134 386.427C134 387.288 134.047 387.832 134.14 387.741C134.187 387.651 134.513 387.243 134.84 386.835ZM136.007 374.64C136.147 374.141 136.053 373.597 135.82 373.461C135.587 373.325 135.4 373.733 135.4 374.368C135.4 375.773 135.68 375.909 136.007 374.64ZM133.533 372.827C133.533 372.328 133.207 371.92 132.833 371.92C132.227 371.92 132.18 372.101 132.6 372.827C132.88 373.325 133.207 373.733 133.3 373.733C133.44 373.733 133.533 373.325 133.533 372.827ZM128.913 361.493C128.633 360.315 128.447 360.088 128.213 360.677C128.027 361.085 128.12 361.856 128.4 362.4C129.147 363.76 129.333 363.397 128.913 361.493ZM127.793 354.013C127.887 353.651 127.747 352.925 127.467 352.381C126.953 351.475 126.86 351.429 126.44 352.155C126.207 352.608 126.067 353.061 126.207 353.197C126.347 353.288 126.067 353.787 125.553 354.285C125.087 354.739 124.667 355.328 124.667 355.555C124.667 356.144 127.467 354.739 127.793 354.013Z" fill="#846966"/>
<path d="M399.3 412.448C398.647 411.043 398.133 409.547 398.133 409.093C398.133 408.685 397.48 407.461 396.733 406.464L395.333 404.56H396.873C398.647 404.56 399.533 405.784 399.533 408.187C399.533 408.912 399.813 409.773 400.14 410.091C400.7 410.68 401.213 414.987 400.7 414.987C400.56 414.987 399.953 413.853 399.3 412.448Z" fill="#846966"/>
<path d="M394.4 402.112C394.4 401.794 393.467 400.525 392.3 399.301C391.133 398.122 390.2 397.08 390.2 396.989C390.2 396.898 390.947 396.853 391.833 396.853C393.327 396.853 393.467 396.944 393.467 398.213C393.467 399.346 393.653 399.573 394.633 399.573C395.66 399.573 395.8 399.754 395.8 401.16C395.8 402.248 395.567 402.746 395.1 402.746C394.727 402.746 394.4 402.474 394.4 402.112Z" fill="#846966"/>
<path d="M23.12 399.528C23.26 398.757 23.4 397.805 23.4 397.442C23.4 397.034 23.7733 396.853 24.4733 396.944C25.2667 397.034 25.5467 397.442 25.64 398.621C25.8267 400.253 25.22 400.933 23.68 400.933C22.98 400.933 22.8867 400.706 23.12 399.528ZM25.2667 397.986C25.2667 397.578 24.9867 397.442 24.5667 397.578C24.1933 397.76 23.8667 398.032 23.8667 398.258C23.8667 398.485 24.1933 398.666 24.5667 398.666C24.94 398.666 25.2667 398.349 25.2667 397.986Z" fill="#846966"/>
<path d="M152.667 398.44C152.387 397.579 152.2 396.491 152.293 396.083C152.433 395.448 152.667 395.584 153.273 396.717C154.16 398.349 154.3 399.392 153.647 399.8C153.413 399.936 152.947 399.301 152.667 398.44Z" fill="#846966"/>
<path d="M371.253 399.075C371.113 398.848 370.88 397.669 370.74 396.4L370.46 394.133H371.953C372.887 394.133 373.353 394.315 373.167 394.632C372.56 395.584 372.607 397.261 373.26 397.488C373.633 397.624 373.82 397.941 373.68 398.168C373.493 398.395 373.68 398.667 373.96 398.803C374.287 398.893 373.867 399.075 373.027 399.211C372.187 399.301 371.393 399.256 371.253 399.075Z" fill="#846966"/>
<path d="M363.413 396.354C362.527 395.493 362.527 395.493 364.393 395.493C366.447 395.493 367.94 394.45 366.633 393.952C366.213 393.816 365.98 393.861 366.12 394.088C366.493 394.632 363.6 394.994 362.433 394.541C361.547 394.224 361.547 394.178 362.48 394.178C363.227 394.133 363.553 393.77 363.693 392.773L363.88 391.458L360.847 391.322L357.767 391.186L357.627 389.509C357.487 387.832 357.487 387.786 359.12 387.786C360.053 387.786 360.8 387.605 360.8 387.333C360.8 387.106 361.313 386.789 361.967 386.608C362.947 386.381 362.993 386.245 362.433 385.701C362.107 385.338 360.94 385.066 359.913 385.066C358.047 385.066 358 385.066 358 383.434V381.757L361.593 382.074C363.553 382.256 365.56 382.664 366.027 382.981C366.867 383.57 366.867 383.616 365.607 384.069L364.3 384.477L365.933 384.976C366.82 385.202 367.94 385.565 368.407 385.746C368.967 385.973 369.2 385.837 369.2 385.293C369.2 384.84 368.827 384.205 368.407 383.888C367.66 383.344 367.707 383.298 369.107 383.253C370.46 383.253 370.6 383.117 370.6 381.938C370.6 379.672 370.32 379.4 368.033 379.536L365.933 379.717V378.085C365.933 376.68 366.073 376.453 367.007 376.453C367.567 376.453 369.293 376.136 370.833 375.773C374.193 374.912 375.36 375.546 372.373 376.634C370.507 377.314 370.507 377.36 372 377.088C372.887 376.952 374.1 376.725 374.707 376.589C375.453 376.408 375.733 376.544 375.733 377.088C375.733 377.994 374.1 379.626 373.167 379.626C371.72 379.626 371.86 381.032 373.353 382.392L374.847 383.706L373.773 384.114C371.16 385.021 371.253 384.976 372.093 385.021C372.747 385.066 372.793 385.248 372.327 386.426C372.047 387.197 371.533 387.786 371.207 387.786C370.88 387.786 370.6 388.013 370.6 388.24C370.6 388.512 370.88 388.693 371.253 388.693C371.627 388.693 371.813 389.101 371.72 389.872C371.627 390.778 371.907 391.141 373.213 391.73C375.127 392.637 375.267 393.272 373.447 393.045C371.533 392.818 370.973 392.365 371.207 391.141C371.3 390.552 371.207 390.189 370.973 390.325C370.133 390.869 368.733 389.962 368.733 388.874C368.733 387.242 367.613 387.56 367.053 389.373C366.587 390.824 366.633 390.96 367.753 391.368C368.967 391.776 368.967 391.776 367.473 391.821C365.373 391.866 365.56 392.501 367.8 393.226C370.273 393.997 370.413 395.493 368.08 396.581C366.027 397.533 364.533 397.442 363.413 396.354ZM364.3 389.6C364.44 389.373 364.16 389.146 363.6 389.146C363.04 389.146 362.76 389.373 362.9 389.6C363.04 389.872 363.367 390.053 363.6 390.053C363.833 390.053 364.16 389.872 364.3 389.6ZM362.153 388.874C362.247 388.784 361.827 388.693 361.127 388.693C360.473 388.693 359.773 388.92 359.633 389.146C359.353 389.6 361.593 389.328 362.153 388.874Z" fill="#846966"/>
<path d="M388.193 396.128C388.053 395.947 388.1 395.493 388.333 395.04C388.613 394.496 388.52 393.771 387.913 392.592L387.027 390.96H388.333C389.827 390.96 390.2 391.595 390.2 394.405C390.2 396.037 390.06 396.4 389.36 396.4C388.893 396.4 388.333 396.264 388.193 396.128Z" fill="#846966"/>
<path d="M306.2 392.139C306.2 391.459 307.6 390.96 309.607 390.96C310.54 390.96 310.867 391.187 310.867 391.867C310.867 392.637 310.54 392.773 308.533 392.773C306.853 392.773 306.2 392.592 306.2 392.139Z" fill="#846966"/>
<path d="M302.933 386.925C302.933 386.427 303.213 385.928 303.54 385.792C303.82 385.656 303.54 385.611 302.84 385.701C301.953 385.792 301.533 385.656 301.533 385.248C301.533 384.84 302.093 384.613 303.167 384.613C304.707 384.613 304.8 384.704 304.8 386.2C304.8 387.469 304.613 387.787 303.867 387.787C303.26 387.787 302.933 387.469 302.933 386.925Z" fill="#846966"/>
<path d="M353.8 386.427C353.8 386.2 353.427 385.973 353.007 385.973C352.307 385.973 352.4 385.792 353.333 385.067L354.5 384.16H353.193C352.447 384.16 351.98 383.979 352.167 383.707C352.307 383.48 353.193 383.253 354.08 383.253C355.573 383.253 355.667 383.344 355.667 384.795C355.667 385.792 355.387 386.427 354.92 386.608C353.94 386.971 353.8 386.971 353.8 386.427Z" fill="#846966"/>
<path d="M26.8066 384.522C27.5533 382.754 29.6999 382.165 30.0733 383.57C30.2599 384.341 30.3066 384.341 30.3533 383.616C30.4466 382.074 31.3333 382.8 31.3333 384.386V385.973H28.7666H26.2L26.8066 384.522Z" fill="#846966"/>
<path d="M153.88 384.341C153.46 383.435 153.227 382.573 153.32 382.437C153.46 382.301 153.927 382.981 154.3 383.933C154.72 384.84 154.953 385.701 154.86 385.792C154.767 385.883 154.347 385.203 153.88 384.341Z" fill="#846966"/>
<path d="M307.6 381.667C307.6 380.171 307.693 380.08 309.233 380.08C310.773 380.08 310.867 380.171 310.867 381.667C310.867 383.163 310.773 383.253 309.233 383.253C307.693 383.253 307.6 383.163 307.6 381.667Z" fill="#846966"/>
<path d="M348.713 382.437C348.387 381.848 348.433 381.394 348.807 380.986C349.273 380.533 349.18 380.442 348.527 380.714C348.06 380.85 347.22 380.669 346.66 380.306C346.1 379.944 345.82 379.626 346.007 379.626C346.193 379.626 346.1 379.354 345.773 378.992C345.447 378.674 344.887 378.493 344.607 378.584C344.233 378.72 344 378.448 344 377.904C344 376.861 344.84 376.453 347.08 376.453C348.527 376.453 348.667 376.589 348.667 377.813C348.667 378.946 348.853 379.173 349.833 379.173C350.813 379.173 351 379.4 351 380.578C351 381.802 350.16 383.253 349.413 383.253C349.273 383.253 348.947 382.89 348.713 382.437Z" fill="#846966"/>
<path d="M28.2066 380.76C28.4866 379.899 28.9533 379.173 29.3266 379.173C29.6999 379.173 29.9333 379.763 29.9333 380.76C29.9333 382.12 29.7933 382.347 28.8133 382.347C27.7399 382.347 27.6932 382.256 28.2066 380.76Z" fill="#846966"/>
<path d="M144.967 381.848C144.78 381.576 144.733 381.258 144.873 381.122C145.2 380.805 146.133 381.394 146.133 381.938C146.133 382.482 145.34 382.482 144.967 381.848Z" fill="#846966"/>
<path d="M300.133 380.352C300.133 378.992 300.32 378.81 301.58 378.538C303.68 378.13 305.267 378.221 305.267 378.674C305.267 378.901 304.987 379.218 304.707 379.309C304.24 379.49 304.24 379.581 304.707 379.581C304.987 379.626 305.267 379.989 305.267 380.488C305.267 381.349 303.68 381.893 301.253 381.893C300.273 381.893 300.133 381.666 300.133 380.352Z" fill="#846966"/>
<path d="M282.867 379.763C282.913 378.901 283.8 378.176 285.48 377.541L287.3 376.861L285.527 377.133C283.567 377.451 282.4 377.043 283.38 376.408C283.753 376.181 284.92 376 286.04 376C287.953 376 288 376.045 288 377.496C288 378.811 287.813 378.992 286.133 379.536C284.033 380.171 282.867 380.216 282.867 379.763Z" fill="#846966"/>
<path d="M29 378.312C29 378.04 29.5133 377.269 30.1667 376.589L31.2867 375.32L31.3333 377.042C31.3333 378.538 31.1933 378.72 30.1667 378.72C29.5133 378.72 29 378.538 29 378.312Z" fill="#846966"/>
<path d="M146.88 374.912C146.74 374.277 146.367 373.733 146.133 373.733C145.853 373.733 145.667 373.552 145.667 373.28C145.667 373.053 145.993 372.827 146.367 372.827C147.3 372.827 148.14 374.504 147.627 375.365C147.253 376 147.16 375.909 146.88 374.912Z" fill="#846966"/>
<path d="M339.427 375.093C338.96 374.323 339.053 374.141 340.173 373.552L341.433 372.917L340.173 372.6C339.52 372.419 338.493 371.829 337.933 371.24L336.953 370.197L337.98 369.472L339.053 368.747H337.793C337.093 368.747 336.533 368.565 336.533 368.339C336.533 367.795 337.747 367.387 339.38 367.387C340.593 367.387 340.733 367.523 340.733 368.928C340.733 370.107 340.5 370.56 339.8 370.787C338.307 371.24 338.727 371.92 340.5 371.92C342.04 371.92 342.133 372.011 342.133 373.325C342.133 374.187 341.807 375.003 341.34 375.365C340.22 376.181 340.127 376.136 339.427 375.093Z" fill="#846966"/>
<path d="M231.533 371.965C231.533 371.421 232.14 371.059 233.867 370.56C235.127 370.197 235.267 370.288 235.267 371.285C235.267 372.237 235.08 372.373 233.4 372.373C232.373 372.373 231.533 372.192 231.533 371.965Z" fill="#846966"/>
<path d="M301.067 370.333C301.067 368.837 301.16 368.747 302.7 368.747C304.24 368.747 304.333 368.837 304.333 370.333C304.333 371.829 304.24 371.92 302.7 371.92C301.16 371.92 301.067 371.829 301.067 370.333Z" fill="#846966"/>
<path d="M273.627 369.789C273.72 368.792 274.14 368.384 275.4 367.976L277.033 367.432L274.7 367.387C272.833 367.387 272.553 367.251 273.207 366.888C273.673 366.616 275.213 366.299 276.567 366.163L279.133 365.891V367.432C279.133 368.837 278.947 369.064 276.847 370.016C273.86 371.331 273.44 371.285 273.627 369.789Z" fill="#846966"/>
<path d="M145.06 369.381C144.873 369.2 144.733 368.747 144.733 368.339C144.733 367.84 144.873 367.795 145.247 368.157C145.527 368.429 145.713 368.883 145.573 369.2C145.48 369.472 145.247 369.563 145.06 369.381Z" fill="#846966"/>
<path d="M333.733 367.84C333.453 367.341 332.8 366.933 332.333 366.933C331.68 366.933 331.4 366.616 331.4 365.981C331.4 365.21 331.633 365.074 333.173 365.21C334.807 365.346 334.9 365.437 335.04 367.069C335.18 368.882 334.527 369.29 333.733 367.84Z" fill="#846966"/>
<path d="M136.847 366.163C136.427 365.301 136.427 364.848 136.8 364.485C137.407 363.896 138.2 364.848 138.2 366.117C138.2 367.387 137.453 367.432 136.847 366.163Z" fill="#846966"/>
<path d="M326.22 367.16C326.173 367.024 326.127 366.797 326.08 366.616C326.033 366.389 325.847 366.026 325.66 365.709C325.473 365.437 325.613 365.074 325.893 364.938C326.22 364.802 325.94 364.802 325.24 364.938C324.26 365.165 323.933 365.029 323.933 364.53C323.933 363.714 326.267 362.853 328.413 362.853C329.907 362.853 330 362.944 330 364.394C330 365.664 329.813 365.981 328.833 366.208C328.18 366.389 327.667 366.706 327.667 366.933C327.667 367.386 326.313 367.568 326.22 367.16Z" fill="#846966"/>
<path d="M239 365.346C239 364.213 239.187 363.76 239.747 363.76C240.26 363.76 240.4 364.032 240.167 364.712C239.933 365.392 239.98 365.573 240.353 365.392C240.633 365.21 240.867 365.346 240.867 365.754C240.867 366.117 241.24 366.525 241.707 366.616C242.127 366.752 241.707 366.842 240.773 366.888C239.047 366.933 239 366.888 239 365.346Z" fill="#846966"/>
<path d="M219.96 358.003C219.913 351.565 219.68 348.755 219.073 346.579C218.467 344.357 218.42 343.541 218.84 342.861C219.12 342.408 219.307 341.456 219.167 340.776C219.073 340.096 218.84 338.736 218.7 337.829C218.467 336.515 218.187 336.107 217.533 336.107C216.647 336.107 216.6 335.744 216.553 330.803C216.46 324.32 216.46 324.093 215.947 321.917C215.667 320.739 215.76 319.56 216.133 318.381C216.787 316.432 216.273 313.893 214.733 311.627C213.66 310.085 212.4 306.323 212.4 304.691C212.4 303.965 211.607 301.608 210.58 299.432C209.6 297.301 208.433 294.445 207.967 293.085C207.547 291.771 206.847 290.139 206.52 289.459C206.147 288.824 205.867 288.008 205.867 287.691C205.867 287.147 205.073 284.608 201.62 274.544C200.873 272.368 200.733 271.416 201.107 270.419C201.48 269.421 201.433 268.787 200.873 267.835C199.473 265.205 198.353 261.941 197.933 259.312C197.653 257.499 197 255.912 195.833 254.235L194.2 251.787H195.6C196.533 251.787 197 252.013 197 252.467C197 252.829 197.233 253.147 197.467 253.147C197.747 253.147 197.933 253.781 197.933 254.507C197.933 255.368 198.167 255.867 198.587 255.867C199.38 255.867 199.753 256.728 200.267 259.811C200.5 261.08 201.34 263.573 202.133 265.341C203.113 267.608 203.533 269.149 203.487 270.691C203.44 272.096 204.047 274.816 205.167 278.307C206.147 281.299 207.22 284.653 207.547 285.787C208.62 289.413 210.533 294.083 212.913 298.888C214.173 301.472 215.2 304.147 215.2 304.827C215.2 305.507 215.62 306.413 216.133 306.867C216.693 307.365 217.067 308.272 217.067 309.133C217.067 309.904 217.393 311.581 217.767 312.805C218.187 314.211 218.42 316.749 218.42 319.651C218.373 323.187 218.513 324.501 219.12 325.272C219.913 326.451 220.147 330.44 219.447 331.528C219.167 331.981 219.307 332.797 220.007 334.021C221.08 336.107 221.267 338.6 221.593 356.416C221.78 366.117 221.78 366.48 220.893 366.48C220.053 366.48 220.007 366.027 219.96 358.003Z" fill="#846966"/>
<path d="M30.8666 365.664C30.8666 365.437 31.1932 364.893 31.5666 364.394C31.9399 363.941 32.2666 363.125 32.2666 362.672C32.2666 362.173 32.7799 361.13 33.4332 360.314C34.0866 359.498 34.4599 358.546 34.3199 358.184C34.0399 357.413 35.5799 354.24 36.6532 353.378C37.3066 352.834 37.3999 352.97 37.3999 354.194C37.3999 355.01 37.1199 356.189 36.7466 356.869C36.3732 357.549 35.9532 358.864 35.7666 359.816C35.5799 360.722 34.9266 361.992 34.3199 362.626C33.7132 363.261 33.1999 364.258 33.1999 364.802C33.1999 365.573 32.9199 365.845 32.0332 365.936C31.3799 365.981 30.8666 365.845 30.8666 365.664Z" fill="#846966"/>
<path d="M297.8 363.533C297.8 361.946 297.8 361.946 299.993 361.946C302.093 361.946 302.14 361.946 301.3 362.853C300.553 363.669 300.553 363.76 301.207 363.76C301.673 363.76 302 364.077 302 364.44C302 364.938 301.44 365.12 299.9 365.12C297.8 365.12 297.8 365.12 297.8 363.533Z" fill="#846966"/>
<path d="M143.613 363.851C143.427 363.261 143.38 362.672 143.52 362.536C143.987 362.037 144.36 362.717 144.173 363.851L143.987 364.893L143.613 363.851Z" fill="#846966"/>
<path d="M303.4 364.032C303.4 363.669 304.287 363.216 305.453 362.898C308.02 362.264 308.673 362.264 308.3 362.853C308.16 363.125 308.253 363.306 308.487 363.306C308.767 363.306 309 363.624 309 363.986C309 364.53 308.393 364.666 306.2 364.666C304.147 364.666 303.4 364.485 303.4 364.032Z" fill="#846966"/>
<path d="M321.04 364.123C321.74 363.443 321.787 362.672 321.133 363.08C320.9 363.216 320.667 363.035 320.667 362.627C320.667 362.128 320.433 361.947 319.967 362.128C319.453 362.309 319.267 362.083 319.267 361.267C319.267 360.315 319.5 360.133 320.713 360.133C322.487 360.133 323.467 361.04 323.467 362.763C323.467 364.123 322.813 364.667 321.227 364.667C320.667 364.667 320.62 364.531 321.04 364.123Z" fill="#846966"/>
<path d="M230.133 362.627C230.133 361.765 230.32 361.04 230.553 361.04C230.787 361.04 231.347 360.904 231.813 360.723C232.467 360.496 232.56 360.632 232.373 361.403C232.047 362.581 232.047 362.581 234.24 361.675C236.62 360.723 240.12 360.677 241.053 361.629C242.033 362.581 241.66 362.717 238.207 362.763C236.153 362.763 235.08 362.989 234.567 363.488C234.1 363.896 233.027 364.213 231.953 364.213C230.18 364.213 230.133 364.168 230.133 362.627Z" fill="#846966"/>
<path d="M262.193 361.629C262.473 360.949 262.38 360.904 261.773 361.357C260.933 362.083 260.467 361.675 260.467 360.269C260.467 359.363 260.7 359.227 262.1 359.227C263.64 359.227 263.733 359.317 263.733 360.813C263.733 362.083 263.547 362.4 262.8 362.4C262.147 362.4 261.96 362.173 262.193 361.629Z" fill="#846966"/>
<path d="M305.78 360.904C304.94 360.088 305.22 359.589 306.247 359.907C306.947 360.133 307.133 360.088 306.947 359.725C306.76 359.453 306.293 359.227 305.92 359.227C305.547 359.227 305.267 358.909 305.267 358.547C305.267 358.048 305.78 357.867 307.18 357.867H309.047L308.907 359.589C308.767 361.085 308.627 361.267 307.507 361.312C306.807 361.357 306.013 361.131 305.78 360.904Z" fill="#846966"/>
<path d="M228.733 359.181C228.733 358.637 228.36 358.139 227.8 358.003C227.1 357.821 226.867 357.368 226.867 356.235V354.693L229.107 354.784L231.3 354.829L229.2 355.147C227.147 355.419 227.193 355.6 229.48 356.28C229.9 356.416 230.32 356.915 230.46 357.413C230.693 358.229 230.787 358.229 231.673 357.64C232.98 356.733 233.4 356.779 233.4 357.776C233.4 358.955 231.72 360.133 230.133 360.133C229.013 360.133 228.733 359.952 228.733 359.181Z" fill="#846966"/>
<path d="M136.147 358.048C135.68 356.915 135.82 353.787 136.333 353.787C136.94 353.787 137.92 357.187 137.593 358.048C137.22 358.955 136.52 358.955 136.147 358.048Z" fill="#846966"/>
<path d="M37.3999 352.155C37.3999 351.611 38.9866 349.253 39.3599 349.253C39.5466 349.253 39.7332 349.979 39.7332 350.84C39.7332 352.245 39.5932 352.427 38.5666 352.427C37.9132 352.427 37.3999 352.291 37.3999 352.155Z" fill="#846966"/>
<path d="M40.4333 346.216L41.1333 344.493L40.2467 345.627C39.7333 346.261 39.1733 346.579 38.94 346.397C38.2866 345.763 40.8533 341.819 44.0267 338.6L47.1533 335.427L47.2 336.968C47.2 338.192 46.7333 338.963 44.8667 340.912C43 342.861 42.5333 343.632 42.5333 344.901C42.5333 347.168 42.1133 347.893 40.8533 347.893C39.7333 347.893 39.7333 347.893 40.4333 346.216Z" fill="#846966"/>
<path d="M125.133 344.539C125.133 343.904 125.32 343.315 125.553 343.179C126.02 342.907 126.627 344.675 126.253 345.264C125.787 345.989 125.133 345.581 125.133 344.539Z" fill="#846966"/>
<path d="M129.193 337.195C128.493 335.835 128.493 335.744 129.333 334.973C130.173 334.203 130.267 334.203 130.547 334.928C130.733 335.381 130.64 336.333 130.407 337.149L129.987 338.6L129.193 337.195Z" fill="#846966"/>
<path d="M127.373 331.89C127.467 331.482 127.373 330.576 127.093 329.85C126.393 328.082 126.02 325.68 126.44 325.68C126.86 325.68 130.267 331.664 130.267 332.389C130.267 332.661 129.567 332.842 128.727 332.797C127.467 332.706 127.187 332.525 127.373 331.89Z" fill="#846966"/>
<path d="M125.04 331.301C124.48 330.394 124.2 327.221 124.667 326.586C125.04 326.042 125.133 326.088 125.133 326.949C125.133 327.538 125.32 328.4 125.6 328.853C126.067 329.714 125.507 332.117 125.04 331.301Z" fill="#846966"/>
<path d="M48.6 329.08C48.6 328.4 52.4733 321.146 52.8 321.146C53.08 321.146 53.2666 321.872 53.2666 322.733C53.2666 323.594 53.08 324.32 52.8 324.32C52.5666 324.32 52.3333 324.728 52.3333 325.226C52.3333 325.725 52.1466 326.133 51.8666 326.133C51.6333 326.133 51.4 326.541 51.4 326.994C51.4 328.581 50.84 329.306 49.72 329.306C49.1133 329.306 48.6 329.216 48.6 329.08Z" fill="#846966"/>
<path d="M120.467 324.546C120.467 323.912 120.653 323.413 120.887 323.413C121.447 323.413 121.773 324.365 121.493 325.136C121.12 326.088 120.467 325.725 120.467 324.546Z" fill="#846966"/>
<path d="M53.2666 320.376C53.2666 319.56 57.7933 312.397 58.5866 311.989C59.3333 311.581 59.4266 311.672 59.1933 312.261C58.6333 313.621 59.5666 312.987 61.6666 310.493C62.7866 309.179 63.8133 308.136 63.9066 308.227C64.1866 308.499 63.0666 310.267 62.5999 310.267C62.3199 310.267 62.1333 310.675 62.1333 311.173C62.1333 311.627 61.7599 312.76 61.3399 313.667C60.7799 314.8 60.2666 315.253 59.4733 315.253C58.7733 315.253 58.2133 315.661 57.8399 316.387C57.5599 317.021 56.9533 317.52 56.4399 317.52C55.7866 317.52 55.5999 317.883 55.5999 319.107C55.5999 320.512 55.4599 320.693 54.4333 320.693C53.7799 320.693 53.2666 320.557 53.2666 320.376Z" fill="#846966"/>
<path d="M75.1066 316.024C75.3866 315.706 76.6 314.754 77.7666 313.938L79.8666 312.488V313.848C79.8666 315.525 78.42 316.613 76.2266 316.613C74.9666 316.613 74.7333 316.477 75.1066 316.024Z" fill="#846966"/>
<path d="M85.84 313.893C86.7733 312.397 87.7066 311.173 87.94 311.173C88.1266 311.173 88.2666 311.899 88.2666 312.76C88.2666 313.848 88.0333 314.347 87.5666 314.347C87.1466 314.347 86.8666 314.755 86.8666 315.48C86.8666 316.432 86.6333 316.613 85.4666 316.613H84.1133L85.84 313.893Z" fill="#846966"/>
<path d="M71.9333 314.573C71.9333 313.712 72.1667 312.986 72.4467 312.986C72.7267 312.986 72.82 313.394 72.6333 313.893C72.4 314.573 72.4934 314.709 73.0534 314.528C73.5667 314.346 73.8 314.528 73.8 315.208C73.8 315.842 73.52 316.16 72.8667 316.16C72.12 316.16 71.9333 315.842 71.9333 314.573Z" fill="#846966"/>
<path d="M65.8666 314.664C65.8666 314.12 68.2932 312.986 69.5066 312.986C70.3466 312.986 70.1599 314.664 69.3199 314.981C68.0133 315.48 65.8666 315.298 65.8666 314.664Z" fill="#846966"/>
<path d="M81.7333 313.667C81.7333 312.805 81.9666 312.08 82.1999 312.08C82.4799 312.08 82.6666 312.488 82.6666 312.987C82.6666 313.803 82.8066 313.848 83.5999 313.44C84.6733 312.896 84.7666 313.123 84.0666 314.392C83.7866 314.845 83.1333 315.253 82.6666 315.253C81.9199 315.253 81.7333 314.936 81.7333 313.667Z" fill="#846966"/>
<path d="M65.8666 312.805C65.8666 312.443 66.1932 312.08 66.5666 311.899C67.1732 311.717 67.2199 311.808 66.7999 312.533C66.1932 313.576 65.8666 313.712 65.8666 312.805Z" fill="#846966"/>
<path d="M120.467 312.533C120.467 311.989 119.953 310.584 119.3 309.36C118.18 307.229 118.04 307.093 116.267 307.093C114.447 307.093 114.4 307.048 114.12 305.28C113.793 303.421 113 302.741 113 304.373C113 305.099 112.673 305.28 111.367 305.28C109.92 305.28 109.733 305.144 109.733 304.147C109.733 303.285 109.5 303.013 108.753 303.013C108.053 303.013 107.867 302.832 108.053 302.288C108.193 301.88 108.333 301.245 108.333 300.883C108.333 299.84 109.64 301.019 109.827 302.197C109.92 302.741 110.48 303.331 111.087 303.557C112.02 303.875 112.16 303.829 111.927 303.013C111.787 302.424 111.927 302.107 112.347 302.107C112.767 302.107 113 301.608 113 300.747C113 299.84 113.233 299.387 113.7 299.387C114.073 299.387 114.4 299.659 114.4 300.021C114.4 300.339 114.727 300.883 115.1 301.2C115.473 301.517 115.8 302.469 115.8 303.285C115.8 305.053 116.453 305.325 116.92 303.829C117.2 302.787 117.247 302.787 118.413 304.147C120.047 306.005 122.333 310.675 122.333 312.216C122.333 313.123 122.1 313.44 121.4 313.44C120.793 313.44 120.467 313.123 120.467 312.533Z" fill="#846966"/>
<path d="M93.5399 312.216C92.9333 312.125 92.4666 311.808 92.4666 311.536C92.4666 310.811 90.9733 309.859 89.8066 309.813C89.1999 309.813 88.7333 309.632 88.7333 309.405C88.7333 308.771 90.5533 306.776 90.5999 307.411C90.5999 307.683 91.0666 308.091 91.5799 308.227C93.2133 308.725 96.1066 310.856 96.3399 311.763C96.5733 312.579 95.9199 312.669 93.5399 312.216Z" fill="#846966"/>
<path d="M99.8866 308.68C100.867 306.64 101.8 306.64 101.8 308.68C101.8 310.131 101.66 310.267 100.447 310.267H99.1399L99.8866 308.68Z" fill="#846966"/>
<path d="M101.473 304.736C102.36 302.65 103.2 302.56 103.2 304.554C103.2 306.005 103.06 306.186 102.033 306.186C100.913 306.186 100.867 306.141 101.473 304.736Z" fill="#846966"/>
<path d="M104.273 302.56C103.433 302.197 103.2 301.789 103.2 300.384C103.2 299.386 103.48 298.344 103.853 298.072C104.413 297.618 104.553 297.754 104.693 299.024C104.787 300.248 105.02 300.52 105.813 300.429C106.747 300.338 107.353 301.245 107.4 302.696C107.4 303.149 105.533 303.058 104.273 302.56Z" fill="#846966"/>
<path d="M112.347 297.256C112.113 296.485 112.253 295.85 112.72 295.397C113.373 294.762 113.467 294.808 113.933 295.941C114.633 297.754 114.493 298.48 113.513 298.48C112.953 298.48 112.533 298.026 112.347 297.256Z" fill="#846966"/>
<path d="M106.933 278.261C106.933 278.125 107.213 277.717 107.587 277.355C108.193 276.811 108.287 276.811 108.193 277.627C108.147 278.397 106.933 279.032 106.933 278.261Z" fill="#846966"/>
<path d="M106.467 276.267C106.467 275.768 106.793 275.36 107.167 275.36C107.96 275.36 108.007 275.451 107.587 276.448C107.167 277.491 106.467 277.355 106.467 276.267Z" fill="#846966"/>
<path d="M111.927 271.914C111.74 271.733 111.6 270.781 111.6 269.829C111.6 268.152 111.553 268.106 109.967 268.106C108.427 268.106 108.333 268.016 108.333 266.52C108.333 265.432 108.1 264.933 107.633 264.933C107.167 264.933 106.933 264.48 106.933 263.392C106.933 261.85 107.54 261.306 109.127 261.306C109.733 261.306 109.733 261.442 109.267 261.986C108.147 263.301 109.127 263.12 110.9 261.76C111.88 260.989 113 260.49 113.373 260.626C113.7 260.762 114.12 260.853 114.213 260.853C114.307 260.853 114.4 261.17 114.4 261.533C114.4 261.896 114.027 262.213 113.607 262.213C112.72 262.213 109.453 265.704 109.873 266.112C110.293 266.52 111.88 265.477 113.14 264.026C114.54 262.44 115.007 263.074 114.073 265.25C113.093 267.608 113.373 271.642 114.493 271.008C114.773 270.826 114.913 270.962 114.773 271.325C114.54 272.005 112.487 272.413 111.927 271.914Z" fill="#846966"/>
<path d="M89.2 261.307C89.2 261.08 89.6666 260.672 90.2733 260.355C90.8333 260.083 92.0466 258.995 92.9799 257.997C94.7533 256.048 96.06 255.912 96.5266 257.68C96.8533 258.813 97.2266 258.813 98.3 257.68C99.7933 256.048 100.307 256.501 99.7466 259.04C99.4199 260.717 99.0466 261.307 98.4866 261.307C98.02 261.307 97.5999 261.125 97.5066 260.899C97.4599 260.717 96.2466 260.4 94.9399 260.219C92.6533 259.947 92.4666 259.992 92.4666 260.853C92.4666 261.579 92.1866 261.76 90.8333 261.76C89.9466 261.76 89.2 261.579 89.2 261.307Z" fill="#846966"/>
<path d="M102.127 259.947C103.2 258.949 104.133 257.997 104.227 257.771C104.273 257.589 105.207 256.819 106.187 256.093L108.007 254.733L107.727 255.957C107.54 256.592 107.26 257.453 107.12 257.861C106.793 258.632 107.633 258.859 108.1 258.133C108.287 257.861 108.8 257.952 109.5 258.405C110.48 258.995 110.527 259.267 110.06 259.992C109.64 260.627 108.987 260.853 107.213 260.853H104.927L105.813 259.856C106.7 258.859 106.7 258.813 105.767 259.493C105.253 259.856 104.553 260.536 104.227 260.989C103.853 261.488 103.013 261.76 101.893 261.76H100.167L102.127 259.947Z" fill="#846966"/>
<path d="M89.2 259.946C89.2 259.72 88.4533 259.493 87.5667 259.493C86.4 259.493 85.84 259.266 85.6533 258.722C85.5133 258.269 85.1867 257.544 84.9533 257.136C84.72 256.682 84.5333 256.048 84.5333 255.73C84.5333 255.413 83.8333 254.914 82.9933 254.597C81.78 254.189 81.4533 253.826 81.5 253.01C81.5933 251.786 82.76 251.469 83.6 252.466C83.9267 252.829 84.6733 253.146 85.28 253.146C86.1666 253.146 86.4 253.373 86.4 254.28C86.4 254.914 86.6333 255.413 86.8667 255.413C87.1467 255.413 87.3333 255.912 87.3333 256.501C87.3333 257.77 88.08 258.178 89.5267 257.634C90.9267 257.136 91.3 257.861 90.32 259.266C89.5267 260.49 89.2 260.672 89.2 259.946Z" fill="#846966"/>
<path d="M60.9666 254.642C60.7799 254.053 61.1066 253.464 62.1333 252.602C63.7666 251.152 64.5599 250.97 64.1866 252.149C63.9066 252.92 65.3999 251.469 66.8466 249.429C67.5466 248.477 67.6399 248.477 68.3866 249.157C69.3199 250.064 69.3666 251.333 68.4799 251.333C68.1066 251.333 67.6866 251.741 67.4999 252.194C66.7533 254.552 61.7133 256.456 60.9666 254.642Z" fill="#846966"/>
<path d="M74.7333 255.05C74.7333 254.824 75.2933 254.37 75.9466 254.053C76.9733 253.509 77.2066 253.509 77.5333 254.053C78.2799 255.186 78.0466 255.413 76.3666 255.413C75.4799 255.413 74.7333 255.232 74.7333 255.05Z" fill="#846966"/>
<path d="M70.5333 252.693C70.5333 252.149 72.0733 251.333 73.0533 251.333C73.4733 251.333 73.8 251.741 73.8 252.24C73.8 252.965 73.4733 253.146 72.1667 253.146C71.28 253.146 70.5333 252.965 70.5333 252.693Z" fill="#846966"/>
<path d="M185.333 219.872V218.331L186.967 219.736C187.853 220.507 188.6 221.187 188.6 221.277C188.6 221.368 187.853 221.413 186.967 221.413C185.427 221.413 185.333 221.323 185.333 219.872Z" fill="#846966"/>
<path d="M212.167 214.296C211.14 212.891 210.533 211.621 210.533 210.669C210.533 209.853 210.673 209.173 210.907 209.173C211.093 209.173 211.933 210.125 212.82 211.213C213.66 212.347 214.733 213.253 215.153 213.253C216.18 213.253 217.067 212.392 217.067 211.349C217.067 210.896 217.72 209.899 218.467 209.173L219.913 207.813H218.7C217.207 207.813 217.16 206.997 218.7 206.635C219.68 206.408 219.867 206.091 219.867 204.821C219.867 203.371 219.96 203.28 221.453 203.28C222.853 203.28 223.04 203.144 223.227 201.92C223.367 201.195 223.273 200.56 223.04 200.56C222.853 200.56 222.667 199.744 222.667 198.747C222.667 197.523 222.433 196.797 221.967 196.661C221.313 196.389 220.94 194.213 221.5 194.213C221.687 194.213 222.433 194.531 223.18 194.939C225.187 195.936 225.373 195.437 223.507 194.213L221.967 193.216L223.74 193.488C224.673 193.579 225.467 193.533 225.467 193.261C225.467 193.035 225.14 192.853 224.767 192.853C224.3 192.853 224.067 192.355 224.067 191.267C224.067 190.405 224.207 189.68 224.44 189.68C224.627 189.68 225.467 190.677 226.307 191.901C228.08 194.44 229.993 196.299 230.46 195.891C231.02 195.301 228.967 192.355 227.1 191.176C225.607 190.179 225.42 189.907 226.12 189.771C226.587 189.68 227.147 189.861 227.38 190.224C227.66 190.587 227.8 190.224 227.8 189.091C227.8 187.776 228.033 187.277 228.64 187.096C229.48 186.915 229.48 186.779 228.733 184.648C228.267 183.379 227.707 182.155 227.38 181.837C227.1 181.565 226.867 180.659 226.867 179.843C226.867 178.437 226.96 178.347 228.407 178.347C229.2 178.347 230.693 178.211 231.673 178.075L233.4 177.757L232.233 176.261C231.58 175.445 231.067 174.357 231.067 173.813C231.067 173.269 230.74 172.544 230.367 172.181C229.993 171.773 229.667 170.821 229.667 169.96C229.667 168.736 229.387 168.283 228.08 167.467C227.193 166.968 226.307 166.152 226.167 165.653C226.027 165.2 225.14 164.293 224.253 163.613C222.9 162.616 222.62 162.163 222.76 160.984C222.9 159.76 223.087 159.533 224.347 159.397C225.28 159.307 226.027 159.579 226.633 160.213C227.66 161.301 227.287 161.347 225.42 160.395C223.087 159.261 222.947 159.896 225.14 161.528C226.307 162.344 227.473 163.523 227.753 164.112C228.22 165.155 229.667 165.653 229.667 164.747C229.667 164.52 229.993 164.293 230.367 164.293C231.58 164.293 231.16 163.024 229.667 162.163C227.707 161.075 227.893 160.667 230.507 160.667C232.467 160.667 232.84 160.848 234.007 162.253C234.8 163.251 235.407 164.611 235.593 165.971C235.733 167.149 236.153 168.691 236.48 169.371C236.853 170.051 237.133 171.003 237.133 171.456C237.133 171.909 237.553 172.68 238.067 173.133C239.14 174.04 239.373 176.896 238.44 177.803C238.113 178.12 237.18 178.347 236.34 178.347H234.847L235.967 179.525C236.9 180.523 237.133 181.203 237.133 183.152C237.133 185.011 236.947 185.6 236.433 185.6C235.967 185.6 235.733 186.053 235.733 186.96C235.733 187.731 235.5 188.32 235.173 188.32C234.753 188.32 234.613 189.045 234.707 190.813C234.847 192.627 234.707 193.352 234.24 193.533C233.773 193.715 233.633 194.304 233.773 195.437C234.053 197.523 233.073 198.293 230.32 198.293C228.92 198.293 228.173 198.067 227.847 197.523C227.567 197.069 227.333 196.979 227.333 197.296C227.333 197.568 227.007 197.84 226.633 197.84C225.327 197.84 225.933 198.747 227.38 199.064C229.107 199.381 229.76 200.787 229.573 203.688C229.433 205.728 229.387 205.773 227.707 205.909C226.353 206 225.933 206.272 225.933 206.907C225.933 208.584 225.373 209.173 223.833 209.173C222.713 209.173 222.2 208.947 222.06 208.403C221.92 207.949 221.827 208.675 221.78 209.989C221.733 212.301 221.687 212.347 220.287 212.347C219.167 212.347 218.793 212.619 218.42 213.707C218.14 214.477 217.72 215.067 217.487 215.067C217.253 215.067 217.067 215.384 217.067 215.747C217.067 216.2 216.553 216.427 215.433 216.427C214.033 216.427 213.567 216.109 212.167 214.296ZM224.067 205.547C224.067 205.32 223.413 204.776 222.62 204.368C221.5 203.824 221.22 203.824 221.36 204.277C221.5 204.595 222.06 205.139 222.713 205.411C224.067 206.091 224.067 206.091 224.067 205.547ZM225 198.565C222.9 196.571 222.9 196.843 225.187 200.107C226.307 201.739 226.633 201.965 226.773 201.285C226.913 200.741 226.26 199.789 225 198.565ZM232.187 189.181C230.973 187.187 229.9 186.824 230.32 188.592C230.787 190.315 232 191.675 232.607 191.085C232.887 190.813 232.747 190.133 232.187 189.181ZM235.173 183.016C234.147 180.885 233.633 180.16 233.12 179.979C232.14 179.616 232.327 180.795 233.447 182.155C234.287 183.197 235.547 183.832 235.173 183.016ZM234.333 171.365C234.333 170.549 233.633 169.733 232.887 169.733C231.86 169.733 231.767 170.232 232.56 171.003C233.073 171.501 234.333 171.773 234.333 171.365Z" fill="#846966"/>
<path d="M36.4667 193.76C36.4667 192.762 37.4 192.581 38.8467 193.306C40.2467 194.032 39.92 194.666 38.1 194.666C36.7933 194.666 36.4667 194.485 36.4667 193.76Z" fill="#846966"/>
<path d="M143.8 185.781C143.8 184.829 143.94 184.648 144.64 184.92C145.06 185.101 145.807 185.373 146.273 185.464C147.767 185.917 147.16 186.96 145.433 186.96C143.987 186.96 143.8 186.824 143.8 185.781Z" fill="#846966"/>
<path d="M150.8 185.872C150.8 185.283 152.107 184.693 153.507 184.693C153.787 184.693 154.067 185.101 154.067 185.6C154.067 186.325 153.74 186.507 152.433 186.507C151.36 186.507 150.8 186.28 150.8 185.872Z" fill="#846966"/>
<path d="M161.067 185.418C161.067 184.829 162.373 184.24 163.773 184.24C164.053 184.24 164.333 184.648 164.333 185.146C164.333 185.872 164.007 186.053 162.7 186.053C161.627 186.053 161.067 185.826 161.067 185.418Z" fill="#846966"/>
<path d="M1.46663 182.835C1.46663 182.336 1.23329 181.475 0.95329 180.931C0.67329 180.387 0.626629 180.16 0.813296 180.387C1.04663 180.659 1.83996 181.52 2.58662 182.336L3.98662 183.787H2.72663C1.74663 183.787 1.46663 183.56 1.46663 182.835Z" fill="#846966"/>
<path d="M182.207 179.842C182.627 179.752 183 179.344 183 178.981C183 178.437 183.14 178.437 183.933 178.89C185.333 179.752 185.053 180.16 183.14 180.114C182.16 180.069 181.74 179.978 182.207 179.842Z" fill="#846966"/>
<path d="M21.0667 177.893C21.0667 177.349 21.3 177.122 21.72 177.258C22.6066 177.576 23.2133 176.533 22.42 176.034C21.9533 175.762 22.14 175.626 23.0733 175.626C24.1933 175.626 24.3333 175.762 24.3333 177.213C24.3333 178.709 24.24 178.8 22.7 178.8C21.3933 178.8 21.0667 178.618 21.0667 177.893Z" fill="#846966"/>
<path d="M101.007 178.029C100.26 177.757 100.213 176.08 100.913 176.08C101.147 176.08 102.313 176.307 103.48 176.579C106.187 177.259 106.28 178.347 103.573 178.301C102.453 178.301 101.287 178.165 101.007 178.029Z" fill="#846966"/>
<path d="M48.1333 172.136C48.1333 171.909 48.88 171.32 49.7666 170.731L51.4 169.733V171.093C51.4 172.363 51.26 172.453 49.7666 172.453C48.88 172.453 48.1333 172.317 48.1333 172.136Z" fill="#846966"/>
<path d="M85.4667 170.459C85.4667 169.416 85.56 169.371 86.82 169.779C88.92 170.504 89.06 171.547 87.1 171.547C85.7 171.547 85.4667 171.411 85.4667 170.459Z" fill="#846966"/>
<path d="M186.64 169.552C185.707 168.872 185.987 168.373 187.387 168.373C188.367 168.328 188.367 168.328 187.48 167.693C186.593 167.059 186.64 167.013 188.04 167.013C189.44 167.013 189.533 167.104 189.533 168.6C189.533 169.96 189.393 170.187 188.507 170.187C187.9 170.187 187.06 169.869 186.64 169.552Z" fill="#846966"/>
<path d="M79.8666 166.56C79.8666 165.834 80.0066 165.2 80.2399 165.2C80.4266 165.2 81.1266 165.834 81.8266 166.56L83.0399 167.92H81.4533C80.0066 167.92 79.8666 167.784 79.8666 166.56Z" fill="#846966"/>
<path d="M75.6666 156.36C75.6666 154.41 75.6199 154.32 74.2666 154.32C72.9599 154.32 72.8666 154.184 72.8666 152.733C72.8666 150.92 73.2866 150.738 74.4999 152.053C74.9666 152.552 75.6199 152.96 75.8999 152.96C76.2266 152.96 76.7399 153.277 77.0666 153.64C77.5332 154.184 77.5332 154.456 77.0666 155C76.4599 155.725 76.8799 156.586 78.4666 157.81C79.0266 158.264 78.8866 158.354 77.4399 158.4H75.6666V156.36Z" fill="#846966"/>
<path d="M186.267 157.04C186.267 156.269 186.593 156.133 188.227 156.133C190.047 156.133 190.093 156.088 189.253 155.453C188.413 154.819 188.413 154.819 189.673 154.773C190.793 154.773 190.933 154.909 190.933 156.36V157.947H188.6C186.593 157.947 186.267 157.811 186.267 157.04Z" fill="#846966"/>
<path d="M185.24 153.685C183.98 152.778 184.213 152.416 185.94 152.506C188.6 152.642 188.927 152.552 187.947 151.826C187.06 151.192 187.06 151.146 188.273 151.146C189.393 151.146 189.533 151.328 189.533 152.733C189.533 154.274 189.487 154.32 187.807 154.32C186.827 154.32 185.66 154.002 185.24 153.685Z" fill="#846966"/>
<path d="M221.967 151.962C220.94 151.464 220.053 150.829 219.96 150.648C219.867 150.421 219.493 150.24 219.12 150.24C218.7 150.24 218.467 149.741 218.467 148.653V147.066H220.753C222.013 147.066 223.133 147.202 223.227 147.429C223.32 147.61 224.207 148.2 225.233 148.698C226.82 149.514 227.1 149.922 227.24 151.328C227.38 152.96 227.38 152.96 225.607 152.96C224.627 152.914 222.993 152.506 221.967 151.962ZM222.293 149.288C221.453 148.744 220.66 148.426 220.52 148.562C220.38 148.698 220.847 149.106 221.593 149.514C223.553 150.557 224.067 150.376 222.293 149.288Z" fill="#846966"/>
<path d="M71.9333 149.786C71.9333 149.56 71.6533 149.333 71.28 149.333C70.6266 149.333 70.0667 147.474 70.0667 145.389C70.0667 144.437 70.16 144.392 71.0466 144.845C71.7466 145.208 71.98 145.661 71.7933 146.432C71.6533 147.293 71.84 147.61 72.68 147.792C73.94 148.109 73.9867 148.154 73.3333 149.378C72.82 150.285 71.9333 150.557 71.9333 149.786Z" fill="#846966"/>
<path d="M229.2 149.923C227.147 149.243 223.6 146.795 223.6 146.069C223.6 145.435 223.227 145.253 221.967 145.253C220.427 145.253 220.333 145.163 220.333 143.667C220.333 142.579 220.567 142.08 221.033 142.08C221.407 142.08 221.733 141.763 221.733 141.4C221.733 141.037 222.06 140.72 222.433 140.72C223.18 140.72 223.273 140.221 223.133 137.456L223.04 135.733H225.373C228.593 135.733 230.6 137.32 230.6 139.813C230.6 140.901 230.833 141.627 231.3 141.808C231.767 141.944 232 142.669 232 143.803C232 144.845 232.28 145.843 232.7 146.16C233.12 146.477 233.4 147.475 233.4 148.472C233.4 150.24 233.4 150.24 231.673 150.195C230.693 150.195 229.573 150.059 229.2 149.923Z" fill="#846966"/>
<path d="M64.4666 141.853C64.4666 140.992 64.6999 140.267 64.9333 140.267C65.6333 140.267 65.4932 138.136 64.7466 137.864C64.3732 137.728 63.9533 137.003 63.7666 136.232C63.5333 135.235 63.1133 134.736 62.2266 134.509C61.4799 134.328 60.9666 134.419 60.8266 134.736C60.7333 135.099 59.4733 135.28 57.4666 135.28C53.8733 135.28 52.7999 135.008 52.7999 134.101C52.7999 133.512 53.5466 133.285 55.1333 133.376C55.4599 133.376 56.3466 133.104 57.0466 132.787C57.9332 132.333 58.3999 132.288 58.7733 132.651C59.1466 133.013 59.3799 132.968 59.6132 132.379C59.8466 131.789 60.2666 131.699 61.4333 131.925C62.3199 132.061 63.0666 131.971 63.2533 131.699C63.9999 130.52 64.5599 131.245 64.2799 133.059C63.9999 134.781 64.0466 134.872 64.9799 134.6C65.6799 134.373 65.8666 134.419 65.6333 134.781C65.1199 135.688 66.3332 136.64 67.5466 136.368C68.6199 136.096 68.6666 136.141 68.1999 137.365C67.9199 138.091 67.2666 139.315 66.7533 140.131C65.6799 141.808 66.0999 142.261 68.3399 141.853C69.6466 141.581 69.8799 141.672 69.8799 142.488C69.8799 143.349 69.5999 143.44 67.1733 143.44H64.4666V141.853Z" fill="#846966"/>
<path d="M177.867 142.125C177.867 141.219 179.36 140.629 181.133 140.856C182.86 141.083 182.953 141.037 182.487 140.221C182.16 139.541 182.207 139.36 182.767 139.36C183.28 139.36 183.467 139.813 183.467 140.947V142.533H180.667C179.127 142.533 177.867 142.352 177.867 142.125Z" fill="#846966"/>
<path d="M179.08 136.821C178.66 135.778 178.707 135.733 179.78 135.733C180.48 135.733 180.667 135.506 180.48 135.053C180.34 134.645 180.48 134.373 180.9 134.373C181.367 134.373 181.6 134.872 181.6 135.96C181.6 137.32 181.46 137.546 180.48 137.546C179.873 137.546 179.22 137.229 179.08 136.821Z" fill="#846966"/>
<path d="M216.973 132.922C215.853 132.56 215.667 132.242 215.667 130.701C215.667 129.613 215.9 128.933 216.273 128.888C216.553 128.888 216.273 128.661 215.573 128.389C214.453 128.026 214.267 127.709 214.267 126.168C214.267 124.49 214.36 124.4 215.713 124.4C216.507 124.4 217.02 124.218 216.833 123.946C216.693 123.72 216.133 123.493 215.667 123.493C214.08 123.493 212.4 122.496 212.4 121.498C212.353 119.64 207.78 115.786 205.633 115.786C204.467 115.786 204.42 115.696 204.513 113.656L204.653 111.48L200.267 111.026L195.833 110.573L195.693 108.896C195.553 107.173 195.553 107.173 197.327 107.173C199.007 107.218 199.053 107.218 198.167 107.898C196.813 108.896 197.84 109.304 201.62 109.168C204.7 109.077 205.027 109.168 208.527 111.117C212.96 113.61 215.247 114.426 217.58 114.426C219.447 114.426 220.1 113.61 218.513 113.202C217.673 112.976 214.267 108.216 214.267 107.264C214.267 107.037 214.687 106.72 215.2 106.584C216.647 106.221 216.32 105.133 214.267 103.546C212.353 102.096 211.84 100.826 213.1 100.826C213.987 100.826 213.987 100.192 213.1 99.4664C212.54 99.0131 212.54 98.7864 213.193 97.7891C213.847 96.8824 213.847 96.4744 213.38 95.7491C212.96 95.0691 212.96 94.7064 213.333 94.2531C213.753 93.7544 213.66 93.4824 212.913 93.0291C211.747 92.3491 211.653 91.7598 212.633 91.7598C213.613 91.7598 213.52 90.7171 212.353 89.3118L211.373 88.0878L212.353 87.1811C213.66 86.0024 213.613 84.8238 212.167 83.4184C211.233 82.5118 211.187 82.2851 211.747 82.0584C212.213 81.8771 212.353 81.4691 212.167 80.8798C211.98 80.3358 212.26 79.5198 212.82 78.7491C214.36 76.5731 214.5 75.5304 213.147 75.1678C212.54 75.0318 211.56 75.1678 211 75.4398C209.413 76.2558 201.387 75.5758 199.427 74.4424C197.7 73.3998 197.653 72.5384 199.053 68.0958L199.847 65.4664L198.213 63.3811C196.393 61.1144 196.347 60.5704 197.887 61.3864C198.68 61.7944 198.867 61.7491 198.867 61.1598C198.867 60.3438 199.847 60.2531 200.64 61.0238C201.06 61.4318 201.2 61.3864 201.2 60.7971C201.2 60.3891 201.527 60.0264 201.9 60.0264C202.367 60.0264 202.6 60.5251 202.6 61.6131C202.6 62.7011 202.367 63.1998 201.947 63.1998C201.433 63.1998 201.34 63.5624 201.527 64.6958C201.667 65.5118 201.433 67.2798 201.013 68.6398C200.593 69.9544 200.36 71.1331 200.453 71.2238C200.547 71.3144 201.153 71.2691 201.853 71.0878C202.787 70.8611 203.067 70.5438 203.067 69.5011C203.067 68.4131 203.44 68.0051 205.307 67.0531C208.247 65.5571 209.553 64.5144 208.807 64.2424C208.013 63.9704 208.013 60.3891 208.76 59.6638C209.087 59.3464 209.693 59.1198 210.113 59.1198C210.533 59.1198 211.14 58.8024 211.467 58.4398C211.84 58.0318 212.867 57.7598 214.08 57.7598C215.947 57.7598 216.133 57.8504 216.133 58.8931C216.133 59.7091 216.367 60.0264 217.067 60.0264C218.233 60.0264 218.7 61.7038 218.233 64.2424C217.58 67.6878 217.02 76.0744 216.507 89.8104C216.32 93.9358 216.367 94.0264 217.627 94.9331C218.747 95.7491 218.933 96.2024 218.933 98.0158C218.933 99.8291 219.12 100.328 220.333 101.28C221.547 102.277 221.733 102.776 222.013 105.632C222.293 108.352 222.2 108.896 221.547 109.122C220.473 109.53 220.66 110.346 222.2 112.16C223.367 113.474 223.6 114.109 223.6 116.149C223.6 117.6 223.833 118.824 224.253 119.186C224.627 119.549 225.047 120.864 225.233 122.133C225.513 124.128 225.7 124.445 226.773 124.672C227.473 124.808 228.313 124.989 228.64 125.125C229.34 125.306 229.387 128.117 228.64 128.842C228.22 129.25 228.22 129.522 228.64 129.93C228.967 130.248 229.2 131.154 229.2 131.97V133.466L223.74 133.421C220.707 133.421 217.673 133.194 216.973 132.922ZM223.367 126.44C221.92 125.261 220.8 124.989 220.8 125.714C220.8 126.258 223.04 127.482 224.067 127.528C224.487 127.528 224.207 127.074 223.367 126.44ZM218.653 117.418C218.42 116.874 216.553 115.786 215.807 115.786C215.62 115.786 216.087 116.376 216.833 117.146C218.14 118.461 219.12 118.597 218.653 117.418ZM203.067 73.3998C203.533 72.8558 203.533 72.7198 203.02 72.7198C201.713 72.7198 200.267 73.3091 200.547 73.6718C200.92 74.3064 202.413 74.1251 203.067 73.3998ZM208.247 73.1731C209.647 72.0398 208.9 72.0398 206.8 73.1731C205.493 73.8984 205.353 74.0344 206.147 74.0798C206.707 74.0798 207.64 73.6718 208.247 73.1731Z" fill="#846966"/>
<path d="M199.333 106.403C199.333 105.723 198.96 105.632 197 105.723L194.667 105.904V104.091C194.667 102.504 194.48 102.141 193.407 101.643C192.66 101.325 192.053 100.6 191.96 100.056C191.82 99.2853 191.447 99.0133 190.093 98.9226C188.74 98.8319 188.32 98.5599 188.227 97.8346C188.133 97.1546 187.667 96.7466 186.733 96.6106C185.987 96.4293 184.68 95.6133 183.747 94.7066C182.86 93.8453 181.787 93.1199 181.367 93.1199C180.993 93.1199 180.433 92.7119 180.107 92.2133C179.64 91.5333 178.987 91.3066 177.54 91.3066C175.72 91.3066 175.533 91.2159 175.533 90.2186C175.533 89.3573 175.72 89.1759 176.84 89.3119C177.587 89.4026 177.727 89.3573 177.167 89.2213C175.347 88.7226 175.3 88.1333 177.073 88.1333C178.007 88.1333 178.8 88.0426 178.8 87.9519C178.8 87.8613 178.24 87.1359 177.54 86.3653C176.56 85.3226 175.58 84.8239 173.573 84.4159C171.94 84.0986 170.867 83.6453 170.867 83.2826C170.867 82.9199 170.307 82.6933 169.467 82.6933C168.673 82.6933 168.067 82.4666 168.067 82.1493C168.067 81.6959 167.973 81.6959 167.693 82.1493C167.367 82.6026 166.34 82.6479 163.493 82.4213C160.273 82.1493 159.667 81.9679 159.667 81.2879C159.667 80.8346 160.04 80.3813 160.507 80.2906C161.253 80.1093 161.253 80.0639 160.507 80.0186C160.04 80.0186 159.667 79.7466 159.667 79.4746C159.667 79.0666 160.693 79.0213 163.167 79.2026L166.62 79.4293L165.407 78.3413C164.753 77.7519 163.913 77.2533 163.587 77.2533C163.213 77.2533 162.933 77.1173 162.933 76.8906C162.933 76.7093 162 76.6186 160.833 76.7093C158.78 76.8906 158.733 76.8906 158.733 75.4853C158.733 74.4879 158.5 74.0799 157.987 74.0799C157.38 74.0799 157.287 73.7173 157.427 72.3119L157.567 70.4986L155.42 70.7706C153.6 70.9973 153.087 70.8613 152.247 70.0453C151.733 69.5466 151.267 68.6399 151.267 68.1413C151.267 67.1893 151.407 67.1439 155.327 67.4613C157.567 67.5973 159.62 67.9599 159.853 68.1866C160.133 68.4586 160.973 68.6399 161.813 68.6399C162.607 68.6399 163.96 68.776 164.847 68.9573C166.153 69.184 166.247 69.2746 165.5 69.5919C164.987 69.7733 163.68 69.9546 162.607 69.9546C161.487 69.9999 160.6 70.1813 160.6 70.4079C160.6 70.9519 163.073 71.496 165.5 71.4506C166.947 71.4053 167.553 71.6319 168.02 72.3119C168.487 73.1279 168.487 73.3546 167.74 73.8986C167.273 74.2613 166.387 74.8053 165.733 75.0773L164.567 75.5759L166.06 75.984C166.9 76.1653 167.553 76.6186 167.46 76.8906C167.367 77.5253 168.767 77.8879 169.793 77.5253C170.447 77.2533 170.4 77.072 169.513 76.2106C169 75.6213 168.533 75.032 168.533 74.8506C168.533 74.2613 170.633 74.5333 172.033 75.2586C172.827 75.6666 174.553 76.1653 175.907 76.3919C178.8 76.7999 180.387 77.8879 179.78 79.0213C179.313 79.7919 175.393 81.1066 174.693 80.6986C174.46 80.5626 173.9 80.8346 173.433 81.3333C172.78 82.0586 172.733 82.2399 173.247 82.4213C182.02 85.0053 181.88 84.9599 181.18 86.2293C180.9 86.7279 180.667 87.4986 180.667 87.9519C180.667 88.6773 180.713 88.6773 181.507 87.9519C182.3 87.2719 182.533 87.2719 184.12 87.9066C185.987 88.6773 185.987 89.72 184.12 89.3573C182.813 89.1306 181.32 90.0373 181.787 90.7626C181.973 91.0799 182.533 91.3066 183.047 91.3066C183.56 91.3066 184.727 92.0773 185.707 93.0293C186.64 93.9359 188.32 95.0239 189.393 95.3413C191.167 95.9306 191.307 96.0213 190.56 96.5653C189.86 97.0639 189.907 97.1546 191.073 97.4266C191.82 97.6079 193.313 97.4719 194.573 97.1546C197.513 96.2933 197.607 96.3386 197.653 97.6986C197.7 98.4239 197.513 98.8319 197.233 98.6959C196.393 98.4239 194.107 99.4213 194.433 99.9199C194.573 100.147 195.227 100.373 195.88 100.373C196.673 100.373 197 100.6 197 101.28C197 102.504 198.353 103.093 201.62 103.275C204.42 103.456 207.22 104.589 207.64 105.723C207.733 106.04 207.547 106.176 207.08 105.995C206.66 105.859 206.007 105.949 205.633 106.267C205.26 106.584 204.327 106.72 203.533 106.629C202.787 106.493 202.133 106.584 202.133 106.811C202.133 106.992 201.527 107.173 200.733 107.173C199.707 107.173 199.333 106.947 199.333 106.403ZM169.7 80.8799C169.887 80.6079 168.953 80.4266 167.273 80.4719C165.313 80.4719 164.847 80.6079 165.5 80.8799C166.807 81.4239 169.373 81.4239 169.7 80.8799ZM172.967 78.1599C172.827 77.9333 172.267 77.7066 171.753 77.7066C171.287 77.7066 170.867 77.9333 170.867 78.1599C170.867 78.4319 171.427 78.6133 172.08 78.6133C172.733 78.6133 173.153 78.4319 172.967 78.1599Z" fill="#846966"/>
<path d="M201.107 100.645C198.68 99.9197 198.26 99.285 200.5 99.6477C203.207 100.101 204 100.373 204 100.872C204 101.37 203.347 101.325 201.107 100.645Z" fill="#846966"/>
<path d="M207.873 99.4213C205.773 98.424 205.12 97.3813 206.94 97.9253C208.013 98.2427 210.533 99.8293 210.533 100.192C210.533 100.555 209.787 100.373 207.873 99.4213Z" fill="#846966"/>
<path d="M49.2999 88.2691C49.6733 85.7305 49.9533 84.9598 50.5133 84.9598C50.7466 84.9598 50.9333 83.5545 50.9333 81.8318C50.9333 79.6105 51.1199 78.5678 51.6333 78.1598C52.0066 77.8425 52.3333 77.0265 52.3333 76.3465C52.3333 75.0771 54.9466 71.8131 55.9266 71.8131C56.2533 71.8131 56.5333 70.2718 56.6266 67.8691C56.8599 63.1091 56.2999 61.8398 54.0133 61.8398C53.1733 61.8398 52.2866 61.6131 51.9599 61.2958C51.5399 60.8878 51.3533 60.9785 51.1199 61.5225C50.7466 62.5651 46.8266 62.6105 46.4533 61.6131C46.2666 61.2505 45.9399 60.9331 45.6599 60.9331C45.3799 60.9331 44.8199 60.6158 44.3533 60.2078C43.5599 59.5278 43.3266 59.5278 41.0399 60.2078C39.4999 60.7065 37.4466 60.9331 35.5333 60.8425L32.4999 60.7065L32.6399 56.3998C32.7799 53.2265 33.0133 51.8665 33.5733 51.2771C34.1333 50.6878 34.1799 50.3705 33.7599 49.9625C33.4333 49.6451 33.1999 48.4665 33.1999 47.2878C33.1999 46.1091 33.0133 44.9758 32.7333 44.8398C32.4999 44.7038 32.2666 43.4345 32.2666 42.0745C32.2666 39.8985 32.3599 39.6265 33.2466 39.6265C34.1333 39.6265 34.2266 39.8078 33.9466 41.0318C33.7133 42.1651 33.8999 42.5731 34.9266 43.4345C36.0933 44.3865 36.1399 44.5678 35.5799 45.8825C35.0666 47.0611 35.0666 47.4238 35.7199 48.3305C36.7933 49.7811 36.6999 52.1838 35.5333 52.7731C34.1799 53.4985 34.3666 54.5865 35.8133 54.5865C36.8866 54.5865 37.0266 54.7225 36.7933 55.7651C36.5133 57.3065 38.4266 58.6665 39.7799 57.8505C40.2466 57.5331 41.0866 57.3065 41.5533 57.3065C42.0666 57.3065 42.6733 56.9891 42.8599 56.6265C43.1866 56.0825 43.6533 56.3545 45.3333 57.9865C47.5733 60.2078 47.9933 60.3891 48.7866 59.3465C49.0666 58.9838 49.9533 58.5305 50.7466 58.3945C51.9133 58.1678 52.4733 58.3491 53.2199 59.0745C54.5266 60.3438 54.7599 60.2985 54.5733 58.5758C54.3866 56.5811 55.7399 56.3998 57.9333 58.1678C59.3799 59.3465 59.4733 59.5731 58.8666 60.2531C58.2599 60.9785 58.3066 61.1145 59.2399 61.7491C60.4533 62.5198 60.5466 63.6531 59.5666 65.5118C59.1466 66.2371 58.6799 68.3225 58.4933 70.1358C58.2133 72.8105 57.9799 73.4905 57.1866 73.8078C56.6733 74.0345 55.7399 75.2585 55.1333 76.5278C54.5733 77.7971 53.7799 79.1571 53.4066 79.6105C52.9866 80.0638 52.7533 81.3331 52.7533 82.9198C52.7533 84.6425 52.4266 86.0931 51.8199 87.1811C51.3533 88.0878 50.9333 89.0398 50.9333 89.3118C50.9333 89.6291 50.5133 89.9465 49.9533 90.0825C49.0199 90.3091 48.9733 90.2185 49.2999 88.2691ZM37.3999 58.9385C37.3999 57.4878 35.9533 56.8985 34.5999 57.7598C33.9933 58.1678 33.9933 58.2585 34.5999 58.6665C35.2999 59.1198 37.3999 59.3011 37.3999 58.9385Z" fill="#846966"/>
<path d="M16.5399 86.6825C17.2399 85.5038 17.7999 84.3705 17.7999 84.0985C17.7999 83.5998 21.2532 78.7038 22.6532 77.1625C23.0732 76.7091 24.0532 76.3465 24.9399 76.3465C26.0599 76.3465 26.7132 75.9838 27.5532 74.9865C28.3932 73.9438 28.9999 73.6265 30.2132 73.6265C31.0999 73.6265 31.7999 73.8531 31.7999 74.0798C31.7999 74.3518 31.6599 74.5331 31.4732 74.5331C31.2399 74.5331 30.3066 75.2585 29.2799 76.1198C28.2999 76.9811 27.0399 77.7065 26.4332 77.7065C25.0332 77.7065 19.2932 82.0131 18.6399 83.5091C17.6599 85.9571 16.6332 87.7705 15.9332 88.2691C15.5599 88.5865 15.8399 87.8611 16.5399 86.6825Z" fill="#846966"/>
<path d="M66.5666 86.9094C66.8466 85.4134 66.8 85.3227 66.1466 85.8214C65.54 86.3201 65.4 86.3201 65.4 85.7308C65.4 84.8241 70.86 73.7627 71.4666 73.4001C72.26 72.9467 72.0266 71.3601 71.2333 71.6321C69.9733 72.1308 70.4866 70.4987 72.1666 68.6854C73.0533 67.7334 73.8 66.6001 73.8 66.1921C73.8 65.7841 74.0333 65.4667 74.2666 65.4667C74.5466 65.4667 74.7333 65.6934 74.7333 65.9654C74.7333 66.9174 76.18 65.3307 77.3466 63.1094C77.9533 61.9307 79.12 60.2534 79.9133 59.3467C81.0333 58.1227 81.3133 57.4428 81.1266 56.4908C80.8933 55.2668 82.2933 52.3201 83.1333 52.3201C84.0666 52.3201 83.9733 53.1814 82.9 54.5867C82.2466 55.4481 81.8266 56.1734 81.92 56.3094C82.2933 56.6267 84.3933 55.0401 85 53.9521C85.6066 52.7734 88.7333 51.1868 89.76 51.5041C90.0866 51.6401 92.0466 50.9147 94.1 49.9174C96.1533 48.9201 98.6266 47.9681 99.56 47.7867C101.007 47.5147 101.287 47.6054 101.52 48.3761C101.707 49.0561 101.987 49.1921 102.827 48.9654C103.433 48.7841 105.16 48.4667 106.7 48.1947C108.8 47.8774 109.827 47.4241 110.9 46.3814L112.3 45.0214L111.04 45.2934C110.293 45.4747 109.733 45.4294 109.733 45.1574C109.733 44.3414 110.947 43.7521 111.973 44.0241C112.673 44.2054 113.653 43.8427 114.96 42.9814C116.267 42.0747 116.967 41.8481 117.06 42.2561C117.2 42.5281 117.573 42.8001 117.993 42.8001C118.367 42.8001 118.6 43.1174 118.507 43.6161C118.32 44.4321 116.64 44.4774 116.36 43.6614C116.08 42.9361 115.287 43.2534 115.38 44.0694C115.567 46.2454 115.287 47.1974 114.167 47.7867C112.673 48.5574 112.673 49.1467 114.12 49.1467C115.94 49.1467 119.3 45.7014 120.14 42.8907C121.4 38.9014 120.7 38.5387 114.727 39.9441C112.113 40.5787 111.413 40.6241 111.227 40.1254C110.947 39.3094 108.333 41.8027 108.333 42.8907C108.333 43.8427 105.767 46.7894 105.3 46.3361C105.113 46.1547 105.627 45.2481 106.42 44.2961C107.213 43.3441 107.867 42.3921 107.867 42.1201C107.867 41.8481 108.427 40.6241 109.127 39.4001C110.107 37.5414 110.2 37.2694 109.453 37.8134C108.987 38.1761 108.427 38.6747 108.24 38.9467C107.587 39.8081 107.307 38.7201 107.82 37.3147C108.427 35.5921 108.52 33.2801 107.913 33.2801C107.68 33.2801 107.26 33.8694 106.933 34.5947C106.607 35.3654 106.14 35.8641 105.767 35.7281C105.44 35.5921 104.647 36.1361 103.947 36.9521L102.64 38.4027L102.967 36.6347C103.107 35.6827 103.34 34.4134 103.48 33.8694C103.62 33.1894 103.387 32.7814 102.733 32.6001C102.22 32.4187 101.473 31.6934 101.1 30.9681C100.68 30.2427 100.213 29.6534 99.98 29.6534C99.7466 29.6534 99.42 30.7867 99.2333 32.2374C98.86 35.0934 98.1133 36.9974 97.5533 36.6347C97.32 36.4987 97.1333 35.1387 97.1333 33.5974L97.0866 30.7867L95.92 32.6001L94.7533 34.4134L94.8933 31.2401C95.0333 28.2481 94.9866 28.0667 94.0066 27.9307C93.0266 27.7947 92.9333 27.9761 92.9333 29.8347C92.9333 30.9681 92.7466 31.9201 92.5133 31.9201C92.28 31.9201 92.14 30.6507 92.14 29.1094C92.1866 27.5227 92.0466 25.6641 91.86 24.8934L91.44 23.5334L90.7866 24.8027C89.9933 26.2081 89.8533 26.2534 88.8733 25.3467C87.66 24.1227 87.1933 25.0747 87.4266 28.3387C87.7066 31.6934 87.3333 32.2827 86.4 30.1521C85.6066 28.2027 84.6733 28.0667 82.1533 29.6081C80.94 30.3334 79.8666 30.7414 79.7733 30.4694C79.68 30.1974 78.84 30.8321 77.86 31.8747C76.9266 32.9174 76.04 33.7334 75.9 33.7334C75.76 33.7334 75.6666 33.0081 75.6666 32.1014V30.4694L73.9866 31.6934C72.5866 32.7361 72.1666 32.8721 71.3266 32.4187C69.6933 31.6027 67.22 32.3281 66.1466 34.0054C65.4933 34.9121 65.2133 35.0481 64.4666 34.6401C63.1133 33.9601 57.0933 34.2321 56.44 35.0027C55.5066 36.0907 53.36 36.9067 51.54 36.9067C49.16 36.9067 48.74 36.5441 48.6933 34.5494C48.6466 33.1441 48.7867 32.8267 49.4867 32.8267C49.9533 32.8267 50.4666 33.1441 50.6066 33.5067C50.84 34.0507 51.1666 34.0507 52.4266 33.6427C53.2666 33.3707 54.2933 32.8721 54.7133 32.5547C55.0866 32.1921 55.8333 31.9201 56.3466 31.9201C56.86 31.9201 57.5133 31.6934 57.7933 31.4214C58.0733 31.1494 58.7733 30.6961 59.38 30.3787C60.64 29.7894 61.1066 28.7467 60.08 28.7467C59.0533 28.7467 57.9333 25.8907 57.9333 23.2614V21.0401H59.52C60.4066 21.0401 61.2933 21.2667 61.4333 21.4934C62.04 22.4454 62.6 21.9014 62.6 20.3601C62.6 18.8641 62.6933 18.7734 64.2333 18.7734C66.24 18.7734 67.3133 20.1787 67.64 23.2614C67.8266 25.3467 67.92 25.4827 69.5533 25.9361C73.38 27.0694 74.0333 26.9334 75.2 24.8027C76.1333 23.0801 76.46 22.8534 77.9066 22.8534C79.9133 22.8534 83.6 24.4854 83.6 25.3921C83.6 25.7547 83.88 25.8907 84.3 25.7547C84.6733 25.5734 85 25.1201 85 24.7121C85 23.5334 85.98 22.8534 87.6133 22.8534C88.5 22.8534 89.2 22.5814 89.3867 22.1734C89.5266 21.7201 90.2733 21.4934 91.4866 21.4934C93.12 21.4934 93.4466 21.6747 93.68 22.6267C94.1 24.2587 95.2666 24.0774 95.2666 22.4001C95.2666 21.1761 95.4066 21.0401 96.8066 21.0401C97.6933 21.0401 98.5333 21.1761 98.72 21.3574C98.9066 21.5841 100.307 21.6294 101.8 21.5841C103.293 21.4934 104.927 21.6294 105.44 21.9014C106.56 22.4907 107.633 26.3441 107.213 28.2934C106.98 29.5174 107.073 29.6534 108.52 29.8801C109.593 30.1067 110.153 30.5147 110.48 31.3761C110.947 32.6001 110.947 32.6001 112.207 30.2427C112.907 28.9281 113.467 27.5681 113.467 27.2507C113.467 25.6187 114.68 25.4374 121.307 25.8454C124.807 26.0721 127.793 26.1174 127.84 25.8907C128.493 24.4854 134 23.5787 134 24.8934C134 25.2561 134.42 25.5734 134.933 25.5734C135.447 25.5734 135.867 25.3921 135.867 25.1201C135.867 24.8934 136.613 24.6667 137.547 24.6667C139.647 24.6667 140.953 26.0721 141 28.2934C141 29.3814 141.28 30.0614 141.933 30.4694C142.447 30.7867 142.867 31.3307 142.867 31.6934C142.867 32.0561 143.287 32.3734 143.753 32.3734C145.34 32.3734 146.133 32.9174 146.133 33.9147C146.133 34.4587 146.413 35.2747 146.74 35.6827C147.253 36.4081 147.44 36.3627 149.027 35.3201C149.96 34.6854 151.36 34.1867 152.06 34.1867C152.807 34.1867 154.207 33.6427 155.233 32.9174L157.1 31.6934L155.84 31.5574C154.72 31.4214 154.533 31.1947 154.533 29.8801C154.533 29.0187 154.767 28.2027 155 28.0667C155.28 27.9307 155.467 27.2054 155.467 26.4801C155.467 25.7547 155.793 24.8481 156.213 24.4401C156.633 24.0774 157.053 22.9441 157.193 21.9467C157.427 20.3147 157.567 20.1334 158.78 20.1334C160.04 20.1334 160.133 19.9974 160.133 18.3654C160.133 17.0507 160.367 16.5521 160.973 16.3707C161.487 16.2801 162 15.6001 162.14 14.7387C162.42 13.5601 162.653 13.3334 163.867 13.3334C164.613 13.3334 165.267 13.1521 165.267 12.8801C165.267 12.6534 166.013 12.4267 166.9 12.4267C168.253 12.4267 168.533 12.2454 168.533 11.4747C168.533 10.6134 168.767 10.5227 170.82 10.7041C172.5 10.7947 173.013 10.7041 172.873 10.2961C172.733 9.97875 171.94 9.70674 171.053 9.70674C169.513 9.70674 169.467 9.66141 169.467 7.89341V6.08008H172.453C176.047 6.08008 176.933 6.35208 176.933 7.48541C176.933 8.02941 177.26 8.34674 177.82 8.34674C178.613 8.34674 179.267 9.16275 179.267 10.2054C179.267 10.4321 178.147 10.6134 176.747 10.6134C174.413 10.6134 174.227 10.7041 173.947 11.7921C173.667 12.8801 173.48 12.9254 172.033 12.6987C170.54 12.4267 170.4 12.5174 170.12 13.6507C169.607 15.6454 169.42 15.7361 168.253 14.6481C167.553 14.0134 167.133 13.8774 167.133 14.1947C167.133 14.6027 166.76 14.6934 165.873 14.5121C164.52 14.1494 163.867 14.7387 163.867 16.4161C163.867 17.0961 163.447 17.5947 162.653 17.8667C161.253 18.4107 161.393 19.3174 162.98 19.6801C164.1 19.9521 166.34 23.1254 165.92 23.8507C165.78 24.0321 164.24 24.2134 162.42 24.2134C159.807 24.2134 159.013 24.3947 158.267 25.1201C157.007 26.3441 157.1 26.9334 158.5 26.9334C160.04 26.9334 159.947 27.4321 158.267 28.3841C156.447 29.3814 156.493 29.9254 158.5 30.2881C159.387 30.4694 160.227 30.7867 160.367 31.0134C160.507 31.2401 159.667 32.2827 158.5 33.3254C157.333 34.3681 156.493 35.3201 156.587 35.4107C156.68 35.5467 157.893 34.9121 159.293 34.0054C161.813 32.3281 162.933 32.0107 162.933 32.8721C162.933 33.6427 159.807 36.2267 157.8 37.1334C156.12 37.8587 155.793 37.9041 155.467 37.3147C155.093 36.8161 154.86 36.7707 154.067 37.2694C153.413 37.6321 152.853 37.6774 152.293 37.4054C151.64 37.0881 150.94 37.2694 149.447 38.0854C148.327 38.6747 147.16 39.1734 146.88 39.1734C146.087 39.1734 144.267 37.2241 144.267 36.3627C144.267 35.3201 143.147 34.5494 142.54 35.1387C141.793 35.8641 140.067 35.1841 140.067 34.1867C140.067 33.0081 139.6 32.8267 137.453 33.2801C134.933 33.8241 134.42 33.1894 136.1 31.4667C136.847 30.7414 137.22 30.1067 136.893 30.1067C136.24 30.1067 133.207 31.8294 131.527 33.1441C130.78 33.7334 129.94 34.1867 129.613 34.1867C129.287 34.1867 127.84 35.2294 126.393 36.4987C123.687 38.8561 122.52 39.2187 123.92 37.2694C125.227 35.5014 124.76 35.4561 122.94 37.1787L121.26 38.8561L122.38 39.4454C123.733 40.1707 125.88 40.2614 126.3 39.6267C126.44 39.4001 126.907 39.1734 127.28 39.1734C127.747 39.1734 127.887 39.4907 127.653 40.3067C127.327 41.5761 127.98 41.8027 128.913 40.7147C129.24 40.3067 129.893 40.1254 130.407 40.2614C131.013 40.3974 131.9 40.0801 132.74 39.3547C134.7 37.7681 135.493 38.5841 134.233 40.8507C133.533 42.0747 132.833 42.6187 131.433 43.0267C130.407 43.2987 128.82 44.2507 127.933 45.1121C127.047 45.9734 125.647 47.1068 124.9 47.6054C122.427 49.3281 124.013 49.2827 127.793 47.5147C131.947 45.5654 133.673 44.2054 134.98 41.8027C136.147 39.6267 137.173 39.4907 136.893 41.5761C136.8 42.4374 136.007 43.7067 135.027 44.7494L133.347 46.4267H134.7C135.493 46.4267 136.8 46.0187 137.64 45.5201C139.46 44.4321 139.6 44.4321 139.6 45.3387C139.6 45.7014 138.993 46.2454 138.247 46.4721C137.5 46.7441 136.8 47.3787 136.66 47.8774C136.427 48.7387 136.52 48.7841 138.293 48.5121C139.367 48.3307 140.953 47.8774 141.793 47.5147C143.147 46.8347 143.38 46.8347 144.033 47.5147C144.967 48.3761 144.64 48.3761 147.067 47.5601C149.82 46.6081 149.867 46.6987 147.347 48.2854C145.013 49.8267 144.827 50.5521 146.647 51.0054C147.767 51.2774 147.767 51.2774 146.367 51.6401C145.62 51.8214 144.78 52.1387 144.5 52.3201C144.267 52.5467 142.913 52.6828 141.513 52.6374C138.76 52.5921 138.667 52.6827 143.1 50.9601C144.36 50.4614 144.407 50.3707 143.66 49.8267C142.96 49.3734 142.447 49.3734 140.813 49.8267C138.433 50.5521 136.8 51.4587 136.8 52.0934C136.847 53.1361 139.833 55.6294 141.7 56.2188C142.82 56.5361 143.847 56.6721 143.94 56.5361C144.08 56.4001 145.06 56.4454 146.133 56.6267C147.907 56.8987 148.047 57.0347 147.813 58.0321C147.58 58.8934 147.72 59.1654 148.653 59.3921C149.26 59.5281 150.053 59.6187 150.38 59.5734C151.827 59.3467 152.433 59.6187 151.407 60.0267C150.8 60.2534 150.333 60.7521 150.333 61.1601C150.333 61.7947 149.68 62.0214 148 61.8854C147.58 61.8854 147.533 61.9761 147.86 62.1121C148.187 62.2481 148.327 62.6107 148.187 62.9281C147.907 63.6081 149.913 64.5601 151.64 64.5601C152.34 64.5601 153.18 64.7414 153.553 64.9681C154.393 65.5121 152.62 66.1467 150.147 66.1467C149.12 66.1467 148.233 66.3734 148.14 66.7361C148 67.0081 148.233 67.2801 148.653 67.2801C149.073 67.2801 149.4 67.5974 149.4 67.9601C149.4 68.4134 148.887 68.6401 147.767 68.6401C146.46 68.6401 146.133 68.4587 146.133 67.7334C146.133 67.2347 145.62 66.5094 144.967 66.1014C144.267 65.6481 143.8 64.9227 143.8 64.2881C143.8 63.5627 143.52 63.2001 143.053 63.2001C142.633 63.2001 142.027 62.8827 141.747 62.5201C141.28 61.8854 138.76 61.2507 134.373 60.6161C132.74 60.3894 132.6 60.2987 132.6 58.8481C132.6 57.7601 132.833 57.3067 133.3 57.3067C133.673 57.3067 134 57.1254 134 56.8534C134 56.6267 134.467 56.4001 135.073 56.4001C136.847 56.4001 136.847 55.9467 135.073 54.3147C133.627 52.9547 133.113 52.7734 130.92 52.7734H128.4V51.1867V49.5547L126.953 50.2801C126.207 50.6881 124.76 50.9601 123.827 50.8694C122.333 50.7334 122.1 50.5521 121.96 49.5094C121.867 48.7841 121.54 48.2401 121.213 48.2401C119.533 48.2401 117.667 48.8747 117.667 49.4188C117.667 49.7814 117.2 50.0534 116.5 50.0534C115.847 50.0534 115.333 50.2801 115.333 50.5067C115.333 50.7787 114.307 50.9601 113 50.9601C111.647 50.9601 110.667 50.7787 110.667 50.4614C110.667 49.7814 105.673 50.1894 101.8 51.1867C100.12 51.5947 97.6 52.0934 96.1533 52.2747C94.0066 52.5014 93.1666 52.8641 91.58 54.2694C90.18 55.4934 89.2466 55.9467 88.08 55.9467C86.8666 55.9467 86.1666 56.3094 85.0933 57.4881C84.3 58.3494 83.5533 59.4374 83.4133 59.9361C83.2266 60.4347 82.2933 61.3867 81.3133 62.0667C80.2866 62.7014 79.2133 63.8801 78.9333 64.6054C78.6066 65.3307 78.1866 65.9201 77.9533 65.9201C77.72 65.9201 77.5333 66.1921 77.5333 66.5094C77.5333 66.8267 76.88 67.6881 76.1333 68.4134C75.2933 69.1841 74.5 70.5894 74.1733 71.6774C73.8933 72.8108 73.4266 73.6267 73.0533 73.6267C72.68 73.6267 72.4 74.0347 72.4 74.5334C72.4 75.4401 71.4666 77.7521 70.9533 78.1601C70.44 78.5228 69.1333 83.4187 69.1333 84.9147C69.1333 86.8641 68.2 88.5867 67.1266 88.5867C66.3333 88.5867 66.2866 88.3601 66.5666 86.9094ZM144.687 59.9361C145.527 59.4374 145.433 59.3468 143.893 58.5308C142.027 57.5334 137.5 57.3068 135.447 58.0774C134.467 58.4401 134.7 58.5761 137.313 59.2561C140.067 59.9361 141.653 60.2534 143.24 60.4347C143.567 60.4347 144.22 60.2534 144.687 59.9361ZM134 50.5067C134.56 50.1441 134.42 50.0534 133.393 50.0534C132.647 50.0534 132.18 50.2347 132.367 50.5067C132.74 51.0507 133.113 51.0507 134 50.5067ZM123.733 42.2561C123.733 41.6667 122.66 42.0294 122.427 42.7094C122.333 43.0267 122.52 43.1627 122.987 42.9814C123.407 42.8454 123.733 42.4827 123.733 42.2561ZM118.787 30.6961C117.667 28.9734 116.22 30.1521 117.247 32.0107C117.713 32.8721 117.807 32.8721 118.507 32.1921C119.113 31.6481 119.16 31.2401 118.787 30.6961ZM105.02 26.0721C104.6 25.3467 103.853 24.8481 103.06 24.7574C101.847 24.6214 101.8 24.6667 102.313 25.8907C102.593 26.5707 103.247 27.6134 103.807 28.2027L104.833 29.2454L105.253 28.2934C105.58 27.5681 105.533 26.9334 105.02 26.0721ZM100.4 26.9334C100.4 26.7067 99.8866 26.4801 99.2333 26.4801C98.58 26.4801 98.0666 26.7067 98.0666 26.9334C98.0666 27.2054 98.58 27.3867 99.2333 27.3867C99.8866 27.3867 100.4 27.2054 100.4 26.9334ZM177.867 9.70674C177.867 9.07208 173.9 7.44008 172.453 7.44008C171.847 7.44008 171.333 7.66674 171.333 7.89341C171.333 8.52808 173.48 9.29874 174.32 8.98141C174.693 8.84541 175.58 9.02674 176.327 9.43474C177.913 10.2961 177.867 10.2507 177.867 9.70674Z" fill="#846966"/>
<path d="M192.193 77.1173C191.82 76.1653 192.753 75.4399 194.48 75.4399C195.74 75.4399 197.467 76.5279 196.953 76.9813C196.86 77.0719 195.787 77.2986 194.62 77.4799C192.94 77.7066 192.427 77.6613 192.193 77.1173Z" fill="#846966"/>
<path d="M150.847 63.6986C150.427 63.4266 150.473 63.1999 151.033 62.7466C151.687 62.2026 151.873 62.2026 152.2 62.7466C152.527 63.2453 152.853 63.2453 153.927 62.792C155.56 62.1573 160.74 60.9333 160.973 61.1599C161.067 61.2506 160.693 61.4319 160.18 61.6133C159.62 61.7493 159.2 62.0666 159.2 62.2933C159.2 63.1546 152.013 64.3786 150.847 63.6986Z" fill="#846966"/>
<path d="M154.58 60.2985C154.16 59.7998 154.207 59.6185 154.813 59.3918C155.233 59.2105 155.7 59.2105 155.84 59.3465C155.98 59.4825 155.887 59.5731 155.7 59.5731C155.467 59.5731 155.7 59.8905 156.213 60.2531C157.1 60.8878 157.1 60.8878 156.12 60.9331C155.56 60.9331 154.86 60.6611 154.58 60.2985Z" fill="#846966"/>
<path d="M128.4 57.9866C128.4 56.4906 128.493 56.3999 130.033 56.3999C131.573 56.3999 131.667 56.4906 131.667 57.9866C131.667 59.4826 131.573 59.5732 130.033 59.5732C128.493 59.5732 128.4 59.4826 128.4 57.9866Z" fill="#846966"/>
<path d="M157.8 58.2131C157.8 57.9864 158.22 57.7598 158.78 57.7598C159.293 57.7598 159.573 57.9864 159.433 58.2131C159.293 58.4851 158.827 58.6664 158.453 58.6664C158.08 58.6664 157.8 58.4851 157.8 58.2131Z" fill="#846966"/>
<path d="M200.22 57.8959C200.173 57.4425 200.127 56.7625 200.08 56.3092C200.033 55.9012 199.893 55.4025 199.707 55.2212C199.053 54.6319 199.287 53.2265 200.033 53.2265C200.407 53.2265 201.153 52.2745 201.667 51.0959C202.413 49.3732 202.553 48.6932 202.18 47.8772C201.48 46.4719 201.527 46.4265 202.833 46.4265C203.86 46.4265 203.953 46.2905 203.533 45.5652C202.787 44.1145 202.927 41.4399 203.813 41.4399C204.233 41.4399 204.653 41.8479 204.793 42.3465C205.167 43.7972 205.96 43.3892 205.773 41.8025C205.68 40.6239 205.353 40.3065 204.047 39.8532C202.507 39.3545 201.48 38.2665 202.553 38.2665C202.833 38.2665 203.067 37.7679 203.067 37.2239C203.067 36.6345 203.487 35.7732 204 35.3199C205.307 34.1865 205.167 33.4159 203.533 32.0559C201.807 30.6959 202.133 29.9705 204.28 30.3785C206.1 30.6959 206.193 30.4239 205.167 27.9759C204.793 27.1145 204.467 25.7999 204.467 25.0745C204.467 24.2132 204.187 23.7145 203.533 23.5332C203.02 23.3972 202.6 23.0799 202.6 22.8532C202.6 22.6265 203.02 22.3092 203.533 22.1732C204.793 21.8105 204.7 20.7225 203.44 20.3145C202.553 20.0425 202.507 19.9519 203.16 19.4985C203.627 19.1812 203.767 18.7279 203.487 18.0932C203.3 17.5945 203.113 16.5065 203.113 15.7359C203.067 14.9199 202.88 14.2399 202.6 14.2399C202.367 14.2399 202.133 13.9225 202.133 13.5599C202.133 13.1972 201.713 12.1999 201.247 11.3839C200.22 9.57055 199.333 7.93855 198.867 7.03188C198.727 6.66922 197.607 5.85322 196.44 5.21855C194.48 4.17588 194.107 4.08521 192.753 4.58388C191.4 5.08255 191.167 5.03721 190.187 4.03988C188.693 2.45321 186.173 2.49855 185.147 4.03988C184.727 4.67455 183.98 5.17321 183.467 5.17321C182.953 5.17321 182.533 5.49055 182.533 5.85321C182.533 6.26121 182.067 6.53321 181.32 6.53321C180.247 6.53321 180.153 6.39722 180.293 4.85588C180.433 3.22388 180.527 3.13321 182.113 2.99721C183.42 2.90655 183.887 2.63455 184.073 1.90922C184.307 1.04788 184.587 1.00255 187.153 1.22922C189.533 1.50122 190 1.41054 190 0.821211C190 0.277211 190.467 0.186546 192.007 0.277213C193.64 0.367879 194.013 0.594546 194.107 1.41055C194.2 1.99988 194.573 2.45321 194.993 2.45321C196.673 2.45321 200.407 4.13055 201.247 5.21855C201.713 5.89855 203.16 8.48255 204.467 10.9759C206.52 14.9652 206.8 15.8719 206.753 18.0479C206.66 19.9519 206.893 20.7679 207.64 21.7199C208.387 22.6719 208.667 23.6239 208.667 25.3919C208.667 26.7519 208.48 27.8399 208.247 27.8399C208.013 27.8399 207.967 28.7465 208.107 29.8799C208.247 31.4665 208.153 31.9652 207.547 32.1919C207.033 32.3732 206.8 33.0079 206.8 34.1865C206.8 35.1839 206.613 36.0905 206.333 36.2265C205.54 36.6799 205.82 37.9945 206.8 38.8559C207.64 39.5359 207.733 40.0799 207.64 42.2559C207.5 44.5225 207.36 44.8399 206.473 44.9759C205.587 45.1119 205.4 45.4292 205.4 46.6985C205.4 47.7865 205.167 48.2399 204.7 48.2399C204.233 48.2399 204 48.6932 204 49.7812C204 50.6425 203.673 51.6399 203.3 52.0479C202.507 52.8185 202.367 54.4052 203.067 54.8132C203.347 54.9492 203.533 55.9012 203.533 56.8985C203.533 58.6212 203.487 58.6665 201.9 58.6665C200.687 58.6665 200.267 58.4852 200.22 57.8959Z" fill="#846966"/>
<path d="M77.5333 56.8531C77.5333 55.5384 78.28 54.2237 78.7466 54.7224C78.9333 54.8584 78.7 55.6744 78.3267 56.4904C77.58 57.8957 77.5333 57.8957 77.5333 56.8531Z" fill="#846966"/>
<path d="M155.793 56.9892C156.167 55.9918 156.867 55.4932 157.94 55.4932C158.64 55.4932 158.547 55.7198 157.427 56.6265C155.793 57.9865 155.373 58.0318 155.793 56.9892Z" fill="#846966"/>
<path d="M162.093 57.2161C162.373 56.4907 163.773 55.6747 164.147 56.0827C164.567 56.4907 163.447 57.7601 162.607 57.7601C162.233 57.7601 162 57.5334 162.093 57.2161Z" fill="#846966"/>
<path d="M213.8 52.8187C213.8 52.0934 213.94 50.8694 214.08 50.0987C214.36 48.8747 214.547 48.6934 215.947 48.6934C217.487 48.6934 217.533 48.7387 217.533 50.688C217.533 53.6347 217.207 54.1334 215.387 54.1334C213.94 54.1334 213.8 53.9974 213.8 52.8187Z" fill="#846966"/>
<path d="M141.7 44.6584C141.84 44.3864 142.633 43.8424 143.427 43.4344C144.173 43.0264 144.687 42.9357 144.5 43.2077C144.36 43.4797 143.567 44.0237 142.773 44.4317C142.027 44.8397 141.513 44.9304 141.7 44.6584Z" fill="#846966"/>
<path d="M32.8267 36.2265C33.06 34.3225 33.0133 34.1865 32.0333 34.1865C31.1 34.1865 30.9133 33.9145 30.7267 32.0558C30.6333 30.8318 30.1667 28.2478 29.7933 26.2532C28.9067 22.0825 28.8133 18.0025 29.4667 16.3252C29.84 15.3732 30.2133 15.1465 31.5667 15.1465C32.8733 15.1465 33.2 15.3278 33.2 16.0078C33.2 16.5518 32.8733 16.8238 32.4067 16.7785C31.0533 16.6878 30.5867 19.5438 31.24 23.8958C32.3133 31.3758 32.8733 33.4612 34.04 33.9598C35.2533 34.5038 35.3467 35.1838 34.2733 36.9518C33.1067 38.8558 32.5933 38.5838 32.8267 36.2265Z" fill="#846966"/>
<path d="M137.127 36.4533C137.407 35.456 138.107 34.8666 138.48 35.2293C138.807 35.5466 137.78 37.36 137.313 37.36C137.08 37.36 136.987 36.952 137.127 36.4533Z" fill="#846966"/>
<path d="M193.033 6.0798C193.173 5.85313 193.827 5.62646 194.433 5.62646C195.04 5.62646 195.693 5.85313 195.833 6.0798C196.02 6.3518 195.46 6.53313 194.433 6.53313C193.407 6.53313 192.847 6.3518 193.033 6.0798Z" fill="#846966"/>
</svg>
