<svg width="98" height="84" viewBox="0 0 98 84" fill="none" xmlns="http://www.w3.org/2000/svg">
<path d="M49.28 83.6634C48.95 83.5922 49.08 83.3697 49.45 83.3697C49.73 83.3697 49.8 83.4053 49.8 83.5477C49.8 83.7257 49.66 83.7524 49.28 83.6634Z" fill="#F7F7F7"/>
<path d="M52.3 83.5477C52.3 83.4053 52.37 83.3697 52.65 83.3697C53.05 83.3697 53.14 83.5833 52.78 83.6723C52.4 83.7613 52.3 83.7346 52.3 83.5477Z" fill="#F7F7F7"/>
<path d="M46.88 83.3074C46.55 83.2362 46.68 83.0138 47.05 83.0138C47.33 83.0138 47.4 83.0494 47.4 83.1917C47.4 83.3697 47.26 83.3964 46.88 83.3074Z" fill="#F7F7F7"/>
<path d="M43.88 82.2306C43.51 82.0349 43.53 81.9459 43.95 81.9459C44.26 81.9459 44.3 81.9726 44.3 82.1683C44.3 82.4264 44.24 82.4353 43.88 82.2306Z" fill="#F7F7F7"/>
<path d="M41.48 80.433C41.2 80.1216 41.2 80.1216 41.46 80.0949C41.79 80.0593 41.82 80.086 41.78 80.4419C41.75 80.7445 41.75 80.7445 41.48 80.433Z" fill="#F7F7F7"/>
<path d="M60.3 80.4152C60.3 80.1394 60.33 80.0771 60.5 80.0771C60.65 80.0771 60.7 80.0148 60.7 79.8546C60.7 79.7122 60.76 79.6321 60.85 79.6321C60.93 79.6321 61 79.552 61 79.4541C61 79.3562 61.05 79.2762 61.1 79.2762C61.16 79.2762 61.2 79.2139 61.2 79.1427C61.2 79.0715 61.25 79.0092 61.3 79.0092C61.36 79.0092 61.4 78.9469 61.4 78.8757C61.4 78.7956 61.49 78.7422 61.65 78.7422C61.79 78.7422 61.9 78.7778 61.9 78.8134C61.9 78.9113 61.02 80.0237 60.61 80.433C60.31 80.7445 60.31 80.7445 60.3 80.4152Z" fill="#F7F7F7"/>
<path d="M62.5 77.1938C62.5 76.909 62.53 76.8734 62.75 76.8734C62.99 76.8734 63 76.8823 62.87 77.1582C62.68 77.5675 62.5 77.5853 62.5 77.1938Z" fill="#F7F7F7"/>
<path d="M62.9 76.3039C62.9 76.0191 62.93 75.9835 63.15 75.9835C63.39 75.9835 63.4 75.9924 63.27 76.2683C63.08 76.6776 62.9 76.6954 62.9 76.3039Z" fill="#F7F7F7"/>
<path d="M38.66 75.9657C38.56 75.6275 38.59 75.5385 38.8 75.5385C38.96 75.5385 39 75.6008 39 75.85C39 76.206 38.76 76.2861 38.66 75.9657Z" fill="#F7F7F7"/>
<path d="M63.2 75.494C63.2 75.2449 63.24 75.1826 63.4 75.1826C63.61 75.1826 63.64 75.2716 63.54 75.6097C63.44 75.9301 63.2 75.85 63.2 75.494Z" fill="#F7F7F7"/>
<path d="M38.26 74.7198C38.16 74.3817 38.19 74.2927 38.4 74.2927C38.56 74.2927 38.6 74.355 38.6 74.6041C38.6 74.9601 38.36 75.0402 38.26 74.7198Z" fill="#F7F7F7"/>
<path d="M63.6 74.0702C63.6 73.821 63.64 73.7587 63.8 73.7587C64.01 73.7587 64.04 73.8477 63.94 74.1859C63.84 74.5062 63.6 74.4261 63.6 74.0702Z" fill="#F7F7F7"/>
<path d="M37.9 69.2914C37.9 69.0244 38.03 68.7752 38.16 68.7752C38.25 68.7752 38.3 68.882 38.3 69.0867C38.3 69.3359 38.26 69.3982 38.1 69.3982C37.99 69.3982 37.9 69.3448 37.9 69.2914Z" fill="#F7F7F7"/>
<path d="M63.7 68.6417C63.7 68.2858 63.94 68.2057 64.04 68.535C64.14 68.8642 64.11 68.9532 63.9 68.9532C63.74 68.9532 63.7 68.8909 63.7 68.6417Z" fill="#F7F7F7"/>
<path d="M38.1 68.1345C38.1 67.8675 38.23 67.6183 38.36 67.6183C38.45 67.6183 38.5 67.7251 38.5 67.9298C38.5 68.179 38.46 68.2413 38.3 68.2413C38.19 68.2413 38.1 68.1879 38.1 68.1345Z" fill="#F7F7F7"/>
<path d="M36.98 66.7551C36.65 66.684 36.78 66.4615 37.15 66.4615C37.43 66.4615 37.5 66.4971 37.5 66.6395C37.5 66.8174 37.36 66.8441 36.98 66.7551Z" fill="#F7F7F7"/>
<path d="M35.58 66.5772C35.25 66.506 35.38 66.2835 35.75 66.2835C36.03 66.2835 36.1 66.3191 36.1 66.4615C36.1 66.6395 35.96 66.6662 35.58 66.5772Z" fill="#F7F7F7"/>
<path d="M66.8 66.3725C66.8 66.2301 66.87 66.1945 67.15 66.1945C67.55 66.1945 67.64 66.4081 67.28 66.4971C66.9 66.5861 66.8 66.5594 66.8 66.3725Z" fill="#F7F7F7"/>
<path d="M33.48 66.3102C33.15 66.239 33.28 66.0165 33.65 66.0165C33.93 66.0165 34 66.0521 34 66.1945C34 66.3725 33.86 66.3992 33.48 66.3102Z" fill="#F7F7F7"/>
<path d="M69.5 66.0165C69.5 65.8741 69.57 65.8385 69.85 65.8385C70.25 65.8385 70.34 66.0521 69.98 66.1411C69.6 66.2301 69.5 66.2034 69.5 66.0165Z" fill="#F7F7F7"/>
<path d="M27.68 65.5093C27.35 65.4381 27.48 65.2156 27.85 65.2156C28.13 65.2156 28.2 65.2512 28.2 65.3936C28.2 65.5716 28.06 65.5983 27.68 65.5093Z" fill="#F7F7F7"/>
<path d="M75.9 65.1444C75.9 65.0109 75.99 64.9575 76.36 64.913C77.05 64.8329 77.2 64.8418 77.2 64.9842C77.2 65.1088 77.09 65.1444 76.28 65.269C75.95 65.3135 75.9 65.3046 75.9 65.1444Z" fill="#F7F7F7"/>
<path d="M24.58 65.0643C24.25 64.9931 24.38 64.7706 24.75 64.7706C25.03 64.7706 25.1 64.8062 25.1 64.9486C25.1 65.1266 24.96 65.1533 24.58 65.0643Z" fill="#F7F7F7"/>
<path d="M22.78 64.7973C22.45 64.7261 22.58 64.5037 22.95 64.5037C23.23 64.5037 23.3 64.5393 23.3 64.6817C23.3 64.8596 23.16 64.8863 22.78 64.7973Z" fill="#F7F7F7"/>
<path d="M78.8 64.6995C78.8 64.566 78.89 64.5126 79.26 64.4681C79.95 64.388 80.1 64.3969 80.1 64.5393C80.1 64.6639 79.99 64.6994 79.18 64.824C78.85 64.8685 78.8 64.8596 78.8 64.6995Z" fill="#F7F7F7"/>
<path d="M16.48 63.8184C16.15 63.7472 16.28 63.5248 16.65 63.5248C16.93 63.5248 17 63.5604 17 63.7028C17 63.8807 16.86 63.9074 16.48 63.8184Z" fill="#F7F7F7"/>
<path d="M85.2 63.7028C85.2 63.5604 85.27 63.5248 85.55 63.5248C85.95 63.5248 86.04 63.7384 85.68 63.8273C85.3 63.9163 85.2 63.8896 85.2 63.7028Z" fill="#F7F7F7"/>
<path d="M86.9 63.4358C86.9 63.2934 86.97 63.2578 87.25 63.2578C87.65 63.2578 87.74 63.4714 87.38 63.5604C87 63.6494 86.9 63.6227 86.9 63.4358Z" fill="#F7F7F7"/>
<path d="M88 63.2756C88 63.1421 88.13 63.0887 88.78 63.0086C89.77 62.8662 89.9 62.8751 89.9 63.0353C89.9 63.1065 89.89 63.1688 89.88 63.1688C89.86 63.1688 89.47 63.2311 89 63.3023C87.95 63.4714 88 63.4714 88 63.2756Z" fill="#F7F7F7"/>
<path d="M11.98 63.1065C11.65 63.0353 11.78 62.8128 12.15 62.8128C12.43 62.8128 12.5 62.8484 12.5 62.9908C12.5 63.1688 12.36 63.1955 11.98 63.1065Z" fill="#F7F7F7"/>
<path d="M90.8 62.8128C90.8 62.6705 90.87 62.6349 91.15 62.6349C91.55 62.6349 91.64 62.8484 91.28 62.9374C90.9 63.0264 90.8 62.9997 90.8 62.8128Z" fill="#F7F7F7"/>
<path d="M10.03 62.7951C9.57 62.7061 9.42 62.4569 9.83 62.4569C10.41 62.4569 10.8 62.5726 10.8 62.7328C10.8 62.9196 10.68 62.9285 10.03 62.7951Z" fill="#F7F7F7"/>
<path d="M91.9 62.6349C91.9 62.4925 91.97 62.4569 92.25 62.4569C92.65 62.4569 92.74 62.6705 92.38 62.7595C92 62.8484 91.9 62.8217 91.9 62.6349Z" fill="#F7F7F7"/>
<path d="M8.15 62.5014C8.1 62.4836 7.79 62.4213 7.48 62.3679C7.1 62.2967 6.9 62.2255 6.9 62.1365C6.9 61.9852 7.13 61.9763 7.96 62.1187C8.47 62.1988 8.6 62.2522 8.6 62.3857C8.6 62.537 8.41 62.5815 8.15 62.5014Z" fill="#F7F7F7"/>
<path d="M94.6 62.1899C94.6 62.0475 94.67 62.0119 94.95 62.0119C95.35 62.0119 95.44 62.2255 95.08 62.3145C94.7 62.4035 94.6 62.3768 94.6 62.1899Z" fill="#F7F7F7"/>
<path d="M4.38 61.8606C4.05 61.7894 4.18 61.567 4.55 61.567C4.83 61.567 4.9 61.6026 4.9 61.745C4.9 61.9229 4.76 61.9496 4.38 61.8606Z" fill="#F7F7F7"/>
<path d="M0.899994 60.9262C0.899994 60.6593 1.02999 60.4101 1.15999 60.4101C1.24999 60.4101 1.29999 60.5169 1.29999 60.7216C1.29999 60.9707 1.25999 61.033 1.09999 61.033C0.989994 61.033 0.899994 60.9796 0.899994 60.9262Z" fill="#F7F7F7"/>
<path d="M33.3 59.4846C33.3 59.3689 33.58 59.2532 33.88 59.2532C33.94 59.2532 34 59.3333 34 59.4312C34 59.5736 33.93 59.6092 33.65 59.6092C33.42 59.6092 33.3 59.5647 33.3 59.4846Z" fill="#F7F7F7"/>
<path d="M28 59.2532C28 59.0663 28.1 59.0396 28.48 59.1286C28.84 59.2176 28.75 59.4312 28.35 59.4312C28.07 59.4312 28 59.3956 28 59.2532Z" fill="#F7F7F7"/>
<path d="M36.4 59.1286C36.4 59.0574 36.59 58.9684 36.84 58.9061C37.44 58.7727 37.5 58.7816 37.5 58.9773C37.5 59.093 37.4 59.1553 37.19 59.1998C36.68 59.2888 36.4 59.2621 36.4 59.1286Z" fill="#F7F7F7"/>
<path d="M24.68 58.9684C24.21 58.8972 24.1 58.8439 24.1 58.7104C24.1 58.5057 24.06 58.5057 25.03 58.6748C25.46 58.746 25.84 58.8083 25.86 58.8083C25.88 58.8083 25.9 58.8706 25.9 58.9417C25.9 59.093 25.57 59.1019 24.68 58.9684Z" fill="#F7F7F7"/>
<path d="M22.78 58.657C22.58 58.6303 22.5 58.568 22.5 58.4434C22.5 58.2476 22.53 58.2387 23.2 58.3722C23.51 58.4345 23.7 58.5146 23.7 58.5947C23.7 58.7193 23.4 58.7371 22.78 58.657Z" fill="#F7F7F7"/>
<path d="M38.5 58.5413C38.5 58.4701 39.01 58.1853 39.15 58.1853C39.18 58.1853 39.2 58.2832 39.2 58.4078C39.2 58.6036 39.16 58.6303 38.85 58.6303C38.66 58.6303 38.5 58.5947 38.5 58.5413Z" fill="#F7F7F7"/>
<path d="M21.5 58.2743C21.5 58.0874 21.6 58.0607 21.98 58.1497C22.34 58.2387 22.25 58.4523 21.85 58.4523C21.57 58.4523 21.5 58.4167 21.5 58.2743Z" fill="#F7F7F7"/>
<path d="M27.3 58.3188C27.22 58.301 26.98 58.2654 26.78 58.2298C26.54 58.1942 26.4 58.1319 26.4 58.0518C26.4 57.9006 26.51 57.8917 27.28 57.9717C27.7 58.0251 27.8 58.0607 27.8 58.1942C27.8 58.3544 27.68 58.3811 27.3 58.3188Z" fill="#F7F7F7"/>
<path d="M19.9 58.0073C19.9 57.8205 20 57.7938 20.38 57.8828C20.74 57.9717 20.65 58.1853 20.25 58.1853C19.97 58.1853 19.9 58.1497 19.9 58.0073Z" fill="#F7F7F7"/>
<path d="M2.9 57.8828C2.9 57.7671 3.18 57.6514 3.48 57.6514C3.54 57.6514 3.6 57.7315 3.6 57.8294C3.6 57.9717 3.53 58.0073 3.25 58.0073C3.02 58.0073 2.9 57.9628 2.9 57.8828Z" fill="#F7F7F7"/>
<path d="M24.78 57.9451C24.45 57.8739 24.58 57.6514 24.95 57.6514C25.23 57.6514 25.3 57.687 25.3 57.8294C25.3 58.0073 25.16 58.034 24.78 57.9451Z" fill="#F7F7F7"/>
<path d="M37.8 57.7849C37.8 57.5891 37.84 57.5624 38.16 57.5624C38.6 57.5624 38.58 57.7226 38.12 57.8916C37.81 58.0073 37.8 57.9984 37.8 57.7849Z" fill="#F7F7F7"/>
<path d="M4.2 57.6158C4.2 57.5001 4.48 57.3844 4.78 57.3844C4.84 57.3844 4.9 57.4645 4.9 57.5624C4.9 57.7048 4.83 57.7404 4.55 57.7404C4.32 57.7404 4.2 57.6959 4.2 57.6158Z" fill="#F7F7F7"/>
<path d="M40.15 57.6514C40.18 57.6069 40.34 57.4823 40.5 57.3844C40.8 57.1975 40.8 57.1975 40.8 57.4645C40.8 57.7226 40.77 57.7404 40.44 57.7404C40.24 57.7404 40.11 57.7048 40.15 57.6514Z" fill="#F7F7F7"/>
<path d="M1.3 57.4734C1.3 57.3577 1.37 57.2954 1.5 57.2954C1.61 57.2954 1.7 57.331 1.7 57.3844C1.7 57.4289 1.61 57.509 1.5 57.5624C1.33 57.6425 1.3 57.6336 1.3 57.4734Z" fill="#F7F7F7"/>
<path d="M15.9 57.4734C15.9 57.2865 16 57.2598 16.38 57.3488C16.74 57.4378 16.65 57.6514 16.25 57.6514C15.97 57.6514 15.9 57.6158 15.9 57.4734Z" fill="#F7F7F7"/>
<path d="M13.9 57.2954C13.9 57.1085 14 57.0818 14.38 57.1708C14.74 57.2598 14.65 57.4734 14.25 57.4734C13.97 57.4734 13.9 57.4378 13.9 57.2954Z" fill="#F7F7F7"/>
<path d="M7.2 57.2598C7.2 57.1441 7.48 57.0284 7.78 57.0284C7.84 57.0284 7.9 57.1085 7.9 57.2064C7.9 57.3488 7.83 57.3844 7.55 57.3844C7.32 57.3844 7.2 57.3399 7.2 57.2598Z" fill="#F7F7F7"/>
<path d="M12.7 57.2064C12.7 57.0195 12.8 56.9928 13.18 57.0818C13.54 57.1708 13.45 57.3844 13.05 57.3844C12.77 57.3844 12.7 57.3488 12.7 57.2064Z" fill="#F7F7F7"/>
<path d="M20.98 57.3221C20.65 57.2509 20.78 57.0284 21.15 57.0284C21.43 57.0284 21.5 57.064 21.5 57.2064C21.5 57.3844 21.36 57.4111 20.98 57.3221Z" fill="#F7F7F7"/>
<path d="M2.6 56.9395C2.6 56.7971 2.67 56.7615 2.95 56.7615C3.35 56.7615 3.44 56.9751 3.08 57.064C2.7 57.153 2.6 57.1263 2.6 56.9395Z" fill="#F7F7F7"/>
<path d="M41.1 56.8505C41.41 56.4589 41.5 56.45 41.5 56.7971C41.5 57.0907 41.48 57.1174 41.19 57.1174C40.89 57.1174 40.89 57.1174 41.1 56.8505Z" fill="#F7F7F7"/>
<path d="M17.28 56.7882C16.95 56.717 17.08 56.4945 17.45 56.4945C17.73 56.4945 17.8 56.5301 17.8 56.6725C17.8 56.8505 17.66 56.8772 17.28 56.7882Z" fill="#F7F7F7"/>
<path d="M16.48 56.6992C16.15 56.628 16.28 56.4055 16.65 56.4055C16.93 56.4055 17 56.4411 17 56.5835C17 56.7615 16.86 56.7882 16.48 56.6992Z" fill="#F7F7F7"/>
<path d="M4.9 56.5123C4.9 56.3788 4.99 56.3254 5.36 56.2809C6.05 56.2008 6.2 56.2097 6.2 56.3521C6.2 56.4767 6.09 56.5123 5.28 56.6369C4.95 56.6814 4.9 56.6725 4.9 56.5123Z" fill="#F7F7F7"/>
<path d="M6.4 56.3165C6.4 56.1741 6.47 56.1385 6.75 56.1385C7.15 56.1385 7.24 56.3521 6.88 56.4411C6.5 56.5301 6.4 56.5034 6.4 56.3165Z" fill="#F7F7F7"/>
<path d="M7.7 56.2275C7.7 56.0851 7.77 56.0495 8.05 56.0495C8.45 56.0495 8.54 56.2631 8.18 56.3521C7.8 56.4411 7.7 56.4144 7.7 56.2275Z" fill="#F7F7F7"/>
<path d="M42.23 55.1418C42.42 54.7325 42.6 54.7147 42.6 55.1062C42.6 55.391 42.57 55.4266 42.35 55.4266C42.11 55.4266 42.1 55.4177 42.23 55.1418Z" fill="#F7F7F7"/>
<path d="M41.2 54.8571C41.2 54.5723 41.23 54.5367 41.45 54.5367C41.69 54.5367 41.7 54.5456 41.57 54.8215C41.38 55.2308 41.2 55.2486 41.2 54.8571Z" fill="#F7F7F7"/>
<path d="M42.9 53.451C42.9 53.184 43.03 52.9349 43.16 52.9349C43.25 52.9349 43.3 53.0416 43.3 53.2463C43.3 53.4955 43.26 53.5578 43.1 53.5578C42.99 53.5578 42.9 53.5044 42.9 53.451Z" fill="#F7F7F7"/>
<path d="M42 52.5344C42 52.2852 42.04 52.2229 42.2 52.2229C42.41 52.2229 42.44 52.3119 42.34 52.6501C42.24 52.9705 42 52.8904 42 52.5344Z" fill="#F7F7F7"/>
<path d="M41.9 49.3307C41.9 48.9748 42.14 48.8947 42.24 49.2239C42.34 49.5532 42.31 49.6422 42.1 49.6422C41.94 49.6422 41.9 49.5799 41.9 49.3307Z" fill="#F7F7F7"/>
<path d="M3.2 48.8235C3.2 48.5565 3.33 48.3073 3.46 48.3073C3.55 48.3073 3.6 48.4141 3.6 48.6188C3.6 48.868 3.56 48.9303 3.4 48.9303C3.29 48.9303 3.2 48.8769 3.2 48.8235Z" fill="#F7F7F7"/>
<path d="M42.86 48.7612C42.83 48.7256 42.76 48.5832 42.71 48.4497C42.61 48.2361 42.63 48.2184 42.85 48.2184C43.07 48.2184 43.1 48.2539 43.1 48.5298C43.1 48.8235 42.98 48.9392 42.86 48.7612Z" fill="#F7F7F7"/>
<path d="M41.46 48.5209C41.37 48.3251 41.39 47.8624 41.48 47.8624C41.57 47.8624 41.77 48.1471 41.9 48.4497C41.98 48.6366 41.97 48.6633 41.76 48.6633C41.63 48.6633 41.49 48.601 41.46 48.5209Z" fill="#F7F7F7"/>
<path d="M42.17 47.5153C41.95 47.1772 41.95 47.1505 42.25 47.1505C42.47 47.1505 42.5 47.1861 42.5 47.4619C42.5 47.8446 42.4 47.8535 42.17 47.5153Z" fill="#F7F7F7"/>
<path d="M40.7 47.2395C40.7 47.017 40.66 46.9725 40.45 46.9725C40.24 46.9725 40.2 46.928 40.2 46.6966C40.2 46.4474 40.22 46.4296 40.37 46.5364C40.56 46.6699 40.97 47.0793 41.18 47.3462C41.3 47.4886 41.28 47.5064 41.01 47.5064C40.73 47.5064 40.7 47.4797 40.7 47.2395Z" fill="#F7F7F7"/>
<path d="M5.32 46.7767C5.35 46.7144 5.51 46.6165 5.68 46.5542C5.99 46.4385 6 46.4474 6 46.661C6 46.8568 5.96 46.8835 5.64 46.8835C5.41 46.8835 5.3 46.8479 5.32 46.7767Z" fill="#F7F7F7"/>
<path d="M4.8 45.9491C4.8 45.7533 4.84 45.7266 5.16 45.7266C5.6 45.7266 5.58 45.8868 5.12 46.0559C4.81 46.1716 4.8 46.1627 4.8 45.9491Z" fill="#F7F7F7"/>
<path d="M53.7 46.0559C53.7 45.9936 53.91 45.8779 54.18 45.7978C54.44 45.7177 54.82 45.5931 55.03 45.513C55.4 45.3706 55.4 45.3707 55.4 45.5931C55.4 45.7889 55.36 45.8156 55.05 45.8156C54.82 45.8156 54.7 45.8601 54.7 45.9402C54.7 46.0737 54.4 46.1716 53.98 46.1716C53.81 46.1716 53.7 46.1271 53.7 46.0559Z" fill="#F7F7F7"/>
<path d="M7.82 45.7978C7.85 45.7355 8.01 45.6376 8.18 45.5753C8.49 45.4596 8.5 45.4685 8.5 45.6821C8.5 45.8779 8.46 45.9046 8.14 45.9046C7.91 45.9046 7.8 45.869 7.82 45.7978Z" fill="#F7F7F7"/>
<path d="M5.7 45.5931C5.7 45.3973 5.74 45.3706 6.06 45.3706C6.5 45.3706 6.48 45.5308 6.02 45.6999C5.71 45.8156 5.7 45.8067 5.7 45.5931Z" fill="#F7F7F7"/>
<path d="M51.8 45.4685C51.8 45.3083 52.19 45.1927 52.78 45.1927C53.22 45.1927 53.01 45.4418 52.5 45.5397C51.83 45.6643 51.8 45.6643 51.8 45.4685Z" fill="#F7F7F7"/>
<path d="M39.75 45.1393C39.42 44.9168 38.96 44.632 38.73 44.4985C38.49 44.365 38.3 44.2316 38.3 44.196C38.3 44.1515 38.46 44.1248 38.65 44.1248C38.84 44.1248 39 44.1693 39 44.2138C39 44.2672 39.07 44.3028 39.15 44.3028C39.24 44.3028 39.3 44.3828 39.3 44.5252C39.3 44.721 39.34 44.7477 39.65 44.7477C39.89 44.7477 40 44.7922 40 44.8812C40 44.9524 40.09 45.0147 40.2 45.0147C40.36 45.0147 40.4 45.077 40.4 45.2817C40.4 45.4329 40.39 45.5486 40.38 45.5486C40.36 45.5486 40.08 45.3617 39.75 45.1393Z" fill="#F7F7F7"/>
<path d="M47.75 45.3706C47.37 45.2728 47.02 45.1927 46.98 45.1927C46.93 45.1927 46.9 45.1304 46.9 45.0592C46.9 44.9702 47.01 44.9257 47.25 44.9257C47.44 44.9257 47.6 44.9613 47.6 45.0058C47.6 45.0414 47.87 45.1037 48.2 45.1393C48.71 45.1927 48.8 45.2283 48.8 45.3706C48.8 45.5931 48.66 45.5842 47.75 45.3706Z" fill="#F7F7F7"/>
<path d="M9.02 45.3528C9.05 45.2905 9.21 45.1927 9.38 45.1304C9.69 45.0147 9.7 45.0236 9.7 45.2372C9.7 45.4329 9.66 45.4596 9.34 45.4596C9.11 45.4596 9 45.424 9.02 45.3528Z" fill="#F7F7F7"/>
<path d="M55.7 45.2995C55.7 45.2372 56.72 44.6587 56.84 44.6587C56.87 44.6587 56.9 44.7566 56.9 44.8812C56.9 45.0592 56.85 45.1037 56.65 45.1037C56.49 45.1037 56.4 45.1571 56.4 45.2372C56.4 45.3262 56.29 45.3706 56.05 45.3706C55.86 45.3706 55.7 45.344 55.7 45.2995Z" fill="#F7F7F7"/>
<path d="M43.83 45.1304C43.64 45.0414 43.5 44.9168 43.5 44.8189C43.5 44.6943 43.42 44.6587 43.15 44.6587C42.96 44.6587 42.8 44.6231 42.8 44.5697C42.8 44.5252 42.73 44.4807 42.65 44.4807C42.57 44.4807 42.5 44.4451 42.5 44.3918C42.5 44.3473 42.43 44.3028 42.35 44.3028C42.25 44.3028 42.2 44.2138 42.2 44.0358C42.2 43.7599 42.2 43.7599 42.78 44.107C43.09 44.2939 43.68 44.6053 44.08 44.7922C44.47 44.9702 44.8 45.1571 44.8 45.2016C44.8 45.3351 44.18 45.2817 43.83 45.1304Z" fill="#F7F7F7"/>
<path d="M7.3 44.9702C7.3 44.7744 7.34 44.7477 7.66 44.7477C8.1 44.7477 8.08 44.9079 7.62 45.077C7.31 45.1927 7.3 45.1838 7.3 44.9702Z" fill="#F7F7F7"/>
<path d="M97.1 44.7833C97.1 44.3917 97.28 44.4095 97.47 44.8189C97.6 45.0948 97.59 45.1037 97.35 45.1037C97.13 45.1037 97.1 45.0681 97.1 44.7833Z" fill="#F7F7F7"/>
<path d="M46.03 44.8812C45.6 44.721 45.61 44.5697 46.05 44.5697C46.36 44.5697 46.4 44.5964 46.4 44.7922C46.4 44.9168 46.39 45.0147 46.38 45.0147C46.36 45.0058 46.2 44.9524 46.03 44.8812Z" fill="#F7F7F7"/>
<path d="M4.9 44.6765C4.9 44.6053 5.42 44.3027 5.54 44.3027C5.57 44.3027 5.6 44.4006 5.6 44.5252C5.6 44.721 5.56 44.7477 5.25 44.7477C5.06 44.7477 4.9 44.7121 4.9 44.6765Z" fill="#F7F7F7"/>
<path d="M8.5 44.5252C8.5 44.3294 8.54 44.3027 8.86 44.3027C9.3 44.3027 9.28 44.4629 8.82 44.632C8.51 44.7477 8.5 44.7388 8.5 44.5252Z" fill="#F7F7F7"/>
<path d="M11.12 44.6409C11.15 44.5786 11.31 44.4807 11.48 44.4184C11.79 44.3028 11.8 44.3117 11.8 44.5252C11.8 44.721 11.76 44.7477 11.44 44.7477C11.21 44.7477 11.1 44.7121 11.12 44.6409Z" fill="#F7F7F7"/>
<path d="M45.13 44.5252C44.7 44.3651 44.71 44.2138 45.15 44.2138C45.46 44.2138 45.5 44.2405 45.5 44.4362C45.5 44.5608 45.49 44.6587 45.48 44.6587C45.46 44.6498 45.3 44.5964 45.13 44.5252Z" fill="#F7F7F7"/>
<path d="M11.92 44.374C11.95 44.3117 12.11 44.2138 12.28 44.1515C12.59 44.0358 12.6 44.0447 12.6 44.2583C12.6 44.454 12.56 44.4807 12.24 44.4807C12.01 44.4807 11.9 44.4451 11.92 44.374Z" fill="#F7F7F7"/>
<path d="M55.6 44.2583C55.6 44.0625 55.64 44.0358 55.95 44.0358C56.38 44.0358 56.39 44.1248 56.01 44.3295C55.63 44.5252 55.6 44.5252 55.6 44.2583Z" fill="#F7F7F7"/>
<path d="M96.8 44.0714C96.8 43.6798 96.98 43.6976 97.17 44.107C97.3 44.3828 97.29 44.3917 97.05 44.3917C96.83 44.3917 96.8 44.3561 96.8 44.0714Z" fill="#F7F7F7"/>
<path d="M44.28 44.1426C43.91 43.9468 43.93 43.8578 44.35 43.8578C44.66 43.8578 44.7 43.8845 44.7 44.0803C44.7 44.3384 44.64 44.3473 44.28 44.1426Z" fill="#F7F7F7"/>
<path d="M5.9 44.1426C5.9 44.0714 6.42 43.7688 6.54 43.7688C6.57 43.7688 6.6 43.8667 6.6 43.9913C6.6 44.1871 6.56 44.2138 6.25 44.2138C6.06 44.2138 5.9 44.1782 5.9 44.1426Z" fill="#F7F7F7"/>
<path d="M35.6 44.0803C35.6 43.9913 35.49 43.9468 35.25 43.9468C35.06 43.9468 34.9 43.9112 34.9 43.8578C34.9 43.8133 34.79 43.7688 34.65 43.7688C34.45 43.7688 34.4 43.7243 34.4 43.5463C34.4 43.3239 34.4 43.3239 34.88 43.4929C36.36 44.0269 36.65 44.2138 35.95 44.2138C35.71 44.2138 35.6 44.1693 35.6 44.0803Z" fill="#F7F7F7"/>
<path d="M36.98 43.6264C36.43 43.3773 36.37 43.2349 36.8 43.2349C37.26 43.2349 37.6 43.4128 37.6 43.6531C37.6 43.9023 37.57 43.9023 36.98 43.6264Z" fill="#F7F7F7"/>
<path d="M5.1 43.6442C5.1 43.6264 5.19 43.4217 5.3 43.1993C5.49 42.7988 5.7 42.6564 5.7 42.9234C5.7 42.9946 5.79 43.0569 5.9 43.0569C6.21 43.0569 6.14 43.1726 5.65 43.4395C5.2 43.6798 5.1 43.7154 5.1 43.6442Z" fill="#F7F7F7"/>
<path d="M11.6 43.4662C11.6 43.2438 11.81 43.1459 12.33 43.1459C12.75 43.1459 12.61 43.3417 12.07 43.5196C11.6 43.6798 11.6 43.6798 11.6 43.4662Z" fill="#F7F7F7"/>
<path d="M7.1 43.5196C7.1 43.4484 7.62 43.1459 7.74 43.1459C7.77 43.1459 7.8 43.2438 7.8 43.3684C7.8 43.5641 7.76 43.5908 7.45 43.5908C7.26 43.5908 7.1 43.5552 7.1 43.5196Z" fill="#F7F7F7"/>
<path d="M57.4 43.1548C57.4 42.8967 57.43 42.8789 57.76 42.8789C58.15 42.8789 58.14 42.959 57.7 43.2349C57.4 43.4217 57.4 43.4217 57.4 43.1548Z" fill="#F7F7F7"/>
<path d="M58.85 43.2349C58.88 43.1904 59.04 43.0658 59.2 42.9679C59.5 42.781 59.5 42.781 59.5 43.048C59.5 43.3061 59.47 43.3238 59.14 43.3238C58.94 43.3238 58.81 43.2883 58.85 43.2349Z" fill="#F7F7F7"/>
<path d="M35.31 42.9412C34.65 42.7009 34.54 42.5229 35.04 42.5229C35.24 42.5229 35.4 42.5674 35.4 42.6119C35.4 42.6653 35.51 42.7009 35.65 42.7009C35.85 42.7009 35.9 42.7454 35.9 42.9234C35.9 43.048 35.89 43.1459 35.88 43.1459C35.86 43.137 35.61 43.048 35.31 42.9412Z" fill="#F7F7F7"/>
<path d="M40.5 42.87C40.5 42.603 40.5 42.603 40.8 42.7899C41.24 43.0658 41.25 43.1459 40.86 43.1459C40.53 43.1459 40.5 43.1281 40.5 42.87Z" fill="#F7F7F7"/>
<path d="M95.9 42.9234C95.9 42.7098 95.91 42.7009 96.22 42.8166C96.68 42.9857 96.7 43.1459 96.26 43.1459C95.94 43.1459 95.9 43.1192 95.9 42.9234Z" fill="#F7F7F7"/>
<path d="M32.1 42.9679C32.1 42.9234 31.94 42.8789 31.75 42.8789C31.56 42.8789 31.4 42.8433 31.4 42.7899C31.4 42.7454 31.24 42.7009 31.05 42.7009C30.77 42.7009 30.7 42.6653 30.7 42.5229C30.7 42.3005 30.71 42.3005 31.85 42.5852C32.84 42.8344 33.12 43.0569 32.45 43.0569C32.26 43.0569 32.1 43.0213 32.1 42.9679Z" fill="#F7F7F7"/>
<path d="M8.4 42.8967C8.4 42.8255 8.92 42.5229 9.04 42.5229C9.07 42.5229 9.1 42.6208 9.1 42.7454C9.1 42.9412 9.06 42.9679 8.75 42.9679C8.56 42.9679 8.4 42.9323 8.4 42.8967Z" fill="#F7F7F7"/>
<path d="M13.7 42.7899C13.7 42.6475 13.77 42.6119 14.05 42.6119C14.45 42.6119 14.54 42.8255 14.18 42.9145C13.8 43.0035 13.7 42.9768 13.7 42.7899Z" fill="#F7F7F7"/>
<path d="M41.9 42.7009C41.55 42.4428 41.55 42.4428 41.93 42.4339C42.28 42.4339 42.3 42.4517 42.3 42.7009C42.3 42.8522 42.29 42.9679 42.27 42.9679C42.26 42.9679 42.09 42.8522 41.9 42.7009Z" fill="#F7F7F7"/>
<path d="M18.1 42.7543C18.1 42.6386 18.38 42.5229 18.68 42.5229C18.74 42.5229 18.8 42.603 18.8 42.7009C18.8 42.8433 18.73 42.8789 18.45 42.8789C18.22 42.8789 18.1 42.8344 18.1 42.7543Z" fill="#F7F7F7"/>
<path d="M95 42.5674C95 42.3539 95.01 42.345 95.32 42.4606C95.78 42.6297 95.8 42.7899 95.36 42.7899C95.04 42.7899 95 42.7632 95 42.5674Z" fill="#F7F7F7"/>
<path d="M7 42.4784C7 42.2827 7.04 42.256 7.35 42.256C7.78 42.256 7.79 42.345 7.41 42.5496C7.03 42.7454 7 42.7454 7 42.4784Z" fill="#F7F7F7"/>
<path d="M59.8 42.6297C59.8 42.5674 61.03 41.9 61.15 41.9C61.18 41.9 61.2 41.9979 61.2 42.1225C61.2 42.3183 61.16 42.345 60.85 42.345C60.57 42.345 60.5 42.3806 60.5 42.5229C60.5 42.6653 60.43 42.7009 60.15 42.7009C59.96 42.7009 59.8 42.6653 59.8 42.6297Z" fill="#F7F7F7"/>
<path d="M33.33 42.3183C32.63 42.1047 32.5 41.9 33.05 41.9C33.24 41.9 33.4 41.9445 33.4 41.989C33.4 42.0424 33.54 42.078 33.7 42.078C33.95 42.078 34 42.1136 34 42.3005C34 42.425 33.99 42.514 33.98 42.514C33.96 42.5051 33.67 42.4161 33.33 42.3183Z" fill="#F7F7F7"/>
<path d="M29.4 42.256C29.4 42.0691 29.5 42.0424 29.88 42.1314C30.24 42.2204 30.15 42.4339 29.75 42.4339C29.47 42.4339 29.4 42.3983 29.4 42.256Z" fill="#F7F7F7"/>
<path d="M16.1 42.1759C16.1 42.0068 16.44 41.9 16.96 41.9C17.37 41.9 17.23 42.1403 16.76 42.2471C16.16 42.3806 16.1 42.3717 16.1 42.1759Z" fill="#F7F7F7"/>
<path d="M8.1 41.9445C8.1 41.7487 8.14 41.722 8.45 41.722C8.88 41.722 8.89 41.811 8.51 42.0157C8.13 42.2115 8.1 42.2115 8.1 41.9445Z" fill="#F7F7F7"/>
<path d="M23.3 42.0424C23.3 41.9267 23.58 41.811 23.88 41.811C23.94 41.811 24 41.8911 24 41.989C24 42.1314 23.93 42.167 23.65 42.167C23.42 42.167 23.3 42.1225 23.3 42.0424Z" fill="#F7F7F7"/>
<path d="M27.3 41.989C27.3 41.8021 27.4 41.7754 27.78 41.8644C28.14 41.9534 28.05 42.167 27.65 42.167C27.37 42.167 27.3 42.1314 27.3 41.989Z" fill="#F7F7F7"/>
<path d="M10.42 41.9712C10.45 41.9089 10.61 41.811 10.78 41.7487C11.09 41.633 11.1 41.6419 11.1 41.8555C11.1 42.0513 11.06 42.078 10.74 42.078C10.51 42.078 10.4 42.0424 10.42 41.9712Z" fill="#F7F7F7"/>
<path d="M6.03 41.6152C6.22 41.2059 6.4 41.1881 6.4 41.5796C6.4 41.8644 6.37 41.9 6.15 41.9C5.91 41.9 5.9 41.8911 6.03 41.6152Z" fill="#F7F7F7"/>
<path d="M92.4 41.6775C92.4 41.4639 92.41 41.455 92.72 41.5707C93.18 41.7398 93.2 41.9 92.76 41.9C92.44 41.9 92.4 41.8733 92.4 41.6775Z" fill="#F7F7F7"/>
<path d="M31.12 41.7131C30.99 41.6686 30.84 41.6508 30.8 41.6775C30.75 41.7042 30.69 41.6864 30.66 41.6419C30.63 41.6063 30.42 41.544 30.2 41.5084C29.68 41.4372 29.64 41.1881 30.15 41.1881C30.34 41.1881 30.5 41.2237 30.5 41.2682C30.5 41.3127 30.77 41.375 31.1 41.4105C31.6 41.4639 31.7 41.4995 31.7 41.6419C31.7 41.8288 31.5 41.8555 31.12 41.7131Z" fill="#F7F7F7"/>
<path d="M61.72 41.7042C61.75 41.6419 61.91 41.544 62.08 41.4817C62.39 41.3661 62.4 41.375 62.4 41.5885C62.4 41.7843 62.36 41.811 62.04 41.811C61.81 41.811 61.7 41.7754 61.72 41.7042Z" fill="#F7F7F7"/>
<path d="M19.1 41.544C19.1 41.4017 19.17 41.3661 19.45 41.3661C19.85 41.3661 19.94 41.5796 19.58 41.6686C19.2 41.7576 19.1 41.7309 19.1 41.544Z" fill="#F7F7F7"/>
<path d="M39.88 41.4283C39.62 41.2682 39.4 41.1169 39.4 41.0813C39.4 41.0368 39.56 41.0101 39.75 41.0101C39.94 41.0101 40.1 41.0546 40.1 41.0991C40.1 41.1525 40.17 41.1881 40.25 41.1881C40.35 41.1881 40.4 41.2771 40.4 41.455C40.4 41.6063 40.39 41.722 40.38 41.7131C40.36 41.7131 40.14 41.5796 39.88 41.4283Z" fill="#F7F7F7"/>
<path d="M11.5 41.544C11.5 41.4639 11.94 41.2593 12.68 41.0012C12.87 40.9389 12.9 40.9567 12.9 41.1436C12.9 41.3394 12.86 41.3661 12.55 41.3661C12.31 41.3661 12.2 41.4106 12.2 41.4995C12.2 41.5885 12.09 41.633 11.85 41.633C11.66 41.633 11.5 41.5885 11.5 41.544Z" fill="#F7F7F7"/>
<path d="M94.63 41.4995C94.2 41.3394 94.21 41.1881 94.65 41.1881C94.96 41.1881 95 41.2148 95 41.4105C95 41.5351 94.99 41.633 94.98 41.633C94.96 41.6241 94.8 41.5707 94.63 41.4995Z" fill="#F7F7F7"/>
<path d="M9.5 41.3305C9.5 41.1614 9.55 41.0991 9.7 41.0991C9.81 41.0991 9.9 41.0635 9.9 41.0101C9.9 40.9656 10.06 40.9211 10.25 40.9211C10.84 40.9211 10.72 41.0279 9.58 41.5262C9.53 41.544 9.5 41.455 9.5 41.3305Z" fill="#F7F7F7"/>
<path d="M60.2 41.3216C60.2 41.1258 60.24 41.0991 60.55 41.0991C60.98 41.0991 60.99 41.1881 60.61 41.3928C60.23 41.5885 60.2 41.5885 60.2 41.3216Z" fill="#F7F7F7"/>
<path d="M91.2 41.3661C91.2 41.1792 91.3 41.1525 91.68 41.2415C92.04 41.3305 91.95 41.544 91.55 41.544C91.27 41.544 91.2 41.5084 91.2 41.3661Z" fill="#F7F7F7"/>
<path d="M28.9 41.3216C28.82 41.3038 28.58 41.2682 28.38 41.2326C28.14 41.197 28 41.1347 28 41.0546C28 40.9033 28.11 40.8944 28.88 40.9745C29.3 41.0279 29.4 41.0635 29.4 41.197C29.4 41.3572 29.28 41.3839 28.9 41.3216Z" fill="#F7F7F7"/>
<path d="M62.92 41.2593C62.95 41.197 63.11 41.0991 63.28 41.0368C63.59 40.9211 63.6 40.93 63.6 41.1436C63.6 41.3394 63.56 41.3661 63.24 41.3661C63.01 41.3661 62.9 41.3305 62.92 41.2593Z" fill="#F7F7F7"/>
<path d="M22.5 41.0991C22.5 40.9567 22.57 40.9211 22.85 40.9211C23.25 40.9211 23.34 41.1347 22.98 41.2237C22.6 41.3127 22.5 41.286 22.5 41.0991Z" fill="#F7F7F7"/>
<path d="M89.5 40.9211C89.5 40.7342 89.6 40.7075 89.98 40.7965C90.34 40.8855 90.25 41.0991 89.85 41.0991C89.57 41.0991 89.5 41.0635 89.5 40.9211Z" fill="#F7F7F7"/>
<path d="M95.2 40.6007C95.2 40.2092 95.38 40.227 95.57 40.6363C95.7 40.9122 95.69 40.9211 95.45 40.9211C95.23 40.9211 95.2 40.8855 95.2 40.6007Z" fill="#F7F7F7"/>
<path d="M11.2 40.6096C11.2 40.4139 11.24 40.3872 11.56 40.3872C12 40.3872 11.98 40.5473 11.52 40.7164C11.21 40.8321 11.2 40.8232 11.2 40.6096Z" fill="#F7F7F7"/>
<path d="M35.9 40.4317C35.9 40.2181 35.91 40.2092 36.22 40.3249C36.68 40.4939 36.7 40.6541 36.26 40.6541C35.94 40.6541 35.9 40.6274 35.9 40.4317Z" fill="#F7F7F7"/>
<path d="M14.52 40.4583C14.55 40.3961 14.71 40.2982 14.88 40.2359C15.19 40.1202 15.2 40.1291 15.2 40.3427C15.2 40.5384 15.16 40.5651 14.84 40.5651C14.61 40.5651 14.5 40.5295 14.52 40.4583Z" fill="#F7F7F7"/>
<path d="M12.1 40.2537C12.1 40.0757 12.15 40.0312 12.35 40.0312C12.49 40.0312 12.6 39.9956 12.6 39.9422C12.6 39.8977 12.71 39.8532 12.85 39.8532C12.99 39.8532 13.1 39.8176 13.1 39.7642C13.1 39.7197 13.26 39.6752 13.45 39.6752C13.9 39.6752 13.9 39.8265 13.45 39.9956C12.1 40.4939 12.1 40.4939 12.1 40.2537Z" fill="#F7F7F7"/>
<path d="M66.2 40.3516C66.2 40.2359 66.48 40.1202 66.78 40.1202C66.84 40.1202 66.9 40.2003 66.9 40.2982C66.9 40.4405 66.83 40.4761 66.55 40.4761C66.32 40.4761 66.2 40.4316 66.2 40.3516Z" fill="#F7F7F7"/>
<path d="M86 40.2092C86 40.0223 86.1 39.9956 86.48 40.0846C86.84 40.1736 86.75 40.3872 86.35 40.3872C86.07 40.3872 86 40.3516 86 40.2092Z" fill="#F7F7F7"/>
<path d="M90.33 40.227C89.71 40.0757 89.61 39.8532 90.15 39.8532C90.34 39.8532 90.5 39.8977 90.5 39.9422C90.5 39.9956 90.66 40.0312 90.85 40.0312C91.13 40.0312 91.2 40.0668 91.2 40.2092C91.2 40.4228 91.06 40.4228 90.33 40.227Z" fill="#F7F7F7"/>
<path d="M67.1 40.1736C67.1 40.0579 67.38 39.9422 67.68 39.9422C67.74 39.9422 67.8 40.0223 67.8 40.1202C67.8 40.2626 67.73 40.2982 67.45 40.2982C67.22 40.2982 67.1 40.2537 67.1 40.1736Z" fill="#F7F7F7"/>
<path d="M37.08 39.9778C36.51 39.7108 36.47 39.5862 36.95 39.5862C37.14 39.5862 37.3 39.6307 37.3 39.6752C37.3 39.7286 37.39 39.7642 37.5 39.7642C37.65 39.7642 37.7 39.8265 37.7 39.9867C37.7 40.2537 37.68 40.2537 37.08 39.9778Z" fill="#F7F7F7"/>
<path d="M34.5 39.8977C34.5 39.6841 34.51 39.6752 34.82 39.7909C35.28 39.96 35.3 40.1202 34.86 40.1202C34.54 40.1202 34.5 40.0935 34.5 39.8977Z" fill="#F7F7F7"/>
<path d="M68.1 39.9956C68.1 39.8799 68.38 39.7642 68.68 39.7642C68.74 39.7642 68.8 39.8443 68.8 39.9422C68.8 40.0846 68.73 40.1202 68.45 40.1202C68.22 40.1202 68.1 40.0757 68.1 39.9956Z" fill="#F7F7F7"/>
<path d="M83.7 39.8532C83.7 39.6663 83.8 39.6396 84.18 39.7286C84.54 39.8176 84.45 40.0312 84.05 40.0312C83.77 40.0312 83.7 39.9956 83.7 39.8532Z" fill="#F7F7F7"/>
<path d="M82.1 39.6752C82.1 39.4883 82.2 39.4617 82.58 39.5506C82.94 39.6396 82.85 39.8532 82.45 39.8532C82.17 39.8532 82.1 39.8176 82.1 39.6752Z" fill="#F7F7F7"/>
<path d="M14.2 39.5417C14.2 39.346 14.24 39.3193 14.56 39.3193C15 39.3193 14.98 39.4795 14.52 39.6485C14.21 39.7642 14.2 39.7553 14.2 39.5417Z" fill="#F7F7F7"/>
<path d="M70.8 39.6396C70.8 39.524 71.08 39.4083 71.38 39.4083C71.44 39.4083 71.5 39.4884 71.5 39.5862C71.5 39.7286 71.43 39.7642 71.15 39.7642C70.92 39.7642 70.8 39.7197 70.8 39.6396Z" fill="#F7F7F7"/>
<path d="M81.2 39.5862C81.2 39.3994 81.3 39.3727 81.68 39.4617C82.04 39.5506 81.95 39.7642 81.55 39.7642C81.27 39.7642 81.2 39.7286 81.2 39.5862Z" fill="#F7F7F7"/>
<path d="M33.1 39.4973C33.1 39.3104 33.2 39.2837 33.58 39.3727C33.94 39.4617 33.85 39.6752 33.45 39.6752C33.17 39.6752 33.1 39.6396 33.1 39.4973Z" fill="#F7F7F7"/>
<path d="M65.4 39.4972C65.4 39.3549 65.47 39.3193 65.75 39.3193C66.15 39.3193 66.24 39.5328 65.88 39.6218C65.5 39.7108 65.4 39.6841 65.4 39.4972Z" fill="#F7F7F7"/>
<path d="M71.9 39.5506C71.9 39.435 72.18 39.3193 72.48 39.3193C72.54 39.3193 72.6 39.3994 72.6 39.4972C72.6 39.6396 72.53 39.6752 72.25 39.6752C72.02 39.6752 71.9 39.6307 71.9 39.5506Z" fill="#F7F7F7"/>
<path d="M73.3 39.4617C73.3 39.346 73.58 39.2303 73.88 39.2303C73.94 39.2303 74 39.3104 74 39.4083C74 39.5506 73.93 39.5862 73.65 39.5862C73.42 39.5862 73.3 39.5417 73.3 39.4617Z" fill="#F7F7F7"/>
<path d="M78.5 39.4083C78.5 39.2214 78.6 39.1947 78.98 39.2837C79.34 39.3727 79.25 39.5862 78.85 39.5862C78.57 39.5862 78.5 39.5506 78.5 39.4083Z" fill="#F7F7F7"/>
<path d="M94.42 39.3638C94.27 39.0879 94.26 38.6073 94.4 38.6073C94.5 38.6073 94.72 38.9455 94.9 39.3638C94.98 39.5595 94.97 39.5862 94.76 39.5862C94.61 39.5862 94.49 39.5062 94.42 39.3638Z" fill="#F7F7F7"/>
<path d="M15 39.2659C15 39.079 15.05 39.0523 15.35 39.0523C15.57 39.0523 15.7 39.0968 15.7 39.168C15.7 39.2392 15.54 39.3282 15.35 39.3816C15.02 39.4794 15 39.4706 15 39.2659Z" fill="#F7F7F7"/>
<path d="M18.9 39.2837C18.9 39.168 19.18 39.0523 19.48 39.0523C19.54 39.0523 19.6 39.1324 19.6 39.2303C19.6 39.3727 19.53 39.4083 19.25 39.4083C19.02 39.4083 18.9 39.3638 18.9 39.2837Z" fill="#F7F7F7"/>
<path d="M85.65 39.2748C85.6 39.257 85.38 39.2214 85.18 39.1858C84.94 39.1502 84.8 39.0879 84.8 39.0078C84.8 38.8565 84.95 38.8476 85.64 38.9277C86 38.9722 86.1 39.0256 86.1 39.1502C86.1 39.3104 85.92 39.3549 85.65 39.2748Z" fill="#F7F7F7"/>
<path d="M30.8 38.9633C30.8 38.7764 30.9 38.7497 31.28 38.8387C31.64 38.9277 31.55 39.1413 31.15 39.1413C30.87 39.1413 30.8 39.1057 30.8 38.9633Z" fill="#F7F7F7"/>
<path d="M34.33 38.9188C33.9 38.7586 33.91 38.6073 34.35 38.6073C34.66 38.6073 34.7 38.634 34.7 38.8298C34.7 38.9544 34.69 39.0523 34.68 39.0523C34.66 39.0434 34.5 38.99 34.33 38.9188Z" fill="#F7F7F7"/>
<path d="M83.68 38.99C83.35 38.9188 83.48 38.6963 83.85 38.6963C84.13 38.6963 84.2 38.7319 84.2 38.8743C84.2 39.0523 84.06 39.079 83.68 38.99Z" fill="#F7F7F7"/>
<path d="M21.6 38.8387C21.6 38.723 21.88 38.6073 22.18 38.6073C22.24 38.6073 22.3 38.6874 22.3 38.7853C22.3 38.9277 22.23 38.9633 21.95 38.9633C21.72 38.9633 21.6 38.9188 21.6 38.8387Z" fill="#F7F7F7"/>
<path d="M69.6 38.7853C69.6 38.6429 69.67 38.6073 69.95 38.6073C70.35 38.6073 70.44 38.8209 70.08 38.9099C69.7 38.9989 69.6 38.9722 69.6 38.7853Z" fill="#F7F7F7"/>
<path d="M29 38.6963C29 38.5095 29.1 38.4828 29.48 38.5717C29.84 38.6607 29.75 38.8743 29.35 38.8743C29.07 38.8743 29 38.8387 29 38.6963Z" fill="#F7F7F7"/>
<path d="M28.1 38.6073C28.1 38.4205 28.2 38.3938 28.58 38.4828C28.94 38.5717 28.85 38.7853 28.45 38.7853C28.17 38.7853 28.1 38.7497 28.1 38.6073Z" fill="#F7F7F7"/>
<path d="M25.1 38.5717C25.1 38.456 25.38 38.3404 25.68 38.3404C25.74 38.3404 25.8 38.4205 25.8 38.5183C25.8 38.6607 25.73 38.6963 25.45 38.6963C25.22 38.6963 25.1 38.6518 25.1 38.5717Z" fill="#F7F7F7"/>
<path d="M26.5 38.5184C26.5 38.3315 26.6 38.3048 26.98 38.3938C27.34 38.4828 27.25 38.6963 26.85 38.6963C26.57 38.6963 26.5 38.6607 26.5 38.5184Z" fill="#F7F7F7"/>
<path d="M79.78 38.634C79.45 38.5628 79.58 38.3404 79.95 38.3404C80.23 38.3404 80.3 38.376 80.3 38.5183C80.3 38.6963 80.16 38.723 79.78 38.634Z" fill="#F7F7F7"/>
<path d="M18.1 38.4294C18.1 38.287 18.17 38.2514 18.45 38.2514C18.85 38.2514 18.94 38.465 18.58 38.5539C18.2 38.6429 18.1 38.6162 18.1 38.4294Z" fill="#F7F7F7"/>
<path d="M32.88 38.545C32.55 38.4738 32.68 38.2514 33.05 38.2514C33.33 38.2514 33.4 38.287 33.4 38.4294C33.4 38.6073 33.26 38.634 32.88 38.545Z" fill="#F7F7F7"/>
<path d="M74.4 38.4294C74.4 38.287 74.47 38.2514 74.75 38.2514C75.15 38.2514 75.24 38.465 74.88 38.5539C74.5 38.6429 74.4 38.6162 74.4 38.4294Z" fill="#F7F7F7"/>
<path d="M77.58 38.545C77.25 38.4738 77.38 38.2514 77.75 38.2514C78.03 38.2514 78.1 38.287 78.1 38.4294C78.1 38.6073 77.96 38.634 77.58 38.545Z" fill="#F7F7F7"/>
<path d="M19.9 38.0734C19.9 37.931 19.97 37.8954 20.25 37.8954C20.65 37.8954 20.74 38.109 20.38 38.198C20 38.287 19.9 38.2603 19.9 38.0734Z" fill="#F7F7F7"/>
<path d="M23.6 37.6284C23.6 37.4861 23.67 37.4505 23.95 37.4505C24.35 37.4505 24.44 37.664 24.08 37.753C23.7 37.842 23.6 37.8153 23.6 37.6284Z" fill="#F7F7F7"/>
<path d="M93.3 37.139C93.3 36.7563 93.4 36.7474 93.63 37.0856C93.85 37.4238 93.85 37.4505 93.55 37.4505C93.33 37.4505 93.3 37.4149 93.3 37.139Z" fill="#F7F7F7"/>
<path d="M8.6 36.8631C8.6 36.7563 8.94 36.2936 9.02 36.2936C9.06 36.2936 9.1 36.436 9.1 36.605C9.1 36.8809 9.07 36.9165 8.85 36.9165C8.71 36.9165 8.6 36.8898 8.6 36.8631Z" fill="#F7F7F7"/>
<path d="M9.2 35.8931C9.2 35.7863 9.95 34.6917 10.02 34.6917C10.06 34.6917 10.1 34.8341 10.1 35.0032C10.1 35.2524 10.06 35.3147 9.9 35.3147C9.74 35.3147 9.7 35.377 9.7 35.6261C9.7 35.902 9.67 35.9376 9.45 35.9376C9.31 35.9376 9.2 35.9198 9.2 35.8931Z" fill="#F7F7F7"/>
<path d="M91.8 34.7362C91.8 34.3536 91.9 34.3447 92.13 34.6829C92.35 35.021 92.35 35.0477 92.05 35.0477C91.83 35.0477 91.8 35.0121 91.8 34.7362Z" fill="#F7F7F7"/>
<path d="M90.9 33.4014C90.9 33.0187 91 33.0098 91.23 33.348C91.45 33.6862 91.45 33.7128 91.15 33.7128C90.93 33.7128 90.9 33.6772 90.9 33.4014Z" fill="#F7F7F7"/>
<path d="M10.8 33.4815C10.8 33.3747 11.14 32.9119 11.22 32.9119C11.26 32.9119 11.3 33.0543 11.3 33.2234C11.3 33.4993 11.27 33.5349 11.05 33.5349C10.91 33.5349 10.8 33.5082 10.8 33.4815Z" fill="#F7F7F7"/>
<path d="M90 32.2C90 31.9953 89.96 31.933 89.8 31.933C89.69 31.933 89.6 31.8707 89.6 31.7995C89.6 31.7284 89.56 31.6661 89.5 31.6661C89.45 31.6661 89.4 31.5237 89.4 31.3457C89.4 30.9541 89.49 30.9986 90 31.6661C90.55 32.3958 90.58 32.467 90.26 32.467C90.04 32.467 90 32.4314 90 32.2Z" fill="#F7F7F7"/>
<path d="M88.7 30.4558C88.7 30.1087 88.79 30.1176 89.1 30.5092C89.31 30.7761 89.31 30.7761 89.01 30.7761C88.72 30.7761 88.7 30.7495 88.7 30.4558Z" fill="#F7F7F7"/>
<path d="M13.1 30.3312C13.41 29.9396 13.5 29.9307 13.5 30.2778C13.5 30.5715 13.48 30.5982 13.19 30.5982C12.89 30.5982 12.89 30.5982 13.1 30.3312Z" fill="#F7F7F7"/>
<path d="M11.96 30.3312C11.85 29.9307 11.4 27.9017 11.4 27.8306C11.4 27.7861 11.48 27.7505 11.58 27.7505C11.73 27.7505 11.8 27.9284 11.99 28.8005C12.11 29.3701 12.23 29.9218 12.26 30.0197C12.29 30.1176 12.24 30.2778 12.16 30.3757C12.02 30.5537 12.02 30.5537 11.96 30.3312Z" fill="#F7F7F7"/>
<path d="M90.02 30.2867C90.02 30.1888 90.06 30.0108 90.1 29.8862C90.16 29.7083 90.18 29.6994 90.18 29.8417C90.18 29.9396 90.14 30.1176 90.1 30.2422C90.04 30.4202 90.02 30.4291 90.02 30.2867Z" fill="#F7F7F7"/>
<path d="M13.7 29.6193C14.01 29.2277 14.1 29.2188 14.1 29.5659C14.1 29.8595 14.08 29.8862 13.79 29.8862C13.49 29.8862 13.49 29.8862 13.7 29.6193Z" fill="#F7F7F7"/>
<path d="M89.22 29.5303C89.12 29.379 89.12 29.3523 89.25 29.3523C89.33 29.3523 89.4 29.4324 89.4 29.5303C89.4 29.6282 89.39 29.7083 89.37 29.7083C89.36 29.7083 89.29 29.6282 89.22 29.5303Z" fill="#F7F7F7"/>
<path d="M13 28.9518C13 28.7383 13.05 28.6404 13.15 28.6404C13.23 28.6404 13.3 28.5603 13.3 28.4624C13.3 28.3289 13.37 28.2844 13.55 28.2844C13.76 28.2844 13.8 28.2399 13.8 28.0174C13.8 27.8128 13.84 27.7505 14 27.7505C14.15 27.7505 14.2 27.6882 14.2 27.528C14.2 27.3411 14.25 27.3055 14.51 27.3055C14.78 27.3055 14.8 27.3233 14.68 27.4657C14.4 27.8128 13.07 29.2633 13.04 29.2633C13.02 29.2633 13 29.1209 13 28.9518Z" fill="#F7F7F7"/>
<path d="M14.49 28.7561C14.6 28.6137 14.82 28.3645 14.99 28.1954C15.29 27.8839 15.29 27.8839 15.3 28.2221C15.3 28.4891 15.27 28.5514 15.1 28.5514C14.95 28.5514 14.9 28.6137 14.9 28.7738C14.9 28.9607 14.85 28.9963 14.59 28.9963C14.29 28.9963 14.29 28.9963 14.49 28.7561Z" fill="#F7F7F7"/>
<path d="M87.74 27.8661C87.01 27.0741 87.04 27.1275 87.39 27.1275C87.67 27.1275 87.7 27.1542 87.7 27.3945C87.7 27.617 87.74 27.6615 87.95 27.6615C88.17 27.6615 88.2 27.6971 88.2 27.9729C88.2 28.142 88.18 28.2844 88.17 28.2844C88.15 28.2844 87.96 28.0975 87.74 27.8661Z" fill="#F7F7F7"/>
<path d="M86.2 27.6081C86.2 27.261 86.29 27.2699 86.6 27.6615C86.81 27.9284 86.81 27.9284 86.51 27.9284C86.22 27.9284 86.2 27.9018 86.2 27.6081Z" fill="#F7F7F7"/>
<path d="M15.9 27.2165C16.21 26.825 16.3 26.8161 16.3 27.1631C16.3 27.4568 16.28 27.4835 15.99 27.4835C15.69 27.4835 15.69 27.4835 15.9 27.2165Z" fill="#F7F7F7"/>
<path d="M85.5 26.8962C85.5 26.5491 85.59 26.558 85.9 26.9495C86.11 27.2165 86.11 27.2165 85.81 27.2165C85.52 27.2165 85.5 27.1898 85.5 26.8962Z" fill="#F7F7F7"/>
<path d="M15.2 26.558C15.2 26.2643 15.22 26.2376 15.51 26.2376C15.81 26.2376 15.81 26.2376 15.6 26.5046C15.29 26.8961 15.2 26.905 15.2 26.558Z" fill="#F7F7F7"/>
<path d="M16.75 26.38C16.84 26.2554 17.02 26.0952 17.16 26.0151C17.39 25.8817 17.4 25.8817 17.4 26.1308C17.4 26.4512 17.24 26.5936 16.88 26.5936C16.6 26.5936 16.6 26.5847 16.75 26.38Z" fill="#F7F7F7"/>
<path d="M11.06 26.3088C10.96 25.9706 10.99 25.8817 11.2 25.8817C11.36 25.8817 11.4 25.9439 11.4 26.1931C11.4 26.5491 11.16 26.6292 11.06 26.3088Z" fill="#F7F7F7"/>
<path d="M85.88 25.9706C85.6 25.6592 85.6 25.6592 85.86 25.6325C86.19 25.5969 86.22 25.6236 86.18 25.9795C86.15 26.2821 86.15 26.2821 85.88 25.9706Z" fill="#F7F7F7"/>
<path d="M83.3 24.9828C83.3 24.7159 83.3 24.7159 83.6 24.9028C84.04 25.1786 84.05 25.2587 83.66 25.2587C83.33 25.2587 83.3 25.2409 83.3 24.9828Z" fill="#F7F7F7"/>
<path d="M10.76 24.8849C10.66 24.5468 10.69 24.4578 10.9 24.4578C11.06 24.4578 11.1 24.5201 11.1 24.7693C11.1 25.1252 10.86 25.2053 10.76 24.8849Z" fill="#F7F7F7"/>
<path d="M84.6 24.8138C84.25 24.5557 84.25 24.5557 84.63 24.5468C84.98 24.5468 85 24.5646 85 24.8138C85 24.965 84.99 25.0807 84.97 25.0807C84.96 25.0807 84.79 24.965 84.6 24.8138Z" fill="#F7F7F7"/>
<path d="M18.55 24.8138C18.58 24.7693 18.74 24.6447 18.9 24.5468C19.2 24.3599 19.2 24.3599 19.2 24.6269C19.2 24.885 19.17 24.9027 18.84 24.9027C18.64 24.9027 18.51 24.8672 18.55 24.8138Z" fill="#F7F7F7"/>
<path d="M17.6 24.3777C17.6 24.1196 17.63 24.1018 17.96 24.1018C18.35 24.1018 18.34 24.1819 17.9 24.4578C17.6 24.6447 17.6 24.6447 17.6 24.3777Z" fill="#F7F7F7"/>
<path d="M82.3 24.1819C82.3 23.915 82.3 23.915 82.6 24.1018C83.04 24.3777 83.05 24.4578 82.66 24.4578C82.33 24.4578 82.3 24.44 82.3 24.1819Z" fill="#F7F7F7"/>
<path d="M18.4 23.7548C18.4 23.5056 18.43 23.4789 18.7 23.4789C18.95 23.4789 19 23.4433 19 23.2564C19 23.0606 19.04 23.034 19.38 23.034C19.75 23.0428 19.75 23.0428 19.35 23.3543C19.13 23.5234 18.83 23.7459 18.68 23.8438C18.4 24.0217 18.4 24.0217 18.4 23.7548Z" fill="#F7F7F7"/>
<path d="M19.85 23.8349C19.88 23.7904 20.04 23.6658 20.2 23.5679C20.5 23.381 20.5 23.381 20.5 23.648C20.5 23.9061 20.47 23.9239 20.14 23.9239C19.94 23.9239 19.81 23.8883 19.85 23.8349Z" fill="#F7F7F7"/>
<path d="M80.8 23.2564C80.8 23.1852 80.71 23.1229 80.6 23.1229C80.44 23.1229 80.4 23.0606 80.4 22.8471C80.4 22.5801 80.4 22.5801 80.85 22.8649C81.54 23.3098 81.59 23.3899 81.16 23.3899C80.91 23.3899 80.8 23.3543 80.8 23.2564Z" fill="#F7F7F7"/>
<path d="M82.08 22.8916C81.76 22.6691 81.5 22.4644 81.5 22.4466C81.5 22.4288 81.66 22.411 81.85 22.411C82.13 22.411 82.2 22.4466 82.2 22.589C82.2 22.7225 82.27 22.767 82.45 22.767C82.66 22.767 82.7 22.8115 82.7 23.0339C82.7 23.1852 82.69 23.3009 82.68 23.3009C82.66 23.3009 82.39 23.114 82.08 22.8916Z" fill="#F7F7F7"/>
<path d="M21.15 22.945C21.18 22.9005 21.34 22.7759 21.5 22.678C21.8 22.4911 21.8 22.4911 21.8 22.7581C21.8 23.0161 21.77 23.0339 21.44 23.0339C21.24 23.0339 21.11 22.9983 21.15 22.945Z" fill="#F7F7F7"/>
<path d="M90.6 22.3665C90.6 22.1173 90.64 22.055 90.8 22.055C91.01 22.055 91.04 22.144 90.94 22.4822C90.84 22.8026 90.6 22.7225 90.6 22.3665Z" fill="#F7F7F7"/>
<path d="M20.8 22.055C20.8 21.8059 20.83 21.7881 21.15 21.7881C21.46 21.7881 21.5 21.7614 21.5 21.5656C21.5 21.4232 21.56 21.3431 21.65 21.3431C21.73 21.3431 21.8 21.3075 21.8 21.2541C21.8 21.2096 21.87 21.1651 21.95 21.1651C22.03 21.1651 22.1 21.1295 22.1 21.0761C22.1 21.0317 22.17 20.9872 22.25 20.9872C22.33 20.9872 22.4 20.9516 22.4 20.8982C22.4 20.8537 22.56 20.8092 22.75 20.8092C22.94 20.8092 23.1 20.8359 23.1 20.8804C23.09 20.916 22.58 21.2541 21.95 21.6279C20.8 22.3131 20.8 22.3131 20.8 22.055Z" fill="#F7F7F7"/>
<path d="M22.5 22.1084C22.63 21.9661 23.53 21.4321 23.63 21.4321C23.67 21.4321 23.7 21.53 23.7 21.6546C23.7 21.8415 23.65 21.8771 23.4 21.8771C23.17 21.8771 23.1 21.9127 23.1 22.055C23.1 22.1974 23.03 22.233 22.74 22.233C22.43 22.233 22.39 22.2152 22.5 22.1084Z" fill="#F7F7F7"/>
<path d="M77.9 21.3876C77.9 21.1206 77.93 21.1206 78.31 21.3164C78.69 21.5211 78.68 21.6101 78.25 21.6101C77.94 21.6101 77.9 21.5834 77.9 21.3876Z" fill="#F7F7F7"/>
<path d="M10.06 21.1473C9.96 20.8092 9.99 20.7202 10.2 20.7202C10.36 20.7202 10.4 20.7825 10.4 21.0317C10.4 21.3876 10.16 21.4677 10.06 21.1473Z" fill="#F7F7F7"/>
<path d="M79.08 21.005C78.71 20.8092 78.73 20.7202 79.15 20.7202C79.46 20.7202 79.5 20.7469 79.5 20.9427C79.5 21.2007 79.44 21.2096 79.08 21.005Z" fill="#F7F7F7"/>
<path d="M76.4 20.5867C76.4 20.3197 76.43 20.3197 76.81 20.5155C77.19 20.7202 77.18 20.8092 76.75 20.8092C76.44 20.8092 76.4 20.7825 76.4 20.5867Z" fill="#F7F7F7"/>
<path d="M23.66 20.3464C23.63 20.2307 23.6 20.0527 23.6 19.9371C23.6 19.7502 23.61 19.7413 23.84 19.8748C24.17 20.0705 24.25 20.293 24.04 20.4265C23.79 20.5867 23.73 20.5689 23.66 20.3464Z" fill="#F7F7F7"/>
<path d="M91 20.2307C91 19.9816 91.04 19.9193 91.2 19.9193C91.41 19.9193 91.44 20.0083 91.34 20.3464C91.24 20.6668 91 20.5867 91 20.2307Z" fill="#F7F7F7"/>
<path d="M26.3 20.115C26.3 20.0439 26.82 19.7413 26.94 19.7413C26.97 19.7413 27 19.8392 27 19.9638C27 20.1595 26.96 20.1862 26.65 20.1862C26.46 20.1862 26.3 20.1506 26.3 20.115Z" fill="#F7F7F7"/>
<path d="M74.33 19.8036C74.01 19.6701 73.9 19.5633 73.9 19.412C73.9 19.234 73.93 19.2162 74.17 19.3052C74.63 19.4565 75.4 19.857 75.4 19.9371C75.4 20.0706 74.75 19.9994 74.33 19.8036Z" fill="#F7F7F7"/>
<path d="M76.67 19.7324C76.5 19.6434 76.49 19.6256 76.66 19.4654C76.86 19.2607 77 19.323 77 19.6167C77 19.8481 76.94 19.8748 76.67 19.7324Z" fill="#F7F7F7"/>
<path d="M27.9 19.3853C27.9 19.3319 28.09 19.2073 28.33 19.1183C28.75 18.9493 28.75 18.9493 28.78 19.1361C28.8 19.234 28.76 19.3586 28.68 19.3942C28.49 19.501 27.9 19.4921 27.9 19.3853Z" fill="#F7F7F7"/>
<path d="M26 19.1628C26 18.9671 26.04 18.9404 26.35 18.9404C26.78 18.9404 26.79 19.0294 26.41 19.234C26.03 19.4298 26 19.4298 26 19.1628Z" fill="#F7F7F7"/>
<path d="M91.2 19.0739C91.2 18.8247 91.24 18.7624 91.4 18.7624C91.61 18.7624 91.64 18.8514 91.54 19.1895C91.44 19.5099 91.2 19.4298 91.2 19.0739Z" fill="#F7F7F7"/>
<path d="M75.38 19.1005C75.17 18.9938 75 18.8692 75 18.8336C75 18.7179 75.68 18.7535 75.73 18.8781C75.76 18.9404 75.79 18.9226 75.79 18.8336C75.8 18.7179 75.88 18.6734 76.1 18.6734C76.37 18.6734 76.4 18.6467 76.4 18.4064C76.4 18.1572 76.43 18.1395 76.76 18.1395C77.11 18.1395 77.11 18.1395 76.46 18.7179C76.1 19.0383 75.8 19.2963 75.78 19.2963C75.76 19.2963 75.58 19.2073 75.38 19.1005Z" fill="#F7F7F7"/>
<path d="M72.4 18.8069C72.4 18.5933 72.41 18.5844 72.72 18.7001C73.18 18.8692 73.2 19.0294 72.76 19.0294C72.44 19.0294 72.4 19.0027 72.4 18.8069Z" fill="#F7F7F7"/>
<path d="M77.65 18.5755C78.15 18.1306 78.15 18.1306 78.18 18.4064C78.23 18.7891 77.97 19.0294 77.51 19.0294C77.16 19.0294 77.16 19.0294 77.65 18.5755Z" fill="#F7F7F7"/>
<path d="M29.22 18.8336C29.25 18.7713 29.41 18.6734 29.58 18.6111C29.89 18.4954 29.9 18.5043 29.9 18.7179C29.9 18.9137 29.86 18.9404 29.54 18.9404C29.31 18.9404 29.2 18.9048 29.22 18.8336Z" fill="#F7F7F7"/>
<path d="M74.43 18.6734C73.92 18.4687 73.88 18.3174 74.33 18.3174C74.75 18.3174 74.93 18.4242 74.88 18.6556C74.85 18.8425 74.85 18.8425 74.43 18.6734Z" fill="#F7F7F7"/>
<path d="M27.6 18.4598C27.6 18.2284 27.77 18.1395 28.21 18.1395C28.71 18.1395 28.55 18.353 27.86 18.5844C27.63 18.6645 27.6 18.6467 27.6 18.4598Z" fill="#F7F7F7"/>
<path d="M73.23 18.1839C72.8 18.0238 72.81 17.8725 73.25 17.8725C73.56 17.8725 73.6 17.8992 73.6 18.095C73.6 18.2195 73.59 18.3174 73.58 18.3174C73.56 18.3085 73.4 18.2551 73.23 18.1839Z" fill="#F7F7F7"/>
<path d="M9.56 18.0327C9.46 17.6945 9.49 17.6055 9.7 17.6055C9.86 17.6055 9.9 17.6678 9.9 17.917C9.9 18.2729 9.66 18.353 9.56 18.0327Z" fill="#F7F7F7"/>
<path d="M28.7 18.006C28.7 17.8102 28.74 17.7835 29.05 17.7835C29.29 17.7835 29.4 17.739 29.4 17.65C29.4 17.561 29.51 17.5165 29.75 17.5165C30.4 17.5165 30.12 17.7301 28.93 18.1484C28.73 18.2106 28.7 18.1928 28.7 18.006Z" fill="#F7F7F7"/>
<path d="M22.45 17.7479C22.05 17.4364 22.05 17.4364 22.43 17.4275C22.83 17.4275 22.94 17.5343 22.88 17.8725C22.85 18.0505 22.83 18.0505 22.45 17.7479Z" fill="#F7F7F7"/>
<path d="M31.72 17.9437C31.75 17.8814 31.91 17.7835 32.08 17.7212C32.39 17.6055 32.4 17.6144 32.4 17.828C32.4 18.0238 32.36 18.0505 32.04 18.0505C31.81 18.0505 31.7 18.0149 31.72 17.9437Z" fill="#F7F7F7"/>
<path d="M78.9 17.4987C79.35 17.1428 79.35 17.1428 79.38 17.3741C79.43 17.7123 79.24 17.8725 78.81 17.8725C78.45 17.8636 78.45 17.8636 78.9 17.4987Z" fill="#F7F7F7"/>
<path d="M20.7 17.5076C20.7 17.2406 20.7 17.2406 21 17.4275C21.44 17.7034 21.45 17.7835 21.06 17.7835C20.73 17.7835 20.7 17.7657 20.7 17.5076Z" fill="#F7F7F7"/>
<path d="M77.5 17.5076C77.5 17.0983 77.77 16.8669 78.2 16.9114C78.51 16.9381 78.51 16.9381 78.01 17.383C77.5 17.8191 77.5 17.8191 77.5 17.5076Z" fill="#F7F7F7"/>
<path d="M68.5 17.472C68.5 17.2584 68.51 17.2495 68.82 17.3652C69.28 17.5343 69.3 17.6945 68.86 17.6945C68.54 17.6945 68.5 17.6678 68.5 17.472Z" fill="#F7F7F7"/>
<path d="M71.33 17.472C70.9 17.3118 70.91 17.1606 71.35 17.1606C71.66 17.1606 71.7 17.1873 71.7 17.383C71.7 17.5076 71.69 17.6055 71.68 17.6055C71.66 17.5966 71.5 17.5432 71.33 17.472Z" fill="#F7F7F7"/>
<path d="M31.4 17.0271C31.4 16.8313 31.44 16.8046 31.76 16.8046C32.2 16.8046 32.18 16.9648 31.72 17.1339C31.41 17.2495 31.4 17.2406 31.4 17.0271Z" fill="#F7F7F7"/>
<path d="M34.7 17.036C34.7 16.9203 34.98 16.8046 35.28 16.8046C35.34 16.8046 35.4 16.8847 35.4 16.9826C35.4 17.125 35.33 17.1606 35.05 17.1606C34.82 17.1606 34.7 17.1161 34.7 17.036Z" fill="#F7F7F7"/>
<path d="M69.73 16.9381C69.3 16.7779 69.31 16.6266 69.75 16.6266C70.06 16.6266 70.1 16.6533 70.1 16.8491C70.1 16.9737 70.09 17.0716 70.08 17.0716C70.06 17.0627 69.9 17.0093 69.73 16.9381Z" fill="#F7F7F7"/>
<path d="M32.5 16.6711C32.5 16.4575 32.72 16.3596 33.23 16.3596C33.68 16.3596 33.54 16.5821 33 16.7334C32.5 16.8758 32.5 16.8758 32.5 16.6711Z" fill="#F7F7F7"/>
<path d="M64.13 16.5109C63.81 16.4486 63.7 16.3774 63.7 16.2617C63.7 16.0571 63.74 16.0571 64.55 16.235C64.96 16.324 65.2 16.4308 65.2 16.502C65.2 16.6444 64.77 16.6533 64.13 16.5109Z" fill="#F7F7F7"/>
<path d="M19.2 16.2617C19.2 15.9948 19.2 15.9948 19.5 16.1817C19.94 16.4575 19.95 16.5376 19.56 16.5376C19.23 16.5376 19.2 16.5198 19.2 16.2617Z" fill="#F7F7F7"/>
<path d="M67.78 16.3863C67.45 16.3151 67.58 16.0927 67.95 16.0927C68.23 16.0927 68.3 16.1283 68.3 16.2706C68.3 16.4486 68.16 16.4753 67.78 16.3863Z" fill="#F7F7F7"/>
<path d="M20.5 16.0927C20.15 15.8346 20.15 15.8346 20.53 15.8257C20.88 15.8257 20.9 15.8435 20.9 16.0927C20.9 16.2439 20.89 16.3596 20.87 16.3596C20.86 16.3596 20.69 16.2439 20.5 16.0927Z" fill="#F7F7F7"/>
<path d="M34.4 16.1016C34.4 15.9503 34.46 15.9147 34.69 15.9147C34.86 15.9147 35.02 15.9592 35.05 16.0126C35.14 16.1372 35.09 16.1728 34.72 16.235C34.44 16.2884 34.4 16.2706 34.4 16.1016Z" fill="#F7F7F7"/>
<path d="M62.8 16.0927C62.8 15.9058 62.9 15.8791 63.28 15.9681C63.64 16.0571 63.55 16.2706 63.15 16.2706C62.87 16.2706 62.8 16.235 62.8 16.0927Z" fill="#F7F7F7"/>
<path d="M66.58 16.0215C66.41 15.9592 66.42 15.9503 66.6 15.8435C66.77 15.7456 66.8 15.7545 66.8 15.9147C66.8 16.0126 66.79 16.0927 66.78 16.0838C66.76 16.0838 66.67 16.0482 66.58 16.0215Z" fill="#F7F7F7"/>
<path d="M80.85 15.8257C80.88 15.7812 81.04 15.6566 81.2 15.5587C81.5 15.3718 81.5 15.3718 81.5 15.6388C81.5 15.8969 81.47 15.9147 81.14 15.9147C80.94 15.9147 80.81 15.8791 80.85 15.8257Z" fill="#F7F7F7"/>
<path d="M41.7 15.6121C41.7 15.4964 41.98 15.3807 42.28 15.3807C42.34 15.3807 42.4 15.4608 42.4 15.5587C42.4 15.7011 42.33 15.7367 42.05 15.7367C41.82 15.7367 41.7 15.6922 41.7 15.6121Z" fill="#F7F7F7"/>
<path d="M59 15.4697C59 15.2828 59.1 15.2561 59.48 15.3451C59.84 15.4341 59.75 15.6477 59.35 15.6477C59.07 15.6477 59 15.6121 59 15.4697Z" fill="#F7F7F7"/>
<path d="M66.95 15.5587C66.98 15.5142 67.14 15.3896 67.3 15.2917C67.6 15.1049 67.6 15.1049 67.6 15.3718C67.6 15.6299 67.57 15.6477 67.24 15.6477C67.04 15.6477 66.91 15.6121 66.95 15.5587Z" fill="#F7F7F7"/>
<path d="M33.5 15.1138C33.5 14.8646 33.47 14.8468 33.15 14.8468C32.83 14.8468 32.8 14.829 32.8 14.5798C32.8 14.3306 32.77 14.3128 32.45 14.3128C32.12 14.3128 32.1 14.295 32.1 14.037C32.1 13.7166 32.03 13.681 33.15 14.5264C34.35 15.443 34.3 15.3807 33.87 15.3807C33.53 15.3807 33.5 15.3629 33.5 15.1138Z" fill="#F7F7F7"/>
<path d="M56.6 15.2028C56.6 15.0159 56.7 14.9892 57.08 15.0782C57.44 15.1672 57.35 15.3807 56.95 15.3807C56.67 15.3807 56.6 15.3451 56.6 15.2028Z" fill="#F7F7F7"/>
<path d="M19.2 15.0248C18.85 14.7667 18.85 14.7667 19.23 14.7578C19.58 14.7578 19.6 14.7756 19.6 15.0248C19.6 15.1761 19.59 15.2917 19.57 15.2917C19.56 15.2917 19.39 15.1761 19.2 15.0248Z" fill="#F7F7F7"/>
<path d="M47.4 15.0782C47.4 14.9625 47.68 14.8468 47.98 14.8468C48.04 14.8468 48.1 14.9269 48.1 15.0248C48.1 15.1672 48.03 15.2028 47.75 15.2028C47.52 15.2028 47.4 15.1583 47.4 15.0782Z" fill="#F7F7F7"/>
<path d="M54 15.0248C54 14.8379 54.1 14.8112 54.48 14.9002C54.84 14.9892 54.75 15.2028 54.35 15.2028C54.07 15.2028 54 15.1672 54 15.0248Z" fill="#F7F7F7"/>
<path d="M82.25 14.7044C82.63 14.4018 82.65 14.4018 82.68 14.5798C82.74 14.918 82.63 15.0248 82.23 15.0248C81.85 15.0159 81.85 15.0159 82.25 14.7044Z" fill="#F7F7F7"/>
<path d="M18.3 14.3128C17.95 14.0548 17.95 14.0548 18.33 14.0459C18.68 14.0459 18.7 14.0637 18.7 14.3128C18.7 14.4641 18.69 14.5798 18.67 14.5798C18.66 14.5798 18.49 14.4641 18.3 14.3128Z" fill="#F7F7F7"/>
<path d="M91.9 13.9124C91.9 13.6632 91.94 13.6009 92.1 13.6009C92.31 13.6009 92.34 13.6899 92.24 14.0281C92.14 14.3484 91.9 14.2683 91.9 13.9124Z" fill="#F7F7F7"/>
<path d="M17.35 13.592C16.5 12.978 16.5 12.978 16.93 12.978C17.26 12.978 17.3 13.0047 17.3 13.2005C17.3 13.3873 17.35 13.4229 17.6 13.4229C17.87 13.4229 17.9 13.4496 17.9 13.6899C17.9 13.8412 17.89 13.9569 17.87 13.9569C17.86 13.9569 17.62 13.7967 17.35 13.592Z" fill="#F7F7F7"/>
<path d="M31.3 13.414C31.3 13.1471 31.3 13.1471 31.6 13.3339C32.04 13.6098 32.05 13.6899 31.66 13.6899C31.33 13.6899 31.3 13.6721 31.3 13.414Z" fill="#F7F7F7"/>
<path d="M15.4 13.4229C15.4 13.2895 15.33 13.245 15.15 13.245C14.94 13.245 14.9 13.2005 14.9 12.9691C14.9 12.7021 14.9 12.7021 15.18 12.8801C15.33 12.978 15.61 13.1738 15.8 13.325C16.15 13.592 16.15 13.592 15.78 13.6009C15.47 13.6009 15.4 13.5742 15.4 13.4229Z" fill="#F7F7F7"/>
<path d="M84.85 12.6576C85.07 12.4885 85.37 12.2661 85.53 12.1682C85.8 11.9902 85.8 11.9902 85.8 12.2572C85.8 12.5063 85.77 12.533 85.5 12.533C85.25 12.533 85.2 12.5686 85.2 12.7555C85.2 12.9513 85.16 12.978 84.83 12.978C84.45 12.9691 84.45 12.9691 84.85 12.6576Z" fill="#F7F7F7"/>
<path d="M30 12.4351C30 12.1682 30 12.1682 30.3 12.355C30.74 12.6309 30.75 12.711 30.36 12.711C30.03 12.711 30 12.6932 30 12.4351Z" fill="#F7F7F7"/>
<path d="M92 12.355C92 12.0614 92.03 11.9991 92.2 11.9991C92.41 11.9991 92.45 12.1415 92.34 12.5152C92.23 12.8623 92 12.7555 92 12.355Z" fill="#F7F7F7"/>
<path d="M83.8 12.275C83.8 12.0258 83.83 11.9991 84.1 11.9991C84.35 11.9991 84.4 11.9635 84.4 11.7766C84.4 11.5897 84.45 11.5541 84.7 11.5541C84.95 11.5541 85 11.5185 85 11.3317C85 11.1537 85.05 11.1092 85.25 11.1092C85.43 11.1092 85.5 11.0647 85.5 10.9312C85.5 10.7888 85.57 10.7532 85.85 10.7532C86.04 10.7532 86.2 10.771 86.2 10.7888C86.2 10.8155 84.32 12.2038 83.98 12.4262C83.82 12.533 83.8 12.5152 83.8 12.275Z" fill="#F7F7F7"/>
<path d="M13.6 12.0792C13.6 11.8122 13.6 11.8122 13.9 11.9991C14.34 12.275 14.35 12.355 13.96 12.355C13.63 12.355 13.6 12.3372 13.6 12.0792Z" fill="#F7F7F7"/>
<path d="M72.05 11.6787C72.27 11.5096 72.57 11.2872 72.73 11.1893C73 11.0113 73 11.0113 73 11.2783C73 11.5274 72.97 11.5541 72.7 11.5541C72.45 11.5541 72.4 11.5897 72.4 11.7766C72.4 11.9724 72.36 11.9991 72.03 11.9991C71.65 11.9902 71.65 11.9902 72.05 11.6787Z" fill="#F7F7F7"/>
<path d="M12.7 11.5541C12.7 11.2872 12.7 11.2872 13.05 11.4829C13.49 11.741 13.49 11.8211 13.05 11.8211C12.73 11.8211 12.7 11.8033 12.7 11.5541Z" fill="#F7F7F7"/>
<path d="M28.8 11.5986C28.8 11.4117 28.75 11.3761 28.5 11.3761C28.25 11.3761 28.2 11.3406 28.2 11.1537C28.2 10.9668 28.15 10.9312 27.9 10.9312C27.63 10.9312 27.6 10.9045 27.6 10.6553C27.6 10.335 27.49 10.2816 28.72 11.1893C29.15 11.5007 29.5 11.7766 29.5 11.7944C29.5 11.8033 29.34 11.8211 29.15 11.8211C28.84 11.8211 28.8 11.7944 28.8 11.5986Z" fill="#F7F7F7"/>
<path d="M86.15 11.7321C86.18 11.6876 86.34 11.563 86.5 11.4651C86.8 11.2783 86.8 11.2783 86.8 11.5452C86.8 11.8033 86.77 11.8211 86.44 11.8211C86.24 11.8211 86.11 11.7855 86.15 11.7321Z" fill="#F7F7F7"/>
<path d="M14.2 11.3761C13.85 11.1181 13.85 11.1181 14.23 11.1092C14.58 11.1092 14.6 11.127 14.6 11.3761C14.6 11.5274 14.59 11.6431 14.57 11.6431C14.56 11.6431 14.39 11.5274 14.2 11.3761Z" fill="#F7F7F7"/>
<path d="M92 11.2427C92 10.8867 92.24 10.8066 92.34 11.1359C92.44 11.4651 92.41 11.5541 92.2 11.5541C92.04 11.5541 92 11.4918 92 11.2427Z" fill="#F7F7F7"/>
<path d="M10.7 10.6197C10.7 10.4062 10.71 10.3973 11.02 10.5129C11.48 10.682 11.5 10.8422 11.06 10.8422C10.74 10.8422 10.7 10.8155 10.7 10.6197Z" fill="#F7F7F7"/>
<path d="M12.98 10.682C12.61 10.4862 12.63 10.3972 13.05 10.3972C13.36 10.3972 13.4 10.4239 13.4 10.6197C13.4 10.8778 13.34 10.8867 12.98 10.682Z" fill="#F7F7F7"/>
<path d="M87.7 10.7176C87.83 10.5752 88.73 10.0413 88.83 10.0413C88.87 10.0413 88.9 10.1392 88.9 10.2638C88.9 10.4506 88.85 10.4862 88.6 10.4862C88.37 10.4862 88.3 10.5218 88.3 10.6642C88.3 10.8066 88.23 10.8422 87.94 10.8422C87.63 10.8422 87.59 10.8244 87.7 10.7176Z" fill="#F7F7F7"/>
<path d="M73.55 10.5752C73.58 10.5307 73.74 10.4061 73.9 10.3083C74.2 10.1214 74.2 10.1214 74.2 10.3883C74.2 10.6464 74.17 10.6642 73.84 10.6642C73.64 10.6642 73.51 10.6286 73.55 10.5752Z" fill="#F7F7F7"/>
<path d="M8.64 9.81881C8.61 9.64082 8.6 9.48064 8.62 9.46284C8.69 9.40055 9.7 9.52514 9.7 9.59633C9.7 9.66752 8.92 10.1303 8.8 10.1303C8.75 10.1303 8.68 9.98789 8.64 9.81881Z" fill="#F7F7F7"/>
<path d="M11.53 9.99679C11.1 9.83661 11.11 9.68532 11.55 9.68532C11.86 9.68532 11.9 9.71202 11.9 9.9078C11.9 10.0324 11.89 10.1303 11.88 10.1303C11.86 10.1214 11.7 10.068 11.53 9.99679Z" fill="#F7F7F7"/>
<path d="M89.2 9.88111C89.2 9.80101 89.65 9.55184 90.03 9.42725C90.27 9.33826 90.3 9.35606 90.3 9.54294C90.3 9.67642 90.21 9.78321 90.05 9.84551C89.76 9.97009 89.2 9.98789 89.2 9.88111Z" fill="#F7F7F7"/>
<path d="M74.65 9.77431C74.68 9.72982 74.84 9.60523 75 9.50734C75.3 9.32046 75.3 9.32046 75.3 9.58743C75.3 9.8455 75.27 9.8633 74.94 9.8633C74.74 9.8633 74.61 9.82771 74.65 9.77431Z" fill="#F7F7F7"/>
<path d="M10.48 9.71202C10.15 9.64083 10.28 9.41835 10.65 9.41835C10.93 9.41835 11 9.45395 11 9.59633C11 9.77431 10.86 9.80101 10.48 9.71202Z" fill="#F7F7F7"/>
<path d="M91.5 9.28487C91.5 9.02679 91.62 9.0001 91.84 9.20477C92.07 9.40055 92.04 9.50734 91.75 9.50734C91.55 9.50734 91.5 9.46285 91.5 9.28487Z" fill="#F7F7F7"/>
<path d="M25.5 9.14248C25.5 8.8755 25.5 8.8755 25.8 9.06239C26.24 9.33826 26.25 9.41835 25.86 9.41835C25.53 9.41835 25.5 9.40055 25.5 9.14248Z" fill="#F7F7F7"/>
<path d="M8.6 9.04459C8.6 8.77762 8.73 8.52844 8.86 8.52844C8.95 8.52844 9 8.63523 9 8.83991C9 9.08908 8.96 9.15138 8.8 9.15138C8.69 9.15138 8.6 9.09798 8.6 9.04459Z" fill="#F7F7F7"/>
<path d="M76.1 8.75982C76.1 8.74202 76.4 8.51064 76.78 8.25257C77.15 8.00339 77.51 7.75422 77.58 7.70083C77.67 7.63853 77.7 7.68303 77.7 7.89661C77.7 8.12798 77.66 8.17248 77.45 8.17248C77.27 8.17248 77.2 8.21697 77.2 8.35046C77.2 8.46615 77.13 8.52844 77 8.52844C76.89 8.52844 76.8 8.59073 76.8 8.66193C76.8 8.75092 76.69 8.79541 76.45 8.79541C76.26 8.79541 76.1 8.77762 76.1 8.75982Z" fill="#F7F7F7"/>
<path d="M92.4 8.30596C92.4 7.95 92.64 7.86991 92.74 8.19917C92.84 8.52844 92.81 8.61743 92.6 8.61743C92.44 8.61743 92.4 8.55514 92.4 8.30596Z" fill="#F7F7F7"/>
<path d="M91 8.26147C91 8.11019 91.07 8.08349 91.4 8.08349C91.73 8.08349 91.8 8.11019 91.8 8.26147C91.8 8.41275 91.73 8.43945 91.4 8.43945C91.07 8.43945 91 8.41275 91 8.26147Z" fill="#F7F7F7"/>
<path d="M23.5 7.71863C23.5 7.45165 23.5 7.45165 23.8 7.63853C24.24 7.91441 24.25 7.9945 23.86 7.9945C23.53 7.9945 23.5 7.9767 23.5 7.71863Z" fill="#F7F7F7"/>
<path d="M78.85 6.83762C78.88 6.79312 79.04 6.66853 79.2 6.57064C79.5 6.38376 79.5 6.38376 79.5 6.65074C79.5 6.90881 79.47 6.92661 79.14 6.92661C78.94 6.92661 78.81 6.89101 78.85 6.83762Z" fill="#F7F7F7"/>
<path d="M92.3 6.61514C92.3 6.25917 92.54 6.17908 92.64 6.50835C92.74 6.83761 92.71 6.92661 92.5 6.92661C92.34 6.92661 92.3 6.86431 92.3 6.61514Z" fill="#F7F7F7"/>
<path d="M21.4 6.43716C21.4 6.36597 21.31 6.30367 21.2 6.30367C21.04 6.30367 21 6.24138 21 6.0278C21 5.76083 21 5.76083 21.45 6.0456C22.14 6.49055 22.19 6.57064 21.76 6.57064C21.51 6.57064 21.4 6.53505 21.4 6.43716Z" fill="#F7F7F7"/>
<path d="M80.45 5.76973C80.48 5.72523 80.64 5.60064 80.8 5.50275C81.1 5.31587 81.1 5.31587 81.1 5.58285C81.1 5.84092 81.07 5.85872 80.74 5.85872C80.54 5.85872 80.41 5.82312 80.45 5.76973Z" fill="#F7F7F7"/>
<path d="M20.2 5.63624C20.2 5.56505 20.11 5.50275 20 5.50275C19.84 5.50275 19.8 5.44046 19.8 5.22688C19.8 4.95991 19.8 4.95991 20.25 5.24468C20.94 5.68964 20.99 5.76973 20.56 5.76973C20.31 5.76973 20.2 5.73413 20.2 5.63624Z" fill="#F7F7F7"/>
<path d="M81.55 5.0578C81.58 5.0133 81.74 4.88871 81.9 4.79083C82.2 4.60394 82.2 4.60394 82.2 4.87092C82.2 5.12899 82.17 5.14679 81.84 5.14679C81.64 5.14679 81.51 5.11119 81.55 5.0578Z" fill="#F7F7F7"/>
<path d="M18.4 4.33697C18.4 4.07 18.4 4.07 18.7 4.25688C19.14 4.53275 19.15 4.61285 18.76 4.61285C18.43 4.61285 18.4 4.59505 18.4 4.33697Z" fill="#F7F7F7"/>
<path d="M17.4 3.76743C17.4 3.49156 17.51 3.48266 17.87 3.76743C18.15 3.98101 18.15 3.98101 17.78 3.98991C17.44 3.98991 17.4 3.96321 17.4 3.76743Z" fill="#F7F7F7"/>
<path d="M91.66 3.00211C91.56 2.54826 91.59 2.29908 91.74 2.29908C91.82 2.29908 91.92 2.46817 91.99 2.69064C92.14 3.22459 92.13 3.27798 91.91 3.27798C91.78 3.27798 91.71 3.18899 91.66 3.00211Z" fill="#F7F7F7"/>
<path d="M85.7 2.58386C85.7 2.52156 86.93 1.85413 87.05 1.85413C87.08 1.85413 87.1 1.95202 87.1 2.07661C87.1 2.27239 87.06 2.29908 86.75 2.29908C86.47 2.29908 86.4 2.33468 86.4 2.47707C86.4 2.61945 86.33 2.65505 86.05 2.65505C85.86 2.65505 85.7 2.61945 85.7 2.58386Z" fill="#F7F7F7"/>
<path d="M14.7 2.25459C14.7 1.98762 14.73 1.98762 15.11 2.1834C15.49 2.38808 15.48 2.47707 15.05 2.47707C14.74 2.47707 14.7 2.45037 14.7 2.25459Z" fill="#F7F7F7"/>
<path d="M9.63 2.13C9.72 1.72064 9.98 1.23119 10.09 1.23119C10.15 1.23119 10.2 1.37358 10.2 1.54266C10.2 1.71174 10.16 1.85413 10.1 1.85413C10.05 1.85413 10 1.97872 10 2.1211C10 2.33468 9.96 2.38807 9.79 2.38807C9.61 2.38807 9.58 2.35248 9.63 2.13Z" fill="#F7F7F7"/>
<path d="M13.13 1.70284C13.06 1.68505 13 1.60495 13 1.53376C13 1.45367 12.89 1.40917 12.65 1.40917C12.34 1.40917 12.3 1.38248 12.3 1.1867C12.3 0.999817 12.33 0.982018 12.53 1.04431C13.25 1.29349 13.9 1.58716 13.9 1.66725C13.9 1.76514 13.36 1.79183 13.13 1.70284Z" fill="#F7F7F7"/>
<path d="M88.72 1.2134C88.75 1.1511 88.91 1.05321 89.08 0.99092C89.39 0.875232 89.4 0.884132 89.4 1.09771C89.4 1.29349 89.36 1.32019 89.04 1.32019C88.81 1.32019 88.7 1.28459 88.72 1.2134Z" fill="#F7F7F7"/>
<path d="M91 1.1867C91 1.11551 90.93 1.05321 90.85 1.05321C90.77 1.05321 90.7 0.973122 90.7 0.875232C90.7 0.51037 91.26 0.732845 91.43 1.1689C91.48 1.28459 91.44 1.32019 91.25 1.32019C91.09 1.32019 91 1.26679 91 1.1867Z" fill="#F7F7F7"/>
</svg>
