<svg width="102" height="84" viewBox="0 0 102 84" fill="none" xmlns="http://www.w3.org/2000/svg">
<path d="M51.7 83.5477C51.7 83.4053 51.77 83.3697 52.05 83.3697C52.45 83.3697 52.54 83.5833 52.18 83.6723C51.8 83.7613 51.7 83.7346 51.7 83.5477Z" fill="#949494"/>
<path d="M53.5 83.3697C53.5 83.2273 53.57 83.1917 53.85 83.1917C54.25 83.1917 54.34 83.4053 53.98 83.4943C53.6 83.5833 53.5 83.5566 53.5 83.3697Z" fill="#949494"/>
<path d="M50 82.3018C50 82.1505 50.07 82.1238 50.5 82.1238C50.93 82.1238 51 82.1505 51 82.3018C51 82.4531 50.93 82.4798 50.5 82.4798C50.07 82.4798 50 82.4531 50 82.3018Z" fill="#949494"/>
<path d="M51.8 82.3018C51.8 82.1505 51.87 82.1238 52.25 82.1238C52.63 82.1238 52.7 82.1505 52.7 82.3018C52.7 82.4531 52.63 82.4798 52.25 82.4798C51.87 82.4798 51.8 82.4531 51.8 82.3018Z" fill="#949494"/>
<path d="M57.5 82.2573C57.5 82.0616 57.54 82.0349 57.85 82.0349C58.26 82.0349 58.28 82.0794 57.98 82.3107C57.66 82.5332 57.5 82.5243 57.5 82.2573Z" fill="#949494"/>
<path d="M43.93 82.2217C43.62 81.9904 43.64 81.9459 44.05 81.9459C44.36 81.9459 44.4 81.9726 44.4 82.1684C44.4 82.4353 44.24 82.4442 43.93 82.2217Z" fill="#949494"/>
<path d="M48.3 81.8213C48.3 81.6433 48.34 81.6166 48.53 81.6522C49.07 81.7768 49.16 82.0349 48.65 82.0349C48.35 82.0349 48.3 82.0082 48.3 81.8213V81.8213Z" fill="#949494"/>
<path d="M54 81.8658C54 81.759 54.21 81.6255 54.48 81.5632C54.66 81.5276 54.7 81.5543 54.7 81.7323C54.7 81.9192 54.65 81.9459 54.35 81.9459C54.16 81.9459 54 81.9103 54 81.8658Z" fill="#949494"/>
<path d="M55 81.4297C55 81.3585 55.25 81.2073 55.88 80.9047C56.41 80.6555 56.4 80.6555 56.4 80.9225C56.4 81.1005 56.35 81.145 56.15 81.145C56 81.145 55.9 81.1984 55.9 81.2695C55.9 81.3407 55.83 81.4208 55.74 81.4475C55.52 81.5276 55 81.5098 55 81.4297Z" fill="#949494"/>
<path d="M46.7 81.1894C46.7 81.1093 46.61 81.0559 46.45 81.0559C46.31 81.0559 46.2 81.0203 46.2 80.967C46.2 80.9225 46.13 80.878 46.05 80.878C45.96 80.878 45.9 80.7979 45.9 80.6555C45.9 80.4597 45.86 80.433 45.55 80.433C45.22 80.433 45.2 80.4152 45.2 80.1215C45.2 79.819 45.21 79.819 45.38 79.9703C45.62 80.166 46.04 80.4419 46.38 80.611C46.53 80.6822 46.7 80.7979 46.78 80.8602C46.85 80.9136 46.96 80.967 47.01 80.967C47.12 80.967 47.4 81.1894 47.4 81.2695C47.4 81.2962 47.24 81.3229 47.05 81.3229C46.81 81.3229 46.7 81.2784 46.7 81.1894V81.1894Z" fill="#949494"/>
<path d="M56.87 80.344C57.05 80.1928 57.21 80.0771 57.24 80.0771C57.28 80.0771 57.3 80.2017 57.3 80.344C57.3 80.5932 57.28 80.611 56.93 80.611C56.55 80.611 56.55 80.611 56.87 80.344Z" fill="#949494"/>
<path d="M57.8 78.2794C57.8 77.9769 57.83 77.9413 58.05 77.9413C58.36 77.9413 58.37 78.0392 58.05 78.3595C57.81 78.6087 57.81 78.6087 57.8 78.2794Z" fill="#949494"/>
<path d="M44.58 78.2083C44.3 77.8968 44.3 77.8968 44.56 77.8701C44.89 77.8345 44.92 77.8612 44.88 78.2172C44.85 78.5197 44.85 78.5197 44.58 78.2083V78.2083Z" fill="#949494"/>
<path d="M43.1 77.7188C43.1 77.3629 43.34 77.2828 43.44 77.612C43.54 77.9413 43.51 78.0303 43.3 78.0303C43.14 78.0303 43.1 77.968 43.1 77.7188Z" fill="#949494"/>
<path d="M59.3 77.6209C59.45 77.2739 59.23 76.3039 58.96 76.1437C58.9 76.1081 59 76.0725 59.18 76.0725C59.48 76.0725 59.5 76.0903 59.5 76.3839C59.5 76.553 59.55 76.6954 59.6 76.6954C59.66 76.6954 59.7 76.9446 59.7 77.2739C59.7 77.8256 59.69 77.8523 59.45 77.8523C59.23 77.8523 59.21 77.8345 59.3 77.6209V77.6209Z" fill="#949494"/>
<path d="M44.26 77.2827C44.29 76.8645 44.56 76.2505 44.71 76.2505C44.76 76.2505 44.8 76.3928 44.8 76.5619C44.8 76.731 44.76 76.8734 44.7 76.8734C44.65 76.8734 44.6 77.0514 44.6 77.2738C44.6 77.6031 44.57 77.6743 44.41 77.6743C44.25 77.6743 44.23 77.612 44.26 77.2827Z" fill="#949494"/>
<path d="M62.7 76.6598C62.7 76.375 62.73 76.3394 62.95 76.3394C63.19 76.3394 63.2 76.3483 63.07 76.6242C62.88 77.0336 62.7 77.0514 62.7 76.6598V76.6598Z" fill="#949494"/>
<path d="M57.9 76.6064C57.9 76.5085 57.83 76.4284 57.75 76.4284C57.66 76.4284 57.6 76.3484 57.6 76.206C57.6 76.0369 57.64 76.0013 57.77 76.0458C57.97 76.117 58.2 76.3217 58.38 76.5886C58.49 76.7755 58.48 76.7844 58.2 76.7844C57.97 76.7844 57.9 76.7488 57.9 76.6064V76.6064Z" fill="#949494"/>
<path d="M56.7 76.0725C56.7 76.028 56.54 75.9835 56.35 75.9835C56.06 75.9835 56 75.9479 56 75.7966C56 75.583 56.09 75.5919 57.13 75.85C57.53 75.9479 57.48 76.1615 57.05 76.1615C56.86 76.1615 56.7 76.1259 56.7 76.0725Z" fill="#949494"/>
<path d="M58.78 75.85C58.71 75.7699 58.56 75.6275 58.46 75.5385C58.26 75.3606 58.27 75.3606 58.63 75.3606C58.99 75.3606 59 75.3695 59 75.672C59 76.0191 58.97 76.0458 58.78 75.85Z" fill="#949494"/>
<path d="M46.9 75.6809C46.9 75.5652 47.18 75.4495 47.48 75.4495C47.54 75.4495 47.6 75.5296 47.6 75.6275C47.6 75.7699 47.53 75.8055 47.25 75.8055C47.02 75.8055 46.9 75.761 46.9 75.6809Z" fill="#949494"/>
<path d="M53.93 75.6008C53.33 75.5207 53.2 75.4762 53.2 75.3427C53.2 75.1559 53.23 75.1559 54.1 75.2716C55.16 75.4228 55.3 75.4584 55.3 75.5919C55.3 75.7343 55.04 75.7343 53.93 75.6008V75.6008Z" fill="#949494"/>
<path d="M48 75.5029C48 75.3872 48.28 75.2716 48.58 75.2716C48.64 75.2716 48.7 75.3516 48.7 75.4495C48.7 75.5919 48.63 75.6275 48.35 75.6275C48.12 75.6275 48 75.583 48 75.5029Z" fill="#949494"/>
<path d="M48.8 75.4139C48.8 75.2982 49.08 75.1826 49.38 75.1826C49.44 75.1826 49.5 75.2627 49.5 75.3605C49.5 75.5029 49.43 75.5385 49.15 75.5385C48.92 75.5385 48.8 75.494 48.8 75.4139Z" fill="#949494"/>
<path d="M38.46 75.2538C38.36 74.9156 38.39 74.8266 38.6 74.8266C38.76 74.8266 38.8 74.8889 38.8 75.1381C38.8 75.494 38.56 75.5741 38.46 75.2538Z" fill="#949494"/>
<path d="M49.9 75.3249C49.9 75.2004 50.19 75.0936 50.58 75.0936C50.73 75.0936 50.8 75.147 50.8 75.2716C50.8 75.4228 50.73 75.4495 50.35 75.4495C50.03 75.4495 49.9 75.4139 49.9 75.3249Z" fill="#949494"/>
<path d="M52 75.2715C52 75.0847 52.23 75.0402 52.68 75.147C53.09 75.2448 52.94 75.4495 52.45 75.4495C52.07 75.4495 52 75.4228 52 75.2715Z" fill="#949494"/>
<path d="M63.4 74.6931C63.4 74.444 63.44 74.3817 63.6 74.3817C63.81 74.3817 63.84 74.4707 63.74 74.8088C63.64 75.1292 63.4 75.0491 63.4 74.6931Z" fill="#949494"/>
<path d="M63.6 73.8922C63.6 73.6252 63.63 73.5807 63.84 73.5807C64.07 73.5807 64.08 73.5985 63.97 73.8922C63.91 74.0613 63.81 74.2037 63.73 74.2037C63.65 74.2037 63.6 74.088 63.6 73.8922Z" fill="#949494"/>
<path d="M38.06 73.6074C37.87 72.7086 37.87 72.6018 38.09 72.6018C38.22 72.6018 38.3 72.6552 38.3 72.762C38.3 72.8421 38.33 73.1269 38.36 73.385C38.42 73.7676 38.4 73.8477 38.27 73.8477C38.18 73.8477 38.09 73.7409 38.06 73.6074Z" fill="#949494"/>
<path d="M63.8 72.7353C63.8 72.4861 63.84 72.4238 64 72.4238C64.17 72.4238 64.2 72.4772 64.17 72.7353C64.16 72.9667 64.1 73.0468 63.98 73.0468C63.84 73.0468 63.8 72.9756 63.8 72.7353V72.7353Z" fill="#949494"/>
<path d="M63.9 71.4004C63.9 71.1513 63.94 71.089 64.1 71.089C64.31 71.089 64.34 71.178 64.24 71.5161C64.14 71.8365 63.9 71.7564 63.9 71.4004Z" fill="#949494"/>
<path d="M63.9 70.6885C63.9 70.3326 64.14 70.2525 64.24 70.5817C64.34 70.911 64.31 71 64.1 71C63.94 71 63.9 70.9377 63.9 70.6885Z" fill="#949494"/>
<path d="M37.9 69.5584C37.9 69.2914 38.03 69.0422 38.16 69.0422C38.25 69.0422 38.3 69.149 38.3 69.3537C38.3 69.6028 38.26 69.6651 38.1 69.6651C37.99 69.6651 37.9 69.6118 37.9 69.5584Z" fill="#949494"/>
<path d="M63.6 68.2858C63.6 67.9298 63.84 67.8497 63.94 68.179C64.04 68.5083 64.01 68.5972 63.8 68.5972C63.64 68.5972 63.6 68.535 63.6 68.2858Z" fill="#949494"/>
<path d="M38.2 67.7785C38.2 67.5116 38.33 67.2624 38.46 67.2624C38.55 67.2624 38.6 67.3692 38.6 67.5738C38.6 67.823 38.56 67.8853 38.4 67.8853C38.29 67.8853 38.2 67.8319 38.2 67.7785Z" fill="#949494"/>
<path d="M37.28 66.7551C36.95 66.684 37.08 66.4615 37.45 66.4615C37.73 66.4615 37.8 66.4971 37.8 66.6395C37.8 66.8174 37.66 66.8441 37.28 66.7551Z" fill="#949494"/>
<path d="M65.8 66.4615C65.8 66.3191 65.87 66.2835 66.15 66.2835C66.42 66.2835 66.5 66.3191 66.5 66.4437C66.5 66.5505 66.41 66.6038 66.15 66.6127C65.86 66.6394 65.8 66.6128 65.8 66.4615Z" fill="#949494"/>
<path d="M67.2 66.2835C67.2 66.1411 67.27 66.1055 67.55 66.1055C67.95 66.1055 68.04 66.3191 67.68 66.4081C67.3 66.4971 67.2 66.4704 67.2 66.2835Z" fill="#949494"/>
<path d="M33.78 66.3102C33.45 66.239 33.58 66.0165 33.95 66.0165C34.23 66.0165 34.3 66.0521 34.3 66.1945C34.3 66.3725 34.16 66.3992 33.78 66.3102Z" fill="#949494"/>
<path d="M69.2 66.0254C69.2 65.9097 69.26 65.8385 69.38 65.8385C69.47 65.8385 69.79 65.8118 70.08 65.7851C70.51 65.7317 70.6 65.7495 70.6 65.8652C70.6 65.9987 70.48 66.0432 69.63 66.15C69.24 66.2034 69.2 66.1945 69.2 66.0254V66.0254Z" fill="#949494"/>
<path d="M30.48 65.8652C30.15 65.794 30.28 65.5716 30.65 65.5716C30.93 65.5716 31 65.6072 31 65.7495C31 65.9275 30.86 65.9542 30.48 65.8652Z" fill="#949494"/>
<path d="M28.58 65.5983C28.25 65.5271 28.38 65.3046 28.75 65.3046C29.03 65.3046 29.1 65.3402 29.1 65.4826C29.1 65.6606 28.96 65.6873 28.58 65.5983Z" fill="#949494"/>
<path d="M26.68 65.3313C26.35 65.2601 26.48 65.0376 26.85 65.0376C27.13 65.0376 27.2 65.0732 27.2 65.2156C27.2 65.3936 27.06 65.4203 26.68 65.3313Z" fill="#949494"/>
<path d="M75 65.2156C75 65.0732 75.07 65.0376 75.35 65.0376C75.75 65.0376 75.84 65.2512 75.48 65.3402C75.1 65.4292 75 65.4025 75 65.2156Z" fill="#949494"/>
<path d="M23.68 64.8863C23.35 64.8151 23.48 64.5927 23.85 64.5927C24.13 64.5927 24.2 64.6283 24.2 64.7706C24.2 64.9486 24.06 64.9753 23.68 64.8863Z" fill="#949494"/>
<path d="M78 64.7706C78 64.6283 78.07 64.5927 78.35 64.5927C78.75 64.5927 78.84 64.8062 78.48 64.8952C78.1 64.9842 78 64.9575 78 64.7706Z" fill="#949494"/>
<path d="M21.28 64.5304C20.95 64.4592 21.08 64.2367 21.45 64.2367C21.73 64.2367 21.8 64.2723 21.8 64.4147C21.8 64.5927 21.66 64.6194 21.28 64.5304Z" fill="#949494"/>
<path d="M19.58 64.2634C19.25 64.1922 19.38 63.9697 19.75 63.9697C20.03 63.9697 20.1 64.0053 20.1 64.1477C20.1 64.3257 19.96 64.3524 19.58 64.2634Z" fill="#949494"/>
<path d="M16.18 63.7294C15.85 63.6583 15.98 63.4358 16.35 63.4358C16.63 63.4358 16.7 63.4714 16.7 63.6138C16.7 63.7917 16.56 63.8184 16.18 63.7294Z" fill="#949494"/>
<path d="M87.2 63.3468C87.2 63.2044 87.27 63.1688 87.55 63.1688C87.95 63.1688 88.04 63.3824 87.68 63.4714C87.3 63.5604 87.2 63.5337 87.2 63.3468Z" fill="#949494"/>
<path d="M13.88 63.3735C13.55 63.3023 13.68 63.0798 14.05 63.0798C14.33 63.0798 14.4 63.1154 14.4 63.2578C14.4 63.4358 14.26 63.4625 13.88 63.3735Z" fill="#949494"/>
<path d="M90 62.9374C90 62.7506 90.05 62.7239 90.35 62.7239C90.57 62.7239 90.7 62.7683 90.7 62.8395C90.7 62.9107 90.54 62.9997 90.35 63.0531C90.02 63.151 90 63.1421 90 62.9374Z" fill="#949494"/>
<path d="M93.8 62.2789C93.8 62.1365 93.87 62.1009 94.15 62.1009C94.55 62.1009 94.64 62.3145 94.28 62.4035C93.9 62.4925 93.8 62.4658 93.8 62.2789Z" fill="#949494"/>
<path d="M6.78 62.2166C6.45 62.1454 6.58 61.9229 6.95 61.9229C7.23 61.9229 7.3 61.9585 7.3 62.1009C7.3 62.2789 7.16 62.3056 6.78 62.2166Z" fill="#949494"/>
<path d="M94.9 62.1009C94.9 61.9585 94.97 61.9229 95.25 61.9229C95.65 61.9229 95.74 62.1365 95.38 62.2255C95 62.3145 94.9 62.2878 94.9 62.1009Z" fill="#949494"/>
<path d="M97 61.7628C97 61.5937 97.37 61.478 97.98 61.478C98.27 61.478 98.25 61.7539 97.95 61.8072C97.04 61.9496 97 61.9407 97 61.7628Z" fill="#949494"/>
<path d="M0.979991 61.1042C1.03999 60.8728 1.49999 60.8906 1.49999 61.122C1.49999 61.2644 1.43999 61.3 1.20999 61.2822C0.989991 61.2644 0.939991 61.2288 0.979991 61.1042V61.1042Z" fill="#949494"/>
<path d="M100.7 60.4546C100.7 60.0986 100.94 60.0185 101.04 60.3478C101.14 60.6771 101.11 60.7661 100.9 60.7661C100.74 60.7661 100.7 60.7038 100.7 60.4546Z" fill="#949494"/>
<path d="M67.5 59.4312C67.5 59.2443 67.73 59.1998 68.18 59.3066C68.59 59.4045 68.44 59.6092 67.95 59.6092C67.57 59.6092 67.5 59.5825 67.5 59.4312Z" fill="#949494"/>
<path d="M71.8 59.4846C71.8 59.36 72.09 59.2532 72.48 59.2532C72.63 59.2532 72.7 59.3066 72.7 59.4312C72.7 59.5825 72.63 59.6092 72.25 59.6092C71.93 59.6092 71.8 59.5736 71.8 59.4846Z" fill="#949494"/>
<path d="M28.5 59.3422C28.5 59.1553 28.6 59.1286 28.98 59.2176C29.34 59.3066 29.25 59.5202 28.85 59.5202C28.57 59.5202 28.5 59.4846 28.5 59.3422Z" fill="#949494"/>
<path d="M66.7 59.3422C66.7 59.1553 66.8 59.1286 67.18 59.2176C67.54 59.3066 67.45 59.5202 67.05 59.5202C66.77 59.5202 66.7 59.4846 66.7 59.3422Z" fill="#949494"/>
<path d="M73 59.3956C73 59.3333 73.1 59.2532 73.23 59.2176C73.64 59.1197 73.8 59.1553 73.8 59.3422C73.8 59.4935 73.73 59.5202 73.4 59.5202C73.13 59.5202 73 59.4846 73 59.3956Z" fill="#949494"/>
<path d="M100.6 59.2087C100.6 58.8527 100.84 58.7727 100.94 59.1019C101.04 59.4312 101.01 59.5202 100.8 59.5202C100.64 59.5202 100.6 59.4579 100.6 59.2087Z" fill="#949494"/>
<path d="M74 59.3155C74 59.1642 74.15 59.1286 75.38 58.9862C76.49 58.8527 77.78 58.6481 77.9 58.5858C77.96 58.5591 78 58.6303 78 58.746C78 58.9506 77.95 58.9595 76.58 59.1464C74.28 59.4579 74 59.4757 74 59.3155V59.3155Z" fill="#949494"/>
<path d="M64.7 58.9862C64.7 58.7994 64.8 58.7727 65.18 58.8616C65.54 58.9506 65.45 59.1642 65.05 59.1642C64.77 59.1642 64.7 59.1286 64.7 58.9862Z" fill="#949494"/>
<path d="M1.1 58.9684C1.1 58.7015 1.23 58.4523 1.36 58.4523C1.45 58.4523 1.5 58.5591 1.5 58.7638C1.5 59.0129 1.46 59.0752 1.3 59.0752C1.19 59.0752 1.1 59.0218 1.1 58.9684Z" fill="#949494"/>
<path d="M22.3 58.4523C22.3 58.2654 22.4 58.2387 22.78 58.3277C23.14 58.4167 23.05 58.6303 22.65 58.6303C22.37 58.6303 22.3 58.5947 22.3 58.4523Z" fill="#949494"/>
<path d="M33.2 58.4523C33.2 58.3099 33.27 58.2743 33.55 58.2743C33.95 58.2743 34.04 58.4879 33.68 58.5769C33.3 58.6659 33.2 58.6392 33.2 58.4523Z" fill="#949494"/>
<path d="M38.62 58.5324C38.64 58.4879 38.8 58.3633 38.98 58.2654C39.3 58.0785 39.3 58.0785 39.3 58.3544C39.3 58.6125 39.28 58.6303 38.94 58.6303C38.74 58.6303 38.6 58.5947 38.62 58.5324Z" fill="#949494"/>
<path d="M62.93 58.5235C62.78 58.4612 62.7 58.3455 62.7 58.212C62.7 58.0251 62.74 58.0073 62.93 58.0518C63.27 58.1497 63.73 58.3989 63.78 58.5235C63.83 58.657 63.25 58.657 62.93 58.5235Z" fill="#949494"/>
<path d="M29.48 58.479C29.15 58.4078 29.28 58.1853 29.65 58.1853C29.93 58.1853 30 58.2209 30 58.3633C30 58.5413 29.86 58.568 29.48 58.479Z" fill="#949494"/>
<path d="M1.6 58.3722C1.6 58.2565 1.76 58.1675 2.33 57.9895C2.8 57.8383 2.8 57.8383 2.8 58.0607C2.8 58.2298 2.75 58.2743 2.55 58.2743C2.41 58.2743 2.3 58.3188 2.3 58.3633C2.3 58.4167 2.14 58.4523 1.95 58.4523C1.76 58.4523 1.6 58.4167 1.6 58.3722Z" fill="#949494"/>
<path d="M28.48 58.39C28.15 58.3188 28.28 58.0963 28.65 58.0963C28.93 58.0963 29 58.1319 29 58.2743C29 58.4523 28.86 58.479 28.48 58.39Z" fill="#949494"/>
<path d="M35.3 58.2921C35.3 58.1586 35.43 58.1052 35.94 58.0251C36.81 57.8828 37.02 57.8916 36.98 58.0607C36.96 58.1319 36.93 58.1942 36.9 58.1942C36.87 58.1942 36.56 58.2565 36.2 58.3188C35.35 58.4879 35.3 58.479 35.3 58.2921Z" fill="#949494"/>
<path d="M80.4 58.3277C80.4 58.2565 80.63 58.1586 81 58.0785C81.6 57.9539 81.6 57.9539 81.6 58.1408C81.6 58.301 81.53 58.3544 81.23 58.3989C80.64 58.479 80.4 58.4612 80.4 58.3277V58.3277Z" fill="#949494"/>
<path d="M27.2 58.2654C26.08 58.1052 26 58.0874 26 57.9628C26 57.8027 26.08 57.8027 27.21 57.9361C27.96 58.0251 28.1 58.0607 28.1 58.2031C28.1 58.3811 28.04 58.3811 27.2 58.2654V58.2654Z" fill="#949494"/>
<path d="M82 58.0607C82 57.9806 82.01 57.9183 82.03 57.9183C82.04 57.9183 82.43 57.856 82.9 57.7849C83.37 57.7048 83.95 57.6247 84.2 57.598C84.45 57.5713 84.92 57.5179 85.25 57.4734C86.06 57.3577 86.1 57.3577 86.1 57.5446C86.1 57.6781 85.86 57.7226 84.42 57.9094C81.95 58.2298 82 58.2298 82 58.0607Z" fill="#949494"/>
<path d="M19 57.9183C19 57.7315 19.1 57.7048 19.48 57.7938C19.84 57.8827 19.75 58.0963 19.35 58.0963C19.07 58.0963 19 58.0607 19 57.9183Z" fill="#949494"/>
<path d="M23.88 57.7671C23.55 57.6959 23.68 57.4734 24.05 57.4734C24.33 57.4734 24.4 57.509 24.4 57.6514C24.4 57.8294 24.26 57.856 23.88 57.7671Z" fill="#949494"/>
<path d="M4.4 57.6158C4.4 57.5001 4.68 57.3844 4.98 57.3844C5.04 57.3844 5.1 57.4645 5.1 57.5624C5.1 57.7048 5.03 57.7404 4.75 57.7404C4.52 57.7404 4.4 57.6959 4.4 57.6158Z" fill="#949494"/>
<path d="M86.2 57.5268C86.2 57.4111 86.48 57.2954 86.78 57.2954C86.84 57.2954 86.9 57.3755 86.9 57.4734C86.9 57.6158 86.83 57.6514 86.55 57.6514C86.32 57.6514 86.2 57.6069 86.2 57.5268Z" fill="#949494"/>
<path d="M96.48 57.5891C96.18 57.5624 96.1 57.5179 96.1 57.3755C96.1 57.2153 96.15 57.2064 96.55 57.242C97.25 57.3132 97.5 57.3933 97.5 57.5268C97.5 57.6514 97.31 57.6603 96.48 57.5891V57.5891Z" fill="#949494"/>
<path d="M87.1 57.4378C87.1 57.3755 87.2 57.2954 87.33 57.2598C87.74 57.1619 87.9 57.1975 87.9 57.3844C87.9 57.5357 87.83 57.5624 87.5 57.5624C87.23 57.5624 87.1 57.5268 87.1 57.4378Z" fill="#949494"/>
<path d="M6.5 57.3488C6.5 57.2331 6.78 57.1174 7.08 57.1174C7.14 57.1174 7.2 57.1975 7.2 57.2954C7.2 57.4378 7.13 57.4734 6.85 57.4734C6.62 57.4734 6.5 57.4289 6.5 57.3488Z" fill="#949494"/>
<path d="M13.4 57.2954C13.4 57.1085 13.5 57.0818 13.88 57.1708C14.24 57.2598 14.15 57.4734 13.75 57.4734C13.47 57.4734 13.4 57.4378 13.4 57.2954Z" fill="#949494"/>
<path d="M88.2 57.3488C88.2 57.2865 88.3 57.2064 88.43 57.1708C88.84 57.0729 89 57.1085 89 57.2954C89 57.4467 88.93 57.4734 88.6 57.4734C88.33 57.4734 88.2 57.4378 88.2 57.3488Z" fill="#949494"/>
<path d="M95.2 57.2954C95.2 57.1085 95.36 57.0729 95.78 57.1708C96.17 57.2687 96.05 57.4734 95.6 57.4734C95.27 57.4734 95.2 57.4467 95.2 57.2954Z" fill="#949494"/>
<path d="M11.6 57.2064C11.6 57.0195 11.7 56.9928 12.08 57.0818C12.44 57.1708 12.35 57.3844 11.95 57.3844C11.67 57.3844 11.6 57.3488 11.6 57.2064Z" fill="#949494"/>
<path d="M89.7 57.2598C89.7 57.1263 90 57.0284 90.43 57.0284C90.63 57.0284 90.7 57.0729 90.7 57.2064C90.7 57.3577 90.63 57.3844 90.2 57.3844C89.84 57.3844 89.7 57.3488 89.7 57.2598Z" fill="#949494"/>
<path d="M93.8 57.2064C93.8 57.0729 93.87 57.0284 94.08 57.0284C94.5 57.0284 94.8 57.1263 94.8 57.2598C94.8 57.3488 94.66 57.3844 94.3 57.3844C93.87 57.3844 93.8 57.3577 93.8 57.2064Z" fill="#949494"/>
<path d="M100.47 57.3221C100.34 57.2064 100.4 57.0284 100.58 57.0284C100.69 57.0284 100.76 57.0907 100.76 57.2064C100.76 57.3844 100.6 57.4467 100.47 57.3221V57.3221Z" fill="#949494"/>
<path d="M20.79 57.2598C20.77 57.242 20.59 57.2064 20.4 57.1886C19.99 57.1441 19.83 56.8505 20.22 56.8505C20.81 56.8505 21.2 56.9661 21.2 57.1263C21.2 57.2776 20.91 57.3666 20.79 57.2598V57.2598Z" fill="#949494"/>
<path d="M18.2 56.7437C18.2 56.6191 18.28 56.5835 18.55 56.5835C18.83 56.5835 18.9 56.6191 18.9 56.7615C18.9 56.9128 18.84 56.9395 18.55 56.9128C18.29 56.9039 18.2 56.8505 18.2 56.7437V56.7437Z" fill="#949494"/>
<path d="M100.17 55.8538C100.07 55.2486 99.88 54.2608 99.75 53.6468C99.45 52.3119 99.44 52.1072 99.67 52.1517C99.76 52.1695 99.84 52.2407 99.86 52.3119C99.89 52.4899 99.99 52.926 100.05 53.2018C100.08 53.3264 100.13 53.5667 100.16 53.7358C100.19 53.9049 100.28 54.4121 100.37 54.8482C100.54 55.7826 100.56 55.8538 100.64 56.4767C100.7 56.886 100.69 56.9394 100.53 56.9394C100.37 56.9394 100.32 56.7882 100.17 55.8538V55.8538Z" fill="#949494"/>
<path d="M15.98 56.6102C15.65 56.539 15.78 56.3165 16.15 56.3165C16.43 56.3165 16.5 56.3521 16.5 56.4945C16.5 56.6725 16.36 56.6992 15.98 56.6102Z" fill="#949494"/>
<path d="M14.18 56.4322C13.85 56.361 13.98 56.1385 14.35 56.1385C14.63 56.1385 14.7 56.1741 14.7 56.3165C14.7 56.4945 14.56 56.5212 14.18 56.4322Z" fill="#949494"/>
<path d="M9.1 56.1385C9.1 55.9694 9.17 55.9605 10.2 55.9605C11.23 55.9605 11.3 55.9694 11.3 56.1385C11.3 56.3076 11.23 56.3165 10.2 56.3165C9.17 56.3165 9.1 56.3076 9.1 56.1385Z" fill="#949494"/>
<path d="M1.64 55.1863C1.78 54.4566 1.82 54.3587 1.96 54.3587C2.12 54.3587 2.13 54.4922 2.04 55.1062C1.99 55.4355 1.93 55.5156 1.78 55.5156C1.6 55.5156 1.59 55.4711 1.64 55.1863Z" fill="#949494"/>
<path d="M59.8 55.2931C59.8 55.1685 59.76 55.0706 59.7 55.0706C59.65 55.0706 59.6 54.9283 59.6 54.7592C59.6 54.5901 59.64 54.4477 59.69 54.4477C59.81 54.4477 59.84 54.4922 60.09 55.0528C60.3 55.5156 60.3 55.5156 60.05 55.5156C59.85 55.5156 59.8 55.4711 59.8 55.2931Z" fill="#949494"/>
<path d="M61.06 55.1685C61.03 55.1329 60.96 54.9905 60.91 54.8571C60.81 54.6435 60.83 54.6257 61.05 54.6257C61.27 54.6257 61.3 54.6613 61.3 54.9372C61.3 55.2308 61.18 55.3465 61.06 55.1685Z" fill="#949494"/>
<path d="M29.7 53.5222C29.7 53.451 29.81 53.3709 29.94 53.3442C30.11 53.3086 30.19 53.2107 30.24 52.9794C30.33 52.5611 30.6 52.5522 30.6 52.9794C30.6 53.1484 30.56 53.2908 30.5 53.2908C30.45 53.2908 30.4 53.3709 30.4 53.4688C30.4 53.6112 30.33 53.6468 30.05 53.6468C29.82 53.6468 29.7 53.6023 29.7 53.5222Z" fill="#949494"/>
<path d="M63.1 53.5222C63.1 53.451 63.21 53.3709 63.34 53.3442C63.53 53.2997 63.59 53.2196 63.64 52.8726C63.76 52.1072 63.81 51.956 63.97 51.956C64.1 51.956 64.11 52.0539 64.05 52.6056C64.01 52.9527 63.94 53.2641 63.89 53.273C63.84 53.2908 63.8 53.3798 63.8 53.4777C63.8 53.6112 63.73 53.6468 63.45 53.6468C63.22 53.6468 63.1 53.6023 63.1 53.5222V53.5222Z" fill="#949494"/>
<path d="M72.06 52.7391C71.95 52.3653 71.99 52.2229 72.2 52.2229C72.37 52.2229 72.4 52.2852 72.4 52.5789C72.4 52.9794 72.17 53.0861 72.06 52.7391Z" fill="#949494"/>
<path d="M38.66 52.6501C38.56 52.3119 38.59 52.2229 38.8 52.2229C38.96 52.2229 39 52.2852 39 52.5344C39 52.8904 38.76 52.9705 38.66 52.6501Z" fill="#949494"/>
<path d="M29.1 52.4454C29.1 52.1962 29.14 52.1339 29.3 52.1339C29.51 52.1339 29.54 52.2229 29.44 52.5611C29.34 52.8815 29.1 52.8014 29.1 52.4454Z" fill="#949494"/>
<path d="M62.5 52.5611C62.5 52.0361 62.63 51.689 62.81 51.689C63.03 51.689 63.03 51.7157 62.89 52.3119C62.78 52.7658 62.5 52.9527 62.5 52.5611Z" fill="#949494"/>
<path d="M70.8 52.3475C70.8 52.0983 70.84 52.0361 70.97 52.0627C71.07 52.0805 71.15 52.1962 71.17 52.3831C71.21 52.6234 71.18 52.6679 71.01 52.6679C70.84 52.6679 70.8 52.6145 70.8 52.3475Z" fill="#949494"/>
<path d="M30.3 52.4721C30.3 52.2051 30.43 51.956 30.56 51.956C30.65 51.956 30.7 52.0628 30.7 52.2674C30.7 52.5166 30.66 52.5789 30.5 52.5789C30.39 52.5789 30.3 52.5255 30.3 52.4721Z" fill="#949494"/>
<path d="M60.06 52.3831C59.96 52.045 59.99 51.956 60.2 51.956C60.36 51.956 60.4 52.0183 60.4 52.2674C60.4 52.6234 60.16 52.7035 60.06 52.3831Z" fill="#949494"/>
<path d="M43.2 52.2051C43.2 51.9382 43.33 51.689 43.46 51.689C43.55 51.689 43.6 51.7958 43.6 52.0005C43.6 52.2496 43.56 52.3119 43.4 52.3119C43.29 52.3119 43.2 52.2585 43.2 52.2051Z" fill="#949494"/>
<path d="M58.8 51.956C58.8 51.5555 59.03 51.4487 59.14 51.8047C59.25 52.1695 59.21 52.3119 59 52.3119C58.83 52.3119 58.8 52.2496 58.8 51.956Z" fill="#949494"/>
<path d="M38.5 51.9382C38.5 51.8136 37.83 50.6122 37.72 50.5321C37.68 50.5054 37.49 50.3363 37.31 50.1494C36.96 49.8202 36.96 49.8202 37.33 49.8202C37.67 49.8202 37.7 49.838 37.7 50.0871C37.7 50.3096 37.74 50.3541 37.95 50.3541C38.15 50.3541 38.2 50.3986 38.2 50.5766C38.2 50.7101 38.26 50.7991 38.34 50.7991C38.49 50.7991 38.6 50.986 38.6 51.2529C38.6 51.3419 38.65 51.422 38.7 51.422C38.76 51.422 38.8 51.5644 38.8 51.7335C38.8 51.9471 38.75 52.0449 38.65 52.0449C38.57 52.0449 38.5 51.9916 38.5 51.9382V51.9382Z" fill="#949494"/>
<path d="M99.3 51.6445C99.3 51.2885 99.54 51.2084 99.64 51.5377C99.74 51.867 99.71 51.956 99.5 51.956C99.34 51.956 99.3 51.8937 99.3 51.6445Z" fill="#949494"/>
<path d="M37.06 51.7246C36.98 51.5288 36.99 51.0661 37.08 51.0661C37.19 51.075 37.51 51.4932 37.55 51.689C37.58 51.8225 37.53 51.867 37.35 51.867C37.23 51.867 37.09 51.8047 37.06 51.7246V51.7246Z" fill="#949494"/>
<path d="M59.96 51.6712C59.81 51.155 59.93 50.3541 60.16 50.3541C60.27 50.3541 60.3 50.5232 60.3 51.1105C60.3 51.6979 60.27 51.867 60.16 51.867C60.09 51.867 60 51.778 59.96 51.6712Z" fill="#949494"/>
<path d="M70.46 51.7246C70.38 51.5288 70.39 51.0661 70.48 51.0661C70.59 51.075 70.91 51.4932 70.95 51.689C70.98 51.8225 70.93 51.867 70.75 51.867C70.63 51.867 70.49 51.8047 70.46 51.7246V51.7246Z" fill="#949494"/>
<path d="M71.61 51.2974C71.34 50.9148 71.35 50.7991 71.64 50.7991C71.9 50.7991 72 50.9415 72 51.3419C72 51.6801 71.86 51.6712 71.61 51.2974Z" fill="#949494"/>
<path d="M29.7 50.9326C29.7 50.6567 29.73 50.6211 29.95 50.6211C30.25 50.6211 30.25 50.6478 30.03 50.986C29.8 51.3241 29.7 51.3152 29.7 50.9326Z" fill="#949494"/>
<path d="M36.4 50.7546C36.4 50.5677 36.35 50.5321 36.1 50.5321C35.85 50.5321 35.8 50.4965 35.8 50.3096C35.8 50.185 35.83 50.0872 35.86 50.0872C36.05 50.0872 36.52 50.4253 36.89 50.8258C37.01 50.9593 36.99 50.9771 36.71 50.9771C36.45 50.9771 36.4 50.9415 36.4 50.7546Z" fill="#949494"/>
<path d="M63.6 50.3096C63.6 50.0249 63.62 49.9982 63.9 49.9982C64.19 49.9982 64.19 49.9982 64.02 50.2651C63.77 50.6567 63.6 50.6745 63.6 50.3096Z" fill="#949494"/>
<path d="M69.2 50.3096C69.2 50.0516 69.21 50.0516 69.54 50.185C69.95 50.3541 69.95 50.5321 69.55 50.5321C69.24 50.5321 69.2 50.5054 69.2 50.3096Z" fill="#949494"/>
<path d="M58.8 50.2473C58.8 50.1405 58.85 49.8024 58.91 49.4909C59 49.0371 59.06 48.9303 59.21 48.9303C59.42 48.9303 59.44 49.0193 59.31 49.4642C59.26 49.6333 59.19 49.927 59.15 50.1139C59.09 50.4698 58.8 50.5855 58.8 50.2473Z" fill="#949494"/>
<path d="M60.03 49.9537C60.04 49.7223 60.1 49.6422 60.23 49.6422C60.36 49.6422 60.4 49.7134 60.4 49.9537C60.4 50.2028 60.36 50.2651 60.2 50.2651C60.03 50.2651 60 50.2117 60.03 49.9537Z" fill="#949494"/>
<path d="M42 49.8647C42 49.5087 42.24 49.4286 42.34 49.7579C42.44 50.0872 42.41 50.1761 42.2 50.1761C42.04 50.1761 42 50.1139 42 49.8647Z" fill="#949494"/>
<path d="M68.4 49.9982C68.4 49.8024 68.6 49.7668 68.91 49.9092C69.21 50.0516 69.14 50.1761 68.75 50.1761C68.47 50.1761 68.4 50.1405 68.4 49.9982Z" fill="#949494"/>
<path d="M32.7 49.9626C32.7 49.8825 32.89 49.8024 33.2 49.7401C33.87 49.6155 33.9 49.6155 33.9 49.8113C33.9 49.9359 33.8 49.9893 33.53 50.0338C32.93 50.1139 32.7 50.0961 32.7 49.9626Z" fill="#949494"/>
<path d="M34.48 50.0249C34.28 49.9982 34.2 49.9359 34.2 49.8113C34.2 49.6155 34.23 49.6066 34.9 49.7401C35.21 49.8024 35.4 49.8825 35.4 49.9626C35.4 50.0872 35.1 50.105 34.48 50.0249V50.0249Z" fill="#949494"/>
<path d="M66.1 49.9626C66.1 49.8825 66.29 49.8024 66.6 49.7401C67.27 49.6155 67.3 49.6155 67.3 49.8113C67.3 49.9359 67.2 49.9893 66.93 50.0338C66.33 50.1139 66.1 50.0961 66.1 49.9626Z" fill="#949494"/>
<path d="M67.6 49.8202C67.6 49.6333 67.7 49.6066 68.08 49.6956C68.44 49.7846 68.35 49.9982 67.95 49.9982C67.67 49.9982 67.6 49.9626 67.6 49.8202Z" fill="#949494"/>
<path d="M98.6 49.1528C98.6 48.7701 98.81 48.7345 98.97 49.0994C99.09 49.393 99.05 49.4642 98.78 49.4642C98.64 49.4642 98.6 49.393 98.6 49.1528Z" fill="#949494"/>
<path d="M42.93 48.8858C42.82 48.5921 42.83 48.5743 43.06 48.5743C43.27 48.5743 43.3 48.6188 43.3 48.8858C43.3 49.0816 43.25 49.1972 43.17 49.1972C43.09 49.1972 42.99 49.0549 42.93 48.8858Z" fill="#949494"/>
<path d="M59.6 47.8179C59.6 47.542 59.63 47.5064 59.86 47.5064C60.08 47.5064 60.1 47.5331 60.04 47.7111C59.88 48.2006 59.6 48.2628 59.6 47.8179Z" fill="#949494"/>
<path d="M3.57 47.809C3.48 47.7289 3.66 47.4441 3.85 47.3818C3.96 47.3462 4 47.3996 4 47.5954C4 47.7912 3.95 47.8624 3.82 47.8624C3.72 47.8624 3.6 47.8357 3.57 47.809Z" fill="#949494"/>
<path d="M60.3 46.839C60.3 46.5453 60.32 46.5275 60.64 46.5275C60.98 46.5275 60.98 46.5275 60.67 46.839C60.5 47.0081 60.35 47.1505 60.33 47.1505C60.31 47.1505 60.3 47.0081 60.3 46.839Z" fill="#949494"/>
<path d="M61.7 46.8835C62.01 46.4919 62.1 46.483 62.1 46.8301C62.1 47.1238 62.08 47.1505 61.79 47.1505C61.49 47.1505 61.49 47.1505 61.7 46.8835Z" fill="#949494"/>
<path d="M96.7 46.8479C96.7 46.6699 96.74 46.6343 96.91 46.661C97.15 46.7055 97.4 46.8657 97.4 46.9814C97.4 47.0259 97.24 47.0615 97.05 47.0615C96.75 47.0615 96.7 47.0348 96.7 46.8479Z" fill="#949494"/>
<path d="M5.2 46.8924C5.2 46.7856 5.41 46.6521 5.68 46.5898C5.86 46.5542 5.9 46.5809 5.9 46.7589C5.9 46.9458 5.85 46.9725 5.55 46.9725C5.36 46.9725 5.2 46.9369 5.2 46.8924Z" fill="#949494"/>
<path d="M50.3 46.5275C50.3 46.3762 50.37 46.3495 50.8 46.3495C51.23 46.3495 51.3 46.3762 51.3 46.5275C51.3 46.6788 51.23 46.7055 50.8 46.7055C50.37 46.7055 50.3 46.6788 50.3 46.5275Z" fill="#949494"/>
<path d="M41.22 46.305C41 45.9936 41 45.9936 41.3 45.9936C41.58 45.9936 41.6 46.0203 41.6 46.305C41.6 46.6966 41.51 46.6966 41.22 46.305Z" fill="#949494"/>
<path d="M51.8 46.4652C51.8 46.3495 51.89 46.2961 52.15 46.2872C52.44 46.2605 52.5 46.2872 52.5 46.4385C52.5 46.5809 52.43 46.6165 52.15 46.6165C51.88 46.6165 51.8 46.5809 51.8 46.4652Z" fill="#949494"/>
<path d="M47.5 46.2606C47.5 46.0737 47.6 46.047 47.98 46.136C48.34 46.225 48.25 46.4385 47.85 46.4385C47.57 46.4385 47.5 46.4029 47.5 46.2606Z" fill="#949494"/>
<path d="M97.68 46.1627C97.48 46.0648 97.43 45.602 97.62 45.6554C97.76 45.6999 98.04 46.2605 97.93 46.2605C97.88 46.2605 97.77 46.2161 97.68 46.1627V46.1627Z" fill="#949494"/>
<path d="M7.2 46.0915C7.2 45.9847 7.41 45.8512 7.68 45.7889C7.86 45.7533 7.9 45.78 7.9 45.958C7.9 46.1449 7.85 46.1716 7.55 46.1716C7.36 46.1716 7.2 46.136 7.2 46.0915Z" fill="#949494"/>
<path d="M4.9 45.8512C4.9 45.6643 4.95 45.6376 5.25 45.6376C5.76 45.6376 5.67 45.8957 5.13 46.0203C4.94 46.0559 4.9 46.0292 4.9 45.8512Z" fill="#949494"/>
<path d="M45.98 46.0203C45.87 45.9936 45.8 45.8957 45.8 45.7711C45.8 45.5664 45.8 45.5664 46.3 45.7088C46.87 45.869 46.98 46.0915 46.48 46.0737C46.3 46.0648 46.07 46.047 45.98 46.0203Z" fill="#949494"/>
<path d="M62.86 45.8868C62.88 45.8245 63.09 45.6732 63.3 45.5486C63.52 45.4329 63.7 45.2995 63.7 45.2639C63.7 45.2283 63.75 45.1927 63.8 45.1927C63.86 45.1927 63.9 45.3173 63.9 45.4596C63.9 45.6643 63.86 45.7266 63.7 45.7266C63.59 45.7266 63.5 45.7889 63.5 45.8601C63.5 45.9491 63.39 45.9936 63.15 45.9936C62.92 45.9936 62.82 45.958 62.86 45.8868Z" fill="#949494"/>
<path d="M93.3 45.5041C93.3 45.2906 93.31 45.2817 93.62 45.3973C94.08 45.5664 94.1 45.7266 93.66 45.7266C93.34 45.7266 93.3 45.6999 93.3 45.5041V45.5041Z" fill="#949494"/>
<path d="M49.28 45.5753C48.95 45.5041 49.08 45.2816 49.45 45.2816C49.73 45.2816 49.8 45.3172 49.8 45.4596C49.8 45.6376 49.66 45.6643 49.28 45.5753Z" fill="#949494"/>
<path d="M52.1 45.3707C52.1 45.2283 52.17 45.1927 52.45 45.1927C52.85 45.1927 52.94 45.4063 52.58 45.4952C52.2 45.5842 52.1 45.5575 52.1 45.3707Z" fill="#949494"/>
<path d="M6.5 45.2283C6.5 45.0414 6.55 45.0147 6.85 45.0147C7.36 45.0147 7.27 45.2728 6.73 45.3973C6.54 45.4329 6.5 45.4062 6.5 45.2283Z" fill="#949494"/>
<path d="M47.78 45.3528C47.36 45.255 47.26 45.0147 47.64 45.0147C48.16 45.0147 48.5 45.1215 48.5 45.2905C48.5 45.4774 48.36 45.4863 47.78 45.3528V45.3528Z" fill="#949494"/>
<path d="M43.73 45.1304C43.66 45.1126 43.6 44.9702 43.6 44.8278C43.6 44.5697 43.6 44.5697 44.05 44.8189C44.3 44.9524 44.5 45.0859 44.5 45.1215C44.5 45.2016 43.92 45.2016 43.73 45.1304Z" fill="#949494"/>
<path d="M91.8 44.9702C91.8 44.7566 91.81 44.7477 92.12 44.8634C92.58 45.0325 92.6 45.1927 92.16 45.1927C91.84 45.1927 91.8 45.166 91.8 44.9702V44.9702Z" fill="#949494"/>
<path d="M54.1 44.8812C54.1 44.6854 54.14 44.6587 54.46 44.6587C54.9 44.6587 54.88 44.8189 54.42 44.988C54.11 45.1037 54.1 45.0948 54.1 44.8812Z" fill="#949494"/>
<path d="M7.9 44.6943C7.9 44.5074 7.95 44.4807 8.25 44.4807C8.76 44.4807 8.67 44.7388 8.13 44.8634C7.94 44.899 7.9 44.8723 7.9 44.6943Z" fill="#949494"/>
<path d="M56.6 44.8634C56.6 44.8189 56.76 44.7032 56.95 44.5875C57.3 44.3917 57.3 44.3917 57.3 44.6587C57.3 44.9079 57.27 44.9257 56.95 44.9257C56.76 44.9257 56.6 44.899 56.6 44.8634V44.8634Z" fill="#949494"/>
<path d="M65 44.6943C65 44.5519 65.85 44.0981 66.4 43.9468C66.54 43.9023 66.82 43.8133 67.03 43.7332C67.4 43.5908 67.4 43.5908 67.4 43.8133C67.4 44.0091 67.36 44.0358 67.05 44.0358C66.82 44.0358 66.7 44.0803 66.7 44.1515C66.7 44.3027 66.28 44.4807 65.95 44.4807C65.79 44.4807 65.7 44.5341 65.7 44.6142C65.7 44.7032 65.59 44.7477 65.35 44.7477C65.16 44.7477 65 44.721 65 44.6943Z" fill="#949494"/>
<path d="M44.43 44.196C44.01 43.9379 44.02 43.8578 44.45 43.8578C44.77 43.8578 44.8 43.8756 44.8 44.1248C44.8 44.2761 44.79 44.3917 44.77 44.3917C44.76 44.3917 44.6 44.3027 44.43 44.196V44.196Z" fill="#949494"/>
<path d="M12.92 44.107C12.95 44.0447 13.11 43.9468 13.28 43.8845C13.59 43.7688 13.6 43.7777 13.6 43.9913C13.6 44.1871 13.56 44.2138 13.24 44.2138C13.01 44.2138 12.9 44.1782 12.92 44.107Z" fill="#949494"/>
<path d="M37.38 43.7777C37.25 43.6798 37.01 43.573 36.87 43.5463C36.47 43.4573 36.53 43.2349 36.95 43.2349C37.14 43.2349 37.3 43.2794 37.3 43.3239C37.3 43.3772 37.39 43.4128 37.5 43.4128C37.66 43.4128 37.7 43.4751 37.7 43.6798C37.7 43.9913 37.7 44.0002 37.38 43.7777V43.7777Z" fill="#949494"/>
<path d="M43.13 43.4573C42.85 43.2438 42.85 43.2438 43.23 43.2349C43.56 43.2349 43.6 43.2616 43.6 43.4573C43.6 43.7332 43.49 43.7421 43.13 43.4573Z" fill="#949494"/>
<path d="M67.72 43.573C67.75 43.5107 67.91 43.4128 68.08 43.3505C68.39 43.2349 68.4 43.2438 68.4 43.4573C68.4 43.6531 68.36 43.6798 68.04 43.6798C67.81 43.6798 67.7 43.6442 67.72 43.573Z" fill="#949494"/>
<path d="M32.6 43.0569C32.6 42.8611 32.8 42.8255 33.11 42.9679C33.41 43.1103 33.34 43.2349 32.95 43.2349C32.67 43.2349 32.6 43.1993 32.6 43.0569Z" fill="#949494"/>
<path d="M84.93 43.1726C84.78 43.1459 84.7 43.0658 84.7 42.959C84.7 42.7632 84.76 42.7543 85.36 42.8878C86.18 43.0747 85.8 43.3238 84.93 43.1726V43.1726Z" fill="#949494"/>
<path d="M31.6 42.7899C31.6 42.603 31.7 42.5763 32.08 42.6653C32.44 42.7543 32.35 42.9679 31.95 42.9679C31.67 42.9679 31.6 42.9323 31.6 42.7899Z" fill="#949494"/>
<path d="M18.3 42.7543C18.3 42.6386 18.58 42.5229 18.88 42.5229C18.94 42.5229 19 42.603 19 42.7009C19 42.8433 18.93 42.8789 18.65 42.8789C18.42 42.8789 18.3 42.8344 18.3 42.7543Z" fill="#949494"/>
<path d="M6.9 42.5229C6.9 42.2738 6.93 42.256 7.25 42.256C7.64 42.256 7.68 42.3094 7.43 42.4962C6.98 42.8077 6.9 42.8077 6.9 42.5229Z" fill="#949494"/>
<path d="M14.5 42.5229C14.5 42.3806 14.57 42.345 14.85 42.345C15.25 42.345 15.34 42.5585 14.98 42.6475C14.6 42.7365 14.5 42.7098 14.5 42.5229Z" fill="#949494"/>
<path d="M71.62 42.4606C71.64 42.3717 71.77 42.3005 71.98 42.2827C72.25 42.2471 72.3 42.2738 72.3 42.4251C72.3 42.5763 72.24 42.6119 71.94 42.6119C71.66 42.6119 71.59 42.5763 71.62 42.4606Z" fill="#949494"/>
<path d="M5.77 42.2382C5.91 41.7487 6.2 41.6686 6.2 42.1225C6.2 42.3894 6.17 42.4339 5.96 42.4339C5.76 42.4339 5.73 42.3983 5.77 42.2382V42.2382Z" fill="#949494"/>
<path d="M21 42.2827C21 42.167 21.09 42.1136 21.35 42.1047C21.64 42.078 21.7 42.1047 21.7 42.256C21.7 42.3983 21.63 42.4339 21.35 42.4339C21.08 42.4339 21 42.3983 21 42.2827Z" fill="#949494"/>
<path d="M29.2 42.256C29.2 42.0691 29.3 42.0424 29.68 42.1314C30.04 42.2204 29.95 42.4339 29.55 42.4339C29.27 42.4339 29.2 42.3983 29.2 42.256Z" fill="#949494"/>
<path d="M72.52 42.2827C72.54 42.2026 72.64 42.1314 72.75 42.1136C72.86 42.1047 73.13 42.0602 73.35 42.0335C74.39 41.8822 74.5 41.8822 74.5 42.0602C74.5 42.1937 74.37 42.2382 73.67 42.3272C72.57 42.4695 72.48 42.4606 72.52 42.2827Z" fill="#949494"/>
<path d="M80.8 42.256C80.8 42.0691 80.9 42.0424 81.28 42.1314C81.64 42.2204 81.55 42.4339 81.15 42.4339C80.87 42.4339 80.8 42.3983 80.8 42.256Z" fill="#949494"/>
<path d="M60.6 42.2916C60.6 42.2026 61.04 41.9089 61.18 41.9C61.24 41.9 61.3 41.9979 61.3 42.1225C61.3 42.3183 61.26 42.3449 60.95 42.3449C60.76 42.3449 60.6 42.3183 60.6 42.2916Z" fill="#949494"/>
<path d="M80 42.167C80 42.0157 80.06 41.989 80.35 42.0157C80.61 42.0246 80.7 42.078 80.7 42.1937C80.7 42.3094 80.62 42.345 80.35 42.345C80.07 42.345 80 42.3094 80 42.167Z" fill="#949494"/>
<path d="M22.6 42.1314C22.6 42.0157 22.88 41.9 23.18 41.9C23.24 41.9 23.3 41.9801 23.3 42.078C23.3 42.2204 23.23 42.256 22.95 42.256C22.72 42.256 22.6 42.2115 22.6 42.1314Z" fill="#949494"/>
<path d="M79.1 42.078C79.1 41.8911 79.26 41.8555 79.68 41.9534C80.07 42.0513 79.95 42.256 79.5 42.256C79.17 42.256 79.1 42.2293 79.1 42.078Z" fill="#949494"/>
<path d="M10.3 42.0869C10.3 41.9801 10.51 41.8466 10.78 41.7843C10.96 41.7487 11 41.7754 11 41.9534C11 42.1403 10.95 42.167 10.65 42.167C10.46 42.167 10.3 42.1314 10.3 42.0869Z" fill="#949494"/>
<path d="M16.7 41.989C16.7 41.8466 16.77 41.811 17.05 41.811C17.45 41.811 17.54 42.0246 17.18 42.1136C16.8 42.2026 16.7 42.1759 16.7 41.989Z" fill="#949494"/>
<path d="M23.8 42.0424C23.8 41.9267 24.08 41.811 24.38 41.811C24.44 41.811 24.5 41.8911 24.5 41.989C24.5 42.1314 24.43 42.167 24.15 42.167C23.92 42.167 23.8 42.1225 23.8 42.0424Z" fill="#949494"/>
<path d="M74.8 42.0424C74.8 41.9178 75.09 41.811 75.48 41.811C75.63 41.811 75.7 41.8644 75.7 41.989C75.7 42.1403 75.63 42.167 75.25 42.167C74.93 42.167 74.8 42.1314 74.8 42.0424Z" fill="#949494"/>
<path d="M77.8 41.989C77.8 41.8021 78.03 41.7576 78.48 41.8644C78.89 41.9623 78.74 42.167 78.25 42.167C77.87 42.167 77.8 42.1403 77.8 41.989Z" fill="#949494"/>
<path d="M38.7 41.8555C38.7 41.5885 38.73 41.5885 39.11 41.7843C39.49 41.989 39.48 42.078 39.05 42.078C38.74 42.078 38.7 42.0513 38.7 41.8555Z" fill="#949494"/>
<path d="M37.9 41.4106C37.9 41.1436 37.93 41.1436 38.31 41.3394C38.69 41.544 38.68 41.633 38.25 41.633C37.94 41.633 37.9 41.6063 37.9 41.4106Z" fill="#949494"/>
<path d="M30.18 41.4817C29.85 41.4105 29.98 41.1881 30.35 41.1881C30.63 41.1881 30.7 41.2237 30.7 41.3661C30.7 41.544 30.56 41.5707 30.18 41.4817Z" fill="#949494"/>
<path d="M60.1 41.3216C60.1 41.1258 60.14 41.0991 60.45 41.0991C60.86 41.0991 60.88 41.1436 60.58 41.3749C60.26 41.5974 60.1 41.5885 60.1 41.3216Z" fill="#949494"/>
<path d="M28.48 41.2148C28.15 41.1436 28.28 40.9211 28.65 40.9211C28.93 40.9211 29 40.9567 29 41.0991C29 41.2771 28.86 41.3038 28.48 41.2148Z" fill="#949494"/>
<path d="M10.2 40.9567C10.2 40.7698 10.25 40.7431 10.55 40.7431C11.06 40.7431 10.97 41.0012 10.43 41.1258C10.24 41.1614 10.2 41.1347 10.2 40.9567Z" fill="#949494"/>
<path d="M12.8 41.108C12.8 41.0012 13.01 40.8677 13.28 40.8054C13.46 40.7698 13.5 40.7965 13.5 40.9745C13.5 41.1614 13.45 41.1881 13.15 41.1881C12.96 41.1881 12.8 41.1525 12.8 41.108Z" fill="#949494"/>
<path d="M23.2 41.0101C23.2 40.8677 23.27 40.8321 23.55 40.8321C23.95 40.8321 24.04 41.0457 23.68 41.1347C23.3 41.2237 23.2 41.197 23.2 41.0101Z" fill="#949494"/>
<path d="M27.58 41.1258C27.25 41.0546 27.38 40.8321 27.75 40.8321C28.03 40.8321 28.1 40.8677 28.1 41.0101C28.1 41.1881 27.96 41.2148 27.58 41.1258Z" fill="#949494"/>
<path d="M89.7 41.0101C89.7 40.8232 89.8 40.7965 90.18 40.8855C90.54 40.9745 90.45 41.1881 90.05 41.1881C89.77 41.1881 89.7 41.1525 89.7 41.0101Z" fill="#949494"/>
<path d="M64.5 40.8054C64.5 40.6897 65.05 40.4583 65.14 40.5473C65.17 40.574 65.2 40.6719 65.2 40.7609C65.2 40.8855 65.12 40.9211 64.85 40.9211C64.63 40.9211 64.5 40.8766 64.5 40.8054Z" fill="#949494"/>
<path d="M13.82 40.7253C13.85 40.663 14.01 40.5651 14.18 40.5028C14.49 40.3872 14.5 40.3961 14.5 40.6096C14.5 40.8054 14.46 40.8321 14.14 40.8321C13.91 40.8321 13.8 40.7965 13.82 40.7253Z" fill="#949494"/>
<path d="M38.48 40.5829C38.11 40.3872 38.13 40.2982 38.55 40.2982C38.86 40.2982 38.9 40.3249 38.9 40.5206C38.9 40.7787 38.84 40.7876 38.48 40.5829Z" fill="#949494"/>
<path d="M86.58 40.5028C86.38 40.4761 86.3 40.4139 86.3 40.2804C86.3 40.1202 86.34 40.1113 86.7 40.1647C86.92 40.2003 87.18 40.2359 87.28 40.2448C87.37 40.2626 87.46 40.3338 87.48 40.4139C87.52 40.5651 87.26 40.5918 86.58 40.5028Z" fill="#949494"/>
<path d="M91.48 40.5029C91.15 40.4317 91.28 40.2092 91.65 40.2092C91.93 40.2092 92 40.2448 92 40.3872C92 40.5651 91.86 40.5918 91.48 40.5029Z" fill="#949494"/>
<path d="M6.81 40.1024C6.86 39.9422 6.9 39.7998 6.9 39.7909C6.9 39.7731 6.97 39.7642 7.05 39.7642C7.15 39.7642 7.2 39.8621 7.2 40.0757C7.2 40.3427 7.17 40.3872 6.96 40.3872C6.73 40.3872 6.72 40.3694 6.81 40.1024Z" fill="#949494"/>
<path d="M15.2 40.2893C15.2 40.1914 15.8 39.9422 16.05 39.9422C16.29 39.9422 16.23 40.2715 15.98 40.3338C15.62 40.4139 15.2 40.3961 15.2 40.2893Z" fill="#949494"/>
<path d="M37.31 40.0312C37.18 39.9333 37 39.8532 36.91 39.8532C36.73 39.8532 36.5 39.693 36.5 39.5684C36.5 39.5328 36.66 39.4973 36.85 39.4973C37.09 39.4973 37.2 39.5417 37.2 39.6307C37.2 39.7197 37.3 39.7642 37.5 39.7642C37.75 39.7642 37.8 39.7998 37.8 39.9867C37.8 40.2537 37.64 40.2626 37.31 40.0312Z" fill="#949494"/>
<path d="M67.82 40.0579C67.84 39.9689 67.97 39.8977 68.18 39.8799C68.45 39.8443 68.5 39.871 68.5 40.0223C68.5 40.1736 68.44 40.2092 68.14 40.2092C67.86 40.2092 67.79 40.1736 67.82 40.0579Z" fill="#949494"/>
<path d="M68.9 39.9066C68.9 39.7909 69.18 39.6752 69.48 39.6752C69.54 39.6752 69.6 39.7553 69.6 39.8532C69.6 39.9956 69.53 40.0312 69.25 40.0312C69.02 40.0312 68.9 39.9867 68.9 39.9066Z" fill="#949494"/>
<path d="M13.5 39.7197C13.5 39.524 13.54 39.4973 13.86 39.4973C14.3 39.4973 14.28 39.6574 13.82 39.8265C13.51 39.9422 13.5 39.9333 13.5 39.7197V39.7197Z" fill="#949494"/>
<path d="M82.6 39.7642C82.6 39.6129 82.66 39.5862 82.95 39.6129C83.21 39.6218 83.3 39.6752 83.3 39.7909C83.3 39.9066 83.22 39.9422 82.95 39.9422C82.67 39.9422 82.6 39.9066 82.6 39.7642Z" fill="#949494"/>
<path d="M70.3 39.7019C70.3 39.5862 70.39 39.5328 70.65 39.5239C70.94 39.4972 71 39.5239 71 39.6752C71 39.8176 70.93 39.8532 70.65 39.8532C70.38 39.8532 70.3 39.8176 70.3 39.7019Z" fill="#949494"/>
<path d="M79.5 39.4972C79.5 39.3104 79.6 39.2837 79.98 39.3727C80.34 39.4616 80.25 39.6752 79.85 39.6752C79.57 39.6752 79.5 39.6396 79.5 39.4972Z" fill="#949494"/>
<path d="M14.6 39.3638C14.6 39.168 14.64 39.1413 14.96 39.1413C15.4 39.1413 15.38 39.3015 14.92 39.4705C14.61 39.5862 14.6 39.5773 14.6 39.3638V39.3638Z" fill="#949494"/>
<path d="M74.5 39.4616C74.5 39.346 74.78 39.2303 75.08 39.2303C75.14 39.2303 75.2 39.3104 75.2 39.4083C75.2 39.5506 75.13 39.5862 74.85 39.5862C74.62 39.5862 74.5 39.5417 74.5 39.4616Z" fill="#949494"/>
<path d="M77.3 39.4083C77.3 39.2214 77.4 39.1947 77.78 39.2837C78.14 39.3727 78.05 39.5862 77.65 39.5862C77.37 39.5862 77.3 39.5506 77.3 39.4083Z" fill="#949494"/>
<path d="M35.73 39.3638C35.3 39.2036 35.31 39.0523 35.75 39.0523C36.06 39.0523 36.1 39.079 36.1 39.2748C36.1 39.3994 36.09 39.4972 36.08 39.4972C36.06 39.4883 35.9 39.435 35.73 39.3638Z" fill="#949494"/>
<path d="M86.69 39.4528C86.66 39.435 86.53 39.3994 86.39 39.3816C86.26 39.3638 86.14 39.2837 86.12 39.2036C86.09 39.0879 86.16 39.0523 86.44 39.0523C86.76 39.0523 86.8 39.079 86.8 39.2748C86.8 39.4972 86.78 39.5328 86.69 39.4528Z" fill="#949494"/>
<path d="M94.36 39.3549C94.25 39.1057 94.29 38.6963 94.43 38.6963C94.5 38.6963 94.63 38.8743 94.72 39.0968C94.89 39.4973 94.89 39.4973 94.66 39.4973C94.53 39.4973 94.39 39.435 94.36 39.3549V39.3549Z" fill="#949494"/>
<path d="M30.6 38.9633C30.6 38.7764 30.7 38.7497 31.08 38.8387C31.44 38.9277 31.35 39.1413 30.95 39.1413C30.67 39.1413 30.6 39.1057 30.6 38.9633Z" fill="#949494"/>
<path d="M34.73 39.0078C34.3 38.8476 34.31 38.6963 34.75 38.6963C35.06 38.6963 35.1 38.723 35.1 38.9188C35.1 39.0434 35.09 39.1413 35.08 39.1413C35.06 39.1324 34.9 39.079 34.73 39.0078Z" fill="#949494"/>
<path d="M21.2 38.9277C21.2 38.812 21.48 38.6963 21.78 38.6963C21.84 38.6963 21.9 38.7764 21.9 38.8743C21.9 39.0167 21.83 39.0523 21.55 39.0523C21.32 39.0523 21.2 39.0078 21.2 38.9277Z" fill="#949494"/>
<path d="M68.6 38.8743C68.6 38.7319 68.67 38.6963 68.95 38.6963C69.35 38.6963 69.44 38.9099 69.08 38.9989C68.7 39.0879 68.6 39.0612 68.6 38.8743Z" fill="#949494"/>
<path d="M82.38 38.812C82.05 38.7408 82.18 38.5183 82.55 38.5183C82.83 38.5183 82.9 38.5539 82.9 38.6963C82.9 38.8743 82.76 38.901 82.38 38.812Z" fill="#949494"/>
<path d="M23.8 38.6607C23.8 38.545 24.08 38.4294 24.38 38.4294C24.44 38.4294 24.5 38.5094 24.5 38.6073C24.5 38.7497 24.43 38.7853 24.15 38.7853C23.92 38.7853 23.8 38.7408 23.8 38.6607Z" fill="#949494"/>
<path d="M33.48 38.6607C33.08 38.5361 33.12 38.3404 33.55 38.3404C33.83 38.3404 33.9 38.376 33.9 38.5094C33.9 38.7408 33.81 38.7764 33.48 38.6607Z" fill="#949494"/>
<path d="M81.48 38.723C81.15 38.6518 81.28 38.4294 81.65 38.4294C81.93 38.4294 82 38.4649 82 38.6073C82 38.7853 81.86 38.812 81.48 38.723Z" fill="#949494"/>
<path d="M71.8 38.5183C71.8 38.376 71.87 38.3404 72.15 38.3404C72.55 38.3404 72.64 38.5539 72.28 38.6429C71.9 38.7319 71.8 38.7052 71.8 38.5183Z" fill="#949494"/>
<path d="M73.2 38.4294C73.2 38.287 73.27 38.2514 73.55 38.2514C73.95 38.2514 74.04 38.465 73.68 38.5539C73.3 38.6429 73.2 38.6162 73.2 38.4294Z" fill="#949494"/>
<path d="M78.78 38.545C78.45 38.4738 78.58 38.2514 78.95 38.2514C79.23 38.2514 79.3 38.287 79.3 38.4294C79.3 38.6073 79.16 38.634 78.78 38.545Z" fill="#949494"/>
<path d="M19.7 38.0734C19.7 37.931 19.77 37.8954 20.05 37.8954C20.45 37.8954 20.54 38.109 20.18 38.198C19.8 38.287 19.7 38.2603 19.7 38.0734Z" fill="#949494"/>
<path d="M21.4 37.8153C21.4 37.6996 21.46 37.6284 21.58 37.6284C21.67 37.6284 21.99 37.6017 22.28 37.575C22.71 37.5216 22.8 37.5394 22.8 37.6551C22.8 37.7886 22.68 37.8331 21.83 37.9399C21.44 37.9933 21.4 37.9844 21.4 37.8153Z" fill="#949494"/>
<path d="M28.38 37.7441C28.05 37.6729 28.18 37.4505 28.55 37.4505C28.83 37.4505 28.9 37.4861 28.9 37.6284C28.9 37.8064 28.76 37.8331 28.38 37.7441Z" fill="#949494"/>
<path d="M26.88 37.6551C26.55 37.5839 26.68 37.3615 27.05 37.3615C27.33 37.3615 27.4 37.3971 27.4 37.5394C27.4 37.7174 27.26 37.7441 26.88 37.6551Z" fill="#949494"/>
<path d="M93.3 37.228C93.3 36.8809 93.36 36.8453 93.57 37.0767C93.92 37.4683 93.92 37.5395 93.6 37.5395C93.32 37.5395 93.3 37.5128 93.3 37.228Z" fill="#949494"/>
<path d="M10.3 34.2824C10.3 34.1756 10.64 33.7128 10.72 33.7128C10.76 33.7128 10.8 33.8552 10.8 34.0243C10.8 34.3002 10.77 34.3358 10.55 34.3358C10.41 34.3358 10.3 34.3091 10.3 34.2824Z" fill="#949494"/>
<path d="M90.6 33.0454C90.6 32.6628 90.7 32.6539 90.93 32.992C91.15 33.3302 91.15 33.3569 90.85 33.3569C90.63 33.3569 90.6 33.3213 90.6 33.0454Z" fill="#949494"/>
<path d="M12.4 29.5748C12.4 29.29 12.42 29.2633 12.7 29.2633C12.87 29.2633 13 29.3078 13 29.3523C13 29.4057 12.96 29.4413 12.91 29.4413C12.86 29.4413 12.79 29.5214 12.75 29.6104C12.72 29.7083 12.63 29.8062 12.55 29.8328C12.44 29.8684 12.4 29.8061 12.4 29.5748Z" fill="#949494"/>
<path d="M87.2 28.765C87.2 28.4179 87.29 28.4268 87.6 28.8183C87.81 29.0853 87.81 29.0853 87.51 29.0853C87.22 29.0853 87.2 29.0586 87.2 28.765Z" fill="#949494"/>
<path d="M14.6 28.676C14.6 28.6493 14.73 28.5069 14.9 28.3467C15.2 28.0619 15.2 28.0619 15.2 28.4001C15.2 28.7116 15.18 28.7294 14.9 28.7294C14.74 28.7294 14.6 28.7116 14.6 28.676Z" fill="#949494"/>
<path d="M14.3 27.4657C14.3 27.1631 14.33 27.1275 14.55 27.1275C14.76 27.1275 14.8 27.083 14.8 26.8605C14.8 26.6203 14.83 26.5936 15.11 26.5936C15.41 26.5936 15.41 26.5936 15.19 26.8694C15.07 27.0207 14.82 27.2877 14.64 27.4657C14.3 27.7949 14.3 27.7949 14.3 27.4657V27.4657Z" fill="#949494"/>
<path d="M85.7 27.1631C85.7 26.8161 85.79 26.825 86.1 27.2165C86.31 27.4835 86.31 27.4835 86.01 27.4835C85.72 27.4835 85.7 27.4568 85.7 27.1631Z" fill="#949494"/>
<path d="M16.5 26.6826C16.81 26.291 16.9 26.2821 16.9 26.6292C16.9 26.9228 16.88 26.9495 16.59 26.9495C16.29 26.9495 16.29 26.9495 16.5 26.6826Z" fill="#949494"/>
<path d="M11.16 26.5758C11.06 26.2376 11.09 26.1486 11.3 26.1486C11.46 26.1486 11.5 26.2109 11.5 26.4601C11.5 26.8161 11.26 26.8961 11.16 26.5758Z" fill="#949494"/>
<path d="M89.8 26.024C89.8 25.7393 89.83 25.7037 90.05 25.7037C90.26 25.7037 90.28 25.7304 90.21 25.9083C90.16 26.0151 90.12 26.1486 90.12 26.1931C90.11 26.2465 90.04 26.291 89.96 26.3088C89.84 26.3355 89.8 26.2643 89.8 26.024V26.024Z" fill="#949494"/>
<path d="M90.2 24.1463C90.2 23.8972 90.24 23.8349 90.4 23.8349C90.61 23.8349 90.64 23.9239 90.54 24.262C90.44 24.5824 90.2 24.5023 90.2 24.1463Z" fill="#949494"/>
<path d="M18.1 23.9328C18.1 23.6747 18.13 23.6569 18.46 23.6569C18.85 23.6569 18.84 23.737 18.4 24.0128C18.1 24.1997 18.1 24.1997 18.1 23.9328Z" fill="#949494"/>
<path d="M10.46 23.0606C10.27 22.1885 10.27 22.144 10.48 22.144C10.63 22.144 10.69 22.2241 10.74 22.5534C10.77 22.7848 10.8 23.0428 10.8 23.1318C10.8 23.3899 10.52 23.3276 10.46 23.0606V23.0606Z" fill="#949494"/>
<path d="M80.6 23.0784C80.6 22.8827 80.56 22.856 80.25 22.856C79.93 22.856 79.9 22.8382 79.9 22.5801C79.9 22.3042 79.9 22.3042 80.43 22.6424C80.71 22.8204 81.04 23.0517 81.15 23.1407C81.34 23.3009 81.34 23.3009 80.97 23.3009C80.64 23.3009 80.6 23.2742 80.6 23.0784Z" fill="#949494"/>
<path d="M20.95 23.1051C20.98 23.0428 21.14 22.9183 21.3 22.8382C21.6 22.6869 21.6 22.6869 21.6 22.945C21.6 23.1941 21.57 23.2119 21.25 23.2119C21.02 23.2119 20.92 23.1763 20.95 23.1051Z" fill="#949494"/>
<path d="M82 22.767C81.65 22.5089 81.65 22.5089 82.03 22.5C82.38 22.5 82.4 22.5178 82.4 22.767C82.4 22.9183 82.39 23.0339 82.37 23.0339C82.36 23.0339 82.19 22.9183 82 22.767Z" fill="#949494"/>
<path d="M21.95 22.5C21.98 22.4555 22.14 22.3309 22.3 22.233C22.6 22.0461 22.6 22.0461 22.6 22.3131C22.6 22.5712 22.57 22.589 22.24 22.589C22.04 22.589 21.91 22.5534 21.95 22.5Z" fill="#949494"/>
<path d="M79.83 21.4054C79.48 21.2007 79.2 21.005 79.2 20.9694C79.2 20.9249 79.36 20.8982 79.55 20.8982C79.74 20.8982 79.9 20.9427 79.9 20.9872C79.9 21.0405 79.97 21.0761 80.05 21.0761C80.13 21.0761 80.2 21.1206 80.2 21.1651C80.2 21.2185 80.27 21.2541 80.35 21.2541C80.45 21.2541 80.5 21.3431 80.5 21.5211C80.5 21.6724 80.49 21.7881 80.48 21.7792C80.46 21.7792 80.17 21.6101 79.83 21.4054Z" fill="#949494"/>
<path d="M76.3 20.5867C76.3 20.3197 76.46 20.3108 76.78 20.5333C77.08 20.7647 77.06 20.8092 76.65 20.8092C76.34 20.8092 76.3 20.7825 76.3 20.5867Z" fill="#949494"/>
<path d="M26.4 20.1329C26.4 20.0706 26.65 19.8748 26.93 19.7324C27.08 19.6612 27.1 19.6879 27.1 19.9193C27.1 20.1684 27.07 20.1862 26.75 20.1862C26.56 20.1862 26.4 20.1595 26.4 20.1329Z" fill="#949494"/>
<path d="M24.7 19.6523C24.35 19.3942 24.35 19.3942 24.73 19.3853C25.08 19.3853 25.1 19.4031 25.1 19.6523C25.1 19.8036 25.09 19.9193 25.07 19.9193C25.06 19.9193 24.89 19.8036 24.7 19.6523Z" fill="#949494"/>
<path d="M74.32 19.8392C74.24 19.8036 74.2 19.679 74.22 19.5722C74.25 19.3853 74.25 19.3853 74.68 19.5722C74.91 19.679 75.1 19.7947 75.1 19.8392C75.1 19.9371 74.49 19.946 74.32 19.8392V19.8392Z" fill="#949494"/>
<path d="M76.69 19.6879C76.59 19.5722 76.59 19.5366 76.71 19.4654C76.96 19.3319 77.1 19.3764 77.1 19.6078C77.1 19.857 76.89 19.9015 76.69 19.6879Z" fill="#949494"/>
<path d="M28 19.3586C28 19.2874 28.16 19.1984 28.35 19.145C28.68 19.0472 28.7 19.0561 28.7 19.2607C28.7 19.4476 28.65 19.4743 28.35 19.4743C28.13 19.4743 28 19.4298 28 19.3586Z" fill="#949494"/>
<path d="M25.9 19.1628C25.9 18.9671 25.94 18.9404 26.25 18.9404C26.66 18.9404 26.68 18.9849 26.38 19.2162C26.06 19.4387 25.9 19.4298 25.9 19.1628Z" fill="#949494"/>
<path d="M9.76 19.1005C9.66 18.7624 9.69 18.6734 9.9 18.6734C10.06 18.6734 10.1 18.7357 10.1 18.9849C10.1 19.3408 9.86 19.4209 9.76 19.1005Z" fill="#949494"/>
<path d="M22.1 18.7535C22.1 18.4865 22.1 18.4865 22.4 18.6734C22.84 18.9493 22.85 19.0294 22.46 19.0294C22.13 19.0294 22.1 19.0116 22.1 18.7535Z" fill="#949494"/>
<path d="M74.43 18.6556C73.98 18.5221 74 18.3174 74.45 18.3174C74.76 18.3174 74.8 18.3441 74.8 18.5399C74.8 18.6645 74.79 18.7624 74.78 18.7535C74.76 18.7446 74.6 18.7001 74.43 18.6556V18.6556Z" fill="#949494"/>
<path d="M27.7 18.3619C27.7 18.1661 27.74 18.1395 28.06 18.1395C28.5 18.1395 28.48 18.2996 28.02 18.4687C27.71 18.5844 27.7 18.5755 27.7 18.3619Z" fill="#949494"/>
<path d="M30.3 18.5043C30.3 18.3975 30.35 18.3708 30.98 18.1483C31.5 17.9615 31.5 17.9615 31.5 18.1839C31.5 18.3619 31.45 18.4064 31.25 18.4064C31.11 18.4064 31 18.4509 31 18.4954C31 18.5488 30.84 18.5844 30.65 18.5844C30.46 18.5844 30.3 18.5488 30.3 18.5043Z" fill="#949494"/>
<path d="M70.3 18.2284C70.3 18.1839 70.19 18.1394 70.05 18.1394C69.85 18.1394 69.8 18.095 69.8 17.917C69.8 17.6767 69.84 17.6767 70.58 17.9704C71.09 18.175 71.12 18.3174 70.65 18.3174C70.46 18.3174 70.3 18.2818 70.3 18.2284Z" fill="#949494"/>
<path d="M91.4 17.561C91.4 17.3118 91.44 17.2495 91.6 17.2495C91.77 17.2495 91.8 17.3029 91.77 17.561C91.76 17.7924 91.7 17.8725 91.58 17.8725C91.44 17.8725 91.4 17.8013 91.4 17.561Z" fill="#949494"/>
<path d="M32.72 17.6767C32.75 17.6144 32.98 17.4898 33.23 17.4097C33.7 17.2495 33.7 17.2495 33.7 17.4631C33.7 17.6856 33.49 17.7835 32.97 17.7835C32.78 17.7835 32.7 17.7479 32.72 17.6767V17.6767Z" fill="#949494"/>
<path d="M70.93 17.294C70.5 17.1339 70.51 16.9826 70.95 16.9826C71.26 16.9826 71.3 17.0093 71.3 17.205C71.3 17.3296 71.29 17.4275 71.28 17.4275C71.26 17.4186 71.1 17.3652 70.93 17.294Z" fill="#949494"/>
<path d="M20.1 17.0627C20.1 16.7957 20.1 16.7957 20.4 16.9826C20.84 17.2584 20.85 17.3385 20.46 17.3385C20.13 17.3385 20.1 17.3207 20.1 17.0627Z" fill="#949494"/>
<path d="M38.32 16.2172C38.34 16.1461 38.37 16.0838 38.4 16.0927C38.43 16.1016 38.57 16.066 38.73 16.0126C38.98 15.9236 39 15.9325 39 16.1372C39 16.3329 38.96 16.3596 38.64 16.3596C38.37 16.3596 38.29 16.324 38.32 16.2172V16.2172Z" fill="#949494"/>
<path d="M9.36 16.0749C9.26 15.7367 9.29 15.6477 9.5 15.6477C9.66 15.6477 9.7 15.71 9.7 15.9592C9.7 16.3151 9.46 16.3952 9.36 16.0749Z" fill="#949494"/>
<path d="M61.88 16.1194C61.68 16.0927 61.6 16.0304 61.6 15.8969C61.6 15.7189 61.64 15.71 62.55 15.8524C62.66 15.8702 62.76 15.9503 62.78 16.0304C62.82 16.1816 62.56 16.2083 61.88 16.1194Z" fill="#949494"/>
<path d="M66.66 16.0126C66.49 15.9503 66.5 15.9325 66.78 15.7456C67.1 15.5498 67.1 15.5498 67.1 15.8168C67.1 16.1016 67.01 16.1372 66.66 16.0126V16.0126Z" fill="#949494"/>
<path d="M59.4 15.5587C59.4 15.3718 59.5 15.3451 59.88 15.4341C60.24 15.5231 60.15 15.7367 59.75 15.7367C59.47 15.7367 59.4 15.7011 59.4 15.5587Z" fill="#949494"/>
<path d="M81.25 15.5587C81.28 15.5142 81.44 15.3896 81.6 15.2917C81.9 15.1049 81.9 15.1049 81.9 15.3718C81.9 15.6299 81.87 15.6477 81.54 15.6477C81.34 15.6477 81.21 15.6121 81.25 15.5587Z" fill="#949494"/>
<path d="M19.6 15.2917C19.25 15.0337 19.25 15.0337 19.63 15.0248C19.98 15.0248 20 15.0426 20 15.2917C20 15.443 19.99 15.5587 19.97 15.5587C19.96 15.5587 19.79 15.443 19.6 15.2917Z" fill="#949494"/>
<path d="M43.5 15.4074C43.5 15.2917 43.59 15.2383 43.85 15.2295C44.14 15.2028 44.2 15.2295 44.2 15.3807C44.2 15.5231 44.13 15.5587 43.85 15.5587C43.58 15.5587 43.5 15.5231 43.5 15.4074Z" fill="#949494"/>
<path d="M44.3 15.3451C44.3 15.2295 44.58 15.1138 44.88 15.1138C44.94 15.1138 45 15.1939 45 15.2917C45 15.4341 44.93 15.4697 44.65 15.4697C44.42 15.4697 44.3 15.4252 44.3 15.3451Z" fill="#949494"/>
<path d="M45.2 15.2561C45.2 15.1405 45.48 15.0248 45.78 15.0248C45.84 15.0248 45.9 15.1049 45.9 15.2028C45.9 15.3451 45.83 15.3807 45.55 15.3807C45.32 15.3807 45.2 15.3362 45.2 15.2561Z" fill="#949494"/>
<path d="M56.2 15.2028C56.2 15.0159 56.3 14.9892 56.68 15.0782C57.04 15.1672 56.95 15.3807 56.55 15.3807C56.27 15.3807 56.2 15.3451 56.2 15.2028Z" fill="#949494"/>
<path d="M46.3 15.1672C46.3 15.0515 46.58 14.9358 46.88 14.9358C46.94 14.9358 47 15.0159 47 15.1138C47 15.2561 46.93 15.2917 46.65 15.2917C46.42 15.2917 46.3 15.2472 46.3 15.1672Z" fill="#949494"/>
<path d="M9.26 15.007C9.16 14.6688 9.19 14.5798 9.4 14.5798C9.56 14.5798 9.6 14.6421 9.6 14.8913C9.6 15.2472 9.36 15.3273 9.26 15.007Z" fill="#949494"/>
<path d="M48.5 15.0782C48.5 14.9625 48.78 14.8468 49.08 14.8468C49.14 14.8468 49.2 14.9269 49.2 15.0248C49.2 15.1672 49.13 15.2028 48.85 15.2028C48.62 15.2028 48.5 15.1583 48.5 15.0782Z" fill="#949494"/>
<path d="M52.9 15.0248C52.9 14.8379 53 14.8112 53.38 14.9002C53.74 14.9892 53.65 15.2028 53.25 15.2028C52.97 15.2028 52.9 15.1672 52.9 15.0248Z" fill="#949494"/>
<path d="M80.8 14.5887C80.8 14.3306 80.83 14.3128 81.16 14.3128C81.55 14.3128 81.54 14.3929 81.1 14.6688C80.8 14.8557 80.8 14.8557 80.8 14.5887Z" fill="#949494"/>
<path d="M18.6 14.4908C18.25 14.2328 18.25 14.2328 18.63 14.2239C18.98 14.2239 19 14.2417 19 14.4908C19 14.6421 18.99 14.7578 18.97 14.7578C18.96 14.7578 18.79 14.6421 18.6 14.4908Z" fill="#949494"/>
<path d="M31.8 13.859C31.8 13.592 31.8 13.592 32.1 13.7789C32.54 14.0548 32.55 14.1349 32.16 14.1349C31.83 14.1349 31.8 14.1171 31.8 13.859Z" fill="#949494"/>
<path d="M91.9 13.3784C91.9 13.1293 91.94 13.067 92.1 13.067C92.31 13.067 92.34 13.156 92.24 13.4941C92.14 13.8145 91.9 13.7344 91.9 13.3784Z" fill="#949494"/>
<path d="M15.2 13.2361C15.2 12.9691 15.2 12.9691 15.5 13.156C15.94 13.4318 15.95 13.5119 15.56 13.5119C15.23 13.5119 15.2 13.4941 15.2 13.2361Z" fill="#949494"/>
<path d="M84.1 13.2716C84.1 13.2272 84.26 13.1115 84.45 12.9958C84.8 12.8 84.8 12.8 84.8 13.067C84.8 13.3161 84.77 13.3339 84.45 13.3339C84.26 13.3339 84.1 13.3072 84.1 13.2716Z" fill="#949494"/>
<path d="M70.1 13.156C70.1 13.1115 70.14 13.067 70.18 13.067C70.26 13.067 70.84 12.6487 71.32 12.2483C71.49 12.097 71.5 12.097 71.5 12.3995C71.5 12.6932 71.48 12.711 71.15 12.711C70.83 12.711 70.8 12.7288 70.8 12.978C70.8 13.2272 70.77 13.245 70.45 13.245C70.26 13.245 70.1 13.2094 70.1 13.156V13.156Z" fill="#949494"/>
<path d="M82.8 12.9869C82.8 12.7288 82.83 12.711 83.15 12.711C83.47 12.711 83.5 12.6932 83.5 12.444C83.5 12.1949 83.53 12.1771 83.85 12.1771C84.17 12.1771 84.2 12.1593 84.2 11.9101C84.2 11.6609 84.22 11.6431 84.58 11.6431C84.95 11.652 84.95 11.652 84.65 11.8745C84.49 12.008 84.13 12.2928 83.85 12.5063C83.58 12.7288 83.23 12.9869 83.08 13.0848C82.8 13.2539 82.8 13.2539 82.8 12.9869Z" fill="#949494"/>
<path d="M30.4 12.8445C30.4 12.6576 30.35 12.622 30.1 12.622C29.82 12.622 29.8 12.5953 29.8 12.3106C29.8 12.008 29.81 12.008 29.98 12.1593C30.37 12.4796 30.95 12.889 31.02 12.889C31.07 12.889 31.1 12.9335 31.1 12.978C31.1 13.0314 30.94 13.067 30.75 13.067C30.44 13.067 30.4 13.0403 30.4 12.8445V12.8445Z" fill="#949494"/>
<path d="M85.3 12.4173C85.3 12.3995 85.46 12.2661 85.65 12.1148C86 11.8389 86 11.8389 86 12.1415C86 12.4262 85.98 12.444 85.65 12.444C85.46 12.444 85.3 12.4351 85.3 12.4173Z" fill="#949494"/>
<path d="M9.2 11.8033C9.2 11.5363 9.33 11.2872 9.46 11.2872C9.55 11.2872 9.6 11.3939 9.6 11.5986C9.6 11.8478 9.56 11.9101 9.4 11.9101C9.29 11.9101 9.2 11.8567 9.2 11.8033Z" fill="#949494"/>
<path d="M14.9 11.83C14.9 11.7855 14.81 11.7232 14.71 11.6876C14.6 11.6609 14.49 11.5808 14.46 11.5096C14.42 11.4117 14.49 11.3761 14.75 11.3761C15.07 11.3761 15.1 11.3939 15.1 11.6431C15.1 11.7944 15.06 11.9101 15 11.9101C14.95 11.9101 14.9 11.8745 14.9 11.83Z" fill="#949494"/>
<path d="M28.6 11.5096C28.6 11.3228 28.55 11.2872 28.3 11.2872C28.05 11.2872 28 11.2516 28 11.0647C28 10.8778 27.95 10.8422 27.7 10.8422C27.42 10.8422 27.4 10.8155 27.4 10.5307C27.4 10.2282 27.41 10.2282 27.58 10.3795C27.68 10.4595 27.93 10.6553 28.14 10.7977C28.34 10.949 28.7 11.216 28.93 11.3939C29.35 11.7321 29.35 11.7321 28.98 11.7321C28.64 11.7321 28.6 11.7054 28.6 11.5096Z" fill="#949494"/>
<path d="M86.76 11.3316C86.79 11.2605 86.9 11.1804 87.01 11.1537C87.11 11.1181 87.2 11.0558 87.2 11.0113C87.2 10.9668 87.25 10.9312 87.3 10.9312C87.36 10.9312 87.4 11.0558 87.4 11.1982C87.4 11.4473 87.37 11.4651 87.05 11.4651C86.79 11.4651 86.72 11.4295 86.76 11.3316Z" fill="#949494"/>
<path d="M85.3 11.1181C85.3 10.86 85.33 10.8422 85.66 10.8422C86.05 10.8422 86.04 10.9223 85.6 11.1982C85.3 11.385 85.3 11.385 85.3 11.1181Z" fill="#949494"/>
<path d="M13.7 11.0202C13.35 10.7621 13.35 10.7621 13.73 10.7532C14.08 10.7532 14.1 10.771 14.1 11.0202C14.1 11.1715 14.09 11.2872 14.07 11.2872C14.06 11.2872 13.89 11.1715 13.7 11.0202Z" fill="#949494"/>
<path d="M73.15 10.9312C73.18 10.8867 73.34 10.7621 73.5 10.6642C73.8 10.4773 73.8 10.4773 73.8 10.7443C73.8 11.0024 73.77 11.0202 73.44 11.0202C73.24 11.0202 73.11 10.9846 73.15 10.9312Z" fill="#949494"/>
<path d="M9.52 10.6019C9.54 10.504 9.66 10.4328 9.83 10.415C10.05 10.3884 10.1 10.4239 10.1 10.5663C10.1 10.7176 10.04 10.7532 9.79 10.7532C9.55 10.7532 9.49 10.7176 9.52 10.6019Z" fill="#949494"/>
<path d="M86.5 10.3083C86.5 10.0591 86.53 10.0413 86.85 10.0413C87.11 10.0413 87.18 10.0769 87.14 10.1748C87.11 10.246 87 10.3261 86.89 10.3528C86.79 10.3883 86.7 10.4506 86.7 10.4951C86.7 10.5396 86.66 10.5752 86.6 10.5752C86.55 10.5752 86.5 10.4595 86.5 10.3083Z" fill="#949494"/>
<path d="M8.71 10.2905C8.7 10.1481 8.75 10.0413 8.8 10.0413C8.92 10.0413 8.92 10.1125 8.8 10.3528C8.72 10.5129 8.71 10.504 8.71 10.2905Z" fill="#949494"/>
<path d="M12.33 10.3172C12.02 10.0858 12.04 10.0413 12.45 10.0413C12.76 10.0413 12.8 10.068 12.8 10.2638C12.8 10.5307 12.64 10.5396 12.33 10.3172Z" fill="#949494"/>
<path d="M89.3 9.8722C89.3 9.82771 89.49 9.71202 89.73 9.60523C90.15 9.41835 90.15 9.41835 90.18 9.60523C90.2 9.71202 90.16 9.83661 90.08 9.8722C89.91 9.97899 89.3 9.97009 89.3 9.8722Z" fill="#949494"/>
<path d="M9.5 9.50734C9.5 9.36495 9.57 9.32936 9.85 9.32936C10.25 9.32936 10.34 9.54293 9.98 9.63193C9.6 9.72092 9.5 9.69422 9.5 9.50734Z" fill="#949494"/>
<path d="M88.1 9.28486C88.1 9.08908 88.14 9.06239 88.45 9.06239C88.88 9.06239 88.89 9.15138 88.51 9.35605C88.13 9.55183 88.1 9.55184 88.1 9.28486Z" fill="#949494"/>
<path d="M91 9.29376C91 9.15138 91.32 9.06239 91.6 9.12468C91.97 9.21367 91.83 9.41835 91.4 9.41835C91.13 9.41835 91 9.38275 91 9.29376V9.29376Z" fill="#949494"/>
<path d="M75.85 8.97339C75.88 8.9289 76.04 8.80431 76.2 8.70642C76.5 8.51954 76.5 8.51954 76.5 8.78651C76.5 9.04459 76.47 9.06238 76.14 9.06238C75.94 9.06238 75.81 9.02679 75.85 8.97339Z" fill="#949494"/>
<path d="M89.21 8.82211C89.2 8.54624 89.22 8.52844 89.55 8.52844C89.74 8.52844 89.9 8.56403 89.9 8.59963C89.9 8.72422 89.67 8.8844 89.49 8.8844C89.39 8.8844 89.29 8.9378 89.27 9.00009C89.24 9.05348 89.21 8.97339 89.21 8.82211V8.82211Z" fill="#949494"/>
<path d="M90.2 8.39496C90.2 8.24367 90.27 8.18138 90.51 8.13688C91.42 7.9767 91.62 8.24367 90.75 8.45725C90.2 8.59074 90.2 8.59074 90.2 8.39496V8.39496Z" fill="#949494"/>
<path d="M77 8.16357C77.19 8.01229 77.47 7.81651 77.63 7.71862C77.9 7.54064 77.9 7.54064 77.9 7.80761C77.9 8.03899 77.86 8.08348 77.65 8.08348C77.47 8.08348 77.4 8.12798 77.4 8.26146C77.4 8.41275 77.33 8.43945 77.03 8.43945C76.65 8.43055 76.65 8.43055 77 8.16357Z" fill="#949494"/>
<path d="M91.58 8.37715C91.25 8.30596 91.38 8.08348 91.75 8.08348C92.03 8.08348 92.1 8.11908 92.1 8.26147C92.1 8.43945 91.96 8.46614 91.58 8.37715Z" fill="#949494"/>
<path d="M8.7 7.70972C8.7 7.44275 8.83 7.19358 8.96 7.19358C9.05 7.19358 9.1 7.30037 9.1 7.50504C9.1 7.75422 9.06 7.81651 8.9 7.81651C8.79 7.81651 8.7 7.76312 8.7 7.70972Z" fill="#949494"/>
<path d="M22.9 7.37156C22.9 7.22917 22.95 7.10459 23 7.10459C23.06 7.10459 23.1 7.14018 23.1 7.18468C23.1 7.22917 23.19 7.29147 23.29 7.32706C23.4 7.35376 23.51 7.43385 23.54 7.50505C23.58 7.60294 23.51 7.63853 23.25 7.63853C22.93 7.63853 22.9 7.62073 22.9 7.37156Z" fill="#949494"/>
<path d="M79.46 6.43715C79.5 6.36596 79.55 6.30367 79.6 6.30367C79.66 6.30367 79.82 6.19688 80.27 5.85871C80.46 5.71633 80.5 5.75193 80.5 6.0367C80.5 6.24137 80.46 6.30367 80.3 6.30367C80.19 6.30367 80.1 6.36596 80.1 6.43715C80.1 6.52615 79.99 6.57064 79.75 6.57064C79.49 6.57064 79.42 6.54394 79.46 6.43715Z" fill="#949494"/>
<path d="M82.05 4.79083C82.08 4.74633 82.24 4.62174 82.4 4.52385C82.7 4.33697 82.7 4.33697 82.7 4.60394C82.7 4.86202 82.67 4.87982 82.34 4.87982C82.14 4.87982 82.01 4.84422 82.05 4.79083Z" fill="#949494"/>
<path d="M92 4.56835C92 4.21238 92.24 4.13229 92.34 4.46156C92.44 4.79082 92.41 4.87981 92.2 4.87981C92.04 4.87981 92 4.81752 92 4.56835Z" fill="#949494"/>
<path d="M83.05 4.16789C83.08 4.12339 83.31 3.95431 83.56 3.81193C84 3.53605 84 3.53605 84 3.81193C84 3.98991 83.95 4.0789 83.85 4.0789C83.77 4.0789 83.7 4.12339 83.7 4.16789C83.7 4.22128 83.54 4.25688 83.34 4.25688C83.14 4.25688 83.01 4.22128 83.05 4.16789Z" fill="#949494"/>
<path d="M9.19 3.79413C9.24 3.67844 9.28 3.55385 9.28 3.50046C9.29 3.45596 9.36 3.40257 9.44 3.38477C9.56 3.35807 9.6 3.42926 9.6 3.66954C9.6 3.95431 9.57 3.98991 9.35 3.98991C9.14 3.98991 9.12 3.96321 9.19 3.79413Z" fill="#949494"/>
<path d="M9.5 2.72624C9.5 2.45926 9.63 2.21009 9.76 2.21009C9.85 2.21009 9.9 2.31688 9.9 2.52156C9.9 2.77073 9.86 2.83303 9.7 2.83303C9.59 2.83303 9.5 2.77963 9.5 2.72624Z" fill="#949494"/>
<path d="M10.03 1.21339C10.22 0.804034 10.4 0.786237 10.4 1.1778C10.4 1.46257 10.37 1.49816 10.15 1.49816C9.91 1.49816 9.9 1.48926 10.03 1.21339V1.21339Z" fill="#949494"/>
<path d="M89.1 1.1422C89.1 1.03541 89.43 0.875229 89.64 0.875229C89.73 0.875229 89.8 0.955321 89.8 1.05321C89.8 1.1956 89.73 1.23119 89.45 1.23119C89.26 1.23119 89.1 1.1956 89.1 1.1422Z" fill="#949494"/>
</svg>
