<svg width="101" height="84" viewBox="0 0 101 84" fill="none" xmlns="http://www.w3.org/2000/svg">
<path d="M49.18 83.6634C48.85 83.5922 48.98 83.3697 49.35 83.3697C49.63 83.3697 49.7 83.4053 49.7 83.5477C49.7 83.7257 49.56 83.7524 49.18 83.6634Z" fill="#6B6B6B"/>
<path d="M47.18 83.4854C46.85 83.4142 46.98 83.1917 47.35 83.1917C47.63 83.1917 47.7 83.2273 47.7 83.3697C47.7 83.5477 47.56 83.5744 47.18 83.4854Z" fill="#6B6B6B"/>
<path d="M53.46 83.3875C53.43 83.3608 53.4 83.2629 53.4 83.174C53.4 83.0494 53.48 83.0138 53.75 83.0138C53.97 83.0138 54.1 83.0583 54.1 83.1295C54.1 83.2451 53.55 83.4765 53.46 83.3875Z" fill="#6B6B6B"/>
<path d="M45.38 83.1295C45.05 83.0583 45.18 82.8358 45.55 82.8358C45.83 82.8358 45.9 82.8714 45.9 83.0138C45.9 83.1917 45.76 83.2184 45.38 83.1295Z" fill="#6B6B6B"/>
<path d="M44.52 82.8536C44.2 82.6667 44.25 82.5688 44.65 82.5688C44.95 82.5688 45 82.5955 45 82.7735C45 83.0138 44.83 83.0404 44.52 82.8536Z" fill="#6B6B6B"/>
<path d="M59.7 79.8635C59.7 79.5698 59.72 79.5431 60.01 79.5431C60.31 79.5431 60.31 79.5431 60.1 79.8101C59.79 80.2016 59.7 80.2105 59.7 79.8635Z" fill="#6B6B6B"/>
<path d="M39.44 79.1516C39.38 79.0893 39.29 78.9558 39.26 78.849C39.2 78.6799 39.23 78.6532 39.44 78.6532C39.67 78.6532 39.7 78.6888 39.7 78.9647C39.7 79.2939 39.63 79.3473 39.44 79.1516V79.1516Z" fill="#6B6B6B"/>
<path d="M60.8 78.3418C60.8 78.0659 60.83 78.0303 61.05 78.0303C61.35 78.0303 61.35 78.057 61.13 78.3951C60.9 78.7333 60.8 78.7244 60.8 78.3418Z" fill="#6B6B6B"/>
<path d="M37.66 75.7877C37.56 75.4495 37.59 75.3605 37.8 75.3605C37.96 75.3605 38 75.4228 38 75.672C38 76.028 37.76 76.1081 37.66 75.7877Z" fill="#6B6B6B"/>
<path d="M62.2 75.316C62.2 75.0669 62.24 75.0046 62.4 75.0046C62.61 75.0046 62.64 75.0936 62.54 75.4317C62.44 75.7521 62.2 75.672 62.2 75.316Z" fill="#6B6B6B"/>
<path d="M62.6 73.9456C62.6 73.8566 62.63 73.5985 62.66 73.3671C62.72 73.0112 62.76 72.9578 62.96 72.9578C63.17 72.9578 63.18 72.9845 63.09 73.2159C63.04 73.3494 63 73.5006 63.01 73.5451C63.02 73.5896 63 73.732 62.96 73.8744C62.87 74.1414 62.6 74.2037 62.6 73.9456V73.9456Z" fill="#6B6B6B"/>
<path d="M62.8 72.5573C62.8 72.3082 62.84 72.2459 63 72.2459C63.21 72.2459 63.24 72.3349 63.14 72.673C63.04 72.9934 62.8 72.9133 62.8 72.5573Z" fill="#6B6B6B"/>
<path d="M36.86 71.6941C36.75 71.3204 36.79 71.178 37 71.178C37.17 71.178 37.2 71.2403 37.2 71.5339C37.2 71.9344 36.97 72.0412 36.86 71.6941Z" fill="#6B6B6B"/>
<path d="M36.8 70.7152C36.8 70.4482 36.93 70.1991 37.06 70.1991C37.15 70.1991 37.2 70.3059 37.2 70.5105C37.2 70.7597 37.16 70.822 37 70.822C36.89 70.822 36.8 70.7686 36.8 70.7152Z" fill="#6B6B6B"/>
<path d="M62.7 68.9977C62.7 68.6417 62.94 68.5617 63.04 68.8909C63.14 69.2202 63.11 69.3092 62.9 69.3092C62.74 69.3092 62.7 69.2469 62.7 68.9977Z" fill="#6B6B6B"/>
<path d="M37.1 68.4905C37.1 68.2235 37.23 67.9743 37.36 67.9743C37.45 67.9743 37.5 68.0811 37.5 68.2858C37.5 68.535 37.46 68.5973 37.3 68.5973C37.19 68.5973 37.1 68.5439 37.1 68.4905Z" fill="#6B6B6B"/>
<path d="M63.2 66.6751C63.2 66.4882 63.25 66.4615 63.55 66.4615C63.77 66.4615 63.9 66.506 63.9 66.5772C63.9 66.6484 63.74 66.7373 63.55 66.7907C63.22 66.8886 63.2 66.8797 63.2 66.6751Z" fill="#6B6B6B"/>
<path d="M65.4 66.4081C65.4 66.2212 65.45 66.1945 65.75 66.1945C65.97 66.1945 66.1 66.239 66.1 66.3102C66.1 66.3814 65.94 66.4704 65.75 66.5238C65.42 66.6216 65.4 66.6127 65.4 66.4081Z" fill="#6B6B6B"/>
<path d="M33.58 66.3992C33.25 66.328 33.38 66.1055 33.75 66.1055C34.03 66.1055 34.1 66.1411 34.1 66.2835C34.1 66.4615 33.96 66.4882 33.58 66.3992Z" fill="#6B6B6B"/>
<path d="M67.4 66.1055C67.4 65.9631 67.47 65.9275 67.75 65.9275C68.15 65.9275 68.24 66.1411 67.88 66.2301C67.5 66.3191 67.4 66.2924 67.4 66.1055Z" fill="#6B6B6B"/>
<path d="M29.58 65.8652C29.25 65.794 29.38 65.5715 29.75 65.5715C30.03 65.5715 30.1 65.6071 30.1 65.7495C30.1 65.9275 29.96 65.9542 29.58 65.8652Z" fill="#6B6B6B"/>
<path d="M74.5 65.1266C74.5 64.9842 74.57 64.9486 74.85 64.9486C75.25 64.9486 75.34 65.1622 74.98 65.2512C74.6 65.3402 74.5 65.3135 74.5 65.1266Z" fill="#6B6B6B"/>
<path d="M76.9 64.7706C76.9 64.6283 76.97 64.5927 77.25 64.5927C77.65 64.5927 77.74 64.8062 77.38 64.8952C77 64.9842 76.9 64.9575 76.9 64.7706Z" fill="#6B6B6B"/>
<path d="M20.38 64.5304C20.05 64.4592 20.18 64.2367 20.55 64.2367C20.83 64.2367 20.9 64.2723 20.9 64.4147C20.9 64.5927 20.76 64.6194 20.38 64.5304Z" fill="#6B6B6B"/>
<path d="M86.1 63.3468C86.1 63.2044 86.17 63.1688 86.45 63.1688C86.85 63.1688 86.94 63.3824 86.58 63.4714C86.2 63.5604 86.1 63.5337 86.1 63.3468Z" fill="#6B6B6B"/>
<path d="M12.98 63.3735C12.65 63.3023 12.78 63.0798 13.15 63.0798C13.43 63.0798 13.5 63.1154 13.5 63.2578C13.5 63.4358 13.36 63.4625 12.98 63.3735Z" fill="#6B6B6B"/>
<path d="M10.18 62.9285C9.85 62.8573 9.98 62.6349 10.35 62.6349C10.63 62.6349 10.7 62.6705 10.7 62.8128C10.7 62.9908 10.56 63.0175 10.18 62.9285Z" fill="#6B6B6B"/>
<path d="M91.1 62.5459C91.1 62.4035 91.17 62.3679 91.45 62.3679C91.85 62.3679 91.94 62.5815 91.58 62.6705C91.2 62.7595 91.1 62.7328 91.1 62.5459Z" fill="#6B6B6B"/>
<path d="M92.7 62.2789C92.7 62.1365 92.77 62.1009 93.05 62.1009C93.45 62.1009 93.54 62.3145 93.18 62.4035C92.8 62.4925 92.7 62.4658 92.7 62.2789Z" fill="#6B6B6B"/>
<path d="M6.13 62.2611C5.67 62.1721 5.52 61.9229 5.93 61.9229C6.51 61.9229 6.9 62.0386 6.9 62.1988C6.9 62.3857 6.78 62.3946 6.13 62.2611V62.2611Z" fill="#6B6B6B"/>
<path d="M95.9 61.7449C95.9 61.6026 95.97 61.567 96.25 61.567C96.52 61.567 96.6 61.6026 96.6 61.7271C96.6 61.8339 96.51 61.8873 96.25 61.8962C95.96 61.9229 95.9 61.8962 95.9 61.7449V61.7449Z" fill="#6B6B6B"/>
<path d="M99.7 60.7216C99.7 60.3656 99.94 60.2855 100.04 60.6148C100.14 60.944 100.11 61.033 99.9 61.033C99.74 61.033 99.7 60.9707 99.7 60.7216Z" fill="#6B6B6B"/>
<path d="M1.14441e-05 60.3033C1.14441e-05 60.0363 0.130012 59.7872 0.260012 59.7872C0.350012 59.7872 0.400011 59.8939 0.400011 60.0986C0.400011 60.3478 0.360011 60.4101 0.200011 60.4101C0.0900114 60.4101 1.14441e-05 60.3567 1.14441e-05 60.3033Z" fill="#6B6B6B"/>
<path d="M28.5 59.4312C28.5 59.2443 28.6 59.2176 28.98 59.3066C29.34 59.3956 29.25 59.6092 28.85 59.6092C28.57 59.6092 28.5 59.5736 28.5 59.4312Z" fill="#6B6B6B"/>
<path d="M33.2 59.4846C33.2 59.3689 33.48 59.2532 33.78 59.2532C33.84 59.2532 33.9 59.3333 33.9 59.4312C33.9 59.5736 33.83 59.6092 33.55 59.6092C33.32 59.6092 33.2 59.5647 33.2 59.4846Z" fill="#6B6B6B"/>
<path d="M27.3 59.3422C27.3 59.1553 27.4 59.1286 27.78 59.2176C28.14 59.3066 28.05 59.5202 27.65 59.5202C27.37 59.5202 27.3 59.4846 27.3 59.3422Z" fill="#6B6B6B"/>
<path d="M23.8 58.8973C23.8 58.7104 23.9 58.6837 24.28 58.7727C24.64 58.8617 24.55 59.0752 24.15 59.0752C23.87 59.0752 23.8 59.0396 23.8 58.8973Z" fill="#6B6B6B"/>
<path d="M30.28 58.568C29.95 58.4968 30.08 58.2743 30.45 58.2743C30.73 58.2743 30.8 58.3099 30.8 58.4523C30.8 58.6303 30.66 58.657 30.28 58.568Z" fill="#6B6B6B"/>
<path d="M31.8 58.4523C31.8 58.3099 31.87 58.2743 32.15 58.2743C32.55 58.2743 32.64 58.4879 32.28 58.5769C31.9 58.6659 31.8 58.6392 31.8 58.4523Z" fill="#6B6B6B"/>
<path d="M35.76 58.212C35.73 58.1853 35.7 58.0785 35.7 57.9895C35.7 57.8649 35.78 57.8294 36.06 57.8294C36.33 57.8294 36.41 57.8649 36.38 57.9717C36.36 58.0429 36.31 58.1052 36.25 58.1141C36.2 58.1141 36.08 58.1497 35.99 58.1942C35.9 58.2298 35.8 58.2387 35.76 58.212V58.212Z" fill="#6B6B6B"/>
<path d="M18.5 58.0073C18.5 57.8205 18.6 57.7938 18.98 57.8827C19.34 57.9717 19.25 58.1853 18.85 58.1853C18.57 58.1853 18.5 58.1497 18.5 58.0073Z" fill="#6B6B6B"/>
<path d="M16.6 57.7404C16.6 57.5535 16.7 57.5268 17.08 57.6158C17.44 57.7048 17.35 57.9183 16.95 57.9183C16.67 57.9183 16.6 57.8827 16.6 57.7404Z" fill="#6B6B6B"/>
<path d="M22.98 57.7671C22.65 57.6959 22.78 57.4734 23.15 57.4734C23.43 57.4734 23.5 57.509 23.5 57.6514C23.5 57.8294 23.36 57.856 22.98 57.7671Z" fill="#6B6B6B"/>
<path d="M14.4 57.4734C14.4 57.2865 14.5 57.2598 14.88 57.3488C15.24 57.4378 15.15 57.6514 14.75 57.6514C14.47 57.6514 14.4 57.6158 14.4 57.4734Z" fill="#6B6B6B"/>
<path d="M21.67 57.5535C21.58 57.5001 21.45 57.4912 21.4 57.5179C21.34 57.5446 21.3 57.4912 21.3 57.3933C21.3 57.242 21.36 57.2064 21.65 57.2064C21.93 57.2064 22 57.242 22 57.3755C22 57.598 21.89 57.6603 21.67 57.5535Z" fill="#6B6B6B"/>
<path d="M39.35 57.5624C39.38 57.5179 39.54 57.3933 39.7 57.2954C40 57.1085 40 57.1085 40 57.3755C40 57.6336 39.97 57.6514 39.64 57.6514C39.44 57.6514 39.31 57.6158 39.35 57.5624Z" fill="#6B6B6B"/>
<path d="M0.299999 57.4823C0.299999 57.242 0.45 57.1174 0.72 57.1174C0.91 57.1174 0.999998 57.153 0.979998 57.2242C0.929998 57.3577 0.299999 57.598 0.299999 57.4823Z" fill="#6B6B6B"/>
<path d="M7.2 57.2598C7.2 57.1441 7.48 57.0284 7.78 57.0284C7.84 57.0284 7.9 57.1085 7.9 57.2064C7.9 57.3488 7.83 57.3844 7.55 57.3844C7.32 57.3844 7.2 57.3399 7.2 57.2598Z" fill="#6B6B6B"/>
<path d="M10.2 57.2064C10.2 57.0195 10.3 56.9928 10.68 57.0818C11.04 57.1708 10.95 57.3844 10.55 57.3844C10.27 57.3844 10.2 57.3488 10.2 57.2064Z" fill="#6B6B6B"/>
<path d="M1.4 56.9395C1.4 56.7971 1.47 56.7615 1.75 56.7615C2.15 56.7615 2.24 56.9751 1.88 57.064C1.5 57.153 1.4 57.1263 1.4 56.9395Z" fill="#6B6B6B"/>
<path d="M16.93 56.8327C16.48 56.6992 16.5 56.4945 16.95 56.4945C17.26 56.4945 17.3 56.5212 17.3 56.717C17.3 56.8416 17.29 56.9394 17.28 56.9305C17.26 56.9216 17.1 56.8772 16.93 56.8327Z" fill="#6B6B6B"/>
<path d="M0.409999 56.5924C0.459999 56.4589 0.499998 56.3076 0.489998 56.2631C0.469998 56.2186 0.489998 56.0673 0.519998 55.9161C0.559998 55.7737 0.609999 55.4978 0.649999 55.3198C0.689999 55.1062 0.759999 54.9817 0.849999 54.9817C1.03 54.9817 1.03 55.0528 0.879997 56.0584C0.769997 56.7882 0.749998 56.8505 0.539998 56.8505C0.329998 56.8505 0.319999 56.8238 0.409999 56.5924Z" fill="#6B6B6B"/>
<path d="M15.98 56.6992C15.65 56.628 15.78 56.4055 16.15 56.4055C16.43 56.4055 16.5 56.4411 16.5 56.5835C16.5 56.7615 16.36 56.7882 15.98 56.6992Z" fill="#6B6B6B"/>
<path d="M13.38 56.4322C13.05 56.361 13.18 56.1385 13.55 56.1385C13.83 56.1385 13.9 56.1741 13.9 56.3165C13.9 56.4945 13.76 56.5212 13.38 56.4322Z" fill="#6B6B6B"/>
<path d="M5.9 56.2275C5.9 56.0851 5.97 56.0495 6.25 56.0495C6.65 56.0495 6.74 56.2631 6.38 56.3521C6 56.4411 5.9 56.4144 5.9 56.2275Z" fill="#6B6B6B"/>
<path d="M11.98 56.3432C11.65 56.272 11.78 56.0495 12.15 56.0495C12.43 56.0495 12.5 56.0851 12.5 56.2275C12.5 56.4055 12.36 56.4322 11.98 56.3432Z" fill="#6B6B6B"/>
<path d="M39.4 56.094C39.4 55.925 39.45 55.7826 39.5 55.7826C39.56 55.7826 39.6 55.7203 39.6 55.6491C39.6 55.569 39.7 55.5156 39.86 55.5156C40.08 55.5156 40.1 55.5423 40.04 55.7203C40.01 55.8271 39.93 55.9339 39.89 55.9428C39.84 55.9606 39.8 56.0228 39.8 56.0762C39.8 56.1385 39.71 56.2364 39.6 56.2987C39.41 56.3966 39.4 56.3877 39.4 56.094Z" fill="#6B6B6B"/>
<path d="M7.6 56.1385C7.6 55.9961 7.67 55.9605 7.95 55.9605C8.35 55.9605 8.44 56.1741 8.08 56.2631C7.7 56.3521 7.6 56.3254 7.6 56.1385Z" fill="#6B6B6B"/>
<path d="M41.44 54.7859C41.47 54.5901 41.7 54.2697 41.8 54.2697C41.86 54.2697 41.9 54.4121 41.9 54.5812C41.9 54.8482 41.87 54.8927 41.66 54.8927C41.52 54.8927 41.43 54.8482 41.44 54.7859Z" fill="#6B6B6B"/>
<path d="M41.83 53.807C41.85 53.6201 41.93 53.5044 42.03 53.4866C42.16 53.4599 42.2 53.5222 42.2 53.7714C42.2 54.0383 42.16 54.0917 41.99 54.0917C41.82 54.0917 41.79 54.0472 41.83 53.807Z" fill="#6B6B6B"/>
<path d="M40.7 53.4332C40.7 53.1662 40.74 53.1129 40.91 53.1129C41.08 53.1129 41.11 53.1574 41.07 53.3976C41.05 53.5845 40.97 53.7002 40.87 53.718C40.74 53.7447 40.7 53.6824 40.7 53.4332Z" fill="#6B6B6B"/>
<path d="M41.1 51.0661C41.1 50.7457 41.14 50.6211 41.24 50.6211C41.41 50.6211 41.52 50.9949 41.44 51.2885C41.33 51.6979 41.1 51.5555 41.1 51.0661Z" fill="#6B6B6B"/>
<path d="M42.26 50.1583C42.16 49.8202 42.19 49.7312 42.4 49.7312C42.56 49.7312 42.6 49.7935 42.6 50.0427C42.6 50.3986 42.36 50.4787 42.26 50.1583Z" fill="#6B6B6B"/>
<path d="M40.6 48.7078C40.6 48.3518 40.74 48.3073 40.92 48.601C41.12 48.9214 41.1 49.0193 40.84 49.0193C40.63 49.0193 40.6 48.9748 40.6 48.7078V48.7078Z" fill="#6B6B6B"/>
<path d="M2.53 47.9336C2.55 47.7467 2.63 47.631 2.73 47.6132C2.86 47.5865 2.9 47.6488 2.9 47.898C2.9 48.165 2.86 48.2183 2.69 48.2183C2.52 48.2183 2.49 48.1738 2.53 47.9336V47.9336Z" fill="#6B6B6B"/>
<path d="M39.7 47.275C39.7 46.928 39.79 46.9369 40.1 47.3284C40.31 47.5954 40.31 47.5954 40.01 47.5954C39.72 47.5954 39.7 47.5687 39.7 47.275Z" fill="#6B6B6B"/>
<path d="M3.62 47.1327C3.65 47.0704 3.81 46.9725 3.98 46.9102C4.29 46.7945 4.3 46.8034 4.3 47.017C4.3 47.2127 4.26 47.2394 3.94 47.2394C3.71 47.2394 3.6 47.2038 3.62 47.1327Z" fill="#6B6B6B"/>
<path d="M38.74 46.5809C38.71 46.5097 38.7 46.3673 38.72 46.2605C38.75 46.0826 38.77 46.0826 39.15 46.3851C39.55 46.6966 39.55 46.6966 39.17 46.7055C38.93 46.7055 38.77 46.661 38.74 46.5809Z" fill="#6B6B6B"/>
<path d="M48.6 46.5275C48.6 46.3406 48.7 46.3139 49.08 46.4029C49.44 46.4919 49.35 46.7055 48.95 46.7055C48.67 46.7055 48.6 46.6699 48.6 46.5275Z" fill="#6B6B6B"/>
<path d="M50 46.5809C50 46.4652 50.28 46.3495 50.58 46.3495C50.64 46.3495 50.7 46.4296 50.7 46.5275C50.7 46.6699 50.63 46.7055 50.35 46.7055C50.12 46.7055 50 46.661 50 46.5809Z" fill="#6B6B6B"/>
<path d="M5.12 46.5097C5.15 46.4474 5.31 46.3495 5.48 46.2872C5.79 46.1716 5.8 46.1805 5.8 46.394C5.8 46.5898 5.76 46.6165 5.44 46.6165C5.21 46.6165 5.1 46.5809 5.12 46.5097Z" fill="#6B6B6B"/>
<path d="M47.6 46.4385C47.6 46.2517 47.7 46.225 48.08 46.3139C48.44 46.4029 48.35 46.6165 47.95 46.6165C47.67 46.6165 47.6 46.5809 47.6 46.4385Z" fill="#6B6B6B"/>
<path d="M51.9 46.3139C51.9 46.1983 52.18 46.0826 52.48 46.0826C52.54 46.0826 52.6 46.1627 52.6 46.2605C52.6 46.4029 52.53 46.4385 52.25 46.4385C52.02 46.4385 51.9 46.394 51.9 46.3139Z" fill="#6B6B6B"/>
<path d="M52.9 46.0915C52.9 45.9847 52.95 45.958 53.58 45.7355C54.1 45.5486 54.1 45.5486 54.1 45.7711C54.1 45.9491 54.05 45.9936 53.85 45.9936C53.71 45.9936 53.6 46.0381 53.6 46.0826C53.6 46.136 53.44 46.1716 53.25 46.1716C53.06 46.1716 52.9 46.136 52.9 46.0915Z" fill="#6B6B6B"/>
<path d="M7.22 45.7088C7.25 45.6465 7.41 45.5486 7.58 45.4863C7.89 45.3706 7.9 45.3795 7.9 45.5931C7.9 45.7889 7.86 45.8156 7.54 45.8156C7.31 45.8156 7.2 45.78 7.22 45.7088Z" fill="#6B6B6B"/>
<path d="M50.2 45.4596C50.2 45.3172 50.27 45.2816 50.55 45.2816C50.95 45.2816 51.04 45.4952 50.68 45.5842C50.3 45.6732 50.2 45.6465 50.2 45.4596Z" fill="#6B6B6B"/>
<path d="M9.2 45.0147C9.2 44.9257 9.56 44.721 9.78 44.6943C9.85 44.6854 9.9 44.7655 9.9 44.8901C9.9 45.077 9.85 45.1037 9.55 45.1037C9.36 45.1037 9.2 45.0681 9.2 45.0147Z" fill="#6B6B6B"/>
<path d="M38.44 44.899C38.32 44.8456 38.17 44.7299 38.11 44.6409C38.01 44.4985 38.04 44.4807 38.35 44.4807C38.67 44.4807 38.7 44.4985 38.7 44.7477C38.7 44.899 38.69 45.0058 38.68 45.0058C38.66 44.9969 38.55 44.9524 38.44 44.899Z" fill="#6B6B6B"/>
<path d="M10.02 44.7299C10.05 44.6676 10.21 44.5697 10.38 44.5074C10.69 44.3917 10.7 44.4006 10.7 44.6142C10.7 44.81 10.66 44.8367 10.34 44.8367C10.11 44.8367 10 44.8011 10.02 44.7299Z" fill="#6B6B6B"/>
<path d="M10.82 44.4629C10.85 44.4006 11.01 44.3027 11.18 44.2405C11.49 44.1248 11.5 44.1337 11.5 44.3472C11.5 44.543 11.46 44.5697 11.14 44.5697C10.91 44.5697 10.8 44.5341 10.82 44.4629Z" fill="#6B6B6B"/>
<path d="M54.3 44.3472C54.3 44.1515 54.34 44.1248 54.65 44.1248C55.08 44.1248 55.09 44.2138 54.71 44.4184C54.33 44.6142 54.3 44.6142 54.3 44.3472Z" fill="#6B6B6B"/>
<path d="M37.38 44.2316C37.01 44.0358 37.03 43.9468 37.45 43.9468C37.76 43.9468 37.8 43.9735 37.8 44.1693C37.8 44.4273 37.74 44.4362 37.38 44.2316Z" fill="#6B6B6B"/>
<path d="M95.7 43.9824C95.7 43.5908 95.88 43.6086 96.07 44.018C96.2 44.2938 96.19 44.3027 95.95 44.3027C95.73 44.3027 95.7 44.2672 95.7 43.9824Z" fill="#6B6B6B"/>
<path d="M55.1 43.9468C55.1 43.6976 55.13 43.6798 55.45 43.6798C55.78 43.6798 55.79 43.6887 55.68 43.8578C55.61 43.9557 55.5 44.0358 55.43 44.0358C55.36 44.0358 55.3 44.0803 55.3 44.1248C55.3 44.1782 55.26 44.2138 55.2 44.2138C55.15 44.2138 55.1 44.0981 55.1 43.9468Z" fill="#6B6B6B"/>
<path d="M12.92 43.7955C12.94 43.7065 13.07 43.6353 13.28 43.6175C13.55 43.5819 13.6 43.6086 13.6 43.7599C13.6 43.9112 13.54 43.9468 13.24 43.9468C12.96 43.9468 12.89 43.9112 12.92 43.7955Z" fill="#6B6B6B"/>
<path d="M6.4 43.4306C6.4 43.3595 6.92 43.0569 7.04 43.0569C7.07 43.0569 7.1 43.1548 7.1 43.2794C7.1 43.4751 7.06 43.5018 6.75 43.5018C6.56 43.5018 6.4 43.4662 6.4 43.4306Z" fill="#6B6B6B"/>
<path d="M41.7 43.2349C41.7 43.1815 41.63 43.1192 41.54 43.0836C41.45 43.0569 41.21 42.8967 41.01 42.7365C40.65 42.4339 40.65 42.4339 41.03 42.4339C41.29 42.4339 41.4 42.4695 41.4 42.5674C41.4 42.6386 41.49 42.7009 41.6 42.7009C41.76 42.7009 41.8 42.7632 41.8 43.0124C41.8 43.1815 41.78 43.3239 41.75 43.3239C41.72 43.3239 41.7 43.2794 41.7 43.2349V43.2349Z" fill="#6B6B6B"/>
<path d="M57.95 43.2349C57.98 43.1904 58.14 43.0658 58.3 42.9679C58.6 42.781 58.6 42.781 58.6 43.048C58.6 43.3061 58.57 43.3239 58.24 43.3239C58.04 43.3239 57.91 43.2883 57.95 43.2349Z" fill="#6B6B6B"/>
<path d="M39.4 42.87C39.4 42.603 39.4 42.603 39.7 42.7899C40.14 43.0658 40.15 43.1459 39.76 43.1459C39.43 43.1459 39.4 43.1281 39.4 42.87Z" fill="#6B6B6B"/>
<path d="M5.3 42.7454C5.3 42.5496 5.34 42.5229 5.65 42.5229C5.91 42.5229 6 42.5585 6 42.6742C6 42.7543 5.97 42.7899 5.94 42.7632C5.9 42.7365 5.78 42.7632 5.66 42.8344C5.37 43.0213 5.3 43.0035 5.3 42.7454V42.7454Z" fill="#6B6B6B"/>
<path d="M12.5 42.7899C12.5 42.6475 12.57 42.6119 12.85 42.6119C13.25 42.6119 13.34 42.8255 12.98 42.9145C12.6 43.0035 12.5 42.9768 12.5 42.7899Z" fill="#6B6B6B"/>
<path d="M59.1 42.5407C59.1 42.4695 59.62 42.167 59.74 42.167C59.77 42.167 59.8 42.2649 59.8 42.3894C59.8 42.5852 59.76 42.6119 59.45 42.6119C59.26 42.6119 59.1 42.5763 59.1 42.5407Z" fill="#6B6B6B"/>
<path d="M32.53 42.3005C32.1 42.1403 32.11 41.989 32.55 41.989C32.86 41.989 32.9 42.0157 32.9 42.2115C32.9 42.336 32.89 42.4339 32.88 42.4339C32.86 42.425 32.7 42.3716 32.53 42.3005Z" fill="#6B6B6B"/>
<path d="M6.6 42.1225C6.6 41.9267 6.64 41.9 6.95 41.9C7.38 41.9 7.39 41.989 7.01 42.1937C6.63 42.3894 6.6 42.3894 6.6 42.1225Z" fill="#6B6B6B"/>
<path d="M20.9 42.2293C20.9 42.1581 21.06 42.0691 21.25 42.0157C21.58 41.9178 21.6 41.9267 21.6 42.1314C21.6 42.3183 21.55 42.345 21.25 42.345C21.03 42.345 20.9 42.3005 20.9 42.2293Z" fill="#6B6B6B"/>
<path d="M57.8 42.078C57.8 41.8377 57.83 41.811 58.1 41.811C58.33 41.811 58.4 41.7754 58.4 41.633C58.4 41.4995 58.47 41.455 58.65 41.455C58.81 41.455 58.9 41.4017 58.9 41.3216C58.9 41.2326 59.01 41.1881 59.25 41.1881C59.44 41.1881 59.6 41.2148 59.6 41.2415C59.6 41.3305 59.35 41.4995 58.95 41.6775C58.73 41.7754 58.48 41.9178 58.39 41.989C58.31 42.0602 58.14 42.1759 58.02 42.2382C57.81 42.3361 57.8 42.3272 57.8 42.078V42.078Z" fill="#6B6B6B"/>
<path d="M92.6 42.1314C92.6 41.9 92.71 41.8822 93.08 42.0602C93.4 42.2204 93.35 42.3449 92.95 42.3449C92.65 42.3449 92.6 42.3182 92.6 42.1314V42.1314Z" fill="#6B6B6B"/>
<path d="M4.84 42.1492C4.87 41.9534 5.1 41.633 5.2 41.633C5.26 41.633 5.3 41.7754 5.3 41.9445C5.3 42.2115 5.27 42.256 5.06 42.256C4.92 42.256 4.83 42.2115 4.84 42.1492V42.1492Z" fill="#6B6B6B"/>
<path d="M26.7 42.078C26.7 41.8911 26.8 41.8644 27.18 41.9534C27.54 42.0424 27.45 42.256 27.05 42.256C26.77 42.256 26.7 42.2204 26.7 42.078Z" fill="#6B6B6B"/>
<path d="M23.4 42.0424C23.4 41.9267 23.68 41.811 23.98 41.811C24.04 41.811 24.1 41.8911 24.1 41.989C24.1 42.1314 24.03 42.167 23.75 42.167C23.52 42.167 23.4 42.1225 23.4 42.0424Z" fill="#6B6B6B"/>
<path d="M25.7 41.989C25.7 41.8021 25.8 41.7754 26.18 41.8644C26.54 41.9534 26.45 42.167 26.05 42.167C25.77 42.167 25.7 42.1314 25.7 41.989Z" fill="#6B6B6B"/>
<path d="M60.2 41.9979C60.2 41.9534 60.39 41.8377 60.63 41.7309C61.05 41.544 61.05 41.544 61.08 41.7309C61.1 41.8377 61.06 41.9623 60.98 41.9979C60.81 42.1047 60.2 42.0958 60.2 41.9979Z" fill="#6B6B6B"/>
<path d="M16.4 41.811C16.4 41.6686 16.47 41.633 16.75 41.633C17.15 41.633 17.24 41.8466 16.88 41.9356C16.5 42.0246 16.4 41.9979 16.4 41.811Z" fill="#6B6B6B"/>
<path d="M91.5 41.7665C91.5 41.5529 91.51 41.544 91.82 41.6597C92.28 41.8288 92.3 41.989 91.86 41.989C91.54 41.989 91.5 41.9623 91.5 41.7665V41.7665Z" fill="#6B6B6B"/>
<path d="M94.87 41.8911C94.78 41.8377 94.7 41.722 94.7 41.633C94.7 41.5351 94.63 41.4551 94.55 41.4551C94.45 41.4551 94.4 41.3572 94.4 41.1436C94.4 40.9745 94.44 40.8321 94.49 40.8321C94.61 40.8321 95.19 41.8911 95.11 41.9445C95.07 41.9623 94.97 41.9356 94.87 41.8911Z" fill="#6B6B6B"/>
<path d="M10.22 41.7042C10.25 41.6419 10.41 41.544 10.58 41.4817C10.89 41.366 10.9 41.3749 10.9 41.5885C10.9 41.7843 10.86 41.811 10.54 41.811C10.31 41.811 10.2 41.7754 10.22 41.7042Z" fill="#6B6B6B"/>
<path d="M17.86 41.7487C17.83 41.722 17.8 41.6241 17.8 41.544C17.8 41.3927 18.21 41.2771 18.78 41.2771C19.16 41.2771 19.04 41.5262 18.63 41.5974C18.42 41.633 18.18 41.6864 18.09 41.7309C18 41.7754 17.9 41.7754 17.86 41.7487V41.7487Z" fill="#6B6B6B"/>
<path d="M37.2 41.6775C37.2 41.5974 37.11 41.544 36.95 41.544C36.75 41.544 36.7 41.4995 36.7 41.3216C36.7 41.197 36.73 41.0991 36.76 41.0991C36.88 41.0991 37.9 41.6775 37.9 41.7398C37.9 41.7843 37.74 41.811 37.55 41.811C37.31 41.811 37.2 41.7665 37.2 41.6775Z" fill="#6B6B6B"/>
<path d="M61.3 41.544C61.3 41.455 61.66 41.2504 61.88 41.2237C61.95 41.2148 62 41.2949 62 41.4194C62 41.6063 61.95 41.633 61.65 41.633C61.46 41.633 61.3 41.5974 61.3 41.544Z" fill="#6B6B6B"/>
<path d="M90 41.3661C90 41.1792 90.1 41.1525 90.48 41.2415C90.84 41.3305 90.75 41.544 90.35 41.544C90.07 41.544 90 41.5084 90 41.3661Z" fill="#6B6B6B"/>
<path d="M89 41.0991C89 40.9122 89.1 40.8855 89.48 40.9745C89.84 41.0635 89.75 41.2771 89.35 41.2771C89.07 41.2771 89 41.2415 89 41.0991Z" fill="#6B6B6B"/>
<path d="M26.78 41.1258C26.45 41.0546 26.58 40.8321 26.95 40.8321C27.23 40.8321 27.3 40.8677 27.3 41.0101C27.3 41.1881 27.16 41.2148 26.78 41.1258Z" fill="#6B6B6B"/>
<path d="M9.6 40.8588C9.6 40.5829 9.62 40.5651 9.95 40.5651C10.37 40.5651 10.41 40.7075 10.03 40.8588C9.87 40.9122 9.72 41.0012 9.68 41.0546C9.64 41.0991 9.6 41.0101 9.6 40.8588Z" fill="#6B6B6B"/>
<path d="M23.8 40.9211C23.8 40.7787 23.87 40.7431 24.15 40.7431C24.55 40.7431 24.64 40.9567 24.28 41.0457C23.9 41.1347 23.8 41.108 23.8 40.9211Z" fill="#6B6B6B"/>
<path d="M25.38 41.0368C25.02 40.9567 25.18 40.7431 25.6 40.7431C25.93 40.7431 26 40.7698 26 40.9211C26 41.0991 25.8 41.1347 25.38 41.0368Z" fill="#6B6B6B"/>
<path d="M35.4 40.6363C35.4 40.4762 35.44 40.3872 35.48 40.4317C35.52 40.4851 35.67 40.574 35.83 40.6452C36.2 40.8143 36.17 40.9211 35.75 40.9211C35.42 40.9211 35.4 40.9033 35.4 40.6363Z" fill="#6B6B6B"/>
<path d="M60.9 40.5918C60.9 40.316 60.92 40.2982 61.25 40.2982C61.67 40.2982 61.71 40.4405 61.33 40.5918C61.17 40.6452 61.02 40.7342 60.98 40.7876C60.94 40.8321 60.9 40.7431 60.9 40.5918Z" fill="#6B6B6B"/>
<path d="M63.92 40.6808C63.94 40.5918 64.07 40.5206 64.28 40.5028C64.55 40.4672 64.6 40.4939 64.6 40.6452C64.6 40.7965 64.54 40.8321 64.24 40.8321C63.96 40.8321 63.89 40.7965 63.92 40.6808Z" fill="#6B6B6B"/>
<path d="M94 40.3338C94 39.9422 94.18 39.96 94.37 40.3694C94.5 40.6452 94.49 40.6541 94.25 40.6541C94.03 40.6541 94 40.6185 94 40.3338Z" fill="#6B6B6B"/>
<path d="M34.3 40.2537C34.3 40.0401 34.31 40.0312 34.62 40.1469C35.08 40.316 35.1 40.4762 34.66 40.4762C34.34 40.4762 34.3 40.4495 34.3 40.2537Z" fill="#6B6B6B"/>
<path d="M85.2 40.2982C85.2 40.1113 85.3 40.0846 85.68 40.1736C86.04 40.2626 85.95 40.4762 85.55 40.4762C85.27 40.4762 85.2 40.4406 85.2 40.2982Z" fill="#6B6B6B"/>
<path d="M66.4 40.1825C66.4 40.0668 66.95 39.8354 67.04 39.9244C67.07 39.9511 67.1 40.049 67.1 40.138C67.1 40.2626 67.02 40.2982 66.75 40.2982C66.53 40.2982 66.4 40.2537 66.4 40.1825Z" fill="#6B6B6B"/>
<path d="M68 39.9066C68 39.7909 68.28 39.6752 68.58 39.6752C68.64 39.6752 68.7 39.7553 68.7 39.8532C68.7 39.9956 68.63 40.0312 68.35 40.0312C68.12 40.0312 68 39.9867 68 39.9066Z" fill="#6B6B6B"/>
<path d="M15.82 39.7909C15.84 39.7019 15.97 39.6307 16.18 39.6129C16.45 39.5773 16.5 39.604 16.5 39.7553C16.5 39.9066 16.44 39.9422 16.14 39.9422C15.86 39.9422 15.79 39.9066 15.82 39.7909Z" fill="#6B6B6B"/>
<path d="M32.8 39.7286C32.8 39.4972 32.91 39.4795 33.28 39.6574C33.6 39.8176 33.55 39.9422 33.15 39.9422C32.85 39.9422 32.8 39.9155 32.8 39.7286V39.7286Z" fill="#6B6B6B"/>
<path d="M5.95 39.782C6.01 39.7464 6.11 39.6129 6.17 39.4795C6.34 39.1324 6.5 39.168 6.5 39.5417C6.5 39.8354 6.48 39.8532 6.18 39.8532C6 39.8532 5.9 39.8176 5.95 39.782V39.782Z" fill="#6B6B6B"/>
<path d="M16.92 39.524C16.94 39.435 17.07 39.3638 17.28 39.346C17.55 39.3104 17.6 39.3371 17.6 39.4884C17.6 39.6396 17.54 39.6752 17.24 39.6752C16.96 39.6752 16.89 39.6396 16.92 39.524Z" fill="#6B6B6B"/>
<path d="M31.9 39.4973C31.9 39.3104 32 39.2837 32.38 39.3727C32.74 39.4617 32.65 39.6752 32.25 39.6752C31.97 39.6752 31.9 39.6396 31.9 39.4973Z" fill="#6B6B6B"/>
<path d="M78.2 39.4973C78.2 39.3104 78.3 39.2837 78.68 39.3727C79.04 39.4617 78.95 39.6752 78.55 39.6752C78.27 39.6752 78.2 39.6396 78.2 39.4973Z" fill="#6B6B6B"/>
<path d="M74.5 39.4616C74.5 39.3994 74.6 39.3193 74.73 39.2837C75.14 39.1858 75.3 39.2214 75.3 39.4083C75.3 39.5595 75.23 39.5862 74.9 39.5862C74.63 39.5862 74.5 39.5506 74.5 39.4616Z" fill="#6B6B6B"/>
<path d="M75.4 39.4083C75.4 39.2214 75.5 39.1947 75.88 39.2837C76.24 39.3727 76.15 39.5862 75.75 39.5862C75.47 39.5862 75.4 39.5506 75.4 39.4083Z" fill="#6B6B6B"/>
<path d="M30.8 39.2303C30.8 39.0434 30.9 39.0167 31.28 39.1057C31.64 39.1947 31.55 39.4083 31.15 39.4083C30.87 39.4083 30.8 39.3727 30.8 39.2303Z" fill="#6B6B6B"/>
<path d="M84.98 39.2837C84.58 39.1591 84.62 38.9633 85.05 38.9633C85.33 38.9633 85.4 38.9989 85.4 39.1324C85.4 39.3638 85.31 39.3994 84.98 39.2837Z" fill="#6B6B6B"/>
<path d="M29.5 38.9633C29.5 38.7764 29.6 38.7497 29.98 38.8387C30.34 38.9277 30.25 39.1413 29.85 39.1413C29.57 39.1413 29.5 39.1057 29.5 38.9633Z" fill="#6B6B6B"/>
<path d="M82.38 38.901C82.05 38.8298 82.18 38.6073 82.55 38.6073C82.83 38.6073 82.9 38.6429 82.9 38.7853C82.9 38.9633 82.76 38.99 82.38 38.901Z" fill="#6B6B6B"/>
<path d="M21.8 38.7497C21.8 38.634 22.08 38.5183 22.38 38.5183C22.44 38.5183 22.5 38.5984 22.5 38.6963C22.5 38.8387 22.43 38.8743 22.15 38.8743C21.92 38.8743 21.8 38.8298 21.8 38.7497Z" fill="#6B6B6B"/>
<path d="M68.9 38.6963C68.9 38.5539 68.97 38.5183 69.25 38.5183C69.65 38.5183 69.74 38.7319 69.38 38.8209C69 38.9099 68.9 38.8832 68.9 38.6963Z" fill="#6B6B6B"/>
<path d="M81.58 38.812C81.25 38.7408 81.38 38.5183 81.75 38.5183C82.03 38.5183 82.1 38.5539 82.1 38.6963C82.1 38.8743 81.96 38.901 81.58 38.812Z" fill="#6B6B6B"/>
<path d="M16.1 38.6073C16.1 38.4649 16.17 38.4294 16.45 38.4294C16.85 38.4294 16.94 38.6429 16.58 38.7319C16.2 38.8209 16.1 38.7942 16.1 38.6073Z" fill="#6B6B6B"/>
<path d="M26.3 38.6073C26.3 38.4205 26.4 38.3938 26.78 38.4828C27.14 38.5717 27.05 38.7853 26.65 38.7853C26.37 38.7853 26.3 38.7497 26.3 38.6073Z" fill="#6B6B6B"/>
<path d="M32.65 38.7052C32.49 38.5628 32.64 38.4294 32.95 38.4294C33.23 38.4294 33.3 38.4649 33.3 38.6073C33.3 38.7497 33.24 38.7853 33 38.7675C32.83 38.7586 32.67 38.7319 32.65 38.7052V38.7052Z" fill="#6B6B6B"/>
<path d="M69.7 38.6073C69.7 38.4649 69.77 38.4294 70.05 38.4294C70.45 38.4294 70.54 38.6429 70.18 38.7319C69.8 38.8209 69.7 38.7942 69.7 38.6073Z" fill="#6B6B6B"/>
<path d="M80.68 38.723C80.35 38.6518 80.48 38.4294 80.85 38.4294C81.13 38.4294 81.2 38.4649 81.2 38.6073C81.2 38.7853 81.06 38.812 80.68 38.723Z" fill="#6B6B6B"/>
<path d="M70.6 38.5184C70.6 38.376 70.67 38.3404 70.95 38.3404C71.35 38.3404 71.44 38.554 71.08 38.6429C70.7 38.7319 70.6 38.7052 70.6 38.5184Z" fill="#6B6B6B"/>
<path d="M71.9 38.4294C71.9 38.287 71.97 38.2514 72.25 38.2514C72.65 38.2514 72.74 38.465 72.38 38.5539C72 38.6429 71.9 38.6162 71.9 38.4294Z" fill="#6B6B6B"/>
<path d="M31.25 38.3493C31.09 38.2069 31.24 38.0734 31.55 38.0734C31.83 38.0734 31.9 38.109 31.9 38.2514C31.9 38.3938 31.84 38.4294 31.6 38.4116C31.43 38.4027 31.27 38.376 31.25 38.3493V38.3493Z" fill="#6B6B6B"/>
<path d="M30.58 38.1891C30.25 38.1179 30.38 37.8954 30.75 37.8954C31.03 37.8954 31.1 37.931 31.1 38.0734C31.1 38.2514 30.96 38.2781 30.58 38.1891Z" fill="#6B6B6B"/>
<path d="M27.58 37.7441C27.25 37.6729 27.38 37.4505 27.75 37.4505C28.03 37.4505 28.1 37.4861 28.1 37.6284C28.1 37.8064 27.96 37.8331 27.58 37.7441Z" fill="#6B6B6B"/>
<path d="M23.2 37.5394C23.2 37.3971 23.27 37.3615 23.55 37.3615C23.95 37.3615 24.04 37.575 23.68 37.664C23.3 37.753 23.2 37.7263 23.2 37.5394Z" fill="#6B6B6B"/>
<path d="M26.28 37.6551C25.95 37.5839 26.08 37.3615 26.45 37.3615C26.73 37.3615 26.8 37.3971 26.8 37.5394C26.8 37.7174 26.66 37.7441 26.28 37.6551Z" fill="#6B6B6B"/>
<path d="M7.4 37.2903C7.4 37.2547 7.47 37.139 7.55 37.0411C7.63 36.9343 7.66 36.8275 7.63 36.7919C7.6 36.7652 7.64 36.7385 7.73 36.7385C7.86 36.7385 7.9 36.8186 7.9 37.05C7.9 37.3259 7.87 37.3615 7.65 37.3615C7.51 37.3615 7.4 37.3348 7.4 37.2903V37.2903Z" fill="#6B6B6B"/>
<path d="M90.9 35.0032C90.9 34.754 90.86 34.6917 90.7 34.6917C90.54 34.6917 90.5 34.6294 90.5 34.3803C90.5 34.2112 90.54 34.0688 90.58 34.0688C90.65 34.0688 91.4 35.1634 91.4 35.2702C91.4 35.2969 91.29 35.3147 91.15 35.3147C90.93 35.3147 90.9 35.2791 90.9 35.0032Z" fill="#6B6B6B"/>
<path d="M9.2 34.4604C9.2 34.3536 9.54 33.8908 9.62 33.8908C9.66 33.8908 9.7 34.0332 9.7 34.2023C9.7 34.4782 9.67 34.5138 9.45 34.5138C9.31 34.5138 9.2 34.4871 9.2 34.4604Z" fill="#6B6B6B"/>
<path d="M88.6 31.6927C88.6 31.3546 88.6 31.3546 88.89 31.6216C89.21 31.9241 89.2 32.022 88.84 32.022C88.63 32.022 88.6 31.9864 88.6 31.6927Z" fill="#6B6B6B"/>
<path d="M11.5 31.1321C11.5 31.0876 11.55 31.0431 11.6 31.0431C11.66 31.0431 11.7 30.9986 11.7 30.9452C11.7 30.8473 11.94 30.5982 12.04 30.5982C12.07 30.5982 12.1 30.7406 12.1 30.9096C12.1 31.1944 12.08 31.2211 11.8 31.2211C11.64 31.2211 11.5 31.1855 11.5 31.1321Z" fill="#6B6B6B"/>
<path d="M10.82 29.468C10.56 28.4001 10.56 28.3734 10.77 28.3734C10.93 28.3734 10.99 28.4713 11.08 28.9429C11.24 29.6816 11.23 29.8862 11.06 29.8862C10.97 29.8862 10.88 29.7261 10.82 29.468V29.468Z" fill="#6B6B6B"/>
<path d="M86.5 29.2188C86.5 29.0586 86.45 28.9963 86.3 28.9963C86.13 28.9963 86.1 28.934 86.1 28.6671C86.11 28.3289 86.11 28.3289 86.41 28.6404C86.58 28.8094 86.8 29.0586 86.91 29.201C87.11 29.4413 87.11 29.4413 86.81 29.4413C86.55 29.4413 86.5 29.4057 86.5 29.2188Z" fill="#6B6B6B"/>
<path d="M13.48 28.8183C13.73 28.4268 13.9 28.409 13.9 28.7739C13.9 29.0586 13.88 29.0853 13.6 29.0853C13.31 29.0853 13.31 29.0853 13.48 28.8183Z" fill="#6B6B6B"/>
<path d="M12.8 27.9818C12.8 27.6882 12.82 27.6615 13.11 27.6615C13.41 27.6615 13.41 27.6615 13.2 27.9284C12.89 28.32 12.8 28.3289 12.8 27.9818Z" fill="#6B6B6B"/>
<path d="M14.8 27.3945C15.11 27.0029 15.2 26.994 15.2 27.3411C15.2 27.6348 15.18 27.6615 14.89 27.6615C14.59 27.6615 14.59 27.6615 14.8 27.3945Z" fill="#6B6B6B"/>
<path d="M13.7 26.994C13.7 26.7093 13.72 26.6826 14 26.6826C14.29 26.6826 14.29 26.6826 14.12 26.9495C13.87 27.3411 13.7 27.3589 13.7 26.994Z" fill="#6B6B6B"/>
<path d="M15.7 26.5046C16.01 26.113 16.1 26.1041 16.1 26.4512C16.1 26.7449 16.08 26.7716 15.79 26.7716C15.49 26.7716 15.49 26.7716 15.7 26.5046Z" fill="#6B6B6B"/>
<path d="M10.16 26.4868C10.06 26.1486 10.09 26.0596 10.3 26.0596C10.46 26.0596 10.5 26.1219 10.5 26.3711C10.5 26.7271 10.26 26.8072 10.16 26.4868Z" fill="#6B6B6B"/>
<path d="M14.4 26.291C14.4 25.9973 14.42 25.9706 14.71 25.9706C15.01 25.9706 15.01 25.9706 14.8 26.2376C14.49 26.6292 14.4 26.6381 14.4 26.291Z" fill="#6B6B6B"/>
<path d="M88.8 25.9173C88.8 25.6414 88.83 25.6058 89.03 25.6325C89.17 25.6503 89.23 25.7126 89.21 25.7927C89.19 25.8639 89.17 25.9973 89.16 26.0863C89.16 26.1664 89.08 26.2376 88.98 26.2376C88.84 26.2376 88.8 26.1664 88.8 25.9173V25.9173Z" fill="#6B6B6B"/>
<path d="M16.65 25.6503C17.03 25.3477 17.05 25.3477 17.08 25.5257C17.14 25.8638 17.03 25.9706 16.63 25.9706C16.25 25.9617 16.25 25.9617 16.65 25.6503Z" fill="#6B6B6B"/>
<path d="M84.43 25.4723C84.2 25.232 83.9 24.9739 83.76 24.9027C83.4 24.7337 83.44 24.6358 83.85 24.6358C84.17 24.6358 84.2 24.6536 84.2 24.9027C84.2 25.143 84.23 25.1697 84.5 25.1697C84.84 25.1697 84.93 25.2943 84.88 25.6681C84.85 25.9172 84.85 25.9172 84.43 25.4723Z" fill="#6B6B6B"/>
<path d="M9.83 24.9472C9.8 24.6892 9.83 24.6358 10 24.6358C10.16 24.6358 10.2 24.6981 10.2 24.9472C10.2 25.1875 10.16 25.2587 10.03 25.2587C9.9 25.2587 9.84 25.1786 9.83 24.9472Z" fill="#6B6B6B"/>
<path d="M17.7 24.7515C17.7 24.707 17.86 24.5913 18.05 24.4756C18.4 24.2798 18.4 24.2798 18.4 24.5468C18.4 24.796 18.37 24.8138 18.05 24.8138C17.86 24.8138 17.7 24.7871 17.7 24.7515V24.7515Z" fill="#6B6B6B"/>
<path d="M89.2 24.0573C89.2 23.8082 89.24 23.7459 89.4 23.7459C89.61 23.7459 89.64 23.8349 89.54 24.173C89.44 24.4934 89.2 24.4133 89.2 24.0573Z" fill="#6B6B6B"/>
<path d="M9.46 22.9717C9.27 22.0995 9.27 22.055 9.48 22.055C9.63 22.055 9.69 22.1351 9.74 22.4644C9.77 22.6958 9.8 22.9539 9.8 23.0428C9.8 23.3009 9.52 23.2386 9.46 22.9717V22.9717Z" fill="#6B6B6B"/>
<path d="M79.3 22.8471C79.3 22.5801 79.3 22.5801 79.6 22.767C80.04 23.0428 80.05 23.1229 79.66 23.1229C79.33 23.1229 79.3 23.1051 79.3 22.8471Z" fill="#6B6B6B"/>
<path d="M78.3 22.233C78.3 22.0906 78.35 21.9661 78.4 21.9661C78.46 21.9661 78.5 22.0106 78.5 22.055C78.5 22.1084 78.56 22.144 78.63 22.144C78.7 22.144 78.81 22.2241 78.88 22.322C78.99 22.4911 78.98 22.5 78.65 22.5C78.33 22.5 78.3 22.4822 78.3 22.233Z" fill="#6B6B6B"/>
<path d="M79.84 22.0284C79.72 21.975 79.57 21.8593 79.51 21.7703C79.41 21.6279 79.44 21.6101 79.75 21.6101C80.07 21.6101 80.1 21.6279 80.1 21.8771C80.1 22.0283 80.09 22.1351 80.08 22.1351C80.06 22.1262 79.95 22.0817 79.84 22.0284Z" fill="#6B6B6B"/>
<path d="M9.06 20.7914C8.96 20.4532 8.99 20.3642 9.2 20.3642C9.36 20.3642 9.4 20.4265 9.4 20.6757C9.4 21.0317 9.16 21.1117 9.06 20.7914Z" fill="#6B6B6B"/>
<path d="M24.3 20.649C24.3 20.5778 24.82 20.2752 24.94 20.2752C24.97 20.2752 25 20.3731 25 20.4977C25 20.6935 24.96 20.7202 24.65 20.7202C24.46 20.7202 24.3 20.6846 24.3 20.649Z" fill="#6B6B6B"/>
<path d="M74.7 20.3197C74.7 20.0528 74.73 20.0528 75.11 20.2485C75.49 20.4532 75.48 20.5422 75.05 20.5422C74.74 20.5422 74.7 20.5155 74.7 20.3197Z" fill="#6B6B6B"/>
<path d="M77.08 20.382C76.71 20.1862 76.73 20.0972 77.15 20.0972C77.46 20.0972 77.5 20.1239 77.5 20.3197C77.5 20.5778 77.44 20.5867 77.08 20.382Z" fill="#6B6B6B"/>
<path d="M76.14 19.8748C76.02 19.8036 75.9 19.7769 75.86 19.8036C75.83 19.8303 75.8 19.7947 75.8 19.7146C75.8 19.5989 75.89 19.5633 76.15 19.5633C76.46 19.5633 76.5 19.59 76.5 19.7858C76.5 20.0439 76.43 20.0616 76.14 19.8748Z" fill="#6B6B6B"/>
<path d="M21.74 19.5277C21.71 19.4565 21.7 19.3141 21.72 19.2073C21.75 19.0294 21.77 19.0294 22.15 19.3319C22.55 19.6434 22.55 19.6434 22.17 19.6523C21.93 19.6523 21.77 19.6078 21.74 19.5277Z" fill="#6B6B6B"/>
<path d="M90.2 18.7179C90.2 18.4687 90.24 18.4064 90.4 18.4064C90.61 18.4064 90.64 18.4954 90.54 18.8336C90.44 19.1539 90.2 19.0738 90.2 18.7179Z" fill="#6B6B6B"/>
<path d="M28.6 18.7713C28.6 18.7268 28.71 18.6289 28.85 18.5488C28.99 18.4687 29.1 18.4242 29.1 18.442C29.1 18.4687 29.26 18.4242 29.45 18.353C29.8 18.2284 29.8 18.2284 29.8 18.4509C29.8 18.6289 29.75 18.6734 29.55 18.6734C29.41 18.6734 29.3 18.7179 29.3 18.7624C29.3 18.8158 29.14 18.8514 28.95 18.8514C28.76 18.8514 28.6 18.8158 28.6 18.7713V18.7713Z" fill="#6B6B6B"/>
<path d="M73.1 18.5132C73.1 18.4776 72.97 18.3975 72.8 18.3441C72.39 18.2106 72.42 18.0505 72.85 18.0505C73.17 18.0505 73.2 18.0683 73.2 18.3174C73.2 18.4687 73.18 18.5844 73.15 18.5844C73.12 18.5844 73.1 18.5488 73.1 18.5132Z" fill="#6B6B6B"/>
<path d="M8.66 18.2996C8.56 17.9615 8.59 17.8725 8.8 17.8725C8.96 17.8725 9 17.9348 9 18.1839C9 18.5399 8.76 18.62 8.66 18.2996Z" fill="#6B6B6B"/>
<path d="M27.1 18.1839C27.1 17.9882 27.14 17.9615 27.46 17.9615C27.9 17.9615 27.88 18.1216 27.42 18.2907C27.11 18.4064 27.1 18.3975 27.1 18.1839Z" fill="#6B6B6B"/>
<path d="M21.9 18.0505C21.55 17.7924 21.55 17.7924 21.93 17.7835C22.28 17.7835 22.3 17.8013 22.3 18.0505C22.3 18.2017 22.29 18.3174 22.27 18.3174C22.26 18.3174 22.09 18.2017 21.9 18.0505Z" fill="#6B6B6B"/>
<path d="M30.1 18.2284C30.1 18.1394 30.46 17.9348 30.68 17.9081C30.75 17.8992 30.8 17.9793 30.8 18.1039C30.8 18.2907 30.75 18.3174 30.45 18.3174C30.26 18.3174 30.1 18.2818 30.1 18.2284V18.2284Z" fill="#6B6B6B"/>
<path d="M28 17.828C28 17.6322 28.04 17.6055 28.36 17.6055C28.8 17.6055 28.78 17.7657 28.32 17.9348C28.01 18.0505 28 18.0416 28 17.828Z" fill="#6B6B6B"/>
<path d="M71.23 17.739C70.8 17.5788 70.81 17.4275 71.25 17.4275C71.56 17.4275 71.6 17.4542 71.6 17.65C71.6 17.7746 71.59 17.8725 71.58 17.8725C71.56 17.8636 71.4 17.8102 71.23 17.739Z" fill="#6B6B6B"/>
<path d="M8.56 17.5877C8.46 17.2495 8.49 17.1606 8.7 17.1606C8.86 17.1606 8.9 17.2228 8.9 17.472C8.9 17.828 8.66 17.9081 8.56 17.5877Z" fill="#6B6B6B"/>
<path d="M67.6 17.561C67.6 17.3474 67.61 17.3385 67.92 17.4542C68.38 17.6233 68.4 17.7835 67.96 17.7835C67.64 17.7835 67.6 17.7568 67.6 17.561Z" fill="#6B6B6B"/>
<path d="M19.4 17.3296C19.4 17.0627 19.4 17.0627 19.7 17.2495C20.14 17.5254 20.15 17.6055 19.76 17.6055C19.43 17.6055 19.4 17.5877 19.4 17.3296Z" fill="#6B6B6B"/>
<path d="M78.15 17.3385C78.18 17.294 78.34 17.1694 78.5 17.0716C78.8 16.8847 78.8 16.8847 78.8 17.1517C78.8 17.4097 78.77 17.4275 78.44 17.4275C78.24 17.4275 78.11 17.3919 78.15 17.3385Z" fill="#6B6B6B"/>
<path d="M90.5 16.7601C90.5 16.5109 90.54 16.4486 90.7 16.4486C90.91 16.4486 90.94 16.5376 90.84 16.8758C90.74 17.1961 90.5 17.1161 90.5 16.7601Z" fill="#6B6B6B"/>
<path d="M8.46 16.7868C8.36 16.4486 8.39 16.3596 8.6 16.3596C8.76 16.3596 8.8 16.4219 8.8 16.6711C8.8 17.0271 8.56 17.1072 8.46 16.7868Z" fill="#6B6B6B"/>
<path d="M31.6 16.5732C31.6 16.3863 31.65 16.3596 31.95 16.3596C32.17 16.3596 32.3 16.4041 32.3 16.4753C32.3 16.5465 32.14 16.6355 31.95 16.6889C31.62 16.7868 31.6 16.7779 31.6 16.5732Z" fill="#6B6B6B"/>
<path d="M19.73 16.2439C19.31 15.9948 19.32 15.9147 19.75 15.9147C20.07 15.9147 20.1 15.9325 20.1 16.1816C20.1 16.3329 20.09 16.4486 20.08 16.4397C20.06 16.4397 19.9 16.3507 19.73 16.2439Z" fill="#6B6B6B"/>
<path d="M37.4 16.1995C37.4 16.1105 37.48 16.0393 37.58 16.0393C37.67 16.0304 37.82 16.0126 37.9 15.9948C37.99 15.977 38.06 16.0304 38.08 16.1639C38.11 16.3329 38.07 16.3596 37.76 16.3596C37.48 16.3596 37.4 16.324 37.4 16.1995V16.1995Z" fill="#6B6B6B"/>
<path d="M61.02 15.9859C61.04 15.8524 61.11 15.799 61.2 15.8168C61.28 15.8346 61.43 15.8524 61.53 15.8613C61.62 15.8613 61.7 15.9325 61.7 16.0215C61.7 16.1461 61.62 16.1817 61.34 16.1817C61.03 16.1817 60.99 16.155 61.02 15.9859V15.9859Z" fill="#6B6B6B"/>
<path d="M8.36 15.8969C8.26 15.5587 8.29 15.4697 8.5 15.4697C8.66 15.4697 8.7 15.532 8.7 15.7812C8.7 16.1372 8.46 16.2172 8.36 15.8969Z" fill="#6B6B6B"/>
<path d="M33.2 15.7367C33.2 15.4786 33.2 15.4786 33.5 15.6299C33.94 15.8524 33.96 16.0037 33.55 16.0037C33.23 16.0037 33.2 15.9859 33.2 15.7367Z" fill="#6B6B6B"/>
<path d="M58.93 15.799C58.42 15.7278 58.3 15.6833 58.3 15.5498C58.3 15.3451 58.25 15.3451 59.3 15.5142C59.77 15.5854 60.16 15.6477 60.18 15.6477C60.19 15.6477 60.2 15.71 60.2 15.7812C60.2 15.9325 59.9 15.9414 58.93 15.799Z" fill="#6B6B6B"/>
<path d="M80 15.7634C80 15.7189 80.16 15.6032 80.35 15.4875C80.7 15.2917 80.7 15.2917 80.7 15.5587C80.7 15.8079 80.67 15.8257 80.35 15.8257C80.16 15.8257 80 15.799 80 15.7634Z" fill="#6B6B6B"/>
<path d="M57.5 15.4341C57.5 15.2294 57.52 15.2205 57.85 15.3184C58.04 15.3718 58.2 15.4608 58.2 15.532C58.2 15.6032 58.07 15.6477 57.85 15.6477C57.55 15.6477 57.5 15.621 57.5 15.4341Z" fill="#6B6B6B"/>
<path d="M90.7 15.2472C90.7 14.9981 90.74 14.9358 90.9 14.9358C91.11 14.9358 91.14 15.0248 91.04 15.3629C90.94 15.6833 90.7 15.6032 90.7 15.2472Z" fill="#6B6B6B"/>
<path d="M44.4 15.2561C44.4 15.1405 44.68 15.0248 44.98 15.0248C45.04 15.0248 45.1 15.1049 45.1 15.2028C45.1 15.3451 45.03 15.3807 44.75 15.3807C44.52 15.3807 44.4 15.3362 44.4 15.2561Z" fill="#6B6B6B"/>
<path d="M45.7 15.1672C45.7 15.0515 45.98 14.9358 46.28 14.9358C46.34 14.9358 46.4 15.0159 46.4 15.1138C46.4 15.2561 46.33 15.2917 46.05 15.2917C45.82 15.2917 45.7 15.2472 45.7 15.1672Z" fill="#6B6B6B"/>
<path d="M53.7 15.1138C53.7 14.9269 53.8 14.9002 54.18 14.9892C54.54 15.0782 54.45 15.2917 54.05 15.2917C53.77 15.2917 53.7 15.2561 53.7 15.1138Z" fill="#6B6B6B"/>
<path d="M48 15.0782C48 14.9625 48.28 14.8468 48.58 14.8468C48.64 14.8468 48.7 14.9269 48.7 15.0248C48.7 15.1672 48.63 15.2028 48.35 15.2028C48.12 15.2028 48 15.1583 48 15.0782Z" fill="#6B6B6B"/>
<path d="M51.4 15.0248C51.4 14.8379 51.5 14.8112 51.88 14.9002C52.24 14.9892 52.15 15.2028 51.75 15.2028C51.47 15.2028 51.4 15.1672 51.4 15.0248Z" fill="#6B6B6B"/>
<path d="M8.26 14.74C8.16 14.4018 8.19 14.3128 8.4 14.3128C8.56 14.3128 8.6 14.3751 8.6 14.6243C8.6 14.9803 8.36 15.0604 8.26 14.74Z" fill="#6B6B6B"/>
<path d="M81.25 14.7578C81.28 14.7133 81.44 14.5887 81.6 14.4908C81.9 14.3039 81.9 14.3039 81.9 14.5709C81.9 14.829 81.87 14.8468 81.54 14.8468C81.34 14.8468 81.21 14.8112 81.25 14.7578Z" fill="#6B6B6B"/>
<path d="M80.1 14.3128C80.1 14.0637 80.13 14.0459 80.45 14.0459C80.89 14.0459 80.89 14.126 80.45 14.384C80.1 14.5798 80.1 14.5798 80.1 14.3128Z" fill="#6B6B6B"/>
<path d="M67.65 14.3128C67.68 14.2683 67.84 14.1438 68 14.0459C68.3 13.859 68.3 13.859 68.3 14.126C68.3 14.384 68.27 14.4018 67.94 14.4018C67.74 14.4018 67.61 14.3662 67.65 14.3128Z" fill="#6B6B6B"/>
<path d="M82.35 13.8501C82.38 13.7878 82.54 13.6632 82.7 13.5831C83 13.4318 83 13.4318 83 13.6899C83 13.9391 82.97 13.9569 82.65 13.9569C82.42 13.9569 82.32 13.9213 82.35 13.8501Z" fill="#6B6B6B"/>
<path d="M90.9 13.1115C90.9 12.8623 90.94 12.8 91.1 12.8C91.31 12.8 91.34 12.889 91.24 13.2272C91.14 13.5475 90.9 13.4674 90.9 13.1115Z" fill="#6B6B6B"/>
<path d="M69.05 13.2272C69.08 13.1649 69.24 13.0403 69.4 12.9602C69.7 12.8089 69.7 12.8089 69.7 13.067C69.7 13.3161 69.67 13.3339 69.35 13.3339C69.12 13.3339 69.02 13.2983 69.05 13.2272Z" fill="#6B6B6B"/>
<path d="M29.5 12.9335C29.5 12.7466 29.45 12.711 29.2 12.711C28.95 12.711 28.9 12.6754 28.9 12.4885C28.9 12.3016 28.85 12.2661 28.6 12.2661C28.35 12.2661 28.3 12.2305 28.3 12.0436C28.3 11.8567 28.25 11.8211 28 11.8211C27.75 11.8211 27.7 11.7855 27.7 11.5986C27.7 11.4117 27.65 11.3761 27.4 11.3761C27.15 11.3761 27.1 11.3405 27.1 11.1537C27.1 10.9668 27.05 10.9312 26.8 10.9312C26.53 10.9312 26.5 10.9045 26.5 10.6642C26.5 10.3972 26.5 10.3972 26.77 10.5485C26.92 10.6375 27.14 10.7888 27.25 10.8867C27.65 11.216 28.52 11.8656 28.66 11.9368C28.74 11.9724 28.91 12.097 29.04 12.2038C29.59 12.6576 29.91 12.889 29.99 12.889C30.04 12.889 30.1 12.9513 30.14 13.0225C30.18 13.1293 30.11 13.156 29.85 13.156C29.54 13.156 29.5 13.1293 29.5 12.9335Z" fill="#6B6B6B"/>
<path d="M12.2 11.9635C12.2 11.6431 12.31 11.6342 12.65 11.919C12.95 12.1771 12.95 12.1771 12.58 12.1771C12.24 12.1771 12.2 12.1504 12.2 11.9635Z" fill="#6B6B6B"/>
<path d="M83.3 11.83C83.3 11.5719 83.33 11.5541 83.66 11.5541C84.05 11.5541 84.04 11.6342 83.6 11.9101C83.3 12.097 83.3 12.097 83.3 11.83Z" fill="#6B6B6B"/>
<path d="M85.2 11.7944C85.2 11.7766 85.36 11.6431 85.55 11.4918C85.9 11.216 85.9 11.216 85.9 11.5185C85.9 11.8033 85.88 11.8211 85.55 11.8211C85.36 11.8211 85.2 11.8122 85.2 11.7944Z" fill="#6B6B6B"/>
<path d="M72.05 11.0202C72.08 10.9757 72.24 10.8511 72.4 10.7532C72.7 10.5663 72.7 10.5663 72.7 10.8333C72.7 11.0914 72.67 11.1092 72.34 11.1092C72.14 11.1092 72.01 11.0736 72.05 11.0202Z" fill="#6B6B6B"/>
<path d="M87.8 10.1481C87.8 10.0769 88.32 9.77431 88.44 9.77431C88.47 9.77431 88.5 9.8722 88.5 9.99679C88.5 10.1926 88.46 10.2193 88.15 10.2193C87.96 10.2193 87.8 10.1837 87.8 10.1481Z" fill="#6B6B6B"/>
<path d="M90.7 9.64082C90.7 9.29376 90.84 9.23147 91 9.49844C91.16 9.77431 91.12 9.95229 90.9 9.95229C90.74 9.95229 90.7 9.89 90.7 9.64082Z" fill="#6B6B6B"/>
<path d="M73.7 9.8366C73.7 9.81881 73.86 9.68532 74.05 9.53403C74.4 9.25816 74.4 9.25816 74.4 9.56073C74.4 9.8455 74.38 9.8633 74.05 9.8633C73.86 9.8633 73.7 9.8544 73.7 9.8366Z" fill="#6B6B6B"/>
<path d="M75 8.8755C75.19 8.72422 75.47 8.52844 75.63 8.43055C75.9 8.25257 75.9 8.25257 75.9 8.51954C75.9 8.75092 75.86 8.79541 75.65 8.79541C75.47 8.79541 75.4 8.83991 75.4 8.97339C75.4 9.12468 75.33 9.15138 75.03 9.15138C74.65 9.14248 74.65 9.14248 75 8.8755Z" fill="#6B6B6B"/>
<path d="M91.52 8.79541C91.42 8.64413 91.42 8.61743 91.55 8.61743C91.63 8.61743 91.7 8.69752 91.7 8.79541C91.7 8.8933 91.69 8.97339 91.67 8.97339C91.66 8.97339 91.59 8.8933 91.52 8.79541Z" fill="#6B6B6B"/>
<path d="M88.6 8.64412C88.6 8.36825 88.62 8.35046 88.95 8.35046C89.37 8.35046 89.41 8.49284 89.03 8.64412C88.87 8.69752 88.72 8.78651 88.68 8.83991C88.64 8.8844 88.6 8.79541 88.6 8.64412Z" fill="#6B6B6B"/>
<path d="M7.7 7.97669C7.7 7.70972 7.83 7.46055 7.96 7.46055C8.05 7.46055 8.1 7.56734 8.1 7.77202C8.1 8.02119 8.06 8.08348 7.9 8.08348C7.79 8.08348 7.7 8.03009 7.7 7.97669Z" fill="#6B6B6B"/>
<path d="M22.4 7.69193C22.4 7.38936 22.4 7.38936 22.75 7.66523C22.94 7.81651 23.1 7.95 23.1 7.9678C23.1 7.9856 22.94 7.9945 22.75 7.9945C22.42 7.9945 22.4 7.9767 22.4 7.69193Z" fill="#6B6B6B"/>
<path d="M91.3 7.50504C91.3 7.14908 91.54 7.06899 91.64 7.39825C91.74 7.72752 91.71 7.81651 91.5 7.81651C91.34 7.81651 91.3 7.75422 91.3 7.50504Z" fill="#6B6B6B"/>
<path d="M7.8 6.64183C7.8 6.37486 7.93 6.12569 8.06 6.12569C8.15 6.12569 8.2 6.23248 8.2 6.43715C8.2 6.68633 8.16 6.74862 8 6.74862C7.89 6.74862 7.8 6.69523 7.8 6.64183Z" fill="#6B6B6B"/>
<path d="M20.3 6.29477C20.3 6.0278 20.3 6.0278 20.6 6.21468C21.04 6.49055 21.05 6.57064 20.66 6.57064C20.33 6.57064 20.3 6.55284 20.3 6.29477Z" fill="#6B6B6B"/>
<path d="M79.55 5.76972C79.58 5.72523 79.74 5.60064 79.9 5.50275C80.2 5.31587 80.2 5.31587 80.2 5.58284C80.2 5.84092 80.17 5.85871 79.84 5.85871C79.64 5.85871 79.51 5.82312 79.55 5.76972Z" fill="#6B6B6B"/>
<path d="M19.1 5.49385C19.1 5.22688 19.1 5.22688 19.4 5.41376C19.84 5.68963 19.85 5.76972 19.46 5.76972C19.13 5.76972 19.1 5.75193 19.1 5.49385Z" fill="#6B6B6B"/>
<path d="M8.03 4.83532C8.09 4.66624 8.19 4.52385 8.27 4.52385C8.35 4.52385 8.4 4.63954 8.4 4.83532C8.4 5.10229 8.37 5.14679 8.16 5.14679C7.93 5.14679 7.92 5.12899 8.03 4.83532Z" fill="#6B6B6B"/>
<path d="M17.3 4.33697C17.3 4.07 17.3 4.07 17.6 4.25688C18.04 4.53275 18.05 4.61284 17.66 4.61284C17.33 4.61284 17.3 4.59504 17.3 4.33697Z" fill="#6B6B6B"/>
<path d="M8.28 3.58055C8.18 3.50046 8.44 3.01101 8.57 3.01101C8.65 3.01101 8.7 3.1267 8.7 3.32248C8.7 3.56275 8.66 3.63395 8.52 3.63395C8.42 3.63395 8.31 3.60725 8.28 3.58055Z" fill="#6B6B6B"/>
<path d="M84.5 2.76184C84.5 2.69954 85.52 2.1211 85.64 2.1211C85.67 2.1211 85.7 2.21899 85.7 2.34358C85.7 2.52156 85.65 2.56606 85.45 2.56606C85.29 2.56606 85.2 2.61945 85.2 2.69954C85.2 2.78853 85.09 2.83303 84.85 2.83303C84.66 2.83303 84.5 2.80633 84.5 2.76184Z" fill="#6B6B6B"/>
<path d="M8.6 2.45926C8.6 2.19229 8.73 1.94312 8.86 1.94312C8.95 1.94312 9 2.04991 9 2.25459C9 2.50376 8.96 2.56605 8.8 2.56605C8.69 2.56605 8.6 2.51266 8.6 2.45926Z" fill="#6B6B6B"/>
<path d="M90.4 2.1567C90.4 1.90752 90.44 1.84523 90.57 1.87193C90.67 1.88972 90.75 2.00541 90.77 2.19229C90.81 2.43257 90.78 2.47706 90.61 2.47706C90.44 2.47706 90.4 2.42367 90.4 2.1567V2.1567Z" fill="#6B6B6B"/>
<path d="M90.1 1.36468C90.1 1.00871 90.24 0.964218 90.42 1.25789C90.62 1.57826 90.6 1.67615 90.34 1.67615C90.13 1.67615 90.1 1.63165 90.1 1.36468Z" fill="#6B6B6B"/>
<path d="M9.07 1.1689C9.24 0.732842 9.5 0.670549 9.5 1.05321C9.5 1.27569 9.46 1.32018 9.25 1.32018C9.06 1.32018 9.02 1.28458 9.07 1.1689Z" fill="#6B6B6B"/>
<path d="M10.6 1.05321C10.6 0.85743 10.8 0.821834 11.11 0.964219C11.41 1.1066 11.34 1.23119 10.95 1.23119C10.67 1.23119 10.6 1.1956 10.6 1.05321Z" fill="#6B6B6B"/>
<path d="M89 0.928619C89 0.812931 89.28 0.697243 89.58 0.697243C89.64 0.697243 89.7 0.777334 89.7 0.875224C89.7 1.01761 89.63 1.05321 89.35 1.05321C89.12 1.05321 89 1.00871 89 0.928619Z" fill="#6B6B6B"/>
</svg>
