<svg width="101" height="84" viewBox="0 0 101 84" fill="none" xmlns="http://www.w3.org/2000/svg">
<path d="M50.8 83.5477C50.8 83.4053 50.87 83.3697 51.15 83.3697C51.55 83.3697 51.64 83.5833 51.28 83.6723C50.9 83.7613 50.8 83.7346 50.8 83.5477Z" fill="#A5A5A5"/>
<path d="M51.9 83.4676C51.9 83.3163 51.96 83.2807 52.26 83.2807C52.54 83.2807 52.61 83.3163 52.58 83.432C52.56 83.521 52.43 83.5922 52.22 83.61C51.95 83.6456 51.9 83.6189 51.9 83.4676Z" fill="#A5A5A5"/>
<path d="M45.1 83.0672C44.41 82.8714 44.28 82.6578 44.85 82.6578C45.04 82.6578 45.2 82.7023 45.2 82.7468C45.2 82.8002 45.34 82.8358 45.5 82.8358C45.73 82.8358 45.8 82.8714 45.8 83.0138C45.8 83.2184 45.64 83.2273 45.1 83.0672Z" fill="#A5A5A5"/>
<path d="M42.83 82.1861C42.41 81.937 42.42 81.8569 42.85 81.8569C43.17 81.8569 43.2 81.8747 43.2 82.1238C43.2 82.2751 43.19 82.3908 43.18 82.3819C43.16 82.3819 43 82.2929 42.83 82.1861Z" fill="#A5A5A5"/>
<path d="M40.27 80.1661C39.93 79.8279 39.93 79.8101 40.3 79.8101C40.58 79.8101 40.6 79.8368 40.6 80.1216C40.6 80.2906 40.58 80.433 40.57 80.433C40.55 80.433 40.41 80.3173 40.27 80.1661Z" fill="#A5A5A5"/>
<path d="M38.51 77.6565C38.3 77.2739 38.3 77.2738 38.51 77.2471C38.78 77.2027 38.9 77.3628 38.9 77.7455C38.9 78.1371 38.76 78.1015 38.51 77.6565Z" fill="#A5A5A5"/>
<path d="M37.82 76.2327C37.62 76.0547 37.67 75.7165 37.9 75.7165C38.06 75.7165 38.1 75.7788 38.1 76.028C38.1 76.3572 38.02 76.4106 37.82 76.2327Z" fill="#A5A5A5"/>
<path d="M62.9 71.6674C62.9 71.4183 62.94 71.356 63.1 71.356C63.31 71.356 63.34 71.445 63.24 71.7831C63.14 72.1035 62.9 72.0234 62.9 71.6674Z" fill="#A5A5A5"/>
<path d="M62.9 70.5106C62.9 70.1546 63.14 70.0745 63.24 70.4038C63.34 70.733 63.31 70.822 63.1 70.822C62.94 70.822 62.9 70.7597 62.9 70.5106Z" fill="#A5A5A5"/>
<path d="M62.5 67.6629C62.5 67.3069 62.74 67.2268 62.84 67.5561C62.94 67.8853 62.91 67.9743 62.7 67.9743C62.54 67.9743 62.5 67.912 62.5 67.6629Z" fill="#A5A5A5"/>
<path d="M37.3 67.2179C37.3 67.1467 37.2 67.0132 37.08 66.9064C36.86 66.7284 36.86 66.7284 37.23 66.7284C37.59 66.7284 37.6 66.7373 37.6 67.0399C37.6 67.2535 37.55 67.3514 37.45 67.3514C37.37 67.3514 37.3 67.2891 37.3 67.2179Z" fill="#A5A5A5"/>
<path d="M63.4 66.6483C63.4 66.5327 63.46 66.4615 63.58 66.4615C63.67 66.4615 63.99 66.4348 64.28 66.4081C64.71 66.3547 64.8 66.3725 64.8 66.4882C64.8 66.6217 64.68 66.6661 63.83 66.7729C63.44 66.8263 63.4 66.8174 63.4 66.6483Z" fill="#A5A5A5"/>
<path d="M66.9 66.1945C66.9 66.0521 66.97 66.0165 67.25 66.0165C67.65 66.0165 67.74 66.2301 67.38 66.3191C67 66.4081 66.9 66.3814 66.9 66.1945Z" fill="#A5A5A5"/>
<path d="M30.55 66.0254C30.39 65.883 30.54 65.7495 30.85 65.7495C31.13 65.7495 31.2 65.7851 31.2 65.9275C31.2 66.0699 31.14 66.1055 30.9 66.0877C30.73 66.0788 30.57 66.0521 30.55 66.0254Z" fill="#A5A5A5"/>
<path d="M69.6 65.8563C69.6 65.7228 69.69 65.6694 70.06 65.6249C70.79 65.536 70.92 65.5538 70.88 65.7228C70.86 65.8029 70.76 65.883 70.65 65.8919C69.65 66.0343 69.6 66.0343 69.6 65.8563Z" fill="#A5A5A5"/>
<path d="M71.5 65.5983C71.5 65.4559 71.63 65.4114 72.33 65.3224C73.39 65.1889 73.5 65.1889 73.5 65.3402C73.5 65.4915 73.27 65.5449 71.98 65.705C71.56 65.7495 71.5 65.7406 71.5 65.5983Z" fill="#A5A5A5"/>
<path d="M75.9 64.9575C75.9 64.8062 75.96 64.7706 76.26 64.7706C76.54 64.7706 76.61 64.8062 76.58 64.9219C76.56 65.0109 76.43 65.0821 76.22 65.0999C75.95 65.1355 75.9 65.1088 75.9 64.9575Z" fill="#A5A5A5"/>
<path d="M21.25 64.6905C21.09 64.5482 21.24 64.4147 21.55 64.4147C21.83 64.4147 21.9 64.4503 21.9 64.5927C21.9 64.735 21.84 64.7706 21.6 64.7528C21.43 64.7439 21.27 64.7172 21.25 64.6905Z" fill="#A5A5A5"/>
<path d="M78.8 64.5215C78.8 64.388 78.89 64.3346 79.26 64.2901C79.99 64.2011 80.12 64.2189 80.08 64.388C80.06 64.4681 79.96 64.5482 79.85 64.5571C78.85 64.6994 78.8 64.6994 78.8 64.5215Z" fill="#A5A5A5"/>
<path d="M80.6 64.2634C80.6 64.1121 80.72 64.0765 81.38 63.9875C82.37 63.854 82.5 63.854 82.5 64.0053C82.5 64.1477 82.11 64.2456 81.03 64.3791C80.65 64.4236 80.6 64.4058 80.6 64.2634Z" fill="#A5A5A5"/>
<path d="M86.8 63.2578C86.8 63.1154 86.87 63.0798 87.15 63.0798C87.55 63.0798 87.64 63.2934 87.28 63.3824C86.9 63.4714 86.8 63.4447 86.8 63.2578Z" fill="#A5A5A5"/>
<path d="M88 63.0798C88 62.9374 88.07 62.9018 88.35 62.9018C88.75 62.9018 88.84 63.1154 88.48 63.2044C88.1 63.2934 88 63.2667 88 63.0798Z" fill="#A5A5A5"/>
<path d="M89.6 62.8128C89.6 62.6705 89.67 62.6349 89.95 62.6349C90.35 62.6349 90.44 62.8484 90.08 62.9374C89.7 63.0264 89.6 62.9997 89.6 62.8128Z" fill="#A5A5A5"/>
<path d="M7.48 62.5192C7.26 62.4747 7.1 62.3857 7.1 62.3145C7.1 62.1721 7.25 62.1632 7.94 62.2433C8.3 62.2878 8.4 62.3412 8.4 62.4747C8.4 62.6527 8.17 62.6705 7.48 62.5192Z" fill="#A5A5A5"/>
<path d="M92.3 62.3679C92.3 62.2255 92.37 62.1899 92.65 62.1899C93.05 62.1899 93.14 62.4035 92.78 62.4925C92.4 62.5815 92.3 62.5548 92.3 62.3679Z" fill="#A5A5A5"/>
<path d="M95.5 61.8339C95.5 61.6916 95.57 61.656 95.85 61.656C96.25 61.656 96.34 61.8695 95.98 61.9585C95.6 62.0475 95.5 62.0208 95.5 61.8339Z" fill="#A5A5A5"/>
<path d="M3.58 61.8606C3.25 61.7894 3.38 61.567 3.75 61.567C4.03 61.567 4.1 61.6026 4.1 61.745C4.1 61.9229 3.96 61.9496 3.58 61.8606Z" fill="#A5A5A5"/>
<path d="M97.6 61.4958C97.6 61.3623 97.69 61.3089 98.06 61.2644C98.74 61.1843 98.9 61.1932 98.9 61.3356C98.9 61.4602 98.66 61.5403 97.99 61.6204C97.65 61.6649 97.6 61.6471 97.6 61.4958Z" fill="#A5A5A5"/>
<path d="M0.629998 61.3712C0.169998 61.2822 0.0199991 61.033 0.429999 61.033C1.01 61.033 1.4 61.1487 1.4 61.3089C1.4 61.4958 1.28 61.5047 0.629998 61.3712Z" fill="#A5A5A5"/>
<path d="M99.7 60.3656C99.7 60.0096 99.94 59.9295 100.04 60.2588C100.14 60.5881 100.11 60.6771 99.9 60.6771C99.74 60.6771 99.7 60.6148 99.7 60.3656Z" fill="#A5A5A5"/>
<path d="M1.14441e-05 59.9473C1.14441e-05 59.6804 0.130012 59.4312 0.260012 59.4312C0.350012 59.4312 0.400011 59.538 0.400011 59.7427C0.400011 59.9918 0.360011 60.0541 0.200011 60.0541C0.0900114 60.0541 1.14441e-05 60.0007 1.14441e-05 59.9473Z" fill="#A5A5A5"/>
<path d="M28.9 59.4312C28.9 59.2443 29 59.2176 29.38 59.3066C29.74 59.3956 29.65 59.6092 29.25 59.6092C28.97 59.6092 28.9 59.5736 28.9 59.4312Z" fill="#A5A5A5"/>
<path d="M34 59.3956C34 59.2799 34.28 59.1642 34.58 59.1642C34.64 59.1642 34.7 59.2443 34.7 59.3422C34.7 59.4846 34.63 59.5202 34.35 59.5202C34.12 59.5202 34 59.4757 34 59.3956Z" fill="#A5A5A5"/>
<path d="M99.6 59.1197C99.6 58.7638 99.84 58.6837 99.94 59.0129C100.04 59.3422 100.01 59.4312 99.8 59.4312C99.64 59.4312 99.6 59.3689 99.6 59.1197Z" fill="#A5A5A5"/>
<path d="M25.68 59.2799C25.38 59.2532 25.3 59.2087 25.3 59.0663C25.3 58.8973 25.34 58.8884 25.73 58.9417C26.56 59.0485 26.7 59.093 26.7 59.2176C26.7 59.3422 26.51 59.3511 25.68 59.2799Z" fill="#A5A5A5"/>
<path d="M35.1 59.2176C35.1 59.1019 35.38 58.9862 35.68 58.9862C35.74 58.9862 35.8 59.0663 35.8 59.1642C35.8 59.3066 35.73 59.3422 35.45 59.3422C35.22 59.3422 35.1 59.2977 35.1 59.2176Z" fill="#A5A5A5"/>
<path d="M0.0999985 58.8439C0.0999985 58.657 0.279998 58.3633 0.399998 58.3633C0.459999 58.3633 0.499999 58.5057 0.499999 58.6748C0.499999 58.924 0.459999 58.9862 0.299998 58.9862C0.189998 58.9862 0.0999985 58.924 0.0999985 58.8439Z" fill="#A5A5A5"/>
<path d="M29.58 58.568C29.25 58.4968 29.38 58.2743 29.75 58.2743C30.03 58.2743 30.1 58.3099 30.1 58.4523C30.1 58.6303 29.96 58.657 29.58 58.568Z" fill="#A5A5A5"/>
<path d="M32.3 58.4523C32.3 58.3099 32.37 58.2743 32.65 58.2743C33.05 58.2743 33.14 58.4879 32.78 58.5769C32.4 58.6659 32.3 58.6392 32.3 58.4523Z" fill="#A5A5A5"/>
<path d="M28.2 58.3455C28.2 58.2209 28.28 58.1853 28.55 58.1853C28.83 58.1853 28.9 58.2209 28.9 58.3633C28.9 58.5146 28.84 58.5413 28.55 58.5146C28.29 58.5057 28.2 58.4523 28.2 58.3455Z" fill="#A5A5A5"/>
<path d="M20.08 58.39C19.88 58.3633 19.8 58.301 19.8 58.1764C19.8 57.9806 19.83 57.9717 20.5 58.1052C20.81 58.1675 21 58.2476 21 58.3277C21 58.4523 20.7 58.4701 20.08 58.39Z" fill="#A5A5A5"/>
<path d="M35.8 58.0429C35.8 57.8561 35.85 57.8294 36.15 57.8294C36.39 57.8294 36.5 57.8739 36.5 57.9628C36.5 58.034 36.49 58.0963 36.47 58.0963C36.46 58.0963 36.3 58.1319 36.12 58.1764C35.82 58.2565 35.8 58.2476 35.8 58.0429Z" fill="#A5A5A5"/>
<path d="M36.7 57.7849C36.7 57.5891 36.74 57.5624 37.05 57.5624C37.48 57.5624 37.5 57.687 37.1 57.8739C36.72 58.0518 36.7 58.0429 36.7 57.7849Z" fill="#A5A5A5"/>
<path d="M2.4 57.7938C2.4 57.6781 2.68 57.5624 2.98 57.5624C3.04 57.5624 3.1 57.6425 3.1 57.7404C3.1 57.8827 3.03 57.9183 2.75 57.9183C2.52 57.9183 2.4 57.8738 2.4 57.7938Z" fill="#A5A5A5"/>
<path d="M16.8 57.7404C16.8 57.5535 16.9 57.5268 17.28 57.6158C17.64 57.7048 17.55 57.9184 17.15 57.9184C16.87 57.9184 16.8 57.8828 16.8 57.7404Z" fill="#A5A5A5"/>
<path d="M14.6 57.4734C14.6 57.2865 14.7 57.2598 15.08 57.3488C15.44 57.4378 15.35 57.6514 14.95 57.6514C14.67 57.6514 14.6 57.6158 14.6 57.4734Z" fill="#A5A5A5"/>
<path d="M5.4 57.3488C5.4 57.2331 5.68 57.1174 5.98 57.1174C6.04 57.1174 6.1 57.1975 6.1 57.2954C6.1 57.4378 6.03 57.4734 5.75 57.4734C5.52 57.4734 5.4 57.4289 5.4 57.3488Z" fill="#A5A5A5"/>
<path d="M0.33 57.0729C0.34 56.8416 0.4 56.7615 0.53 56.7615C0.66 56.7615 0.7 56.8327 0.7 57.0729C0.7 57.3221 0.66 57.3844 0.5 57.3844C0.33 57.3844 0.3 57.331 0.33 57.0729Z" fill="#A5A5A5"/>
<path d="M10.8 57.2064C10.8 57.0195 10.96 56.9839 11.38 57.0818C11.77 57.1797 11.65 57.3844 11.2 57.3844C10.87 57.3844 10.8 57.3577 10.8 57.2064Z" fill="#A5A5A5"/>
<path d="M1.8 56.8505C1.8 56.7081 1.87 56.6725 2.15 56.6725C2.55 56.6725 2.64 56.8861 2.28 56.975C1.9 57.064 1.8 57.0373 1.8 56.8505Z" fill="#A5A5A5"/>
<path d="M16.58 56.7882C16.25 56.717 16.38 56.4945 16.75 56.4945C17.03 56.4945 17.1 56.5301 17.1 56.6725C17.1 56.8505 16.96 56.8772 16.58 56.7882Z" fill="#A5A5A5"/>
<path d="M15.78 56.6992C15.45 56.628 15.58 56.4055 15.95 56.4055C16.23 56.4055 16.3 56.4411 16.3 56.5835C16.3 56.7615 16.16 56.7882 15.78 56.6992Z" fill="#A5A5A5"/>
<path d="M39.1 56.45C39.1 56.1563 39.12 56.1385 39.44 56.1385C39.78 56.1385 39.78 56.1385 39.47 56.45C39.3 56.6191 39.15 56.7615 39.13 56.7615C39.11 56.7615 39.1 56.6191 39.1 56.45Z" fill="#A5A5A5"/>
<path d="M13.9 56.3877C13.9 56.2631 13.98 56.2275 14.25 56.2275C14.53 56.2275 14.6 56.2631 14.6 56.4055C14.6 56.5568 14.54 56.5835 14.25 56.5568C13.99 56.5479 13.9 56.4945 13.9 56.3877Z" fill="#A5A5A5"/>
<path d="M40.62 56.272C40.91 55.8805 41 55.8805 41 56.272C41 56.5568 40.98 56.5835 40.7 56.5835C40.4 56.5835 40.4 56.5835 40.62 56.272Z" fill="#A5A5A5"/>
<path d="M13.08 56.4322C12.75 56.361 12.88 56.1385 13.25 56.1385C13.53 56.1385 13.6 56.1741 13.6 56.3165C13.6 56.4945 13.46 56.5212 13.08 56.4322Z" fill="#A5A5A5"/>
<path d="M6.2 56.2275C6.2 56.0851 6.27 56.0495 6.55 56.0495C6.95 56.0495 7.04 56.2631 6.68 56.3521C6.3 56.4411 6.2 56.4144 6.2 56.2275Z" fill="#A5A5A5"/>
<path d="M11.48 56.3432C11.15 56.272 11.28 56.0495 11.65 56.0495C11.93 56.0495 12 56.0851 12 56.2275C12 56.4055 11.86 56.4322 11.48 56.3432Z" fill="#A5A5A5"/>
<path d="M41.8 53.8337C41.8 53.5667 41.91 53.3798 42.06 53.3798C42.15 53.3798 42.2 53.4866 42.2 53.6913C42.2 53.9405 42.16 54.0027 42 54.0027C41.87 54.0027 41.8 53.9405 41.8 53.8337Z" fill="#A5A5A5"/>
<path d="M40.9 52.8014C40.9 52.5522 40.94 52.4899 41.1 52.4899C41.31 52.4899 41.34 52.5789 41.24 52.9171C41.14 53.2374 40.9 53.1573 40.9 52.8014Z" fill="#A5A5A5"/>
<path d="M1.33 51.9115C1.39 51.7424 1.49 51.6 1.57 51.6C1.65 51.6 1.7 51.7157 1.7 51.9115C1.7 52.1784 1.67 52.2229 1.46 52.2229C1.23 52.2229 1.22 52.2051 1.33 51.9115Z" fill="#A5A5A5"/>
<path d="M41.1 51.6445C41.1 51.3953 41.14 51.333 41.3 51.333C41.51 51.333 41.54 51.422 41.44 51.7602C41.34 52.0805 41.1 52.0005 41.1 51.6445Z" fill="#A5A5A5"/>
<path d="M1.58 50.9326C1.82 50.1583 2.12 50.3363 1.94 51.1461C1.89 51.3597 1.82 51.422 1.65 51.422C1.43 51.422 1.43 51.422 1.58 50.9326Z" fill="#A5A5A5"/>
<path d="M41.1 50.4876C41.1 50.2473 41.14 50.1761 41.28 50.1761C41.4 50.1761 41.46 50.2562 41.47 50.4876C41.5 50.7457 41.47 50.7991 41.3 50.7991C41.14 50.7991 41.1 50.7368 41.1 50.4876Z" fill="#A5A5A5"/>
<path d="M42.16 49.7134C42.06 49.3752 42.09 49.2862 42.3 49.2862C42.46 49.2862 42.5 49.3485 42.5 49.5977C42.5 49.9537 42.26 50.0338 42.16 49.7134Z" fill="#A5A5A5"/>
<path d="M2.1 49.2684C2.1 49.0015 2.23 48.7523 2.36 48.7523C2.45 48.7523 2.5 48.8591 2.5 49.0638C2.5 49.3129 2.46 49.3752 2.3 49.3752C2.19 49.3752 2.1 49.3218 2.1 49.2684Z" fill="#A5A5A5"/>
<path d="M40.7 48.8858C40.7 48.4319 40.99 48.512 41.13 49.0015C41.17 49.1616 41.14 49.1972 40.94 49.1972C40.73 49.1972 40.7 49.1527 40.7 48.8858Z" fill="#A5A5A5"/>
<path d="M41.86 48.6722C41.83 48.6366 41.76 48.4942 41.71 48.3607C41.61 48.1471 41.63 48.1293 41.85 48.1293C42.07 48.1293 42.1 48.1649 42.1 48.4408C42.1 48.7345 41.98 48.8502 41.86 48.6722Z" fill="#A5A5A5"/>
<path d="M39.4 46.9191C39.4 46.572 39.49 46.5809 39.8 46.9725C40.01 47.2394 40.01 47.2394 39.71 47.2394C39.42 47.2394 39.4 47.2127 39.4 46.9191Z" fill="#A5A5A5"/>
<path d="M40.78 46.928C40.71 46.8479 40.59 46.7322 40.53 46.661C40.34 46.483 40.37 46.4385 40.7 46.4385C40.98 46.4385 41 46.4652 41 46.75C41 47.0971 40.97 47.1238 40.78 46.928Z" fill="#A5A5A5"/>
<path d="M3.05 46.2872C3.09 46.1983 3.17 45.9847 3.22 45.8156C3.39 45.2816 3.7 45.0859 3.7 45.5041C3.7 45.6999 3.74 45.7266 4.05 45.7266C4.27 45.7266 4.4 45.7711 4.4 45.8423C4.4 45.9135 4.24 46.0025 4.05 46.0559C3.75 46.1449 3.7 46.136 3.69 46.0114C3.69 45.9046 3.66 45.9135 3.6 46.0559C3.52 46.2339 3.22 46.4385 3.05 46.4385C3.01 46.4385 3.01 46.3673 3.05 46.2872Z" fill="#A5A5A5"/>
<path d="M51.8 46.3139C51.8 46.1983 52.08 46.0826 52.38 46.0826C52.44 46.0826 52.5 46.1627 52.5 46.2606C52.5 46.4029 52.43 46.4385 52.15 46.4385C51.92 46.4385 51.8 46.394 51.8 46.3139Z" fill="#A5A5A5"/>
<path d="M6.92 45.7978C6.95 45.7355 7.11 45.6376 7.28 45.5753C7.59 45.4596 7.6 45.4685 7.6 45.6821C7.6 45.8779 7.56 45.9046 7.24 45.9046C7.01 45.9046 6.9 45.869 6.92 45.7978Z" fill="#A5A5A5"/>
<path d="M4.6 45.5931C4.6 45.3973 4.64 45.3706 4.96 45.3706C5.4 45.3706 5.38 45.5308 4.92 45.6999C4.61 45.8156 4.6 45.8067 4.6 45.5931Z" fill="#A5A5A5"/>
<path d="M53.82 45.7088C53.85 45.6465 54.01 45.5486 54.18 45.4863C54.49 45.3706 54.5 45.3795 54.5 45.5931C54.5 45.7889 54.46 45.8156 54.14 45.8156C53.91 45.8156 53.8 45.78 53.82 45.7088Z" fill="#A5A5A5"/>
<path d="M47.48 45.4863C47.15 45.4151 47.28 45.1927 47.65 45.1927C47.93 45.1927 48 45.2283 48 45.3706C48 45.5486 47.86 45.5753 47.48 45.4863Z" fill="#A5A5A5"/>
<path d="M8.12 45.3528C8.15 45.2905 8.31 45.1927 8.48 45.1304C8.79 45.0147 8.8 45.0236 8.8 45.2371C8.8 45.4329 8.76 45.4596 8.44 45.4596C8.21 45.4596 8.1 45.424 8.12 45.3528Z" fill="#A5A5A5"/>
<path d="M43.4 45.2283C43.4 45.0414 43.43 45.0058 43.58 45.0592C43.67 45.0948 43.83 45.1482 43.93 45.166C44.25 45.255 44.12 45.4596 43.75 45.4596C43.44 45.4596 43.4 45.4329 43.4 45.2283Z" fill="#A5A5A5"/>
<path d="M51.6 45.2905C51.6 45.1215 51.94 45.0147 52.46 45.0147C52.87 45.0147 52.73 45.255 52.26 45.3617C51.66 45.4952 51.6 45.4863 51.6 45.2905Z" fill="#A5A5A5"/>
<path d="M54.6 45.3884C54.6 45.3172 55.12 45.0147 55.24 45.0147C55.27 45.0147 55.3 45.1126 55.3 45.2372C55.3 45.4329 55.26 45.4596 54.95 45.4596C54.76 45.4596 54.6 45.424 54.6 45.3884Z" fill="#A5A5A5"/>
<path d="M96.2 45.1482C96.2 44.7032 96.48 44.7655 96.64 45.2639C96.7 45.4329 96.68 45.4596 96.46 45.4596C96.23 45.4596 96.2 45.424 96.2 45.1482Z" fill="#A5A5A5"/>
<path d="M36.6 44.9702C36.6 44.7032 36.76 44.6943 37.08 44.9168C37.38 45.1482 37.36 45.1927 36.95 45.1927C36.64 45.1927 36.6 45.166 36.6 44.9702Z" fill="#A5A5A5"/>
<path d="M3.6 44.9435C3.6 44.8367 3.94 44.5697 4.08 44.5697C4.15 44.5697 4.2 44.6676 4.2 44.7922C4.2 44.9791 4.15 45.0147 3.9 45.0147C3.74 45.0147 3.6 44.9791 3.6 44.9435Z" fill="#A5A5A5"/>
<path d="M44.81 44.7566C44.05 44.4718 43.92 44.3027 44.44 44.3027C44.69 44.3027 44.8 44.3383 44.8 44.4362C44.8 44.5252 44.91 44.5697 45.15 44.5697C45.46 44.5697 45.5 44.5964 45.5 44.7922C45.5 44.9168 45.49 45.0147 45.48 45.0147C45.46 45.0058 45.16 44.899 44.81 44.7566Z" fill="#A5A5A5"/>
<path d="M7.4 44.5252C7.4 44.3294 7.44 44.3027 7.76 44.3027C8.2 44.3027 8.18 44.4629 7.72 44.632C7.41 44.7477 7.4 44.7388 7.4 44.5252Z" fill="#A5A5A5"/>
<path d="M10.22 44.6409C10.25 44.5786 10.41 44.4807 10.58 44.4184C10.89 44.3027 10.9 44.3116 10.9 44.5252C10.9 44.721 10.86 44.7477 10.54 44.7477C10.31 44.7477 10.2 44.7121 10.22 44.6409Z" fill="#A5A5A5"/>
<path d="M4.3 44.5163C4.3 44.4273 4.74 44.1337 4.88 44.1248C4.94 44.1248 5 44.2227 5 44.3472C5 44.543 4.96 44.5697 4.65 44.5697C4.46 44.5697 4.3 44.543 4.3 44.5163Z" fill="#A5A5A5"/>
<path d="M95.8 44.1604C95.8 43.7688 95.98 43.7866 96.17 44.196C96.3 44.4718 96.29 44.4807 96.05 44.4807C95.83 44.4807 95.8 44.4451 95.8 44.1604Z" fill="#A5A5A5"/>
<path d="M11.3 44.3116C11.3 44.2049 11.51 44.0714 11.78 44.0091C11.96 43.9735 12 44.0002 12 44.1782C12 44.365 11.95 44.3917 11.65 44.3917C11.46 44.3917 11.3 44.3561 11.3 44.3116Z" fill="#A5A5A5"/>
<path d="M56.67 44.1248C56.85 43.9735 57.01 43.8578 57.04 43.8578C57.08 43.8578 57.1 43.9824 57.1 44.1248C57.1 44.374 57.08 44.3917 56.73 44.3917C56.35 44.3917 56.35 44.3917 56.67 44.1248Z" fill="#A5A5A5"/>
<path d="M33.8 43.7243C33.8 43.5107 33.81 43.5018 34.12 43.6175C34.58 43.7866 34.6 43.9468 34.16 43.9468C33.84 43.9468 33.8 43.9201 33.8 43.7243Z" fill="#A5A5A5"/>
<path d="M42.43 43.6887C42.12 43.4573 42.14 43.4128 42.55 43.4128C42.86 43.4128 42.9 43.4395 42.9 43.6353C42.9 43.9023 42.74 43.9112 42.43 43.6887Z" fill="#A5A5A5"/>
<path d="M10.5 43.4573C10.5 43.2616 10.54 43.2349 10.86 43.2349C11.3 43.2349 11.28 43.395 10.82 43.5641C10.51 43.6798 10.5 43.6709 10.5 43.4573Z" fill="#A5A5A5"/>
<path d="M13.8 43.5641C13.8 43.484 14.22 43.3417 14.93 43.1637C16.26 42.8344 16.3 42.8255 16.3 43.048C16.3 43.2171 15.96 43.3239 15.44 43.3239C15.31 43.3239 15.2 43.3683 15.2 43.4128C15.2 43.4662 15.04 43.5018 14.85 43.5018C14.66 43.5018 14.5 43.5463 14.5 43.5908C14.5 43.6442 14.34 43.6798 14.15 43.6798C13.93 43.6798 13.8 43.6353 13.8 43.5641Z" fill="#A5A5A5"/>
<path d="M57.5 43.5285C57.5 43.484 57.66 43.3683 57.85 43.2527C58.2 43.0569 58.2 43.0569 58.2 43.3239C58.2 43.573 58.17 43.5908 57.85 43.5908C57.66 43.5908 57.5 43.5641 57.5 43.5285Z" fill="#A5A5A5"/>
<path d="M4.33 43.2171C4.5 42.8344 4.7 42.7899 4.7 43.1281C4.7 43.2883 4.64 43.4128 4.54 43.4484C4.24 43.5463 4.2 43.5018 4.33 43.2171Z" fill="#A5A5A5"/>
<path d="M32.2 43.1993C32.2 43.0213 32.24 42.9946 32.43 43.0302C32.97 43.1548 33.06 43.4128 32.55 43.4128C32.25 43.4128 32.2 43.3861 32.2 43.1993Z" fill="#A5A5A5"/>
<path d="M41.7 43.2438C41.7 43.1993 41.61 43.137 41.51 43.1014C41.4 43.0747 41.29 42.9946 41.26 42.9234C41.22 42.8255 41.29 42.7899 41.55 42.7899C41.87 42.7899 41.9 42.8077 41.9 43.0569C41.9 43.2082 41.86 43.3238 41.8 43.3238C41.75 43.3238 41.7 43.2882 41.7 43.2438Z" fill="#A5A5A5"/>
<path d="M5 42.9234C5 42.7276 5.04 42.7009 5.35 42.7009C5.76 42.7009 5.78 42.7454 5.48 42.9768C5.16 43.1993 5 43.1904 5 42.9234Z" fill="#A5A5A5"/>
<path d="M31.3 42.9679C31.3 42.781 31.4 42.7543 31.78 42.8433C32.14 42.9323 32.05 43.1459 31.65 43.1459C31.37 43.1459 31.3 43.1103 31.3 42.9679Z" fill="#A5A5A5"/>
<path d="M56.8 42.8344C56.8 42.5407 56.82 42.5229 57.15 42.5229C57.34 42.5229 57.5 42.5674 57.5 42.6119C57.5 42.6653 57.46 42.7009 57.41 42.7009C57.37 42.7009 57.21 42.7988 57.06 42.9234C56.8 43.137 56.8 43.137 56.8 42.8344Z" fill="#A5A5A5"/>
<path d="M94.8 42.9234C94.8 42.7098 94.81 42.7009 95.12 42.8166C95.58 42.9857 95.6 43.1459 95.16 43.1459C94.84 43.1459 94.8 43.1192 94.8 42.9234Z" fill="#A5A5A5"/>
<path d="M39.3 42.781C39.3 42.514 39.3 42.514 39.6 42.7009C40.04 42.9768 40.05 43.0569 39.66 43.0569C39.33 43.0569 39.3 43.0391 39.3 42.781Z" fill="#A5A5A5"/>
<path d="M12.9 42.7009C12.9 42.5585 12.97 42.5229 13.25 42.5229C13.62 42.5229 13.74 42.7187 13.44 42.8255C13.12 42.9323 12.9 42.8789 12.9 42.7009Z" fill="#A5A5A5"/>
<path d="M17.7 42.6653C17.7 42.5496 17.98 42.4339 18.28 42.4339C18.34 42.4339 18.4 42.514 18.4 42.6119C18.4 42.7543 18.33 42.7899 18.05 42.7899C17.82 42.7899 17.7 42.7454 17.7 42.6653Z" fill="#A5A5A5"/>
<path d="M93.9 42.6564C93.9 42.5674 93.79 42.5229 93.55 42.5229C93.24 42.5229 93.2 42.4962 93.2 42.3005C93.2 42.1136 93.23 42.0958 93.43 42.1581C94.62 42.5763 94.9 42.7899 94.25 42.7899C94.01 42.7899 93.9 42.7454 93.9 42.6564Z" fill="#A5A5A5"/>
<path d="M6.1 42.4339C6.1 42.1848 6.13 42.167 6.45 42.167C6.89 42.167 6.89 42.2471 6.45 42.5051C6.1 42.7009 6.1 42.7009 6.1 42.4339Z" fill="#A5A5A5"/>
<path d="M33.45 42.6386C32.93 42.5229 32.86 42.256 33.35 42.256C33.66 42.256 33.7 42.2827 33.7 42.4784C33.7 42.603 33.69 42.692 33.68 42.692C33.66 42.6831 33.56 42.6564 33.45 42.6386Z" fill="#A5A5A5"/>
<path d="M19.32 42.3717C19.34 42.2827 19.47 42.2115 19.68 42.1937C19.95 42.1581 20 42.1848 20 42.3361C20 42.4873 19.94 42.5229 19.64 42.5229C19.36 42.5229 19.29 42.4873 19.32 42.3717Z" fill="#A5A5A5"/>
<path d="M28.7 42.345C28.7 42.1581 28.8 42.1314 29.18 42.2204C29.54 42.3094 29.45 42.5229 29.05 42.5229C28.77 42.5229 28.7 42.4873 28.7 42.345Z" fill="#A5A5A5"/>
<path d="M20.7 42.2204C20.7 42.1047 20.98 41.989 21.28 41.989C21.34 41.989 21.4 42.0691 21.4 42.167C21.4 42.3094 21.33 42.345 21.05 42.345C20.82 42.345 20.7 42.3005 20.7 42.2204Z" fill="#A5A5A5"/>
<path d="M27.6 42.167C27.6 41.9801 27.7 41.9534 28.08 42.0424C28.44 42.1314 28.35 42.345 27.95 42.345C27.67 42.345 27.6 42.3094 27.6 42.167Z" fill="#A5A5A5"/>
<path d="M92.4 42.0424C92.4 41.8644 92.44 41.8377 92.63 41.8733C93.17 41.9979 93.26 42.256 92.75 42.256C92.45 42.256 92.4 42.2293 92.4 42.0424Z" fill="#A5A5A5"/>
<path d="M31.68 42.1047C31.35 42.0335 31.48 41.811 31.85 41.811C32.13 41.811 32.2 41.8466 32.2 41.989C32.2 42.167 32.06 42.1937 31.68 42.1047Z" fill="#A5A5A5"/>
<path d="M9.5 41.9623C9.5 41.8911 9.66 41.8021 9.85 41.7487C10.18 41.6508 10.2 41.6597 10.2 41.8644C10.2 42.0513 10.15 42.078 9.85 42.078C9.63 42.078 9.5 42.0335 9.5 41.9623Z" fill="#A5A5A5"/>
<path d="M5.06 41.6597C5.15 41.4728 5.27 41.1881 5.33 41.0368C5.47 40.6363 5.7 40.6541 5.7 41.0546C5.7 41.2682 5.65 41.3661 5.55 41.3661C5.45 41.3661 5.4 41.4639 5.4 41.6775C5.4 41.9534 5.37 41.989 5.15 41.989C4.9 41.989 4.9 41.989 5.06 41.6597Z" fill="#A5A5A5"/>
<path d="M7.4 41.7665C7.4 41.5707 7.44 41.544 7.75 41.544C8.18 41.544 8.19 41.633 7.81 41.8377C7.43 42.0335 7.4 42.0335 7.4 41.7665Z" fill="#A5A5A5"/>
<path d="M16.5 41.811C16.5 41.6686 16.57 41.633 16.85 41.633C17.25 41.633 17.34 41.8466 16.98 41.9356C16.6 42.0246 16.5 41.9979 16.5 41.811Z" fill="#A5A5A5"/>
<path d="M91 41.722C91 41.6775 90.87 41.633 90.7 41.633C90.46 41.633 90.4 41.5974 90.4 41.4461C90.4 41.2771 90.44 41.2593 90.75 41.3038C91.54 41.4194 92.01 41.811 91.36 41.811C91.16 41.811 91 41.7754 91 41.722Z" fill="#A5A5A5"/>
<path d="M8.2 41.4105C8.2 41.2148 8.24 41.1881 8.56 41.1881C9 41.1881 8.98 41.3482 8.52 41.5173C8.21 41.633 8.2 41.6241 8.2 41.4105Z" fill="#A5A5A5"/>
<path d="M10.62 41.5262C10.65 41.4639 10.81 41.3661 10.98 41.3038C11.29 41.1881 11.3 41.197 11.3 41.4105C11.3 41.6063 11.26 41.633 10.94 41.633C10.71 41.633 10.6 41.5974 10.62 41.5262Z" fill="#A5A5A5"/>
<path d="M93.73 41.4995C93.3 41.3393 93.31 41.1881 93.75 41.1881C94.06 41.1881 94.1 41.2148 94.1 41.4105C94.1 41.5351 94.09 41.633 94.08 41.633C94.06 41.6241 93.9 41.5707 93.73 41.4995Z" fill="#A5A5A5"/>
<path d="M59.3 41.2771C59.3 41.0279 59.33 41.0101 59.65 41.0101C60.09 41.0101 60.09 41.0902 59.65 41.3483C59.3 41.544 59.3 41.544 59.3 41.2771Z" fill="#A5A5A5"/>
<path d="M19.6 41.2771C19.6 41.1347 19.67 41.0991 19.95 41.0991C20.35 41.0991 20.44 41.3127 20.08 41.4016C19.7 41.4906 19.6 41.4639 19.6 41.2771Z" fill="#A5A5A5"/>
<path d="M62.02 41.2593C62.05 41.197 62.21 41.0991 62.38 41.0368C62.69 40.9211 62.7 40.93 62.7 41.1436C62.7 41.3394 62.66 41.3661 62.34 41.3661C62.11 41.3661 62 41.3305 62.02 41.2593Z" fill="#A5A5A5"/>
<path d="M9 41.0635C9 40.8588 9.04 40.8321 9.35 40.8321C9.72 40.8321 9.85 41.0368 9.53 41.1258C9.43 41.1436 9.27 41.197 9.18 41.2326C9.03 41.286 9 41.2504 9 41.0635Z" fill="#A5A5A5"/>
<path d="M22.3 41.0101C22.3 40.8677 22.37 40.8321 22.65 40.8321C23.05 40.8321 23.14 41.0457 22.78 41.1347C22.4 41.2237 22.3 41.197 22.3 41.0101Z" fill="#A5A5A5"/>
<path d="M37.93 40.841C37.62 40.6096 37.64 40.5651 38.05 40.5651C38.36 40.5651 38.4 40.5918 38.4 40.7876C38.4 41.0546 38.24 41.0635 37.93 40.841Z" fill="#A5A5A5"/>
<path d="M91.8 40.8944C91.42 40.7164 91.44 40.5651 91.84 40.5651C92.13 40.5651 92.2 40.6007 92.2 40.7342C92.2 40.9745 92.08 41.019 91.8 40.8944Z" fill="#A5A5A5"/>
<path d="M87.6 40.7431C87.6 40.5562 87.7 40.5295 88.08 40.6185C88.44 40.7075 88.35 40.9211 87.95 40.9211C87.67 40.9211 87.6 40.8855 87.6 40.7431Z" fill="#A5A5A5"/>
<path d="M10.1 40.6007C10.1 40.4139 10.15 40.3872 10.45 40.3872C10.67 40.3872 10.8 40.4317 10.8 40.5028C10.8 40.574 10.64 40.663 10.45 40.7164C10.12 40.8143 10.1 40.8054 10.1 40.6007Z" fill="#A5A5A5"/>
<path d="M11 40.2537C11 40.0757 11.05 40.0312 11.25 40.0312C11.39 40.0312 11.5 39.9956 11.5 39.9422C11.5 39.8977 11.61 39.8532 11.75 39.8532C11.89 39.8532 12 39.8176 12 39.7642C12 39.7197 12.16 39.6752 12.35 39.6752C12.8 39.6752 12.8 39.8265 12.35 39.9956C11 40.4939 11 40.4939 11 40.2537Z" fill="#A5A5A5"/>
<path d="M62.3 40.0846C62.3 39.9244 62.39 39.8621 62.83 39.7375C63.47 39.5595 63.9 39.5417 63.9 39.7019C63.9 39.8176 63.58 39.9422 62.73 40.1736C62.31 40.2893 62.3 40.2804 62.3 40.0846Z" fill="#A5A5A5"/>
<path d="M67.3 39.9956C67.3 39.8799 67.58 39.7642 67.88 39.7642C67.94 39.7642 68 39.8443 68 39.9422C68 40.0846 67.93 40.1202 67.65 40.1202C67.42 40.1202 67.3 40.0757 67.3 39.9956Z" fill="#A5A5A5"/>
<path d="M82.4 39.8532C82.4 39.6663 82.5 39.6396 82.88 39.7286C83.24 39.8176 83.15 40.0312 82.75 40.0312C82.47 40.0312 82.4 39.9956 82.4 39.8532Z" fill="#A5A5A5"/>
<path d="M93.66 39.8888C93.57 39.6663 93.59 39.2303 93.7 39.2303C93.8 39.2303 93.94 39.4261 94.1 39.7998C94.19 40.0045 94.17 40.0312 93.96 40.0312C93.83 40.0312 93.69 39.9689 93.66 39.8888Z" fill="#A5A5A5"/>
<path d="M68.5 39.8176C68.5 39.7019 68.78 39.5862 69.08 39.5862C69.14 39.5862 69.2 39.6663 69.2 39.7642C69.2 39.9066 69.13 39.9422 68.85 39.9422C68.62 39.9422 68.5 39.8977 68.5 39.8176Z" fill="#A5A5A5"/>
<path d="M32.3 39.5862C32.3 39.3994 32.4 39.3727 32.78 39.4617C33.14 39.5506 33.05 39.7642 32.65 39.7642C32.37 39.7642 32.3 39.7286 32.3 39.5862Z" fill="#A5A5A5"/>
<path d="M70.2 39.6396C70.2 39.524 70.48 39.4083 70.78 39.4083C70.84 39.4083 70.9 39.4884 70.9 39.5862C70.9 39.7286 70.83 39.7642 70.55 39.7642C70.32 39.7642 70.2 39.7197 70.2 39.6396Z" fill="#A5A5A5"/>
<path d="M87.18 39.7019C86.85 39.6307 86.98 39.4083 87.35 39.4083C87.63 39.4083 87.7 39.4439 87.7 39.5862C87.7 39.7642 87.56 39.7909 87.18 39.7019Z" fill="#A5A5A5"/>
<path d="M71.4 39.5506C71.4 39.4349 71.68 39.3193 71.98 39.3193C72.04 39.3193 72.1 39.3994 72.1 39.4972C72.1 39.6396 72.03 39.6752 71.75 39.6752C71.52 39.6752 71.4 39.6307 71.4 39.5506Z" fill="#A5A5A5"/>
<path d="M17.2 39.4616C17.2 39.346 17.48 39.2303 17.78 39.2303C17.84 39.2303 17.9 39.3104 17.9 39.4083C17.9 39.5506 17.83 39.5862 17.55 39.5862C17.32 39.5862 17.2 39.5417 17.2 39.4616Z" fill="#A5A5A5"/>
<path d="M73.3 39.4616C73.3 39.346 73.58 39.2303 73.88 39.2303C73.94 39.2303 74 39.3104 74 39.4083C74 39.5506 73.93 39.5862 73.65 39.5862C73.42 39.5862 73.3 39.5417 73.3 39.4616Z" fill="#A5A5A5"/>
<path d="M76.5 39.4083C76.5 39.2214 76.6 39.1947 76.98 39.2837C77.34 39.3727 77.25 39.5862 76.85 39.5862C76.57 39.5862 76.5 39.5506 76.5 39.4083Z" fill="#A5A5A5"/>
<path d="M30.73 39.346C30.57 39.3193 30.5 39.2481 30.5 39.1057C30.5 38.901 30.5 38.901 31.05 39.0345C31.94 39.257 31.67 39.5061 30.73 39.346Z" fill="#A5A5A5"/>
<path d="M67 38.9633C67 38.8209 67.07 38.7853 67.35 38.7853C67.75 38.7853 67.84 38.9989 67.48 39.0879C67.1 39.1769 67 39.1502 67 38.9633Z" fill="#A5A5A5"/>
<path d="M28.5 38.7764C28.5 38.6251 28.55 38.5984 28.82 38.634C29.03 38.6518 29.16 38.723 29.18 38.812C29.21 38.9277 29.14 38.9633 28.86 38.9633C28.56 38.9633 28.5 38.9277 28.5 38.7764Z" fill="#A5A5A5"/>
<path d="M82.18 38.901C81.85 38.8298 81.98 38.6073 82.35 38.6073C82.63 38.6073 82.7 38.6429 82.7 38.7853C82.7 38.9633 82.56 38.99 82.18 38.901Z" fill="#A5A5A5"/>
<path d="M27.7 38.6963C27.7 38.5094 27.8 38.4827 28.18 38.5717C28.54 38.6607 28.45 38.8743 28.05 38.8743C27.77 38.8743 27.7 38.8387 27.7 38.6963Z" fill="#A5A5A5"/>
<path d="M69.1 38.6963C69.1 38.5539 69.17 38.5183 69.45 38.5183C69.85 38.5183 69.94 38.7319 69.58 38.8209C69.2 38.9099 69.1 38.8832 69.1 38.6963Z" fill="#A5A5A5"/>
<path d="M16.2 38.6073C16.2 38.4649 16.27 38.4294 16.55 38.4294C16.95 38.4294 17.04 38.6429 16.68 38.7319C16.3 38.8209 16.2 38.7942 16.2 38.6073Z" fill="#A5A5A5"/>
<path d="M22.7 38.6607C22.7 38.545 22.98 38.4294 23.28 38.4294C23.34 38.4294 23.4 38.5094 23.4 38.6073C23.4 38.7497 23.33 38.7853 23.05 38.7853C22.82 38.7853 22.7 38.7408 22.7 38.6607Z" fill="#A5A5A5"/>
<path d="M70.9 38.5183C70.9 38.376 70.97 38.3404 71.25 38.3404C71.65 38.3404 71.74 38.5539 71.38 38.6429C71 38.7319 70.9 38.7052 70.9 38.5183Z" fill="#A5A5A5"/>
<path d="M72.4 38.4294C72.4 38.287 72.47 38.2514 72.75 38.2514C73.15 38.2514 73.24 38.465 72.88 38.5539C72.5 38.6429 72.4 38.6162 72.4 38.4294Z" fill="#A5A5A5"/>
<path d="M77.58 38.545C77.25 38.4738 77.38 38.2514 77.75 38.2514C78.03 38.2514 78.1 38.287 78.1 38.4294C78.1 38.6073 77.96 38.634 77.58 38.545Z" fill="#A5A5A5"/>
<path d="M19.2 37.9933C19.2 37.842 19.26 37.8064 19.56 37.8064C19.84 37.8064 19.91 37.842 19.88 37.9577C19.86 38.0467 19.73 38.1179 19.52 38.1357C19.25 38.1713 19.2 38.1446 19.2 37.9933Z" fill="#A5A5A5"/>
<path d="M25.48 37.6551C25.12 37.575 25.28 37.3615 25.7 37.3615C26.03 37.3615 26.1 37.3882 26.1 37.5394C26.1 37.7174 25.9 37.753 25.48 37.6551Z" fill="#A5A5A5"/>
<path d="M8.7 35.1723C8.7 35.0655 9.04 34.6028 9.12 34.6028C9.16 34.6028 9.2 34.7451 9.2 34.9142C9.2 35.1901 9.17 35.2257 8.95 35.2257C8.81 35.2257 8.7 35.199 8.7 35.1723Z" fill="#A5A5A5"/>
<path d="M90.7 34.6472C90.7 34.2646 90.8 34.2557 91.03 34.5939C91.25 34.932 91.25 34.9587 90.95 34.9587C90.73 34.9587 90.7 34.9231 90.7 34.6472Z" fill="#A5A5A5"/>
<path d="M9.6 33.784C9.61 33.6594 9.94 33.2679 10.04 33.2679C10.07 33.2679 10.1 33.4103 10.1 33.5794C10.1 33.8552 10.07 33.8908 9.85 33.8908C9.71 33.8908 9.6 33.8374 9.6 33.784Z" fill="#A5A5A5"/>
<path d="M10.1 33.1255C10.1 33.0187 10.44 32.556 10.52 32.556C10.56 32.556 10.6 32.6983 10.6 32.8674C10.6 33.1433 10.57 33.1789 10.35 33.1789C10.21 33.1789 10.1 33.1522 10.1 33.1255Z" fill="#A5A5A5"/>
<path d="M11.7 30.9274C11.7 30.8562 11.81 30.7138 11.95 30.5982C12.2 30.3935 12.2 30.3935 12.2 30.7138C12.2 31.0075 12.17 31.0431 11.95 31.0431C11.81 31.0431 11.7 30.9897 11.7 30.9274Z" fill="#A5A5A5"/>
<path d="M85.8 28.3289C85.8 27.9373 85.89 27.9373 86.18 28.3289C86.4 28.6404 86.4 28.6404 86.1 28.6404C85.82 28.6404 85.8 28.6137 85.8 28.3289Z" fill="#A5A5A5"/>
<path d="M87.18 28.2844C86.9 27.9729 86.9 27.9729 87.16 27.9462C87.49 27.9106 87.52 27.9373 87.48 28.2933C87.45 28.5959 87.45 28.5959 87.18 28.2844Z" fill="#A5A5A5"/>
<path d="M10.41 27.7505C10.27 27.1542 10.27 27.1275 10.49 27.1275C10.67 27.1275 10.8 27.4746 10.8 27.9996C10.8 28.3912 10.52 28.2043 10.41 27.7505Z" fill="#A5A5A5"/>
<path d="M86.13 27.172C85.82 26.8605 85.82 26.8605 86.16 26.8605C86.48 26.8605 86.5 26.8783 86.5 27.172C86.5 27.3411 86.49 27.4835 86.47 27.4835C86.45 27.4835 86.3 27.3411 86.13 27.172Z" fill="#A5A5A5"/>
<path d="M83.8 26.3266C83.8 26.0863 83.82 26.0685 83.99 26.1575C84.09 26.2198 84.22 26.3355 84.29 26.4245C84.39 26.5758 84.37 26.5936 84.1 26.5936C83.83 26.5936 83.8 26.5669 83.8 26.3266Z" fill="#A5A5A5"/>
<path d="M10.06 26.1308C9.96 25.7927 9.99 25.7037 10.2 25.7037C10.36 25.7037 10.4 25.766 10.4 26.0151C10.4 26.3711 10.16 26.4512 10.06 26.1308Z" fill="#A5A5A5"/>
<path d="M16.75 25.5257C16.78 25.4812 16.94 25.3566 17.1 25.2587C17.4 25.0718 17.4 25.0718 17.4 25.3388C17.4 25.5969 17.37 25.6147 17.04 25.6147C16.84 25.6147 16.71 25.5791 16.75 25.5257Z" fill="#A5A5A5"/>
<path d="M89 25.1252C89 24.8761 89.04 24.8138 89.2 24.8138C89.41 24.8138 89.44 24.9028 89.34 25.2409C89.24 25.5613 89 25.4812 89 25.1252Z" fill="#A5A5A5"/>
<path d="M16.1 24.7337C16.1 24.4756 16.13 24.4578 16.46 24.4578C16.85 24.4578 16.84 24.5379 16.4 24.8138C16.1 25.0006 16.1 25.0006 16.1 24.7337Z" fill="#A5A5A5"/>
<path d="M9.76 24.707C9.66 24.3688 9.69 24.2798 9.9 24.2798C10.06 24.2798 10.1 24.3421 10.1 24.5913C10.1 24.9472 9.86 25.0273 9.76 24.707Z" fill="#A5A5A5"/>
<path d="M81.8 24.6269C81.8 24.3599 81.8 24.3599 82.1 24.5468C82.54 24.8227 82.55 24.9027 82.16 24.9027C81.83 24.9027 81.8 24.885 81.8 24.6269Z" fill="#A5A5A5"/>
<path d="M17.9 24.6091C17.9 24.5913 18.06 24.4578 18.25 24.3065C18.6 24.0306 18.6 24.0306 18.6 24.3332C18.6 24.618 18.58 24.6358 18.25 24.6358C18.06 24.6358 17.9 24.6269 17.9 24.6091Z" fill="#A5A5A5"/>
<path d="M89.3 23.7014C89.3 23.4522 89.34 23.3899 89.5 23.3899C89.71 23.3899 89.74 23.4789 89.64 23.8171C89.54 24.1374 89.3 24.0573 89.3 23.7014Z" fill="#A5A5A5"/>
<path d="M80.5 23.6569C80.5 23.5145 80.55 23.3899 80.6 23.3899C80.66 23.3899 80.7 23.4255 80.7 23.4611C80.7 23.5056 80.81 23.5946 80.95 23.6569C81.3 23.826 81.26 23.9239 80.85 23.9239C80.53 23.9239 80.5 23.9061 80.5 23.6569Z" fill="#A5A5A5"/>
<path d="M18.8 22.6869C18.8 22.4288 18.83 22.411 19.16 22.411C19.55 22.411 19.54 22.4911 19.1 22.767C18.8 22.9539 18.8 22.9539 18.8 22.6869Z" fill="#A5A5A5"/>
<path d="M20.65 22.6602C20.68 22.5979 20.84 22.4733 21 22.3932C21.3 22.2419 21.3 22.2419 21.3 22.5C21.3 22.7492 21.27 22.767 20.95 22.767C20.72 22.767 20.62 22.7314 20.65 22.6602Z" fill="#A5A5A5"/>
<path d="M89.6 22.3309C89.6 22.2419 89.63 21.9838 89.66 21.7525C89.71 21.4232 89.77 21.3431 89.92 21.3431C90.09 21.3431 90.11 21.3876 90.06 21.6902C89.97 22.2864 89.88 22.5 89.74 22.5C89.66 22.5 89.6 22.4288 89.6 22.3309Z" fill="#A5A5A5"/>
<path d="M77.9 21.9661C77.9 21.708 77.9 21.708 78.2 21.8593C78.64 22.0817 78.66 22.233 78.25 22.233C77.93 22.233 77.9 22.2152 77.9 21.9661Z" fill="#A5A5A5"/>
<path d="M20 21.8771C20 21.6279 20.03 21.6101 20.35 21.6101C20.76 21.6101 20.74 21.7614 20.3 21.9839C20 22.1351 20 22.1351 20 21.8771Z" fill="#A5A5A5"/>
<path d="M23.2 21.2007C23.2 21.1117 23.64 20.8181 23.78 20.8092C23.84 20.8092 23.9 20.9071 23.9 21.0317C23.9 21.2274 23.86 21.2541 23.55 21.2541C23.36 21.2541 23.2 21.2274 23.2 21.2007Z" fill="#A5A5A5"/>
<path d="M9.06 20.9249C8.87 20.0261 8.87 19.9193 9.09 19.9193C9.22 19.9193 9.3 19.9727 9.3 20.0794C9.3 20.1595 9.33 20.4443 9.36 20.7024C9.42 21.085 9.4 21.1651 9.27 21.1651C9.18 21.1651 9.09 21.0583 9.06 20.9249Z" fill="#A5A5A5"/>
<path d="M77.63 20.7291C77.32 20.4977 77.34 20.4532 77.75 20.4532C78.06 20.4532 78.1 20.4799 78.1 20.6757C78.1 20.9427 77.94 20.9516 77.63 20.7291Z" fill="#A5A5A5"/>
<path d="M89.9 20.5956C89.9 20.3286 89.94 20.2752 90.11 20.2752C90.28 20.2752 90.31 20.3197 90.27 20.56C90.25 20.7469 90.17 20.8626 90.07 20.8804C89.94 20.9071 89.9 20.8448 89.9 20.5956Z" fill="#A5A5A5"/>
<path d="M25 20.293C25 20.2218 25.52 19.9193 25.64 19.9193C25.67 19.9193 25.7 20.0172 25.7 20.1417C25.7 20.3375 25.66 20.3642 25.35 20.3642C25.16 20.3642 25 20.3286 25 20.293Z" fill="#A5A5A5"/>
<path d="M76.33 20.0172C76.02 19.7858 76.04 19.7413 76.45 19.7413C76.76 19.7413 76.8 19.768 76.8 19.9638C76.8 20.2307 76.64 20.2396 76.33 20.0172Z" fill="#A5A5A5"/>
<path d="M73.8 19.8748C73.8 19.6078 73.83 19.6078 74.21 19.8036C74.59 20.0083 74.58 20.0972 74.15 20.0972C73.84 20.0972 73.8 20.0706 73.8 19.8748Z" fill="#A5A5A5"/>
<path d="M72.6 19.3408C72.6 19.1273 72.61 19.1184 72.92 19.234C73.38 19.4031 73.4 19.5633 72.96 19.5633C72.64 19.5633 72.6 19.5366 72.6 19.3408Z" fill="#A5A5A5"/>
<path d="M25.1 19.1183C25.1 18.8692 25.13 18.8514 25.45 18.8514C25.89 18.8514 25.89 18.9315 25.45 19.1895C25.1 19.3853 25.1 19.3853 25.1 19.1183Z" fill="#A5A5A5"/>
<path d="M27.22 19.2785C27.25 19.2162 27.41 19.1183 27.58 19.0561C27.89 18.9404 27.9 18.9493 27.9 19.1628C27.9 19.3586 27.86 19.3853 27.54 19.3853C27.31 19.3853 27.2 19.3497 27.22 19.2785Z" fill="#A5A5A5"/>
<path d="M74.46 19.1272C74.43 19.0828 74.2 18.9671 73.95 18.8603C73.41 18.6378 73.37 18.4954 73.85 18.4954C74.04 18.4954 74.2 18.5399 74.2 18.5844C74.2 18.6378 74.29 18.6734 74.4 18.6734C74.56 18.6734 74.6 18.7357 74.6 18.9404C74.6 19.2073 74.56 19.2696 74.46 19.1272Z" fill="#A5A5A5"/>
<path d="M28.3 18.8247C28.3 18.7535 28.46 18.6645 28.65 18.6111C28.98 18.5132 29 18.5221 29 18.7268C29 18.9137 28.95 18.9404 28.65 18.9404C28.43 18.9404 28.3 18.8959 28.3 18.8247Z" fill="#A5A5A5"/>
<path d="M20.8 18.4865C20.8 18.2195 20.8 18.2195 21.1 18.4064C21.54 18.6823 21.55 18.7624 21.16 18.7624C20.83 18.7624 20.8 18.7446 20.8 18.4865Z" fill="#A5A5A5"/>
<path d="M26.3 18.5399C26.3 18.3441 26.34 18.3174 26.66 18.3174C27.1 18.3174 27.08 18.4776 26.62 18.6467C26.31 18.7624 26.3 18.7535 26.3 18.5399Z" fill="#A5A5A5"/>
<path d="M8.66 18.4776C8.56 18.1394 8.59 18.0505 8.8 18.0505C8.96 18.0505 9 18.1128 9 18.3619C9 18.7179 8.76 18.798 8.66 18.4776Z" fill="#A5A5A5"/>
<path d="M90.3 18.2729C90.3 18.0238 90.34 17.9615 90.5 17.9615C90.71 17.9615 90.74 18.0505 90.64 18.3886C90.54 18.709 90.3 18.6289 90.3 18.2729Z" fill="#A5A5A5"/>
<path d="M72.33 18.1839C71.9 18.0238 71.91 17.8725 72.35 17.8725C72.66 17.8725 72.7 17.8992 72.7 18.095C72.7 18.2195 72.69 18.3174 72.68 18.3174C72.66 18.3085 72.5 18.2551 72.33 18.1839Z" fill="#A5A5A5"/>
<path d="M30.3 18.1483C30.3 18.0416 30.51 17.9081 30.78 17.8458C30.96 17.8102 31 17.8369 31 18.0149C31 18.2017 30.95 18.2284 30.65 18.2284C30.46 18.2284 30.3 18.1928 30.3 18.1483Z" fill="#A5A5A5"/>
<path d="M8.56 17.7657C8.46 17.4275 8.49 17.3385 8.7 17.3385C8.86 17.3385 8.9 17.4008 8.9 17.65C8.9 18.006 8.66 18.086 8.56 17.7657Z" fill="#A5A5A5"/>
<path d="M28.3 17.739C28.3 17.5432 28.34 17.5165 28.66 17.5165C29.1 17.5165 29.08 17.6767 28.62 17.8458C28.31 17.9615 28.3 17.9526 28.3 17.739Z" fill="#A5A5A5"/>
<path d="M31.1 17.8814C31.1 17.7746 31.31 17.6411 31.58 17.5788C31.76 17.5432 31.8 17.5699 31.8 17.7479C31.8 17.9348 31.75 17.9615 31.45 17.9615C31.26 17.9615 31.1 17.9259 31.1 17.8814Z" fill="#A5A5A5"/>
<path d="M66.98 17.5432C66.87 17.5165 66.8 17.4186 66.8 17.294C66.8 17.0983 66.82 17.0894 67.18 17.1784C67.84 17.3385 68.03 17.6144 67.48 17.5966C67.3 17.5877 67.07 17.5699 66.98 17.5432Z" fill="#A5A5A5"/>
<path d="M70.43 17.472C70 17.3118 70.01 17.1606 70.45 17.1606C70.76 17.1606 70.8 17.1873 70.8 17.383C70.8 17.5076 70.79 17.6055 70.78 17.6055C70.76 17.5966 70.6 17.5432 70.43 17.472Z" fill="#A5A5A5"/>
<path d="M90.5 16.9381C90.5 16.6889 90.54 16.6266 90.7 16.6266C90.91 16.6266 90.94 16.7156 90.84 17.0538C90.74 17.3741 90.5 17.294 90.5 16.9381Z" fill="#A5A5A5"/>
<path d="M69.25 17.0983C68.73 16.9826 68.66 16.7156 69.15 16.7156C69.46 16.7156 69.5 16.7423 69.5 16.9381C69.5 17.0627 69.49 17.1516 69.48 17.1516C69.46 17.1428 69.36 17.1161 69.25 17.0983Z" fill="#A5A5A5"/>
<path d="M65.2 16.8936C65.2 16.7067 65.3 16.68 65.68 16.769C66.04 16.858 65.95 17.0716 65.55 17.0716C65.27 17.0716 65.2 17.036 65.2 16.8936Z" fill="#A5A5A5"/>
<path d="M32 16.4486C32 16.3062 32.07 16.2706 32.35 16.2706C32.72 16.2706 32.84 16.4664 32.54 16.5732C32.22 16.68 32 16.6266 32 16.4486Z" fill="#A5A5A5"/>
<path d="M90.6 16.2261C90.6 15.977 90.64 15.9147 90.8 15.9147C91.01 15.9147 91.04 16.0037 90.94 16.3418C90.84 16.6622 90.6 16.5821 90.6 16.2261Z" fill="#A5A5A5"/>
<path d="M77.9 16.1905C77.9 15.9325 77.93 15.9147 78.26 15.9147C78.65 15.9147 78.64 15.9948 78.2 16.2706C77.9 16.4575 77.9 16.4575 77.9 16.1905Z" fill="#A5A5A5"/>
<path d="M62.1 16.1817C62.1 15.9948 62.2 15.9681 62.58 16.0571C62.94 16.1461 62.85 16.3596 62.45 16.3596C62.17 16.3596 62.1 16.324 62.1 16.1817Z" fill="#A5A5A5"/>
<path d="M66.53 16.2973C66.25 16.1994 66.4 16.0037 66.75 16.0037C67.03 16.0037 67.1 16.0393 67.1 16.1817C67.1 16.3596 66.84 16.413 66.53 16.2973Z" fill="#A5A5A5"/>
<path d="M17.7 15.9058C17.7 15.6388 17.7 15.6388 18 15.8257C18.44 16.1016 18.45 16.1817 18.06 16.1817C17.73 16.1817 17.7 16.1639 17.7 15.9058Z" fill="#A5A5A5"/>
<path d="M33.6 16.0037C33.6 15.8613 33.53 15.8257 33.3 15.8257C33.03 15.8257 33 15.799 33 15.5498C33 15.2383 33.04 15.2472 33.68 15.7723C34.05 16.0838 34.08 16.1817 33.8 16.1817C33.67 16.1817 33.6 16.1194 33.6 16.0037Z" fill="#A5A5A5"/>
<path d="M65.55 15.9147C65.58 15.8702 65.74 15.7456 65.9 15.6477C66.2 15.4608 66.2 15.4608 66.2 15.7278C66.2 15.9859 66.17 16.0037 65.84 16.0037C65.64 16.0037 65.51 15.9681 65.55 15.9147Z" fill="#A5A5A5"/>
<path d="M40.32 15.6744C40.34 15.5854 40.47 15.5142 40.68 15.4964C40.95 15.4608 41 15.4875 41 15.6388C41 15.7901 40.94 15.8257 40.64 15.8257C40.36 15.8257 40.29 15.7901 40.32 15.6744Z" fill="#A5A5A5"/>
<path d="M18.7 15.3807C18.35 15.1227 18.35 15.1227 18.73 15.1138C19.08 15.1138 19.1 15.1316 19.1 15.3807C19.1 15.532 19.09 15.6477 19.07 15.6477C19.06 15.6477 18.89 15.532 18.7 15.3807Z" fill="#A5A5A5"/>
<path d="M44.1 15.2294C44.1 15.1138 44.19 15.0604 44.45 15.0515C44.74 15.0248 44.8 15.0515 44.8 15.2028C44.8 15.3451 44.73 15.3807 44.45 15.3807C44.18 15.3807 44.1 15.3451 44.1 15.2294Z" fill="#A5A5A5"/>
<path d="M66.35 15.2917C66.38 15.2472 66.54 15.1227 66.7 15.0248C67 14.8379 67 14.8379 67 15.1049C67 15.3629 66.97 15.3807 66.64 15.3807C66.44 15.3807 66.31 15.3451 66.35 15.2917Z" fill="#A5A5A5"/>
<path d="M8.26 15.096C8.16 14.7578 8.19 14.6688 8.4 14.6688C8.56 14.6688 8.6 14.7311 8.6 14.9803C8.6 15.3362 8.36 15.4163 8.26 15.096Z" fill="#A5A5A5"/>
<path d="M16.6 15.0159C16.6 14.7489 16.6 14.7489 16.9 14.9358C17.34 15.2116 17.35 15.2917 16.96 15.2917C16.63 15.2917 16.6 15.2739 16.6 15.0159Z" fill="#A5A5A5"/>
<path d="M47.2 15.0782C47.2 15.0159 47.3 14.9358 47.43 14.9002C47.84 14.8023 48 14.8379 48 15.0248C48 15.1761 47.93 15.2028 47.6 15.2028C47.33 15.2028 47.2 15.1672 47.2 15.0782Z" fill="#A5A5A5"/>
<path d="M52.1 15.0248C52.1 14.8379 52.2 14.8112 52.58 14.9002C52.94 14.9892 52.85 15.2028 52.45 15.2028C52.17 15.2028 52.1 15.1672 52.1 15.0248Z" fill="#A5A5A5"/>
<path d="M79.7 14.6777C79.7 14.4196 79.73 14.4018 80.06 14.4018C80.45 14.4018 80.44 14.4819 80 14.7578C79.7 14.9447 79.7 14.9447 79.7 14.6777Z" fill="#A5A5A5"/>
<path d="M15.8 14.3662C15.8 14.0637 15.8 14.0637 16.15 14.3395C16.34 14.4908 16.5 14.6243 16.5 14.6421C16.5 14.6599 16.34 14.6688 16.15 14.6688C15.82 14.6688 15.8 14.651 15.8 14.3662Z" fill="#A5A5A5"/>
<path d="M31.5 14.3929C31.5 14.126 31.5 14.126 31.8 14.3128C32.24 14.5887 32.25 14.6688 31.86 14.6688C31.53 14.6688 31.5 14.651 31.5 14.3929Z" fill="#A5A5A5"/>
<path d="M81.55 14.4908C81.58 14.4463 81.74 14.3217 81.9 14.2239C82.2 14.037 82.2 14.037 82.2 14.3039C82.2 14.562 82.17 14.5798 81.84 14.5798C81.64 14.5798 81.51 14.5442 81.55 14.4908Z" fill="#A5A5A5"/>
<path d="M80.8 13.7878C80.8 13.5297 80.83 13.5119 81.16 13.5119C81.55 13.5119 81.54 13.592 81.1 13.8679C80.8 14.0548 80.8 14.0548 80.8 13.7878Z" fill="#A5A5A5"/>
<path d="M82.5 13.7522C82.5 13.7344 82.66 13.6009 82.85 13.4496C83.2 13.1738 83.2 13.1738 83.2 13.4763C83.2 13.7611 83.18 13.7789 82.85 13.7789C82.66 13.7789 82.5 13.77 82.5 13.7522Z" fill="#A5A5A5"/>
<path d="M90.9 13.4674C90.9 13.2183 90.94 13.156 91.1 13.156C91.31 13.156 91.34 13.245 91.24 13.5831C91.14 13.9035 90.9 13.8234 90.9 13.4674Z" fill="#A5A5A5"/>
<path d="M68.5 13.6632C68.5 13.6454 68.66 13.5119 68.85 13.3606C69.2 13.0848 69.2 13.0848 69.2 13.3873C69.2 13.6721 69.18 13.6899 68.85 13.6899C68.66 13.6899 68.5 13.681 68.5 13.6632Z" fill="#A5A5A5"/>
<path d="M15.63 13.0403C15.21 12.7911 15.22 12.711 15.65 12.711C15.97 12.711 16 12.7288 16 12.978C16 13.1293 15.99 13.245 15.98 13.2361C15.96 13.2361 15.8 13.1471 15.63 13.0403Z" fill="#A5A5A5"/>
<path d="M9.6 10.682C9.6 10.4239 9.7 10.3883 10.01 10.5396C10.4 10.7176 10.37 10.8422 9.95 10.8422C9.68 10.8422 9.6 10.8066 9.6 10.682Z" fill="#A5A5A5"/>
<path d="M85.1 10.5752C85.1 10.3261 85.13 10.3083 85.45 10.3083C85.86 10.3083 85.84 10.4595 85.4 10.682C85.1 10.8333 85.1 10.8333 85.1 10.5752Z" fill="#A5A5A5"/>
<path d="M90.85 10.2193C90.81 9.9256 90.74 9.68532 90.69 9.68532C90.64 9.68532 90.6 9.56963 90.6 9.41835C90.6 8.9556 90.89 9.11578 91.08 9.68532C91.14 9.8544 91.22 10.1659 91.25 10.3794C91.31 10.7087 91.3 10.7532 91.12 10.7532C90.95 10.7532 90.91 10.6731 90.85 10.2193Z" fill="#A5A5A5"/>
<path d="M87.6 10.2371C87.6 10.1659 88.12 9.8633 88.24 9.8633C88.27 9.8633 88.3 9.96119 88.3 10.0858C88.3 10.2816 88.26 10.3083 87.95 10.3083C87.76 10.3083 87.6 10.2727 87.6 10.2371Z" fill="#A5A5A5"/>
<path d="M88.72 9.66753C88.75 9.60523 88.91 9.50734 89.08 9.44505C89.39 9.32936 89.4 9.33826 89.4 9.55184C89.4 9.74762 89.36 9.77432 89.04 9.77432C88.81 9.77432 88.7 9.73872 88.72 9.66753Z" fill="#A5A5A5"/>
<path d="M9.08 9.62303C8.75 9.55183 8.88 9.32936 9.25 9.32936C9.53 9.32936 9.6 9.36495 9.6 9.50734C9.6 9.68532 9.46 9.71202 9.08 9.62303Z" fill="#A5A5A5"/>
<path d="M24.8 9.41835C24.8 9.15138 24.8 9.15138 25.15 9.34716C25.59 9.60523 25.59 9.68532 25.15 9.68532C24.83 9.68532 24.8 9.66752 24.8 9.41835Z" fill="#A5A5A5"/>
<path d="M74.3 9.35605C74.3 9.31156 74.46 9.19587 74.65 9.08018C75 8.8844 75 8.8844 75 9.15137C75 9.40055 74.97 9.41835 74.65 9.41835C74.46 9.41835 74.3 9.39165 74.3 9.35605Z" fill="#A5A5A5"/>
<path d="M91.23 8.59073C90.81 8.34156 90.82 8.26147 91.25 8.26147C91.57 8.26147 91.6 8.27927 91.6 8.52844C91.6 8.67972 91.59 8.79541 91.58 8.78651C91.56 8.78651 91.4 8.69752 91.23 8.59073Z" fill="#A5A5A5"/>
<path d="M75.35 8.61743C75.38 8.57293 75.54 8.44835 75.7 8.35046C76 8.16358 76 8.16358 76 8.43055C76 8.68862 75.97 8.70642 75.64 8.70642C75.44 8.70642 75.31 8.67082 75.35 8.61743Z" fill="#A5A5A5"/>
<path d="M22.3 7.63853C22.3 7.49615 22.32 7.37156 22.36 7.37156C22.39 7.37156 22.55 7.48725 22.73 7.63853C23.05 7.9055 23.05 7.9055 22.68 7.9055C22.32 7.9055 22.3 7.88771 22.3 7.63853Z" fill="#A5A5A5"/>
<path d="M7.7 7.53174C7.7 7.26477 7.83 7.01559 7.96 7.01559C8.05 7.01559 8.1 7.12238 8.1 7.32706C8.1 7.57624 8.06 7.63853 7.9 7.63853C7.79 7.63853 7.7 7.58513 7.7 7.53174Z" fill="#A5A5A5"/>
<path d="M91.3 7.06009C91.3 6.70413 91.54 6.62404 91.64 6.9533C91.74 7.28257 91.71 7.37156 91.5 7.37156C91.34 7.37156 91.3 7.30927 91.3 7.06009Z" fill="#A5A5A5"/>
<path d="M7.8 6.37486C7.8 6.10789 7.93 5.85872 8.06 5.85872C8.15 5.85872 8.2 5.9655 8.2 6.17018C8.2 6.41936 8.16 6.48165 8 6.48165C7.89 6.48165 7.8 6.42826 7.8 6.37486Z" fill="#A5A5A5"/>
<path d="M20.2 6.20578C20.2 5.93881 20.2 5.93881 20.5 6.12569C20.94 6.40156 20.95 6.48165 20.56 6.48165C20.23 6.48165 20.2 6.46385 20.2 6.20578Z" fill="#A5A5A5"/>
<path d="M19 5.40486C19 5.13789 19 5.13789 19.3 5.32477C19.74 5.60064 19.75 5.68073 19.36 5.68073C19.03 5.68073 19 5.66293 19 5.40486Z" fill="#A5A5A5"/>
<path d="M17.9 4.70183C17.9 4.44376 17.9 4.44376 18.2 4.59504C18.64 4.81752 18.66 4.96881 18.25 4.96881C17.93 4.96881 17.9 4.95101 17.9 4.70183Z" fill="#A5A5A5"/>
<path d="M8.13 4.15009C8.15 3.96321 8.23 3.84752 8.33 3.82972C8.46 3.80303 8.5 3.86532 8.5 4.11449C8.5 4.38147 8.46 4.43486 8.29 4.43486C8.12 4.43486 8.09 4.39036 8.13 4.15009Z" fill="#A5A5A5"/>
<path d="M83.2 3.47376C83.2 3.40257 83.72 3.1 83.84 3.1C83.87 3.1 83.9 3.19789 83.9 3.32248C83.9 3.51826 83.86 3.54495 83.55 3.54495C83.36 3.54495 83.2 3.50936 83.2 3.47376Z" fill="#A5A5A5"/>
<path d="M14.8 2.96651C14.8 2.88642 14.71 2.83303 14.55 2.83303C14.35 2.83303 14.3 2.78853 14.3 2.61055C14.3 2.48596 14.34 2.38807 14.39 2.38807C14.52 2.38807 15.5 2.95761 15.5 3.03771C15.5 3.0733 15.34 3.1 15.15 3.1C14.91 3.1 14.8 3.0555 14.8 2.96651Z" fill="#A5A5A5"/>
<path d="M84.3 2.85082C84.3 2.77963 84.82 2.47706 84.94 2.47706C84.97 2.47706 85 2.57495 85 2.69954C85 2.89532 84.96 2.92202 84.65 2.92202C84.46 2.92202 84.3 2.88642 84.3 2.85082Z" fill="#A5A5A5"/>
<path d="M8.7 2.03211C8.7 1.80073 8.97 1.32018 9.1 1.32018C9.21 1.32018 9.23 1.70284 9.14 2.01431C9.06 2.27238 8.7 2.28128 8.7 2.03211Z" fill="#A5A5A5"/>
<path d="M90.26 1.92532C90.23 1.80963 90.2 1.61385 90.2 1.48036C90.2 1.32018 90.15 1.23119 90.05 1.23119C89.96 1.23119 89.9 1.1511 89.9 1.00871C89.9 0.599355 90.19 0.759539 90.48 1.32018C90.78 1.90752 90.79 2.0677 90.54 2.1033C90.39 2.1211 90.31 2.0677 90.26 1.92532Z" fill="#A5A5A5"/>
<path d="M12.7 1.76514C12.7 1.48037 12.78 1.48036 13.23 1.79183C13.48 1.97871 13.44 2.03211 13.05 2.03211C12.73 2.03211 12.7 2.01431 12.7 1.76514Z" fill="#A5A5A5"/>
<path d="M11.9 1.54266C11.9 1.45367 11.79 1.40917 11.55 1.40917C11.24 1.40917 11.2 1.38248 11.2 1.1867C11.2 0.999817 11.23 0.982018 11.43 1.04431C12.62 1.46257 12.9 1.67615 12.25 1.67615C12.01 1.67615 11.9 1.63165 11.9 1.54266Z" fill="#A5A5A5"/>
</svg>
