<svg width="377" height="447" viewBox="0 0 377 447" fill="none" xmlns="http://www.w3.org/2000/svg">
<path d="M373.68 446.056C373.167 445.557 373.4 444.651 374.1 444.379C374.987 444.061 376.293 444.56 376.06 445.149C375.873 445.739 374.053 446.419 373.68 446.056V446.056Z" fill="#977066"/>
<path d="M186.313 443.925C185.987 443.562 185.893 442.792 186.08 442.066L186.36 440.888L187.433 441.84C188.367 442.656 188.833 442.792 190.42 442.52C192.24 442.248 192.333 442.248 192.333 443.381C192.333 444.514 192.24 444.56 189.58 444.56C187.807 444.56 186.64 444.333 186.313 443.925Z" fill="#977066"/>
<path d="M374.567 441.84C374.193 441.205 374.707 440.48 375.547 440.48C376.387 440.48 376.387 440.843 375.547 441.659C375.127 442.067 374.753 442.112 374.567 441.84Z" fill="#977066"/>
<path d="M374.52 438.44C374.147 437.533 375.5 435.992 376.153 436.627C376.433 436.899 376.247 437.488 375.687 438.168C374.893 439.075 374.753 439.12 374.52 438.44Z" fill="#977066"/>
<path d="M374.333 434.36C374.333 433.997 374.007 433.68 373.633 433.68C372.887 433.68 372.747 433.272 373.213 432.184C373.4 431.64 373.68 431.73 374.613 432.637C375.873 433.861 376.107 435.04 375.033 435.04C374.66 435.04 374.333 434.722 374.333 434.36Z" fill="#977066"/>
<path d="M374.427 431.323C373.773 430.688 373.68 429.736 374.287 429.419C374.94 429.011 375.64 430.189 375.313 431.096C375.08 431.731 374.893 431.776 374.427 431.323Z" fill="#977066"/>
<path d="M373.027 426.789C372.28 426.064 372.327 425.293 373.12 424.659C374.1 423.843 374.893 425.021 374.147 426.336C373.727 427.107 373.493 427.243 373.027 426.789Z" fill="#977066"/>
<path d="M370.693 416.816C370.413 416.227 370.087 415.275 369.993 414.64C369.9 414.005 369.62 413.144 369.433 412.736C369.2 412.101 369.34 411.92 370.087 411.92C371.3 411.92 371.813 412.963 371.953 415.683C372.047 417.949 371.533 418.448 370.693 416.816Z" fill="#977066"/>
<path d="M366.54 410.016C366.4 409.789 366.26 408.883 366.213 408.021C366.167 406.707 366.307 406.48 367.193 406.48C368.127 406.48 368.267 406.707 368.267 408.429C368.267 409.925 368.08 410.424 367.567 410.424C367.147 410.424 366.727 410.243 366.54 410.016V410.016Z" fill="#977066"/>
<path d="M337.14 402.989C336.067 402.808 335.647 401.947 336.58 401.947C336.86 401.947 337.793 401.629 338.68 401.221C340.033 400.587 340.22 400.36 339.707 399.771C339.193 399.181 339.24 399.091 339.847 399.317C340.267 399.499 341.573 399.771 342.787 399.907C343.953 400.088 344.933 400.405 344.933 400.632C344.933 401.357 342.833 402.4 341.34 402.4C340.547 402.4 339.707 402.627 339.567 402.853C339.287 403.307 338.96 403.352 337.14 402.989V402.989Z" fill="#977066"/>
<path d="M360.24 402.173C359.82 401.765 360.987 399.68 361.64 399.68C361.967 399.68 362.2 400.269 362.2 401.04C362.2 402.037 361.967 402.4 361.36 402.4C360.893 402.4 360.38 402.309 360.24 402.173Z" fill="#977066"/>
<path d="M344.187 398.138C342.833 397.141 343.58 397.005 345.4 397.912C346.66 398.546 346.8 398.728 346.053 398.773C345.54 398.773 344.7 398.501 344.187 398.138Z" fill="#977066"/>
<path d="M281.047 397.912C280.533 397.594 280.86 397.368 282.213 397.005C285.48 396.098 286.927 396.461 285.573 397.776C284.92 398.41 281.98 398.501 281.047 397.912Z" fill="#977066"/>
<path d="M104.227 394.875C104.367 393.016 105.533 392.155 105.533 393.877L105.58 394.92L106.42 393.923C107.68 392.472 107.96 392.608 107.773 394.603C107.633 396.189 107.54 396.28 105.86 396.416L104.087 396.552L104.227 394.875V394.875Z" fill="#977066"/>
<path d="M122.053 394.104C121.913 393.696 122.007 393.016 122.24 392.608C122.66 391.883 122.707 391.928 123.033 392.835C123.407 394.059 122.52 395.283 122.053 394.104Z" fill="#977066"/>
<path d="M112.067 392.426C112.067 391.701 111.88 391.066 111.6 391.066C111.367 391.066 111.133 390.341 111.133 389.48C111.133 388.392 111.367 387.893 111.833 387.893C112.207 387.893 112.533 388.165 112.533 388.482C112.533 388.8 112.953 389.797 113.42 390.749C113.887 391.656 114.12 392.426 113.887 392.426C113.653 392.426 113.467 392.744 113.467 393.106C113.467 393.469 113.14 393.786 112.767 393.786C112.3 393.786 112.067 393.333 112.067 392.426Z" fill="#977066"/>
<path d="M337.84 393.016C336.393 392.29 336.113 391.066 337.373 391.066C337.793 391.066 338.773 391.384 339.52 391.746C340.733 392.381 340.967 392.381 341.713 391.701C342.553 390.976 344 390.976 344.14 391.746C344.28 392.336 341.247 393.741 340.033 393.696C339.52 393.696 338.54 393.378 337.84 393.016Z" fill="#977066"/>
<path d="M255.333 385.173C255.333 384.629 256.873 383.813 257.853 383.813C258.833 383.813 258.833 384.992 257.853 385.354C256.733 385.762 255.333 385.672 255.333 385.173Z" fill="#977066"/>
<path d="M317.913 385.218C317.447 384.946 317.68 384.674 318.8 384.13C320.2 383.405 320.247 383.405 320.107 384.402C319.967 385.49 318.94 385.853 317.913 385.218Z" fill="#977066"/>
<path d="M340.267 384.72C340.267 383.994 340.593 383.813 341.947 383.813C343.3 383.813 343.58 383.949 343.347 384.538C343.207 384.946 343.067 385.354 343.067 385.445C343.067 385.536 342.46 385.626 341.667 385.626C340.593 385.626 340.267 385.445 340.267 384.72Z" fill="#977066"/>
<path d="M344.98 384.312C344.56 383.587 344.7 383.36 345.773 382.952C348.107 382.091 348.433 382.136 348.247 383.36C348.013 385.264 345.82 385.899 344.98 384.312Z" fill="#977066"/>
<path d="M311.847 381.139C311.287 380.776 311.427 380.459 312.687 379.325C313.527 378.555 314.413 377.92 314.647 377.92C314.833 377.92 314.973 378.691 314.927 379.643C314.833 381.048 314.647 381.32 313.667 381.456C313.013 381.501 312.22 381.365 311.847 381.139V381.139Z" fill="#977066"/>
<path d="M107.26 379.416C106.887 379.098 106.84 376.106 107.167 376.106C107.54 376.106 110.153 379.008 110.2 379.416C110.2 379.824 107.68 379.824 107.26 379.416Z" fill="#977066"/>
<path d="M278.2 378.645C278.2 378.328 278.62 377.92 279.087 377.784C280.207 377.512 280.533 377.784 280.207 378.645C279.88 379.461 278.2 379.461 278.2 378.645V378.645Z" fill="#977066"/>
<path d="M202.133 378.464C202.133 378.237 202.693 377.829 203.44 377.557C206.333 376.515 206.427 376.515 206.24 377.603C206.147 378.419 205.773 378.645 204.14 378.736C203.02 378.827 202.133 378.691 202.133 378.464Z" fill="#977066"/>
<path d="M310.307 377.149C309.093 376.832 309.28 375.88 310.68 375.291C311.333 374.973 311.707 374.52 311.567 374.293C311.427 374.021 311.613 373.84 312.033 373.84C312.64 373.84 312.78 374.203 312.64 375.517C312.5 377.24 311.987 377.603 310.307 377.149Z" fill="#977066"/>
<path d="M106 374.338C106 373.749 107.213 372.888 107.54 373.25C108.193 373.84 107.82 374.746 106.933 374.746C106.42 374.746 106 374.565 106 374.338Z" fill="#977066"/>
<path d="M298.267 371.619C298.267 371.392 298.92 370.984 299.713 370.712C300.507 370.44 301.02 370.032 300.833 369.76C300.693 369.533 300.787 369.307 301.02 369.307C301.813 369.307 301.627 371.437 300.787 371.755C299.713 372.163 298.267 372.072 298.267 371.619Z" fill="#977066"/>
<path d="M271.2 370.803C271.2 370.032 271.62 369.851 273.673 369.624C274.98 369.443 276.893 369.216 277.873 369.035C278.807 368.853 279.6 368.899 279.6 369.171C279.6 369.987 276.613 371.211 273.953 371.437C271.433 371.664 271.2 371.619 271.2 370.803Z" fill="#977066"/>
<path d="M203.067 369.669C203.067 368.219 211.84 366.224 212.633 367.493C213.1 368.219 212.913 368.309 209.227 369.307C205.4 370.349 203.067 370.485 203.067 369.669Z" fill="#977066"/>
<path d="M103.667 365C103.667 363.776 103.713 363.73 104.787 364.138C105.907 364.546 105.72 366.133 104.6 366.133C103.9 366.133 103.667 365.816 103.667 365Z" fill="#977066"/>
<path d="M96.2 362.053C96.2 361.056 96.3866 360.24 96.62 360.24C96.8533 360.24 96.9466 360.693 96.8066 361.192C96.5733 362.008 96.6666 362.098 97.5533 361.826C98.2533 361.645 98.6266 361.781 98.86 362.325C99.14 363.05 99.28 362.96 99.7933 361.826L100.4 360.466L100.307 362.189C100.213 363.866 100.213 363.866 98.2066 363.866H96.2V362.053V362.053Z" fill="#977066"/>
<path d="M93.8667 356.386C93.8667 354.346 95.08 354.21 95.5 356.205C95.7334 357.112 96.0134 357.52 96.48 357.338C96.8534 357.202 97.1334 357.293 97.1334 357.52C97.1334 357.792 96.3867 357.973 95.5 357.973C93.96 357.973 93.8667 357.882 93.8667 356.386Z" fill="#977066"/>
<path d="M191.4 350.856C191.4 349.315 191.96 348 192.613 348C193.08 348 193.267 348.589 193.267 349.813C193.267 351.309 193.127 351.627 192.333 351.627C191.773 351.627 191.4 351.309 191.4 350.856Z" fill="#977066"/>
<path d="M190.467 341.2C189.393 339.16 189.3 338.027 190.093 335.851C190.607 334.581 190.56 334.128 189.86 332.949C189.44 332.224 189.067 331.091 189.067 330.501C189.067 329.867 188.833 328.96 188.553 328.416C187.853 327.192 188.973 323.52 190.047 323.52C190.653 323.52 190.84 324.2 191.12 327.192C191.307 329.232 191.633 331.272 191.867 331.725C192.473 332.813 192.473 343.013 191.867 343.013C191.633 343.013 190.98 342.197 190.467 341.2V341.2Z" fill="#977066"/>
<path d="M99.7466 336.394C99.3266 335.352 99.42 334.762 99.8866 335.034C100.447 335.397 100.867 337.12 100.4 337.12C100.213 337.12 99.8866 336.802 99.7466 336.394Z" fill="#977066"/>
<path d="M91.86 316.13C91.2066 315.042 90.3199 313.909 89.9466 313.546C89.5266 313.229 89.2 312.277 89.2 311.37V309.784L90.4133 310.872C92.6066 312.866 94.7999 318.08 93.4466 318.08C93.2133 318.08 92.4666 317.218 91.86 316.13Z" fill="#977066"/>
<path d="M201.2 203.658C201.2 202.842 201.387 202.57 201.853 202.752C202.693 203.069 204.56 202.117 204.233 201.528C204.047 201.301 204.28 201.12 204.7 201.12C205.307 201.12 205.447 201.482 205.307 202.842C205.167 204.474 205.12 204.52 203.207 204.656C201.34 204.792 201.2 204.701 201.2 203.658V203.658Z" fill="#977066"/>
<path d="M203.533 194.093C203.207 193.731 202.647 193.413 202.32 193.413C201.9 193.413 201.667 192.869 201.667 191.827C201.667 190.965 201.76 190.24 201.853 190.24C201.993 190.24 202.693 190.875 203.44 191.6C205.027 193.096 206.427 193.413 206.287 192.189C206.1 190.376 206.333 189.832 207.08 190.104C207.733 190.331 207.827 190.149 207.64 188.971C207.453 187.701 207.547 187.52 208.527 187.52C209.46 187.52 209.6 187.747 209.6 189.333C209.6 191.101 209.553 191.147 207.873 191.192C206.893 191.192 206.38 191.328 206.707 191.464C206.987 191.555 207.267 192.371 207.267 193.232C207.267 194.683 207.173 194.773 205.68 194.773C204.84 194.773 203.86 194.456 203.533 194.093V194.093Z" fill="#977066"/>
<path d="M102.733 191.555C100.82 191.328 98.3 190.965 97.1334 190.739C95.9667 190.512 93.7734 190.059 92.2334 189.787C90.6934 189.469 88.5 188.835 87.3334 188.381C86.1667 187.928 84.4867 187.429 83.6 187.293C80.8934 186.84 79.8667 186.16 79.8667 184.755V183.485L81.8734 184.573C82.9467 185.163 84.7667 185.752 85.9334 185.933C87.0534 186.115 88.4534 186.523 88.9667 186.885C90.2267 187.656 95.92 188.744 104.133 189.787C107.867 190.285 110.947 190.648 111.04 190.693C111.087 190.693 111.133 191.011 111.133 191.373C111.133 192.144 108.613 192.189 102.733 191.555Z" fill="#977066"/>
<path d="M124.667 191.419C124.667 191.056 125.227 190.648 125.88 190.512C127.56 190.104 129.8 190.603 129.8 191.419C129.8 191.872 129.147 192.053 127.233 192.053C125.367 192.053 124.667 191.872 124.667 191.419Z" fill="#977066"/>
<path d="M133.533 191.418C133.533 190.829 134.84 190.24 136.24 190.24C136.52 190.24 136.8 190.648 136.8 191.146C136.8 191.872 136.473 192.053 135.167 192.053C134.093 192.053 133.533 191.826 133.533 191.418Z" fill="#977066"/>
<path d="M147.3 187.021C147.067 186.749 146.227 186.659 145.013 186.885L143.1 187.157L143.987 186.205C144.5 185.707 145.387 185.253 145.993 185.253C147.44 185.253 150.333 186.432 150.333 187.021C150.333 187.656 147.673 187.656 147.3 187.021V187.021Z" fill="#977066"/>
<path d="M4.73332 184.301C1.69998 182.533 0.0666504 180.675 0.0666504 178.997V177.456L2.95999 180.04C5.80666 182.624 8.09332 183.893 9.72666 183.893C10.52 183.848 18.7333 178.861 25.22 174.464L28.0667 172.56V173.92C28.0667 174.827 27.7866 175.416 27.2733 175.597C26.8066 175.779 26.0133 176.277 25.5466 176.731C25.0333 177.184 24.24 177.547 23.7733 177.547C23.3066 177.547 22.9333 177.864 22.9333 178.227C22.9333 178.589 22.42 178.997 21.7667 179.179C21.1133 179.315 20.6 179.632 20.6 179.859C20.6 180.085 20.32 180.267 19.9466 180.267C19.5733 180.267 19.2 180.539 19.06 180.901C18.92 181.264 18.0333 181.808 17.1466 182.125C16.2133 182.443 15.4667 182.896 15.4667 183.077C15.4667 183.259 15.14 183.44 14.7667 183.44C14.3933 183.44 14.0667 183.667 14.0667 183.893C14.0667 184.165 13.74 184.347 13.3667 184.347C12.9933 184.347 12.6667 184.573 12.6667 184.8C12.6667 185.072 11.3133 185.253 9.53998 185.253C7.15998 185.253 5.94665 185.027 4.73332 184.301Z" fill="#977066"/>
<path d="M205.073 184.256C204.28 183.893 204 183.349 204 182.261C204 180.176 204.84 179.904 206.193 181.581C207.453 183.122 208.247 183.349 209.133 182.261C210.113 181.173 208.433 179.904 205.773 179.632C202.6 179.314 202.46 179.178 202.787 176.368L203.067 173.965L201.34 173.829C199.66 173.693 199.567 173.602 199.427 171.97C199.287 170.248 199.287 170.248 200.173 171.109C200.687 171.608 202.087 172.56 203.3 173.285L205.493 174.509L204.327 175.144C203.627 175.506 203.207 176.005 203.347 176.368C203.627 177.048 207.127 178.725 207.547 178.362C207.64 178.226 207.453 177.41 207.08 176.594C206.707 175.733 206.24 174.101 206.1 172.922C205.96 171.789 205.493 170.565 205.167 170.293C204.7 169.93 204.467 168.888 204.467 167.301V164.853H206.287C207.313 164.853 208.293 165.08 208.48 165.352C208.667 165.624 208.853 167.437 208.9 169.341C209.087 173.194 209.413 174.373 210.347 174.373C210.813 174.373 211 174.917 211 176.186C211 177.184 210.813 178 210.533 178C210.253 178 210.067 179.45 210.067 181.4V184.8L208.107 184.754C206.987 184.754 205.633 184.528 205.073 184.256V184.256Z" fill="#977066"/>
<path d="M55.5066 176.594C54.9933 176.322 54.6666 175.597 54.6666 174.826V173.512L57 174.917C58.3066 175.688 59.3333 176.504 59.3333 176.685C59.3333 177.229 56.4866 177.184 55.5066 176.594Z" fill="#977066"/>
<path d="M199.24 155.288C198.26 154.789 197.467 154.2 197.467 153.973C197.467 153.701 197.14 153.52 196.767 153.52C196.347 153.52 196.067 153.112 196.067 152.386C196.067 151.616 195.693 151.072 194.993 150.754C194.2 150.437 193.873 149.848 193.827 148.714C193.733 147.264 193.78 147.173 195.087 147.173C196.767 147.173 197.467 147.944 195.973 148.17C195.133 148.261 195.46 148.624 197.747 149.938C201.2 151.978 202.32 152.386 201.993 151.525C201.853 151.162 201.947 150.8 202.227 150.709C203.393 150.301 202.087 149.077 199.147 147.717C196.207 146.357 196.067 146.221 196.067 144.634V143.002L197.14 144C198.353 145.133 201.2 146.402 201.2 145.813C201.2 145.632 200.547 144.906 199.753 144.272C198.12 142.912 198.213 142.821 200.08 143.773C200.827 144.136 201.76 144.453 202.18 144.453C202.6 144.453 203.16 144.725 203.393 145.042C204.14 145.904 205.12 152.704 204.747 154.562C204.42 156.149 204.327 156.24 202.693 156.24C201.76 156.194 200.173 155.786 199.24 155.288V155.288ZM204 154.517C204 153.792 202.367 152.704 199.847 151.706C195.553 150.074 196.3 151.434 200.92 153.746C203.393 154.97 204 155.106 204 154.517Z" fill="#977066"/>
<path d="M63.7667 154.2C60.5467 152.613 57.9333 148.216 57.9333 144.363C57.9333 141.643 59.1467 142.141 59.8 145.133C60.4067 147.989 62.5067 150.981 64.8867 152.341C66.8934 153.475 70.0667 153.429 72.1667 152.205L73.8 151.299V152.568C73.8 153.475 73.4733 153.973 72.6333 154.336C70.9067 155.107 65.4467 155.016 63.7667 154.2V154.2Z" fill="#977066"/>
<path d="M4.49998 151.752C1.69998 150.075 0.0666504 147.219 0.0666504 144C0.0666504 141.325 1.23332 141.597 1.93332 144.499C3.33332 150.075 8.88664 152.477 13.9733 149.667L15.9333 148.579V149.893C15.9333 151.843 14.0666 152.613 9.53998 152.613C6.83331 152.613 5.52665 152.387 4.49998 151.752Z" fill="#977066"/>
<path d="M150.66 147.899C150.473 147.491 150.753 147.128 151.313 146.947C152.62 146.539 155 147.128 155 147.899C155 148.805 150.987 148.805 150.66 147.899Z" fill="#977066"/>
<path d="M0.0666504 139.24C0.0666504 137.971 0.253317 137.653 0.999984 137.653C1.97998 137.653 2.11998 138.107 1.65331 139.829C1.18665 141.461 0.0666504 141.053 0.0666504 139.24Z" fill="#977066"/>
<path d="M191.4 139.013C191.4 138.469 191.727 138.107 192.24 138.107C192.94 138.061 192.94 138.016 192.147 137.427C191.26 136.747 191.26 136.747 192.24 136.747C192.847 136.747 193.827 137.064 194.433 137.472C195.04 137.88 195.787 138.061 196.067 137.88C196.907 137.381 193.5 135.387 191.82 135.387C191.027 135.387 189.533 135.16 188.553 134.842C186.92 134.389 186.733 134.208 186.733 132.802C186.733 131.352 186.78 131.307 188.507 131.352C189.907 131.443 190 131.488 188.973 131.624C187.2 131.896 187.34 132.485 189.347 133.12C191.073 133.709 191.913 133.437 191.073 132.621C190.793 132.349 190.653 131.805 190.793 131.488C190.933 131.125 190.747 130.853 190.28 130.853C189.72 130.853 189.533 130.445 189.533 129.312V127.771L191.167 129.176C192.38 130.173 192.66 130.717 192.287 131.125C191.913 131.533 192.473 132.168 194.433 133.573C195.88 134.616 197.653 135.659 198.447 135.931C200.173 136.52 200.267 137.562 198.54 137.381L197.233 137.2L198.54 137.744C201.387 138.923 199.38 139.92 194.153 139.92C191.727 139.92 191.4 139.829 191.4 139.013V139.013Z" fill="#977066"/>
<path d="M195.367 128.179C195.647 127.317 195.32 126.909 193.5 125.685C192.613 125.051 192.613 125.005 193.453 124.099C194.293 123.192 194.293 123.192 192.333 122.421C190.14 121.56 190.607 120.744 193.033 121.197C194.2 121.424 194.34 121.333 193.873 120.835C192.987 119.973 193.127 119.565 194.2 119.837C194.713 119.973 195.133 120.336 195.133 120.699C195.133 122.512 196.207 125.867 196.813 125.867C197.233 125.867 197.467 126.365 197.467 127.453C197.467 128.859 197.327 129.04 196.253 129.04C195.32 129.04 195.133 128.859 195.367 128.179Z" fill="#977066"/>
<path d="M186.5 126.773C186.36 126.547 185.8 126.32 185.287 126.32C184.633 126.32 184.4 126.003 184.4 125.141C184.4 124.144 184.493 124.008 185.1 124.507C185.94 125.187 186.033 124.461 185.24 123.691C184.493 122.965 185.1 123.011 186.733 123.827C187.527 124.235 188.133 124.869 188.133 125.323C188.133 125.776 188.367 126.365 188.693 126.683C189.113 127.091 188.973 127.227 188.04 127.227C187.34 127.227 186.64 127.045 186.5 126.773V126.773Z" fill="#977066"/>
<path d="M188.133 73.733C188.46 71.285 188.087 70.5597 186.92 71.5117C186.547 71.7837 186.08 71.9197 185.893 71.7383C185.567 71.3757 187.573 69.4716 188.6 69.109C189.16 68.9276 188.74 67.3863 188.087 67.3863C187.573 67.3863 184.82 70.061 184.167 71.1943C183.793 71.7837 183.373 71.9197 182.393 71.693C181.32 71.421 181.133 71.149 181.133 69.8343C181.133 68.6557 181.32 68.3837 181.833 68.565C182.207 68.7463 182.58 69.0637 182.58 69.381C182.627 69.653 182.673 70.1517 182.72 70.4237C182.72 70.741 182.953 71.013 183.187 71.0583C183.747 71.1037 185.333 68.6557 185.007 68.157C184.867 67.9757 185.24 67.2957 185.847 66.661C187.013 65.4823 186.687 64.5756 185.427 65.4823C185.007 65.7996 184.307 66.1623 183.933 66.2983C183.56 66.4343 182.86 66.7517 182.44 66.9783C181.133 67.6583 181.367 65.2103 182.767 63.2156C183.56 62.0823 183.933 60.9037 183.933 59.6797C183.933 58.6823 184.447 56.597 185.1 55.0103C185.8 53.3783 186.08 52.1543 185.8 52.0637C185.007 51.7917 185.287 47.8023 186.267 45.7623C187.06 43.9943 187.34 43.813 188.787 43.813C190.047 43.813 190.467 44.0397 190.747 44.8557C191.353 46.6237 191.12 61.765 190.467 63.3063C190 64.3943 190 64.9383 190.467 65.981C190.887 67.0237 190.887 68.2477 190.467 71.6477C189.907 75.6823 189.813 75.9997 188.88 75.9997C187.9 75.9997 187.853 75.8637 188.133 73.733V73.733ZM188.133 56.7783C188.133 55.5997 187.853 55.9623 187.48 57.6397C187.247 58.637 187.293 58.8183 187.667 58.3197C187.9 57.957 188.133 57.2317 188.133 56.7783Z" fill="#977066"/>
<path d="M57.2333 61.4933C56.7667 60.768 57.98 59.5893 58.82 59.952C59.24 60.1333 59.94 60.224 60.4067 60.224C60.8733 60.224 61.2 60.5413 61.2 61.0853C61.2 61.8106 60.8733 61.9466 59.38 61.9466C58.3533 61.9466 57.3733 61.72 57.2333 61.4933Z" fill="#977066"/>
<path d="M112.067 54.693C113 54.1036 114.073 54.1036 113.7 54.693C113.56 54.965 112.953 55.1463 112.393 55.1463C111.553 55.1463 111.507 55.0556 112.067 54.693Z" fill="#977066"/>
<path d="M84.72 43.9037C84.3 43.677 84.3933 43.1784 84.9533 42.0451C85.8867 40.0957 86.8667 39.6877 86.8667 41.2291C86.8667 42.5891 85.42 44.4024 84.72 43.9037Z" fill="#977066"/>
<path d="M88.2666 42.4077C88.2666 42.0904 89.0599 41.093 90.0399 40.1864C90.9733 39.2797 92.0933 38.101 92.4666 37.557C93.1666 36.6504 93.1666 36.6504 94.7066 38.1464L96.2466 39.6424L94.8933 41.1384C93.7266 42.4077 93.1666 42.6344 90.8799 42.7704C89.1066 42.861 88.2666 42.725 88.2666 42.4077V42.4077Z" fill="#977066"/>
<path d="M81.2667 40.8663C81.1734 38.5997 80.6134 37.0583 80.1467 37.829C79.68 38.5997 79.0267 38.509 78.7934 37.6023C78.7 37.1037 78.42 37.5117 78.0934 38.645C77.5334 40.5037 76.5534 41.773 75.9934 41.2743C75.8534 41.1383 75.9467 40.4583 76.2267 39.7783C77.9534 35.7437 77.9534 30.7117 76.2267 29.4423C75.34 28.7623 73.52 28.6717 73.1 29.3063C72.82 29.7597 74.8734 34.0663 75.6667 34.5197C76.4134 34.973 76.2267 36.8317 75.3867 37.5117C74.5934 38.1463 73.9867 37.693 72.5867 35.381C71.98 34.3837 71 34.8823 71 36.2423C70.9534 36.7863 70.6734 37.8743 70.3 38.5997L69.6934 39.9597L69.6 37.693L69.5534 35.4263L68.6667 36.5143L67.7334 37.557V35.9703C67.7334 35.0637 67.92 34.2477 68.1534 34.1117C68.62 33.7943 67.4534 31.1197 66.8467 31.1197C66.66 31.1197 66.2867 31.3463 66.0067 31.6183C65.26 32.3437 64.6534 31.7997 64.3267 30.213C64 28.6717 63.3 28.445 62.6467 29.7143C62.32 30.3037 61.8067 30.485 60.9667 30.349C59.5667 30.077 58.4 30.893 58.4 32.0717C58.4 32.7063 57.98 33.0237 57 33.2503C56.2067 33.3863 55.46 33.7037 55.32 33.885C54.8534 34.6557 54.2 34.293 54.2 33.205C54.2 32.3437 53.7334 31.8903 52.0534 31.0743C49.5801 29.941 50.0467 29.669 47.6667 33.8397C46.2667 36.2423 45.1 36.6957 44.68 34.9277C44.4 33.885 44.1667 33.749 42.9534 34.021C42.0667 34.2023 41.1334 34.021 40.4334 33.5677C39.8267 33.205 39.08 32.933 38.7067 33.0237C38.38 33.069 37.2134 32.253 36.0934 31.1197C34.1334 29.1703 34.0867 29.125 34.2734 30.349C34.5534 32.0717 33.8067 31.8903 32.5934 29.8957C31.7534 28.445 31.5667 28.309 31.4267 29.0797C31.24 30.3943 32.5934 33.3863 33.3867 33.3863C35.0667 33.3863 34.5067 36.9223 32.6867 37.7837C31.7067 38.2823 31.5667 38.237 31.4267 37.3757C31.3334 36.877 31.52 36.2423 31.8934 36.0157C32.36 35.6983 32.36 35.517 31.94 35.3357C31.0534 35.0183 27.6 27.5837 27.6 26.0877C27.6 24.8637 27.46 24.773 25.8734 24.773C24.1934 24.773 23.9134 24.5463 20.74 20.421C18.3134 17.3383 17.3334 15.7063 17.3334 14.7543C17.3334 13.6663 17.52 13.4397 18.5 13.4397C19.2467 13.4397 19.6667 13.1677 19.6667 12.7597C19.6667 12.397 19.9 12.0797 20.1334 12.0797C20.4134 12.0797 20.6 11.581 20.6 10.9463C20.6 9.94899 20.7867 9.81299 22.4667 9.81299H24.3334V11.6263C24.3334 13.3037 24.4267 13.4397 25.64 13.4397C26.34 13.4397 27.18 13.6663 27.5067 13.9837C27.9267 14.3917 28.0667 14.301 28.0667 13.5303C28.0667 12.7143 28.3467 12.533 29.6534 12.533C31.8467 12.533 34.1334 14.7997 34.18 17.021C34.18 17.9277 34.32 18.381 34.46 18.109C34.5534 17.7463 35.4867 17.5197 36.5134 17.5197C38.1 17.5197 38.7534 17.8823 41.3667 20.2397C43 21.7357 44.54 22.9597 44.7734 22.9597C45.0067 22.9597 45.9867 23.5943 46.9667 24.3197C47.9467 25.0903 49.3001 25.6797 49.9534 25.6797C50.6534 25.6797 51.4467 25.9063 51.68 26.133C51.96 26.405 53.22 26.8583 54.5267 27.1757C57.0467 27.8103 58.9134 27.493 61.8067 25.861C62.74 25.3623 63.72 25.2263 65.0734 25.4077C66.1467 25.5437 69.3667 25.861 72.26 26.133C75.9467 26.4503 77.9534 26.8583 79.0734 27.493C80.38 28.2637 81.7334 28.3997 89.0134 28.581C93.6334 28.717 97.9734 28.989 98.6734 29.261C100.213 29.8503 103.807 29.4423 105.767 28.4903C106.56 28.1277 108.147 26.949 109.36 25.861C110.573 24.773 111.973 23.8663 112.44 23.8663C113 23.8663 113.467 23.4583 113.653 22.869C114.027 21.5543 118.88 17.973 120.28 17.973C120.933 17.973 121.447 17.6103 121.633 17.0663C121.773 16.613 122.567 15.797 123.407 15.2983C124.247 14.7997 125.833 13.485 127 12.3517C129.053 10.2663 130.687 9.76766 132.787 10.5383C133.72 10.901 133.767 13.349 132.833 14.5277C132.46 15.0263 132.133 15.797 132.133 16.2503C132.133 16.749 131.387 17.429 130.22 17.973C129.193 18.517 127.28 19.9223 125.973 21.1463C124.2 22.8237 123.173 23.413 122.193 23.413C121.353 23.413 120.233 23.9117 119.207 24.773C118.32 25.5437 117.107 26.133 116.36 26.133C115.287 26.1783 114.913 26.541 113.887 28.7623C112.86 31.029 112.72 31.709 113.047 33.8397C113.7 38.373 113.7 38.4183 112.067 37.6477C110.667 36.9677 110.2 35.5623 111.133 34.973C111.787 34.565 111.693 34.2023 110.62 32.9783L109.687 31.8903L108.987 32.8877C108.427 33.6583 108.1 33.749 107.633 33.3863C106.84 32.7517 105.767 33.2503 104.18 34.9277C102.453 36.6957 102.173 36.333 103.433 33.9757C104.087 32.8423 104.507 31.7997 104.413 31.709C103.9 31.165 101.427 33.0237 101.1 34.157C100.82 35.381 100.773 35.381 100.12 34.565C99.6067 33.8397 99.3734 33.7943 98.7667 34.293C98.2067 34.7463 98.02 34.701 97.7867 34.1117C97.4134 33.205 96.6667 33.1597 96.6667 34.021C96.6667 35.1997 95.6867 35.3357 94.5667 34.293C93.96 33.749 93.2134 33.4317 92.9334 33.613C92.6534 33.7943 92.0934 33.6583 91.72 33.341C90.8334 32.661 89.5267 33.749 88.1267 36.333C87.4267 37.6477 87.1 37.9197 86.96 37.3303C86.8667 36.9223 87.24 35.8797 87.7534 35.0183C88.2667 34.2023 88.5934 33.3863 88.4067 33.2503C87.9867 32.797 86.8667 33.8397 86.8667 34.701C86.82 35.8343 84.3 39.9597 83.6934 39.869C83.3667 39.7783 83.1334 39.869 83.1334 40.0957C83.1334 40.277 82.7134 40.9117 82.2 41.5463L81.2667 42.6797V40.8663V40.8663ZM69.8334 29.4423C69.2734 28.6717 68.9 28.3997 68.76 28.7623C68.5734 29.397 70.0667 31.301 70.44 30.893C70.58 30.8023 70.3 30.1223 69.8334 29.4423V29.4423ZM37.8667 28.6717C37.5867 27.8103 37.0267 26.8583 36.6534 26.5863C35.7667 25.861 35.8134 26.0877 36.9334 28.6717C38.0067 31.0743 38.7067 31.1197 37.8667 28.6717ZM23.8667 14.573C23.8667 13.9383 23.68 13.4397 23.4 13.4397C23.1667 13.4397 22.9334 13.9383 22.9334 14.573C22.9334 15.2077 23.1667 15.7063 23.4 15.7063C23.68 15.7063 23.8667 15.2077 23.8667 14.573Z" fill="#977066"/>
<path d="M49.3934 35.6078C48.9267 33.9758 48.9734 33.8852 50 34.0665C50.7 34.2025 51.12 33.9305 51.4 33.1598C51.9134 31.7998 52.1 31.7545 52.1934 32.8425C52.24 33.2505 51.68 34.2932 50.98 35.1545L49.6734 36.6958L49.3934 35.6078Z" fill="#977066"/>
<path d="M134.327 10.8559C134.14 10.7199 134 9.90385 134 9.08785C134 7.27452 135.353 6.18652 137.593 6.18652C139.087 6.18652 139.133 6.27719 139.133 7.90919C139.133 9.04253 138.807 9.94919 138.293 10.4025C137.453 11.1732 134.887 11.4452 134.327 10.8559Z" fill="#977066"/>
<path d="M146.227 2.46917C146.367 0.519841 146.367 0.519838 148.373 0.383838C150.333 0.247838 150.333 0.247838 150.333 1.74384C150.333 3.69317 149.633 4.37317 147.627 4.37317C146.087 4.37317 146.087 4.37317 146.227 2.46917V2.46917Z" fill="#977066"/>
</svg>
