<svg width="101" height="84" viewBox="0 0 101 84" fill="none" xmlns="http://www.w3.org/2000/svg">
<path d="M50.28 83.6634C49.95 83.5922 50.08 83.3697 50.45 83.3697C50.73 83.3697 50.8 83.4053 50.8 83.5477C50.8 83.7257 50.66 83.7524 50.28 83.6634Z" fill="#636363"/>
<path d="M51.3 83.5477C51.3 83.4053 51.37 83.3697 51.65 83.3697C52.05 83.3697 52.14 83.5833 51.78 83.6723C51.4 83.7613 51.3 83.7346 51.3 83.5477Z" fill="#636363"/>
<path d="M52.7 83.4587C52.7 83.3163 52.77 83.2807 53.05 83.2807C53.45 83.2807 53.54 83.4943 53.18 83.5833C52.8 83.6723 52.7 83.6456 52.7 83.4587Z" fill="#636363"/>
<path d="M54.8 83.1027C54.8 82.9604 54.87 82.9248 55.15 82.9248C55.55 82.9248 55.64 83.1383 55.28 83.2273C54.9 83.3163 54.8 83.2896 54.8 83.1027Z" fill="#636363"/>
<path d="M55.8 82.8714C55.8 82.6845 55.85 82.6578 56.15 82.6578C56.55 82.6578 56.6 82.7824 56.28 82.9426C55.91 83.1206 55.8 83.1028 55.8 82.8714Z" fill="#636363"/>
<path d="M44.7 82.5777C44.7 82.5065 44.33 82.3641 44.18 82.3819C44.13 82.3908 44.1 82.3285 44.1 82.2573C44.1 82.1684 44.21 82.1239 44.45 82.1239C44.77 82.1239 44.8 82.1417 44.8 82.3908C44.8 82.5421 44.78 82.6578 44.75 82.6578C44.72 82.6578 44.7 82.6222 44.7 82.5777Z" fill="#636363"/>
<path d="M49.9 82.3018C49.9 82.115 50 82.0883 50.38 82.1772C50.74 82.2662 50.65 82.4798 50.25 82.4798C49.97 82.4798 49.9 82.4442 49.9 82.3018Z" fill="#636363"/>
<path d="M52.7 82.2662C52.7 82.1506 52.98 82.0349 53.28 82.0349C53.34 82.0349 53.4 82.115 53.4 82.2128C53.4 82.3552 53.33 82.3908 53.05 82.3908C52.82 82.3908 52.7 82.3463 52.7 82.2662Z" fill="#636363"/>
<path d="M58 81.9904C58 81.7946 58.04 81.7679 58.35 81.7679C58.78 81.7679 58.79 81.8569 58.41 82.0616C58.03 82.2574 58 82.2573 58 81.9904Z" fill="#636363"/>
<path d="M49.98 81.3496C49.65 81.2785 49.78 81.056 50.15 81.056C50.43 81.056 50.5 81.0916 50.5 81.234C50.5 81.4119 50.36 81.4386 49.98 81.3496Z" fill="#636363"/>
<path d="M46.5 81.0293C46.5 80.7267 46.59 80.6911 46.83 80.878C46.94 80.9759 47.07 81.0293 47.12 81.0026C47.16 80.9759 47.2 81.0204 47.2 81.0916C47.2 81.1984 47.1 81.2339 46.85 81.2339C46.55 81.2339 46.5 81.2072 46.5 81.0293Z" fill="#636363"/>
<path d="M53.2 81.0026C53.2 80.8157 53.25 80.789 53.55 80.789C53.95 80.789 54 80.9136 53.68 81.0738C53.31 81.2517 53.2 81.2339 53.2 81.0026Z" fill="#636363"/>
<path d="M49 81.0737C49 81.0381 48.87 80.9581 48.7 80.9047C48.29 80.7712 48.32 80.611 48.75 80.611C49.07 80.611 49.1 80.6288 49.1 80.878C49.1 81.0292 49.08 81.1449 49.05 81.1449C49.02 81.1449 49 81.1093 49 81.0737Z" fill="#636363"/>
<path d="M60.3 80.2995C60.3 80.0148 60.32 79.9881 60.6 79.9881C60.89 79.9881 60.89 79.9881 60.72 80.255C60.47 80.6466 60.3 80.6644 60.3 80.2995Z" fill="#636363"/>
<path d="M44.8 79.908C44.8 79.6677 44.82 79.6588 45.04 79.7478C45.17 79.8012 45.33 79.9258 45.39 80.0059C45.49 80.1483 45.46 80.1661 45.15 80.1661C44.83 80.1661 44.8 80.1394 44.8 79.908Z" fill="#636363"/>
<path d="M46.9 80.086C46.9 80.0326 46.84 79.9881 46.77 79.9881C46.7 79.9881 46.59 79.908 46.52 79.8101C46.41 79.641 46.42 79.6321 46.75 79.6321C47.05 79.6321 47.1 79.6588 47.1 79.8457C47.1 79.9703 47.06 80.0949 47 80.1216C46.95 80.1483 46.9 80.1305 46.9 80.086Z" fill="#636363"/>
<path d="M40.88 79.6855C40.78 79.6232 40.7 79.5253 40.7 79.463C40.7 79.4096 40.66 79.3651 40.6 79.3651C40.55 79.3651 40.5 79.3028 40.5 79.2317C40.5 79.1605 40.45 79.0982 40.39 79.0982C40.34 79.0982 40.32 79.0626 40.35 79.0092C40.45 78.8668 40.9 78.9024 40.9 79.0448C40.9 79.116 40.95 79.1872 41.01 79.205C41.07 79.2227 41.1 79.3651 41.08 79.5164C41.05 79.7656 41.03 79.7834 40.88 79.6855Z" fill="#636363"/>
<path d="M43.1 77.8078C43.1 77.4518 43.34 77.3718 43.44 77.701C43.54 78.0303 43.51 78.1193 43.3 78.1193C43.14 78.1193 43.1 78.057 43.1 77.8078Z" fill="#636363"/>
<path d="M58.1 77.6298C58.1 77.3896 58.14 77.3184 58.28 77.3184C58.55 77.3184 58.59 77.3895 58.47 77.6832C58.31 78.0481 58.1 78.0125 58.1 77.6298Z" fill="#636363"/>
<path d="M62.3 77.4607C62.3 77.176 62.33 77.1404 62.55 77.1404C62.79 77.1404 62.8 77.1493 62.67 77.4251C62.48 77.8345 62.3 77.8523 62.3 77.4607Z" fill="#636363"/>
<path d="M39.27 77.1671C39.21 77.0247 39.11 76.8912 39.05 76.8556C39 76.82 39.1 76.7844 39.28 76.7844C39.58 76.7844 39.6 76.8022 39.6 77.0959C39.6 77.4696 39.44 77.5052 39.27 77.1671Z" fill="#636363"/>
<path d="M44.3 76.998C44.3 76.8111 44.48 76.5174 44.6 76.5174C44.66 76.5174 44.7 76.6598 44.7 76.8289C44.7 77.0781 44.66 77.1404 44.5 77.1404C44.39 77.1404 44.3 77.0781 44.3 76.998Z" fill="#636363"/>
<path d="M59.23 76.5619C59.12 76.2683 59.13 76.2505 59.36 76.2505C59.57 76.2505 59.6 76.295 59.6 76.5619C59.6 76.7577 59.55 76.8734 59.47 76.8734C59.39 76.8734 59.29 76.731 59.23 76.5619Z" fill="#636363"/>
<path d="M38.88 76.3217C38.68 75.9924 38.7 75.8945 38.96 75.8945C39.17 75.8945 39.2 75.939 39.2 76.206C39.2 76.5619 39.06 76.6064 38.88 76.3217Z" fill="#636363"/>
<path d="M55.5 75.7165C55.5 75.5296 55.6 75.5029 55.98 75.5919C56.34 75.6809 56.25 75.8945 55.85 75.8945C55.57 75.8945 55.5 75.8589 55.5 75.7165Z" fill="#636363"/>
<path d="M63.1 75.5919C63.1 75.414 63.15 75.2716 63.2 75.2716C63.26 75.2716 63.3 75.1292 63.3 74.9601C63.3 74.7109 63.34 74.6486 63.5 74.6486C63.74 74.6486 63.74 74.7376 63.56 75.2716C63.49 75.494 63.42 75.7165 63.42 75.761C63.41 75.8144 63.34 75.8589 63.26 75.8767C63.14 75.9034 63.1 75.8322 63.1 75.5919Z" fill="#636363"/>
<path d="M47 75.6809C47 75.5652 47.28 75.4495 47.58 75.4495C47.64 75.4495 47.7 75.5296 47.7 75.6275C47.7 75.7699 47.63 75.8055 47.35 75.8055C47.12 75.8055 47 75.761 47 75.6809Z" fill="#636363"/>
<path d="M44.7 75.1381C44.7 74.9245 44.92 74.8266 45.42 74.8266C45.56 74.8266 45.7 74.7821 45.72 74.7376C45.74 74.6842 45.99 74.6219 46.28 74.5863C46.71 74.5418 46.8 74.5596 46.8 74.6753C46.8 74.7643 46.63 74.8444 46.28 74.9156C45.99 74.9779 45.64 75.0669 45.5 75.1203C45.36 75.1737 45.22 75.2182 45.18 75.2271C45.13 75.2449 45.09 75.2538 45.08 75.2716C45.06 75.2805 44.97 75.2982 44.88 75.316C44.75 75.3338 44.7 75.2893 44.7 75.1381Z" fill="#636363"/>
<path d="M56.88 75.0313C56.55 74.9601 56.68 74.7376 57.05 74.7376C57.33 74.7376 57.4 74.7732 57.4 74.9156C57.4 75.0936 57.26 75.1203 56.88 75.0313Z" fill="#636363"/>
<path d="M47.06 74.7554C47.03 74.7287 47 74.6308 47 74.5418C47 74.4172 47.08 74.3816 47.35 74.3816C47.57 74.3816 47.7 74.4261 47.7 74.4973C47.7 74.613 47.15 74.8444 47.06 74.7554Z" fill="#636363"/>
<path d="M38.26 74.4528C38.16 74.1147 38.19 74.0257 38.4 74.0257C38.56 74.0257 38.6 74.088 38.6 74.3371C38.6 74.6931 38.36 74.7732 38.26 74.4528Z" fill="#636363"/>
<path d="M37.86 71.5161C37.76 71.178 37.79 71.089 38 71.089C38.16 71.089 38.2 71.1513 38.2 71.4005C38.2 71.7564 37.96 71.8365 37.86 71.5161Z" fill="#636363"/>
<path d="M63.5 67.8408C63.5 67.4849 63.74 67.4048 63.84 67.734C63.94 68.0633 63.91 68.1523 63.7 68.1523C63.54 68.1523 63.5 68.09 63.5 67.8408Z" fill="#636363"/>
<path d="M64.9 66.5505C64.9 66.4081 64.97 66.3725 65.25 66.3725C65.65 66.3725 65.74 66.5861 65.38 66.6751C65 66.764 64.9 66.7373 64.9 66.5505Z" fill="#636363"/>
<path d="M36.08 66.5772C35.75 66.506 35.88 66.2835 36.25 66.2835C36.53 66.2835 36.6 66.3191 36.6 66.4615C36.6 66.6395 36.46 66.6662 36.08 66.5772Z" fill="#636363"/>
<path d="M31.88 66.0432C31.55 65.972 31.68 65.7495 32.05 65.7495C32.33 65.7495 32.4 65.7851 32.4 65.9275C32.4 66.1055 32.26 66.1322 31.88 66.0432Z" fill="#636363"/>
<path d="M29.98 65.7762C29.65 65.7051 29.78 65.4826 30.15 65.4826C30.43 65.4826 30.5 65.5182 30.5 65.6606C30.5 65.8385 30.36 65.8652 29.98 65.7762Z" fill="#636363"/>
<path d="M72.3 65.5805C72.3 65.4648 72.36 65.3936 72.48 65.3936C72.57 65.3936 72.89 65.3669 73.18 65.3402C73.61 65.2868 73.7 65.3046 73.7 65.4203C73.7 65.5538 73.58 65.5983 72.73 65.705C72.34 65.7584 72.3 65.7495 72.3 65.5805Z" fill="#636363"/>
<path d="M28.08 65.5093C27.75 65.4381 27.88 65.2156 28.25 65.2156C28.53 65.2156 28.6 65.2512 28.6 65.3936C28.6 65.5716 28.46 65.5983 28.08 65.5093Z" fill="#636363"/>
<path d="M26.18 65.2423C25.85 65.1711 25.98 64.9486 26.35 64.9486C26.63 64.9486 26.7 64.9842 26.7 65.1266C26.7 65.3046 26.56 65.3313 26.18 65.2423Z" fill="#636363"/>
<path d="M25.15 65.1177C25.04 65.0821 24.78 65.0287 24.58 64.9931C24.34 64.9575 24.2 64.8952 24.2 64.8151C24.2 64.6638 24.35 64.6549 25.04 64.735C25.39 64.7795 25.5 64.8329 25.5 64.9575C25.5 65.1622 25.4 65.2067 25.15 65.1177Z" fill="#636363"/>
<path d="M76.1 65.0554C76.1 64.9219 76.19 64.8685 76.56 64.824C77.25 64.7439 77.4 64.7528 77.4 64.8952C77.4 65.0198 77.29 65.0554 76.48 65.18C76.15 65.2245 76.1 65.2156 76.1 65.0554Z" fill="#636363"/>
<path d="M23.18 64.7973C22.85 64.7261 22.98 64.5037 23.35 64.5037C23.63 64.5037 23.7 64.5393 23.7 64.6816C23.7 64.8596 23.56 64.8863 23.18 64.7973Z" fill="#636363"/>
<path d="M79 64.5927C79 64.4503 79.07 64.4147 79.35 64.4147C79.75 64.4147 79.84 64.6283 79.48 64.7172C79.1 64.8062 79 64.7795 79 64.5927Z" fill="#636363"/>
<path d="M83.76 64.0765C83.73 64.0498 83.7 63.9519 83.7 63.8629C83.7 63.7383 83.78 63.7028 84.05 63.7028C84.27 63.7028 84.4 63.7472 84.4 63.8184C84.4 63.9341 83.85 64.1655 83.76 64.0765Z" fill="#636363"/>
<path d="M17.48 63.9341C17.08 63.8095 17.12 63.6138 17.55 63.6138C17.83 63.6138 17.9 63.6494 17.9 63.7828C17.9 64.0142 17.81 64.0498 17.48 63.9341Z" fill="#636363"/>
<path d="M16.28 63.7295C15.95 63.6583 16.08 63.4358 16.45 63.4358C16.73 63.4358 16.8 63.4714 16.8 63.6138C16.8 63.7918 16.66 63.8185 16.28 63.7295Z" fill="#636363"/>
<path d="M85.4 63.6138C85.4 63.4714 85.47 63.4358 85.75 63.4358C86.15 63.4358 86.24 63.6494 85.88 63.7384C85.5 63.8274 85.4 63.8007 85.4 63.6138Z" fill="#636363"/>
<path d="M12.98 63.2222C12.58 63.0976 12.62 62.9018 13.05 62.9018C13.33 62.9018 13.4 62.9374 13.4 63.0709C13.4 63.3023 13.31 63.3379 12.98 63.2222Z" fill="#636363"/>
<path d="M88.2 63.1688C88.2 63.0264 88.27 62.9908 88.55 62.9908C88.95 62.9908 89.04 63.2044 88.68 63.2934C88.3 63.3824 88.2 63.3557 88.2 63.1688Z" fill="#636363"/>
<path d="M89.96 63.0976C89.93 63.0709 89.9 62.973 89.9 62.884C89.9 62.7594 89.98 62.7238 90.25 62.7238C90.47 62.7238 90.6 62.7683 90.6 62.8395C90.6 62.9552 90.05 63.1866 89.96 63.0976Z" fill="#636363"/>
<path d="M11.78 63.0175C11.45 62.9463 11.58 62.7238 11.95 62.7238C12.23 62.7238 12.3 62.7594 12.3 62.9018C12.3 63.0798 12.16 63.1065 11.78 63.0175Z" fill="#636363"/>
<path d="M91 62.7238C91 62.5815 91.07 62.5459 91.35 62.5459C91.75 62.5459 91.84 62.7594 91.48 62.8484C91.1 62.9374 91 62.9107 91 62.7238Z" fill="#636363"/>
<path d="M94.8 62.1009C94.8 61.9585 94.87 61.9229 95.15 61.9229C95.55 61.9229 95.64 62.1365 95.28 62.2255C94.9 62.3145 94.8 62.2878 94.8 62.1009Z" fill="#636363"/>
<path d="M97.46 61.8606C97.27 61.6916 97.42 61.4958 97.78 61.4424C98.36 61.3623 98.6 61.3801 98.6 61.5136C98.6 61.6293 98.16 61.7984 97.97 61.7628C97.93 61.7539 97.81 61.7806 97.71 61.8339C97.61 61.8784 97.5 61.8873 97.46 61.8606Z" fill="#636363"/>
<path d="M99.5 61.3C99.5 61.1576 99.57 61.122 99.85 61.122C100.12 61.122 100.2 61.1576 100.2 61.2822C100.2 61.389 100.11 61.4424 99.85 61.4513C99.56 61.478 99.5 61.4513 99.5 61.3Z" fill="#636363"/>
<path d="M0.979997 61.1042C1.05 60.8639 1.6 60.8817 1.6 61.122C1.6 61.2644 1.54 61.3 1.27 61.2733C0.999997 61.2644 0.939997 61.2199 0.979997 61.1042Z" fill="#636363"/>
<path d="M100.6 59.4757C100.6 59.1197 100.84 59.0396 100.94 59.3689C101.04 59.6982 101.01 59.7872 100.8 59.7872C100.64 59.7872 100.6 59.7249 100.6 59.4757Z" fill="#636363"/>
<path d="M72.1 59.4846C72.1 59.3689 72.38 59.2532 72.68 59.2532C72.74 59.2532 72.8 59.3333 72.8 59.4312C72.8 59.5736 72.73 59.6092 72.45 59.6092C72.22 59.6092 72.1 59.5647 72.1 59.4846Z" fill="#636363"/>
<path d="M66.6 59.3422C66.6 59.1553 66.7 59.1286 67.08 59.2176C67.44 59.3066 67.35 59.5202 66.95 59.5202C66.67 59.5202 66.6 59.4846 66.6 59.3422Z" fill="#636363"/>
<path d="M73.2 59.3956C73.2 59.2799 73.48 59.1642 73.78 59.1642C73.84 59.1642 73.9 59.2443 73.9 59.3422C73.9 59.4846 73.83 59.5202 73.55 59.5202C73.32 59.5202 73.2 59.4757 73.2 59.3956Z" fill="#636363"/>
<path d="M74.1 59.3066C74.1 59.1909 74.38 59.0752 74.68 59.0752C74.74 59.0752 74.8 59.1553 74.8 59.2532C74.8 59.3956 74.73 59.4312 74.45 59.4312C74.22 59.4312 74.1 59.3867 74.1 59.3066Z" fill="#636363"/>
<path d="M26.48 59.2799C26.18 59.2532 26.1 59.2087 26.1 59.0663C26.1 58.8973 26.14 58.8884 26.53 58.9417C27.36 59.0485 27.5 59.093 27.5 59.2176C27.5 59.3422 27.31 59.3511 26.48 59.2799Z" fill="#636363"/>
<path d="M1.1 59.1464C1.1 58.8795 1.23 58.6303 1.36 58.6303C1.45 58.6303 1.5 58.7371 1.5 58.9417C1.5 59.1909 1.46 59.2532 1.3 59.2532C1.19 59.2532 1.1 59.1998 1.1 59.1464Z" fill="#636363"/>
<path d="M65 59.1642C65 59.1197 64.84 59.0752 64.65 59.0752C64.35 59.0752 64.3 59.0485 64.3 58.8616C64.3 58.6392 64.37 58.6303 64.8 58.7816C64.94 58.835 65.2 58.9061 65.38 58.9417C65.82 59.0218 65.81 59.2532 65.35 59.2532C65.16 59.2532 65 59.2176 65 59.1642Z" fill="#636363"/>
<path d="M76.2 59.0396C76.2 58.915 76.31 58.8794 77.13 58.7549C77.45 58.7104 77.5 58.7193 77.5 58.8794C77.5 59.0129 77.41 59.0663 77.04 59.1108C76.35 59.1909 76.2 59.182 76.2 59.0396Z" fill="#636363"/>
<path d="M63.5 58.5235C63.5 58.3633 63.54 58.2743 63.58 58.3188C63.62 58.3722 63.77 58.4612 63.93 58.5146C64.31 58.6659 64.27 58.8083 63.85 58.8083C63.52 58.8083 63.5 58.7905 63.5 58.5235Z" fill="#636363"/>
<path d="M100.5 58.5413C100.5 58.4078 100.43 58.3633 100.23 58.3633C99.75 58.3633 98.9 58.0785 98.9 57.9094C98.9 57.7493 99.13 57.6247 99.25 57.7226C99.29 57.7582 99.36 57.7938 99.41 57.7938C99.46 57.8027 99.52 57.8205 99.55 57.8294C99.58 57.8383 99.65 57.8649 99.7 57.8738C99.76 57.8827 99.82 57.9094 99.85 57.9183C99.88 57.9272 99.93 57.945 99.98 57.9539C100.02 57.9628 100.15 58.0162 100.28 58.0785C100.4 58.1408 100.5 58.1675 100.5 58.1408C100.5 58.123 100.59 58.1675 100.7 58.2476C100.81 58.3366 100.9 58.4701 100.9 58.5591C100.9 58.657 100.82 58.7193 100.7 58.7193C100.57 58.7193 100.5 58.657 100.5 58.5413Z" fill="#636363"/>
<path d="M21.98 58.568C21.78 58.5413 21.7 58.479 21.7 58.3544C21.7 58.1586 21.73 58.1497 22.4 58.2832C22.71 58.3455 22.9 58.4256 22.9 58.5057C22.9 58.6303 22.6 58.6481 21.98 58.568Z" fill="#636363"/>
<path d="M31.38 58.568C31.05 58.4968 31.18 58.2743 31.55 58.2743C31.83 58.2743 31.9 58.3099 31.9 58.4523C31.9 58.6303 31.76 58.657 31.38 58.568Z" fill="#636363"/>
<path d="M32.7 58.4523C32.7 58.3099 32.77 58.2743 33.05 58.2743C33.45 58.2743 33.54 58.4879 33.18 58.5769C32.8 58.6659 32.7 58.6392 32.7 58.4523Z" fill="#636363"/>
<path d="M68.78 58.568C68.45 58.4968 68.58 58.2743 68.95 58.2743C69.23 58.2743 69.3 58.3099 69.3 58.4523C69.3 58.6303 69.16 58.657 68.78 58.568Z" fill="#636363"/>
<path d="M29.68 58.479C29.35 58.4078 29.48 58.1853 29.85 58.1853C30.13 58.1853 30.2 58.2209 30.2 58.3633C30.2 58.5413 30.06 58.568 29.68 58.479Z" fill="#636363"/>
<path d="M34.3 58.3633C34.3 58.2209 34.37 58.1853 34.65 58.1853C35.05 58.1853 35.14 58.3989 34.78 58.4879C34.4 58.5769 34.3 58.5502 34.3 58.3633Z" fill="#636363"/>
<path d="M28.68 58.39C28.35 58.3188 28.48 58.0963 28.85 58.0963C29.13 58.0963 29.2 58.1319 29.2 58.2743C29.2 58.4523 29.06 58.479 28.68 58.39Z" fill="#636363"/>
<path d="M66.68 58.39C66.35 58.3188 66.48 58.0963 66.85 58.0963C67.13 58.0963 67.2 58.1319 67.2 58.2743C67.2 58.4523 67.06 58.479 66.68 58.39Z" fill="#636363"/>
<path d="M1.92 58.2565C1.95 58.1942 2.11 58.0963 2.28 58.034C2.59 57.9183 2.6 57.9272 2.6 58.1408C2.6 58.3366 2.56 58.3633 2.24 58.3633C2.01 58.3633 1.9 58.3277 1.92 58.2565Z" fill="#636363"/>
<path d="M35.7 58.2031C35.7 58.034 36.07 57.9184 36.68 57.9184C36.95 57.9184 37 58.2298 36.73 58.2387C36.63 58.2387 36.36 58.2743 36.13 58.3099C35.74 58.3722 35.7 58.3633 35.7 58.2031Z" fill="#636363"/>
<path d="M62.5 58.1586C62.5 57.8561 62.59 57.8205 62.83 58.0073C62.94 58.1052 63.07 58.1586 63.12 58.1319C63.16 58.1052 63.2 58.1497 63.2 58.2209C63.2 58.3277 63.1 58.3633 62.85 58.3633C62.55 58.3633 62.5 58.3366 62.5 58.1586Z" fill="#636363"/>
<path d="M20.1 58.0963C20.1 57.9094 20.2 57.8827 20.58 57.9717C20.94 58.0607 20.85 58.2743 20.45 58.2743C20.17 58.2743 20.1 58.2387 20.1 58.0963Z" fill="#636363"/>
<path d="M82.1 58.0607C82.1 57.9362 82.21 57.9006 83.03 57.776C83.35 57.7315 83.4 57.7404 83.4 57.9006C83.4 58.034 83.31 58.0874 82.94 58.1319C82.25 58.212 82.1 58.2031 82.1 58.0607Z" fill="#636363"/>
<path d="M25.68 58.034C25.35 57.9628 25.48 57.7404 25.85 57.7404C26.13 57.7404 26.2 57.776 26.2 57.9183C26.2 58.0963 26.06 58.123 25.68 58.034Z" fill="#636363"/>
<path d="M18.3 57.8294C18.3 57.6425 18.4 57.6158 18.78 57.7048C19.14 57.7938 19.05 58.0073 18.65 58.0073C18.37 58.0073 18.3 57.9717 18.3 57.8294Z" fill="#636363"/>
<path d="M3.5 57.7938C3.5 57.7137 3.69 57.6336 4 57.5713C4.67 57.4467 4.7 57.4467 4.7 57.6425C4.7 57.7671 4.6 57.8205 4.33 57.865C3.73 57.945 3.5 57.9272 3.5 57.7938Z" fill="#636363"/>
<path d="M24.58 57.8561C24.25 57.7849 24.38 57.5624 24.75 57.5624C25.03 57.5624 25.1 57.598 25.1 57.7404C25.1 57.9183 24.96 57.945 24.58 57.8561Z" fill="#636363"/>
<path d="M77.4 57.7404C77.4 57.598 77.47 57.5624 77.75 57.5624C78.15 57.5624 78.24 57.776 77.88 57.865C77.5 57.9539 77.4 57.9272 77.4 57.7404Z" fill="#636363"/>
<path d="M84 57.7938C84 57.6692 84.14 57.6247 84.98 57.5179C85.35 57.4645 85.4 57.4734 85.4 57.6336C85.4 57.776 85.31 57.8116 84.88 57.865C84.12 57.945 84 57.9361 84 57.7938Z" fill="#636363"/>
<path d="M16.2 57.5624C16.2 57.3755 16.3 57.3488 16.68 57.4378C17.04 57.5268 16.95 57.7404 16.55 57.7404C16.27 57.7404 16.2 57.7048 16.2 57.5624Z" fill="#636363"/>
<path d="M38.3 57.5179C38.3 57.3221 38.34 57.2954 38.65 57.2954C38.93 57.2954 39 57.2598 39 57.1174C39 56.975 39.07 56.9394 39.35 56.9394C39.68 56.9394 39.69 56.9483 39.58 57.1174C39.51 57.2153 39.4 57.2954 39.33 57.2954C39.26 57.2954 39.2 57.3399 39.2 57.3844C39.2 57.4378 39.17 57.4645 39.13 57.4556C39.08 57.4467 38.91 57.509 38.73 57.5891C38.32 57.7849 38.3 57.7849 38.3 57.5179Z" fill="#636363"/>
<path d="M5 57.5268C5 57.4111 5.28 57.2954 5.58 57.2954C5.64 57.2954 5.7 57.3755 5.7 57.4734C5.7 57.6158 5.63 57.6514 5.35 57.6514C5.12 57.6514 5 57.6069 5 57.5268Z" fill="#636363"/>
<path d="M14.3 57.3844C14.3 57.1975 14.4 57.1708 14.78 57.2598C15.14 57.3488 15.05 57.5624 14.65 57.5624C14.37 57.5624 14.3 57.5268 14.3 57.3844Z" fill="#636363"/>
<path d="M22.27 57.5001C22.18 57.4289 20.27 57.1263 20.18 57.1797C20.13 57.1975 20.1 57.1352 20.1 57.0373C20.1 56.806 20.17 56.806 21.48 57.0018C22.31 57.1263 22.5 57.1886 22.5 57.3132C22.5 57.4734 22.36 57.5891 22.27 57.5001Z" fill="#636363"/>
<path d="M96 57.3844C96 57.1975 96.1 57.1708 96.48 57.2598C96.84 57.3488 96.75 57.5624 96.35 57.5624C96.07 57.5624 96 57.5268 96 57.3844Z" fill="#636363"/>
<path d="M6.8 57.3488C6.8 57.2331 7.08 57.1174 7.38 57.1174C7.44 57.1174 7.5 57.1975 7.5 57.2954C7.5 57.4378 7.43 57.4734 7.15 57.4734C6.92 57.4734 6.8 57.4289 6.8 57.3488Z" fill="#636363"/>
<path d="M13.1 57.2954C13.1 57.1085 13.2 57.0818 13.58 57.1708C13.94 57.2598 13.85 57.4734 13.45 57.4734C13.17 57.4734 13.1 57.4378 13.1 57.2954Z" fill="#636363"/>
<path d="M8.3 57.2598C8.3 57.1441 8.58 57.0284 8.88 57.0284C8.94 57.0284 9 57.1085 9 57.2064C9 57.3488 8.93 57.3844 8.65 57.3844C8.42 57.3844 8.3 57.3399 8.3 57.2598Z" fill="#636363"/>
<path d="M100.24 57.3043C100.21 57.2776 100.15 57.2509 100.12 57.2509C100.08 57.242 99.96 57.1975 99.85 57.153C99.74 57.0996 99.32 56.9839 98.93 56.8949C98.46 56.7971 98.2 56.6992 98.2 56.6191C98.2 56.5479 98.3 56.4945 98.44 56.4945C98.81 56.4945 99.7 56.6903 99.7 56.7793C99.7 56.8149 99.84 56.8504 100.01 56.8504C100.32 56.8504 100.32 56.8415 100.27 56.5212C100.08 55.4711 100.07 55.1596 100.23 55.1596C100.38 55.1596 100.48 55.4088 100.56 55.9605C100.58 56.1296 100.62 56.3966 100.64 56.539C100.73 57.1174 100.51 57.5357 100.24 57.3043Z" fill="#636363"/>
<path d="M61 56.9839C61 56.6102 61.22 56.6369 61.44 57.0373C61.58 57.2954 61.58 57.2954 61.29 57.2954C61.03 57.2954 61 57.2687 61 56.9839Z" fill="#636363"/>
<path d="M62.86 57.1619C62.83 57.0907 62.75 57.0284 62.68 57.0284C62.61 57.0284 62.49 56.9483 62.42 56.8505C62.31 56.6814 62.32 56.6725 62.65 56.6725C62.98 56.6725 63 56.6903 63 56.9839C63 57.3221 62.96 57.3755 62.86 57.1619Z" fill="#636363"/>
<path d="M81 57.1174C81 56.975 81.07 56.9394 81.35 56.9394C81.75 56.9394 81.84 57.153 81.48 57.242C81.1 57.331 81 57.3043 81 57.1174Z" fill="#636363"/>
<path d="M2.7 56.8505C2.7 56.7081 2.77 56.6725 3.05 56.6725C3.45 56.6725 3.54 56.8861 3.18 56.975C2.8 57.064 2.7 57.0373 2.7 56.8505Z" fill="#636363"/>
<path d="M4.5 56.5123C4.5 56.3788 4.59 56.3254 4.96 56.2809C5.65 56.2008 5.8 56.2097 5.8 56.3521C5.8 56.4767 5.69 56.5123 4.88 56.6369C4.55 56.6814 4.5 56.6725 4.5 56.5123Z" fill="#636363"/>
<path d="M16.18 56.6102C15.85 56.539 15.98 56.3165 16.35 56.3165C16.63 56.3165 16.7 56.3521 16.7 56.4945C16.7 56.6725 16.56 56.6992 16.18 56.6102Z" fill="#636363"/>
<path d="M96.08 56.4322C95.75 56.361 95.88 56.1385 96.25 56.1385C96.53 56.1385 96.6 56.1741 96.6 56.3165C96.6 56.4945 96.46 56.5212 96.08 56.4322Z" fill="#636363"/>
<path d="M13.08 56.3432C12.75 56.272 12.88 56.0495 13.25 56.0495C13.53 56.0495 13.6 56.0851 13.6 56.2275C13.6 56.4055 13.46 56.4322 13.08 56.3432Z" fill="#636363"/>
<path d="M95.08 56.3432C94.75 56.272 94.88 56.0495 95.25 56.0495C95.53 56.0495 95.6 56.0851 95.6 56.2275C95.6 56.4055 95.46 56.4322 95.08 56.3432Z" fill="#636363"/>
<path d="M8.5 56.1385C8.5 55.9961 8.57 55.9605 8.85 55.9605C9.25 55.9605 9.34 56.1741 8.98 56.2631C8.6 56.3521 8.5 56.3254 8.5 56.1385Z" fill="#636363"/>
<path d="M11.18 56.2542C10.85 56.183 10.98 55.9605 11.35 55.9605C11.63 55.9605 11.7 55.9961 11.7 56.1385C11.7 56.3165 11.56 56.3432 11.18 56.2542Z" fill="#636363"/>
<path d="M90.8 56.1385C90.8 55.9961 90.87 55.9605 91.15 55.9605C91.55 55.9605 91.64 56.1741 91.28 56.2631C90.9 56.3521 90.8 56.3254 90.8 56.1385Z" fill="#636363"/>
<path d="M93.38 56.2542C93.05 56.183 93.18 55.9605 93.55 55.9605C93.83 55.9605 93.9 55.9961 93.9 56.1385C93.9 56.3165 93.76 56.3432 93.38 56.2542Z" fill="#636363"/>
<path d="M42.13 55.4978C42.32 55.0884 42.5 55.0706 42.5 55.4622C42.5 55.747 42.47 55.7826 42.25 55.7826C42.01 55.7826 42 55.7737 42.13 55.4978Z" fill="#636363"/>
<path d="M99.9 54.4032C99.9 54.0472 100.14 53.9672 100.24 54.2964C100.34 54.6257 100.31 54.7147 100.1 54.7147C99.94 54.7147 99.9 54.6524 99.9 54.4032Z" fill="#636363"/>
<path d="M59.36 54.4299C59.33 54.3142 59.3 54.1096 59.3 53.9761C59.3 53.7803 59.34 53.7269 59.48 53.7536C59.57 53.7714 59.66 53.8337 59.66 53.896C59.67 53.9494 59.69 54.0206 59.7 54.0473C59.71 54.074 59.74 54.1362 59.75 54.1807C59.76 54.2341 59.78 54.2786 59.8 54.2964C59.81 54.3053 59.83 54.3854 59.85 54.4744C59.9 54.7147 59.44 54.6791 59.36 54.4299Z" fill="#636363"/>
<path d="M60.68 54.3409C60.61 54.2252 60.55 54.1095 60.54 54.0739C60.53 54.0294 60.52 53.9938 60.5 53.985C60.49 53.9672 60.46 53.8248 60.44 53.6735C60.4 53.4332 60.42 53.3798 60.58 53.3798C60.71 53.3798 60.8 53.4777 60.88 53.7269C61.11 54.3854 60.97 54.8037 60.68 54.3409Z" fill="#636363"/>
<path d="M99.62 53.1751C99.45 52.3831 99.46 52.2229 99.68 52.2229C99.78 52.2229 99.86 52.2941 99.87 52.3831C99.88 52.4632 99.91 52.6412 99.94 52.7836C99.97 52.9171 100.01 53.1128 100.03 53.2285C100.06 53.3353 100.09 53.4866 100.11 53.5578C100.13 53.6379 100.07 53.7002 99.94 53.718C99.76 53.7447 99.72 53.6735 99.62 53.1751Z" fill="#636363"/>
<path d="M43.14 52.6946C43.28 51.9649 43.32 51.867 43.46 51.867C43.62 51.867 43.63 52.0005 43.54 52.6145C43.49 52.9438 43.43 53.0239 43.28 53.0239C43.1 53.0239 43.09 52.9794 43.14 52.6946Z" fill="#636363"/>
<path d="M38.61 52.3119C38.47 51.7157 38.47 51.689 38.69 51.689C38.87 51.689 39 52.0361 39 52.5611C39 52.9527 38.72 52.7658 38.61 52.3119Z" fill="#636363"/>
<path d="M62.5 52.3564C62.5 52.1072 62.54 52.045 62.7 52.045C62.91 52.045 62.94 52.1339 62.84 52.4721C62.74 52.7925 62.5 52.7124 62.5 52.3564Z" fill="#636363"/>
<path d="M42 52.1784C42 51.9293 42.04 51.867 42.2 51.867C42.41 51.867 42.44 51.956 42.34 52.2941C42.24 52.6145 42 52.5344 42 52.1784Z" fill="#636363"/>
<path d="M58.8 52.0895C58.8 51.8937 58.85 51.778 58.93 51.778C59.01 51.778 59.11 51.9204 59.17 52.0895C59.28 52.3831 59.27 52.4009 59.04 52.4009C58.83 52.4009 58.8 52.3564 58.8 52.0895Z" fill="#636363"/>
<path d="M30.4 52.1695C30.4 51.9827 30.58 51.689 30.7 51.689C30.76 51.689 30.8 51.8314 30.8 52.0005C30.8 52.2496 30.76 52.3119 30.6 52.3119C30.49 52.3119 30.4 52.2496 30.4 52.1695Z" fill="#636363"/>
<path d="M63.82 52.0717C63.83 51.9293 63.87 51.8047 63.9 51.778C63.93 51.7513 64.04 51.5822 64.14 51.4042C64.25 51.2173 64.37 51.0661 64.42 51.0661C64.56 51.0661 64.51 51.6712 64.35 51.8136C64.27 51.8848 64.2 52.0272 64.2 52.125C64.2 52.2585 64.14 52.3119 63.99 52.3119C63.83 52.3119 63.79 52.2674 63.82 52.0717Z" fill="#636363"/>
<path d="M71.96 52.1162C71.86 51.778 71.89 51.689 72.1 51.689C72.26 51.689 72.3 51.7513 72.3 52.0005C72.3 52.3564 72.06 52.4365 71.96 52.1162Z" fill="#636363"/>
<path d="M62.7 51.6445C62.7 51.3775 62.73 51.333 62.94 51.333C63.18 51.333 63.19 51.3597 63.05 51.7602C62.93 52.0805 62.7 52.0005 62.7 51.6445Z" fill="#636363"/>
<path d="M42.1 51.0661C42.1 50.6834 42.33 50.5588 42.43 50.8881C42.5 51.1372 42.4 51.422 42.24 51.422C42.14 51.422 42.1 51.3063 42.1 51.0661Z" fill="#636363"/>
<path d="M71.55 51.155C71.58 51.1106 71.56 51.0661 71.51 51.0661C71.45 51.0661 71.4 51.0038 71.4 50.9326C71.4 50.8525 71.3 50.7012 71.18 50.5855C71.05 50.4698 70.89 50.2918 70.82 50.185C70.71 50.0071 70.72 49.9982 71 49.9982C71.28 49.9982 71.3 50.0249 71.3 50.3096C71.3 50.5855 71.33 50.6211 71.55 50.6211C71.77 50.6211 71.8 50.6567 71.8 50.9326C71.8 51.155 71.76 51.244 71.64 51.244C71.56 51.244 71.52 51.2084 71.55 51.155Z" fill="#636363"/>
<path d="M99.02 50.7902C98.86 50.1939 98.87 49.9092 99.04 49.9092C99.12 49.9092 99.24 50.1227 99.34 50.4876C99.54 51.2084 99.54 51.244 99.32 51.244C99.18 51.244 99.11 51.1283 99.02 50.7902Z" fill="#636363"/>
<path d="M63.2 50.7546C63.2 50.4609 63.22 50.4431 63.55 50.4431C63.89 50.4431 63.89 50.4431 63.65 50.6745C63.51 50.808 63.4 50.9504 63.4 50.986C63.4 51.0305 63.36 51.0661 63.3 51.0661C63.25 51.0661 63.2 50.9237 63.2 50.7546Z" fill="#636363"/>
<path d="M35.6 50.2206C35.6 49.9537 35.63 49.9537 36.01 50.1494C36.39 50.3541 36.38 50.4431 35.95 50.4431C35.64 50.4431 35.6 50.4164 35.6 50.2206Z" fill="#636363"/>
<path d="M69 50.2206C69 49.9537 69.03 49.9537 69.41 50.1494C69.79 50.3541 69.78 50.4431 69.35 50.4431C69.04 50.4431 69 50.4164 69 50.2206Z" fill="#636363"/>
<path d="M37.15 49.9715C37.04 49.9092 36.91 49.8113 36.87 49.7579C36.83 49.6956 36.74 49.6422 36.69 49.6422C36.58 49.6422 36.3 49.4197 36.3 49.3396C36.3 49.3129 36.46 49.2862 36.65 49.2862C36.89 49.2862 37 49.3307 37 49.4197C37 49.4909 37.09 49.5532 37.2 49.5532C37.36 49.5532 37.4 49.6155 37.4 49.8202C37.4 49.9715 37.39 50.0872 37.38 50.0783C37.36 50.0783 37.26 50.0249 37.15 49.9715Z" fill="#636363"/>
<path d="M33.3 49.8736C33.3 49.7579 33.58 49.6422 33.88 49.6422C33.94 49.6422 34 49.7223 34 49.8202C34 49.9626 33.93 49.9982 33.65 49.9982C33.42 49.9982 33.3 49.9537 33.3 49.8736Z" fill="#636363"/>
<path d="M34.1 49.8202C34.1 49.6333 34.2 49.6066 34.58 49.6956C34.94 49.7846 34.85 49.9982 34.45 49.9982C34.17 49.9982 34.1 49.9626 34.1 49.8202Z" fill="#636363"/>
<path d="M66.7 49.8736C66.7 49.7579 66.98 49.6422 67.28 49.6422C67.34 49.6422 67.4 49.7223 67.4 49.8202C67.4 49.9626 67.33 49.9982 67.05 49.9982C66.82 49.9982 66.7 49.9537 66.7 49.8736Z" fill="#636363"/>
<path d="M70.3 49.8291C70.3 49.7757 70.17 49.6689 70 49.5799C69.61 49.3752 69.62 49.2862 70.05 49.2862C70.38 49.2862 70.4 49.304 70.4 49.5977C70.4 49.7668 70.38 49.9092 70.35 49.9092C70.32 49.9092 70.3 49.8736 70.3 49.8291Z" fill="#636363"/>
<path d="M58.9 49.5087C58.9 49.2595 58.94 49.1973 59.1 49.1973C59.31 49.1973 59.34 49.2862 59.24 49.6244C59.14 49.9448 58.9 49.8647 58.9 49.5087Z" fill="#636363"/>
<path d="M3.1 49.3574C3.1 49.0905 3.23 48.8413 3.36 48.8413C3.45 48.8413 3.5 48.9481 3.5 49.1527C3.5 49.4019 3.46 49.4642 3.3 49.4642C3.19 49.4642 3.1 49.4108 3.1 49.3574Z" fill="#636363"/>
<path d="M43.06 49.2684C42.96 48.9303 42.99 48.8413 43.2 48.8413C43.36 48.8413 43.4 48.9036 43.4 49.1527C43.4 49.5087 43.16 49.5888 43.06 49.2684Z" fill="#636363"/>
<path d="M65.2 49.1528C65.2 48.957 65.24 48.9303 65.56 48.9303C66 48.9303 65.98 49.0905 65.52 49.2595C65.21 49.3752 65.2 49.3663 65.2 49.1528Z" fill="#636363"/>
<path d="M98.5 48.8858C98.5 48.7167 98.46 48.5743 98.4 48.5743C98.35 48.5743 98.3 48.4319 98.3 48.2628C98.3 47.7556 98.55 47.8802 98.73 48.4853C98.94 49.1616 98.94 49.1972 98.7 49.1972C98.54 49.1972 98.5 49.135 98.5 48.8858Z" fill="#636363"/>
<path d="M59.2 48.6188C59.2 48.3518 59.23 48.3073 59.44 48.3073C59.7 48.3073 59.72 48.4052 59.52 48.7345C59.34 49.0193 59.2 48.9748 59.2 48.6188Z" fill="#636363"/>
<path d="M42.37 47.6933C42.15 47.3551 42.15 47.3284 42.45 47.3284C42.67 47.3284 42.7 47.364 42.7 47.6399C42.7 48.0226 42.6 48.0315 42.37 47.6933Z" fill="#636363"/>
<path d="M59.7 47.6399C59.7 47.4263 59.75 47.3284 59.85 47.3284C59.94 47.3284 60 47.2483 60 47.106C60 46.9191 60.05 46.8835 60.3 46.8835C60.6 46.8835 60.6 46.8835 60.25 47.364C60.06 47.6221 59.94 47.8624 59.97 47.898C60.01 47.9247 59.96 47.9514 59.87 47.9514C59.74 47.9514 59.7 47.8713 59.7 47.6399Z" fill="#636363"/>
<path d="M98 47.4174C98 47.1683 98.02 47.1505 98.2 47.2394C98.31 47.2928 98.4 47.4174 98.4 47.5064C98.4 47.6221 98.33 47.6844 98.2 47.6844C98.04 47.6844 98 47.6221 98 47.4174Z" fill="#636363"/>
<path d="M41.88 47.0259C41.78 46.9636 41.7 46.8657 41.7 46.8123C41.7 46.7589 41.62 46.6699 41.53 46.6254C41.38 46.5542 41.42 46.5364 41.73 46.5275C42.09 46.5275 42.1 46.5364 42.1 46.839C42.1 47.195 42.11 47.1861 41.88 47.0259Z" fill="#636363"/>
<path d="M40.2 46.928C40.2 46.8568 40.13 46.7945 40.05 46.7945C39.95 46.7945 39.9 46.7055 39.9 46.5275C39.9 46.2605 39.9 46.2605 40.15 46.4029C40.29 46.483 40.5 46.6699 40.61 46.8034C40.81 47.0615 40.81 47.0615 40.51 47.0615C40.3 47.0615 40.2 47.017 40.2 46.928Z" fill="#636363"/>
<path d="M49.4 46.5275C49.4 46.3406 49.56 46.305 49.98 46.4029C50.37 46.5008 50.25 46.7055 49.8 46.7055C49.47 46.7055 49.4 46.6788 49.4 46.5275Z" fill="#636363"/>
<path d="M51.1 46.5809C51.1 46.4652 51.38 46.3495 51.68 46.3495C51.74 46.3495 51.8 46.4296 51.8 46.5275C51.8 46.6699 51.73 46.7055 51.45 46.7055C51.22 46.7055 51.1 46.661 51.1 46.5809Z" fill="#636363"/>
<path d="M47.4 46.2605C47.4 46.0737 47.5 46.047 47.88 46.136C48.24 46.225 48.15 46.4385 47.75 46.4385C47.47 46.4385 47.4 46.4029 47.4 46.2605Z" fill="#636363"/>
<path d="M4.12 46.1716C4.25 45.9936 4.7 45.9224 4.7 46.0826C4.7 46.1894 4.37 46.3495 4.16 46.3495C4.02 46.3495 4.02 46.3228 4.12 46.1716Z" fill="#636363"/>
<path d="M94.9 46.2161C94.9 46.1271 94.79 46.0826 94.55 46.0826C94.31 46.0826 94.2 46.0381 94.2 45.9491C94.2 45.8601 94.09 45.8156 93.85 45.8156C93.66 45.8156 93.5 45.78 93.5 45.7266C93.5 45.6821 93.39 45.6376 93.25 45.6376C93.05 45.6376 93 45.5931 93 45.4151C93 45.1927 93 45.1927 93.53 45.3795C93.81 45.4863 94.11 45.5753 94.18 45.5753C94.24 45.5753 94.3 45.6109 94.3 45.6465C94.3 45.6999 94.72 45.8334 94.86 45.8067C94.9 45.8067 94.96 45.8334 94.99 45.8779C95.02 45.9224 95.17 46.0025 95.33 46.0559C95.71 46.2072 95.67 46.3495 95.25 46.3495C95.01 46.3495 94.9 46.305 94.9 46.2161Z" fill="#636363"/>
<path d="M5.3 45.7533C5.3 45.4774 5.32 45.4596 5.65 45.4596C6.07 45.4596 6.11 45.602 5.73 45.7533C5.57 45.8067 5.42 45.8957 5.38 45.9491C5.34 45.9936 5.3 45.9046 5.3 45.7533Z" fill="#636363"/>
<path d="M45.5 45.6821C45.5 45.4685 45.51 45.4596 45.82 45.5753C46.28 45.7444 46.3 45.9046 45.86 45.9046C45.54 45.9046 45.5 45.8779 45.5 45.6821Z" fill="#636363"/>
<path d="M4.34 45.6198C4.37 45.424 4.6 45.1037 4.7 45.1037C4.76 45.1037 4.8 45.2461 4.8 45.4151C4.8 45.6821 4.77 45.7266 4.56 45.7266C4.42 45.7266 4.33 45.6821 4.34 45.6198Z" fill="#636363"/>
<path d="M40.2 45.3706C39.85 45.1126 39.85 45.1126 40.23 45.1037C40.58 45.1037 40.6 45.1215 40.6 45.3706C40.6 45.5219 40.59 45.6376 40.57 45.6376C40.56 45.6376 40.39 45.5219 40.2 45.3706Z" fill="#636363"/>
<path d="M96.1 45.5664C96.1 45.5308 95.97 45.4507 95.8 45.3973C95.39 45.2639 95.42 45.1037 95.85 45.1037C96.17 45.1037 96.2 45.1215 96.2 45.3706C96.2 45.5219 96.18 45.6376 96.15 45.6376C96.12 45.6376 96.1 45.602 96.1 45.5664Z" fill="#636363"/>
<path d="M52 45.3706C52 45.2283 52.07 45.1927 52.35 45.1927C52.75 45.1927 52.84 45.4062 52.48 45.4952C52.1 45.5842 52 45.5575 52 45.3706Z" fill="#636363"/>
<path d="M48.08 45.3973C47.75 45.3261 47.88 45.1037 48.25 45.1037C48.53 45.1037 48.6 45.1393 48.6 45.2816C48.6 45.4596 48.46 45.4863 48.08 45.3973Z" fill="#636363"/>
<path d="M97.1 44.9702C97.1 44.6142 97.24 44.5697 97.42 44.8634C97.62 45.1838 97.6 45.2816 97.34 45.2816C97.13 45.2816 97.1 45.2372 97.1 44.9702Z" fill="#636363"/>
<path d="M7.6 44.7922C7.6 44.5964 7.64 44.5697 7.96 44.5697C8.4 44.5697 8.38 44.7299 7.92 44.899C7.61 45.0147 7.6 45.0058 7.6 44.7922Z" fill="#636363"/>
<path d="M90.7 44.6231C90.7 44.3917 90.81 44.3739 91.18 44.5519C91.5 44.7121 91.45 44.8367 91.05 44.8367C90.75 44.8367 90.7 44.81 90.7 44.6231Z" fill="#636363"/>
<path d="M93.01 44.3651C92.35 44.1248 92.24 43.9468 92.74 43.9468C92.94 43.9468 93.1 43.9913 93.1 44.0358C93.1 44.0892 93.21 44.1248 93.35 44.1248C93.55 44.1248 93.6 44.1693 93.6 44.3473C93.6 44.4718 93.59 44.5697 93.58 44.5697C93.56 44.5608 93.31 44.4718 93.01 44.3651Z" fill="#636363"/>
<path d="M12.1 44.3917C12.1 44.3027 12.46 44.0981 12.68 44.0714C12.75 44.0625 12.8 44.1426 12.8 44.2672C12.8 44.454 12.75 44.4807 12.45 44.4807C12.26 44.4807 12.1 44.4451 12.1 44.3917Z" fill="#636363"/>
<path d="M63.66 44.4184C63.63 44.3828 63.6 44.2672 63.6 44.1515C63.6 43.9735 63.65 43.9468 63.95 43.9468C64.14 43.9468 64.3 43.9913 64.3 44.0358C64.3 44.0892 64.26 44.1248 64.22 44.1248C64.17 44.1248 64.04 44.2049 63.93 44.2939C63.81 44.3917 63.69 44.4451 63.66 44.4184Z" fill="#636363"/>
<path d="M88.73 44.1871C88.01 43.9735 87.8 43.8756 87.8 43.7421C87.8 43.6086 87.86 43.5908 88.13 43.6264C88.3 43.6442 88.46 43.6709 88.48 43.6798C88.49 43.6976 88.55 43.7154 88.6 43.7243C88.66 43.7332 88.72 43.7599 88.75 43.7688C88.78 43.7777 88.85 43.8044 88.9 43.8133C88.96 43.8222 89.02 43.8489 89.05 43.8578C89.08 43.8667 89.15 43.8934 89.2 43.9023C89.26 43.9112 89.32 43.9379 89.35 43.9468C89.38 43.9557 89.45 43.9824 89.5 43.9913C89.56 44.0002 89.62 44.0269 89.65 44.0358C89.68 44.0447 89.73 44.0625 89.78 44.0714C89.96 44.107 90.3 44.3206 90.3 44.3917C90.3 44.5519 89.66 44.4718 88.73 44.1871Z" fill="#636363"/>
<path d="M43.94 43.9023C43.82 43.8311 43.7 43.8044 43.66 43.8311C43.63 43.8578 43.6 43.8222 43.6 43.7421C43.6 43.6264 43.69 43.5908 43.95 43.5908C44.26 43.5908 44.3 43.6175 44.3 43.8133C44.3 44.0714 44.23 44.0892 43.94 43.9023Z" fill="#636363"/>
<path d="M10.6 43.7243C10.6 43.5285 10.64 43.5018 10.96 43.5018C11.4 43.5018 11.38 43.662 10.92 43.8311C10.61 43.9468 10.6 43.9379 10.6 43.7243Z" fill="#636363"/>
<path d="M91.53 43.8578C91.4 43.8133 91.3 43.8044 91.3 43.84C91.3 43.9201 91.1 43.6531 91.1 43.573C91.1 43.5285 91.26 43.5018 91.45 43.5018C91.76 43.5018 91.8 43.5285 91.8 43.7243C91.8 43.8489 91.79 43.9468 91.78 43.9379C91.76 43.9379 91.65 43.9023 91.53 43.8578Z" fill="#636363"/>
<path d="M67.52 43.662C67.55 43.5997 67.71 43.5018 67.88 43.4395C68.19 43.3239 68.2 43.3328 68.2 43.5463C68.2 43.7421 68.16 43.7688 67.84 43.7688C67.61 43.7688 67.5 43.7332 67.52 43.662Z" fill="#636363"/>
<path d="M14.9 43.5641C14.9 43.4929 15.15 43.3773 15.5 43.2972C16.26 43.1103 16.3 43.1103 16.3 43.3239C16.3 43.4662 16.23 43.5018 15.95 43.5018C15.76 43.5018 15.6 43.5463 15.6 43.5908C15.6 43.6442 15.44 43.6798 15.25 43.6798C15.02 43.6798 14.9 43.6353 14.9 43.5641Z" fill="#636363"/>
<path d="M11.7 43.3772C11.7 43.1548 11.91 43.0569 12.43 43.0569C12.85 43.0569 12.71 43.2527 12.17 43.4306C11.7 43.5908 11.7 43.5908 11.7 43.3772Z" fill="#636363"/>
<path d="M33.4 43.2882C33.4 43.0569 33.51 43.0391 33.88 43.2171C34.2 43.3772 34.15 43.5018 33.75 43.5018C33.45 43.5018 33.4 43.4751 33.4 43.2882Z" fill="#636363"/>
<path d="M68.3 43.4128C68.3 43.3417 68.64 43.1281 68.83 43.0925C68.87 43.0836 68.92 43.0658 68.95 43.0569C68.98 43.048 69.05 43.0213 69.1 43.0124C69.16 43.0035 69.22 42.9768 69.25 42.9679C69.28 42.959 69.34 42.9412 69.39 42.9323C69.44 42.9323 69.51 42.8967 69.55 42.8611C69.67 42.7632 69.9 42.8878 69.9 43.048C69.9 43.1548 69.74 43.2438 69.37 43.3506C68.77 43.5196 68.3 43.5463 68.3 43.4128Z" fill="#636363"/>
<path d="M90.04 43.4217C90.01 43.395 89.94 43.3595 89.89 43.3595C89.84 43.3506 89.78 43.3328 89.75 43.3239C89.72 43.315 89.67 43.2972 89.63 43.2883C89.58 43.2794 89.45 43.226 89.33 43.1637C88.8 42.9056 89.27 42.781 90.01 42.9857C90.31 43.0569 90.4 43.1281 90.4 43.2794C90.4 43.4573 90.18 43.5463 90.04 43.4217Z" fill="#636363"/>
<path d="M36.13 43.1904C35.7 43.0302 35.71 42.8789 36.15 42.8789C36.46 42.8789 36.5 42.9056 36.5 43.1014C36.5 43.226 36.49 43.3239 36.48 43.3239C36.46 43.315 36.3 43.2616 36.13 43.1904Z" fill="#636363"/>
<path d="M85.4 43.1459C85.4 42.959 85.5 42.9323 85.88 43.0213C86.24 43.1103 86.15 43.3239 85.75 43.3239C85.47 43.3239 85.4 43.2883 85.4 43.1459Z" fill="#636363"/>
<path d="M32.2 42.9679C32.2 42.781 32.3 42.7543 32.68 42.8433C33.04 42.9323 32.95 43.1459 32.55 43.1459C32.27 43.1459 32.2 43.1103 32.2 42.9679Z" fill="#636363"/>
<path d="M66.6 42.8344C66.6 42.6564 66.65 42.6119 66.85 42.6119C66.99 42.6119 67.1 42.5763 67.1 42.5229C67.1 42.4784 67.26 42.4339 67.45 42.4339C67.64 42.4339 67.8 42.4695 67.8 42.514C67.8 42.6208 67.75 42.6475 67.12 42.87C66.6 43.0569 66.6 43.0569 66.6 42.8344Z" fill="#636363"/>
<path d="M84.03 42.9946C83.88 42.9679 83.8 42.8878 83.8 42.781C83.8 42.5852 83.86 42.5763 84.46 42.7098C85.28 42.8967 84.9 43.1459 84.03 42.9946Z" fill="#636363"/>
<path d="M88.25 42.8878C88.09 42.7454 88.24 42.6119 88.55 42.6119C88.83 42.6119 88.9 42.6475 88.9 42.7899C88.9 42.9323 88.84 42.9679 88.6 42.9501C88.43 42.9412 88.27 42.9145 88.25 42.8878Z" fill="#636363"/>
<path d="M95.3 42.8344C95.3 42.7454 95.19 42.7009 94.95 42.7009C94.64 42.7009 94.6 42.6742 94.6 42.4784C94.6 42.2916 94.63 42.2738 94.83 42.3361C96.02 42.7543 96.3 42.9679 95.65 42.9679C95.41 42.9679 95.3 42.9234 95.3 42.8344Z" fill="#636363"/>
<path d="M13.8 42.7098C13.8 42.5585 13.86 42.5229 14.16 42.5229C14.44 42.5229 14.51 42.5585 14.48 42.6742C14.46 42.7632 14.33 42.8344 14.12 42.8522C13.85 42.8878 13.8 42.8611 13.8 42.7098Z" fill="#636363"/>
<path d="M70.9 42.6653C70.9 42.5496 71.18 42.4339 71.48 42.4339C71.54 42.4339 71.6 42.514 71.6 42.6119C71.6 42.7543 71.53 42.7899 71.25 42.7899C71.02 42.7899 70.9 42.7454 70.9 42.6653Z" fill="#636363"/>
<path d="M82.4 42.5229C82.4 42.3361 82.5 42.3094 82.88 42.3983C83.24 42.4873 83.15 42.7009 82.75 42.7009C82.47 42.7009 82.4 42.6653 82.4 42.5229Z" fill="#636363"/>
<path d="M67.9 42.3894C67.9 42.1937 67.94 42.167 68.25 42.167C68.44 42.167 68.6 42.1937 68.6 42.2382C68.6 42.3183 68.4 42.5852 68.4 42.5051C68.4 42.4695 68.29 42.4784 68.15 42.5229C67.93 42.603 67.9 42.5852 67.9 42.3894Z" fill="#636363"/>
<path d="M86.73 42.4518C86.11 42.3005 86.01 42.078 86.55 42.078C86.74 42.078 86.9 42.1225 86.9 42.167C86.9 42.2204 87.06 42.256 87.25 42.256C87.53 42.256 87.6 42.2916 87.6 42.434C87.6 42.6475 87.46 42.6475 86.73 42.4518Z" fill="#636363"/>
<path d="M33.72 42.3628C33.4 42.1759 33.45 42.078 33.85 42.078C34.15 42.078 34.2 42.1047 34.2 42.2827C34.2 42.5229 34.03 42.5496 33.72 42.3628Z" fill="#636363"/>
<path d="M15.5 42.256C15.5 42.1136 15.57 42.078 15.85 42.078C16.25 42.078 16.34 42.2916 15.98 42.3806C15.6 42.4695 15.5 42.4428 15.5 42.256Z" fill="#636363"/>
<path d="M28.78 42.3717C28.48 42.345 28.4 42.3005 28.4 42.1581C28.4 41.989 28.44 41.9801 28.83 42.0335C29.66 42.1403 29.8 42.1848 29.8 42.3094C29.8 42.4339 29.61 42.4428 28.78 42.3717Z" fill="#636363"/>
<path d="M73.2 42.2293C73.2 42.1581 73.36 42.0691 73.55 42.0157C73.88 41.9178 73.9 41.9267 73.9 42.1314C73.9 42.3183 73.85 42.345 73.55 42.345C73.33 42.345 73.2 42.3005 73.2 42.2293Z" fill="#636363"/>
<path d="M69.23 42.1937C69.16 42.167 69.1 42.078 69.1 41.9801C69.1 41.8466 69.17 41.811 69.46 41.811C69.74 41.811 69.81 41.8377 69.78 41.9712C69.76 42.0513 69.7 42.1225 69.65 42.1225C69.59 42.1225 69.51 42.1492 69.45 42.1759C69.4 42.2115 69.29 42.2115 69.23 42.1937Z" fill="#636363"/>
<path d="M24.5 42.0424C24.5 41.9267 24.78 41.811 25.08 41.811C25.14 41.811 25.2 41.8911 25.2 41.989C25.2 42.1314 25.13 42.167 24.85 42.167C24.62 42.167 24.5 42.1225 24.5 42.0424Z" fill="#636363"/>
<path d="M32.78 42.1047C32.45 42.0335 32.58 41.811 32.95 41.811C33.23 41.811 33.3 41.8466 33.3 41.989C33.3 42.167 33.16 42.1937 32.78 42.1047Z" fill="#636363"/>
<path d="M17 41.9C17 41.7576 17.07 41.722 17.35 41.722C17.75 41.722 17.84 41.9356 17.48 42.0246C17.1 42.1136 17 42.0869 17 41.9Z" fill="#636363"/>
<path d="M31.78 41.8377C31.45 41.7665 31.58 41.544 31.95 41.544C32.23 41.544 32.3 41.5796 32.3 41.722C32.3 41.9 32.16 41.9267 31.78 41.8377Z" fill="#636363"/>
<path d="M70.1 41.722C70.1 41.5796 70.17 41.544 70.45 41.544C70.85 41.544 70.94 41.7576 70.58 41.8466C70.2 41.9356 70.1 41.9089 70.1 41.722Z" fill="#636363"/>
<path d="M92.2 41.6864C92.2 41.455 92.31 41.4372 92.68 41.6152C93 41.7754 92.95 41.9 92.55 41.9C92.25 41.9 92.2 41.8733 92.2 41.6864Z" fill="#636363"/>
<path d="M95.53 41.7665C95.1 41.6063 95.11 41.455 95.55 41.455C95.86 41.455 95.9 41.4817 95.9 41.6775C95.9 41.8021 95.89 41.9 95.88 41.9C95.86 41.8911 95.7 41.8377 95.53 41.7665Z" fill="#636363"/>
<path d="M18.3 41.633C18.3 41.4906 18.37 41.455 18.65 41.455C18.92 41.455 19 41.4906 19 41.6152C19 41.722 18.91 41.7754 18.65 41.7843C18.36 41.811 18.3 41.7843 18.3 41.633Z" fill="#636363"/>
<path d="M82.75 41.6241C82.64 41.5885 82.38 41.5351 82.18 41.4996C81.94 41.464 81.8 41.4017 81.8 41.3216C81.8 41.1703 81.95 41.1614 82.64 41.2415C82.99 41.286 83.1 41.3394 83.1 41.464C83.1 41.6686 83 41.7131 82.75 41.6241Z" fill="#636363"/>
<path d="M71.2 41.455C71.2 41.3127 71.27 41.2771 71.55 41.2771C71.95 41.2771 72.04 41.4906 71.68 41.5796C71.3 41.6686 71.2 41.6419 71.2 41.455Z" fill="#636363"/>
<path d="M91.3 41.4461C91.3 41.2949 91.35 41.2682 91.62 41.3038C91.83 41.3216 91.96 41.3927 91.98 41.4817C92.01 41.5974 91.94 41.633 91.66 41.633C91.36 41.633 91.3 41.5974 91.3 41.4461Z" fill="#636363"/>
<path d="M11.9 41.455C11.9 41.4017 12.16 41.2593 12.48 41.1347C12.79 41.0101 13.05 40.9122 13.05 40.9211C13.05 40.93 13.22 40.8677 13.43 40.7876C13.8 40.6541 13.8 40.6541 13.8 40.8766C13.8 41.0546 13.75 41.0991 13.55 41.0991C13.41 41.0991 13.3 41.1436 13.3 41.1881C13.3 41.2415 13.14 41.2771 12.95 41.2771C12.71 41.2771 12.6 41.3216 12.6 41.4106C12.6 41.4995 12.49 41.544 12.25 41.544C12.06 41.544 11.9 41.4995 11.9 41.455Z" fill="#636363"/>
<path d="M30.28 41.4817C29.95 41.4105 30.08 41.1881 30.45 41.1881C30.73 41.1881 30.8 41.2237 30.8 41.3661C30.8 41.544 30.66 41.5707 30.28 41.4817Z" fill="#636363"/>
<path d="M72.1 41.286C72.1 41.1258 72.49 41.0101 73.08 41.0101C73.52 41.0101 73.31 41.2593 72.8 41.3572C72.13 41.4817 72.1 41.4817 72.1 41.286Z" fill="#636363"/>
<path d="M21.9 41.1347C21.9 40.9478 21.95 40.9211 22.25 40.9211C22.47 40.9211 22.6 40.9656 22.6 41.0368C22.6 41.108 22.44 41.197 22.25 41.2504C21.92 41.3483 21.9 41.3394 21.9 41.1347Z" fill="#636363"/>
<path d="M93.92 41.2059C93.6 41.019 93.65 40.9211 94.05 40.9211C94.35 40.9211 94.4 40.9478 94.4 41.1258C94.4 41.3661 94.23 41.3928 93.92 41.2059Z" fill="#636363"/>
<path d="M24.7 40.9211C24.7 40.7787 24.77 40.7431 25.05 40.7431C25.45 40.7431 25.54 40.9567 25.18 41.0457C24.8 41.1347 24.7 41.108 24.7 40.9211Z" fill="#636363"/>
<path d="M26.58 41.0368C26.22 40.9567 26.38 40.7431 26.8 40.7431C27.13 40.7431 27.2 40.7698 27.2 40.9211C27.2 41.0991 27 41.1347 26.58 41.0368Z" fill="#636363"/>
<path d="M6.45 40.7609C6.51 40.7253 6.61 40.5918 6.67 40.4583C6.84 40.1113 7 40.1469 7 40.5206C7 40.8143 6.98 40.8321 6.68 40.8321C6.5 40.8321 6.4 40.7965 6.45 40.7609Z" fill="#636363"/>
<path d="M92.34 40.752C92.31 40.7253 92.23 40.6986 92.17 40.6986C92.1 40.6986 92.04 40.6274 92.02 40.5473C91.99 40.4138 92.06 40.3872 92.34 40.3872C92.65 40.3872 92.7 40.4138 92.7 40.5918C92.7 40.7876 92.49 40.8766 92.34 40.752Z" fill="#636363"/>
<path d="M62.4 40.3427C62.4 40.1469 62.44 40.1202 62.76 40.1202C63.2 40.1202 63.18 40.2804 62.72 40.4494C62.41 40.5651 62.4 40.5562 62.4 40.3427Z" fill="#636363"/>
<path d="M86.7 40.3872C86.7 40.2359 86.76 40.2092 87.05 40.2359C87.31 40.2448 87.4 40.2982 87.4 40.4139C87.4 40.5295 87.32 40.5651 87.05 40.5651C86.77 40.5651 86.7 40.5295 86.7 40.3872Z" fill="#636363"/>
<path d="M67.9 40.0579C67.9 39.9422 67.99 39.8888 68.25 39.8799C68.54 39.8532 68.6 39.8799 68.6 40.0312C68.6 40.1736 68.53 40.2092 68.25 40.2092C67.98 40.2092 67.9 40.1736 67.9 40.0579Z" fill="#636363"/>
<path d="M64.1 39.7998C64.1 39.6129 64.15 39.5862 64.45 39.5862C64.85 39.5862 64.94 39.7909 64.58 39.8977C64.13 40.0223 64.1 40.0134 64.1 39.7998Z" fill="#636363"/>
<path d="M83.2 39.8176C83.2 39.6129 83.22 39.604 83.55 39.7019C83.74 39.7553 83.9 39.8443 83.9 39.9155C83.9 39.9867 83.77 40.0312 83.55 40.0312C83.25 40.0312 83.2 40.0045 83.2 39.8176Z" fill="#636363"/>
<path d="M69.7 39.8265C69.7 39.7553 69.86 39.6663 70.05 39.6129C70.38 39.515 70.4 39.5239 70.4 39.7286C70.4 39.9155 70.35 39.9422 70.05 39.9422C69.83 39.9422 69.7 39.8977 69.7 39.8265Z" fill="#636363"/>
<path d="M82.4 39.7642C82.4 39.5773 82.5 39.5506 82.88 39.6396C83.24 39.7286 83.15 39.9422 82.75 39.9422C82.47 39.9422 82.4 39.9066 82.4 39.7642Z" fill="#636363"/>
<path d="M71.5 39.6396C71.5 39.5239 71.78 39.4082 72.08 39.4082C72.14 39.4082 72.2 39.4883 72.2 39.5862C72.2 39.7286 72.13 39.7642 71.85 39.7642C71.62 39.7642 71.5 39.7197 71.5 39.6396Z" fill="#636363"/>
<path d="M80.5 39.5862C80.5 39.3994 80.6 39.3727 80.98 39.4617C81.34 39.5506 81.25 39.7642 80.85 39.7642C80.57 39.7642 80.5 39.7286 80.5 39.5862Z" fill="#636363"/>
<path d="M7.23 39.3904C7.42 38.9811 7.6 38.9633 7.6 39.3549C7.6 39.6396 7.57 39.6752 7.35 39.6752C7.11 39.6752 7.1 39.6663 7.23 39.3904Z" fill="#636363"/>
<path d="M79.1 39.4973C79.1 39.3104 79.2 39.2837 79.58 39.3727C79.94 39.4617 79.85 39.6752 79.45 39.6752C79.17 39.6752 79.1 39.6396 79.1 39.4973Z" fill="#636363"/>
<path d="M75.7 39.4617C75.7 39.3905 75.84 39.3104 76.01 39.2748C76.43 39.1947 77 39.2926 77 39.4528C77 39.5595 76.85 39.5862 76.35 39.5862C75.86 39.5862 75.7 39.5595 75.7 39.4617Z" fill="#636363"/>
<path d="M14.8 39.2659C14.8 39.079 14.85 39.0523 15.15 39.0523C15.37 39.0523 15.5 39.0968 15.5 39.168C15.5 39.2392 15.34 39.3282 15.15 39.3816C14.82 39.4794 14.8 39.4706 14.8 39.2659Z" fill="#636363"/>
<path d="M86.54 39.3816C86.46 39.346 86.35 39.3371 86.3 39.3638C86.24 39.3905 86.2 39.3371 86.2 39.2392C86.2 39.0345 86.36 39.0078 87.03 39.1057C87.3 39.1502 87.4 39.2036 87.4 39.3282C87.4 39.4705 87.33 39.4972 87.04 39.4706C86.85 39.4617 86.62 39.4172 86.54 39.3816Z" fill="#636363"/>
<path d="M66.8 39.1502C66.8 38.99 67.19 38.8743 67.78 38.8743C68.22 38.8743 68.01 39.1235 67.5 39.2214C66.83 39.346 66.8 39.346 66.8 39.1502Z" fill="#636363"/>
<path d="M85.1 39.1324C84.85 39.0968 84.5 39.0345 84.33 39.0078C84.13 38.9722 84 38.901 84 38.8298C84 38.6696 84.13 38.6696 85.13 38.8031C85.77 38.8832 85.9 38.9366 85.9 39.0701C85.9 39.2481 85.8 39.257 85.1 39.1324Z" fill="#636363"/>
<path d="M16.1 38.8832C16.1 38.7319 16.16 38.6963 16.46 38.6963C16.74 38.6963 16.81 38.7319 16.78 38.8476C16.76 38.9366 16.63 39.0078 16.42 39.0256C16.15 39.0612 16.1 39.0345 16.1 38.8832Z" fill="#636363"/>
<path d="M69.1 38.7853C69.1 38.6429 69.17 38.6073 69.45 38.6073C69.85 38.6073 69.94 38.8209 69.58 38.9099C69.2 38.9989 69.1 38.9722 69.1 38.7853Z" fill="#636363"/>
<path d="M79.18 38.545C78.85 38.4738 78.98 38.2514 79.35 38.2514C79.63 38.2514 79.7 38.287 79.7 38.4294C79.7 38.6073 79.56 38.634 79.18 38.545Z" fill="#636363"/>
<path d="M19.6 38.0734C19.6 37.931 19.67 37.8954 19.95 37.8954C20.35 37.8954 20.44 38.109 20.08 38.198C19.7 38.287 19.6 38.2603 19.6 38.0734Z" fill="#636363"/>
<path d="M29.63 37.8776C29.18 37.7441 29.2 37.5394 29.65 37.5394C29.96 37.5394 30 37.5661 30 37.7619C30 37.8865 29.99 37.9844 29.98 37.9755C29.96 37.9666 29.8 37.9221 29.63 37.8776Z" fill="#636363"/>
<path d="M22.8 37.6284C22.8 37.4861 22.87 37.4505 23.15 37.4505C23.55 37.4505 23.64 37.664 23.28 37.753C22.9 37.842 22.8 37.8153 22.8 37.6284Z" fill="#636363"/>
<path d="M8.3 37.4861C8.3 37.3793 8.64 36.9165 8.72 36.9165C8.76 36.9165 8.8 37.0589 8.8 37.228C8.8 37.5039 8.77 37.5395 8.55 37.5395C8.41 37.5395 8.3 37.5128 8.3 37.4861Z" fill="#636363"/>
<path d="M9 36.3114C9 36.2758 9.07 36.1601 9.15 36.0622C9.23 35.9554 9.26 35.8486 9.23 35.813C9.2 35.7863 9.24 35.7596 9.33 35.7596C9.46 35.7596 9.5 35.8397 9.5 36.0711C9.5 36.347 9.47 36.3826 9.25 36.3826C9.11 36.3826 9 36.3559 9 36.3114Z" fill="#636363"/>
<path d="M9.5 35.5372C9.5 35.4304 10.25 34.3358 10.32 34.3358C10.36 34.3358 10.4 34.4782 10.4 34.6473C10.4 34.8964 10.36 34.9587 10.2 34.9587C10.04 34.9587 10 35.021 10 35.2702C10 35.5461 9.97 35.5817 9.75 35.5817C9.61 35.5817 9.5 35.5639 9.5 35.5372Z" fill="#636363"/>
<path d="M90.7 33.2234C90.7 32.8407 90.8 32.8318 91.03 33.17C91.25 33.5082 91.25 33.5349 90.95 33.5349C90.73 33.5349 90.7 33.4993 90.7 33.2234Z" fill="#636363"/>
<path d="M11 33.3035C11 33.1967 11.34 32.7339 11.42 32.7339C11.46 32.7339 11.5 32.8763 11.5 33.0454C11.5 33.3213 11.47 33.3569 11.25 33.3569C11.11 33.3569 11 33.3302 11 33.3035Z" fill="#636363"/>
<path d="M12.43 31.2745C12.49 31.1588 12.63 31.0164 12.72 30.963C12.88 30.874 12.9 30.9007 12.9 31.1766C12.9 31.4614 12.87 31.4881 12.61 31.4881C12.34 31.4881 12.33 31.4703 12.43 31.2745Z" fill="#636363"/>
<path d="M12.3 29.6638C12.3 29.4502 12.35 29.3523 12.45 29.3523C12.53 29.3523 12.6 29.2722 12.6 29.1743C12.6 29.0319 12.67 28.9963 12.9 28.9963C13.18 28.9963 13.19 29.0052 13.08 29.201C13.01 29.3078 12.89 29.4324 12.83 29.468C12.76 29.5036 12.7 29.5837 12.7 29.646C12.7 29.7083 12.61 29.8061 12.5 29.8684C12.31 29.9663 12.3 29.9574 12.3 29.6638Z" fill="#636363"/>
<path d="M13.3 28.5158C13.3 28.2221 13.32 28.1954 13.61 28.1954C13.91 28.1954 13.91 28.1954 13.7 28.4624C13.39 28.8539 13.3 28.8628 13.3 28.5158Z" fill="#636363"/>
<path d="M14.93 28.3289C15.1 28.1598 15.25 28.0174 15.27 28.0174C15.29 28.0174 15.3 28.1598 15.3 28.3289C15.3 28.6226 15.28 28.6404 14.96 28.6404C14.62 28.6404 14.62 28.6404 14.93 28.3289Z" fill="#636363"/>
<path d="M86.2 27.706C86.2 27.3411 86.37 27.3589 86.62 27.7505C86.79 28.0174 86.79 28.0174 86.5 28.0174C86.22 28.0174 86.2 27.9907 86.2 27.706Z" fill="#636363"/>
<path d="M14.2 27.5369C14.2 27.2432 14.22 27.2165 14.51 27.2165C14.81 27.2165 14.81 27.2165 14.6 27.4835C14.29 27.875 14.2 27.8839 14.2 27.5369Z" fill="#636363"/>
<path d="M85.5 26.994C85.5 26.6292 85.67 26.647 85.92 27.0385C86.09 27.3055 86.09 27.3055 85.8 27.3055C85.52 27.3055 85.5 27.2788 85.5 26.994Z" fill="#636363"/>
<path d="M15.3 26.38C15.3 26.0863 15.32 26.0596 15.61 26.0596C15.91 26.0596 15.91 26.0596 15.7 26.3266C15.39 26.7182 15.3 26.7271 15.3 26.38Z" fill="#636363"/>
<path d="M89.7 26.3711C89.7 26.1308 89.74 26.0596 89.88 26.0596C90.15 26.0596 90.19 26.1308 90.07 26.4245C89.91 26.7894 89.7 26.7538 89.7 26.3711Z" fill="#636363"/>
<path d="M17.45 25.8283C17.83 25.5257 17.85 25.5257 17.88 25.7037C17.94 26.0418 17.83 26.1486 17.43 26.1486C17.05 26.1397 17.05 26.1397 17.45 25.8283Z" fill="#636363"/>
<path d="M85.66 25.6948C85.38 25.3388 85.38 25.3388 85.71 25.3655C86.02 25.3922 86.05 25.4189 86.08 25.7304C86.1 25.9083 86.08 26.0596 86.03 26.0596C85.99 26.0596 85.82 25.8905 85.66 25.6948Z" fill="#636363"/>
<path d="M83.1 24.9028C83.1 24.6358 83.1 24.6358 83.45 24.8316C83.89 25.0896 83.89 25.1697 83.45 25.1697C83.13 25.1697 83.1 25.1519 83.1 24.9028Z" fill="#636363"/>
<path d="M17.4 24.4667C17.4 24.2086 17.43 24.1908 17.76 24.1908C18.15 24.1908 18.14 24.2709 17.7 24.5468C17.4 24.7337 17.4 24.7337 17.4 24.4667Z" fill="#636363"/>
<path d="M82.2 24.1819C82.2 23.915 82.2 23.915 82.5 24.1018C82.94 24.3777 82.95 24.4578 82.56 24.4578C82.23 24.4578 82.2 24.44 82.2 24.1819Z" fill="#636363"/>
<path d="M83.78 24.1196C83.36 23.8883 83.35 23.7459 83.75 23.7459C84.07 23.7459 84.1 23.7637 84.1 24.0128C84.1 24.1641 84.09 24.2798 84.08 24.2709C84.06 24.2709 83.93 24.1997 83.78 24.1196Z" fill="#636363"/>
<path d="M18.3 23.7459C18.3 23.5056 18.33 23.4789 18.6 23.4789C18.85 23.4789 18.9 23.4433 18.9 23.2564C18.9 23.0606 18.94 23.0339 19.27 23.0339C19.65 23.0339 19.65 23.0339 19.22 23.381C18.99 23.5679 18.69 23.7904 18.55 23.8705C18.3 24.0128 18.3 24.0128 18.3 23.7459Z" fill="#636363"/>
<path d="M19.95 23.8349C19.98 23.7904 20.14 23.6658 20.3 23.5679C20.6 23.381 20.6 23.381 20.6 23.648C20.6 23.9061 20.57 23.9239 20.24 23.9239C20.04 23.9239 19.91 23.8883 19.95 23.8349Z" fill="#636363"/>
<path d="M80.7 23.114C80.7 22.8471 80.7 22.8471 81 23.0339C81.44 23.3098 81.45 23.3899 81.06 23.3899C80.73 23.3899 80.7 23.3721 80.7 23.114Z" fill="#636363"/>
<path d="M82.18 22.8916C81.86 22.6691 81.6 22.4644 81.6 22.4466C81.6 22.4288 81.76 22.411 81.95 22.411C82.23 22.411 82.3 22.4466 82.3 22.589C82.3 22.7225 82.37 22.767 82.55 22.767C82.76 22.767 82.8 22.8115 82.8 23.0339C82.8 23.1852 82.79 23.3009 82.78 23.3009C82.76 23.3009 82.49 23.114 82.18 22.8916Z" fill="#636363"/>
<path d="M21.61 22.6958C21.67 22.6157 21.83 22.4911 21.96 22.4377C22.18 22.3487 22.2 22.3576 22.2 22.5979C22.2 22.8293 22.17 22.856 21.85 22.856C21.54 22.856 21.51 22.8382 21.61 22.6958Z" fill="#636363"/>
<path d="M90.5 22.5445C90.5 22.2953 90.54 22.233 90.7 22.233C90.91 22.233 90.94 22.322 90.84 22.6602C90.74 22.9806 90.5 22.9005 90.5 22.5445Z" fill="#636363"/>
<path d="M79 22.0639C79 21.8237 79.02 21.8148 79.24 21.9038C79.37 21.9572 79.53 22.0817 79.59 22.1618C79.69 22.3042 79.66 22.322 79.35 22.322C79.03 22.322 79 22.2953 79 22.0639Z" fill="#636363"/>
<path d="M23.8 20.3909C23.8 20.3464 23.7 20.2752 23.58 20.2307C23.45 20.1773 23.31 20.0528 23.25 19.946C23.2 19.8303 23.1 19.7413 23.03 19.7413C22.95 19.7413 22.9 19.6256 22.9 19.4654C22.9 19.1984 22.9 19.1984 23.18 19.3675C23.33 19.4654 23.62 19.7057 23.84 19.9015C24.21 20.2485 24.22 20.2574 24.01 20.3553C23.89 20.4176 23.8 20.4265 23.8 20.3909Z" fill="#636363"/>
<path d="M9.96 20.1684C9.86 19.8303 9.89 19.7413 10.1 19.7413C10.26 19.7413 10.3 19.8036 10.3 20.0528C10.3 20.4087 10.06 20.4888 9.96 20.1684Z" fill="#636363"/>
<path d="M91 19.8748C91 19.6256 91.04 19.5633 91.2 19.5633C91.41 19.5633 91.44 19.6523 91.34 19.9905C91.24 20.3108 91 20.2307 91 19.8748Z" fill="#636363"/>
<path d="M25.3 19.4298C25.3 19.234 25.34 19.2073 25.65 19.2073C26.08 19.2073 26.09 19.2963 25.71 19.501C25.33 19.6968 25.3 19.6968 25.3 19.4298Z" fill="#636363"/>
<path d="M72.9 19.0739C72.9 18.8603 72.91 18.8514 73.22 18.9671C73.68 19.1361 73.7 19.2963 73.26 19.2963C72.94 19.2963 72.9 19.2696 72.9 19.0739Z" fill="#636363"/>
<path d="M28.7 19.1183C28.7 19.065 28.82 18.976 28.98 18.9137C29.13 18.8603 29.28 18.7713 29.32 18.7179C29.36 18.6734 29.4 18.7624 29.4 18.9226C29.4 19.1895 29.38 19.2073 29.05 19.2073C28.86 19.2073 28.7 19.1628 28.7 19.1183Z" fill="#636363"/>
<path d="M75.9 18.8247C75.9 18.4509 76.16 18.2284 76.58 18.2284C76.76 18.2284 76.9 18.2462 76.9 18.264C76.9 18.2996 75.98 19.1183 75.94 19.1183C75.92 19.1183 75.9 18.9849 75.9 18.8247Z" fill="#636363"/>
<path d="M30.62 18.3886C30.65 18.3263 30.81 18.2284 30.98 18.1661C31.29 18.0505 31.3 18.0594 31.3 18.2729C31.3 18.4687 31.26 18.4954 30.94 18.4954C30.71 18.4954 30.6 18.4598 30.62 18.3886Z" fill="#636363"/>
<path d="M70.5 18.3174C70.5 18.2729 70.39 18.2284 70.25 18.2284C70.05 18.2284 70 18.1839 70 18.0149C70 17.7657 70.06 17.7657 70.73 18.0327C71.29 18.2551 71.34 18.4064 70.85 18.4064C70.66 18.4064 70.5 18.3708 70.5 18.3174Z" fill="#636363"/>
<path d="M91.3 18.095C91.3 17.828 91.33 17.7835 91.54 17.7835C91.77 17.7835 91.78 17.8013 91.67 18.095C91.61 18.264 91.51 18.4064 91.43 18.4064C91.35 18.4064 91.3 18.2907 91.3 18.095Z" fill="#636363"/>
<path d="M22.8 17.9615C22.45 17.7034 22.45 17.7034 22.83 17.6945C23.18 17.6945 23.2 17.7123 23.2 17.9615C23.2 18.1127 23.19 18.2284 23.17 18.2284C23.16 18.2284 22.99 18.1127 22.8 17.9615Z" fill="#636363"/>
<path d="M31.9 17.9615C31.9 17.8725 32.26 17.6678 32.48 17.6411C32.55 17.6322 32.6 17.7123 32.6 17.8369C32.6 18.0238 32.55 18.0505 32.25 18.0505C32.06 18.0505 31.9 18.0149 31.9 17.9615Z" fill="#636363"/>
<path d="M29.7 17.561C29.7 17.3652 29.74 17.3385 30.06 17.3385C30.5 17.3385 30.48 17.4987 30.02 17.6678C29.71 17.7835 29.7 17.7746 29.7 17.561Z" fill="#636363"/>
<path d="M20.5 17.4275C20.5 17.1605 20.5 17.1605 20.85 17.3563C21.29 17.6144 21.29 17.6945 20.85 17.6945C20.53 17.6945 20.5 17.6767 20.5 17.4275Z" fill="#636363"/>
<path d="M68.3 17.4809C68.3 17.2495 68.41 17.2317 68.78 17.4097C69.1 17.5699 69.05 17.6945 68.65 17.6945C68.35 17.6945 68.3 17.6678 68.3 17.4809Z" fill="#636363"/>
<path d="M79.05 17.4275C79.08 17.383 79.24 17.2584 79.4 17.1605C79.7 16.9737 79.7 16.9737 79.7 17.2406C79.7 17.4987 79.67 17.5165 79.34 17.5165C79.14 17.5165 79.01 17.4809 79.05 17.4275Z" fill="#636363"/>
<path d="M30.7 17.1961C30.7 17.0093 30.75 16.9826 31.05 16.9826C31.45 16.9826 31.5 17.1072 31.18 17.2673C30.81 17.4453 30.7 17.4275 30.7 17.1961Z" fill="#636363"/>
<path d="M70.73 17.205C70.3 17.0449 70.31 16.8936 70.75 16.8936C71.06 16.8936 71.1 16.9203 71.1 17.1161C71.1 17.2406 71.09 17.3385 71.08 17.3385C71.06 17.3296 70.9 17.2762 70.73 17.205Z" fill="#636363"/>
<path d="M66.1 16.8936C66.1 16.7067 66.2 16.68 66.58 16.769C66.94 16.858 66.85 17.0716 66.45 17.0716C66.17 17.0716 66.1 17.036 66.1 16.8936Z" fill="#636363"/>
<path d="M69.82 16.9114C69.5 16.7245 69.55 16.6266 69.95 16.6266C70.25 16.6266 70.3 16.6533 70.3 16.8313C70.3 17.0716 70.13 17.0983 69.82 16.9114Z" fill="#636363"/>
<path d="M65 16.6266C65 16.4397 65.1 16.413 65.48 16.502C65.84 16.591 65.75 16.8046 65.35 16.8046C65.07 16.8046 65 16.769 65 16.6266Z" fill="#636363"/>
<path d="M32.9 16.4575C32.9 16.3062 32.96 16.2706 33.26 16.2706C33.54 16.2706 33.61 16.3062 33.58 16.4219C33.56 16.5109 33.43 16.5821 33.22 16.5999C32.95 16.6355 32.9 16.6088 32.9 16.4575Z" fill="#636363"/>
<path d="M19 16.1817C19 15.9147 19 15.9147 19.35 16.1105C19.79 16.3685 19.79 16.4486 19.35 16.4486C19.03 16.4486 19 16.4308 19 16.1817Z" fill="#636363"/>
<path d="M67.55 16.2795C67.39 16.1372 67.54 16.0037 67.85 16.0037C68.13 16.0037 68.2 16.0393 68.2 16.1817C68.2 16.324 68.14 16.3596 67.9 16.3418C67.73 16.3329 67.57 16.3062 67.55 16.2795Z" fill="#636363"/>
<path d="M38.9 16.1194C38.9 16.0037 38.99 15.9503 39.25 15.9414C39.54 15.9147 39.6 15.9414 39.6 16.0927C39.6 16.235 39.53 16.2706 39.25 16.2706C38.98 16.2706 38.9 16.235 38.9 16.1194Z" fill="#636363"/>
<path d="M34.5 16.0037C34.5 15.799 34.72 15.7634 34.89 15.9414C35.02 16.0838 34.94 16.1816 34.68 16.1816C34.57 16.1816 34.5 16.1194 34.5 16.0037Z" fill="#636363"/>
<path d="M61.28 16.0304C61.08 16.0037 61 15.9414 61 15.8079C61 15.6477 61.04 15.6388 61.43 15.7011C61.66 15.7367 61.93 15.7723 62.03 15.7723C62.12 15.7723 62.2 15.8435 62.2 15.9325C62.2 16.0927 61.96 16.1194 61.28 16.0304Z" fill="#636363"/>
<path d="M41.5 15.6922C41.5 15.6121 41.64 15.5498 41.88 15.5142C42.08 15.4786 42.37 15.4252 42.53 15.3807C42.77 15.3095 42.8 15.3184 42.8 15.5053C42.8 15.6833 42.74 15.7189 42.34 15.7723C41.65 15.8524 41.5 15.8435 41.5 15.6922Z" fill="#636363"/>
<path d="M17.9 15.2917C17.9 15.0337 17.9 15.0337 18.2 15.185C18.64 15.4074 18.66 15.5587 18.25 15.5587C17.93 15.5587 17.9 15.5409 17.9 15.2917Z" fill="#636363"/>
<path d="M57.7 15.3451C57.7 15.1405 57.72 15.1316 58.05 15.2294C58.24 15.2828 58.4 15.3718 58.4 15.443C58.4 15.5142 58.27 15.5587 58.05 15.5587C57.75 15.5587 57.7 15.532 57.7 15.3451Z" fill="#636363"/>
<path d="M56.9 15.2917C56.9 15.1049 57 15.0782 57.38 15.1672C57.74 15.2561 57.65 15.4697 57.25 15.4697C56.97 15.4697 56.9 15.4341 56.9 15.2917Z" fill="#636363"/>
<path d="M19.38 15.1316C18.96 14.9002 18.95 14.7578 19.35 14.7578C19.67 14.7578 19.7 14.7756 19.7 15.0248C19.7 15.1761 19.69 15.2917 19.68 15.2828C19.66 15.2828 19.53 15.2117 19.38 15.1316Z" fill="#636363"/>
<path d="M49.1 15.0782C49.1 14.9625 49.38 14.8468 49.68 14.8468C49.74 14.8468 49.8 14.9269 49.8 15.0248C49.8 15.1672 49.73 15.2028 49.45 15.2028C49.22 15.2028 49.1 15.1583 49.1 15.0782Z" fill="#636363"/>
<path d="M52.3 15.0248C52.3 14.8379 52.4 14.8112 52.78 14.9002C53.14 14.9892 53.05 15.2028 52.65 15.2028C52.37 15.2028 52.3 15.1672 52.3 15.0248Z" fill="#636363"/>
<path d="M17 14.5798C17 14.3217 17 14.3217 17.3 14.473C17.74 14.6955 17.76 14.8468 17.35 14.8468C17.03 14.8468 17 14.829 17 14.5798Z" fill="#636363"/>
<path d="M18.48 14.4196C18.06 14.1883 18.05 14.0459 18.45 14.0459C18.77 14.0459 18.8 14.0637 18.8 14.3128C18.8 14.4641 18.79 14.5798 18.78 14.5709C18.76 14.5709 18.63 14.4997 18.48 14.4196Z" fill="#636363"/>
<path d="M91.8 14.2683C91.8 14.0192 91.84 13.9569 92 13.9569C92.21 13.9569 92.24 14.0459 92.14 14.384C92.04 14.7044 91.8 14.6243 91.8 14.2683Z" fill="#636363"/>
<path d="M69.35 13.7611C69.38 13.6988 69.54 13.5742 69.7 13.4941C70 13.3428 70 13.3428 70 13.6009C70 13.8501 69.97 13.8679 69.65 13.8679C69.42 13.8679 69.32 13.8323 69.35 13.7611Z" fill="#636363"/>
<path d="M82.2 13.4229C82.2 13.1738 82.23 13.156 82.55 13.156C82.96 13.156 82.94 13.3072 82.5 13.5297C82.2 13.681 82.2 13.681 82.2 13.4229Z" fill="#636363"/>
<path d="M17 13.245C16.65 12.9869 16.65 12.9869 17.03 12.978C17.38 12.978 17.4 12.9958 17.4 13.245C17.4 13.3962 17.39 13.5119 17.37 13.5119C17.36 13.5119 17.19 13.3962 17 13.245Z" fill="#636363"/>
<path d="M84.95 12.6576C85.17 12.4885 85.47 12.2661 85.63 12.1682C85.9 11.9902 85.9 11.9902 85.9 12.2572C85.9 12.5063 85.87 12.533 85.6 12.533C85.35 12.533 85.3 12.5686 85.3 12.7555C85.3 12.9513 85.26 12.978 84.93 12.978C84.55 12.9691 84.55 12.9691 84.95 12.6576Z" fill="#636363"/>
<path d="M15.26 12.0436C15.23 11.9724 15.14 11.9101 15.06 11.9101C14.99 11.9101 14.9 11.8478 14.86 11.7766C14.83 11.7054 14.75 11.6431 14.68 11.6431C14.61 11.6431 14.49 11.563 14.42 11.4651C14.31 11.2961 14.32 11.2872 14.65 11.2872C14.89 11.2872 15 11.3317 15 11.4206C15 11.4918 15.09 11.5541 15.2 11.5541C15.36 11.5541 15.4 11.6164 15.4 11.8656C15.4 12.2038 15.36 12.2572 15.26 12.0436Z" fill="#636363"/>
<path d="M9.2 11.9813C9.2 11.7143 9.33 11.4651 9.46 11.4651C9.55 11.4651 9.6 11.5719 9.6 11.7766C9.6 12.0258 9.56 12.0881 9.4 12.0881C9.29 12.0881 9.2 12.0347 9.2 11.9813Z" fill="#636363"/>
<path d="M71.85 11.9101C71.88 11.8656 72.04 11.741 72.2 11.6431C72.5 11.4562 72.5 11.4562 72.5 11.7232C72.5 11.9813 72.47 11.9991 72.14 11.9991C71.94 11.9991 71.81 11.9635 71.85 11.9101Z" fill="#636363"/>
<path d="M85.4 11.0291C85.4 10.771 85.43 10.7532 85.76 10.7532C86.15 10.7532 86.14 10.8333 85.7 11.1092C85.4 11.2961 85.4 11.2961 85.4 11.0291Z" fill="#636363"/>
<path d="M87.11 11.127C87.17 11.0469 87.33 10.9223 87.46 10.8689C87.68 10.7799 87.7 10.7888 87.7 11.0291C87.7 11.2605 87.67 11.2872 87.35 11.2872C87.04 11.2872 87.01 11.2694 87.11 11.127Z" fill="#636363"/>
<path d="M11 10.7977C11 10.5841 11.01 10.5752 11.32 10.6909C11.78 10.86 11.8 11.0202 11.36 11.0202C11.04 11.0202 11 10.9935 11 10.7977Z" fill="#636363"/>
<path d="M91.9 10.7087C91.9 10.3528 92.14 10.2727 92.24 10.6019C92.34 10.9312 92.31 11.0202 92.1 11.0202C91.94 11.0202 91.9 10.9579 91.9 10.7087Z" fill="#636363"/>
<path d="M86.2 10.4773C86.2 10.246 86.23 10.2193 86.55 10.2193C86.86 10.2193 86.89 10.2371 86.79 10.3794C86.73 10.4595 86.57 10.5841 86.44 10.6375C86.22 10.7265 86.2 10.7176 86.2 10.4773Z" fill="#636363"/>
<path d="M9.4 9.50734C9.4 9.36495 9.47 9.32936 9.75 9.32936C10.15 9.32936 10.24 9.54293 9.88 9.63193C9.5 9.72092 9.4 9.69422 9.4 9.50734Z" fill="#636363"/>
<path d="M25.4 9.14248C25.4 8.8755 25.4 8.8755 25.7 9.06239C26.14 9.33826 26.15 9.41835 25.76 9.41835C25.43 9.41835 25.4 9.40055 25.4 9.14248Z" fill="#636363"/>
<path d="M76.9 8.25257C77.09 8.10128 77.37 7.9055 77.53 7.80761C77.8 7.62963 77.8 7.62963 77.8 7.8966C77.8 8.12798 77.76 8.17248 77.55 8.17248C77.37 8.17248 77.3 8.21697 77.3 8.35046C77.3 8.50174 77.23 8.52844 76.93 8.52844C76.55 8.51954 76.55 8.51954 76.9 8.25257Z" fill="#636363"/>
<path d="M91.83 8.42165C91.38 8.28816 91.4 8.08348 91.85 8.08348C92.16 8.08348 92.2 8.11018 92.2 8.30596C92.2 8.43055 92.19 8.52844 92.18 8.51954C92.16 8.51064 92 8.46614 91.83 8.42165Z" fill="#636363"/>
<path d="M90.5 8.26147C90.5 8.11908 90.57 8.08348 90.85 8.08348C91.25 8.08348 91.34 8.29706 90.98 8.38605C90.6 8.47504 90.5 8.44835 90.5 8.26147Z" fill="#636363"/>
<path d="M8.7 8.06569C8.7 7.79871 8.83 7.54954 8.96 7.54954C9.05 7.54954 9.1 7.65633 9.1 7.86101C9.1 8.11018 9.06 8.17248 8.9 8.17248C8.79 8.17248 8.7 8.11908 8.7 8.06569Z" fill="#636363"/>
<path d="M23 7.39826C23.01 7.12238 23.03 7.08679 23.11 7.22027C23.16 7.30037 23.26 7.37156 23.33 7.37156C23.4 7.37156 23.51 7.45165 23.58 7.54954C23.69 7.71862 23.68 7.72752 23.35 7.72752C23.01 7.72752 23 7.71862 23 7.39826Z" fill="#636363"/>
<path d="M78.9 6.89991C78.9 6.88211 79.06 6.74862 79.25 6.59734C79.6 6.32147 79.6 6.32147 79.6 6.62404C79.6 6.90881 79.58 6.92661 79.25 6.92661C79.06 6.92661 78.9 6.91771 78.9 6.89991Z" fill="#636363"/>
<path d="M92.2 6.25917C92.2 5.90321 92.44 5.82312 92.54 6.15238C92.64 6.48165 92.61 6.57064 92.4 6.57064C92.24 6.57064 92.2 6.50835 92.2 6.25917Z" fill="#636363"/>
<path d="M20.9 6.17018C20.9 6.09899 20.81 6.0367 20.7 6.0367C20.54 6.0367 20.5 5.9744 20.5 5.76972C20.5 5.52055 20.51 5.51165 20.71 5.60954C20.83 5.67184 21.09 5.85872 21.29 6.01C21.65 6.30367 21.65 6.30367 21.28 6.30367C21.01 6.30367 20.9 6.26807 20.9 6.17018Z" fill="#636363"/>
<path d="M80.21 5.9655C80.27 5.88541 80.43 5.76082 80.56 5.70743C80.78 5.61844 80.8 5.62734 80.8 5.86761C80.8 6.09899 80.77 6.12569 80.45 6.12569C80.14 6.12569 80.11 6.10789 80.21 5.9655Z" fill="#636363"/>
<path d="M8.9 5.75192C8.9 5.48495 9.03 5.23578 9.16 5.23578C9.25 5.23578 9.3 5.34257 9.3 5.54725C9.3 5.79642 9.26 5.85871 9.1 5.85871C8.99 5.85871 8.9 5.80532 8.9 5.75192Z" fill="#636363"/>
<path d="M92.1 5.36927C92.1 5.0133 92.34 4.93321 92.44 5.26248C92.54 5.59174 92.51 5.68073 92.3 5.68073C92.14 5.68073 92.1 5.61844 92.1 5.36927Z" fill="#636363"/>
<path d="M19 4.79972C19 4.55945 19.02 4.55055 19.24 4.63954C19.37 4.69293 19.53 4.81752 19.59 4.89761C19.69 5.04 19.66 5.0578 19.35 5.0578C19.03 5.0578 19 5.0311 19 4.79972Z" fill="#636363"/>
<path d="M82.71 4.36367C82.77 4.28358 82.93 4.15899 83.06 4.10559C83.28 4.0166 83.3 4.0255 83.3 4.26578C83.3 4.49716 83.27 4.52385 82.95 4.52385C82.64 4.52385 82.61 4.50605 82.71 4.36367Z" fill="#636363"/>
<path d="M91.9 4.12339C91.9 3.76743 92.14 3.68734 92.24 4.0166C92.34 4.34587 92.31 4.43486 92.1 4.43486C91.94 4.43486 91.9 4.37257 91.9 4.12339Z" fill="#636363"/>
<path d="M9.17 4.0255C9.14 3.98991 9.15 3.89202 9.21 3.79413C9.26 3.70514 9.28 3.58945 9.25 3.54495C9.22 3.49156 9.28 3.45596 9.39 3.45596C9.56 3.45596 9.6 3.50936 9.6 3.76743C9.6 4.00771 9.56 4.0789 9.42 4.0789C9.32 4.0789 9.2 4.0522 9.17 4.0255Z" fill="#636363"/>
<path d="M84.4 3.38477C84.4 3.34028 84.51 3.25128 84.65 3.18899C84.79 3.1267 84.9 3.03771 84.9 2.99321C84.9 2.94871 84.95 2.93982 85 2.96651C85.06 2.99321 85.1 3.1178 85.1 3.24239C85.1 3.42927 85.05 3.45596 84.75 3.45596C84.56 3.45596 84.4 3.42037 84.4 3.38477Z" fill="#636363"/>
<path d="M14.4 2.1656C14.4 1.89862 14.43 1.89862 14.81 2.0944C15.19 2.29908 15.18 2.38807 14.75 2.38807C14.44 2.38807 14.4 2.36138 14.4 2.1656Z" fill="#636363"/>
<path d="M86.9 2.04991C86.9 1.97872 87.42 1.67615 87.54 1.67615C87.57 1.67615 87.6 1.77404 87.6 1.89862C87.6 2.0944 87.56 2.1211 87.25 2.1211C87.06 2.1211 86.9 2.08551 86.9 2.04991Z" fill="#636363"/>
<path d="M9.93 1.48037C10.12 1.07101 10.3 1.05321 10.3 1.44477C10.3 1.72954 10.27 1.76514 10.05 1.76514C9.81 1.76514 9.8 1.75624 9.93 1.48037Z" fill="#636363"/>
<path d="M88.1 1.49816C88.1 1.40917 88.46 1.20449 88.68 1.1778C88.75 1.1689 88.8 1.24899 88.8 1.37358C88.8 1.56046 88.75 1.58716 88.45 1.58716C88.26 1.58716 88.1 1.55156 88.1 1.49816Z" fill="#636363"/>
<path d="M10.3 0.928619C10.3 0.812931 10.58 0.697243 10.88 0.697243C10.94 0.697243 11 0.777334 11 0.875224C11 1.01761 10.93 1.05321 10.65 1.05321C10.42 1.05321 10.3 1.00871 10.3 0.928619Z" fill="#636363"/>
</svg>
