<svg width="377" height="449" viewBox="0 0 377 449" fill="none" xmlns="http://www.w3.org/2000/svg">
<path d="M373.867 448.512C373.867 448.013 375.687 447.379 376.06 447.696C376.2 447.832 376.153 448.149 375.967 448.421C375.593 449.011 373.867 449.101 373.867 448.512Z" fill="#A17B72"/>
<path d="M186.547 446.88C186.127 445.339 186.407 445.067 187.573 445.701C188.087 445.973 189.16 446.064 189.953 445.928C191.027 445.701 191.447 445.837 191.68 446.381C192.1 447.424 191.867 447.56 189.207 447.877C186.967 448.104 186.873 448.059 186.547 446.88V446.88Z" fill="#A17B72"/>
<path d="M374.8 441.032C374.8 440.624 375.127 440.171 375.5 439.99C376.667 439.582 376.76 440.08 375.733 440.987C374.893 441.758 374.8 441.758 374.8 441.032Z" fill="#A17B72"/>
<path d="M373.12 429.291C372.747 428.294 373.633 427.206 374.333 427.886C374.66 428.203 374.567 428.656 374.147 429.246C373.493 430.062 373.447 430.062 373.12 429.291V429.291Z" fill="#A17B72"/>
<path d="M371.393 420.496C371.02 420.043 370.6 419.091 370.553 418.32C370.46 417.595 370.18 416.688 369.947 416.371C369.153 415.328 369.293 414.014 370.18 414.014C370.927 414.014 371.58 415.147 371.767 416.96C371.86 417.459 372.047 418.638 372.233 419.59C372.607 421.448 372.467 421.63 371.393 420.496V420.496Z" fill="#A17B72"/>
<path d="M367.24 413.016C366.167 412.2 366.633 409.48 367.847 409.48C368.593 409.48 368.733 409.843 368.733 411.52C368.733 413.651 368.453 413.923 367.24 413.016Z" fill="#A17B72"/>
<path d="M361.173 405.083C360.847 403.36 361.08 402.227 361.827 402.227C362.48 402.227 362.667 402.59 362.667 403.814C362.667 404.902 362.433 405.4 361.967 405.4C361.593 405.4 361.22 405.264 361.173 405.083Z" fill="#A17B72"/>
<path d="M103.9 399.96C103.527 399.371 104.04 396.877 104.6 396.56C104.787 396.424 104.88 396.741 104.74 397.24C104.413 398.373 105.347 398.464 106.513 397.421C107.307 396.741 107.353 396.787 107.073 398.419C106.747 400.459 106.467 401.003 106.467 399.597C106.467 398.963 106.233 398.691 105.813 398.872C105.44 399.008 105.253 399.416 105.393 399.779C105.673 400.504 104.367 400.685 103.9 399.96Z" fill="#A17B72"/>
<path d="M338.727 395.699C338.26 395.336 338.027 394.974 338.26 394.838C338.447 394.747 339.053 395.019 339.52 395.472C340.547 396.47 339.987 396.606 338.727 395.699Z" fill="#A17B72"/>
<path d="M339.707 388.763C338.493 388.445 338.68 387.403 339.987 387.085C341.527 386.723 342.6 387.176 342.6 388.219C342.6 389.08 341.62 389.261 339.707 388.763V388.763Z" fill="#A17B72"/>
<path d="M319.733 387.72C319.22 387.403 319.313 387.222 320.34 386.859C322.253 386.134 323 386.27 323 387.267C323 387.947 322.673 388.174 321.74 388.174C320.993 388.174 320.107 387.992 319.733 387.72Z" fill="#A17B72"/>
<path d="M345.867 387.312C345.867 386.134 346.8 385.907 347.827 386.768C349.04 387.766 348.853 388.174 347.267 388.174C346.193 388.174 345.867 387.947 345.867 387.312Z" fill="#A17B72"/>
<path d="M314.693 384.456C314.833 384.139 315.58 383.64 316.373 383.323C317.82 382.734 317.867 382.779 317.867 383.867C317.867 384.864 317.68 385 316.187 385C315.113 385 314.6 384.819 314.693 384.456Z" fill="#A17B72"/>
<path d="M272.133 381.419C272.133 380.829 274.327 379.56 275.4 379.56C276.473 379.56 276.52 379.741 275.867 380.965C275.493 381.555 274.887 381.827 273.767 381.827C272.88 381.827 272.133 381.645 272.133 381.419Z" fill="#A17B72"/>
<path d="M311.567 380.014C311.427 379.787 311.427 379.56 311.66 379.56C311.847 379.56 311.707 379.379 311.333 379.107C310.773 378.744 310.773 378.654 311.473 378.382C312.127 378.155 312.173 377.974 311.753 377.475C311.333 376.976 311.473 376.84 312.453 376.84C313.573 376.84 313.667 377.022 313.667 378.654C313.667 380.15 313.527 380.467 312.78 380.467C312.267 380.467 311.707 380.286 311.567 380.014V380.014Z" fill="#A17B72"/>
<path d="M247.867 378.653C247.867 378.381 248.613 377.837 249.5 377.429C250.48 376.976 251.087 376.432 250.947 376.069C250.807 375.752 250.993 375.48 251.367 375.48C252.347 375.48 252.3 378.472 251.32 378.835C250.153 379.288 247.867 379.152 247.867 378.653Z" fill="#A17B72"/>
<path d="M306.153 375.662C305.64 375.027 305.687 374.8 306.667 374.03L307.833 373.168L306.06 373.44C304.8 373.622 304.333 373.576 304.567 373.259C304.707 372.987 305.593 372.76 306.48 372.76C308.067 372.76 308.113 372.806 307.973 374.438C307.833 376.296 307.133 376.795 306.153 375.662V375.662Z" fill="#A17B72"/>
<path d="M267.933 372.987C267.933 371.763 268.12 371.4 268.773 371.4C269.427 371.4 269.473 371.491 268.867 371.853C268.493 372.08 268.353 372.397 268.493 372.579C268.96 372.987 273.767 372.987 276.52 372.579L278.853 372.216L277.687 373.395C276.66 374.483 276.287 374.573 272.273 374.573H267.933V372.987V372.987Z" fill="#A17B72"/>
<path d="M299.807 374.029C300.647 373.757 301.02 373.349 300.88 372.941C300.693 372.533 300.973 372.307 301.58 372.307C302.28 372.307 302.513 372.533 302.373 373.259C302.28 374.029 301.86 374.256 300.367 374.347C298.593 374.483 298.593 374.483 299.807 374.029Z" fill="#A17B72"/>
<path d="M201.2 372.579C201.2 371.627 201.48 370.947 201.9 370.766C202.507 370.584 202.507 370.675 202.133 371.4C201.433 372.715 201.527 373.44 202.32 372.806C202.973 372.262 208.853 370.494 209.927 370.494C210.253 370.494 210.533 370.811 210.533 371.174C210.533 371.536 210.207 371.854 209.787 371.854C209.413 371.854 209.227 372.08 209.367 372.307C209.553 372.579 209.087 372.76 208.34 372.76C207.593 372.76 206.567 373.078 206.053 373.44C205.587 373.803 204.28 374.12 203.207 374.12C201.247 374.12 201.2 374.075 201.2 372.579V372.579Z" fill="#A17B72"/>
<path d="M200.267 369.587C200.267 369.133 201.76 368.227 202.553 368.227C202.833 368.227 203.067 368.635 203.067 369.133C203.067 369.859 202.74 370.04 201.667 370.04C200.92 370.04 200.267 369.859 200.267 369.587Z" fill="#A17B72"/>
<path d="M266.673 368.816C265.787 368.499 265.927 366.867 266.813 366.867C267.84 366.867 269.193 367.637 269.52 368.453C269.707 368.952 269.473 369.133 268.493 369.088C267.793 369.088 266.953 368.952 266.673 368.816V368.816Z" fill="#A17B72"/>
<path d="M191.633 355.171C191.493 354.446 191.54 353.403 191.773 352.768C192.007 352.179 192.1 351.408 192.007 351.136C191.867 350.774 192.193 350.547 192.753 350.547C193.827 350.547 193.92 351 193.453 354.355C193.08 356.712 192.1 357.166 191.633 355.171Z" fill="#A17B72"/>
<path d="M191.073 344.699C190.793 343.973 190.7 342.024 190.793 340.256C190.98 337.899 190.84 336.766 190.28 335.678C189.3 333.864 189.347 333.637 190.467 334C191.54 334.317 191.633 334.091 190.887 332.822C190.653 332.323 190.187 332.051 189.953 332.232C189.673 332.413 189.533 331.643 189.627 330.192C189.86 326.157 191.867 327.608 191.867 331.779C191.867 332.368 192.053 332.867 192.287 332.867C192.8 332.867 193.407 342.341 192.987 344.427C192.613 346.331 191.773 346.467 191.073 344.699V344.699Z" fill="#A17B72"/>
<path d="M201.993 208.789C201.48 207.928 202.647 206.387 204.093 206.024C205.167 205.752 205.587 205.389 205.493 204.891C205.4 204.347 205.68 204.12 206.38 204.12C207.267 204.12 207.36 204.301 207.127 205.933C206.987 206.931 206.567 208.019 206.193 208.427C205.447 209.107 202.367 209.379 201.993 208.789V208.789Z" fill="#A17B72"/>
<path d="M206.473 199.859C206.007 198.363 206.287 197.184 207.08 197.32C207.267 197.366 207.593 197.003 207.78 196.55C208.013 196.096 208.153 196.912 208.153 198.59C208.2 201.808 207.313 202.488 206.473 199.859V199.859Z" fill="#A17B72"/>
<path d="M204.187 196.368C203.3 195.371 203.3 195.371 204.373 195.915C204.933 196.187 205.4 196.64 205.4 196.867C205.4 197.547 205.167 197.411 204.187 196.368Z" fill="#A17B72"/>
<path d="M99.2333 194.328C98.72 194.192 96.5733 193.784 94.4733 193.376C91.3 192.787 90.6 192.47 90.6 191.835C90.6 191.11 90.88 191.019 92.6066 191.246C93.68 191.382 95.22 191.654 95.9666 191.88C97.3666 192.288 100.727 192.787 103.107 193.014C104.693 193.104 106 193.648 106 194.192C106 194.6 101.1 194.691 99.2333 194.328Z" fill="#A17B72"/>
<path d="M208.573 193.467C208.433 192.832 208.527 192.334 208.76 192.334C209.04 192.334 209.133 192.016 208.947 191.654C208.76 191.2 208.993 190.974 209.6 190.974C210.393 190.974 210.533 191.291 210.533 192.787C210.533 194.283 210.347 194.6 209.647 194.6C209.087 194.6 208.713 194.192 208.573 193.467Z" fill="#A17B72"/>
<path d="M83.2266 190.565C80.8933 190.157 80.1933 189.613 80.4266 188.344C80.5666 187.392 80.5666 187.392 82.4333 188.253C83.46 188.752 84.9533 189.115 85.7466 189.16C86.5866 189.16 87.5666 189.523 88.0333 190.067C88.8733 190.973 88.8266 190.973 87.0533 190.928C86.0733 190.883 84.3466 190.701 83.2266 190.565V190.565Z" fill="#A17B72"/>
<path d="M148.14 189.84C146.413 189.115 146.18 188.707 147.44 188.707C148.373 188.707 150.24 189.886 149.867 190.203C149.727 190.339 148.933 190.158 148.14 189.84Z" fill="#A17B72"/>
<path d="M208.573 189.069C208.48 188.344 207.967 187.936 206.707 187.573C204.56 186.984 203.627 186.168 204.327 185.488C204.7 185.125 205.26 185.216 206.333 185.76C207.593 186.395 208.06 186.44 208.947 185.941C210.3 185.261 210.347 184.899 209.087 183.221C208.2 181.952 208.153 181.816 208.853 181.045C209.88 179.957 209.787 179.051 208.62 178.371C208.107 178.053 207.313 176.92 206.847 175.877C205.913 173.837 204 170.8 202.833 169.621C202.46 169.213 202.133 168.488 202.133 167.944C202.133 167.128 201.853 166.947 200.547 166.947C199.147 166.947 198.913 166.811 198.773 165.723C198.68 164.725 198.26 164.363 197 163.955C195.927 163.592 195.32 163.093 195.227 162.459C195.133 161.869 194.713 161.507 194.153 161.507C193.687 161.507 193.267 161.325 193.267 161.053C193.267 160.827 192.94 160.6 192.567 160.6C192.193 160.6 191.867 160.419 191.867 160.147C191.867 159.92 191.54 159.693 191.167 159.693C190.7 159.693 190.467 159.24 190.467 158.333V156.928L192.707 158.424C193.92 159.24 195.227 160.283 195.647 160.781C196.113 161.325 196.907 161.643 197.84 161.597C198.633 161.597 199.38 161.824 199.52 162.187C199.66 162.549 200.173 163.048 200.687 163.32C202.273 164.091 201.9 162.867 200.08 161.053C195.973 156.973 194.807 156.021 193.5 155.704C192.38 155.387 192.053 155.069 191.96 153.891L191.82 152.485L193.127 153.12C193.827 153.483 194.76 153.8 195.18 153.8C195.6 153.8 196.813 154.435 197.933 155.205C200.267 156.837 203.953 158.515 204.373 158.152C204.513 158.016 204.373 157.427 204.093 156.837C203.767 156.293 203.393 155.024 203.16 154.027C202.833 152.304 202.6 152.123 199.333 150.491C196.487 149.085 195.787 148.904 195.693 149.448C195.6 149.856 195.367 150.173 195.18 150.173C194.433 150.173 192.8 148.043 192.52 146.683C192.333 145.731 191.913 145.187 191.213 145.005C190.607 144.869 189.347 144.053 188.413 143.147C187.433 142.285 186.407 141.515 186.127 141.515C185.8 141.469 185.24 141.379 184.867 141.333C184.493 141.288 183.747 141.197 183.233 141.107C182.44 141.016 182.44 140.971 183.467 140.653C184.26 140.427 184.353 140.291 183.84 140.245C183.187 140.2 183 139.792 183 138.613C183 137.344 183.187 137.027 183.933 137.027C184.633 137.027 184.867 136.709 184.867 135.939V134.805L188.04 135.848C189.767 136.437 191.867 136.845 192.707 136.755C193.78 136.709 194.667 136.981 195.553 137.752C196.3 138.341 197.373 139.021 197.98 139.248C199.053 139.656 199.007 139.701 197.56 139.701C196.72 139.747 195.507 139.429 194.9 139.021C194.107 138.523 193.22 138.387 192.333 138.568C191.54 138.704 190.42 138.613 189.813 138.432C189.207 138.205 187.48 137.888 185.987 137.752L183.233 137.48L184.4 138.387C185.053 138.885 186.5 139.565 187.667 139.973C188.833 140.336 190.607 141.379 191.587 142.24C192.613 143.101 193.64 143.827 193.92 143.872C194.2 143.872 195.087 143.963 195.833 144.099C196.86 144.235 196.627 144.053 194.947 143.373C193.687 142.875 192.427 142.24 192.147 141.968C191.773 141.56 191.773 141.515 192.24 141.741C192.52 141.923 193.08 141.923 193.407 141.696C194.247 141.197 198.353 141.107 199.613 141.605C201.107 142.149 201.013 142.92 199.473 142.965C198.4 142.965 198.633 143.192 200.967 144.235C202.507 144.96 203.86 145.459 203.953 145.368C204.093 145.277 203.72 144.688 203.113 144.144C202.46 143.419 202.227 142.784 202.413 142.24C202.647 141.651 202.6 141.515 202.227 141.741C201.853 141.923 201.76 141.832 201.947 141.424C202.087 141.061 201.807 140.472 201.293 140.155C200.827 139.792 200.127 139.021 199.8 138.432C199.287 137.48 199.333 137.253 199.987 136.8C201.06 136.029 200.92 135.531 199.333 134.579C198.54 134.171 198.027 133.581 198.213 133.355C198.353 133.083 198.073 132.584 197.56 132.221C197 131.859 196.673 131.315 196.813 130.952C196.953 130.635 196.72 130.091 196.347 129.773C195.927 129.456 195.74 129.048 195.88 128.821C196.02 128.595 195.6 128.413 194.947 128.413C193.313 128.413 193.407 127.824 195.273 126.963L196.767 126.237L195.6 125.784L194.433 125.285L195.507 124.968L196.533 124.696L195.367 123.563C194.76 122.928 194.34 122.203 194.527 121.885C194.667 121.613 194.667 121.523 194.433 121.704C194.013 122.112 192.847 120.797 192.8 119.891C192.8 119.573 193.173 119.347 193.64 119.392C195.133 119.528 195.6 119.347 195.6 118.667C195.6 118.304 195.927 117.987 196.3 117.987C196.767 117.987 197 118.44 197 119.483C197 120.253 197.42 121.523 197.933 122.293C198.447 123.019 198.96 124.56 199.147 125.693C199.333 126.827 199.94 128.821 200.547 130.181C201.153 131.496 201.667 132.947 201.667 133.4C201.667 133.853 201.993 134.307 202.367 134.488C203.16 134.76 203.347 138.16 202.6 138.613C201.9 139.067 202.04 140.2 202.833 140.2C203.3 140.2 203.533 140.699 203.533 141.787C203.533 142.875 203.813 143.464 204.513 143.827C205.307 144.235 205.447 144.733 205.353 146.32C205.26 147.408 205.447 148.541 205.727 148.904C206.053 149.221 206.52 152.168 206.8 155.387C207.08 158.651 207.64 162.187 208.013 163.32C208.387 164.453 208.667 165.632 208.667 165.995C208.667 166.357 209.04 167.037 209.507 167.536C210.44 168.533 211.28 173.067 211.933 180.411C212.4 185.125 212.353 185.624 211.467 187.211C210.953 188.163 210.533 189.16 210.533 189.477C210.533 190.52 208.76 190.157 208.573 189.069V189.069ZM207.36 171.48C206.987 169.213 205.867 168.443 205.867 170.437C205.867 171.616 207.127 174.019 207.547 173.656C207.64 173.52 207.547 172.568 207.36 171.48ZM200.453 165.36C200.173 164.635 199.333 164.408 199.333 165.043C199.333 165.541 199.847 166.04 200.313 166.04C200.547 166.04 200.593 165.723 200.453 165.36ZM203.533 159.693C202.6 159.104 201.527 159.104 201.9 159.693C202.04 159.965 202.647 160.147 203.207 160.147C204.047 160.147 204.093 160.056 203.533 159.693ZM202.087 149.085C200.78 146.909 200.173 146.501 197.093 145.821C193.967 145.096 192.94 145.64 195.18 146.819C196.533 147.544 202.647 150.491 202.927 150.581C202.973 150.627 202.6 149.947 202.087 149.085Z" fill="#A17B72"/>
<path d="M5.90002 188.027C4.87335 187.664 3.80001 187.075 3.52001 186.667C3.24001 186.304 2.77335 185.987 2.44669 185.987C2.16669 185.987 1.93335 185.397 1.93335 184.627V183.267L4.82669 185.08C9.44669 188.027 9.07334 188.117 21.6733 180.003L27.1333 176.467V177.827C27.1333 178.733 26.9 179.187 26.4333 179.187C26.06 179.187 25.7333 179.413 25.7333 179.64C25.7333 179.912 25.3133 180.093 24.8 180.093C24.2867 180.093 23.8667 180.411 23.8667 180.773C23.8667 181.136 23.54 181.453 23.1667 181.453C22.7933 181.453 22.4667 181.635 22.4667 181.907C22.4667 182.133 21.9533 182.451 21.3467 182.632C20.6933 182.768 20.0867 183.176 19.9467 183.539C19.8067 183.901 19.3867 184.173 18.9667 184.173C18.5933 184.173 18.2667 184.355 18.2667 184.581C18.2667 184.808 17.52 185.261 16.6333 185.579C15.7467 185.896 15 186.349 15 186.531C15 186.712 14.6733 186.893 14.3 186.893C13.9267 186.893 13.6 187.12 13.6 187.347C13.6 187.619 13.2733 187.8 12.9 187.8C12.5267 187.8 12.2 188.027 12.2 188.253C12.2 188.933 8.04668 188.752 5.90002 188.027Z" fill="#A17B72"/>
<path d="M202.647 187.03C202.6 186.259 202.32 185.987 201.573 185.987C200.08 185.942 198.867 184.944 198.867 183.766C198.867 182.587 199.147 182.587 201.107 183.72C202.833 184.763 203.253 185.443 202.927 186.984L202.74 188.027L202.647 187.03Z" fill="#A17B72"/>
<path d="M205.073 181.725C204.467 181.453 204 181.091 204 180.864C204 180.683 204.653 180.819 205.4 181.227C206.193 181.635 206.8 182.043 206.8 182.133C206.8 182.451 206.24 182.315 205.073 181.725Z" fill="#A17B72"/>
<path d="M202.227 181.363C201.433 180.592 201.527 180.275 202.507 180.275C202.973 180.275 203.393 180.638 203.393 181.091C203.487 182.043 203.02 182.134 202.227 181.363Z" fill="#A17B72"/>
<path d="M55.0399 179.595C54.5733 179.368 54.2 178.643 54.2 178.054C54.2 177.192 54.3866 177.011 55.0399 177.283C56.4866 177.872 58.8666 179.368 58.8666 179.731C58.8666 180.23 55.9733 180.139 55.0399 179.595Z" fill="#A17B72"/>
<path d="M199.147 176.512C198.26 175.651 197.933 174.835 198.027 174.064C198.167 172.885 198.167 172.885 200.453 174.835C202.693 176.784 202.973 177.827 201.247 177.827C200.827 177.827 199.847 177.237 199.147 176.512V176.512Z" fill="#A17B72"/>
<path d="M49.0667 167.854C49.0667 166.766 50.7 166.584 51.12 167.672C51.54 168.715 51.4933 168.76 50.2333 168.76C49.3933 168.76 49.0667 168.534 49.0667 167.854Z" fill="#A17B72"/>
<path d="M64.4667 157.427C64.4667 157.2 64.0467 156.973 63.5334 156.973C63.02 156.973 62.6 156.792 62.6 156.565C62.6 156.339 62.18 156.067 61.6667 155.931C61.1534 155.795 60.7334 155.387 60.7334 154.979C60.7334 154.571 60.5467 154.253 60.2667 154.253C60.0334 154.253 59.8 153.664 59.8 152.893C59.8 151.987 59.5667 151.533 59.1 151.533C58.6334 151.533 58.4 151.035 58.4 149.947C58.4 147.725 59.52 147.907 60.22 150.219C60.92 152.485 64.28 155.84 66.2867 156.293C68.34 156.701 68.2 157.88 66.1 157.88C65.2134 157.88 64.4667 157.699 64.4667 157.427Z" fill="#A17B72"/>
<path d="M69.1333 157.336C69.18 157.019 70.1133 156.339 71.2333 155.795L73.3333 154.843V156.067C73.3333 157.427 72.6333 157.88 70.4866 157.88C69.6933 157.88 69.1333 157.653 69.1333 157.336Z" fill="#A17B72"/>
<path d="M5.89998 155.75C4.49998 155.432 1.93332 153.392 1.93332 152.622C1.93332 152.304 1.74665 151.987 1.46665 151.987C1.23332 151.987 0.999984 151.488 0.999984 150.854C0.999984 150.219 0.813317 149.72 0.533317 149.72C0.299984 149.72 0.0666504 148.995 0.0666504 148.134C0.0666504 145.958 1.18665 146.094 1.88665 148.36C2.53998 150.446 4.31332 152.667 6.17999 153.574C7.85999 154.435 11.5933 154.435 13.1333 153.574C14.7667 152.667 15 152.712 15 154.027C15 154.888 14.6733 155.206 13.2733 155.568C11.5 156.067 7.62665 156.158 5.89998 155.75V155.75Z" fill="#A17B72"/>
<path d="M195.833 152.893C195.693 152.667 195.88 152.44 196.253 152.44C196.627 152.44 197.093 152.667 197.233 152.893C197.373 153.165 197.187 153.347 196.813 153.347C196.44 153.347 195.973 153.165 195.833 152.893Z" fill="#A17B72"/>
<path d="M181.6 142.739C181.6 141.696 181.693 141.651 183.233 142.15C184.12 142.422 184.867 142.875 184.867 143.238C184.867 143.6 184.26 143.827 183.233 143.827C181.833 143.827 181.6 143.691 181.6 142.739Z" fill="#A17B72"/>
<path d="M0.0666504 141.787C0.0666504 140.518 0.253317 140.2 0.999984 140.2C1.97998 140.2 2.11998 140.654 1.65331 142.376C1.18665 144.008 0.0666504 143.6 0.0666504 141.787Z" fill="#A17B72"/>
<path d="M170.073 120.389C168.44 120.253 168.067 120.027 168.067 119.301C168.067 118.621 168.393 118.44 169.747 118.44C172.267 118.44 175.533 119.347 175.533 120.072C175.533 120.707 174.553 120.752 170.073 120.389V120.389Z" fill="#A17B72"/>
<path d="M189.253 92.2826C189.44 91.5573 189.58 90.8319 189.58 90.5599C189.58 90.3333 189.44 89.5626 189.253 88.8826C189.02 87.7946 189.113 87.6133 189.907 87.6133C191.073 87.6133 191.867 88.8373 191.867 90.5599C191.867 92.2826 191.073 93.5066 189.907 93.5066C189.113 93.5066 189.02 93.3253 189.253 92.2826Z" fill="#A17B72"/>
<path d="M190 86.0724C190 85.7097 189.673 85.347 189.3 85.1657C188.133 84.7577 188.46 83.5337 189.767 83.5337C190.793 83.5337 190.933 83.715 190.933 85.1204C190.933 85.9817 190.747 86.707 190.467 86.707C190.233 86.707 190 86.435 190 86.0724Z" fill="#A17B72"/>
<path d="M189.393 77.096C189.487 72.4267 189.347 70.84 188.833 70.0694C187.947 68.8 187.947 68.3014 188.927 65.4C189.533 63.632 189.58 62.9974 189.16 62.7254C188.693 62.4534 188.74 61.728 189.347 59.552C190.047 56.7414 189.907 53.3414 189.113 53.84C188.46 54.2027 185.333 62.136 185.333 63.36C185.333 63.9947 185.707 64.6747 186.267 64.9467C187.433 65.5814 187.48 66.3974 186.313 66.216C185.8 66.1254 184.727 66.8054 183.513 68.0294C182.487 69.072 181.507 69.9334 181.367 69.9334C181.227 69.9334 181.133 68.7547 181.133 67.3494C181.133 64.4027 182.02 60.1867 183.7 54.7014C185.053 50.44 185.053 50.44 184.167 50.44C183 50.44 183.327 46.9494 184.867 42.7334C186.64 37.7467 186.64 37.2934 184.82 37.2934H183.327L183.653 34.3467C183.84 32.7147 184.167 30.856 184.4 30.2214C184.68 29.5867 184.867 28.5894 184.867 27.9547C184.867 27.0027 185.1 26.8667 186.547 26.8667H188.227L188.04 30.4027C187.947 32.3067 187.713 34.256 187.48 34.664C187.2 35.2534 187.387 35.4347 188.413 35.5707C189.907 35.7067 190.093 36.2054 191.213 42.5067C192.38 49.3067 192.987 59.3254 192.38 62.4534C191.96 64.6747 190.98 78.0934 190.933 82.0827C190.933 82.7174 190.653 83.08 190.093 83.08C189.3 83.08 189.253 82.5814 189.393 77.096ZM189.533 49.9867C189.533 49.624 189.3 48.9894 189.067 48.6267C188.74 48.128 188.46 48.4 187.713 49.9867C187.2 51.12 186.78 52.4347 186.78 52.9334C186.78 53.704 187.013 53.568 188.133 52.2534C188.927 51.392 189.533 50.3947 189.533 49.9867Z" fill="#A17B72"/>
<path d="M176.7 80.8136C176.513 80.5416 176 80.4509 175.487 80.5869C174.787 80.8136 174.6 80.6323 174.6 79.7256C174.6 78.3656 174.973 78.2296 175.767 79.3176C176.233 79.907 176.56 79.9523 177.867 79.5443C179.453 79.0003 181.647 78.819 180.2 79.3176C179.827 79.4536 178.94 79.9523 178.24 80.451C177.447 80.995 176.887 81.1309 176.7 80.8136V80.8136Z" fill="#A17B72"/>
<path d="M28.0667 75.3735C28.0667 72.0641 28.2067 71.2935 28.7667 71.2935C29.6533 71.2935 29.98 72.7895 29.7466 75.8268C29.6533 77.1868 29.5133 78.5921 29.5133 78.9095C29.4666 79.1815 29.14 79.4535 28.7667 79.4535C28.2067 79.4535 28.0667 78.6828 28.0667 75.3735Z" fill="#A17B72"/>
<path d="M180.013 75.0559C179.547 74.6026 179.687 71.7466 180.2 71.7466C180.433 71.7466 180.527 72.0639 180.387 72.4266C180.2 72.8799 180.387 73.1066 181.087 73.1066C181.647 73.1066 182.067 73.3786 182.067 73.6959C182.067 74.3306 180.433 75.4639 180.013 75.0559Z" fill="#A17B72"/>
<path d="M56.0667 67.0773C56.0667 66.2613 56.86 64.6746 57.84 63.6773C58.9133 62.4986 58.4933 64.4479 57.2333 66.2159C56.4867 67.3039 56.0667 67.6213 56.0667 67.0773Z" fill="#A17B72"/>
<path d="M58.6333 66.2616C59.0533 65.4909 59.52 64.9923 59.66 65.1283C60.0333 65.4909 58.8666 67.667 58.3066 67.667C58.0733 67.667 58.26 67.0323 58.6333 66.2616V66.2616Z" fill="#A17B72"/>
<path d="M29.1867 40.6935C29 40.2855 29.14 39.3788 29.4667 38.6535C29.7933 37.8828 29.8867 36.7495 29.7 36.0695C29.28 34.3015 27.2733 31.8535 26.2467 31.8535C25.8267 31.8535 23.9134 30.3121 22.0934 28.4535C19.48 25.8241 18.7333 24.8268 18.7333 23.7388C18.7333 22.6508 18.08 21.7895 15.14 19.1601C11.0333 15.4881 10.0067 14.8535 7.20667 14.4001C4.17334 13.9468 3.42668 13.0401 3.05334 9.68547L2.72668 6.82947L4.78002 7.10147C5.90002 7.23747 8.18668 7.4188 9.86668 7.50947C12.7133 7.64547 16.2133 8.28014 19.48 9.23214C20.2733 9.45881 21.3467 9.64014 21.9067 9.64014C22.4667 9.64014 22.9333 9.8668 22.9333 10.0935C22.9333 10.3655 23.4933 10.8188 24.24 11.0908C28.02 12.5868 29.9333 13.5841 32.2667 15.1708C33.6667 16.1228 36.5133 17.9815 38.5667 19.2508C40.62 20.5201 43.56 22.6055 45.1 23.8295C46.64 25.0535 48.4133 26.2775 49.0667 26.5495C49.72 26.8215 50.7467 27.4108 51.3534 27.8641C51.96 28.3175 52.8934 28.6801 53.4534 28.6801C54.0134 28.6801 54.9 28.9521 55.3667 29.3148C56.1133 29.8135 56.4867 29.8588 57.7 29.3601C59.7067 28.4988 67.78 27.6375 69.0867 28.1361C69.74 28.3628 71.3267 28.3628 72.82 28.0908C75.7134 27.6375 79.4934 28.2721 80.8934 29.4961C81.5934 30.0855 82.9 30.1308 89.2934 29.9041C96.7134 29.6321 96.8534 29.6321 98.16 30.7201C99.28 31.6721 99.7934 31.7628 102.127 31.5361C104.367 31.3095 105.487 30.8561 108.753 28.7708C110.9 27.4108 113.747 25.3255 115.053 24.1468C122.893 17.1201 138.62 6.01347 140.767 6.01347C141.42 6.01347 141.933 6.24014 141.933 6.4668C141.933 6.7388 142.167 6.92014 142.4 6.92014C142.68 6.92014 142.867 6.3308 142.867 5.6508C142.867 4.2908 143.613 3.29347 144.593 3.29347C144.967 3.29347 145.713 2.84013 146.273 2.34147C148.28 0.437467 153.227 -0.695865 153.693 0.618802C153.787 0.936135 154.253 0.936135 155.14 0.618802C155.887 0.346802 157.287 0.120136 158.313 0.120136C160.087 0.120136 160.133 0.165471 160.133 1.61614C160.133 3.70147 158.827 4.74414 155.84 5.01614C154.067 5.19747 152.713 5.6508 151.08 6.78413C149.353 7.91747 148.327 8.28014 146.787 8.28014C145.06 8.28014 144.733 8.41613 144.733 9.14147C144.733 9.8668 144.36 10.0481 143.007 10.1841C141.607 10.2748 141.047 10.6375 139.833 12.3601C139.04 13.4935 137.78 14.6721 137.127 14.9895C136.427 15.3068 135.447 16.3948 134.933 17.3468C133.86 19.3868 131.993 21.2908 130.267 22.0615C127.793 23.1495 125.647 24.8721 124.387 26.7308C123.173 28.4988 122.893 28.6801 121.307 28.5895C120 28.4988 119.253 28.7708 118.273 29.6321C117.527 30.2668 116.453 31.0828 115.8 31.4908C114.027 32.5788 113.467 34.4828 114.26 36.7948C114.633 37.8375 114.867 39.1975 114.773 39.7868C114.633 40.8295 114.633 40.8295 113.607 40.0135C113.047 39.6055 112.487 38.6535 112.347 37.9281C112.207 37.2028 111.88 36.5681 111.6 36.4775C111.32 36.3868 110.9 35.9335 110.667 35.4801C110.293 34.8001 110.573 33.9388 111.88 31.6268C112.813 29.9948 113.42 28.4988 113.28 28.3628C113.093 28.1815 111.973 28.9975 110.76 30.1308C107.587 33.1228 106.093 33.7121 101.613 33.8028C99.56 33.8028 96.8534 33.6668 95.6867 33.4855C94.1467 33.2135 93.4 33.2588 93.1667 33.6215C92.9333 34.0295 92.6067 33.9841 92 33.4401C90.9267 32.4881 87.5667 32.8961 86.9133 34.0295C86.4933 34.7095 86.3067 34.7095 85 33.7575C83.8333 32.8961 83.4134 32.8055 82.8534 33.2588C82.34 33.6668 82.0133 33.6668 81.64 33.3041C81.3133 32.9868 80.66 32.7601 80.1 32.7601C79.5867 32.7601 78.56 32.3975 77.7667 31.9441C75.7133 30.7201 73.0067 30.4028 71.7 31.2188C70.9533 31.7175 70.5333 31.7628 70.3 31.4001C69.6933 30.4028 67.5933 29.9495 66.4733 30.5388C65.5867 30.9921 65.26 30.9468 64.56 30.3121C63.8134 29.6775 63.58 29.6775 63.16 30.1761C62.8334 30.5388 61.34 31.1735 59.8 31.6268C57.3267 32.3521 56.6734 32.3975 54.2934 31.8535C52.8467 31.5361 51.1667 30.9921 50.6067 30.6748C50.0467 30.3121 49.0667 30.0401 48.46 30.0401C47.8534 30.0401 46.5467 29.4508 45.5667 28.6801C44.5867 27.9548 43.6067 27.3201 43.3733 27.3201C43.14 27.3201 41.6 26.0961 39.9667 24.6001C38.3333 23.1041 36.7467 21.8801 36.4667 21.8801C35.72 21.8801 35.44 23.8295 35.9534 25.2348C36.98 27.7281 36.5134 28.0455 34.7867 26.0961C32.9667 23.9655 32.4067 23.7388 32.1733 24.9628C31.9867 25.7335 31.3333 25.1441 27.6 20.9735C27.04 20.3388 26.76 20.1121 26.9467 20.4748C27.18 20.9735 26.9934 21.0641 26.06 20.8828C24.0067 20.5201 23.6334 21.2001 25.22 22.3788C26.0134 22.9681 27.32 23.9201 28.0667 24.5095C28.8133 25.0988 30.0733 26.5041 30.8667 27.5921L32.2667 29.6321L30.8667 28.8615C30.12 28.4081 29.3734 28.1815 29.1867 28.3628C28.7667 28.7255 32.1267 35.9335 33.0133 36.6588C33.8067 37.2935 33.8533 39.5601 33.1067 39.5601C32.78 39.5601 31.9867 39.9681 31.3333 40.4668C29.9333 41.5548 29.5134 41.6001 29.1867 40.6935V40.6935ZM118.227 26.1415C119.3 25.2348 120.42 24.1921 120.607 23.8295C121.353 22.6508 120.7 22.2881 119.44 23.1948C118.787 23.7388 117.9 24.1468 117.48 24.1468C116.453 24.1468 114.867 25.7788 114.867 26.8668C114.867 28.2268 115.94 27.9548 118.227 26.1415ZM26.2 25.8241C26.2 24.8721 22.98 20.8375 20.9733 19.2961C19.9467 18.4801 19.0134 17.8001 18.92 17.8001C18.8267 17.8001 20.2733 19.7495 22.14 22.1068C25.4067 26.2775 26.2 27.0028 26.2 25.8241V25.8241ZM128.867 19.6135C129.893 19.1148 130.64 18.4801 130.5 18.2535C130.313 17.9815 130.64 17.2108 131.153 16.4855C132.04 15.3068 132.04 15.1255 131.387 14.8988C130.873 14.7175 129.66 15.4881 127.653 17.3468C125.973 18.8428 124.433 20.0668 124.153 20.0668C123.593 20.0668 122.333 22.8321 122.333 24.0561C122.333 24.6908 122.893 24.3735 124.62 22.7415C125.927 21.5175 127.793 20.1575 128.867 19.6135ZM32.7333 20.3841C32.7333 19.5681 29.7467 16.7121 29.56 17.3015C29.3267 17.9361 31.66 20.9735 32.3133 20.9735C32.5467 20.9735 32.7333 20.7015 32.7333 20.3841V20.3841ZM137.687 10.8188C137.267 10.4108 135.353 11.9521 135.68 12.4508C135.867 12.7228 136.333 12.5415 136.94 11.9521C137.5 11.4535 137.827 10.9095 137.687 10.8188V10.8188Z" fill="#A17B72"/>
<path d="M178.8 37.112C178.8 36.7494 179.033 36.296 179.267 36.16C179.547 36.024 179.733 35.2987 179.733 34.528C179.733 33.5307 179.967 33.2134 180.667 33.2134C181.46 33.2134 181.6 33.5307 181.6 35.48C181.6 37.7014 181.553 37.7467 180.2 37.7467C179.313 37.7467 178.8 37.52 178.8 37.112Z" fill="#A17B72"/>
<path d="M178.613 30.8564C178.473 30.0404 178.24 28.363 178.1 27.139C177.773 24.3284 174.507 17.8457 171.427 13.8564L170.307 12.3604H171.753C173.06 12.3604 173.2 12.4964 173.2 13.7204C173.2 14.763 173.433 15.0804 174.087 15.0804C175.02 15.0804 175.533 15.8964 175.533 17.3924C175.533 17.8457 175.86 18.2537 176.233 18.2537C176.607 18.2537 177.073 18.7977 177.213 19.4777C177.4 20.1577 177.82 21.019 178.147 21.3364C178.987 22.1524 179.593 24.6457 179.967 28.8164C180.247 31.8084 180.2 32.307 179.593 32.307C179.127 32.307 178.753 31.763 178.613 30.8564V30.8564Z" fill="#A17B72"/>
<path d="M40.2467 29.5414C39.64 27.8188 39.64 27.7734 40.1534 27.7734C40.5734 27.7734 41.2733 30.4934 40.9467 30.8108C40.8533 30.9014 40.5267 30.3574 40.2467 29.5414V29.5414Z" fill="#A17B72"/>
<path d="M177.213 15.896C177.073 15.3067 176.933 13.992 176.933 12.9493C176.933 11.0453 176.98 11 178.52 11C180.387 11 180.667 11.4987 180.667 14.672V16.8933H179.08C177.867 16.8933 177.447 16.6667 177.213 15.896Z" fill="#A17B72"/>
</svg>
