<svg width="398" height="469" viewBox="0 0 398 469" fill="none" xmlns="http://www.w3.org/2000/svg">
<path d="M205.86 468.261C205.72 468.125 205.813 467.309 206.093 466.402C206.327 465.541 206.607 464.408 206.7 463.864C206.84 463.365 207.307 461.325 207.82 459.285C208.333 457.29 208.707 455.069 208.707 454.389C208.66 452.077 210.247 446.818 211.04 446.637C211.787 446.456 211.787 446.41 211.087 446.365C210.06 446.32 209.78 445.05 210.06 441.922C210.247 439.882 210.013 438.522 209.127 435.893C207.773 431.994 207.54 428.64 208.38 424.922C208.847 422.882 209.127 422.293 209.827 422.293C210.433 422.293 210.667 422.656 210.667 423.562C210.667 425.013 211.087 425.648 212.253 426.056C212.953 426.328 213.047 426.69 212.86 428.096C212.347 431.314 211.973 432.72 211.553 432.72C211.32 432.72 211.46 433.445 211.833 434.352C212.207 435.258 212.533 436.528 212.533 437.208L212.58 438.386L213.327 437.072C213.887 436.029 213.98 435.032 213.747 432.402C213.327 427.96 213.84 422.293 214.68 422.293C215.567 422.293 215.8 423.653 215.753 428.413C215.753 430.68 215.753 433.626 215.753 434.986C215.8 436.346 215.52 438.93 215.147 440.653C214.773 442.421 214.213 445.368 213.933 447.226C213.093 452.168 211.32 457.245 207.587 465.224C207.213 465.994 206.933 466.946 206.933 467.309C206.933 468.08 206.28 468.669 205.86 468.261V468.261Z" fill="#76727E"/>
<path d="M93.3466 464.634C92.4599 462.141 91.3866 460.826 90.2199 460.826C89.7533 460.826 89.2399 460.418 89.0999 459.874C88.8199 459.013 88.7732 459.013 88.1666 459.738C87.7466 460.328 87.6999 460.917 87.9799 461.642C88.5399 463.048 88.4932 464.77 87.9332 465.133C86.7666 465.858 83.1266 462.866 82.6132 460.736C82.3332 459.466 80.8399 458.968 80.2799 459.874C79.9999 460.282 77.4332 457.97 74.7732 455.024C74.0266 454.208 73.4666 453.074 73.4666 452.44C73.4666 451.805 73.2333 451.306 72.9533 451.306C72.1599 451.306 72.8133 453.845 73.8866 454.888C74.3999 455.386 74.9599 456.384 75.0999 457.064C75.6599 459.421 76.9199 461.778 78.2266 462.866C80.5133 464.725 79.6732 464.997 76.4066 463.41C74.6332 462.549 72.9999 461.96 72.6732 462.05C72.3932 462.141 71.1799 461.914 70.0599 461.552C68.9399 461.189 67.5866 461.008 67.0732 461.098C66.3732 461.28 65.1132 460.464 62.3132 458.061C60.2599 456.293 58.5332 454.57 58.5332 454.253C58.5332 453.981 58.1132 453.346 57.5999 452.893C56.8999 452.258 56.6666 452.213 56.6666 452.712C56.6666 453.074 56.4333 454.117 56.1533 455.069C55.5466 457.29 54.7999 456.792 53.4933 453.21C52.9333 451.805 52.1866 450.218 51.8132 449.72C51.1599 448.858 51.1132 448.858 50.8332 450.082C50.3666 451.85 49.3399 451.578 48.9666 449.629C48.5466 447.362 47.9399 446.32 47.0533 446.32C46.2599 446.32 46.3066 447.362 47.0999 449.81C47.5199 451.17 46.2132 451.714 45.0466 450.672C44.4399 450.128 44.1133 450.082 43.6933 450.49C42.9466 451.216 42.1533 450.445 40.7533 447.725C40.1466 446.456 39.3066 445.413 38.9332 445.413C38.2332 445.368 35.6666 442.194 35.6666 441.333C35.6666 441.106 35.2932 440.2 34.8732 439.293L34.0799 437.706L33.5199 438.93L32.9599 440.2L32.4466 438.93C32.1666 438.205 31.9332 437.026 31.9332 436.301C31.9332 435.576 31.4199 434.17 30.7666 433.173C30.0199 431.994 29.5999 430.725 29.5999 429.456C29.5999 428.413 29.2732 427.234 28.8999 426.826C28.1066 425.965 27.9666 424.333 28.4799 420.978C28.7599 418.848 28.7133 418.53 28.0599 418.802C27.6866 418.938 27.0799 418.757 26.7999 418.44C26.4732 418.077 26.0532 417.896 25.8199 418.032C25.1666 418.394 25.3066 415.765 25.9599 415.13C26.4266 414.677 26.2866 414.314 25.1199 413.317C24.3266 412.637 23.3932 411.277 23.0666 410.28C22.2266 407.786 22.3199 402.528 23.2532 400.442C24.0932 398.584 24.2332 396 23.5332 396C23.2999 396 22.9732 395.229 22.8332 394.322C22.6932 393.37 22.3199 391.738 22.0399 390.696L21.5732 388.792L19.6599 390.152C18.4933 390.968 17.6066 391.33 17.3266 391.058C16.8133 390.56 17.7932 387.568 18.8199 386.389C19.3799 385.709 19.3799 385.573 18.8199 385.528C18.4466 385.528 18.6333 385.301 19.1933 385.029C19.7999 384.757 20.2666 384.258 20.2666 383.896C20.2666 383.397 20.0799 383.397 19.2866 383.805C18.3532 384.258 18.3066 384.213 18.6332 382.762C19.3799 379.498 19.6599 379.181 21.5266 379.317C23.0666 379.453 23.2999 379.634 23.4399 380.677C23.5332 381.538 23.9066 381.946 24.6066 382.037C25.4932 382.173 25.6333 382.49 25.6799 384.666C25.7266 386.026 25.9132 387.522 26.0999 387.976C26.6132 389.245 26.0999 399.717 25.4466 400.896C24.9333 401.802 24.9799 401.893 26.0999 401.893C27.1732 401.893 27.2666 402.074 27.2666 403.933C27.2666 405.746 27.1266 405.973 26.2399 406.018C25.6332 406.018 25.4466 406.154 25.7732 406.29C26.6599 406.653 28.6666 410.778 28.6666 412.32C28.6666 413.498 28.8533 413.68 29.8799 413.68H31.1399L30.9066 418.349L30.6732 422.973L32.4466 426.645C33.4733 428.685 34.2666 430.861 34.2666 431.541C34.2666 432.221 34.5466 432.72 34.8732 432.72C35.2466 432.72 35.7599 433.173 36.0866 433.762C36.4599 434.488 36.5532 434.533 36.3199 433.853C35.6666 432.04 35.5732 427.416 36.1332 426.418C36.5532 425.602 37.0199 425.421 38.3732 425.557C40.0532 425.693 40.0999 425.738 40.2399 427.733C40.3332 429.365 40.6132 429.909 41.4066 430.226C42.0599 430.544 42.5266 431.224 42.7132 432.312C42.8532 433.173 43.3199 434.397 43.7399 434.986C44.1599 435.621 44.5332 436.437 44.5332 436.89C44.5332 437.344 44.8599 437.706 45.2799 437.706C45.8399 437.706 45.9332 437.48 45.6999 436.936C45.4666 436.482 45.2332 434.805 45.1399 433.173C44.8599 428.866 44.6733 428.277 43.4599 428.096C42.5733 427.96 42.4333 427.642 42.2933 425.829C42.1999 424.605 42.3399 423.653 42.5266 423.653C42.7133 423.653 42.8066 422.656 42.7599 421.432L42.5732 419.165L44.3466 419.029C46.3532 418.893 47.1466 417.76 45.2799 417.76C44.1599 417.76 44.0666 417.624 44.0666 415.765C44.0666 414.632 44.2999 413.589 44.5332 413.453C44.8132 413.317 44.9999 412.682 44.9999 412.048C44.9999 411.096 45.2332 410.96 46.6332 410.96C47.9399 410.96 48.2666 411.141 48.2666 411.866C48.2666 412.592 48.5932 412.773 49.8999 412.773C51.4399 412.773 51.5332 412.864 51.5332 414.36C51.5332 415.856 51.4399 415.946 49.9466 415.946C49.0599 415.946 48.2199 415.674 48.1266 415.402C47.9866 415.085 47.8466 415.266 47.8466 415.856C47.7999 416.626 48.0799 416.853 48.8732 416.853C49.8999 416.853 49.9933 417.125 50.5533 421.522C51.0666 425.466 51.3466 426.282 52.1399 426.645C52.6999 426.872 53.3532 427.869 53.6799 428.866L54.2399 430.68L54.2866 428.685L54.3332 426.736L56.1999 426.917C57.2266 427.008 58.0666 426.917 58.0666 426.736C58.0666 426.509 57.3199 426.373 56.4332 426.373C54.8466 426.373 54.7999 426.282 54.7999 424.741V423.109L57.9732 423.426C59.6999 423.608 61.1933 423.834 61.2866 423.88C61.3799 423.97 61.5666 425.376 61.6599 427.008C61.9399 430 61.9399 430 60.6799 430C59.6532 430 59.4666 430.181 59.4666 431.36C59.4666 432.493 59.6532 432.72 60.6332 432.72C61.7066 432.72 61.7999 432.856 61.7999 434.986C61.7999 437.072 61.8933 437.253 62.9199 437.253C64.3199 437.253 64.6932 436.074 64.2732 432.81C64.0866 431.042 64.2266 430 64.8332 428.64C65.5799 427.053 65.8599 426.826 67.2599 426.826C68.7066 426.826 68.7999 426.736 68.7999 425.24C68.7999 423.744 68.8932 423.653 70.4332 423.653C71.8799 423.653 72.0666 423.789 72.2999 425.149C72.4866 425.965 72.5332 427.461 72.4399 428.413C72.2999 430.136 72.2066 430.226 70.4799 430.453C68.2866 430.725 67.3532 431.813 68.2399 433.218C68.5666 433.717 68.8466 435.077 68.8466 436.256C68.7999 439.61 69.3133 442.874 69.9199 443.237C70.9933 443.917 71.5999 443.6 71.5999 442.285C71.5999 441.56 71.7866 440.426 72.0666 439.792C72.3466 439.021 72.3466 438.613 72.0666 438.613C71.3666 438.613 71.5066 435.53 72.2999 434.08C72.9066 432.901 73.2799 432.72 74.8666 432.72C76.2199 432.72 76.7332 432.901 76.7332 433.4C76.7332 433.808 77.1533 434.08 77.8533 434.08C78.9733 434.08 78.9732 434.17 78.9732 437.842C78.9732 439.882 78.7866 441.922 78.5533 442.376C78.2266 442.965 78.2732 443.146 78.8332 443.146C79.2066 443.146 79.5332 442.784 79.5332 442.376C79.5332 441.922 79.8599 441.152 80.2332 440.698C80.6066 440.2 80.9332 439.112 80.9332 438.296C80.9332 436.754 82.3799 433.49 83.2666 432.946C84.1066 432.448 83.7799 431.36 82.7999 431.36C82.0066 431.36 81.8666 431.042 81.8666 429.546C81.8666 427.778 81.9132 427.733 83.4999 427.733C84.8532 427.733 85.1332 427.914 85.1332 428.73C85.1332 429.501 85.2733 429.592 85.6933 429.184C86.0199 428.866 87.0466 428.64 88.0266 428.64H89.7999V430.634C89.7999 432.176 89.4732 432.992 88.5399 434.125C87.3732 435.44 87.2332 435.984 87.2332 438.704C87.2332 441.288 87.3733 441.786 88.0266 441.786C88.4933 441.786 88.8666 441.378 88.9599 440.789C89.0533 440.018 89.4732 439.701 90.4066 439.61C91.2932 439.52 91.6666 439.202 91.6666 438.568C91.6666 438.114 92.5999 436.392 93.7666 434.714C95.8199 431.813 96.3332 430.453 95.3999 430.453C94.6066 430.453 94.8866 427.824 95.9599 424.741C97.0333 421.885 97.0333 421.84 98.7599 421.84C100.533 421.84 100.533 421.84 100.533 423.653C100.533 424.968 100.72 425.466 101.233 425.466C101.7 425.466 101.933 425.92 101.933 427.008C101.933 428.776 101.233 430.544 98.4799 435.893C97.2199 438.296 96.3332 440.698 96.1466 442.24C95.7732 444.914 95.3999 445.413 93.4399 445.413C92.3666 445.413 92.1332 445.594 92.1332 446.546C92.1332 447.952 93.5332 448.088 94.3732 446.773C94.6999 446.274 95.2599 445.866 95.6332 445.866C96.0999 445.866 96.3332 445.413 96.3332 444.325C96.3332 443.464 96.7533 442.285 97.3599 441.56C98.2933 440.381 98.5266 440.336 100.86 440.608C103.287 440.88 103.333 440.88 103.333 439.746C103.333 438.749 103.52 438.613 104.967 438.613H106.6V441.106V443.6H105.013C103.567 443.6 103.427 443.736 103.24 445.141C103.147 446.002 103.193 447.09 103.38 447.544C103.707 448.314 103.753 448.314 103.753 447.544C103.8 447.09 104.127 446.138 104.5 445.413C105.153 444.189 105.48 444.053 107.347 444.053C109.073 444.053 109.493 444.234 109.867 445.096C110.1 445.64 110.287 445.821 110.287 445.458C110.333 445.096 110.707 444.37 111.22 443.872C111.78 443.237 112.2 441.922 112.387 440.109C112.62 437.48 112.573 437.253 111.733 437.253C110.987 437.253 110.8 436.936 110.8 435.666C110.8 434.216 110.893 434.08 112.2 434.08C113.6 434.08 113.787 433.762 113.6 432.085C113.553 431.632 113.647 430.544 113.833 429.728C114.02 428.594 114.347 428.186 115.047 428.186C115.56 428.186 116.167 427.688 116.493 427.053C116.913 426.192 117.38 425.92 118.593 425.92C120.04 425.92 120.133 425.829 120.133 424.469C120.133 422.248 120.693 421.704 122.653 421.93C124.007 422.066 124.333 421.976 124.333 421.341C124.333 419.936 124.893 419.12 125.78 419.12C126.34 419.12 126.667 418.802 126.667 418.258C126.667 417.76 126.9 417.306 127.18 417.216C127.413 417.125 127.833 416.309 128.02 415.357C128.253 414.405 128.253 413.77 128.02 413.952C127.787 414.088 127.6 414.677 127.6 415.312C127.6 416.173 127.367 416.4 126.387 416.4C125.22 416.4 125.173 416.309 125.407 414.496C125.593 412.637 126.48 410.008 127.273 408.829C127.507 408.512 128.393 408.24 129.28 408.24C130.68 408.24 130.867 408.376 130.913 409.509V410.733L131.66 409.736C132.127 409.056 132.873 408.693 133.713 408.693C135.16 408.693 135.533 408.058 134.367 407.605C133.9 407.424 133.667 406.698 133.667 405.293V403.253H135.533H137.4L137.353 405.202C137.307 407.424 136.84 409.192 136.373 409.192C136.14 409.146 135.813 409.146 135.627 409.146C135.393 409.146 135.3 409.781 135.44 410.506C135.58 411.322 135.44 411.866 135.16 411.776C134.32 411.549 132.733 413.77 132.453 415.584C132.127 417.397 131.847 417.624 130.96 416.762C130.54 416.354 130.4 416.4 130.26 416.898C130.167 417.261 129.84 418.168 129.607 418.984C129.187 420.253 129.233 420.434 130.12 420.706C130.96 420.978 131.007 421.069 130.307 421.25C129.233 421.522 129.14 423.653 130.167 423.653C130.727 423.653 130.82 423.97 130.587 424.922C130.12 427.008 129.933 427.325 129.467 427.053C128.953 426.736 128.86 427.234 129 429.184C129.093 430.498 128.3 432.266 127.6 432.266C126.853 432.266 126.06 430.408 126.573 429.909C126.853 429.637 126.947 429.138 126.807 428.821C126.667 428.458 126.76 428.186 127.04 428.186C127.507 428.186 128.113 423.245 127.74 422.61C127.46 422.157 125.733 424.288 125.733 425.104C125.733 425.421 125.313 426.373 124.8 427.189C124.287 428.005 123.867 428.912 123.867 429.274C123.867 430.181 121.207 434.85 119.76 436.437C119.06 437.208 117.8 438.114 117.007 438.432C115.187 439.202 113.927 441.696 114.347 443.781C114.533 444.914 114.113 446.138 112.34 449.538C111.08 451.896 110.147 454.117 110.24 454.434C110.567 455.386 109.867 457.2 109.167 457.2C108.327 457.2 108.187 460.101 108.933 461.914C109.213 462.64 109.213 463.138 108.933 463.32C108.653 463.501 108.327 463.229 108.187 462.776C108.047 462.322 107.44 460.826 106.833 459.466C106.227 458.106 105.573 456.293 105.433 455.522C104.78 452.349 103.8 454.344 103.8 458.832C103.8 460.962 103.613 461.688 103.053 461.914C102.54 462.096 102.213 461.778 101.84 460.781C101.42 459.557 101.28 459.466 100.86 460.146C100.627 460.554 100.533 461.597 100.673 462.458C100.907 463.728 100.813 464 100.113 464C99.6932 464 99.0866 464.226 98.8066 464.498C98.3866 464.906 97.9666 464.68 97.0332 463.592C96.3332 462.821 95.5866 462.322 95.3066 462.458C94.4666 462.957 93.9999 461.597 93.9999 458.696C93.9999 457.154 93.8132 455.749 93.5332 455.613C93.2532 455.432 93.0666 455.885 93.0666 456.656C93.0666 457.472 92.7866 458.106 92.3199 458.288C91.6199 458.56 91.6199 458.65 92.3199 459.693C93.6266 461.642 95.0733 465.858 94.5599 466.357C94.2799 466.629 93.8599 466.04 93.3466 464.634V464.634ZM87.4666 462.005C87.4666 460.917 86.7199 460.056 86.2066 460.554C85.8332 460.917 86.4866 463.093 86.9999 463.093C87.2799 463.093 87.4666 462.594 87.4666 462.005V462.005ZM98.1533 456.973V455.613L97.4999 457.154C97.1266 457.97 96.7999 459.104 96.7999 459.648C96.8466 460.554 96.8466 460.554 97.4999 459.466C97.8732 458.832 98.1533 457.744 98.1533 456.973ZM83.8732 456.293C83.4532 454.933 83.0332 454.072 82.9399 454.389C82.7999 454.661 82.3332 454.933 81.8666 454.933C81.1199 454.933 81.0266 454.661 81.1666 453.256C81.3999 451.578 81.3532 451.578 80.8399 452.802C80.5132 453.482 80.1399 454.026 79.9066 454.026C79.1599 454.026 81.4466 457.018 82.8933 457.925C83.7333 458.469 84.4799 458.877 84.5266 458.832C84.5733 458.786 84.2932 457.653 83.8732 456.293ZM71.9732 455.794C71.6932 455.069 71.4133 454.525 71.3199 454.616C71.0866 454.842 71.9266 457.2 72.2533 457.2C72.3933 457.2 72.2532 456.565 71.9732 455.794V455.794ZM89.7999 454.434C89.7999 453.618 89.6132 453.165 89.3332 453.346C89.0999 453.482 88.8666 454.253 88.8666 454.978C88.8666 455.794 89.0532 456.248 89.3332 456.066C89.6132 455.93 89.7999 455.16 89.7999 454.434ZM107.907 453.754C107.673 452.848 107.487 451.397 107.58 450.445C107.72 447.77 107.627 447.498 106.833 448.133C105.947 448.813 105.947 450.264 106.787 452.258C107.113 453.12 107.533 454.162 107.673 454.616C108.233 456.066 108.42 455.386 107.907 453.754V453.754ZM64.8332 454.072C64.6932 453.8 64.1799 453.573 63.7599 453.573C63.1533 453.573 63.1532 453.664 63.9466 454.208C64.9266 454.888 65.3466 454.842 64.8332 454.072V454.072ZM86.1599 450.717C85.9733 448.994 85.9733 448.994 85.0866 449.901C84.0599 450.944 84.0132 451.442 84.6666 452.712C85.4599 454.117 86.4399 452.802 86.1599 450.717V450.717ZM78.9266 449.584C79.5799 448.949 79.3466 448.133 78.5533 448.133C78.3199 448.133 78.1332 448.541 78.1332 449.04C78.1332 449.629 77.8066 449.946 77.1999 449.946C76.1266 449.946 75.9866 450.4 76.8266 451.216C77.2466 451.624 77.4799 451.578 77.8533 450.989C78.0866 450.536 78.5999 449.901 78.9266 449.584V449.584ZM66.3732 448.949C66.2799 448.677 65.9066 448.314 65.6266 448.224C65.2999 448.133 65.1599 448.314 65.3466 448.768C65.6732 449.584 66.6532 449.765 66.3732 448.949V448.949ZM59.9332 447.226C59.9332 447 59.7466 446.773 59.4666 446.773C59.2332 446.773 58.9999 446.184 58.9999 445.413C58.9999 443.464 57.9732 439.973 57.3666 439.973C57.1332 439.973 56.6666 440.472 56.3866 441.106C55.9666 441.968 55.9666 442.376 56.4799 443.01C56.8066 443.464 57.1332 444.189 57.1332 444.642C57.1332 445.776 58.4866 447.68 59.2799 447.68C59.6532 447.68 59.9332 447.498 59.9332 447.226ZM83.8266 446.546C84.8533 445.549 84.9932 445.096 84.8066 443.056C84.5732 440.2 84.3866 439.52 83.8266 439.52C83.1733 439.52 81.7732 443.328 82.3332 443.509C83.1266 443.781 82.8932 446.32 82.0999 446.32C81.7266 446.32 81.3999 446.637 81.3999 447C81.3999 448.042 82.5199 447.816 83.8266 446.546ZM42.6666 441.786C42.6666 441.288 42.3399 440.88 41.9666 440.88C41.1266 440.88 41.0799 441.424 41.8266 442.149C42.5733 442.874 42.6666 442.829 42.6666 441.786ZM66.2332 440.88C65.8132 439.021 65.4399 439.384 65.8132 441.288C65.9999 442.058 66.2333 442.648 66.3266 442.512C66.4666 442.421 66.4199 441.65 66.2332 440.88V440.88ZM94.4666 440.381C94.4666 439.565 94.3732 439.52 93.7666 439.973C93.0666 440.517 93.2066 441.333 94.0466 441.333C94.2799 441.333 94.4666 440.88 94.4666 440.381ZM42.1999 439.112C42.1999 438.93 41.5932 438.114 40.7999 437.344C39.1666 435.666 39.0266 435.848 40.3799 437.978C41.2666 439.429 42.1999 440.018 42.1999 439.112ZM117.52 435.621C118.547 433.218 119.06 429.546 118.407 429.546C117.987 429.546 116.773 433.082 116.073 436.482C115.7 438.432 116.54 437.933 117.52 435.621V435.621ZM57.1332 435.712C57.1332 435.349 57.2732 434.76 57.4132 434.352C57.5999 433.853 57.4599 433.626 56.9466 433.626C56.5266 433.626 56.0132 433.264 55.8732 432.856C55.6866 432.402 55.3133 431.768 54.9866 431.45C54.5199 430.997 54.4266 431.224 54.6599 432.584C54.7999 433.536 55.1266 434.76 55.3132 435.349C55.7332 436.437 57.1332 436.754 57.1332 435.712ZM86.7199 434.714C87.2333 433.445 86.9999 432.946 86.2999 433.808C85.9266 434.306 85.5999 434.85 85.5999 435.077C85.5999 435.712 86.4399 435.485 86.7199 434.714ZM50.0866 431.949C49.8066 431.224 49.4332 429.864 49.1999 428.866L48.8266 427.053L48.7799 428.685C48.6866 431.133 49.2466 433.173 49.9466 433.173C50.4599 433.173 50.4599 432.901 50.0866 431.949ZM121.907 427.824C122.047 426.645 121.907 426.373 121.207 426.373C120.46 426.373 120.367 426.645 120.507 427.96C120.74 429.954 121.72 429.818 121.907 427.824Z" fill="#76727E"/>
<path d="M107.16 441.016L107.3 438.84L109.307 438.704L111.313 438.568L111.173 440.744L111.033 442.92L109.027 443.056L107.02 443.192L107.16 441.016Z" fill="#76727E"/>
<path d="M120.833 438.749C121.16 436.845 121.767 435.938 121.86 437.162C121.907 437.57 121.953 438.16 122 438.386C122.28 439.565 121.953 440.426 121.253 440.426C120.647 440.426 120.553 440.109 120.833 438.749Z" fill="#76727E"/>
<path d="M101 433.899C101 431.36 101.373 430.907 103.38 430.907C105.107 430.907 105.2 430.997 105.2 432.312C105.2 434.533 104.453 435.44 102.633 435.44C101.093 435.44 101 435.349 101 433.899Z" fill="#76727E"/>
<path d="M107.207 430.816C108.327 423.291 108.98 421.84 111.127 421.84H112.667V424.968C112.667 427.235 112.48 428.141 112.013 428.323C111.64 428.459 111.173 429.501 111.033 430.635C110.707 432.72 110.707 432.72 108.84 432.72H106.927L107.207 430.816V430.816Z" fill="#76727E"/>
<path d="M27.8266 430.997C27.5 430.408 27.2666 429.41 27.36 428.73L27.5466 427.506L28.1533 428.821C28.4333 429.546 28.62 430.589 28.5733 431.088C28.4333 431.994 28.3866 431.994 27.8266 430.997V430.997Z" fill="#76727E"/>
<path d="M74.0267 425.24C74.3533 422.656 75.0533 421.84 77.0133 421.84C78.5533 421.84 78.6 421.885 78.6 423.789C78.6 426.192 77.5733 427.28 75.3333 427.28H73.7933L74.0267 425.24Z" fill="#76727E"/>
<path d="M102.26 423.789C102.073 423.653 101.933 422.611 101.933 421.523V419.528L103.707 419.664C105.433 419.8 105.433 419.8 105.573 421.976L105.713 424.106H104.127C103.287 424.106 102.4 423.971 102.26 423.789V423.789Z" fill="#76727E"/>
<path d="M55.5933 421.976C55.4066 421.84 55.2666 420.797 55.2666 419.709V417.76H57.1333H58.9999V420.026C58.9999 422.293 58.9999 422.293 57.4599 422.293C56.5733 422.293 55.7333 422.157 55.5933 421.976Z" fill="#76727E"/>
<path d="M114.067 419.709C114.113 417.034 114.86 415.946 116.82 415.946C118.267 415.946 118.267 415.946 118.267 418.349C118.267 421.16 117.753 421.84 115.607 421.84C114.067 421.84 114.067 421.84 114.067 419.709Z" fill="#76727E"/>
<path d="M38.4667 419.165C38.4667 416.49 38.84 415.946 40.6133 415.946H42.2V418.44V420.933H40.3333C38.4667 420.933 38.4667 420.933 38.4667 419.165Z" fill="#76727E"/>
<path d="M107.067 417.533C107.067 414.904 107.907 413.68 109.727 413.68C111.22 413.68 111.267 413.725 111.267 415.538C111.267 418.213 110.613 419.12 108.7 419.12C107.16 419.12 107.067 419.029 107.067 417.533Z" fill="#76727E"/>
<path d="M93.5333 415.947C93.5333 414.179 93.58 414.133 95.1667 414.133C96.7533 414.133 96.8 414.179 96.8 415.947C96.8 417.715 96.7533 417.76 95.1667 417.76C93.58 417.76 93.5333 417.715 93.5333 415.947Z" fill="#76727E"/>
<path d="M55.5933 416.989C55.4066 416.853 55.2666 415.72 55.2666 414.496V412.274L57.0399 412.41L58.7666 412.546L58.9066 414.949L59.0466 417.306H57.4599C56.6199 417.306 55.7333 417.17 55.5933 416.989V416.989Z" fill="#76727E"/>
<path d="M86.2533 414.858C86.1133 414.541 86.0667 413.272 86.16 412.048C86.3 409.872 86.3 409.826 87.98 409.69C89.8933 409.554 90.2667 410.098 90.2667 413.589V415.493H88.4C87.2333 415.493 86.3933 415.266 86.2533 414.858V414.858Z" fill="#76727E"/>
<path d="M34.2666 412.32V409.6H35.8999H37.5333V412.32V415.04H35.8999H34.2666V412.32Z" fill="#76727E"/>
<path d="M117.8 409.6V407.333H119.667H121.533V409.6V411.866H119.667H117.8V409.6Z" fill="#76727E"/>
<path d="M141.46 411.141C140.9 410.552 141.087 409.509 141.74 409.872C142.113 410.098 142.067 409.962 141.647 409.464C140.9 408.557 141.32 407.786 142.113 408.557C142.44 408.874 142.487 409.464 142.207 410.28C142.02 410.914 141.647 411.322 141.46 411.141Z" fill="#76727E"/>
<path d="M59 405.52V403.253H60.6333H62.2667V405.52V407.787H60.6333H59V405.52Z" fill="#76727E"/>
<path d="M396.027 406.88C395.513 406.109 395.56 405.973 396.353 405.973C397.007 405.973 397.193 406.2 397.007 406.88C396.867 407.378 396.727 407.786 396.68 407.786C396.633 407.786 396.353 407.378 396.027 406.88Z" fill="#76727E"/>
<path d="M140.667 406.88C140.667 406.608 140.247 405.928 139.733 405.384C139.173 404.84 138.66 403.933 138.52 403.389C138.333 402.8 137.96 402.347 137.587 402.347C137.213 402.347 136.933 402.029 136.933 401.667C136.933 401.168 137.447 400.987 138.8 400.987H140.667V398.947V396.907H142.347C143.793 396.907 143.98 397.043 143.7 397.723C143.513 398.131 143.327 398.72 143.327 399.037C143.327 399.355 143.187 399.581 143.047 399.536C142.113 399.445 141.6 399.717 141.6 400.261C141.6 400.624 141.367 400.987 141.087 401.077C140.713 401.213 140.667 401.531 140.993 402.12C141.273 402.619 141.6 403.979 141.74 405.203C141.973 406.925 141.927 407.333 141.367 407.333C140.993 407.333 140.667 407.107 140.667 406.88V406.88Z" fill="#76727E"/>
<path d="M31.7933 404.341C31.6067 404.16 31.4667 403.117 31.4667 402.029V400.08H33.3333C34.8733 400.08 35.2467 400.261 35.48 401.168C36.04 403.435 35.5733 404.387 33.8 404.523C32.8667 404.613 31.98 404.523 31.7933 404.341V404.341Z" fill="#76727E"/>
<path d="M124.8 402.347C124.8 400.579 124.847 400.533 126.433 400.533C128.02 400.533 128.067 400.579 128.067 402.347C128.067 404.115 128.02 404.16 126.433 404.16C124.847 404.16 124.8 404.115 124.8 402.347Z" fill="#76727E"/>
<path d="M49.2933 398.403C49.4333 396.227 49.4333 396.227 51.2066 396.091L52.9333 395.955V398.221V400.533H51.02H49.1533L49.2933 398.403Z" fill="#76727E"/>
<path d="M63.4799 395.275C63.0599 392.056 63.1532 389.88 63.7599 389.291C64.0866 388.973 65.2066 388.747 66.3266 388.747H68.3332V391.195C68.3332 392.963 68.1466 393.688 67.6332 393.915C67.2132 394.051 66.9332 394.776 66.9332 395.773C66.9332 397.269 66.8399 397.36 65.3466 397.36C63.8532 397.36 63.7599 397.269 63.4799 395.275ZM66.4666 392.781C66.4666 392.509 66.0466 392.555 65.5332 392.827C64.8332 393.189 64.5999 393.779 64.5999 395.229V397.133L65.5332 395.139C66.0466 394.051 66.4666 393.008 66.4666 392.781V392.781Z" fill="#76727E"/>
<path d="M133.667 393.96C133.667 392.192 133.807 391.92 134.647 391.92C135.487 391.92 135.533 391.829 134.88 390.968C134.46 390.333 134.32 389.472 134.46 388.429C134.647 387.341 134.553 386.706 134.087 386.434C133.06 385.8 132.547 385.981 133.2 386.706C134.04 387.704 133.433 388.066 132.033 387.477C131.38 387.16 130.213 386.933 129.467 386.933C128.16 386.933 128.067 386.842 128.067 385.165C128.067 382.4 128.393 381.946 130.447 381.946C131.893 381.946 132.267 382.128 132.267 382.762C132.267 383.533 132.5 383.578 134.833 383.17C137.96 382.581 138.893 383.17 138.8 385.528C138.66 388.429 138.8 388.837 140.247 390.152C141.413 391.194 141.647 391.738 141.507 393.144C141.367 394.64 141.18 394.866 140.107 395.002C139.08 395.138 138.847 395.002 139.08 394.413C139.267 393.96 139.033 393.416 138.427 393.053C137.913 392.69 137.353 391.874 137.213 391.24C137.027 390.605 136.7 390.197 136.467 390.333C136.233 390.469 136.327 391.24 136.747 392.146C137.12 393.008 137.4 394.232 137.4 394.866C137.4 395.909 137.213 396 135.533 396H133.667V393.96V393.96ZM138.1 386.026C138.473 385.437 137.54 383.76 136.84 383.76C136.42 383.76 136.42 383.896 136.84 384.304C137.54 384.984 137.587 385.754 136.933 385.346C136.42 385.029 136.28 385.709 136.793 386.162C137.213 386.616 137.773 386.57 138.1 386.026Z" fill="#76727E"/>
<path d="M35.2 394.005C35.2 393.189 35.4333 391.875 35.7133 391.059C36.1333 389.835 36.46 389.653 37.8133 389.653C39.3533 389.653 39.4 389.699 39.4 391.421C39.4 394.504 38.7466 395.547 36.8333 395.547C35.2933 395.547 35.2 395.456 35.2 394.005Z" fill="#76727E"/>
<path d="M52.7 394.504C52.5133 393.915 52.4666 392.555 52.56 391.421L52.7 389.427H54.5666C56.34 389.427 56.4333 389.472 56.5733 390.968C56.6666 391.829 56.62 393.235 56.4333 394.051C56.2 395.411 56.0133 395.547 54.5666 395.547C53.26 395.547 52.8866 395.32 52.7 394.504Z" fill="#76727E"/>
<path d="M391.78 392.147C391.173 391.512 390.567 391.013 390.38 391.013C390.193 391.013 389.773 390.515 389.493 389.88C388.98 388.792 389.027 388.747 390.38 388.747C392.76 388.747 393.6 389.472 393.6 391.467C393.6 393.552 393.32 393.688 391.78 392.147Z" fill="#76727E"/>
<path d="M218.46 389.336C217.667 387.84 215.567 381.176 214.96 378.32C214.727 377.187 214.493 373.288 214.447 369.616L214.307 362.952L215.707 361.683C216.92 360.549 217.107 360.005 217.433 357.013C217.62 354.837 218.087 353.069 218.693 352.072C219.673 350.576 219.72 350.576 222.287 350.803C223.733 350.939 224.62 350.939 224.34 350.803C223.967 350.667 223.733 349.805 223.733 348.808C223.733 347.221 223.64 347.04 222.52 347.04C221.4 347.04 221.307 346.904 221.493 345.227C221.587 344.229 221.493 343.413 221.307 343.413C221.073 343.413 220.653 342.915 220.373 342.28C220.093 341.645 219.58 341.147 219.207 341.147C218.367 341.147 218.367 337.112 219.207 336.795C219.533 336.704 223.173 336.84 227.28 337.112C231.34 337.429 236.847 337.701 239.46 337.701C242.027 337.747 244.36 337.883 244.547 338.109C244.733 338.291 245.387 338.427 245.993 338.427C246.6 338.427 247.067 338.653 247.067 338.88C247.067 339.152 248.187 339.333 249.587 339.333C251.687 339.333 252.2 339.469 252.433 340.195C252.573 340.693 253.087 341.237 253.6 341.373C254.067 341.509 254.58 341.917 254.72 342.28C254.86 342.688 255.607 342.96 256.493 342.96C259.293 342.96 260.133 343.413 260.133 344.819C260.133 345.997 260.227 346.088 261.347 345.68C262 345.408 263.167 345.227 263.913 345.227C265.033 345.227 265.267 345.408 265.267 346.36C265.267 347.357 265.453 347.493 266.9 347.493C268.3 347.493 268.533 347.629 268.533 348.581C268.533 349.443 268.813 349.715 270.073 349.896C270.867 350.032 272.407 350.44 273.433 350.803C275.067 351.392 275.3 351.664 275.44 353.115L275.58 354.747H272.873C270.213 354.701 270.167 354.701 271.567 354.067C272.873 353.477 272.733 353.432 268.907 353.477C266.667 353.523 264.66 353.387 264.473 353.251C264.287 353.069 264.613 352.616 265.173 352.208C265.733 351.845 266.2 351.211 266.2 350.848C266.2 350.032 266.013 350.032 264.24 350.939C262.887 351.619 262.747 351.619 262.187 350.893C261.86 350.485 261.72 349.805 261.86 349.397C262.093 348.853 261.953 348.763 261.253 349.08C258.407 350.213 256.727 349.533 257.193 347.357C257.38 346.541 257.333 346.496 256.913 347.085C256.493 347.72 256.12 347.765 254.3 347.357C252.433 346.949 252.153 346.768 252.387 345.907C252.807 344.32 251.267 343.277 249.073 343.595C247.627 343.821 247.067 343.685 245.993 342.779C244.407 341.419 242.027 341.011 238.853 341.509C237.5 341.736 235.96 341.872 235.353 341.827C234.747 341.781 231.527 341.555 228.167 341.373C222.753 341.056 222.193 341.101 222.707 341.736C223.033 342.099 223.827 342.552 224.48 342.688C225.413 342.915 225.647 343.232 225.46 343.867C225.227 344.773 225.227 344.773 226.533 343.867C228.587 342.461 228.913 342.733 228.12 345.136C227.747 346.315 227.233 347.629 226.953 348.083C226.44 348.989 226.673 349.035 227.98 348.4C228.587 348.083 228.867 348.083 228.867 348.4C228.867 348.627 229.66 348.853 230.64 348.853C231.853 348.853 232.553 348.581 232.973 347.947C233.627 346.904 234.56 346.813 235.867 347.584C236.753 348.128 236.753 348.173 235.82 349.624C234.933 350.984 234.933 351.165 235.633 351.845C236.24 352.48 236.613 352.525 237.547 352.072C238.62 351.619 238.667 351.664 238.2 352.48C237.92 353.024 237.827 353.84 237.967 354.293C238.2 354.973 238.06 355.2 237.407 355.2C236.94 355.2 236.24 355.744 235.82 356.379C235.073 357.603 230.453 359.733 228.587 359.733C227.093 359.733 217.713 363.587 217.62 364.267C217.62 364.403 217.527 368.845 217.387 374.149L217.2 383.805L218.6 386.933C220.14 390.379 220.187 390.56 219.533 390.56C219.3 390.56 218.787 390.016 218.46 389.336V389.336ZM222.1 360.685C223.08 360.232 223.687 359.779 223.453 359.643C223.22 359.507 223.313 359.507 223.64 359.552C224.573 359.779 225.553 359.235 225.32 358.6C225.133 358.192 225.88 357.739 227.42 357.24C228.727 356.832 229.893 356.288 230.033 356.061C230.22 355.835 230.873 355.653 231.527 355.653C232.227 355.653 232.6 355.517 232.46 355.336C232.273 355.2 232.367 354.792 232.647 354.429C232.927 354.112 233.02 353.84 232.833 353.84C232.647 353.84 232.787 353.523 233.113 353.069C233.72 352.389 233.673 352.389 232.74 352.843C232.18 353.16 230.873 353.387 229.847 353.387C228.68 353.387 226.907 353.885 225.227 354.747C223.687 355.517 222.24 356.107 222.007 356.107C221.353 356.107 219.067 359.371 219.067 360.232C219.067 361.728 219.673 361.819 222.1 360.685V360.685Z" fill="#76727E"/>
<path d="M101.933 388.066C101.933 386.026 101.933 386.026 103.567 386.026C105.2 386.026 105.2 386.026 105.2 388.066C105.2 390.106 105.2 390.106 103.567 390.106C101.933 390.106 101.933 390.106 101.933 388.066Z" fill="#76727E"/>
<path d="M57.1333 387.885V386.026H59.0466H60.9133L60.7733 387.749C60.6333 389.336 60.54 389.426 58.9066 389.562L57.1333 389.698V387.885V387.885Z" fill="#76727E"/>
<path d="M122.56 386.616C122.7 384.984 122.793 384.893 124.473 384.757L126.2 384.621V386.434V388.293H124.287H122.42L122.56 386.616Z" fill="#76727E"/>
<path d="M389.4 387.613C389.4 387.251 389.213 386.933 388.98 386.933C388.7 386.933 388.14 386.344 387.673 385.573C387.207 384.803 386.18 383.987 385.34 383.715C384.5 383.443 383.893 383.08 384.033 382.853C384.173 382.672 383.94 382.355 383.52 382.219C382.353 381.765 383.24 381.04 384.967 381.04C387.207 381.04 388 381.448 388 382.581C388 383.125 388.42 383.715 389.073 383.987C389.867 384.349 390.147 384.893 390.24 386.389C390.333 387.523 390.193 388.293 389.913 388.293C389.633 388.293 389.4 387.976 389.4 387.613Z" fill="#76727E"/>
<path d="M305.867 387.024L304.233 386.299L306.053 386.117C308.06 385.936 308.433 386.117 307.873 387.069C307.547 387.704 307.313 387.659 305.867 387.024V387.024Z" fill="#76727E"/>
<path d="M363.967 385.573C363.5 385.074 362.66 384.666 362.1 384.666C361.54 384.666 360.373 384.44 359.58 384.168C358.413 383.76 358.18 383.533 358.693 383.216C359.16 382.898 359.16 382.717 358.74 382.536C357.76 382.173 358.04 381.538 359.02 381.81C359.533 381.946 360.56 381.72 361.353 381.357C362.1 380.994 362.8 380.858 362.893 381.085C362.987 381.266 364.013 381.13 365.227 380.677C367.56 379.906 368.447 380.133 367.467 381.266C367.047 381.765 367.047 381.946 367.42 381.946C367.793 381.946 367.887 382.309 367.7 382.808C367.513 383.397 367.747 383.896 368.493 384.394L369.52 385.12H368.307C367.653 385.12 366.86 385.437 366.533 385.8C365.74 386.706 364.993 386.661 363.967 385.573V385.573Z" fill="#76727E"/>
<path d="M350.667 384.667C350.107 384.304 350.247 384.213 351.273 384.213C352.02 384.213 352.487 384.395 352.3 384.667C351.927 385.211 351.553 385.211 350.667 384.667Z" fill="#76727E"/>
<path d="M195.78 380.088C195.173 378.773 194.193 377.051 193.633 376.28C192.047 374.285 190.227 370.069 189.153 365.899C188.64 363.859 187.847 361.864 187.473 361.456C186.82 360.731 186.82 360.64 187.473 360.368C187.847 360.232 188.593 360.323 189.107 360.595C190.04 361.048 193.4 367.213 193.4 368.392C193.4 368.755 193.82 369.797 194.333 370.749C194.893 371.701 195.453 373.787 195.593 375.419C195.78 377.323 196.06 378.32 196.48 378.32C197.32 378.32 197.647 379.68 197.227 381.221C196.853 382.536 196.853 382.536 195.78 380.088V380.088Z" fill="#76727E"/>
<path d="M306.8 380.496C305.12 380.269 302.507 380.042 300.967 379.997C299.007 379.952 298.213 379.725 298.307 379.362C298.4 378.773 297.887 378.592 296.393 378.773C295.507 378.818 292.8 377.821 292.8 377.413C292.8 376.869 294.573 375.781 296.44 375.192C298.027 374.648 298.353 374.376 298.12 373.696C297.98 373.242 298.12 372.562 298.4 372.2C299.333 371.066 297.467 371.384 294.853 372.698C290.7 374.874 283.467 374.104 283.467 371.52C283.467 371.066 283.84 370.432 284.307 370.205C285.007 369.797 285.007 369.752 284.12 369.706C283.56 369.706 282.58 369.298 281.927 368.8C281.273 368.301 280.247 367.893 279.64 367.893C279.033 367.893 278.147 367.621 277.68 367.304C276.887 366.76 276.933 366.624 278.24 365.264C279.033 364.448 280.06 363.813 280.573 363.813C281.133 363.813 281.693 363.586 281.88 363.314C282.113 362.952 281.647 362.906 280.293 363.133C278.52 363.405 278.333 363.314 277.68 362.136C276.42 359.733 275.767 359.506 271.193 359.642C267.367 359.778 266.993 359.733 267.553 359.098C267.927 358.69 268.347 357.693 268.487 356.877L268.813 355.426L273.667 355.562C278.8 355.653 279.08 355.789 279.593 358.056C279.78 359.008 280.107 359.28 281.087 359.28C283.187 359.28 284.4 360.458 284.4 362.408C284.4 363.541 284.633 364.266 285.1 364.448C285.473 364.584 285.8 365.218 285.8 365.853C285.8 366.941 285.893 366.986 289.067 366.986C291.96 366.986 292.333 366.896 292.333 366.125C292.333 365.536 291.96 365.173 291.307 365.082C290.42 364.992 290.187 364.629 290.093 363.224C289.953 361.637 290.047 361.501 291.353 361.274C292.8 360.957 293.407 359.733 292.1 359.733C291.633 359.733 291.4 359.234 291.4 358.146C291.4 356.968 291.68 356.378 292.567 355.834C293.267 355.381 293.733 354.656 293.733 354.021C293.733 353.114 293.967 352.933 295.273 352.933C296.533 352.888 296.907 352.661 297.513 351.301C298.12 350.077 298.167 349.85 297.653 350.258C297.28 350.576 295.413 350.893 293.5 351.029L290 351.256V349.624C290 348.445 290.28 347.856 290.933 347.493C291.447 347.221 291.867 346.632 291.867 346.178C291.867 345.226 290.233 344.773 286.92 344.773C284.913 344.773 284.867 344.728 284.867 343.368C284.867 341.826 285.893 340.738 287.34 340.693C287.807 340.693 289.253 340.24 290.56 339.696C292.66 338.834 293.173 338.789 295.32 339.242C297.7 339.786 298.027 339.877 299.333 340.376C299.707 340.512 301.48 340.738 303.207 340.874C307.733 341.282 309.133 341.645 309.133 342.325C309.133 342.688 309.553 342.96 310.113 342.96C310.627 342.96 311.513 343.186 312.073 343.504C312.633 343.776 313.987 343.957 315.06 343.912C316.507 343.821 317.253 344.048 317.953 344.728C318.513 345.272 318.933 345.861 318.933 346.088C318.933 346.904 321.313 347.946 323.18 347.946C324.673 347.946 325.14 348.128 325.327 348.808C325.513 349.533 325.747 349.624 326.727 349.261C327.333 349.034 328.687 348.853 329.713 348.853C331.487 348.853 331.533 348.898 331.533 350.44C331.533 351.89 331.627 352.026 332.98 352.026C335.267 352.026 336.2 352.752 336.2 354.52C336.2 355.789 336.387 356.106 337.133 356.106C337.647 356.106 338.067 356.424 338.067 356.786C338.067 357.24 338.533 357.466 339.653 357.466C342.08 357.466 342.733 357.874 342.733 359.325C342.733 360.64 342.78 360.64 345.347 360.64H347.96L347.773 363.858L347.633 367.077L349.827 367.666C351.833 368.165 352.067 368.12 352.3 367.394C352.58 366.624 353.047 366.578 358.32 366.85C363.873 367.122 364.06 367.077 364.293 366.17C364.573 365.264 364.387 365.218 361.213 365.082L357.9 364.946L357.76 363.269C357.62 361.637 357.667 361.546 359.02 361.546C360.98 361.546 361.867 361.138 361.867 360.186C361.867 358.962 362.287 358.826 365.32 359.144C366.907 359.325 367.747 359.552 367.42 359.778C367 360.005 367.187 360.232 367.98 360.413C369.94 360.912 369.38 361.909 366.58 362.861C364.573 363.541 364.247 363.768 365.273 363.768C365.973 363.813 366.533 364.04 366.533 364.312C366.533 364.584 366.813 364.72 367.14 364.584C367.42 364.493 367.653 364.176 367.607 363.904C367.467 363.314 370.173 362.226 370.64 362.68C370.827 362.861 370.687 363.133 370.407 363.224C369.847 363.405 373.673 366.986 374.467 366.986C374.653 366.986 376.053 368.12 377.547 369.48C379.04 370.84 380.113 371.973 379.88 371.973C379.647 371.973 380.533 372.789 381.84 373.786C383.1 374.784 384.313 375.917 384.453 376.325C384.78 377.096 384.827 379.68 384.547 379.68C384.453 379.68 382.027 377.458 379.18 374.738C376.333 372.018 373.533 369.616 372.973 369.48C372.367 369.298 371.013 368.346 369.94 367.349C368.913 366.352 367.793 365.672 367.513 365.808C366.86 366.216 366.86 367.893 367.467 367.893C367.747 367.893 368.4 368.301 368.96 368.8L369.94 369.661L368.587 370.16C367.84 370.477 366.393 370.568 365.367 370.386C362.567 369.978 358.6 369.888 358.6 370.25C358.6 370.432 359.487 370.794 360.607 371.112C361.68 371.384 362.847 371.837 363.173 372.064C363.593 372.426 364.013 372.336 364.573 371.792C365.507 371.021 366.813 370.84 367.187 371.429C367.653 372.2 366.907 373.696 365.927 374.013C365.273 374.194 365.133 374.376 365.507 374.557C365.833 374.648 366.3 375.192 366.58 375.69C367 376.416 366.953 376.552 366.44 376.234C366.113 376.053 366.207 376.325 366.673 376.824C367.14 377.368 368.12 377.912 368.773 378.093C370.033 378.41 370.033 378.41 369.007 378.818C368.307 379.045 367.373 378.954 366.347 378.546C364.713 377.866 361.353 377.64 360.793 378.138C360.653 378.274 360.7 378.864 360.933 379.453C361.307 380.36 361.167 380.496 359.86 380.722C358.227 380.949 355.333 379.997 355.333 379.272C355.333 379 355.007 378.773 354.587 378.773C354.213 378.773 353.187 378.274 352.393 377.73C350.993 376.688 349.22 375.962 347.167 375.418C346.653 375.282 347.027 375.237 347.96 375.373C349.36 375.509 349.78 375.328 350.387 374.466C351.367 373.061 351.32 372.925 350.2 373.197C349.64 373.333 349.173 373.152 348.987 372.698C348.847 372.29 348.333 371.973 347.913 371.928C347.353 371.928 347.447 371.792 348.24 371.429C349.78 370.658 349.5 370.296 347.073 369.933C344.553 369.57 343.667 369.026 343.667 367.893C343.667 367.44 343.947 366.941 344.273 366.805C344.553 366.669 344.32 366.624 343.667 366.714C343.013 366.85 342.08 366.624 341.613 366.261C341.1 365.898 340.867 365.626 341.147 365.626C341.38 365.626 341.24 365.4 340.867 365.173C340.307 364.856 340.4 364.674 341.333 364.266L342.5 363.768L341.333 364.085C337.32 365.037 337.413 365.037 334.94 361.592C334.193 360.594 334.193 360.504 335.267 359.733L336.34 358.917L335.22 358.6C333.82 358.192 332.467 357.058 332.467 356.333C332.467 356.016 332.933 355.562 333.54 355.29C334.427 354.882 334.147 354.792 331.86 354.792C329.48 354.746 329.107 354.61 328.78 353.704C328.36 352.661 328.267 352.661 325.28 353.069C321.733 353.568 320.66 353.341 321.127 352.162C321.313 351.709 321.64 351.21 321.92 351.029C322.48 350.666 317.02 350.802 316.367 351.21C316.133 351.346 315.48 351.301 314.967 351.074C314.22 350.802 314.173 350.712 314.827 350.712C315.993 350.666 317.16 348.898 316.46 348.173C315.993 347.674 315.667 347.72 314.687 348.264C313.52 348.944 313.24 348.898 310.113 347.72C307.407 346.722 306.427 346.586 305.027 346.858C302.647 347.402 301.527 347.402 300.92 346.949C299.567 345.952 298.4 346.178 297.187 347.72C296.533 348.581 295.553 349.352 294.993 349.442C294.433 349.578 295.04 349.669 296.3 349.624C297.607 349.624 299.147 349.442 299.8 349.216C300.453 348.989 301.62 348.898 302.46 349.08C304.793 349.488 304.513 350.893 301.9 352.117C299.567 353.25 299.333 354.021 300.78 355.834C301.293 356.469 301.573 357.24 301.387 357.512C301.153 357.874 301.387 357.965 302.04 357.829C303.767 357.376 304.28 358.6 303.253 360.549C302.787 361.456 302.32 362.362 302.227 362.544C302.133 362.68 302.927 362.952 303.953 363.133C305.447 363.36 305.867 363.632 305.867 364.357C305.867 366.034 306.987 366.578 309.927 366.261L312.633 366.034L311.467 366.941C309.553 368.482 309.413 368.618 307.967 370.432C307.22 371.429 306.613 372.426 306.707 372.744C306.847 373.333 306.147 373.56 303.207 374.013C301.433 374.285 299.333 375.6 300.687 375.6C300.967 375.6 301.2 376.008 301.2 376.506C301.2 377.594 302.133 377.64 306.1 376.869C307.92 376.552 308.9 376.506 308.993 376.778C309.087 377.05 309.833 377.186 310.673 377.096C312.167 376.914 312.167 376.914 311.14 377.685C310.253 378.32 310.207 378.501 310.767 379.045C311.093 379.408 311.607 379.68 311.887 379.68C312.68 379.68 312.493 380.45 311.653 380.768C310.813 381.085 310.953 381.085 306.8 380.496V380.496ZM360.373 374.965C361.027 373.514 360.093 373.106 357.993 374.013C357.2 374.33 355.893 374.738 355.193 374.92C353.14 375.328 354.073 375.826 357.107 375.917C359.627 376.053 359.907 375.962 360.373 374.965ZM355.053 371.837C356.407 371.112 356.173 370.613 354.54 370.613C353.793 370.613 353.467 370.885 353.467 371.52C353.467 372.608 353.467 372.608 355.053 371.837V371.837ZM296.067 368.8C296.067 368.573 295.647 368.346 295.133 368.346C294.62 368.346 294.2 368.573 294.2 368.8C294.2 369.072 294.62 369.253 295.133 369.253C295.647 369.253 296.067 369.072 296.067 368.8ZM298.867 360.866C299.333 360.322 299.333 360.186 298.68 360.186C298.26 360.186 297.933 360.504 297.933 360.866C297.933 361.229 298.027 361.546 298.12 361.546C298.213 361.546 298.54 361.229 298.867 360.866ZM302.367 345.68C302.553 345.408 302.087 345.226 301.34 345.226C300.313 345.226 300.173 345.317 300.733 345.68C301.62 346.224 301.993 346.224 302.367 345.68Z" fill="#76727E"/>
<path d="M132.22 378.32C132.08 377.458 131.707 377.141 130.773 377.05C129.653 376.914 129.467 376.688 129.467 375.464C129.467 374.648 129.747 373.56 130.12 373.061C130.727 372.245 130.68 372.109 129.887 371.61C129.093 371.112 128.907 371.202 128.533 372.2C128.253 372.88 128.067 374.013 128.067 374.738C128.067 376.053 127.973 376.098 126.34 375.962L124.567 375.826L124.427 373.469L124.287 371.066H125.92C127.413 371.066 127.6 370.93 127.6 369.888C127.6 368.845 127.74 368.754 129.607 368.89C131.567 369.026 131.567 369.026 131.707 370.976C131.847 372.789 131.893 372.88 133.387 372.88C135.393 372.88 136.467 374.376 136.467 377.186C136.467 378.682 136.28 379.226 135.767 379.226C135.393 379.226 135.067 378.909 135.067 378.546C135.067 378.184 134.74 377.866 134.367 377.866C133.993 377.866 133.667 377.594 133.62 377.322C133.62 377.005 133.293 377.322 132.967 378.093C132.36 379.453 132.36 379.453 132.22 378.32V378.32Z" fill="#76727E"/>
<path d="M23.8599 370.432C23.3466 369.208 23.4866 367.168 24.0933 365.853C24.5133 364.992 24.9799 364.72 26.1933 364.72H27.7333V367.168C27.7333 370.341 27.4066 371.066 26.0533 371.066C25.0733 371.066 24.9333 370.885 25.1666 369.842L25.4466 368.573L24.7933 369.933C24.2799 371.066 24.1399 371.157 23.8599 370.432V370.432Z" fill="#76727E"/>
<path d="M17.4666 368.754C17.4666 367.485 16.5799 365.989 16.0666 366.306C14.8999 366.986 16.3466 365.082 17.7466 364.04C19.0533 363.042 19.5199 362.952 20.0799 363.405C20.8733 364.04 20.7333 365.128 19.5199 367.757C18.5866 369.797 17.4666 370.341 17.4666 368.754V368.754Z" fill="#76727E"/>
<path d="M89.3333 360.64V357.92H90.9666H92.5999V360.64V363.36H90.9666H89.3333V360.64Z" fill="#76727E"/>
<path d="M231.433 361.592C231.947 361.456 233.487 360.731 234.84 360.051C236.24 359.325 237.453 358.872 237.593 359.008C237.733 359.099 237.313 359.461 236.707 359.779C236.147 360.096 234.933 360.731 234.093 361.184C233.253 361.637 232.087 362 231.527 361.955C230.547 361.909 230.547 361.909 231.433 361.592V361.592Z" fill="#76727E"/>
<path d="M59 359.189C59.0467 356.515 59.84 355.653 62.22 355.653C64.1333 355.653 64.1333 355.653 64.1333 357.376C64.1333 359.552 62.64 361.093 60.4933 361.093C59.0467 361.093 59 361.048 59 359.189Z" fill="#76727E"/>
<path d="M125.547 358.509C125.407 358.056 124.94 356.968 124.567 356.107L123.867 354.52L124.007 356.696C124.053 357.875 123.96 358.827 123.82 358.827C123.353 358.827 122.933 357.013 122.933 355.109C122.933 353.432 122.98 353.387 124.567 353.387C125.873 353.387 126.247 353.568 126.48 354.475C126.667 355.336 127.133 355.653 128.207 355.744C129.56 355.88 129.7 356.061 129.84 357.603C129.933 358.555 129.793 359.28 129.513 359.28C129.233 359.28 129 358.963 129 358.6C129 358.192 128.58 357.92 128.02 357.92C127.32 357.92 127.133 358.147 127.32 358.6C127.46 359.053 127.273 359.28 126.713 359.28C126.247 359.28 125.733 358.917 125.547 358.509Z" fill="#76727E"/>
<path d="M27.4066 357.285C28.1533 356.696 28.5266 355.2 27.8733 355.2C27.7333 355.2 26.8466 355.744 25.9599 356.379C24.6066 357.421 24.4199 357.467 24.6533 356.741C24.7933 356.243 25.0266 355.2 25.1666 354.339C25.3066 353.523 25.9133 351.845 26.4733 350.621C27.4066 348.581 27.6399 348.4 28.8999 348.491C30.2533 348.627 30.2999 348.672 30.4399 351.347C30.5333 352.843 30.4866 354.928 30.2999 356.016C30.0199 357.875 29.9733 357.92 28.2933 357.92C26.7533 357.875 26.6599 357.829 27.4066 357.285V357.285Z" fill="#76727E"/>
<path d="M68.7999 355.88C68.7999 354.384 68.8933 354.293 70.4333 354.293C71.9733 354.293 72.0666 354.384 72.0666 355.88C72.0666 357.376 71.9733 357.466 70.4333 357.466C68.8933 357.466 68.7999 357.376 68.7999 355.88Z" fill="#76727E"/>
<path d="M75.7999 352.888C75.7999 350.213 76.4533 349.307 78.3666 349.307C79.9533 349.307 79.9999 349.352 79.9999 351.165C79.9999 353.84 79.3466 354.747 77.4333 354.747C75.8466 354.747 75.7999 354.701 75.7999 352.888Z" fill="#76727E"/>
<path d="M58.5333 348.173V345.226H59.9333C61.1933 345.226 61.3333 345.09 61.3333 343.73C61.3333 341.554 62.4533 340.24 64.4133 340.24C66 340.24 66 340.285 66 342.189C66 344.365 64.9733 345.68 63.34 345.68C62.5 345.68 62.36 346.042 62.08 348.4L61.7533 351.12H60.1667H58.5333V348.173V348.173Z" fill="#76727E"/>
<path d="M125.78 346.496C125.733 344.864 125.827 344.773 127.133 344.773C128.067 344.773 128.533 345 128.533 345.453C128.533 345.816 128.347 346.179 128.067 346.179C127.833 346.224 127.367 346.269 127.087 346.315C126.76 346.315 126.387 346.768 126.153 347.267C125.873 347.947 125.78 347.765 125.78 346.496Z" fill="#76727E"/>
<path d="M67.3999 341.419C67.3999 339.379 68.4266 338.427 70.7132 338.427C72.4866 338.427 72.5332 338.472 72.5332 339.923C72.5332 341.872 71.3199 342.96 69.1266 342.96C67.4932 342.96 67.3999 342.915 67.3999 341.419Z" fill="#76727E"/>
<path d="M84.6666 340.92C84.6666 339.424 84.76 339.333 86.3 339.333C87.84 339.333 87.9333 339.424 87.9333 340.92C87.9333 342.416 87.84 342.506 86.3 342.506C84.76 342.506 84.6666 342.416 84.6666 340.92Z" fill="#76727E"/>
<path d="M118.267 341.101C118.267 339.288 119.013 337.973 120.133 337.973C121.3 337.973 121.533 339.333 120.507 340.33C119.387 341.418 119.433 342.189 120.6 341.826C121.113 341.645 121.533 341.736 121.533 342.008C121.533 342.28 120.787 342.506 119.9 342.506C118.407 342.506 118.267 342.416 118.267 341.101Z" fill="#76727E"/>
<path d="M84.2 336.84C84.2 335.344 84.2933 335.253 85.8333 335.253C87.3733 335.253 87.4666 335.344 87.4666 336.84C87.4666 338.336 87.3733 338.427 85.8333 338.427C84.2933 338.427 84.2 338.336 84.2 336.84Z" fill="#76727E"/>
<path d="M116.4 333.848C116.4 330.992 118.453 329.587 119.48 331.808C119.9 332.669 119.853 332.941 119.107 333.395C118.64 333.667 118.267 334.211 118.267 334.573C118.267 334.936 117.847 335.253 117.333 335.253C116.587 335.253 116.4 334.936 116.4 333.848V333.848Z" fill="#76727E"/>
<path d="M35.3867 332.76C36.2267 330.765 36.2267 330.448 35.48 331.355C35.06 331.853 34.5933 332.08 34.4067 331.899C33.8 331.355 35.3867 329.133 36.5067 328.997C37.3933 328.861 37.5333 329.043 37.5333 330.357C37.5333 331.173 37.2067 332.216 36.88 332.669C36.1333 333.621 34.9667 333.712 35.3867 332.76V332.76Z" fill="#76727E"/>
<path d="M69.2666 330.267C69.2666 329.224 69.6866 327.592 70.1999 326.64C71.0399 325.053 71.3666 324.827 72.7666 324.827H74.3999V327.229C74.3533 330.176 72.9066 332.08 70.6666 332.08C69.3599 332.08 69.2666 331.989 69.2666 330.267Z" fill="#76727E"/>
<path d="M48.7333 324.691C48.7333 322.061 49.7599 320.747 51.8133 320.747C53.3066 320.747 53.3999 320.837 53.3999 322.333C53.3999 323.24 53.0733 324.555 52.6999 325.28C52.0933 326.413 51.6733 326.64 50.3666 326.64C48.7799 326.64 48.7333 326.595 48.7333 324.691Z" fill="#76727E"/>
<path d="M109.213 321.562C109.073 320.973 108.933 319.93 108.933 319.25C108.933 318.072 109.027 317.981 110.707 318.117C112.433 318.253 112.433 318.253 112.573 320.429L112.713 322.56H111.127C109.867 322.56 109.447 322.333 109.213 321.562V321.562Z" fill="#76727E"/>
<path d="M42.06 320.656C42.76 317.21 43.32 315.76 43.88 315.76C44.58 315.76 44.72 317.165 44.2533 319.976C44.02 321.336 43.74 321.653 42.9 321.653C42.0133 321.653 41.8733 321.472 42.06 320.656Z" fill="#76727E"/>
<path d="M82.4266 317.709C82.5666 316.077 82.6599 315.986 84.3399 315.85L86.0666 315.714V317.528V319.386H84.1533H82.2866L82.4266 317.709Z" fill="#76727E"/>
<path d="M87.4667 312.586V310.32H89.1H90.7333V312.586V314.853H89.1H87.4667V312.586Z" fill="#76727E"/>
<path d="M50.6 310.229C50.6466 309.413 51.0666 307.6 51.58 306.24C52.0933 304.88 52.7466 303.067 52.98 302.205C53.4933 300.573 56.3866 296.539 57.8333 295.36C58.6266 294.771 58.6733 294.771 58.44 295.36C57.5533 297.763 57.5533 297.989 58.4867 297.763C59 297.627 59.7466 297.128 60.2133 296.675C61.9866 294.725 63.1066 296.72 61.4733 298.941C60.7266 300.029 60.7266 300.029 61.94 299.803C63.2933 299.531 63.5266 299.848 62.64 300.709C61.8 301.525 59 301.435 59 300.573C59 299.213 58.16 299.939 57.18 302.205C56.6666 303.52 56.2 305.243 56.2 306.059C56.2 307.963 55.5466 309.595 54.3333 310.773C53.3533 311.725 52.1866 312.043 52.7 311.227C53.26 310.32 53.82 308.053 53.4466 308.053C53.26 308.053 52.7933 308.869 52.4666 309.867C51.72 312.088 50.6 312.315 50.6 310.229V310.229ZM56.1066 302.069C57.2733 300.165 57.7866 298.533 57.2266 298.533C56.8533 298.533 56.3866 299.395 54.94 302.976C54.4733 304.064 55.22 303.52 56.1066 302.069Z" fill="#76727E"/>
<path d="M65.0667 307.781C65.0667 306.875 65.44 305.56 65.86 304.835C66.7467 303.384 68.3333 303.067 68.3333 304.336C68.38 305.061 68.38 305.061 68.8466 304.336C69.08 303.883 69.5 303.52 69.7333 303.52C70.5733 303.52 70.2 306.149 69.22 307.781C68.4267 309.141 67.96 309.413 66.6533 309.413C65.16 309.413 65.0667 309.323 65.0667 307.781Z" fill="#76727E"/>
<path d="M110.1 308.416C109.867 307.872 109.26 307.6 108.187 307.6C106.693 307.6 106.6 307.509 106.6 306.013C106.6 304.608 106.74 304.426 107.767 304.426H108.933L107.72 301.389C107.067 299.666 106.367 298.125 106.133 297.898C105.853 297.626 105.667 296.584 105.667 295.496C105.667 293.546 105.667 293.546 107.347 293.546C108.747 293.546 109.073 293.728 109.447 294.906C110.147 296.81 110.707 296.584 110.893 294.362C111.033 292.413 111.033 292.413 112.9 292.413C114.58 292.413 114.86 292.594 115.747 294.226C117.193 296.81 117.613 299.666 116.633 300.074C115.513 300.482 115.14 300.12 114.02 297.581C112.9 295.088 112.2 294.725 112.153 296.629C112.153 297.309 112.013 297.581 111.873 297.309C111.78 296.992 111.5 296.72 111.313 296.72C110.707 296.72 111.967 301.616 112.807 302.522C113.6 303.384 113.6 303.474 112.76 305.56C111.873 307.781 111.64 307.826 111.08 305.696C110.94 304.97 110.613 304.426 110.38 304.426C110.147 304.426 110.147 305.242 110.38 306.285C110.847 308.325 110.66 309.73 110.1 308.416V308.416Z" fill="#76727E"/>
<path d="M21.2 302.205C21.2 301.933 21.4333 301.706 21.7133 301.706C21.9466 301.706 22.6 300.8 23.1133 299.666C23.6266 298.533 24.2333 297.626 24.4666 297.626C24.7 297.626 24.3733 298.533 23.7199 299.621C22.4599 301.752 21.2 303.112 21.2 302.205Z" fill="#76727E"/>
<path d="M66.4667 299.53C66.4667 299.032 66.7933 298.397 67.2133 298.034C68.1467 297.309 69.2667 295.178 69.2667 294.181C69.2667 293.456 69.1733 293.456 68.3333 294.226C67.4467 295.042 67.4 294.997 67.4 293.909C67.4 292.458 66.9333 292.05 66.0933 292.73C65.4867 293.229 65.44 293.048 65.7667 291.37C66.0933 289.466 66.0467 289.33 64.18 287.834C63.1067 286.928 62.2667 285.84 62.2667 285.386C62.2667 284.978 61.94 283.8 61.52 282.848L60.7733 281.125L60.0733 282.349C59.0467 284.298 58.3933 283.346 58.6733 280.354C58.86 278.224 58.7667 277.589 58.1133 277C57.3667 276.365 57.0867 276.41 55.08 277.498C53.8667 278.133 52.7467 278.541 52.56 278.405C52.42 278.224 52.5133 277.181 52.84 276.093C53.5867 273.464 53.54 271.922 52.7467 268.976C52.42 267.661 52.0933 264.125 52.0467 261.133C52 258.186 51.7667 255.602 51.5333 255.466C51.3 255.33 51.3933 253.789 51.7667 251.613C52.14 249.618 52.42 247.442 52.4667 246.762C52.4667 245.176 54.1467 241.413 54.8467 241.413C55.22 241.413 55.3133 242.229 55.08 244.36C54.8467 246.853 54.8933 247.306 55.5 247.306C55.9667 247.306 56.2 247.76 56.2 248.848C56.2 250.842 55.78 251.84 54.9867 251.84C53.9134 251.84 54.1933 259.864 55.64 270.88L55.9667 273.373L56.8067 271.922C57.9267 269.882 59.7933 268.613 61.6133 268.613C63.1067 268.613 63.2 268.704 63.2 270.245C63.2 271.333 62.8267 272.33 62.0333 273.237C61.38 273.962 60.8667 274.96 60.8667 275.458C60.8667 276.093 61.1933 276.32 62.0333 276.32C62.8267 276.32 63.2 276.546 63.2 277.136C63.2 277.544 63.5733 279.402 63.9933 281.216L64.8333 284.525L66.9333 284.389L69.0333 284.253L69.1733 282.349C69.2667 280.808 69.1733 280.4 68.6133 280.4C67.3533 280.4 67.7267 277.68 69.5 274.144C71.0867 270.88 71.0867 270.88 73 270.88H74.8667V273.373C74.8667 275.64 74.7733 275.866 73.84 275.912C72.8133 275.957 72.8133 275.957 73.9333 276.274C74.96 276.546 75.1 276.864 75.1933 278.813C75.2867 280.082 75.4267 282.576 75.6133 284.389L75.8933 287.653L77.06 286.746C77.7133 286.248 78.5067 285.84 78.8333 285.84C79.1133 285.84 79.7667 285.432 80.2333 284.933C81.0733 284.026 81.0267 284.026 78.9267 284.026H76.7333V282.168C76.7333 280.309 77.3867 278.632 78.32 278.042C78.6 277.861 79.4867 277.68 80.28 277.68C81.5867 277.68 81.7734 277.861 82.0534 279.176L82.38 280.626L83.0333 279.493C83.5933 278.496 83.5933 278.36 82.94 278.224C82.4267 278.088 82.2867 277.498 82.4267 275.594C82.5667 273.328 82.4733 273.146 81.54 273.146C80.7 273.146 80.4667 272.874 80.4667 271.922C80.4667 269.202 80.8867 268.613 82.8467 268.613C84.5733 268.613 84.6667 268.704 84.6667 270.018C84.6667 270.789 84.4333 271.786 84.2 272.285C83.78 272.965 83.8733 273.146 84.5267 273.146C84.9933 273.146 85.6467 272.738 85.9733 272.24C86.3467 271.605 87.0467 271.333 88.12 271.333C89.4734 271.333 89.7533 271.106 90.5 269.429C90.92 268.341 91.2467 266.8 91.2 265.984C91.1067 263.989 92.2733 262.72 94.3267 262.72C95.5867 262.72 95.8667 262.901 95.8667 263.717C95.8667 264.624 96.0533 264.533 97.78 262.946C98.8067 261.949 100.393 260.181 101.28 259.002L102.867 256.826H101.653C100.58 256.826 100.487 256.69 100.627 255.149C100.72 253.744 100.953 253.381 101.84 253.29C102.633 253.154 102.867 252.837 102.867 251.794C102.867 251.069 102.68 250.48 102.4 250.48C102.167 250.48 101.933 250.661 101.933 250.888C101.933 251.794 100.393 252.746 98.8534 252.746C97.3134 252.746 97.2667 252.701 97.2667 250.933C97.2667 249.981 97.5467 248.893 97.8733 248.576C98.2467 248.304 98.3867 247.533 98.2933 246.944C97.9667 245.266 99.0867 243.68 100.627 243.68C102.213 243.68 102.26 243.952 100.907 245.402L99.8333 246.536L101.14 245.72C102.353 244.949 102.4 244.949 102.447 245.765C102.447 246.264 102.587 246.4 102.727 246.082C102.82 245.765 103.427 245.493 104.033 245.493C104.92 245.493 105.06 245.674 104.827 246.536C104.687 247.08 104.267 247.986 103.893 248.576C103.053 249.845 103.847 249.89 105.013 248.621C106.367 247.125 107.58 246.672 108.047 247.352C108.327 247.805 108.467 247.85 108.467 247.442C108.467 247.125 108.7 246.853 108.933 246.853C109.213 246.853 109.4 247.17 109.4 247.533C109.4 247.896 109.027 248.213 108.607 248.213C107.767 248.213 104.733 251.386 104.733 252.248C104.733 252.973 105.107 252.882 106.973 251.522L108.7 250.298L107.347 251.749C106.04 253.154 105.993 253.2 106.973 253.2C107.86 253.2 108 253.472 108 255.013C108 256.69 108.327 257.098 109.54 256.872C109.773 256.826 109.867 256.962 109.773 257.144C109.68 257.325 109.307 258.277 108.933 259.229C108.14 261.224 107.347 261.178 107.16 259.184C107.067 258.368 106.88 257.733 106.693 257.733C106.32 257.733 102.867 261.36 102.867 261.768C102.867 261.949 101.933 263.037 100.767 264.17C98.7133 266.21 98.1533 267.253 99.18 267.253C99.9733 267.253 99.1333 269.202 97.5933 270.744C95.1667 273.282 92.04 278.813 91.1534 282.213C90.6867 284.026 90.5933 284.162 90.0333 283.392C89.4267 282.621 89.38 282.621 88.4467 283.528C87.8867 284.072 87.0467 284.48 86.58 284.48C84.9 284.48 82.8933 286.021 81.2133 288.65C80.28 290.101 79.2533 291.28 78.9267 291.28C78.5533 291.28 77.9 291.733 77.3867 292.232C76.92 292.776 75.8 293.501 75.0067 293.818C74.0267 294.226 73.14 295.133 72.5333 296.266C72.02 297.264 71.46 298.08 71.32 298.08C71.18 298.08 71.1333 297.354 71.2267 296.402C71.46 293.864 70.5734 294.226 68.9867 297.309C67.54 300.165 66.4667 301.072 66.4667 299.53V299.53ZM72.44 290.826C73.56 288.922 73.7467 288.106 73 288.106C72.58 288.106 70.2 291.688 70.2 292.322C70.2 293.274 71.5067 292.368 72.44 290.826ZM73 283.664C73 282.485 73 282.485 71.8333 284.117C71.18 285.024 70.6667 286.157 70.6667 286.61C70.7133 287.97 73 285.069 73 283.664ZM86.3467 280.173C87.9333 276.637 87.7 275.504 86.02 278.813C84.7134 281.397 84.3867 282.666 84.9467 282.666C85.0867 282.666 85.6933 281.533 86.3467 280.173ZM91.06 276.002C91.9 274.325 91.5733 274.234 90.5467 275.866C90.1267 276.637 89.8933 277.226 90.1267 277.226C90.3133 277.226 90.78 276.682 91.06 276.002ZM72.9067 273.781C72.7667 273.056 72.58 273.192 71.9267 274.37C70.8533 276.32 70.9467 276.728 72.1133 275.549C72.6733 275.05 73 274.234 72.9067 273.781Z" fill="#76727E"/>
<path d="M98.7599 296.947C98.8999 294.816 98.7599 294.453 98.1066 294.453C97.4066 294.453 97.2666 294.045 97.2666 291.915V289.376L99.0866 289.557C100.72 289.693 101 289.557 101.233 288.696C101.373 288.107 101.7 287.653 101.98 287.653C102.633 287.653 102.12 291.416 101.467 291.643C100.58 291.96 101 293.093 101.98 293.093C102.96 293.093 103.007 293.229 102.68 295.859C102.54 297.355 102.307 298.805 102.12 299.032C101.98 299.259 101.14 299.44 100.207 299.44H98.5733L98.7599 296.947Z" fill="#76727E"/>
<path d="M105.9 291.507C105.76 291.144 105.573 290.509 105.433 290.101C105.247 289.557 105.433 289.467 106.133 289.693C107.067 289.965 107.067 289.829 106.833 287.563C106.693 286.248 106.46 284.616 106.32 283.981C106.18 283.211 106.367 282.531 106.833 282.032C108.653 280.309 109.26 281.715 109.307 287.789L109.353 292.187H107.72C106.693 292.187 106.04 291.96 105.9 291.507V291.507Z" fill="#76727E"/>
<path d="M102.4 291.28C102.4 290.101 103.473 286.747 103.847 286.747C104.407 286.747 104.827 288.651 104.64 290.192C104.547 291.144 104.22 291.552 103.473 291.643C102.867 291.733 102.4 291.552 102.4 291.28V291.28Z" fill="#76727E"/>
<path d="M106.927 271.469C106.787 271.242 106.88 270.698 107.113 270.2C107.44 269.429 107.487 269.429 107.487 270.562C107.533 271.786 107.3 272.104 106.927 271.469V271.469Z" fill="#76727E"/>
<path d="M104.407 268.885C103.24 268.522 102.867 268.16 102.867 267.344C102.867 266.754 103.053 266.437 103.333 266.573C103.8 266.845 103.987 266.528 104.453 264.488C104.593 263.808 105.107 263.173 105.573 263.082C106.32 262.856 106.367 263.173 106.273 266.029C106.18 267.797 106.087 269.248 105.993 269.293C105.947 269.293 105.2 269.112 104.407 268.885Z" fill="#76727E"/>
<path d="M102.213 264.714C101.84 263.762 101.84 263.762 102.54 263.49C102.913 263.354 103.193 263.672 103.24 264.352C103.333 265.576 102.633 265.802 102.213 264.714V264.714Z" fill="#76727E"/>
<path d="M85.1333 262.811C85.1333 260.816 85.9266 258.912 87.1866 258.096C87.4666 257.915 88.4 257.733 89.24 257.733C90.64 257.733 90.7333 257.824 90.7333 259.411C90.7333 260.363 90.22 261.904 89.5666 263.037C88.4933 264.76 88.1666 264.987 86.7666 264.987H85.1333V262.811V262.811Z" fill="#76727E"/>
<path d="M92.1333 259.864C92.1333 257.96 93.3466 256.827 95.3066 256.827C96.7066 256.827 96.8 256.917 96.8 258.549C96.8 260.725 96.1466 261.36 93.9066 261.36C92.2266 261.36 92.1333 261.315 92.1333 259.864Z" fill="#76727E"/>
<path d="M67.54 255.376C68.1933 250.389 68.66 248.939 70.1533 247.669C71.18 246.808 72.1133 246.4 73.2333 246.4C74.7733 246.4 74.8666 246.491 74.8666 247.896C74.8666 248.848 74.4933 249.755 73.9333 250.253C73.3733 250.752 73 251.659 73 252.475C73 253.245 72.4866 254.651 71.8333 255.603C70.8066 257.008 70.3867 257.28 68.9867 257.28H67.3066L67.54 255.376Z" fill="#76727E"/>
<path d="M80.9333 255.92C80.9333 255.194 81.1667 254.061 81.4934 253.426C81.9134 252.52 82.3334 252.293 83.8267 252.293C85.5067 252.293 85.6 252.338 85.6 253.789C85.6 255.965 84.48 257.28 82.52 257.28C81.0734 257.28 80.9333 257.144 80.9333 255.92Z" fill="#76727E"/>
<path d="M93.16 251.069C93.3 249.437 93.3933 249.347 95.0733 249.211L96.8467 249.075L96.7067 250.797C96.5667 252.429 96.4733 252.52 94.7933 252.656L93.02 252.792L93.16 251.069Z" fill="#76727E"/>
<path d="M81.8666 246.672C81.8666 244.496 82.2866 244.133 84.7599 244.133H86.1599L84.9466 245.675L83.7332 247.261L84.9932 246.627C86.5799 245.811 86.9999 246.491 85.7866 247.805C85.3199 248.304 84.3866 248.667 83.4066 248.667C81.9132 248.667 81.8666 248.621 81.8666 246.672V246.672Z" fill="#76727E"/>
<path d="M65.5333 244.632C65.5333 243.634 65.8133 242.637 66.2333 242.32C66.6067 242.002 66.9333 241.368 66.9333 240.869C66.9333 240.416 67.26 239.917 67.6333 239.781C68.0067 239.6 68.3333 239.237 68.3333 238.874C68.3333 238.512 68.8 238.24 69.5 238.24C70.5267 238.24 70.62 238.33 70.2 239.418C69.78 240.461 69.8266 240.552 70.7133 240.28C71.6 240.008 71.6933 240.098 71.4133 241.005C71.2733 241.594 70.9933 242.682 70.8067 243.453C70.4333 245.221 68.94 246.354 67.0733 246.4C65.58 246.4 65.5333 246.309 65.5333 244.632V244.632Z" fill="#76727E"/>
<path d="M192 241.912C191.16 240.416 189.667 238.467 188.687 237.56C187.66 236.653 186.587 235.248 186.213 234.432C185.14 231.893 181.407 227.541 178.327 225.184C174.78 222.509 173.193 221.648 170.86 221.24C169.367 220.968 169.04 220.696 168.807 219.563C168.62 218.701 168.107 218.067 167.313 217.704C166.193 217.251 166.147 217.205 167.08 217.069C167.64 216.979 168.34 216.389 168.667 215.755C169.273 214.712 169.18 214.531 167.36 212.717C166.24 211.629 165.493 210.677 165.587 210.541C165.68 210.451 164.7 209.181 163.393 207.731C161.013 205.192 159.24 204.285 158.167 205.147C157.84 205.373 156.86 205.056 155.46 204.195C152.893 202.653 151.867 202.517 151.867 203.787C151.867 204.965 150.513 204.965 148.04 203.741C147.013 203.243 144.587 202.653 142.58 202.427C140.62 202.245 138.1 201.701 136.933 201.293C135.767 200.885 133.807 200.523 132.5 200.432C131.24 200.387 128.16 199.843 125.733 199.253C123.26 198.619 119.853 198.12 118.033 198.12C115.653 198.075 114.253 197.848 112.9 197.123C111.873 196.579 109.82 195.808 108.373 195.4C106.88 194.992 105.06 194.176 104.313 193.541C102.727 192.272 96.1933 189.597 92.8333 188.917C91.5266 188.645 90.1266 188.283 89.7066 188.147C89.0532 187.875 88.9132 188.192 88.7732 189.824C88.6799 191.093 88.3999 191.773 87.9799 191.773C87.6532 191.773 86.6266 192.453 85.7399 193.269C84.5732 194.312 83.6866 194.72 82.5666 194.72C81.3999 194.72 81.0266 194.901 81.2132 195.355C81.3532 195.672 80.8866 196.307 80.1399 196.805C79.0199 197.576 78.0866 197.667 72.8599 197.531C69.5466 197.485 65.9999 197.213 64.9266 196.987C63.8533 196.76 61.7533 196.533 60.2599 196.533C58.5799 196.533 57.1333 196.261 56.4333 195.808C55.7799 195.4 54.9399 195.219 54.5199 195.355C54.0999 195.536 53.3999 195.355 52.9799 195.037C51.3932 193.723 49.2933 193.36 47.4266 194.131C46.4933 194.493 45.5599 195.083 45.3732 195.355C44.9532 196.08 39.1199 195.899 38.1866 195.128C37.8132 194.856 37.3466 194.72 37.1599 194.901C36.9733 195.083 37.7666 196.08 38.8866 197.077C39.9599 198.075 40.9399 199.344 40.9866 199.933C41.1266 200.84 40.9866 200.885 38.5133 200.749C37.0666 200.613 35.4333 200.341 34.8266 200.024C33.9866 199.661 33.4733 199.707 32.4933 200.251C31.1866 201.021 29.2732 200.931 27.4066 200.069C26.5199 199.661 26.3333 199.163 26.3333 197.576C26.3333 195.853 26.4732 195.627 27.4066 195.627C29.5532 195.627 30.5333 195.083 30.5333 193.995C30.5333 193.043 30.7666 192.907 32.3532 192.907C33.8932 192.907 34.2199 192.725 34.4532 191.773C34.6399 191.139 35.0599 190.64 35.4333 190.64C35.8999 190.64 36.1333 190.187 36.1333 189.28C36.1333 188.011 36.2733 187.92 37.7666 187.92C38.6533 187.92 39.3999 188.147 39.3999 188.373C39.3999 188.645 41.0333 188.827 43.3666 188.827C45.8866 188.827 47.9866 189.099 49.0599 189.507C49.9466 189.869 51.2999 190.187 51.9999 190.187C52.6999 190.187 53.5399 190.504 53.8666 190.867C54.1933 191.229 54.9399 191.547 55.4999 191.547C56.0599 191.547 57.0399 191.955 57.6933 192.408C58.3466 192.907 59.2332 193.224 59.7466 193.088C60.4932 192.907 60.5866 192.544 60.4933 190.731C60.3066 188.464 59.3733 187.013 58.0666 187.013C57.3666 187.013 57.1799 186.424 56.8999 183.659L56.5732 180.259L54.8933 180.077C53.8666 179.987 54.4732 179.896 56.3399 179.851C58.0666 179.805 59.4666 179.579 59.4666 179.307C59.4666 178.899 58.3933 178.672 56.7599 178.717C52.0933 178.944 40.5666 176.723 36.9266 174.909C35.7133 174.32 35.3399 174.32 33.0532 175.227C30.9999 176.043 30.6266 176.36 31.0466 176.859C31.4666 177.357 31.3266 177.493 30.3466 177.493C29.2733 177.493 29.1333 177.312 29.1333 175.907C29.1333 174.411 29.3199 174.229 31.3732 173.368C34.4532 172.053 36.6466 171.827 38.2799 172.643C40.6133 173.821 48.3599 175.635 52.9333 176.133C57.7399 176.632 64.6466 176.179 67.3999 175.227C68.2866 174.909 70.1999 174.139 71.6466 173.595C74.7732 172.325 78.3666 172.144 78.7866 173.232C79.2066 174.229 79.1133 176.723 78.6933 177.403C78.1799 178.173 75.7533 178.853 71.5999 179.307C66.1866 179.941 60.3999 181.256 60.3999 181.936C60.3999 182.208 60.6799 182.48 61.0066 182.48C61.2866 182.48 62.2199 182.797 62.9666 183.205C66.8399 185.291 68.2399 185.789 69.4999 185.699C70.2933 185.653 71.8333 185.925 72.9533 186.333C76.1266 187.421 76.7333 187.285 76.7333 185.472C76.7333 183.069 77.5732 182.707 81.7732 183.296C86.6266 184.021 86.9999 184.021 86.9999 182.888C86.9999 182.117 87.2332 181.981 88.7732 182.117C90.2666 182.253 90.4999 182.435 90.6399 183.523C90.7799 184.475 91.0599 184.747 91.8999 184.747C92.5533 184.747 93.7199 185.155 94.5599 185.653C96.3799 186.741 97.7333 186.832 97.7333 185.88C97.7333 185.427 98.1999 185.2 99.0399 185.2C100.673 185.2 106.6 187.557 106.6 188.237C106.6 188.555 107.207 188.645 108.513 188.509C110.007 188.283 110.707 188.464 111.873 189.28C112.947 190.051 113.833 190.323 115.327 190.232C117.053 190.141 117.427 190.277 117.847 191.275C118.593 192.816 119.667 192.272 119.667 190.368C119.667 188.963 119.807 188.827 121.067 188.827C122.373 188.827 122.467 188.691 122.467 187.24C122.467 185.744 122.56 185.653 124.007 185.653C124.8 185.653 126.387 186.061 127.507 186.56C129.28 187.331 129.467 187.557 129.467 189.053C129.467 190.595 129.42 190.64 127.74 190.64C126.76 190.64 125.267 190.232 124.473 189.733L122.933 188.827V190.413C122.933 192.317 124.24 193.088 128.207 193.541C130.82 193.813 130.867 193.813 130.867 192.68C130.867 191.864 131.1 191.547 131.8 191.547C132.547 191.547 132.733 191.229 132.733 190.187C132.733 188.917 132.827 188.827 134.507 188.827C135.487 188.827 136.747 189.144 137.307 189.552C137.867 189.915 138.333 190.005 138.333 189.779C138.333 189.235 141.04 189.099 142.253 189.552C142.72 189.733 143 190.368 143 191.365C143 192.725 142.86 192.907 141.833 192.907C141.18 192.907 140.667 193.133 140.667 193.36C140.667 193.632 139.873 193.813 138.94 193.813C135.907 193.813 137.96 194.856 141.227 194.947C144.213 195.037 145.053 195.355 149.86 198.165C151.307 199.027 152.847 199.707 153.313 199.707C153.733 199.707 154.62 200.115 155.273 200.613C155.927 201.157 157.14 201.52 158.12 201.52C159.473 201.52 159.8 201.339 159.8 200.613C159.8 199.888 160.127 199.707 161.34 199.707C164.047 199.707 166.333 202.155 166.333 205.056C166.333 205.781 166.66 206.643 167.08 207.005C167.453 207.323 168.2 208.365 168.713 209.317C169.227 210.269 169.833 211.04 170.113 211.04C170.907 211.04 172.4 214.757 172.4 216.752C172.4 218.611 172.447 218.656 175.107 219.789C176.553 220.424 179.027 221.965 180.567 223.235C182.06 224.504 183.46 225.547 183.647 225.547C184.113 225.547 187.473 229.989 188.873 232.347C189.48 233.48 190.973 235.928 192.187 237.832C193.68 240.28 194.333 241.776 194.333 242.955C194.333 243.861 194.147 244.587 193.913 244.587C193.633 244.587 192.793 243.363 192 241.912V241.912ZM76.2666 175.907C77.2466 174.773 75.8932 174.728 74.5399 175.861L73.2333 176.949L74.4933 176.723C75.1933 176.587 75.9866 176.224 76.2666 175.907Z" fill="#76727E"/>
<path d="M60.3999 241.64C60.3999 240.189 60.5399 240.053 61.7532 240.053H63.0599L62.3132 241.64C61.3332 243.68 60.3999 243.68 60.3999 241.64V241.64Z" fill="#76727E"/>
<path d="M176.18 211.448C175.527 211.221 174.127 210.269 173.007 209.408C171.28 208.002 171 207.594 171 206.008C171 205.056 171.233 204.24 171.467 204.24C171.747 204.24 171.933 203.741 171.933 203.106C171.933 202.154 172.167 201.973 173.24 201.973C174.453 201.973 174.5 201.882 174.36 199.933C174.173 197.938 174.22 197.893 175.48 197.938C176.227 197.938 177.953 198.12 179.307 198.301C181.36 198.573 182.013 198.89 183.18 200.296C184.207 201.474 184.953 201.973 185.887 201.973C186.587 201.973 187.333 202.154 187.613 202.381C188.22 202.97 192.467 203.288 192.467 202.789C192.467 202.517 193.307 202.426 194.333 202.517C196.153 202.653 196.2 202.653 196.2 201.202C196.2 199.752 196.293 199.706 198.02 199.706C199.513 199.706 200.073 199.978 201.053 201.202C201.707 201.973 202.547 203.016 202.967 203.469C203.34 203.877 203.667 204.874 203.667 205.6C203.667 206.914 203.573 206.96 201.66 206.96C199.84 206.96 199.56 207.096 198.953 208.456C198.533 209.362 197.927 209.952 197.227 210.042C196.247 210.178 196.2 210.088 196.62 209.272C197.087 208.501 197.04 208.365 196.433 208.637C195.967 208.773 194.847 208.32 193.633 207.458C191.347 205.872 190.693 205.736 189.947 206.778C189.527 207.322 189.06 207.368 187.38 207.005C186.307 206.778 184.907 206.144 184.347 205.645C183.787 205.101 182.993 204.693 182.62 204.693C182.247 204.693 181.407 204.33 180.8 203.922C179.68 203.152 179.633 203.152 180.287 204.013C180.66 204.512 181.733 205.6 182.62 206.416C183.553 207.232 184.067 207.821 183.74 207.685C183.413 207.504 183.133 207.866 183.04 208.637C182.947 209.544 182.387 210.178 181.033 210.904C179.027 212.037 177.953 212.128 176.18 211.448V211.448ZM200.213 204.874C199.747 204.24 199.28 203.832 199.14 203.968C199 204.104 199.233 204.738 199.653 205.418C200.12 206.053 200.587 206.461 200.727 206.325C200.867 206.189 200.633 205.554 200.213 204.874Z" fill="#76727E"/>
<path d="M188.267 208.32C188.267 207.731 189.2 207.731 190.133 208.32C190.693 208.683 190.553 208.773 189.573 208.773C188.827 208.773 188.267 208.592 188.267 208.32Z" fill="#76727E"/>
<path d="M199.933 195.853C199.933 194.357 200.027 194.267 201.567 194.267C203.107 194.267 203.2 194.357 203.2 195.853C203.2 197.349 203.107 197.44 201.567 197.44C200.027 197.44 199.933 197.349 199.933 195.853Z" fill="#76727E"/>
<path d="M149.393 195.626C148.74 195.128 147.947 194.72 147.573 194.72C146.36 194.674 145.333 193.496 145.333 192.045C145.333 190.64 145.38 190.64 147.62 190.64C149.44 190.64 150.233 190.912 151.353 191.818C152.66 192.861 152.847 192.906 153.547 192.272C154.387 191.456 157.093 191.32 158.447 192C159.1 192.362 159.333 192.952 159.333 194.357V196.17L156.767 195.989C155.367 195.853 154.2 195.944 154.2 196.17C154.2 196.941 150.607 196.533 149.393 195.626V195.626Z" fill="#76727E"/>
<path d="M215.147 194.493C215.38 193.949 215.053 193.813 213.793 193.813C212.907 193.813 212.067 194.04 211.973 194.357C211.833 194.675 210.387 193.632 208.52 191.909C203.387 187.149 202.267 186.333 202.267 187.285C202.267 187.739 202.687 188.555 203.247 189.099L204.18 190.051L203.013 189.869C201.753 189.643 201.427 190.096 202.267 190.912C202.593 191.229 202.313 191.32 201.333 191.184C199.607 190.957 199.187 189.688 199.747 186.424C200.167 184.112 200.213 184.067 201.847 183.931C203.573 183.795 203.853 183.976 209.733 188.781C210.62 189.507 212.16 190.277 213.14 190.413L214.867 190.731V188.872C214.867 187.104 214.913 187.013 216.36 187.013C218.46 187.013 220.467 188.963 220.467 190.957C220.467 192.499 219.86 192.952 219.393 191.819C219.253 191.456 218.46 190.821 217.713 190.413C216.453 189.824 216.267 189.779 216.267 190.368C216.267 190.731 216.733 191.365 217.293 191.728C217.853 192.136 218.087 192.453 217.76 192.453C217.433 192.453 217.2 193.043 217.2 193.813C217.2 194.947 217.013 195.173 216.033 195.173C215.193 195.173 214.96 194.992 215.147 194.493V194.493Z" fill="#76727E"/>
<path d="M118.127 188.056C117.94 187.92 117.8 187.058 117.8 186.242C117.8 184.746 117.847 184.701 119.573 184.837C121.207 184.973 121.3 185.064 121.44 186.696C121.58 188.328 121.533 188.373 119.993 188.373C119.153 188.373 118.267 188.237 118.127 188.056V188.056Z" fill="#76727E"/>
<path d="M141.133 187.92C140.76 187.693 139.547 187.467 138.52 187.467C136.42 187.467 136 186.923 136 184.203C136 182.979 136.093 182.933 138.24 182.933C139.5 182.933 140.9 183.205 141.413 183.613C142.767 184.611 143 184.429 143 182.707C143 181.256 143.093 181.12 144.353 181.12C146.64 181.12 147.2 181.528 147.2 183.205C147.2 184.429 147.013 184.747 146.267 184.747C145.473 184.747 145.333 185.064 145.333 186.56C145.333 188.373 145.333 188.373 143.607 188.373C142.627 188.373 141.507 188.147 141.133 187.92V187.92Z" fill="#76727E"/>
<path d="M156.673 186.696C155.227 185.744 155.133 182.933 156.533 182.933C157.14 182.933 157.467 182.616 157.467 182.027C157.467 181.301 157.793 181.12 159.007 181.12C161.527 181.12 161.807 181.573 161.433 184.701L161.107 187.467L159.427 187.421C158.447 187.421 157.233 187.104 156.673 186.696Z" fill="#76727E"/>
<path d="M217.2 181.755C216.313 181.12 215.1 180.395 214.54 180.168C213.653 179.851 213.467 179.442 213.467 177.946C213.467 176.133 213.467 176.133 215.24 176.133C216.22 176.133 217.48 176.45 218.04 176.858C219.02 177.538 219.067 177.493 219.067 175.952C219.067 174.41 219.16 174.32 220.513 174.32C222.287 174.32 224.667 175.906 224.667 177.085C224.667 178.309 223.453 178.173 221.54 176.768C219.767 175.453 219.533 175.861 220.98 177.675C221.54 178.355 222.1 179.805 222.24 180.938L222.473 182.933H220.653C219.487 182.888 218.273 182.48 217.2 181.755ZM220.7 182.026C220.187 181.165 216.22 178.808 215.66 178.989C215.38 179.08 216.267 179.896 217.667 180.802C220.187 182.48 221.26 182.888 220.7 182.026Z" fill="#76727E"/>
<path d="M203.293 181.482C202.967 181.165 202.733 180.258 202.733 179.397C202.733 177.901 202.733 177.901 204.74 178.037C206.7 178.173 206.7 178.173 206.84 180.122C206.98 182.026 206.98 182.026 205.44 182.026C204.553 182.026 203.62 181.8 203.293 181.482V181.482Z" fill="#76727E"/>
<path d="M176.04 175.317C174.967 174.683 174.733 174.229 174.733 172.779V171.011L176.833 171.237C179.587 171.555 180.333 172.235 180.333 174.365C180.333 176.043 180.287 176.133 178.84 176.088C178 176.088 176.74 175.725 176.04 175.317V175.317Z" fill="#76727E"/>
<path d="M197.273 175.363C196.947 175.272 196.667 174.456 196.667 173.595C196.667 172.008 196.667 172.008 198.673 172.144C200.587 172.28 200.633 172.325 200.773 174.003C200.913 175.635 200.867 175.68 199.373 175.635C198.533 175.635 197.553 175.499 197.273 175.363Z" fill="#76727E"/>
<path d="M0.199951 171.6C0.199951 170.285 0.806618 169.787 1.36662 170.693C1.64662 171.147 5.33328 169.515 5.33328 168.88C5.33328 168.699 5.75328 168.427 6.26662 168.291C7.05995 168.109 7.19995 168.291 7.19995 169.605C7.19995 171.056 7.10662 171.147 5.61329 171.147C4.44662 171.147 3.97996 171.373 3.79329 172.053C3.60662 172.733 3.13995 172.96 1.87995 172.96C0.339954 172.96 0.199951 172.869 0.199951 171.6Z" fill="#76727E"/>
<path d="M166.567 172.507C166.007 172.325 165.307 171.827 164.98 171.419C164.42 170.784 164.513 170.693 165.633 170.693C166.753 170.693 166.847 170.603 166.333 170.013C165.867 169.469 165.867 169.152 166.24 168.789C167.08 167.973 166.893 167.52 165.82 167.52C164.98 167.52 165.073 167.339 166.52 166.387C168.293 165.208 169.087 165.072 170.907 165.525C171.7 165.752 171.933 166.16 171.933 167.339C171.933 168.699 171.793 168.88 170.673 168.925C169.413 168.925 169.413 168.971 170.44 169.333C171.233 169.651 171.467 170.104 171.467 171.373C171.467 172.96 171.467 172.96 169.507 172.915C168.387 172.915 167.08 172.733 166.567 172.507Z" fill="#76727E"/>
<path d="M174.593 169.424C173.8 168.608 173.52 167.067 174.127 167.067C174.313 167.067 174.967 167.52 175.62 168.109C176.6 168.925 176.693 168.925 176.087 168.2C174.64 166.432 174.64 165.707 176.04 165.707C177.813 165.707 178.467 166.477 178.467 168.517C178.467 170.149 178.42 170.24 176.927 170.24C175.993 170.24 175.013 169.877 174.593 169.424V169.424Z" fill="#76727E"/>
<path d="M9.53328 167.973C9.53328 167.746 9.85995 167.52 10.2333 167.52C10.6066 167.52 10.9333 167.202 10.9333 166.84C10.9333 166.432 11.4933 166.024 12.3333 165.888C13.2666 165.661 13.7333 165.344 13.7333 164.754C13.7333 163.213 10.5599 162.125 4.63328 161.672C1.03995 161.4 0.619946 161.264 1.59995 160.856C3.46661 160.085 9.76662 160.856 11.4466 162.034C13.0333 163.168 17.9333 163.757 17.9333 162.76C17.9333 162.442 17.2799 161.944 16.5333 161.626C15.4133 161.173 15.2266 160.946 15.6466 160.448C15.9266 160.085 16.9999 159.813 17.9799 159.813H19.7533L19.8933 157.682C20.0333 155.824 20.1733 155.506 21.1066 155.37C22.0866 155.234 22.1333 155.37 22.1333 157.954C22.1333 159.813 21.9466 160.765 21.4799 161.037C21.1066 161.218 20.7333 162.034 20.6399 162.76C20.4999 164.029 20.3133 164.12 18.5399 164.256C16.7666 164.392 16.5333 164.528 16.5333 165.525C16.5333 166.432 16.3 166.613 15.18 166.613C14.1999 166.613 13.6866 166.885 13.4999 167.52C13.2666 168.245 12.7999 168.426 11.3533 168.426C10.3733 168.426 9.53328 168.245 9.53328 167.973V167.973Z" fill="#76727E"/>
<path d="M184.02 166.522C183.46 165.525 183.367 165.525 185.887 166.522C186.587 166.794 185.42 164.8 183.927 163.213C183.133 162.397 183.18 162.306 184.16 161.808C184.72 161.49 185.42 161.354 185.653 161.445C186.633 161.808 188.267 164.8 188.267 166.16C188.267 167.429 188.173 167.52 186.4 167.52C185 167.52 184.44 167.293 184.02 166.522Z" fill="#76727E"/>
<path d="M186.167 160.674C185.98 160.402 186.213 159.904 186.68 159.586C187.52 158.997 187.473 158.906 186.027 158.634C185.14 158.453 184.347 158.045 184.207 157.682C184.067 157.32 183.18 156.549 182.247 155.96L180.567 154.826H181.873C183.6 154.826 183.46 154.192 181.5 153.013C180.613 152.469 179.867 151.925 179.867 151.789C179.867 151.653 180.893 151.653 182.2 151.834L184.487 152.152L183.833 150.565C183.46 149.658 183.133 148.434 183.133 147.8C183.133 146.938 182.573 146.258 181.033 145.216C178.747 143.629 178.42 143.04 179.867 143.04C180.38 143.04 180.8 142.858 180.8 142.586C180.8 142.36 181.22 142.133 181.78 142.133C182.293 142.133 182.62 142.314 182.48 142.541C182.34 142.722 182.76 142.813 183.367 142.677C185.047 142.405 185.14 141.906 183.693 141.226C180.147 139.64 179.4 139.232 179.4 138.869C179.4 138.688 180.193 138.642 181.22 138.778C183.927 139.186 183.927 138.325 181.173 136.693C179.4 135.605 178.933 135.152 179.447 134.88C179.82 134.653 180.613 134.562 181.267 134.698L182.433 134.97L181.267 134.336C180.613 133.973 179.68 133.474 179.167 133.202C174.033 130.709 173.567 130.392 173.707 129.485C173.8 128.941 173.613 128.533 173.38 128.533C172.54 128.533 172.82 127.672 173.847 127.173C174.547 126.765 174.967 126.81 175.573 127.264C176.133 127.717 176.227 127.717 175.947 127.264C175.667 126.81 175.9 126.765 176.787 126.992C178.467 127.4 178.327 126.946 175.9 124.634C173.707 122.549 173.24 121.597 174.64 121.824C176.04 122.05 175.527 120.69 173.987 120.192C172.027 119.512 169.927 117.789 170.3 117.2C170.487 116.928 170.253 116.293 169.833 115.84C169.133 115.069 169.133 114.978 169.927 114.57C170.673 114.162 170.58 113.936 168.993 112.53C168.06 111.624 166.847 110.808 166.38 110.626C165.167 110.264 163.767 108.133 163.907 106.954C164.047 106.138 163.487 105.73 160.92 104.552C158.073 103.237 157.84 103.056 158.633 102.512C159.427 101.968 159.333 101.786 157.14 100.245C154.9 98.6584 153.36 96.3917 153.64 95.0771C153.827 94.2157 152.38 92.7197 151.353 92.7197C150.84 92.7197 150 91.9037 149.3 90.6797C148.6 89.5917 147.433 88.1411 146.687 87.5517C145.94 86.9624 145.007 85.6931 144.54 84.8317C144.073 83.8344 142.86 82.6104 141.507 81.7944C140.293 81.0237 139.267 80.2077 139.267 79.9811C139.267 79.7997 138.1 78.7571 136.653 77.7144C135.207 76.6717 133.9 75.4931 133.807 75.0397C133.573 74.1331 131.333 72.7731 130.027 72.7731C129.56 72.7731 128.347 72.1837 127.367 71.4131C126.387 70.6877 125.36 70.0531 125.033 70.0531C124.753 70.0531 124.1 69.6451 123.633 69.1464C122.933 68.4211 122.933 68.1491 123.4 67.5597C123.913 66.9704 123.773 66.8797 122.653 66.8797C120.273 66.8797 113.46 65.4291 110.66 64.3411C109.167 63.7517 107.533 63.2531 107.067 63.2531C106.6 63.2531 106.133 62.9357 105.947 62.5731C105.807 62.2104 105.293 61.8931 104.827 61.8931C104.313 61.8931 103.287 61.3037 102.493 60.5784C100.767 58.9464 98.5266 58.4477 96.0533 59.1277C95.0266 59.3997 93.44 59.6264 92.4133 59.6264H90.64L91.3866 58.4931C92.0866 57.4504 92.0866 57.3597 91.2933 57.3597C90.8733 57.3597 89.9866 57.6771 89.38 58.0851C88.54 58.6744 88.0733 58.7197 87.1866 58.3117C86.2533 57.9037 85.8333 58.0397 84.5733 59.1277C83.7333 59.8077 81.6333 61.0771 79.9066 61.8931C78.1333 62.7091 76.7333 63.5704 76.7333 63.7517C76.7333 63.9784 76.5466 64.1597 76.3133 64.1597C76.08 64.1597 75.9866 63.7517 76.1266 63.2531C76.4066 62.2104 75.8466 62.0744 74.9133 62.9357C74.4 63.389 74.3066 63.3437 74.5866 62.6637C74.7266 62.2104 74.8666 61.6211 74.8666 61.3944C74.8666 61.1677 75.2866 60.9864 75.8 60.9864C76.92 60.9864 81.3066 58.7651 83.9666 56.9064C85.74 55.6371 86.1133 55.5917 90.4066 55.5464C94.7 55.5464 94.9333 55.5917 94.9333 56.4984C94.9333 57.3144 95.12 57.4051 96.1466 57.1784C96.8 56.9971 99.6466 56.9971 102.447 57.1784L107.533 57.4957V58.9464C107.533 60.3064 107.673 60.4424 109.4 60.7144C110.52 60.8957 111.78 61.5304 112.667 62.3464C113.74 63.3437 114.533 63.7064 115.84 63.7064C116.773 63.7064 118.827 64.0237 120.367 64.3864C121.907 64.7491 123.96 65.0211 124.893 65.0664C126.527 65.0664 126.62 65.1571 126.76 66.7437C126.9 68.2397 127.087 68.5117 128.44 68.8744C129.233 69.1011 129.933 69.5544 129.933 69.8264C129.933 70.4611 130.96 70.9597 132.313 70.9597C133.853 70.9597 136.653 72.5917 137.493 73.9971C138.707 76.0371 142.58 79.7544 144.167 80.389C144.96 80.7064 146.033 81.749 146.687 82.8824C148.507 85.965 151.073 88.5944 152.24 88.6397C152.94 88.6397 153.267 88.9117 153.267 89.5917C153.267 90.0904 154.013 91.1784 154.9 91.9944C156.113 93.1277 156.533 93.8984 156.533 94.9411C156.533 96.6184 158.12 98.4317 160.267 99.1571C161.433 99.5197 161.667 99.8371 161.667 101.106C161.667 102.376 161.9 102.648 163.207 103.146C165.773 104.053 166.1 104.325 166.24 105.64C166.333 106.41 166.753 106.954 167.313 107.09C167.78 107.226 168.2 107.589 168.2 107.952C168.2 108.269 168.76 108.949 169.46 109.357C172.167 111.08 172.867 112.122 172.867 114.48C172.867 116.384 173.053 116.792 174.173 117.562C174.873 118.061 175.9 118.605 176.507 118.741C177.207 118.968 177.533 119.421 177.533 120.192C177.533 120.872 177.813 121.28 178.233 121.28C178.7 121.28 178.933 121.733 178.933 122.549C178.933 123.274 179.26 124.226 179.633 124.725C180.007 125.178 180.333 126.266 180.333 127.128V128.624L178.233 128.442C175.62 128.261 175.433 129.077 177.907 129.848C181.173 130.89 184.767 133.248 184.907 134.472C185 135.061 185.28 135.741 185.513 135.968C185.747 136.24 185.933 137.192 185.933 138.098C185.933 139.05 186.167 139.957 186.4 140.093C186.68 140.229 186.867 141.09 186.867 141.997C186.867 143.584 186.867 143.584 185 143.402L183.18 143.266L184.393 144.49C185.467 145.578 185.56 145.986 185.327 147.8C185.14 149.024 185.187 149.84 185.467 149.84C185.747 149.84 185.933 150.565 185.933 151.426C185.933 152.288 185.747 153.013 185.467 153.013C184.207 153.013 185.28 154.418 187.8 156.141C190.32 157.864 190.6 158.226 190.6 159.632C190.6 161.173 190.6 161.173 188.547 161.173C187.38 161.173 186.307 160.946 186.167 160.674V160.674Z" fill="#76727E"/>
<path d="M52.3266 150.701C53.2599 148.888 52.9333 145.352 51.5333 142.178C50.1799 139.186 46.7733 136.149 43.2266 134.834C39.5399 133.474 32.0733 133.429 27.7333 134.834C23.7666 136.058 22.2266 136.013 19.9866 134.608C14.1066 130.89 12.9399 121.098 17.2799 112.44C18.7733 109.493 21.5266 106.592 23.4866 105.957C24.8399 105.504 24.9333 105.549 24.9333 106.592C24.9333 107.181 24.7466 107.68 24.4666 107.68C23.5799 107.68 20.2666 111.533 18.9133 114.208C16.4866 119.013 15.9733 123.093 17.2333 126.765C18.0733 129.122 20.2666 131.888 22.2266 133.066C23.5333 133.837 23.7199 133.837 26.4733 132.93C28.8533 132.205 30.6266 132.024 36.1333 131.978H42.8999L46.3066 133.701C49.9466 135.605 51.8599 137.554 53.4933 141.045C54.5666 143.448 55.0799 147.936 54.6133 150.474C54.3333 151.88 54.0999 152.106 52.9333 152.106H51.6266L52.3266 150.701V150.701Z" fill="#76727E"/>
<path d="M72.0667 147.482C72.0667 146.666 72.4867 145.488 72.9533 144.898C73.84 143.81 73.84 143.81 75.1 144.581L76.36 145.397L75.1466 146.621C74.4933 147.301 73.9333 148.072 73.9333 148.389C73.9333 148.706 73.5133 148.933 73 148.933C72.2533 148.933 72.0667 148.616 72.0667 147.482Z" fill="#76727E"/>
<path d="M218.04 147.437C215.94 146.576 215.8 146.395 215.8 144.763C215.8 143.221 215.893 143.04 217.013 143.04C218.32 143.04 223.547 144.717 224.573 145.443C224.853 145.669 225.133 146.395 225.133 146.984C225.133 147.891 224.947 148.072 224.34 147.8C223.873 147.619 222.987 147.301 222.333 147.12C221.68 146.939 220.327 146.395 219.3 145.987L217.433 145.216L219.02 146.848C219.907 147.755 220.56 148.48 220.42 148.435C220.327 148.389 219.253 147.981 218.04 147.437V147.437Z" fill="#76727E"/>
<path d="M66 135.786C66 134.154 66.14 133.973 67.1667 133.973C68.0067 133.973 68.3333 134.2 68.3333 134.834C68.3333 135.333 68.1 135.877 67.7733 136.058C67.4467 136.285 67.54 136.557 68.1 137.01C68.8933 137.554 68.8467 137.6 67.4933 137.6C66.0467 137.6 66 137.509 66 135.786Z" fill="#76727E"/>
<path d="M89.8466 136.92C81.26 134.563 77.5733 129.032 79.0666 120.781C79.6733 117.563 82.24 111.941 83.6867 110.672C84.6667 109.811 84.6666 109.811 84.6666 111.443C84.6666 112.304 84.3866 113.165 84.1066 113.256C83.7333 113.392 83.78 113.528 84.2933 113.528C84.76 113.573 85.1333 113.165 85.2267 112.576C85.46 111.035 88.0733 109.947 91.5733 109.947C96.0533 109.947 99.1333 111.715 99.1333 114.344C99.1333 115.341 99.3666 115.84 99.8333 115.84C100.813 115.84 101.467 117.336 101.467 119.648C101.467 122.413 100.207 122.595 99.7867 119.875C99.5533 118.696 99.0867 117.789 98.3867 117.381C97.7333 116.928 97.2666 116.112 97.1733 115.251C97.08 114.208 96.6133 113.528 95.4466 112.803C92.04 110.581 86.9533 112.032 84.3867 116.067C83.64 117.2 82.8 118.016 82.52 117.925C82.0067 117.744 81.3533 119.376 80.7 122.504C79.8133 126.811 83.78 132.477 89.1 134.427C93.3466 136.013 101.373 136.24 106.647 134.925C113.787 133.157 121.627 128.805 122.98 125.813C123.68 124.363 125.267 123.909 125.267 125.179C125.267 128.669 119.34 133.021 110.707 135.877C106.74 137.192 105.807 137.328 99.3666 137.464C94.14 137.555 91.7133 137.419 89.8466 136.92V136.92Z" fill="#76727E"/>
<path d="M213.467 134.2C213.467 132.659 213.513 132.613 215.333 132.613C216.967 132.613 217.2 132.749 217.2 133.701C217.2 134.608 217.013 134.744 215.94 134.517C214.68 134.336 214.68 134.336 215.567 135.061C216.453 135.741 216.453 135.741 215.007 135.787C213.56 135.787 213.467 135.696 213.467 134.2Z" fill="#76727E"/>
<path d="M39.6333 127.309C40.8933 124.408 41.3133 122.232 41.0333 120.056C40.7999 118.061 40.5199 117.563 39.4933 117.064C38.6066 116.656 38.2333 116.157 38.2333 115.296C38.2333 113.8 36.9266 112.395 34.8733 111.715C32.8199 111.08 30.8133 111.443 28.5733 112.893L26.7999 114.027V112.667C26.7999 111.443 27.0799 111.125 28.8066 110.4C33.7999 108.179 40.7999 110.491 40.7999 114.344C40.7999 115.523 40.9866 115.84 41.7333 115.84C42.8999 115.84 43.3199 117.971 43.0399 122.323C42.7133 126.403 41.9666 128.08 40.4266 128.08C39.5399 128.08 39.3533 127.899 39.6333 127.309V127.309Z" fill="#76727E"/>
<path d="M99.1333 127.626C99.1333 125.949 100.253 122.64 100.813 122.64C101.513 122.64 101.7 125.088 101.187 127.082C100.907 128.034 99.1333 128.578 99.1333 127.626Z" fill="#76727E"/>
<path d="M44.8133 124.634C44.6733 124.226 44.5333 123.184 44.5333 122.277L44.58 120.6L45.2333 121.733C45.84 122.821 45.8867 122.821 46.1667 121.96C46.68 120.328 47.1933 119.693 47.9867 119.557C48.5467 119.421 48.7333 119.738 48.7333 120.962C48.7333 121.824 48.5933 123.184 48.4533 123.954C48.1733 125.178 47.94 125.36 46.6333 125.36C45.6533 125.36 45 125.088 44.8133 124.634V124.634Z" fill="#76727E"/>
<path d="M206 118.786C206 117.29 206.093 117.2 207.633 117.2C209.173 117.2 209.267 117.29 209.267 118.786C209.267 120.282 209.173 120.373 207.633 120.373C206.093 120.373 206 120.282 206 118.786Z" fill="#76727E"/>
<path d="M189.993 95.5761C189.48 95.1227 189.62 92.3574 190.18 92.0401C190.46 91.8587 191.907 91.6321 193.447 91.4961C195.78 91.2694 196.2 91.3601 196.2 91.9494C196.2 92.3574 195.313 93.0374 194.1 93.5814C191.72 94.6241 191.58 94.8507 193.073 95.4401C193.96 95.7574 193.82 95.8481 192.187 95.8481C191.16 95.8934 190.133 95.7574 189.993 95.5761V95.5761Z" fill="#76727E"/>
<path d="M43.0399 75.9464C42.5732 75.6744 42.1533 74.6317 41.9666 73.3171C41.5933 70.8691 41.0799 70.0077 38.2799 66.9251C37.1599 65.7011 36.0866 64.2504 35.8999 63.7064C35.4799 62.4371 32.2133 60.8957 29.5999 60.7597C26.3799 60.5784 26.3333 60.5784 26.3333 59.8984C26.3333 58.9917 27.4066 58.7197 30.6266 58.7197C32.9133 58.7197 33.7066 58.9464 35.3399 60.0344C36.4132 60.7597 37.7666 61.8477 38.3732 62.4371C40.1932 64.2957 44.0666 70.3251 44.9999 72.8184C45.8866 75.1304 45.8866 75.3117 45.1399 75.8557C44.2066 76.4904 44.0666 76.4904 43.0399 75.9464V75.9464Z" fill="#76727E"/>
<path d="M61.3333 75.4931C61.3333 74.8584 61.6599 74.5864 62.3599 74.5864C63.2933 74.5864 63.3399 74.6318 62.4999 75.4931C62.0333 75.9918 61.5666 76.3998 61.4732 76.3998C61.4266 76.3998 61.3333 75.9918 61.3333 75.4931Z" fill="#76727E"/>
<path d="M168.807 76.0828C167.92 75.9014 167.733 75.5841 167.733 74.3148V72.7734H170.02C173.287 72.7734 173.8 73.0454 173.8 74.8588C173.8 76.4001 173.753 76.4001 171.84 76.3548C170.72 76.3094 169.367 76.1734 168.807 76.0828V76.0828ZM173.1 75.5388C172.82 75.3574 172.027 75.0401 171.233 74.8588L169.833 74.5868L171 75.2668C172.26 75.9921 173.8 76.2188 173.1 75.5388Z" fill="#76727E"/>
<path d="M154.107 67.469C153.5 67.333 153.267 66.789 153.267 65.701V64.1597H157.14C159.24 64.1597 161.76 64.2957 162.74 64.4317C165.773 64.9303 164.513 66.4263 161.013 66.4263C159.007 66.4263 159.94 67.0157 162.507 67.3783C164.093 67.5597 163.3 67.6503 159.8 67.6957C157.093 67.6957 154.527 67.605 154.107 67.469V67.469ZM158.353 66.6983C158.26 66.6077 157.327 66.4263 156.3 66.2903C154.993 66.0637 154.713 66.109 155.367 66.4263C156.253 66.789 158.773 67.061 158.353 66.6983V66.6983Z" fill="#76727E"/>
<path d="M43.5999 19.6426C43.5999 19.3252 42.8533 17.7386 41.9666 16.1066C41.0799 14.4746 39.9599 12.4346 39.5399 11.5732C38.5599 9.66923 35.4333 6.81324 33.6599 6.17857C32.7733 5.8159 32.3999 5.36257 32.3999 4.54657C32.3999 3.5039 32.2133 3.41323 30.5333 3.5039C28.8533 3.54923 27.2666 2.86923 27.2666 2.05323C27.2666 1.64523 29.2733 1.1919 32.4466 0.829234C35.2933 0.557234 37.5333 1.5999 37.5333 3.18657C37.5333 3.9119 38.2333 4.9999 39.5866 6.2239C41.3133 7.8559 41.9199 8.9439 43.3199 12.8879C45.1399 17.9652 45.4199 20.1866 44.2999 20.1866C43.9266 20.1866 43.5999 19.9146 43.5999 19.6426V19.6426Z" fill="#76727E"/>
</svg>
