<svg width="102" height="84" viewBox="0 0 102 84" fill="none" xmlns="http://www.w3.org/2000/svg">
<path d="M49.58 83.6634C49.25 83.5922 49.38 83.3697 49.75 83.3697C50.03 83.3697 50.1 83.4053 50.1 83.5477C50.1 83.7257 49.96 83.7524 49.58 83.6634Z" fill="#BDBDBD"/>
<path d="M48.58 83.5744C48.25 83.5032 48.38 83.2807 48.75 83.2807C49.03 83.2807 49.1 83.3163 49.1 83.4587C49.1 83.6367 48.96 83.6634 48.58 83.5744Z" fill="#BDBDBD"/>
<path d="M53.6 83.3875C53.6 83.254 53.69 83.2006 53.98 83.1561C54.57 83.076 54.8 83.0938 54.8 83.2273C54.8 83.3697 54.67 83.4142 54.03 83.5032C53.65 83.5566 53.6 83.5477 53.6 83.3875Z" fill="#BDBDBD"/>
<path d="M46.98 83.3074C46.65 83.2362 46.78 83.0138 47.15 83.0138C47.43 83.0138 47.5 83.0494 47.5 83.1917C47.5 83.3697 47.36 83.3964 46.98 83.3074Z" fill="#BDBDBD"/>
<path d="M45.23 82.8002C44.62 82.5866 44.53 82.3908 45.05 82.3908C45.24 82.3908 45.4 82.4353 45.4 82.4798C45.4 82.5332 45.51 82.5688 45.65 82.5688C45.85 82.5688 45.9 82.6133 45.9 82.7913C45.9 83.0494 45.91 83.0494 45.23 82.8002Z" fill="#BDBDBD"/>
<path d="M49.5 82.2128C49.5 82.0259 49.6 81.9992 49.98 82.0882C50.34 82.1772 50.25 82.3908 49.85 82.3908C49.57 82.3908 49.5 82.3552 49.5 82.2128Z" fill="#BDBDBD"/>
<path d="M48.1 81.7323C48.1 81.5276 48.12 81.5187 48.45 81.6166C48.64 81.67 48.8 81.759 48.8 81.8302C48.8 81.9014 48.67 81.9459 48.45 81.9459C48.15 81.9459 48.1 81.9192 48.1 81.7323Z" fill="#BDBDBD"/>
<path d="M49.48 81.225C49.19 81.0827 49.27 80.967 49.65 80.967C49.93 80.967 50 81.0026 50 81.1449C50 81.3407 49.76 81.3763 49.48 81.225Z" fill="#BDBDBD"/>
<path d="M42.1 80.967C41.75 80.7089 41.75 80.7089 42.13 80.7C42.48 80.7 42.5 80.7178 42.5 80.967C42.5 81.1183 42.49 81.2339 42.47 81.2339C42.46 81.2339 42.29 81.1183 42.1 80.967Z" fill="#BDBDBD"/>
<path d="M59.7 80.9314C59.7 80.611 59.91 80.433 60.29 80.433C60.59 80.433 60.59 80.433 60.32 80.6822C60.17 80.8157 59.97 80.9848 59.88 81.0471C59.72 81.1539 59.7 81.145 59.7 80.9314Z" fill="#BDBDBD"/>
<path d="M48.43 80.8335C48 80.6733 48.01 80.522 48.45 80.522C48.76 80.522 48.8 80.5487 48.8 80.7445C48.8 80.8691 48.79 80.967 48.78 80.967C48.76 80.9581 48.6 80.9047 48.43 80.8335Z" fill="#BDBDBD"/>
<path d="M55.4 80.0326C55.4 79.8457 55.45 79.8101 55.7 79.8101C55.93 79.8101 56 79.7745 56 79.6321C56 79.4897 56.07 79.4541 56.35 79.4541C56.8 79.4541 56.73 79.5965 56.08 79.9703C55.48 80.3173 55.4 80.3173 55.4 80.0326Z" fill="#BDBDBD"/>
<path d="M46.63 79.9614C46.16 79.6766 46.14 79.5431 46.55 79.5431C46.74 79.5431 46.9 79.5876 46.9 79.6321C46.9 79.6855 46.97 79.7211 47.05 79.7211C47.14 79.7211 47.2 79.8012 47.2 79.9436C47.2 80.2105 47.05 80.2194 46.63 79.9614Z" fill="#BDBDBD"/>
<path d="M58.5 79.0092C58.5 78.9647 58.54 78.9202 58.58 78.9202C58.63 78.9202 58.72 78.8223 58.78 78.6977C58.94 78.3773 59.1 78.4218 59.1 78.7867C59.1 79.0715 59.08 79.0982 58.8 79.0982C58.64 79.0982 58.5 79.0626 58.5 79.0092Z" fill="#BDBDBD"/>
<path d="M39.87 78.3061C39.65 77.968 39.65 77.9413 39.95 77.9413C40.17 77.9413 40.2 77.9769 40.2 78.2528C40.2 78.6354 40.1 78.6443 39.87 78.3061Z" fill="#BDBDBD"/>
<path d="M43.2 77.9858C43.2 77.6565 43.43 77.5408 43.53 77.8345C43.55 77.9146 43.61 78.057 43.65 78.146C43.71 78.2706 43.67 78.2973 43.46 78.2973C43.23 78.2973 43.2 78.2617 43.2 77.9858Z" fill="#BDBDBD"/>
<path d="M59.21 77.9235C59.26 77.7633 59.3 77.6209 59.3 77.612C59.3 77.5942 59.37 77.5853 59.45 77.5853C59.55 77.5853 59.6 77.6832 59.6 77.8968C59.6 78.1638 59.57 78.2083 59.36 78.2083C59.13 78.2083 59.12 78.1905 59.21 77.9235Z" fill="#BDBDBD"/>
<path d="M62.1 77.8968C62.1 77.6209 62.13 77.5853 62.35 77.5853C62.65 77.5853 62.65 77.612 62.43 77.9502C62.2 78.2884 62.1 78.2795 62.1 77.8968Z" fill="#BDBDBD"/>
<path d="M44.2 77.3005C44.2 77.0336 44.33 76.7844 44.46 76.7844C44.55 76.7844 44.6 76.8912 44.6 77.0959C44.6 77.345 44.56 77.4073 44.4 77.4073C44.29 77.4073 44.2 77.3539 44.2 77.3005Z" fill="#BDBDBD"/>
<path d="M43.13 76.7755C43.2 76.2416 43.22 76.2238 43.48 76.2683C43.66 76.295 43.66 76.3128 43.52 76.7666C43.43 77.0603 43.32 77.2294 43.22 77.2294C43.1 77.2294 43.08 77.1404 43.13 76.7755Z" fill="#BDBDBD"/>
<path d="M62.6 76.9268C62.6 76.642 62.63 76.6064 62.85 76.6064C63.09 76.6064 63.1 76.6153 62.97 76.8912C62.78 77.3006 62.6 77.3184 62.6 76.9268Z" fill="#BDBDBD"/>
<path d="M38.85 76.3395C38.65 76.0013 38.66 75.9835 38.95 75.9835C39.17 75.9835 39.2 76.0191 39.2 76.295C39.2 76.6776 39.06 76.6954 38.85 76.3395Z" fill="#BDBDBD"/>
<path d="M44.7 76.2237C44.7 76.1615 44.94 76.0458 45.23 75.9568C45.51 75.8767 45.97 75.7521 46.23 75.672C46.87 75.494 47.1 75.5029 47.1 75.7076C47.1 75.8767 46.76 75.9835 46.24 75.9835C46.11 75.9835 46 76.0191 46 76.0547C46 76.1526 45.31 76.3394 44.96 76.3394C44.81 76.3394 44.7 76.286 44.7 76.2237Z" fill="#BDBDBD"/>
<path d="M38.56 75.6097C38.46 75.2716 38.49 75.1826 38.7 75.1826C38.86 75.1826 38.9 75.2449 38.9 75.494C38.9 75.85 38.66 75.9301 38.56 75.6097Z" fill="#BDBDBD"/>
<path d="M52.3 75.2716C52.3 75.0847 52.4 75.058 52.78 75.147C53.14 75.236 53.05 75.4495 52.65 75.4495C52.37 75.4495 52.3 75.4139 52.3 75.2716Z" fill="#BDBDBD"/>
<path d="M45.5 74.9156C45.5 74.7732 45.57 74.7376 45.85 74.7376C46.25 74.7376 46.34 74.9512 45.98 75.0402C45.6 75.1292 45.5 75.1025 45.5 74.9156Z" fill="#BDBDBD"/>
<path d="M55.93 74.8533C55.65 74.7554 55.8 74.5596 56.15 74.5596C56.43 74.5596 56.5 74.5952 56.5 74.7376C56.5 74.9156 56.24 74.969 55.93 74.8533Z" fill="#BDBDBD"/>
<path d="M47.2 74.5596C47.2 74.4172 47.27 74.3816 47.55 74.3816C47.95 74.3816 48.04 74.5952 47.68 74.6842C47.3 74.7732 47.2 74.7465 47.2 74.5596Z" fill="#BDBDBD"/>
<path d="M54.59 74.613C54.56 74.5863 54.35 74.5596 54.11 74.5507C53.72 74.524 53.48 74.3727 53.63 74.2393C53.66 74.2126 53.98 74.2126 54.34 74.2482C54.89 74.3016 55 74.3371 55 74.4795C55 74.6308 54.71 74.7198 54.59 74.613Z" fill="#BDBDBD"/>
<path d="M63.9 71.9344C63.9 71.6852 63.94 71.6229 64.1 71.6229C64.31 71.6229 64.34 71.7119 64.24 72.0501C64.14 72.3705 63.9 72.2904 63.9 71.9344Z" fill="#BDBDBD"/>
<path d="M63.9 70.3326C63.9 69.9766 64.14 69.8965 64.24 70.2258C64.34 70.555 64.31 70.644 64.1 70.644C63.94 70.644 63.9 70.5817 63.9 70.3326Z" fill="#BDBDBD"/>
<path d="M38 68.8464C38 68.5795 38.13 68.3303 38.26 68.3303C38.35 68.3303 38.4 68.4371 38.4 68.6417C38.4 68.8909 38.36 68.9532 38.2 68.9532C38.09 68.9532 38 68.8998 38 68.8464Z" fill="#BDBDBD"/>
<path d="M38.2 67.0043C38.2 66.9598 38.07 66.8975 37.9 66.8619C37.47 66.7818 37.51 66.5505 37.95 66.5505C38.27 66.5505 38.3 66.5683 38.3 66.8174C38.3 66.9687 38.28 67.0844 38.25 67.0844C38.22 67.0844 38.2 67.0488 38.2 67.0043Z" fill="#BDBDBD"/>
<path d="M65.2 66.5505C65.2 66.4081 65.27 66.3725 65.55 66.3725C65.95 66.3725 66.04 66.5861 65.68 66.6751C65.3 66.764 65.2 66.7373 65.2 66.5505Z" fill="#BDBDBD"/>
<path d="M35.78 66.5772C35.45 66.506 35.58 66.2835 35.95 66.2835C36.23 66.2835 36.3 66.3191 36.3 66.4615C36.3 66.6395 36.16 66.6662 35.78 66.5772Z" fill="#BDBDBD"/>
<path d="M33 66.239C32.92 66.2212 32.68 66.1856 32.48 66.15C32.24 66.1144 32.1 66.0521 32.1 65.972C32.1 65.8207 32.21 65.8118 32.98 65.8919C33.4 65.9453 33.5 65.9809 33.5 66.1144C33.5 66.2746 33.38 66.3013 33 66.239Z" fill="#BDBDBD"/>
<path d="M70 65.9275C70 65.7851 70.07 65.7495 70.35 65.7495C70.75 65.7495 70.84 65.9631 70.48 66.0521C70.1 66.1411 70 66.1144 70 65.9275Z" fill="#BDBDBD"/>
<path d="M30.98 65.9542C30.65 65.883 30.78 65.6606 31.15 65.6606C31.43 65.6606 31.5 65.6961 31.5 65.8385C31.5 66.0165 31.36 66.0432 30.98 65.9542Z" fill="#BDBDBD"/>
<path d="M71.9 65.6606C71.9 65.5182 71.97 65.4826 72.25 65.4826C72.65 65.4826 72.74 65.6962 72.38 65.7851C72 65.8741 71.9 65.8474 71.9 65.6606Z" fill="#BDBDBD"/>
<path d="M28.48 65.5983C28.15 65.5271 28.28 65.3046 28.65 65.3046C28.93 65.3046 29 65.3402 29 65.4826C29 65.6606 28.86 65.6873 28.48 65.5983Z" fill="#BDBDBD"/>
<path d="M74.5 65.3224C74.5 65.1889 74.59 65.1355 74.96 65.091C75.65 65.0109 75.8 65.0198 75.8 65.1622C75.8 65.2868 75.69 65.3224 74.88 65.447C74.55 65.4915 74.5 65.4826 74.5 65.3224Z" fill="#BDBDBD"/>
<path d="M26.58 65.3313C26.25 65.2601 26.38 65.0376 26.75 65.0376C27.03 65.0376 27.1 65.0732 27.1 65.2156C27.1 65.3936 26.96 65.4203 26.58 65.3313Z" fill="#BDBDBD"/>
<path d="M78.1 64.7706C78.1 64.6283 78.17 64.5927 78.45 64.5927C78.85 64.5927 78.94 64.8062 78.58 64.8952C78.2 64.9842 78.1 64.9575 78.1 64.7706Z" fill="#BDBDBD"/>
<path d="M83.9 63.8807C83.9 63.7383 83.97 63.7028 84.25 63.7028C84.65 63.7028 84.74 63.9163 84.38 64.0053C84 64.0943 83.9 64.0676 83.9 63.8807Z" fill="#BDBDBD"/>
<path d="M16.15 63.7472C16.1 63.7295 15.88 63.6939 15.68 63.6583C15.44 63.6227 15.3 63.5604 15.3 63.4803C15.3 63.329 15.45 63.3201 16.14 63.4002C16.5 63.4447 16.6 63.4981 16.6 63.6227C16.6 63.7828 16.42 63.8273 16.15 63.7472Z" fill="#BDBDBD"/>
<path d="M87.3 63.3468C87.3 63.2044 87.37 63.1688 87.65 63.1688C88.05 63.1688 88.14 63.3824 87.78 63.4714C87.4 63.5604 87.3 63.5337 87.3 63.3468Z" fill="#BDBDBD"/>
<path d="M13.78 63.3735C13.45 63.3023 13.58 63.0798 13.95 63.0798C14.23 63.0798 14.3 63.1154 14.3 63.2578C14.3 63.4358 14.16 63.4625 13.78 63.3735Z" fill="#BDBDBD"/>
<path d="M12.68 63.1955C12.35 63.1243 12.48 62.9018 12.85 62.9018C13.13 62.9018 13.2 62.9374 13.2 63.0798C13.2 63.2578 13.06 63.2845 12.68 63.1955Z" fill="#BDBDBD"/>
<path d="M90.1 62.9018C90.1 62.7594 90.17 62.7238 90.45 62.7238C90.85 62.7238 90.94 62.9374 90.58 63.0264C90.2 63.1154 90.1 63.0887 90.1 62.9018Z" fill="#BDBDBD"/>
<path d="M92.3 62.5459C92.3 62.4035 92.37 62.3679 92.65 62.3679C93.05 62.3679 93.14 62.5815 92.78 62.6705C92.4 62.7595 92.3 62.7328 92.3 62.5459Z" fill="#BDBDBD"/>
<path d="M93.9 62.2789C93.9 62.1365 93.97 62.1009 94.25 62.1009C94.65 62.1009 94.74 62.3145 94.38 62.4035C94 62.4925 93.9 62.4658 93.9 62.2789Z" fill="#BDBDBD"/>
<path d="M6.68 62.2166C6.35 62.1454 6.48 61.9229 6.85 61.9229C7.13 61.9229 7.2 61.9585 7.2 62.1009C7.2 62.2789 7.06 62.3056 6.68 62.2166Z" fill="#BDBDBD"/>
<path d="M95 62.1009C95 61.9585 95.07 61.9229 95.35 61.9229C95.75 61.9229 95.84 62.1365 95.48 62.2255C95.1 62.3145 95 62.2878 95 62.1009Z" fill="#BDBDBD"/>
<path d="M97.1 61.7628C97.1 61.6293 97.19 61.5759 97.48 61.5314C98.06 61.4513 98.3 61.4691 98.3 61.6026C98.3 61.7539 98.17 61.7983 97.56 61.8784C97.14 61.9407 97.1 61.9229 97.1 61.7628Z" fill="#BDBDBD"/>
<path d="M0.970002 61.122C1 61.0241 1.11 60.944 1.21 60.944C1.33 60.944 1.4 61.0063 1.4 61.122C1.4 61.2466 1.33 61.3 1.16 61.3C0.970003 61.3 0.930002 61.2644 0.970002 61.122Z" fill="#BDBDBD"/>
<path d="M100.7 61.122C100.7 61.0063 100.77 60.944 100.9 60.944C101.03 60.944 101.1 61.0063 101.1 61.122C101.1 61.2377 101.03 61.3 100.9 61.3C100.77 61.3 100.7 61.2377 100.7 61.122Z" fill="#BDBDBD"/>
<path d="M100.7 60.1876C100.7 59.9473 100.74 59.8761 100.88 59.8761C101 59.8761 101.06 59.9562 101.07 60.1876C101.1 60.4457 101.07 60.4991 100.9 60.4991C100.74 60.4991 100.7 60.4368 100.7 60.1876Z" fill="#BDBDBD"/>
<path d="M1 59.8583C1 59.5914 1.13 59.3422 1.26 59.3422C1.35 59.3422 1.4 59.449 1.4 59.6537C1.4 59.9028 1.36 59.9651 1.2 59.9651C1.09 59.9651 1 59.9117 1 59.8583Z" fill="#BDBDBD"/>
<path d="M36.9 59.0485C36.9 58.9773 37.06 58.8883 37.25 58.8349C37.58 58.7371 37.6 58.746 37.6 58.9506C37.6 59.1375 37.55 59.1642 37.25 59.1642C37.03 59.1642 36.9 59.1197 36.9 59.0485Z" fill="#BDBDBD"/>
<path d="M76 59.0307C76 58.9595 76.01 58.8972 76.03 58.8972C76.04 58.8972 76.43 58.8349 76.9 58.7638C77.95 58.5947 77.9 58.5947 77.9 58.7905C77.9 58.9239 77.77 58.9773 77.13 59.0574C76.13 59.1998 76 59.1909 76 59.0307Z" fill="#BDBDBD"/>
<path d="M1.1 58.7282C1.1 58.5769 1.34 58.2743 1.46 58.2743C1.48 58.2743 1.5 58.4167 1.5 58.5858C1.5 58.835 1.46 58.8973 1.3 58.8973C1.17 58.8973 1.1 58.835 1.1 58.7282Z" fill="#BDBDBD"/>
<path d="M21.9 58.3633C21.9 58.1764 22 58.1497 22.38 58.2387C22.74 58.3277 22.65 58.5413 22.25 58.5413C21.97 58.5413 21.9 58.5057 21.9 58.3633Z" fill="#BDBDBD"/>
<path d="M29.15 58.4612C28.99 58.3188 29.14 58.1853 29.45 58.1853C29.73 58.1853 29.8 58.2209 29.8 58.3633C29.8 58.5057 29.74 58.5413 29.5 58.5235C29.33 58.5146 29.17 58.4879 29.15 58.4612Z" fill="#BDBDBD"/>
<path d="M67.2 58.4968C67.12 58.479 66.88 58.4434 66.68 58.4078C66.44 58.3722 66.3 58.3099 66.3 58.2298C66.3 58.0785 66.41 58.0696 67.18 58.1497C67.6 58.2031 67.7 58.2387 67.7 58.3722C67.7 58.5324 67.58 58.5591 67.2 58.4968Z" fill="#BDBDBD"/>
<path d="M72.7 58.3633C72.7 58.2209 72.77 58.1853 73.05 58.1853C73.45 58.1853 73.54 58.3989 73.18 58.4879C72.8 58.5769 72.7 58.5502 72.7 58.3633Z" fill="#BDBDBD"/>
<path d="M35.4 58.2832C35.4 58.123 35.79 58.0073 36.38 58.0073C36.82 58.0073 36.61 58.2565 36.1 58.3544C35.43 58.479 35.4 58.479 35.4 58.2832Z" fill="#BDBDBD"/>
<path d="M80.8 58.2387C80.8 58.123 81.08 58.0073 81.38 58.0073C81.44 58.0073 81.5 58.0874 81.5 58.1853C81.5 58.3277 81.43 58.3633 81.15 58.3633C80.92 58.3633 80.8 58.3188 80.8 58.2387Z" fill="#BDBDBD"/>
<path d="M99.9 58.1319C99.9 57.945 99.93 57.9094 100.08 57.9628C100.17 57.9984 100.33 58.0518 100.43 58.0696C100.75 58.1586 100.62 58.3633 100.25 58.3633C99.94 58.3633 99.9 58.3366 99.9 58.1319Z" fill="#BDBDBD"/>
<path d="M65.01 58.0696C64.19 57.8205 64.05 57.6069 64.76 57.6781C65.03 57.7048 65.26 57.7671 65.28 57.8205C65.3 57.8739 65.47 57.9183 65.66 57.9183C65.93 57.9183 66 57.9539 66 58.0963C66 58.3188 65.83 58.3188 65.01 58.0696Z" fill="#BDBDBD"/>
<path d="M26.15 58.1408C26.1 58.123 25.88 58.0874 25.68 58.0518C25.44 58.0162 25.3 57.9539 25.3 57.8739C25.3 57.7226 25.45 57.7137 26.14 57.7938C26.5 57.8383 26.6 57.8916 26.6 58.0162C26.6 58.1764 26.42 58.2209 26.15 58.1408Z" fill="#BDBDBD"/>
<path d="M81.9 58.0607C81.9 57.9362 82.01 57.9006 82.83 57.776C83.15 57.7315 83.2 57.7404 83.2 57.9006C83.2 58.034 83.11 58.0874 82.74 58.1319C82.05 58.212 81.9 58.2031 81.9 58.0607Z" fill="#BDBDBD"/>
<path d="M19.1 57.9183C19.1 57.7315 19.2 57.7048 19.58 57.7938C19.94 57.8827 19.85 58.0963 19.45 58.0963C19.17 58.0963 19.1 58.0607 19.1 57.9183Z" fill="#BDBDBD"/>
<path d="M3 57.8827C3 57.7671 3.28 57.6514 3.58 57.6514C3.64 57.6514 3.7 57.7315 3.7 57.8293C3.7 57.9717 3.63 58.0073 3.35 58.0073C3.12 58.0073 3 57.9628 3 57.8827Z" fill="#BDBDBD"/>
<path d="M98.53 57.945C98.37 57.9183 98.3 57.8472 98.3 57.6959C98.3 57.5624 98.35 57.4912 98.43 57.5179C98.49 57.5357 98.74 57.598 98.98 57.6514C99.5 57.7671 99.57 58.0162 99.08 57.9984C98.9 57.9895 98.65 57.9628 98.53 57.945Z" fill="#BDBDBD"/>
<path d="M17.2 57.6514C17.2 57.4645 17.3 57.4378 17.68 57.5268C18.04 57.6158 17.95 57.8294 17.55 57.8294C17.27 57.8294 17.2 57.7938 17.2 57.6514Z" fill="#BDBDBD"/>
<path d="M23.78 57.7671C23.45 57.6959 23.58 57.4734 23.95 57.4734C24.23 57.4734 24.3 57.509 24.3 57.6514C24.3 57.8294 24.16 57.856 23.78 57.7671Z" fill="#BDBDBD"/>
<path d="M4.3 57.6158C4.3 57.5001 4.58 57.3844 4.88 57.3844C4.94 57.3844 5 57.4645 5 57.5624C5 57.7048 4.93 57.7404 4.65 57.7404C4.42 57.7404 4.3 57.6959 4.3 57.6158Z" fill="#BDBDBD"/>
<path d="M15.7 57.4734C15.7 57.2865 15.8 57.2598 16.18 57.3488C16.54 57.4378 16.45 57.6514 16.05 57.6514C15.77 57.6514 15.7 57.6158 15.7 57.4734Z" fill="#BDBDBD"/>
<path d="M96.9 57.4734C96.9 57.2865 97 57.2598 97.38 57.3488C97.74 57.4378 97.65 57.6514 97.25 57.6514C96.97 57.6514 96.9 57.6158 96.9 57.4734Z" fill="#BDBDBD"/>
<path d="M6.3 57.3221C6.3 57.2064 6.39 57.153 6.65 57.1441C6.94 57.1174 7 57.1441 7 57.2954C7 57.4378 6.93 57.4734 6.65 57.4734C6.38 57.4734 6.3 57.4378 6.3 57.3221Z" fill="#BDBDBD"/>
<path d="M13.6 57.2954C13.6 57.1085 13.7 57.0818 14.08 57.1708C14.44 57.2598 14.35 57.4734 13.95 57.4734C13.67 57.4734 13.6 57.4378 13.6 57.2954Z" fill="#BDBDBD"/>
<path d="M7.5 57.2598C7.5 57.1441 7.78 57.0284 8.08 57.0284C8.14 57.0284 8.2 57.1085 8.2 57.2064C8.2 57.3488 8.13 57.3844 7.85 57.3844C7.62 57.3844 7.5 57.3399 7.5 57.2598Z" fill="#BDBDBD"/>
<path d="M12.2 57.2064C12.2 57.0195 12.36 56.9839 12.78 57.0818C13.17 57.1797 13.05 57.3844 12.6 57.3844C12.27 57.3844 12.2 57.3577 12.2 57.2064Z" fill="#BDBDBD"/>
<path d="M39.2 57.1174C39.2 56.9127 39.24 56.8505 39.4 56.8505C39.51 56.8505 39.6 56.7882 39.6 56.717C39.6 56.6191 39.71 56.5835 39.98 56.5835C40.35 56.5924 40.35 56.5924 39.95 56.9038C39.3 57.4111 39.2 57.4378 39.2 57.1174Z" fill="#BDBDBD"/>
<path d="M100.4 57.153C100.4 56.8683 100.71 56.8861 100.76 57.1886C100.79 57.331 100.75 57.3844 100.6 57.3844C100.45 57.3844 100.4 57.3221 100.4 57.153Z" fill="#BDBDBD"/>
<path d="M1.33 57.0106C1.35 56.8238 1.43 56.7081 1.53 56.6903C1.66 56.6636 1.7 56.7259 1.7 56.9751C1.7 57.242 1.66 57.2954 1.49 57.2954C1.32 57.2954 1.29 57.2509 1.33 57.0106Z" fill="#BDBDBD"/>
<path d="M20.58 57.2331C20.25 57.1619 20.38 56.9394 20.75 56.9394C21.03 56.9394 21.1 56.975 21.1 57.1174C21.1 57.2954 20.96 57.3221 20.58 57.2331Z" fill="#BDBDBD"/>
<path d="M81.2 57.1174C81.2 56.975 81.27 56.9394 81.55 56.9394C81.95 56.9394 82.04 57.153 81.68 57.242C81.3 57.331 81.2 57.3043 81.2 57.1174Z" fill="#BDBDBD"/>
<path d="M2.2 57.0284C2.2 56.8861 2.27 56.8505 2.55 56.8505C2.95 56.8505 3.04 57.064 2.68 57.153C2.3 57.242 2.2 57.2153 2.2 57.0284Z" fill="#BDBDBD"/>
<path d="M99.53 57.0996C99.08 56.9662 99.1 56.7615 99.55 56.7615C99.86 56.7615 99.9 56.7882 99.9 56.984C99.9 57.1085 99.89 57.2064 99.88 57.1975C99.86 57.1886 99.7 57.1441 99.53 57.0996Z" fill="#BDBDBD"/>
<path d="M19.48 57.0551C19.15 56.984 19.28 56.7615 19.65 56.7615C19.93 56.7615 20 56.7971 20 56.9395C20 57.1174 19.86 57.1441 19.48 57.0551Z" fill="#BDBDBD"/>
<path d="M60.7 56.628C60.7 56.3966 60.73 56.3343 60.85 56.3699C60.93 56.4055 61 56.4589 61 56.5034C61 56.539 61.1 56.6547 61.22 56.7615C61.44 56.9394 61.44 56.9394 61.07 56.9394C60.71 56.9394 60.7 56.9305 60.7 56.628Z" fill="#BDBDBD"/>
<path d="M83.6 56.7704C83.6 56.6547 83.66 56.5835 83.78 56.5835C83.87 56.5835 84.19 56.5568 84.48 56.5301C84.91 56.4767 85 56.4945 85 56.6102C85 56.7437 84.88 56.7882 84.03 56.8949C83.64 56.9483 83.6 56.9394 83.6 56.7704Z" fill="#BDBDBD"/>
<path d="M17.48 56.7882C17.15 56.717 17.28 56.4945 17.65 56.4945C17.93 56.4945 18 56.5301 18 56.6725C18 56.8505 17.86 56.8772 17.48 56.7882Z" fill="#BDBDBD"/>
<path d="M16.68 56.6992C16.35 56.628 16.48 56.4055 16.85 56.4055C17.13 56.4055 17.2 56.4411 17.2 56.5835C17.2 56.7615 17.06 56.7882 16.68 56.6992Z" fill="#BDBDBD"/>
<path d="M14.85 56.5034C14.69 56.361 14.84 56.2275 15.15 56.2275C15.43 56.2275 15.5 56.2631 15.5 56.4055C15.5 56.5479 15.44 56.5835 15.2 56.5657C15.03 56.5568 14.87 56.5301 14.85 56.5034Z" fill="#BDBDBD"/>
<path d="M96.58 56.5212C96.25 56.45 96.38 56.2275 96.75 56.2275C97.03 56.2275 97.1 56.2631 97.1 56.4055C97.1 56.5835 96.96 56.6102 96.58 56.5212Z" fill="#BDBDBD"/>
<path d="M6.1 56.3165C6.1 56.1741 6.17 56.1385 6.45 56.1385C6.85 56.1385 6.94 56.3521 6.58 56.4411C6.2 56.5301 6.1 56.5034 6.1 56.3165Z" fill="#BDBDBD"/>
<path d="M13.8 56.2987C13.8 56.1741 13.88 56.1385 14.15 56.1385C14.43 56.1385 14.5 56.1741 14.5 56.3165C14.5 56.4678 14.44 56.4945 14.15 56.4678C13.89 56.4589 13.8 56.4055 13.8 56.2987Z" fill="#BDBDBD"/>
<path d="M87.8 56.3165C87.8 56.1741 87.87 56.1385 88.15 56.1385C88.42 56.1385 88.5 56.1741 88.5 56.2987C88.5 56.4055 88.41 56.4589 88.15 56.4678C87.86 56.4945 87.8 56.4678 87.8 56.3165Z" fill="#BDBDBD"/>
<path d="M12.28 56.3432C11.95 56.272 12.08 56.0495 12.45 56.0495C12.73 56.0495 12.8 56.0851 12.8 56.2275C12.8 56.4055 12.66 56.4322 12.28 56.3432Z" fill="#BDBDBD"/>
<path d="M40.5 56.005C40.5 55.7292 40.53 55.6936 40.75 55.6936C41.05 55.6936 41.07 55.8627 40.8 56.1207C40.53 56.3788 40.5 56.3699 40.5 56.005Z" fill="#BDBDBD"/>
<path d="M42.13 55.4088C42.32 54.9994 42.5 54.9817 42.5 55.3732C42.5 55.658 42.47 55.6936 42.25 55.6936C42.01 55.6936 42 55.6847 42.13 55.4088Z" fill="#BDBDBD"/>
<path d="M61.2 55.4533C61.12 55.3109 61.04 55.1774 61.02 55.1418C61 55.0973 61.1 55.0706 61.24 55.0706C61.47 55.0706 61.5 55.1062 61.5 55.3821C61.5 55.7559 61.38 55.7826 61.2 55.4533Z" fill="#BDBDBD"/>
<path d="M100.1 55.2931C100.1 54.9372 100.34 54.8571 100.44 55.1863C100.54 55.5156 100.51 55.6046 100.3 55.6046C100.14 55.6046 100.1 55.5423 100.1 55.2931Z" fill="#BDBDBD"/>
<path d="M1.6 55.3643C1.6 55.3198 1.67 54.955 1.75 54.5367C1.83 54.1184 1.9 53.7714 1.9 53.7625C1.9 53.7447 1.97 53.7358 2.05 53.7358C2.23 53.7358 2.24 53.8515 2.08 54.7414C1.99 55.3109 1.93 55.4266 1.78 55.4266C1.68 55.4266 1.6 55.3999 1.6 55.3643Z" fill="#BDBDBD"/>
<path d="M59.7 54.9283C59.7 54.5367 59.88 54.5545 60.07 54.9638C60.2 55.2397 60.19 55.2486 59.95 55.2486C59.73 55.2486 59.7 55.213 59.7 54.9283Z" fill="#BDBDBD"/>
<path d="M42.4 54.7592C42.4 54.6346 42.72 54.1807 42.8 54.1807C42.86 54.1807 42.9 54.3231 42.9 54.4922C42.9 54.7681 42.87 54.8037 42.65 54.8037C42.51 54.8037 42.4 54.7859 42.4 54.7592Z" fill="#BDBDBD"/>
<path d="M60.65 54.3587C60.45 54.0205 60.46 54.0027 60.75 54.0027C60.97 54.0027 61 54.0383 61 54.3142C61 54.6969 60.86 54.7147 60.65 54.3587Z" fill="#BDBDBD"/>
<path d="M99.9 54.2252C99.9 53.8693 100.14 53.7892 100.24 54.1184C100.34 54.4477 100.31 54.5367 100.1 54.5367C99.94 54.5367 99.9 54.4744 99.9 54.2252Z" fill="#BDBDBD"/>
<path d="M60.36 53.629C60.26 53.2908 60.29 53.2018 60.5 53.2018C60.66 53.2018 60.7 53.2641 60.7 53.5133C60.7 53.8693 60.46 53.9493 60.36 53.629Z" fill="#BDBDBD"/>
<path d="M71.1 53.3353C71.1 53.1662 71.15 53.0239 71.2 53.0239C71.26 53.0239 71.3 53.0773 71.3 53.1484C71.3 53.2997 71.61 53.4065 71.83 53.3264C71.92 53.2997 72.02 53.1573 72.05 53.015C72.14 52.6412 72.4 52.6768 72.4 53.0684C72.4 53.2374 72.36 53.3798 72.3 53.3798C72.25 53.3798 72.2 53.4421 72.2 53.5133C72.2 53.6201 72.07 53.6468 71.65 53.6468C71.1 53.6468 71.1 53.6468 71.1 53.3353Z" fill="#BDBDBD"/>
<path d="M29.1 53.1573C29.1 52.9082 29.14 52.8459 29.3 52.8459C29.42 52.8459 29.47 52.8904 29.44 52.9616C29.42 53.0239 29.49 53.1662 29.6 53.273C29.81 53.4688 29.81 53.4688 29.45 53.4688C29.12 53.4688 29.1 53.451 29.1 53.1573Z" fill="#BDBDBD"/>
<path d="M62.5 52.8459C62.5 52.2763 62.52 52.2229 62.7 52.2229C62.89 52.2229 62.9 52.2585 62.85 52.6501C62.79 52.9972 62.82 53.1039 63 53.273C63.21 53.4688 63.21 53.4688 62.85 53.4688C62.5 53.4688 62.5 53.4688 62.5 52.8459Z" fill="#BDBDBD"/>
<path d="M60.16 52.9705C60.04 52.6857 60.1 52.4899 60.3 52.4899C60.46 52.4899 60.5 52.5522 60.5 52.8014C60.5 53.1306 60.28 53.2374 60.16 52.9705Z" fill="#BDBDBD"/>
<path d="M2.2 52.4098C2.2 52.1428 2.31 51.956 2.46 51.956C2.55 51.956 2.6 52.0628 2.6 52.2674C2.6 52.5166 2.56 52.5789 2.4 52.5789C2.27 52.5789 2.2 52.5166 2.2 52.4098Z" fill="#BDBDBD"/>
<path d="M70.8 52.2674C70.8 51.9382 71.02 51.8314 71.14 52.0983C71.26 52.3831 71.2 52.5789 71 52.5789C70.84 52.5789 70.8 52.5166 70.8 52.2674Z" fill="#BDBDBD"/>
<path d="M29.2 52.0895C29.2 51.8225 29.23 51.778 29.44 51.778C29.67 51.778 29.68 51.7958 29.57 52.0895C29.51 52.2585 29.41 52.4009 29.33 52.4009C29.25 52.4009 29.2 52.2852 29.2 52.0895Z" fill="#BDBDBD"/>
<path d="M30.4 52.0806C30.4 51.8937 30.58 51.6 30.7 51.6C30.76 51.6 30.8 51.7424 30.8 51.9115C30.8 52.1606 30.76 52.2229 30.6 52.2229C30.49 52.2229 30.4 52.1607 30.4 52.0806Z" fill="#BDBDBD"/>
<path d="M58.8 51.8225C58.8 51.4665 59.04 51.3864 59.14 51.7157C59.24 52.045 59.21 52.1339 59 52.1339C58.84 52.1339 58.8 52.0717 58.8 51.8225Z" fill="#BDBDBD"/>
<path d="M42.1 51.7335C42.1 51.4843 42.14 51.422 42.3 51.422C42.51 51.422 42.54 51.511 42.44 51.8492C42.34 52.1695 42.1 52.0894 42.1 51.7335Z" fill="#BDBDBD"/>
<path d="M71.86 51.7869C71.83 51.7513 71.76 51.6089 71.71 51.4754C71.61 51.2618 71.63 51.244 71.85 51.244C72.07 51.244 72.1 51.2796 72.1 51.5555C72.1 51.8492 71.98 51.9649 71.86 51.7869Z" fill="#BDBDBD"/>
<path d="M2.4 51.6089C2.4 51.3419 2.51 51.155 2.66 51.155C2.75 51.155 2.8 51.2618 2.8 51.4665C2.8 51.7157 2.76 51.778 2.6 51.778C2.47 51.778 2.4 51.7157 2.4 51.6089Z" fill="#BDBDBD"/>
<path d="M64.4 50.9771C64.71 50.5855 64.8 50.5766 64.8 50.9237C64.8 51.2173 64.78 51.244 64.49 51.244C64.19 51.244 64.19 51.244 64.4 50.9771Z" fill="#BDBDBD"/>
<path d="M70 50.8347C70 50.4876 70.09 50.4965 70.4 50.8881C70.61 51.155 70.61 51.155 70.31 51.155C70.02 51.155 70 51.1284 70 50.8347Z" fill="#BDBDBD"/>
<path d="M71.17 50.6211C70.83 50.2829 70.83 50.2651 71.2 50.2651C71.48 50.2651 71.5 50.2918 71.5 50.5766C71.5 50.7457 71.48 50.8881 71.47 50.8881C71.45 50.8881 71.31 50.7724 71.17 50.6211Z" fill="#BDBDBD"/>
<path d="M34.3 49.8202C34.3 49.6333 34.4 49.6066 34.78 49.6956C35.14 49.7846 35.05 49.9982 34.65 49.9982C34.37 49.9982 34.3 49.9626 34.3 49.8202Z" fill="#BDBDBD"/>
<path d="M67.7 49.8202C67.7 49.6333 67.8 49.6066 68.18 49.6956C68.54 49.7846 68.45 49.9982 68.05 49.9982C67.77 49.9982 67.7 49.9626 67.7 49.8202Z" fill="#BDBDBD"/>
<path d="M31 49.6511C31 49.4642 31.05 49.3752 31.15 49.3752C31.23 49.3752 31.3 49.3396 31.3 49.2862C31.3 49.2417 31.46 49.1973 31.65 49.1973C32.1 49.1973 32.09 49.2773 31.62 49.5532C31.42 49.6689 31.19 49.8024 31.13 49.8469C31.03 49.9092 31 49.8558 31 49.6511Z" fill="#BDBDBD"/>
<path d="M41.9 49.4197C41.9 49.0638 42.14 48.9837 42.24 49.3129C42.34 49.6422 42.31 49.7312 42.1 49.7312C41.94 49.7312 41.9 49.6689 41.9 49.4197Z" fill="#BDBDBD"/>
<path d="M98.7 49.4197C98.7 49.0905 98.92 48.9837 99.04 49.2506C99.16 49.5354 99.1 49.7312 98.9 49.7312C98.74 49.7312 98.7 49.6689 98.7 49.4197Z" fill="#BDBDBD"/>
<path d="M64.7 49.4197C64.7 49.2239 64.74 49.1973 65.05 49.1973C65.46 49.1973 65.48 49.2417 65.18 49.4731C64.86 49.6956 64.7 49.6867 64.7 49.4197Z" fill="#BDBDBD"/>
<path d="M35.8 49.2418C35.61 49.1795 35.33 49.0994 35.18 49.0727C34.76 48.9926 34.82 48.7523 35.25 48.7523C35.44 48.7523 35.6 48.7968 35.6 48.8413C35.6 48.8947 35.74 48.9303 35.9 48.9303C36.15 48.9303 36.2 48.9659 36.2 49.1528C36.2 49.2773 36.19 49.3752 36.18 49.3663C36.16 49.3663 35.99 49.3129 35.8 49.2418Z" fill="#BDBDBD"/>
<path d="M69.2 49.2418C69.01 49.1795 68.73 49.0994 68.58 49.0727C68.16 48.9926 68.22 48.7523 68.65 48.7523C68.84 48.7523 69 48.7968 69 48.8413C69 48.8947 69.14 48.9303 69.3 48.9303C69.55 48.9303 69.6 48.9659 69.6 49.1528C69.6 49.2773 69.59 49.3752 69.58 49.3663C69.56 49.3663 69.39 49.3129 69.2 49.2418Z" fill="#BDBDBD"/>
<path d="M59.1 49.046C59.1 48.5743 59.21 48.3963 59.47 48.3963C59.63 48.3963 59.7 48.4319 59.66 48.512C59.64 48.5654 59.56 48.7701 59.49 48.957C59.35 49.3485 59.1 49.4019 59.1 49.046Z" fill="#BDBDBD"/>
<path d="M98.4 48.4408C98.4 48.0849 98.64 48.0048 98.74 48.334C98.84 48.6633 98.81 48.7523 98.6 48.7523C98.44 48.7523 98.4 48.69 98.4 48.4408Z" fill="#BDBDBD"/>
<path d="M42.27 47.6043C42.05 47.2662 42.05 47.2395 42.35 47.2395C42.57 47.2395 42.6 47.2751 42.6 47.5509C42.6 47.9336 42.5 47.9425 42.27 47.6043Z" fill="#BDBDBD"/>
<path d="M98.1 47.5509C98.1 47.2038 98.24 47.1416 98.4 47.4085C98.56 47.6844 98.52 47.8624 98.3 47.8624C98.14 47.8624 98.1 47.8001 98.1 47.5509Z" fill="#BDBDBD"/>
<path d="M61.09 47.5242C61.14 47.4441 61.28 47.2928 61.39 47.2038C61.6 47.0348 61.6 47.0348 61.6 47.3551C61.6 47.6577 61.58 47.6844 61.3 47.6844C61.04 47.6844 61.01 47.6577 61.09 47.5242Z" fill="#BDBDBD"/>
<path d="M4.12 47.3106C4.15 47.2483 4.31 47.1504 4.48 47.0882C4.79 46.9725 4.8 46.9814 4.8 47.1949C4.8 47.3907 4.76 47.4174 4.44 47.4174C4.21 47.4174 4.1 47.3818 4.12 47.3106Z" fill="#BDBDBD"/>
<path d="M40.5 47.0081C40.5 46.661 40.59 46.6699 40.9 47.0615C41.11 47.3284 41.11 47.3284 40.81 47.3284C40.52 47.3284 40.5 47.3017 40.5 47.0081Z" fill="#BDBDBD"/>
<path d="M60.4 46.7767C60.4 46.4563 60.42 46.4385 60.7 46.4385C60.98 46.4385 61 46.4118 61 46.1271C61 45.8779 61.04 45.8156 61.2 45.8156C61.33 45.8156 61.4 45.7533 61.4 45.6376C61.4 45.4952 61.47 45.4596 61.77 45.4596C62.15 45.4596 62.15 45.4596 61.75 45.7978C61.53 45.9758 61.14 46.3495 60.88 46.6165C60.41 47.106 60.41 47.106 60.4 46.7767Z" fill="#BDBDBD"/>
<path d="M96.1 46.572C96.1 46.3584 96.11 46.3495 96.42 46.4652C96.88 46.6343 96.9 46.7945 96.46 46.7945C96.14 46.7945 96.1 46.7678 96.1 46.572Z" fill="#BDBDBD"/>
<path d="M5.82 46.5987C5.85 46.5364 6.01 46.4385 6.18 46.3762C6.49 46.2606 6.5 46.2695 6.5 46.483C6.5 46.6788 6.46 46.7055 6.14 46.7055C5.91 46.7055 5.8 46.6699 5.82 46.5987Z" fill="#BDBDBD"/>
<path d="M51.72 46.4652C51.74 46.3762 51.87 46.305 52.08 46.2872C52.35 46.2517 52.4 46.2784 52.4 46.4296C52.4 46.5809 52.34 46.6165 52.04 46.6165C51.76 46.6165 51.69 46.5809 51.72 46.4652Z" fill="#BDBDBD"/>
<path d="M41 46.136C40.56 45.7266 40.56 45.7266 40.92 45.7266C41.35 45.7266 41.52 45.8868 41.48 46.2606C41.45 46.5364 41.45 46.5364 41 46.136Z" fill="#BDBDBD"/>
<path d="M47.6 46.2605C47.6 46.0737 47.7 46.047 48.08 46.136C48.44 46.225 48.35 46.4385 47.95 46.4385C47.67 46.4385 47.6 46.4029 47.6 46.2605Z" fill="#BDBDBD"/>
<path d="M4.3 46.1271C4.3 45.9313 4.34 45.9046 4.66 45.9046C5.1 45.9046 5.08 46.0648 4.62 46.2339C4.31 46.3495 4.3 46.3406 4.3 46.1271Z" fill="#BDBDBD"/>
<path d="M62.67 45.9936C62.85 45.8423 63.01 45.7266 63.04 45.7266C63.08 45.7266 63.1 45.8512 63.1 45.9936C63.1 46.2428 63.08 46.2606 62.73 46.2606C62.35 46.2606 62.35 46.2606 62.67 45.9936Z" fill="#BDBDBD"/>
<path d="M45.6 45.6821C45.6 45.4685 45.61 45.4596 45.92 45.5753C46.38 45.7444 46.4 45.9046 45.96 45.9046C45.64 45.9046 45.6 45.8779 45.6 45.6821Z" fill="#BDBDBD"/>
<path d="M93.1 45.4151C93.1 45.2016 93.11 45.1927 93.42 45.3083C93.88 45.4774 93.9 45.6376 93.46 45.6376C93.14 45.6376 93.1 45.6109 93.1 45.4151Z" fill="#BDBDBD"/>
<path d="M38.1 45.2372C38.1 44.9702 38.29 44.9524 38.58 45.1927C38.87 45.4329 38.86 45.4596 38.45 45.4596C38.14 45.4596 38.1 45.4329 38.1 45.2372Z" fill="#BDBDBD"/>
<path d="M47.88 45.3973C47.55 45.3261 47.68 45.1037 48.05 45.1037C48.33 45.1037 48.4 45.1393 48.4 45.2816C48.4 45.4596 48.26 45.4863 47.88 45.3973Z" fill="#BDBDBD"/>
<path d="M4.53 45.0859C4.65 44.8189 5.2 44.3917 5.41 44.3917C5.46 44.3917 5.5 44.4896 5.5 44.6142C5.5 44.8011 5.45 44.8367 5.2 44.8367C4.93 44.8367 4.9 44.8634 4.9 45.1037C4.9 45.3261 4.86 45.3706 4.65 45.3706C4.41 45.3706 4.4 45.3617 4.53 45.0859Z" fill="#BDBDBD"/>
<path d="M62.6 44.8367C62.6 44.5875 62.63 44.5697 62.95 44.5697C63.36 44.5697 63.34 44.721 62.9 44.9435C62.6 45.0948 62.6 45.0948 62.6 44.8367Z" fill="#BDBDBD"/>
<path d="M91.6 44.8812C91.6 44.6231 91.62 44.6142 92 44.7922C92.4 44.9791 92.38 45.1037 91.95 45.1037C91.64 45.1037 91.6 45.077 91.6 44.8812Z" fill="#BDBDBD"/>
<path d="M7.7 44.7833C7.7 44.5964 7.75 44.5697 8.05 44.5697C8.27 44.5697 8.4 44.6142 8.4 44.6854C8.4 44.7566 8.24 44.8456 8.05 44.899C7.72 44.9969 7.7 44.988 7.7 44.7833Z" fill="#BDBDBD"/>
<path d="M39.13 44.721C38.98 44.6053 38.7 44.4362 38.53 44.3472C38.11 44.1248 38.11 44.0358 38.55 44.0358C38.83 44.0358 38.9 44.0714 38.9 44.2138C38.9 44.3561 38.97 44.3917 39.2 44.3917C39.47 44.3917 39.5 44.4184 39.5 44.6587C39.5 44.9791 39.49 44.9791 39.13 44.721Z" fill="#BDBDBD"/>
<path d="M54.6 44.7032C54.6 44.543 54.65 44.4807 54.8 44.4807C54.91 44.4807 55 44.4451 55 44.3917C55 44.3472 55.16 44.3027 55.35 44.3027C55.54 44.3027 55.7 44.3383 55.7 44.3739C55.7 44.454 55.25 44.7032 54.87 44.8278C54.62 44.9168 54.6 44.899 54.6 44.7032Z" fill="#BDBDBD"/>
<path d="M10.92 44.7299C10.95 44.6676 11.11 44.5697 11.28 44.5074C11.59 44.3917 11.6 44.4006 11.6 44.6142C11.6 44.81 11.56 44.8367 11.24 44.8367C11.01 44.8367 10.9 44.8011 10.92 44.7299Z" fill="#BDBDBD"/>
<path d="M92.91 44.3651C92.25 44.1248 92.14 43.9468 92.64 43.9468C92.84 43.9468 93 43.9913 93 44.0358C93 44.0892 93.11 44.1248 93.25 44.1248C93.45 44.1248 93.5 44.1693 93.5 44.3473C93.5 44.4718 93.49 44.5697 93.48 44.5697C93.46 44.5608 93.21 44.4718 92.91 44.3651Z" fill="#BDBDBD"/>
<path d="M89.7 44.2583C89.7 44.0002 89.72 43.9913 90.1 44.1693C90.5 44.3561 90.48 44.4807 90.05 44.4807C89.74 44.4807 89.7 44.454 89.7 44.2583Z" fill="#BDBDBD"/>
<path d="M42 43.9468C42 43.7154 42.03 43.6887 42.18 43.7599C42.27 43.8044 42.44 43.929 42.54 44.0269C42.73 44.2138 42.73 44.2138 42.37 44.2138C42.03 44.2138 42 44.196 42 43.9468Z" fill="#BDBDBD"/>
<path d="M56.3 43.8667C56.3 43.6086 56.33 43.5908 56.65 43.5908C57.06 43.5908 57.04 43.7421 56.6 43.9824C56.3 44.1337 56.3 44.1337 56.3 43.8667Z" fill="#BDBDBD"/>
<path d="M6.3 43.9735C6.3 43.929 6.46 43.8133 6.65 43.6976C7 43.5018 7 43.5018 7 43.7688C7 44.018 6.97 44.0358 6.65 44.0358C6.46 44.0358 6.3 44.0091 6.3 43.9735Z" fill="#BDBDBD"/>
<path d="M58.27 43.6798C58.45 43.5285 58.61 43.4128 58.64 43.4128C58.68 43.4128 58.7 43.5374 58.7 43.6798C58.7 43.929 58.68 43.9468 58.33 43.9468C57.95 43.9468 57.95 43.9468 58.27 43.6798Z" fill="#BDBDBD"/>
<path d="M14.1 43.7332C14.1 43.6175 14.38 43.5018 14.68 43.5018C14.74 43.5018 14.8 43.5819 14.8 43.6798C14.8 43.8222 14.73 43.8578 14.45 43.8578C14.22 43.8578 14.1 43.8133 14.1 43.7332Z" fill="#BDBDBD"/>
<path d="M87.6 43.6798C87.6 43.4929 87.7 43.4662 88.08 43.5552C88.44 43.6442 88.35 43.8578 87.95 43.8578C87.67 43.8578 87.6 43.8222 87.6 43.6798Z" fill="#BDBDBD"/>
<path d="M90.98 43.7154C90.6 43.5374 90.63 43.4128 91.05 43.4128C91.36 43.4128 91.4 43.4395 91.4 43.6353C91.4 43.8934 91.35 43.9023 90.98 43.7154Z" fill="#BDBDBD"/>
<path d="M41.1 43.315C41.1 43.048 41.1 43.048 41.4 43.2349C41.84 43.5107 41.85 43.5908 41.46 43.5908C41.13 43.5908 41.1 43.573 41.1 43.315Z" fill="#BDBDBD"/>
<path d="M12.4 43.1904C12.4 42.9857 12.62 42.8789 13.08 42.8789C13.2 42.8789 13.3 42.8433 13.3 42.7899C13.3 42.7454 13.46 42.7009 13.65 42.7009C14.25 42.7009 14.04 42.9145 13.2 43.1548C12.4 43.395 12.4 43.395 12.4 43.1904Z" fill="#BDBDBD"/>
<path d="M85.9 43.2349C85.9 43.048 86 43.0213 86.38 43.1103C86.74 43.1993 86.65 43.4128 86.25 43.4128C85.97 43.4128 85.9 43.3772 85.9 43.2349Z" fill="#BDBDBD"/>
<path d="M88.88 43.0658C88.23 42.8878 88.22 42.6564 88.85 42.7276C89.38 42.7721 89.43 42.8077 89.38 43.0302C89.35 43.1904 89.33 43.1904 88.88 43.0658Z" fill="#BDBDBD"/>
<path d="M69.4 43.0213C69.4 42.8878 69.61 42.7899 69.91 42.7899C70.03 42.7899 70.1 42.8522 70.1 42.9679C70.1 43.1103 70.03 43.1459 69.75 43.1459C69.52 43.1459 69.4 43.1014 69.4 43.0213Z" fill="#BDBDBD"/>
<path d="M32 42.8789C32 42.692 32.1 42.6653 32.48 42.7543C32.84 42.8433 32.75 43.0569 32.35 43.0569C32.07 43.0569 32 43.0213 32 42.8789Z" fill="#BDBDBD"/>
<path d="M59.56 42.781C59.66 42.6831 59.83 42.5585 59.92 42.514C60.07 42.4428 60.1 42.4695 60.1 42.7009C60.1 42.9501 60.07 42.9679 59.73 42.9679C59.37 42.9679 59.37 42.9679 59.56 42.781Z" fill="#BDBDBD"/>
<path d="M67.2 42.6564C67.2 42.4606 67.24 42.4339 67.56 42.4339C68 42.4339 67.98 42.5941 67.52 42.7632C67.21 42.8789 67.2 42.87 67.2 42.6564Z" fill="#BDBDBD"/>
<path d="M70.4 42.7543C70.4 42.6208 70.61 42.5229 70.91 42.5229C71.03 42.5229 71.1 42.5852 71.1 42.7009C71.1 42.8433 71.03 42.8789 70.75 42.8789C70.52 42.8789 70.4 42.8344 70.4 42.7543Z" fill="#BDBDBD"/>
<path d="M83.5 42.7009C83.5 42.514 83.6 42.4873 83.98 42.5763C84.34 42.6653 84.25 42.8789 83.85 42.8789C83.57 42.8789 83.5 42.8433 83.5 42.7009Z" fill="#BDBDBD"/>
<path d="M30.6 42.5229C30.6 42.3361 30.7 42.3094 31.08 42.3983C31.44 42.4873 31.35 42.7009 30.95 42.7009C30.67 42.7009 30.6 42.6653 30.6 42.5229Z" fill="#BDBDBD"/>
<path d="M58.3 42.4339C58.3 42.1848 58.32 42.167 58.68 42.167C59.05 42.167 59.05 42.167 58.73 42.4339C58.55 42.5852 58.39 42.7009 58.36 42.7009C58.32 42.7009 58.3 42.5852 58.3 42.4339Z" fill="#BDBDBD"/>
<path d="M86.85 42.5229C86.52 42.4339 86.13 42.336 85.98 42.3093C85.56 42.2293 85.62 41.989 86.05 41.989C86.24 41.989 86.4 42.0335 86.4 42.078C86.4 42.1314 86.56 42.167 86.75 42.167C86.94 42.167 87.1 42.2115 87.1 42.256C87.1 42.3094 87.26 42.3449 87.45 42.3449C87.73 42.3449 87.8 42.3805 87.8 42.5229C87.8 42.7365 87.66 42.7365 86.85 42.5229Z" fill="#BDBDBD"/>
<path d="M71.5 42.4873C71.5 42.3539 71.71 42.256 72.01 42.256C72.13 42.256 72.2 42.3183 72.2 42.4339C72.2 42.5763 72.13 42.6119 71.85 42.6119C71.62 42.6119 71.5 42.5674 71.5 42.4873Z" fill="#BDBDBD"/>
<path d="M7.3 42.3005C7.3 42.1047 7.34 42.078 7.65 42.078C8.08 42.078 8.09 42.167 7.71 42.3717C7.33 42.5674 7.3 42.5674 7.3 42.3005Z" fill="#BDBDBD"/>
<path d="M41.05 42.1314C40.72 41.9178 40.32 41.633 40.15 41.5084C39.85 41.286 39.85 41.286 40.23 41.2771C40.56 41.2771 40.6 41.3038 40.6 41.4995C40.6 41.6953 40.64 41.722 40.95 41.722C41.19 41.722 41.3 41.7665 41.3 41.8555C41.3 41.9267 41.39 41.989 41.5 41.989C41.66 41.989 41.7 42.0513 41.7 42.256C41.7 42.4072 41.69 42.5229 41.68 42.5229C41.66 42.5229 41.38 42.3449 41.05 42.1314Z" fill="#BDBDBD"/>
<path d="M68.3 42.3183C68.3 42.1492 68.38 42.0869 68.69 42.0068C69.22 41.8644 69.6 41.8733 69.6 42.0246C69.6 42.1047 69.39 42.2115 69.08 42.3005C68.79 42.3805 68.49 42.4695 68.43 42.4873C68.34 42.5229 68.3 42.4606 68.3 42.3183Z" fill="#BDBDBD"/>
<path d="M33.28 42.2649C32.63 42.0869 32.62 41.8555 33.25 41.9267C33.78 41.9712 33.83 42.0068 33.78 42.2293C33.75 42.3895 33.73 42.3894 33.28 42.2649Z" fill="#BDBDBD"/>
<path d="M72.4 42.3094C72.4 42.167 72.54 42.1225 73.23 42.0335C73.65 41.9801 73.7 41.9979 73.7 42.1492C73.7 42.2827 73.61 42.3361 73.24 42.3805C72.55 42.4606 72.4 42.4517 72.4 42.3094Z" fill="#BDBDBD"/>
<path d="M16 42.167C16 42.0246 16.07 41.989 16.35 41.989C16.75 41.989 16.84 42.2026 16.48 42.2916C16.1 42.3805 16 42.3538 16 42.167Z" fill="#BDBDBD"/>
<path d="M21.6 42.2204C21.6 42.1047 21.88 41.989 22.18 41.989C22.24 41.989 22.3 42.0691 22.3 42.167C22.3 42.3094 22.23 42.3449 21.95 42.3449C21.72 42.3449 21.6 42.3004 21.6 42.2204Z" fill="#BDBDBD"/>
<path d="M80.1 42.1581C80.1 42.0068 80.15 41.9801 80.42 42.0157C80.63 42.0335 80.76 42.1047 80.78 42.1937C80.81 42.3094 80.74 42.345 80.46 42.345C80.16 42.345 80.1 42.3094 80.1 42.1581Z" fill="#BDBDBD"/>
<path d="M93.7 42.1225C93.7 41.8644 93.72 41.8555 94.1 42.0335C94.5 42.2204 94.48 42.345 94.05 42.345C93.74 42.345 93.7 42.3183 93.7 42.1225Z" fill="#BDBDBD"/>
<path d="M22.42 42.1047C22.44 42.0157 22.57 41.9445 22.78 41.9267C23.05 41.8911 23.1 41.9178 23.1 42.0691C23.1 42.2204 23.04 42.256 22.74 42.256C22.46 42.256 22.39 42.2204 22.42 42.1047Z" fill="#BDBDBD"/>
<path d="M28 42.078C28 41.8911 28.1 41.8644 28.48 41.9534C28.84 42.0424 28.75 42.256 28.35 42.256C28.07 42.256 28 42.2204 28 42.078Z" fill="#BDBDBD"/>
<path d="M23.6 42.0424C23.6 41.9267 23.88 41.811 24.18 41.811C24.24 41.811 24.3 41.8911 24.3 41.989C24.3 42.1314 24.23 42.167 23.95 42.167C23.72 42.167 23.6 42.1225 23.6 42.0424Z" fill="#BDBDBD"/>
<path d="M78.1 41.989C78.1 41.8021 78.2 41.7754 78.58 41.8644C78.94 41.9534 78.85 42.167 78.45 42.167C78.17 42.167 78.1 42.1314 78.1 41.989Z" fill="#BDBDBD"/>
<path d="M85.05 42.1136C85 42.0958 84.76 42.0424 84.53 41.989C84.25 41.9267 84.1 41.8466 84.1 41.7487C84.1 41.633 84.18 41.6152 84.61 41.6597C84.9 41.6953 85.15 41.7309 85.17 41.7576C85.26 41.8288 85.15 42.1403 85.05 42.1136Z" fill="#BDBDBD"/>
<path d="M92.9 41.8555C92.9 41.6419 92.91 41.633 93.22 41.7487C93.68 41.9178 93.7 42.078 93.26 42.078C92.94 42.078 92.9 42.0513 92.9 41.8555Z" fill="#BDBDBD"/>
<path d="M31.63 41.8288C31.01 41.6775 30.91 41.455 31.45 41.455C31.64 41.455 31.8 41.4995 31.8 41.544C31.8 41.5974 31.96 41.633 32.15 41.633C32.43 41.633 32.5 41.6686 32.5 41.811C32.5 42.0246 32.36 42.0246 31.63 41.8288Z" fill="#BDBDBD"/>
<path d="M69.9 41.811C69.9 41.6686 69.97 41.633 70.25 41.633C70.44 41.633 70.6 41.5974 70.6 41.544C70.6 41.4995 70.76 41.455 70.95 41.455C71.52 41.455 71.38 41.6775 70.7 41.8377C69.94 42.0246 69.9 42.0246 69.9 41.811Z" fill="#BDBDBD"/>
<path d="M8.8 41.5885C8.8 41.3928 8.84 41.3661 9.15 41.3661C9.58 41.3661 9.6 41.4906 9.2 41.6775C8.82 41.8555 8.8 41.8466 8.8 41.5885Z" fill="#BDBDBD"/>
<path d="M18.5 41.633C18.5 41.4906 18.57 41.455 18.85 41.455C19.22 41.455 19.34 41.6508 19.04 41.7576C18.72 41.8644 18.5 41.811 18.5 41.633Z" fill="#BDBDBD"/>
<path d="M82.58 41.6152C82.17 41.5173 82.06 41.2771 82.43 41.2771C83.01 41.2771 83.4 41.3927 83.4 41.5529C83.4 41.7398 83.18 41.7576 82.58 41.6152Z" fill="#BDBDBD"/>
<path d="M6.23 41.2593C6.42 40.8499 6.6 40.8321 6.6 41.2237C6.6 41.5084 6.57 41.544 6.35 41.544C6.11 41.544 6.1 41.5351 6.23 41.2593Z" fill="#BDBDBD"/>
<path d="M11.82 41.4372C11.85 41.375 12.01 41.2771 12.18 41.2148C12.49 41.0991 12.5 41.108 12.5 41.3216C12.5 41.5173 12.46 41.544 12.14 41.544C11.91 41.544 11.8 41.5084 11.82 41.4372Z" fill="#BDBDBD"/>
<path d="M71.8 41.3661C71.8 41.2237 71.87 41.1881 72.15 41.1881C72.55 41.1881 72.64 41.4017 72.28 41.4906C71.9 41.5796 71.8 41.5529 71.8 41.3661Z" fill="#BDBDBD"/>
<path d="M90.8 41.2771C90.8 41.0902 90.9 41.0635 91.28 41.1525C91.64 41.2415 91.55 41.455 91.15 41.455C90.87 41.455 90.8 41.4195 90.8 41.2771Z" fill="#BDBDBD"/>
<path d="M29.08 41.3038C28.75 41.2326 28.88 41.0101 29.25 41.0101C29.53 41.0101 29.6 41.0457 29.6 41.1881C29.6 41.366 29.46 41.3927 29.08 41.3038Z" fill="#BDBDBD"/>
<path d="M80.35 41.286C80.19 41.1436 80.34 41.0101 80.65 41.0101C80.93 41.0101 81 41.0457 81 41.1881C81 41.3305 80.94 41.366 80.7 41.3483C80.53 41.3394 80.37 41.3127 80.35 41.286Z" fill="#BDBDBD"/>
<path d="M93.88 41.2237C93.5 41.0457 93.53 40.9211 93.95 40.9211C94.26 40.9211 94.3 40.9478 94.3 41.1436C94.3 41.4017 94.25 41.4106 93.88 41.2237Z" fill="#BDBDBD"/>
<path d="M22.2 41.0991C22.2 40.9567 22.27 40.9211 22.55 40.9211C22.95 40.9211 23.04 41.1347 22.68 41.2237C22.3 41.3127 22.2 41.286 22.2 41.0991Z" fill="#BDBDBD"/>
<path d="M60.7 41.0546C60.7 40.8588 60.74 40.8321 61.05 40.8321C61.48 40.8321 61.49 40.9211 61.11 41.1258C60.73 41.3216 60.7 41.3216 60.7 41.0546Z" fill="#BDBDBD"/>
<path d="M73.5 41.0991C73.5 40.9567 73.57 40.9211 73.85 40.9211C74.25 40.9211 74.34 41.1347 73.98 41.2237C73.6 41.3127 73.5 41.286 73.5 41.0991Z" fill="#BDBDBD"/>
<path d="M39.23 41.0368C38.9 40.841 38.95 40.7431 39.35 40.7431C39.66 40.7431 39.7 40.7698 39.7 40.9656C39.7 41.2148 39.55 41.2415 39.23 41.0368Z" fill="#BDBDBD"/>
<path d="M13 40.9834C13 40.9122 13.16 40.8232 13.35 40.7698C13.68 40.6719 13.7 40.6808 13.7 40.8855C13.7 41.0724 13.65 41.0991 13.35 41.0991C13.13 41.0991 13 41.0546 13 40.9834Z" fill="#BDBDBD"/>
<path d="M89.4 40.9211C89.4 40.7342 89.5 40.7075 89.88 40.7965C90.24 40.8855 90.15 41.0991 89.75 41.0991C89.47 41.0991 89.4 41.0635 89.4 40.9211Z" fill="#BDBDBD"/>
<path d="M10.9 40.6986C10.9 40.5028 10.94 40.4762 11.26 40.4762C11.7 40.4762 11.68 40.6363 11.22 40.8054C10.91 40.9211 10.9 40.9122 10.9 40.6986Z" fill="#BDBDBD"/>
<path d="M14.32 40.5473C14.35 40.485 14.51 40.3872 14.68 40.3249C14.99 40.2092 15 40.2181 15 40.4317C15 40.6274 14.96 40.6541 14.64 40.6541C14.41 40.6541 14.3 40.6185 14.32 40.5473Z" fill="#BDBDBD"/>
<path d="M11.8 40.3427C11.8 40.1469 11.84 40.1202 12.16 40.1202C12.6 40.1202 12.58 40.2804 12.12 40.4494C11.81 40.5651 11.8 40.5562 11.8 40.3427Z" fill="#BDBDBD"/>
<path d="M86.4 40.2982C86.4 40.1113 86.5 40.0846 86.88 40.1736C87.24 40.2626 87.15 40.4762 86.75 40.4762C86.47 40.4762 86.4 40.4406 86.4 40.2982Z" fill="#BDBDBD"/>
<path d="M94.9 40.0668C94.9 39.6752 95.08 39.693 95.27 40.1024C95.4 40.3783 95.39 40.3872 95.15 40.3872C94.93 40.3872 94.9 40.3516 94.9 40.0668Z" fill="#BDBDBD"/>
<path d="M90.08 40.1469C89.75 40.0757 89.88 39.8532 90.25 39.8532C90.53 39.8532 90.6 39.8888 90.6 40.0312C90.6 40.2092 90.46 40.2359 90.08 40.1469Z" fill="#BDBDBD"/>
<path d="M68.8 39.9066C68.8 39.7909 69.08 39.6752 69.38 39.6752C69.44 39.6752 69.5 39.7553 69.5 39.8532C69.5 39.9956 69.43 40.0312 69.15 40.0312C68.92 40.0312 68.8 39.9867 68.8 39.9066Z" fill="#BDBDBD"/>
<path d="M83.5 39.8532C83.5 39.6663 83.6 39.6396 83.98 39.7286C84.34 39.8176 84.25 40.0312 83.85 40.0312C83.57 40.0312 83.5 39.9956 83.5 39.8532Z" fill="#BDBDBD"/>
<path d="M33.9 39.7197C33.9 39.4617 33.92 39.4528 34.3 39.6307C34.7 39.8176 34.68 39.9422 34.25 39.9422C33.94 39.9422 33.9 39.9155 33.9 39.7197Z" fill="#BDBDBD"/>
<path d="M64.6 39.6752C64.6 39.5328 64.67 39.4972 64.94 39.4972C65.13 39.4972 65.3 39.4527 65.32 39.4083C65.34 39.3549 65.59 39.2926 65.88 39.257C66.32 39.2125 66.4 39.2303 66.4 39.346C66.4 39.4349 66.29 39.515 66.13 39.5506C65.97 39.5773 65.62 39.6574 65.33 39.7286C64.66 39.8888 64.6 39.8888 64.6 39.6752Z" fill="#BDBDBD"/>
<path d="M74 39.4616C74 39.346 74.28 39.2303 74.58 39.2303C74.64 39.2303 74.7 39.3104 74.7 39.4083C74.7 39.5506 74.63 39.5862 74.35 39.5862C74.12 39.5862 74 39.5417 74 39.4616Z" fill="#BDBDBD"/>
<path d="M77.8 39.4083C77.8 39.2214 77.9 39.1947 78.28 39.2837C78.64 39.3727 78.55 39.5862 78.15 39.5862C77.87 39.5862 77.8 39.5506 77.8 39.4083Z" fill="#BDBDBD"/>
<path d="M66.5 39.2837C66.5 39.1057 66.58 39.0701 67.14 38.9811C67.97 38.8387 68.2 38.8476 68.2 38.9989C68.2 39.0879 68 39.1591 67.63 39.2303C67.31 39.2837 66.93 39.3638 66.78 39.4082C66.53 39.4794 66.5 39.4705 66.5 39.2837Z" fill="#BDBDBD"/>
<path d="M86.63 39.4349C86.35 39.3371 86.5 39.1413 86.85 39.1413C87.13 39.1413 87.2 39.1769 87.2 39.3193C87.2 39.4972 86.94 39.5506 86.63 39.4349Z" fill="#BDBDBD"/>
<path d="M7.33 39.1235C7.52 38.7141 7.7 38.6963 7.7 39.0879C7.7 39.3727 7.67 39.4083 7.45 39.4083C7.21 39.4083 7.2 39.3994 7.33 39.1235Z" fill="#BDBDBD"/>
<path d="M15.9 38.9633C15.9 38.8209 15.97 38.7853 16.25 38.7853C16.65 38.7853 16.74 38.9989 16.38 39.0879C16 39.1769 15.9 39.1502 15.9 38.9633Z" fill="#BDBDBD"/>
<path d="M83.88 38.99C83.55 38.9188 83.68 38.6963 84.05 38.6963C84.33 38.6963 84.4 38.7319 84.4 38.8743C84.4 39.0523 84.26 39.079 83.88 38.99Z" fill="#BDBDBD"/>
<path d="M69.4 38.7853C69.4 38.6429 69.47 38.6073 69.75 38.6073C70.15 38.6073 70.24 38.8209 69.88 38.9099C69.5 38.9989 69.4 38.9722 69.4 38.7853Z" fill="#BDBDBD"/>
<path d="M28.8 38.6963C28.8 38.5095 28.9 38.4828 29.28 38.5717C29.64 38.6607 29.55 38.8743 29.15 38.8743C28.87 38.8743 28.8 38.8387 28.8 38.6963Z" fill="#BDBDBD"/>
<path d="M81.28 38.723C80.95 38.6518 81.08 38.4294 81.45 38.4294C81.73 38.4294 81.8 38.4649 81.8 38.6073C81.8 38.7853 81.66 38.812 81.28 38.723Z" fill="#BDBDBD"/>
<path d="M18 38.465C18 38.2781 18.05 38.2514 18.35 38.2514C18.57 38.2514 18.7 38.2959 18.7 38.3671C18.7 38.4383 18.54 38.5272 18.35 38.5806C18.02 38.6785 18 38.6696 18 38.465Z" fill="#BDBDBD"/>
<path d="M73.7 38.4294C73.7 38.287 73.77 38.2514 74.05 38.2514C74.45 38.2514 74.54 38.465 74.18 38.5539C73.8 38.6429 73.7 38.6162 73.7 38.4294Z" fill="#BDBDBD"/>
<path d="M78.28 38.545C77.95 38.4738 78.08 38.2514 78.45 38.2514C78.73 38.2514 78.8 38.287 78.8 38.4294C78.8 38.6073 78.66 38.634 78.28 38.545Z" fill="#BDBDBD"/>
<path d="M21.5 37.8064C21.5 37.664 21.57 37.6284 21.85 37.6284C22.25 37.6284 22.34 37.842 21.98 37.931C21.6 38.02 21.5 37.9933 21.5 37.8064Z" fill="#BDBDBD"/>
<path d="M8.1 37.753C8.1 37.6462 8.44 37.1835 8.52 37.1835C8.56 37.1835 8.6 37.3259 8.6 37.495C8.6 37.7708 8.57 37.8064 8.35 37.8064C8.21 37.8064 8.1 37.7797 8.1 37.753Z" fill="#BDBDBD"/>
<path d="M24.8 37.5394C24.8 37.3971 24.87 37.3615 25.15 37.3615C25.55 37.3615 25.64 37.575 25.28 37.664C24.9 37.753 24.8 37.7263 24.8 37.5394Z" fill="#BDBDBD"/>
<path d="M26.08 37.6551C25.72 37.575 25.88 37.3615 26.3 37.3615C26.63 37.3615 26.7 37.3882 26.7 37.5394C26.7 37.7174 26.5 37.753 26.08 37.6551Z" fill="#BDBDBD"/>
<path d="M9.8 34.9943C9.8 34.8875 10.45 33.9798 10.52 33.9798C10.57 33.9798 10.6 34.1222 10.6 34.2913C10.6 34.5049 10.55 34.6027 10.45 34.6027C10.36 34.6027 10.3 34.6828 10.3 34.8252C10.3 35.0032 10.25 35.0477 10.05 35.0477C9.91 35.0477 9.8 35.021 9.8 34.9943Z" fill="#BDBDBD"/>
<path d="M89.7 31.7817C89.7 31.4614 89.7 31.4614 89.95 31.6661C90.09 31.7817 90.2 31.9241 90.2 31.9953C90.2 32.0576 90.09 32.111 89.95 32.111C89.73 32.111 89.7 32.0754 89.7 31.7817Z" fill="#BDBDBD"/>
<path d="M12.59 31.0253C12.87 30.6249 13 30.616 13 30.9897C13 31.2923 12.98 31.3101 12.69 31.3101C12.38 31.3101 12.38 31.3101 12.59 31.0253Z" fill="#BDBDBD"/>
<path d="M88.3 30.0108C88.3 29.6638 88.39 29.6727 88.7 30.0642C88.91 30.3312 88.91 30.3312 88.61 30.3312C88.32 30.3312 88.3 30.3045 88.3 30.0108Z" fill="#BDBDBD"/>
<path d="M87.7 29.3968C87.7 29.2366 87.65 29.1743 87.5 29.1743C87.33 29.1743 87.3 29.112 87.3 28.845C87.31 28.5069 87.31 28.5069 87.61 28.8183C87.78 28.9874 88 29.2366 88.11 29.379C88.31 29.6193 88.31 29.6193 88.01 29.6193C87.75 29.6193 87.7 29.5837 87.7 29.3968Z" fill="#BDBDBD"/>
<path d="M88.08 28.1954C87.8 27.8839 87.8 27.8839 88.06 27.8572C88.39 27.8216 88.42 27.8483 88.38 28.2043C88.35 28.5069 88.35 28.5069 88.08 28.1954Z" fill="#BDBDBD"/>
<path d="M14.4 27.3767C14.4 27.0563 14.42 27.0385 14.7 27.0385C14.87 27.0385 15 27.0563 15 27.0919C15 27.1186 14.87 27.261 14.7 27.4212C14.4 27.706 14.4 27.706 14.4 27.3767Z" fill="#BDBDBD"/>
<path d="M16.3 26.8605C16.61 26.469 16.7 26.4601 16.7 26.8072C16.7 27.1008 16.68 27.1275 16.39 27.1275C16.09 27.1275 16.09 27.1275 16.3 26.8605Z" fill="#BDBDBD"/>
<path d="M11.16 26.6648C11.06 26.3266 11.09 26.2376 11.3 26.2376C11.46 26.2376 11.5 26.2999 11.5 26.5491C11.5 26.905 11.26 26.9851 11.16 26.6648Z" fill="#BDBDBD"/>
<path d="M86.58 26.5936C86.3 26.2821 86.3 26.2821 86.56 26.2554C86.89 26.2198 86.92 26.2465 86.88 26.6025C86.85 26.905 86.85 26.905 86.58 26.5936Z" fill="#BDBDBD"/>
<path d="M89.8 26.1041C89.8 25.8549 89.84 25.7927 90 25.7927C90.2 25.7927 90.26 25.9884 90.14 26.2732C90.02 26.5402 89.8 26.4334 89.8 26.1041Z" fill="#BDBDBD"/>
<path d="M16 25.7838C16 25.4011 16.18 25.232 16.56 25.2765C16.82 25.3032 16.82 25.3032 16.42 25.7037C16.01 26.1041 16.01 26.1041 16 25.7838Z" fill="#BDBDBD"/>
<path d="M84.04 25.846C84.01 25.7749 84 25.6325 84.02 25.5257C84.05 25.3477 84.07 25.3477 84.45 25.6503C84.85 25.9617 84.85 25.9617 84.47 25.9706C84.23 25.9706 84.07 25.9261 84.04 25.846Z" fill="#BDBDBD"/>
<path d="M16.9 24.9116C16.9 24.6536 16.93 24.6358 17.26 24.6358C17.65 24.6358 17.64 24.7159 17.2 24.9917C16.9 25.1786 16.9 25.1786 16.9 24.9116Z" fill="#BDBDBD"/>
<path d="M90.2 24.2353C90.2 23.9861 90.24 23.9239 90.4 23.9239C90.61 23.9239 90.64 24.0128 90.54 24.351C90.44 24.6714 90.2 24.5913 90.2 24.2353Z" fill="#BDBDBD"/>
<path d="M83.2 23.6925C82.85 23.3899 82.85 23.3899 83.23 23.3899C83.59 23.3899 83.6 23.3988 83.6 23.7014C83.6 23.8705 83.59 24.0128 83.58 24.0039C83.56 23.995 83.39 23.8616 83.2 23.6925Z" fill="#BDBDBD"/>
<path d="M10.56 23.7281C10.46 23.3899 10.49 23.3009 10.7 23.3009C10.86 23.3009 10.9 23.3632 10.9 23.6124C10.9 23.9683 10.66 24.0484 10.56 23.7281Z" fill="#BDBDBD"/>
<path d="M18.7 23.4789C18.7 23.2297 18.72 23.2119 19.08 23.2119C19.45 23.2119 19.45 23.2119 19.13 23.4789C18.95 23.6302 18.79 23.7459 18.76 23.7459C18.72 23.7459 18.7 23.6302 18.7 23.4789Z" fill="#BDBDBD"/>
<path d="M90.4 23.2564C90.4 23.0072 90.44 22.945 90.6 22.945C90.81 22.945 90.84 23.0339 90.74 23.3721C90.64 23.6925 90.4 23.6124 90.4 23.2564Z" fill="#BDBDBD"/>
<path d="M21.46 22.7581C21.56 22.6602 21.73 22.5356 21.82 22.4911C21.97 22.4199 22 22.4466 22 22.678C22 22.9272 21.97 22.945 21.63 22.945C21.27 22.945 21.27 22.945 21.46 22.7581Z" fill="#BDBDBD"/>
<path d="M81.63 22.5623C81.21 22.3131 81.22 22.233 81.65 22.233C81.97 22.233 82 22.2508 82 22.5C82 22.6513 81.99 22.767 81.98 22.7581C81.96 22.7581 81.8 22.6691 81.63 22.5623Z" fill="#BDBDBD"/>
<path d="M79.5 22.322C79.5 22.0906 79.53 22.0639 79.68 22.1351C79.77 22.1796 79.94 22.3042 80.04 22.4021C80.23 22.589 80.23 22.589 79.87 22.589C79.53 22.589 79.5 22.5712 79.5 22.322Z" fill="#BDBDBD"/>
<path d="M10.26 22.1262C10.16 21.7881 10.19 21.6991 10.4 21.6991C10.56 21.6991 10.6 21.7614 10.6 22.0105C10.6 22.3665 10.36 22.4466 10.26 22.1262Z" fill="#BDBDBD"/>
<path d="M21.3 21.6991C21.3 21.4499 21.33 21.4321 21.67 21.4321C22.03 21.4321 22.03 21.4321 21.84 21.619C21.74 21.7169 21.57 21.8415 21.48 21.886C21.33 21.9572 21.3 21.9305 21.3 21.6991Z" fill="#BDBDBD"/>
<path d="M9.86 19.8125C9.76 19.4743 9.79 19.3853 10 19.3853C10.16 19.3853 10.2 19.4476 10.2 19.6968C10.2 20.0528 9.96 20.1328 9.86 19.8125Z" fill="#BDBDBD"/>
<path d="M91.1 19.5188C91.1 19.2696 91.14 19.2073 91.3 19.2073C91.51 19.2073 91.54 19.2963 91.44 19.6345C91.34 19.9549 91.1 19.8748 91.1 19.5188Z" fill="#BDBDBD"/>
<path d="M26.5 18.8959C26.5 18.7357 26.55 18.6734 26.7 18.6734C26.81 18.6734 26.9 18.6378 26.9 18.5844C26.9 18.5399 27.06 18.4954 27.25 18.4954C27.44 18.4954 27.6 18.531 27.6 18.5755C27.6 18.6467 26.68 19.1183 26.54 19.1183C26.52 19.1183 26.5 19.0205 26.5 18.8959Z" fill="#BDBDBD"/>
<path d="M21.54 18.4598C21.51 18.3886 21.5 18.2462 21.52 18.1394C21.55 17.9615 21.57 17.9615 21.95 18.264C22.35 18.5755 22.35 18.5755 21.97 18.5844C21.73 18.5844 21.57 18.5399 21.54 18.4598Z" fill="#BDBDBD"/>
<path d="M30.52 18.3886C30.55 18.3263 30.71 18.2284 30.88 18.1661C31.19 18.0505 31.2 18.0594 31.2 18.2729C31.2 18.4687 31.16 18.4954 30.84 18.4954C30.61 18.4954 30.5 18.4598 30.52 18.3886Z" fill="#BDBDBD"/>
<path d="M70.6 18.1839C70.6 17.9704 70.61 17.9615 70.92 18.0772C71.38 18.2462 71.4 18.4064 70.96 18.4064C70.64 18.4064 70.6 18.3797 70.6 18.1839Z" fill="#BDBDBD"/>
<path d="M73.53 18.2729C73.1 18.1127 73.11 17.9615 73.55 17.9615C73.86 17.9615 73.9 17.9882 73.9 18.1839C73.9 18.3085 73.89 18.4064 73.88 18.4064C73.86 18.3975 73.7 18.3441 73.53 18.2729Z" fill="#BDBDBD"/>
<path d="M9.56 17.8547C9.46 17.5165 9.49 17.4275 9.7 17.4275C9.86 17.4275 9.9 17.4898 9.9 17.739C9.9 18.095 9.66 18.175 9.56 17.8547Z" fill="#BDBDBD"/>
<path d="M69 17.65C69 17.4364 69.01 17.4275 69.32 17.5432C69.78 17.7123 69.8 17.8725 69.36 17.8725C69.04 17.8725 69 17.8458 69 17.65Z" fill="#BDBDBD"/>
<path d="M29.8 17.5521C29.8 17.3652 29.85 17.3385 30.15 17.3385C30.37 17.3385 30.5 17.383 30.5 17.4542C30.5 17.5254 30.34 17.6144 30.15 17.6678C29.82 17.7657 29.8 17.7568 29.8 17.5521Z" fill="#BDBDBD"/>
<path d="M30.8 17.205C30.8 17.0093 30.84 16.9826 31.15 16.9826C31.58 16.9826 31.6 17.1072 31.2 17.294C30.82 17.472 30.8 17.4631 30.8 17.205Z" fill="#BDBDBD"/>
<path d="M70.63 17.205C70.2 17.0449 70.21 16.8936 70.65 16.8936C70.96 16.8936 71 16.9203 71 17.1161C71 17.2406 70.99 17.3385 70.98 17.3385C70.96 17.3296 70.8 17.2762 70.63 17.205Z" fill="#BDBDBD"/>
<path d="M19.8 16.7957C19.8 16.5287 19.8 16.5287 20.1 16.7156C20.54 16.9915 20.55 17.0716 20.16 17.0716C19.83 17.0716 19.8 17.0538 19.8 16.7957Z" fill="#BDBDBD"/>
<path d="M21.3 16.7156C20.95 16.4575 20.95 16.4575 21.33 16.4486C21.68 16.4486 21.7 16.4664 21.7 16.7156C21.7 16.8669 21.69 16.9826 21.67 16.9826C21.66 16.9826 21.49 16.8669 21.3 16.7156Z" fill="#BDBDBD"/>
<path d="M79.75 16.8046C79.78 16.7601 79.94 16.6355 80.1 16.5376C80.4 16.3507 80.4 16.3507 80.4 16.6177C80.4 16.8758 80.37 16.8936 80.04 16.8936C79.84 16.8936 79.71 16.858 79.75 16.8046Z" fill="#BDBDBD"/>
<path d="M91.6 16.3151C91.6 16.066 91.64 16.0037 91.8 16.0037C92.01 16.0037 92.04 16.0927 91.94 16.4308C91.84 16.7512 91.6 16.6711 91.6 16.3151Z" fill="#BDBDBD"/>
<path d="M9.39 16.4308C9.39 16.413 9.36 16.2706 9.34 16.1194C9.3 15.8702 9.32 15.8257 9.49 15.8257C9.66 15.8257 9.7 15.8791 9.7 16.1372C9.7 16.3507 9.65 16.4486 9.55 16.4486C9.47 16.4486 9.4 16.4397 9.39 16.4308Z" fill="#BDBDBD"/>
<path d="M67.88 16.3863C67.55 16.3151 67.68 16.0927 68.05 16.0927C68.33 16.0927 68.4 16.1283 68.4 16.2706C68.4 16.4486 68.26 16.4753 67.88 16.3863Z" fill="#BDBDBD"/>
<path d="M38.7 16.1461C38.7 16.0126 38.91 15.9147 39.21 15.9147C39.33 15.9147 39.4 15.977 39.4 16.0927C39.4 16.235 39.33 16.2706 39.05 16.2706C38.82 16.2706 38.7 16.2261 38.7 16.1461Z" fill="#BDBDBD"/>
<path d="M61.48 16.0304C61.28 16.0037 61.2 15.9414 61.2 15.8079C61.2 15.6477 61.24 15.6388 61.63 15.6922C62.27 15.7812 62.4 15.8257 62.4 15.9681C62.4 16.0927 62.1 16.1105 61.48 16.0304Z" fill="#BDBDBD"/>
<path d="M66.62 16.0126C66.52 15.9592 66.58 15.8702 66.87 15.6566C67.25 15.3718 67.25 15.3718 67.28 15.6032C67.33 15.9681 66.95 16.1994 66.62 16.0126Z" fill="#BDBDBD"/>
<path d="M19.9 15.5587C19.55 15.3006 19.55 15.3006 19.93 15.2917C20.28 15.2917 20.3 15.3095 20.3 15.5587C20.3 15.71 20.29 15.8257 20.27 15.8257C20.26 15.8257 20.09 15.71 19.9 15.5587Z" fill="#BDBDBD"/>
<path d="M58.8 15.4697C58.8 15.2828 58.9 15.2561 59.28 15.3451C59.64 15.4341 59.55 15.6477 59.15 15.6477C58.87 15.6477 58.8 15.6121 58.8 15.4697Z" fill="#BDBDBD"/>
<path d="M58 15.3718C58 15.2205 58.05 15.1939 58.32 15.2294C58.53 15.2472 58.66 15.3184 58.68 15.4074C58.71 15.5231 58.64 15.5587 58.36 15.5587C58.06 15.5587 58 15.5231 58 15.3718Z" fill="#BDBDBD"/>
<path d="M57.2 15.2828C57.2 15.1316 57.25 15.1049 57.52 15.1405C57.73 15.1583 57.86 15.2294 57.88 15.3184C57.91 15.4341 57.84 15.4697 57.56 15.4697C57.26 15.4697 57.2 15.4341 57.2 15.2828Z" fill="#BDBDBD"/>
<path d="M81.45 15.3807C81.48 15.3362 81.64 15.2117 81.8 15.1138C82.1 14.9269 82.1 14.9269 82.1 15.1939C82.1 15.4519 82.07 15.4697 81.74 15.4697C81.54 15.4697 81.41 15.4341 81.45 15.3807Z" fill="#BDBDBD"/>
<path d="M45.02 15.2294C45.04 15.1405 45.17 15.0693 45.38 15.0515C45.65 15.0159 45.7 15.0426 45.7 15.1939C45.7 15.3451 45.64 15.3807 45.34 15.3807C45.06 15.3807 44.99 15.3451 45.02 15.2294Z" fill="#BDBDBD"/>
<path d="M56.4 15.2028C56.4 15.0159 56.5 14.9892 56.88 15.0782C57.24 15.1672 57.15 15.3807 56.75 15.3807C56.47 15.3807 56.4 15.3451 56.4 15.2028Z" fill="#BDBDBD"/>
<path d="M17.5 14.9002C17.5 14.5976 17.5 14.5976 17.85 14.8735C18.04 15.0248 18.2 15.1583 18.2 15.1761C18.2 15.1939 18.04 15.2028 17.85 15.2028C17.52 15.2028 17.5 15.185 17.5 14.9002Z" fill="#BDBDBD"/>
<path d="M47.9 15.0782C47.9 14.9625 48.18 14.8468 48.48 14.8468C48.54 14.8468 48.6 14.9269 48.6 15.0248C48.6 15.1672 48.53 15.2028 48.25 15.2028C48.02 15.2028 47.9 15.1583 47.9 15.0782Z" fill="#BDBDBD"/>
<path d="M53.4 15.0248C53.4 14.8379 53.5 14.8112 53.88 14.9002C54.24 14.9892 54.15 15.2028 53.75 15.2028C53.47 15.2028 53.4 15.1672 53.4 15.0248Z" fill="#BDBDBD"/>
<path d="M80.5 14.8557C80.5 14.5976 80.53 14.5798 80.86 14.5798C81.25 14.5798 81.24 14.6599 80.8 14.9358C80.5 15.1227 80.5 15.1227 80.5 14.8557Z" fill="#BDBDBD"/>
<path d="M68.35 14.5175C68.52 14.3929 68.84 14.1349 69.08 13.948C69.5 13.6098 69.5 13.6098 69.5 13.9213C69.5 14.2061 69.48 14.2239 69.15 14.2239C68.83 14.2239 68.8 14.2417 68.8 14.4908C68.8 14.74 68.78 14.7578 68.43 14.7578C68.05 14.7489 68.05 14.7489 68.35 14.5175Z" fill="#BDBDBD"/>
<path d="M16.7 14.3573C16.7 14.1705 16.65 14.1349 16.4 14.1349C16.13 14.1349 16.1 14.1082 16.1 13.8679C16.1 13.7255 16.12 13.6009 16.15 13.6009C16.2 13.6009 16.46 13.7967 17.09 14.2861C17.45 14.5798 17.45 14.5798 17.08 14.5798C16.74 14.5798 16.7 14.5531 16.7 14.3573Z" fill="#BDBDBD"/>
<path d="M32.4 14.3039C32.4 14.037 32.4 14.037 32.7 14.2239C33.14 14.4997 33.15 14.5798 32.76 14.5798C32.43 14.5798 32.4 14.562 32.4 14.3039Z" fill="#BDBDBD"/>
<path d="M17.9 13.9925C17.55 13.6899 17.55 13.6899 17.93 13.6899C18.29 13.6899 18.3 13.6988 18.3 14.0014C18.3 14.1705 18.29 14.3128 18.28 14.3039C18.26 14.295 18.09 14.1616 17.9 13.9925Z" fill="#BDBDBD"/>
<path d="M81.7 13.9035C81.7 13.6187 81.72 13.6009 82.05 13.6009C82.24 13.6009 82.4 13.6098 82.4 13.6276C82.4 13.6454 82.24 13.7789 82.05 13.9302C81.7 14.2061 81.7 14.2061 81.7 13.9035Z" fill="#BDBDBD"/>
<path d="M83.87 13.4229C84.05 13.2717 84.21 13.156 84.24 13.156C84.28 13.156 84.3 13.2806 84.3 13.4229C84.3 13.6721 84.28 13.6899 83.93 13.6899C83.55 13.6899 83.55 13.6899 83.87 13.4229Z" fill="#BDBDBD"/>
<path d="M9.16 13.2005C9.08 12.9068 9.19 12.533 9.36 12.533C9.46 12.533 9.5 12.6576 9.5 12.978C9.5 13.4674 9.27 13.6098 9.16 13.2005Z" fill="#BDBDBD"/>
<path d="M30.9 13.2005C30.9 13.0136 30.85 12.978 30.6 12.978C30.35 12.978 30.3 12.9424 30.3 12.7555C30.3 12.5686 30.25 12.533 30 12.533C29.75 12.533 29.7 12.4974 29.7 12.3106C29.7 12.1237 29.65 12.0881 29.4 12.0881C29.13 12.0881 29.1 12.0614 29.1 11.8122C29.1 11.5363 29.1 11.5363 29.48 11.7855C29.68 11.9279 29.9 12.0792 29.96 12.1326C30.02 12.1771 30.26 12.3639 30.5 12.533C30.74 12.7021 31.09 12.978 31.29 13.1293C31.65 13.4229 31.65 13.4229 31.28 13.4229C30.94 13.4229 30.9 13.3962 30.9 13.2005Z" fill="#BDBDBD"/>
<path d="M70.57 12.8178C71.25 12.275 71.5 12.0881 71.55 12.0881C71.58 12.0881 71.6 12.2127 71.6 12.355C71.6 12.6042 71.57 12.622 71.25 12.622C70.93 12.622 70.9 12.6398 70.9 12.889C70.9 13.1382 70.88 13.156 70.53 13.156C70.15 13.156 70.15 13.156 70.57 12.8178Z" fill="#BDBDBD"/>
<path d="M14.6 12.7911C14.6 12.5241 14.6 12.5241 14.9 12.711C15.34 12.9869 15.35 13.067 14.96 13.067C14.63 13.067 14.6 13.0492 14.6 12.7911Z" fill="#BDBDBD"/>
<path d="M16.3 12.8267C16.3 12.7822 16.08 12.6131 15.8 12.444C15.53 12.275 15.31 12.1059 15.3 12.0703C15.3 12.0258 15.46 11.9991 15.65 11.9991C15.93 11.9991 16 12.0347 16 12.1771C16 12.3106 16.07 12.355 16.25 12.355C16.46 12.355 16.5 12.3995 16.5 12.622C16.5 12.7733 16.46 12.889 16.4 12.889C16.35 12.889 16.3 12.8623 16.3 12.8267Z" fill="#BDBDBD"/>
<path d="M85.65 12.1059C85.82 11.9724 86.1 11.7677 86.28 11.652C86.6 11.4562 86.6 11.4562 86.6 11.7232C86.6 11.9546 86.56 11.9991 86.35 11.9991C86.17 11.9991 86.1 12.0436 86.1 12.1771C86.1 12.3194 86.03 12.355 85.73 12.355C85.35 12.355 85.35 12.355 85.65 12.1059Z" fill="#BDBDBD"/>
<path d="M84.1 12.008C84.1 11.7499 84.13 11.7321 84.46 11.7321C84.85 11.7321 84.84 11.8122 84.4 12.0881C84.1 12.275 84.1 12.275 84.1 12.008Z" fill="#BDBDBD"/>
<path d="M13.1 11.9101C13.1 11.7677 13.03 11.7321 12.8 11.7321C12.55 11.7321 12.5 11.6965 12.5 11.5096C12.5 11.2427 12.7 11.216 12.95 11.4651C13.05 11.563 13.18 11.6431 13.24 11.6431C13.36 11.652 13.8 11.9546 13.8 12.0347C13.8 12.0614 13.64 12.0881 13.45 12.0881C13.17 12.0881 13.1 12.0525 13.1 11.9101Z" fill="#BDBDBD"/>
<path d="M14.38 11.4651C14.05 11.2071 14.05 11.2071 14.43 11.1982C14.78 11.1982 14.8 11.216 14.8 11.4651C14.8 11.6164 14.78 11.7321 14.75 11.7321C14.72 11.7321 14.56 11.6164 14.38 11.4651Z" fill="#BDBDBD"/>
<path d="M11.22 11.0291C11.14 10.9935 11.1 10.8689 11.12 10.7621C11.15 10.5752 11.15 10.5752 11.58 10.7621C11.81 10.8689 12 10.9846 12 11.0291C12 11.127 11.39 11.1359 11.22 11.0291Z" fill="#BDBDBD"/>
<path d="M85.7 10.8511C85.7 10.593 85.73 10.5752 86.06 10.5752C86.45 10.5752 86.44 10.6553 86 10.9312C85.7 11.1181 85.7 11.1181 85.7 10.8511Z" fill="#BDBDBD"/>
<path d="M73.25 10.8422C73.28 10.7977 73.44 10.6731 73.6 10.5752C73.9 10.3883 73.9 10.3883 73.9 10.6553C73.9 10.9134 73.87 10.9312 73.54 10.9312C73.34 10.9312 73.21 10.8956 73.25 10.8422Z" fill="#BDBDBD"/>
<path d="M91.9 10.3528C91.9 9.99679 92.14 9.9167 92.24 10.246C92.34 10.5752 92.31 10.6642 92.1 10.6642C91.94 10.6642 91.9 10.6019 91.9 10.3528Z" fill="#BDBDBD"/>
<path d="M9.8 9.48954C9.8 9.36495 9.88 9.32936 10.15 9.32936C10.43 9.32936 10.5 9.36495 10.5 9.50734C10.5 9.64972 10.44 9.67642 10.15 9.66752C9.88 9.65862 9.8 9.61413 9.8 9.48954Z" fill="#BDBDBD"/>
<path d="M90.8 9.29376C90.8 9.17807 91.08 9.06239 91.38 9.06239C91.44 9.06239 91.5 9.14248 91.5 9.24037C91.5 9.38275 91.43 9.41835 91.15 9.41835C90.92 9.41835 90.8 9.37385 90.8 9.29376Z" fill="#BDBDBD"/>
<path d="M76.85 8.26147C76.88 8.21697 77.04 8.09239 77.2 7.9945C77.5 7.80761 77.5 7.80761 77.5 8.07459C77.5 8.33266 77.47 8.35046 77.14 8.35046C76.94 8.35046 76.81 8.31486 76.85 8.26147Z" fill="#BDBDBD"/>
<path d="M23.7 7.90551C23.7 7.63853 23.7 7.63853 24.05 7.83431C24.49 8.09239 24.49 8.17248 24.05 8.17248C23.73 8.17248 23.7 8.15468 23.7 7.90551Z" fill="#BDBDBD"/>
<path d="M22 6.73972C22 6.47275 22 6.47275 22.3 6.65963C22.74 6.93551 22.75 7.0156 22.36 7.0156C22.03 7.0156 22 6.9978 22 6.73972Z" fill="#BDBDBD"/>
<path d="M81.1 5.36927C81.17 5.29807 81.49 5.0756 81.81 4.87982C82.4 4.52385 82.4 4.52385 82.4 4.79083C82.4 5.04 82.37 5.0578 82.05 5.0578C81.74 5.0578 81.7 5.0845 81.7 5.28028C81.7 5.47606 81.66 5.50275 81.34 5.50275C81.03 5.50275 80.99 5.48495 81.1 5.36927Z" fill="#BDBDBD"/>
<path d="M19.6 5.13789C19.6 4.87092 19.6 4.87092 19.9 5.0578C20.34 5.33367 20.35 5.41376 19.96 5.41376C19.63 5.41376 19.6 5.39596 19.6 5.13789Z" fill="#BDBDBD"/>
<path d="M9.2 3.73183C9.2 3.46486 9.31 3.27798 9.46 3.27798C9.55 3.27798 9.6 3.38477 9.6 3.58945C9.6 3.83862 9.56 3.90092 9.4 3.90092C9.27 3.90092 9.2 3.83862 9.2 3.73183Z" fill="#BDBDBD"/>
<path d="M91.62 2.91312C91.46 2.31688 91.47 2.03211 91.64 2.03211C91.72 2.03211 91.84 2.24569 91.94 2.61055C92.14 3.33137 92.14 3.36697 91.92 3.36697C91.78 3.36697 91.71 3.25128 91.62 2.91312Z" fill="#BDBDBD"/>
<path d="M85.6 2.67285C85.6 2.60165 86.12 2.29908 86.24 2.29908C86.27 2.29908 86.3 2.39697 86.3 2.52156C86.3 2.71734 86.26 2.74404 85.95 2.74404C85.76 2.74404 85.6 2.70844 85.6 2.67285Z" fill="#BDBDBD"/>
<path d="M14.1 1.97872C14.1 1.85413 14.13 1.76514 14.18 1.78294C14.91 2.09441 14.98 2.21009 14.45 2.21009C14.14 2.21009 14.1 2.1834 14.1 1.97872Z" fill="#BDBDBD"/>
<path d="M9.93 1.39137C10.12 0.982017 10.3 0.964219 10.3 1.35578C10.3 1.64055 10.27 1.67615 10.05 1.67615C9.81 1.67615 9.8 1.66725 9.93 1.39137Z" fill="#BDBDBD"/>
<path d="M90.8 0.91972C90.8 0.795133 90.83 0.697243 90.86 0.697243C90.99 0.697243 91.28 0.884123 91.34 1.00871C91.38 1.1066 91.32 1.1422 91.1 1.1422C90.85 1.1422 90.8 1.1066 90.8 0.91972Z" fill="#BDBDBD"/>
</svg>
