<svg width="101" height="84" viewBox="0 0 101 84" fill="none" xmlns="http://www.w3.org/2000/svg">
<path d="M48.78 83.6634C48.45 83.5922 48.58 83.3697 48.95 83.3697C49.23 83.3697 49.3 83.4053 49.3 83.5477C49.3 83.7257 49.16 83.7524 48.78 83.6634Z" fill="#9C9C9C"/>
<path d="M47.68 83.5744C47.35 83.5032 47.48 83.2807 47.85 83.2807C48.13 83.2807 48.2 83.3163 48.2 83.4587C48.2 83.6367 48.06 83.6634 47.68 83.5744Z" fill="#9C9C9C"/>
<path d="M53.5 83.2362C53.5 83.0316 53.79 82.9248 54.36 82.9248C54.49 82.9248 54.6 82.8892 54.6 82.8358C54.6 82.7913 54.76 82.7468 54.95 82.7468C55.5 82.7468 55.34 83.0494 54.75 83.1383C54.58 83.165 54.24 83.2451 53.98 83.3163C53.51 83.4409 53.5 83.4409 53.5 83.2362Z" fill="#9C9C9C"/>
<path d="M55.4 82.6934C55.4 82.5065 55.45 82.4798 55.75 82.4798C56.26 82.4798 56.17 82.7379 55.63 82.8625C55.44 82.8981 55.4 82.8714 55.4 82.6934V82.6934Z" fill="#9C9C9C"/>
<path d="M43.95 82.6845C43.43 82.5688 43.36 82.3018 43.85 82.3018C44.16 82.3018 44.2 82.3285 44.2 82.5243C44.2 82.6489 44.19 82.7379 44.18 82.7379C44.16 82.729 44.06 82.7023 43.95 82.6845V82.6845Z" fill="#9C9C9C"/>
<path d="M47.98 82.2395C47.87 82.2128 47.8 82.1149 47.8 81.9904C47.8 81.7857 47.8 81.7857 48.3 81.9281C48.87 82.0882 48.98 82.3107 48.48 82.2929C48.3 82.284 48.07 82.2662 47.98 82.2395Z" fill="#9C9C9C"/>
<path d="M57.2 81.9014C57.2 81.7056 57.24 81.6789 57.55 81.6789C57.86 81.6789 57.9 81.6522 57.9 81.4564C57.9 81.2606 57.94 81.2339 58.25 81.2339C58.44 81.2339 58.6 81.2606 58.6 81.3051C58.59 81.3763 57.39 82.1239 57.27 82.1239C57.23 82.1239 57.2 82.026 57.2 81.9014Z" fill="#9C9C9C"/>
<path d="M41.83 81.5632C41.41 81.314 41.42 81.2339 41.85 81.2339C42.17 81.2339 42.2 81.2517 42.2 81.5009C42.2 81.6522 42.19 81.7679 42.18 81.759C42.16 81.759 42 81.67 41.83 81.5632Z" fill="#9C9C9C"/>
<path d="M48.88 81.3496C48.55 81.2785 48.68 81.056 49.05 81.056C49.33 81.056 49.4 81.0916 49.4 81.234C49.4 81.4119 49.26 81.4386 48.88 81.3496Z" fill="#9C9C9C"/>
<path d="M51.76 81.3496C51.73 81.314 51.7 81.2161 51.7 81.1272C51.7 81.0115 51.8 80.9581 52.1 80.9136C52.32 80.878 52.5 80.8246 52.5 80.7801C52.5 80.7356 52.66 80.7 52.86 80.7C53.39 80.7 53.28 80.878 52.6 81.1272C52.46 81.1717 52.23 81.2517 52.08 81.3051C51.94 81.3585 51.79 81.3763 51.76 81.3496V81.3496Z" fill="#9C9C9C"/>
<path d="M55.35 80.7C55.38 80.6555 55.54 80.5309 55.7 80.433C56 80.2461 56 80.2461 56 80.5131C56 80.7712 55.97 80.789 55.64 80.789C55.44 80.789 55.31 80.7534 55.35 80.7Z" fill="#9C9C9C"/>
<path d="M46.23 80.2639C45.92 80.0326 45.94 79.9881 46.35 79.9881C46.66 79.9881 46.7 80.0148 46.7 80.2105C46.7 80.4775 46.54 80.4864 46.23 80.2639Z" fill="#9C9C9C"/>
<path d="M54.7 79.8546C54.7 79.6588 54.74 79.6321 55.08 79.6321C55.45 79.641 55.45 79.641 55.17 79.8546C54.81 80.1394 54.7 80.1305 54.7 79.8546V79.8546Z" fill="#9C9C9C"/>
<path d="M59.8 79.7745C59.8 79.4808 59.82 79.4541 60.11 79.4541C60.41 79.4541 60.41 79.4541 60.2 79.7211C59.89 80.1127 59.8 80.1216 59.8 79.7745Z" fill="#9C9C9C"/>
<path d="M45.3 79.73C45.3 79.6855 45.21 79.6232 45.11 79.5876C45 79.5609 44.89 79.4808 44.86 79.4096C44.82 79.3117 44.89 79.2761 45.15 79.2761C45.47 79.2761 45.5 79.2939 45.5 79.5431C45.5 79.6944 45.46 79.8101 45.4 79.8101C45.35 79.8101 45.3 79.7745 45.3 79.73Z" fill="#9C9C9C"/>
<path d="M39.18 78.7867C38.94 78.493 38.96 78.3862 39.25 78.3862C39.47 78.3862 39.5 78.4218 39.5 78.6977C39.5 79.0626 39.42 79.0893 39.18 78.7867Z" fill="#9C9C9C"/>
<path d="M42.36 78.5998C42.25 78.3506 42.29 77.9235 42.42 77.9591C42.56 78.0036 42.88 78.4663 42.89 78.6354C42.9 78.7956 42.43 78.7689 42.36 78.5998V78.5998Z" fill="#9C9C9C"/>
<path d="M43.41 77.9947C43.35 77.9324 43.27 77.7099 43.24 77.5052C43.19 77.1849 43.21 77.1404 43.38 77.1404C43.52 77.1404 43.59 77.2205 43.64 77.4162C43.77 78.0303 43.68 78.2794 43.41 77.9947Z" fill="#9C9C9C"/>
<path d="M57.1 77.7277C57.1 77.4429 57.13 77.4073 57.35 77.4073C57.59 77.4073 57.6 77.4162 57.47 77.6921C57.28 78.1015 57.1 78.1193 57.1 77.7277V77.7277Z" fill="#9C9C9C"/>
<path d="M58.32 77.2739C58.32 76.9624 58.24 76.642 58.11 76.4017C57.85 75.9123 57.85 75.8945 58.15 75.8945C58.35 75.8945 58.4 75.939 58.4 76.1081C58.4 76.2238 58.44 76.3395 58.5 76.3572C58.55 76.375 58.63 76.6954 58.66 77.0781C58.73 77.7277 58.72 77.7633 58.53 77.7633C58.35 77.7633 58.33 77.701 58.32 77.2739Z" fill="#9C9C9C"/>
<path d="M61.5 77.1048C61.5 76.82 61.53 76.7844 61.75 76.7844C61.99 76.7844 62 76.7933 61.87 77.0692C61.68 77.4785 61.5 77.4963 61.5 77.1048V77.1048Z" fill="#9C9C9C"/>
<path d="M38.13 76.9446C38.07 76.8823 38 76.7399 37.97 76.6331C37.93 76.464 37.96 76.4284 38.16 76.4284C38.37 76.4284 38.4 76.4729 38.4 76.7399C38.4 77.0603 38.3 77.1315 38.13 76.9446V76.9446Z" fill="#9C9C9C"/>
<path d="M56.7 76.295C56.7 76.028 56.89 76.0102 57.13 76.2505C57.36 76.4907 57.35 76.5174 57 76.5174C56.75 76.5174 56.7 76.4819 56.7 76.295Z" fill="#9C9C9C"/>
<path d="M62 75.939C62 75.6987 62.04 75.6275 62.18 75.6275C62.47 75.6275 62.51 75.7165 62.34 75.9924C62.14 76.3394 62 76.3127 62 75.939Z" fill="#9C9C9C"/>
<path d="M44.7 75.9568C44.7 75.8411 45.25 75.6097 45.34 75.6987C45.37 75.7254 45.4 75.8233 45.4 75.9123C45.4 76.0369 45.32 76.0725 45.05 76.0725C44.83 76.0725 44.7 76.028 44.7 75.9568Z" fill="#9C9C9C"/>
<path d="M54.6 75.7165C54.6 75.5296 54.7 75.5029 55.08 75.5919C55.44 75.6809 55.35 75.8945 54.95 75.8945C54.67 75.8945 54.6 75.8589 54.6 75.7165Z" fill="#9C9C9C"/>
<path d="M46.4 75.5919C46.4 75.4762 46.68 75.3605 46.98 75.3605C47.04 75.3605 47.1 75.4406 47.1 75.5385C47.1 75.6809 47.03 75.7165 46.75 75.7165C46.52 75.7165 46.4 75.672 46.4 75.5919Z" fill="#9C9C9C"/>
<path d="M53.1 75.4495C53.1 75.2627 53.2 75.236 53.58 75.3249C53.94 75.4139 53.85 75.6275 53.45 75.6275C53.17 75.6275 53.1 75.5919 53.1 75.4495Z" fill="#9C9C9C"/>
<path d="M43.2 75.316C43.2 75.1203 43.24 75.0936 43.56 75.0936C44 75.0936 43.98 75.2537 43.52 75.4228C43.21 75.5385 43.2 75.5296 43.2 75.316Z" fill="#9C9C9C"/>
<path d="M47.7 75.4139C47.7 75.2983 47.98 75.1826 48.28 75.1826C48.34 75.1826 48.4 75.2627 48.4 75.3606C48.4 75.5029 48.33 75.5385 48.05 75.5385C47.82 75.5385 47.7 75.494 47.7 75.4139Z" fill="#9C9C9C"/>
<path d="M62.3 75.0491C62.3 74.7999 62.34 74.7376 62.5 74.7376C62.71 74.7376 62.74 74.8266 62.64 75.1648C62.54 75.4851 62.3 75.405 62.3 75.0491Z" fill="#9C9C9C"/>
<path d="M44.16 75.2004C44.13 75.1737 44.1 75.0758 44.1 74.9868C44.1 74.8622 44.18 74.8266 44.44 74.8266C44.63 74.8266 44.8 74.7821 44.82 74.7376C44.84 74.6842 45.09 74.6219 45.38 74.5863C45.81 74.5418 45.9 74.5596 45.9 74.6753C45.9 74.7643 45.73 74.8444 45.38 74.9156C45.09 74.9779 44.71 75.0758 44.53 75.1381C44.36 75.2093 44.19 75.236 44.16 75.2004V75.2004Z" fill="#9C9C9C"/>
<path d="M46.7 74.4796C46.7 74.3639 46.76 74.2927 46.88 74.2927C46.97 74.2927 47.29 74.266 47.58 74.2393C48.01 74.1859 48.1 74.2037 48.1 74.3194C48.1 74.4529 47.98 74.4974 47.13 74.6041C46.74 74.6575 46.7 74.6486 46.7 74.4796V74.4796Z" fill="#9C9C9C"/>
<path d="M62.5 74.3371C62.5 74.088 62.54 74.0257 62.7 74.0257C62.91 74.0257 62.94 74.1147 62.84 74.4528C62.74 74.7732 62.5 74.6931 62.5 74.3371Z" fill="#9C9C9C"/>
<path d="M36.86 72.1391C36.76 71.8009 36.79 71.7119 37 71.7119C37.16 71.7119 37.2 71.7742 37.2 72.0234C37.2 72.3794 36.96 72.4595 36.86 72.1391Z" fill="#9C9C9C"/>
<path d="M62.9 71.5339C62.9 71.2403 62.93 71.178 63.1 71.178C63.31 71.178 63.35 71.3204 63.24 71.6941C63.13 72.0412 62.9 71.9344 62.9 71.5339Z" fill="#9C9C9C"/>
<path d="M62.9 70.5995C62.9 70.2436 63.14 70.1635 63.24 70.4928C63.34 70.822 63.31 70.911 63.1 70.911C62.94 70.911 62.9 70.8487 62.9 70.5995Z" fill="#9C9C9C"/>
<path d="M36.8 70.3593C36.8 70.0923 36.93 69.8431 37.06 69.8431C37.15 69.8431 37.2 69.9499 37.2 70.1546C37.2 70.4038 37.16 70.466 37 70.466C36.89 70.466 36.8 70.4127 36.8 70.3593Z" fill="#9C9C9C"/>
<path d="M37 68.9354C37 68.6684 37.13 68.4193 37.26 68.4193C37.35 68.4193 37.4 68.5261 37.4 68.7307C37.4 68.9799 37.36 69.0422 37.2 69.0422C37.09 69.0422 37 68.9888 37 68.9354Z" fill="#9C9C9C"/>
<path d="M35.6 66.6839C35.52 66.6661 35.28 66.6305 35.08 66.5949C34.84 66.5594 34.7 66.4971 34.7 66.417C34.7 66.2657 34.81 66.2568 35.58 66.3369C36 66.3903 36.1 66.4259 36.1 66.5594C36.1 66.7195 35.98 66.7462 35.6 66.6839Z" fill="#9C9C9C"/>
<path d="M32.1 66.239C32.02 66.2212 31.78 66.1856 31.58 66.15C31.34 66.1144 31.2 66.0521 31.2 65.972C31.2 65.8207 31.31 65.8118 32.08 65.8919C32.5 65.9453 32.6 65.9809 32.6 66.1144C32.6 66.2746 32.48 66.3013 32.1 66.239Z" fill="#9C9C9C"/>
<path d="M30.08 65.9542C29.75 65.883 29.88 65.6606 30.25 65.6606C30.53 65.6606 30.6 65.6961 30.6 65.8385C30.6 66.0165 30.46 66.0432 30.08 65.9542Z" fill="#9C9C9C"/>
<path d="M70.8 65.6606C70.8 65.5182 70.87 65.4826 71.15 65.4826C71.55 65.4826 71.64 65.6962 71.28 65.7851C70.9 65.8741 70.8 65.8474 70.8 65.6606Z" fill="#9C9C9C"/>
<path d="M28.18 65.6872C27.85 65.6161 27.98 65.3936 28.35 65.3936C28.63 65.3936 28.7 65.4292 28.7 65.5716C28.7 65.7495 28.56 65.7762 28.18 65.6872Z" fill="#9C9C9C"/>
<path d="M26.28 65.4203C25.95 65.3491 26.08 65.1266 26.45 65.1266C26.73 65.1266 26.8 65.1622 26.8 65.3046C26.8 65.4826 26.66 65.5093 26.28 65.4203Z" fill="#9C9C9C"/>
<path d="M73.4 65.3046C73.4 65.1622 73.47 65.1266 73.75 65.1266C74.15 65.1266 74.24 65.3402 73.88 65.4292C73.5 65.5182 73.4 65.4915 73.4 65.3046Z" fill="#9C9C9C"/>
<path d="M24.25 65.1355C24.09 64.9931 24.24 64.8596 24.55 64.8596C24.83 64.8596 24.9 64.8952 24.9 65.0376C24.9 65.18 24.84 65.2156 24.6 65.1978C24.43 65.1889 24.27 65.1622 24.25 65.1355Z" fill="#9C9C9C"/>
<path d="M19.55 64.4236C19.39 64.2812 19.54 64.1477 19.85 64.1477C20.13 64.1477 20.2 64.1833 20.2 64.3257C20.2 64.4681 20.14 64.5037 19.9 64.4859C19.73 64.477 19.57 64.4503 19.55 64.4236V64.4236Z" fill="#9C9C9C"/>
<path d="M80 64.3346C80 64.1833 80.06 64.1477 80.36 64.1477C80.64 64.1477 80.71 64.1833 80.68 64.299C80.66 64.388 80.53 64.4592 80.32 64.477C80.05 64.5126 80 64.4859 80 64.3346Z" fill="#9C9C9C"/>
<path d="M17.65 64.1388C17.48 64.1032 17.19 64.0587 17 64.032C16.77 64.0142 16.64 63.9519 16.62 63.854C16.58 63.6672 16.69 63.6672 17.73 63.8095C18.37 63.8896 18.5 63.943 18.5 64.0765C18.5 64.2545 18.24 64.2723 17.65 64.1388Z" fill="#9C9C9C"/>
<path d="M82.3 63.9786C82.3 63.8273 82.36 63.7917 82.66 63.7917C82.94 63.7917 83.01 63.8273 82.98 63.943C82.96 64.032 82.83 64.1032 82.62 64.121C82.35 64.1566 82.3 64.1299 82.3 63.9786Z" fill="#9C9C9C"/>
<path d="M83.4 63.8006C83.4 63.6493 83.46 63.6138 83.76 63.6138C84.04 63.6138 84.11 63.6494 84.08 63.765C84.06 63.854 83.93 63.9252 83.72 63.943C83.45 63.9786 83.4 63.9519 83.4 63.8006Z" fill="#9C9C9C"/>
<path d="M15.68 63.8184C15.35 63.7472 15.48 63.5248 15.85 63.5248C16.13 63.5248 16.2 63.5604 16.2 63.7027C16.2 63.8807 16.06 63.9074 15.68 63.8184Z" fill="#9C9C9C"/>
<path d="M14.69 63.6672C14.67 63.6494 14.47 63.6138 14.25 63.596C13.97 63.5693 13.84 63.5159 13.82 63.4091C13.78 63.24 13.91 63.2222 14.64 63.3112C15 63.3557 15.1 63.4091 15.1 63.5337C15.1 63.6849 14.82 63.7739 14.69 63.6672Z" fill="#9C9C9C"/>
<path d="M85.1 63.5248C85.1 63.3824 85.17 63.3468 85.45 63.3468C85.85 63.3468 85.94 63.5604 85.58 63.6494C85.2 63.7383 85.1 63.7116 85.1 63.5248Z" fill="#9C9C9C"/>
<path d="M12.15 63.2667C11.99 63.1243 12.14 62.9908 12.45 62.9908C12.73 62.9908 12.8 63.0264 12.8 63.1688C12.8 63.3112 12.74 63.3468 12.5 63.329C12.33 63.3201 12.17 63.2934 12.15 63.2667V63.2667Z" fill="#9C9C9C"/>
<path d="M11.18 63.1065C10.85 63.0353 10.98 62.8128 11.35 62.8128C11.63 62.8128 11.7 62.8484 11.7 62.9908C11.7 63.1688 11.56 63.1955 11.18 63.1065Z" fill="#9C9C9C"/>
<path d="M88.5 62.9997C88.5 62.8484 88.56 62.8128 88.86 62.8128C89.14 62.8128 89.21 62.8484 89.18 62.9641C89.16 63.0531 89.03 63.1243 88.82 63.1421C88.55 63.1777 88.5 63.151 88.5 62.9997Z" fill="#9C9C9C"/>
<path d="M9.07 62.7683C8.75 62.7061 8.46 62.6527 8.42 62.6527C8.38 62.6438 8.34 62.5815 8.32 62.5103C8.28 62.3412 8.49 62.3323 9.36 62.4747C9.87 62.5548 10 62.6082 10 62.7416C10 62.9285 9.89 62.9285 9.07 62.7683V62.7683Z" fill="#9C9C9C"/>
<path d="M90.7 62.6349C90.7 62.4925 90.77 62.4569 91.05 62.4569C91.45 62.4569 91.54 62.6705 91.18 62.7594C90.8 62.8484 90.7 62.8217 90.7 62.6349Z" fill="#9C9C9C"/>
<path d="M6.53 62.3501C6.07 62.2611 5.92 62.0119 6.33 62.0119C6.91 62.0119 7.3 62.1276 7.3 62.2878C7.3 62.4747 7.18 62.4836 6.53 62.3501V62.3501Z" fill="#9C9C9C"/>
<path d="M93.4 62.1899C93.4 62.0475 93.47 62.0119 93.75 62.0119C94.15 62.0119 94.24 62.2255 93.88 62.3145C93.5 62.4035 93.4 62.3768 93.4 62.1899Z" fill="#9C9C9C"/>
<path d="M4.55 62.0208C4.39 61.8784 4.54 61.7449 4.85 61.7449C5.13 61.7449 5.2 61.7805 5.2 61.9229C5.2 62.0653 5.14 62.1009 4.9 62.0831C4.73 62.0742 4.57 62.0475 4.55 62.0208V62.0208Z" fill="#9C9C9C"/>
<path d="M3.08 61.7717C2.75 61.7005 2.88 61.478 3.25 61.478C3.53 61.478 3.6 61.5136 3.6 61.656C3.6 61.8339 3.46 61.8606 3.08 61.7717Z" fill="#9C9C9C"/>
<path d="M1.88 61.5937C1.55 61.5225 1.68 61.3 2.05 61.3C2.33 61.3 2.4 61.3356 2.4 61.478C2.4 61.656 2.26 61.6827 1.88 61.5937Z" fill="#9C9C9C"/>
<path d="M98.6 61.3089C98.6 61.1576 98.66 61.122 98.96 61.122C99.24 61.122 99.31 61.1576 99.28 61.2733C99.26 61.3623 99.13 61.4335 98.92 61.4513C98.65 61.4869 98.6 61.4602 98.6 61.3089Z" fill="#9C9C9C"/>
<path d="M99.6 61.1309C99.6 60.9885 99.66 60.944 99.86 60.944C100.19 60.944 100.16 61.2377 99.82 61.2822C99.65 61.3089 99.6 61.2644 99.6 61.1309V61.1309Z" fill="#9C9C9C"/>
<path d="M1.14441e-05 60.0363C1.14441e-05 59.7694 0.130012 59.5202 0.260012 59.5202C0.350012 59.5202 0.400011 59.627 0.400011 59.8316C0.400011 60.0808 0.360011 60.1431 0.200011 60.1431C0.0900114 60.1431 1.14441e-05 60.0897 1.14441e-05 60.0363Z" fill="#9C9C9C"/>
<path d="M28.8 59.4312C28.8 59.2443 28.9 59.2176 29.28 59.3066C29.64 59.3956 29.55 59.6092 29.15 59.6092C28.87 59.6092 28.8 59.5736 28.8 59.4312Z" fill="#9C9C9C"/>
<path d="M32.9 59.4846C32.9 59.3689 33.18 59.2532 33.48 59.2532C33.54 59.2532 33.6 59.3333 33.6 59.4312C33.6 59.5736 33.53 59.6092 33.25 59.6092C33.02 59.6092 32.9 59.5647 32.9 59.4846Z" fill="#9C9C9C"/>
<path d="M65.48 59.4579C65.18 59.4312 65.1 59.3867 65.1 59.2443C65.1 59.0752 65.14 59.0663 65.53 59.1197C66.36 59.2265 66.5 59.271 66.5 59.3956C66.5 59.5202 66.31 59.5291 65.48 59.4579V59.4579Z" fill="#9C9C9C"/>
<path d="M26.7 59.2532C26.7 59.0663 26.8 59.0396 27.18 59.1286C27.54 59.2176 27.45 59.4312 27.05 59.4312C26.77 59.4312 26.7 59.3956 26.7 59.2532Z" fill="#9C9C9C"/>
<path d="M34.62 59.2799C34.64 59.1909 34.77 59.1197 34.98 59.1019C35.25 59.0663 35.3 59.093 35.3 59.2443C35.3 59.3956 35.24 59.4312 34.94 59.4312C34.66 59.4312 34.59 59.3956 34.62 59.2799Z" fill="#9C9C9C"/>
<path d="M72.9 59.3066C72.9 59.1909 73.18 59.0752 73.48 59.0752C73.54 59.0752 73.6 59.1553 73.6 59.2532C73.6 59.3956 73.53 59.4312 73.25 59.4312C73.02 59.4312 72.9 59.3867 72.9 59.3066Z" fill="#9C9C9C"/>
<path d="M64.1 59.1642C64.1 59.1197 63.94 59.0752 63.75 59.0752C63.56 59.0752 63.4 59.0396 63.4 58.9862C63.4 58.9417 63.27 58.8972 63.1 58.8972C62.85 58.8972 62.8 58.8616 62.8 58.6748C62.8 58.4523 62.8 58.4523 63.15 58.5769C63.35 58.657 63.53 58.7104 63.55 58.7193C63.58 58.7193 63.87 58.7816 64.2 58.8705C64.88 59.0307 65.02 59.2532 64.45 59.2532C64.26 59.2532 64.1 59.2176 64.1 59.1642Z" fill="#9C9C9C"/>
<path d="M74.4 59.1286C74.4 59.0129 74.68 58.8972 74.98 58.8972C75.04 58.8972 75.1 58.9773 75.1 59.0752C75.1 59.2176 75.03 59.2532 74.75 59.2532C74.52 59.2532 74.4 59.2087 74.4 59.1286Z" fill="#9C9C9C"/>
<path d="M24.6 58.9862C24.6 58.7994 24.7 58.7727 25.08 58.8616C25.44 58.9506 25.35 59.1642 24.95 59.1642C24.67 59.1642 24.6 59.1286 24.6 58.9862Z" fill="#9C9C9C"/>
<path d="M36.3 58.9595C36.3 58.8705 36.47 58.7727 36.78 58.7015C37.22 58.5858 37.25 58.5858 37.28 58.746C37.33 58.9684 37.28 59.004 36.75 59.0485C36.39 59.093 36.3 59.0752 36.3 58.9595Z" fill="#9C9C9C"/>
<path d="M23.4 58.8083C23.4 58.6214 23.5 58.5947 23.88 58.6837C24.24 58.7727 24.15 58.9862 23.75 58.9862C23.47 58.9862 23.4 58.9506 23.4 58.8083Z" fill="#9C9C9C"/>
<path d="M76.82 58.746C76.84 58.657 76.97 58.5858 77.18 58.568C77.45 58.5324 77.5 58.5591 77.5 58.7104C77.5 58.8617 77.44 58.8972 77.14 58.8972C76.86 58.8972 76.79 58.8616 76.82 58.746V58.746Z" fill="#9C9C9C"/>
<path d="M22.08 58.746C21.88 58.7193 21.8 58.657 21.8 58.5235C21.8 58.3633 21.84 58.3544 22.2 58.4078C22.42 58.4434 22.68 58.479 22.78 58.4879C22.87 58.5057 22.96 58.5769 22.98 58.657C23.02 58.8083 22.76 58.835 22.08 58.746Z" fill="#9C9C9C"/>
<path d="M29.68 58.568C29.35 58.4968 29.48 58.2743 29.85 58.2743C30.13 58.2743 30.2 58.3099 30.2 58.4523C30.2 58.6303 30.06 58.657 29.68 58.568Z" fill="#9C9C9C"/>
<path d="M67.28 58.568C66.95 58.4968 67.08 58.2743 67.45 58.2743C67.73 58.2743 67.8 58.3099 67.8 58.4523C67.8 58.6303 67.66 58.657 67.28 58.568Z" fill="#9C9C9C"/>
<path d="M33.5 58.3633C33.5 58.2209 33.57 58.1853 33.85 58.1853C34.25 58.1853 34.34 58.3989 33.98 58.4879C33.6 58.5769 33.5 58.5502 33.5 58.3633Z" fill="#9C9C9C"/>
<path d="M72.6 58.2743C72.6 58.1319 72.67 58.0963 72.95 58.0963C73.35 58.0963 73.44 58.3099 73.08 58.3989C72.7 58.4879 72.6 58.4612 72.6 58.2743Z" fill="#9C9C9C"/>
<path d="M73.4 58.1853C73.4 58.0429 73.47 58.0073 73.75 58.0073C74.15 58.0073 74.24 58.2209 73.88 58.3099C73.5 58.3989 73.4 58.3722 73.4 58.1853Z" fill="#9C9C9C"/>
<path d="M80.42 58.123C80.44 58.034 80.57 57.9628 80.78 57.945C81.05 57.9094 81.1 57.9362 81.1 58.0874C81.1 58.2387 81.04 58.2743 80.74 58.2743C80.46 58.2743 80.39 58.2387 80.42 58.123Z" fill="#9C9C9C"/>
<path d="M36.15 58.1141C36.02 57.9984 36.12 57.7582 36.33 57.7048C36.88 57.5713 37.32 57.6959 36.98 57.8916C36.76 58.0162 36.21 58.1675 36.15 58.1141Z" fill="#9C9C9C"/>
<path d="M1.7 57.9717C1.7 57.856 1.98 57.7404 2.28 57.7404C2.34 57.7404 2.4 57.8204 2.4 57.9183C2.4 58.0607 2.33 58.0963 2.05 58.0963C1.82 58.0963 1.7 58.0518 1.7 57.9717Z" fill="#9C9C9C"/>
<path d="M75.4 57.9272C75.4 57.776 75.46 57.7404 75.76 57.7404C76.04 57.7404 76.11 57.776 76.08 57.8916C76.06 57.9806 75.93 58.0518 75.72 58.0696C75.45 58.1052 75.4 58.0785 75.4 57.9272Z" fill="#9C9C9C"/>
<path d="M15.78 57.7671C15.48 57.7404 15.4 57.6959 15.4 57.5535C15.4 57.3933 15.45 57.3844 15.85 57.42C16.55 57.4912 16.8 57.5713 16.8 57.7048C16.8 57.8294 16.61 57.8383 15.78 57.7671V57.7671Z" fill="#9C9C9C"/>
<path d="M21.79 57.6069C21.76 57.5891 21.63 57.5535 21.49 57.5357C21.36 57.5179 21.24 57.4378 21.22 57.3577C21.19 57.242 21.26 57.2064 21.54 57.2064C21.86 57.2064 21.9 57.2331 21.9 57.4289C21.9 57.6514 21.88 57.687 21.79 57.6069Z" fill="#9C9C9C"/>
<path d="M62.37 57.4734C62.23 57.3755 62.07 57.2954 62.01 57.2954C61.95 57.2954 61.9 57.2598 61.9 57.2153C61.9 57.1708 61.81 57.1085 61.71 57.0729C61.6 57.0462 61.49 56.9662 61.46 56.895C61.42 56.7971 61.49 56.7615 61.75 56.7615C62.03 56.7615 62.1 56.7971 62.1 56.9395C62.1 57.0818 62.17 57.1174 62.4 57.1174C62.67 57.1174 62.7 57.1441 62.7 57.3844C62.7 57.7048 62.7 57.7048 62.37 57.4734Z" fill="#9C9C9C"/>
<path d="M85.1 57.5268C85.1 57.4111 85.38 57.2954 85.68 57.2954C85.74 57.2954 85.8 57.3755 85.8 57.4734C85.8 57.6158 85.73 57.6514 85.45 57.6514C85.22 57.6514 85.1 57.6069 85.1 57.5268Z" fill="#9C9C9C"/>
<path d="M4.5 57.4378C4.5 57.3221 4.78 57.2064 5.08 57.2064C5.14 57.2064 5.2 57.2865 5.2 57.3844C5.2 57.5268 5.13 57.5624 4.85 57.5624C4.62 57.5624 4.5 57.5179 4.5 57.4378Z" fill="#9C9C9C"/>
<path d="M13.6 57.3844C13.6 57.1975 13.7 57.1708 14.08 57.2598C14.44 57.3488 14.35 57.5624 13.95 57.5624C13.67 57.5624 13.6 57.5268 13.6 57.3844Z" fill="#9C9C9C"/>
<path d="M6.7 57.2598C6.7 57.1441 6.98 57.0284 7.28 57.0284C7.34 57.0284 7.4 57.1085 7.4 57.2064C7.4 57.3488 7.33 57.3844 7.05 57.3844C6.82 57.3844 6.7 57.3399 6.7 57.2598Z" fill="#9C9C9C"/>
<path d="M10.7 57.2064C10.7 57.0195 10.8 56.9928 11.18 57.0818C11.54 57.1708 11.45 57.3844 11.05 57.3844C10.77 57.3844 10.7 57.3488 10.7 57.2064Z" fill="#9C9C9C"/>
<path d="M79.6 57.2064C79.6 57.064 79.67 57.0284 79.95 57.0284C80.35 57.0284 80.44 57.242 80.08 57.331C79.7 57.42 79.6 57.3933 79.6 57.2064Z" fill="#9C9C9C"/>
<path d="M88.6 57.2598C88.6 57.1441 88.88 57.0284 89.18 57.0284C89.24 57.0284 89.3 57.1085 89.3 57.2064C89.3 57.3488 89.23 57.3844 88.95 57.3844C88.72 57.3844 88.6 57.3399 88.6 57.2598Z" fill="#9C9C9C"/>
<path d="M93.2 57.2064C93.2 57.0195 93.3 56.9928 93.68 57.0818C94.04 57.1708 93.95 57.3844 93.55 57.3844C93.27 57.3844 93.2 57.3488 93.2 57.2064Z" fill="#9C9C9C"/>
<path d="M80.7 57.0551C80.7 56.9039 80.82 56.8683 81.48 56.7793C82.5 56.6369 82.62 56.6458 82.58 56.8238C82.56 56.9039 82.48 56.975 82.4 56.9839C82.32 57.0017 82.07 57.0373 81.85 57.064C80.73 57.2331 80.7 57.2331 80.7 57.0551V57.0551Z" fill="#9C9C9C"/>
<path d="M18.69 57.0818C18.67 57.064 18.47 57.0284 18.25 57.0106C17.97 56.9839 17.84 56.9306 17.82 56.8238C17.78 56.6547 17.91 56.6369 18.64 56.7259C19 56.7704 19.1 56.8238 19.1 56.9483C19.1 57.0996 18.82 57.1886 18.69 57.0818Z" fill="#9C9C9C"/>
<path d="M97.88 56.9216C97.46 56.8238 97.36 56.5835 97.74 56.5835C98.26 56.5835 98.6 56.6903 98.6 56.8594C98.6 57.0462 98.46 57.0551 97.88 56.9216V56.9216Z" fill="#9C9C9C"/>
<path d="M38.8 56.6814C38.8 56.4322 38.83 56.4055 39.1 56.4055C39.27 56.4055 39.4 56.4411 39.4 56.4856C39.4 56.5301 39.27 56.6547 39.1 56.7615C38.8 56.9483 38.8 56.9483 38.8 56.6814Z" fill="#9C9C9C"/>
<path d="M40.2 56.7971C40.2 56.7704 40.33 56.628 40.5 56.4678C40.8 56.183 40.8 56.183 40.8 56.5212C40.8 56.8327 40.78 56.8505 40.5 56.8505C40.34 56.8505 40.2 56.8327 40.2 56.7971Z" fill="#9C9C9C"/>
<path d="M84.8 56.4945C84.8 56.3521 84.87 56.3165 85.15 56.3165C85.55 56.3165 85.64 56.5301 85.28 56.6191C84.9 56.7081 84.8 56.6814 84.8 56.4945Z" fill="#9C9C9C"/>
<path d="M96.28 56.6102C95.95 56.539 96.08 56.3165 96.45 56.3165C96.73 56.3165 96.8 56.3521 96.8 56.4945C96.8 56.6725 96.66 56.6992 96.28 56.6102Z" fill="#9C9C9C"/>
<path d="M85.7 56.4055C85.7 56.2631 85.77 56.2275 86.05 56.2275C86.32 56.2275 86.4 56.2631 86.4 56.3877C86.4 56.4945 86.31 56.5479 86.05 56.5568C85.76 56.5835 85.7 56.5568 85.7 56.4055V56.4055Z" fill="#9C9C9C"/>
<path d="M4.9 56.3165C4.9 56.1741 4.97 56.1385 5.25 56.1385C5.65 56.1385 5.74 56.3521 5.38 56.4411C5 56.5301 4.9 56.5034 4.9 56.3165Z" fill="#9C9C9C"/>
<path d="M11.58 56.3432C11.25 56.272 11.38 56.0495 11.75 56.0495C12.03 56.0495 12.1 56.0851 12.1 56.2275C12.1 56.4055 11.96 56.4322 11.58 56.3432Z" fill="#9C9C9C"/>
<path d="M88.1 56.2275C88.1 56.0851 88.17 56.0495 88.45 56.0495C88.85 56.0495 88.94 56.2631 88.58 56.3521C88.2 56.4411 88.1 56.4144 88.1 56.2275Z" fill="#9C9C9C"/>
<path d="M39.9 55.3821C39.9 55.1685 39.95 55.0706 40.05 55.0706C40.15 55.0706 40.2 54.9728 40.2 54.7592C40.2 54.4833 40.23 54.4477 40.45 54.4477C40.72 54.4477 40.72 54.4833 40.3 55.2753C40.04 55.7737 39.9 55.8093 39.9 55.3821Z" fill="#9C9C9C"/>
<path d="M41.28 55.0973C41.58 54.3587 41.8 54.2163 41.8 54.7592C41.8 54.9283 41.76 55.0706 41.7 55.0706C41.65 55.0706 41.6 55.1685 41.6 55.2931C41.6 55.4711 41.55 55.5156 41.36 55.5156C41.11 55.5156 41.11 55.5156 41.28 55.0973V55.0973Z" fill="#9C9C9C"/>
<path d="M0.799999 54.3409C0.799999 54.0739 0.93 53.8248 1.06 53.8248C1.15 53.8248 1.2 53.9316 1.2 54.1362C1.2 54.3854 1.16 54.4477 0.999999 54.4477C0.889999 54.4477 0.799999 54.3943 0.799999 54.3409Z" fill="#9C9C9C"/>
<path d="M40.5 54.1184C40.5 53.7091 40.61 53.4688 40.79 53.4688C41.05 53.4688 41.08 53.54 40.96 53.8515C40.74 54.4032 40.5 54.5456 40.5 54.1184Z" fill="#9C9C9C"/>
<path d="M58.2 53.6913C58.2 53.3086 58.41 53.273 58.57 53.6379C58.69 53.9316 58.65 54.0028 58.38 54.0028C58.24 54.0028 58.2 53.9316 58.2 53.6913V53.6913Z" fill="#9C9C9C"/>
<path d="M36.7 53.5133C36.7 53.4421 36.66 53.3798 36.6 53.3798C36.55 53.3798 36.5 53.2374 36.5 53.0683C36.5 52.6768 36.76 52.6412 36.85 53.0239C36.9 53.2107 36.99 53.3086 37.16 53.3442C37.54 53.4332 37.46 53.6468 37.05 53.6468C36.81 53.6468 36.7 53.6023 36.7 53.5133Z" fill="#9C9C9C"/>
<path d="M62.2 53.4866C62.2 53.451 62.28 53.3798 62.39 53.3175C62.49 53.2641 62.6 53.0594 62.64 52.8548C62.68 52.6145 62.75 52.4899 62.85 52.4899C63.01 52.4899 63.04 52.6857 62.94 53.2285C62.88 53.5311 62.85 53.5578 62.54 53.5578C62.35 53.5578 62.2 53.5311 62.2 53.4866Z" fill="#9C9C9C"/>
<path d="M69.9 53.0683C69.9 52.8726 69.95 52.7569 70.03 52.7569C70.11 52.7569 70.21 52.8993 70.27 53.0683C70.38 53.362 70.37 53.3798 70.14 53.3798C69.93 53.3798 69.9 53.3353 69.9 53.0683Z" fill="#9C9C9C"/>
<path d="M57.96 52.9616C57.86 52.3831 57.88 52.2051 58.07 52.2407C58.17 52.2585 58.25 52.3742 58.27 52.5344C58.29 52.6857 58.35 52.9082 58.4 53.0506C58.48 53.2641 58.47 53.2908 58.26 53.2908C58.07 53.2908 58.02 53.2285 57.96 52.9616V52.9616Z" fill="#9C9C9C"/>
<path d="M29.2 53.095C29.2 52.8281 29.33 52.5789 29.46 52.5789C29.55 52.5789 29.6 52.6857 29.6 52.8904C29.6 53.1395 29.56 53.2018 29.4 53.2018C29.29 53.2018 29.2 53.1484 29.2 53.095Z" fill="#9C9C9C"/>
<path d="M71.06 52.7836C70.87 51.8848 70.87 51.778 71.09 51.778C71.22 51.778 71.3 51.8314 71.3 51.9382C71.3 52.0183 71.33 52.303 71.36 52.5611C71.42 52.9438 71.4 53.0239 71.27 53.0239C71.18 53.0239 71.09 52.9171 71.06 52.7836Z" fill="#9C9C9C"/>
<path d="M37.66 52.7391C37.56 52.4009 37.59 52.3119 37.8 52.3119C37.96 52.3119 38 52.3742 38 52.6234C38 52.9794 37.76 53.0594 37.66 52.7391Z" fill="#9C9C9C"/>
<path d="M28.1 52.5344C28.1 52.2852 28.14 52.2229 28.3 52.2229C28.51 52.2229 28.54 52.3119 28.44 52.6501C28.34 52.9705 28.1 52.8904 28.1 52.5344Z" fill="#9C9C9C"/>
<path d="M36.2 51.7335C36.2 51.5199 36.25 51.422 36.35 51.422C36.43 51.422 36.5 51.4309 36.5 51.4487C36.5 51.4576 36.54 51.6 36.59 51.7602C36.68 52.0271 36.67 52.0449 36.44 52.0449C36.23 52.0449 36.2 52.0005 36.2 51.7335Z" fill="#9C9C9C"/>
<path d="M28.4 51.4754C28.4 51.1906 28.43 51.155 28.65 51.155C28.89 51.155 28.9 51.1639 28.77 51.4398C28.58 51.8492 28.4 51.867 28.4 51.4754Z" fill="#9C9C9C"/>
<path d="M61.8 51.4754C61.8 51.2529 61.84 51.155 61.95 51.155C62.05 51.155 62.1 51.0661 62.1 50.8881C62.1 50.6656 62.14 50.6211 62.35 50.6211C62.65 50.6211 62.65 50.63 62.38 51.0928C62.26 51.2974 62.14 51.5199 62.1 51.5911C61.97 51.8581 61.8 51.7958 61.8 51.4754Z" fill="#9C9C9C"/>
<path d="M29.7 51.3953C29.7 51.2796 30.05 50.8881 30.15 50.8881C30.18 50.8881 30.2 51.0305 30.2 51.1995C30.2 51.4754 30.17 51.511 29.95 51.511C29.81 51.511 29.7 51.4576 29.7 51.3953Z" fill="#9C9C9C"/>
<path d="M63.1 51.4309C63.1 51.3508 63.78 50.5321 63.85 50.5321C63.88 50.5321 63.9 50.6745 63.9 50.8436C63.9 51.0572 63.85 51.155 63.75 51.155C63.67 51.155 63.6 51.2351 63.6 51.333C63.6 51.4665 63.53 51.511 63.35 51.511C63.21 51.511 63.1 51.4754 63.1 51.4309Z" fill="#9C9C9C"/>
<path d="M98.02 50.7012C97.86 50.1049 97.87 49.8202 98.04 49.8202C98.12 49.8202 98.24 50.0338 98.34 50.3986C98.54 51.1194 98.54 51.155 98.32 51.155C98.18 51.155 98.11 51.0394 98.02 50.7012Z" fill="#9C9C9C"/>
<path d="M41.1 50.5766C41.1 50.2206 41.34 50.1406 41.44 50.4698C41.54 50.7991 41.51 50.8881 41.3 50.8881C41.14 50.8881 41.1 50.8258 41.1 50.5766Z" fill="#9C9C9C"/>
<path d="M58.9 50.7813C58.9 50.5143 59.03 50.2651 59.16 50.2651C59.25 50.2651 59.3 50.3719 59.3 50.5766C59.3 50.8258 59.26 50.8881 59.1 50.8881C58.99 50.8881 58.9 50.8347 58.9 50.7813Z" fill="#9C9C9C"/>
<path d="M30.25 50.7101C30.28 50.6656 30.44 50.541 30.6 50.4431C30.9 50.2562 30.9 50.2562 30.9 50.5232C30.9 50.7813 30.87 50.7991 30.54 50.7991C30.34 50.7991 30.21 50.7635 30.25 50.7101Z" fill="#9C9C9C"/>
<path d="M57.8 50.2206C57.8 49.9715 57.84 49.9092 58 49.9092C58.21 49.9092 58.24 49.9982 58.14 50.3363C58.04 50.6567 57.8 50.5766 57.8 50.2206Z" fill="#9C9C9C"/>
<path d="M59.03 49.8914C59.05 49.7045 59.13 49.5888 59.23 49.571C59.36 49.5443 59.4 49.6066 59.4 49.8558C59.4 50.1227 59.36 50.1761 59.19 50.1761C59.02 50.1761 58.99 50.1316 59.03 49.8914Z" fill="#9C9C9C"/>
<path d="M63 49.9092C63 49.66 63.03 49.6422 63.35 49.6422C63.79 49.6422 63.79 49.7223 63.35 49.9804C63 50.1761 63 50.1761 63 49.9092Z" fill="#9C9C9C"/>
<path d="M67.1 49.9092C67.1 49.7223 67.2 49.6956 67.58 49.7846C67.94 49.8736 67.85 50.0872 67.45 50.0872C67.17 50.0872 67.1 50.0516 67.1 49.9092Z" fill="#9C9C9C"/>
<path d="M69.3 49.838C69.3 49.8024 69.12 49.6778 68.9 49.5532C68.68 49.4286 68.5 49.304 68.5 49.2684C68.5 49.2239 68.66 49.1973 68.85 49.1973C69.04 49.1973 69.2 49.2417 69.2 49.2862C69.2 49.3396 69.27 49.3752 69.35 49.3752C69.45 49.3752 69.5 49.4642 69.5 49.6422C69.5 49.7935 69.46 49.9092 69.4 49.9092C69.35 49.9092 69.3 49.8825 69.3 49.838Z" fill="#9C9C9C"/>
<path d="M35.33 49.4731C35.02 49.2417 35.04 49.1973 35.45 49.1973C35.76 49.1973 35.8 49.2239 35.8 49.4197C35.8 49.6867 35.64 49.6956 35.33 49.4731Z" fill="#9C9C9C"/>
<path d="M42.06 49.3574C41.96 49.0193 41.99 48.9303 42.2 48.9303C42.36 48.9303 42.4 48.9926 42.4 49.2417C42.4 49.5977 42.16 49.6778 42.06 49.3574Z" fill="#9C9C9C"/>
<path d="M59.2 49.3218C59.2 49.1349 59.38 48.8413 59.5 48.8413C59.56 48.8413 59.6 48.9837 59.6 49.1527C59.6 49.4019 59.56 49.4642 59.4 49.4642C59.29 49.4642 59.2 49.4019 59.2 49.3218Z" fill="#9C9C9C"/>
<path d="M34.09 49.0638C34.06 49.046 33.93 49.0104 33.79 48.9926C33.66 48.9748 33.54 48.8947 33.52 48.8146C33.49 48.6989 33.56 48.6633 33.84 48.6633C34.16 48.6633 34.2 48.69 34.2 48.8858C34.2 49.1083 34.18 49.1438 34.09 49.0638Z" fill="#9C9C9C"/>
<path d="M67.49 49.0638C67.46 49.046 67.33 49.0104 67.19 48.9926C67.06 48.9748 66.94 48.8947 66.92 48.8146C66.89 48.6989 66.96 48.6633 67.24 48.6633C67.56 48.6633 67.6 48.69 67.6 48.8858C67.6 49.1083 67.58 49.1438 67.49 49.0638Z" fill="#9C9C9C"/>
<path d="M2.3 48.6455C2.3 48.3785 2.43 48.1294 2.56 48.1294C2.65 48.1294 2.7 48.2361 2.7 48.4408C2.7 48.69 2.66 48.7523 2.5 48.7523C2.39 48.7523 2.3 48.6989 2.3 48.6455Z" fill="#9C9C9C"/>
<path d="M40.46 48.6099C40.43 48.5298 40.4 48.3518 40.4 48.2094C40.4 48.0137 40.35 47.9514 40.2 47.9514C40.04 47.9514 40 47.8891 40 47.6221C40 47.3106 40.01 47.3017 40.19 47.453C40.35 47.5865 40.53 47.8713 40.98 48.69C41 48.7256 40.9 48.7523 40.77 48.7523C40.63 48.7523 40.49 48.69 40.46 48.6099V48.6099Z" fill="#9C9C9C"/>
<path d="M58.3 48.4408C58.3 48.1739 58.33 48.1294 58.54 48.1294C58.74 48.1294 58.77 48.165 58.73 48.334C58.59 48.8146 58.3 48.8947 58.3 48.4408Z" fill="#9C9C9C"/>
<path d="M97.2 47.9069C97.2 47.5509 97.44 47.4708 97.54 47.8001C97.64 48.1294 97.61 48.2183 97.4 48.2183C97.24 48.2183 97.2 48.1561 97.2 47.9069Z" fill="#9C9C9C"/>
<path d="M58.9 47.3729C58.9 47.0971 58.93 47.0615 59.15 47.0615C59.45 47.0615 59.45 47.0882 59.23 47.4263C59 47.7645 58.9 47.7556 58.9 47.3729Z" fill="#9C9C9C"/>
<path d="M95.5 46.7589C95.5 46.5542 95.52 46.5453 95.82 46.6254C96 46.6699 96.16 46.7055 96.17 46.7055C96.19 46.7055 96.2 46.7678 96.2 46.839C96.2 46.928 96.09 46.9725 95.85 46.9725C95.55 46.9725 95.5 46.9458 95.5 46.7589Z" fill="#9C9C9C"/>
<path d="M4.4 46.7678C4.4 46.6966 4.56 46.6076 4.75 46.5542C5.08 46.4563 5.1 46.4652 5.1 46.6699C5.1 46.8568 5.05 46.8835 4.75 46.8835C4.53 46.8835 4.4 46.839 4.4 46.7678Z" fill="#9C9C9C"/>
<path d="M47.1 46.3495C47.1 46.1627 47.2 46.136 47.58 46.225C47.94 46.3139 47.85 46.5275 47.45 46.5275C47.17 46.5275 47.1 46.4919 47.1 46.3495Z" fill="#9C9C9C"/>
<path d="M94.4 46.3139C94.4 46.136 94.44 46.1093 94.63 46.1449C95.17 46.2695 95.26 46.5275 94.75 46.5275C94.45 46.5275 94.4 46.5008 94.4 46.3139Z" fill="#9C9C9C"/>
<path d="M3 46.3673C3 46.2783 3.22 46.0826 3.32 46.0826C3.47 46.0826 3.4 46.3317 3.24 46.3851C3.03 46.4563 3 46.4563 3 46.3673V46.3673Z" fill="#9C9C9C"/>
<path d="M38.4 46.047C38.4 45.7444 38.4 45.7444 38.75 46.0203C38.94 46.1716 39.1 46.305 39.1 46.3228C39.1 46.3406 38.94 46.3495 38.75 46.3495C38.42 46.3495 38.4 46.3317 38.4 46.047Z" fill="#9C9C9C"/>
<path d="M52.2 46.2339C52.2 46.1182 52.75 45.8868 52.84 45.9758C52.87 46.0025 52.9 46.1004 52.9 46.1894C52.9 46.314 52.82 46.3495 52.55 46.3495C52.33 46.3495 52.2 46.3051 52.2 46.2339Z" fill="#9C9C9C"/>
<path d="M96.53 46.1538C96.35 46.1093 96.2 46.0203 96.2 45.9491C96.2 45.8779 96.23 45.8156 96.28 45.8156C96.32 45.8156 96.34 45.6554 96.32 45.4596C96.28 45.1037 96.39 45.0058 96.57 45.2194C96.68 45.3439 96.95 46.1627 96.89 46.2072C96.87 46.225 96.7 46.1983 96.53 46.1538V46.1538Z" fill="#9C9C9C"/>
<path d="M39.5 45.6376C39.15 45.3795 39.15 45.3795 39.53 45.3706C39.88 45.3706 39.9 45.3884 39.9 45.6376C39.9 45.7889 39.89 45.9046 39.87 45.9046C39.86 45.9046 39.69 45.7889 39.5 45.6376Z" fill="#9C9C9C"/>
<path d="M43.13 45.3084C43 45.2639 42.94 44.8367 43.06 44.8367C43.19 44.8367 43.9 45.2283 43.9 45.2995C43.9 45.3795 43.33 45.3884 43.13 45.3084V45.3084Z" fill="#9C9C9C"/>
<path d="M52.3 45.1037C52.3 44.9613 52.37 44.9257 52.65 44.9257C53.04 44.9257 53.11 45.0503 52.81 45.1927C52.5 45.335 52.3 45.2994 52.3 45.1037Z" fill="#9C9C9C"/>
<path d="M6.2 44.9702C6.2 44.7744 6.24 44.7477 6.56 44.7477C7 44.7477 6.98 44.9079 6.52 45.077C6.21 45.1927 6.2 45.1838 6.2 44.9702V44.9702Z" fill="#9C9C9C"/>
<path d="M45.88 45.1304C45.55 45.0592 45.68 44.8367 46.05 44.8367C46.33 44.8367 46.4 44.8723 46.4 45.0147C46.4 45.1927 46.26 45.2194 45.88 45.1304Z" fill="#9C9C9C"/>
<path d="M63.1 45.1393C63.1 45.0503 63.4 44.8545 63.75 44.7032C63.92 44.632 64.15 44.5074 64.28 44.4273C64.5 44.285 64.5 44.285 64.5 44.5608C64.5 44.8189 64.48 44.8367 64.15 44.8367C63.87 44.8367 63.8 44.8723 63.8 45.0147C63.8 45.1571 63.73 45.1927 63.45 45.1927C63.26 45.1927 63.1 45.166 63.1 45.1393Z" fill="#9C9C9C"/>
<path d="M9.4 44.9346C9.4 44.8278 9.61 44.6943 9.88 44.632C10.06 44.5964 10.1 44.6231 10.1 44.8011C10.1 44.988 10.05 45.0147 9.75 45.0147C9.56 45.0147 9.4 44.9791 9.4 44.9346Z" fill="#9C9C9C"/>
<path d="M90.3 44.8011C90.3 44.6231 90.34 44.5964 90.53 44.632C91.07 44.7566 91.16 45.0147 90.65 45.0147C90.35 45.0147 90.3 44.988 90.3 44.8011Z" fill="#9C9C9C"/>
<path d="M89.5 44.5341C89.5 44.3561 89.54 44.3295 89.73 44.365C90.27 44.4896 90.36 44.7477 89.85 44.7477C89.55 44.7477 89.5 44.721 89.5 44.5341Z" fill="#9C9C9C"/>
<path d="M44.23 44.5519C43.78 44.4184 43.8 44.2138 44.25 44.2138C44.56 44.2138 44.6 44.2405 44.6 44.4362C44.6 44.5608 44.59 44.6587 44.58 44.6498C44.56 44.6409 44.4 44.5964 44.23 44.5519Z" fill="#9C9C9C"/>
<path d="M11.62 44.196C11.65 44.1337 11.81 44.0358 11.98 43.9735C12.29 43.8578 12.3 43.8667 12.3 44.0803C12.3 44.2761 12.26 44.3027 11.94 44.3027C11.71 44.3027 11.6 44.2672 11.62 44.196Z" fill="#9C9C9C"/>
<path d="M37.18 44.1426C36.81 43.9468 36.83 43.8578 37.25 43.8578C37.56 43.8578 37.6 43.8845 37.6 44.0803C37.6 44.3384 37.54 44.3473 37.18 44.1426Z" fill="#9C9C9C"/>
<path d="M62.8 44.0803C62.8 43.8845 62.84 43.8578 63.15 43.8578C63.58 43.8578 63.59 43.9468 63.21 44.1515C62.83 44.3473 62.8 44.3473 62.8 44.0803Z" fill="#9C9C9C"/>
<path d="M34.5 44.0002C34.5 43.7955 34.52 43.7866 34.85 43.8845C35.04 43.9379 35.2 44.0269 35.2 44.0981C35.2 44.1693 35.07 44.2138 34.85 44.2138C34.55 44.2138 34.5 44.1871 34.5 44.0002Z" fill="#9C9C9C"/>
<path d="M9.4 43.8133C9.4 43.6175 9.44 43.5908 9.76 43.5908C10.2 43.5908 10.18 43.751 9.72 43.9201C9.41 44.0358 9.4 44.0269 9.4 43.8133V43.8133Z" fill="#9C9C9C"/>
<path d="M12.5 43.9201C12.5 43.8044 13.05 43.573 13.14 43.662C13.17 43.6887 13.2 43.7866 13.2 43.8756C13.2 44.0002 13.12 44.0358 12.85 44.0358C12.63 44.0358 12.5 43.9913 12.5 43.9201Z" fill="#9C9C9C"/>
<path d="M56.9 43.9468C56.9 43.9023 56.94 43.8578 56.99 43.8578C57.03 43.8578 57.19 43.7599 57.34 43.6353C57.6 43.4217 57.6 43.4217 57.6 43.7243C57.6 44.018 57.58 44.0358 57.25 44.0358C57.06 44.0358 56.9 44.0002 56.9 43.9468Z" fill="#9C9C9C"/>
<path d="M87.2 43.8667C87.2 43.6264 87.32 43.5819 87.6 43.7065C87.98 43.8845 87.96 44.0358 87.56 44.0358C87.27 44.0358 87.2 44.0002 87.2 43.8667V43.8667Z" fill="#9C9C9C"/>
<path d="M90.63 43.9023C90.2 43.7421 90.21 43.5908 90.65 43.5908C90.96 43.5908 91 43.6175 91 43.8133C91 43.9379 90.99 44.0358 90.98 44.0358C90.96 44.0269 90.8 43.9735 90.63 43.9023Z" fill="#9C9C9C"/>
<path d="M5.5 43.8934C5.5 43.8044 5.94 43.5107 6.08 43.5018C6.14 43.5018 6.2 43.5997 6.2 43.7243C6.2 43.9201 6.16 43.9468 5.85 43.9468C5.66 43.9468 5.5 43.9201 5.5 43.8934Z" fill="#9C9C9C"/>
<path d="M36.13 43.662C35.71 43.4306 35.71 43.3239 36.15 43.3239C36.47 43.3239 36.5 43.3417 36.5 43.5908C36.5 43.7421 36.49 43.8578 36.48 43.8489C36.46 43.8489 36.3 43.7599 36.13 43.662Z" fill="#9C9C9C"/>
<path d="M85.9 43.5908C85.9 43.5463 85.74 43.5018 85.55 43.5018C85.36 43.5018 85.2 43.4662 85.2 43.4128C85.2 43.3683 85.04 43.3238 84.85 43.3238C84.57 43.3238 84.5 43.2883 84.5 43.1459C84.5 42.9234 84.59 42.9234 85.35 43.1281C85.68 43.2171 85.98 43.2972 86.03 43.3061C86.43 43.3772 86.6 43.4484 86.6 43.5552C86.6 43.6353 86.48 43.6798 86.25 43.6798C86.06 43.6798 85.9 43.6442 85.9 43.5908V43.5908Z" fill="#9C9C9C"/>
<path d="M89.53 43.5463C89.1 43.3861 89.11 43.2349 89.55 43.2349C89.86 43.2349 89.9 43.2616 89.9 43.4573C89.9 43.5819 89.89 43.6798 89.88 43.6798C89.86 43.6709 89.7 43.6175 89.53 43.5463Z" fill="#9C9C9C"/>
<path d="M41.98 43.4306C41.56 43.1993 41.55 43.0569 41.95 43.0569C42.27 43.0569 42.3 43.0747 42.3 43.3239C42.3 43.4751 42.29 43.5908 42.28 43.5819C42.26 43.5819 42.13 43.5107 41.98 43.4306V43.4306Z" fill="#9C9C9C"/>
<path d="M56.1 43.3328C56.1 43.0747 56.13 43.0569 56.46 43.0569C56.85 43.0569 56.84 43.137 56.4 43.4128C56.1 43.5997 56.1 43.5997 56.1 43.3328Z" fill="#9C9C9C"/>
<path d="M31.9 43.1014C31.9 42.8878 31.91 42.8789 32.22 42.9946C32.68 43.1637 32.7 43.3239 32.26 43.3239C31.94 43.3239 31.9 43.2972 31.9 43.1014Z" fill="#9C9C9C"/>
<path d="M34.63 43.0124C34.2 42.8522 34.21 42.7009 34.65 42.7009C34.96 42.7009 35 42.7276 35 42.9234C35 43.048 34.99 43.1459 34.98 43.1459C34.96 43.137 34.8 43.0836 34.63 43.0124Z" fill="#9C9C9C"/>
<path d="M7.3 42.9946C7.3 42.9501 7.46 42.8344 7.65 42.7187C8 42.5229 8 42.5229 8 42.7899C8 43.0391 7.97 43.0569 7.65 43.0569C7.46 43.0569 7.3 43.0302 7.3 42.9946V42.9946Z" fill="#9C9C9C"/>
<path d="M83.13 42.9946C82.98 42.9679 82.9 42.8878 82.9 42.781C82.9 42.5852 82.96 42.5763 83.56 42.7098C84.38 42.8967 84 43.1459 83.13 42.9946V42.9946Z" fill="#9C9C9C"/>
<path d="M65.9 42.7454C65.9 42.5496 65.94 42.5229 66.26 42.5229C66.7 42.5229 66.68 42.6831 66.22 42.8522C65.91 42.9679 65.9 42.959 65.9 42.7454Z" fill="#9C9C9C"/>
<path d="M69.1 42.8433C69.1 42.7721 69.22 42.692 69.38 42.6564C70.41 42.3984 70.5 42.3895 70.5 42.603C70.5 42.7543 70.44 42.7899 70.15 42.7899C69.96 42.7899 69.8 42.8344 69.8 42.8789C69.8 42.9323 69.64 42.9679 69.45 42.9679C69.22 42.9679 69.1 42.9234 69.1 42.8433Z" fill="#9C9C9C"/>
<path d="M87.08 42.8433C86.68 42.7187 86.72 42.5229 87.15 42.5229C87.43 42.5229 87.5 42.5585 87.5 42.692C87.5 42.9234 87.41 42.959 87.08 42.8433Z" fill="#9C9C9C"/>
<path d="M13.26 42.8077C13.23 42.781 13.2 42.6831 13.2 42.5941C13.2 42.4695 13.28 42.4339 13.55 42.4339C13.77 42.4339 13.9 42.4784 13.9 42.5496C13.9 42.6653 13.35 42.8967 13.26 42.8077Z" fill="#9C9C9C"/>
<path d="M29.9 42.6119C29.9 42.425 30 42.3983 30.38 42.4873C30.74 42.5763 30.65 42.7899 30.25 42.7899C29.97 42.7899 29.9 42.7543 29.9 42.6119Z" fill="#9C9C9C"/>
<path d="M66.7 42.4784C66.7 42.2827 66.74 42.256 67.06 42.256C67.5 42.256 67.48 42.4162 67.02 42.5852C66.71 42.7009 66.7 42.692 66.7 42.4784Z" fill="#9C9C9C"/>
<path d="M81.5 42.5229C81.5 42.3361 81.6 42.3094 81.98 42.3983C82.34 42.4873 82.25 42.7009 81.85 42.7009C81.57 42.7009 81.5 42.6653 81.5 42.5229Z" fill="#9C9C9C"/>
<path d="M18.7 42.4873C18.7 42.3717 18.98 42.256 19.28 42.256C19.34 42.256 19.4 42.3361 19.4 42.4339C19.4 42.5763 19.33 42.6119 19.05 42.6119C18.82 42.6119 18.7 42.5674 18.7 42.4873Z" fill="#9C9C9C"/>
<path d="M38.6 42.345C38.6 42.0869 38.6 42.0869 38.9 42.2382C39.34 42.4606 39.36 42.6119 38.95 42.6119C38.63 42.6119 38.6 42.5941 38.6 42.345Z" fill="#9C9C9C"/>
<path d="M71 42.4073C71 42.3361 71.16 42.2471 71.35 42.1937C71.68 42.0958 71.7 42.1047 71.7 42.3094C71.7 42.4962 71.65 42.5229 71.35 42.5229C71.13 42.5229 71 42.4784 71 42.4073Z" fill="#9C9C9C"/>
<path d="M80.4 42.3361C80.4 42.1848 80.45 42.1581 80.72 42.1937C80.93 42.2115 81.06 42.2827 81.08 42.3717C81.11 42.4873 81.04 42.5229 80.76 42.5229C80.46 42.5229 80.4 42.4873 80.4 42.3361Z" fill="#9C9C9C"/>
<path d="M14.6 42.256C14.6 42.1136 14.67 42.078 14.95 42.078C15.35 42.078 15.44 42.2916 15.08 42.3806C14.7 42.4695 14.6 42.4428 14.6 42.256Z" fill="#9C9C9C"/>
<path d="M85.28 42.3717C84.95 42.3005 85.08 42.078 85.45 42.078C85.73 42.078 85.8 42.1136 85.8 42.256C85.8 42.434 85.66 42.4606 85.28 42.3717Z" fill="#9C9C9C"/>
<path d="M26.9 42.078C26.9 41.8911 27 41.8644 27.38 41.9534C27.74 42.0424 27.65 42.256 27.25 42.256C26.97 42.256 26.9 42.2204 26.9 42.078Z" fill="#9C9C9C"/>
<path d="M25.9 41.989C25.9 41.8021 26 41.7754 26.38 41.8644C26.74 41.9534 26.65 42.167 26.25 42.167C25.97 42.167 25.9 42.1314 25.9 41.989Z" fill="#9C9C9C"/>
<path d="M68.56 42.0958C68.53 42.0691 68.5 41.9712 68.5 41.8822C68.5 41.7576 68.58 41.722 68.85 41.722C69.07 41.722 69.2 41.7665 69.2 41.8377C69.2 41.9534 68.65 42.1848 68.56 42.0958Z" fill="#9C9C9C"/>
<path d="M7.2 41.8555C7.2 41.6597 7.24 41.633 7.55 41.633C7.98 41.633 7.99 41.722 7.61 41.9267C7.23 42.1225 7.2 42.1225 7.2 41.8555Z" fill="#9C9C9C"/>
<path d="M16.1 41.9C16.1 41.7576 16.17 41.722 16.45 41.722C16.85 41.722 16.94 41.9356 16.58 42.0246C16.2 42.1136 16.1 42.0869 16.1 41.9Z" fill="#9C9C9C"/>
<path d="M39.58 41.8288C39.16 41.5974 39.15 41.455 39.55 41.455C39.87 41.455 39.9 41.4728 39.9 41.722C39.9 41.8733 39.89 41.989 39.88 41.9801C39.86 41.9801 39.73 41.9089 39.58 41.8288V41.8288Z" fill="#9C9C9C"/>
<path d="M83.03 41.8822C82.58 41.7487 82.6 41.544 83.05 41.544C83.36 41.544 83.4 41.5707 83.4 41.7665C83.4 41.8911 83.39 41.989 83.38 41.9801C83.36 41.9712 83.2 41.9267 83.03 41.8822Z" fill="#9C9C9C"/>
<path d="M30.33 41.7398C29.71 41.5885 29.61 41.3661 30.15 41.3661C30.34 41.3661 30.5 41.4106 30.5 41.455C30.5 41.5084 30.66 41.544 30.85 41.544C31.13 41.544 31.2 41.5796 31.2 41.722C31.2 41.9356 31.06 41.9356 30.33 41.7398Z" fill="#9C9C9C"/>
<path d="M37.4 41.6775C37.4 41.4105 37.43 41.4105 37.81 41.6063C38.19 41.811 38.18 41.9 37.75 41.9C37.44 41.9 37.4 41.8733 37.4 41.6775Z" fill="#9C9C9C"/>
<path d="M17.9 41.5796C17.9 41.3928 17.95 41.3661 18.25 41.3661C18.47 41.3661 18.6 41.4106 18.6 41.4817C18.6 41.5529 18.44 41.6419 18.25 41.6953C17.92 41.7932 17.9 41.7843 17.9 41.5796Z" fill="#9C9C9C"/>
<path d="M58.6 41.5885C58.6 41.3928 58.64 41.3661 58.95 41.3661C59.38 41.3661 59.39 41.455 59.01 41.6597C58.63 41.8555 58.6 41.8555 58.6 41.5885Z" fill="#9C9C9C"/>
<path d="M60.8 41.722C60.8 41.6775 61.04 41.544 61.33 41.4284C62.17 41.0813 62.2 41.0724 62.2 41.3216C62.2 41.5173 62.16 41.544 61.85 41.544C61.61 41.544 61.5 41.5885 61.5 41.6775C61.5 41.7665 61.39 41.811 61.15 41.811C60.96 41.811 60.8 41.7754 60.8 41.722Z" fill="#9C9C9C"/>
<path d="M94.35 41.7487C93.83 41.633 93.76 41.3661 94.25 41.3661C94.56 41.3661 94.6 41.3928 94.6 41.5885C94.6 41.7131 94.59 41.8021 94.58 41.8021C94.56 41.7932 94.46 41.7665 94.35 41.7487Z" fill="#9C9C9C"/>
<path d="M90.7 41.5529C90.7 41.3127 90.82 41.2682 91.1 41.3928C91.48 41.5707 91.46 41.722 91.06 41.722C90.77 41.722 90.7 41.6864 90.7 41.5529V41.5529Z" fill="#9C9C9C"/>
<path d="M70.3 41.455C70.3 41.3127 70.37 41.2771 70.65 41.2771C71.05 41.2771 71.14 41.4906 70.78 41.5796C70.4 41.6686 70.3 41.6419 70.3 41.455Z" fill="#9C9C9C"/>
<path d="M8.4 41.3304C8.4 41.197 8.49 41.0902 8.65 41.0279C8.94 40.9033 9.5 40.8855 9.5 40.9923C9.5 41.0724 9.05 41.3216 8.67 41.4461C8.43 41.5351 8.4 41.5173 8.4 41.3304V41.3304Z" fill="#9C9C9C"/>
<path d="M19 41.3661C19 41.2237 19.07 41.1881 19.35 41.1881C19.75 41.1881 19.84 41.4017 19.48 41.4906C19.1 41.5796 19 41.5529 19 41.3661Z" fill="#9C9C9C"/>
<path d="M93.35 41.3927C92.83 41.2771 92.76 41.0101 93.25 41.0101C93.56 41.0101 93.6 41.0368 93.6 41.2326C93.6 41.3572 93.59 41.4461 93.58 41.4461C93.56 41.4372 93.46 41.4105 93.35 41.3927Z" fill="#9C9C9C"/>
<path d="M11.32 41.2593C11.35 41.197 11.51 41.0991 11.68 41.0368C11.99 40.9211 12 40.93 12 41.1436C12 41.3394 11.96 41.3661 11.64 41.3661C11.41 41.3661 11.3 41.3305 11.32 41.2593Z" fill="#9C9C9C"/>
<path d="M20.3 41.1881C20.3 41.0457 20.37 41.0101 20.65 41.0101C20.92 41.0101 21 41.0457 21 41.1703C21 41.2771 20.91 41.3305 20.65 41.3394C20.36 41.3661 20.3 41.3394 20.3 41.1881V41.1881Z" fill="#9C9C9C"/>
<path d="M28.18 41.3038C27.85 41.2326 27.98 41.0101 28.35 41.0101C28.63 41.0101 28.7 41.0457 28.7 41.1881C28.7 41.366 28.56 41.3927 28.18 41.3038Z" fill="#9C9C9C"/>
<path d="M36.4 41.0991C36.4 40.8143 36.48 40.8143 36.93 41.1258C37.18 41.3126 37.14 41.366 36.75 41.366C36.43 41.366 36.4 41.3482 36.4 41.0991Z" fill="#9C9C9C"/>
<path d="M21.1 41.0991C21.1 40.9567 21.17 40.9211 21.45 40.9211C21.85 40.9211 21.94 41.1347 21.58 41.2237C21.2 41.3127 21.1 41.286 21.1 41.0991Z" fill="#9C9C9C"/>
<path d="M92.43 41.0546C92 40.8944 92.01 40.7431 92.45 40.7431C92.76 40.7431 92.8 40.7698 92.8 40.9656C92.8 41.0902 92.79 41.1881 92.78 41.1881C92.76 41.1792 92.6 41.1258 92.43 41.0546Z" fill="#9C9C9C"/>
<path d="M94.2 40.6897C94.2 40.2982 94.38 40.316 94.57 40.7253C94.7 41.0012 94.69 41.0101 94.45 41.0101C94.23 41.0101 94.2 40.9745 94.2 40.6897Z" fill="#9C9C9C"/>
<path d="M60.5 40.6986C60.5 40.5028 60.54 40.4761 60.85 40.4761C61.09 40.4761 61.2 40.4317 61.2 40.3427C61.2 40.2537 61.31 40.2092 61.55 40.2092C62.05 40.2092 61.98 40.3516 61.38 40.5918C60.53 40.9389 60.5 40.9478 60.5 40.6986Z" fill="#9C9C9C"/>
<path d="M90.88 40.6185C90.48 40.4939 90.52 40.2982 90.95 40.2982C91.23 40.2982 91.3 40.3338 91.3 40.4672C91.3 40.6986 91.21 40.7342 90.88 40.6185Z" fill="#9C9C9C"/>
<path d="M34.8 40.4406C34.8 40.2359 34.82 40.227 35.15 40.3249C35.34 40.3783 35.5 40.4673 35.5 40.5384C35.5 40.6096 35.37 40.6541 35.15 40.6541C34.85 40.6541 34.8 40.6274 34.8 40.4406Z" fill="#9C9C9C"/>
<path d="M86.3 40.4406C86.3 40.2359 86.32 40.227 86.65 40.3249C86.84 40.3783 87 40.4673 87 40.5384C87 40.6096 86.87 40.6541 86.65 40.6541C86.35 40.6541 86.3 40.6274 86.3 40.4406Z" fill="#9C9C9C"/>
<path d="M13.9 40.3961C13.9 40.2893 14.11 40.1558 14.38 40.0935C14.56 40.0579 14.6 40.0846 14.6 40.2626C14.6 40.4494 14.55 40.4761 14.25 40.4761C14.06 40.4761 13.9 40.4405 13.9 40.3961Z" fill="#9C9C9C"/>
<path d="M62 40.1647C62 39.9689 62.04 39.9422 62.36 39.9422C62.8 39.9422 62.78 40.1024 62.32 40.2715C62.01 40.3872 62 40.3783 62 40.1647Z" fill="#9C9C9C"/>
<path d="M65.8 40.2626C65.8 40.1914 66.03 40.0935 66.4 40.0134C67 39.8888 67 39.8888 67 40.0757C67 40.2359 66.93 40.2893 66.63 40.3338C66.04 40.4139 65.8 40.396 65.8 40.2626V40.2626Z" fill="#9C9C9C"/>
<path d="M84.8 40.2092C84.8 40.0223 84.9 39.9956 85.28 40.0846C85.64 40.1736 85.55 40.3871 85.15 40.3871C84.87 40.3871 84.8 40.3516 84.8 40.2092Z" fill="#9C9C9C"/>
<path d="M89.13 40.138C88.51 39.9867 88.41 39.7642 88.95 39.7642C89.14 39.7642 89.3 39.8087 89.3 39.8532C89.3 39.9066 89.46 39.9422 89.65 39.9422C89.93 39.9422 90 39.9778 90 40.1202C90 40.3338 89.86 40.3338 89.13 40.138Z" fill="#9C9C9C"/>
<path d="M14.8 40.0935C14.8 39.9956 15.46 39.7464 16.05 39.6218C16.75 39.4706 16.8 39.4706 16.8 39.6663C16.8 39.8176 16.74 39.8532 16.45 39.8532C16.26 39.8532 16.1 39.8888 16.1 39.9244C16.1 40.0223 15.41 40.2092 15.06 40.2092C14.91 40.2092 14.8 40.1558 14.8 40.0935V40.0935Z" fill="#9C9C9C"/>
<path d="M36.13 39.9867C35.62 39.7731 35.57 39.5862 36.03 39.5862C36.46 39.5862 36.62 39.693 36.58 39.9511C36.55 40.1647 36.55 40.1647 36.13 39.9867Z" fill="#9C9C9C"/>
<path d="M83.43 40.1469C83.18 40.1202 83.1 40.0668 83.1 39.9333C83.1 39.7464 83.14 39.7375 84.15 39.8888C84.26 39.8977 84.36 39.9778 84.38 40.0579C84.42 40.2181 84.21 40.2359 83.43 40.1469Z" fill="#9C9C9C"/>
<path d="M12.8 39.6218C12.8 39.4349 12.85 39.4082 13.15 39.4082C13.66 39.4082 13.57 39.6663 13.03 39.7909C12.84 39.8265 12.8 39.7998 12.8 39.6218Z" fill="#9C9C9C"/>
<path d="M32.6 39.6752C32.6 39.4706 32.98 39.4261 33.18 39.604C33.38 39.782 33.32 39.8532 32.95 39.8532C32.67 39.8532 32.6 39.8176 32.6 39.6752Z" fill="#9C9C9C"/>
<path d="M63.9 39.5862C63.9 39.4438 63.97 39.4082 64.25 39.4082C64.65 39.4082 64.74 39.6218 64.38 39.7108C64 39.7998 63.9 39.7731 63.9 39.5862Z" fill="#9C9C9C"/>
<path d="M79.8 39.5862C79.8 39.3994 79.9 39.3727 80.28 39.4617C80.64 39.5506 80.55 39.7642 80.15 39.7642C79.87 39.7642 79.8 39.7286 79.8 39.5862Z" fill="#9C9C9C"/>
<path d="M78.6 39.4973C78.6 39.3104 78.7 39.2837 79.08 39.3727C79.44 39.4617 79.35 39.6752 78.95 39.6752C78.67 39.6752 78.6 39.6396 78.6 39.4973Z" fill="#9C9C9C"/>
<path d="M93.5 39.3549C93.5 38.9633 93.68 38.9811 93.87 39.3904C94 39.6663 93.99 39.6752 93.75 39.6752C93.53 39.6752 93.5 39.6396 93.5 39.3549Z" fill="#9C9C9C"/>
<path d="M73.4 39.4616C73.4 39.346 73.68 39.2303 73.98 39.2303C74.04 39.2303 74.1 39.3104 74.1 39.4083C74.1 39.5506 74.03 39.5862 73.75 39.5862C73.52 39.5862 73.4 39.5417 73.4 39.4616Z" fill="#9C9C9C"/>
<path d="M76.4 39.4083C76.4 39.2214 76.5 39.1947 76.88 39.2837C77.24 39.3727 77.15 39.5862 76.75 39.5862C76.47 39.5862 76.4 39.5506 76.4 39.4083Z" fill="#9C9C9C"/>
<path d="M84.93 39.3015C84.48 39.168 84.5 38.9633 84.95 38.9633C85.26 38.9633 85.3 38.99 85.3 39.1858C85.3 39.3104 85.29 39.4083 85.28 39.3994C85.26 39.3905 85.1 39.346 84.93 39.3015Z" fill="#9C9C9C"/>
<path d="M14.2 39.1413C14.2 38.9989 14.27 38.9633 14.55 38.9633C14.95 38.9633 15.04 39.1769 14.68 39.2659C14.3 39.3549 14.2 39.3282 14.2 39.1413Z" fill="#9C9C9C"/>
<path d="M18.5 39.1947C18.5 39.079 18.78 38.9633 19.08 38.9633C19.14 38.9633 19.2 39.0434 19.2 39.1413C19.2 39.2837 19.13 39.3193 18.85 39.3193C18.62 39.3193 18.5 39.2748 18.5 39.1947Z" fill="#9C9C9C"/>
<path d="M19.62 38.99C19.64 38.901 19.77 38.8298 19.98 38.812C20.25 38.7764 20.3 38.8031 20.3 38.9544C20.3 39.1057 20.24 39.1413 19.94 39.1413C19.66 39.1413 19.59 39.1057 19.62 38.99Z" fill="#9C9C9C"/>
<path d="M15.56 38.9811C15.53 38.9544 15.5 38.8565 15.5 38.7675C15.5 38.6429 15.58 38.6073 15.85 38.6073C16.07 38.6073 16.2 38.6518 16.2 38.723C16.2 38.8387 15.65 39.0701 15.56 38.9811Z" fill="#9C9C9C"/>
<path d="M82.98 38.99C82.65 38.9188 82.78 38.6963 83.15 38.6963C83.43 38.6963 83.5 38.7319 83.5 38.8743C83.5 39.0523 83.36 39.079 82.98 38.99Z" fill="#9C9C9C"/>
<path d="M68.3 38.7853C68.3 38.6429 68.37 38.6073 68.65 38.6073C69.05 38.6073 69.14 38.8209 68.78 38.9099C68.4 38.9989 68.3 38.9722 68.3 38.7853Z" fill="#9C9C9C"/>
<path d="M26.7 38.6073C26.7 38.4205 26.8 38.3938 27.18 38.4828C27.54 38.5717 27.45 38.7853 27.05 38.7853C26.77 38.7853 26.7 38.7497 26.7 38.6073Z" fill="#9C9C9C"/>
<path d="M69.9 38.6073C69.9 38.4649 69.97 38.4294 70.25 38.4294C70.65 38.4294 70.74 38.6429 70.38 38.7319C70 38.8209 69.9 38.7942 69.9 38.6073Z" fill="#9C9C9C"/>
<path d="M79.38 38.634C79.05 38.5628 79.18 38.3404 79.55 38.3404C79.83 38.3404 79.9 38.376 79.9 38.5184C79.9 38.6963 79.76 38.723 79.38 38.634Z" fill="#9C9C9C"/>
<path d="M72.3 38.4294C72.3 38.287 72.37 38.2514 72.65 38.2514C73.05 38.2514 73.14 38.465 72.78 38.5539C72.4 38.6429 72.3 38.6162 72.3 38.4294Z" fill="#9C9C9C"/>
<path d="M77.68 38.545C77.35 38.4738 77.48 38.2514 77.85 38.2514C78.13 38.2514 78.2 38.287 78.2 38.4294C78.2 38.6073 78.06 38.634 77.68 38.545Z" fill="#9C9C9C"/>
<path d="M31.68 38.4561C31.35 38.3849 31.48 38.1624 31.85 38.1624C32.13 38.1624 32.2 38.198 32.2 38.3404C32.2 38.5183 32.06 38.545 31.68 38.4561Z" fill="#9C9C9C"/>
<path d="M30.48 38.1891C30.15 38.1179 30.28 37.8954 30.65 37.8954C30.93 37.8954 31 37.931 31 38.0734C31 38.2514 30.86 38.2781 30.48 38.1891Z" fill="#9C9C9C"/>
<path d="M19.8 37.8954C19.8 37.753 19.87 37.7174 20.15 37.7174C20.55 37.7174 20.64 37.931 20.28 38.02C19.9 38.109 19.8 38.0823 19.8 37.8954Z" fill="#9C9C9C"/>
<path d="M28.1 37.6996C28.1 37.575 28.18 37.5394 28.45 37.5394C28.73 37.5394 28.8 37.575 28.8 37.7174C28.8 37.8687 28.74 37.8954 28.45 37.8687C28.19 37.8598 28.1 37.8064 28.1 37.6996V37.6996Z" fill="#9C9C9C"/>
<path d="M22.1 37.6284C22.1 37.4861 22.17 37.4505 22.45 37.4505C22.85 37.4505 22.94 37.664 22.58 37.753C22.2 37.842 22.1 37.8153 22.1 37.6284Z" fill="#9C9C9C"/>
<path d="M23.6 37.5394C23.6 37.3971 23.67 37.3615 23.95 37.3615C24.35 37.3615 24.44 37.575 24.08 37.664C23.7 37.753 23.6 37.7263 23.6 37.5394Z" fill="#9C9C9C"/>
<path d="M25.68 37.6551C25.32 37.575 25.48 37.3615 25.9 37.3615C26.23 37.3615 26.3 37.3882 26.3 37.5394C26.3 37.7174 26.1 37.753 25.68 37.6551Z" fill="#9C9C9C"/>
<path d="M92.2 37.05C92.2 36.6584 92.29 36.6584 92.58 37.05C92.8 37.3615 92.8 37.3615 92.5 37.3615C92.22 37.3615 92.2 37.3348 92.2 37.05Z" fill="#9C9C9C"/>
<path d="M7.82 36.5161C8.11 36.1245 8.2 36.1245 8.2 36.5161C8.2 36.8008 8.18 36.8275 7.9 36.8275C7.6 36.8275 7.6 36.8275 7.82 36.5161Z" fill="#9C9C9C"/>
<path d="M91.6 36.0711C91.6 35.7062 91.65 35.6884 91.91 35.9643C92.16 36.2402 92.15 36.3826 91.85 36.3826C91.63 36.3826 91.6 36.347 91.6 36.0711Z" fill="#9C9C9C"/>
<path d="M90.4 34.2913C90.4 34.1489 90.34 34.0688 90.25 34.0688C90.15 34.0688 90.1 33.9709 90.1 33.7573C90.1 33.2768 90.24 33.3569 90.72 34.1311C90.95 34.5049 90.95 34.5138 90.65 34.5138C90.45 34.5138 90.4 34.4693 90.4 34.2913Z" fill="#9C9C9C"/>
<path d="M10.34 32.7784C10.42 32.5827 11.38 31.3279 11.5 31.2656C11.56 31.23 11.6 31.3368 11.6 31.5237C11.6 31.7017 11.56 31.844 11.5 31.844C11.45 31.844 11.4 31.9063 11.4 31.9775C11.4 32.0487 11.36 32.111 11.3 32.111C11.25 32.111 11.2 32.1733 11.2 32.2445C11.2 32.3157 11.16 32.378 11.1 32.378C11.05 32.378 11 32.4403 11 32.5115C11 32.5827 10.96 32.645 10.9 32.645C10.85 32.645 10.8 32.7072 10.8 32.7784C10.8 32.8585 10.7 32.9119 10.54 32.9119C10.35 32.9119 10.29 32.8763 10.34 32.7784Z" fill="#9C9C9C"/>
<path d="M88 30.9007C88 30.5537 88.09 30.5626 88.4 30.9541C88.61 31.2211 88.61 31.2211 88.31 31.2211C88.02 31.2211 88 31.1944 88 30.9007Z" fill="#9C9C9C"/>
<path d="M11 30.3846C11 30.3668 10.89 29.8684 10.75 29.2633C10.45 27.964 10.46 28.0174 10.68 28.0174C10.83 28.0174 10.9 28.1865 11.08 29.023C11.28 29.9663 11.29 30.4202 11.09 30.4202C11.04 30.4202 11 30.4024 11 30.3846V30.3846Z" fill="#9C9C9C"/>
<path d="M88.16 29.3968C88 29.1832 88 29.1743 88.2 29.1743C88.35 29.1743 88.4 29.2366 88.4 29.3968C88.4 29.5214 88.38 29.6193 88.36 29.6193C88.34 29.6193 88.25 29.5214 88.16 29.3968Z" fill="#9C9C9C"/>
<path d="M11.7 29.2188C11.7 28.934 11.72 28.9073 12 28.9073C12.29 28.9073 12.29 28.9073 12.12 29.1743C11.87 29.5659 11.7 29.5837 11.7 29.2188Z" fill="#9C9C9C"/>
<path d="M13.35 28.9429C13.49 28.8095 13.6 28.6671 13.6 28.6315C13.6 28.587 13.65 28.5514 13.7 28.5514C13.76 28.5514 13.8 28.6938 13.8 28.8628C13.8 29.1565 13.78 29.1743 13.45 29.1743C13.11 29.1743 13.11 29.1743 13.35 28.9429Z" fill="#9C9C9C"/>
<path d="M12.4 28.4446C12.4 28.142 12.43 28.1064 12.65 28.1064C12.86 28.1064 12.9 28.0619 12.9 27.8395C12.9 27.5992 12.93 27.5725 13.21 27.5725C13.51 27.5725 13.51 27.5725 13.31 27.8217C13.2 27.9551 12.95 28.2221 12.76 28.4179C12.41 28.7739 12.41 28.7739 12.4 28.4446Z" fill="#9C9C9C"/>
<path d="M85.62 26.6381C85.4 26.3266 85.4 26.3266 85.7 26.3266C85.98 26.3266 86 26.3533 86 26.6381C86 27.0296 85.91 27.0296 85.62 26.6381Z" fill="#9C9C9C"/>
<path d="M14.7 26.024C14.7 25.7304 14.72 25.7037 15.01 25.7037C15.31 25.7037 15.31 25.7037 15.1 25.9706C14.79 26.3622 14.7 26.3711 14.7 26.024Z" fill="#9C9C9C"/>
<path d="M88.9 25.5791C88.9 25.3121 88.94 25.2587 89.11 25.2587C89.28 25.2587 89.31 25.3032 89.27 25.5435C89.25 25.7304 89.17 25.8461 89.07 25.8638C88.94 25.8905 88.9 25.8283 88.9 25.5791V25.5791Z" fill="#9C9C9C"/>
<path d="M9.89 25.3299C9.89 25.3121 9.86 25.1697 9.84 25.0184C9.8 24.7693 9.82 24.7248 9.99 24.7248C10.16 24.7248 10.2 24.7782 10.2 25.0362C10.2 25.2498 10.15 25.3477 10.05 25.3477C9.97 25.3477 9.9 25.3388 9.89 25.3299Z" fill="#9C9C9C"/>
<path d="M82.9 24.1908C82.55 23.9328 82.55 23.9328 82.93 23.9239C83.28 23.9239 83.3 23.9416 83.3 24.1908C83.3 24.3421 83.29 24.4578 83.27 24.4578C83.26 24.4578 83.09 24.3421 82.9 24.1908Z" fill="#9C9C9C"/>
<path d="M9.69 24.351C9.67 24.2976 9.61 23.9416 9.55 23.5946C9.5 23.2564 9.51 23.2119 9.68 23.2119C9.83 23.2119 9.89 23.292 9.94 23.6213C10.03 24.2353 10.02 24.3688 9.85 24.3688C9.77 24.3688 9.7 24.3599 9.69 24.351V24.351Z" fill="#9C9C9C"/>
<path d="M18.5 24.1285C18.5 24.084 18.65 23.9683 18.83 23.8616C19 23.7548 19.27 23.5768 19.43 23.4789C19.7 23.2831 19.7 23.2831 19.7 23.559C19.7 23.7904 19.66 23.8349 19.45 23.8349C19.27 23.8349 19.2 23.8794 19.2 24.0128C19.2 24.1552 19.13 24.1908 18.85 24.1908C18.66 24.1908 18.5 24.1641 18.5 24.1285Z" fill="#9C9C9C"/>
<path d="M82.13 23.6302C81.71 23.381 81.72 23.3009 82.15 23.3009C82.47 23.3009 82.5 23.3187 82.5 23.5679C82.5 23.7192 82.49 23.8349 82.48 23.826C82.46 23.826 82.3 23.737 82.13 23.6302V23.6302Z" fill="#9C9C9C"/>
<path d="M89.4 23.1674C89.4 22.9183 89.44 22.856 89.6 22.856C89.81 22.856 89.84 22.945 89.74 23.2831C89.64 23.6035 89.4 23.5234 89.4 23.1674Z" fill="#9C9C9C"/>
<path d="M19.3 22.322C19.3 22.0728 19.33 22.055 19.65 22.055C20.06 22.055 20.04 22.2063 19.6 22.4288C19.3 22.5801 19.3 22.5801 19.3 22.322Z" fill="#9C9C9C"/>
<path d="M9.26 21.9928C9.07 21.1206 9.07 21.0761 9.28 21.0761C9.43 21.0761 9.49 21.1562 9.54 21.4855C9.57 21.7169 9.6 21.975 9.6 22.0639C9.6 22.322 9.32 22.2597 9.26 21.9928V21.9928Z" fill="#9C9C9C"/>
<path d="M77.6 21.8326C77.6 21.5567 77.71 21.5478 78.07 21.8326C78.35 22.0461 78.35 22.0461 77.98 22.055C77.64 22.055 77.6 22.0283 77.6 21.8326Z" fill="#9C9C9C"/>
<path d="M22.4 21.6279C22.4 21.5567 22.92 21.2541 23.04 21.2541C23.07 21.2541 23.1 21.352 23.1 21.4766C23.1 21.6724 23.06 21.6991 22.75 21.6991C22.56 21.6991 22.4 21.6635 22.4 21.6279Z" fill="#9C9C9C"/>
<path d="M76.5 21.2986C76.5 21.2185 76.41 21.1651 76.25 21.1651C76.05 21.1651 76 21.1206 76 20.9427C76 20.8181 76.04 20.7202 76.09 20.7202C76.22 20.7202 77.2 21.2897 77.2 21.3698C77.2 21.4054 77.04 21.4321 76.85 21.4321C76.61 21.4321 76.5 21.3876 76.5 21.2986Z" fill="#9C9C9C"/>
<path d="M89.8 21.1206C89.8 20.8715 89.84 20.8092 90 20.8092C90.21 20.8092 90.24 20.8982 90.14 21.2363C90.04 21.5567 89.8 21.4766 89.8 21.1206Z" fill="#9C9C9C"/>
<path d="M21.8 20.7647C21.8 20.5689 21.84 20.5422 22.15 20.5422C22.58 20.5422 22.59 20.6312 22.21 20.8359C21.83 21.0316 21.8 21.0316 21.8 20.7647Z" fill="#9C9C9C"/>
<path d="M76.88 20.293C76.51 20.0972 76.53 20.0083 76.95 20.0083C77.26 20.0083 77.3 20.035 77.3 20.2307C77.3 20.4888 77.24 20.4977 76.88 20.293Z" fill="#9C9C9C"/>
<path d="M25.2 20.2129C25.2 20.1684 25.36 20.0528 25.55 19.9371C25.9 19.7413 25.9 19.7413 25.9 20.0083C25.9 20.2574 25.87 20.2752 25.55 20.2752C25.36 20.2752 25.2 20.2485 25.2 20.2129V20.2129Z" fill="#9C9C9C"/>
<path d="M73.6 19.8748C73.6 19.7858 73.5 19.7413 73.33 19.7413C72.94 19.7413 72.78 19.6256 72.82 19.3942C72.85 19.1984 72.86 19.1984 73.58 19.5188C73.97 19.6968 74.3 19.8837 74.3 19.9282C74.3 19.9727 74.14 20.0083 73.95 20.0083C73.71 20.0083 73.6 19.9638 73.6 19.8748Z" fill="#9C9C9C"/>
<path d="M8.86 19.7235C8.76 19.3853 8.79 19.2963 9 19.2963C9.16 19.2963 9.2 19.3586 9.2 19.6078C9.2 19.9638 8.96 20.0439 8.86 19.7235Z" fill="#9C9C9C"/>
<path d="M23.73 19.6968C23.45 19.4832 23.45 19.4832 23.98 19.4743C24.56 19.4743 24.61 19.5277 24.25 19.768C24.02 19.9193 24 19.9104 23.73 19.6968Z" fill="#9C9C9C"/>
<path d="M90.1 19.4298C90.1 19.1806 90.14 19.1183 90.3 19.1183C90.51 19.1183 90.54 19.2073 90.44 19.5455C90.34 19.8659 90.1 19.7858 90.1 19.4298Z" fill="#9C9C9C"/>
<path d="M74.33 19.0383C74.02 18.8069 74.04 18.7624 74.45 18.7624C74.76 18.7624 74.8 18.7891 74.8 18.9849C74.8 19.2518 74.64 19.2607 74.33 19.0383Z" fill="#9C9C9C"/>
<path d="M71.3 18.8069C71.3 18.5933 71.31 18.5844 71.62 18.7001C72.08 18.8692 72.1 19.0294 71.66 19.0294C71.34 19.0294 71.3 19.0027 71.3 18.8069Z" fill="#9C9C9C"/>
<path d="M20.94 18.8158C20.91 18.7446 20.9 18.6022 20.92 18.4954C20.95 18.3174 20.97 18.3174 21.35 18.62C21.75 18.9315 21.75 18.9315 21.37 18.9404C21.13 18.9404 20.97 18.8959 20.94 18.8158Z" fill="#9C9C9C"/>
<path d="M73.63 18.7179C73.2 18.5577 73.21 18.4064 73.65 18.4064C73.96 18.4064 74 18.4331 74 18.6289C74 18.7535 73.99 18.8514 73.98 18.8514C73.96 18.8425 73.8 18.7891 73.63 18.7179Z" fill="#9C9C9C"/>
<path d="M28.8 18.6823C28.8 18.5755 29.01 18.442 29.28 18.3797C29.46 18.3441 29.5 18.3708 29.5 18.5488C29.5 18.7357 29.45 18.7624 29.15 18.7624C28.96 18.7624 28.8 18.7268 28.8 18.6823Z" fill="#9C9C9C"/>
<path d="M26.5 18.4509C26.5 18.2551 26.54 18.2284 26.86 18.2284C27.3 18.2284 27.28 18.3886 26.82 18.5577C26.51 18.6734 26.5 18.6645 26.5 18.4509Z" fill="#9C9C9C"/>
<path d="M27.6 18.006C27.6 17.8102 27.64 17.7835 27.96 17.7835C28.4 17.7835 28.38 17.9437 27.92 18.1128C27.61 18.2284 27.6 18.2195 27.6 18.006Z" fill="#9C9C9C"/>
<path d="M31.42 17.7657C31.45 17.7034 31.61 17.6055 31.78 17.5432C32.09 17.4275 32.1 17.4364 32.1 17.65C32.1 17.8458 32.06 17.8725 31.74 17.8725C31.51 17.8725 31.4 17.8369 31.42 17.7657Z" fill="#9C9C9C"/>
<path d="M71.05 17.7212C70.53 17.6055 70.46 17.3385 70.95 17.3385C71.26 17.3385 71.3 17.3652 71.3 17.561C71.3 17.6856 71.29 17.7746 71.28 17.7746C71.26 17.7657 71.16 17.739 71.05 17.7212V17.7212Z" fill="#9C9C9C"/>
<path d="M29 17.472C29 17.294 29.05 17.2495 29.25 17.2495C29.39 17.2495 29.5 17.2139 29.5 17.1606C29.5 17.1161 29.66 17.0716 29.86 17.0716C30.39 17.0716 30.29 17.2495 29.6 17.4987C29.04 17.7034 29 17.7034 29 17.472Z" fill="#9C9C9C"/>
<path d="M66.38 17.3652C66.2 17.3296 66.13 17.0271 66.28 16.947C66.39 16.8847 67.2 17.2228 67.2 17.3385C67.2 17.4275 66.71 17.4453 66.38 17.3652Z" fill="#9C9C9C"/>
<path d="M33.5 17.125C33.5 17.0093 33.78 16.8936 34.08 16.8936C34.14 16.8936 34.2 16.9737 34.2 17.0716C34.2 17.2139 34.13 17.2495 33.85 17.2495C33.62 17.2495 33.5 17.205 33.5 17.125Z" fill="#9C9C9C"/>
<path d="M8.46 16.9648C8.36 16.6266 8.39 16.5376 8.6 16.5376C8.76 16.5376 8.8 16.5999 8.8 16.8491C8.8 17.205 8.56 17.2851 8.46 16.9648Z" fill="#9C9C9C"/>
<path d="M78.55 16.9826C78.58 16.9381 78.74 16.8135 78.9 16.7156C79.2 16.5287 79.2 16.5287 79.2 16.7957C79.2 17.0538 79.17 17.0716 78.84 17.0716C78.64 17.0716 78.51 17.036 78.55 16.9826Z" fill="#9C9C9C"/>
<path d="M31.1 16.7601C31.1 16.5643 31.14 16.5376 31.46 16.5376C31.9 16.5376 31.88 16.6978 31.42 16.8669C31.11 16.9826 31.1 16.9737 31.1 16.7601Z" fill="#9C9C9C"/>
<path d="M34.9 16.769C34.9 16.6533 35.18 16.5376 35.48 16.5376C35.54 16.5376 35.6 16.6177 35.6 16.7156C35.6 16.858 35.53 16.8936 35.25 16.8936C35.02 16.8936 34.9 16.8491 34.9 16.769Z" fill="#9C9C9C"/>
<path d="M64.1 16.6266C64.1 16.4397 64.2 16.413 64.58 16.502C64.94 16.591 64.85 16.8046 64.45 16.8046C64.17 16.8046 64.1 16.769 64.1 16.6266Z" fill="#9C9C9C"/>
<path d="M68.03 16.6978C67.58 16.5643 67.6 16.3596 68.05 16.3596C68.36 16.3596 68.4 16.3863 68.4 16.5821C68.4 16.7067 68.39 16.8046 68.38 16.7957C68.36 16.7868 68.2 16.7423 68.03 16.6978V16.6978Z" fill="#9C9C9C"/>
<path d="M20 16.4486C19.65 16.1906 19.65 16.1906 20.03 16.1817C20.38 16.1817 20.4 16.1995 20.4 16.4486C20.4 16.5999 20.39 16.7156 20.37 16.7156C20.36 16.7156 20.19 16.5999 20 16.4486Z" fill="#9C9C9C"/>
<path d="M32.36 16.5554C32.33 16.5287 32.3 16.4308 32.3 16.3418C32.3 16.2172 32.38 16.1817 32.65 16.1817C32.87 16.1817 33 16.2261 33 16.2973C33 16.413 32.45 16.6444 32.36 16.5554Z" fill="#9C9C9C"/>
<path d="M66.38 16.235C65.98 16.1105 66.02 15.9147 66.45 15.9147C66.73 15.9147 66.8 15.9503 66.8 16.0838C66.8 16.3151 66.71 16.3507 66.38 16.235V16.235Z" fill="#9C9C9C"/>
<path d="M78 16.1016C78 15.8435 78.03 15.8257 78.36 15.8257C78.75 15.8257 78.74 15.9058 78.3 16.1817C78 16.3685 78 16.3685 78 16.1016Z" fill="#9C9C9C"/>
<path d="M61.6 16.0571C61.6 15.8524 61.62 15.8435 61.95 15.9414C62.14 15.9948 62.3 16.0838 62.3 16.155C62.3 16.2261 62.17 16.2706 61.95 16.2706C61.65 16.2706 61.6 16.2439 61.6 16.0571Z" fill="#9C9C9C"/>
<path d="M90.7 15.4252C90.7 15.1761 90.74 15.1138 90.9 15.1138C91.11 15.1138 91.14 15.2028 91.04 15.5409C90.94 15.8613 90.7 15.7812 90.7 15.4252Z" fill="#9C9C9C"/>
<path d="M41.7 15.4964C41.7 15.3807 41.79 15.3273 42.05 15.3184C42.34 15.2917 42.4 15.3184 42.4 15.4697C42.4 15.6121 42.33 15.6477 42.05 15.6477C41.78 15.6477 41.7 15.6121 41.7 15.4964Z" fill="#9C9C9C"/>
<path d="M57.7 15.4697C57.7 15.2828 57.8 15.2561 58.18 15.3451C58.54 15.4341 58.45 15.6477 58.05 15.6477C57.77 15.6477 57.7 15.6121 57.7 15.4697Z" fill="#9C9C9C"/>
<path d="M56.9 15.3807C56.9 15.2295 56.96 15.2028 57.25 15.2295C57.51 15.2383 57.6 15.2917 57.6 15.4074C57.6 15.5231 57.52 15.5587 57.25 15.5587C56.97 15.5587 56.9 15.5231 56.9 15.3807Z" fill="#9C9C9C"/>
<path d="M56.1 15.2917C56.1 15.1405 56.16 15.1138 56.45 15.1405C56.71 15.1494 56.8 15.2028 56.8 15.3184C56.8 15.4341 56.72 15.4697 56.45 15.4697C56.17 15.4697 56.1 15.4341 56.1 15.2917Z" fill="#9C9C9C"/>
<path d="M54.1 15.1138C54.1 14.9269 54.2 14.9002 54.58 14.9892C54.94 15.0782 54.85 15.2917 54.45 15.2917C54.17 15.2917 54.1 15.2561 54.1 15.1138Z" fill="#9C9C9C"/>
<path d="M32.2 14.9002C32.2 14.5976 32.2 14.5976 32.55 14.8735C32.74 15.0248 32.9 15.1583 32.9 15.1761C32.9 15.1939 32.74 15.2028 32.55 15.2028C32.22 15.2028 32.2 15.185 32.2 14.9002Z" fill="#9C9C9C"/>
<path d="M47.4 15.0782C47.4 14.9625 47.68 14.8468 47.98 14.8468C48.04 14.8468 48.1 14.9269 48.1 15.0248C48.1 15.1672 48.03 15.2028 47.75 15.2028C47.52 15.2028 47.4 15.1583 47.4 15.0782Z" fill="#9C9C9C"/>
<path d="M52 15.0248C52 14.8379 52.1 14.8112 52.48 14.9002C52.84 14.9892 52.75 15.2028 52.35 15.2028C52.07 15.2028 52 15.1672 52 15.0248Z" fill="#9C9C9C"/>
<path d="M90.8 14.5353C90.8 14.2861 90.84 14.2239 91 14.2239C91.21 14.2239 91.24 14.3128 91.14 14.651C91.04 14.9714 90.8 14.8913 90.8 14.5353Z" fill="#9C9C9C"/>
<path d="M67.75 14.2239C67.78 14.1794 67.94 14.0548 68.1 13.9569C68.4 13.77 68.4 13.77 68.4 14.037C68.4 14.295 68.37 14.3128 68.04 14.3128C67.84 14.3128 67.71 14.2772 67.75 14.2239Z" fill="#9C9C9C"/>
<path d="M15.2 13.9124C15.2 13.6098 15.2 13.6098 15.46 13.8234C15.61 13.948 15.77 14.0459 15.81 14.0459C15.86 14.0459 15.9 14.0904 15.9 14.1349C15.9 14.1883 15.74 14.2239 15.55 14.2239C15.22 14.2239 15.2 14.2061 15.2 13.9124Z" fill="#9C9C9C"/>
<path d="M16.8 13.8679C16.45 13.6098 16.45 13.6098 16.83 13.6009C17.18 13.6009 17.2 13.6187 17.2 13.8679C17.2 14.0192 17.19 14.1349 17.17 14.1349C17.16 14.1349 16.99 14.0192 16.8 13.8679Z" fill="#9C9C9C"/>
<path d="M80.9 13.6988C80.9 13.4407 80.93 13.4229 81.26 13.4229C81.65 13.4229 81.64 13.503 81.2 13.7789C80.9 13.9658 80.9 13.9658 80.9 13.6988Z" fill="#9C9C9C"/>
<path d="M30 13.2094C30 12.9068 30 12.9068 30.35 13.1827C30.54 13.3339 30.7 13.4674 30.7 13.4852C30.7 13.503 30.54 13.5119 30.35 13.5119C30.02 13.5119 30 13.4941 30 13.2094Z" fill="#9C9C9C"/>
<path d="M15 12.5686C14.65 12.2661 14.65 12.2661 15.03 12.2661C15.39 12.2661 15.4 12.275 15.4 12.5775C15.4 12.7466 15.39 12.889 15.38 12.8801C15.36 12.8712 15.19 12.7377 15 12.5686Z" fill="#9C9C9C"/>
<path d="M70.4 12.2038C70.4 12.1593 70.56 12.0436 70.75 11.9279C71.1 11.7321 71.1 11.7321 71.1 11.9991C71.1 12.2483 71.07 12.2661 70.75 12.2661C70.56 12.2661 70.4 12.2394 70.4 12.2038Z" fill="#9C9C9C"/>
<path d="M14.3 12.097C14.3 12.0525 14.21 11.9902 14.11 11.9546C14 11.9279 13.89 11.8478 13.86 11.7766C13.82 11.6787 13.89 11.6431 14.15 11.6431C14.47 11.6431 14.5 11.6609 14.5 11.9101C14.5 12.0614 14.46 12.1771 14.4 12.1771C14.35 12.1771 14.3 12.1415 14.3 12.097Z" fill="#9C9C9C"/>
<path d="M85.57 11.4651C85.75 11.3139 85.91 11.1982 85.94 11.1982C85.98 11.1982 86 11.3228 86 11.4651C86 11.7143 85.98 11.7321 85.63 11.7321C85.25 11.7321 85.25 11.7321 85.57 11.4651Z" fill="#9C9C9C"/>
<path d="M11 11.2427C11 10.9757 11.03 10.9757 11.41 11.1715C11.79 11.3761 11.78 11.4651 11.35 11.4651C11.04 11.4651 11 11.4384 11 11.2427Z" fill="#9C9C9C"/>
<path d="M12.43 10.9045C12.01 10.6553 12.02 10.5752 12.45 10.5752C12.77 10.5752 12.8 10.593 12.8 10.8422C12.8 10.9935 12.79 11.1092 12.78 11.1003C12.76 11.1003 12.6 11.0113 12.43 10.9045Z" fill="#9C9C9C"/>
<path d="M10.38 9.93449C9.72 9.72982 9.6 9.50734 10.15 9.50734C10.34 9.50734 10.5 9.55183 10.5 9.59633C10.5 9.64972 10.61 9.68532 10.75 9.68532C10.95 9.68532 11 9.72982 11 9.9078C11 10.0324 10.99 10.1303 10.98 10.1214C10.96 10.1214 10.69 10.0324 10.38 9.93449V9.93449Z" fill="#9C9C9C"/>
<path d="M88.1 9.97009C88.1 9.8989 88.62 9.59633 88.74 9.59633C88.77 9.59633 88.8 9.69422 88.8 9.81881C88.8 10.0146 88.76 10.0413 88.45 10.0413C88.26 10.0413 88.1 10.0057 88.1 9.97009Z" fill="#9C9C9C"/>
<path d="M74.07 9.50734C74.25 9.35605 74.41 9.24036 74.44 9.24036C74.48 9.24036 74.5 9.36495 74.5 9.50734C74.5 9.75651 74.48 9.77431 74.13 9.77431C73.75 9.77431 73.75 9.77431 74.07 9.50734Z" fill="#9C9C9C"/>
<path d="M86.8 9.50734C86.8 9.25816 86.83 9.24036 87.15 9.24036C87.59 9.24036 87.59 9.32045 87.15 9.57853C86.8 9.77431 86.8 9.77431 86.8 9.50734Z" fill="#9C9C9C"/>
<path d="M90.2 9.28486C90.2 9.09798 90.44 9.02679 90.69 9.15138C91.01 9.29376 90.94 9.41835 90.55 9.41835C90.3 9.41835 90.2 9.38275 90.2 9.28486Z" fill="#9C9C9C"/>
<path d="M88 8.83991C88 8.64413 88.04 8.61743 88.35 8.61743C88.77 8.61743 88.81 8.79541 88.43 8.9556C88.05 9.10688 88 9.08908 88 8.83991Z" fill="#9C9C9C"/>
<path d="M23.7 8.61743C23.7 8.35046 23.7 8.35046 24.05 8.54624C24.49 8.80431 24.49 8.8844 24.05 8.8844C23.73 8.8844 23.7 8.86661 23.7 8.61743Z" fill="#9C9C9C"/>
<path d="M7.7 7.62073C7.7 7.35376 7.83 7.10459 7.96 7.10459C8.05 7.10459 8.1 7.21138 8.1 7.41606C8.1 7.66523 8.06 7.72752 7.9 7.72752C7.79 7.72752 7.7 7.67413 7.7 7.62073Z" fill="#9C9C9C"/>
<path d="M91.3 7.14908C91.3 6.79312 91.54 6.71302 91.64 7.04229C91.74 7.37156 91.71 7.46055 91.5 7.46055C91.34 7.46055 91.3 7.39826 91.3 7.14908Z" fill="#9C9C9C"/>
<path d="M78.27 6.57064C78.45 6.41936 78.61 6.30367 78.64 6.30367C78.68 6.30367 78.7 6.42826 78.7 6.57064C78.7 6.81982 78.68 6.83761 78.33 6.83761C77.95 6.83761 77.95 6.83761 78.27 6.57064Z" fill="#9C9C9C"/>
<path d="M91.2 5.9922C91.2 5.63624 91.44 5.55615 91.54 5.88541C91.64 6.21468 91.61 6.30367 91.4 6.30367C91.24 6.30367 91.2 6.24138 91.2 5.9922Z" fill="#9C9C9C"/>
<path d="M19.8 6.08119C19.8 6.01 19.71 5.94771 19.6 5.94771C19.44 5.94771 19.4 5.88541 19.4 5.68073C19.4 5.41376 19.4 5.41376 19.68 5.56505C19.83 5.65404 20.09 5.83202 20.25 5.96551C20.55 6.21468 20.55 6.21468 20.18 6.21468C19.91 6.21468 19.8 6.17908 19.8 6.08119Z" fill="#9C9C9C"/>
<path d="M79.25 5.92991C79.28 5.86761 79.44 5.74302 79.6 5.66293C79.9 5.51165 79.9 5.51165 79.9 5.76972C79.9 6.0189 79.87 6.0367 79.55 6.0367C79.32 6.0367 79.22 6.0011 79.25 5.92991Z" fill="#9C9C9C"/>
<path d="M7.93 5.36926C7.94 5.13789 8 5.0578 8.13 5.0578C8.26 5.0578 8.3 5.12899 8.3 5.36926C8.3 5.61844 8.26 5.68073 8.1 5.68073C7.93 5.68073 7.9 5.62734 7.93 5.36926Z" fill="#9C9C9C"/>
<path d="M91.1 5.19129C91.1 4.95101 91.14 4.87982 91.28 4.87982C91.4 4.87982 91.46 4.95991 91.47 5.19129C91.5 5.44936 91.47 5.50275 91.3 5.50275C91.14 5.50275 91.1 5.44046 91.1 5.19129Z" fill="#9C9C9C"/>
<path d="M80.35 5.21798C80.38 5.15569 80.54 5.0311 80.7 4.95101C81 4.79972 81 4.79972 81 5.0578C81 5.30697 80.97 5.32477 80.65 5.32477C80.42 5.32477 80.32 5.28917 80.35 5.21798Z" fill="#9C9C9C"/>
<path d="M16.9 4.07C16.9 3.80303 16.9 3.80303 17.2 3.98991C17.64 4.26578 17.65 4.34587 17.26 4.34587C16.93 4.34587 16.9 4.32807 16.9 4.07Z" fill="#9C9C9C"/>
<path d="M15.7 3.54495C15.7 3.50046 15.63 3.45596 15.55 3.45596C15.47 3.45596 15.4 3.42037 15.4 3.36697C15.4 3.32248 15.33 3.27798 15.25 3.27798C15.16 3.27798 15.1 3.19789 15.1 3.0555C15.1 2.93092 15.13 2.83303 15.17 2.83303C15.28 2.83303 16.4 3.50046 16.4 3.57165C16.4 3.60725 16.24 3.63394 16.05 3.63394C15.86 3.63394 15.7 3.59835 15.7 3.54495Z" fill="#9C9C9C"/>
<path d="M8.33 3.23348C8.39 3.0644 8.49 2.92202 8.57 2.92202C8.65 2.92202 8.7 3.0377 8.7 3.23348C8.7 3.50046 8.67 3.54495 8.46 3.54495C8.23 3.54495 8.22 3.52715 8.33 3.23348Z" fill="#9C9C9C"/>
<path d="M12.1 1.55156C12.1 1.34688 12.12 1.33798 12.45 1.43587C12.64 1.48926 12.8 1.57826 12.8 1.64945C12.8 1.72064 12.67 1.76514 12.45 1.76514C12.15 1.76514 12.1 1.73844 12.1 1.55156Z" fill="#9C9C9C"/>
<path d="M87.3 1.41807C87.3 1.31128 87.51 1.1778 87.78 1.11551C87.96 1.07991 88 1.10661 88 1.28459C88 1.47147 87.95 1.49816 87.65 1.49816C87.46 1.49816 87.3 1.46257 87.3 1.41807Z" fill="#9C9C9C"/>
<path d="M90 1.07991C90 0.76844 90.01 0.759541 90.19 0.910826C90.29 0.999817 90.4 1.1422 90.43 1.24009C90.47 1.37358 90.43 1.40918 90.24 1.40918C90.03 1.40918 90 1.36468 90 1.07991Z" fill="#9C9C9C"/>
<path d="M88.9 0.928619C88.9 0.812931 89.18 0.697243 89.48 0.697243C89.54 0.697243 89.6 0.777334 89.6 0.875224C89.6 1.01761 89.53 1.05321 89.25 1.05321C89.02 1.05321 88.9 1.00871 88.9 0.928619Z" fill="#9C9C9C"/>
</svg>
