<svg width="396" height="440" viewBox="0 0 396 440" fill="none" xmlns="http://www.w3.org/2000/svg">
<path d="M139.333 438.213C139.333 437.578 139.707 436.898 140.22 436.672C140.733 436.4 141.76 435.176 142.507 433.952C144.607 430.642 146.287 429.69 150.02 429.645L153.1 429.6L153.24 431.322C153.38 432.818 153.24 433.09 151.887 433.816C149.32 435.176 147.827 436.626 147.5 437.986L147.173 439.346H143.253C139.38 439.346 139.333 439.346 139.333 438.213ZM144.653 437.714C145.447 437.397 145.68 436.173 144.933 436.173C144.7 436.173 144.28 436.581 144 437.08C143.44 438.077 143.533 438.122 144.653 437.714Z" fill="#1C1212"/>
<path d="M134.9 438.123C132.427 437.533 132.147 435.856 134.2 433.589C134.993 432.773 135.6 431.912 135.6 431.731C135.6 431.504 136.3 431.005 137.187 430.643C138.027 430.235 139.473 429.283 140.407 428.512C141.293 427.741 142.18 427.107 142.32 427.107C142.507 427.107 142.88 426.88 143.207 426.653C145.073 425.112 148.2 423.027 148.62 423.027C148.9 423.027 149.133 422.8 149.133 422.573C149.133 422.301 149.647 421.893 150.3 421.667C150.953 421.44 151.7 420.76 151.98 420.216C152.213 419.627 152.727 418.675 153.1 418.04C154.64 415.501 153.753 412.645 150.02 407.84C149.04 406.571 148.2 405.256 148.2 404.984C148.2 404.667 148.947 404.44 150.067 404.44C151.793 404.44 151.933 404.531 151.933 405.755C151.933 406.48 152.587 408.429 153.38 410.107C154.92 413.235 155.34 416.544 154.5 418.947C154.127 419.989 154.173 420.035 154.967 419.4C155.573 418.901 157.02 418.72 160.287 418.72C165.28 418.675 166.4 418.403 166.4 416.952C166.4 416.272 166.54 416.181 166.82 416.589C167.1 417.043 167.287 416.907 167.427 416.045C167.567 415.411 167.427 414.776 167.147 414.64C166.867 414.504 167.193 414.504 167.94 414.595C168.873 414.685 169.2 414.549 169.2 413.96C169.2 413.507 169.62 413.053 170.133 412.917C170.647 412.781 171.067 412.373 171.067 411.965C171.067 411.557 171.347 411.24 171.72 411.24C172.093 411.24 172.793 410.515 173.353 409.653C173.96 408.656 174.66 408.067 175.267 408.067C175.78 408.067 176.2 407.885 176.2 407.613C176.2 407.387 176.62 407.16 177.133 407.16C177.88 407.16 178.067 406.843 178.067 405.8C178.067 404.531 178.207 404.44 179.747 404.44C181.38 404.44 181.38 404.485 181.333 406.163C181.147 409.971 181.287 410.787 182.22 410.787C183.573 410.787 184.32 413.099 183.947 416.317C183.807 417.813 183.48 419.309 183.247 419.581C183.013 419.853 182.687 420.851 182.5 421.803C182.313 422.709 182.033 423.571 181.847 423.661C181.707 423.752 179.047 423.661 175.967 423.435C167.987 422.845 166.167 422.845 164.953 423.616C164.347 423.979 161.733 424.523 159.167 424.795C153.847 425.429 148.2 426.653 148.2 427.197C148.2 427.379 147.873 427.56 147.5 427.56C147.127 427.56 146.8 427.787 146.8 428.013C146.8 428.285 146.473 428.467 146.1 428.467C145.727 428.467 145.4 428.739 145.4 429.056C145.4 429.328 144.747 429.872 143.953 430.235C143.16 430.552 141.713 431.64 140.687 432.592C139.1 434.088 138.867 434.587 138.867 436.4C138.867 438.395 138.867 438.44 137.373 438.395C136.533 438.349 135.413 438.213 134.9 438.123V438.123Z" fill="#1C1212"/>
<path d="M44.2734 419.082L40.8667 418.901V417.45C40.8667 416.634 41.1467 415.682 41.4734 415.365C41.8 415.048 41.9867 413.688 41.9867 411.874L41.8934 408.973L44.32 407.16C45.6267 406.162 47.0267 405.074 47.4467 404.666C47.8667 404.304 48.3334 403.986 48.52 403.986C48.7067 403.986 49.1734 403.714 49.5 403.442C49.8267 403.125 50.9934 402.354 52.02 401.72C53.0934 401.13 53.9334 400.36 53.9334 400.042C53.9334 399.725 54.26 399.453 54.6334 399.453C55.4267 399.453 55.1467 400.586 54.0267 401.856C53.6534 402.264 53.5134 402.626 53.7467 402.626C53.98 402.626 54.4467 402.218 54.7734 401.674C55.1934 401.04 55.5667 400.858 55.94 401.176C56.2667 401.448 57.0134 401.629 57.6667 401.629C58.32 401.629 59.86 401.856 61.0734 402.128C63.4534 402.626 66.1134 402.309 69.1467 401.04C70.08 400.677 71.4334 400.496 72.2734 400.632C73.16 400.813 73.5334 400.722 73.2067 400.496C72.8334 400.224 73.3 400.088 74.56 400.042C77.2667 399.906 79.9267 397.322 78.1067 396.597C77.7334 396.461 77.8734 396.325 78.3867 396.325C78.9467 396.28 79.1334 396.053 78.9467 395.6C78.3867 394.104 79.88 390.16 82.96 385.264C84.6867 382.453 86.74 378.962 87.4867 377.421C88.2334 375.925 89.8667 373.613 91.08 372.298C92.8534 370.394 93.1334 369.805 92.62 369.488C92.1534 369.216 92.2934 369.08 93.18 369.08H94.44L92.8534 371.936C92.0134 373.522 90.7534 375.381 90.1 376.061C89.4467 376.741 88.9334 377.421 88.8867 377.602C88.8867 377.784 88.14 378.826 87.2534 379.96C82.96 385.4 80.6734 392.698 80.58 401.13C80.5334 406.706 79.2734 408.293 72.5534 411.512C70.78 412.373 69.1467 413.053 68.8667 413.053C68.5867 413.053 67.3734 413.461 66.16 414.005C64.9467 414.504 63.5467 415.093 63.0334 415.32C62.52 415.501 60.5134 416.272 58.6 416.952C56.6867 417.632 54.82 418.402 54.4934 418.629C53.84 419.128 49.08 419.354 44.2734 419.082V419.082ZM49.7334 415.456C49.7334 414.458 48.24 414.957 47.82 416.09C47.4934 417.042 47.54 417.042 48.5667 416.589C49.22 416.317 49.7334 415.773 49.7334 415.456ZM68.8667 412.146C69.0067 411.965 69.4267 411.693 69.8 411.557C70.1734 411.421 69.94 411.33 69.24 411.376C68.4934 411.421 67.9334 411.602 67.9334 411.784C67.9334 411.965 67.5134 412.146 67 412.146C66.4867 412.146 66.0667 412.373 66.0667 412.6C66.0667 412.872 65.5534 413.053 64.9 413.053C64.2467 413.053 63.7334 413.234 63.7334 413.461C63.7334 413.96 68.4934 412.736 68.8667 412.146Z" fill="#1C1212"/>
<path d="M35.4534 417.45C35.3134 417.042 35.2668 416.09 35.3601 415.229C35.5001 413.824 35.5934 413.733 37.5067 413.597L39.5134 413.461L39.3734 415.637C39.2334 417.813 39.2334 417.813 37.4601 417.949C36.2468 418.04 35.6401 417.904 35.4534 417.45Z" fill="#1C1212"/>
<path d="M181.8 404.44V402.173H183.433H185.067V404.44V406.707H183.433H181.8V404.44Z" fill="#1C1212"/>
<path d="M275.973 390.613C275.88 390.523 275.18 390.341 274.433 390.251C273.64 390.16 273.08 389.797 273.173 389.525C273.22 389.253 272.987 389.027 272.613 389.027C271.633 389.027 271.213 388.12 271.867 387.531C272.333 387.123 272.38 387.123 272.147 387.531C272.007 387.803 272.053 388.165 272.287 388.301C272.52 388.483 272.66 388.211 272.613 387.803C272.52 387.349 272.193 386.987 271.82 386.941C271.447 386.941 270.28 386.488 269.16 385.899C267.527 385.083 267.247 384.765 267.667 384.267C267.993 383.859 268.833 383.723 270.093 383.859C272.38 384.04 273.267 383.496 273.267 381.773C273.267 380.459 274.527 377.693 275.133 377.693C275.32 377.693 275.6 377.24 275.787 376.651C276.02 375.653 278.12 374.248 279.007 374.475C279.24 374.52 279.24 374.293 279.053 374.021C278.82 373.613 279.007 373.568 279.707 373.704C280.5 373.931 280.733 373.795 280.733 373.069C280.733 372.389 280.92 372.253 281.807 372.525C282.367 372.661 282.833 372.843 282.88 372.888C282.88 372.888 283.393 373.613 283.953 374.384C284.7 375.427 284.933 376.379 284.84 377.557C284.7 379.235 284.607 379.28 282.833 379.416L280.92 379.552L281.107 384.267C281.2 387.123 281.06 389.072 280.78 389.208C280.08 389.661 276.16 390.749 275.973 390.613V390.613Z" fill="#1C1212"/>
<path d="M284.933 388.573C284.933 388.074 285.027 387.666 285.12 387.666C285.213 387.666 285.727 387.53 286.193 387.349C286.987 387.077 286.987 387.122 286.1 388.074L285.213 389.072L287.967 388.845C289.833 388.709 290.393 388.754 289.6 389.026C288.947 389.208 287.64 389.389 286.707 389.434C285.213 389.48 284.933 389.344 284.933 388.573Z" fill="#1C1212"/>
<path d="M296.553 386.261C296.18 386.035 295.387 385.853 294.733 385.853C292.96 385.808 291.933 384.811 291.933 383.133V381.637L295.76 381.909C299.213 382.181 299.727 382.363 301.033 383.587C302.153 384.675 302.293 385.037 301.78 385.355C301.453 385.581 301.267 385.944 301.453 386.216C301.78 386.76 297.44 386.805 296.553 386.261V386.261Z" fill="#1C1212"/>
<path d="M303.367 385.853C304.673 385.309 305.093 385.309 304.767 385.853C304.627 386.125 304.02 386.307 303.46 386.261C302.48 386.261 302.48 386.216 303.367 385.853Z" fill="#1C1212"/>
<path d="M322.733 381.501C324.833 380.731 326.187 380.413 325.72 380.867C325.487 381.093 324.553 381.411 323.667 381.547C322.78 381.683 322.36 381.683 322.733 381.501Z" fill="#1C1212"/>
<path d="M302.2 377.467C302.2 376.333 302.433 375.427 302.667 375.427C302.947 375.427 303.133 375.608 303.133 375.835C303.133 376.061 303.88 376.515 304.767 376.787C306.587 377.376 306.867 377.965 305.467 378.373C304.953 378.509 304.533 378.872 304.533 379.099C304.533 379.325 304.02 379.507 303.367 379.507C302.293 379.507 302.2 379.325 302.2 377.467Z" fill="#1C1212"/>
<path d="M336.733 377.421C336.733 377.331 337.573 376.832 338.6 376.333C339.813 375.744 340.56 375.019 340.747 374.203C340.933 373.523 341.587 372.299 342.193 371.392C343.547 369.443 343.453 368.083 341.867 367.675L340.7 367.403L342.007 366.859C342.753 366.587 343.593 366.36 343.873 366.36C344.2 366.315 345.273 365.635 346.3 364.773L348.12 363.232L347 362.779C346.347 362.552 344.807 362.189 343.593 362.053C340.98 361.736 340.747 360.603 343.36 360.829C344.387 360.875 345.227 360.693 345.553 360.285C346.393 359.288 345.787 358.653 343.967 358.653C341.54 358.653 342.287 357.747 346.347 355.752C348.447 354.709 350.033 353.621 350.127 353.168C350.313 352.579 350.78 352.307 351.667 352.307C353.907 352.307 354.467 352.715 354.467 354.392C354.467 355.707 354.28 355.933 353.207 356.205C350.453 356.749 348.633 357.565 348.493 358.336C348.353 358.925 348.68 359.107 349.66 359.107C352.32 359.107 353.067 359.56 353.067 361.147C353.067 362.28 352.647 363.051 351.34 364.275C350.36 365.181 349.473 365.907 349.333 365.907C349.193 365.907 349.193 367.04 349.24 368.445C349.333 369.896 349.193 371.211 348.913 371.483C348.633 371.755 348.4 372.299 348.4 372.707C348.4 373.16 347.467 373.84 346.067 374.429C344.76 374.973 343.64 375.427 343.547 375.427C343.407 375.427 342.753 375.653 342.007 375.971C340.42 376.605 336.733 377.603 336.733 377.421V377.421Z" fill="#1C1212"/>
<path d="M308.873 376.243C308.033 375.835 307.8 375.336 307.8 374.021C307.8 373.115 308.08 372.208 308.407 372.117C308.687 371.981 308.5 371.845 307.94 371.845C307.053 371.8 306.867 371.528 306.867 370.213C306.867 368.445 307.473 368.219 310.087 369.125C311.86 369.715 311.907 370.168 310.367 371.165C308.687 372.208 308.92 373.296 311.207 375.155L313.167 376.787L311.533 376.741C310.647 376.741 309.433 376.515 308.873 376.243Z" fill="#1C1212"/>
<path d="M214.327 373.613C213.627 372.888 212.553 372.162 211.853 371.981C210.873 371.754 210.733 371.482 210.967 370.576C211.153 369.85 211.06 369.578 210.733 369.76C210.5 369.896 210.267 369.669 210.267 369.216C210.22 368.445 210.173 368.445 209.567 369.261C208.913 370.122 208.867 370.077 208.867 368.672C208.867 365.906 210.78 364.229 211.387 366.496C211.527 367.085 212.507 368.309 213.533 369.216C215.633 371.12 216.987 373.386 216.613 374.338C216.24 375.29 215.68 375.109 214.327 373.613V373.613Z" fill="#1C1212"/>
<path d="M223.193 372.616C221.373 371.347 221 370.893 221 369.669C221 367.811 222.213 367.629 222.913 369.397C223.147 370.077 223.987 371.12 224.78 371.709C226.04 372.752 226.6 374.067 225.76 374.067C225.573 374.067 224.407 373.387 223.193 372.616Z" fill="#1C1212"/>
<path d="M275.88 373.522C274.713 372.888 274.993 372.162 276.393 372.344C277.093 372.434 277.653 372.797 277.7 373.205C277.84 373.976 277 374.112 275.88 373.522V373.522Z" fill="#1C1212"/>
<path d="M78.9933 372.48C78.8067 372.117 78.9 371.709 79.1333 371.573C79.4133 371.392 79.6 371.528 79.6 371.755C79.6 372.027 79.9733 372.253 80.44 372.253C81.0933 372.253 81.14 372.344 80.5333 372.707C79.5533 373.296 79.2733 373.251 78.9933 372.48Z" fill="#1C1212"/>
<path d="M280.967 370.984C280.733 370.802 280.08 369.896 279.613 368.944C278.54 366.904 278.96 366.405 281.48 366.586C282.367 366.632 283.067 366.496 283.067 366.269C283.067 366.088 283.907 365.906 284.933 365.906C286.8 365.906 286.8 365.906 286.8 367.629C286.8 368.536 286.613 369.533 286.427 369.76C285.447 371.074 282.133 371.845 280.967 370.984Z" fill="#1C1212"/>
<path d="M66.8134 368.354C66.6734 367.946 66.5334 366.949 66.5334 366.088C66.5334 364.637 66.6268 364.546 68.1668 364.546C69.0534 364.546 69.8001 364.773 69.8001 365C69.8001 365.272 69.2868 365.362 68.6334 365.181C67.4668 364.909 67.4668 364.909 68.1668 366.178C68.5401 366.904 68.8668 367.856 68.8668 368.309C68.8668 369.306 67.1868 369.352 66.8134 368.354Z" fill="#1C1212"/>
<path d="M227.207 365.045C226.04 364.139 225.667 363.413 225.667 362.371C225.667 361.101 225.807 360.92 226.973 360.92C228.373 360.92 232.76 362.915 232.34 363.368C232.2 363.504 232.433 364.048 232.853 364.501C234.067 365.771 233.413 366.36 230.893 366.36C229.167 366.315 228.373 366.043 227.207 365.045V365.045Z" fill="#1C1212"/>
<path d="M316.2 360.24C316.2 358.744 316.293 358.653 317.133 359.106C318.207 359.65 318.253 359.786 317.6 360.965C316.853 362.325 316.2 361.962 316.2 360.24Z" fill="#1C1212"/>
<path d="M213.067 358.427C213.067 356.885 213.113 356.84 214.933 356.84C216.753 356.84 216.8 356.885 216.8 358.427C216.8 359.968 216.753 360.013 214.933 360.013C213.113 360.013 213.067 359.968 213.067 358.427Z" fill="#1C1212"/>
<path d="M315.733 356.885C315.733 355.978 316.013 355.525 316.667 355.344C317.18 355.208 317.693 355.298 317.833 355.48C317.973 355.706 318.72 355.978 319.467 356.16C321.427 356.568 321.193 357.112 318.813 357.701C315.873 358.381 315.733 358.381 315.733 356.885Z" fill="#1C1212"/>
<path d="M279.427 356.84C278.54 355.48 278.727 355.027 280.267 355.027C281.34 355.027 281.573 354.891 281.34 354.256C281.107 353.667 281.247 353.576 281.853 353.803C282.32 353.984 282.88 354.12 283.113 354.12C283.347 354.12 283.533 354.936 283.533 355.933C283.533 357.747 283.533 357.747 281.76 357.747C280.547 357.747 279.847 357.475 279.427 356.84Z" fill="#1C1212"/>
<path d="M372.2 355.706C372.2 354.618 372.433 354.12 372.9 354.12C373.273 354.12 373.6 353.802 373.6 353.394C373.6 353.032 373.88 352.397 374.253 352.034C374.627 351.672 375.28 351.4 375.653 351.4C376.587 351.4 376.633 350.538 375.7 350.221C375.28 350.04 375 349.36 375 348.498C375 347.41 375.327 346.912 376.4 346.322L377.8 345.552L377.1 346.594C375.513 348.906 378.127 348.09 380.413 345.552C381.02 344.917 381.627 343.784 381.813 343.058C381.953 342.378 383.027 340.928 384.147 339.885C385.267 338.797 386.2 337.709 386.2 337.437C386.2 336.621 383.82 336.802 382.887 337.618C381.627 338.752 380.6 338.117 380.6 336.213C380.6 335.125 380.367 334.49 379.853 334.309C379.2 334.082 379.153 333.584 379.387 331.362C379.713 328.28 380.32 326.92 381.393 326.92C381.813 326.92 382 327.056 381.86 327.237C381.673 327.373 381.767 327.781 382.047 328.098C382.467 328.597 382.887 328.552 384.427 327.781C385.873 327.056 386.2 326.738 385.687 326.421C385.313 326.194 385.267 326.013 385.593 326.013C386.293 326.013 385.827 324.336 385.033 324.018C384.707 323.928 384.333 324.154 384.24 324.562C383.913 325.605 381.44 326.92 381.207 326.149C381.067 325.832 380.46 325.56 379.853 325.56C378.92 325.56 378.733 325.333 378.733 324.154C378.733 322.749 379.293 322.069 381.3 320.936C382.187 320.437 382.187 320.482 381.393 321.661C380.367 323.157 380.927 323.157 384.007 321.661C387.367 320.029 387.74 319.666 387.087 318.941C386.387 318.08 384.147 318.125 383.4 318.986C382.747 319.757 380.133 319.938 380.133 319.213C380.133 318.986 379.807 318.76 379.387 318.76C378.827 318.76 378.733 318.352 378.827 317.082C378.967 315.405 379.013 315.36 381.207 315.088C384.473 314.725 385.22 312.912 382.14 312.866C381.207 312.866 381.067 312.64 381.067 311.28C381.067 310.418 381.3 309.693 381.533 309.693C381.86 309.693 381.953 308.786 381.72 307.018C381.487 304.752 381.533 304.298 382.233 303.89C383.54 303.21 382.747 302.122 380.647 301.805C378.827 301.533 378.733 301.442 378.733 299.901V298.269L381.253 298.45C383.633 298.632 383.773 298.586 383.353 297.816C383.073 297.362 382.933 296.32 383.027 295.504C383.167 294.189 383.307 294.053 384.94 293.917C386.433 293.781 386.667 293.917 386.667 294.688C386.667 295.277 386.993 295.64 387.413 295.64C388.113 295.64 392.78 299.13 393.807 300.4C394.04 300.626 394.087 302.893 393.947 305.386C393.76 308.786 393.853 310.192 394.367 311.053C394.74 311.688 395.02 312.957 395.067 313.909C395.067 314.816 395.3 315.586 395.533 315.586C396.327 315.586 396.047 318.669 395.067 320.437C394.553 321.389 394.32 322.25 394.6 322.386C394.833 322.522 395.02 324.517 395.02 326.829V331L393.387 332.178C392.127 333.13 391.8 333.674 391.8 334.944C391.8 336.666 391.1 338.253 390.073 338.842C389.56 339.16 389.56 339.386 389.933 339.84C390.96 341.018 389.98 344.192 387.833 346.64C386.76 347.909 385.5 349.45 385.08 350.13C384.613 350.81 382.653 352.533 380.693 353.938C378.733 355.389 377.053 356.704 376.96 356.93C376.867 357.112 375.747 357.293 374.487 357.293H372.2V355.706V355.706ZM379.387 351.808C380.04 351.309 380.6 350.584 380.6 350.221C380.6 349.722 380.04 349.858 378.267 350.765C375.98 351.898 375.607 352.76 377.287 352.76C377.753 352.76 378.687 352.352 379.387 351.808V351.808ZM385.033 331.09C385.547 330.818 385.687 330.546 385.407 330.501C385.08 330.456 384.52 330.41 384.24 330.365C383.54 330.229 382.467 330.954 382.467 331.498C382.467 331.997 383.82 331.816 385.033 331.09ZM387.087 312.322C387.507 311.234 387.227 309.693 386.667 309.693C386.48 309.693 386.2 310.509 386.107 311.506C385.92 313.456 386.48 313.909 387.087 312.322V312.322ZM385.967 304.57C386.9 303.845 386.573 302.893 385.313 302.893C384.893 302.893 384.1 303.21 383.587 303.573C382.84 304.162 382.793 304.298 383.4 304.706C384.333 305.296 384.94 305.25 385.967 304.57V304.57Z" fill="#1C1212"/>
<path d="M242.933 354.619C242.933 353.349 243.027 353.304 244.333 353.667C245.08 353.893 246.153 354.483 246.713 354.981L247.787 355.933H245.36C242.98 355.933 242.933 355.888 242.933 354.619V354.619Z" fill="#1C1212"/>
<path d="M346.72 350.448C346.02 349.723 345.787 346.867 346.44 346.867C346.627 346.867 347.047 347.093 347.373 347.411C347.84 347.864 348.307 347.773 349.567 347.139C351.713 346.005 352.6 346.685 352.6 349.36V351.309L349.987 351.219C348.307 351.173 347.187 350.947 346.72 350.448V350.448Z" fill="#1C1212"/>
<path d="M320.727 350.176C320.54 350.04 320.4 349.224 320.4 348.408C320.4 346.776 321.38 345.96 323.293 346.005H324.367L323.34 346.413C321.987 346.957 321.987 347.32 323.293 347.184C324.74 347.048 324.693 348.227 323.247 349.451C321.987 350.493 321.24 350.72 320.727 350.176Z" fill="#1C1212"/>
<path d="M250.68 346.866C249.933 346.64 249.14 346.186 248.953 345.914C248.533 345.234 244.427 343.693 243.073 343.693C242.047 343.693 242 343.512 242 340.746C242 337.89 242.047 337.8 243.167 337.8C244.007 337.8 244.333 338.026 244.333 338.661C244.333 340.338 246.48 342.152 249.467 343.013C252.267 343.829 254.133 345.325 254.133 346.685C254.133 347.41 252.733 347.456 250.68 346.866Z" fill="#1C1212"/>
<path d="M349.007 345.371C348.4 345.099 347.933 344.6 347.933 344.283C347.933 343.965 347.653 343.693 347.28 343.693C346.953 343.693 346.533 343.331 346.44 342.877C346.253 342.243 346.58 341.88 347.793 341.472C349.24 340.928 349.52 340.973 350.453 341.835C351.807 343.104 352.273 343.013 352.04 341.653C351.807 340.611 351.947 340.52 353.58 340.52H355.4V342.741C355.4 344.011 355.213 345.144 354.933 345.28C354.047 345.824 349.987 345.869 349.007 345.371V345.371Z" fill="#1C1212"/>
<path d="M280.08 343.149C278.12 342.197 278.027 341.608 279.987 342.288C281.153 342.741 281.433 342.515 281.247 341.336C281.247 341.109 281.433 340.973 281.667 340.973C281.947 340.973 282.133 341.698 282.133 342.56C282.133 343.421 282.087 344.146 282.04 344.101C281.947 344.056 281.107 343.648 280.08 343.149V343.149Z" fill="#1C1212"/>
<path d="M284.14 341.019C283.953 340.293 283.627 340.203 282.367 340.384C281.06 340.565 280.827 340.475 280.873 339.795C281.013 338.571 282.18 337.8 283.16 338.299C284.373 338.933 286.24 338.797 286.66 338.027C286.987 337.483 287.267 337.483 288.2 337.936C289.087 338.344 289.413 338.933 289.507 340.203L289.647 341.88H287.033C284.793 341.88 284.327 341.744 284.14 341.019Z" fill="#1C1212"/>
<path d="M255.3 338.707C255.16 338.48 254.507 338.253 253.9 338.253C253.293 338.253 252.033 337.891 251.147 337.483C249.747 336.803 249.467 336.44 249.467 335.216C249.467 333.448 249.607 333.448 252.313 334.717C253.433 335.261 255.207 335.941 256.187 336.213C258.333 336.848 258.847 337.573 257.4 338.027C256.887 338.163 256.56 338.525 256.7 338.752C256.887 338.979 256.653 339.16 256.28 339.16C255.907 339.16 255.44 338.979 255.3 338.707Z" fill="#1C1212"/>
<path d="M275.46 338.843C275.273 338.707 275.133 338.163 275.133 337.709C275.133 337.256 274.853 336.485 274.573 335.987C273.827 334.853 274.62 334.173 276.767 334.173C278.493 334.173 278.96 334.491 279.707 336.123C280.5 337.936 280.407 338.253 279.1 338.253C278.447 338.253 277.933 338.48 277.933 338.707C277.933 339.205 275.927 339.341 275.46 338.843Z" fill="#1C1212"/>
<path d="M324.6 333.312C324.6 332.813 325.02 332.36 325.627 332.224C326.793 331.906 327.213 332.088 327.867 333.312C328.333 334.082 328.193 334.173 326.467 334.173C324.927 334.173 324.6 333.992 324.6 333.312Z" fill="#1C1212"/>
<path d="M347.467 333.131C347.467 332.541 347.7 331.861 348.027 331.544C348.353 331.227 349.053 331 349.66 331C350.593 331 350.733 331.227 350.733 332.587C350.733 334.083 350.64 334.173 349.1 334.173C347.7 334.173 347.467 334.037 347.467 333.131Z" fill="#1C1212"/>
<path d="M251.24 331.589C250.167 331.453 249.467 331.181 249.467 330.773C249.467 330.456 249.14 330.093 248.767 329.912C248.347 329.776 248.067 329.096 248.067 328.28C248.067 327.192 248.253 326.92 249.047 326.92C250.12 326.92 251.893 327.736 252.36 328.416C252.5 328.688 253.853 329.051 255.3 329.232C258.287 329.595 258.567 329.776 258.193 330.728C257.96 331.272 257.633 331.363 256.7 331C255.767 330.637 255.44 330.728 255.253 331.227C254.973 331.907 254.647 331.907 251.24 331.589V331.589Z" fill="#1C1212"/>
<path d="M255.207 326.784C254.6 326.512 254.133 326.058 254.133 325.696C254.133 325.378 253.807 325.106 253.433 325.106C253.06 325.106 252.033 324.744 251.147 324.336C249.747 323.656 249.467 323.293 249.467 322.069C249.467 321.026 249.7 320.573 250.167 320.573C250.54 320.573 250.867 320.392 250.867 320.12C250.867 319.893 250.633 319.666 250.353 319.666C250.073 319.666 249.933 318.941 250.027 317.989C250.167 316.357 250.26 316.266 251.847 316.13C253.247 316.04 253.573 316.176 253.807 316.901C254.04 317.898 255.86 318.17 260.76 317.898C262.72 317.808 262.907 317.898 262.673 318.669C262.533 319.213 262.86 319.848 263.56 320.392C265.193 321.661 265.38 322.205 264.26 322.25C263.047 322.341 258.007 322.386 257.493 322.341C257.307 322.296 256.793 322.296 256.373 322.341C255.347 322.386 255.253 323.293 256.233 323.293C256.607 323.293 256.933 323.565 256.933 323.882C256.933 324.2 257.353 324.698 257.867 325.016C258.38 325.333 258.8 325.741 258.8 325.968C258.8 326.693 256.327 327.282 255.207 326.784V326.784Z" fill="#1C1212"/>
<path d="M271.913 326.602C272.053 325.152 271.867 324.744 271.073 324.472C270.607 324.381 271.353 324.336 272.707 324.472C275.74 324.698 276.067 324.88 276.067 326.285C276.067 327.282 275.88 327.373 273.92 327.373C272.193 327.373 271.82 327.237 271.913 326.602V326.602Z" fill="#1C1212"/>
<path d="M341.493 326.784C340.84 326.512 340.467 325.923 340.467 325.243C340.467 324.336 340.7 324.2 342.24 324.109C347.42 323.883 348.867 323.792 351.107 323.475L353.533 323.157V324.744C353.533 326.013 353.3 326.421 352.367 326.829C350.827 327.509 347.467 327.555 347.467 326.875C347.467 326.512 347.28 326.512 346.813 326.875C346.067 327.509 342.987 327.419 341.493 326.784V326.784Z" fill="#1C1212"/>
<path d="M210.36 323.202C209.567 322.432 209.66 319.938 210.593 317.944C211.013 317.037 211.527 315.858 211.76 315.36C212.133 314.408 211.993 315.994 211.433 319.213L211.153 320.8L211.853 319.304C212.227 318.488 212.693 317.128 212.88 316.266C213.067 315.133 213.393 314.68 214.047 314.68C214.84 314.68 214.933 315.042 214.887 317.762C214.793 322.749 214.513 323.52 212.6 323.656C211.713 323.746 210.687 323.52 210.36 323.202Z" fill="#1C1212"/>
<path d="M277 323.066C277 322.658 276.673 322.25 276.253 322.069C275.88 321.933 275.647 321.525 275.787 321.208C275.973 320.754 275.787 320.709 274.947 321.026C274.34 321.253 273.687 321.298 273.5 321.117C273.36 320.981 273.36 321.162 273.547 321.616C273.687 322.069 273.593 322.386 273.313 322.386C272.567 322.386 269.067 320.437 269.067 320.029C269.067 319.349 271.073 319.213 273.687 319.712C275.973 320.12 276.487 320.392 276.72 321.298C276.907 321.888 277.28 322.341 277.56 322.25C277.887 322.205 278.213 322.522 278.307 322.976C278.4 323.429 278.213 323.746 277.747 323.746C277.327 323.746 277 323.429 277 323.066V323.066Z" fill="#1C1212"/>
<path d="M283.067 321.933V320.12H285.4H287.733V321.661C287.733 323.384 287.173 323.746 284.653 323.746C283.113 323.746 283.067 323.701 283.067 321.933Z" fill="#1C1212"/>
<path d="M217.593 320.709C216.94 320.12 217.267 317.4 217.92 317.4C218.293 317.4 218.76 317.627 218.947 317.899C219.18 318.261 219.367 318.261 219.6 317.853C219.787 317.536 220.347 317.445 220.953 317.627C221.7 317.853 221.933 318.261 221.933 319.485C221.933 320.981 221.887 321.027 219.927 321.027C218.807 321.027 217.733 320.891 217.593 320.709V320.709Z" fill="#1C1212"/>
<path d="M324.693 320.483C323.853 319.667 323.947 316.947 324.833 316.947C325.207 316.947 325.533 317.173 325.533 317.445C325.533 318.171 327.68 317.536 329.687 316.221C330.62 315.632 332.02 315.133 332.86 315.133C334.167 315.133 334.4 315.315 334.4 316.176C334.4 317.309 333.047 318.216 329.78 319.213C328.66 319.576 327.68 320.12 327.54 320.437C327.26 321.163 325.44 321.208 324.693 320.483V320.483Z" fill="#1C1212"/>
<path d="M280.92 317.4C280.173 316.674 277.653 316.085 276.953 316.538C276.067 317.037 275.133 316.13 275.133 314.68V313.456L277.653 313.909C281.2 314.544 281.807 314.226 281.433 311.96L281.107 310.146H283.487H285.867V311.869C285.867 315.224 285.353 316.72 284.093 317.309C282.6 317.989 281.527 317.989 280.92 317.4V317.4Z" fill="#1C1212"/>
<path d="M257.26 315.269C257.073 315.133 256.933 314.589 256.933 314.136C256.933 313.139 258.193 313.048 259.547 314C260.107 314.363 260.713 314.499 260.9 314.317C261.133 314.136 261.133 314.272 260.947 314.589C260.76 314.907 260.387 315.043 260.153 314.907C259.92 314.725 259.733 314.861 259.733 315.088C259.733 315.632 257.727 315.768 257.26 315.269V315.269Z" fill="#1C1212"/>
<path d="M321.333 314.589C321.333 313.728 321.613 313.547 322.733 313.501C324.6 313.456 329.267 311.96 329.267 311.461C329.267 311.235 329.92 311.053 330.667 311.053C331.927 311.053 332.067 311.189 332.067 312.549V314.045L327.727 314.816C321.94 315.859 321.333 315.813 321.333 314.589V314.589Z" fill="#1C1212"/>
<path d="M264.633 313.32C264.493 313.093 264.68 312.821 264.96 312.685C265.287 312.549 264.96 312.594 264.213 312.73C263.373 312.912 262.953 312.821 263.14 312.549C263.607 311.824 257.773 311.96 256.887 312.685C256.42 313.093 255.673 313.229 254.693 313.048C253.247 312.776 253.2 312.64 253.2 310.554C253.2 308.378 253.153 308.333 251.8 308.333C249.7 308.333 249.98 307.064 252.173 306.746C255.253 306.202 255.72 306.021 255.02 305.568C254.647 305.341 253.853 305.16 253.2 305.16C252.127 305.114 252.08 305.114 252.873 304.48C253.48 304.072 254.553 303.936 256.373 304.117C260.247 304.434 267.2 306.157 267.2 306.792C267.2 307.064 266.267 307.562 265.147 307.834C264.027 308.106 262.767 308.424 262.347 308.605C261.74 308.832 261.6 308.605 261.6 307.426C261.6 306.429 261.787 306.112 262.207 306.338C262.627 306.565 262.627 306.52 262.207 306.066C261.88 305.704 261.18 305.613 260.34 305.84C259.173 306.112 259.127 306.202 259.873 306.61C260.667 307.018 260.573 307.154 259.22 308.152L257.68 309.24H259.5C260.48 309.24 261.133 309.376 260.993 309.557C259.733 310.781 264.027 311.189 267.34 310.146C268.32 309.829 269.16 309.92 270.327 310.373C271.213 310.736 272.147 310.917 272.38 310.781C272.613 310.645 272.8 310.917 272.8 311.37C272.8 311.96 272.193 312.368 270.607 312.821C267.807 313.546 264.913 313.773 264.633 313.32Z" fill="#1C1212"/>
<path d="M272.333 309.738C271.447 308.061 271.727 307.562 273.64 307.698C275.133 307.789 276.72 308.061 277.467 308.333C277.607 308.378 277.84 308.424 278.073 308.378C278.26 308.378 278.4 308.56 278.4 308.786C278.4 309.058 278.727 309.24 279.1 309.24C280.733 309.24 279.613 310.056 277.653 310.328C274.013 310.781 272.893 310.69 272.333 309.738V309.738Z" fill="#1C1212"/>
<path d="M270.093 305.568C268.32 303.755 269.953 301.805 272.893 302.304C273.873 302.44 274.667 302.349 274.853 302.032C275.04 301.76 274.853 301.533 274.48 301.533C274.013 301.533 273.733 301.125 273.733 300.4C273.733 299.267 274.247 299.04 276.207 299.176C276.627 299.221 277 299.04 277 298.813C277 298.541 277.233 298.36 277.467 298.36C278.167 298.36 277.98 302.576 277.233 303.528C276.86 304.027 276.16 304.48 275.74 304.525C274.62 304.707 272.8 305.704 272.8 306.157C272.8 306.883 270.933 306.52 270.093 305.568V305.568Z" fill="#1C1212"/>
<path d="M283.86 305.296C283.673 305.16 283.533 304.208 283.533 303.256V301.533H285.54C288.9 301.533 289.6 301.896 289.6 303.573C289.6 304.525 289.32 305.16 288.853 305.341C287.873 305.704 284.233 305.704 283.86 305.296V305.296Z" fill="#1C1212"/>
<path d="M324.6 304.435C324.227 304.299 323.293 303.891 322.5 303.573C321.753 303.256 319.98 302.621 318.673 302.168C316.387 301.397 316.2 301.216 316.2 299.856C316.2 298.541 316.34 298.36 317.46 298.36C318.953 298.36 321.8 299.312 321.8 299.811C321.8 300.037 322.36 300.083 323.107 299.947C324.133 299.765 324.18 299.765 323.433 300.128C322.547 300.491 322.547 300.536 323.667 300.944C326.093 301.851 327.213 301.941 328.52 301.307C329.267 300.944 330.667 300.627 331.647 300.627C333.14 300.627 333.467 300.763 333.467 301.533C333.467 302.123 333.14 302.44 332.58 302.44C332.113 302.44 331.413 302.848 331.087 303.347C330.62 303.981 329.733 304.299 327.867 304.48C326.467 304.571 324.973 304.571 324.6 304.435V304.435Z" fill="#1C1212"/>
<path d="M4.9334 295.051C4.56006 294.507 4.28007 293.963 4.32674 293.827C4.3734 293.691 3.58006 293.645 2.5534 293.736L0.733398 293.917V289.112V284.307H2.36673H4.00006V287.707C4.00006 290.789 4.0934 291.107 4.9334 291.107C5.68006 291.107 5.86673 290.789 5.86673 289.701C5.86673 288.523 6.00673 288.341 6.94006 288.477C8.34006 288.659 8.48006 291.333 7.0334 291.333C5.82006 291.333 5.58673 292.603 6.6134 293.6C7.36007 294.28 7.36006 294.416 6.52006 295.232C5.6334 296.048 5.58673 296.048 4.9334 295.051V295.051ZM2.92674 286.256C2.8334 285.531 2.74006 286.029 2.74006 287.253C2.74006 288.523 2.8334 289.067 2.92674 288.523C3.02007 287.933 3.02007 286.936 2.92674 286.256Z" fill="#1C1212"/>
<path d="M257.54 294.461C257.213 294.325 256.933 293.509 256.933 292.648V291.106H259.407C262.44 291.106 263.14 291.514 262.907 293.192C262.767 294.416 262.627 294.506 260.433 294.597C259.173 294.642 257.82 294.597 257.54 294.461V294.461Z" fill="#1C1212"/>
<path d="M323.2 293.146C323.2 291.65 323.293 291.56 324.833 291.56C326.327 291.56 326.467 291.696 326.467 292.874C326.467 294.189 325.813 294.733 324.087 294.733C323.387 294.733 323.2 294.416 323.2 293.146Z" fill="#1C1212"/>
<path d="M376.4 289.52C376.4 288.024 376.493 287.933 378.033 287.933C379.573 287.933 379.667 288.024 379.667 289.52C379.667 291.016 379.573 291.106 378.033 291.106C376.493 291.106 376.4 291.016 376.4 289.52Z" fill="#1C1212"/>
<path d="M256.933 288.296C256.933 286.845 257.073 286.664 258.38 286.392C259.173 286.256 260.76 286.12 261.88 286.12C263.933 286.12 263.933 286.12 263.933 287.706C263.933 289.066 263.793 289.293 262.907 289.293C262.3 289.293 260.713 289.429 259.407 289.565L256.933 289.882V288.296Z" fill="#1C1212"/>
<path d="M6.98667 274.469C7.17333 273.018 7.40667 270.661 7.54667 269.256C7.82667 266.626 7.82667 266.626 9.41334 266.626C10.3 266.626 11 266.762 11.0467 266.989C11.28 269.528 11.6533 269.664 13.5667 268.258L15.2 267.034V268.53C15.2 269.528 14.8267 270.298 14.08 270.933C13.4733 271.432 12.3067 273.018 11.4667 274.469C10.1133 276.872 9.83333 277.053 8.34 277.053H6.70667L6.98667 274.469V274.469Z" fill="#1C1212"/>
<path d="M17.0668 263.544C17.0668 263.136 18.7468 261.549 19.7734 261.005C20.1468 260.778 20.3334 261.141 20.3334 262.274C20.3334 263.816 20.2401 263.906 18.7001 263.906C17.8134 263.906 17.0668 263.725 17.0668 263.544Z" fill="#1C1212"/>
<path d="M168.733 211.773C168.733 209.597 169.573 209.371 170.74 211.275C171.86 213.133 171.72 213.587 170.133 213.587C168.827 213.587 168.733 213.496 168.733 211.773Z" fill="#1C1212"/>
<path d="M165.98 206.65C165.42 205.562 165 204.157 165 203.477C165 202.389 165.187 202.253 166.68 202.253C168.127 202.253 168.313 202.344 167.8 202.933C167.333 203.477 167.427 203.976 168.22 205.562C169.48 208.101 169.433 208.6 168.08 208.6C167.193 208.6 166.727 208.146 165.98 206.65Z" fill="#1C1212"/>
<path d="M165.653 199.443C165.327 198.445 164.207 197.131 162.06 195.453C159.4 193.323 158.98 192.733 158.933 191.509C158.933 190.059 159.027 190.013 160.707 190.059C162.153 190.104 162.247 190.149 161.313 190.421L160.147 190.739L161.36 191.6C162.013 192.099 163.507 193.051 164.673 193.685C165.887 194.411 167.007 195.499 167.38 196.315C167.753 197.085 168.313 197.72 168.593 197.72C168.967 197.72 169.2 198.355 169.2 199.307C169.2 200.803 169.107 200.893 167.613 200.893C166.26 200.893 166.027 200.712 165.653 199.443V199.443Z" fill="#1C1212"/>
<path d="M95 125.867C95 124.552 95.1867 124.28 96.0733 124.235C96.6333 124.235 97.8933 124.099 98.8733 124.008L100.647 123.781L100.507 125.504L100.367 127.227L97.7067 127.363L95 127.499V125.867V125.867Z" fill="#1C1212"/>
<path d="M133.267 70.0613C133.267 68.7466 133.407 68.4746 133.78 68.8373C134.107 69.1546 134.9 69.2906 135.553 69.1999C136.207 69.1093 137.56 68.8826 138.54 68.7466C139.52 68.6106 140.173 68.2933 140.033 68.0213C139.847 67.7946 140.407 67.6133 141.153 67.6133C142.46 67.6133 142.6 67.7493 142.6 69.1546C142.6 70.696 142.6 70.696 139.94 70.968C138.447 71.104 136.347 71.3759 135.273 71.5119L133.267 71.784V70.0613Z" fill="#1C1212"/>
<path d="M160.8 66.9333C160.8 64.9839 161.733 64.4399 165.187 64.4399H167.8V66.0266C167.8 67.5226 167.707 67.6133 166.213 67.6133C165.327 67.6133 164.44 67.8399 164.3 68.0666C164.16 68.3386 163.273 68.5199 162.387 68.5199C160.893 68.5199 160.8 68.4293 160.8 66.9333Z" fill="#1C1212"/>
<path d="M106.667 65.573C106.667 64.077 106.76 63.9863 108.3 63.9863C109.84 63.9863 109.933 64.077 109.933 65.573C109.933 67.069 109.84 67.1597 108.3 67.1597C106.76 67.1597 106.667 67.069 106.667 65.573Z" fill="#1C1212"/>
<path d="M112.92 64.6666C112.267 64.0319 111.567 63.5332 111.333 63.5332C111.053 63.5332 110.867 63.3519 110.867 63.0799C110.867 62.8532 110.587 62.6266 110.213 62.6266C109.887 62.6266 109.047 62.1279 108.347 61.4932C107.647 60.8586 106.9 60.3599 106.62 60.3599C106.387 60.3599 106.2 59.9519 106.2 59.4532C106.2 58.7279 105.873 58.5466 104.8 58.5466C103.867 58.5466 103.4 58.3199 103.4 57.8666C103.4 57.5039 102.98 57.1866 102.467 57.1866C101.953 57.1866 101.533 56.8692 101.533 56.5066C101.533 56.1439 101.207 55.8266 100.74 55.8266C100.32 55.8266 97.66 54.6026 94.8133 53.1519C89.4467 50.3866 82.5867 47.5306 79.9733 46.9866C79.1333 46.8052 77.64 46.3519 76.7067 45.9892C75.12 45.3999 74.9333 45.1279 74.9333 43.7679C74.9333 42.4986 75.12 42.2266 75.9133 42.2266C76.4733 42.2266 77.3134 42.7252 77.8267 43.3599C78.3867 44.0399 79.74 44.7652 81.3733 45.2186C82.82 45.6266 84.22 46.1252 84.5 46.3519C84.7333 46.5786 85.2467 46.7599 85.62 46.7599C85.9934 46.7599 89.0734 48.0746 92.5267 49.7066C97.38 51.9732 99.2 52.6532 100.833 52.6532C102.373 52.6532 102.933 52.8346 102.933 53.3332C102.933 53.6959 103.353 54.0132 103.867 54.0132C104.38 54.0132 104.8 54.3306 104.8 54.6932C104.8 55.0559 105.22 55.3732 105.733 55.3732C106.34 55.3732 106.667 55.6906 106.667 56.2799C106.667 57.0052 106.993 57.1866 108.067 57.1866C108.86 57.1866 109.467 57.4132 109.467 57.6399C109.467 57.9119 109.747 58.0932 110.12 58.0932C110.447 58.0932 111.287 58.5919 111.987 59.2266C112.687 59.8612 113.433 60.3599 113.713 60.3599C113.947 60.3599 114.133 60.5866 114.133 60.8132C114.133 61.0852 114.413 61.2666 114.74 61.2666C115.953 61.3119 117.4 62.9892 117.4 64.3946C117.4 65.7092 117.307 65.7999 115.767 65.7999C114.6 65.7999 113.713 65.4372 112.92 64.6666Z" fill="#1C1212"/>
<path d="M96.8667 60.36C96.8667 60.1333 96.4467 59.9067 95.9334 59.9067C95.42 59.9067 94.0667 59.68 92.9 59.3627C90.94 58.864 90.8 58.728 90.8 57.3227C90.8 55.9627 90.94 55.8267 92.2467 55.8267C94.0667 55.8267 97.3334 56.7333 97.3334 57.2773C97.3334 57.4587 98.08 57.64 98.9667 57.64C100.507 57.64 100.6 57.7307 100.6 59.2267C100.6 60.768 100.553 60.8133 98.7334 60.8133C97.7067 60.8133 96.8667 60.632 96.8667 60.36Z" fill="#1C1212"/>
<path d="M143.067 48.2104C143.067 47.7117 143.72 47.077 144.7 46.6237L146.333 45.853V47.4397C146.333 48.9357 146.24 49.0264 144.7 49.0264C143.44 49.0264 143.067 48.845 143.067 48.2104Z" fill="#1C1212"/>
<path d="M71.5267 39.6423C71.3401 39.5063 71.2001 38.6903 71.2001 37.829C71.2001 36.4237 71.2934 36.333 72.7401 36.333C75.6334 36.333 76.3334 36.741 76.3334 38.4183C76.3334 39.9597 76.3334 39.9597 74.0934 39.9597C72.8334 39.9597 71.6667 39.8237 71.5267 39.6423Z" fill="#1C1212"/>
<path d="M87.3001 30.6665C85.4335 28.8078 84.7335 26.7225 84.7335 22.8691C84.7335 21.2825 84.5468 20.0131 84.2668 20.0131C83.2868 20.0131 83.8001 16.9305 85.0135 15.4798C87.0668 13.1678 89.5868 12.1705 92.9001 12.3971C98.4535 12.8505 98.9668 13.5305 99.5268 20.9651C99.8535 25.8611 99.0135 28.7171 96.5868 30.8025C95.0935 32.1171 94.6268 32.2531 91.8735 32.2531C89.0268 32.2531 88.7468 32.1625 87.3001 30.6665V30.6665ZM93.7868 30.2131C97.1468 28.4905 98.7801 23.1865 97.1468 19.4238C96.4468 17.7465 93.9268 15.4798 92.8068 15.4798C92.3868 15.4798 91.1735 15.9785 90.1001 16.6131C85.6201 19.1518 85.2935 26.9491 89.5401 29.8958C91.2668 31.0745 91.9668 31.1198 93.7868 30.2131V30.2131Z" fill="#1C1212"/>
<path d="M29.4333 29.9411C27.38 28.1731 26.7267 25.9064 27.0533 21.4184C27.1467 19.5144 27.2867 17.1571 27.2867 16.1598C27.2867 14.4824 27.4733 14.2104 28.9667 13.5304C29.9 13.1224 31.6733 12.7598 32.9333 12.7598C35.08 12.7598 35.2667 12.8504 35.2667 13.8478C35.2667 14.6184 34.94 15.0264 34.1933 15.2078C30.04 16.2051 27.38 22.4611 29.4333 26.3144C30.32 28.0371 32.7467 29.9864 33.96 29.9864C35.64 29.9864 37.9733 28.2184 39 26.0878C40.0267 24.0931 40.12 21.7811 39.2333 19.2424C38.9067 18.2904 39.0467 18.1998 40.4 18.1998H41.94L41.66 22.4611C41.2867 29.0344 39.28 31.3464 33.9133 31.3464C31.44 31.3464 30.9267 31.1651 29.4333 29.9411V29.9411Z" fill="#1C1212"/>
<path d="M167.333 21.3734C167.333 19.6054 167.38 19.5601 168.967 19.5601C170.553 19.5601 170.6 19.6054 170.6 21.3734C170.6 23.1414 170.553 23.1867 168.967 23.1867C167.38 23.1867 167.333 23.1414 167.333 21.3734Z" fill="#1C1212"/>
<path d="M123 19.7864C123 17.7917 123.84 17.701 125.24 19.5597C125.8 20.285 126.267 21.0104 126.267 21.1464C126.267 21.2824 125.52 21.373 124.633 21.373C123.093 21.373 123 21.2824 123 19.7864Z" fill="#1C1212"/>
<path d="M118.66 15.5705C118.193 15.1172 117.867 14.5278 117.867 14.3012C117.82 14.0745 116.887 13.1678 115.767 12.3065C114.04 10.9918 113.667 10.4478 113.667 9.26915C113.667 8.45315 113.9 7.77316 114.133 7.77316C114.413 7.77316 114.6 7.36515 114.6 6.82115C114.6 6.09582 114.833 5.9145 115.813 6.0505C116.793 6.14116 117.213 6.63982 117.913 8.45316C118.38 9.72249 119.08 10.9465 119.36 11.1732C120.247 11.8532 122.533 15.2078 122.533 15.8425C122.533 16.7038 119.5 16.4772 118.66 15.5705Z" fill="#1C1212"/>
<path d="M41.8 11.8532C41.8 10.9012 39.4667 9.17849 36.1067 7.63716C34.24 6.82116 33.8667 6.41315 33.8667 5.41581C33.8667 4.69048 33.96 4.14648 34.0067 4.14648C34.8467 4.14648 41.8934 8.18116 42.1734 8.77049C42.5 9.45049 43.1534 8.67982 42.8734 7.99982C42.7334 7.63715 42.8734 7.31982 43.2 7.31982C43.48 7.31982 43.8534 7.72782 43.9934 8.22648C44.1334 8.72515 44.4134 9.13315 44.6467 9.13315C44.88 9.13315 45.0667 9.85848 45.0667 10.7198C45.0667 12.2158 44.9734 12.3065 43.4334 12.3065C42.5467 12.3065 41.8 12.1252 41.8 11.8532Z" fill="#1C1212"/>
<path d="M103.867 5.27981C103.867 3.82914 103.96 3.69314 105.267 3.69314C106.527 3.69314 106.667 3.55714 106.667 2.33314V0.973145L108.907 1.83448C110.82 2.55981 111.1 2.87714 111.24 4.10114C111.38 5.41581 111.287 5.50648 109.747 5.50648C108.627 5.50648 108.067 5.27981 107.927 4.73581C107.787 4.28247 107.693 4.59981 107.647 5.41581C107.6 6.82114 107.507 6.86648 105.733 6.86648C103.913 6.86648 103.867 6.82114 103.867 5.27981V5.27981Z" fill="#1C1212"/>
<path d="M98.4068 4.91694C98.5001 3.55694 98.6401 3.42094 100.04 3.33027C101.44 3.19427 101.533 3.28494 101.533 4.82627C101.533 6.32227 101.44 6.41294 99.9001 6.41294C98.3601 6.41294 98.2668 6.36761 98.4068 4.91694Z" fill="#1C1212"/>
</svg>
