<svg width="102" height="84" viewBox="0 0 102 84" fill="none" xmlns="http://www.w3.org/2000/svg">
<path d="M49.48 83.6634C49.15 83.5922 49.28 83.3697 49.65 83.3697C49.93 83.3697 50 83.4053 50 83.5477C50 83.7257 49.86 83.7524 49.48 83.6634Z" fill="#CECECE"/>
<path d="M47.88 83.4854C47.55 83.4142 47.68 83.1917 48.05 83.1917C48.33 83.1917 48.4 83.2273 48.4 83.3697C48.4 83.5477 48.26 83.5744 47.88 83.4854Z" fill="#CECECE"/>
<path d="M54.6 83.1917C54.6 83.0494 54.67 83.0138 54.95 83.0138C55.35 83.0138 55.44 83.2273 55.08 83.3163C54.7 83.4053 54.6 83.3786 54.6 83.1917Z" fill="#CECECE"/>
<path d="M46.58 83.2184C46.25 83.1472 46.38 82.9248 46.75 82.9248C47.03 82.9248 47.1 82.9604 47.1 83.1027C47.1 83.2807 46.96 83.3074 46.58 83.2184Z" fill="#CECECE"/>
<path d="M56.2 82.7824C56.2 82.5955 56.25 82.5688 56.55 82.5688C56.77 82.5688 56.9 82.6133 56.9 82.6845C56.9 82.7557 56.74 82.8447 56.55 82.8981C56.22 82.996 56.2 82.9871 56.2 82.7824Z" fill="#CECECE"/>
<path d="M59.5 81.0916C59.5 80.8068 59.52 80.789 59.85 80.789C60.04 80.789 60.2 80.7979 60.2 80.8157C60.2 80.8335 60.04 80.967 59.85 81.1182C59.5 81.3941 59.5 81.3941 59.5 81.0916Z" fill="#CECECE"/>
<path d="M60.9 79.6855C60.9 79.3918 60.92 79.3651 61.21 79.3651C61.51 79.3651 61.51 79.3651 61.3 79.6321C60.99 80.0237 60.9 80.0326 60.9 79.6855Z" fill="#CECECE"/>
<path d="M61.9 78.3061C61.9 77.9057 62 77.7633 62.26 77.7633C62.55 77.7633 62.55 77.79 62.28 78.2171C62.02 78.6265 61.9 78.6621 61.9 78.3061V78.3061Z" fill="#CECECE"/>
<path d="M38.46 75.3427C38.36 75.0046 38.39 74.9156 38.6 74.9156C38.76 74.9156 38.8 74.9779 38.8 75.2271C38.8 75.583 38.56 75.6631 38.46 75.3427Z" fill="#CECECE"/>
<path d="M63.4 74.88C63.4 74.4172 63.52 74.1147 63.71 74.1147C63.93 74.1147 63.94 74.1681 63.79 74.702C63.67 75.1203 63.4 75.2449 63.4 74.88Z" fill="#CECECE"/>
<path d="M63.7 73.6964C63.7 73.6074 63.73 73.3227 63.76 73.0735C63.82 72.6819 63.86 72.6018 64.02 72.6018C64.2 72.6018 64.21 72.6463 64.15 73.0735C64.06 73.7142 64.01 73.8477 63.84 73.8477C63.76 73.8477 63.7 73.7765 63.7 73.6964Z" fill="#CECECE"/>
<path d="M63.9 72.0234C63.9 71.7742 63.94 71.7119 64.1 71.7119C64.31 71.7119 64.34 71.8009 64.24 72.1391C64.14 72.4595 63.9 72.3794 63.9 72.0234Z" fill="#CECECE"/>
<path d="M63.9 70.1546C63.9 69.7986 64.14 69.7185 64.24 70.0478C64.34 70.3771 64.31 70.4661 64.1 70.4661C63.94 70.4661 63.9 70.4038 63.9 70.1546Z" fill="#CECECE"/>
<path d="M63.7 68.7307C63.7 68.3748 63.94 68.2947 64.04 68.624C64.14 68.9532 64.11 69.0422 63.9 69.0422C63.74 69.0422 63.7 68.9799 63.7 68.7307Z" fill="#CECECE"/>
<path d="M38.1 68.2235C38.1 67.9565 38.23 67.7073 38.36 67.7073C38.45 67.7073 38.5 67.8141 38.5 68.0188C38.5 68.268 38.46 68.3303 38.3 68.3303C38.19 68.3303 38.1 68.2769 38.1 68.2235Z" fill="#CECECE"/>
<path d="M37.08 66.7551C36.75 66.684 36.88 66.4615 37.25 66.4615C37.53 66.4615 37.6 66.4971 37.6 66.6395C37.6 66.8174 37.46 66.8441 37.08 66.7551Z" fill="#CECECE"/>
<path d="M66 66.4704C66 66.3547 66.06 66.2835 66.18 66.2835C66.27 66.2835 66.59 66.2568 66.88 66.2301C67.31 66.1767 67.4 66.1945 67.4 66.3102C67.4 66.4526 67.24 66.4971 66.48 66.595C66.04 66.6572 66 66.6483 66 66.4704V66.4704Z" fill="#CECECE"/>
<path d="M34.85 66.4882C34.27 66.4259 34.1 66.3725 34.1 66.239C34.1 66.0877 34.21 66.0788 34.98 66.1589C35.4 66.2123 35.5 66.2479 35.5 66.3814C35.5 66.5505 35.46 66.5594 34.85 66.4882Z" fill="#CECECE"/>
<path d="M68.7 66.1144C68.7 65.9987 68.76 65.9275 68.88 65.9275C68.97 65.9275 69.29 65.9008 69.58 65.8741C70.01 65.8207 70.1 65.8385 70.1 65.9542C70.1 66.0966 69.94 66.1411 69.18 66.239C68.74 66.3013 68.7 66.2924 68.7 66.1144V66.1144Z" fill="#CECECE"/>
<path d="M70.7 65.8385C70.7 65.6961 70.77 65.6606 71.05 65.6606C71.42 65.6606 71.54 65.8563 71.24 65.9631C70.92 66.0699 70.7 66.0165 70.7 65.8385Z" fill="#CECECE"/>
<path d="M29.63 65.7762C29.35 65.6784 29.5 65.4826 29.85 65.4826C30.13 65.4826 30.2 65.5182 30.2 65.6606C30.2 65.8385 29.94 65.8919 29.63 65.7762Z" fill="#CECECE"/>
<path d="M73.3 65.4826C73.3 65.3402 73.37 65.3046 73.65 65.3046C74.02 65.3046 74.14 65.5004 73.84 65.6072C73.52 65.714 73.3 65.6606 73.3 65.4826Z" fill="#CECECE"/>
<path d="M27.78 65.5093C27.45 65.4381 27.58 65.2156 27.95 65.2156C28.23 65.2156 28.3 65.2512 28.3 65.3936C28.3 65.5716 28.16 65.5983 27.78 65.5093Z" fill="#CECECE"/>
<path d="M25.83 65.2423C25.55 65.1444 25.7 64.9486 26.05 64.9486C26.33 64.9486 26.4 64.9842 26.4 65.1266C26.4 65.3046 26.14 65.358 25.83 65.2423Z" fill="#CECECE"/>
<path d="M76.4 65.0643C76.4 64.913 76.52 64.8774 77.18 64.7884C78.17 64.655 78.3 64.655 78.3 64.8062C78.3 64.9308 77.92 65.0287 76.83 65.1711C76.45 65.2245 76.4 65.2067 76.4 65.0643Z" fill="#CECECE"/>
<path d="M22.88 64.7973C22.55 64.7261 22.68 64.5037 23.05 64.5037C23.33 64.5037 23.4 64.5393 23.4 64.6816C23.4 64.8596 23.26 64.8863 22.88 64.7973Z" fill="#CECECE"/>
<path d="M78.7 64.6995C78.7 64.566 78.79 64.5126 79.16 64.4681C79.85 64.388 80 64.3969 80 64.5393C80 64.6639 79.89 64.6995 79.08 64.824C78.75 64.8685 78.7 64.8596 78.7 64.6995Z" fill="#CECECE"/>
<path d="M21.68 64.6194C21.35 64.5482 21.48 64.3257 21.85 64.3257C22.13 64.3257 22.2 64.3613 22.2 64.5037C22.2 64.6816 22.06 64.7083 21.68 64.6194Z" fill="#CECECE"/>
<path d="M16.58 63.8184C16.25 63.7472 16.38 63.5248 16.75 63.5248C17.03 63.5248 17.1 63.5604 17.1 63.7027C17.1 63.8807 16.96 63.9074 16.58 63.8184Z" fill="#CECECE"/>
<path d="M85.1 63.7027C85.1 63.5604 85.17 63.5248 85.45 63.5248C85.85 63.5248 85.94 63.7383 85.58 63.8273C85.2 63.9163 85.1 63.8896 85.1 63.7027Z" fill="#CECECE"/>
<path d="M14.28 63.4625C13.95 63.3913 14.08 63.1688 14.45 63.1688C14.73 63.1688 14.8 63.2044 14.8 63.3468C14.8 63.5248 14.66 63.5515 14.28 63.4625Z" fill="#CECECE"/>
<path d="M87.9 63.2756C87.9 63.1421 88.03 63.0887 88.68 63.0086C89.67 62.8662 89.8 62.8751 89.8 63.0353C89.8 63.1065 89.79 63.1688 89.78 63.1688C89.76 63.1688 89.37 63.2311 88.9 63.3023C87.85 63.4714 87.9 63.4714 87.9 63.2756Z" fill="#CECECE"/>
<path d="M12.08 63.1065C11.75 63.0353 11.88 62.8128 12.25 62.8128C12.53 62.8128 12.6 62.8484 12.6 62.9908C12.6 63.1688 12.46 63.1955 12.08 63.1065Z" fill="#CECECE"/>
<path d="M90.7 62.8128C90.7 62.6705 90.77 62.6349 91.05 62.6349C91.45 62.6349 91.54 62.8484 91.18 62.9374C90.8 63.0264 90.7 62.9997 90.7 62.8128Z" fill="#CECECE"/>
<path d="M91.8 62.6349C91.8 62.4925 91.87 62.4569 92.15 62.4569C92.55 62.4569 92.64 62.6705 92.28 62.7594C91.9 62.8484 91.8 62.8217 91.8 62.6349Z" fill="#CECECE"/>
<path d="M93.4 62.3679C93.4 62.2255 93.47 62.1899 93.75 62.1899C94.15 62.1899 94.24 62.4035 93.88 62.4925C93.5 62.5815 93.4 62.5548 93.4 62.3679Z" fill="#CECECE"/>
<path d="M96.6 61.8339C96.6 61.6916 96.67 61.656 96.95 61.656C97.35 61.656 97.44 61.8695 97.08 61.9585C96.7 62.0475 96.6 62.0208 96.6 61.8339Z" fill="#CECECE"/>
<path d="M4.48 61.8606C4.15 61.7894 4.28 61.567 4.65 61.567C4.93 61.567 5 61.6026 5 61.7449C5 61.9229 4.86 61.9496 4.48 61.8606Z" fill="#CECECE"/>
<path d="M2.78 61.5937C2.45 61.5225 2.58 61.3 2.95 61.3C3.23 61.3 3.3 61.3356 3.3 61.478C3.3 61.656 3.16 61.6827 2.78 61.5937Z" fill="#CECECE"/>
<path d="M1.78 61.4157C1.45 61.3445 1.58 61.122 1.95 61.122C2.23 61.122 2.3 61.1576 2.3 61.3C2.3 61.478 2.16 61.5047 1.78 61.4157Z" fill="#CECECE"/>
<path d="M99.7 61.3C99.7 61.1576 99.77 61.122 100.05 61.122C100.42 61.122 100.54 61.3178 100.24 61.4246C99.92 61.5314 99.7 61.478 99.7 61.3Z" fill="#CECECE"/>
<path d="M0.929991 61.033C0.959991 60.6593 1.29999 60.6593 1.29999 61.033C1.29999 61.2377 1.25999 61.3 1.09999 61.3C0.949991 61.3 0.909991 61.2466 0.929991 61.033Z" fill="#CECECE"/>
<path d="M100.7 60.0897C100.7 59.8405 100.74 59.7782 100.87 59.8049C100.97 59.8227 101.05 59.9384 101.07 60.1253C101.11 60.3656 101.08 60.4101 100.91 60.4101C100.74 60.4101 100.7 60.3567 100.7 60.0897V60.0897Z" fill="#CECECE"/>
<path d="M34.8 59.3956C34.8 59.2621 34.97 59.2087 35.73 59.1197C36.15 59.0574 36.2 59.0752 36.2 59.2265C36.2 59.3778 36.11 59.4134 35.68 59.4668C34.92 59.5469 34.8 59.538 34.8 59.3956V59.3956Z" fill="#CECECE"/>
<path d="M24 58.7193C24 58.5324 24.1 58.5057 24.48 58.5947C24.84 58.6837 24.75 58.8972 24.35 58.8972C24.07 58.8972 24 58.8617 24 58.7193Z" fill="#CECECE"/>
<path d="M22.9 58.5413C22.9 58.3544 23 58.3277 23.38 58.4167C23.74 58.5057 23.65 58.7193 23.25 58.7193C22.97 58.7193 22.9 58.6837 22.9 58.5413Z" fill="#CECECE"/>
<path d="M33.6 58.4612C33.6 58.3099 33.66 58.2743 33.96 58.2743C34.24 58.2743 34.31 58.3099 34.28 58.4256C34.26 58.5146 34.13 58.5858 33.92 58.6036C33.65 58.6392 33.6 58.6125 33.6 58.4612Z" fill="#CECECE"/>
<path d="M34.7 58.3633C34.7 58.2209 34.77 58.1853 35.05 58.1853C35.45 58.1853 35.54 58.3989 35.18 58.4879C34.8 58.5769 34.7 58.5502 34.7 58.3633Z" fill="#CECECE"/>
<path d="M21.18 58.39C20.98 58.3633 20.9 58.301 20.9 58.1764C20.9 57.9806 20.93 57.9717 21.6 58.1052C21.91 58.1675 22.1 58.2476 22.1 58.3277C22.1 58.4523 21.8 58.4701 21.18 58.39V58.39Z" fill="#CECECE"/>
<path d="M27.4 58.3188C27.32 58.301 27.08 58.2654 26.88 58.2298C26.64 58.1942 26.5 58.1319 26.5 58.0518C26.5 57.9005 26.61 57.8916 27.38 57.9717C27.8 58.0251 27.9 58.0607 27.9 58.1942C27.9 58.3544 27.78 58.3811 27.4 58.3188Z" fill="#CECECE"/>
<path d="M39.3 58.212C39.3 58.1675 39.46 58.0518 39.65 57.9361C40 57.7404 40 57.7404 40 58.0073C40 58.2565 39.97 58.2743 39.65 58.2743C39.46 58.2743 39.3 58.2476 39.3 58.212V58.212Z" fill="#CECECE"/>
<path d="M38.2 57.6158C38.2 57.5001 38.27 57.3755 38.36 57.3488C38.58 57.2687 39.1 57.2865 39.1 57.3666C39.1 57.4467 38.78 57.6247 38.44 57.7404C38.23 57.8116 38.2 57.8027 38.2 57.6158V57.6158Z" fill="#CECECE"/>
<path d="M16.6 57.5624C16.6 57.3844 16.82 57.331 17.14 57.4378C17.44 57.5446 17.32 57.7404 16.95 57.7404C16.67 57.7404 16.6 57.7048 16.6 57.5624Z" fill="#CECECE"/>
<path d="M1.4 57.3399C1.4 57.1441 1.44 57.1174 1.76 57.1174C2.2 57.1174 2.18 57.2776 1.72 57.4467C1.41 57.5624 1.4 57.5535 1.4 57.3399V57.3399Z" fill="#CECECE"/>
<path d="M5.3 57.4378C5.3 57.3221 5.58 57.2064 5.88 57.2064C5.94 57.2064 6 57.2865 6 57.3844C6 57.5268 5.93 57.5624 5.65 57.5624C5.42 57.5624 5.3 57.5179 5.3 57.4378Z" fill="#CECECE"/>
<path d="M6.22 57.3221C6.24 57.2331 6.37 57.1619 6.58 57.1441C6.85 57.1085 6.9 57.1352 6.9 57.2865C6.9 57.4378 6.84 57.4734 6.54 57.4734C6.26 57.4734 6.19 57.4378 6.22 57.3221Z" fill="#CECECE"/>
<path d="M13.7 57.2954C13.7 57.1085 13.8 57.0818 14.18 57.1708C14.54 57.2598 14.45 57.4734 14.05 57.4734C13.77 57.4734 13.7 57.4378 13.7 57.2954Z" fill="#CECECE"/>
<path d="M7.4 57.2598C7.4 57.1441 7.68 57.0284 7.98 57.0284C8.04 57.0284 8.1 57.1085 8.1 57.2064C8.1 57.3488 8.03 57.3844 7.75 57.3844C7.52 57.3844 7.4 57.3399 7.4 57.2598Z" fill="#CECECE"/>
<path d="M12.5 57.2064C12.5 57.0195 12.6 56.9928 12.98 57.0818C13.34 57.1708 13.25 57.3844 12.85 57.3844C12.57 57.3844 12.5 57.3488 12.5 57.2064Z" fill="#CECECE"/>
<path d="M21.08 57.3221C20.75 57.2509 20.88 57.0284 21.25 57.0284C21.53 57.0284 21.6 57.064 21.6 57.2064C21.6 57.3844 21.46 57.4111 21.08 57.3221Z" fill="#CECECE"/>
<path d="M18.13 56.8771C17.85 56.7793 18 56.5835 18.35 56.5835C18.63 56.5835 18.7 56.6191 18.7 56.7615C18.7 56.9394 18.44 56.9928 18.13 56.8771Z" fill="#CECECE"/>
<path d="M15.78 56.6102C15.45 56.539 15.58 56.3165 15.95 56.3165C16.23 56.3165 16.3 56.3521 16.3 56.4945C16.3 56.6725 16.16 56.6992 15.78 56.6102Z" fill="#CECECE"/>
<path d="M1.45 56.1652C1.56 55.48 1.61 55.3376 1.77 55.3376C1.9 55.3376 1.92 55.4177 1.86 55.8093C1.83 56.0584 1.8 56.3432 1.8 56.4322C1.8 56.5301 1.72 56.5835 1.59 56.5835C1.39 56.5835 1.38 56.5479 1.45 56.1652V56.1652Z" fill="#CECECE"/>
<path d="M5.4 56.4055C5.4 56.2631 5.47 56.2275 5.75 56.2275C6.15 56.2275 6.24 56.4411 5.88 56.5301C5.5 56.6191 5.4 56.5924 5.4 56.4055Z" fill="#CECECE"/>
<path d="M6.2 56.3165C6.2 56.1741 6.27 56.1385 6.55 56.1385C6.95 56.1385 7.04 56.3521 6.68 56.4411C6.3 56.5301 6.2 56.5034 6.2 56.3165Z" fill="#CECECE"/>
<path d="M13.75 56.4144C13.59 56.272 13.74 56.1385 14.05 56.1385C14.33 56.1385 14.4 56.1741 14.4 56.3165C14.4 56.4589 14.34 56.4945 14.1 56.4767C13.93 56.4678 13.77 56.4411 13.75 56.4144V56.4144Z" fill="#CECECE"/>
<path d="M12 56.2097C12 56.0851 12.08 56.0495 12.35 56.0495C12.63 56.0495 12.7 56.0851 12.7 56.2275C12.7 56.3788 12.64 56.4055 12.35 56.3788C12.09 56.3699 12 56.3165 12 56.2097V56.2097Z" fill="#CECECE"/>
<path d="M42.33 54.9372C42.39 54.7681 42.49 54.6257 42.57 54.6257C42.65 54.6257 42.7 54.7414 42.7 54.9372C42.7 55.2041 42.67 55.2486 42.46 55.2486C42.23 55.2486 42.22 55.2308 42.33 54.9372Z" fill="#CECECE"/>
<path d="M41.3 54.5901C41.3 54.3053 41.33 54.2697 41.55 54.2697C41.79 54.2697 41.8 54.2786 41.67 54.5545C41.48 54.9639 41.3 54.9817 41.3 54.5901Z" fill="#CECECE"/>
<path d="M41.8 53.2463C41.8 52.9972 41.84 52.9349 42 52.9349C42.21 52.9349 42.24 53.0239 42.14 53.362C42.04 53.6824 41.8 53.6023 41.8 53.2463Z" fill="#CECECE"/>
<path d="M42 52.4454C42 52.1962 42.04 52.1339 42.2 52.1339C42.41 52.1339 42.44 52.2229 42.34 52.5611C42.24 52.8815 42 52.8014 42 52.4454Z" fill="#CECECE"/>
<path d="M42.1 50.3096C42.1 49.9804 42.32 49.8736 42.44 50.1405C42.56 50.4253 42.5 50.6211 42.3 50.6211C42.14 50.6211 42.1 50.5588 42.1 50.3096Z" fill="#CECECE"/>
<path d="M43.23 50.3096C43.2 50.0516 43.23 49.9982 43.4 49.9982C43.56 49.9982 43.6 50.0605 43.6 50.3096C43.6 50.5499 43.56 50.6211 43.43 50.6211C43.3 50.6211 43.24 50.541 43.23 50.3096Z" fill="#CECECE"/>
<path d="M3.03 49.3307C3.09 49.1617 3.19 49.0193 3.27 49.0193C3.35 49.0193 3.4 49.135 3.4 49.3307C3.4 49.5977 3.37 49.6422 3.16 49.6422C2.93 49.6422 2.92 49.6244 3.03 49.3307Z" fill="#CECECE"/>
<path d="M42.88 48.8413C42.72 48.3963 42.72 48.3963 42.95 48.3963C43.19 48.3963 43.3 48.5921 43.3 49.046C43.3 49.4464 43.05 49.3218 42.88 48.8413Z" fill="#CECECE"/>
<path d="M41.2 47.9069C41.2 47.5242 41.34 47.5064 41.55 47.8624C41.75 48.2005 41.74 48.2183 41.45 48.2183C41.23 48.2183 41.2 48.1827 41.2 47.9069Z" fill="#CECECE"/>
<path d="M6.02 46.5097C6.05 46.4474 6.20999 46.3495 6.37999 46.2872C6.68999 46.1716 6.7 46.1805 6.7 46.394C6.7 46.5898 6.66 46.6165 6.34 46.6165C6.11 46.6165 6 46.5809 6.02 46.5097Z" fill="#CECECE"/>
<path d="M4.12 46.2427C4.14 46.0826 4.22 46.0292 4.49 46.0114C4.91 45.9758 4.87 46.1627 4.41 46.3228C4.1 46.4385 4.09 46.4385 4.12 46.2427Z" fill="#CECECE"/>
<path d="M39.2 45.9046C39.2 45.6732 39.23 45.6465 39.38 45.7177C39.47 45.7622 39.64 45.8868 39.74 45.9847C39.93 46.1716 39.93 46.1716 39.57 46.1716C39.23 46.1716 39.2 46.1538 39.2 45.9046V45.9046Z" fill="#CECECE"/>
<path d="M46.5 45.9936C46.5 45.8067 46.6 45.78 46.98 45.869C47.34 45.958 47.25 46.1716 46.85 46.1716C46.57 46.1716 46.5 46.136 46.5 45.9936Z" fill="#CECECE"/>
<path d="M54.32 45.8868C54.35 45.8245 54.51 45.7266 54.68 45.6643C54.99 45.5486 55 45.5575 55 45.7711C55 45.9669 54.96 45.9936 54.64 45.9936C54.41 45.9936 54.3 45.958 54.32 45.8868Z" fill="#CECECE"/>
<path d="M6.1 45.4151C6.1 45.2194 6.14 45.1927 6.46 45.1927C6.9 45.1927 6.88 45.3528 6.42 45.5219C6.11 45.6376 6.1 45.6287 6.1 45.4151V45.4151Z" fill="#CECECE"/>
<path d="M51.7 45.4596C51.7 45.3172 51.77 45.2816 52.05 45.2816C52.45 45.2816 52.54 45.4952 52.18 45.5842C51.8 45.6732 51.7 45.6465 51.7 45.4596Z" fill="#CECECE"/>
<path d="M48.38 45.4863C48.05 45.4151 48.18 45.1927 48.55 45.1927C48.83 45.1927 48.9 45.2283 48.9 45.3706C48.9 45.5486 48.76 45.5753 48.38 45.4863Z" fill="#CECECE"/>
<path d="M37.8 45.0147C37.8 44.7566 37.8 44.7566 38.15 44.9346C38.34 45.0414 38.5 45.1571 38.5 45.2016C38.5 45.2461 38.34 45.2817 38.15 45.2817C37.83 45.2817 37.8 45.2639 37.8 45.0147Z" fill="#CECECE"/>
<path d="M53.9 44.9702C53.9 44.7744 53.94 44.7477 54.26 44.7477C54.7 44.7477 54.68 44.9079 54.22 45.077C53.91 45.1927 53.9 45.1838 53.9 44.9702Z" fill="#CECECE"/>
<path d="M46.48 45.0058C46.19 44.8634 46.27 44.7477 46.65 44.7477C46.93 44.7477 47 44.7833 47 44.9257C47 45.1215 46.76 45.1571 46.48 45.0058Z" fill="#CECECE"/>
<path d="M56.4 44.9435C56.4 44.8723 56.92 44.5697 57.04 44.5697C57.07 44.5697 57.1 44.6676 57.1 44.7922C57.1 44.988 57.06 45.0147 56.75 45.0147C56.56 45.0147 56.4 44.9791 56.4 44.9435Z" fill="#CECECE"/>
<path d="M45.83 44.7922C45.4 44.632 45.41 44.4807 45.85 44.4807C46.16 44.4807 46.2 44.5074 46.2 44.7032C46.2 44.8278 46.19 44.9257 46.18 44.9257C46.16 44.9168 46 44.8634 45.83 44.7922Z" fill="#CECECE"/>
<path d="M8.2 44.6142C8.2 44.4184 8.24 44.3917 8.55 44.3917C8.98 44.3917 9 44.5163 8.6 44.7032C8.22 44.8812 8.2 44.8723 8.2 44.6142Z" fill="#CECECE"/>
<path d="M55.2 44.4362C55.2 44.2405 55.24 44.2138 55.55 44.2138C55.98 44.2138 55.99 44.3028 55.61 44.5074C55.23 44.7032 55.2 44.7032 55.2 44.4362Z" fill="#CECECE"/>
<path d="M42.6 44.3027C42.6 44.0358 42.6 44.0358 42.95 44.2316C43.39 44.4896 43.39 44.5697 42.95 44.5697C42.63 44.5697 42.6 44.5519 42.6 44.3027Z" fill="#CECECE"/>
<path d="M57.66 44.1159C57.76 44.018 57.93 43.8934 58.02 43.8489C58.17 43.7777 58.2 43.8044 58.2 44.0358C58.2 44.2849 58.17 44.3027 57.83 44.3027C57.47 44.3027 57.47 44.3027 57.66 44.1159V44.1159Z" fill="#CECECE"/>
<path d="M37.98 44.0536C37.61 43.8578 37.63 43.7688 38.05 43.7688C38.36 43.7688 38.4 43.7955 38.4 43.9913C38.4 44.2494 38.34 44.2583 37.98 44.0536Z" fill="#CECECE"/>
<path d="M35.1 43.9468C35.1 43.9023 34.99 43.8578 34.85 43.8578C34.65 43.8578 34.6 43.8133 34.6 43.6353C34.6 43.4128 34.6 43.4128 35.12 43.5997C35.75 43.8222 35.8 43.8489 35.8 43.9557C35.8 44.0002 35.64 44.0358 35.45 44.0358C35.26 44.0358 35.1 44.0002 35.1 43.9468Z" fill="#CECECE"/>
<path d="M11 43.6353C11 43.4395 11.04 43.4128 11.36 43.4128C11.8 43.4128 11.78 43.573 11.32 43.7421C11.01 43.8578 11 43.8489 11 43.6353V43.6353Z" fill="#CECECE"/>
<path d="M14.4 43.6442C14.4 43.5285 14.68 43.4128 14.98 43.4128C15.04 43.4128 15.1 43.4929 15.1 43.5908C15.1 43.7332 15.03 43.7688 14.75 43.7688C14.52 43.7688 14.4 43.7243 14.4 43.6442Z" fill="#CECECE"/>
<path d="M5.2 43.5018C5.31 43.3239 5.5 43.2527 5.5 43.3951C5.5 43.4929 5.28 43.6798 5.18 43.6798C5.13 43.6798 5.14 43.5997 5.2 43.5018Z" fill="#CECECE"/>
<path d="M57 43.4217C57 43.1637 57.03 43.1459 57.35 43.1459C57.67 43.1459 57.7 43.1281 57.7 42.8789C57.7 42.6297 57.72 42.6119 58.08 42.6119C58.45 42.6208 58.45 42.6208 58 42.9768C57.75 43.1726 57.43 43.4128 57.28 43.5107C57 43.6887 57 43.6887 57 43.4217Z" fill="#CECECE"/>
<path d="M33.8 43.3684C33.8 43.1548 33.81 43.1459 34.12 43.2616C34.58 43.4306 34.6 43.5908 34.16 43.5908C33.84 43.5908 33.8 43.5641 33.8 43.3684Z" fill="#CECECE"/>
<path d="M42.63 43.2171C42.21 42.959 42.22 42.8789 42.65 42.8789C42.97 42.8789 43 42.8967 43 43.1459C43 43.2972 42.99 43.4128 42.97 43.4128C42.96 43.4128 42.8 43.3239 42.63 43.2171V43.2171Z" fill="#CECECE"/>
<path d="M6.2 42.8789C6.2 42.6297 6.23 42.6119 6.55 42.6119C6.99 42.6119 6.99 42.692 6.55 42.9501C6.2 43.1459 6.2 43.1459 6.2 42.8789Z" fill="#CECECE"/>
<path d="M14.6 42.5229C14.6 42.3806 14.67 42.345 14.95 42.345C15.35 42.345 15.44 42.5585 15.08 42.6475C14.7 42.7365 14.6 42.7098 14.6 42.5229Z" fill="#CECECE"/>
<path d="M20.8 42.3094C20.8 42.1759 21.01 42.078 21.31 42.078C21.43 42.078 21.5 42.1403 21.5 42.256C21.5 42.3984 21.43 42.434 21.15 42.434C20.92 42.434 20.8 42.3895 20.8 42.3094Z" fill="#CECECE"/>
<path d="M39.2 42.1225C39.2 41.8466 39.31 41.8377 39.67 42.1225C39.95 42.336 39.95 42.336 39.58 42.3449C39.24 42.3449 39.2 42.3183 39.2 42.1225V42.1225Z" fill="#CECECE"/>
<path d="M22.3 42.1314C22.3 41.9979 22.51 41.9 22.81 41.9C22.93 41.9 23 41.9623 23 42.078C23 42.2204 22.93 42.256 22.65 42.256C22.42 42.256 22.3 42.2115 22.3 42.1314Z" fill="#CECECE"/>
<path d="M59 41.989C59 41.7398 59.03 41.722 59.35 41.722C59.74 41.722 59.78 41.7754 59.53 41.9623C59.08 42.2738 59 42.2738 59 41.989Z" fill="#CECECE"/>
<path d="M16.8 41.989C16.8 41.8466 16.87 41.811 17.15 41.811C17.55 41.811 17.64 42.0246 17.28 42.1136C16.9 42.2026 16.8 42.1759 16.8 41.989Z" fill="#CECECE"/>
<path d="M23.5 42.0424C23.5 41.9267 23.78 41.811 24.08 41.811C24.14 41.811 24.2 41.8911 24.2 41.989C24.2 42.1314 24.13 42.167 23.85 42.167C23.62 42.167 23.5 42.1225 23.5 42.0424Z" fill="#CECECE"/>
<path d="M95.93 41.9623C95.77 41.9 95.7 41.7932 95.7 41.6152C95.7 41.286 95.85 41.2949 96.05 41.6419C96.25 41.9801 96.21 42.078 95.93 41.9623Z" fill="#CECECE"/>
<path d="M11.12 41.7042C11.15 41.6419 11.31 41.544 11.48 41.4817C11.79 41.366 11.8 41.3749 11.8 41.5885C11.8 41.7843 11.76 41.811 11.44 41.811C11.21 41.811 11.1 41.7754 11.12 41.7042Z" fill="#CECECE"/>
<path d="M62.2 41.544C62.2 41.4728 62.71 41.1881 62.85 41.1881C62.88 41.1881 62.9 41.286 62.9 41.4105C62.9 41.6063 62.86 41.633 62.55 41.633C62.36 41.633 62.2 41.5974 62.2 41.544Z" fill="#CECECE"/>
<path d="M94.43 41.4372C93.98 41.3038 94 41.0991 94.45 41.0991C94.76 41.0991 94.8 41.1258 94.8 41.3216C94.8 41.4461 94.79 41.544 94.78 41.5351C94.76 41.5262 94.6 41.4817 94.43 41.4372Z" fill="#CECECE"/>
<path d="M20.7 41.2771C20.7 41.1347 20.77 41.0991 21.05 41.0991C21.45 41.0991 21.54 41.3127 21.18 41.4017C20.8 41.4906 20.7 41.4639 20.7 41.2771Z" fill="#CECECE"/>
<path d="M21.5 41.1881C21.5 41.0457 21.57 41.0101 21.85 41.0101C22.22 41.0101 22.34 41.2059 22.04 41.3127C21.72 41.4194 21.5 41.366 21.5 41.1881Z" fill="#CECECE"/>
<path d="M22.3 41.0991C22.3 40.9567 22.37 40.9211 22.65 40.9211C23.05 40.9211 23.14 41.1347 22.78 41.2237C22.4 41.3127 22.3 41.286 22.3 41.0991Z" fill="#CECECE"/>
<path d="M28.28 41.2148C27.95 41.1436 28.08 40.9211 28.45 40.9211C28.73 40.9211 28.8 40.9567 28.8 41.0991C28.8 41.2771 28.66 41.3038 28.28 41.2148Z" fill="#CECECE"/>
<path d="M63.22 41.1703C63.25 41.108 63.41 41.0101 63.58 40.9478C63.89 40.8321 63.9 40.841 63.9 41.0546C63.9 41.2504 63.86 41.2771 63.54 41.2771C63.31 41.2771 63.2 41.2415 63.22 41.1703Z" fill="#CECECE"/>
<path d="M89.8 41.0101C89.8 40.8232 89.9 40.7965 90.28 40.8855C90.64 40.9745 90.55 41.1881 90.15 41.1881C89.87 41.1881 89.8 41.1525 89.8 41.0101Z" fill="#CECECE"/>
<path d="M38.83 40.8054C38.41 40.5562 38.42 40.4762 38.85 40.4762C39.17 40.4762 39.2 40.4939 39.2 40.7431C39.2 40.8944 39.19 41.0101 39.18 41.0012C39.16 41.0012 39 40.9122 38.83 40.8054V40.8054Z" fill="#CECECE"/>
<path d="M64.1 40.8855C64.1 40.8054 64.13 40.7431 64.18 40.7431C64.22 40.7431 64.6 40.6452 65.03 40.5295C65.8 40.316 65.8 40.316 65.8 40.5295C65.8 40.7164 65.75 40.7431 65.46 40.7431C65.27 40.7431 65.1 40.7876 65.08 40.841C65.06 40.8944 64.83 40.9567 64.57 40.9834C64.18 41.0279 64.1 41.0101 64.1 40.8855Z" fill="#CECECE"/>
<path d="M14.02 40.6363C14.05 40.574 14.21 40.4761 14.38 40.4139C14.69 40.2982 14.7 40.3071 14.7 40.5206C14.7 40.7164 14.66 40.7431 14.34 40.7431C14.11 40.7431 14 40.7075 14.02 40.6363Z" fill="#CECECE"/>
<path d="M62 40.5206C62 40.3249 62.04 40.2982 62.36 40.2982C62.8 40.2982 62.78 40.4583 62.32 40.6274C62.01 40.7431 62 40.7342 62 40.5206Z" fill="#CECECE"/>
<path d="M87.4 40.4761C87.4 40.2893 87.5 40.2626 87.88 40.3516C88.24 40.4406 88.15 40.6541 87.75 40.6541C87.47 40.6541 87.4 40.6185 87.4 40.4761Z" fill="#CECECE"/>
<path d="M66.7 40.2626C66.7 40.1469 66.98 40.0312 67.28 40.0312C67.34 40.0312 67.4 40.1113 67.4 40.2092C67.4 40.3516 67.33 40.3872 67.05 40.3872C66.82 40.3872 66.7 40.3427 66.7 40.2626Z" fill="#CECECE"/>
<path d="M68.2 39.9956C68.2 39.8799 68.48 39.7642 68.78 39.7642C68.84 39.7642 68.9 39.8443 68.9 39.9422C68.9 40.0846 68.83 40.1202 68.55 40.1202C68.32 40.1202 68.2 40.0757 68.2 39.9956Z" fill="#CECECE"/>
<path d="M82.8 39.7642C82.8 39.5862 83.02 39.5328 83.34 39.6396C83.64 39.7464 83.52 39.9422 83.15 39.9422C82.87 39.9422 82.8 39.9066 82.8 39.7642Z" fill="#CECECE"/>
<path d="M70.1 39.7286C70.1 39.5951 70.31 39.4973 70.61 39.4973C70.73 39.4973 70.8 39.5595 70.8 39.6752C70.8 39.8176 70.73 39.8532 70.45 39.8532C70.22 39.8532 70.1 39.8087 70.1 39.7286Z" fill="#CECECE"/>
<path d="M71 39.6396C71 39.5239 71.28 39.4082 71.58 39.4082C71.64 39.4082 71.7 39.4883 71.7 39.5862C71.7 39.7286 71.63 39.7642 71.35 39.7642C71.12 39.7642 71 39.7197 71 39.6396Z" fill="#CECECE"/>
<path d="M72.1 39.5506C72.1 39.435 72.38 39.3193 72.68 39.3193C72.74 39.3193 72.8 39.3994 72.8 39.4972C72.8 39.6396 72.73 39.6752 72.45 39.6752C72.22 39.6752 72.1 39.6307 72.1 39.5506Z" fill="#CECECE"/>
<path d="M73.8 39.4616C73.8 39.346 74.08 39.2303 74.38 39.2303C74.44 39.2303 74.5 39.3104 74.5 39.4083C74.5 39.5506 74.43 39.5862 74.15 39.5862C73.92 39.5862 73.8 39.5417 73.8 39.4616Z" fill="#CECECE"/>
<path d="M78 39.4083C78 39.2214 78.1 39.1947 78.48 39.2837C78.84 39.3727 78.75 39.5862 78.35 39.5862C78.07 39.5862 78 39.5506 78 39.4083Z" fill="#CECECE"/>
<path d="M35.21 39.2036C34.55 38.9633 34.44 38.7853 34.94 38.7853C35.14 38.7853 35.3 38.8298 35.3 38.8743C35.3 38.9277 35.41 38.9633 35.55 38.9633C35.75 38.9633 35.8 39.0078 35.8 39.1858C35.8 39.3104 35.79 39.4083 35.78 39.4083C35.76 39.3994 35.51 39.3104 35.21 39.2036V39.2036Z" fill="#CECECE"/>
<path d="M19.4 39.1947C19.4 39.079 19.68 38.9633 19.98 38.9633C20.04 38.9633 20.1 39.0434 20.1 39.1413C20.1 39.2837 20.03 39.3193 19.75 39.3193C19.52 39.3193 19.4 39.2748 19.4 39.1947Z" fill="#CECECE"/>
<path d="M15.6 39.0523C15.6 38.9099 15.67 38.8743 15.95 38.8743C16.35 38.8743 16.44 39.0879 16.08 39.1769C15.7 39.2659 15.6 39.2392 15.6 39.0523Z" fill="#CECECE"/>
<path d="M21.7 38.8387C21.7 38.723 21.98 38.6073 22.28 38.6073C22.34 38.6073 22.4 38.6874 22.4 38.7853C22.4 38.9277 22.33 38.9633 22.05 38.9633C21.82 38.9633 21.7 38.9188 21.7 38.8387Z" fill="#CECECE"/>
<path d="M71.1 38.6073C71.1 38.4649 71.17 38.4294 71.45 38.4294C71.85 38.4294 71.94 38.6429 71.58 38.7319C71.2 38.8209 71.1 38.7942 71.1 38.6073Z" fill="#CECECE"/>
<path d="M25.6 38.5717C25.6 38.4205 25.97 38.3315 26.28 38.4027C26.69 38.4917 26.54 38.6963 26.05 38.6963C25.73 38.6963 25.6 38.6607 25.6 38.5717Z" fill="#CECECE"/>
<path d="M73.9 38.4294C73.9 38.287 73.97 38.2514 74.25 38.2514C74.65 38.2514 74.74 38.465 74.38 38.5539C74 38.6429 73.9 38.6162 73.9 38.4294Z" fill="#CECECE"/>
<path d="M78.08 38.545C77.75 38.4738 77.88 38.2514 78.25 38.2514C78.53 38.2514 78.6 38.287 78.6 38.4294C78.6 38.6073 78.46 38.634 78.08 38.545Z" fill="#CECECE"/>
<path d="M18.4 38.3404C18.4 38.198 18.47 38.1624 18.75 38.1624C19.15 38.1624 19.24 38.376 18.88 38.465C18.5 38.5539 18.4 38.5272 18.4 38.3404Z" fill="#CECECE"/>
<path d="M31.38 38.1891C31.05 38.1179 31.18 37.8954 31.55 37.8954C31.83 37.8954 31.9 37.931 31.9 38.0734C31.9 38.2514 31.76 38.2781 31.38 38.1891Z" fill="#CECECE"/>
<path d="M20.3 37.9844C20.3 37.842 20.37 37.8064 20.65 37.8064C21.02 37.8064 21.14 38.0022 20.84 38.109C20.52 38.2158 20.3 38.1624 20.3 37.9844Z" fill="#CECECE"/>
<path d="M8.2 37.5751C8.2 37.4683 8.54 37.0055 8.62 37.0055C8.66 37.0055 8.7 37.1479 8.7 37.317C8.7 37.5928 8.67 37.6284 8.45 37.6284C8.31 37.6284 8.2 37.6017 8.2 37.5751Z" fill="#CECECE"/>
<path d="M8.9 36.4182C8.9 36.3114 9.24 35.8486 9.32 35.8486C9.36 35.8486 9.4 35.991 9.4 36.1601C9.4 36.436 9.37 36.4716 9.15 36.4716C9.01 36.4716 8.9 36.4449 8.9 36.4182Z" fill="#CECECE"/>
<path d="M9.4 35.6172C9.4 35.5105 9.74 35.0477 9.82 35.0477C9.86 35.0477 9.9 35.1901 9.9 35.3592C9.9 35.635 9.87 35.6706 9.65 35.6706C9.51 35.6706 9.4 35.6439 9.4 35.6172Z" fill="#CECECE"/>
<path d="M92 35.0922C92 34.7095 92.1 34.7006 92.33 35.0388C92.55 35.377 92.55 35.4037 92.25 35.4037C92.03 35.4037 92 35.3681 92 35.0922Z" fill="#CECECE"/>
<path d="M91.3 34.1133C91.3 33.9709 91.24 33.8908 91.15 33.8908C91.05 33.8908 91 33.7929 91 33.5794C91 33.4103 91.04 33.2679 91.08 33.2679C91.16 33.2679 91.8 34.1578 91.8 34.2735C91.8 34.3091 91.69 34.3358 91.55 34.3358C91.35 34.3358 91.3 34.2913 91.3 34.1133Z" fill="#CECECE"/>
<path d="M90.1 32.3335C90.1 31.9508 90.2 31.9419 90.43 32.2801C90.65 32.6183 90.65 32.645 90.35 32.645C90.13 32.645 90.1 32.6094 90.1 32.3335Z" fill="#CECECE"/>
<path d="M88.6 30.3668C88.6 30.0197 88.69 30.0286 89 30.4202C89.21 30.6872 89.21 30.6872 88.91 30.6872C88.62 30.6872 88.6 30.6605 88.6 30.3668Z" fill="#CECECE"/>
<path d="M86.9 28.409C86.9 28.0619 86.99 28.0708 87.3 28.4624C87.51 28.7294 87.51 28.7294 87.21 28.7294C86.92 28.7294 86.9 28.7027 86.9 28.409Z" fill="#CECECE"/>
<path d="M13.6 28.2488C13.6 27.9551 13.62 27.9284 13.91 27.9284C14.21 27.9284 14.21 27.9284 14 28.1954C13.69 28.587 13.6 28.5959 13.6 28.2488Z" fill="#CECECE"/>
<path d="M11.46 28.0886C11.36 27.7505 11.39 27.6615 11.6 27.6615C11.76 27.6615 11.8 27.7238 11.8 27.9729C11.8 28.3289 11.56 28.409 11.46 28.0886Z" fill="#CECECE"/>
<path d="M87.58 27.6615C87.3 27.35 87.3 27.35 87.56 27.3233C87.89 27.2877 87.92 27.3144 87.88 27.6704C87.85 27.9729 87.85 27.9729 87.58 27.6615Z" fill="#CECECE"/>
<path d="M85.9 27.3322C85.9 26.994 85.9 26.994 86.2 27.2788C86.37 27.439 86.5 27.5814 86.5 27.6081C86.5 27.6437 86.37 27.6615 86.2 27.6615C85.92 27.6615 85.9 27.6437 85.9 27.3322Z" fill="#CECECE"/>
<path d="M15 26.736C15 26.4423 15.02 26.4156 15.31 26.4156C15.61 26.4156 15.61 26.4156 15.4 26.6826C15.09 27.0741 15 27.083 15 26.736Z" fill="#CECECE"/>
<path d="M85.1 26.5491C85.1 26.38 85.11 26.2376 85.13 26.2376C85.15 26.2376 85.3 26.38 85.47 26.5491C85.78 26.8605 85.78 26.8605 85.44 26.8605C85.12 26.8605 85.1 26.8427 85.1 26.5491Z" fill="#CECECE"/>
<path d="M86.48 26.5046C86.2 26.1931 86.2 26.1931 86.46 26.1664C86.79 26.1308 86.82 26.1575 86.78 26.5135C86.75 26.816 86.75 26.816 86.48 26.5046Z" fill="#CECECE"/>
<path d="M11.06 26.2198C10.96 25.8816 10.99 25.7927 11.2 25.7927C11.36 25.7927 11.4 25.8549 11.4 26.1041C11.4 26.4601 11.16 26.5402 11.06 26.2198Z" fill="#CECECE"/>
<path d="M16.4 25.4278C16.4 25.0095 16.75 24.6981 17.19 24.7426C17.51 24.7693 17.51 24.7693 16.95 25.2587C16.4 25.7393 16.4 25.7393 16.4 25.4278V25.4278Z" fill="#CECECE"/>
<path d="M90 25.2142C90 24.965 90.04 24.9028 90.2 24.9028C90.41 24.9028 90.44 24.9917 90.34 25.3299C90.24 25.6503 90 25.5702 90 25.2142Z" fill="#CECECE"/>
<path d="M10.76 24.796C10.66 24.4578 10.69 24.3688 10.9 24.3688C11.06 24.3688 11.1 24.4311 11.1 24.6803C11.1 25.0362 10.86 25.1163 10.76 24.796Z" fill="#CECECE"/>
<path d="M82.6 24.4489C82.6 24.1819 82.6 24.1819 82.9 24.3688C83.34 24.6447 83.35 24.7248 82.96 24.7248C82.63 24.7248 82.6 24.707 82.6 24.4489Z" fill="#CECECE"/>
<path d="M84.1 24.3688C83.75 24.1107 83.75 24.1107 84.13 24.1018C84.48 24.1018 84.5 24.1196 84.5 24.3688C84.5 24.5201 84.49 24.6358 84.47 24.6358C84.46 24.6358 84.29 24.5201 84.1 24.3688Z" fill="#CECECE"/>
<path d="M90.3 23.7904C90.3 23.5412 90.34 23.4789 90.5 23.4789C90.71 23.4789 90.74 23.5679 90.64 23.9061C90.54 24.2264 90.3 24.1463 90.3 23.7904Z" fill="#CECECE"/>
<path d="M81.4 23.5679C81.4 23.3365 81.43 23.3098 81.58 23.381C81.67 23.4255 81.84 23.5501 81.94 23.648C82.13 23.8349 82.13 23.8349 81.77 23.8349C81.43 23.8349 81.4 23.8171 81.4 23.5679V23.5679Z" fill="#CECECE"/>
<path d="M19.2 23.1318C19.2 22.9005 19.24 22.856 19.45 22.856C19.63 22.856 19.7 22.8115 19.7 22.678C19.7 22.5267 19.77 22.5 20.08 22.5C20.45 22.5089 20.45 22.5089 20.1 22.7759C19.91 22.9272 19.63 23.1229 19.48 23.2208C19.2 23.3988 19.2 23.3988 19.2 23.1318Z" fill="#CECECE"/>
<path d="M80.5 22.9361C80.5 22.6691 80.5 22.6691 80.8 22.856C81.24 23.1318 81.25 23.2119 80.86 23.2119C80.53 23.2119 80.5 23.1941 80.5 22.9361Z" fill="#CECECE"/>
<path d="M90.6 22.2775C90.6 22.0284 90.64 21.9661 90.8 21.9661C91.01 21.9661 91.04 22.055 90.94 22.3932C90.84 22.7136 90.6 22.6335 90.6 22.2775Z" fill="#CECECE"/>
<path d="M22.35 22.233C22.38 22.1885 22.54 22.0639 22.7 21.9661C23 21.7792 23 21.7792 23 22.0461C23 22.3042 22.97 22.322 22.64 22.322C22.44 22.322 22.31 22.2864 22.35 22.233Z" fill="#CECECE"/>
<path d="M80.48 21.7881C80.15 21.53 80.15 21.53 80.53 21.5211C80.88 21.5211 80.9 21.5389 80.9 21.7881C80.9 21.9394 80.88 22.055 80.85 22.055C80.82 22.055 80.66 21.9394 80.48 21.7881Z" fill="#CECECE"/>
<path d="M10.06 21.0583C9.96 20.7202 9.99 20.6312 10.2 20.6312C10.36 20.6312 10.4 20.6935 10.4 20.9427C10.4 21.2986 10.16 21.3787 10.06 21.0583Z" fill="#CECECE"/>
<path d="M77.2 21.1206C77.2 21.0405 77.11 20.9872 76.95 20.9872C76.75 20.9872 76.7 20.9427 76.7 20.7647C76.7 20.6401 76.73 20.5422 76.77 20.5422C76.9 20.5422 77.9 21.1117 77.9 21.1829C77.9 21.2185 77.74 21.2541 77.55 21.2541C77.31 21.2541 77.2 21.2096 77.2 21.1206Z" fill="#CECECE"/>
<path d="M25.4 20.56C25.4 20.4888 25.92 20.1862 26.04 20.1862C26.07 20.1862 26.1 20.2841 26.1 20.4087C26.1 20.6045 26.06 20.6312 25.75 20.6312C25.56 20.6312 25.4 20.5956 25.4 20.56Z" fill="#CECECE"/>
<path d="M75.6 20.2307C75.6 19.9638 75.63 19.9638 76.01 20.1595C76.39 20.3642 76.38 20.4532 75.95 20.4532C75.64 20.4532 75.6 20.4265 75.6 20.2307Z" fill="#CECECE"/>
<path d="M91 20.1417C91 19.8926 91.04 19.8303 91.2 19.8303C91.41 19.8303 91.44 19.9193 91.34 20.2574C91.24 20.5778 91 20.4977 91 20.1417Z" fill="#CECECE"/>
<path d="M77.42 20.0794C77.14 19.9193 76.9 19.7591 76.9 19.7235C76.9 19.679 77.06 19.6523 77.25 19.6523C77.49 19.6523 77.6 19.6968 77.6 19.7858C77.6 19.8659 77.69 19.9193 77.85 19.9193C78.05 19.9193 78.1 19.9638 78.1 20.1417C78.1 20.4265 78.06 20.4265 77.42 20.0794Z" fill="#CECECE"/>
<path d="M91.2 18.9849C91.2 18.7357 91.24 18.6734 91.4 18.6734C91.61 18.6734 91.64 18.7624 91.54 19.1005C91.44 19.4209 91.2 19.3408 91.2 18.9849Z" fill="#CECECE"/>
<path d="M28.2 18.1839C28.2 17.9882 28.24 17.9615 28.56 17.9615C29 17.9615 28.98 18.1216 28.52 18.2907C28.21 18.4064 28.2 18.3975 28.2 18.1839Z" fill="#CECECE"/>
<path d="M31.5 18.0238C31.5 17.9526 31.66 17.8636 31.85 17.8102C32.18 17.7123 32.2 17.7212 32.2 17.9259C32.2 18.1128 32.15 18.1394 31.85 18.1394C31.63 18.1394 31.5 18.095 31.5 18.0238Z" fill="#CECECE"/>
<path d="M29.1 17.828C29.1 17.6322 29.14 17.6055 29.46 17.6055C29.9 17.6055 29.88 17.7657 29.42 17.9348C29.11 18.0505 29.1 18.0416 29.1 17.828Z" fill="#CECECE"/>
<path d="M69.6 17.8369C69.6 17.6322 69.62 17.6233 69.95 17.7212C70.14 17.7746 70.3 17.8636 70.3 17.9348C70.3 18.006 70.17 18.0505 69.95 18.0505C69.65 18.0505 69.6 18.0238 69.6 17.8369Z" fill="#CECECE"/>
<path d="M91.4 17.739C91.4 17.4898 91.44 17.4275 91.6 17.4275C91.8 17.4275 91.86 17.6233 91.74 17.9081C91.62 18.175 91.4 18.0683 91.4 17.739Z" fill="#CECECE"/>
<path d="M71.58 17.5521C71.2 17.3741 71.23 17.2495 71.65 17.2495C71.96 17.2495 72 17.2762 72 17.472C72 17.7301 71.95 17.739 71.58 17.5521Z" fill="#CECECE"/>
<path d="M30.3 17.3919C30.3 17.1873 30.34 17.1606 30.65 17.1606C31.02 17.1606 31.15 17.3652 30.83 17.4542C30.73 17.472 30.57 17.5254 30.48 17.561C30.33 17.6144 30.3 17.5788 30.3 17.3919Z" fill="#CECECE"/>
<path d="M33.8 17.3296C33.8 17.2317 34.4 16.9826 34.65 16.9826C34.89 16.9826 34.83 17.3118 34.58 17.3741C34.22 17.4542 33.8 17.4364 33.8 17.3296Z" fill="#CECECE"/>
<path d="M9.46 17.1428C9.36 16.8046 9.39 16.7156 9.6 16.7156C9.76 16.7156 9.8 16.7779 9.8 17.0271C9.8 17.383 9.56 17.4631 9.46 17.1428Z" fill="#CECECE"/>
<path d="M21.5 16.8936C21.15 16.6355 21.15 16.6355 21.53 16.6266C21.88 16.6266 21.9 16.6444 21.9 16.8936C21.9 17.0449 21.89 17.1605 21.87 17.1605C21.86 17.1605 21.69 17.0449 21.5 16.8936Z" fill="#CECECE"/>
<path d="M66.6 16.9826C66.6 16.7957 66.7 16.769 67.08 16.858C67.44 16.947 67.35 17.1606 66.95 17.1606C66.67 17.1606 66.6 17.125 66.6 16.9826Z" fill="#CECECE"/>
<path d="M35.1 16.9559C35.1 16.8847 35.26 16.7957 35.45 16.7423C35.78 16.6444 35.8 16.6533 35.8 16.858C35.8 17.0449 35.75 17.0716 35.45 17.0716C35.23 17.0716 35.1 17.0271 35.1 16.9559Z" fill="#CECECE"/>
<path d="M78.5 16.5465C78.5 16.2884 78.53 16.2706 78.86 16.2706C79.25 16.2706 79.24 16.3507 78.8 16.6266C78.5 16.8135 78.5 16.8135 78.5 16.5465Z" fill="#CECECE"/>
<path d="M80.5 16.1638C80.95 15.8079 80.95 15.8079 80.98 16.0393C81.03 16.3774 80.84 16.5376 80.41 16.5376C80.05 16.5287 80.05 16.5287 80.5 16.1638V16.1638Z" fill="#CECECE"/>
<path d="M62.98 16.2973C62.78 16.2706 62.7 16.2083 62.7 16.0838C62.7 15.888 62.73 15.8791 63.4 16.0126C63.71 16.0749 63.9 16.155 63.9 16.235C63.9 16.3596 63.6 16.3774 62.98 16.2973Z" fill="#CECECE"/>
<path d="M34.7 15.9592C34.7 15.7456 34.71 15.7456 34.88 15.8969C35.09 16.066 35.07 16.1816 34.84 16.1816C34.76 16.1816 34.7 16.0927 34.7 15.9592Z" fill="#CECECE"/>
<path d="M66.87 16.1194C66.6 16.0571 66.7 15.7456 67.08 15.4875C67.4 15.265 67.4 15.265 67.4 15.7278C67.4 16.1994 67.36 16.235 66.87 16.1194V16.1194Z" fill="#CECECE"/>
<path d="M18.4 15.6121C18.4 15.3095 18.4 15.3095 18.75 15.5854C18.94 15.7367 19.1 15.8702 19.1 15.888C19.1 15.9058 18.94 15.9147 18.75 15.9147C18.42 15.9147 18.4 15.8969 18.4 15.6121Z" fill="#CECECE"/>
<path d="M20 15.6477C19.65 15.3896 19.65 15.3896 20.03 15.3807C20.38 15.3807 20.4 15.3985 20.4 15.6477C20.4 15.799 20.39 15.9147 20.37 15.9147C20.36 15.9147 20.19 15.799 20 15.6477Z" fill="#CECECE"/>
<path d="M91.7 15.6032C91.7 15.354 91.74 15.2917 91.9 15.2917C92.11 15.2917 92.14 15.3807 92.04 15.7189C91.94 16.0393 91.7 15.9592 91.7 15.6032Z" fill="#CECECE"/>
<path d="M41.2 15.6922C41.2 15.5498 41.28 15.532 42.31 15.3896C43.17 15.265 43.2 15.265 43.2 15.4519C43.2 15.5854 43.06 15.6299 42.37 15.7189C41.31 15.8524 41.2 15.8524 41.2 15.6922Z" fill="#CECECE"/>
<path d="M43.3 15.4341C43.3 15.3006 43.51 15.2028 43.81 15.2028C43.93 15.2028 44 15.265 44 15.3807C44 15.5231 43.93 15.5587 43.65 15.5587C43.42 15.5587 43.3 15.5142 43.3 15.4341Z" fill="#CECECE"/>
<path d="M44.1 15.3451C44.1 15.2295 44.38 15.1138 44.68 15.1138C44.74 15.1138 44.8 15.1939 44.8 15.2917C44.8 15.4341 44.73 15.4697 44.45 15.4697C44.22 15.4697 44.1 15.4252 44.1 15.3451Z" fill="#CECECE"/>
<path d="M44.9 15.2561C44.9 15.1227 45.11 15.0248 45.41 15.0248C45.53 15.0248 45.6 15.0871 45.6 15.2028C45.6 15.3451 45.53 15.3807 45.25 15.3807C45.02 15.3807 44.9 15.3362 44.9 15.2561Z" fill="#CECECE"/>
<path d="M81.5 15.354C81.5 15.3362 81.66 15.2028 81.85 15.0515C82.2 14.7756 82.2 14.7756 82.2 15.0782C82.2 15.3629 82.18 15.3807 81.85 15.3807C81.66 15.3807 81.5 15.3718 81.5 15.354Z" fill="#CECECE"/>
<path d="M47.7 15.0782C47.7 14.9625 47.98 14.8468 48.28 14.8468C48.34 14.8468 48.4 14.9269 48.4 15.0248C48.4 15.1672 48.33 15.2028 48.05 15.2028C47.82 15.2028 47.7 15.1583 47.7 15.0782Z" fill="#CECECE"/>
<path d="M67.77 14.9358C67.95 14.7845 68.11 14.6688 68.14 14.6688C68.18 14.6688 68.2 14.7934 68.2 14.9358C68.2 15.185 68.18 15.2028 67.83 15.2028C67.45 15.2028 67.45 15.2028 67.77 14.9358Z" fill="#CECECE"/>
<path d="M17.4 14.8468C17.4 14.7044 17.42 14.5798 17.46 14.5798C17.49 14.5798 17.65 14.6955 17.83 14.8468C18.15 15.1138 18.15 15.1138 17.78 15.1138C17.42 15.1138 17.4 15.096 17.4 14.8468Z" fill="#CECECE"/>
<path d="M82.8 14.2861C82.8 14.2683 82.96 14.1349 83.15 13.9836C83.5 13.7077 83.5 13.7077 83.5 14.0103C83.5 14.295 83.48 14.3128 83.15 14.3128C82.96 14.3128 82.8 14.3039 82.8 14.2861Z" fill="#CECECE"/>
<path d="M9.16 13.6721C9.05 13.2983 9.09 13.156 9.3 13.156C9.47 13.156 9.5 13.2183 9.5 13.5119C9.5 13.9124 9.27 14.0192 9.16 13.6721Z" fill="#CECECE"/>
<path d="M17.3 13.5119C16.95 13.2539 16.95 13.2539 17.33 13.245C17.68 13.245 17.7 13.2628 17.7 13.5119C17.7 13.6632 17.69 13.7789 17.67 13.7789C17.66 13.7789 17.49 13.6632 17.3 13.5119Z" fill="#CECECE"/>
<path d="M70.57 12.8C70.75 12.6487 70.91 12.533 70.94 12.533C70.98 12.533 71 12.6576 71 12.8C71 13.0492 70.98 13.067 70.63 13.067C70.25 13.067 70.25 13.067 70.57 12.8Z" fill="#CECECE"/>
<path d="M83.3 12.622C83.3 12.3728 83.32 12.355 83.68 12.355C84.05 12.355 84.05 12.355 83.73 12.622C83.55 12.7733 83.39 12.889 83.36 12.889C83.32 12.889 83.3 12.7733 83.3 12.622Z" fill="#CECECE"/>
<path d="M14.67 11.6876C14.19 11.3672 13.8 11.0825 13.8 11.0647C13.8 11.038 13.96 11.0202 14.15 11.0202C14.46 11.0202 14.5 11.0469 14.5 11.2427C14.5 11.4384 14.54 11.4651 14.85 11.4651C15.09 11.4651 15.2 11.5096 15.2 11.5986C15.2 11.6698 15.29 11.7321 15.4 11.7321C15.56 11.7321 15.6 11.7944 15.6 11.9991C15.6 12.1504 15.58 12.2661 15.57 12.2661C15.55 12.2661 15.14 12.008 14.67 11.6876Z" fill="#CECECE"/>
<path d="M84.6 11.652C84.6 11.3939 84.63 11.3761 84.96 11.3761C85.35 11.3761 85.34 11.4562 84.9 11.7321C84.6 11.919 84.6 11.919 84.6 11.652Z" fill="#CECECE"/>
<path d="M72.45 11.4117C72.67 11.2427 72.97 11.0202 73.13 10.9223C73.4 10.7443 73.4 10.7443 73.4 11.0113C73.4 11.2605 73.37 11.2872 73.1 11.2872C72.85 11.2872 72.8 11.3227 72.8 11.5096C72.8 11.7054 72.76 11.7321 72.43 11.7321C72.05 11.7232 72.05 11.7232 72.45 11.4117Z" fill="#CECECE"/>
<path d="M86.56 11.4562C86.66 11.3583 86.83 11.2338 86.92 11.1893C87.07 11.1181 87.1 11.1448 87.1 11.3761C87.1 11.6253 87.07 11.6431 86.73 11.6431C86.37 11.6431 86.37 11.6431 86.56 11.4562V11.4562Z" fill="#CECECE"/>
<path d="M87.55 10.8422C87.58 10.7977 87.74 10.6731 87.9 10.5752C88.2 10.3883 88.2 10.3883 88.2 10.6553C88.2 10.9134 88.17 10.9312 87.84 10.9312C87.64 10.9312 87.51 10.8956 87.55 10.8422Z" fill="#CECECE"/>
<path d="M9.6 10.5396C9.6 10.3883 10.11 10.2727 10.4 10.3528C10.51 10.3794 10.6 10.4684 10.6 10.5396C10.6 10.6286 10.47 10.6642 10.1 10.6642C9.73 10.6642 9.6 10.6286 9.6 10.5396Z" fill="#CECECE"/>
<path d="M86.4 10.3972C86.4 10.1481 86.43 10.1303 86.75 10.1303C87.14 10.1303 87.18 10.1837 86.93 10.3706C86.48 10.682 86.4 10.682 86.4 10.3972Z" fill="#CECECE"/>
<path d="M8.7 9.99679C8.7 9.69422 8.71 9.68532 9.07 9.68532C9.44 9.68532 9.44 9.68532 9.1 9.99679C8.91 10.1659 8.75 10.3083 8.73 10.3083C8.71 10.3083 8.7 10.1659 8.7 9.99679Z" fill="#CECECE"/>
<path d="M11.33 9.93449C10.88 9.80101 10.9 9.59633 11.35 9.59633C11.66 9.59633 11.7 9.62303 11.7 9.81881C11.7 9.94339 11.69 10.0413 11.68 10.0324C11.66 10.0235 11.5 9.97899 11.33 9.93449V9.93449Z" fill="#CECECE"/>
<path d="M74.8 9.68532C75.05 9.48954 75.44 9.21367 75.68 9.06238C76.1 8.78651 76.1 8.78651 76.1 9.05349C76.1 9.28486 76.06 9.32936 75.85 9.32936C75.67 9.32936 75.6 9.37385 75.6 9.50734C75.6 9.64083 75.53 9.68532 75.35 9.68532C75.17 9.68532 75.1 9.72982 75.1 9.8633C75.1 10.0057 75.03 10.0413 74.73 10.0413C74.35 10.0324 74.35 10.0324 74.8 9.68532Z" fill="#CECECE"/>
<path d="M87.4 9.72982C87.4 9.53404 87.44 9.50734 87.78 9.50734C88.15 9.51624 88.15 9.51624 87.87 9.72982C87.51 10.0146 87.4 10.0057 87.4 9.72982Z" fill="#CECECE"/>
<path d="M92.63 8.9556C92.42 8.70642 92.39 8.61743 92.53 8.61743C92.61 8.61743 92.7 8.70642 92.73 8.81321C92.8 9.05349 92.76 9.10688 92.63 8.9556Z" fill="#CECECE"/>
<path d="M90.3 8.35046C90.3 8.20807 90.37 8.17248 90.65 8.17248C91.05 8.17248 91.14 8.38606 90.78 8.47505C90.4 8.56404 90.3 8.53734 90.3 8.35046Z" fill="#CECECE"/>
<path d="M79.15 6.65963C79.21 6.57954 80.23 5.86762 80.48 5.73413C80.56 5.68964 80.6 5.75193 80.6 5.93881C80.6 6.15239 80.56 6.21468 80.4 6.21468C80.29 6.21468 80.2 6.27697 80.2 6.34817C80.2 6.41936 80.11 6.48165 80 6.48165C79.89 6.48165 79.8 6.54395 79.8 6.61514C79.8 6.71303 79.69 6.74863 79.44 6.74863C79.24 6.74863 79.11 6.71303 79.15 6.65963V6.65963Z" fill="#CECECE"/>
<path d="M8.8 6.19688C8.8 5.92991 8.93 5.68073 9.06 5.68073C9.15 5.68073 9.2 5.78752 9.2 5.9922C9.2 6.24137 9.16 6.30367 9 6.30367C8.89 6.30367 8.8 6.25027 8.8 6.19688Z" fill="#CECECE"/>
<path d="M20.7 5.85872C20.7 5.62734 20.73 5.60064 20.88 5.67183C20.97 5.71633 21.14 5.84092 21.24 5.93881C21.43 6.12569 21.43 6.12569 21.07 6.12569C20.73 6.12569 20.7 6.10789 20.7 5.85872V5.85872Z" fill="#CECECE"/>
<path d="M8.95 5.04C9.04 4.38147 9.09 4.25688 9.27 4.25688C9.4 4.25688 9.42 4.33697 9.36 4.72853C9.33 4.97771 9.3 5.26248 9.3 5.35147C9.3 5.44936 9.22 5.50275 9.09 5.50275C8.9 5.50275 8.89 5.46716 8.95 5.04V5.04Z" fill="#CECECE"/>
<path d="M19.2 4.87982C19.2 4.64844 19.23 4.62174 19.38 4.69294C19.47 4.73743 19.64 4.86202 19.74 4.95991C19.93 5.14679 19.93 5.14679 19.57 5.14679C19.23 5.14679 19.2 5.12899 19.2 4.87982V4.87982Z" fill="#CECECE"/>
<path d="M92 4.39036C92 4.0344 92.24 3.95431 92.34 4.28357C92.44 4.61284 92.41 4.70183 92.2 4.70183C92.04 4.70183 92 4.63954 92 4.39036Z" fill="#CECECE"/>
<path d="M17.5 3.98991C17.5 3.94541 17.43 3.90092 17.35 3.90092C17.26 3.90092 17.2 3.82083 17.2 3.67844C17.2 3.55385 17.24 3.45596 17.28 3.45596C17.39 3.45596 18.2 3.97211 18.2 4.0344C18.2 4.0611 18.04 4.0789 17.85 4.0789C17.66 4.0789 17.5 4.0433 17.5 3.98991Z" fill="#CECECE"/>
<path d="M9.3 3.34917C9.3 3.0822 9.43 2.83303 9.56 2.83303C9.65 2.83303 9.7 2.93982 9.7 3.14449C9.7 3.39367 9.66 3.45596 9.5 3.45596C9.39 3.45596 9.3 3.40257 9.3 3.34917Z" fill="#CECECE"/>
<path d="M84.8 3.1C84.8 3.02881 85.31 2.74404 85.45 2.74404C85.48 2.74404 85.5 2.84193 85.5 2.96651C85.5 3.16229 85.46 3.18899 85.15 3.18899C84.96 3.18899 84.8 3.1534 84.8 3.1Z" fill="#CECECE"/>
<path d="M15.5 2.65505C15.5 2.38808 15.5 2.38808 15.85 2.58386C16.29 2.84193 16.29 2.92202 15.85 2.92202C15.53 2.92202 15.5 2.90422 15.5 2.65505Z" fill="#CECECE"/>
<path d="M9.5 2.63725C9.5 2.37027 9.63 2.1211 9.76 2.1211C9.85 2.1211 9.9 2.22789 9.9 2.43257C9.9 2.68174 9.86 2.74404 9.7 2.74404C9.59 2.74404 9.5 2.69064 9.5 2.63725Z" fill="#CECECE"/>
<path d="M12.5 1.27569C12.5 1.06211 12.51 1.05321 12.82 1.1689C13.28 1.33798 13.3 1.49817 12.86 1.49817C12.54 1.49817 12.5 1.47147 12.5 1.27569V1.27569Z" fill="#CECECE"/>
<path d="M88.5 1.29349C88.5 1.2223 88.66 1.1333 88.85 1.07991C89.18 0.982019 89.2 0.990919 89.2 1.1956C89.2 1.38248 89.15 1.40918 88.85 1.40918C88.63 1.40918 88.5 1.36468 88.5 1.29349Z" fill="#CECECE"/>
<path d="M89.8 0.928619C89.8 0.812931 90.08 0.697243 90.38 0.697243C90.44 0.697243 90.5 0.777334 90.5 0.875224C90.5 1.01761 90.43 1.05321 90.15 1.05321C89.92 1.05321 89.8 1.00871 89.8 0.928619Z" fill="#CECECE"/>
</svg>
