<svg width="403" height="496" viewBox="0 0 403 496" fill="none" xmlns="http://www.w3.org/2000/svg">
<path d="M42.5333 495.448C41.88 495.267 40.76 494.904 39.9667 494.723L38.5667 494.405L40.0133 494.224C40.9 494.133 42.2533 494.451 43.28 494.995C45.1 495.947 44.68 496.173 42.5333 495.448Z" fill="#392929"/>
<path d="M186.873 490.28C185.52 488.149 184.867 487.741 184.867 488.965C184.867 489.328 184.68 489.509 184.4 489.373C184.167 489.237 183.933 488.512 183.933 487.832C183.933 487.107 183.607 486.291 183.233 485.973C182.86 485.656 182.533 485.021 182.533 484.568C182.533 484.115 182.393 483.661 182.207 483.571C181.973 483.435 181.927 482.301 181.973 481.077C182.16 478.947 182.253 478.811 183.56 478.629C184.82 478.448 184.913 478.493 184.633 479.581C184.493 480.216 184.073 481.304 183.7 482.029C183 483.344 183.093 483.48 184.353 482.8C184.82 482.573 185.473 481.395 185.8 480.216C186.127 479.037 186.593 477.813 186.827 477.541C187.013 477.269 187.34 476.091 187.48 474.912C187.76 473.008 187.9 472.827 189.113 472.827C191.073 472.827 195.087 473.733 195.413 474.277C195.6 474.504 195.507 475.184 195.227 475.683C194.107 477.904 192.8 480.987 192.8 481.395C192.8 481.803 191.82 483.933 190.513 486.427C190.28 486.789 189.767 488.285 189.347 489.736C188.927 491.141 188.507 492.32 188.413 492.32C188.32 492.32 187.62 491.413 186.873 490.28ZM187.807 481.576C187.9 481.123 188.18 480.352 188.413 479.853C188.74 479.083 188.693 479.037 188.04 479.536C187.62 479.853 187.2 480.624 187.06 481.213C186.827 482.483 187.433 482.755 187.807 481.576Z" fill="#392929"/>
<path d="M155.14 486.336C152.62 483.163 152.153 482.347 152.713 482.347C153.367 482.392 156.167 486.381 155.793 486.744C155.7 486.835 155.373 486.653 155.14 486.336Z" fill="#392929"/>
<path d="M177.68 483.163C177.54 482.392 177.493 481.667 177.633 481.531C177.773 481.395 177.867 481.667 177.867 482.12C177.867 482.755 178.007 482.8 178.52 482.392C178.893 482.075 179.08 481.44 178.893 480.851C178.66 479.899 178.66 479.899 179.407 480.624C180.293 481.485 180.433 482.483 179.733 483.752C178.987 485.067 178.007 484.795 177.68 483.163Z" fill="#392929"/>
<path d="M147.487 472.963C147.487 472.464 147.347 472.373 147.207 472.736C146.973 473.325 144.873 473.461 143.567 473.008C142.213 472.464 141.467 470.288 141.467 466.707C141.467 463.397 141.42 463.307 140.347 463.307C139.693 463.307 139.04 463.08 138.9 462.853C138.387 462.037 137.593 453.605 138.06 453.469C138.293 453.379 138.387 452.608 138.293 451.747C138.2 450.885 138.247 449.616 138.387 448.981C138.667 447.893 138.853 447.848 141.14 447.939C143.333 448.075 143.567 447.984 143.707 447.077C143.847 446.261 144.173 446.08 145.713 446.08C147.44 446.08 147.533 446.171 147.533 447.485C147.533 448.256 147.3 449.253 147.067 449.752C146.647 450.477 146.74 450.613 147.767 450.613C148.887 450.613 148.933 450.704 148.933 453.787C148.933 456.824 148.98 456.96 150.007 456.96C151.36 456.96 152.853 459.725 152.573 461.765C152.387 462.989 152.34 462.989 151.78 461.085C151.453 460.043 151.08 459.227 150.987 459.363C150.847 459.499 150.94 460.36 151.22 461.357C151.5 462.309 151.733 463.805 151.733 464.712C151.733 465.845 152.06 466.616 152.9 467.387C154.487 468.837 154.44 470.107 152.807 470.107C151.92 470.107 151.08 469.653 150.193 468.656L148.887 467.16L149.12 469.427C149.213 470.696 149.493 472.147 149.633 472.736C149.913 473.597 149.82 473.733 148.747 473.733C147.907 473.733 147.533 473.507 147.487 472.963ZM145.06 460.949C144.967 459.136 144.313 457.867 143.52 457.867C143.053 457.867 143.66 461.448 144.267 462.173C145.107 463.171 145.2 463.035 145.06 460.949Z" fill="#392929"/>
<path d="M292.853 460.586C292.34 460.405 291.313 459.498 290.613 458.637C289.027 456.733 287.3 456.144 286.18 457.186C284.733 458.41 283.053 457.685 282.26 455.509C281.98 454.784 282.307 454.693 285.993 454.874C289.727 455.01 290.1 455.101 290.94 456.234C291.407 456.869 292.76 457.957 293.88 458.592C295.047 459.272 295.887 459.997 295.793 460.269C295.607 460.858 294.067 461.04 292.853 460.586Z" fill="#392929"/>
<path d="M299.9 458.048C298.873 457.957 296.867 457.549 295.42 457.141C292.853 456.416 292.807 456.371 292.76 454.648C292.667 452.925 292.713 452.88 294.3 452.88C295.187 452.88 295.933 453.061 295.933 453.288C295.933 453.515 296.587 453.787 297.38 453.968C298.267 454.104 298.687 454.421 298.453 454.739C298.267 455.101 298.033 455.056 297.753 454.648C297.567 454.331 297.193 454.195 297.007 454.421C296.82 454.603 297.053 455.056 297.567 455.419C298.22 455.917 299.573 456.053 302.28 456.008C304.38 455.963 306.34 456.053 306.62 456.235C307.553 456.779 307.18 457.277 305.64 457.595C302.7 458.139 301.767 458.184 299.9 458.048Z" fill="#392929"/>
<path d="M41.18 450.115C40.9 449.299 40.6666 447.667 40.6666 446.488C40.6666 444.584 40.8066 444.267 41.5533 444.267C42.1133 444.267 42.5333 444.629 42.6733 445.309C42.86 446.307 42.9066 446.307 43.28 445.173C43.6533 444.131 43.7 444.221 44.0733 446.08C45.1466 451.701 45.1466 451.52 43.3266 451.52C41.9266 451.52 41.6 451.339 41.18 450.115Z" fill="#392929"/>
<path d="M94.8 451.203C94.8467 450.976 95.36 450.251 96.0133 449.48L97.18 448.12L96.3867 449.843C95.64 451.339 94.7533 452.109 94.8 451.203Z" fill="#392929"/>
<path d="M302.373 450.296C301.813 450.16 301.533 449.661 301.533 448.89C301.533 447.712 301.627 447.666 303.4 447.802C304.567 447.938 305.267 447.802 305.267 447.485C305.267 447.213 305.78 446.986 306.387 446.986C306.993 446.986 307.6 446.76 307.693 446.488C307.787 446.17 308.3 446.216 309.233 446.578C310.027 446.896 310.82 447.168 311.1 447.168C311.333 447.213 311.613 447.576 311.707 448.074C311.847 448.8 311.613 448.89 309.747 448.754C307.88 448.573 307.6 448.664 307.367 449.57C307.133 450.477 306.807 450.613 305.127 450.568C304.053 450.522 302.793 450.432 302.373 450.296Z" fill="#392929"/>
<path d="M352.167 448.709C352.4 447.667 352.68 445.763 352.82 444.493C353.1 442.136 355.713 437.693 357.533 436.424C358.933 435.472 358.187 435.2 354.08 435.2C350.813 435.155 350.393 435.064 351.14 434.565C351.56 434.248 353.1 433.613 354.5 433.16C355.947 432.752 357.44 431.936 357.953 431.301C359.54 429.307 362.2 430.213 362.2 432.707C362.2 434.067 362.06 434.293 361.08 434.293C359.587 434.293 359.027 435.2 360.287 435.517C361.08 435.699 361.267 436.107 361.267 437.421C361.267 438.872 361.08 439.144 359.867 439.597C359.12 439.869 358.467 440.413 358.467 440.776C358.467 441.139 358.14 441.592 357.72 441.728C357.3 441.864 357.067 442.272 357.207 442.589C357.3 442.952 358.373 443.133 360.613 443.043C362.387 443.043 363.273 443.088 362.527 443.224C360.66 443.541 361.453 444.267 363.74 444.312C364.813 444.357 365.327 444.448 364.813 444.584C364.347 444.72 362.993 445.355 361.78 446.035C360.613 446.715 358.887 447.531 358 447.893C357.113 448.211 355.34 448.981 354.08 449.616L351.793 450.704L352.167 448.709Z" fill="#392929"/>
<path d="M291.267 447.213C291.267 445.717 291.36 445.626 292.9 445.626C294.44 445.626 294.533 445.717 294.533 447.213C294.533 448.709 294.44 448.8 292.9 448.8C291.36 448.8 291.267 448.709 291.267 447.213Z" fill="#392929"/>
<path d="M143.8 444.403C143.8 443.723 144.033 442.499 144.36 441.683C144.827 440.413 145.153 440.187 146.46 440.187C147.86 440.187 148 440.323 148 441.501C148 442.181 147.767 443.405 147.487 444.221C147.067 445.445 146.74 445.627 145.387 445.627C143.987 445.627 143.8 445.491 143.8 444.403Z" fill="#392929"/>
<path d="M118.6 442.906V440.64H120.233H121.867V442.906V445.173H120.233H118.6V442.906Z" fill="#392929"/>
<path d="M139.32 443.088C139.133 442.045 139.273 440.64 139.787 439.189C140.207 437.92 140.533 436.605 140.533 436.288C140.533 435.88 141.093 435.653 142.213 435.653H143.94L143.613 439.189C143.147 444.403 143.007 444.72 141.187 444.72C139.787 444.72 139.6 444.584 139.32 443.088Z" fill="#392929"/>
<path d="M134 438.6C134 436.515 134.187 435.2 134.513 435.2C134.747 435.2 135.213 434.611 135.447 433.84C135.867 432.707 136.193 432.48 137.547 432.48C139.413 432.48 139.46 432.933 138.62 437.875C137.967 441.501 137.593 442 135.587 442H134V438.6Z" fill="#392929"/>
<path d="M292.107 441.456C290.333 441.003 289.96 440.277 290.613 438.691C290.94 437.875 292.527 438.237 295.14 439.733C298.407 441.637 296.633 442.635 292.107 441.456Z" fill="#392929"/>
<path d="M370.133 440.821C370.133 440.277 369.853 440.141 368.92 440.368C367.8 440.64 367.753 440.594 367.893 439.189C367.987 438.146 368.36 437.557 369.107 437.24C369.853 436.922 370.133 436.424 370.133 435.336C370.133 434.293 370.367 433.84 370.833 433.84C371.207 433.84 371.533 433.568 371.533 433.25C371.533 432.797 370.88 432.661 368.967 432.842C366.68 433.024 366.4 432.933 366.4 432.208C366.4 431.528 367.24 431.074 370.087 430.077C372.093 429.397 374.147 428.944 374.613 429.125C377.553 430.032 378.113 430.349 377.507 430.712C377.18 430.938 376.247 431.12 375.407 431.12C373.54 431.12 372.467 431.528 372.467 432.253C372.467 432.616 373.073 432.752 374.52 432.616C376.387 432.434 376.573 432.48 376.76 433.568C376.9 434.202 376.807 434.746 376.573 434.746C376.34 434.746 376.293 434.973 376.433 435.2C376.853 435.834 378.533 435.336 379.84 434.157C380.4 433.658 380.867 433.386 380.867 433.613C380.867 434.157 375.64 438.826 375.033 438.826C374.707 438.826 373.587 439.461 372.56 440.186C370.32 441.773 370.133 441.818 370.133 440.821ZM376.153 437.24C376.573 436.877 376.667 436.333 376.433 435.789C376.2 435.336 376.107 434.837 376.107 434.656C376.153 434.429 375.033 434.293 373.633 434.293C372.233 434.293 371.067 434.52 371.067 434.746C371.067 435.018 371.907 435.2 372.933 435.2C375.22 435.2 375.313 435.744 373.167 437.013C372.28 437.557 371.533 438.101 371.533 438.237C371.533 438.736 375.5 437.874 376.153 437.24Z" fill="#392929"/>
<path d="M313.2 438.736C313.2 437.648 313.387 437.013 313.573 437.33C313.76 437.602 314.553 437.965 315.3 438.146C316.093 438.328 317.167 438.645 317.727 438.917C319.407 439.733 318.147 440.64 315.487 440.64H313.2V438.736Z" fill="#392929"/>
<path d="M145.2 435.2C145.2 433.432 145.247 433.387 146.833 433.387C148.42 433.387 148.467 433.432 148.467 435.2C148.467 436.968 148.42 437.013 146.833 437.013C145.247 437.013 145.2 436.968 145.2 435.2Z" fill="#392929"/>
<path d="M125.133 433.84C125.133 432.072 125.18 432.026 126.767 432.026C128.353 432.026 128.4 432.072 128.4 433.84C128.4 435.608 128.353 435.653 126.767 435.653C125.18 435.653 125.133 435.608 125.133 433.84Z" fill="#392929"/>
<path d="M315.347 434.928C314.787 433.522 315.02 431.573 315.767 431.573C316.14 431.573 316.467 431.256 316.467 430.893C316.467 430.44 316.933 430.213 317.867 430.213C318.8 430.213 319.407 429.941 319.64 429.442C319.967 428.672 320.107 428.672 322.02 429.578L324.073 430.53L322.533 431.074C321.693 431.346 319.967 431.573 318.753 431.573C317.54 431.573 316.42 431.754 316.233 431.981C315.86 432.661 317.587 433.386 319.453 433.386C320.387 433.386 321.133 433.613 321.133 433.84C321.133 434.112 320.667 434.293 320.107 434.293C319.5 434.338 318.52 434.61 317.867 434.973C316.327 435.834 315.673 435.834 315.347 434.928Z" fill="#392929"/>
<path d="M29.9332 432.027C29.9332 430.259 29.9799 430.213 31.5666 430.213C33.1532 430.213 33.1999 430.259 33.1999 432.027C33.1999 433.795 33.1532 433.84 31.5666 433.84C29.9799 433.84 29.9332 433.795 29.9332 432.027Z" fill="#392929"/>
<path d="M310.213 433.114C310.073 432.706 309.933 431.8 309.933 431.074C309.933 429.896 310.073 429.76 311.38 429.76C313.667 429.76 314.6 430.485 314.6 432.253C314.6 433.84 314.6 433.84 312.547 433.84C311.1 433.84 310.4 433.613 310.213 433.114Z" fill="#392929"/>
<path d="M165.267 430.44C165.267 428.4 165.267 428.4 166.9 428.4C168.533 428.4 168.533 428.4 168.533 430.44C168.533 432.48 168.533 432.48 166.9 432.48C165.267 432.48 165.267 432.48 165.267 430.44Z" fill="#392929"/>
<path d="M377.973 427.176C377.507 427.085 377.133 426.632 377.133 426.224C377.133 425.816 376.993 424.365 376.853 423.096C376.527 420.784 376.573 420.693 377.693 420.693C378.3 420.693 379.047 420.467 379.373 420.149C380.213 419.333 380.633 420.104 379.933 421.328C379.607 421.963 379.467 422.779 379.653 423.187C379.84 423.731 379.653 424.003 379 424.184C377.833 424.501 377.787 425.227 378.907 425.227C379.747 425.227 381.333 426.541 381.333 427.176C381.333 427.539 379.28 427.493 377.973 427.176Z" fill="#392929"/>
<path d="M133.673 423.912C133.86 422.416 134.42 420.467 134.933 419.56C135.447 418.699 135.867 417.656 135.867 417.293C135.867 416.84 136.38 416.613 137.5 416.613H139.133V418.835C139.133 420.24 138.9 421.237 138.433 421.6C138.06 421.917 137.733 422.915 137.733 423.821C137.733 425.907 137.08 426.587 135.027 426.587H133.393L133.673 423.912Z" fill="#392929"/>
<path d="M240.26 425.362C239.047 425.045 237.133 423.368 237.133 422.642C237.133 422.325 236.713 422.053 236.247 422.053C235.733 422.053 235.173 421.826 235.033 421.6C234.847 421.328 234.38 421.146 233.96 421.192C231.907 421.373 231.533 421.146 231.533 419.741C231.533 418.562 231.673 418.381 232.373 418.653C232.793 418.834 234.24 419.333 235.547 419.832C236.853 420.33 238.813 421.464 239.933 422.37C241.287 423.504 242.36 424.048 243.06 423.957C243.9 423.821 244.133 424.002 244.133 424.818C244.133 425.68 244.04 425.725 243.34 425.181C242.827 424.728 242.687 424.728 242.92 425.136C243.247 425.68 242.033 425.816 240.26 425.362Z" fill="#392929"/>
<path d="M142.4 422.507V420.693H144.267H146.133V422.507V424.32H144.267H142.4V422.507Z" fill="#392929"/>
<path d="M392.067 422.506C392.627 421.781 393.28 421.146 393.513 421.146C394.027 421.146 393.7 421.872 392.627 423.096C391.46 424.411 390.993 423.957 392.067 422.506Z" fill="#392929"/>
<path d="M354.64 423.141C354.407 422.96 354.267 422.325 354.267 421.691C354.267 420.784 354.407 420.693 354.92 421.101C355.713 421.736 358.047 421.283 357.953 420.512C357.813 419.424 358.047 418.88 358.607 418.88C358.933 418.88 359.727 418.427 360.333 417.883L361.407 416.885L361.127 419.787C360.94 421.373 360.707 422.733 360.613 422.869C360.193 423.232 354.967 423.504 354.64 423.141Z" fill="#392929"/>
<path d="M251.367 422.28C250.34 421.917 248.66 421.645 247.633 421.645C245.487 421.6 242.733 420.92 240.54 419.922C239.233 419.333 239 418.97 239 417.701V416.16H241.333C243.2 416.16 243.713 416.341 244.133 417.112C244.693 418.064 247.773 419.605 248.193 419.152C248.333 419.016 247.82 418.29 246.98 417.565C245.58 416.296 245.067 414.8 246 414.8C246.28 414.8 246.887 415.434 247.307 416.25C248.707 418.698 250.433 420.33 252.533 421.101C254.633 421.872 255.613 423.005 254.073 422.914C253.607 422.869 252.393 422.597 251.367 422.28Z" fill="#392929"/>
<path d="M292.993 422.642C292.807 422.506 292.667 421.872 292.667 421.328V420.24L294.86 421.056C297.8 422.098 298.033 422.96 295.373 422.96C294.207 422.96 293.133 422.824 292.993 422.642Z" fill="#392929"/>
<path d="M316 422.053C315.627 421.827 314.553 421.6 313.62 421.6C310.353 421.6 309 421.101 309 420.013C309 419.061 309.093 419.016 311.427 419.379C314.787 419.923 315.347 419.152 312.173 418.381C311.147 418.155 311.613 418.109 313.667 418.291C315.953 418.472 316.887 418.744 317.447 419.469C318.147 420.285 318.567 420.376 323.887 420.149C328.973 419.923 329.533 420.013 329.533 420.693C329.533 421.237 328.833 421.555 326.547 421.963C323 422.597 316.98 422.643 316 422.053Z" fill="#392929"/>
<path d="M393.933 417.52C393.933 416.115 394.12 415.707 394.773 415.707C395.427 415.707 395.427 415.797 394.913 416.115C394.493 416.387 394.353 416.976 394.54 417.928C394.727 418.744 394.633 419.333 394.4 419.333C394.12 419.333 393.933 418.517 393.933 417.52Z" fill="#392929"/>
<path d="M376.667 417.338C376.667 416.704 381.193 415.434 381.66 415.888C381.8 415.978 381.66 416.522 381.333 417.021C380.96 417.792 380.4 417.973 378.767 417.973C377.273 417.973 376.667 417.792 376.667 417.338Z" fill="#392929"/>
<path d="M235.967 414.437C233.68 413.304 233.213 413.123 231.627 412.76C230.18 412.488 230.087 412.352 230.227 410.811C230.367 409.269 230.46 409.133 231.767 409.269C232.513 409.36 233.68 409.723 234.333 410.04C234.987 410.357 236.713 411.128 238.253 411.717C240.867 412.715 242.127 413.848 240.96 414.256C240.633 414.347 240.493 414.619 240.68 414.845C241.1 415.525 237.46 415.208 235.967 414.437Z" fill="#392929"/>
<path d="M248.94 414.483C248.613 414.392 248.333 413.712 248.333 412.987C248.333 411.763 248.38 411.717 250.107 412.08C256.453 413.304 257.2 413.531 257.2 414.165C257.2 414.664 256.407 414.8 253.373 414.755C251.227 414.755 249.22 414.619 248.94 414.483Z" fill="#392929"/>
<path d="M354.733 413.667C354.733 413.259 355.387 412.669 356.133 412.352C356.927 412.035 357.393 411.672 357.207 411.491C357.067 411.309 357.16 411.173 357.44 411.173C357.767 411.173 358 411.853 358 412.76C358 414.256 357.907 414.347 356.367 414.347C355.2 414.347 354.733 414.165 354.733 413.667Z" fill="#392929"/>
<path d="M395.473 412.715C395.94 411.173 395.987 411.173 396.36 412.125C396.873 413.395 396.547 414.347 395.613 414.347C395.053 414.347 395.053 414.075 395.473 412.715Z" fill="#392929"/>
<path d="M220.147 411.989C220.007 411.4 219.867 410.267 219.867 409.496C219.867 408.091 219.96 408 221.5 408C222.387 408 223.133 408.181 223.133 408.408C223.133 408.635 223.273 409.224 223.46 409.677C223.74 410.403 223.693 410.403 222.993 409.859C222.527 409.496 222.06 409.36 221.92 409.496C221.593 409.768 222.76 411.627 223.227 411.627C223.46 411.627 223.6 411.944 223.6 412.307C223.6 412.76 223.133 412.987 222.013 412.987C220.8 412.987 220.38 412.76 220.147 411.989Z" fill="#392929"/>
<path d="M320.667 410.992C320.667 410.131 320.9 409.269 321.227 409.088C321.553 408.907 321.6 408.952 321.413 409.269C321.04 409.859 322.207 410.176 325.1 410.357C326.64 410.493 327.013 410.675 327.107 411.536C327.247 412.488 327.107 412.533 323.98 412.533H320.667V410.992Z" fill="#392929"/>
<path d="M378.533 411.445C378.533 410.448 378.72 410.312 380.307 410.357C381.333 410.357 382.547 410.13 383.06 409.858C384.507 409.133 385.3 410.221 384.32 411.536C383.76 412.352 383.153 412.533 381.053 412.533C378.673 412.533 378.533 412.442 378.533 411.445Z" fill="#392929"/>
<path d="M242.687 410.72C241.473 410.538 240.027 410.04 239.42 409.677C238.813 409.314 237.18 408.77 235.873 408.453C234.427 408.136 233.4 407.682 233.4 407.32C233.4 406.549 232.14 406.141 224.207 404.554C223.507 404.418 223.133 404.01 223.133 403.466C223.133 402.741 222.807 402.56 221.733 402.56C220.94 402.56 220.333 402.333 220.333 402.016C220.333 401.381 215.153 401.29 213.753 401.834C213.333 402.016 211.747 402.106 210.253 402.016L207.5 401.88L207.36 400.202C207.22 398.389 207.687 398.026 208.667 399.16C208.993 399.522 209.693 399.84 210.207 399.84C211.14 399.84 211.14 399.794 210.3 399.205C209.507 398.661 209.6 398.57 211.14 398.298C212.447 398.072 212.867 397.754 212.867 397.12C212.867 396.621 213.193 396.213 213.613 396.213C213.987 396.213 214.173 396.44 214.033 396.666C213.893 396.938 214.033 397.256 214.407 397.392C214.78 397.528 215.2 398.072 215.34 398.57C215.667 399.704 216.787 399.432 216.973 398.117C217.16 397.074 218.607 396.712 219.167 397.573C219.307 397.845 219.867 398.026 220.38 398.026C221.033 398.026 221.267 397.709 221.267 396.666C221.267 395.261 222.013 394.808 222.48 395.986C222.9 396.984 225.327 396.893 225.607 395.896C225.747 395.442 225.84 395.85 225.887 396.802L225.933 398.48H223.927C222.807 398.48 221.78 398.616 221.593 398.752C221.453 398.933 221.64 399.658 222.013 400.429C222.433 401.154 222.9 401.608 223.087 401.381C223.507 400.837 225.187 400.882 225.98 401.472C226.353 401.744 228.033 401.925 229.993 401.834C232.793 401.744 233.493 401.88 233.867 402.469C234.1 402.877 234.333 403.104 234.333 402.877C234.333 402.696 235.033 402.877 235.873 403.285C236.667 403.738 238.86 404.554 240.633 405.098C243.48 406.005 243.667 406.141 242.267 406.186C241.333 406.186 240.213 405.914 239.7 405.552C238.533 404.781 235.733 404.192 235.733 404.69C235.733 405.642 248.1 408.77 248.613 407.954C249.033 407.32 248.193 406.186 247.12 405.914C246.513 405.778 246 405.461 246 405.234C246 405.008 245.58 404.826 245.113 404.826C243.62 404.826 242.733 404.328 242.733 403.512C242.733 403.104 242.127 402.378 241.333 401.97C240.167 401.29 239.933 400.882 239.933 399.341C239.933 398.389 240.167 397.573 240.447 397.573C241.427 397.573 240.353 396.757 239 396.53C237.74 396.258 237.6 396.077 237.6 394.4C237.6 392.632 237.647 392.586 239.14 392.586C239.933 392.586 241.1 392.722 241.707 392.858C242.687 393.13 242.687 393.176 241.94 393.72C241.147 394.264 241.193 394.354 242.5 394.853C243.807 395.306 251.46 395.17 254.307 394.581C254.867 394.49 255.333 394.581 255.333 394.808C255.333 395.488 253.7 396.213 251.507 396.576C249.22 396.984 248.52 398.026 250.573 398.026C251.32 398.026 252.44 398.434 253.093 398.888C253.747 399.386 255.193 400.021 256.313 400.293C257.433 400.565 259.113 401.426 260 402.197L261.633 403.557L259.067 403.285C257.667 403.149 255.52 402.922 254.307 402.741C250.06 402.152 248.193 403.557 251.88 404.6L253.7 405.144L251.74 405.733C249.407 406.413 249.453 406.866 251.927 407.002C252.907 407.048 254.727 407.229 255.987 407.365C258.227 407.637 258.273 407.682 257.153 408.226C255.52 409.042 249.78 410.357 249.267 410.04C248.987 409.858 248.66 410.085 248.52 410.448C248.193 411.264 246.373 411.309 242.687 410.72Z" fill="#392929"/>
<path d="M398.6 408.317C398.6 407.954 399.067 407.546 399.58 407.41L400.56 407.138L399.627 405.642C398.787 404.282 398.74 404.01 399.3 402.696C399.673 401.88 400.233 401.2 400.56 401.2C400.887 401.2 400.56 400.701 399.86 400.066C398.413 398.706 398.367 398.616 399.3 397.754C400.513 396.53 400.7 394.898 399.627 393.946C398.74 393.13 398.74 392.949 399.347 391.181C399.86 389.776 399.907 389.141 399.487 388.688C399.207 388.37 399.113 387.872 399.3 387.6C399.487 387.282 399.253 386.376 398.787 385.514C397.947 384.018 397.947 383.973 398.973 383.066C400.56 381.616 399.627 378.624 397.2 377.4C396.407 376.992 395.8 376.402 395.8 376.04C395.8 375.677 395.053 374.68 394.167 373.818C393.28 372.912 392.533 371.914 392.533 371.597C392.533 370.6 390.247 368.424 389.5 368.741C389.127 368.877 388.707 368.741 388.52 368.469C388.333 368.152 388.38 368.106 388.707 368.288C389.033 368.469 389.267 368.378 389.267 368.152C389.267 367.88 389.407 367.698 389.64 367.698C389.827 367.744 390.48 367.744 391.04 367.698C392.813 367.608 391.973 366.701 389.36 365.704C388.007 365.205 386.933 364.661 386.933 364.434C386.933 364.253 387.68 363.709 388.613 363.301C390.247 362.53 390.34 362.53 390.947 363.346C391.32 363.8 391.6 364.57 391.6 365.024C391.6 365.522 391.927 365.84 392.487 365.84C394.073 365.84 394.867 366.338 394.867 367.381C394.867 368.65 395.287 369.149 396.873 369.784C397.62 370.146 398.133 370.69 398.133 371.234C398.133 372.322 398.927 374.226 400.093 375.904C400.653 376.72 400.98 378.216 401.12 380.664C401.26 382.613 401.493 384.562 401.68 385.016C401.82 385.469 401.867 387.237 401.773 388.96C401.587 391.317 401.68 392.133 402.147 392.314C402.893 392.586 402.987 394.445 402.38 396.53C402.1 397.437 402.1 398.117 402.38 398.253C403.22 398.797 402.847 401.88 401.867 402.56C401.213 403.013 401.12 403.33 401.447 403.738C401.727 404.056 401.867 405.28 401.727 406.504C401.587 408.589 401.493 408.68 400.093 408.816C399.02 408.906 398.6 408.77 398.6 408.317Z" fill="#392929"/>
<path d="M355.34 408.181C354.173 407.682 354.78 406.549 356.6 405.869C357.627 405.461 358.467 404.962 358.467 404.736C358.467 404.554 358.98 404.373 359.633 404.373C360.66 404.373 360.8 404.554 360.8 405.914C360.8 407.229 360.613 407.501 359.54 407.682C358.793 407.818 357.72 408.045 357.067 408.181C356.413 408.317 355.62 408.317 355.34 408.181Z" fill="#392929"/>
<path d="M378.067 406.866C378.067 405.733 378.253 405.28 378.813 405.28C379.327 405.28 379.467 405.506 379.28 406.005C379.047 406.64 379.327 406.685 381.333 406.413C383.387 406.141 383.62 406.186 383.387 406.821C382.967 407.864 381.66 408.453 379.747 408.453C378.16 408.453 378.067 408.362 378.067 406.866Z" fill="#392929"/>
<path d="M323.607 407.365C322.347 406.776 322.067 404.554 323.28 405.008C323.7 405.144 324.54 405.28 325.147 405.28C325.8 405.28 326.267 405.552 326.267 405.914C326.267 406.277 326.593 406.64 326.967 406.821C327.34 406.957 327.667 407.274 327.667 407.546C327.667 408.136 324.96 408.045 323.607 407.365Z" fill="#392929"/>
<path d="M244.74 406.322C245.16 406.232 245.907 406.232 246.373 406.322C246.793 406.458 246.42 406.549 245.533 406.549C244.647 406.549 244.273 406.458 244.74 406.322Z" fill="#392929"/>
<path d="M292.667 405.053C292.667 404.69 292.947 404.509 293.32 404.645C293.693 404.781 294.067 404.509 294.207 403.965C294.393 403.24 294.813 403.013 295.887 403.013C296.68 403.013 297.333 402.832 297.333 402.56C297.333 402.333 297.753 402.106 298.267 402.106C299.013 402.106 299.2 402.424 299.2 403.648C299.2 405.008 299.013 405.189 297.753 405.461C295.047 405.96 292.667 405.778 292.667 405.053Z" fill="#392929"/>
<path d="M327.62 402.696C327.62 401.971 327.48 401.699 327.34 402.016C327.013 402.787 323.793 402.696 321.833 401.789C320.433 401.155 320.2 400.792 320.2 399.523C320.2 397.936 320.807 397.573 321.46 398.707C321.693 399.069 322.533 399.523 323.373 399.659C324.54 399.885 324.867 399.795 324.867 399.205C324.867 398.752 324.493 398.48 323.84 398.48C322.953 398.48 322.907 398.389 323.467 398.027C324.54 397.347 326.267 397.483 326.267 398.253C326.267 398.616 326.64 398.979 327.107 399.024C327.527 399.024 328.133 399.115 328.367 399.16C328.647 399.251 329.207 399.296 329.673 399.341C330.513 399.387 330.84 400.747 329.953 400.747C328.927 400.747 330.14 401.653 331.867 402.152C334.853 403.013 334.247 403.92 330.7 403.92C327.713 403.92 327.667 403.92 327.62 402.696Z" fill="#392929"/>
<path d="M381.24 403.602C379.373 403.466 379 403.285 379 402.514C379 401.653 379.187 401.608 382.173 401.88C383.9 402.061 385.487 402.333 385.72 402.469C386.233 402.741 384.647 403.965 383.947 403.829C383.667 403.784 382.453 403.693 381.24 403.602Z" fill="#392929"/>
<path d="M295 401.2C292.807 401.064 290.427 400.656 289.633 400.339L288.233 399.749L289.587 399.069C290.613 398.525 291.687 398.435 294.02 398.661C297.007 398.979 297.053 398.979 296.26 398.117C295.467 397.256 295.467 397.256 297.333 397.573C298.36 397.755 300.18 397.8 301.3 397.664L303.4 397.437V399.069C303.4 400.928 302.42 401.699 300.273 401.563C299.573 401.517 297.193 401.381 295 401.2Z" fill="#392929"/>
<path d="M192.147 399.749C192.007 399.16 191.867 397.936 191.867 397.029C191.867 395.397 191.913 395.307 193.453 395.307C194.853 395.307 195.04 395.488 195.32 396.712C195.46 397.483 195.6 398.707 195.6 399.432C195.6 400.611 195.46 400.747 194.013 400.747C192.8 400.747 192.38 400.52 192.147 399.749Z" fill="#392929"/>
<path d="M375.267 398.299C375.267 397.165 375.547 396.576 376.48 395.987L377.647 395.261L376.9 396.395C376.107 397.528 376.153 397.573 376.993 397.573C377.507 397.573 378.067 397.437 378.207 397.256C378.767 396.757 383.34 395.307 384.46 395.307C385.72 395.307 385.907 396.576 384.74 396.939C384.273 397.12 382.547 397.8 380.913 398.525C379.28 399.251 377.367 399.84 376.62 399.84C375.407 399.84 375.267 399.704 375.267 398.299Z" fill="#392929"/>
<path d="M327.947 397.392C328.18 396.848 328.04 396.712 327.48 396.938C326.267 397.392 322.533 396.666 322.533 395.986C322.533 394.445 328.787 394.672 330.233 396.258C331.213 397.301 331.167 397.392 329.207 397.8C327.9 398.026 327.713 397.981 327.947 397.392Z" fill="#392929"/>
<path d="M316.467 395.533C316.467 394.173 316.607 393.946 317.54 393.992C318.1 393.992 318.287 394.128 318.007 394.264C316.653 394.762 317.54 395.306 319.733 395.306C321.74 395.306 322.067 395.442 322.067 396.213C322.067 397.029 321.74 397.12 319.267 397.12H316.467V395.533Z" fill="#392929"/>
<path d="M356.833 396.258C356.46 395.624 358.793 393.992 360.613 393.674C361.5 393.538 362.34 393.221 362.48 392.994C363.04 392.088 363.6 392.677 363.6 394.082C363.6 395.261 363.32 395.714 362.433 396.122C360.987 396.757 357.253 396.848 356.833 396.258Z" fill="#392929"/>
<path d="M292.527 394.037C291.033 392.451 291.827 391.272 294.16 391.635C294.347 391.635 294.393 391.363 294.253 391C294.067 390.637 294.207 390.32 294.487 390.32C294.767 390.32 295 390.048 295 389.731C295 389.413 295.42 388.915 295.98 388.597C296.54 388.235 296.82 387.736 296.68 387.328C296.493 386.875 296.82 386.693 297.8 386.693C299.107 386.693 299.2 386.784 299.2 388.507C299.2 389.821 299.387 390.32 299.9 390.32C300.367 390.32 300.6 390.819 300.6 391.907C300.6 393.403 300.507 393.493 299.06 393.493C298.22 393.493 297.1 393.811 296.587 394.173C295.373 395.08 293.413 395.035 292.527 394.037Z" fill="#392929"/>
<path d="M190.747 392.541C190.14 389.504 190.327 388.96 192.053 388.96C193.78 388.96 194.2 389.64 194.2 392.496C194.2 393.856 194.107 393.947 192.613 393.947C191.213 393.947 191.027 393.765 190.747 392.541Z" fill="#392929"/>
<path d="M247.073 393.629C247.493 393.538 248.24 393.538 248.707 393.629C249.127 393.765 248.753 393.856 247.867 393.856C246.98 393.856 246.607 393.765 247.073 393.629Z" fill="#392929"/>
<path d="M323.607 393.176L320.2 392.995V391.453C320.2 389.776 321.227 389.232 321.787 390.592C322.067 391.272 322.767 391.317 327.573 391.136C332.473 390.909 332.847 390.955 331.26 391.499C330.327 391.816 329.067 392.405 328.507 392.813C327.9 393.176 327.34 393.448 327.2 393.403C327.06 393.357 325.427 393.221 323.607 393.176Z" fill="#392929"/>
<path d="M253.467 391.635C252.813 391.363 251.833 391.272 251.227 391.363C250.573 391.499 249.127 391.045 247.727 390.275C246.373 389.549 244.693 388.96 243.993 388.96C243.293 388.96 241.94 388.643 241.007 388.28C240.12 387.917 238.86 387.6 238.207 387.6C237.18 387.6 237.087 387.419 237.227 385.923L237.367 384.2L240.727 384.155C242.593 384.155 244.273 383.973 244.46 383.837C244.6 383.656 244.507 383.52 244.227 383.52C243.9 383.52 243.667 382.795 243.667 381.707C243.667 379.757 244.74 379.123 245.3 380.8C245.44 381.299 245.86 381.707 246.187 381.707C246.98 381.707 247.96 380.573 247.54 380.211C247.4 380.029 248.007 379.893 248.987 379.893C252.207 379.893 251.32 382.205 247.54 383.611C244.32 384.744 245.627 385.016 254.54 385.016C256.78 385.016 258.6 385.107 258.6 385.197C258.6 385.605 255.753 386.648 255.193 386.421C254.493 386.195 253 387.328 253 388.099C253 388.552 253.653 388.688 257.06 388.688C259.953 388.733 260.42 389.413 258.133 390.184C257.107 390.501 256.547 390.955 256.547 391.408C256.64 392.224 255.287 392.315 253.467 391.635Z" fill="#392929"/>
<path d="M352.633 391.226C352.493 391 352.867 390.546 353.52 390.229C354.173 389.957 354.733 389.458 354.733 389.096C354.733 388.778 355.153 388.506 355.667 388.506C356.413 388.506 356.6 388.824 356.6 390.093C356.6 391.634 356.553 391.68 354.78 391.68C353.753 391.68 352.773 391.498 352.633 391.226Z" fill="#392929"/>
<path d="M381.707 390.864C379.84 390.728 379.467 390.592 379.467 389.821C379.467 389.323 379.607 389.005 379.84 389.096C380.027 389.187 381.427 389.141 382.967 388.96C385.72 388.643 388.8 389.187 388.007 389.867C387.307 390.456 383.947 391 381.707 390.864Z" fill="#392929"/>
<path d="M320.107 389.096C319.593 388.96 319.267 388.461 319.267 387.781C319.267 386.784 319.36 386.738 321.367 387.01C322.72 387.146 323.467 387.101 323.467 386.784C323.467 386.512 323.187 386.194 322.907 386.104C322.533 385.968 322.627 385.832 323.14 385.832C323.747 385.786 323.933 386.149 323.933 387.6C323.933 389.368 323.887 389.413 322.44 389.368C321.6 389.322 320.527 389.232 320.107 389.096Z" fill="#392929"/>
<path d="M382.453 384.2C381.987 383.837 381.007 383.52 380.307 383.52C379.327 383.52 379 383.293 379 382.613C379 381.933 379.327 381.707 380.12 381.707C381.66 381.707 383.667 380.936 383.667 380.347C383.667 379.667 381.707 379.803 380.68 380.573C379.607 381.344 379 381.435 379 380.8C379 380.573 379.327 380.347 379.7 380.347C380.12 380.347 380.4 379.939 380.4 379.259C380.4 378.216 380.213 378.171 376.667 377.853L372.933 377.536V376.04C372.933 375.088 373.213 374.453 373.68 374.272C374.333 374.045 374.38 374.091 373.867 374.68C373.353 375.269 373.493 375.36 374.94 375.36C378.067 375.36 379.187 374.317 376.667 373.773C375.407 373.501 375.267 373.32 375.267 371.688C375.267 370.373 375.453 369.92 376.013 369.92C376.387 369.92 376.62 370.101 376.48 370.328C376.013 371.008 380.307 371.915 381.94 371.461C382.78 371.189 384.087 371.144 384.833 371.28L386.233 371.552L384.74 372.051C383.573 372.459 383.34 372.776 383.527 373.547C383.667 374.091 383.433 374.816 382.967 375.36C382.127 376.267 382.127 376.312 383.013 376.947C383.48 377.264 384.693 377.944 385.673 378.352C386.607 378.76 387.4 379.259 387.4 379.395C387.353 379.531 386.7 380.075 385.907 380.573C383.993 381.752 383.76 382.523 385.207 383.021C386.887 383.656 387.4 384.653 385.86 384.245C385.207 384.109 384.507 384.155 384.367 384.427C383.993 385.061 383.527 385.016 382.453 384.2Z" fill="#392929"/>
<path d="M190.047 383.021C188.787 379.53 190 377.536 191.54 380.482L192.333 381.933L192.053 380.482C191.913 379.666 192.007 378.986 192.24 378.986C192.893 378.986 193.733 381.117 193.733 382.84C193.733 384.336 193.64 384.426 192.147 384.426C190.793 384.426 190.467 384.245 190.047 383.021Z" fill="#392929"/>
<path d="M206.567 381.661C205.82 380.437 205.12 379.621 205.027 379.893C204.933 380.12 204.327 380.347 203.673 380.347C202.647 380.347 202.553 380.211 202.833 379.123C203.16 377.853 204.793 375.813 205.447 375.813C205.68 375.813 206.613 376.901 207.547 378.216L209.227 380.573L208.993 378.896C208.807 377.853 208.947 377.037 209.32 376.765C209.647 376.493 210.02 376.357 210.113 376.448C210.207 376.539 210.347 376.04 210.347 375.269C210.393 373.728 211.14 373.093 213.007 373.093C213.707 373.093 214.267 372.912 214.267 372.64C214.267 372.413 214.967 372.187 215.853 372.187C217.253 372.187 217.44 372.368 217.72 373.592C218.233 376.221 218.093 376.72 216.46 377.4C215.573 377.763 214.64 378.352 214.267 378.715C213.94 379.123 213.007 379.44 212.167 379.44H210.673L210.907 381.707L211.14 383.973H209.553C208.153 383.973 207.827 383.701 206.567 381.661Z" fill="#392929"/>
<path d="M320.293 382.296C320.387 381.299 320.667 381.072 321.413 381.163C321.973 381.253 322.533 380.981 322.673 380.619C322.907 380.075 322.347 379.757 320.573 379.213C319.22 378.851 317.867 378.533 317.54 378.533C317.167 378.533 316.933 377.944 316.933 376.947C316.933 375.632 317.12 375.36 317.96 375.36C318.94 375.36 318.94 375.36 318.053 376.04C317.213 376.675 317.213 376.675 318.427 376.72C319.127 376.72 321.087 377.219 322.813 377.853C324.493 378.488 326.36 378.987 326.92 378.987C327.48 378.987 328.18 379.213 328.46 379.485C328.693 379.712 329.58 379.984 330.42 379.984C331.633 380.029 331.867 380.211 331.867 381.117C331.867 381.979 331.633 382.16 330.373 382.16C329.533 382.115 327.993 381.797 326.967 381.435C323.373 380.075 323.467 380.075 323.467 381.888C323.467 383.475 323.42 383.52 321.787 383.52C320.247 383.52 320.153 383.429 320.293 382.296Z" fill="#392929"/>
<path d="M291.78 381.979C290.66 381.389 290.66 381.344 291.64 380.845C292.153 380.573 293.46 380.347 294.533 380.347H296.4L295.7 379.259C294.86 378.035 295 377.899 297.333 377.4C298.22 377.219 299.48 376.856 300.133 376.584C301.253 376.131 301.253 376.085 299.433 375.813L297.567 375.496L299.573 375.405L301.533 375.36V377.083C301.533 378.488 301.3 378.896 300.087 379.576C299.293 379.984 298.267 380.347 297.753 380.347C297.1 380.347 296.867 380.664 296.867 381.48C296.867 382.523 296.68 382.613 294.907 382.613C293.787 382.568 292.387 382.296 291.78 381.979Z" fill="#392929"/>
<path d="M236.667 381.707C236.667 381.48 236.06 381.253 235.267 381.253C234.1 381.253 233.867 381.072 233.867 380.12C233.867 379.485 234.1 378.987 234.38 378.987C234.613 378.987 234.707 378.805 234.567 378.533C234.38 378.261 234.893 378.08 235.687 378.08C236.48 378.08 237.133 378.307 237.133 378.533C237.133 378.805 237.787 378.987 238.533 378.987C239.84 378.987 239.933 379.123 239.933 380.573C239.933 382.069 239.84 382.16 238.3 382.16C237.413 382.16 236.667 381.979 236.667 381.707Z" fill="#392929"/>
<path d="M198.727 378.941C198.587 378.442 198.867 377.173 199.38 376.13C199.847 375.088 200.267 373.954 200.267 373.637C200.267 373.32 200.733 372.368 201.34 371.506C202.04 370.418 202.693 369.965 203.44 370.056C204 370.101 204.513 370.328 204.513 370.6C204.793 372.232 204.607 372.957 203.767 373.773C201.993 375.45 200.733 377.536 200.733 378.714C200.733 380.165 199.1 380.392 198.727 378.941Z" fill="#392929"/>
<path d="M252.533 377.536C252.533 376.493 252.72 376.448 255.847 376.403C258.973 376.312 259.113 376.357 258.973 377.309C258.833 378.216 258.507 378.307 255.707 378.443C252.673 378.579 252.533 378.533 252.533 377.536Z" fill="#392929"/>
<path d="M2.2133 376.176C1.04663 374.408 0.48663 370.963 0.579963 365.251C0.62663 359.448 1.5133 353.555 2.67996 351.424C3.00663 350.744 3.33329 349.883 3.33329 349.475C3.33329 348.659 6.17996 341.405 7.25329 339.547C8.83996 336.736 12.4333 325.312 12.9466 321.504C13.1333 320.189 13.46 319.011 13.6466 318.875C13.88 318.739 14.0666 318.104 14.0666 317.424C14.0666 316.381 14.7666 313.027 15.7 309.4C16.4 306.725 19.5266 297.024 20.1333 295.8C20.3666 295.301 21.02 293.579 21.58 291.947C23.4 286.643 23.7733 286.053 25.5466 286.053C26.6666 286.053 27.1333 286.28 27.1333 286.733C27.1333 287.141 27.5533 287.413 28.3 287.413C29.3266 287.413 29.4666 287.595 29.4666 289.181C29.4666 291.403 28.1133 294.531 26.2466 296.571C25.4533 297.477 24.4733 299.064 24.1 300.107L23.4 302.011L26.4333 301.693L29.4666 301.376V303.008C29.4666 303.915 29.28 304.64 29.0466 304.64C28.8133 304.64 28.5333 305.048 28.3933 305.501C28.2533 306.091 27.6 306.453 26.2933 306.68C24.7533 306.907 24.38 307.179 24.1933 308.176C24.0533 308.856 23.7733 309.944 23.5866 310.669C23.3533 311.712 23.4466 311.893 24.2866 311.893C25.1266 311.893 25.2666 312.165 25.2666 313.933C25.2666 315.475 25.08 316.064 24.4733 316.291C24.0066 316.472 22.7933 317.379 21.7666 318.376L19.9 320.144L21.6266 319.917C22.6066 319.781 23.4933 319.872 23.68 320.099C23.82 320.325 24.3333 320.416 24.8 320.28C25.5466 320.053 25.5933 320.235 25.22 322.093C24.7533 324.587 24.8 324.496 21.8133 328.123C20.5066 329.709 19.1533 330.933 18.64 330.933C18.1733 330.933 17.8 331.205 17.8 331.568C17.8 332.339 17.2866 333.427 15.56 336.6C14.7666 338.051 13.9266 338.912 13.32 339.003C11.8733 339.184 10.6133 342.085 11.0333 344.216C11.22 345.123 11.5 345.893 11.6866 345.893C12.5733 345.893 11.78 352.013 10.7066 353.419C10.1 354.235 9.67996 358.36 10.1 359.811C10.4266 360.989 10.4733 360.989 10.8 360.173C11.1733 359.312 11.22 359.312 11.22 360.264C11.2666 360.808 11.08 361.307 10.8 361.397C10.2866 361.579 11.2666 367.2 11.8266 367.2C12.06 367.2 12.2 367.381 12.2 367.608C12.2 367.835 11.5 367.971 10.7066 367.925C9.44662 367.88 9.11997 368.061 9.02663 368.877C8.9333 369.421 9.21329 370.464 9.58662 371.189C9.95996 371.915 10.1933 372.64 10.0533 372.776C9.63329 373.139 7.95329 371.28 8.23329 370.827C8.41996 370.555 8.27996 370.373 7.95329 370.373C7.53329 370.373 7.48662 369.331 7.67329 366.339C7.99995 361.896 7.62662 354.96 7.01996 354.96C6.27329 354.96 5.7133 356.637 5.7133 358.859C5.66663 362.44 6.45996 370.011 7.06663 371.869C7.57996 373.592 7.43997 374.907 6.6933 374.907C5.9933 374.907 4.7333 370.147 4.5933 366.973L4.49996 363.8L4.07996 366.656C3.84663 368.197 3.47329 369.467 3.23995 369.467C2.58662 369.467 2.95997 375.768 3.65997 376.357C4.07997 376.675 4.3133 376.629 4.54663 376.04C4.77996 375.451 4.96663 375.405 5.24663 375.859C5.47996 376.221 5.38663 376.629 5.05997 376.811C4.0333 377.445 2.9133 377.173 2.2133 376.176ZM21.5333 325.72C22.42 324.723 21.86 323.861 20.9266 324.768C20.0866 325.629 19.9 326.4 20.5533 326.4C20.7866 326.4 21.2066 326.083 21.5333 325.72ZM22.56 304.595C22.7466 303.597 22.6066 303.28 21.9533 303.28C21.2533 303.28 20.6 304.459 20.6 305.864C20.6 306.997 22.3733 305.864 22.56 304.595Z" fill="#392929"/>
<path d="M190 375.451C190 374.997 189.44 374.453 188.6 374.136C187.34 373.683 187.2 373.411 187.2 371.779C187.2 370.011 187.293 369.92 188.6 369.92C190.093 369.92 191.867 371.28 191.867 372.413C191.867 372.776 192.193 373.093 192.567 373.093C193.033 373.093 193.267 373.592 193.267 374.68C193.267 376.176 193.173 376.267 191.633 376.267C190.373 376.267 190 376.085 190 375.451ZM190 371.053C190 370.691 189.813 370.373 189.533 370.373C189.3 370.373 189.067 370.691 189.067 371.053C189.067 371.416 189.3 371.733 189.533 371.733C189.813 371.733 190 371.416 190 371.053Z" fill="#392929"/>
<path d="M249.733 374.725C249.733 372.912 250.48 372.232 251.273 373.229C251.6 373.637 252.767 374.045 253.84 374.181C257.293 374.544 257.2 375.269 253.747 375.541C252.533 375.632 251.413 375.859 251.273 375.995C250.48 376.765 249.733 376.176 249.733 374.725Z" fill="#392929"/>
<path d="M289.867 375.179C289.867 374.136 291.967 372.187 293.04 372.187C293.553 372.187 294.72 371.688 295.653 371.053C296.867 370.283 297.987 369.92 299.433 369.92C301.533 369.92 301.533 369.92 301.533 371.507C301.533 372.867 301.347 373.093 300.273 373.32C299.527 373.456 297.707 374 296.167 374.499C292.107 375.859 289.867 376.131 289.867 375.179Z" fill="#392929"/>
<path d="M198.167 374.453C198.353 374.181 197.84 374 197.047 374C195.693 374 195.6 373.909 195.6 372.186C195.6 371.189 195.74 370.373 195.973 370.373C196.487 370.418 198.867 373.592 198.867 374.317C198.867 374.634 198.633 374.906 198.353 374.906C198.12 374.906 198.027 374.725 198.167 374.453Z" fill="#392929"/>
<path d="M180.667 371.733C180.667 369.965 180.713 369.92 182.3 369.92C183.887 369.92 183.933 369.965 183.933 371.733C183.933 373.501 183.887 373.547 182.3 373.547C180.713 373.547 180.667 373.501 180.667 371.733Z" fill="#392929"/>
<path d="M319.267 371.28C319.267 370.464 319.593 370.373 322.533 370.373C325.473 370.373 325.8 370.464 325.8 371.28C325.8 372.096 325.473 372.186 322.533 372.186C319.593 372.186 319.267 372.096 319.267 371.28Z" fill="#392929"/>
<path d="M259.58 371.325C258.553 371.053 258.6 371.008 260.187 370.464C262.147 369.784 264.667 370.146 264.667 371.098C264.667 371.778 261.727 371.914 259.58 371.325Z" fill="#392929"/>
<path d="M310.867 368.787C310.867 367.245 311.427 366.701 312.033 367.653C312.5 368.379 315.067 368.197 315.347 367.427C315.533 367.064 315.953 366.747 316.327 366.747C316.793 366.747 316.933 367.2 316.84 368.469L316.7 370.147L313.807 370.283L310.867 370.419V368.787Z" fill="#392929"/>
<path d="M252.067 367.88C252.067 366.338 252.113 366.293 253.933 366.293C255.753 366.293 255.8 366.338 255.8 367.88C255.8 369.421 255.753 369.466 253.933 369.466C252.113 369.466 252.067 369.421 252.067 367.88Z" fill="#392929"/>
<path d="M378.44 367.925C376.573 366.746 376.2 366.293 376.2 365.069C376.2 363.709 377.087 362.848 377.133 364.162C377.18 364.434 378.207 365.205 379.513 365.794C382.593 367.29 383.2 368.016 382.033 368.832C380.96 369.602 381.053 369.648 378.44 367.925Z" fill="#392929"/>
<path d="M209.133 366.792C209.133 366.339 208.807 365.84 208.433 365.659C206.567 364.979 208.433 361.216 211 360.445C213.893 359.629 213.94 359.675 213.66 362.531C213.52 363.981 213.147 365.205 212.867 365.296C212.633 365.387 212.4 365.976 212.4 366.565C212.4 367.517 212.167 367.653 210.767 367.653C209.46 367.653 209.133 367.472 209.133 366.792Z" fill="#392929"/>
<path d="M257.527 367.336C257.34 367.2 257.2 366.701 257.2 366.293C257.2 365.659 256.313 365.477 251.927 365.069C249.033 364.797 246.187 364.299 245.627 363.981C244.74 363.437 244.413 363.483 243.013 364.208C241.753 364.843 240.913 364.979 239.047 364.707C236.713 364.389 236.667 364.344 236.667 362.848C236.667 361.533 236.807 361.307 237.787 361.307C239.373 361.307 241.94 360.173 242.733 359.085C243.107 358.541 243.9 358.133 244.6 358.133C245.533 358.133 245.627 358.224 245.067 358.587C244.553 358.904 244.973 358.995 246.467 358.995C247.633 358.949 249.687 359.085 251.04 359.267C253 359.539 253.467 359.765 253.467 360.445C253.467 361.125 253.14 361.307 251.88 361.307C251.04 361.307 250.06 361.624 249.733 361.987C249.22 362.576 249.5 362.667 251.787 362.667C253.7 362.667 254.493 362.485 254.68 361.987C255.193 360.763 256.733 361.171 257.06 362.667C257.2 363.437 257.62 364.027 257.947 364.027C258.32 364.027 258.46 364.299 258.273 364.752C257.993 365.432 258.413 365.477 262.287 365.296C265.787 365.069 266.487 365.16 265.973 365.613C264.527 366.928 258.367 368.197 257.527 367.336Z" fill="#392929"/>
<path d="M347.873 367.064C345.96 366.701 345.4 366.429 345.4 365.795C345.4 365.069 345.773 364.933 347.64 364.979C350.393 365.024 353.053 365.931 353.24 366.883C353.427 367.789 351.887 367.835 347.873 367.064Z" fill="#392929"/>
<path d="M318.333 366.384C318.333 365.84 319.313 365.114 321.507 364.117C323.233 363.301 324.773 362.667 325.007 362.667C325.66 362.667 325.333 364.616 324.54 365.205C324.027 365.568 323.933 365.795 324.307 365.84C324.587 365.84 324.867 366.157 324.867 366.52C324.867 367.064 324.213 367.2 321.6 367.2C318.753 367.2 318.333 367.109 318.333 366.384Z" fill="#392929"/>
<path d="M351.42 364.434C350.813 363.936 350.627 363.618 351 363.754C351.373 363.89 352.073 364.162 352.54 364.298C352.96 364.48 353.333 364.752 353.333 364.978C353.333 365.658 352.587 365.432 351.42 364.434Z" fill="#392929"/>
<path d="M285.527 364.253C285.667 363.845 285.433 363.256 284.92 362.893C284.08 362.304 284.08 362.259 285.2 361.851C285.853 361.624 287.953 361.307 289.867 361.171C291.78 360.989 293.413 360.853 293.507 360.853C293.973 360.808 293.413 359.992 292.807 359.811C292.34 359.675 292.667 359.584 293.507 359.539C294.907 359.493 295 359.584 295 361.035C295 362.485 294.907 362.576 292.947 362.757C291.78 362.893 290.287 363.437 289.587 363.981C288.093 365.115 285.06 365.341 285.527 364.253Z" fill="#392929"/>
<path d="M259.533 361.442C259.533 360.944 258.787 360.264 257.62 359.72C256.547 359.266 255.567 358.586 255.473 358.269C255.333 357.952 254.54 357.68 253.653 357.68C252.16 357.68 252.067 357.589 252.067 356.093C252.067 354.597 252.16 354.506 253.7 354.506C254.587 354.506 255.333 354.733 255.333 354.96C255.333 355.232 256.033 355.413 256.873 355.413C257.667 355.413 258.787 355.73 259.253 356.093C260.047 356.682 260.093 356.773 259.393 356.773C258.973 356.773 258.6 356.954 258.6 357.136C258.6 357.634 262.147 359.538 262.473 359.221C262.847 358.858 264.667 359.493 264.667 359.946C264.667 360.49 261.26 362.213 260.233 362.213C259.86 362.213 259.533 361.85 259.533 361.442Z" fill="#392929"/>
<path d="M318.8 361.352C318.8 360.672 319.5 360.264 321.973 359.448C323.7 358.904 325.38 358.36 325.707 358.224C326.173 358.088 326.313 358.314 326.173 359.085C326.08 359.81 325.567 360.309 324.633 360.626C323.887 360.853 322.953 361.352 322.627 361.624C322.3 361.941 321.273 362.213 320.387 362.213C319.127 362.213 318.8 362.032 318.8 361.352Z" fill="#392929"/>
<path d="M382.127 361.307C381.987 360.763 381.473 360.4 380.913 360.4C380.353 360.4 379.933 360.219 379.933 359.947C379.933 359.72 379.56 359.493 379.047 359.493C378.58 359.493 377.927 359.176 377.6 358.813C377.273 358.451 376.713 358.133 376.387 358.133C375.967 358.133 375.733 357.589 375.733 356.547C375.733 355.323 375.92 354.96 376.573 354.96C377.18 354.96 377.227 355.051 376.76 355.368C376.247 355.685 376.293 355.821 376.9 356.048C377.32 356.184 378.16 356.32 378.72 356.32C379.28 356.32 380.167 356.637 380.727 357C381.38 357.453 381.847 357.544 382.033 357.227C382.173 357 381.753 356.547 381.1 356.32C380.447 356.093 380.027 355.64 380.167 355.413C380.307 355.141 380.12 354.824 379.747 354.688C379.327 354.552 379 353.917 379 353.328C379 352.376 379.187 352.24 380.307 352.331C381.287 352.421 381.567 352.285 381.52 351.651C381.427 351.016 381.707 350.88 382.687 350.971C383.76 351.107 383.9 351.333 384.04 353.237C384.18 355.323 384.18 355.368 382.64 355.504L381.1 355.685L383.107 356.275C384.18 356.637 385.067 357.181 385.067 357.544C385.067 357.907 385.627 358.133 386.7 358.133C388.24 358.133 388.333 358.224 388.333 359.72C388.333 361.579 387.26 362.213 384.18 362.213C382.78 362.213 382.313 362.032 382.127 361.307Z" fill="#392929"/>
<path d="M190.933 358.36C190.933 356.864 191.027 356.773 192.567 356.773C194.107 356.773 194.2 356.864 194.2 358.36C194.2 359.856 194.107 359.946 192.567 359.946C191.027 359.946 190.933 359.856 190.933 358.36Z" fill="#392929"/>
<path d="M337 358.632C337 357.907 337.513 357.635 339.567 357.227C341.387 356.864 342.18 356.456 342.367 355.821C342.553 355.277 343.067 354.96 343.813 354.96C344.887 354.96 344.98 355.096 344.84 356.637C344.653 358.768 343.393 359.493 339.707 359.493C337.327 359.493 337 359.403 337 358.632Z" fill="#392929"/>
<path d="M260.933 356.093C260.933 355.322 263.687 354.733 265.413 355.141C267.047 355.549 266.58 355.866 264.107 356.138C263.033 356.274 261.82 356.456 261.54 356.546C261.213 356.637 260.933 356.456 260.933 356.093Z" fill="#392929"/>
<path d="M324.867 355.731C324.867 355.187 325.427 354.779 327.807 353.691C327.993 353.6 328.133 354.144 328.133 354.915C328.133 356.229 327.993 356.32 326.5 356.32C325.427 356.32 324.867 356.093 324.867 355.731Z" fill="#392929"/>
<path d="M175.067 354.552C174.833 354.053 174.6 353.056 174.6 352.285C174.6 350.971 174.693 350.88 176.42 350.88C178.38 350.88 178.8 351.469 178.8 354.189C178.8 355.277 178.66 355.413 177.167 355.413C176.047 355.413 175.44 355.141 175.067 354.552Z" fill="#392929"/>
<path d="M256.873 353.736C256.08 353.6 255.8 353.237 255.8 352.376C255.8 351.288 255.893 351.243 257.9 351.515C259.113 351.696 260.373 351.651 260.933 351.333C261.727 350.925 261.867 350.971 261.867 351.741C261.867 352.331 261.307 352.965 260.467 353.373C259.113 354.053 258.787 354.099 256.873 353.736Z" fill="#392929"/>
<path d="M314.227 352.467C314.227 351.333 314.413 350.88 314.927 350.88C315.533 350.88 315.533 350.971 315.02 351.651C314.413 352.331 314.6 352.376 317.027 352.104C320.433 351.696 321.413 351.333 320.573 350.835C320.107 350.517 320.153 350.427 320.807 350.427C321.413 350.427 321.6 350.789 321.6 351.968C321.6 353.736 320.947 354.053 316.887 354.053H314.227V352.467Z" fill="#392929"/>
<path d="M321.6 348.386C321.6 347.026 321.787 346.8 323.14 346.437C325.38 345.848 329.067 347.072 329.067 348.432C329.067 349.248 328.74 349.429 326.64 349.701C321.88 350.245 321.6 350.154 321.6 348.386Z" fill="#392929"/>
<path d="M332.8 347.525C332.8 346.664 332.987 345.803 333.267 345.667C334.013 345.213 337.187 344.941 338.54 345.259C339.707 345.485 339.847 345.667 339.707 347.163L339.567 348.84L336.207 348.976L332.8 349.112V347.525Z" fill="#392929"/>
<path d="M246.933 346.619C246.933 345.667 247.167 345.531 248.52 345.531C249.407 345.531 250.34 345.395 250.62 345.213C250.947 345.032 251.133 345.395 251.133 346.029C251.133 347.253 250.387 347.707 248.287 347.707C247.167 347.707 246.933 347.525 246.933 346.619Z" fill="#392929"/>
<path d="M327.2 344.306C327.2 343.309 327.387 343.173 328.88 343.173C329.767 343.173 330.933 342.946 331.447 342.72C332.24 342.266 332.333 342.402 332.333 343.853V345.44H329.767C327.34 345.44 327.2 345.394 327.2 344.306Z" fill="#392929"/>
<path d="M315.533 342.312C315.533 341.677 316 341.405 317.493 341.179C318.987 340.952 319.313 340.771 318.8 340.453C318.24 340.091 318.333 340 319.173 340C320.06 340 320.2 340.227 320.2 341.587V343.173H317.867C315.907 343.173 315.533 343.037 315.533 342.312Z" fill="#392929"/>
<path d="M206.333 341.178C206.333 339.048 208.107 337.28 210.3 337.28C211.793 337.28 211.933 337.37 211.933 338.594C211.933 339.32 211.793 340.544 211.653 341.314C211.373 342.674 211.28 342.72 208.853 342.72H206.333V341.178Z" fill="#392929"/>
<path d="M20.1333 341.994C20.1333 341.722 24.7533 337.28 25.08 337.28C25.1733 337.28 25.2666 337.96 25.2666 338.821C25.2666 340.045 24.94 340.589 23.9133 341.314C22.6533 342.176 20.1333 342.629 20.1333 341.994Z" fill="#392929"/>
<path d="M193.873 338.187C193.733 337.688 193.453 337.28 193.22 337.28C192.987 337.28 192.8 336.555 192.8 335.693C192.8 333.835 193.78 333.563 194.573 335.149C194.853 335.693 195.553 336.827 196.067 337.643L197.093 339.093H195.6C194.527 339.093 194.06 338.867 193.873 338.187Z" fill="#392929"/>
<path d="M309.467 335.013C309.467 334.333 309.793 334.107 310.68 334.107C312.08 334.107 315.067 332.837 315.067 332.248C315.067 332.021 315.58 331.84 316.233 331.84C317.26 331.84 317.4 332.021 317.4 333.608C317.4 335.195 317.26 335.376 315.953 335.648C315.16 335.784 313.34 335.92 311.987 335.92C309.793 335.92 309.467 335.829 309.467 335.013Z" fill="#392929"/>
<path d="M188.927 328.712C188.507 327.986 188.133 326.762 188.133 325.992C188.133 324.677 188.273 324.586 189.72 324.586C191.68 324.586 192.38 325.402 192.707 327.986L192.94 330.026H191.307C190.047 330.026 189.58 329.754 188.927 328.712Z" fill="#392929"/>
<path d="M164.52 312.392C164.333 311.667 163.727 310.579 163.12 310.035C161.953 308.992 161.767 308.04 162.28 305.592C162.56 304.368 162.747 304.187 164.147 304.187C165.407 304.187 165.733 304.368 165.733 305.093C165.733 305.592 165.92 306 166.107 306C166.293 306 166.527 306.544 166.573 307.224C166.62 307.904 166.993 308.765 167.413 309.173C168.067 309.763 168.067 309.717 167.6 308.539C167.04 307.133 167.32 306.453 168.113 307.224C168.44 307.541 168.487 308.765 168.3 310.715L167.973 313.707H166.387C164.987 313.707 164.753 313.525 164.52 312.392Z" fill="#392929"/>
<path d="M29 307.269C29.0467 305.229 29.98 304.187 31.7533 304.187C33.06 304.187 33.2 304.323 33.2 305.592C33.2 307.813 32.4533 308.72 30.6333 308.72C29.0933 308.72 29 308.629 29 307.269Z" fill="#392929"/>
<path d="M167.88 305.909C167.133 304.912 166.853 301.92 167.46 301.92C167.6 301.92 168.347 302.6 169.047 303.416C170.54 305.138 171.333 304.866 169.887 303.144C169.373 302.464 169.14 301.92 169.42 301.92C169.7 301.92 169.933 301.24 169.933 300.424C169.933 298.973 169.887 298.973 168.067 299.109C166.34 299.29 166.2 299.2 166.2 298.112C166.2 297.477 166.013 296.933 165.733 296.933C165.5 296.933 165.267 296.208 165.267 295.346C165.267 294.077 165.453 293.76 166.2 293.76C166.713 293.76 167.133 293.488 167.133 293.125C167.133 292.082 165.547 289.68 164.707 289.408C164.24 289.272 163.867 289 163.867 288.818C163.867 288.32 160.787 284.557 158.36 282.018C157.24 280.885 155.887 279.026 155.327 277.893L154.347 275.853L154.16 277.802C154.02 279.616 153.973 279.706 152.433 279.706C151.593 279.706 150.753 279.434 150.66 279.162C150.52 278.845 150.38 279.434 150.38 280.522L150.333 282.472L148.607 282.336C146.88 282.2 146.833 282.154 146.693 280.296L146.553 278.346H148.28H150.053L149.027 277.44C148.187 276.669 148 275.989 148 273.813C148 271.501 148.14 271.093 148.84 271.093C149.353 271.093 149.867 271.637 150.24 272.544C150.52 273.314 150.893 273.858 151.08 273.722C151.22 273.541 151.08 272.997 150.8 272.453C150.193 271.32 150.613 270.549 151.267 271.546C151.593 272.045 151.733 271.682 151.733 270.322C151.733 268.736 151.873 268.373 152.62 268.373C153.087 268.373 153.88 268.917 154.3 269.597C154.767 270.232 155.887 271.546 156.82 272.498C157.753 273.45 158.967 274.72 159.573 275.354C160.18 276.034 160.88 276.397 161.3 276.216C161.953 275.989 161.953 275.853 161.207 274.992C160.6 274.312 160.74 274.357 161.673 275.173C162.747 276.08 162.98 276.624 162.84 277.984C162.793 278.936 162.98 279.933 163.307 280.25C163.727 280.658 163.867 280.432 163.867 279.162C163.867 277.394 164.38 276.986 166.713 276.986C167.6 276.986 168.067 277.213 168.067 277.666C168.067 278.12 168.58 278.346 169.607 278.392C170.4 278.437 170.727 278.528 170.307 278.664C169.187 278.936 169.28 279.706 170.633 281.52C171.94 283.242 172.22 285.282 171.1 284.874C169.42 284.24 169.513 285.328 171.427 287.322L173.387 289.408L172.033 289.77C171.193 289.997 170.447 289.906 170.027 289.544C169.42 289.09 169.373 289.181 169.653 290.133C169.887 290.768 170.353 291.493 170.773 291.72C171.193 291.992 172.127 292.762 172.827 293.488C173.9 294.53 174.04 294.893 173.62 295.437C173.153 295.936 173.247 296.434 174.04 297.794C175.16 299.744 175.393 301.738 174.507 302.056C174.133 302.146 173.667 301.602 173.387 300.832C172.92 299.653 172.78 299.562 172.5 300.242C172.267 300.786 172.453 301.512 173.06 302.328C173.573 303.008 174.18 304.186 174.32 304.912C174.647 306.317 174.6 306.317 172.453 306.634C169.093 307.042 168.627 306.997 167.88 305.909ZM171.053 295.936C170.587 295.12 170.167 294.712 170.027 295.029C169.84 295.664 171.24 298.066 171.66 297.704C171.753 297.568 171.52 296.797 171.053 295.936ZM165.733 283.968C165.173 282.744 164.987 282.018 165.313 282.336C165.64 282.608 166.247 282.88 166.667 282.88C167.087 282.834 166.947 282.608 166.247 282.245C165.593 281.882 164.753 281.656 164.38 281.746C163.96 281.792 162.887 281.112 162 280.16C160.18 278.256 157.8 276.669 157.8 277.304C157.8 277.53 159.34 279.208 161.253 280.976C163.12 282.744 165.033 284.738 165.5 285.418C166.667 287.186 166.807 286.461 165.733 283.968Z" fill="#392929"/>
<path d="M147.067 301.92C147.067 300.152 147.113 300.106 148.7 300.106C150.287 300.106 150.333 300.152 150.333 301.92C150.333 303.688 150.287 303.733 148.7 303.733C147.113 303.733 147.067 303.688 147.067 301.92Z" fill="#392929"/>
<path d="M151.453 296.298C151.313 295.936 151.267 295.074 151.36 294.349C151.5 293.261 151.733 293.08 153.273 292.944L155 292.808V294.848C155 296.933 155 296.933 153.367 296.933C152.34 296.933 151.593 296.661 151.453 296.298Z" fill="#392929"/>
<path d="M30.3999 289.453C30.3999 287.957 30.4932 287.867 32.0332 287.867C33.5732 287.867 33.6666 287.957 33.6666 289.453C33.6666 290.949 33.5732 291.04 32.0332 291.04C30.4932 291.04 30.3999 290.949 30.3999 289.453Z" fill="#392929"/>
<path d="M154.533 284.92C154.533 283.424 154.627 283.333 156.167 283.333C157.707 283.333 157.8 283.424 157.8 284.92C157.8 286.416 157.707 286.506 156.167 286.506C154.627 286.506 154.533 286.416 154.533 284.92Z" fill="#392929"/>
<path d="M141.933 275.853C141.933 274.357 142.027 274.267 143.567 274.267C145.107 274.267 145.2 274.357 145.2 275.853C145.2 277.349 145.107 277.44 143.567 277.44C142.027 277.44 141.933 277.349 141.933 275.853Z" fill="#392929"/>
<path d="M168.533 276.533C168.533 275.808 168.207 275.626 166.993 275.626C165.453 275.626 163.867 274.538 163.867 273.45C163.867 273.178 162.7 271.773 161.3 270.368C159.9 268.917 158.733 267.376 158.733 266.922C158.733 266.333 158.36 266.106 157.38 266.106C156.587 266.106 155.887 265.925 155.747 265.744C155.607 265.517 154.86 265.426 154.067 265.562C153.227 265.653 152.06 265.517 151.453 265.2C150.567 264.701 150.333 264.248 150.333 262.752C150.333 259.533 153.367 257.992 154.393 260.666C154.673 261.437 155.233 262.026 155.653 262.026C156.68 262.026 156.587 261.437 155.467 260.44C153.927 259.08 154.813 259.125 156.587 260.44C158.22 261.618 158.267 261.664 158.267 260.712C158.267 259.941 158.547 259.76 159.9 259.76C161.44 259.76 161.533 259.85 161.533 261.346C161.533 262.752 161.393 262.933 160.367 262.933C159.527 262.933 159.2 263.16 159.2 263.794C159.2 264.52 159.573 264.701 161.207 264.837C163.027 264.973 163.167 265.064 163.073 266.242C162.98 267.557 164.987 269.688 169 272.544C169.98 273.269 170.913 274.312 171.053 274.901C171.193 275.49 171.473 276.306 171.613 276.714C171.847 277.304 171.567 277.44 170.213 277.44C168.86 277.44 168.533 277.258 168.533 276.533Z" fill="#392929"/>
<path d="M170.773 266.922C168.72 266.514 168.533 266.333 168.533 265.154C168.533 263.885 167.693 262.752 166.013 261.8C165.5 261.528 165.127 260.485 164.94 258.989C164.66 256.632 164.707 256.586 165.827 256.586C166.48 256.586 167.32 256.949 167.647 257.402C168.253 258.082 168.207 258.128 167.507 257.538C166.807 257.04 166.667 257.04 166.667 257.584C166.667 258.49 168.02 259.624 169.887 260.258C171.8 260.938 172.22 260.485 170.82 259.261L169.7 258.309L170.867 258.989C171.52 259.352 172.08 259.941 172.08 260.258C172.127 260.621 172.173 261.165 172.22 261.437C172.22 261.754 173.107 262.57 174.133 263.205C175.72 264.202 176 264.656 176 265.925C176 267.376 175.907 267.466 174.507 267.421C173.667 267.376 171.987 267.149 170.773 266.922ZM173.2 263.568C173.2 263.024 171.8 262.026 171.007 262.026C170.26 262.072 170.307 262.162 171.287 262.933C172.36 263.84 173.2 264.112 173.2 263.568Z" fill="#392929"/>
<path d="M118.087 256.269C117.76 255.544 116.967 254.411 116.407 253.731C114.913 251.963 114.867 247.973 116.267 247.973C116.78 247.973 117.2 248.245 117.2 248.608C117.2 248.971 117.433 249.424 117.76 249.605C118.133 249.832 118.18 249.605 118.04 248.971C117.853 248.427 117.947 247.973 118.18 247.973C118.413 247.973 118.6 248.155 118.6 248.336C118.6 248.563 118.927 249.107 119.347 249.605C120.047 250.421 120.047 250.421 119.58 249.469C119.3 248.925 119.067 247.883 119.067 247.112C119.067 245.843 119.207 245.707 120.513 245.707C122.38 245.707 123.22 246.749 123.267 249.016C123.267 250.648 123.22 250.693 121.633 250.693H120L120.933 252.189C121.493 253.005 121.867 254.456 121.867 255.589C121.867 257.448 121.82 257.493 120.327 257.493C119.067 257.493 118.6 257.221 118.087 256.269Z" fill="#392929"/>
<path d="M159.573 255.408C158.547 254.864 158.267 254.411 158.267 253.187C158.267 251.419 159.107 251.101 160.04 252.507C160.367 253.005 161.02 253.413 161.533 253.413C162.887 253.413 162.653 252.643 161.207 252.28C160.46 252.099 160.18 251.827 160.507 251.736C160.833 251.6 161.72 251.736 162.513 252.053C163.68 252.552 163.867 252.869 163.867 254.365C163.867 256.043 163.82 256.133 162.373 256.133C161.533 256.088 160.273 255.771 159.573 255.408Z" fill="#392929"/>
<path d="M104.133 253.413C104.133 251.645 104.18 251.6 105.767 251.6C107.353 251.6 107.4 251.645 107.4 253.413C107.4 255.181 107.353 255.226 105.767 255.226C104.18 255.226 104.133 255.181 104.133 253.413Z" fill="#392929"/>
<path d="M130.267 246.613C130.267 245.616 130.08 244.8 129.8 244.8C129.567 244.8 129.333 245.117 129.333 245.48C129.333 245.843 129.007 246.16 128.633 246.16C128.26 246.16 127.933 246.387 127.933 246.613C127.933 246.885 127.093 247.067 126.067 247.067C124.293 247.067 124.2 247.021 124.153 245.616C124.153 244.8 124.013 244.392 123.873 244.709C123.547 245.525 120.187 245.389 119.3 244.483C118.273 243.531 117.667 241.899 117.667 240.221C117.667 239.133 117.853 238.907 118.833 238.907C119.627 238.907 120 239.179 120 239.723C120.047 240.131 120.56 241.128 121.167 241.853C122.287 243.168 122.333 243.213 122.333 242.125C122.333 241.219 122.427 241.173 123.033 241.627C123.5 242.035 123.733 242.035 123.733 241.672C123.733 240.675 125.553 241.128 125.693 242.216C125.973 244.165 126.767 243.077 128.68 238.227L129.007 237.32L129.24 238.227C129.52 239.405 130.267 240.312 130.78 240.04C130.967 239.904 130.967 239.315 130.78 238.771C130.313 237.547 130.267 237.411 130.267 235.915C130.267 235.053 129.94 234.645 128.867 234.328C127.233 233.739 127.233 233.829 128.26 231.563C129.147 229.659 130.593 229.16 130.547 230.883C130.5 231.608 130.78 231.925 131.62 232.016C132.227 232.107 132.88 231.925 133.067 231.653C133.347 231.245 133.767 231.291 134.84 231.835C136.613 232.696 137.033 233.331 136.38 234.056C136.1 234.419 136.1 234.872 136.38 235.28C136.707 235.824 136.893 235.824 137.173 235.371C137.64 234.691 139.133 235.144 139.133 235.96C139.133 236.368 139.787 236.64 140.907 236.731C142.307 236.821 142.68 237.048 142.773 237.955C142.867 238.499 142.82 239.496 142.633 240.131C142.4 241.083 142.12 241.219 140.627 241.083C139.133 240.947 138.9 240.765 138.76 239.723C138.62 238.589 138.387 238.453 136.94 238.453C135.727 238.453 135.26 238.227 135.073 237.547C134.933 237.048 134.607 236.64 134.373 236.64C134.047 236.64 134 237.909 134.187 240.267C134.513 243.848 134.513 243.893 133.44 243.939C132.833 243.939 132.647 244.075 132.973 244.211C133.3 244.347 133.533 245.253 133.533 246.432C133.533 248.427 133.533 248.427 131.9 248.427C130.313 248.427 130.267 248.381 130.267 246.613Z" fill="#392929"/>
<path d="M122.52 238.68C122.38 238.317 122.333 236.821 122.427 235.325C122.473 233.874 122.427 232.741 122.24 232.877C122.007 232.968 121.867 232.65 121.867 232.152C121.867 231.381 122.147 231.2 123.5 231.2C125.32 231.2 125.553 231.88 124.667 234.192C124.153 235.506 124.48 236.322 125.087 235.325C126.067 233.829 127.047 236.64 126.253 238.634C125.88 239.586 122.893 239.632 122.52 238.68Z" fill="#392929"/>
<path d="M160.133 235.053C158.733 234.192 157.333 233.467 157.007 233.467C156.073 233.467 154.067 230.021 154.067 228.435C154.067 227.12 154.16 227.075 155.84 227.211C157.007 227.301 157.707 227.619 158.033 228.253C158.313 228.752 159.48 229.659 160.647 230.293C164.8 232.56 165.733 233.376 165.733 235.099C165.733 236.549 165.64 236.64 164.193 236.64C163.26 236.64 161.72 236.051 160.133 235.053Z" fill="#392929"/>
<path d="M143.473 231.2C143.333 230.611 142.82 230.293 142.167 230.293C141.28 230.293 141.093 229.976 140.813 227.936C140.393 224.899 140.347 224.944 141.093 222.949C141.933 220.547 142.773 220.773 142.96 223.403C143.1 225.397 143.147 225.533 144.36 225.397C145.293 225.307 145.9 225.624 146.647 226.667C147.253 227.392 148.093 228.027 148.56 228.027C149.587 228.027 149.633 227.437 148.7 226.667C148.14 226.213 148 225.397 148.093 223.765C148.233 221.771 148.373 221.453 149.307 221.317C150.007 221.227 150.333 220.864 150.333 220.229C150.333 219.051 151.593 218.099 153.227 218.053C155.047 218.053 157.333 220.093 157.333 221.725C157.333 222.904 157.147 223.04 155.933 223.04C154.627 223.04 154.533 223.131 154.533 224.853C154.533 226.531 154.44 226.667 153.18 226.667C151.78 226.667 151.267 227.301 151.267 229.205C151.267 230.067 151.033 230.293 150.1 230.293C149.447 230.293 148.933 230.52 148.933 230.747C148.933 231.019 148.513 231.2 148 231.2C147.487 231.2 147.067 231.427 147.067 231.653C147.067 231.925 146.32 232.107 145.387 232.107C144.127 232.107 143.66 231.88 143.473 231.2ZM152.9 223.493C152.76 223.267 152.853 223.04 153.133 223.04C153.413 223.04 153.507 222.813 153.32 222.541C153.133 222.179 152.9 222.224 152.62 222.632C152.06 223.493 152.107 223.947 152.713 223.947C152.947 223.947 153.04 223.765 152.9 223.493Z" fill="#392929"/>
<path d="M123.267 227.347C123.267 225.307 123.267 225.307 124.9 225.307C126.533 225.307 126.533 225.307 126.533 227.347C126.533 229.387 126.533 229.387 124.9 229.387C123.267 229.387 123.267 229.387 123.267 227.347Z" fill="#392929"/>
<path d="M47.5732 225.352C47.1066 224.899 46.7332 224.219 46.7332 223.811C46.7332 223.357 46.3599 223.04 45.7999 223.04C45.0532 223.04 44.8666 222.723 44.8666 221.453C44.8666 220.411 45.1932 219.595 45.7999 219.096C46.3132 218.643 46.7332 218.144 46.7332 217.917C46.7332 217.691 47.4332 216.693 48.2732 215.651C49.1599 214.608 49.9999 213.384 50.1399 212.976C50.6066 211.707 53.1732 211.933 54.5266 213.339C55.5999 214.517 55.6466 214.653 55.2266 218.733C54.9466 221.589 54.5266 223.267 53.9199 224.037C52.2399 226.213 49.0666 226.848 47.5732 225.352Z" fill="#392929"/>
<path d="M129.38 223.856C129.427 222.269 129.473 222.133 129.753 223.04L130.08 224.173L130.827 223.04C131.713 221.77 132.133 218.416 131.433 218.053C131.2 217.917 130.78 218.733 130.453 219.866C130.127 221 129.893 221.68 129.847 221.362C129.8 221.09 129.24 220.773 128.54 220.682C127.467 220.592 127.187 220.32 127.093 219.096C126.953 217.69 126.813 217.6 125.133 217.6C123.967 217.6 123.173 217.328 122.893 216.874C122.52 216.194 122.427 216.194 122.193 216.874C122.007 217.328 121.353 217.6 120.233 217.6C118.74 217.6 118.6 217.509 118.6 216.24C118.6 215.016 118.46 214.88 117.2 214.88C116.267 214.88 115.8 214.653 115.8 214.2C115.8 213.293 115.707 213.293 113.327 214.88C111.087 216.33 108.66 216.648 108.007 215.605C107.447 214.653 105.533 214.2 105.533 215.061C105.533 216.149 103.2 217.6 101.52 217.6C100.633 217.6 99.9333 217.464 99.9333 217.282C99.9333 217.056 98.6267 217.01 97.0867 217.056C95.5 217.146 94.1 217.056 93.9133 216.829C93.3533 216.104 91.5333 215.333 90.3667 215.333C89.3867 215.333 89.2 215.106 89.2 214.018C89.2 212.25 89.62 211.253 90.4133 211.253C91.3 211.253 93.4 210.256 93.4 209.848C93.4 209.621 92.5133 209.757 91.4867 210.12C90.4133 210.482 88.4067 210.8 87.0533 210.8C84.6733 210.8 84.5333 210.754 84.5333 209.666C84.5333 208.896 84.8133 208.533 85.3733 208.533C87.1 208.488 91.8133 206.629 93.0267 205.496C94.1933 204.408 94.4267 204.362 95.4533 204.861C96.2467 205.314 96.8067 205.314 97.5067 204.952C98.8133 204.272 99 204.317 98.72 205.133C98.3467 206.04 98.8133 205.994 100.307 204.997C101.007 204.498 101.987 204.045 102.5 203.909C103.013 203.773 103.853 203.501 104.367 203.274C105.207 202.957 105.253 203.002 104.647 203.728C104.18 204.272 104.133 204.634 104.507 204.997C105.113 205.586 104.133 206.72 102.92 206.72C101.987 206.72 98.2067 209.349 97.8333 210.301C97.5067 211.072 98.3933 211.706 99.7466 211.706C100.26 211.706 102.033 210.89 103.62 209.893C105.16 208.896 107.307 207.672 108.333 207.173L110.2 206.266L109.873 207.717C109.593 209.122 109.64 209.168 110.433 208.533C110.9 208.17 111.74 207.445 112.3 206.901C112.86 206.357 114.26 205.813 115.567 205.632C116.78 205.45 118.927 204.77 120.28 204.09C121.633 203.456 122.94 203.048 123.127 203.274C123.78 203.864 122.473 205.133 121.027 205.269C120.233 205.36 119.347 205.722 119.067 206.085C118.74 206.448 117.9 206.72 117.153 206.72C116.453 206.72 115.707 206.946 115.567 207.173C115.38 207.445 114.493 208.125 113.56 208.714C111.927 209.712 110.247 211.888 110.76 212.386C111.087 212.749 116.407 209.984 116.873 209.213C117.293 208.442 118.6 208.306 118.6 209.032C118.6 210.21 121.773 208.805 124.2 206.493C125.6 205.178 127.56 203.864 128.493 203.546C129.473 203.274 130.36 202.821 130.5 202.594C130.64 202.368 131.713 201.688 132.833 201.053C134.467 200.101 135.213 199.92 136.52 200.192C137.967 200.418 138.2 200.645 138.2 201.733C138.2 203.274 137.5 203.864 135.213 204.317L133.44 204.68L134.653 205.314C135.96 206.04 136.287 207.853 135.4 210.074C135.027 211.026 134.653 211.253 133.3 211.253C131.853 211.253 131.667 211.117 131.667 210.12C131.667 209.485 131.527 208.986 131.34 208.986C131.153 208.986 129.893 210.12 128.587 211.48C127.233 212.84 126.347 213.973 126.58 213.973C126.813 213.973 127 214.381 127 214.88C127 215.605 127.327 215.786 128.633 215.786C129.847 215.786 130.267 215.968 130.313 216.602C130.313 217.01 130.593 216.24 130.873 214.88C131.433 212.432 131.433 212.386 133.253 212.25C135.307 212.069 136.147 212.613 135.633 213.837C135.4 214.29 135.213 214.744 135.213 214.88C135.167 215.016 134.84 215.605 134.513 216.194C134.14 216.829 133.767 218.642 133.673 220.274C133.347 224.717 132.833 225.76 130.92 225.76C129.38 225.76 129.333 225.714 129.38 223.856ZM129.427 217.056C129.007 216.648 128.867 216.738 128.867 217.6C128.867 218.461 129.007 218.552 129.427 218.144C129.847 217.736 129.847 217.464 129.427 217.056ZM131.433 204.997C131.153 204.68 129.8 205.813 129.8 206.402C129.8 206.629 130.22 206.493 130.733 206.04C131.247 205.586 131.573 205.133 131.433 204.997Z" fill="#392929"/>
<path d="M163.727 224.082C162.373 223.085 162.047 222.496 162 221.317C162 219.64 161.953 219.64 165.127 221.816C166.247 222.586 167.273 223.04 167.46 222.858C167.647 222.722 167.367 222.269 166.853 221.952C166.387 221.589 165.547 220.954 165.033 220.546C164.1 219.821 164.1 219.821 165.173 220.002C166.387 220.274 166.527 219.549 165.5 218.234C164.567 217.056 164.567 214.426 165.5 214.426C165.873 214.426 166.2 214.109 166.2 213.746C166.2 213.384 166.433 213.066 166.667 213.066C166.947 213.066 167.133 212.749 167.133 212.386C167.133 212.024 166.947 211.706 166.667 211.706C166.433 211.706 166.2 210.981 166.2 210.12C166.2 209.032 166.433 208.533 166.9 208.533C167.273 208.533 167.6 208.125 167.6 207.626C167.6 206.81 167.927 206.72 170.4 206.72H173.2V208.261C173.2 209.258 172.92 209.893 172.453 210.074C171.847 210.301 172.127 210.754 173.853 212.205C175.627 213.701 176 214.336 176 215.605C176 217.056 175.907 217.146 174.367 217.146C172.92 217.146 172.733 217.282 172.733 218.28C172.733 218.914 172.967 219.413 173.293 219.413C174.507 219.413 176.467 221.816 176.467 223.357C176.467 224.717 176.327 224.853 175.02 224.853C174.18 224.853 172.827 224.445 171.987 223.901C170.633 223.085 170.4 222.722 170.4 221.181C170.4 219.096 169.653 218.824 169.373 220.773C169.233 221.544 169.327 222.133 169.56 222.133C169.747 222.133 169.933 222.858 169.933 223.72V225.306H167.693C165.92 225.306 165.033 225.034 163.727 224.082Z" fill="#392929"/>
<path d="M134 221.906C134 220.41 135.54 217.6 136.333 217.6C137.36 217.6 137.827 219.957 137.08 221.498C136.473 222.768 134 223.085 134 221.906Z" fill="#392929"/>
<path d="M183 216.013C183 214.517 183.093 214.427 184.633 214.427C186.173 214.427 186.267 214.517 186.267 216.013C186.267 217.509 186.173 217.6 184.633 217.6C183.093 217.6 183 217.509 183 216.013Z" fill="#392929"/>
<path d="M83.1333 205.133C83.1333 203.275 83.2266 203.093 83.9733 203.501C84.5333 203.773 85.28 203.728 86.3533 203.275C89.2466 202.096 90.32 202.731 87.8 204.091C87.0066 204.544 86.4466 205.088 86.4933 205.405C86.5866 205.677 86.26 205.995 85.7466 206.04C85.28 206.131 84.6733 206.403 84.3933 206.675C83.46 207.581 83.1333 207.173 83.1333 205.133Z" fill="#392929"/>
<path d="M110.527 204.725C110.713 204.498 110.293 204.453 109.5 204.634C108.333 204.906 108.24 204.861 108.753 204.272C109.547 203.365 111.133 203.32 111.133 204.181C111.133 204.544 111.413 204.906 111.74 205.042C112.02 205.178 111.833 205.224 111.273 205.224C110.713 205.178 110.387 204.997 110.527 204.725Z" fill="#392929"/>
<path d="M74.2666 204.408C74.2666 204.045 75.6199 202.957 77.2999 201.96C78.9799 200.963 80.3333 200.011 80.3333 199.875C80.3333 199.739 80.6599 199.603 81.0333 199.603C81.8733 199.603 81.9199 200.011 81.1266 201.869C80.2399 203.909 79.3999 204.453 76.6466 204.771C74.7799 204.997 74.2666 204.907 74.2666 204.408Z" fill="#392929"/>
<path d="M112.067 203.819C112.067 203.411 112.393 203.093 112.813 203.093C113.233 203.093 113.467 203.32 113.373 203.637C113.093 204.453 112.067 204.589 112.067 203.819Z" fill="#392929"/>
<path d="M64.4667 201.96C64.4667 200.464 64.56 200.373 66.1 200.373C67.64 200.373 67.7333 200.464 67.7333 201.96C67.7333 203.456 67.64 203.546 66.1 203.546C64.56 203.546 64.4667 203.456 64.4667 201.96Z" fill="#392929"/>
<path d="M71 201.507C71 200.192 71.2333 199.829 72.2133 199.467C75.0133 198.424 75.6667 199.784 73.4267 201.869C71.6533 203.547 71 203.411 71 201.507Z" fill="#392929"/>
<path d="M125.6 201.144C125.6 200.826 126.3 200.192 127.14 199.693C127.933 199.24 128.773 198.65 128.96 198.378C129.193 198.016 129.333 198.016 129.333 198.378C129.333 198.877 126.347 201.733 125.833 201.733C125.693 201.733 125.6 201.461 125.6 201.144Z" fill="#392929"/>
<path d="M145.247 148.965C144.547 148.149 142.587 148.013 140.72 148.693C139.927 149.01 137.547 149.056 134.373 148.874L129.333 148.557V147.333C129.333 146.018 130.22 145.52 132.6 145.52C133.487 145.52 133.627 145.61 133.067 145.973C132.693 146.2 132.507 146.472 132.647 146.608C133.02 147.016 139.04 147.016 142.96 146.653C145.947 146.381 146.787 146.426 147.767 147.061C148.747 147.696 149.493 147.741 152.573 147.424C154.533 147.197 156.913 147.016 157.8 147.061C158.78 147.106 159.433 146.88 159.48 146.562C159.527 146.245 159.573 145.792 159.62 145.52C159.62 145.293 160.88 145.066 162.327 145.066H164.94L163.96 146.109L162.98 147.152L165.547 147.106C167.507 147.061 168.3 146.834 168.627 146.29C169.373 144.976 169.933 145.429 169.933 147.378V149.282L167.087 148.965C165.5 148.829 163.82 148.693 163.353 148.693C162.793 148.693 162.467 148.376 162.467 147.786C162.467 147.197 162.14 146.88 161.533 146.88C160.833 146.88 160.6 147.197 160.6 148.013C160.6 149.101 160.46 149.146 158.127 149.146C156.727 149.146 153.413 149.282 150.753 149.418C146.6 149.69 145.807 149.6 145.247 148.965Z" fill="#392929"/>
<path d="M116.733 145.338C116.733 144.885 115.753 144.613 113.233 144.386L109.733 144.069V142.573C109.733 141.168 109.547 141.032 106.84 139.944C105.207 139.309 103.293 138.629 102.5 138.493C101.753 138.312 100.773 137.904 100.353 137.541C99.98 137.224 98.9533 136.771 98.1133 136.635C96.8999 136.363 96.5733 136.453 96.76 136.952C96.8533 137.314 97.5533 137.632 98.2066 137.722C99.0933 137.813 99.4666 138.13 99.4666 138.765C99.4666 139.49 99.14 139.626 97.3666 139.626C95.2666 139.626 95.2666 139.626 95.2666 138.04C95.2666 136.589 95.1266 136.453 93.54 136.181C92.56 136 90.9266 135.501 89.9 135.048C88.8733 134.595 87.5666 134.186 87.0066 134.186C86.26 134.186 85.9333 133.914 85.9333 133.28C85.9333 132.554 85.6066 132.373 84.3 132.373C82.76 132.373 82.6666 132.282 82.6666 130.786C82.6666 129.2 83.2733 128.656 83.74 129.834C83.88 130.197 84.9533 130.65 86.12 130.786C87.4733 131.013 88.2666 131.33 88.2666 131.738C88.2666 132.101 88.64 132.373 89.1066 132.373C89.5266 132.373 90.8333 132.781 91.9533 133.28C93.9133 134.186 101.1 136.181 104.833 136.952C105.86 137.133 107.353 137.587 108.1 137.995C108.893 138.357 110.107 138.901 110.807 139.128C111.973 139.581 112.067 139.762 111.787 141.213C111.507 142.8 111.927 143.208 112.86 142.301C113.42 141.757 116.36 142.528 117.713 143.57C118.087 143.888 119.113 144.16 119.907 144.16C121.073 144.16 121.4 144.341 121.4 145.066C121.4 145.837 121.073 145.973 119.067 145.973C117.387 145.973 116.733 145.792 116.733 145.338Z" fill="#392929"/>
<path d="M167.04 145.157C166.48 144.93 166.387 144.658 166.62 144.205C166.993 143.661 168.347 143.298 173.107 142.482C173.947 142.346 174.6 141.984 174.6 141.621C174.6 141.258 175.02 140.986 175.533 140.986C176.047 140.986 176.467 140.669 176.467 140.306C176.467 139.49 177.727 139.4 177.96 140.17C178.24 140.896 180.667 140.216 180.667 139.4C180.667 138.538 182.02 138.538 183.233 139.354C183.747 139.672 184.82 140.08 185.567 140.261L186.967 140.578L185.94 139.626C185.333 139.128 184.867 138.629 184.867 138.538C184.867 138.221 186.92 138.81 187.573 139.309C187.853 139.536 188.133 140.442 188.133 141.304V142.89L186.173 142.618C183.513 142.21 182.767 142.21 179.873 142.618C177.82 142.845 177.4 143.072 177.4 143.842C177.4 144.613 177.167 144.704 175.347 144.522C174.227 144.386 173.013 144.432 172.687 144.613C171.707 145.112 167.927 145.474 167.04 145.157Z" fill="#392929"/>
<path d="M119.813 142.936C119.067 142.528 118.227 142.029 117.947 141.802C116.453 140.624 98.58 129.562 95.8733 128.157C92.6067 126.48 83.88 123.76 81.8267 123.76C81.22 123.76 79.96 123.352 79.12 122.808C77.8133 122.037 77.5333 121.584 77.5333 120.314C77.5333 119.226 77.7667 118.773 78.2333 118.773C78.6067 118.773 78.9333 119.045 78.9333 119.362C78.9333 120.269 82.6667 122.264 85.84 123.034C92.6533 124.712 101.193 129.018 111.833 136.181C115.427 138.584 118.927 140.805 119.627 141.077C120.327 141.394 120.98 142.029 121.12 142.528C121.447 143.752 121.4 143.752 119.813 142.936Z" fill="#392929"/>
<path d="M34.6 142.392C34.6 142.165 34.1333 141.893 33.5733 141.802C32.6867 141.712 32.4533 141.349 32.36 139.989C32.22 138.357 32.1267 138.266 30.5867 138.266C29.3267 138.266 29 138.085 29 137.36C29 136.861 28.72 136.453 28.3467 136.453C27.9733 136.453 27.2733 135.864 26.8067 135.093C26.2 134.05 25.6867 133.733 24.52 133.733C23.68 133.733 21.3 132.917 19.2467 131.92C17.1933 130.922 15.28 130.106 15.0467 130.106C14.7667 130.106 14.5333 129.381 14.5333 128.52C14.5333 126.888 14.5333 126.888 16.4467 127.024C17.9867 127.114 18.5933 127.386 19.5733 128.656C20.9267 130.333 24.52 132.6 25.2667 132.146C25.5 132.01 25.7333 131.467 25.7333 130.968C25.7333 129.563 26.34 129.97 27.9267 132.509C28.7667 133.824 30.5867 136.136 32.0333 137.677C35.0667 140.941 37.3067 141.893 39.1267 140.76C40.1533 140.08 40.2 140.125 40.2 141.44V142.8H37.4C35.86 142.8 34.6 142.618 34.6 142.392Z" fill="#392929"/>
<path d="M7.76661 138.946C7.53328 138.856 6.73994 138.674 6.03994 138.538C5.01327 138.312 4.73328 137.994 4.73328 137.088C4.73328 136 4.87327 135.909 6.03994 136.181C6.73994 136.317 8.69994 136.68 10.4733 136.952C13.0399 137.36 13.5999 137.632 13.5999 138.312C13.5999 139.082 13.2266 139.173 10.9399 139.128C9.4466 139.128 8.04661 139.037 7.76661 138.946Z" fill="#392929"/>
<path d="M17.3333 137.088C14.5333 136.181 12.76 135.864 10.8933 135.909C10.0533 135.909 9.49329 135.773 9.58662 135.592C9.72662 135.411 8.60663 135.32 7.15996 135.365C5.7133 135.456 4.8733 135.411 5.2933 135.275C5.89996 135.093 6.13329 134.549 6.13329 133.189V131.331L10.0066 131.603C12.8066 131.829 13.9733 132.101 14.44 132.691C14.86 133.28 15 133.325 15 132.781C15 132.419 15.28 132.645 15.6066 133.28C16.2133 134.459 18.78 135.456 21.44 135.501C22.7 135.547 22.9333 135.728 22.9333 136.68C22.9333 137.677 22.7466 137.813 21.2066 137.768C20.2266 137.723 18.5 137.451 17.3333 137.088Z" fill="#392929"/>
<path d="M168.58 135.184C168.3 135.093 168.16 134.821 168.347 134.595C168.673 134.051 171.66 134.096 172.033 134.64C172.22 134.912 172.547 134.957 172.827 134.821C173.153 134.64 173.2 134.731 173.013 135.003C172.733 135.456 169.793 135.592 168.58 135.184Z" fill="#392929"/>
<path d="M179.827 130.922C178.753 130.424 178.753 130.424 180.2 129.789C180.993 129.472 181.553 129.018 181.367 128.746C181.227 128.52 181.413 128.293 181.787 128.293C182.347 128.293 182.533 128.746 182.533 129.88C182.533 131.602 181.88 131.874 179.827 130.922Z" fill="#392929"/>
<path d="M169.7 130.605C168.813 130.243 168.813 130.243 169.7 129.744C170.773 129.245 172.5 129.835 172.033 130.605C171.707 131.104 171.007 131.104 169.7 130.605Z" fill="#392929"/>
<path d="M9.86658 126.706C9.86658 125.21 9.95991 125.12 11.4999 125.12C13.0399 125.12 13.1332 125.21 13.1332 126.706C13.1332 128.202 13.0399 128.293 11.4999 128.293C9.95991 128.293 9.86658 128.202 9.86658 126.706Z" fill="#392929"/>
<path d="M2.54 126.616C1.65334 126.435 1.46667 126.117 1.46667 124.848C1.46667 123.352 1.51334 123.307 3.24 123.307C6.36667 123.307 7.06667 123.715 7.06667 125.392C7.06667 126.888 7.02 126.933 5.34 126.888C4.36 126.843 3.1 126.707 2.54 126.616Z" fill="#392929"/>
<path d="M179.453 126.299C178.613 125.664 178.613 125.619 179.873 125.165C180.62 124.893 181.367 124.667 181.6 124.667C181.833 124.667 182.113 124.304 182.207 123.896C182.347 123.443 182.44 123.805 182.487 124.712C182.533 125.845 182.3 126.48 181.787 126.661C180.76 127.069 180.48 127.024 179.453 126.299Z" fill="#392929"/>
<path d="M179.173 120.405C177.913 119.499 178.147 118.773 179.687 118.773C180.48 118.773 181.227 118.592 181.367 118.32C181.507 118.093 182.113 117.867 182.673 117.821C183.653 117.821 183.653 117.776 182.533 117.323L181.367 116.824L182.44 116.597C184.307 116.325 184.867 116.779 184.867 118.683C184.867 120.405 184.773 120.496 183.14 120.768C180.667 121.131 180.06 121.085 179.173 120.405Z" fill="#392929"/>
<path d="M75.9933 117.323C75.1999 117.051 74.6399 116.461 74.4533 115.691C74.3133 115.011 73.9866 114.013 73.7533 113.424C73.5199 112.835 73.3333 111.792 73.3333 111.067C73.3333 109.979 73.5199 109.707 74.3132 109.707C75.1066 109.707 75.1999 109.843 74.7799 110.341C74.3599 110.795 74.4066 111.021 74.9666 111.248C75.3399 111.384 75.6666 111.792 75.6666 112.2C75.6666 113.56 77.0666 115.6 77.9999 115.6C78.6999 115.6 78.9333 115.917 78.9333 116.733C78.9333 117.957 78.2333 118.139 75.9933 117.323Z" fill="#392929"/>
<path d="M177.68 110.976C176.653 109.571 176.747 109.253 178.1 109.253C179.08 109.253 179.267 109.48 179.267 110.613C179.267 112.245 178.66 112.336 177.68 110.976Z" fill="#392929"/>
<path d="M175.067 108.8C174.693 108.573 173.9 108.346 173.34 108.346C172.733 108.346 172.267 108.165 172.267 107.984C172.267 107.757 173.2 107.712 174.32 107.893C176.233 108.165 176.373 108.12 175.953 107.394C175.72 106.941 175.3 106.442 175.067 106.306C174.227 105.808 174.6 104.81 175.72 104.538C176.373 104.402 177.027 103.858 177.167 103.36C177.307 102.861 177.773 102.453 178.147 102.453C179.313 102.453 178.8 105.762 177.633 106.08C176.98 106.216 176.7 106.669 176.7 107.621C176.7 109.072 176.14 109.48 175.067 108.8Z" fill="#392929"/>
<path d="M34.2733 108.482C33.9467 108.392 33.6667 107.893 33.6667 107.394C33.6667 106.85 33.34 106.533 32.7333 106.533C32.08 106.533 31.4267 105.762 30.4 103.813C29.2333 101.592 29 100.594 29 97.9197C29 94.021 29.8867 92.0264 31.5667 92.0264C32.92 92.0264 33.0133 92.3437 31.9867 93.749C31.3333 94.6557 31.3333 94.9277 31.8933 95.5624C32.3133 96.061 32.4533 96.9224 32.2667 98.1464C31.66 102.317 33.34 106.034 36.2333 107.032C38.3333 107.802 38.38 108.8 36.3733 108.754C35.5333 108.754 34.5533 108.618 34.2733 108.482Z" fill="#392929"/>
<path d="M73.3333 107.213C73.3333 106.125 73.5666 105.626 74.0333 105.626C74.4066 105.626 74.7333 105.944 74.7333 106.306C74.7333 106.669 75.1066 106.986 75.6199 106.986C76.5999 106.986 77.7199 108.029 77.2066 108.482C77.0666 108.664 76.0866 108.8 75.1066 108.8C73.3799 108.8 73.3333 108.754 73.3333 107.213Z" fill="#392929"/>
<path d="M97.6 108.573C97.6 108.437 98.3933 107.667 99.3266 106.851C100.26 106.035 101.427 104.539 101.893 103.451C102.5 102.136 103.013 101.547 103.48 101.728C103.9 101.909 104.133 101.637 104.133 100.957C104.133 99.2346 104.693 97.9199 105.347 97.9199C106.047 97.9199 106.233 101.229 105.72 104.403C105.44 105.808 105.207 106.08 104.273 106.08C103.573 106.08 102.687 106.624 101.94 107.44C101.1 108.483 100.4 108.8 99.1867 108.8C98.3 108.8 97.6 108.709 97.6 108.573Z" fill="#392929"/>
<path d="M39.2666 108.029C39.2666 107.893 40.0599 107.077 41.0866 106.261C42.8133 104.811 43.5599 103.541 44.1199 101.003C44.3533 100.051 44.6799 99.7334 45.5666 99.7334C46.5466 99.7334 46.7333 99.9601 46.7333 101.184C46.7333 103.133 45.0533 106.352 43.4666 107.44C42.2533 108.301 39.2666 108.709 39.2666 108.029Z" fill="#392929"/>
<path d="M90.1333 107.032C90.1333 106.488 89.6666 106.08 88.8732 105.853C88.1732 105.717 87.4266 105.309 87.2399 105.037C86.8199 104.402 86.7732 96.7863 87.1466 95.3356C87.3799 94.6103 87.7999 94.293 88.5933 94.293C89.5266 94.293 89.7133 94.4743 89.4333 95.109C88.4066 97.557 88.2199 103.722 89.2466 103.088C89.4332 102.997 89.9466 103.45 90.3199 104.13C90.6933 104.856 91.5333 105.989 92.2333 106.669L93.5399 107.893H91.8132C90.4599 107.893 90.1333 107.712 90.1333 107.032Z" fill="#392929"/>
<path d="M127.467 98.5999C127.467 98.2372 127.28 97.9199 127 97.9199C126.767 97.9199 126.533 97.1946 126.533 96.3332C126.533 95.4719 126.673 94.7466 126.907 94.7466C127.233 94.7466 129.8 98.4639 129.8 99.0079C129.8 99.1439 129.287 99.2799 128.633 99.2799C127.887 99.2799 127.467 99.0079 127.467 98.5999Z" fill="#392929"/>
<path d="M65.8666 97.24C65.8666 95.9707 66.0533 95.6533 66.7533 95.6533C67.3599 95.6533 67.7332 96.016 67.8266 96.696C67.9199 97.24 68.2466 97.648 68.5732 97.6026C68.8532 97.512 69.1332 97.784 69.1332 98.1467C69.1332 98.6 68.6199 98.8267 67.4999 98.8267C65.9599 98.8267 65.8666 98.736 65.8666 97.24Z" fill="#392929"/>
<path d="M123.127 93.5226C122.94 93.3866 122.8 92.8426 122.8 92.3893C122.8 91.936 122.613 91.5733 122.333 91.5733C122.1 91.5733 120.56 90.576 119.02 89.352C115.333 86.4506 111.693 84.7733 107.773 84.1386C105.253 83.776 104.6 83.504 104.6 82.8693C104.6 81.8266 106.467 81.7813 110.62 82.7333C115.1 83.776 118.833 85.952 122.66 89.7146C124.527 91.5733 126.067 93.2506 126.067 93.432C126.067 93.8853 123.547 93.976 123.127 93.5226Z" fill="#392929"/>
<path d="M63.3466 92.8424C63.2066 92.525 63.02 90.7117 62.88 88.853C62.6933 86.6317 62.3666 85.3624 61.9 85.0904C60.8266 84.5464 60.6867 82.2797 61.1533 74.573C61.4333 69.7224 61.9 66.3677 62.5066 64.373C63.02 62.741 63.58 60.6557 63.72 59.749C64 58.2077 64.1866 58.0264 65.4933 58.0264C66.66 58.0264 66.8466 58.1624 66.5666 58.8424C66.3333 59.2504 65.4933 62.2877 64.6066 65.5064C63.0666 71.173 62.9733 71.6264 63.3 76.8397C63.44 79.8317 63.9066 83.141 64.28 84.229C64.6533 85.2717 64.9333 87.0397 64.9333 88.173C64.9333 90.0317 65.7733 91.573 66.8466 91.573C67.08 91.573 67.2666 91.981 67.2666 92.4797C67.2666 93.2504 66.94 93.3864 65.4 93.3864C64.28 93.3864 63.44 93.1597 63.3466 92.8424Z" fill="#392929"/>
<path d="M169.7 92.0266C169.327 91.3919 169.84 90.6666 170.68 90.6666C171.473 90.6666 171.567 89.9413 170.773 89.6239C170.447 89.4879 170.633 89.3519 171.24 89.3519C172.127 89.3066 172.267 89.5333 172.267 90.8933C172.267 92.2533 172.127 92.4799 171.147 92.4799C170.493 92.4799 169.84 92.2986 169.7 92.0266Z" fill="#392929"/>
<path d="M42.0667 84.7732C42.0667 83.3226 42.44 83.3226 44.54 84.9092C45.7066 85.8612 45.52 86.1332 43.7 86.1332C42.2067 86.1332 42.0667 86.0426 42.0667 84.7732Z" fill="#392929"/>
<path d="M99.56 83.0961C99.6533 82.5067 100.213 82.2347 101.473 82.1441C102.967 82.0081 103.2 82.1441 103.2 82.9147C103.2 83.7307 102.92 83.8667 101.287 83.8667C99.7467 83.8667 99.42 83.7307 99.56 83.0961Z" fill="#392929"/>
<path d="M175.067 27.4719C175.067 25.9759 175.16 25.8852 177.54 25.2506C178.847 24.8426 180.62 24.4346 181.367 24.2986C182.16 24.2079 183.187 23.9359 183.7 23.7999C184.493 23.5279 184.447 23.6639 183.467 24.5252L182.3 25.5226L183.7 25.2506C184.493 25.1146 185.473 24.8426 185.94 24.7066C186.547 24.4346 186.733 24.6159 186.733 25.5226C186.733 26.5199 186.453 26.7466 185.007 26.9732C184.027 27.1546 182.113 27.6532 180.76 28.1519C179.36 28.6052 177.54 29.0132 176.653 29.0132C175.16 29.0132 175.067 28.9226 175.067 27.4719Z" fill="#392929"/>
<path d="M177.26 20.0823C176.233 19.1303 177.54 14.9144 179.033 14.325C180.34 13.8717 181.693 14.0077 181.32 14.597C181.087 14.9597 181.32 15.005 182.02 14.8237C182.673 14.6877 183.14 14.8237 183.327 15.2317C183.467 15.5944 184.073 15.8663 184.727 15.8663C185.66 15.8663 185.847 16.0477 185.66 16.773C185.52 17.2717 185.66 17.6797 185.94 17.6797C186.22 17.6797 185.987 18.0877 185.427 18.5863C184.867 19.085 184.213 19.493 183.933 19.493C183.7 19.493 183.467 19.7197 183.467 19.9463C183.467 20.445 177.727 20.581 177.26 20.0823Z" fill="#392929"/>
<path d="M176 8.84008C176 7.34408 176.093 7.25342 177.633 7.25342C179.173 7.25342 179.267 7.34408 179.267 8.84008C179.267 10.3361 179.173 10.4268 177.633 10.4268C176.093 10.4268 176 10.3361 176 8.84008Z" fill="#392929"/>
<path d="M165.733 7.02651C165.733 5.98384 165.967 5.43984 166.387 5.43984C166.713 5.43984 167.133 4.89584 167.32 4.21584C167.647 2.62918 169.233 1.54117 171.613 1.08784L173.433 0.770508L172.08 2.22117C171.333 2.99184 170.82 3.71718 170.913 3.85318C171.24 4.17051 174.787 2.26651 175.207 1.54117C175.393 1.17851 175.907 0.906509 176.28 0.906509C176.793 0.906509 176.84 1.08784 176.467 1.76784C175.813 2.99184 175.767 2.94651 177.773 3.80784C179.173 4.39717 179.827 4.48785 180.853 4.12518C182.72 3.39985 183 3.49051 183 4.71451C183 6.11984 181.087 6.89051 177.82 6.79984C176.42 6.75451 173.9 6.75451 172.173 6.75451C169.327 6.79984 169 6.89051 169 7.70651C169 8.43184 168.673 8.61318 167.367 8.61318C165.827 8.61318 165.733 8.52251 165.733 7.02651Z" fill="#392929"/>
</svg>
