<svg width="101" height="84" viewBox="0 0 101 84" fill="none" xmlns="http://www.w3.org/2000/svg">
<path d="M49.58 83.6634C49.48 83.6456 49.4 83.5655 49.4 83.4943C49.4 83.3964 49.55 83.3697 50.05 83.3697C50.54 83.3697 50.7 83.3964 50.7 83.4943C50.7 83.6901 50.08 83.7791 49.58 83.6634Z" fill="#424242"/>
<path d="M45.08 83.0049C44.79 82.8625 44.87 82.7468 45.25 82.7468C45.53 82.7468 45.6 82.7824 45.6 82.9248C45.6 83.1205 45.36 83.1561 45.08 83.0049Z" fill="#424242"/>
<path d="M55.3 82.7023C55.3 82.5065 55.34 82.4798 55.65 82.4798C55.84 82.4798 56 82.5065 56 82.551C56 82.6311 55.8 82.8981 55.8 82.818C55.8 82.7824 55.69 82.7913 55.55 82.8358C55.33 82.9159 55.3 82.8981 55.3 82.7023Z" fill="#424242"/>
<path d="M57.6 81.6344C57.6 81.4386 57.64 81.4119 57.98 81.4119C58.35 81.4208 58.35 81.4208 58.07 81.6344C57.71 81.9192 57.6 81.9103 57.6 81.6344Z" fill="#424242"/>
<path d="M40.58 80.433C40.3 80.1216 40.3 80.1216 40.56 80.0949C40.89 80.0593 40.92 80.086 40.88 80.4419C40.85 80.7445 40.85 80.7445 40.58 80.433Z" fill="#424242"/>
<path d="M59.6 79.9525C59.6 79.6588 59.62 79.6321 59.91 79.6321C60.21 79.6321 60.21 79.6321 60 79.8991C59.69 80.2906 59.6 80.2995 59.6 79.9525Z" fill="#424242"/>
<path d="M39.34 79.027C39.37 78.9825 39.3 78.8579 39.19 78.76C39.08 78.6532 39.02 78.5642 39.05 78.5642C39.08 78.5642 38.99 78.3862 38.85 78.1815C38.54 77.701 38.54 77.6743 38.84 77.6743C39.1 77.6743 39.2 77.8167 39.2 78.2171C39.2 78.4129 39.25 78.4752 39.4 78.4752C39.56 78.4752 39.6 78.5375 39.6 78.7867C39.6 79.0092 39.56 79.0982 39.44 79.0982C39.36 79.0982 39.31 79.0626 39.34 79.027Z" fill="#424242"/>
<path d="M62.5 74.1592C62.5 73.91 62.54 73.8477 62.7 73.8477C62.91 73.8477 62.94 73.9367 62.84 74.2749C62.74 74.5952 62.5 74.5151 62.5 74.1592Z" fill="#424242"/>
<path d="M62.8 72.3793C62.8 72.1302 62.84 72.0679 63 72.0679C63.21 72.0679 63.24 72.1569 63.14 72.495C63.04 72.8154 62.8 72.7353 62.8 72.3793Z" fill="#424242"/>
<path d="M62.8 69.7986C62.8 69.4427 63.04 69.3626 63.14 69.6918C63.24 70.0211 63.21 70.1101 63 70.1101C62.84 70.1101 62.8 70.0478 62.8 69.7986Z" fill="#424242"/>
<path d="M37.1 68.5795C37.1 68.3125 37.23 68.0633 37.36 68.0633C37.45 68.0633 37.5 68.1701 37.5 68.3748C37.5 68.6239 37.46 68.6862 37.3 68.6862C37.19 68.6862 37.1 68.6328 37.1 68.5795Z" fill="#424242"/>
<path d="M63.8 66.5505C63.8 66.4081 63.87 66.3725 64.15 66.3725C64.55 66.3725 64.64 66.5861 64.28 66.6751C63.9 66.764 63.8 66.7373 63.8 66.5505Z" fill="#424242"/>
<path d="M35.18 66.5772C34.85 66.506 34.98 66.2835 35.35 66.2835C35.63 66.2835 35.7 66.3191 35.7 66.4615C35.7 66.6394 35.56 66.6661 35.18 66.5772Z" fill="#424242"/>
<path d="M66.6 66.1945C66.6 66.0521 66.67 66.0165 66.95 66.0165C67.35 66.0165 67.44 66.2301 67.08 66.3191C66.7 66.4081 66.6 66.3814 66.6 66.1945Z" fill="#424242"/>
<path d="M30.98 66.0432C30.65 65.972 30.78 65.7495 31.15 65.7495C31.43 65.7495 31.5 65.7851 31.5 65.9275C31.5 66.1055 31.36 66.1322 30.98 66.0432Z" fill="#424242"/>
<path d="M29.08 65.7762C28.75 65.705 28.88 65.4826 29.25 65.4826C29.53 65.4826 29.6 65.5182 29.6 65.6605C29.6 65.8385 29.46 65.8652 29.08 65.7762Z" fill="#424242"/>
<path d="M71.2 65.5805C71.2 65.4648 71.26 65.3936 71.38 65.3936C71.47 65.3936 71.79 65.3669 72.08 65.3402C72.51 65.2868 72.6 65.3046 72.6 65.4203C72.6 65.5538 72.48 65.5983 71.63 65.705C71.24 65.7584 71.2 65.7495 71.2 65.5805Z" fill="#424242"/>
<path d="M27.18 65.5093C26.85 65.4381 26.98 65.2156 27.35 65.2156C27.63 65.2156 27.7 65.2512 27.7 65.3936C27.7 65.5716 27.56 65.5983 27.18 65.5093Z" fill="#424242"/>
<path d="M25.28 65.2423C24.95 65.1711 25.08 64.9486 25.45 64.9486C25.73 64.9486 25.8 64.9842 25.8 65.1266C25.8 65.3046 25.66 65.3313 25.28 65.2423Z" fill="#424242"/>
<path d="M75 65.0376C75 64.8952 75.07 64.8596 75.35 64.8596C75.75 64.8596 75.84 65.0732 75.48 65.1622C75.1 65.2512 75 65.2245 75 65.0376Z" fill="#424242"/>
<path d="M23.48 64.9753C23.15 64.9041 23.28 64.6817 23.65 64.6817C23.93 64.6817 24 64.7173 24 64.8596C24 65.0376 23.86 65.0643 23.48 64.9753Z" fill="#424242"/>
<path d="M22.28 64.7973C21.95 64.7261 22.08 64.5037 22.45 64.5037C22.73 64.5037 22.8 64.5393 22.8 64.6817C22.8 64.8596 22.66 64.8863 22.28 64.7973Z" fill="#424242"/>
<path d="M20.48 64.5304C20.15 64.4592 20.28 64.2367 20.65 64.2367C20.93 64.2367 21 64.2723 21 64.4147C21 64.5927 20.86 64.6194 20.48 64.5304Z" fill="#424242"/>
<path d="M15.38 63.7294C15.05 63.6583 15.18 63.4358 15.55 63.4358C15.83 63.4358 15.9 63.4714 15.9 63.6138C15.9 63.7917 15.76 63.8184 15.38 63.7294Z" fill="#424242"/>
<path d="M84.3 63.6138C84.3 63.4714 84.37 63.4358 84.65 63.4358C85.05 63.4358 85.14 63.6494 84.78 63.7383C84.4 63.8273 84.3 63.8006 84.3 63.6138Z" fill="#424242"/>
<path d="M86 63.3468C86 63.2044 86.07 63.1688 86.35 63.1688C86.75 63.1688 86.84 63.3824 86.48 63.4714C86.1 63.5604 86 63.5337 86 63.3468Z" fill="#424242"/>
<path d="M13.08 63.3735C12.75 63.3023 12.88 63.0798 13.25 63.0798C13.53 63.0798 13.6 63.1154 13.6 63.2578C13.6 63.4358 13.46 63.4625 13.08 63.3735Z" fill="#424242"/>
<path d="M88.3 62.9908C88.3 62.8484 88.37 62.8128 88.65 62.8128C89.05 62.8128 89.14 63.0264 88.78 63.1154C88.4 63.2044 88.3 63.1777 88.3 62.9908Z" fill="#424242"/>
<path d="M10.28 62.9285C9.95 62.8573 10.08 62.6349 10.45 62.6349C10.73 62.6349 10.8 62.6705 10.8 62.8128C10.8 62.9908 10.66 63.0175 10.28 62.9285Z" fill="#424242"/>
<path d="M89.9 62.7239C89.9 62.5815 89.97 62.5459 90.25 62.5459C90.65 62.5459 90.74 62.7595 90.38 62.8484C90 62.9374 89.9 62.9107 89.9 62.7239Z" fill="#424242"/>
<path d="M8.93 62.7061C8.47 62.6171 8.32 62.3679 8.73 62.3679C9.31 62.3679 9.7 62.4836 9.7 62.6438C9.7 62.8306 9.58 62.8395 8.93 62.7061Z" fill="#424242"/>
<path d="M7.05 62.4124C7 62.3946 6.69 62.3323 6.38 62.2789C6 62.2077 5.8 62.1365 5.8 62.0475C5.8 61.8962 6.03 61.8873 6.86 62.0297C7.37 62.1098 7.5 62.1632 7.5 62.2967C7.5 62.448 7.31 62.4925 7.05 62.4124Z" fill="#424242"/>
<path d="M92.6 62.2789C92.6 62.1365 92.67 62.1009 92.95 62.1009C93.35 62.1009 93.44 62.3145 93.08 62.4035C92.7 62.4925 92.6 62.4658 92.6 62.2789Z" fill="#424242"/>
<path d="M95.8 61.745C95.8 61.6026 95.87 61.567 96.15 61.567C96.55 61.567 96.64 61.7806 96.28 61.8695C95.9 61.9585 95.8 61.9318 95.8 61.745Z" fill="#424242"/>
<path d="M3.28 61.7717C2.95 61.7005 3.08 61.478 3.45 61.478C3.73 61.478 3.8 61.5136 3.8 61.656C3.8 61.8339 3.66 61.8606 3.28 61.7717Z" fill="#424242"/>
<path d="M2.18 61.5937C1.85 61.5225 1.98 61.3 2.35 61.3C2.63 61.3 2.7 61.3356 2.7 61.478C2.7 61.656 2.56 61.6827 2.18 61.5937Z" fill="#424242"/>
<path d="M99.7 60.9796C99.7 60.6326 99.94 60.5614 100.04 60.8817C100.13 61.1665 100.12 61.1843 99.9 61.2377C99.73 61.2733 99.7 61.2377 99.7 60.9796Z" fill="#424242"/>
<path d="M99.6 59.6537C99.6 59.4579 99.65 59.3422 99.73 59.3422C99.81 59.3422 99.91 59.4846 99.97 59.6537C100.08 59.9473 100.07 59.9651 99.84 59.9651C99.63 59.9651 99.6 59.9206 99.6 59.6537Z" fill="#424242"/>
<path d="M30 59.5202C30 59.3333 30.1 59.3066 30.48 59.3956C30.84 59.4846 30.75 59.6982 30.35 59.6982C30.07 59.6982 30 59.6626 30 59.5202Z" fill="#424242"/>
<path d="M32 59.5736C32 59.4579 32.28 59.3422 32.58 59.3422C32.64 59.3422 32.7 59.4223 32.7 59.5202C32.7 59.6626 32.63 59.6982 32.35 59.6982C32.12 59.6982 32 59.6537 32 59.5736Z" fill="#424242"/>
<path d="M28.2 59.3956C28.2 59.1909 28.22 59.182 28.55 59.2799C28.74 59.3333 28.9 59.4223 28.9 59.4935C28.9 59.5647 28.77 59.6092 28.55 59.6092C28.25 59.6092 28.2 59.5825 28.2 59.3956Z" fill="#424242"/>
<path d="M26.4 59.2532C26.4 59.0663 26.5 59.0396 26.88 59.1286C27.24 59.2176 27.15 59.4312 26.75 59.4312C26.47 59.4312 26.4 59.3956 26.4 59.2532Z" fill="#424242"/>
<path d="M25 59.0752C25 58.8884 25.1 58.8617 25.48 58.9507C25.84 59.0396 25.75 59.2532 25.35 59.2532C25.07 59.2532 25 59.2176 25 59.0752Z" fill="#424242"/>
<path d="M23.2 58.8083C23.2 58.6214 23.3 58.5947 23.68 58.6837C24.04 58.7727 23.95 58.9862 23.55 58.9862C23.27 58.9862 23.2 58.9506 23.2 58.8083Z" fill="#424242"/>
<path d="M30.78 58.568C30.45 58.4968 30.58 58.2743 30.95 58.2743C31.23 58.2743 31.3 58.3099 31.3 58.4523C31.3 58.6303 31.16 58.657 30.78 58.568Z" fill="#424242"/>
<path d="M31.4 58.4523C31.4 58.3099 31.47 58.2743 31.75 58.2743C32.15 58.2743 32.24 58.4879 31.88 58.5769C31.5 58.6659 31.4 58.6392 31.4 58.4523Z" fill="#424242"/>
<path d="M33.1 58.3989C33.1 58.212 33.15 58.1853 33.45 58.1853C33.67 58.1853 33.8 58.2298 33.8 58.301C33.8 58.3722 33.64 58.4612 33.45 58.5146C33.12 58.6125 33.1 58.6036 33.1 58.3989Z" fill="#424242"/>
<path d="M26.98 58.3277C26.58 58.2031 26.62 58.0073 27.05 58.0073C27.33 58.0073 27.4 58.0429 27.4 58.1764C27.4 58.4078 27.31 58.4434 26.98 58.3277Z" fill="#424242"/>
<path d="M34 58.2743C34 58.1319 34.07 58.0963 34.35 58.0963C34.75 58.0963 34.84 58.3099 34.48 58.3989C34.1 58.4879 34 58.4612 34 58.2743Z" fill="#424242"/>
<path d="M18.73 58.212C18.48 58.1853 18.4 58.1319 18.4 57.9895C18.4 57.8293 18.44 57.8205 18.78 57.8649C19.59 57.9895 19.7 58.0251 19.7 58.1497C19.7 58.2743 19.46 58.2921 18.73 58.212Z" fill="#424242"/>
<path d="M35.73 58.212C35.66 58.1853 35.6 58.0963 35.6 57.9984C35.6 57.865 35.67 57.8294 35.95 57.8294C36.24 57.8294 36.3 57.865 36.3 58.0162C36.3 58.1141 36.26 58.1675 36.2 58.1408C36.14 58.1052 36.04 58.123 35.97 58.1675C35.9 58.212 35.79 58.2298 35.73 58.212Z" fill="#424242"/>
<path d="M1.52 58.0785C1.56 57.9628 2.4 57.6692 2.73 57.6603C2.84 57.6514 2.9 57.7137 2.9 57.8294C2.9 57.9717 2.83 58.0073 2.55 58.0073C2.36 58.0073 2.2 58.0518 2.2 58.0963C2.2 58.1497 2.04 58.1853 1.84 58.1853C1.6 58.1853 1.5 58.1497 1.52 58.0785Z" fill="#424242"/>
<path d="M24.78 58.034C24.45 57.9628 24.58 57.7404 24.95 57.7404C25.23 57.7404 25.3 57.776 25.3 57.9184C25.3 58.0963 25.16 58.123 24.78 58.034Z" fill="#424242"/>
<path d="M17.2 57.8294C17.2 57.6425 17.3 57.6158 17.68 57.7048C18.04 57.7938 17.95 58.0073 17.55 58.0073C17.27 58.0073 17.2 57.9717 17.2 57.8294Z" fill="#424242"/>
<path d="M23.75 57.8739C23.7 57.8561 23.48 57.8205 23.28 57.7849C23.04 57.7493 22.9 57.687 22.9 57.6069C22.9 57.4556 23.05 57.4467 23.74 57.5268C24.1 57.5713 24.2 57.6247 24.2 57.7493C24.2 57.9094 24.02 57.9539 23.75 57.8739Z" fill="#424242"/>
<path d="M4.1 57.5179C4.1 57.4378 4.24 57.3755 4.48 57.3399C4.68 57.3132 4.97 57.2598 5.12 57.2153C5.42 57.1263 5.5 57.1619 5.5 57.3844C5.5 57.5001 5.38 57.5535 4.98 57.598C4.21 57.6781 4.1 57.6692 4.1 57.5179Z" fill="#424242"/>
<path d="M0.330002 57.4289C0.370002 57.3488 0.400001 57.242 0.400001 57.1975C0.400001 57.153 0.470001 57.1174 0.550001 57.1174C0.770001 57.1174 0.730002 57.3666 0.480002 57.4823C0.300002 57.5713 0.280002 57.5624 0.330002 57.4289Z" fill="#424242"/>
<path d="M9.9 57.2064C9.9 57.0195 10 56.9928 10.38 57.0818C10.74 57.1708 10.65 57.3844 10.25 57.3844C9.97 57.3844 9.9 57.3488 9.9 57.2064Z" fill="#424242"/>
<path d="M20.55 57.3399C20.5 57.3221 20.28 57.2865 20.08 57.2509C19.84 57.2153 19.7 57.153 19.7 57.0729C19.7 56.9217 19.85 56.9128 20.54 56.9928C20.9 57.0373 21 57.0907 21 57.2153C21 57.3755 20.82 57.42 20.55 57.3399Z" fill="#424242"/>
<path d="M40.19 56.9128C40.25 56.8416 40.28 56.7704 40.26 56.7526C40.24 56.7348 40.33 56.6458 40.46 56.5568C40.7 56.3966 40.7 56.3966 40.7 56.717C40.7 57.0106 40.68 57.0284 40.39 57.0284C40.14 57.0284 40.1 57.0017 40.19 56.9128Z" fill="#424242"/>
<path d="M2 56.7615C2 56.6191 2.07 56.5835 2.35 56.5835C2.62 56.5835 2.7 56.6191 2.7 56.7437C2.7 56.8505 2.61 56.9039 2.35 56.9128C2.06 56.9395 2 56.9128 2 56.7615Z" fill="#424242"/>
<path d="M3.4 56.5123C3.4 56.3788 3.49 56.3254 3.86 56.2809C4.55 56.2008 4.7 56.2097 4.7 56.3521C4.7 56.4767 4.59 56.5123 3.78 56.6369C3.45 56.6814 3.4 56.6725 3.4 56.5123Z" fill="#424242"/>
<path d="M13.68 56.4589C13.28 56.3343 13.32 56.1385 13.75 56.1385C14.03 56.1385 14.1 56.1741 14.1 56.3076C14.1 56.539 14.01 56.5746 13.68 56.4589Z" fill="#424242"/>
<path d="M7.1 56.1385C7.1 55.9961 7.17 55.9605 7.45 55.9605C7.85 55.9605 7.94 56.1741 7.58 56.2631C7.2 56.3521 7.1 56.3254 7.1 56.1385Z" fill="#424242"/>
<path d="M10.48 56.2542C10.15 56.183 10.28 55.9605 10.65 55.9605C10.93 55.9605 11 55.9961 11 56.1385C11 56.3165 10.86 56.3432 10.48 56.2542Z" fill="#424242"/>
<path d="M41.3 55.1596C41.41 54.9194 41.46 54.7147 41.42 54.7147C41.33 54.7147 41.62 54.5367 41.73 54.5367C41.77 54.5367 41.8 54.6791 41.8 54.8482C41.8 55.0172 41.76 55.1596 41.7 55.1596C41.65 55.1596 41.6 55.2575 41.6 55.3821C41.6 55.5601 41.55 55.6046 41.35 55.6046C41.1 55.6046 41.1 55.6046 41.3 55.1596Z" fill="#424242"/>
<path d="M40.2 54.6791C40.2 54.3943 40.23 54.3587 40.45 54.3587C40.69 54.3587 40.7 54.3676 40.57 54.6435C40.38 55.0528 40.2 55.0706 40.2 54.6791Z" fill="#424242"/>
<path d="M42.2 52.4721C42.2 52.2051 42.33 51.956 42.46 51.956C42.55 51.956 42.6 52.0627 42.6 52.2674C42.6 52.5166 42.56 52.5789 42.4 52.5789C42.29 52.5789 42.2 52.5255 42.2 52.4721Z" fill="#424242"/>
<path d="M1.28 52.2941C1.22 52.1428 1.43 51.778 1.58 51.778C1.65 51.778 1.7 51.9026 1.7 52.0894C1.7 52.3386 1.66 52.4009 1.51 52.4009C1.4 52.4009 1.3 52.3564 1.28 52.2941Z" fill="#424242"/>
<path d="M41 52.0894C41 51.8403 41.04 51.778 41.2 51.778C41.41 51.778 41.44 51.867 41.34 52.2051C41.24 52.5255 41 52.4454 41 52.0894Z" fill="#424242"/>
<path d="M1.48 51.4932C1.42 51.3419 1.63 50.9771 1.78 50.9771C1.85 50.9771 1.9 51.1017 1.9 51.2885C1.9 51.5377 1.86 51.6 1.71 51.6C1.6 51.6 1.5 51.5555 1.48 51.4932Z" fill="#424242"/>
<path d="M42.32 51.066C42.32 50.6923 42.35 50.6211 42.51 50.6211C42.67 50.6211 42.7 50.6923 42.7 51.066C42.7 51.4398 42.67 51.511 42.51 51.511C42.35 51.511 42.32 51.4398 42.32 51.066Z" fill="#424242"/>
<path d="M40.9 49.5977C40.9 49.2417 41.14 49.1617 41.24 49.4909C41.34 49.8202 41.31 49.9092 41.1 49.9092C40.94 49.9092 40.9 49.8469 40.9 49.5977Z" fill="#424242"/>
<path d="M41.93 48.7968C41.82 48.5031 41.83 48.4853 42.06 48.4853C42.27 48.4853 42.3 48.5298 42.3 48.7968C42.3 48.9926 42.25 49.1083 42.17 49.1083C42.09 49.1083 41.99 48.9659 41.93 48.7968Z" fill="#424242"/>
<path d="M2.82 47.4886C2.85 47.4263 3.01 47.3284 3.18 47.2661C3.49 47.1505 3.5 47.1594 3.5 47.3729C3.5 47.5687 3.46 47.5954 3.14 47.5954C2.91 47.5954 2.8 47.5598 2.82 47.4886Z" fill="#424242"/>
<path d="M4.72 46.6877C4.75 46.6254 4.91 46.5275 5.08 46.4652C5.39 46.3495 5.4 46.3584 5.4 46.572C5.4 46.7678 5.36 46.7945 5.04 46.7945C4.81 46.7945 4.7 46.7589 4.72 46.6877Z" fill="#424242"/>
<path d="M48.2 46.5275C48.2 46.3406 48.3 46.3139 48.68 46.4029C49.04 46.4919 48.95 46.7055 48.55 46.7055C48.27 46.7055 48.2 46.6699 48.2 46.5275Z" fill="#424242"/>
<path d="M45.3 45.9936C45.3 45.8067 45.4 45.78 45.78 45.869C46.14 45.958 46.05 46.1716 45.65 46.1716C45.37 46.1716 45.3 46.136 45.3 45.9936Z" fill="#424242"/>
<path d="M7.02 45.7978C7.05 45.7355 7.21 45.6376 7.38 45.5753C7.69 45.4596 7.7 45.4685 7.7 45.6821C7.7 45.8779 7.66 45.9046 7.34 45.9046C7.11 45.9046 7 45.869 7.02 45.7978Z" fill="#424242"/>
<path d="M4.5 45.5931C4.5 45.3973 4.54 45.3706 4.86 45.3706C5.3 45.3706 5.28 45.5308 4.82 45.6999C4.51 45.8156 4.5 45.8067 4.5 45.5931Z" fill="#424242"/>
<path d="M48.88 45.5753C48.55 45.5041 48.68 45.2816 49.05 45.2816C49.33 45.2816 49.4 45.3172 49.4 45.4596C49.4 45.6376 49.26 45.6643 48.88 45.5753Z" fill="#424242"/>
<path d="M49.9 45.4596C49.9 45.3172 49.97 45.2816 50.25 45.2816C50.65 45.2816 50.74 45.4952 50.38 45.5842C50 45.6732 49.9 45.6465 49.9 45.4596Z" fill="#424242"/>
<path d="M54.5 45.4774C54.5 45.4062 55.02 45.1037 55.14 45.1037C55.17 45.1037 55.2 45.2016 55.2 45.3261C55.2 45.5219 55.16 45.5486 54.85 45.5486C54.66 45.5486 54.5 45.513 54.5 45.4774Z" fill="#424242"/>
<path d="M39 45.1927C38.65 44.9346 38.65 44.9346 39.03 44.9257C39.38 44.9257 39.4 44.9435 39.4 45.1927C39.4 45.3439 39.39 45.4596 39.37 45.4596C39.36 45.4596 39.19 45.3439 39 45.1927Z" fill="#424242"/>
<path d="M47.18 45.3973C46.85 45.3261 46.98 45.1037 47.35 45.1037C47.63 45.1037 47.7 45.1393 47.7 45.2816C47.7 45.4596 47.56 45.4863 47.18 45.3973Z" fill="#424242"/>
<path d="M6.1 44.9702C6.1 44.7744 6.14 44.7477 6.46 44.7477C6.9 44.7477 6.88 44.9079 6.42 45.077C6.11 45.1927 6.1 45.1838 6.1 44.9702Z" fill="#424242"/>
<path d="M53 44.8812C53 44.6854 53.04 44.6587 53.35 44.6587C53.59 44.6587 53.7 44.6142 53.7 44.5252C53.7 44.4362 53.81 44.3917 54.05 44.3917C54.53 44.3917 54.49 44.5163 53.93 44.7477C53.04 45.1215 53 45.1215 53 44.8812Z" fill="#424242"/>
<path d="M55.85 44.7477C55.88 44.7032 56.04 44.5786 56.2 44.4807C56.5 44.2938 56.5 44.2938 56.5 44.5608C56.5 44.8189 56.47 44.8367 56.14 44.8367C55.94 44.8367 55.81 44.8011 55.85 44.7477Z" fill="#424242"/>
<path d="M44.53 44.6142C44.1 44.454 44.11 44.3028 44.55 44.3028C44.86 44.3028 44.9 44.3295 44.9 44.5252C44.9 44.6498 44.89 44.7477 44.88 44.7477C44.86 44.7388 44.7 44.6854 44.53 44.6142Z" fill="#424242"/>
<path d="M41.5 44.3027C41.5 44.0358 41.5 44.0358 41.85 44.2316C42.29 44.4896 42.29 44.5697 41.85 44.5697C41.53 44.5697 41.5 44.5519 41.5 44.3027Z" fill="#424242"/>
<path d="M5.4 43.9646C5.4 43.9201 5.51 43.8311 5.65 43.7688C5.79 43.7065 5.9 43.6175 5.9 43.573C5.9 43.5285 5.95 43.5196 6 43.5463C6.06 43.573 6.1 43.6976 6.1 43.8222C6.1 44.0091 6.05 44.0358 5.75 44.0358C5.56 44.0358 5.4 44.0002 5.4 43.9646Z" fill="#424242"/>
<path d="M9.3 43.8133C9.3 43.6175 9.34 43.5908 9.66 43.5908C10.1 43.5908 10.08 43.751 9.62 43.9201C9.31 44.0358 9.3 44.0269 9.3 43.8133Z" fill="#424242"/>
<path d="M33.7 43.7243C33.7 43.5107 33.71 43.5018 34.02 43.6175C34.48 43.7866 34.5 43.9468 34.06 43.9468C33.74 43.9468 33.7 43.9201 33.7 43.7243Z" fill="#424242"/>
<path d="M40.4 43.5819C40.4 43.3149 40.4 43.3149 40.7 43.5018C41.14 43.7777 41.15 43.8578 40.76 43.8578C40.43 43.8578 40.4 43.84 40.4 43.5819Z" fill="#424242"/>
<path d="M4.2 43.6086C4.2 43.4751 4.48 43.1904 4.55 43.2527C4.59 43.2793 4.52 43.395 4.41 43.4929C4.29 43.5997 4.2 43.6442 4.2 43.6086Z" fill="#424242"/>
<path d="M7 43.1637C7 43.0925 7.52 42.7899 7.64 42.7899C7.67 42.7899 7.7 42.8878 7.7 43.0124C7.7 43.2082 7.66 43.2349 7.35 43.2349C7.16 43.2349 7 43.1993 7 43.1637Z" fill="#424242"/>
<path d="M39.5 42.959C39.5 42.692 39.5 42.692 39.8 42.8789C40.24 43.1548 40.25 43.2348 39.86 43.2348C39.53 43.2348 39.5 43.2171 39.5 42.959Z" fill="#424242"/>
<path d="M16.6 42.9501C16.6 42.8166 17.01 42.6297 17.18 42.6831C17.25 42.7009 17.3 42.7899 17.3 42.8878C17.3 43.0213 17.23 43.0569 16.95 43.0569C16.74 43.0569 16.6 43.0124 16.6 42.9501Z" fill="#424242"/>
<path d="M40.9 42.6119C40.55 42.3539 40.55 42.3539 40.93 42.345C41.28 42.345 41.3 42.3628 41.3 42.6119C41.3 42.7632 41.29 42.8789 41.27 42.8789C41.26 42.8789 41.09 42.7632 40.9 42.6119Z" fill="#424242"/>
<path d="M17.9 42.6653C17.9 42.5496 18.18 42.4339 18.48 42.4339C18.54 42.4339 18.6 42.514 18.6 42.6119C18.6 42.7543 18.53 42.7899 18.25 42.7899C18.02 42.7899 17.9 42.7454 17.9 42.6653Z" fill="#424242"/>
<path d="M93.8 42.5674C93.8 42.3539 93.81 42.345 94.12 42.4607C94.58 42.6297 94.6 42.7899 94.16 42.7899C93.84 42.7899 93.8 42.7632 93.8 42.5674Z" fill="#424242"/>
<path d="M6.2 42.3005C6.2 42.1047 6.24 42.078 6.55 42.078C6.98 42.078 6.99 42.167 6.61 42.3717C6.23 42.5674 6.2 42.5674 6.2 42.3005Z" fill="#424242"/>
<path d="M27.93 42.4072C27.41 42.3272 27.3 42.2827 27.3 42.1403C27.3 41.9979 27.35 41.9801 27.73 42.0335C28.82 42.1759 29.2 42.2738 29.2 42.3983C29.2 42.5407 28.89 42.5407 27.93 42.4072Z" fill="#424242"/>
<path d="M14.8 42.167C14.8 42.0246 14.87 41.989 15.15 41.989C15.55 41.989 15.64 42.2026 15.28 42.2916C14.9 42.3805 14.8 42.3538 14.8 42.167Z" fill="#424242"/>
<path d="M38.1 42.1225C38.1 41.8466 38.21 41.8377 38.57 42.1225C38.85 42.336 38.85 42.336 38.48 42.3449C38.14 42.3449 38.1 42.3183 38.1 42.1225Z" fill="#424242"/>
<path d="M26.5 42.078C26.5 41.8911 26.6 41.8644 26.98 41.9534C27.34 42.0424 27.25 42.256 26.85 42.256C26.57 42.256 26.5 42.2204 26.5 42.078Z" fill="#424242"/>
<path d="M23.9 42.0424C23.9 41.9267 24.18 41.811 24.48 41.811C24.54 41.811 24.6 41.8911 24.6 41.989C24.6 42.1314 24.53 42.167 24.25 42.167C24.02 42.167 23.9 42.1225 23.9 42.0424Z" fill="#424242"/>
<path d="M25 41.989C25 41.8021 25.16 41.7665 25.58 41.8644C25.97 41.9623 25.85 42.167 25.4 42.167C25.07 42.167 25 42.1403 25 41.989Z" fill="#424242"/>
<path d="M58.2 41.8733C58.2 41.5796 58.23 41.544 58.45 41.544C58.61 41.544 58.7 41.4906 58.7 41.4105C58.7 41.3215 58.81 41.2771 59.05 41.2771C59.31 41.2771 59.4 41.3127 59.4 41.4283C59.4 41.5084 59.37 41.5529 59.34 41.5173C59.27 41.455 58.5 41.8644 58.33 42.0602C58.22 42.1759 58.2 42.1492 58.2 41.8733Z" fill="#424242"/>
<path d="M4.85 42.0068C4.91 41.9712 5.07 41.7042 5.21 41.4194C5.51 40.7876 5.7 40.6808 5.7 41.1347C5.7 41.3572 5.66 41.455 5.55 41.455C5.45 41.455 5.4 41.5529 5.4 41.7665C5.4 42.0602 5.38 42.078 5.08 42.078C4.9 42.078 4.8 42.0424 4.85 42.0068Z" fill="#424242"/>
<path d="M39.7 41.811C39.35 41.5529 39.35 41.5529 39.73 41.544C40.08 41.544 40.1 41.5618 40.1 41.811C40.1 41.9623 40.09 42.078 40.07 42.078C40.06 42.078 39.89 41.9623 39.7 41.811Z" fill="#424242"/>
<path d="M9.82 41.8822C9.85 41.8199 10.01 41.722 10.18 41.6597C10.49 41.544 10.5 41.5529 10.5 41.7665C10.5 41.9623 10.46 41.989 10.14 41.989C9.91 41.989 9.8 41.9534 9.82 41.8822Z" fill="#424242"/>
<path d="M7.5 41.6775C7.5 41.5173 7.55 41.455 7.7 41.455C7.81 41.455 7.9 41.4194 7.9 41.366C7.9 41.3215 8.06 41.2771 8.25 41.2771C8.44 41.2771 8.6 41.3127 8.6 41.3571C8.6 41.4283 7.68 41.9 7.54 41.9C7.52 41.9 7.5 41.8021 7.5 41.6775Z" fill="#424242"/>
<path d="M94.43 41.722C94.3 41.6775 94.2 41.6686 94.2 41.7042C94.2 41.7843 94 41.5173 94 41.4372C94 41.3928 94.16 41.3661 94.35 41.3661C94.66 41.3661 94.7 41.3928 94.7 41.5885C94.7 41.7131 94.69 41.811 94.68 41.8021C94.66 41.8021 94.55 41.7665 94.43 41.722Z" fill="#424242"/>
<path d="M37 41.5885C37 41.5084 36.91 41.455 36.75 41.455C36.55 41.455 36.5 41.4105 36.5 41.2415C36.5 41.1169 36.55 40.9923 36.6 40.9656C36.66 40.9389 36.7 40.9478 36.7 40.9834C36.7 41.0279 36.93 41.1792 37.2 41.3216C37.48 41.4639 37.7 41.6152 37.7 41.6508C37.7 41.6864 37.54 41.722 37.35 41.722C37.11 41.722 37 41.6775 37 41.5885Z" fill="#424242"/>
<path d="M10.72 41.5262C10.75 41.4639 10.91 41.3661 11.08 41.3038C11.39 41.1881 11.4 41.197 11.4 41.4105C11.4 41.6063 11.36 41.633 11.04 41.633C10.81 41.633 10.7 41.5974 10.72 41.5262Z" fill="#424242"/>
<path d="M18.2 41.455C18.2 41.3127 18.27 41.2771 18.55 41.2771C18.95 41.2771 19.04 41.4906 18.68 41.5796C18.3 41.6686 18.2 41.6419 18.2 41.455Z" fill="#424242"/>
<path d="M61.6 41.4817C61.6 41.3928 61.8 41.1258 61.8 41.2059C61.8 41.2415 61.91 41.2326 62.05 41.1881C62.27 41.108 62.3 41.1258 62.3 41.3216C62.3 41.5173 62.26 41.544 61.95 41.544C61.76 41.544 61.6 41.5173 61.6 41.4817Z" fill="#424242"/>
<path d="M93.43 41.366C93.3 41.3216 93.2 41.3127 93.2 41.3483C93.2 41.4283 93 41.1614 93 41.0813C93 41.0368 93.16 41.0101 93.35 41.0101C93.66 41.0101 93.7 41.0368 93.7 41.2326C93.7 41.3572 93.69 41.455 93.68 41.4461C93.66 41.4461 93.55 41.4105 93.43 41.366Z" fill="#424242"/>
<path d="M20 41.1881C20 41.0457 20.07 41.0101 20.35 41.0101C20.75 41.0101 20.84 41.2237 20.48 41.3127C20.1 41.4016 20 41.3749 20 41.1881Z" fill="#424242"/>
<path d="M59.6 41.0546C59.6 40.8588 59.64 40.8321 59.95 40.8321C60.38 40.8321 60.39 40.9211 60.01 41.1258C59.63 41.3216 59.6 41.3216 59.6 41.0546Z" fill="#424242"/>
<path d="M26.98 41.1258C26.65 41.0546 26.78 40.8321 27.15 40.8321C27.43 40.8321 27.5 40.8677 27.5 41.0101C27.5 41.1881 27.36 41.2148 26.98 41.1258Z" fill="#424242"/>
<path d="M23.3 40.9211C23.3 40.7787 23.37 40.7431 23.65 40.7431C24.05 40.7431 24.14 40.9567 23.78 41.0457C23.4 41.1347 23.3 41.108 23.3 40.9211Z" fill="#424242"/>
<path d="M88.2 40.9211C88.2 40.7342 88.3 40.7075 88.68 40.7965C89.04 40.8855 88.95 41.0991 88.55 41.0991C88.27 41.0991 88.2 41.0635 88.2 40.9211Z" fill="#424242"/>
<path d="M10 40.6096C10 40.4139 10.04 40.3872 10.36 40.3872C10.8 40.3872 10.78 40.5473 10.32 40.7164C10.01 40.8321 10 40.8232 10 40.6096Z" fill="#424242"/>
<path d="M12.92 40.7253C12.95 40.663 13.11 40.5651 13.28 40.5028C13.59 40.3872 13.6 40.3961 13.6 40.6096C13.6 40.8054 13.56 40.8321 13.24 40.8321C13.01 40.8321 12.9 40.7965 12.92 40.7253Z" fill="#424242"/>
<path d="M61.1 40.4317C61.1 40.2359 61.14 40.2092 61.46 40.2092C61.9 40.2092 61.88 40.3694 61.42 40.5384C61.11 40.6541 61.1 40.6452 61.1 40.4317Z" fill="#424242"/>
<path d="M64.7 40.5028C64.7 40.3872 64.79 40.3338 65.05 40.3249C65.34 40.2982 65.4 40.3249 65.4 40.4761C65.4 40.6185 65.33 40.6541 65.05 40.6541C64.78 40.6541 64.7 40.6185 64.7 40.5028Z" fill="#424242"/>
<path d="M86.1 40.485C86.1 40.2715 86.27 40.2181 86.57 40.3338C86.92 40.485 86.85 40.6541 86.45 40.6541C86.17 40.6541 86.1 40.6185 86.1 40.485Z" fill="#424242"/>
<path d="M34.5 40.3427C34.5 40.1291 34.51 40.1202 34.82 40.2359C35.28 40.405 35.3 40.5651 34.86 40.5651C34.54 40.5651 34.5 40.5384 34.5 40.3427Z" fill="#424242"/>
<path d="M10.9 40.2537C10.9 40.0579 10.94 40.0312 11.26 40.0312C11.7 40.0312 11.68 40.1914 11.22 40.3605C10.91 40.4761 10.9 40.4672 10.9 40.2537Z" fill="#424242"/>
<path d="M85.1 40.2982C85.1 40.1113 85.2 40.0846 85.58 40.1736C85.94 40.2626 85.85 40.4762 85.45 40.4762C85.17 40.4762 85.1 40.4406 85.1 40.2982Z" fill="#424242"/>
<path d="M61.9 40.1647C61.9 39.9689 61.94 39.9422 62.26 39.9422C62.7 39.9422 62.68 40.1024 62.22 40.2715C61.91 40.3872 61.9 40.3783 61.9 40.1647Z" fill="#424242"/>
<path d="M66 40.2537C66 40.1825 66.14 40.1024 66.38 40.0668C66.58 40.0312 66.79 39.9867 66.84 39.96C66.89 39.9333 67.1 39.8977 67.31 39.8888C67.63 39.8621 67.7 39.8799 67.7 40.0134C67.7 40.1469 67.57 40.2003 67.06 40.2804C66.23 40.4228 66 40.4139 66 40.2537Z" fill="#424242"/>
<path d="M93.8 39.9778C93.8 39.5862 93.98 39.604 94.17 40.0134C94.3 40.2893 94.29 40.2982 94.05 40.2982C93.83 40.2982 93.8 40.2626 93.8 39.9778Z" fill="#424242"/>
<path d="M88.18 39.8799C87.82 39.7998 87.6 39.693 87.6 39.6218C87.6 39.4706 87.92 39.4617 88.59 39.604C88.97 39.6841 89.1 39.7464 89.1 39.871C89.1 40.0579 88.96 40.0668 88.18 39.8799Z" fill="#424242"/>
<path d="M12.4 39.7197C12.4 39.524 12.44 39.4973 12.76 39.4973C13.2 39.4973 13.18 39.6574 12.72 39.8265C12.41 39.9422 12.4 39.9333 12.4 39.7197Z" fill="#424242"/>
<path d="M69.6 39.7286C69.6 39.6129 69.88 39.4973 70.18 39.4973C70.24 39.4973 70.3 39.5773 70.3 39.6752C70.3 39.8176 70.23 39.8532 69.95 39.8532C69.72 39.8532 69.6 39.8087 69.6 39.7286Z" fill="#424242"/>
<path d="M80.4 39.6752C80.4 39.4883 80.5 39.4617 80.88 39.5506C81.24 39.6396 81.15 39.8532 80.75 39.8532C80.47 39.8532 80.4 39.8176 80.4 39.6752Z" fill="#424242"/>
<path d="M13.5 39.3638C13.5 39.168 13.54 39.1413 13.86 39.1413C14.3 39.1413 14.28 39.3015 13.82 39.4705C13.51 39.5862 13.5 39.5773 13.5 39.3638Z" fill="#424242"/>
<path d="M17.4 39.4616C17.4 39.346 17.68 39.2303 17.98 39.2303C18.04 39.2303 18.1 39.3104 18.1 39.4083C18.1 39.5506 18.03 39.5862 17.75 39.5862C17.52 39.5862 17.4 39.5417 17.4 39.4616Z" fill="#424242"/>
<path d="M31.5 39.4083C31.5 39.2214 31.6 39.1947 31.98 39.2837C32.34 39.3727 32.25 39.5862 31.85 39.5862C31.57 39.5862 31.5 39.5506 31.5 39.4083Z" fill="#424242"/>
<path d="M85.16 39.3282C85.13 39.2926 84.76 39.2036 84.33 39.1502C83.23 38.99 83.1 38.9633 83.1 38.8209C83.1 38.6607 83.29 38.6607 84.5 38.8476C85.32 38.9633 85.5 39.0167 85.5 39.1413C85.5 39.3104 85.24 39.4527 85.16 39.3282Z" fill="#424242"/>
<path d="M30.3 39.1502C30.3 38.9366 30.47 38.8832 30.77 38.9989C31.12 39.1502 31.05 39.3193 30.65 39.3193C30.37 39.3193 30.3 39.2837 30.3 39.1502Z" fill="#424242"/>
<path d="M6.51 38.901C6.7 38.4561 7.32 37.4505 7.41 37.4505C7.6 37.4505 7.48 38.0111 7.18 38.5628C6.92 39.0167 6.81 39.1413 6.63 39.1413C6.43 39.1413 6.41 39.1146 6.51 38.901Z" fill="#424242"/>
<path d="M29.4 38.9633C29.4 38.7764 29.5 38.7497 29.88 38.8387C30.24 38.9277 30.15 39.1413 29.75 39.1413C29.47 39.1413 29.4 39.1057 29.4 38.9633Z" fill="#424242"/>
<path d="M33.83 39.0078C33.4 38.8476 33.41 38.6963 33.85 38.6963C34.16 38.6963 34.2 38.723 34.2 38.9188C34.2 39.0434 34.19 39.1413 34.18 39.1413C34.16 39.1324 34 39.079 33.83 39.0078Z" fill="#424242"/>
<path d="M68 38.7853C68 38.6429 68.07 38.6073 68.35 38.6073C68.75 38.6073 68.84 38.8209 68.48 38.9099C68.1 38.9989 68 38.9722 68 38.7853Z" fill="#424242"/>
<path d="M22 38.7586C22 38.6874 22.16 38.5984 22.35 38.545C22.68 38.4472 22.7 38.4561 22.7 38.6607C22.7 38.8476 22.65 38.8743 22.35 38.8743C22.13 38.8743 22 38.8298 22 38.7586Z" fill="#424242"/>
<path d="M27.3 38.6963C27.3 38.5095 27.4 38.4828 27.78 38.5717C28.14 38.6607 28.05 38.8743 27.65 38.8743C27.37 38.8743 27.3 38.8387 27.3 38.6963Z" fill="#424242"/>
<path d="M23.5 38.6607C23.5 38.545 23.78 38.4294 24.08 38.4294C24.14 38.4294 24.2 38.5094 24.2 38.6073C24.2 38.7497 24.13 38.7853 23.85 38.7853C23.62 38.7853 23.5 38.7408 23.5 38.6607Z" fill="#424242"/>
<path d="M26 38.6073C26 38.4205 26.1 38.3938 26.48 38.4827C26.84 38.5717 26.75 38.7853 26.35 38.7853C26.07 38.7853 26 38.7497 26 38.6073Z" fill="#424242"/>
<path d="M78.48 38.545C78.15 38.4738 78.28 38.2514 78.65 38.2514C78.93 38.2514 79 38.287 79 38.4294C79 38.6073 78.86 38.634 78.48 38.545Z" fill="#424242"/>
<path d="M74.3 38.3404C74.3 38.1891 74.37 38.1624 74.7 38.1624C75.15 38.1624 75.27 38.3671 74.88 38.465C74.46 38.5628 74.3 38.5272 74.3 38.3404Z" fill="#424242"/>
<path d="M75.68 38.4561C75.32 38.376 75.48 38.1624 75.9 38.1624C76.23 38.1624 76.3 38.1891 76.3 38.3404C76.3 38.5183 76.1 38.5539 75.68 38.4561Z" fill="#424242"/>
<path d="M31.13 38.3048C30.78 38.1624 30.85 37.9844 31.25 37.9844C31.53 37.9844 31.6 38.02 31.6 38.1535C31.6 38.3671 31.42 38.4205 31.13 38.3048Z" fill="#424242"/>
<path d="M27.88 37.7708C27.48 37.6462 27.52 37.4505 27.95 37.4505C28.23 37.4505 28.3 37.4861 28.3 37.6195C28.3 37.8509 28.21 37.8865 27.88 37.7708Z" fill="#424242"/>
<path d="M8.8 35.0833C8.8 35.0477 9 34.7362 9.24 34.3803C9.49 34.0243 9.66 33.7039 9.63 33.6772C9.59 33.6506 9.64 33.6239 9.73 33.6239C9.86 33.6239 9.9 33.7039 9.9 33.9353C9.9 34.1489 9.85 34.2468 9.75 34.2468C9.66 34.2468 9.6 34.3269 9.6 34.4693C9.6 34.6117 9.54 34.6917 9.45 34.6917C9.36 34.6917 9.3 34.7718 9.3 34.9142C9.3 35.0922 9.25 35.1367 9.05 35.1367C8.91 35.1367 8.8 35.11 8.8 35.0833Z" fill="#424242"/>
<path d="M89.3 32.8674C89.3 32.7962 89.26 32.7339 89.2 32.7339C89.15 32.7339 89.1 32.5916 89.1 32.4225C89.1 32.2534 89.13 32.111 89.18 32.111C89.25 32.111 89.8 32.8407 89.8 32.9475C89.8 32.9742 89.69 33.0009 89.55 33.0009C89.39 33.0009 89.3 32.9475 89.3 32.8674Z" fill="#424242"/>
<path d="M12.2 30.3312C12.51 29.9396 12.6 29.9307 12.6 30.2778C12.6 30.5715 12.58 30.5982 12.29 30.5982C11.99 30.5982 11.99 30.5982 12.2 30.3312Z" fill="#424242"/>
<path d="M11 30.2066C11 30.1888 10.89 29.6905 10.75 29.0853C10.45 27.786 10.45 27.8394 10.68 27.8394C10.83 27.8394 10.9 28.0174 11.09 28.9073C11.32 29.9396 11.32 30.2422 11.1 30.2422C11.05 30.2422 11 30.2244 11 30.2066Z" fill="#424242"/>
<path d="M12.8 29.6193C13.11 29.2277 13.2 29.2188 13.2 29.5659C13.2 29.8595 13.18 29.8862 12.89 29.8862C12.59 29.8862 12.59 29.8862 12.8 29.6193Z" fill="#424242"/>
<path d="M11.9 28.9607C11.9 28.6671 11.92 28.6404 12.21 28.6404C12.51 28.6404 12.51 28.6404 12.3 28.9073C11.99 29.2989 11.9 29.3078 11.9 28.9607Z" fill="#424242"/>
<path d="M14 28.2844C14.31 27.8928 14.4 27.8839 14.4 28.231C14.4 28.5247 14.38 28.5514 14.09 28.5514C13.79 28.5514 13.79 28.5514 14 28.2844Z" fill="#424242"/>
<path d="M12.7 28.0708C12.7 27.7772 12.72 27.7505 13.01 27.7505C13.31 27.7505 13.31 27.7505 13.1 28.0174C12.79 28.409 12.7 28.4179 12.7 28.0708Z" fill="#424242"/>
<path d="M86.84 27.8661C86.11 27.0741 86.14 27.1275 86.49 27.1275C86.77 27.1275 86.8 27.1542 86.8 27.3945C86.8 27.617 86.84 27.6615 87.05 27.6615C87.27 27.6615 87.3 27.6971 87.3 27.9729C87.3 28.142 87.28 28.2844 87.27 28.2844C87.25 28.2844 87.06 28.0975 86.84 27.8661Z" fill="#424242"/>
<path d="M15 27.2165C15.31 26.825 15.4 26.8161 15.4 27.1631C15.4 27.4568 15.38 27.4835 15.09 27.4835C14.79 27.4835 14.79 27.4835 15 27.2165Z" fill="#424242"/>
<path d="M84.3 26.8161C84.3 26.4957 84.3 26.4957 84.54 26.6559C84.67 26.7449 84.76 26.8339 84.74 26.8517C84.72 26.8695 84.75 26.9406 84.81 27.0118C84.9 27.1008 84.86 27.1275 84.61 27.1275C84.32 27.1275 84.3 27.1097 84.3 26.8161Z" fill="#424242"/>
<path d="M10.16 26.3978C10.06 26.0596 10.09 25.9706 10.3 25.9706C10.46 25.9706 10.5 26.0329 10.5 26.2821C10.5 26.6381 10.26 26.7182 10.16 26.3978Z" fill="#424242"/>
<path d="M85.15 26.1842C84.99 26.0507 84.92 25.9795 85 26.024C85.13 26.0863 85.13 26.0685 85.01 25.9439C84.89 25.8105 84.91 25.7927 85.19 25.7927C85.48 25.7927 85.5 25.8105 85.5 26.1041C85.5 26.2732 85.49 26.4156 85.48 26.4156C85.46 26.4067 85.32 26.3088 85.15 26.1842Z" fill="#424242"/>
<path d="M88.9 25.3922C88.9 25.143 88.94 25.0807 89.1 25.0807C89.31 25.0807 89.34 25.1697 89.24 25.5079C89.14 25.8283 88.9 25.7482 88.9 25.3922Z" fill="#424242"/>
<path d="M82.4 25.1608C82.4 24.9383 82.43 24.9027 82.53 24.9828C82.61 25.0362 82.69 25.0629 82.71 25.0451C82.73 25.0273 82.83 25.1074 82.93 25.2231C83.11 25.4367 83.11 25.4367 82.75 25.4367C82.42 25.4367 82.4 25.4189 82.4 25.1608Z" fill="#424242"/>
<path d="M9.86 24.9739C9.76 24.6358 9.79 24.5468 10 24.5468C10.16 24.5468 10.2 24.6091 10.2 24.8583C10.2 25.2142 9.96 25.2943 9.86 24.9739Z" fill="#424242"/>
<path d="M17.57 24.8672C17.67 24.7515 17.77 24.6714 17.79 24.6892C17.81 24.707 17.89 24.6803 17.97 24.6269C18.07 24.5468 18.1 24.5824 18.1 24.8049C18.1 25.0629 18.08 25.0807 17.75 25.0807C17.39 25.0807 17.39 25.0807 17.57 24.8672Z" fill="#424242"/>
<path d="M83.75 24.8138C83.71 24.7604 83.66 24.7426 83.62 24.7604C83.58 24.7782 83.47 24.6981 83.37 24.5824C83.19 24.3688 83.19 24.3688 83.55 24.3688C83.87 24.3688 83.9 24.3866 83.9 24.6358C83.9 24.9116 83.86 24.965 83.75 24.8138Z" fill="#424242"/>
<path d="M81.3 24.2709C81.3 24.0039 81.3 24.0039 81.6 24.1908C82.04 24.4667 82.05 24.5468 81.66 24.5468C81.33 24.5468 81.3 24.529 81.3 24.2709Z" fill="#424242"/>
<path d="M89.2 23.9684C89.2 23.7192 89.24 23.6569 89.4 23.6569C89.61 23.6569 89.64 23.7459 89.54 24.084C89.44 24.4044 89.2 24.3243 89.2 23.9684Z" fill="#424242"/>
<path d="M82.75 24.0128C82.71 23.9594 82.66 23.9417 82.62 23.9594C82.58 23.9772 82.47 23.8972 82.37 23.7815C82.19 23.5679 82.19 23.5679 82.55 23.5679C82.87 23.5679 82.9 23.5857 82.9 23.8349C82.9 24.1107 82.86 24.1641 82.75 24.0128Z" fill="#424242"/>
<path d="M79.8 23.203C79.8 22.9361 79.8 22.9361 80.1 23.1229C80.54 23.3988 80.55 23.4789 80.16 23.4789C79.83 23.4789 79.8 23.4611 79.8 23.203Z" fill="#424242"/>
<path d="M9.46 22.9272C9.36 22.589 9.39 22.5 9.6 22.5C9.76 22.5 9.8 22.5623 9.8 22.8115C9.8 23.1674 9.56 23.2475 9.46 22.9272Z" fill="#424242"/>
<path d="M20.1 23.0962C20.1 23.0784 20.26 22.9449 20.45 22.7937C20.8 22.5178 20.8 22.5178 20.8 22.8204C20.8 23.1051 20.78 23.1229 20.45 23.1229C20.26 23.1229 20.1 23.114 20.1 23.0962Z" fill="#424242"/>
<path d="M80.8 22.589C80.45 22.3309 80.45 22.3309 80.83 22.322C81.18 22.322 81.2 22.3398 81.2 22.589C81.2 22.7403 81.19 22.856 81.17 22.856C81.16 22.856 80.99 22.7403 80.8 22.589Z" fill="#424242"/>
<path d="M78.7 22.4644C78.7 22.1618 78.7 22.1618 79.05 22.4377C79.24 22.589 79.4 22.7225 79.4 22.7403C79.4 22.7581 79.24 22.767 79.05 22.767C78.72 22.767 78.7 22.7492 78.7 22.4644Z" fill="#424242"/>
<path d="M21.15 22.411C21.18 22.3665 21.34 22.2419 21.5 22.144C21.8 21.9571 21.8 21.9572 21.8 22.2241C21.8 22.4822 21.77 22.5 21.44 22.5C21.24 22.5 21.11 22.4644 21.15 22.411Z" fill="#424242"/>
<path d="M19.8 22.0017C19.8 21.7169 19.82 21.6991 20.15 21.6991C20.34 21.6991 20.5 21.708 20.5 21.7258C20.5 21.7436 20.34 21.8771 20.15 22.0283C19.8 22.3042 19.8 22.3042 19.8 22.0017Z" fill="#424242"/>
<path d="M76.1 21.0405C76.1 20.916 76.15 20.7914 76.2 20.7647C76.26 20.738 76.3 20.7469 76.3 20.7914C76.3 20.8359 76.41 20.9249 76.55 20.9872C76.9 21.1562 76.86 21.2541 76.45 21.2541C76.15 21.2541 76.1 21.2274 76.1 21.0405Z" fill="#424242"/>
<path d="M78.14 20.9427C78.02 20.8715 77.9 20.8448 77.86 20.8715C77.83 20.8982 77.8 20.8626 77.8 20.7825C77.8 20.6668 77.89 20.6312 78.15 20.6312C78.46 20.6312 78.5 20.6579 78.5 20.8537C78.5 21.1117 78.43 21.1295 78.14 20.9427Z" fill="#424242"/>
<path d="M21.9 20.6757C21.9 20.4799 21.94 20.4532 22.25 20.4532C22.51 20.4532 22.6 20.4888 22.6 20.6045C22.6 20.6846 22.57 20.7202 22.54 20.6935C22.5 20.6668 22.38 20.6935 22.26 20.7647C21.97 20.9516 21.9 20.9338 21.9 20.6757Z" fill="#424242"/>
<path d="M24.9 20.382C24.9 20.3108 25.42 20.0083 25.54 20.0083C25.57 20.0083 25.6 20.1061 25.6 20.2307C25.6 20.4265 25.56 20.4532 25.25 20.4532C25.06 20.4532 24.9 20.4176 24.9 20.382Z" fill="#424242"/>
<path d="M76.84 20.2307C76.72 20.1595 76.6 20.1328 76.56 20.1595C76.53 20.1862 76.5 20.1506 76.5 20.0706C76.5 19.9549 76.59 19.9193 76.85 19.9193C77.16 19.9193 77.2 19.946 77.2 20.1417C77.2 20.3998 77.13 20.4176 76.84 20.2307Z" fill="#424242"/>
<path d="M8.96 20.0794C8.86 19.7413 8.89 19.6523 9.1 19.6523C9.26 19.6523 9.3 19.7146 9.3 19.9638C9.3 20.3197 9.06 20.3998 8.96 20.0794Z" fill="#424242"/>
<path d="M74.1 20.0527C74.1 19.7858 74.13 19.7858 74.51 19.9816C74.89 20.1862 74.88 20.2752 74.45 20.2752C74.14 20.2752 74.1 20.2485 74.1 20.0527Z" fill="#424242"/>
<path d="M90 19.7858C90 19.5366 90.04 19.4743 90.2 19.4743C90.41 19.4743 90.44 19.5633 90.34 19.9015C90.24 20.2218 90 20.1417 90 19.7858Z" fill="#424242"/>
<path d="M75.74 19.6612C75.67 19.5544 75.76 19.4209 76.09 19.1183C76.33 18.8959 76.49 18.7802 76.45 18.8514C76.37 18.9671 76.38 18.9671 76.53 18.8603C76.68 18.7535 76.7 18.7713 76.7 19.0205C76.7 19.2696 76.67 19.2963 76.4 19.2963C76.14 19.2963 76.1 19.3319 76.1 19.5455C76.1 19.8303 75.88 19.8926 75.74 19.6612Z" fill="#424242"/>
<path d="M72.3 19.2518C72.3 19.0383 72.31 19.0294 72.62 19.1451C73.08 19.3141 73.1 19.4743 72.66 19.4743C72.34 19.4743 72.3 19.4476 72.3 19.2518Z" fill="#424242"/>
<path d="M25.2 18.9849C25.2 18.7891 25.24 18.7624 25.55 18.7624C25.98 18.7624 25.99 18.8514 25.61 19.0561C25.23 19.2518 25.2 19.2518 25.2 18.9849Z" fill="#424242"/>
<path d="M74.5 19.1183C74.5 19.0917 74.34 18.9938 74.15 18.9137C73.96 18.8336 73.8 18.7268 73.8 18.6734C73.8 18.6289 73.96 18.5844 74.15 18.5844C74.37 18.5844 74.5 18.6289 74.5 18.7001C74.5 18.7802 74.61 18.8069 74.87 18.7802C75.19 18.7446 75.23 18.7535 75.12 18.8692C75.06 18.9404 75.03 19.0294 75.07 19.0561C75.1 19.0917 75.09 19.1272 75.04 19.1272C74.66 19.1806 74.5 19.1717 74.5 19.1183Z" fill="#424242"/>
<path d="M28.4 18.8514C28.4 18.798 28.52 18.709 28.68 18.6467C28.83 18.5933 28.98 18.5043 29.02 18.4509C29.06 18.4064 29.1 18.4954 29.1 18.6556C29.1 18.9226 29.08 18.9404 28.75 18.9404C28.56 18.9404 28.4 18.8959 28.4 18.8514Z" fill="#424242"/>
<path d="M26.2 18.5399C26.2 18.3441 26.24 18.3174 26.56 18.3174C27 18.3174 26.98 18.4776 26.52 18.6467C26.21 18.7624 26.2 18.7535 26.2 18.5399Z" fill="#424242"/>
<path d="M76.96 18.4242C76.93 18.3797 77.12 18.175 77.37 17.9526C77.63 17.739 77.8 17.6233 77.75 17.6945C77.67 17.8102 77.68 17.8102 77.83 17.7034C77.98 17.5966 78 17.6144 78 17.8458C78 18.1661 77.64 18.4954 77.27 18.4954C77.13 18.4954 76.99 18.4598 76.96 18.4242Z" fill="#424242"/>
<path d="M75.77 18.353C75.46 18.0772 76.02 17.3385 76.54 17.3385C76.79 17.3385 76.81 17.3563 76.69 17.4898C76.57 17.6144 76.57 17.6322 76.7 17.5699C76.78 17.5343 76.73 17.5966 76.59 17.7123C76.44 17.828 76.22 18.0327 76.09 18.1661C75.95 18.3085 75.81 18.3886 75.77 18.353Z" fill="#424242"/>
<path d="M72.43 18.1839C72 18.0238 72.01 17.8725 72.45 17.8725C72.76 17.8725 72.8 17.8992 72.8 18.095C72.8 18.2195 72.79 18.3174 72.78 18.3174C72.76 18.3085 72.6 18.2551 72.43 18.1839Z" fill="#424242"/>
<path d="M30.4 18.1661C30.4 18.0772 30.6 17.8102 30.6 17.8903C30.6 17.9259 30.71 17.917 30.85 17.8725C31.07 17.7924 31.1 17.8102 31.1 18.006C31.1 18.2017 31.06 18.2284 30.75 18.2284C30.56 18.2284 30.4 18.2017 30.4 18.1661Z" fill="#424242"/>
<path d="M68.7 17.917C68.7 17.7212 68.73 17.7034 68.95 17.7835C69.09 17.828 69.2 17.8369 69.2 17.8013C69.2 17.7212 69.4 17.9882 69.4 18.0772C69.4 18.1127 69.24 18.1394 69.05 18.1394C68.74 18.1394 68.7 18.1127 68.7 17.917Z" fill="#424242"/>
<path d="M19.8 17.6856C19.8 17.4631 19.83 17.4275 19.93 17.5076C20.01 17.561 20.09 17.5788 20.12 17.561C20.15 17.5343 20.25 17.6144 20.34 17.739C20.5 17.9615 20.5 17.9615 20.15 17.9615C19.82 17.9615 19.8 17.9437 19.8 17.6856Z" fill="#424242"/>
<path d="M71.13 17.6945C71 17.65 70.9 17.6411 70.9 17.6767C70.9 17.7568 70.7 17.4898 70.7 17.4097C70.7 17.3652 70.86 17.3385 71.05 17.3385C71.36 17.3385 71.4 17.3652 71.4 17.561C71.4 17.6856 71.39 17.7835 71.38 17.7746C71.36 17.7746 71.25 17.739 71.13 17.6945Z" fill="#424242"/>
<path d="M21.05 17.3741C20.78 17.0627 20.78 17.0627 21.16 17.0894C21.52 17.1161 21.55 17.1339 21.58 17.4186C21.61 17.7034 21.6 17.7212 21.44 17.5966C21.33 17.5165 21.29 17.5165 21.34 17.5877C21.49 17.8102 21.31 17.6856 21.05 17.3741Z" fill="#424242"/>
<path d="M32.12 17.5877C32.15 17.5254 32.31 17.4275 32.48 17.3652C32.79 17.2495 32.8 17.2584 32.8 17.472C32.8 17.6678 32.76 17.6945 32.44 17.6945C32.21 17.6945 32.1 17.6589 32.12 17.5877Z" fill="#424242"/>
<path d="M29.4 17.3652C29.4 17.0894 29.42 17.0716 29.75 17.0716C29.94 17.0716 30.1 17.0983 30.1 17.1428C30.1 17.2673 29.95 17.383 29.75 17.4097C29.64 17.4275 29.52 17.4898 29.48 17.5432C29.44 17.6055 29.4 17.5165 29.4 17.3652Z" fill="#424242"/>
<path d="M70.03 17.294C69.6 17.1339 69.61 16.9826 70.05 16.9826C70.36 16.9826 70.4 17.0093 70.4 17.205C70.4 17.3296 70.39 17.4275 70.38 17.4275C70.36 17.4186 70.2 17.3652 70.03 17.294Z" fill="#424242"/>
<path d="M77 16.9025C77 16.6444 77.02 16.6266 77.36 16.6266C77.71 16.6266 77.71 16.6266 77.5 16.8936C77.29 17.1516 77.11 17.2673 77.26 17.0538C77.31 16.9737 77.28 16.9737 77.17 17.0627C77.02 17.1694 77 17.1516 77 16.9025Z" fill="#424242"/>
<path d="M31 16.7601C31 16.5643 31.04 16.5376 31.36 16.5376C31.8 16.5376 31.78 16.6978 31.32 16.8669C31.01 16.9826 31 16.9737 31 16.7601Z" fill="#424242"/>
<path d="M18.3 16.4397C18.3 16.2172 18.33 16.1816 18.43 16.2617C18.51 16.3151 18.59 16.3418 18.61 16.324C18.63 16.3062 18.73 16.3863 18.83 16.502C19.01 16.7156 19.01 16.7156 18.65 16.7156C18.32 16.7156 18.3 16.6978 18.3 16.4397Z" fill="#424242"/>
<path d="M35.8 16.5287C35.8 16.4308 35.84 16.3685 35.88 16.3952C35.93 16.4219 36.21 16.3863 36.51 16.3151C37.21 16.1461 37.3 16.1461 37.3 16.3418C37.3 16.4664 37.17 16.5287 36.79 16.6088C36.03 16.769 35.8 16.7512 35.8 16.5287Z" fill="#424242"/>
<path d="M67.68 16.5643C67.35 16.4931 67.48 16.2706 67.85 16.2706C68.13 16.2706 68.2 16.3062 68.2 16.4486C68.2 16.6266 68.06 16.6533 67.68 16.5643Z" fill="#424242"/>
<path d="M61.4 16.1016C61.4 15.888 61.57 15.8346 61.87 15.9503C62.22 16.1016 62.15 16.2706 61.75 16.2706C61.47 16.2706 61.4 16.235 61.4 16.1016Z" fill="#424242"/>
<path d="M19.65 16.0927C19.61 16.0393 19.56 16.0215 19.52 16.0393C19.48 16.0571 19.37 15.977 19.27 15.8613C19.09 15.6477 19.09 15.6477 19.45 15.6477C19.77 15.6477 19.8 15.6655 19.8 15.9147C19.8 16.1905 19.76 16.2439 19.65 16.0927Z" fill="#424242"/>
<path d="M33.4 15.9058C33.4 15.6655 33.42 15.6388 33.55 15.7367C33.63 15.799 33.7 15.8168 33.7 15.7723C33.7 15.7367 33.76 15.7812 33.84 15.8791C34 16.066 33.9 16.1817 33.58 16.1817C33.45 16.1817 33.4 16.1105 33.4 15.9058Z" fill="#424242"/>
<path d="M66.08 16.1194C65.75 16.0482 65.88 15.8257 66.25 15.8257C66.53 15.8257 66.6 15.8613 66.6 16.0037C66.6 16.1817 66.46 16.2083 66.08 16.1194Z" fill="#424242"/>
<path d="M79.87 15.8791C79.97 15.7634 80.07 15.6833 80.09 15.7011C80.11 15.7189 80.19 15.6922 80.27 15.6388C80.37 15.5587 80.4 15.5943 80.4 15.8168C80.4 16.0749 80.38 16.0927 80.05 16.0927C79.69 16.0927 79.69 16.0927 79.87 15.8791Z" fill="#424242"/>
<path d="M8.33 15.6032C8.22 15.3095 8.23 15.2917 8.46 15.2917C8.67 15.2917 8.7 15.3362 8.7 15.6032C8.7 15.799 8.65 15.9147 8.57 15.9147C8.49 15.9147 8.39 15.7723 8.33 15.6032Z" fill="#424242"/>
<path d="M59.13 15.8524C58.88 15.8257 58.8 15.7723 58.8 15.6299C58.8 15.4697 58.84 15.4608 59.18 15.5053C59.99 15.6299 60.1 15.6655 60.1 15.7901C60.1 15.9147 59.86 15.9325 59.13 15.8524Z" fill="#424242"/>
<path d="M17.1 15.4608C17.1 15.2383 17.13 15.2028 17.23 15.2828C17.31 15.3362 17.39 15.3629 17.41 15.3451C17.43 15.3273 17.53 15.4074 17.63 15.5231C17.81 15.7367 17.81 15.7367 17.45 15.7367C17.12 15.7367 17.1 15.7189 17.1 15.4608Z" fill="#424242"/>
<path d="M41.2 15.621C41.2 15.5053 41.75 15.2739 41.84 15.3629C41.87 15.3896 41.9 15.4875 41.9 15.5765C41.9 15.7011 41.82 15.7367 41.55 15.7367C41.33 15.7367 41.2 15.6922 41.2 15.621Z" fill="#424242"/>
<path d="M42 15.532C42 15.4163 42.55 15.185 42.64 15.2739C42.67 15.3006 42.7 15.3985 42.7 15.4875C42.7 15.6121 42.62 15.6477 42.35 15.6477C42.13 15.6477 42 15.6032 42 15.532Z" fill="#424242"/>
<path d="M42.8 15.4341C42.8 15.3184 43.08 15.2028 43.38 15.2028C43.44 15.2028 43.5 15.2828 43.5 15.3807C43.5 15.5231 43.43 15.5587 43.15 15.5587C42.92 15.5587 42.8 15.5142 42.8 15.4341Z" fill="#424242"/>
<path d="M43.6 15.354C43.6 15.2383 44.15 15.007 44.24 15.096C44.27 15.1227 44.3 15.2205 44.3 15.3095C44.3 15.4341 44.22 15.4697 43.95 15.4697C43.73 15.4697 43.6 15.4252 43.6 15.354Z" fill="#424242"/>
<path d="M44.6 15.2561C44.6 15.1405 44.88 15.0248 45.18 15.0248C45.24 15.0248 45.3 15.1049 45.3 15.2028C45.3 15.3451 45.23 15.3807 44.95 15.3807C44.72 15.3807 44.6 15.3362 44.6 15.2561Z" fill="#424242"/>
<path d="M90.7 15.0693C90.7 14.829 90.74 14.7578 90.88 14.7578C91.15 14.7578 91.19 14.829 91.07 15.1227C90.91 15.4875 90.7 15.4519 90.7 15.0693Z" fill="#424242"/>
<path d="M46 15.1672C46 15.0515 46.28 14.9358 46.58 14.9358C46.64 14.9358 46.7 15.0159 46.7 15.1138C46.7 15.2561 46.63 15.2917 46.35 15.2917C46.12 15.2917 46 15.2472 46 15.1672Z" fill="#424242"/>
<path d="M48.8 15.0782C48.8 15.0159 48.9 14.9358 49.03 14.9002C49.44 14.8023 49.6 14.8379 49.6 15.0248C49.6 15.1761 49.53 15.2028 49.2 15.2028C48.93 15.2028 48.8 15.1672 48.8 15.0782Z" fill="#424242"/>
<path d="M50.5 15.0248C50.5 14.8379 50.66 14.8023 51.08 14.9002C51.47 14.9981 51.35 15.2028 50.9 15.2028C50.57 15.2028 50.5 15.1761 50.5 15.0248Z" fill="#424242"/>
<path d="M80.97 14.9892C81.07 14.8735 81.17 14.7934 81.19 14.8112C81.21 14.829 81.29 14.8023 81.37 14.7489C81.47 14.6688 81.5 14.7044 81.5 14.9269C81.5 15.185 81.48 15.2028 81.15 15.2028C80.79 15.2028 80.79 15.2028 80.97 14.9892Z" fill="#424242"/>
<path d="M18.35 15.0248C18.31 14.9714 18.26 14.9536 18.22 14.9714C18.18 14.9892 18.07 14.9091 17.97 14.7934C17.79 14.5798 17.79 14.5798 18.15 14.5798C18.47 14.5798 18.5 14.5976 18.5 14.8468C18.5 15.1227 18.46 15.1761 18.35 15.0248Z" fill="#424242"/>
<path d="M66.87 14.9002C66.97 14.7845 67.07 14.7044 67.09 14.7222C67.11 14.74 67.19 14.7133 67.27 14.6599C67.37 14.5798 67.4 14.6154 67.4 14.8379C67.4 15.096 67.38 15.1138 67.05 15.1138C66.69 15.1138 66.69 15.1138 66.87 14.9002Z" fill="#424242"/>
<path d="M16.2 14.7489C16.2 14.5264 16.23 14.4908 16.33 14.5709C16.41 14.6243 16.49 14.651 16.51 14.6332C16.53 14.6154 16.63 14.6955 16.73 14.8112C16.91 15.0248 16.91 15.0248 16.55 15.0248C16.22 15.0248 16.2 15.007 16.2 14.7489Z" fill="#424242"/>
<path d="M8.26 14.473C8.16 14.1349 8.19 14.0459 8.4 14.0459C8.56 14.0459 8.6 14.1082 8.6 14.3573C8.6 14.7133 8.36 14.7934 8.26 14.473Z" fill="#424242"/>
<path d="M17.45 14.3128C17.41 14.2594 17.36 14.2417 17.32 14.2594C17.28 14.2772 17.17 14.1972 17.07 14.0815C16.89 13.8679 16.89 13.8679 17.25 13.8679C17.57 13.8679 17.6 13.8857 17.6 14.1349C17.6 14.4107 17.56 14.4641 17.45 14.3128Z" fill="#424242"/>
<path d="M80.4 14.0548C80.4 13.7967 80.42 13.7789 80.75 13.7789C81.11 13.7789 81.11 13.7789 80.93 13.9925C80.83 14.1082 80.73 14.1883 80.71 14.1705C80.69 14.1527 80.61 14.1794 80.53 14.2328C80.43 14.3128 80.4 14.2772 80.4 14.0548Z" fill="#424242"/>
<path d="M82.27 13.9213C82.37 13.8056 82.47 13.7255 82.49 13.7433C82.51 13.7611 82.59 13.7344 82.67 13.681C82.77 13.6009 82.8 13.6365 82.8 13.859C82.8 14.1171 82.78 14.1349 82.45 14.1349C82.09 14.1349 82.09 14.1349 82.27 13.9213Z" fill="#424242"/>
<path d="M68.27 13.8323C68.37 13.7166 68.47 13.6365 68.49 13.6543C68.51 13.6721 68.59 13.6454 68.67 13.592C68.77 13.5119 68.8 13.5475 68.8 13.77C68.8 14.0281 68.78 14.0459 68.45 14.0459C68.09 14.0459 68.09 14.0459 68.27 13.8323Z" fill="#424242"/>
<path d="M14.4 13.5119C14.4 13.3784 14.33 13.3339 14.15 13.3339C13.94 13.3339 13.9 13.2894 13.9 13.0581C13.9 12.7911 13.9 12.7911 14.18 12.9691C14.33 13.067 14.61 13.2628 14.8 13.414C15.15 13.681 15.15 13.681 14.78 13.6899C14.47 13.6899 14.4 13.6632 14.4 13.5119Z" fill="#424242"/>
<path d="M15.9 13.156C15.55 12.8979 15.55 12.8979 15.93 12.889C16.28 12.889 16.3 12.9068 16.3 13.156C16.3 13.3072 16.29 13.4229 16.27 13.4229C16.26 13.4229 16.09 13.3072 15.9 13.156Z" fill="#424242"/>
<path d="M90.9 12.7555C90.9 12.5063 90.94 12.444 91.1 12.444C91.31 12.444 91.34 12.533 91.24 12.8712C91.14 13.1916 90.9 13.1115 90.9 12.7555Z" fill="#424242"/>
<path d="M69.67 12.7644C69.77 12.6487 69.87 12.5686 69.89 12.5864C69.91 12.6042 69.99 12.5775 70.07 12.5241C70.17 12.444 70.2 12.4796 70.2 12.7021C70.2 12.9602 70.18 12.978 69.85 12.978C69.49 12.978 69.49 12.978 69.67 12.7644Z" fill="#424242"/>
<path d="M82.1 12.7199C82.1 12.4618 82.12 12.444 82.45 12.444C82.77 12.444 82.8 12.4262 82.8 12.1771C82.8 11.9279 82.83 11.9101 83.17 11.9101C83.54 11.9101 83.54 11.9101 83 12.3817C82.7 12.6309 82.43 12.8356 82.41 12.8267C82.39 12.8089 82.31 12.8445 82.23 12.8979C82.13 12.978 82.1 12.9424 82.1 12.7199Z" fill="#424242"/>
<path d="M85.15 11.8211C85.18 11.7766 85.34 11.652 85.5 11.5541C85.8 11.3672 85.8 11.3672 85.8 11.6342C85.8 11.8923 85.77 11.9101 85.44 11.9101C85.24 11.9101 85.11 11.8745 85.15 11.8211Z" fill="#424242"/>
<path d="M13.2 11.3228C12.85 11.0202 12.85 11.0202 13.23 11.0202C13.59 11.0202 13.6 11.0291 13.6 11.3317C13.6 11.5007 13.59 11.6431 13.58 11.6342C13.56 11.6253 13.39 11.4918 13.2 11.3228Z" fill="#424242"/>
<path d="M11.1 11.3316C11.1 11.0736 11.17 11.0558 11.46 11.2427C11.58 11.3139 11.7 11.3405 11.74 11.3139C11.77 11.2872 11.8 11.3227 11.8 11.4028C11.8 11.5185 11.71 11.5541 11.45 11.5541C11.14 11.5541 11.1 11.5274 11.1 11.3316Z" fill="#424242"/>
<path d="M84 11.2961C84 11.0647 84.04 11.0202 84.25 11.0202C84.43 11.0202 84.5 10.9757 84.5 10.8422C84.5 10.6909 84.57 10.6642 84.88 10.6642C85.25 10.6731 85.25 10.6731 84.9 10.9401C84.71 11.0914 84.43 11.2872 84.28 11.385C84 11.563 84 11.563 84 11.2961Z" fill="#424242"/>
<path d="M90.9 10.8867C90.9 10.5307 91.14 10.4506 91.24 10.7799C91.34 11.1092 91.31 11.1982 91.1 11.1982C90.94 11.1982 90.9 11.1359 90.9 10.8867Z" fill="#424242"/>
<path d="M86.6 10.9045C86.6 10.8867 86.76 10.7532 86.95 10.6019C87.3 10.3261 87.3 10.3261 87.3 10.6286C87.3 10.9134 87.28 10.9312 86.95 10.9312C86.76 10.9312 86.6 10.9223 86.6 10.9045Z" fill="#424242"/>
<path d="M86 9.98789C86 9.77431 86.05 9.68532 86.15 9.68532C86.23 9.68532 86.3 9.64972 86.3 9.59633C86.3 9.55183 86.47 9.50734 86.68 9.50734C87.05 9.51624 87.05 9.51624 86.75 9.73872C85.91 10.3617 86 10.335 86 9.98789Z" fill="#424242"/>
<path d="M10.33 9.8633C10.2 9.81881 10.1 9.80991 10.1 9.8455C10.1 9.9256 9.9 9.65862 9.9 9.57853C9.9 9.53404 10.06 9.50734 10.25 9.50734C10.56 9.50734 10.6 9.53404 10.6 9.72982C10.6 9.8544 10.59 9.95229 10.58 9.94339C10.56 9.94339 10.45 9.9078 10.33 9.8633Z" fill="#424242"/>
<path d="M73.65 9.8633C73.68 9.81881 73.84 9.69422 74 9.59633C74.3 9.40945 74.3 9.40945 74.3 9.67642C74.3 9.93449 74.27 9.95229 73.94 9.95229C73.74 9.95229 73.61 9.9167 73.65 9.8633Z" fill="#424242"/>
<path d="M24.5 9.23147C24.5 8.96449 24.5 8.96449 24.8 9.15137C25.24 9.42725 25.25 9.50734 24.86 9.50734C24.53 9.50734 24.5 9.48954 24.5 9.23147Z" fill="#424242"/>
<path d="M75.15 8.79541C75.18 8.75092 75.34 8.62633 75.5 8.52844C75.8 8.34156 75.8 8.34156 75.8 8.60853C75.8 8.8666 75.77 8.8844 75.44 8.8844C75.24 8.8844 75.11 8.84881 75.15 8.79541Z" fill="#424242"/>
<path d="M7.7 8.42165C7.7 8.15468 7.83 7.90551 7.96 7.90551C8.05 7.90551 8.1 8.0123 8.1 8.21697C8.1 8.46615 8.06 8.52844 7.9 8.52844C7.79 8.52844 7.7 8.47505 7.7 8.42165Z" fill="#424242"/>
<path d="M76.05 8.17247C76.08 8.12798 76.24 8.00339 76.4 7.9055C76.7 7.71862 76.7 7.71862 76.7 7.98559C76.7 8.24367 76.67 8.26147 76.34 8.26147C76.14 8.26147 76.01 8.22587 76.05 8.17247Z" fill="#424242"/>
<path d="M22.5 7.80761C22.5 7.54064 22.5 7.54064 22.8 7.72752C23.24 8.00339 23.25 8.08348 22.86 8.08348C22.53 8.08348 22.5 8.06568 22.5 7.80761Z" fill="#424242"/>
<path d="M7.83 6.61514C7.89 6.44605 7.99 6.30367 8.07 6.30367C8.15 6.30367 8.2 6.41936 8.2 6.61514C8.2 6.88211 8.17 6.9266 7.96 6.9266C7.73 6.9266 7.72 6.90881 7.83 6.61514Z" fill="#424242"/>
<path d="M20.4 6.38376C20.4 6.11679 20.4 6.11679 20.7 6.30367C21.14 6.57954 21.15 6.65963 20.76 6.65963C20.43 6.65963 20.4 6.64183 20.4 6.38376Z" fill="#424242"/>
<path d="M79.45 5.85871C79.48 5.81422 79.64 5.68963 79.8 5.59174C80.1 5.40486 80.1 5.40486 80.1 5.67183C80.1 5.9299 80.07 5.9477 79.74 5.9477C79.54 5.9477 79.41 5.91211 79.45 5.85871Z" fill="#424242"/>
<path d="M18.8 5.31587C18.8 5.0489 18.8 5.0489 19.1 5.23578C19.54 5.51165 19.55 5.59174 19.16 5.59174C18.83 5.59174 18.8 5.57394 18.8 5.31587Z" fill="#424242"/>
<path d="M80.5 5.19128C80.5 5.17349 80.76 4.9866 81.08 4.78193C81.39 4.57725 81.71 4.34587 81.78 4.27468C81.88 4.15899 81.9 4.18569 81.9 4.46156C81.9 4.78192 81.89 4.79082 81.55 4.79082C81.24 4.79082 81.2 4.81752 81.2 5.0133C81.2 5.20908 81.16 5.23578 80.85 5.23578C80.66 5.23578 80.5 5.21798 80.5 5.19128Z" fill="#424242"/>
<path d="M16.4 3.98991C16.4 3.94541 16.33 3.90092 16.25 3.90092C16.16 3.90092 16.1 3.82083 16.1 3.67844C16.1 3.55385 16.14 3.45596 16.18 3.45596C16.29 3.45596 17.1 3.97211 17.1 4.0344C17.1 4.0611 16.94 4.0789 16.75 4.0789C16.56 4.0789 16.4 4.0433 16.4 3.98991Z" fill="#424242"/>
<path d="M83.9 3.03771C83.9 2.95761 83.93 2.92202 83.96 2.94871C84 2.97541 84.12 2.94872 84.24 2.87752C84.53 2.69064 84.6 2.70844 84.6 2.96651C84.6 3.16229 84.56 3.18899 84.25 3.18899C83.99 3.18899 83.9 3.15339 83.9 3.03771Z" fill="#424242"/>
<path d="M86.72 1.65835C86.75 1.59605 86.91 1.49816 87.08 1.43587C87.39 1.32018 87.4 1.32908 87.4 1.54266C87.4 1.73844 87.36 1.76514 87.04 1.76514C86.81 1.76514 86.7 1.72954 86.72 1.65835Z" fill="#424242"/>
<path d="M90 1.1867C90 0.812939 90.16 0.777342 90.33 1.12441C90.39 1.25789 90.49 1.39138 90.55 1.42698C90.6 1.46257 90.5 1.49817 90.33 1.49817C90.02 1.49817 90 1.48037 90 1.1867Z" fill="#424242"/>
</svg>
