<svg width="102" height="87" viewBox="0 0 102 87" fill="none" xmlns="http://www.w3.org/2000/svg">
<path d="M49.9 83.6189C48.78 83.5655 47.35 83.343 46.36 83.0672C46.09 82.996 45.83 82.9515 45.78 82.9782C45.74 83.0049 45.7 82.9871 45.7 82.9426C45.7 82.8358 44.9 82.5599 44.77 82.6311C44.71 82.6578 44.7 82.64 44.73 82.5955C44.79 82.5065 44.36 82.3374 44.17 82.3819C44.12 82.3908 44.11 82.3552 44.14 82.3107C44.18 82.2662 44.11 82.204 44 82.1684C43.9 82.1417 43.54 81.937 43.21 81.7234C42.89 81.5098 42.58 81.3585 42.54 81.3941C42.5 81.4297 42.5 81.4119 42.54 81.3496C42.58 81.2874 42.51 81.1806 42.37 81.1005C42.23 81.0293 41.9 80.7267 41.63 80.433C41.35 80.1483 41.09 79.9347 41.05 79.9703C41.02 80.0059 40.99 79.9881 41.01 79.9436C41.05 79.7923 40.89 79.5431 40.79 79.5965C40.74 79.6232 40.7 79.6143 40.71 79.5698C40.74 79.3918 40.69 79.2673 40.6 79.3207C40.54 79.3562 40.5 79.3474 40.51 79.3029C40.54 79.1249 40.49 79.0003 40.4 79.0537C40.34 79.0893 40.31 79.0804 40.32 79.0359C40.37 78.8757 40.18 78.5642 40.07 78.6176C40 78.6532 39.98 78.6532 40.02 78.6087C40.1 78.5375 39.23 76.9357 39.09 76.8912C39.04 76.8734 39.02 76.8289 39.05 76.7844C39.12 76.6865 38.9 76.1615 38.78 76.1615C38.73 76.1615 38.71 76.1259 38.74 76.0814C38.77 76.0458 38.69 75.672 38.55 75.2627C38.42 74.8533 38.24 74.177 38.15 73.7587C37.97 72.9667 37.8 69.852 37.92 69.6474C38.01 69.4961 38.3 67.6629 38.3 67.2446C38.3 67.0666 38.26 66.8975 38.21 66.8708C38.05 66.7818 34.59 66.3547 34.44 66.4081C34.36 66.4348 34.3 66.4259 34.3 66.3903C34.3 66.3013 31.82 65.9898 31.7 66.061C31.64 66.0966 31.6 66.0788 31.6 66.0432C31.6 65.9542 29.93 65.7229 29.8 65.794C29.76 65.8207 29.7 65.8029 29.68 65.7673C29.64 65.6695 26.14 65.1889 26 65.2601C25.95 65.2868 25.9 65.269 25.9 65.2067C25.9 65.1444 25.79 65.1177 25.6 65.1444C25.44 65.1622 25.29 65.1622 25.28 65.1266C25.24 65.0376 22.52 64.6639 22.4 64.7262C22.35 64.7529 22.3 64.744 22.3 64.7084C22.3 64.6105 20.84 64.3791 20.7 64.4592C20.65 64.4859 20.6 64.477 20.6 64.4414C20.6 64.3435 19.14 64.1121 19.01 64.1833C18.96 64.2189 18.9 64.2011 18.88 64.1566C18.87 64.1032 18.6 64.0587 18.3 64.0409C18 64.0231 17.73 63.9875 17.7 63.9608C17.61 63.8718 15.11 63.507 15 63.5693C14.95 63.596 14.9 63.5871 14.9 63.5515C14.9 63.4536 13.44 63.2222 13.31 63.2934C13.26 63.329 13.2 63.3112 13.18 63.2667C13.15 63.1955 10.17 62.6972 9.68 62.6883C9.52 62.6794 9.4 62.6438 9.4 62.5993C9.4 62.5637 9.27 62.5459 9.1 62.5637C8.94 62.5815 8.79 62.5815 8.78 62.5459C8.74 62.4658 5.82 61.9941 5.71 62.0475C5.66 62.0831 5.6 62.0653 5.58 62.0297C5.54 61.9407 2.61 61.4602 2.49 61.5314C2.44 61.5581 2.4 61.5403 2.4 61.5047C2.4 61.4246 1.13 61.1843 1.02 61.2466C0.979998 61.2644 0.959999 61.1576 0.979999 61.0063C1.06 60.3122 1.18 59.004 1.19 58.7549C1.2 58.5324 1.26 58.4523 1.5 58.3633C1.67 58.301 1.8 58.212 1.8 58.1675C1.8 58.123 1.84 58.1052 1.88 58.1319C1.93 58.1586 2.26 58.0785 2.62 57.9629C3.35 57.7315 5.54 57.2954 6 57.2954C6.17 57.2954 6.3 57.2509 6.3 57.1975C6.3 57.153 6.34 57.1352 6.4 57.1619C6.45 57.1886 7.32 57.1708 8.32 57.1174C9.63 57.0551 10.69 57.0551 12.05 57.1263C13.1 57.1797 14.27 57.2331 14.65 57.2509C15.04 57.2687 15.42 57.3043 15.5 57.3399C15.59 57.3666 15.98 57.3933 16.38 57.4111C16.77 57.42 17.1 57.4556 17.1 57.4823C17.1 57.5179 17.36 57.5713 17.68 57.598C18.59 57.6959 20.52 57.9895 22.17 58.2832C23.01 58.4345 23.74 58.5235 23.8 58.4968C23.85 58.4701 23.9 58.479 23.9 58.5235C23.9 58.568 24.07 58.6303 24.28 58.657C27.66 59.1197 28.79 59.2532 29 59.2354C29.14 59.2265 29.31 59.2443 29.37 59.2799C29.44 59.3244 29.8 59.3511 30.17 59.3511C30.55 59.36 31.26 59.3778 31.75 59.4045C32.79 59.449 35.64 59.2799 35.68 59.1642C35.7 59.1197 35.78 59.1108 35.85 59.1286C36.04 59.1998 37.5 58.8884 37.5 58.7905C37.5 58.746 37.54 58.7282 37.59 58.7549C37.72 58.835 39.11 58.3633 39.04 58.2654C39.01 58.2209 39.07 58.212 39.16 58.2476C39.29 58.2921 39.31 58.2743 39.25 58.1853C39.2 58.1141 39.21 58.0874 39.28 58.1319C39.42 58.2031 40.02 57.8828 39.92 57.7849C39.88 57.7404 39.9 57.7404 39.97 57.776C40.11 57.8472 41.32 56.8683 41.24 56.7526C41.21 56.7081 41.24 56.6814 41.31 56.6903C41.47 56.7259 42.53 54.9194 42.46 54.7503C42.43 54.6791 42.45 54.6257 42.5 54.6257C42.61 54.6257 42.93 53.7625 42.86 53.6557C42.82 53.6112 42.84 53.5578 42.89 53.54C43.02 53.5044 43.33 52.0895 43.27 51.8136C43.25 51.6979 43.27 51.5733 43.31 51.5466C43.42 51.4932 43.43 50.7635 43.33 50.6745C43.29 50.6389 43.27 50.4787 43.28 50.3185C43.33 49.8825 43.04 48.9125 42.66 48.1828C42.28 47.4441 41.86 46.8657 41.77 46.928C41.73 46.9547 41.72 46.9458 41.75 46.9191C41.83 46.8123 41.59 46.5186 41.48 46.5809C41.42 46.6165 41.4 46.6076 41.43 46.5542C41.46 46.5097 41.14 46.1716 40.72 45.7978C39.78 44.9791 39.41 44.7299 39.26 44.81C39.2 44.8367 39.18 44.8278 39.23 44.7922C39.36 44.6587 37.8 43.8044 37.65 43.929C37.6 43.9646 37.61 43.9379 37.65 43.8667C37.71 43.7688 37.69 43.751 37.56 43.7955C37.47 43.8311 37.41 43.8222 37.44 43.7866C37.51 43.6798 36.81 43.3951 36.67 43.4662C36.6 43.5018 36.58 43.5018 36.62 43.4573C36.75 43.3328 34.48 42.4695 34.29 42.5674C34.24 42.603 34.2 42.5763 34.2 42.5229C34.2 42.4607 34.13 42.434 34.05 42.4696C33.97 42.4962 33.9 42.4784 33.9 42.434C33.9 42.3539 32.49 41.9445 30.95 41.5885C29.79 41.3216 28.09 41.0813 27.63 41.1169C27.45 41.1258 27.28 41.108 27.24 41.0724C27.16 41.0012 24.26 40.9834 24.18 41.0546C24.15 41.0813 23.66 41.1258 23.09 41.1436C22.52 41.1703 22.04 41.2237 22.02 41.2682C22 41.3127 21.91 41.3305 21.81 41.3038C21.58 41.2504 19.06 41.633 19.02 41.722C19 41.7576 18.91 41.7754 18.82 41.7487C18.6 41.7042 15.46 42.4162 15.42 42.5318C15.4 42.5763 15.34 42.5941 15.29 42.5674C15.17 42.4962 14.4 42.7098 14.4 42.8077C14.4 42.8522 14.35 42.8611 14.3 42.8344C14.09 42.7187 8.4 44.5786 8.4 44.7566C8.4 44.81 8.36 44.8278 8.31 44.8011C8.18 44.721 6.88 45.2372 6.97 45.3262C7.02 45.3618 7 45.3707 6.94 45.344C6.79 45.2639 5.28 45.8512 5.38 45.9491C5.42 45.9847 5.4 45.9936 5.33 45.958C5.26 45.9224 4.98 46.0025 4.71 46.1271C4.23 46.3407 3.77 46.4474 4.08 46.2695C4.16 46.225 4.23 46.0915 4.23 45.958C4.24 45.8334 4.29 45.7266 4.34 45.7266C4.38 45.7266 4.4 45.6643 4.36 45.5931C4.33 45.5219 4.35 45.4596 4.4 45.4596C4.44 45.4596 4.54 45.3173 4.6 45.1393C4.67 44.9702 4.78 44.8011 4.86 44.7744C4.94 44.7477 4.97 44.6854 4.93 44.632C4.9 44.5875 4.91 44.5608 4.96 44.5964C5.09 44.6676 5.82 44.2583 5.72 44.1693C5.68 44.1337 5.7 44.1159 5.75 44.1515C5.86 44.2049 7.03 43.6442 6.95 43.573C6.92 43.5552 6.96 43.5285 7.02 43.5285C7.25 43.5196 9 42.6475 8.93 42.5763C8.89 42.5407 8.94 42.5407 9.04 42.5763C9.16 42.6208 9.21 42.6119 9.17 42.5496C9.14 42.5051 9.16 42.4606 9.23 42.4606C9.46 42.4518 10.59 41.9267 10.52 41.8555C10.48 41.811 10.5 41.811 10.56 41.8377C10.66 41.8911 12.88 41.0635 13 40.93C13.03 40.9033 13.1 40.8766 13.15 40.8766C13.37 40.8766 15.1 40.2715 15.1 40.1914C15.1 40.1469 15.14 40.1291 15.19 40.1558C15.29 40.2181 16.84 39.7642 16.88 39.6574C16.9 39.6218 16.96 39.604 17 39.6307C17.12 39.693 18 39.4795 18 39.3816C18 39.346 18.04 39.3282 18.09 39.3549C18.14 39.3905 18.66 39.3104 19.24 39.1858C19.82 39.0612 20.39 38.9633 20.5 38.9633C20.61 38.9633 20.7 38.9188 20.7 38.8654C20.7 38.8209 20.74 38.7942 20.79 38.8209C20.9 38.8832 22.6 38.6785 22.6 38.6073C22.6 38.5807 22.76 38.5718 22.95 38.5895C23.14 38.6073 23.38 38.5984 23.47 38.5629C23.64 38.5095 24.72 38.4561 26.15 38.4383C26.54 38.4383 27.35 38.4739 27.95 38.5273C28.56 38.5717 29.29 38.6251 29.57 38.634C29.86 38.6429 30.1 38.6785 30.1 38.7052C30.1 38.7586 31.04 38.9099 31.4 38.9188C31.48 38.9188 31.57 38.9455 31.6 38.9722C31.65 39.0256 33.78 39.5418 33.95 39.5418C34.01 39.5418 34.07 39.5684 34.1 39.5951C34.17 39.6752 36.11 40.3961 36.3 40.4139C36.38 40.4228 36.47 40.4584 36.5 40.4851C36.62 40.6185 37.38 40.9122 37.45 40.8499C37.5 40.8143 37.49 40.841 37.45 40.9122C37.39 41.0101 37.41 41.0279 37.56 40.9745C37.66 40.9389 37.71 40.9389 37.67 40.9745C37.63 41.0101 37.97 41.2326 38.41 41.4729C38.86 41.7131 39.42 42.0246 39.65 42.167C39.88 42.3094 40.11 42.3984 40.16 42.3628C40.21 42.3272 40.22 42.3361 40.18 42.3717C40.14 42.4162 40.41 42.6564 40.78 42.9056C41.15 43.1548 41.6 43.4662 41.79 43.5997C41.98 43.7421 42.18 43.8222 42.24 43.7955C42.3 43.7688 42.31 43.7777 42.27 43.8133C42.17 43.9112 43.49 44.6765 43.63 44.5964C43.68 44.5697 43.7 44.5786 43.67 44.632C43.61 44.721 44.89 45.3262 44.97 45.2461C45 45.2194 45.08 45.255 45.16 45.3173C45.34 45.4863 47 46.0114 47.16 45.958C47.23 45.9313 47.3 45.9491 47.32 46.0025C47.41 46.2339 51.19 46.572 51.66 46.394C51.77 46.3584 51.93 46.3318 52.03 46.3407C52.32 46.3762 53.7 46.0826 53.7 45.9936C53.7 45.9491 53.76 45.9313 53.84 45.958C54.28 46.1093 58.19 44.1426 57.92 43.9023C57.88 43.8667 57.9 43.8578 57.95 43.8667C58.1 43.9112 58.61 43.5819 58.54 43.4929C58.51 43.4485 58.52 43.4218 58.57 43.4307C58.68 43.4662 59.91 42.6564 59.85 42.5941C59.82 42.5763 59.86 42.5496 59.92 42.5496C60.12 42.5407 61.11 42.0246 61.05 41.9623C61.02 41.9267 61.03 41.9178 61.06 41.9356C61.12 41.9801 62.62 41.3839 62.7 41.2949C62.73 41.2593 62.8 41.2326 62.85 41.2326C63 41.2326 64.94 40.6363 65 40.574C65.03 40.5473 65.18 40.5118 65.35 40.5029C65.51 40.494 65.66 40.4406 65.68 40.3872C65.7 40.3427 65.75 40.316 65.8 40.3427C65.9 40.3961 67.84 40.0134 67.88 39.9333C67.9 39.8888 67.97 39.8799 68.03 39.9066C68.1 39.9244 68.52 39.8888 68.95 39.8087C69.39 39.7375 69.87 39.6752 70.03 39.6752C70.18 39.6752 70.3 39.6485 70.3 39.6129C70.3 39.5684 70.58 39.5329 70.93 39.524C71.27 39.5151 72.02 39.4617 72.6 39.4172C74 39.3104 80.2 39.3193 80.6 39.435C80.88 39.5151 83.1 39.6841 83.19 39.6396C83.24 39.604 83.3 39.6218 83.32 39.6752C83.33 39.7197 83.65 39.7731 84.02 39.782C84.4 39.7998 84.7 39.8443 84.7 39.8888C84.7 39.9244 84.83 39.9422 85 39.9244C85.16 39.9066 85.31 39.9066 85.32 39.9422C85.36 40.0223 87.19 40.316 87.29 40.2537C87.34 40.227 87.4 40.2359 87.42 40.2804C87.43 40.316 87.9 40.4406 88.45 40.5562C89 40.6719 89.96 40.9033 90.59 41.0635C91.22 41.2237 91.77 41.3394 91.81 41.3127C91.86 41.286 91.9 41.3127 91.9 41.3661C91.9 41.4284 91.97 41.4551 92.05 41.4195C92.13 41.3928 92.2 41.4106 92.2 41.464C92.2 41.5173 92.27 41.544 92.35 41.5084C92.43 41.4817 92.5 41.4996 92.5 41.5351C92.5 41.633 93.69 42.0068 93.8 41.9445C93.85 41.9178 93.9 41.9356 93.92 41.9712C93.93 42.0157 94.51 42.2649 95.2 42.5229C95.89 42.781 96.5 43.0391 96.56 43.0925C96.63 43.1459 96.85 43.5997 97.05 44.107C97.26 44.6053 97.47 45.0147 97.51 45.0147C97.56 45.0147 97.57 45.077 97.54 45.1482C97.5 45.2194 97.53 45.2817 97.6 45.2817C97.66 45.2817 97.69 45.3173 97.66 45.3618C97.63 45.4062 97.66 45.602 97.74 45.7978C97.88 46.1449 97.88 46.1538 97.65 46.136C97.52 46.136 97.44 46.0915 97.48 46.047C97.51 46.0025 97.45 45.9936 97.34 46.0292C97.24 46.0648 97.19 46.0648 97.23 46.0292C97.32 45.9402 96.31 45.5397 96.17 45.6109C96.1 45.6376 96.08 45.6376 96.12 45.5931C96.21 45.5041 95.42 45.1749 95.29 45.2461C95.24 45.2728 95.2 45.255 95.2 45.2105C95.2 45.1037 94.71 44.9079 94.59 44.9702C94.54 45.0058 94.5 44.988 94.5 44.9435C94.5 44.8189 92.21 44.018 92.08 44.0892C92.02 44.1248 92 44.1159 92.03 44.0625C92.1 43.9557 91.42 43.751 91.26 43.8311C91.2 43.8578 91.19 43.8489 91.23 43.8044C91.32 43.7154 90.32 43.3862 90.19 43.4662C90.14 43.4929 90.1 43.4662 90.1 43.4129C90.1 43.3506 90.03 43.3239 89.95 43.3595C89.87 43.3862 89.8 43.3684 89.8 43.315C89.8 43.2616 89.73 43.2349 89.65 43.2705C89.57 43.2972 89.5 43.2794 89.5 43.2349C89.5 43.137 88.51 42.8611 88.4 42.9234C88.35 42.9501 88.3 42.9323 88.28 42.8878C88.24 42.781 86.13 42.2293 86.01 42.3005C85.96 42.3272 85.9 42.3005 85.88 42.256C85.86 42.2026 85.68 42.1492 85.47 42.1403C85.27 42.1314 85.1 42.0869 85.1 42.0424C85.1 42.0068 85.01 41.989 84.9 42.0157C84.79 42.0424 84.7 42.0246 84.7 41.9712C84.7 41.9178 84.61 41.9 84.5 41.9267C84.39 41.9534 84.3 41.9445 84.3 41.9089C84.3 41.8199 83.12 41.6152 83 41.6775C82.94 41.7042 82.9 41.6953 82.9 41.6508C82.9 41.5618 80.65 41.2326 80.51 41.3127C80.46 41.3483 80.38 41.3305 80.35 41.2771C80.31 41.2237 80.12 41.1792 79.92 41.1792C79.72 41.1792 78.85 41.1347 78 41.0813C76.81 41.0012 76.1 41.0012 74.95 41.0902C74.13 41.1436 73.44 41.2326 73.42 41.2771C73.4 41.3216 73.32 41.3305 73.24 41.3038C72.99 41.2237 69.79 41.9267 69.72 42.0869C69.7 42.1225 69.62 42.1314 69.54 42.1047C69.46 42.078 69.4 42.1047 69.4 42.167C69.4 42.2204 69.36 42.2382 69.3 42.2115C69.15 42.1314 68.4 42.3539 68.47 42.4606C68.5 42.514 68.48 42.5229 68.42 42.4873C68.28 42.4073 65.89 43.2349 65.96 43.3417C65.99 43.3773 65.93 43.3862 65.84 43.3506C65.72 43.315 65.69 43.3239 65.74 43.3951C65.79 43.4662 65.75 43.484 65.64 43.4395C65.51 43.3951 65.49 43.4129 65.55 43.5018C65.6 43.573 65.59 43.5997 65.52 43.5641C65.38 43.484 65.09 43.5908 65.16 43.6887C65.19 43.7332 65.13 43.7421 65.04 43.7065C64.92 43.6709 64.89 43.6798 64.94 43.751C64.99 43.8222 64.95 43.84 64.84 43.7955C64.71 43.751 64.69 43.7688 64.75 43.8667C64.79 43.9379 64.8 43.9646 64.75 43.929C64.64 43.8311 63.69 44.3117 63.77 44.4184C63.8 44.4718 63.79 44.4807 63.73 44.454C63.6 44.3829 63.08 44.6943 63.17 44.7922C63.22 44.8278 63.2 44.8367 63.14 44.81C63.01 44.7388 62.35 45.1571 62.35 45.3084C62.34 45.3706 62.29 45.4062 62.23 45.3973C62.06 45.3618 60.89 46.4385 60.96 46.5453C61 46.5987 60.99 46.6165 60.93 46.5898C60.76 46.4919 59.83 47.7645 59.97 47.898C60.01 47.9247 59.99 47.9514 59.93 47.9514C59.8 47.9514 59.58 48.3874 59.65 48.4942C59.69 48.5387 59.67 48.5743 59.61 48.5743C59.47 48.5743 59.18 49.5176 59.13 50.1762C59.07 51.0216 59.1 52.2496 59.18 52.3119C59.22 52.3386 59.26 52.5344 59.28 52.7569C59.3 52.9705 59.34 53.1751 59.38 53.2018C59.42 53.2285 59.46 53.362 59.47 53.5133C59.48 53.6557 59.54 53.7892 59.59 53.807C59.64 53.8248 59.66 53.896 59.63 53.9672C59.6 54.0384 59.63 54.0918 59.69 54.0918C59.75 54.0918 59.77 54.154 59.74 54.2252C59.7 54.2964 59.72 54.3587 59.76 54.3587C59.81 54.3587 59.86 54.4477 59.86 54.5634C59.88 54.8571 60.61 56.2364 60.72 56.1741C60.76 56.1474 60.8 56.1563 60.79 56.2008C60.75 56.3877 60.81 56.5034 60.92 56.4411C60.98 56.4055 61 56.4144 60.97 56.4589C60.9 56.5657 61.06 56.806 61.2 56.806C61.25 56.806 61.3 56.8505 61.31 56.895C61.32 57.0284 61.62 57.2954 61.7 57.2509C61.74 57.2242 61.84 57.2776 61.91 57.3666C62.04 57.5001 62.03 57.509 61.88 57.3933C61.78 57.331 61.7 57.2954 61.7 57.3221C61.7 57.4289 62.54 57.9095 62.63 57.8561C62.69 57.8294 62.7 57.8472 62.66 57.9006C62.6 57.9895 62.96 58.1497 63.13 58.1141C63.18 58.1052 63.18 58.1408 63.14 58.1942C63.09 58.2743 63.12 58.2832 63.24 58.2476C63.35 58.2031 63.39 58.2209 63.34 58.2921C63.29 58.3633 63.33 58.3722 63.46 58.3277C63.56 58.2921 63.61 58.2921 63.57 58.3277C63.48 58.4167 64.38 58.7371 64.51 58.6748C64.56 58.6392 64.6 58.657 64.6 58.7015C64.6 58.7994 64.76 58.8439 65.98 59.0752C67.91 59.4401 70.48 59.5024 73.35 59.2532C74.91 59.1108 77.85 58.7015 77.88 58.6214C77.9 58.5769 77.96 58.5591 78 58.5858C78.12 58.6481 81.44 58.0785 81.48 57.9895C81.5 57.954 81.56 57.9362 81.6 57.9629C81.69 58.0162 83.53 57.776 83.8 57.6781C83.88 57.6425 83.98 57.6336 84.02 57.6336C84.06 57.6425 84.81 57.5713 85.67 57.4734C89.06 57.0907 92.1 56.9751 94.4 57.1174C96.68 57.2687 96.74 57.2776 96.9 57.331C97.2 57.4289 98.23 57.5624 98.31 57.509C98.36 57.4823 98.4 57.509 98.4 57.5713C98.4 57.6247 98.48 57.6514 98.6 57.6247C98.71 57.598 98.8 57.6158 98.8 57.6692C98.8 57.7226 98.89 57.7404 99 57.7137C99.11 57.687 99.2 57.7048 99.2 57.7582C99.2 57.8116 99.27 57.8294 99.35 57.7938C99.43 57.7671 99.5 57.7849 99.5 57.8383C99.5 57.8917 99.57 57.9184 99.65 57.8828C99.73 57.8561 99.8 57.8739 99.8 57.9273C99.8 57.9806 99.86 58.0073 99.92 57.9895C99.99 57.9629 100.11 58.0073 100.19 58.0696C100.26 58.1408 100.39 58.1764 100.47 58.1497C100.55 58.123 100.58 58.1408 100.55 58.1853C100.52 58.2387 100.56 58.2743 100.64 58.2743C100.73 58.2743 100.8 58.3455 100.8 58.4345C100.8 58.5235 100.83 58.6303 100.87 58.657C100.9 58.6926 100.92 58.9596 100.91 59.2443C100.9 59.5291 100.92 59.7872 100.97 59.8139C101.01 59.8406 101.04 60.1609 101.02 60.5347C100.98 61.211 100.98 61.211 100.59 61.2644C100.38 61.3 100.2 61.3445 100.2 61.3801C100.2 61.4068 99.99 61.4424 99.73 61.4513C99.48 61.4602 99.24 61.5047 99.21 61.5403C99.18 61.5759 98.93 61.6204 98.65 61.6382C98.38 61.6471 98.14 61.6916 98.12 61.7361C98.11 61.7717 97.98 61.7895 97.85 61.7628C97.71 61.745 97.6 61.7628 97.6 61.8251C97.6 61.8696 97.54 61.8962 97.47 61.8784C97.41 61.8518 95.93 62.0653 94.2 62.359C92.47 62.6527 90.84 62.9107 90.58 62.9463C90.31 62.9819 90.1 63.0531 90.1 63.0976C90.1 63.1421 90.06 63.151 90 63.1243C89.9 63.0709 85.09 63.7918 85 63.8718C84.97 63.8985 84.73 63.9341 84.46 63.9519C84.18 63.9608 83.94 64.0053 83.91 64.0409C83.87 64.0765 83.63 64.1121 83.35 64.1299C83.08 64.1477 82.84 64.1922 82.82 64.2278C82.81 64.2634 82.66 64.2723 82.5 64.2545C82.33 64.2367 82.2 64.2545 82.2 64.299C82.2 64.3435 82.07 64.3702 81.9 64.3435C81.74 64.3257 81.6 64.3435 81.6 64.388C81.6 64.4325 81.47 64.4592 81.3 64.4325C81.14 64.4147 81 64.4325 81 64.477C81 64.5215 80.87 64.5482 80.7 64.5215C80.51 64.4948 80.4 64.5215 80.4 64.5838C80.4 64.6461 80.35 64.6639 80.3 64.6372C80.16 64.5571 77.5 64.9664 77.5 65.0643C77.5 65.0999 77.46 65.1088 77.4 65.0821C77.27 65.0109 73.86 65.4915 73.82 65.5894C73.8 65.625 73.74 65.6428 73.7 65.6161C73.58 65.5538 71.8 65.7673 71.8 65.8385C71.8 65.8741 71.67 65.883 71.5 65.8563C71.31 65.8296 71.2 65.8563 71.2 65.9186C71.2 65.9809 71.16 66.0076 71.11 65.972C70.97 65.9008 69.2 66.1233 69.2 66.2123C69.2 66.2568 69.16 66.2746 69.1 66.239C68.97 66.1678 66.5 66.4793 66.5 66.5772C66.5 66.6128 66.46 66.6217 66.4 66.595C66.27 66.5238 64.3 66.7462 64.3 66.8263C64.3 66.8619 64.21 66.8708 64.11 66.8441C63.72 66.7552 63.68 67.0755 63.92 68.3036C64.09 69.2024 64.14 69.8253 64.15 71.2492C64.16 72.2815 64.12 73.0468 64.07 73.0468C64.02 73.0468 64 73.1892 64.02 73.3583C64.04 73.5273 64.02 73.6697 63.98 73.6697C63.94 73.6697 63.9 73.7409 63.9 73.8299C63.9 73.9189 63.79 74.3639 63.66 74.8266C63.52 75.2805 63.43 75.6898 63.46 75.7343C63.49 75.7699 63.47 75.8055 63.43 75.8055C63.38 75.8055 63.26 76.0191 63.15 76.2772C62.66 77.5319 61.67 79.1338 60.84 80.0415C60.65 80.2373 60.54 80.433 60.58 80.4686C60.62 80.5042 60.6 80.522 60.55 80.5042C60.41 80.4686 59.54 81.234 59.58 81.3585C59.6 81.4119 59.58 81.4297 59.54 81.3941C59.5 81.3585 59.31 81.4386 59.11 81.581C58.91 81.7145 58.51 81.9548 58.23 82.0972C57.94 82.2395 57.72 82.3819 57.75 82.4086C57.78 82.4264 57.74 82.4531 57.66 82.4531C57.44 82.4531 56.9 82.6756 56.9 82.7646C56.9 82.8091 56.86 82.8269 56.81 82.8002C56.7 82.7379 56.1 82.9159 56.1 83.0227C56.1 83.0583 56.03 83.0761 55.95 83.0494C55.87 83.0138 55.8 83.0405 55.8 83.1028C55.8 83.1562 55.76 83.1829 55.71 83.1562C55.6 83.0939 54.6 83.2807 54.6 83.3608C54.6 83.3875 54.36 83.4231 54.07 83.4409C53.79 83.4498 53.54 83.4943 53.52 83.5477C53.5 83.5922 53.43 83.61 53.37 83.5922C53.3 83.5655 52.76 83.5833 52.15 83.6189C51.55 83.6545 50.53 83.6545 49.9 83.6189ZM53.63 81.9548C53.94 81.848 54.2 81.7145 54.2 81.67C54.2 81.6166 54.24 81.5988 54.29 81.6344C54.43 81.7056 55.5 81.2162 55.43 81.1183C55.4 81.0649 55.41 81.056 55.47 81.0827C55.65 81.1806 57.25 80.2462 57.12 80.1216C57.08 80.0771 57.1 80.0682 57.16 80.1038C57.21 80.1305 57.39 80.0593 57.56 79.9347C57.72 79.8101 57.78 79.7389 57.7 79.7745C57.62 79.8101 57.57 79.819 57.6 79.7834C57.63 79.7567 57.7 79.73 57.75 79.7211C57.93 79.7033 58.59 79.0715 58.53 78.9825C58.5 78.9291 58.52 78.9202 58.58 78.9558C58.71 79.027 58.93 78.7066 58.82 78.6087C58.78 78.5642 58.8 78.5642 58.86 78.5909C59 78.6621 59.35 78.0036 59.26 77.8612C59.22 77.8078 59.24 77.7633 59.29 77.7633C59.45 77.7633 59.42 76.9624 59.24 76.4996C59.16 76.2772 58.94 75.939 58.75 75.7432C58.47 75.4496 58.28 75.3517 57.53 75.1559C57.05 75.0224 56.51 74.8978 56.35 74.8889C56.18 74.88 56.03 74.8444 56 74.8088C55.93 74.7376 54.14 74.4528 53.92 74.4884C53.82 74.4973 53.69 74.4707 53.61 74.4262C53.34 74.2838 49.75 74.3372 48.45 74.5063C47.79 74.5863 47.23 74.702 47.22 74.7465C47.2 74.791 47.14 74.8088 47.09 74.7732C46.97 74.7109 45.36 75.0847 45.32 75.1826C45.3 75.2271 45.22 75.236 45.14 75.2093C45.06 75.1826 45 75.2093 45 75.2716C45 75.325 44.96 75.3517 44.9 75.3161C44.63 75.1737 43.78 75.7432 43.98 75.939C44.02 75.9835 44 75.9835 43.94 75.9568C43.8 75.8856 43.46 76.4729 43.55 76.6064C43.58 76.6598 43.56 76.6954 43.51 76.6954C43.44 76.6954 43.4 76.9179 43.4 77.2561C43.4 77.9057 43.48 78.2261 43.63 78.146C43.69 78.1104 43.7 78.1371 43.66 78.1994C43.61 78.2617 43.69 78.4485 43.83 78.6354C44.18 79.116 45.11 79.908 45.23 79.8368C45.29 79.8101 45.3 79.8279 45.26 79.8813C45.19 79.9881 45.58 80.2195 45.75 80.175C45.81 80.1661 45.82 80.1839 45.77 80.2195C45.68 80.3084 46.51 80.7979 46.63 80.7267C46.69 80.7 46.7 80.7178 46.66 80.7712C46.6 80.8602 46.96 81.0204 47.13 80.9848C47.18 80.9759 47.19 80.9937 47.16 81.0382C47.1 81.1361 48.58 81.7857 48.71 81.7234C48.76 81.6878 48.8 81.7056 48.8 81.759C48.8 81.8124 49.08 81.9281 49.43 82.026C49.96 82.1862 50.26 82.204 51.55 82.1773C52.82 82.1595 53.14 82.1239 53.63 81.9548Z" fill="#BDBDBD"/>
<path d="M48.6777 81.3614C48.7139 81.3108 48.7509 81.2548 48.7874 81.1938C48.7485 81.2592 48.7109 81.3151 48.6777 81.3614C48.6761 81.3636 48.6746 81.3657 48.673 81.3678C48.6654 81.3784 48.658 81.3885 48.6508 81.398C48.6582 81.3882 48.6656 81.3781 48.673 81.3678C48.6746 81.3657 48.6761 81.3635 48.6777 81.3614ZM48.9508 81.576C48.987 81.5277 49.0241 81.4739 49.061 81.4149C49.0173 81.4851 48.9784 81.5392 48.9508 81.576ZM48.9256 83.5995C48.9262 83.5996 48.9267 83.5997 48.9274 83.5998L48.9256 83.5995ZM48.2918 83.5329C48.6038 83.6254 48.8844 83.6415 49.0878 83.6353C49.8501 83.8447 50.6594 83.8674 51.56 83.8674C51.9411 83.8674 52.3084 83.8604 52.5995 83.847C52.7392 83.8406 52.8955 83.8313 53.0387 83.8162C53.1026 83.8095 53.2205 83.7961 53.3536 83.7694C53.4146 83.7572 53.5468 83.7291 53.7053 83.6743C53.7197 83.6693 53.7359 83.6636 53.7537 83.657C53.9408 83.6193 54.1135 83.5684 54.2647 83.5137C54.4637 83.4908 54.783 83.4294 55.1308 83.2502C55.2681 83.1794 55.4108 83.0886 55.55 82.9769C55.8636 82.9315 56.2383 82.8214 56.5965 82.5755C56.846 82.4789 57.136 82.3225 57.4067 82.0678C57.7055 81.9674 58.0228 81.7976 58.3118 81.5153C58.5365 81.3861 58.7554 81.2123 58.9563 80.9823C59.0206 80.9087 59.0789 80.8341 59.1316 80.7588C59.4963 80.4481 59.8189 80.0859 60.0564 79.7772C60.2011 79.5891 60.3595 79.3625 60.4953 79.1175C60.5524 79.0144 60.6212 78.8801 60.685 78.7229C60.7537 78.6078 60.8063 78.5004 60.8442 78.409C61.0505 77.9109 61.0563 77.4635 61.0464 77.2349C61.0377 77.0336 61.0072 76.8162 60.9487 76.5934C60.9301 76.3077 60.8583 75.9378 60.6498 75.5521C60.6224 75.474 60.5902 75.3947 60.5528 75.3147C60.2441 74.6556 59.7134 74.2413 59.1836 74.0337C59.086 73.9788 58.9978 73.9355 58.9278 73.9029C58.6911 73.7927 58.4343 73.7003 58.188 73.6301C58.1208 73.6091 58.0598 73.5887 58.0117 73.5718C57.9469 73.5387 57.8955 73.516 57.8636 73.5021C57.7157 73.4375 57.5776 73.3925 57.4609 73.3608C57.2911 73.3147 57.094 73.2769 56.8775 73.2606C56.8773 73.2606 56.8771 73.2606 56.877 73.2606C56.823 73.2523 56.746 73.2397 56.649 73.2232C56.4612 73.1911 56.223 73.1484 55.9814 73.103C55.3921 72.9831 54.5193 72.8479 53.9536 72.7933C53.3721 72.7312 52.3153 72.6959 51.4548 72.6818C50.999 72.6743 50.5518 72.6721 50.1922 72.6768C50.0147 72.6791 49.84 72.6834 49.6885 72.691C49.6869 72.6911 49.6841 72.6912 49.6804 72.6914C49.6242 72.6937 49.3402 72.7051 49.0463 72.7715C49.0305 72.7738 49.0092 72.7767 48.9817 72.7803C48.8701 72.7949 48.7173 72.812 48.554 72.8282C48.1447 72.8687 47.4703 72.9574 47.0047 73.0466C46.9472 73.0573 46.8956 73.0659 46.8516 73.0726C46.493 73.0419 46.0931 73.0819 45.6868 73.251C45.5733 73.2774 45.4336 73.3175 45.2798 73.3802C45.1969 73.3926 45.1124 73.4083 45.0272 73.4281C44.9246 73.4519 44.7298 73.5018 44.5028 73.6043C44.3157 73.622 44.1103 73.6626 43.8944 73.7394C43.1426 74.0069 42.5816 74.6046 42.3441 75.3293C42.3411 75.3385 42.3381 75.3476 42.3353 75.3567C42.0711 75.8509 41.929 76.3914 41.8614 76.7286C41.8218 76.9258 41.7731 77.222 41.7731 77.5408C41.7731 77.6664 41.7767 78.0192 41.9115 78.4255C41.9313 78.4852 41.9724 78.5949 42.0402 78.7314C42.0602 78.7863 42.0802 78.8362 42.0992 78.8807C42.2336 79.1945 42.4194 79.4754 42.6308 79.7105L42.6891 79.7754L42.7497 79.834C42.7496 79.8339 42.7495 79.8338 42.7495 79.8338C42.7495 79.8339 42.7636 79.8482 42.7901 79.8787C42.8009 79.891 42.8118 79.9038 42.8224 79.9165C43.042 80.3479 43.3661 80.6774 43.6872 80.8917C43.7557 80.9374 43.8264 80.9798 43.8991 81.0188C43.9563 81.0964 44.0201 81.1736 44.0913 81.2496C44.3348 81.5096 44.5963 81.6922 44.8607 81.8159C44.9742 81.8986 45.0929 81.9709 45.2148 82.0323C45.3241 82.1078 45.4391 82.1746 45.5586 82.2319C45.7562 82.3615 45.9608 82.4571 46.1559 82.5221C46.4502 82.7035 46.7439 82.8002 46.9924 82.8512C47.0824 82.8871 47.2032 82.9395 47.3296 82.9985C47.3326 82.9999 47.3356 83.0013 47.3386 83.0027C47.6719 83.2996 48.0246 83.4537 48.2918 83.5329ZM58.9615 80.8984C58.9615 80.8984 58.9618 80.898 58.9626 80.8973L58.9615 80.8984ZM59.508 78.981L59.5196 78.9752C59.5082 78.9809 59.496 78.9869 59.4829 78.9932C59.4913 78.9891 59.4997 78.9851 59.508 78.981ZM58.48 74.9963C58.217 74.9963 57.9782 75.0359 57.7652 75.0987L57.7658 75.0967C57.9792 75.0334 58.2168 74.9963 58.48 74.9963ZM60.7413 76.8928C60.7407 76.8959 60.74 76.8991 60.7394 76.9022C60.74 76.8991 60.7407 76.8959 60.7413 76.8928ZM57.5181 75.1857C57.5322 75.1797 57.5464 75.1739 57.5607 75.1681L57.561 75.1685C57.5465 75.1742 57.5323 75.1799 57.5181 75.1857ZM57.7341 75.1081C57.6928 75.1208 57.6526 75.1344 57.6133 75.1487L57.6129 75.1478C57.6525 75.133 57.6931 75.1191 57.7346 75.1061L57.7341 75.1081ZM44.1 75.6364C44.1 75.5238 44.1077 75.4131 44.1224 75.3048C44.106 75.4297 44.1 75.5422 44.1 75.6364ZM56.4871 81.7877C56.5697 81.806 56.6606 81.8213 56.7582 81.8316C56.6718 81.8228 56.5812 81.8086 56.4871 81.7877ZM47.614 83.1406C47.628 83.1485 47.6261 83.148 47.6124 83.1397C47.613 83.14 47.6135 83.1403 47.614 83.1406ZM47.6541 73.2683C47.6395 73.2623 47.6246 73.2562 47.6095 73.2503C47.6239 73.256 47.6388 73.262 47.6541 73.2683ZM46.7107 73.0905C46.7107 73.0905 46.7127 73.0903 46.7166 73.0901C46.7126 73.0904 46.7107 73.0905 46.7107 73.0905Z" fill="black" stroke="black" stroke-width="5"/>
<path d="M30.13 58.5146C30.1 58.4701 29.89 58.4523 29.66 58.4612C29.43 58.479 29.19 58.4523 29.12 58.4167C29.05 58.3811 28.83 58.3544 28.62 58.3722C28.42 58.3811 28.18 58.3633 28.1 58.3366C28.02 58.3099 27.57 58.2387 27.1 58.1853C26.63 58.1319 25.52 57.9717 24.62 57.8205C23.72 57.6781 22.94 57.5802 22.89 57.6069C22.84 57.6425 22.8 57.6158 22.8 57.5535C22.8 57.4912 22.7 57.4734 22.55 57.4912C22.42 57.5179 22.29 57.509 22.28 57.4823C22.24 57.4022 20.31 57.0996 20.2 57.1619C20.16 57.1886 20.1 57.1708 20.08 57.1174C20.07 57.0729 19.79 57.0195 19.48 57.0106C19.16 56.9928 18.9 56.9484 18.9 56.9039C18.9 56.8683 18.74 56.8505 18.55 56.8683C18.36 56.8861 18.2 56.8772 18.2 56.8505C18.2 56.7704 15.13 56.4678 15 56.539C14.95 56.5657 14.9 56.5479 14.9 56.4945C14.9 56.4322 14.71 56.3966 14.37 56.4144C14.08 56.4233 13.78 56.4055 13.72 56.3699C13.65 56.3343 13.24 56.3165 12.8 56.3254C12.36 56.3343 11.97 56.3165 11.93 56.2809C11.83 56.1919 8.84 56.2186 7.43 56.3254C5.91 56.4322 3.76 56.7437 3.72 56.8505C3.7 56.895 3.63 56.9128 3.56 56.8861C3.46 56.8505 2.08 57.2242 1.59 57.42C1.45 57.4734 1.42 57.42 1.38 57.1263C1.36 56.9217 1.38 56.7615 1.43 56.7615C1.48 56.7615 1.5 56.6191 1.48 56.45C1.46 56.2809 1.47 56.1385 1.51 56.1385C1.54 56.1385 1.6 55.8983 1.63 55.6135C1.67 55.3287 1.83 54.4655 2 53.7002C2.17 52.9349 2.28 52.2674 2.25 52.2318C2.22 52.1873 2.24 52.1339 2.3 52.1162C2.35 52.1073 2.41 51.9293 2.43 51.7335C2.44 51.5377 2.48 51.3597 2.51 51.333C2.61 51.2618 3.01 49.7223 2.95 49.6422C2.92 49.6066 2.94 49.5532 2.98 49.5354C3.08 49.4998 3.63 47.8535 3.56 47.8001C3.45 47.7022 3.9 47.4085 4.67 47.0793C5.12 46.8835 5.46 46.6966 5.42 46.661C5.38 46.6165 5.4 46.6165 5.46 46.6432C5.58 46.7055 7.33 46.0203 7.38 45.8868C7.4 45.8512 7.45 45.8334 7.49 45.8601C7.59 45.9135 10.54 44.8367 10.58 44.7388C10.6 44.6943 10.65 44.6765 10.7 44.7032C10.78 44.7477 12.41 44.2405 12.5 44.1426C12.53 44.107 12.6 44.0803 12.65 44.0803C12.89 44.0803 14 43.7332 14 43.662C14 43.6175 14.04 43.5997 14.09 43.6264C14.14 43.6531 14.87 43.5018 15.71 43.2883C16.56 43.0747 17.42 42.87 17.63 42.8344C17.83 42.7988 18 42.7365 18 42.6831C18 42.6386 18.04 42.6208 18.09 42.6475C18.19 42.7009 20.33 42.3272 20.38 42.2471C20.39 42.2204 20.54 42.2204 20.7 42.2382C20.87 42.256 21 42.2382 21 42.2026C21 42.1581 21.33 42.1136 21.72 42.0958C22.12 42.0869 22.47 42.0424 22.5 42.0068C22.55 41.9356 22.74 41.9356 25.5 41.9089C28.19 41.8822 29.92 42.1225 32.74 42.9145C33.18 43.0391 33.57 43.1192 33.61 43.0925C33.65 43.0747 33.7 43.0925 33.72 43.137C33.75 43.2171 35.86 43.9913 36.05 43.9913C36.11 43.9913 36.17 44.018 36.2 44.0447C36.32 44.1782 37.08 44.4718 37.15 44.4095C37.2 44.374 37.19 44.4007 37.15 44.4718C37.09 44.5697 37.11 44.5875 37.24 44.543C37.33 44.5074 37.38 44.5163 37.35 44.5608C37.3 44.6409 37.67 44.8011 37.83 44.7655C37.88 44.7566 37.89 44.7833 37.86 44.8278C37.8 44.9079 38.17 45.0681 38.33 45.0325C38.38 45.0236 38.39 45.0503 38.35 45.1037C38.29 45.1927 38.44 45.2372 38.65 45.1927C38.7 45.1838 38.72 45.2105 38.68 45.2461C38.58 45.3262 39.32 45.8156 39.45 45.7533C39.5 45.7177 39.52 45.7266 39.49 45.7622C39.45 45.7978 39.67 46.0292 39.98 46.2873C40.28 46.5453 40.72 46.9814 40.95 47.2573C41.19 47.5331 41.4 47.7467 41.42 47.7289C41.45 47.7022 41.47 47.7378 41.47 47.8001C41.48 47.9514 41.96 48.8502 42.01 48.7968C42.04 48.779 42.06 48.8324 42.07 48.9125C42.09 49.2062 42.35 50.1762 42.4 50.1762C42.51 50.1762 42.32 52.3831 42.16 52.9171C42.07 53.2196 42.02 53.5133 42.05 53.5578C42.08 53.5934 42.05 53.6468 41.99 53.6646C41.93 53.6824 41.87 53.807 41.87 53.9405C41.86 54.0739 41.82 54.1807 41.78 54.1807C41.75 54.1807 41.66 54.332 41.59 54.5189C41.53 54.6969 41.35 55.0706 41.19 55.3465C41.04 55.6224 40.94 55.8805 40.98 55.9161C41.02 55.9606 40.99 55.9606 40.93 55.925C40.81 55.8627 40.75 55.9695 40.79 56.1652C40.8 56.2097 40.76 56.2186 40.71 56.183C40.65 56.1563 40.56 56.2186 40.5 56.3165C40.44 56.4144 40.17 56.6547 39.9 56.8416C39.63 57.0284 39.44 57.2153 39.48 57.2509C39.52 57.2865 39.51 57.3043 39.45 57.2954C39.24 57.2509 39.09 57.2954 39.15 57.3844C39.19 57.4378 39.18 57.4645 39.13 57.4556C39.03 57.4289 37.9 57.8472 37.9 57.9095C37.9 57.9362 37.78 57.9717 37.63 57.9806C37.48 57.9806 37.34 58.034 37.32 58.0785C37.31 58.123 37.2 58.1497 37.1 58.123C36.98 58.0963 36.9 58.123 36.9 58.1764C36.9 58.2387 36.86 58.2565 36.8 58.2298C36.75 58.2031 36.34 58.2387 35.89 58.3188C35.44 58.39 34.91 58.4523 34.71 58.4523C34.5 58.4523 34.31 58.479 34.28 58.5057C34.19 58.5858 30.19 58.5947 30.13 58.5146V58.5146ZM30.08 53.3264C30.23 53.2374 30.3 53.104 30.3 52.8904C30.3 52.7302 30.4 52.3208 30.52 51.9916C30.64 51.6534 30.73 51.3419 30.72 51.3063C30.7 51.2618 30.74 51.2529 30.8 51.2885C30.9 51.3419 30.95 51.2084 30.9 51.0216C30.89 50.9771 30.91 50.9593 30.94 50.986C30.97 51.0127 31.21 50.8614 31.46 50.6389C31.72 50.4253 32.18 50.1406 32.49 50.0071C32.98 49.8024 33.18 49.7757 34.05 49.7757C34.96 49.7757 35.11 49.8024 35.65 50.0427C35.98 50.1851 36.29 50.2918 36.35 50.274C36.4 50.2651 36.42 50.274 36.39 50.3007C36.32 50.3719 37.01 51.0216 37.13 50.9949C37.17 50.986 37.19 51.0038 37.18 51.0394C37.14 51.1818 37.32 51.511 37.41 51.4665C37.46 51.4398 37.47 51.4843 37.43 51.5644C37.4 51.6534 37.41 51.6979 37.46 51.6712C37.51 51.6356 37.56 51.7157 37.57 51.8403C37.57 51.9649 37.62 52.0895 37.67 52.1251C37.71 52.1518 37.76 52.3564 37.78 52.5789C37.79 52.8014 37.82 53.0684 37.85 53.1662C37.91 53.3887 38.25 53.4955 38.52 53.3709C38.89 53.1929 38.66 51.7869 38.13 50.986C37.78 50.4609 37.1 49.8113 36.97 49.8825C36.91 49.9092 36.9 49.8914 36.94 49.838C37.02 49.7223 36.66 49.5265 36.55 49.6244C36.5 49.66 36.5 49.6422 36.53 49.5888C36.61 49.4642 35.45 48.9837 35.24 49.0549C35.16 49.0816 35.1 49.0549 35.1 49.0104C35.1 48.9481 34.99 48.9303 34.85 48.9481C34.71 48.9748 34.57 48.957 34.54 48.9214C34.48 48.8324 33.67 48.8146 33.57 48.8947C33.54 48.9303 33.33 48.9659 33.11 48.9748C32.62 49.0104 31.48 49.4553 31.57 49.5799C31.6 49.6333 31.58 49.6422 31.52 49.6066C31.38 49.5354 30.38 50.3363 30.46 50.452C30.49 50.4965 30.46 50.5232 30.4 50.5143C30.26 50.4787 29.72 51.2974 29.68 51.6C29.66 51.7246 29.61 51.8492 29.56 51.8848C29.51 51.9115 29.45 52.2318 29.43 52.5967C29.4 53.1306 29.43 53.2641 29.57 53.362C29.78 53.4955 29.81 53.4955 30.08 53.3264V53.3264Z" fill="black"/>
<path d="M66.95 58.4078C66.46 58.3366 65.6 58.1497 65.05 57.9895C64.5 57.8294 63.99 57.7048 63.93 57.7137C63.86 57.7137 63.83 57.6781 63.87 57.6247C63.91 57.5713 63.87 57.5535 63.76 57.5891C63.65 57.6336 63.61 57.6158 63.66 57.5446C63.71 57.4734 63.68 57.4645 63.56 57.5001C63.47 57.5357 63.42 57.5268 63.45 57.4823C63.5 57.4022 63.13 57.242 62.97 57.2776C62.92 57.2865 62.91 57.2598 62.94 57.2153C63 57.1352 62.72 56.9839 62.57 57.0106C62.53 57.0195 62.51 56.9928 62.52 56.9572C62.56 56.8594 61.88 56.272 61.77 56.2987C61.73 56.3076 61.71 56.2898 61.72 56.2542C61.74 56.1296 61.58 55.8716 61.51 55.9161C61.47 55.9339 61.43 55.9072 61.43 55.8449C61.41 55.6758 60.68 54.2252 60.59 54.1985C60.55 54.1807 60.54 54.1095 60.57 54.0384C60.6 53.9672 60.58 53.9138 60.52 53.9138C60.47 53.9138 60.43 53.8604 60.43 53.807C60.45 53.6112 60.28 52.9349 60.22 52.9349C60.12 52.9349 60.1 52.7124 60.06 51.0928C60.04 50.2918 60.06 49.6422 60.1 49.6422C60.18 49.6422 60.35 49.0638 60.33 48.8591C60.32 48.7968 60.34 48.7612 60.37 48.7879C60.43 48.8413 60.92 47.9692 60.93 47.8001C60.93 47.7378 60.97 47.7111 61.02 47.7378C61.1 47.7823 61.14 47.6399 61.1 47.4619C61.09 47.4174 61.11 47.3996 61.15 47.4352C61.19 47.4708 61.39 47.3106 61.59 47.0793C61.8 46.8479 62.04 46.6076 62.13 46.5364C62.22 46.4741 62.27 46.3851 62.24 46.3406C62.21 46.2962 62.22 46.2695 62.27 46.2784C62.41 46.3228 63 45.8779 62.93 45.7889C62.9 45.7355 62.91 45.7177 62.96 45.7533C63.08 45.8156 63.82 45.3261 63.72 45.2461C63.68 45.2105 63.7 45.1838 63.75 45.1927C63.96 45.2372 64.11 45.1927 64.05 45.1037C64.01 45.0503 64.02 45.0236 64.07 45.0325C64.23 45.0681 64.6 44.9079 64.54 44.8278C64.51 44.7833 64.52 44.7566 64.57 44.7655C64.71 44.81 65.3 44.5519 65.24 44.4718C65.21 44.4273 65.25 44.4184 65.32 44.4362C65.4 44.4629 65.55 44.4184 65.65 44.3294C65.76 44.2405 65.91 44.1693 65.98 44.1604C66.26 44.1426 66.31 44.1248 66.26 44.0447C66.23 44.0002 66.26 43.9735 66.33 43.9824C66.5 44.0002 68.64 43.2349 68.68 43.137C68.7 43.1014 68.78 43.0925 68.86 43.1192C68.94 43.1459 69 43.1192 69 43.0658C69 43.0124 69.07 42.9946 69.15 43.0213C69.23 43.0569 69.3 43.0302 69.3 42.9768C69.3 42.9234 69.37 42.9056 69.45 42.9323C69.53 42.9679 69.6 42.9412 69.6 42.8789C69.6 42.8255 69.64 42.8077 69.7 42.8344C69.83 42.9056 70.6 42.7009 70.6 42.5941C70.6 42.5496 70.64 42.5318 70.69 42.5674C70.79 42.6208 71.7 42.425 71.7 42.345C71.7 42.3183 71.89 42.2916 72.12 42.2827C72.35 42.2649 72.56 42.2293 72.59 42.1937C72.62 42.1492 72.87 42.1136 73.15 42.0958C73.42 42.078 73.7 42.0246 73.76 41.9801C73.82 41.9356 73.89 41.9178 73.91 41.9445C73.94 41.9623 74.57 41.9445 75.32 41.9089C76.74 41.8288 80.36 41.9623 80.8 42.1136C80.88 42.1403 81.18 42.1759 81.45 42.1848C81.73 42.2026 81.97 42.2382 82 42.2649C82.03 42.2916 82.37 42.3628 82.75 42.425C83.14 42.4873 84.17 42.692 85.05 42.8967C85.93 43.0925 86.74 43.2616 86.85 43.2705C86.96 43.2705 87.07 43.3061 87.1 43.3328C87.2 43.4395 88.2 43.6887 88.3 43.6353C88.35 43.6086 88.4 43.6264 88.4 43.6798C88.4 43.7421 88.47 43.7688 88.55 43.7332C88.63 43.7065 88.7 43.7243 88.7 43.7777C88.7 43.8311 88.77 43.8578 88.85 43.8222C88.93 43.7955 89 43.8133 89 43.8667C89 43.9201 89.07 43.9468 89.15 43.9112C89.23 43.8845 89.3 43.9023 89.3 43.9557C89.3 44.0091 89.37 44.0358 89.45 44.0002C89.53 43.9735 89.6 43.9913 89.6 44.0447C89.6 44.0981 89.67 44.1248 89.75 44.0892C89.83 44.0625 89.9 44.0803 89.9 44.1159C89.9 44.2227 90.8 44.4896 90.91 44.4273C90.96 44.4006 91 44.4184 91 44.4629C91 44.5697 91.59 44.7655 91.7 44.7032C91.75 44.6765 91.8 44.6943 91.82 44.7388C91.87 44.8634 94.11 45.6376 94.24 45.5753C94.3 45.5486 94.32 45.5575 94.27 45.5931C94.17 45.691 94.78 45.9224 94.94 45.8423C95 45.8156 95.02 45.8156 94.98 45.8601C94.88 45.958 95.69 46.2783 95.84 46.1983C95.9 46.1716 95.92 46.1716 95.88 46.2161C95.78 46.305 96.79 46.7233 96.93 46.6432C96.99 46.6076 97 46.6343 96.95 46.7055C96.89 46.7945 96.91 46.8123 97.03 46.7678C97.12 46.7411 97.2 46.75 97.22 46.7856C97.24 46.8301 97.48 46.9636 97.77 47.0971C98.28 47.3195 98.3 47.3373 98.53 48.0137C98.67 48.3963 98.81 48.8413 98.85 49.0015C98.88 49.1528 98.96 49.2862 99.01 49.2862C99.07 49.2862 99.09 49.3218 99.06 49.3663C98.99 49.4553 99.71 52.1695 99.81 52.2051C99.84 52.214 99.85 52.3297 99.82 52.4454C99.8 52.57 99.82 52.6679 99.87 52.6679C99.93 52.6679 99.95 52.7658 99.92 52.8904C99.9 53.015 99.92 53.1128 99.97 53.1128C100.03 53.1128 100.05 53.2107 100.02 53.3353C100 53.4688 100.02 53.5578 100.09 53.5578C100.16 53.5578 100.19 53.5934 100.15 53.6468C100.1 53.7269 100.36 55.3465 100.47 55.6046C100.5 55.6758 100.52 55.8271 100.51 55.9339C100.5 56.0495 100.52 56.183 100.56 56.2453C100.61 56.3076 100.63 56.4856 100.61 56.6369C100.6 56.7971 100.63 56.9484 100.68 56.975C100.85 57.064 100.7 57.3488 100.49 57.3488C100.39 57.3488 100.3 57.3132 100.3 57.2687C100.3 57.2242 100.24 57.2064 100.16 57.2331C100.08 57.2598 100 57.242 99.98 57.1975C99.9 56.975 96.87 56.4322 95.15 56.3343C93.93 56.2631 90.67 56.2631 89.45 56.3343C88.96 56.361 88.32 56.3877 88.03 56.3966C87.75 56.3966 87.49 56.4322 87.46 56.4856C87.43 56.5301 87.32 56.5479 87.22 56.5212C87.01 56.4767 83.71 56.8327 83.55 56.9217C83.5 56.9483 83.33 56.9661 83.18 56.9483C83.02 56.9394 82.9 56.9661 82.9 57.0106C82.9 57.0462 82.77 57.0729 82.6 57.0462C82.42 57.0284 82.3 57.0462 82.3 57.1085C82.3 57.1619 82.24 57.1797 82.17 57.153C82.1 57.1352 80.99 57.2954 79.7 57.5179C78.42 57.7404 77.29 57.9183 77.18 57.9183C77.08 57.9183 77 57.9539 77 57.9895C77 58.034 76.87 58.0518 76.7 58.0251C76.54 58.0073 76.4 58.0251 76.4 58.0607C76.4 58.1052 76.21 58.1497 75.97 58.1586C75.74 58.1586 75.03 58.2387 74.4 58.3188C72.79 58.5235 68.19 58.5858 66.95 58.4078V58.4078ZM63.46 53.3353C63.65 53.2196 63.78 52.748 63.83 51.9382C63.84 51.8581 63.86 51.8047 63.89 51.8225C63.91 51.8492 64.02 51.6979 64.13 51.4932C64.25 51.2885 64.54 50.9415 64.79 50.719C65.03 50.4965 65.23 50.2829 65.22 50.2562C65.22 50.2295 65.26 50.2028 65.33 50.1939C65.4 50.1939 65.74 50.0872 66.09 49.9537C66.65 49.7401 66.83 49.7223 67.59 49.749C68.3 49.7668 68.55 49.8202 69.05 50.0427C69.38 50.185 69.69 50.2918 69.75 50.274C69.8 50.2651 69.82 50.2829 69.78 50.3096C69.74 50.3452 69.81 50.452 69.94 50.541C70.07 50.6389 70.31 50.8881 70.48 51.1106C70.64 51.3241 70.8 51.4754 70.84 51.4398C70.88 51.4131 70.88 51.4576 70.84 51.5466C70.8 51.6445 70.81 51.6979 70.86 51.6712C70.91 51.6356 70.96 51.7157 70.97 51.8403C70.97 51.9649 71.02 52.0895 71.07 52.125C71.11 52.1517 71.16 52.3564 71.18 52.5789C71.22 53.3709 71.37 53.5311 71.89 53.362C72.12 53.2908 72.13 53.2552 72.07 52.6412C72.04 52.2941 71.92 51.7869 71.81 51.5377C71.54 50.9237 71.1 50.3452 70.97 50.4164C70.92 50.4431 70.9 50.4253 70.93 50.3719C71.11 50.1228 69.03 48.9214 68.65 49.0549C68.57 49.0816 68.5 49.0638 68.5 49.0104C68.5 48.957 68.4 48.9303 68.28 48.9392C68.15 48.9481 67.96 48.9214 67.86 48.8858C67.54 48.7612 66.12 48.9926 65.44 49.2773C64.76 49.5621 63.76 50.3185 63.87 50.4698C63.9 50.5232 63.88 50.5321 63.82 50.4965C63.69 50.4253 63.08 51.3241 63.15 51.4932C63.17 51.5466 63.16 51.6 63.11 51.6C62.98 51.6 62.8 52.3297 62.8 52.837C62.8 53.1662 62.85 53.3086 62.98 53.3709C63.2 53.4955 63.22 53.4866 63.46 53.3353V53.3353Z" fill="black"/>
<path d="M49.6 45.5486C48.46 45.4685 47.25 45.2016 46.1 44.7744C45.63 44.6053 45.17 44.4629 45.08 44.454C44.99 44.4451 44.94 44.4006 44.97 44.3561C45.01 44.3116 44.96 44.2939 44.86 44.3294C44.75 44.3739 44.71 44.3561 44.76 44.285C44.81 44.2138 44.78 44.2049 44.66 44.2405C44.57 44.2761 44.51 44.2672 44.54 44.2227C44.6 44.1426 43.81 43.7955 43.65 43.84C43.6 43.8578 43.58 43.84 43.63 43.8044C43.71 43.7332 42.91 43.2705 42.77 43.3061C42.72 43.315 42.71 43.2883 42.74 43.2438C42.8 43.1637 42.52 43.0124 42.37 43.048C42.32 43.0569 42.31 43.0302 42.34 42.9857C42.4 42.8878 40.53 41.6686 40.37 41.7042C40.31 41.722 40.28 41.7042 40.33 41.6686C40.42 41.5796 39.59 41.0902 39.47 41.1614C39.41 41.1881 39.4 41.1703 39.44 41.1169C39.51 41.019 39.38 40.9656 39.17 41.0012C39.12 41.0101 39.11 40.9834 39.14 40.9389C39.21 40.841 37.65 40.1024 37.55 40.1914C37.5 40.227 37.5 40.2092 37.53 40.1558C37.61 40.0401 36.93 39.7375 36.77 39.8176C36.7 39.8532 36.68 39.8532 36.72 39.8087C36.85 39.6841 34.08 38.6518 33.84 38.7319C33.76 38.7586 33.7 38.7497 33.7 38.7052C33.7 38.6162 32.51 38.3226 32.39 38.3849C32.34 38.4205 32.3 38.4027 32.3 38.3582C32.3 38.2603 30.24 37.8598 30.04 37.931C29.96 37.9577 29.9 37.9399 29.9 37.8865C29.9 37.8242 29.74 37.7975 29.5 37.8242C29.28 37.842 29.1 37.8242 29.1 37.7797C29.1 37.7352 28.89 37.7085 28.63 37.7263C28.36 37.7352 28.07 37.7085 27.97 37.6729C27.41 37.4683 20.8 37.842 20.8 38.0823C20.8 38.1268 20.74 38.1357 20.67 38.109C20.57 38.0734 19.68 38.2247 18.32 38.4917C18.2 38.5183 18.1 38.5806 18.1 38.6251C18.1 38.6696 18.06 38.6785 18 38.6518C17.87 38.5806 16.7 38.8743 16.7 38.9811C16.7 39.0256 16.65 39.0345 16.6 39.0078C16.46 38.9366 14.3 39.5773 14.3 39.6841C14.3 39.7375 14.26 39.7553 14.21 39.7197C14.09 39.6574 12.05 40.3605 11.86 40.5206C11.79 40.5918 11.7 40.6274 11.68 40.6007C11.59 40.5295 10.6 40.9834 10.68 41.0546C10.72 41.0991 10.69 41.0991 10.62 41.0635C10.48 40.9834 7.09 42.5229 7.16 42.6297C7.19 42.6653 7.13 42.6742 7.04 42.6386C6.92 42.603 6.89 42.6119 6.94 42.692C6.98 42.7454 6.98 42.781 6.93 42.7721C6.76 42.7187 6.2 42.9946 6.27 43.0925C6.3 43.1459 6.29 43.1637 6.25 43.1281C6.2 43.0836 5.97 43.1548 5.73 43.2794C5.5 43.4039 5.3 43.4929 5.3 43.4751C5.3 43.4573 5.43 43.1459 5.6 42.7899C5.76 42.4339 5.87 42.1136 5.84 42.0691C5.81 42.0246 5.83 41.989 5.88 41.989C6 41.989 6.51 40.9211 6.44 40.8232C6.41 40.7787 6.43 40.7431 6.48 40.7431C6.61 40.7431 6.91 40.1202 6.84 40.0134C6.79 39.9511 6.82 39.9422 6.9 39.9867C7 40.0401 7.02 40.0223 6.97 39.9155C6.94 39.8354 6.95 39.7642 6.99 39.7464C7.13 39.7019 8.69 36.8542 8.62 36.783C8.58 36.7385 8.6 36.7385 8.66 36.7652C8.77 36.8186 9.28 35.9732 9.22 35.8219C9.21 35.7774 9.24 35.7685 9.3 35.8041C9.35 35.8308 9.4 35.8219 9.4 35.7863C9.4 35.7418 9.69 35.2702 10.04 34.7362C10.4 34.2023 10.66 33.7217 10.63 33.6683C10.59 33.6239 10.6 33.6061 10.65 33.6417C10.69 33.6772 11.06 33.2412 11.48 32.6628C11.89 32.0932 12.32 31.5237 12.42 31.408C12.52 31.2923 12.57 31.1588 12.53 31.1054C12.5 31.052 12.52 31.0431 12.58 31.0787C12.69 31.141 12.75 31.0164 12.7 30.8206C12.69 30.7761 12.71 30.7583 12.75 30.7939C12.84 30.874 14.2 29.2455 14.12 29.1387C14.09 29.0942 14.12 29.0853 14.17 29.112C14.29 29.1743 14.66 28.7383 14.61 28.5959C14.6 28.5514 14.62 28.5336 14.66 28.5692C14.74 28.6493 15.41 27.9195 15.34 27.8216C15.31 27.7772 15.32 27.7594 15.37 27.7683C15.42 27.7861 15.82 27.439 16.26 26.994C16.7 26.558 17.45 25.8727 17.91 25.4901C18.37 25.0985 18.74 24.7515 18.73 24.707C18.71 24.6714 18.74 24.6447 18.78 24.6625C18.9 24.6892 19.6 24.1285 19.52 24.0573C19.48 24.0217 19.5 24.0128 19.56 24.0306C19.71 24.0662 21.11 23.0784 21.02 22.9983C20.98 22.9628 21 22.945 21.05 22.9539C21.21 22.9983 21.8 22.6513 21.73 22.5623C21.7 22.5089 21.71 22.5 21.76 22.5267C21.89 22.5979 23.12 21.8326 23.02 21.7436C22.98 21.6991 23 21.6902 23.05 21.7258C23.18 21.7881 24.22 21.2096 24.12 21.1295C24.08 21.0939 24.1 21.0761 24.15 21.085C24.32 21.1295 24.71 20.9783 24.64 20.8893C24.61 20.8448 24.62 20.8181 24.67 20.827C24.84 20.8626 25.2 20.7024 25.14 20.6134C25.1 20.56 25.11 20.5422 25.17 20.5689C25.3 20.6401 26.93 19.8837 26.83 19.7947C26.79 19.7591 26.84 19.7591 26.94 19.7947C27.08 19.8392 27.11 19.8303 27.06 19.7502C27.02 19.6968 27.02 19.6612 27.07 19.6701C27.21 19.7057 27.6 19.5544 27.6 19.4654C27.6 19.412 27.64 19.3942 27.69 19.4209C27.83 19.501 28.11 19.3764 28.03 19.2696C28 19.2162 28.02 19.2073 28.08 19.2429C28.2 19.3052 29.23 18.887 29.28 18.7535C29.3 18.709 29.35 18.6912 29.4 18.7179C29.51 18.7802 30 18.5844 30 18.4776C30 18.4331 30.04 18.4153 30.09 18.442C30.19 18.5043 31.44 18.0683 31.48 17.9526C31.5 17.9081 31.55 17.8903 31.6 17.917C31.7 17.9704 32.3 17.7924 32.3 17.7034C32.3 17.6678 32.38 17.6411 32.48 17.6411C32.73 17.6322 35.64 16.7779 35.68 16.6978C35.7 16.6533 35.76 16.6444 35.8 16.6711C35.93 16.7423 36.8 16.5287 36.8 16.4308C36.8 16.3863 36.84 16.3685 36.89 16.3952C37 16.4575 38.4 16.1728 38.4 16.0838C38.4 16.0571 38.51 16.0482 38.65 16.0749C38.8 16.0927 38.9 16.0749 38.9 16.0126C38.9 15.9503 38.94 15.9325 39 15.9592C39.1 16.0126 41.31 15.6566 41.4 15.5676C41.43 15.5409 41.72 15.5053 42.05 15.4875C42.38 15.4697 42.66 15.4252 42.68 15.3985C42.69 15.3629 42.88 15.3451 43.1 15.3629C43.32 15.3807 43.5 15.3629 43.5 15.3273C43.5 15.2828 43.82 15.2383 44.22 15.2206C44.61 15.2117 44.99 15.1583 45.05 15.1138C45.12 15.0693 45.19 15.0515 45.23 15.0782C45.26 15.1049 45.95 15.0871 46.77 15.0337C48.66 14.9091 55.74 14.9269 55.98 15.0604C56.03 15.0871 56.45 15.1138 56.93 15.1316C57.41 15.1494 57.8 15.1939 57.8 15.2383C57.8 15.2739 57.98 15.2917 58.2 15.2739C58.42 15.2561 58.6 15.265 58.6 15.3006C58.6 15.3273 58.9 15.3807 59.27 15.4163C59.64 15.4519 60.4 15.5587 60.97 15.6566C61.54 15.7545 62.05 15.8079 62.1 15.7812C62.16 15.7545 62.2 15.7723 62.2 15.8346C62.2 15.8969 62.3 15.9147 62.45 15.8969C62.59 15.8702 62.7 15.888 62.7 15.9236C62.7 15.9681 62.79 16.0037 62.9 16.0037C63 16.0037 63.71 16.1461 64.46 16.3151C65.21 16.4842 65.86 16.5999 65.91 16.5732C65.96 16.5465 66 16.5643 66 16.6088C66 16.7067 67.18 17.0004 67.31 16.9381C67.36 16.9025 67.4 16.9292 67.4 16.9826C67.4 17.0449 67.46 17.0716 67.54 17.0449C67.62 17.0182 67.7 17.036 67.72 17.0805C67.74 17.1339 67.88 17.1872 68.03 17.1872C68.18 17.1961 68.3 17.2406 68.3 17.2851C68.3 17.3207 68.36 17.3385 68.44 17.3118C68.52 17.2851 68.6 17.294 68.62 17.3296C68.66 17.4364 70.1 17.8814 70.2 17.828C70.25 17.8013 70.3 17.8191 70.32 17.8636C70.33 17.9081 70.94 18.1483 71.65 18.4064C72.37 18.6645 73.72 19.2251 74.65 19.6434C75.59 20.0617 76.41 20.3998 76.47 20.3909C76.54 20.3909 76.58 20.4176 76.55 20.4532C76.49 20.5333 77.1 20.7736 77.25 20.738C77.3 20.7202 77.32 20.738 77.28 20.7736C77.2 20.8448 78.27 21.4588 78.48 21.4588C78.54 21.4588 78.58 21.4855 78.55 21.5033C78.47 21.5834 79.33 22.055 79.43 21.9928C79.49 21.9661 79.5 21.9839 79.46 22.0372C79.39 22.1351 79.53 22.1885 79.75 22.144C79.8 22.1351 79.82 22.1618 79.78 22.1974C79.74 22.233 79.96 22.4199 80.28 22.6157C80.59 22.8204 81 23.0873 81.19 23.2208C81.38 23.3632 81.58 23.4433 81.64 23.4166C81.7 23.3899 81.72 23.3899 81.68 23.4344C81.6 23.5145 81.99 23.8082 82.12 23.7637C82.17 23.7548 82.19 23.7726 82.17 23.8171C82.14 23.915 83.67 25.0807 83.75 25.0095C83.79 24.9739 83.8 24.9917 83.78 25.0362C83.74 25.1519 85.62 26.8161 85.75 26.7805C85.81 26.7716 85.82 26.7894 85.78 26.825C85.69 26.8961 86.3 27.5369 86.42 27.5102C86.46 27.4924 86.49 27.5102 86.47 27.5547C86.43 27.6615 86.87 28.1064 86.95 28.0352C86.98 27.9996 87 28.0174 86.98 28.0708C86.96 28.1242 87.32 28.587 87.76 29.0942C88.21 29.6015 88.91 30.4469 89.32 30.9719C89.74 31.497 90.09 31.9063 90.12 31.8885C90.15 31.8618 90.17 31.8974 90.17 31.9597C90.17 32.1021 91.46 33.8997 91.52 33.8463C91.55 33.8196 91.57 33.8552 91.57 33.9175C91.57 34.1044 92.97 36.2046 93.04 36.1334C93.08 36.0978 93.1 36.1156 93.08 36.169C93.03 36.3025 93.62 37.3615 93.72 37.3081C93.76 37.2814 93.77 37.3348 93.73 37.4149C93.69 37.5216 93.7 37.5483 93.79 37.5038C93.85 37.4683 93.89 37.4683 93.88 37.5128C93.84 37.6284 94.32 38.5183 94.41 38.5183C94.46 38.5183 94.46 38.5806 94.43 38.6696C94.38 38.7764 94.4 38.7942 94.5 38.7408C94.58 38.6963 94.61 38.7052 94.56 38.7675C94.52 38.8209 94.66 39.1502 94.85 39.5061C95.05 39.8532 95.39 40.5028 95.62 40.9567C95.84 41.4017 96.07 41.7932 96.13 41.8288C96.34 41.9534 96.02 41.9089 95.64 41.7665C95.44 41.6953 95.23 41.6597 95.16 41.6953C95.1 41.722 95.09 41.7131 95.13 41.6775C95.22 41.5796 94.33 41.2504 94.19 41.3216C94.14 41.3572 94.1 41.3394 94.1 41.2949C94.1 41.1881 93.21 40.9033 93.09 40.9745C93.04 41.0012 93 40.9745 93 40.9211C93 40.8588 92.93 40.8321 92.85 40.8677C92.77 40.8944 92.7 40.8766 92.7 40.8232C92.7 40.7698 92.63 40.7431 92.55 40.7787C92.47 40.8054 92.4 40.7876 92.4 40.7342C92.4 40.6808 92.33 40.6541 92.25 40.6897C92.17 40.7164 92.1 40.7075 92.1 40.663C92.1 40.4939 87.13 39.346 86.84 39.4439C86.76 39.4706 86.7 39.4439 86.7 39.3994C86.7 39.3371 86.59 39.3193 86.45 39.3371C86.31 39.3638 86.2 39.3549 86.2 39.3193C86.2 39.1947 81.49 38.6162 80.31 38.5984C80.11 38.5895 79.41 38.5628 78.75 38.5361C75.85 38.4116 72.87 38.5006 70.45 38.7764C68.48 39.0078 66.6 39.3104 66.6 39.4083C66.6 39.4528 66.51 39.4616 66.4 39.435C66.28 39.4083 66.2 39.435 66.2 39.4883C66.2 39.5506 66.16 39.5684 66.1 39.5417C65.98 39.4794 64.4 39.8532 64.4 39.9511C64.4 39.9956 64.33 40.0045 64.25 39.9778C64.17 39.9422 64.1 39.9689 64.1 40.0223C64.1 40.0757 64.03 40.0935 63.95 40.0668C63.87 40.0312 63.8 40.0579 63.8 40.1202C63.8 40.1736 63.76 40.2003 63.71 40.1647C63.57 40.0935 61.9 40.6719 61.97 40.7787C62 40.8232 61.98 40.8321 61.92 40.7965C61.78 40.7164 60.29 41.375 60.37 41.4817C60.4 41.5351 60.39 41.544 60.33 41.5173C60.19 41.4372 59.17 42.0246 59.27 42.1225C59.31 42.1581 59.3 42.167 59.24 42.1403C59.11 42.078 58.44 42.4962 58.48 42.6208C58.49 42.6653 58.47 42.692 58.43 42.6831C58.29 42.6475 57.8 42.9857 57.86 43.0658C57.89 43.1103 57.88 43.137 57.83 43.1281C57.7 43.0925 56.8 43.7332 56.88 43.8044C56.92 43.84 56.9 43.8667 56.85 43.8578C56.64 43.8133 56.49 43.8578 56.55 43.9468C56.59 44.0002 56.58 44.0358 56.53 44.0269C56.31 43.9913 56.19 44.0447 56.26 44.1515C56.3 44.2049 56.3 44.2316 56.26 44.196C56.22 44.1693 55.86 44.2939 55.47 44.4807C53.6 45.3795 51.83 45.6999 49.6 45.5486V45.5486Z" fill="#212121"/>
<path d="M12.07 30.3579C12.04 30.3134 11.78 29.1654 11.49 27.795C11.2 26.4245 10.93 25.2854 10.9 25.2587C10.87 25.232 10.84 25.0184 10.82 24.7693C10.8 24.529 10.74 24.3065 10.69 24.2976C10.64 24.2798 10.62 24.2264 10.66 24.1819C10.69 24.1374 10.55 23.2475 10.36 22.2152C9.97 20.1328 9.5 17.125 9.5 16.7245C9.5 16.591 9.47 16.4486 9.43 16.413C9.39 16.3774 9.37 16.1728 9.39 15.9592C9.4 15.7367 9.38 15.5231 9.35 15.4697C9.21 15.2739 9.17 12.3284 9.3 11.6075C9.35 11.3139 9.37 11.0469 9.34 11.0113C9.32 10.9757 9.35 10.9312 9.41 10.9134C9.48 10.8956 9.54 10.7799 9.55 10.6553C9.56 10.5396 9.62 10.4506 9.68 10.4595C9.73 10.4684 9.92 10.4417 10.09 10.3972C10.29 10.3528 10.4 10.3528 10.4 10.4061C10.4 10.4595 10.48 10.4862 10.58 10.4684C10.67 10.4506 10.8 10.4684 10.85 10.504C11.08 10.6642 12.69 11.3583 12.74 11.3228C12.77 11.305 12.78 11.3139 12.75 11.3495C12.67 11.4384 13.22 11.7321 13.34 11.6698C13.4 11.6431 13.42 11.6431 13.38 11.6787C13.34 11.7232 13.75 12.0436 14.28 12.3995C14.81 12.7555 15.45 13.1827 15.7 13.3606C15.94 13.5386 16.18 13.6543 16.24 13.6276C16.29 13.6009 16.3 13.6187 16.27 13.6632C16.2 13.7611 16.69 14.0993 16.83 14.0637C16.88 14.0548 16.89 14.0726 16.86 14.1171C16.8 14.2061 17.4 14.6332 17.53 14.5976C17.58 14.5887 17.59 14.6065 17.56 14.651C17.5 14.74 18.3 15.354 18.43 15.3095C18.48 15.3006 18.49 15.3184 18.46 15.3629C18.4 15.4519 19.5 16.324 19.62 16.2973C19.67 16.2795 19.69 16.3062 19.67 16.3507C19.65 16.4308 21.1 17.6589 21.19 17.6322C21.22 17.6144 21.25 17.6322 21.25 17.6767C21.25 17.7123 21.9 18.3085 22.7 18.9938C24.15 20.2574 24.15 20.2574 23.82 20.4265C23.65 20.5244 23.53 20.6312 23.58 20.6757C23.62 20.7202 23.6 20.7202 23.54 20.6935C23.39 20.6223 21.47 21.7258 21.57 21.8237C21.62 21.8593 21.6 21.8771 21.55 21.8682C21.39 21.8237 20.8 22.1707 20.87 22.2597C20.9 22.3131 20.89 22.322 20.83 22.2953C20.72 22.233 18.84 23.5501 18.88 23.6747C18.89 23.7192 18.87 23.737 18.82 23.7103C18.62 23.6035 14.83 26.9584 14.96 27.1453C14.99 27.1898 14.97 27.2076 14.92 27.1987C14.78 27.1631 12.9 29.2722 12.97 29.379C13 29.4324 12.98 29.4413 12.93 29.4146C12.82 29.3523 12.65 29.5926 12.69 29.7528C12.71 29.7972 12.68 29.815 12.64 29.7794C12.55 29.6905 12.09 30.2422 12.16 30.3401C12.19 30.3846 12.19 30.4202 12.16 30.4202C12.13 30.4202 12.09 30.3935 12.07 30.3579V30.3579Z" fill="black"/>
<path d="M89.17 29.3345C89.07 29.112 86.98 26.905 86.89 26.9228C86.84 26.9406 86.81 26.9139 86.83 26.8694C86.86 26.7716 86.22 26.0507 86.12 26.0863C86.08 26.0952 86.04 26.0685 86.02 26.0151C85.97 25.8372 84.66 24.7337 84.57 24.7871C84.51 24.8138 84.5 24.796 84.53 24.7515C84.6 24.6536 83.71 23.9506 83.57 23.995C83.52 24.0039 83.51 23.9772 83.54 23.9328C83.61 23.8349 82.95 23.3721 82.85 23.4611C82.82 23.4967 82.8 23.4789 82.82 23.4255C82.86 23.292 81.49 22.3131 81.36 22.3843C81.3 22.4199 81.28 22.411 81.32 22.3665C81.42 22.2686 80.8 21.8682 80.66 21.9394C80.6 21.9661 80.58 21.9572 80.63 21.9216C80.72 21.8237 79 20.8003 78.86 20.8715C78.8 20.8982 78.78 20.8982 78.82 20.8537C78.92 20.7647 77.7 20.0884 77.57 20.1595C77.51 20.1862 77.5 20.1684 77.53 20.1239C77.6 20.0261 77.02 19.768 76.85 19.8125C76.8 19.8303 76.78 19.8125 76.82 19.7769C76.86 19.7413 76.82 19.6612 76.72 19.59C76.63 19.5188 76.6 19.4832 76.66 19.5099C76.72 19.5366 76.9 19.4387 77.05 19.2963C77.21 19.145 77.3 19.0294 77.26 19.0294C77.21 19.0294 77.23 18.9671 77.3 18.8959C77.37 18.8247 77.46 18.7802 77.5 18.8069C77.59 18.8514 78.02 18.4598 77.95 18.3886C77.92 18.3708 78.02 18.2551 78.18 18.1306C78.45 17.917 78.45 17.917 78.2 18.1839C78.03 18.3708 78.08 18.3441 78.38 18.095C78.81 17.739 78.94 17.5788 78.63 17.7924C78.47 17.8903 78.47 17.8903 78.58 17.7835C78.65 17.7123 78.74 17.65 78.79 17.65C78.93 17.65 81.09 15.7901 81.04 15.7189C81.01 15.6744 81.02 15.6566 81.07 15.6655C81.21 15.71 82.2 14.918 82.13 14.8112C82.1 14.7578 82.1 14.74 82.15 14.7756C82.24 14.8468 83.46 13.8768 83.42 13.7611C83.41 13.7255 83.43 13.6988 83.47 13.7077C83.6 13.7433 84.2 13.3072 84.14 13.2272C84.11 13.1827 84.13 13.1649 84.18 13.1738C84.31 13.2094 85.96 11.9902 85.92 11.8923C85.91 11.8478 85.93 11.83 85.98 11.8567C86.09 11.919 86.91 11.3228 86.82 11.2516C86.78 11.216 86.8 11.1893 86.85 11.2071C87.03 11.2427 87.3 11.0914 87.23 10.9935C87.2 10.949 87.21 10.9312 87.27 10.9579C87.37 11.0113 88.33 10.4506 88.25 10.3795C88.22 10.3528 88.26 10.335 88.32 10.335C88.39 10.335 88.81 10.1392 89.25 9.9167C90.24 9.40945 91.04 9.13358 91.44 9.16918C91.85 9.20477 92.09 9.63193 92.2 10.5485C92.32 11.474 92.32 12.0792 92.2 13.5119C92.14 14.1705 92.12 14.7578 92.15 14.8201C92.17 14.8824 92.16 14.9358 92.12 14.9358C92.05 14.9358 91.79 16.7334 91.74 17.5165C91.73 17.6856 91.7 17.8903 91.67 17.9615C91.56 18.2373 91.19 20.6312 91.24 20.7113C91.28 20.7558 91.26 20.8092 91.21 20.827C91.15 20.8359 91.1 21.0761 91.08 21.3431C91.06 21.6101 91.03 21.8504 91 21.8771C90.9 21.9572 90.19 25.6147 90.25 25.7037C90.28 25.7571 90.26 25.7927 90.19 25.7927C90.12 25.7927 90.1 25.8817 90.12 26.0151C90.15 26.1397 90.14 26.2376 90.1 26.2376C90.07 26.2376 89.88 26.9584 89.69 27.8395C89.5 28.7205 89.32 29.4413 89.29 29.4413C89.25 29.4413 89.2 29.3879 89.17 29.3345V29.3345Z" fill="black"/>
<path d="M23.76 18.7713C23.04 18.1306 22.43 17.6322 22.39 17.65C22.31 17.7034 22.08 17.472 22.15 17.4097C22.22 17.3474 20.58 16.0393 20.47 16.0749C20.42 16.0838 20.41 16.066 20.44 16.0215C20.5 15.9325 19.3 14.9714 19.17 15.007C19.12 15.0159 19.11 14.9981 19.14 14.9536C19.2 14.8646 18.4 14.2505 18.27 14.295C18.22 14.3039 18.21 14.2861 18.24 14.2417C18.3 14.1527 16.53 12.8356 16.39 12.8623C16.34 12.8801 16.31 12.8534 16.33 12.8089C16.36 12.6932 15.48 12.0881 15.36 12.1504C15.31 12.1771 15.3 12.1593 15.33 12.1148C15.4 12.0169 15.13 11.8656 14.97 11.9012C14.92 11.9101 14.91 11.8745 14.94 11.83C15 11.741 14.72 11.5986 14.55 11.6342C14.5 11.652 14.48 11.6253 14.52 11.5897C14.66 11.474 12.7 10.3439 12.55 10.4684C12.51 10.504 12.5 10.4862 12.53 10.4328C12.6 10.3172 11.26 9.72982 11.11 9.80991C11.06 9.8455 11 9.82771 10.98 9.77431C10.94 9.64972 10.09 9.56073 9.66 9.63193C9.47 9.66752 9.17 9.80991 9 9.96119C8.7 10.2371 8.7 10.2371 8.69 9.93449C8.68 9.77431 8.68 9.44505 8.69 9.19587C8.7 8.9556 8.73 8.31486 8.75 7.78982C8.78 7.26477 8.81 6.80202 8.84 6.76642C8.86 6.73083 8.91 6.33927 8.94 5.90321C8.96 5.45826 9.02 5.0311 9.05 4.94211C9.09 4.86202 9.1 4.71073 9.07 4.61284C9.04 4.51495 9.06 4.43486 9.12 4.43486C9.18 4.43486 9.2 4.31917 9.18 4.16789C9.15 4.01661 9.18 3.90092 9.23 3.90092C9.28 3.90092 9.3 3.80303 9.28 3.67844C9.25 3.55385 9.26 3.45596 9.3 3.45596C9.37 3.45596 9.76 2.05881 9.74 1.88082C9.73 1.81853 9.76 1.76514 9.8 1.76514C9.84 1.76514 9.93 1.60495 10 1.40917C10.07 1.21339 10.21 0.990916 10.31 0.910825C10.6 0.679448 11.5 0.795137 12.56 1.1867C13.05 1.36468 13.53 1.51596 13.62 1.52486C13.71 1.53376 13.76 1.57826 13.73 1.62275C13.69 1.67615 13.74 1.67615 13.86 1.64055C13.96 1.60495 14.01 1.60495 13.97 1.64055C13.9 1.71174 15.26 2.41477 15.47 2.41477C15.54 2.41477 15.58 2.43257 15.55 2.45926C15.53 2.47706 16.08 2.83303 16.78 3.23349C17.49 3.63394 18.35 4.15009 18.69 4.37257C19.04 4.59504 19.38 4.75523 19.44 4.72853C19.5 4.70183 19.52 4.70183 19.48 4.74633C19.38 4.83532 20.82 5.76973 20.95 5.69853C21.01 5.67184 21.02 5.68073 20.98 5.72523C20.88 5.81422 22.91 7.20248 23.04 7.13128C23.09 7.10459 23.1 7.12239 23.07 7.16688C23 7.26477 23.27 7.41606 23.45 7.38046C23.51 7.36266 23.52 7.38936 23.48 7.42495C23.38 7.50505 24.21 8.08348 24.35 8.02119C24.4 7.9856 24.42 7.9945 24.38 8.03899C24.3 8.11908 25.18 8.76872 25.32 8.72422C25.37 8.71532 25.39 8.73312 25.36 8.77761C25.3 8.8755 26.3 9.56073 26.45 9.52514C26.5 9.50734 26.52 9.52514 26.48 9.56073C26.39 9.64083 26.81 9.9167 26.95 9.8811C27.01 9.8633 27.02 9.8811 26.98 9.9167C26.89 9.98789 27.3 10.2727 27.43 10.2371C27.48 10.2282 27.49 10.2549 27.46 10.2994C27.4 10.3794 27.9 10.7176 28.03 10.682C28.08 10.6731 28.09 10.6998 28.06 10.7443C28 10.8244 28.5 11.1626 28.63 11.127C28.68 11.1181 28.69 11.1359 28.66 11.1804C28.6 11.2694 29.69 12.0525 29.82 12.0169C29.87 12.008 29.89 12.0347 29.86 12.0792C29.8 12.1593 30.3 12.4974 30.43 12.4618C30.48 12.4529 30.49 12.4796 30.46 12.5241C30.4 12.6042 30.89 12.9424 31.02 12.9068C31.07 12.8979 31.09 12.9246 31.07 12.9602C31.04 13.0581 33.09 14.6332 33.21 14.6065C33.26 14.5887 33.29 14.6154 33.27 14.651C33.24 14.7489 34.65 15.8346 34.74 15.7812C34.77 15.7545 34.78 15.7634 34.75 15.799C34.72 15.8257 34.75 15.9058 34.81 15.9681C34.93 16.1016 34.91 16.1105 34.13 16.3151C33.78 16.4041 33.5 16.5109 33.5 16.5554C33.5 16.5999 33.46 16.6177 33.41 16.5821C33.31 16.5287 31.1 17.1961 31.01 17.3118C30.98 17.3474 30.89 17.383 30.83 17.3919C30.43 17.4186 30.39 17.4364 30.46 17.5343C30.5 17.5877 30.49 17.6055 30.42 17.5788C30.22 17.4631 26.06 19.1717 26.17 19.323C26.2 19.3764 26.18 19.3853 26.13 19.3586C26 19.2874 24.97 19.7769 25.07 19.857C25.1 19.8926 25.11 19.9193 25.09 19.9193C25.07 19.9193 24.47 19.4031 23.76 18.7713V18.7713Z" fill="#212121"/>
<path d="M75.54 19.1362C75.61 19.0294 74.31 18.4776 74.17 18.5488C74.1 18.5844 74.08 18.5755 74.13 18.5399C74.23 18.442 72.02 17.5877 71.87 17.6589C71.8 17.6945 71.79 17.6856 71.83 17.6411C71.92 17.5521 70.23 16.9559 70.09 17.036C70.04 17.0627 70 17.0449 70 16.9915C70 16.8847 67.84 16.244 67.7 16.3151C67.65 16.3418 67.6 16.3329 67.6 16.2884C67.6 16.244 67.4 16.155 67.15 16.0927C66.9 16.0304 66.71 15.9503 66.72 15.9147C66.74 15.8702 67.04 15.6121 67.4 15.3273C67.76 15.0426 68.04 14.7756 68.03 14.74C68.01 14.7044 68.04 14.6777 68.08 14.6955C68.21 14.7222 69.5 13.7611 69.44 13.6721C69.41 13.6276 69.42 13.6098 69.47 13.6187C69.61 13.6632 70.19 13.2183 70.13 13.1204C70.1 13.067 70.1 13.0492 70.15 13.0848C70.25 13.1649 70.91 12.711 70.84 12.6131C70.81 12.5686 70.82 12.5419 70.87 12.5508C71.01 12.5864 71.5 12.2483 71.43 12.1504C71.4 12.1059 71.41 12.0792 71.46 12.1148C71.57 12.1682 74.36 10.1392 74.33 10.0324C74.31 9.9879 74.34 9.9612 74.38 9.979C74.51 10.0057 75.4 9.36496 75.32 9.29377C75.28 9.25817 75.3 9.24037 75.36 9.25817C75.51 9.29377 78.31 7.32707 78.22 7.23808C78.18 7.19358 78.2 7.18468 78.26 7.22028C78.39 7.28257 79.62 6.44606 79.52 6.35707C79.48 6.32147 79.5 6.29478 79.55 6.31258C79.72 6.34817 80 6.20579 79.94 6.11679C79.91 6.0723 79.92 6.0367 79.97 6.0456C80.13 6.0812 80.4 5.92992 80.33 5.83203C80.3 5.78753 80.31 5.76083 80.36 5.79643C80.49 5.85872 81.52 5.19129 81.43 5.1023C81.38 5.0667 81.4 5.04891 81.45 5.0756C81.56 5.1379 82.93 4.31028 82.85 4.23909C82.82 4.21239 82.86 4.19459 82.93 4.19459C83.09 4.18569 85.01 3.04661 84.95 2.99322C84.92 2.96652 84.96 2.94872 85.03 2.94872C85.09 2.94872 85.56 2.72624 86.05 2.45927C86.55 2.1923 87.29 1.81854 87.7 1.63166C88.11 1.44478 88.47 1.26679 88.48 1.2223C88.5 1.1778 88.55 1.16001 88.59 1.1867C88.63 1.2045 88.99 1.12441 89.39 1.00872C90.56 0.652758 91.17 0.723951 91.35 1.2312C91.38 1.32909 91.45 1.40918 91.5 1.40918C91.55 1.40918 91.57 1.47147 91.54 1.54267C91.5 1.61386 91.53 1.67615 91.59 1.67615C91.65 1.67615 91.67 1.73845 91.64 1.80964C91.6 1.88083 91.63 1.94313 91.7 1.94313C91.76 1.94313 91.79 1.97872 91.76 2.02322C91.73 2.05881 91.82 2.49487 91.95 2.97542C92.09 3.45597 92.22 4.0878 92.26 4.37257C92.3 4.64845 92.35 4.87982 92.39 4.87982C92.42 4.87982 92.45 5.0489 92.46 5.26248C92.47 6.0901 92.62 7.9678 92.69 8.17248C92.73 8.29707 92.73 8.51955 92.69 8.66193C92.65 8.81322 92.62 8.87551 92.61 8.81322C92.59 8.59074 91.97 8.35046 91.4 8.35046C90.79 8.35046 89.57 8.67973 89.67 8.82211C89.7 8.87551 89.68 8.88441 89.62 8.85771C89.47 8.76872 89.19 8.88441 89.27 9.0001C89.3 9.04459 89.28 9.06239 89.22 9.0268C89.04 8.92891 86.94 10.1392 87.08 10.2549C87.12 10.2905 87.1 10.3172 87.05 10.2994C86.87 10.2638 86.6 10.4151 86.67 10.5129C86.7 10.5663 86.68 10.5752 86.62 10.5396C86.46 10.4506 83.41 12.6576 83.48 12.8178C83.49 12.8623 83.47 12.8801 83.42 12.8712C83.3 12.8356 82.7 13.2717 82.76 13.3517C82.79 13.3962 82.78 13.414 82.73 13.4051C82.59 13.3606 81.71 14.0726 81.77 14.1705C81.8 14.2239 81.8 14.2417 81.75 14.2061C81.65 14.126 80.34 15.1939 80.38 15.3273C80.4 15.3807 80.38 15.3985 80.34 15.3629C80.27 15.2917 78.44 16.7957 78.47 16.9025C78.48 16.9381 78.43 17.0182 78.35 17.0716C78.27 17.1339 78.2 17.1517 78.2 17.1072C78.2 17.0716 78.09 17.1339 77.95 17.2495C77.82 17.3563 77.73 17.4809 77.75 17.5165C77.78 17.5521 77.73 17.6322 77.65 17.6945C77.57 17.7568 77.5 17.7746 77.5 17.739C77.5 17.6945 77.41 17.739 77.3 17.828C77.19 17.917 77.13 18.0149 77.15 18.0505C77.17 18.0861 77.11 18.184 77 18.2729C76.89 18.3619 76.8 18.3975 76.8 18.3619C76.8 18.3174 76.62 18.4331 76.4 18.6289C76.19 18.8158 76.04 19.0116 76.07 19.065C76.1 19.1184 76.1 19.1362 76.06 19.1006C76.01 19.065 75.87 19.0739 75.73 19.1273C75.6 19.1717 75.51 19.1717 75.54 19.1362V19.1362Z" fill="#212121"/>
</svg>
