<svg width="101" height="84" viewBox="0 0 101 84" fill="none" xmlns="http://www.w3.org/2000/svg">
<path d="M52 83.5477C52 83.4053 52.07 83.3697 52.35 83.3697C52.75 83.3697 52.84 83.5833 52.48 83.6723C52.1 83.7613 52 83.7346 52 83.5477Z" fill="#C5C5C5"/>
<path d="M53 83.4587C53 83.3163 53.07 83.2807 53.35 83.2807C53.72 83.2807 53.84 83.4765 53.54 83.5833C53.22 83.6901 53 83.6367 53 83.4587Z" fill="#C5C5C5"/>
<path d="M57.9 82.0793C57.9 81.8836 57.94 81.8569 58.25 81.8569C58.68 81.8569 58.69 81.9459 58.31 82.1505C57.93 82.3463 57.9 82.3463 57.9 82.0793Z" fill="#C5C5C5"/>
<path d="M53.22 82.1061C53.25 82.0438 53.41 81.9459 53.58 81.8836C53.89 81.7679 53.9 81.7768 53.9 81.9904C53.9 82.1861 53.86 82.2128 53.54 82.2128C53.31 82.2128 53.2 82.1772 53.22 82.1061Z" fill="#C5C5C5"/>
<path d="M48.6 81.9904C48.6 81.9014 48.49 81.8569 48.25 81.8569C48.01 81.8569 47.9 81.8124 47.9 81.7234C47.9 81.6433 47.81 81.5899 47.66 81.5899C47.29 81.5899 47.1 81.5009 47.1 81.314C47.1 81.1806 47.03 81.145 46.75 81.145C46.44 81.145 46.4 81.1183 46.4 80.9225C46.4 80.7089 46.63 80.611 46.74 80.7801C46.77 80.8246 46.97 80.9403 47.17 81.0382C47.38 81.1361 47.69 81.2784 47.85 81.3585C48.02 81.4386 48.41 81.5988 48.73 81.7234C49.38 81.9637 49.47 82.1239 48.95 82.1239C48.71 82.1239 48.6 82.0794 48.6 81.9904V81.9904Z" fill="#C5C5C5"/>
<path d="M43.06 81.7234C42.56 81.3852 41.86 80.8068 41.68 80.5932C41.49 80.344 41.49 80.344 41.79 80.344C42.05 80.344 42.1 80.3796 42.1 80.5665C42.1 80.7445 42.15 80.789 42.35 80.789C42.56 80.789 42.6 80.8335 42.6 81.056C42.6 81.3051 42.63 81.3229 42.95 81.3229C43.27 81.3229 43.3 81.3407 43.3 81.5899C43.3 81.8925 43.31 81.8925 43.06 81.7234V81.7234Z" fill="#C5C5C5"/>
<path d="M58.8 81.5988C58.8 81.3407 58.83 81.3229 59.16 81.3229C59.55 81.3229 59.54 81.403 59.1 81.6789C58.8 81.8658 58.8 81.8658 58.8 81.5988Z" fill="#C5C5C5"/>
<path d="M53.3 81.0204C53.3 80.8157 53.34 80.789 53.65 80.789C54.02 80.789 54.15 80.9937 53.83 81.0827C53.73 81.1005 53.57 81.1538 53.48 81.1894C53.33 81.2428 53.3 81.2072 53.3 81.0204Z" fill="#C5C5C5"/>
<path d="M55.5 81.1627C55.5 81.0916 56.02 80.789 56.14 80.789C56.17 80.789 56.2 80.8869 56.2 81.0115C56.2 81.2072 56.16 81.2339 55.85 81.2339C55.66 81.2339 55.5 81.1983 55.5 81.1627Z" fill="#C5C5C5"/>
<path d="M59.6 80.9759C59.6 80.7178 59.63 80.7 59.96 80.7C60.35 80.7 60.34 80.7801 59.9 81.056C59.6 81.2428 59.6 81.2428 59.6 80.9759Z" fill="#C5C5C5"/>
<path d="M47.88 80.5843C46.76 80.0682 46.58 79.8991 47.14 79.8991C47.43 79.8991 47.5 79.9347 47.5 80.0771C47.5 80.2105 47.57 80.255 47.79 80.255C48.18 80.255 48.4 80.3351 48.4 80.4864C48.4 80.5665 48.51 80.611 48.7 80.611C48.95 80.611 49 80.6466 49 80.8335C49 80.9581 48.98 81.056 48.95 81.056C48.93 81.056 48.45 80.8424 47.88 80.5843Z" fill="#C5C5C5"/>
<path d="M45.5 80.4775C45.5 80.4063 45.41 80.344 45.3 80.344C45.14 80.344 45.1 80.2817 45.1 80.0771C45.1 79.9347 45.12 79.8101 45.15 79.8101C45.2 79.8101 45.47 79.997 45.94 80.3618C46.25 80.6021 46.25 80.6021 45.88 80.611C45.61 80.611 45.5 80.5754 45.5 80.4775Z" fill="#C5C5C5"/>
<path d="M55.1 80.255C55.1 80.0059 55.13 79.9881 55.45 79.9881C55.64 79.9881 55.8 80.0237 55.8 80.0682C55.8 80.1127 55.64 80.2283 55.45 80.3351C55.1 80.5131 55.1 80.5131 55.1 80.255Z" fill="#C5C5C5"/>
<path d="M56.86 80.3352C56.96 80.2373 57.13 80.1127 57.22 80.0682C57.37 79.997 57.4 80.0237 57.4 80.2551C57.4 80.5042 57.37 80.522 57.03 80.522C56.67 80.522 56.67 80.522 56.86 80.3352V80.3352Z" fill="#C5C5C5"/>
<path d="M40.9 79.7923C40.82 79.6766 40.71 79.5431 40.67 79.4808C40.61 79.3918 40.67 79.3651 40.9 79.3651C41.18 79.3651 41.2 79.3918 41.2 79.6766C41.2 80.0326 41.11 80.0682 40.9 79.7923Z" fill="#C5C5C5"/>
<path d="M61.1 79.4096C61.1 79.2405 61.15 79.0982 61.2 79.0982C61.26 79.0982 61.3 79.0359 61.3 78.9647C61.3 78.8846 61.39 78.8312 61.55 78.8312C61.69 78.8312 61.8 78.8668 61.8 78.9024C61.8 79.0003 61.22 79.7211 61.15 79.7211C61.12 79.7211 61.1 79.5787 61.1 79.4096Z" fill="#C5C5C5"/>
<path d="M45.65 79.2672C45.35 79.0092 45.35 79.0092 45.73 79.0092C46.08 79.0092 46.1 79.027 46.1 79.2761C46.1 79.6054 46.03 79.6054 45.65 79.2672Z" fill="#C5C5C5"/>
<path d="M40.21 78.8757C40.01 78.5642 40.01 78.5642 40.3 78.5642C40.58 78.5642 40.6 78.5909 40.6 78.8757C40.6 79.0448 40.56 79.1871 40.51 79.1871C40.46 79.1871 40.33 79.0448 40.21 78.8757Z" fill="#C5C5C5"/>
<path d="M43.6 78.6888C43.6 78.315 43.73 78.3239 44.01 78.7244C44.22 79.0092 44.22 79.0092 43.91 79.0092C43.62 79.0092 43.6 78.9914 43.6 78.6888V78.6888Z" fill="#C5C5C5"/>
<path d="M59.01 78.3418C59.13 78.1727 59.26 78.0303 59.31 78.0303C59.36 78.0303 59.4 78.1727 59.4 78.3418C59.4 78.6265 59.38 78.6532 59.1 78.6532C58.81 78.6532 58.81 78.6532 59.01 78.3418Z" fill="#C5C5C5"/>
<path d="M58 77.9858C58 77.8167 58.05 77.6743 58.1 77.6743C58.16 77.6743 58.2 77.5141 58.2 77.3184C58.2 77.0692 58.24 76.9624 58.34 76.9624C58.66 76.9624 58.65 77.3895 58.33 78.0125C58.13 78.3862 58 78.3773 58 77.9858Z" fill="#C5C5C5"/>
<path d="M43.1 77.3183C43.1 76.7755 43.12 76.6954 43.28 76.6954C43.43 76.6954 43.46 76.7755 43.46 77.3183C43.46 77.8612 43.43 77.9413 43.28 77.9413C43.12 77.9413 43.1 77.8612 43.1 77.3183Z" fill="#C5C5C5"/>
<path d="M44.26 77.7099C44.14 77.4251 44.2 77.2294 44.4 77.2294C44.56 77.2294 44.6 77.2916 44.6 77.5408C44.6 77.8701 44.38 77.9769 44.26 77.7099Z" fill="#C5C5C5"/>
<path d="M62.3 77.5497C62.3 77.2649 62.33 77.2294 62.55 77.2294C62.79 77.2294 62.8 77.2382 62.67 77.5141C62.48 77.9235 62.3 77.9413 62.3 77.5497V77.5497Z" fill="#C5C5C5"/>
<path d="M59.3 77.3184C59.3 77.0247 59.33 76.9624 59.5 76.9624C59.67 76.9624 59.7 77.0247 59.7 77.3184C59.7 77.612 59.67 77.6743 59.5 77.6743C59.33 77.6743 59.3 77.612 59.3 77.3184Z" fill="#C5C5C5"/>
<path d="M39.36 77.4162C39.33 77.3806 39.26 77.2383 39.21 77.1048C39.11 76.8912 39.13 76.8734 39.35 76.8734C39.57 76.8734 39.6 76.909 39.6 77.1849C39.6 77.4785 39.48 77.5942 39.36 77.4162Z" fill="#C5C5C5"/>
<path d="M62.8 76.4818C62.8 76.1971 62.83 76.1615 63.05 76.1615C63.29 76.1615 63.3 76.1704 63.17 76.4462C62.98 76.8556 62.8 76.8734 62.8 76.4818V76.4818Z" fill="#C5C5C5"/>
<path d="M44.4 76.642C44.4 76.5352 44.74 76.0725 44.82 76.0725C44.86 76.0725 44.9 76.2148 44.9 76.3839C44.9 76.6598 44.87 76.6954 44.65 76.6954C44.51 76.6954 44.4 76.6687 44.4 76.642Z" fill="#C5C5C5"/>
<path d="M57.8 76.3394C57.8 76.0369 57.9 76.0013 58.13 76.2327C58.37 76.464 58.34 76.6064 58.05 76.6064C57.84 76.6064 57.8 76.5619 57.8 76.3394Z" fill="#C5C5C5"/>
<path d="M43.5 76.028C43.5 75.7521 43.53 75.7165 43.75 75.7165C43.96 75.7165 44 75.672 44 75.4495C44 75.2004 44.03 75.1826 44.35 75.1826C44.76 75.1826 44.81 75.325 44.46 75.4673C44.32 75.5207 44.09 75.7343 43.94 75.9479C43.78 76.1615 43.62 76.3395 43.58 76.3395C43.54 76.3395 43.5 76.1971 43.5 76.028V76.028Z" fill="#C5C5C5"/>
<path d="M58.94 76.1437C58.9 76.0814 58.8 75.939 58.72 75.8322C58.58 75.6364 58.59 75.6275 58.89 75.6275C59.18 75.6275 59.2 75.6453 59.2 75.939C59.2 76.2505 59.08 76.3483 58.94 76.1437Z" fill="#C5C5C5"/>
<path d="M55.7 75.7165C55.7 75.5296 55.8 75.5029 56.18 75.5919C56.54 75.6809 56.45 75.8945 56.05 75.8945C55.77 75.8945 55.7 75.8589 55.7 75.7165Z" fill="#C5C5C5"/>
<path d="M46.8 75.6809C46.8 75.5474 47.19 75.4584 48.5 75.2716C49.33 75.1559 49.3 75.1559 49.3 75.3428C49.3 75.4673 49.11 75.5207 48.18 75.6542C46.84 75.8411 46.8 75.8411 46.8 75.6809Z" fill="#C5C5C5"/>
<path d="M53.88 75.5652C53.58 75.5385 53.5 75.494 53.5 75.3516C53.5 75.1826 53.54 75.1737 53.93 75.2271C54.76 75.3338 54.9 75.3783 54.9 75.5029C54.9 75.6275 54.71 75.6364 53.88 75.5652V75.5652Z" fill="#C5C5C5"/>
<path d="M49.5 75.3249C49.5 75.1737 49.72 75.0936 50.11 75.0936C50.33 75.0936 50.4 75.1381 50.4 75.2715C50.4 75.4228 50.33 75.4495 49.95 75.4495C49.63 75.4495 49.5 75.4139 49.5 75.3249Z" fill="#C5C5C5"/>
<path d="M52.4 75.2716C52.4 75.0847 52.63 75.0402 53.08 75.147C53.49 75.2449 53.34 75.4495 52.85 75.4495C52.47 75.4495 52.4 75.4228 52.4 75.2716Z" fill="#C5C5C5"/>
<path d="M38.31 74.791C38.16 74.2571 38.17 74.2037 38.39 74.2037C38.58 74.2037 38.7 74.5062 38.7 74.969C38.7 75.3339 38.43 75.2093 38.31 74.791Z" fill="#C5C5C5"/>
<path d="M56.73 75.0224C56.11 74.8711 56.01 74.6486 56.55 74.6486C56.74 74.6486 56.9 74.6931 56.9 74.7376C56.9 74.791 57.06 74.8266 57.25 74.8266C57.53 74.8266 57.6 74.8622 57.6 75.0046C57.6 75.2182 57.46 75.2182 56.73 75.0224Z" fill="#C5C5C5"/>
<path d="M46.7 74.6486C46.7 74.5062 46.77 74.4706 47.05 74.4706C47.42 74.4706 47.54 74.6664 47.24 74.7732C46.92 74.88 46.7 74.8266 46.7 74.6486Z" fill="#C5C5C5"/>
<path d="M47.8 74.4884C47.8 74.346 47.9 74.3104 48.33 74.257C49.11 74.177 49.3 74.1859 49.3 74.3282C49.3 74.4617 49.13 74.5062 48.28 74.6041C47.85 74.6575 47.8 74.6397 47.8 74.4884Z" fill="#C5C5C5"/>
<path d="M54.25 74.5863C53.67 74.524 53.5 74.4706 53.5 74.3371C53.5 74.1859 53.61 74.177 54.38 74.2571C54.8 74.3104 54.9 74.346 54.9 74.4795C54.9 74.6486 54.86 74.6575 54.25 74.5863Z" fill="#C5C5C5"/>
<path d="M49.5 74.2927C49.5 74.1414 49.57 74.1147 49.95 74.1147C50.44 74.1147 50.59 74.3194 50.18 74.4172C49.73 74.524 49.5 74.4795 49.5 74.2927Z" fill="#C5C5C5"/>
<path d="M52.58 74.4083C52.48 74.3905 52.4 74.3105 52.4 74.2393C52.4 74.1503 52.53 74.1147 52.85 74.1147C53.23 74.1147 53.3 74.1414 53.3 74.2927C53.3 74.4261 53.24 74.4706 53.03 74.4617C52.87 74.4528 52.67 74.435 52.58 74.4083Z" fill="#C5C5C5"/>
<path d="M63.6 73.9812C63.6 73.732 63.64 73.6697 63.8 73.6697C64.01 73.6697 64.04 73.7587 63.94 74.0969C63.84 74.4173 63.6 74.3372 63.6 73.9812Z" fill="#C5C5C5"/>
<path d="M37.86 72.3171C37.76 71.9789 37.79 71.8899 38 71.8899C38.16 71.8899 38.2 71.9522 38.2 72.2014C38.2 72.5573 37.96 72.6374 37.86 72.3171Z" fill="#C5C5C5"/>
<path d="M63.9 70.2436C63.9 69.8876 64.14 69.8075 64.24 70.1368C64.34 70.4661 64.31 70.5551 64.1 70.5551C63.94 70.5551 63.9 70.4928 63.9 70.2436Z" fill="#C5C5C5"/>
<path d="M37.83 70.0033C37.85 69.8164 37.93 69.7007 38.03 69.6829C38.16 69.6562 38.2 69.7185 38.2 69.9677C38.2 70.2347 38.16 70.2881 37.99 70.2881C37.82 70.2881 37.79 70.2436 37.83 70.0033Z" fill="#C5C5C5"/>
<path d="M63.8 69.3537C63.8 68.9977 64.04 68.9176 64.14 69.2469C64.24 69.5762 64.21 69.6651 64 69.6651C63.84 69.6651 63.8 69.6029 63.8 69.3537Z" fill="#C5C5C5"/>
<path d="M63.5 67.5739C63.5 67.2179 63.74 67.1378 63.84 67.4671C63.94 67.7963 63.91 67.8853 63.7 67.8853C63.54 67.8853 63.5 67.823 63.5 67.5739Z" fill="#C5C5C5"/>
<path d="M63.8 66.7818C63.8 66.6216 63.85 66.5504 63.98 66.5504C64.07 66.5504 64.39 66.5238 64.68 66.4971C65.12 66.4437 65.2 66.4615 65.2 66.586C65.2 66.6661 65.18 66.7284 65.16 66.7284C65.05 66.7284 64.12 66.9064 63.98 66.9509C63.84 67.0043 63.8 66.9687 63.8 66.7818V66.7818Z" fill="#C5C5C5"/>
<path d="M36.48 66.6662C36.15 66.595 36.28 66.3725 36.65 66.3725C36.93 66.3725 37 66.4081 37 66.5505C37 66.7284 36.86 66.7551 36.48 66.6662Z" fill="#C5C5C5"/>
<path d="M68 66.1945C68 66.0521 68.07 66.0165 68.35 66.0165C68.75 66.0165 68.84 66.2301 68.48 66.3191C68.1 66.4081 68 66.3814 68 66.1945Z" fill="#C5C5C5"/>
<path d="M31.53 66.0432C31.25 65.9453 31.4 65.7495 31.75 65.7495C32.03 65.7495 32.1 65.7851 32.1 65.9275C32.1 66.1055 31.84 66.1589 31.53 66.0432Z" fill="#C5C5C5"/>
<path d="M71.3 65.7495C71.3 65.6071 71.37 65.5715 71.65 65.5715C72.02 65.5715 72.14 65.7673 71.84 65.8741C71.52 65.9809 71.3 65.9275 71.3 65.7495Z" fill="#C5C5C5"/>
<path d="M29.08 65.6872C28.75 65.6161 28.88 65.3936 29.25 65.3936C29.53 65.3936 29.6 65.4292 29.6 65.5716C29.6 65.7495 29.46 65.7762 29.08 65.6872Z" fill="#C5C5C5"/>
<path d="M72.6 65.5716C72.6 65.4292 72.67 65.3936 72.95 65.3936C73.35 65.3936 73.44 65.6072 73.08 65.6961C72.7 65.7851 72.6 65.7584 72.6 65.5716Z" fill="#C5C5C5"/>
<path d="M73.9 65.3936C73.9 65.2512 73.97 65.2156 74.25 65.2156C74.65 65.2156 74.74 65.4292 74.38 65.5182C74 65.6072 73.9 65.5805 73.9 65.3936Z" fill="#C5C5C5"/>
<path d="M27.18 65.4203C26.85 65.3491 26.98 65.1266 27.35 65.1266C27.63 65.1266 27.7 65.1622 27.7 65.3046C27.7 65.4826 27.56 65.5093 27.18 65.4203Z" fill="#C5C5C5"/>
<path d="M25.23 65.1533C24.95 65.0554 25.1 64.8596 25.45 64.8596C25.73 64.8596 25.8 64.8952 25.8 65.0376C25.8 65.2156 25.54 65.269 25.23 65.1533Z" fill="#C5C5C5"/>
<path d="M22.23 64.7083C21.95 64.6105 22.1 64.4147 22.45 64.4147C22.73 64.4147 22.8 64.4503 22.8 64.5927C22.8 64.7706 22.54 64.824 22.23 64.7083Z" fill="#C5C5C5"/>
<path d="M79.9 64.5215C79.9 64.388 80.1 64.3346 81.28 64.1655C82.89 63.9341 83 63.9252 83 64.1032C83 64.2545 82.96 64.2634 81.34 64.5037C79.87 64.7172 79.9 64.7172 79.9 64.5215Z" fill="#C5C5C5"/>
<path d="M20.53 64.4414C20.25 64.3435 20.4 64.1477 20.75 64.1477C21.03 64.1477 21.1 64.1833 21.1 64.3257C21.1 64.5037 20.84 64.5571 20.53 64.4414Z" fill="#C5C5C5"/>
<path d="M18.6 64.1477C18.02 64.0498 17.54 63.9786 17.53 63.9786C17.51 63.9697 17.5 63.9074 17.5 63.8362C17.5 63.6672 17.62 63.6672 18.93 63.854C19.83 63.9786 20 64.032 20 64.1655C20 64.3613 19.96 64.3524 18.6 64.1477Z" fill="#C5C5C5"/>
<path d="M83.4 63.9697C83.4 63.8273 83.47 63.7917 83.75 63.7917C84.12 63.7917 84.24 63.9875 83.94 64.0943C83.62 64.2011 83.4 64.1477 83.4 63.9697Z" fill="#C5C5C5"/>
<path d="M84.5 63.7917C84.5 63.6494 84.57 63.6138 84.85 63.6138C85.22 63.6138 85.34 63.8095 85.04 63.9163C84.72 64.0231 84.5 63.9697 84.5 63.7917Z" fill="#C5C5C5"/>
<path d="M86.2 63.5248C86.2 63.3824 86.27 63.3468 86.55 63.3468C86.95 63.3468 87.04 63.5604 86.68 63.6494C86.3 63.7383 86.2 63.7116 86.2 63.5248Z" fill="#C5C5C5"/>
<path d="M14.83 63.5515C14.55 63.4536 14.7 63.2578 15.05 63.2578C15.33 63.2578 15.4 63.2934 15.4 63.4358C15.4 63.6138 15.14 63.6672 14.83 63.5515Z" fill="#C5C5C5"/>
<path d="M13.13 63.2845C12.85 63.1866 13 62.9908 13.35 62.9908C13.63 62.9908 13.7 63.0264 13.7 63.1688C13.7 63.3468 13.44 63.4002 13.13 63.2845Z" fill="#C5C5C5"/>
<path d="M89.6 62.9908C89.6 62.8484 89.67 62.8128 89.95 62.8128C90.32 62.8128 90.44 63.0086 90.14 63.1154C89.82 63.2222 89.6 63.1688 89.6 62.9908Z" fill="#C5C5C5"/>
<path d="M9.35 62.6794C7.21 62.3234 7 62.27 7 62.1365C7 61.9674 7.11 61.9674 9.13 62.2967C10.66 62.537 10.9 62.5993 10.9 62.7417C10.9 62.9374 10.88 62.9374 9.35 62.6794V62.6794Z" fill="#C5C5C5"/>
<path d="M94.5 62.1899C94.5 62.0475 94.57 62.0119 94.85 62.0119C95.25 62.0119 95.34 62.2255 94.98 62.3145C94.6 62.4035 94.5 62.3768 94.5 62.1899Z" fill="#C5C5C5"/>
<path d="M5.53 62.0386C5.25 61.9407 5.4 61.7449 5.75 61.7449C6.03 61.7449 6.1 61.7805 6.1 61.9229C6.1 62.1009 5.84 62.1543 5.53 62.0386Z" fill="#C5C5C5"/>
<path d="M3.98 61.7717C3.65 61.7005 3.78 61.478 4.15 61.478C4.43 61.478 4.5 61.5136 4.5 61.656C4.5 61.8339 4.36 61.8606 3.98 61.7717Z" fill="#C5C5C5"/>
<path d="M98.7 61.478C98.7 61.3356 98.77 61.3 99.05 61.3C99.42 61.3 99.54 61.4958 99.24 61.6026C98.92 61.7094 98.7 61.656 98.7 61.478Z" fill="#C5C5C5"/>
<path d="M0.939999 61.1576C0.969999 61.0775 1 60.9796 1 60.9352C1 60.8907 1.07 60.8551 1.15 60.8551C1.24 60.8551 1.3 60.9351 1.3 61.0775C1.3 61.2466 1.25 61.3 1.09 61.3C0.939999 61.3 0.899999 61.2644 0.939999 61.1576Z" fill="#C5C5C5"/>
<path d="M1 59.7694C1 59.5024 1.13 59.2532 1.26 59.2532C1.35 59.2532 1.4 59.36 1.4 59.5647C1.4 59.8139 1.36 59.8761 1.2 59.8761C1.09 59.8761 1 59.8228 1 59.7694Z" fill="#C5C5C5"/>
<path d="M30.1 59.4312C30.1 59.2799 30.16 59.2532 30.45 59.2799C30.71 59.2888 30.8 59.3422 30.8 59.4579C30.8 59.5736 30.72 59.6092 30.45 59.6092C30.17 59.6092 30.1 59.5736 30.1 59.4312Z" fill="#C5C5C5"/>
<path d="M33.6 59.4846C33.6 59.3689 33.88 59.2532 34.18 59.2532C34.24 59.2532 34.3 59.3333 34.3 59.4312C34.3 59.5736 34.23 59.6092 33.95 59.6092C33.72 59.6092 33.6 59.5647 33.6 59.4846Z" fill="#C5C5C5"/>
<path d="M67.9 59.4312C67.9 59.2443 68.13 59.1998 68.58 59.3066C68.99 59.4045 68.84 59.6092 68.35 59.6092C67.97 59.6092 67.9 59.5825 67.9 59.4312Z" fill="#C5C5C5"/>
<path d="M71.4 59.4846C71.4 59.36 71.69 59.2532 72.08 59.2532C72.23 59.2532 72.3 59.3066 72.3 59.4312C72.3 59.5825 72.23 59.6092 71.85 59.6092C71.53 59.6092 71.4 59.5736 71.4 59.4846Z" fill="#C5C5C5"/>
<path d="M28.7 59.3333C28.7 59.182 28.75 59.1553 29.02 59.1909C29.23 59.2087 29.36 59.2799 29.38 59.3689C29.41 59.4846 29.34 59.5202 29.06 59.5202C28.76 59.5202 28.7 59.4846 28.7 59.3333Z" fill="#C5C5C5"/>
<path d="M66.58 59.4579C66.28 59.4312 66.2 59.3867 66.2 59.2443C66.2 59.0752 66.24 59.0663 66.63 59.1197C67.46 59.2265 67.6 59.271 67.6 59.3956C67.6 59.5202 67.41 59.5291 66.58 59.4579V59.4579Z" fill="#C5C5C5"/>
<path d="M72.8 59.3956C72.8 59.3333 72.9 59.2532 73.03 59.2176C73.44 59.1197 73.6 59.1553 73.6 59.3422C73.6 59.4935 73.53 59.5202 73.2 59.5202C72.93 59.5202 72.8 59.4846 72.8 59.3956Z" fill="#C5C5C5"/>
<path d="M73.7 59.3066C73.7 59.2443 73.8 59.1642 73.93 59.1286C74.34 59.0307 74.5 59.0663 74.5 59.2532C74.5 59.4045 74.43 59.4312 74.1 59.4312C73.83 59.4312 73.7 59.3956 73.7 59.3066Z" fill="#C5C5C5"/>
<path d="M26.43 59.2265C25.82 59.1553 25.7 59.1108 25.7 58.9773C25.7 58.7816 25.66 58.7816 26.5 58.8972C27.73 59.0663 27.8 59.0841 27.8 59.2087C27.8 59.36 27.54 59.36 26.43 59.2265V59.2265Z" fill="#C5C5C5"/>
<path d="M74.6 59.2176C74.6 59.093 74.74 59.0485 75.58 58.9417C75.95 58.8883 76 58.8972 76 59.0574C76 59.1998 75.91 59.2354 75.48 59.2888C74.72 59.3689 74.6 59.36 74.6 59.2176Z" fill="#C5C5C5"/>
<path d="M36.5 59.1286C36.5 59.0129 36.78 58.8972 37.08 58.8972C37.14 58.8972 37.2 58.9773 37.2 59.0752C37.2 59.2176 37.13 59.2532 36.85 59.2532C36.62 59.2532 36.5 59.2087 36.5 59.1286Z" fill="#C5C5C5"/>
<path d="M100.6 58.9328C100.6 58.6837 100.64 58.6214 100.77 58.6481C100.87 58.6659 100.95 58.7815 100.97 58.9684C101.01 59.2087 100.98 59.2532 100.81 59.2532C100.64 59.2532 100.6 59.1998 100.6 58.9328V58.9328Z" fill="#C5C5C5"/>
<path d="M64.8 58.9862C64.8 58.7994 64.9 58.7727 65.28 58.8616C65.64 58.9506 65.55 59.1642 65.15 59.1642C64.87 59.1642 64.8 59.1286 64.8 58.9862Z" fill="#C5C5C5"/>
<path d="M24.5 58.8083C24.5 58.6214 24.6 58.5947 24.98 58.6837C25.34 58.7727 25.25 58.9862 24.85 58.9862C24.57 58.9862 24.5 58.9506 24.5 58.8083Z" fill="#C5C5C5"/>
<path d="M77.7 58.7727C77.7 58.6392 77.91 58.5413 78.21 58.5413C78.33 58.5413 78.4 58.6036 78.4 58.7193C78.4 58.8616 78.33 58.8972 78.05 58.8972C77.82 58.8972 77.7 58.8527 77.7 58.7727Z" fill="#C5C5C5"/>
<path d="M23.4 58.6303C23.4 58.4523 23.62 58.3989 23.94 58.5057C24.24 58.6125 24.12 58.8083 23.75 58.8083C23.47 58.8083 23.4 58.7727 23.4 58.6303Z" fill="#C5C5C5"/>
<path d="M63.6 58.5858C63.6 58.3722 63.61 58.3633 63.92 58.479C64.38 58.6481 64.4 58.8083 63.96 58.8083C63.64 58.8083 63.6 58.7816 63.6 58.5858Z" fill="#C5C5C5"/>
<path d="M22.4 58.4523C22.4 58.2654 22.5 58.2387 22.88 58.3277C23.24 58.4167 23.15 58.6303 22.75 58.6303C22.47 58.6303 22.4 58.5947 22.4 58.4523Z" fill="#C5C5C5"/>
<path d="M30.2 58.4345C30.2 58.3099 30.28 58.2743 30.55 58.2743C30.83 58.2743 30.9 58.3099 30.9 58.4523C30.9 58.6036 30.84 58.6303 30.55 58.6036C30.29 58.5947 30.2 58.5413 30.2 58.4345V58.4345Z" fill="#C5C5C5"/>
<path d="M33.5 58.4523C33.5 58.3099 33.57 58.2743 33.85 58.2743C34.12 58.2743 34.2 58.3099 34.2 58.4345C34.2 58.5413 34.11 58.5947 33.85 58.6036C33.56 58.6303 33.5 58.6036 33.5 58.4523V58.4523Z" fill="#C5C5C5"/>
<path d="M67.98 58.568C67.88 58.5502 67.8 58.4701 67.8 58.3989C67.8 58.3099 67.93 58.2743 68.25 58.2743C68.63 58.2743 68.7 58.301 68.7 58.4523C68.7 58.5858 68.64 58.6303 68.43 58.6214C68.27 58.6125 68.07 58.5947 67.98 58.568Z" fill="#C5C5C5"/>
<path d="M71.4 58.4523C71.4 58.301 71.47 58.2743 71.85 58.2743C72.34 58.2743 72.49 58.479 72.08 58.5769C71.63 58.6837 71.4 58.6392 71.4 58.4523Z" fill="#C5C5C5"/>
<path d="M67.08 58.479C66.75 58.4078 66.88 58.1853 67.25 58.1853C67.53 58.1853 67.6 58.2209 67.6 58.3633C67.6 58.5413 67.46 58.568 67.08 58.479Z" fill="#C5C5C5"/>
<path d="M72.8 58.3633C72.8 58.2209 72.87 58.1853 73.15 58.1853C73.55 58.1853 73.64 58.3989 73.28 58.4879C72.9 58.5769 72.8 58.5502 72.8 58.3633Z" fill="#C5C5C5"/>
<path d="M28.15 58.3722C27.99 58.2298 28.14 58.0963 28.45 58.0963C28.73 58.0963 28.8 58.1319 28.8 58.2743C28.8 58.4167 28.74 58.4523 28.5 58.4345C28.33 58.4256 28.17 58.3989 28.15 58.3722V58.3722Z" fill="#C5C5C5"/>
<path d="M73.7 58.2743C73.7 58.1319 73.77 58.0963 74.05 58.0963C74.45 58.0963 74.54 58.3099 74.18 58.3989C73.8 58.4879 73.7 58.4612 73.7 58.2743Z" fill="#C5C5C5"/>
<path d="M1.8 58.2476C1.8 58.1764 1.96 58.0874 2.15 58.034C2.48 57.9362 2.5 57.945 2.5 58.1497C2.5 58.3366 2.45 58.3633 2.15 58.3633C1.93 58.3633 1.8 58.3188 1.8 58.2476Z" fill="#C5C5C5"/>
<path d="M74.5 58.212C74.5 58.0785 74.73 58.0162 76.03 57.8383C78.26 57.5268 78.3 57.5179 78.3 57.6781C78.3 57.8383 77.82 57.945 75.95 58.1853C74.37 58.3989 74.5 58.3989 74.5 58.212Z" fill="#C5C5C5"/>
<path d="M36.4 58.0963C36.4 57.9539 36.47 57.9184 36.75 57.9184C37.12 57.9184 37.24 58.1141 36.94 58.2209C36.62 58.3277 36.4 58.2743 36.4 58.0963Z" fill="#C5C5C5"/>
<path d="M62.4 58.1853C62.4 58.1408 62.33 58.0963 62.25 58.0963C62.15 58.0963 62.1 58.0073 62.1 57.8205C62.1 57.5446 62.1 57.5446 62.38 57.7048C63.21 58.1853 63.27 58.2743 62.75 58.2743C62.56 58.2743 62.4 58.2387 62.4 58.1853Z" fill="#C5C5C5"/>
<path d="M81.3 58.1497C81.3 58.0162 81.51 57.9184 81.81 57.9184C81.93 57.9184 82 57.9806 82 58.0963C82 58.2387 81.93 58.2743 81.65 58.2743C81.42 58.2743 81.3 58.2298 81.3 58.1497Z" fill="#C5C5C5"/>
<path d="M83.1 57.8917C83.1 57.7226 83.27 57.687 85.06 57.4734C86.83 57.2598 86.7 57.2598 86.7 57.4556C86.7 57.5891 86.5 57.6336 85.28 57.776C83 58.0429 83.1 58.0429 83.1 57.8917V57.8917Z" fill="#C5C5C5"/>
<path d="M17.9 57.7404C17.9 57.5535 18 57.5268 18.38 57.6158C18.74 57.7048 18.65 57.9183 18.25 57.9183C17.97 57.9183 17.9 57.8827 17.9 57.7404Z" fill="#C5C5C5"/>
<path d="M39.9 57.856C39.9 57.8115 40.06 57.6959 40.25 57.5802C40.6 57.3844 40.6 57.3844 40.6 57.6514C40.6 57.9005 40.57 57.9183 40.25 57.9183C40.06 57.9183 39.9 57.8916 39.9 57.856V57.856Z" fill="#C5C5C5"/>
<path d="M14.8 57.3755C14.8 57.2242 14.85 57.1975 15.12 57.2331C15.33 57.2509 15.46 57.3221 15.48 57.4111C15.51 57.5268 15.44 57.5624 15.16 57.5624C14.86 57.5624 14.8 57.5268 14.8 57.3755Z" fill="#C5C5C5"/>
<path d="M22.23 57.5001C21.95 57.4022 22.1 57.2064 22.45 57.2064C22.73 57.2064 22.8 57.242 22.8 57.3844C22.8 57.5624 22.54 57.6158 22.23 57.5001Z" fill="#C5C5C5"/>
<path d="M86.8 57.4378C86.8 57.3755 86.9 57.2954 87.03 57.2598C87.44 57.1619 87.6 57.1975 87.6 57.3844C87.6 57.5357 87.53 57.5624 87.2 57.5624C86.93 57.5624 86.8 57.5268 86.8 57.4378Z" fill="#C5C5C5"/>
<path d="M95.93 57.5001C95.58 57.4734 95.5 57.4289 95.5 57.2865C95.5 57.1174 95.54 57.1085 96.08 57.1619C96.85 57.242 97 57.2865 97 57.4378C97 57.5624 96.87 57.5713 95.93 57.5001V57.5001Z" fill="#C5C5C5"/>
<path d="M80.2 57.3043C80.2 57.1441 80.59 57.0284 81.18 57.0284C81.62 57.0284 81.41 57.2776 80.9 57.3755C80.23 57.5001 80.2 57.5001 80.2 57.3043Z" fill="#C5C5C5"/>
<path d="M87.9 57.3488C87.9 57.2865 88 57.2064 88.13 57.1708C88.54 57.0729 88.7 57.1085 88.7 57.2954C88.7 57.4467 88.63 57.4734 88.3 57.4734C88.03 57.4734 87.9 57.4378 87.9 57.3488Z" fill="#C5C5C5"/>
<path d="M100.58 57.4022C100.46 57.3844 100.4 57.2865 100.4 57.1085C100.4 56.7882 100.67 56.7526 100.76 57.0729C100.84 57.3577 100.79 57.4467 100.58 57.4022V57.4022Z" fill="#C5C5C5"/>
<path d="M1.9 57.153C1.9 56.9661 1.95 56.9394 2.25 56.9394C2.47 56.9394 2.6 56.9839 2.6 57.0551C2.6 57.1263 2.44 57.2153 2.25 57.2687C1.92 57.3666 1.9 57.3577 1.9 57.153Z" fill="#C5C5C5"/>
<path d="M12.4 57.2064C12.4 57.0195 12.5 56.9928 12.88 57.0818C13.24 57.1708 13.15 57.3844 12.75 57.3844C12.47 57.3844 12.4 57.3488 12.4 57.2064Z" fill="#C5C5C5"/>
<path d="M89.2 57.2598C89.2 57.1085 89.42 57.0284 89.86 57.0284C90.13 57.0284 90.2 57.064 90.2 57.2064C90.2 57.3577 90.13 57.3844 89.7 57.3844C89.34 57.3844 89.2 57.3488 89.2 57.2598Z" fill="#C5C5C5"/>
<path d="M94.3 57.2064C94.3 57.0195 94.53 56.975 94.98 57.0818C95.39 57.1797 95.24 57.3844 94.75 57.3844C94.37 57.3844 94.3 57.3577 94.3 57.2064Z" fill="#C5C5C5"/>
<path d="M20.03 57.1441C19.75 57.0462 19.9 56.8505 20.25 56.8505C20.53 56.8505 20.6 56.8861 20.6 57.0284C20.6 57.2064 20.34 57.2598 20.03 57.1441Z" fill="#C5C5C5"/>
<path d="M81.8 57.0462C81.8 56.9039 81.99 56.8505 83.28 56.6814C85.7 56.3699 85.8 56.361 85.8 56.5212C85.8 56.6102 85.68 56.6814 85.48 56.7081C84.19 56.9039 81.98 57.2064 81.9 57.2064C81.84 57.2064 81.8 57.1352 81.8 57.0462V57.0462Z" fill="#C5C5C5"/>
<path d="M18.83 56.9661C18.55 56.8683 18.7 56.6725 19.05 56.6725C19.33 56.6725 19.4 56.7081 19.4 56.8505C19.4 57.0284 19.14 57.0818 18.83 56.9661Z" fill="#C5C5C5"/>
<path d="M61.84 56.3521C61.44 55.925 61.27 55.6936 61.04 55.1863C60.9 54.9016 60.9 54.8927 61.15 54.8927C61.33 54.8927 61.4 54.9371 61.4 55.0706C61.4 55.1685 61.44 55.2486 61.5 55.2486C61.55 55.2486 61.62 55.3465 61.66 55.4711C61.69 55.5957 61.76 55.6936 61.81 55.6936C61.86 55.6936 61.9 55.7915 61.9 55.916C61.9 56.0762 61.95 56.1385 62.1 56.1385C62.26 56.1385 62.3 56.2008 62.3 56.45C62.3 56.6191 62.28 56.7615 62.26 56.7615C62.24 56.7615 62.05 56.5746 61.84 56.3521Z" fill="#C5C5C5"/>
<path d="M100.22 55.9694C100.07 54.9727 100.07 54.8927 100.24 54.8927C100.39 54.8927 100.43 55.0172 100.6 55.9605C100.73 56.7348 100.73 56.7615 100.52 56.7615C100.36 56.7615 100.32 56.6369 100.22 55.9694Z" fill="#C5C5C5"/>
<path d="M40.2 56.3877C40.2 56.0851 40.23 56.0495 40.45 56.0495C40.67 56.0495 40.7 56.0139 40.7 55.7381C40.7 55.4622 40.73 55.4266 40.95 55.4266C41.09 55.4266 41.2 55.4533 41.2 55.4978C41.2 55.6135 40.8 56.1474 40.5 56.4411C40.2 56.717 40.2 56.717 40.2 56.3877Z" fill="#C5C5C5"/>
<path d="M60.5 56.539C60.5 56.4678 60.46 56.4055 60.42 56.4055C60.29 56.4055 60 55.8004 60 55.5156C60 55.1329 60.16 55.1863 60.44 55.6758C60.58 55.9072 60.79 56.2275 60.91 56.3877C61.12 56.6725 61.12 56.6725 60.81 56.6725C60.6 56.6725 60.5 56.628 60.5 56.539Z" fill="#C5C5C5"/>
<path d="M85.9 56.4945C85.9 56.3521 85.97 56.3165 86.25 56.3165C86.65 56.3165 86.74 56.5301 86.38 56.6191C86 56.7081 85.9 56.6814 85.9 56.4945Z" fill="#C5C5C5"/>
<path d="M96.75 56.5746C95.58 56.4144 95.5 56.3966 95.5 56.272C95.5 56.1118 95.67 56.1118 96.81 56.2453C97.56 56.3343 97.7 56.3699 97.7 56.5123C97.7 56.6903 97.66 56.6903 96.75 56.5746V56.5746Z" fill="#C5C5C5"/>
<path d="M86.8 56.4055C86.8 56.2542 86.87 56.2275 87.2 56.2275C87.61 56.2275 87.77 56.4144 87.44 56.5301C87.1 56.6458 86.8 56.5924 86.8 56.4055Z" fill="#C5C5C5"/>
<path d="M87.9 56.3165C87.9 56.1652 87.97 56.1385 88.3 56.1385C88.71 56.1385 88.87 56.3254 88.54 56.4411C88.2 56.5568 87.9 56.5034 87.9 56.3165Z" fill="#C5C5C5"/>
<path d="M7.4 56.2275C7.4 56.0851 7.47 56.0495 7.75 56.0495C8.15 56.0495 8.24 56.2631 7.88 56.3521C7.5 56.4411 7.4 56.4144 7.4 56.2275Z" fill="#C5C5C5"/>
<path d="M89.2 56.2275C89.2 56.0762 89.27 56.0495 89.7 56.0495C90.06 56.0495 90.2 56.0851 90.2 56.1741C90.2 56.3254 89.98 56.4055 89.54 56.4055C89.27 56.4055 89.2 56.3699 89.2 56.2275Z" fill="#C5C5C5"/>
<path d="M94.43 56.3432C94.36 56.3254 94.3 56.2453 94.3 56.1741C94.3 56.0851 94.43 56.0495 94.75 56.0495C95.13 56.0495 95.2 56.0762 95.2 56.2275C95.2 56.3699 95.14 56.4055 94.88 56.3966C94.7 56.3966 94.49 56.3699 94.43 56.3432Z" fill="#C5C5C5"/>
<path d="M42.78 53.7803C43.05 52.9794 43.3 52.7658 43.3 53.3353C43.3 53.5044 43.26 53.6468 43.2 53.6468C43.15 53.6468 43.1 53.7536 43.1 53.896C43.1 54.3409 42.99 54.5367 42.75 54.5367C42.53 54.5367 42.53 54.5367 42.78 53.7803Z" fill="#C5C5C5"/>
<path d="M99.67 53.2196C99.46 52.2496 99.46 52.045 99.65 52.045C99.8 52.045 99.81 52.0716 100.05 53.095C100.24 53.9227 100.24 54.0028 100.02 54.0028C99.87 54.0028 99.81 53.8604 99.67 53.2196Z" fill="#C5C5C5"/>
<path d="M37.89 53.5845C37.59 53.54 37.5 53.362 37.5 52.7836C37.5 52.5166 37.54 52.4009 37.64 52.4009C37.78 52.4009 37.9 52.659 37.9 52.9883C37.9 53.2374 38.14 53.4065 38.4 53.3353C38.57 53.2908 38.6 53.2018 38.6 52.837C38.6 52.4632 38.63 52.4009 38.8 52.4009C38.98 52.4009 39 52.4632 39 52.8904C39 53.1573 38.96 53.3798 38.9 53.3798C38.85 53.3798 38.8 53.4421 38.8 53.5133C38.8 53.6468 38.51 53.6735 37.89 53.5845Z" fill="#C5C5C5"/>
<path d="M70.96 53.362C70.93 53.2463 70.9 53.0061 70.9 52.8281C70.9 52.3475 71.18 52.3653 71.26 52.8548C71.3 53.0594 71.41 53.2641 71.51 53.3175C71.79 53.4777 71.74 53.5578 71.36 53.5578C71.1 53.5578 71.01 53.5133 70.96 53.362Z" fill="#C5C5C5"/>
<path d="M72 52.8904C72 52.5522 72.03 52.4899 72.2 52.4899C72.37 52.4899 72.4 52.5522 72.4 52.8904C72.4 53.2285 72.37 53.2908 72.2 53.2908C72.03 53.2908 72 53.2285 72 52.8904Z" fill="#C5C5C5"/>
<path d="M29.1 52.7124C29.1 52.3742 29.13 52.3119 29.3 52.3119C29.45 52.3119 29.5 52.3742 29.5 52.57C29.5 52.9171 29.41 53.1128 29.24 53.1128C29.14 53.1128 29.1 52.9971 29.1 52.7124Z" fill="#C5C5C5"/>
<path d="M30.2 52.9616C30.2 52.659 30.32 52.4009 30.46 52.4009C30.56 52.4009 30.6 52.5166 30.6 52.7569C30.6 53.0506 30.57 53.1128 30.4 53.1128C30.28 53.1128 30.2 53.0505 30.2 52.9616Z" fill="#C5C5C5"/>
<path d="M62.5 52.8103C62.5 52.6946 62.53 52.4187 62.56 52.1873C62.61 51.8581 62.67 51.778 62.82 51.778C63.02 51.778 63.03 51.8937 62.84 52.7836C62.77 53.0772 62.5 53.1039 62.5 52.8103V52.8103Z" fill="#C5C5C5"/>
<path d="M63.6 52.8904C63.6 52.5255 63.83 51.867 63.96 51.867C64.12 51.867 64.13 52.0005 64.04 52.6145C63.99 52.9349 63.93 53.0239 63.79 53.0239C63.68 53.0239 63.6 52.9616 63.6 52.8904Z" fill="#C5C5C5"/>
<path d="M58.9 52.4454C58.9 52.1161 59.12 52.0094 59.24 52.2763C59.36 52.5611 59.3 52.7569 59.1 52.7569C58.94 52.7569 58.9 52.6946 58.9 52.4454Z" fill="#C5C5C5"/>
<path d="M60.06 52.4276C60.03 52.2852 59.98 51.9916 59.94 51.7602C59.88 51.3686 59.89 51.333 60.09 51.333C60.24 51.333 60.3 51.3864 60.3 51.5377C60.3 51.6445 60.33 51.9471 60.36 52.2051C60.42 52.5878 60.4 52.6679 60.27 52.6679C60.18 52.6679 60.09 52.5611 60.06 52.4276Z" fill="#C5C5C5"/>
<path d="M43.23 51.8492C43.25 51.6623 43.33 51.5466 43.43 51.5288C43.56 51.5021 43.6 51.5644 43.6 51.8136C43.6 52.0806 43.56 52.1339 43.39 52.1339C43.22 52.1339 43.19 52.0894 43.23 51.8492Z" fill="#C5C5C5"/>
<path d="M58.8 51.7335C58.8 51.3775 59.04 51.2974 59.14 51.6267C59.24 51.956 59.21 52.045 59 52.045C58.84 52.045 58.8 51.9827 58.8 51.7335Z" fill="#C5C5C5"/>
<path d="M38.35 51.6C38.15 51.2618 38.16 51.244 38.45 51.244C38.67 51.244 38.7 51.2796 38.7 51.5555C38.7 51.9382 38.56 51.956 38.35 51.6Z" fill="#C5C5C5"/>
<path d="M99.3 51.5555C99.3 51.1995 99.54 51.1195 99.64 51.4487C99.74 51.778 99.71 51.867 99.5 51.867C99.34 51.867 99.3 51.8047 99.3 51.5555Z" fill="#C5C5C5"/>
<path d="M63.92 51.7157C64.27 51.0572 64.4 50.9949 64.4 51.4665C64.4 51.7424 64.37 51.778 64.14 51.778C64 51.778 63.9 51.7513 63.92 51.7157V51.7157Z" fill="#C5C5C5"/>
<path d="M36.9 51.1995C36.9 50.8347 37.07 50.8525 37.32 51.244C37.49 51.511 37.49 51.511 37.2 51.511C36.92 51.511 36.9 51.4843 36.9 51.1995Z" fill="#C5C5C5"/>
<path d="M70.3 51.1906C70.3 50.8436 70.39 50.8525 70.7 51.244C70.91 51.511 70.91 51.511 70.61 51.511C70.32 51.511 70.3 51.4843 70.3 51.1906Z" fill="#C5C5C5"/>
<path d="M63 51.1105C63 50.8347 63.03 50.7991 63.25 50.7991C63.54 50.7991 63.55 50.8169 63.35 51.155C63.14 51.511 63 51.4932 63 51.1105Z" fill="#C5C5C5"/>
<path d="M30.89 51.0839C30.94 51.0038 31.08 50.8525 31.19 50.7635C31.4 50.5944 31.4 50.5944 31.4 50.9148C31.4 51.2173 31.38 51.244 31.1 51.244C30.84 51.244 30.81 51.2173 30.89 51.0839V51.0839Z" fill="#C5C5C5"/>
<path d="M37.89 50.8258C37.76 50.6389 37.62 50.4342 37.57 50.3808C37.51 50.2918 37.57 50.2651 37.8 50.2651C38 50.2651 38.1 50.3096 38.1 50.3986C38.1 50.4698 38.15 50.5321 38.2 50.5321C38.26 50.5321 38.3 50.6745 38.3 50.8436C38.3 51.244 38.18 51.2351 37.89 50.8258V50.8258Z" fill="#C5C5C5"/>
<path d="M71.31 50.8436C71.11 50.5321 71.11 50.5321 71.4 50.5321C71.68 50.5321 71.7 50.5588 71.7 50.8436C71.7 51.0127 71.66 51.155 71.61 51.155C71.56 51.155 71.43 51.0127 71.31 50.8436Z" fill="#C5C5C5"/>
<path d="M58.83 50.194C58.94 49.2062 59 49.0193 59.22 49.0193C59.39 49.0193 59.41 49.0638 59.36 49.2684C59.33 49.4019 59.28 49.7134 59.24 49.9537C59.15 50.6745 59.11 50.7991 58.93 50.7991C58.79 50.7991 58.78 50.719 58.83 50.194V50.194Z" fill="#C5C5C5"/>
<path d="M59.94 50.3363C60.05 49.571 60.21 49.1083 60.38 49.1083C60.5 49.1083 60.51 49.1884 60.46 49.5354C60.42 49.7668 60.37 50.1406 60.33 50.3808C60.29 50.719 60.24 50.7991 60.08 50.7991C59.9 50.7991 59.89 50.7546 59.94 50.3363Z" fill="#C5C5C5"/>
<path d="M36.1 50.5321C36.1 50.3986 36.03 50.3541 35.83 50.3541C35.44 50.3541 35.28 50.2384 35.32 50.0071C35.35 49.8113 35.35 49.8113 35.85 50.0427C36.13 50.1761 36.46 50.3719 36.6 50.4965C36.85 50.7101 36.85 50.7101 36.47 50.7101C36.17 50.7101 36.1 50.6745 36.1 50.5321V50.5321Z" fill="#C5C5C5"/>
<path d="M69.5 50.5321C69.5 50.3986 69.43 50.3541 69.23 50.3541C68.84 50.3541 68.68 50.2384 68.72 50.0071C68.75 49.8113 68.75 49.8113 69.25 50.0427C69.53 50.1761 69.86 50.3719 70 50.4965C70.25 50.7101 70.25 50.7101 69.87 50.7101C69.57 50.7101 69.5 50.6745 69.5 50.5321V50.5321Z" fill="#C5C5C5"/>
<path d="M32.6 49.9982C32.6 49.8825 32.88 49.7579 33.33 49.6867C33.66 49.6333 33.7 49.6422 33.7 49.8024C33.7 49.927 33.61 49.9893 33.39 50.0338C32.93 50.1139 32.6 50.096 32.6 49.9982Z" fill="#C5C5C5"/>
<path d="M66 49.9982C66 49.8825 66.28 49.7579 66.73 49.6867C67.06 49.6333 67.1 49.6422 67.1 49.8024C67.1 49.927 67.01 49.9893 66.79 50.0338C66.33 50.1139 66 50.096 66 49.9982Z" fill="#C5C5C5"/>
<path d="M34.4 49.8202C34.4 49.6333 34.5 49.6066 34.88 49.6956C35.24 49.7846 35.15 49.9982 34.75 49.9982C34.47 49.9982 34.4 49.9626 34.4 49.8202Z" fill="#C5C5C5"/>
<path d="M43.16 49.8024C43.06 49.4642 43.09 49.3752 43.3 49.3752C43.46 49.3752 43.5 49.4375 43.5 49.6867C43.5 50.0427 43.26 50.1228 43.16 49.8024Z" fill="#C5C5C5"/>
<path d="M67.8 49.8202C67.8 49.6333 67.9 49.6066 68.28 49.6956C68.64 49.7846 68.55 49.9982 68.15 49.9982C67.87 49.9982 67.8 49.9626 67.8 49.8202Z" fill="#C5C5C5"/>
<path d="M64.4 49.6511C64.4 49.393 64.42 49.3752 64.76 49.3752C65.18 49.3752 65.17 49.4909 64.72 49.7401C64.4 49.927 64.4 49.927 64.4 49.6511Z" fill="#C5C5C5"/>
<path d="M36.13 49.393C35.62 49.1439 35.58 49.0193 36.03 49.0193C36.46 49.0193 36.62 49.1261 36.58 49.3841C36.55 49.6066 36.55 49.6066 36.13 49.393Z" fill="#C5C5C5"/>
<path d="M69.48 49.3663C69.03 49.1617 68.99 49.0193 69.39 49.0193C69.84 49.0193 70 49.1083 70 49.3396C70 49.5977 69.96 49.5977 69.48 49.3663Z" fill="#C5C5C5"/>
<path d="M31.9 49.1438C31.9 48.9659 31.95 48.9303 32.19 48.9303C32.35 48.9303 32.5 48.8947 32.52 48.8413C32.54 48.7968 32.81 48.7345 33.13 48.6989C33.6 48.6455 33.7 48.6633 33.7 48.779C33.7 48.9214 33.5 49.0193 33.19 49.0193C33.08 49.0193 32.75 49.0994 32.45 49.1883C31.9 49.3574 31.9 49.3574 31.9 49.1438Z" fill="#C5C5C5"/>
<path d="M65.3 49.1527C65.3 48.9659 65.35 48.9303 65.59 48.9303C65.75 48.9303 65.9 48.8947 65.92 48.8413C65.94 48.7968 66.21 48.7345 66.53 48.6989C67.01 48.6455 67.1 48.6633 67.1 48.779C67.1 48.8769 66.93 48.9481 66.54 49.0193C66.23 49.0816 65.83 49.1794 65.64 49.2506C65.31 49.3752 65.3 49.3752 65.3 49.1527Z" fill="#C5C5C5"/>
<path d="M34.53 48.957C34.25 48.8591 34.4 48.6633 34.75 48.6633C35.03 48.6633 35.1 48.6989 35.1 48.8413C35.1 49.0193 34.84 49.0727 34.53 48.957Z" fill="#C5C5C5"/>
<path d="M67.93 48.957C67.65 48.8591 67.8 48.6633 68.15 48.6633C68.43 48.6633 68.5 48.6989 68.5 48.8413C68.5 49.0193 68.24 49.0727 67.93 48.957Z" fill="#C5C5C5"/>
<path d="M41.6 48.6188C41.6 48.2361 41.74 48.2183 41.95 48.5743C42.15 48.9125 42.14 48.9303 41.85 48.9303C41.63 48.9303 41.6 48.8947 41.6 48.6188Z" fill="#C5C5C5"/>
<path d="M3.4 48.2895C3.4 48.0226 3.53 47.7734 3.66 47.7734C3.75 47.7734 3.8 47.8802 3.8 48.0849C3.8 48.334 3.76 48.3963 3.6 48.3963C3.49 48.3963 3.4 48.3429 3.4 48.2895Z" fill="#C5C5C5"/>
<path d="M60.7 48.1739C60.7 48.0493 61.02 47.5954 61.1 47.5954C61.16 47.5954 61.2 47.7378 61.2 47.9069C61.2 48.1828 61.17 48.2183 60.95 48.2183C60.81 48.2183 60.7 48.2006 60.7 48.1739Z" fill="#C5C5C5"/>
<path d="M59.8 47.5509C59.8 47.2751 59.83 47.2395 60.05 47.2395C60.35 47.2395 60.35 47.2662 60.13 47.6043C59.9 47.9425 59.8 47.9336 59.8 47.5509Z" fill="#C5C5C5"/>
<path d="M97.73 47.4441C97.5 47.3373 97.4 47.2305 97.4 47.0882C97.4 46.8835 97.4 46.8835 97.78 47.0259C97.98 47.106 98.2 47.1861 98.27 47.2128C98.33 47.2305 98.4 47.3284 98.43 47.4263C98.49 47.6399 98.19 47.6488 97.73 47.4441Z" fill="#C5C5C5"/>
<path d="M4.32 47.2217C4.35 47.1594 4.51 47.0615 4.68 46.9992C4.99 46.8835 5 46.8924 5 47.106C5 47.3017 4.96 47.3284 4.64 47.3284C4.41 47.3284 4.3 47.2928 4.32 47.2217Z" fill="#C5C5C5"/>
<path d="M41.86 47.0615C41.57 46.75 41.57 46.75 41.84 46.7233C42.19 46.6877 42.22 46.7144 42.18 47.0704C42.15 47.364 42.15 47.364 41.86 47.0615V47.0615Z" fill="#C5C5C5"/>
<path d="M95.9 46.483C95.9 46.2695 95.91 46.2606 96.22 46.3762C96.68 46.5453 96.7 46.7055 96.26 46.7055C95.94 46.7055 95.9 46.6788 95.9 46.483V46.483Z" fill="#C5C5C5"/>
<path d="M48.58 46.5542C48.28 46.5275 48.2 46.483 48.2 46.3406C48.2 46.1716 48.24 46.1627 48.63 46.2161C49.46 46.3228 49.6 46.3673 49.6 46.4919C49.6 46.6165 49.41 46.6254 48.58 46.5542V46.5542Z" fill="#C5C5C5"/>
<path d="M47.2 46.136C47.2 45.9313 47.22 45.9224 47.55 46.0203C47.74 46.0737 47.9 46.1627 47.9 46.2339C47.9 46.305 47.77 46.3495 47.55 46.3495C47.25 46.3495 47.2 46.3228 47.2 46.136Z" fill="#C5C5C5"/>
<path d="M95 46.2161C95 46.1271 94.89 46.0826 94.65 46.0826C94.41 46.0826 94.3 46.0381 94.3 45.9491C94.3 45.8601 94.19 45.8156 93.95 45.8156C93.64 45.8156 93.6 45.7889 93.6 45.5931C93.6 45.3884 93.62 45.3795 93.88 45.4596C94.03 45.513 94.24 45.5931 94.35 45.6376C94.46 45.6821 94.81 45.8156 95.13 45.9402C95.78 46.1983 95.86 46.3495 95.35 46.3495C95.11 46.3495 95 46.305 95 46.2161Z" fill="#C5C5C5"/>
<path d="M97.77 46.2517C97.68 46.1983 97.6 46.1271 97.6 46.0826C97.6 45.9313 97.87 45.9847 97.94 46.136C98.02 46.3317 97.99 46.3584 97.77 46.2517Z" fill="#C5C5C5"/>
<path d="M5.4 45.6821C5.4 45.4863 5.44 45.4596 5.76 45.4596C6.2 45.4596 6.18 45.6198 5.72 45.7889C5.41 45.9046 5.4 45.8957 5.4 45.6821V45.6821Z" fill="#C5C5C5"/>
<path d="M62.9 45.8334C62.9 45.7978 63.02 45.6999 63.18 45.6198C63.33 45.5397 63.59 45.3706 63.75 45.2461C64.13 44.9524 64.3 44.9524 64.3 45.2372C64.3 45.4329 64.26 45.4596 63.95 45.4596C63.64 45.4596 63.6 45.4863 63.6 45.6821C63.6 45.8779 63.56 45.9046 63.25 45.9046C63.06 45.9046 62.9 45.869 62.9 45.8334Z" fill="#C5C5C5"/>
<path d="M96.63 45.7711C96.2 45.6109 96.21 45.4596 96.65 45.4596C96.96 45.4596 97 45.4863 97 45.6821C97 45.8067 96.99 45.9046 96.98 45.9046C96.96 45.8957 96.8 45.8423 96.63 45.7711Z" fill="#C5C5C5"/>
<path d="M8.12 45.7088C8.15 45.6465 8.31 45.5486 8.48 45.4863C8.79 45.3706 8.8 45.3795 8.8 45.5931C8.8 45.7889 8.76 45.8156 8.44 45.8156C8.21 45.8156 8.1 45.78 8.12 45.7088Z" fill="#C5C5C5"/>
<path d="M38.4 45.3706C38.4 45.1393 38.43 45.1126 38.58 45.1838C38.67 45.2283 38.84 45.3528 38.94 45.4507C39.13 45.6376 39.13 45.6376 38.77 45.6376C38.43 45.6376 38.4 45.6198 38.4 45.3706V45.3706Z" fill="#C5C5C5"/>
<path d="M49.08 45.5753C48.75 45.5041 48.88 45.2816 49.25 45.2816C49.53 45.2816 49.6 45.3172 49.6 45.4596C49.6 45.6376 49.46 45.6643 49.08 45.5753Z" fill="#C5C5C5"/>
<path d="M55.2 45.5486C55.2 45.4774 55.71 45.1927 55.85 45.1927C55.88 45.1927 55.9 45.2906 55.9 45.4151C55.9 45.6109 55.86 45.6376 55.55 45.6376C55.36 45.6376 55.2 45.602 55.2 45.5486Z" fill="#C5C5C5"/>
<path d="M52.2 45.3706C52.2 45.2283 52.27 45.1927 52.55 45.1927C52.95 45.1927 53.04 45.4062 52.68 45.4952C52.3 45.5842 52.2 45.5575 52.2 45.3706Z" fill="#C5C5C5"/>
<path d="M95.73 45.4151C95.3 45.255 95.31 45.1037 95.75 45.1037C96.06 45.1037 96.1 45.1304 96.1 45.3261C96.1 45.4507 96.09 45.5486 96.08 45.5486C96.06 45.5397 95.9 45.4863 95.73 45.4151Z" fill="#C5C5C5"/>
<path d="M7 45.0592C7 44.8634 7.04 44.8367 7.36 44.8367C7.8 44.8367 7.78 44.9969 7.32 45.166C7.01 45.2817 7 45.2728 7 45.0592V45.0592Z" fill="#C5C5C5"/>
<path d="M10.1 45.0147C10.1 44.9435 10.61 44.6587 10.75 44.6587C10.78 44.6587 10.8 44.7566 10.8 44.8812C10.8 45.077 10.76 45.1037 10.45 45.1037C10.26 45.1037 10.1 45.0681 10.1 45.0147Z" fill="#C5C5C5"/>
<path d="M54.4 44.7922C54.4 44.5964 54.44 44.5697 54.76 44.5697C55.2 44.5697 55.18 44.7299 54.72 44.899C54.41 45.0147 54.4 45.0058 54.4 44.7922Z" fill="#C5C5C5"/>
<path d="M64.4 44.9257C64.4 44.8545 64.91 44.5697 65.05 44.5697C65.08 44.5697 65.1 44.6676 65.1 44.7922C65.1 44.988 65.06 45.0147 64.75 45.0147C64.56 45.0147 64.4 44.9791 64.4 44.9257Z" fill="#C5C5C5"/>
<path d="M97 44.6053C97 44.2138 97.18 44.2316 97.37 44.6409C97.5 44.9168 97.49 44.9257 97.25 44.9257C97.03 44.9257 97 44.8901 97 44.6053Z" fill="#C5C5C5"/>
<path d="M38.83 44.543C38.41 44.2939 38.42 44.2138 38.85 44.2138C39.17 44.2138 39.2 44.2316 39.2 44.4807C39.2 44.632 39.19 44.7477 39.18 44.7388C39.16 44.7388 39 44.6498 38.83 44.543V44.543Z" fill="#C5C5C5"/>
<path d="M11.72 44.4629C11.75 44.4006 11.91 44.3027 12.08 44.2405C12.39 44.1248 12.4 44.1337 12.4 44.3472C12.4 44.543 12.36 44.5697 12.04 44.5697C11.81 44.5697 11.7 44.5341 11.72 44.4629Z" fill="#C5C5C5"/>
<path d="M90 44.3472C90 44.1337 90.01 44.1248 90.32 44.2405C90.78 44.4095 90.8 44.5697 90.36 44.5697C90.04 44.5697 90 44.543 90 44.3472V44.3472Z" fill="#C5C5C5"/>
<path d="M63.5 44.2583C63.5 44.0803 63.55 44.0358 63.75 44.0358C63.91 44.0358 64 43.9824 64 43.9023C64 43.8133 64.11 43.7688 64.35 43.7688C64.54 43.7688 64.7 43.7955 64.7 43.84C64.7 43.9112 63.72 44.4807 63.59 44.4807C63.54 44.4807 63.5 44.3829 63.5 44.2583Z" fill="#C5C5C5"/>
<path d="M42.3 44.1693C42.3 43.9735 42.26 43.9468 41.95 43.9468C41.63 43.9468 41.6 43.929 41.6 43.6709C41.6 43.4039 41.6 43.4039 42.2 43.7777C43.05 44.3028 43.11 44.3917 42.66 44.3917C42.34 44.3917 42.3 44.365 42.3 44.1693Z" fill="#C5C5C5"/>
<path d="M96.7 43.8934C96.7 43.5018 96.88 43.5196 97.07 43.929C97.2 44.2049 97.19 44.2138 96.95 44.2138C96.73 44.2138 96.7 44.1782 96.7 43.8934Z" fill="#C5C5C5"/>
<path d="M43.98 43.9646C43.61 43.7688 43.63 43.6798 44.05 43.6798C44.36 43.6798 44.4 43.7065 44.4 43.9023C44.4 44.1604 44.34 44.1693 43.98 43.9646Z" fill="#C5C5C5"/>
<path d="M66.42 44.018C66.45 43.9557 66.61 43.8578 66.78 43.7955C67.09 43.6798 67.1 43.6887 67.1 43.9023C67.1 44.0981 67.06 44.1248 66.74 44.1248C66.51 44.1248 66.4 44.0892 66.42 44.018Z" fill="#C5C5C5"/>
<path d="M91.78 43.9824C91.4 43.8044 91.43 43.6798 91.85 43.6798C92.16 43.6798 92.2 43.7065 92.2 43.9023C92.2 44.1604 92.15 44.1693 91.78 43.9824Z" fill="#C5C5C5"/>
<path d="M56.6 43.6798C56.6 43.4306 56.63 43.4128 56.97 43.4128C57.33 43.4128 57.33 43.4128 57.14 43.5997C57.04 43.6976 56.87 43.8222 56.78 43.8667C56.63 43.9379 56.6 43.9112 56.6 43.6798V43.6798Z" fill="#C5C5C5"/>
<path d="M15.1 43.4751C15.1 43.4039 15.35 43.2883 15.7 43.2082C16.46 43.0213 16.5 43.0213 16.5 43.2349C16.5 43.3772 16.43 43.4128 16.15 43.4128C15.96 43.4128 15.8 43.4573 15.8 43.5018C15.8 43.5552 15.64 43.5908 15.45 43.5908C15.22 43.5908 15.1 43.5463 15.1 43.4751Z" fill="#C5C5C5"/>
<path d="M67.92 43.484C67.95 43.4217 68.11 43.3239 68.28 43.2616C68.59 43.1459 68.6 43.1548 68.6 43.3684C68.6 43.5641 68.56 43.5908 68.24 43.5908C68.01 43.5908 67.9 43.5552 67.92 43.484Z" fill="#C5C5C5"/>
<path d="M58.65 43.4128C58.68 43.3683 58.84 43.2438 59 43.1459C59.3 42.959 59.3 42.959 59.3 43.226C59.3 43.484 59.27 43.5018 58.94 43.5018C58.74 43.5018 58.61 43.4662 58.65 43.4128Z" fill="#C5C5C5"/>
<path d="M7.7 43.2527C7.7 43.1815 8.22 42.8789 8.34 42.8789C8.37 42.8789 8.4 42.9768 8.4 43.1014C8.4 43.2972 8.36 43.3239 8.05 43.3239C7.86 43.3239 7.7 43.2883 7.7 43.2527Z" fill="#C5C5C5"/>
<path d="M36.03 43.1904C35.6 43.0302 35.61 42.8789 36.05 42.8789C36.36 42.8789 36.4 42.9056 36.4 43.1014C36.4 43.226 36.39 43.3239 36.38 43.3239C36.36 43.315 36.2 43.2616 36.03 43.1904Z" fill="#C5C5C5"/>
<path d="M66 43.1014C66 42.9056 66.04 42.8789 66.35 42.8789C66.59 42.8789 66.7 42.8344 66.7 42.7454C66.7 42.6564 66.81 42.6119 67.05 42.6119C67.7 42.6119 67.42 42.8255 66.23 43.2438C66.03 43.306 66 43.2883 66 43.1014Z" fill="#C5C5C5"/>
<path d="M13 43.0035C13 42.8166 13.05 42.7899 13.35 42.7899C13.57 42.7899 13.7 42.8344 13.7 42.9056C13.7 42.9768 13.54 43.0658 13.35 43.1192C13.02 43.2171 13 43.2082 13 43.0035Z" fill="#C5C5C5"/>
<path d="M85.03 43.1726C84.88 43.1459 84.8 43.0658 84.8 42.959C84.8 42.7632 84.86 42.7543 85.46 42.8878C86.28 43.0747 85.9 43.3238 85.03 43.1726V43.1726Z" fill="#C5C5C5"/>
<path d="M69.7 42.9323C69.7 42.8166 69.98 42.7009 70.28 42.7009C70.34 42.7009 70.4 42.781 70.4 42.8789C70.4 43.0213 70.33 43.0569 70.05 43.0569C69.82 43.0569 69.7 43.0124 69.7 42.9323Z" fill="#C5C5C5"/>
<path d="M95.4 42.8344C95.4 42.7454 95.29 42.7009 95.05 42.7009C94.74 42.7009 94.7 42.6742 94.7 42.4784C94.7 42.2916 94.73 42.2738 94.93 42.3361C96.12 42.7543 96.4 42.9679 95.75 42.9679C95.51 42.9679 95.4 42.9234 95.4 42.8344Z" fill="#C5C5C5"/>
<path d="M18.2 42.7543C18.2 42.6386 18.48 42.5229 18.78 42.5229C18.84 42.5229 18.9 42.603 18.9 42.7009C18.9 42.8433 18.83 42.8789 18.55 42.8789C18.32 42.8789 18.2 42.8344 18.2 42.7543Z" fill="#C5C5C5"/>
<path d="M34.83 42.7454C34.4 42.5852 34.41 42.4339 34.85 42.4339C35.16 42.4339 35.2 42.4606 35.2 42.6564C35.2 42.781 35.19 42.8789 35.18 42.8789C35.16 42.87 35 42.8166 34.83 42.7454Z" fill="#C5C5C5"/>
<path d="M39.9 42.5229C39.9 42.2916 39.93 42.2649 40.08 42.3361C40.17 42.3806 40.34 42.5051 40.44 42.603C40.63 42.7899 40.63 42.7899 40.27 42.7899C39.93 42.7899 39.9 42.7721 39.9 42.5229V42.5229Z" fill="#C5C5C5"/>
<path d="M71.1 42.5852C71.1 42.514 71.26 42.4251 71.45 42.3717C71.78 42.2738 71.8 42.2827 71.8 42.4873C71.8 42.6742 71.75 42.7009 71.45 42.7009C71.23 42.7009 71.1 42.6564 71.1 42.5852Z" fill="#C5C5C5"/>
<path d="M81.43 42.4873C80.4 42.3361 80.2 42.2738 80.2 42.1492C80.2 41.9534 80.21 41.9534 81.35 42.1225C82.93 42.3539 83.3 42.4339 83.3 42.5763C83.3 42.7365 82.98 42.7276 81.43 42.4873V42.4873Z" fill="#C5C5C5"/>
<path d="M15.3 42.3805C15.3 42.1937 15.35 42.167 15.65 42.167C15.87 42.167 16 42.2115 16 42.2827C16 42.3538 15.84 42.4428 15.65 42.4962C15.32 42.5941 15.3 42.5852 15.3 42.3805Z" fill="#C5C5C5"/>
<path d="M19.6 42.4873C19.6 42.4072 19.79 42.3272 20.1 42.2649C20.79 42.1314 20.9 42.1403 20.9 42.3361C20.9 42.4606 20.8 42.514 20.44 42.5585C19.75 42.6386 19.6 42.6297 19.6 42.4873Z" fill="#C5C5C5"/>
<path d="M60.2 42.4518C60.2 42.3806 60.72 42.078 60.84 42.078C60.87 42.078 60.9 42.1759 60.9 42.3005C60.9 42.4962 60.86 42.5229 60.55 42.5229C60.36 42.5229 60.2 42.4873 60.2 42.4518Z" fill="#C5C5C5"/>
<path d="M29.03 42.3716C28.78 42.345 28.7 42.2916 28.7 42.1492C28.7 41.989 28.74 41.9801 29.08 42.0246C29.89 42.1492 30 42.1848 30 42.3094C30 42.4339 29.76 42.4517 29.03 42.3716V42.3716Z" fill="#C5C5C5"/>
<path d="M72.9 42.2204C72.9 42.0869 73.07 42.0335 73.83 41.9445C74.25 41.8822 74.3 41.9 74.3 42.0513C74.3 42.2026 74.21 42.2382 73.78 42.2916C73.02 42.3716 72.9 42.3627 72.9 42.2204V42.2204Z" fill="#C5C5C5"/>
<path d="M85.7 42.2471C85.56 42.2115 85.33 42.1581 85.18 42.1314C85.01 42.0958 84.9 42.0157 84.9 41.9267C84.9 41.811 84.98 41.7932 85.41 41.8377C86.01 41.9 86.03 41.9178 85.98 42.1492C85.96 42.2827 85.9 42.3005 85.7 42.2471V42.2471Z" fill="#C5C5C5"/>
<path d="M16.4 42.078C16.4 41.9356 16.47 41.9 16.75 41.9C17.15 41.9 17.24 42.1136 16.88 42.2026C16.5 42.2916 16.4 42.2649 16.4 42.078Z" fill="#C5C5C5"/>
<path d="M79.4 42.078C79.4 41.8911 79.5 41.8644 79.88 41.9534C80.24 42.0424 80.15 42.256 79.75 42.256C79.47 42.256 79.4 42.2204 79.4 42.078Z" fill="#C5C5C5"/>
<path d="M5.8 42.1225C5.8 41.9979 6.12 41.544 6.2 41.544C6.26 41.544 6.3 41.6864 6.3 41.8555C6.3 42.1314 6.27 42.167 6.05 42.167C5.91 42.167 5.8 42.1492 5.8 42.1225Z" fill="#C5C5C5"/>
<path d="M27.1 41.989C27.1 41.8021 27.2 41.7754 27.58 41.8644C27.94 41.9534 27.85 42.167 27.45 42.167C27.17 42.167 27.1 42.1314 27.1 41.989Z" fill="#C5C5C5"/>
<path d="M74.5 42.0424C74.5 41.9178 74.79 41.811 75.18 41.811C75.33 41.811 75.4 41.8644 75.4 41.989C75.4 42.1403 75.33 42.167 74.95 42.167C74.63 42.167 74.5 42.1314 74.5 42.0424Z" fill="#C5C5C5"/>
<path d="M78.2 41.989C78.2 41.8021 78.36 41.7665 78.78 41.8644C79.17 41.9623 79.05 42.167 78.6 42.167C78.27 42.167 78.2 42.1403 78.2 41.989Z" fill="#C5C5C5"/>
<path d="M59.3 41.7665C59.3 41.5885 59.35 41.544 59.55 41.544C59.71 41.544 59.8 41.4906 59.8 41.4105C59.8 41.3216 59.91 41.2771 60.15 41.2771C60.34 41.2771 60.5 41.3127 60.5 41.3572C60.5 41.4283 59.48 41.989 59.35 41.989C59.32 41.989 59.3 41.8911 59.3 41.7665Z" fill="#C5C5C5"/>
<path d="M95.43 41.7932C94.98 41.6597 95 41.455 95.45 41.455C95.76 41.455 95.8 41.4817 95.8 41.6775C95.8 41.8021 95.79 41.9 95.78 41.8911C95.76 41.8822 95.6 41.8377 95.43 41.7932Z" fill="#C5C5C5"/>
<path d="M19 41.544C19 41.4017 19.07 41.3661 19.35 41.3661C19.75 41.3661 19.84 41.5796 19.48 41.6686C19.1 41.7576 19 41.7309 19 41.544Z" fill="#C5C5C5"/>
<path d="M38.1 41.5885C38.1 41.5084 38.01 41.455 37.85 41.455C37.64 41.455 37.6 41.4106 37.6 41.1881C37.6 40.93 37.6 40.93 38.2 41.2593C38.53 41.4372 38.8 41.6152 38.8 41.6597C38.8 41.6953 38.64 41.722 38.45 41.722C38.21 41.722 38.1 41.6775 38.1 41.5885Z" fill="#C5C5C5"/>
<path d="M39.8 41.3572C39.23 41.0279 39.19 40.9211 39.64 40.9211C39.84 40.9211 40 40.9656 40 41.0101C40 41.0635 40.07 41.0991 40.15 41.0991C40.25 41.0991 40.3 41.1881 40.3 41.3661C40.3 41.5173 40.29 41.633 40.28 41.6241C40.26 41.6241 40.05 41.4995 39.8 41.3572Z" fill="#C5C5C5"/>
<path d="M71.4 41.455C71.4 41.3127 71.47 41.2771 71.75 41.2771C72.15 41.2771 72.24 41.4906 71.88 41.5796C71.5 41.6686 71.4 41.6419 71.4 41.455Z" fill="#C5C5C5"/>
<path d="M20.1 41.3661C20.1 41.2237 20.17 41.1881 20.45 41.1881C20.85 41.1881 20.94 41.4017 20.58 41.4906C20.2 41.5796 20.1 41.5529 20.1 41.3661Z" fill="#C5C5C5"/>
<path d="M30.08 41.4817C29.75 41.4105 29.88 41.1881 30.25 41.1881C30.53 41.1881 30.6 41.2237 30.6 41.3661C30.6 41.544 30.46 41.5707 30.08 41.4817Z" fill="#C5C5C5"/>
<path d="M81.85 41.4995C81.8 41.4817 81.58 41.4462 81.38 41.4106C81.14 41.375 81 41.3127 81 41.2326C81 41.0813 81.15 41.0724 81.84 41.1525C82.2 41.197 82.3 41.2504 82.3 41.375C82.3 41.5351 82.12 41.5796 81.85 41.4995Z" fill="#C5C5C5"/>
<path d="M62.7 41.3394C62.7 41.2682 62.86 41.1792 63.05 41.1258C63.38 41.0279 63.4 41.0368 63.4 41.2415C63.4 41.4283 63.35 41.455 63.05 41.455C62.83 41.455 62.7 41.4106 62.7 41.3394Z" fill="#C5C5C5"/>
<path d="M72.3 41.2949C72.3 41.1525 72.43 41.108 73.13 41.0279C74.18 40.8944 74.3 40.8944 74.3 41.0457C74.3 41.1792 74.16 41.2148 73.1 41.366C72.27 41.4817 72.3 41.4817 72.3 41.2949V41.2949Z" fill="#C5C5C5"/>
<path d="M80.15 41.3038C79.57 41.2415 79.4 41.1881 79.4 41.0546C79.4 40.9033 79.58 40.8944 80.38 40.9745C80.8 41.0279 80.9 41.0635 80.9 41.197C80.9 41.3661 80.82 41.3839 80.15 41.3038V41.3038Z" fill="#C5C5C5"/>
<path d="M90.5 41.1881C90.5 41.0012 90.6 40.9745 90.98 41.0635C91.34 41.1525 91.25 41.3661 90.85 41.3661C90.57 41.3661 90.5 41.3305 90.5 41.1881Z" fill="#C5C5C5"/>
<path d="M95.4 41.0457C95.4 40.6541 95.58 40.6719 95.77 41.0813C95.9 41.3571 95.89 41.366 95.65 41.366C95.43 41.366 95.4 41.3305 95.4 41.0457Z" fill="#C5C5C5"/>
<path d="M12.5 41.1881C12.5 41.1169 13.01 40.8321 13.15 40.8321C13.18 40.8321 13.2 40.93 13.2 41.0546C13.2 41.2504 13.16 41.2771 12.85 41.2771C12.66 41.2771 12.5 41.2415 12.5 41.1881Z" fill="#C5C5C5"/>
<path d="M23.5 41.019C23.5 40.8677 23.56 40.8321 23.86 40.8321C24.14 40.8321 24.21 40.8677 24.18 40.9834C24.16 41.0724 24.03 41.1436 23.82 41.1614C23.55 41.197 23.5 41.1703 23.5 41.019Z" fill="#C5C5C5"/>
<path d="M27.25 41.108C27.09 40.9656 27.24 40.8321 27.55 40.8321C27.83 40.8321 27.9 40.8677 27.9 41.0101C27.9 41.1525 27.84 41.1881 27.6 41.1703C27.43 41.1614 27.27 41.1347 27.25 41.108V41.108Z" fill="#C5C5C5"/>
<path d="M60.9 40.9745C60.9 40.7431 61.06 40.6541 61.51 40.6541C61.91 40.6541 61.87 40.7965 61.4 41.0101C60.91 41.2326 60.9 41.2326 60.9 40.9745Z" fill="#C5C5C5"/>
<path d="M63.5 41.0902C63.5 40.9923 64.1 40.7431 64.35 40.7431C64.59 40.7431 64.53 41.0724 64.28 41.1347C63.92 41.2148 63.5 41.197 63.5 41.0902Z" fill="#C5C5C5"/>
<path d="M74.5 41.0101C74.5 40.8588 74.57 40.8321 74.95 40.8321C75.44 40.8321 75.59 41.0368 75.18 41.1347C74.73 41.2415 74.5 41.197 74.5 41.0101Z" fill="#C5C5C5"/>
<path d="M78.38 41.1258C78.02 41.0457 78.18 40.8321 78.6 40.8321C78.93 40.8321 79 40.8588 79 41.0101C79 41.1881 78.8 41.2237 78.38 41.1258Z" fill="#C5C5C5"/>
<path d="M6.63 40.4584C6.82 40.049 7 40.0312 7 40.4228C7 40.7075 6.97 40.7431 6.75 40.7431C6.51 40.7431 6.5 40.7342 6.63 40.4584Z" fill="#C5C5C5"/>
<path d="M86.9 40.3871C86.9 40.2092 87.12 40.1558 87.44 40.2626C87.74 40.3693 87.62 40.5651 87.25 40.5651C86.97 40.5651 86.9 40.5295 86.9 40.3871Z" fill="#C5C5C5"/>
<path d="M35.4 40.2537C35.4 40.0401 35.41 40.0312 35.72 40.1469C36.18 40.316 36.2 40.4762 35.76 40.4762C35.44 40.4762 35.4 40.4495 35.4 40.2537Z" fill="#C5C5C5"/>
<path d="M66.3 40.3516C66.3 40.2359 66.58 40.1202 66.88 40.1202C66.94 40.1202 67 40.2003 67 40.2982C67 40.4405 66.93 40.4761 66.65 40.4761C66.42 40.4761 66.3 40.4316 66.3 40.3516Z" fill="#C5C5C5"/>
<path d="M91.08 40.4138C90.75 40.3427 90.88 40.1202 91.25 40.1202C91.53 40.1202 91.6 40.1558 91.6 40.2982C91.6 40.4761 91.46 40.5028 91.08 40.4138Z" fill="#C5C5C5"/>
<path d="M85.9 40.2092C85.9 40.0223 86 39.9956 86.38 40.0846C86.74 40.1736 86.65 40.3871 86.25 40.3871C85.97 40.3871 85.9 40.3516 85.9 40.2092Z" fill="#C5C5C5"/>
<path d="M67.2 40.1736C67.2 40.1024 67.39 40.0134 67.64 39.9511C68.26 39.8176 68.4 39.8265 68.4 40.0223C68.4 40.1469 68.3 40.2003 68.03 40.2448C67.44 40.3249 67.2 40.3071 67.2 40.1736Z" fill="#C5C5C5"/>
<path d="M84.53 40.1469C84.28 40.1202 84.2 40.0668 84.2 39.9244C84.2 39.7553 84.24 39.7464 84.68 39.7998C85.36 39.8888 85.5 39.9422 85.5 40.0846C85.5 40.2092 85.26 40.227 84.53 40.1469V40.1469Z" fill="#C5C5C5"/>
<path d="M13.3 39.8087C13.3 39.6129 13.34 39.5862 13.66 39.5862C14.1 39.5862 14.08 39.7464 13.62 39.9155C13.31 40.0312 13.3 40.0223 13.3 39.8087V39.8087Z" fill="#C5C5C5"/>
<path d="M69.4 39.8176C69.4 39.7019 69.68 39.5862 69.98 39.5862C70.04 39.5862 70.1 39.6663 70.1 39.7642C70.1 39.9066 70.03 39.9422 69.75 39.9422C69.52 39.9422 69.4 39.8977 69.4 39.8176Z" fill="#C5C5C5"/>
<path d="M81.9 39.6752C81.9 39.4883 82 39.4617 82.38 39.5506C82.74 39.6396 82.65 39.8532 82.25 39.8532C81.97 39.8532 81.9 39.8176 81.9 39.6752Z" fill="#C5C5C5"/>
<path d="M17.4 39.6485C17.4 39.5773 17.56 39.4883 17.75 39.435C18.08 39.3371 18.1 39.346 18.1 39.5506C18.1 39.7375 18.05 39.7642 17.75 39.7642C17.53 39.7642 17.4 39.7197 17.4 39.6485Z" fill="#C5C5C5"/>
<path d="M81 39.5862C81 39.3994 81.1 39.3727 81.48 39.4617C81.84 39.5506 81.75 39.7642 81.35 39.7642C81.07 39.7642 81 39.7286 81 39.5862Z" fill="#C5C5C5"/>
<path d="M14.4 39.4527C14.4 39.257 14.44 39.2303 14.76 39.2303C15.2 39.2303 15.18 39.3905 14.72 39.5595C14.41 39.6752 14.4 39.6663 14.4 39.4527V39.4527Z" fill="#C5C5C5"/>
<path d="M72.2 39.5506C72.2 39.435 72.48 39.3193 72.78 39.3193C72.84 39.3193 72.9 39.3994 72.9 39.4972C72.9 39.6396 72.83 39.6752 72.55 39.6752C72.32 39.6752 72.2 39.6307 72.2 39.5506Z" fill="#C5C5C5"/>
<path d="M79.9 39.4884C79.9 39.3371 79.95 39.3104 80.22 39.346C80.43 39.3638 80.56 39.435 80.58 39.524C80.61 39.6396 80.54 39.6752 80.26 39.6752C79.96 39.6752 79.9 39.6396 79.9 39.4884Z" fill="#C5C5C5"/>
<path d="M32.7 39.4083C32.7 39.2214 32.8 39.1947 33.18 39.2837C33.54 39.3727 33.45 39.5862 33.05 39.5862C32.77 39.5862 32.7 39.5506 32.7 39.4083Z" fill="#C5C5C5"/>
<path d="M73.9 39.4616C73.9 39.346 74.18 39.2303 74.48 39.2303C74.54 39.2303 74.6 39.3104 74.6 39.4083C74.6 39.5506 74.53 39.5862 74.25 39.5862C74.02 39.5862 73.9 39.5417 73.9 39.4616Z" fill="#C5C5C5"/>
<path d="M77.9 39.4083C77.9 39.2214 78 39.1947 78.38 39.2837C78.74 39.3727 78.65 39.5862 78.25 39.5862C77.97 39.5862 77.9 39.5506 77.9 39.4083Z" fill="#C5C5C5"/>
<path d="M19 39.2837C19 39.168 19.28 39.0523 19.58 39.0523C19.64 39.0523 19.7 39.1324 19.7 39.2303C19.7 39.3727 19.63 39.4083 19.35 39.4083C19.12 39.4083 19 39.3638 19 39.2837Z" fill="#C5C5C5"/>
<path d="M85.88 39.3015C85.47 39.2036 85.36 38.9633 85.73 38.9633C86.31 38.9633 86.7 39.079 86.7 39.2392C86.7 39.4261 86.48 39.4439 85.88 39.3015V39.3015Z" fill="#C5C5C5"/>
<path d="M20.5 39.0167C20.5 38.8832 20.71 38.7853 21.01 38.7853C21.13 38.7853 21.2 38.8476 21.2 38.9633C21.2 39.1057 21.13 39.1413 20.85 39.1413C20.62 39.1413 20.5 39.0968 20.5 39.0167Z" fill="#C5C5C5"/>
<path d="M30.7 38.9633C30.7 38.7764 30.8 38.7497 31.18 38.8387C31.54 38.9277 31.45 39.1413 31.05 39.1413C30.77 39.1413 30.7 39.1057 30.7 38.9633Z" fill="#C5C5C5"/>
<path d="M68.1 38.9633C68.1 38.8209 68.17 38.7853 68.45 38.7853C68.85 38.7853 68.94 38.9989 68.58 39.0879C68.2 39.1769 68.1 39.1502 68.1 38.9633Z" fill="#C5C5C5"/>
<path d="M29.6 38.7853C29.6 38.6073 29.82 38.5539 30.14 38.6607C30.44 38.7675 30.32 38.9633 29.95 38.9633C29.67 38.9633 29.6 38.9277 29.6 38.7853Z" fill="#C5C5C5"/>
<path d="M34.13 38.8565C33.68 38.723 33.7 38.5183 34.15 38.5183C34.46 38.5183 34.5 38.545 34.5 38.7408C34.5 38.8654 34.49 38.9633 34.48 38.9544C34.46 38.9455 34.3 38.901 34.13 38.8565Z" fill="#C5C5C5"/>
<path d="M83.08 38.901C82.75 38.8298 82.88 38.6073 83.25 38.6073C83.53 38.6073 83.6 38.6429 83.6 38.7853C83.6 38.9633 83.46 38.99 83.08 38.901Z" fill="#C5C5C5"/>
<path d="M16.9 38.6963C16.9 38.5539 16.97 38.5183 17.25 38.5183C17.65 38.5183 17.74 38.7319 17.38 38.8209C17 38.9099 16.9 38.8832 16.9 38.6963Z" fill="#C5C5C5"/>
<path d="M22.4 38.7497C22.4 38.6162 22.61 38.5183 22.91 38.5183C23.03 38.5183 23.1 38.5806 23.1 38.6963C23.1 38.8387 23.03 38.8743 22.75 38.8743C22.52 38.8743 22.4 38.8298 22.4 38.7497Z" fill="#C5C5C5"/>
<path d="M70.2 38.6963C70.2 38.5539 70.27 38.5183 70.55 38.5183C70.95 38.5183 71.04 38.7319 70.68 38.8209C70.3 38.9099 70.2 38.8832 70.2 38.6963Z" fill="#C5C5C5"/>
<path d="M82.18 38.812C81.85 38.7408 81.98 38.5183 82.35 38.5183C82.63 38.5183 82.7 38.5539 82.7 38.6963C82.7 38.8743 82.56 38.901 82.18 38.812Z" fill="#C5C5C5"/>
<path d="M23.52 38.634C23.54 38.545 23.67 38.4738 23.88 38.456C24.15 38.4205 24.2 38.4472 24.2 38.5984C24.2 38.7497 24.14 38.7853 23.84 38.7853C23.56 38.7853 23.49 38.7497 23.52 38.634Z" fill="#C5C5C5"/>
<path d="M27.9 38.6073C27.9 38.4205 28 38.3938 28.38 38.4828C28.74 38.5717 28.65 38.7853 28.25 38.7853C27.97 38.7853 27.9 38.7497 27.9 38.6073Z" fill="#C5C5C5"/>
<path d="M25.7 38.5717C25.7 38.4294 25.95 38.3582 26.23 38.4116C26.55 38.4827 26.42 38.6963 26.05 38.6963C25.81 38.6963 25.7 38.6518 25.7 38.5717V38.5717Z" fill="#C5C5C5"/>
<path d="M72.1 38.5184C72.1 38.376 72.17 38.3404 72.45 38.3404C72.85 38.3404 72.94 38.554 72.58 38.6429C72.2 38.7319 72.1 38.7052 72.1 38.5184Z" fill="#C5C5C5"/>
<path d="M80 38.5006C80 38.376 80.08 38.3404 80.35 38.3404C80.63 38.3404 80.7 38.376 80.7 38.5184C80.7 38.6696 80.64 38.6963 80.35 38.6696C80.09 38.6607 80 38.6073 80 38.5006V38.5006Z" fill="#C5C5C5"/>
<path d="M32.98 38.545C32.65 38.4738 32.78 38.2514 33.15 38.2514C33.43 38.2514 33.5 38.287 33.5 38.4294C33.5 38.6073 33.36 38.634 32.98 38.545Z" fill="#C5C5C5"/>
<path d="M73.8 38.4294C73.8 38.287 73.87 38.2514 74.15 38.2514C74.55 38.2514 74.64 38.465 74.28 38.5539C73.9 38.6429 73.8 38.6162 73.8 38.4294Z" fill="#C5C5C5"/>
<path d="M78.18 38.545C77.85 38.4738 77.98 38.2514 78.35 38.2514C78.63 38.2514 78.7 38.287 78.7 38.4294C78.7 38.6073 78.56 38.634 78.18 38.545Z" fill="#C5C5C5"/>
<path d="M19.8 38.0734C19.8 37.931 19.87 37.8954 20.15 37.8954C20.55 37.8954 20.64 38.109 20.28 38.198C19.9 38.287 19.8 38.2603 19.8 38.0734Z" fill="#C5C5C5"/>
<path d="M20.9 37.8954C20.9 37.753 20.97 37.7174 21.25 37.7174C21.65 37.7174 21.74 37.931 21.38 38.02C21 38.109 20.9 38.0823 20.9 37.8954Z" fill="#C5C5C5"/>
<path d="M22.3 37.7174C22.3 37.575 22.37 37.5394 22.65 37.5394C23.05 37.5394 23.14 37.753 22.78 37.842C22.4 37.931 22.3 37.9043 22.3 37.7174Z" fill="#C5C5C5"/>
<path d="M23.3 37.6284C23.3 37.4861 23.37 37.4505 23.65 37.4505C24.05 37.4505 24.14 37.664 23.78 37.753C23.4 37.842 23.3 37.8153 23.3 37.6284Z" fill="#C5C5C5"/>
<path d="M28.05 37.7263C27.89 37.5839 28.04 37.4505 28.35 37.4505C28.63 37.4505 28.7 37.4861 28.7 37.6284C28.7 37.7708 28.64 37.8064 28.4 37.7886C28.23 37.7797 28.07 37.753 28.05 37.7263V37.7263Z" fill="#C5C5C5"/>
<path d="M24.9 37.5394C24.9 37.3793 24.97 37.3615 25.7 37.3615C26.43 37.3615 26.5 37.3793 26.5 37.5394C26.5 37.6996 26.43 37.7174 25.7 37.7174C24.97 37.7174 24.9 37.6996 24.9 37.5394Z" fill="#C5C5C5"/>
<path d="M93 36.694C93 36.3114 93.1 36.3025 93.33 36.6406C93.55 36.9788 93.55 37.0055 93.25 37.0055C93.03 37.0055 93 36.9699 93 36.694Z" fill="#C5C5C5"/>
<path d="M91.6 34.4693C91.6 34.0866 91.7 34.0777 91.93 34.4159C92.15 34.754 92.15 34.7807 91.85 34.7807C91.63 34.7807 91.6 34.7451 91.6 34.4693Z" fill="#C5C5C5"/>
<path d="M10.4 34.1133C10.4 33.9887 10.72 33.5349 10.8 33.5349C10.86 33.5349 10.9 33.6773 10.9 33.8463C10.9 34.1222 10.87 34.1578 10.65 34.1578C10.51 34.1578 10.4 34.14 10.4 34.1133Z" fill="#C5C5C5"/>
<path d="M89.9 32.111C89.9 31.9063 89.86 31.844 89.7 31.844C89.54 31.844 89.5 31.7817 89.5 31.5237C89.5 31.2478 89.52 31.2122 89.65 31.3101C89.82 31.4347 90.4 32.2 90.4 32.3068C90.4 32.3424 90.29 32.378 90.15 32.378C89.94 32.378 89.9 32.3335 89.9 32.111Z" fill="#C5C5C5"/>
<path d="M11.95 30.2244C11.84 29.815 11.5 28.2577 11.5 28.1865C11.5 28.142 11.58 28.1064 11.68 28.1064C11.83 28.1064 11.89 28.231 12.01 28.7917C12.12 29.3167 12.19 29.4947 12.33 29.5125C12.45 29.5303 12.5 29.4858 12.5 29.3612C12.5 29.2544 12.56 29.1743 12.65 29.1743C12.73 29.1743 12.8 29.0942 12.8 28.9963C12.8 28.8539 12.87 28.8183 13.11 28.8183C13.42 28.8183 13.42 28.8183 12.95 29.379C12.7 29.6816 12.41 30.0375 12.32 30.171C12.11 30.4736 12.02 30.4825 11.95 30.2244Z" fill="#C5C5C5"/>
<path d="M89.1 29.3612C88.89 29.0853 88.89 29.0853 89.2 29.0853C89.48 29.0853 89.5 29.1031 89.44 29.3345C89.35 29.6638 89.35 29.6638 89.1 29.3612V29.3612Z" fill="#C5C5C5"/>
<path d="M14.1 29.2188C14.1 29.1743 14.34 28.9073 14.82 28.4268C15.09 28.1509 15.09 28.1509 15.1 28.4891C15.1 28.7561 15.06 28.8184 14.9 28.8184C14.75 28.8184 14.7 28.8806 14.7 29.0408C14.7 29.2277 14.65 29.2633 14.4 29.2633C14.24 29.2633 14.1 29.2455 14.1 29.2188V29.2188Z" fill="#C5C5C5"/>
<path d="M88.48 28.6404C88.2 28.3289 88.2 28.3289 88.46 28.3022C88.79 28.2666 88.82 28.2933 88.78 28.6493C88.75 28.9518 88.75 28.9518 88.48 28.6404Z" fill="#C5C5C5"/>
<path d="M14 27.8039C14 27.5102 14.02 27.4835 14.31 27.4835C14.61 27.4835 14.61 27.4835 14.4 27.7505C14.09 28.142 14 28.1509 14 27.8039Z" fill="#C5C5C5"/>
<path d="M15.3 27.875C15.3 27.8484 15.43 27.706 15.6 27.5458C15.9 27.261 15.9 27.261 15.9 27.5992C15.9 27.9106 15.88 27.9284 15.6 27.9284C15.44 27.9284 15.3 27.9106 15.3 27.875Z" fill="#C5C5C5"/>
<path d="M87.07 27.1275C86.73 26.7894 86.73 26.7716 87.1 26.7716C87.38 26.7716 87.4 26.7983 87.4 27.083C87.4 27.2521 87.38 27.3945 87.37 27.3945C87.35 27.3945 87.21 27.2788 87.07 27.1275Z" fill="#C5C5C5"/>
<path d="M16.2 26.9495C16.51 26.558 16.6 26.5491 16.6 26.8962C16.6 27.1898 16.58 27.2165 16.29 27.2165C15.99 27.2165 15.99 27.2165 16.2 26.9495Z" fill="#C5C5C5"/>
<path d="M85 26.4512C85 26.1041 85.09 26.113 85.4 26.5046C85.61 26.7716 85.61 26.7716 85.31 26.7716C85.02 26.7716 85 26.7449 85 26.4512Z" fill="#C5C5C5"/>
<path d="M89.9 25.6592C89.9 25.41 89.94 25.3477 90.1 25.3477C90.3 25.3477 90.36 25.5435 90.24 25.8283C90.12 26.0952 89.9 25.9884 89.9 25.6592Z" fill="#C5C5C5"/>
<path d="M16.3 25.4901C16.3 25.1964 16.32 25.1697 16.61 25.1697C16.91 25.1697 16.91 25.1697 16.7 25.4367C16.39 25.8283 16.3 25.8372 16.3 25.4901Z" fill="#C5C5C5"/>
<path d="M83.9 25.5168C83.9 25.2498 83.9 25.2498 84.2 25.4367C84.64 25.7126 84.65 25.7927 84.26 25.7927C83.93 25.7927 83.9 25.7749 83.9 25.5168Z" fill="#C5C5C5"/>
<path d="M10.86 25.2943C10.74 25.0095 10.8 24.8138 11 24.8138C11.16 24.8138 11.2 24.8761 11.2 25.1252C11.2 25.4545 10.98 25.5613 10.86 25.2943Z" fill="#C5C5C5"/>
<path d="M18.35 25.0095C18.74 24.6892 18.75 24.6892 18.78 24.885C18.84 25.2409 18.73 25.3477 18.33 25.3477C17.95 25.3477 17.95 25.3477 18.35 25.0095V25.0095Z" fill="#C5C5C5"/>
<path d="M10.66 24.3154C10.54 24.0306 10.6 23.8349 10.8 23.8349C10.96 23.8349 11 23.8972 11 24.1463C11 24.4756 10.78 24.5824 10.66 24.3154Z" fill="#C5C5C5"/>
<path d="M17.9 24.1107C17.9 23.8527 17.93 23.8349 18.26 23.8349C18.65 23.8349 18.64 23.915 18.2 24.1908C17.9 24.3777 17.9 24.3777 17.9 24.1107Z" fill="#C5C5C5"/>
<path d="M19.9 23.826C20.09 23.6747 20.37 23.4789 20.53 23.381C20.8 23.203 20.8 23.203 20.8 23.47C20.8 23.7014 20.76 23.7459 20.55 23.7459C20.37 23.7459 20.3 23.7904 20.3 23.9239C20.3 24.0751 20.23 24.1018 19.93 24.1018C19.55 24.0929 19.55 24.0929 19.9 23.826Z" fill="#C5C5C5"/>
<path d="M82.1 22.856C81.75 22.5979 81.75 22.5979 82.13 22.589C82.48 22.589 82.5 22.6068 82.5 22.856C82.5 23.0072 82.49 23.1229 82.47 23.1229C82.46 23.1229 82.29 23.0072 82.1 22.856Z" fill="#C5C5C5"/>
<path d="M20.2 22.411C20.2 22.2063 20.24 22.144 20.4 22.144C20.51 22.144 20.6 22.0817 20.6 22.0105C20.6 21.9127 20.71 21.8771 20.96 21.8771C21.28 21.8771 21.31 21.8949 21.19 22.0194C21.12 22.0995 20.87 22.2775 20.63 22.4199C20.2 22.6869 20.2 22.6869 20.2 22.411Z" fill="#C5C5C5"/>
<path d="M81.18 22.233C80.85 21.975 80.85 21.975 81.23 21.9661C81.58 21.9661 81.6 21.9839 81.6 22.233C81.6 22.3843 81.58 22.5 81.55 22.5C81.52 22.5 81.36 22.3843 81.18 22.233Z" fill="#C5C5C5"/>
<path d="M22.76 21.9572C22.93 21.7881 23.41 21.5211 23.55 21.5211C23.58 21.5211 23.6 21.619 23.6 21.7436C23.6 21.886 23.54 21.9661 23.45 21.9661C23.37 21.9661 23.3 22.0106 23.3 22.055C23.3 22.1084 23.14 22.144 22.93 22.144C22.57 22.144 22.57 22.144 22.76 21.9572Z" fill="#C5C5C5"/>
<path d="M90.7 21.9038C90.7 21.8148 90.75 21.4321 90.82 21.0583C90.91 20.4799 90.97 20.3642 91.12 20.3642C91.34 20.3642 91.34 20.3909 91.15 21.2986C91.07 21.6902 91.01 22.0194 91 22.0372C91 22.0461 90.93 22.055 90.85 22.055C90.77 22.055 90.7 21.9839 90.7 21.9038Z" fill="#C5C5C5"/>
<path d="M10.16 21.5923C10.06 21.2541 10.09 21.1651 10.3 21.1651C10.46 21.1651 10.5 21.2274 10.5 21.4766C10.5 21.8326 10.26 21.9127 10.16 21.5923Z" fill="#C5C5C5"/>
<path d="M21.6 21.5211C21.6 21.3431 21.65 21.2541 21.75 21.2541C21.83 21.2541 21.9 21.2185 21.9 21.1651C21.9 21.1206 21.97 21.0761 22.05 21.0761C22.13 21.0761 22.2 21.0405 22.2 20.9872C22.2 20.9427 22.36 20.8982 22.55 20.8982C22.74 20.8982 22.9 20.9249 22.9 20.9694C22.9 21.005 22.6 21.2007 22.25 21.4143C21.6 21.7881 21.6 21.7881 21.6 21.5211Z" fill="#C5C5C5"/>
<path d="M78 21.4766C78 21.2185 78.02 21.2096 78.4 21.3876C78.8 21.5745 78.78 21.6991 78.35 21.6991C78.04 21.6991 78 21.6724 78 21.4766Z" fill="#C5C5C5"/>
<path d="M78.98 20.9338C78.6 20.7558 78.63 20.6312 79.05 20.6312C79.36 20.6312 79.4 20.6579 79.4 20.8537C79.4 21.1117 79.35 21.1206 78.98 20.9338Z" fill="#C5C5C5"/>
<path d="M9.96 20.4354C9.86 20.0972 9.89 20.0083 10.1 20.0083C10.26 20.0083 10.3 20.0705 10.3 20.3197C10.3 20.6757 10.06 20.7558 9.96 20.4354Z" fill="#C5C5C5"/>
<path d="M78.18 20.471C77.81 20.2752 77.83 20.1862 78.25 20.1862C78.56 20.1862 78.6 20.2129 78.6 20.4087C78.6 20.6668 78.54 20.6757 78.18 20.471Z" fill="#C5C5C5"/>
<path d="M25.6 20.471C25.6 20.3998 26.12 20.0972 26.24 20.0972C26.27 20.0972 26.3 20.1951 26.3 20.3197C26.3 20.5155 26.26 20.5422 25.95 20.5422C25.76 20.5422 25.6 20.5066 25.6 20.471Z" fill="#C5C5C5"/>
<path d="M23.8 20.2307C23.8 19.9727 23.92 19.946 24.11 20.1506C24.21 20.2663 24.21 20.3019 24.09 20.3731C23.86 20.4977 23.8 20.471 23.8 20.2307V20.2307Z" fill="#C5C5C5"/>
<path d="M75.4 20.1417C75.4 19.8748 75.43 19.8748 75.81 20.0706C76.19 20.2752 76.18 20.3642 75.75 20.3642C75.44 20.3642 75.4 20.3375 75.4 20.1417Z" fill="#C5C5C5"/>
<path d="M24.75 19.7413C24.57 19.5633 24.58 19.5633 24.88 19.5633C25.1 19.5633 25.2 19.5188 25.2 19.4298C25.2 19.3408 25.31 19.2963 25.55 19.2963C25.74 19.2963 25.9 19.323 25.9 19.3675C25.9 19.4209 25.06 19.9193 24.96 19.9193C24.94 19.9193 24.85 19.8392 24.75 19.7413Z" fill="#C5C5C5"/>
<path d="M73 19.0739C73 18.8603 73.01 18.8514 73.32 18.9671C73.78 19.1361 73.8 19.2963 73.36 19.2963C73.04 19.2963 73 19.2696 73 19.0739Z" fill="#C5C5C5"/>
<path d="M28.62 19.1006C28.65 19.0383 28.81 18.9404 28.98 18.8781C29.29 18.7624 29.3 18.7713 29.3 18.9849C29.3 19.1806 29.26 19.2073 28.94 19.2073C28.71 19.2073 28.6 19.1717 28.62 19.1006Z" fill="#C5C5C5"/>
<path d="M26.7 18.8069C26.7 18.6111 26.74 18.5844 27.05 18.5844C27.48 18.5844 27.5 18.709 27.1 18.8959C26.72 19.0739 26.7 19.065 26.7 18.8069Z" fill="#C5C5C5"/>
<path d="M29.5 18.7624C29.5 18.6645 29.77 18.531 30.31 18.3619C30.7 18.2373 30.7 18.2373 30.7 18.4509C30.7 18.6289 30.65 18.6734 30.45 18.6734C30.31 18.6734 30.2 18.7179 30.2 18.7624C30.2 18.8158 30.04 18.8514 29.85 18.8514C29.66 18.8514 29.5 18.8158 29.5 18.7624Z" fill="#C5C5C5"/>
<path d="M9.66 18.5666C9.56 18.2284 9.59 18.1395 9.8 18.1395C9.96 18.1395 10 18.2017 10 18.4509C10 18.8069 9.76 18.887 9.66 18.5666Z" fill="#C5C5C5"/>
<path d="M91.3 18.3619C91.3 18.1128 91.34 18.0505 91.5 18.0505C91.71 18.0505 91.74 18.1394 91.64 18.4776C91.54 18.798 91.3 18.7179 91.3 18.3619Z" fill="#C5C5C5"/>
<path d="M21.4 18.1305C21.4 17.8636 21.4 17.8636 21.7 18.0505C22.14 18.3263 22.15 18.4064 21.76 18.4064C21.43 18.4064 21.4 18.3886 21.4 18.1305Z" fill="#C5C5C5"/>
<path d="M31 18.2284C31 18.1572 31.51 17.8725 31.65 17.8725C31.68 17.8725 31.7 17.9704 31.7 18.095C31.7 18.2907 31.66 18.3174 31.35 18.3174C31.16 18.3174 31 18.2818 31 18.2284Z" fill="#C5C5C5"/>
<path d="M70.1 18.006C70.1 17.7479 70.12 17.739 70.5 17.917C70.9 18.1039 70.88 18.2284 70.45 18.2284C70.14 18.2284 70.1 18.2017 70.1 18.006Z" fill="#C5C5C5"/>
<path d="M69.3 17.739C69.3 17.5254 69.31 17.5165 69.62 17.6322C70.08 17.8013 70.1 17.9615 69.66 17.9615C69.34 17.9615 69.3 17.9348 69.3 17.739Z" fill="#C5C5C5"/>
<path d="M72.13 17.7657C71.68 17.6322 71.7 17.4275 72.15 17.4275C72.46 17.4275 72.5 17.4542 72.5 17.65C72.5 17.7746 72.49 17.8725 72.48 17.8636C72.46 17.8547 72.3 17.8102 72.13 17.7657V17.7657Z" fill="#C5C5C5"/>
<path d="M71.13 17.383C70.7 17.2228 70.71 17.0716 71.15 17.0716C71.46 17.0716 71.5 17.0983 71.5 17.294C71.5 17.4186 71.49 17.5165 71.48 17.5165C71.46 17.5076 71.3 17.4542 71.13 17.383Z" fill="#C5C5C5"/>
<path d="M91.5 17.0271C91.5 16.7779 91.54 16.7156 91.7 16.7156C91.91 16.7156 91.94 16.8046 91.84 17.1428C91.74 17.4631 91.5 17.383 91.5 17.0271Z" fill="#C5C5C5"/>
<path d="M31.6 16.9381C31.6 16.7423 31.64 16.7156 31.96 16.7156C32.4 16.7156 32.38 16.8758 31.92 17.0449C31.61 17.1606 31.6 17.1517 31.6 16.9381Z" fill="#C5C5C5"/>
<path d="M21.4 16.8046C21.05 16.5465 21.05 16.5465 21.43 16.5376C21.78 16.5376 21.8 16.5554 21.8 16.8046C21.8 16.9559 21.79 17.0716 21.77 17.0716C21.76 17.0716 21.59 16.9559 21.4 16.8046Z" fill="#C5C5C5"/>
<path d="M19.7 16.7067C19.7 16.4397 19.7 16.4397 20 16.6266C20.44 16.9025 20.45 16.9826 20.06 16.9826C19.73 16.9826 19.7 16.9648 19.7 16.7067Z" fill="#C5C5C5"/>
<path d="M65.9 16.769C65.9 16.5643 65.92 16.5554 66.25 16.6533C66.44 16.7067 66.6 16.7957 66.6 16.8669C66.6 16.9381 66.47 16.9826 66.25 16.9826C65.95 16.9826 65.9 16.9559 65.9 16.769Z" fill="#C5C5C5"/>
<path d="M69.53 16.8491C69.1 16.6889 69.11 16.5376 69.55 16.5376C69.86 16.5376 69.9 16.5643 69.9 16.7601C69.9 16.8847 69.89 16.9826 69.88 16.9826C69.86 16.9737 69.7 16.9203 69.53 16.8491Z" fill="#C5C5C5"/>
<path d="M36.2 16.6889C36.2 16.6177 36.36 16.5287 36.55 16.4753C36.88 16.3774 36.9 16.3863 36.9 16.591C36.9 16.7779 36.85 16.8046 36.55 16.8046C36.33 16.8046 36.2 16.7601 36.2 16.6889Z" fill="#C5C5C5"/>
<path d="M80.2 16.4308C80.65 16.0749 80.65 16.0749 80.68 16.3062C80.73 16.6444 80.54 16.8046 80.11 16.8046C79.75 16.7957 79.75 16.7957 80.2 16.4308V16.4308Z" fill="#C5C5C5"/>
<path d="M64.23 16.5554C63.74 16.4486 63.6 16.3774 63.6 16.2528C63.6 16.0482 63.63 16.0482 64.65 16.2795C65.2 16.4041 65.5 16.5109 65.5 16.591C65.5 16.7512 65.04 16.7423 64.23 16.5554V16.5554Z" fill="#C5C5C5"/>
<path d="M78.6 16.4575C78.6 16.1995 78.63 16.1817 78.96 16.1817C79.35 16.1817 79.34 16.2617 78.9 16.5376C78.6 16.7245 78.6 16.7245 78.6 16.4575Z" fill="#C5C5C5"/>
<path d="M68.18 16.4753C67.85 16.4041 67.98 16.1817 68.35 16.1817C68.63 16.1817 68.7 16.2172 68.7 16.3596C68.7 16.5376 68.56 16.5643 68.18 16.4753Z" fill="#C5C5C5"/>
<path d="M34 16.1817C34 16.0393 34.07 16.0037 34.35 16.0037C34.75 16.0037 34.84 16.2172 34.48 16.3062C34.1 16.3952 34 16.3685 34 16.1817Z" fill="#C5C5C5"/>
<path d="M38.2 16.235C38.2 16.1016 38.41 16.0037 38.71 16.0037C38.83 16.0037 38.9 16.066 38.9 16.1817C38.9 16.324 38.83 16.3596 38.55 16.3596C38.32 16.3596 38.2 16.3151 38.2 16.235Z" fill="#C5C5C5"/>
<path d="M62.2 16.0037C62.2 15.8257 62.42 15.7723 62.74 15.8791C63.04 15.9859 62.92 16.1817 62.55 16.1817C62.27 16.1817 62.2 16.1461 62.2 16.0037Z" fill="#C5C5C5"/>
<path d="M18.5 15.7278C18.5 15.4608 18.5 15.4608 18.8 15.6477C19.24 15.9236 19.25 16.0037 18.86 16.0037C18.53 16.0037 18.5 15.9859 18.5 15.7278Z" fill="#C5C5C5"/>
<path d="M33.8 15.3807C33.8 15.1316 33.77 15.1138 33.45 15.1138C33.13 15.1138 33.1 15.096 33.1 14.8468C33.1 14.7044 33.12 14.5798 33.15 14.5798C33.18 14.5798 33.38 14.7133 33.58 14.8824C33.78 15.0426 34.09 15.2828 34.25 15.4074C34.55 15.6388 34.55 15.6388 34.18 15.6477C33.82 15.6477 33.8 15.6299 33.8 15.3807V15.3807Z" fill="#C5C5C5"/>
<path d="M9.29 15.4519C9.29 15.4341 9.26 15.2917 9.24 15.1405C9.2 14.8913 9.22 14.8468 9.39 14.8468C9.56 14.8468 9.6 14.9002 9.6 15.1583C9.6 15.3718 9.55 15.4697 9.45 15.4697C9.37 15.4697 9.3 15.4608 9.29 15.4519Z" fill="#C5C5C5"/>
<path d="M46.1 15.1672C46.1 15.0515 46.38 14.9358 46.68 14.9358C46.74 14.9358 46.8 15.0159 46.8 15.1138C46.8 15.2561 46.73 15.2917 46.45 15.2917C46.22 15.2917 46.1 15.2472 46.1 15.1672Z" fill="#C5C5C5"/>
<path d="M55.3 15.1049C55.3 14.9536 55.35 14.9269 55.62 14.9625C55.83 14.9803 55.96 15.0515 55.98 15.1405C56.01 15.2561 55.94 15.2917 55.66 15.2917C55.36 15.2917 55.3 15.2561 55.3 15.1049V15.1049Z" fill="#C5C5C5"/>
<path d="M47.8 15.0782C47.8 14.9625 48.08 14.8468 48.38 14.8468C48.44 14.8468 48.5 14.9269 48.5 15.0248C48.5 15.1672 48.43 15.2028 48.15 15.2028C47.92 15.2028 47.8 15.1583 47.8 15.0782Z" fill="#C5C5C5"/>
<path d="M53.5 15.0248C53.5 14.8646 53.56 14.8468 53.9 14.8646C54.2 14.8824 54.3 14.9269 54.3 15.0515C54.3 15.1672 54.21 15.2028 53.9 15.2028C53.57 15.2028 53.5 15.1761 53.5 15.0248Z" fill="#C5C5C5"/>
<path d="M80.4 14.9447C80.4 14.6866 80.43 14.6688 80.76 14.6688C81.15 14.6688 81.14 14.7489 80.7 15.0248C80.4 15.2117 80.4 15.2117 80.4 14.9447Z" fill="#C5C5C5"/>
<path d="M18.8 14.7044C18.45 14.4018 18.45 14.4018 18.83 14.4018C19.19 14.4018 19.2 14.4107 19.2 14.7133C19.2 14.8824 19.19 15.0248 19.18 15.0159C19.16 15.007 18.99 14.8735 18.8 14.7044Z" fill="#C5C5C5"/>
<path d="M91.8 14.7222C91.8 14.4552 91.84 14.4018 92.01 14.4018C92.18 14.4018 92.21 14.4463 92.17 14.6866C92.15 14.8735 92.07 14.9892 91.97 15.007C91.84 15.0337 91.8 14.9714 91.8 14.7222V14.7222Z" fill="#C5C5C5"/>
<path d="M68.25 14.5798C68.28 14.5353 68.44 14.4107 68.6 14.3128C68.9 14.126 68.9 14.126 68.9 14.3929C68.9 14.651 68.87 14.6688 68.54 14.6688C68.34 14.6688 68.21 14.6332 68.25 14.5798Z" fill="#C5C5C5"/>
<path d="M82.75 14.3128C82.78 14.2683 82.94 14.1438 83.1 14.0459C83.4 13.859 83.4 13.859 83.4 14.126C83.4 14.384 83.37 14.4018 83.04 14.4018C82.84 14.4018 82.71 14.3662 82.75 14.3128Z" fill="#C5C5C5"/>
<path d="M31.6 13.681C31.6 13.414 31.6 13.414 31.9 13.6009C32.34 13.8768 32.35 13.9569 31.96 13.9569C31.63 13.9569 31.6 13.9391 31.6 13.681Z" fill="#C5C5C5"/>
<path d="M91.9 13.6454C91.9 13.3962 91.94 13.3339 92.1 13.3339C92.31 13.3339 92.34 13.4229 92.24 13.7611C92.14 14.0815 91.9 14.0014 91.9 13.6454Z" fill="#C5C5C5"/>
<path d="M9.15 13.4318C9.12 13.2894 9.1 12.9424 9.12 12.6754C9.14 12.2661 9.18 12.1771 9.32 12.1771C9.48 12.1771 9.5 12.275 9.5 12.9335C9.5 13.5297 9.47 13.6899 9.36 13.6899C9.28 13.6899 9.19 13.5742 9.15 13.4318Z" fill="#C5C5C5"/>
<path d="M69.87 13.3339C70.05 13.1827 70.21 13.067 70.24 13.067C70.28 13.067 70.3 13.1916 70.3 13.3339C70.3 13.5831 70.28 13.6009 69.93 13.6009C69.55 13.6009 69.55 13.6009 69.87 13.3339Z" fill="#C5C5C5"/>
<path d="M15.1 13.1471C15.1 12.8801 15.1 12.8801 15.4 13.067C15.84 13.3428 15.85 13.4229 15.46 13.4229C15.13 13.4229 15.1 13.4051 15.1 13.1471Z" fill="#C5C5C5"/>
<path d="M82.6 13.156C82.6 12.9068 82.62 12.889 82.98 12.889C83.35 12.889 83.35 12.889 83.03 13.156C82.85 13.3072 82.69 13.4229 82.66 13.4229C82.62 13.4229 82.6 13.3072 82.6 13.156Z" fill="#C5C5C5"/>
<path d="M16.7 13.067C16.35 12.8089 16.35 12.8089 16.73 12.8C17.08 12.8 17.1 12.8178 17.1 13.067C17.1 13.2183 17.09 13.3339 17.07 13.3339C17.06 13.3339 16.89 13.2183 16.7 13.067Z" fill="#C5C5C5"/>
<path d="M84.95 12.622C84.98 12.5775 85.14 12.4529 85.3 12.355C85.6 12.1682 85.6 12.1682 85.6 12.4351C85.6 12.6932 85.57 12.711 85.24 12.711C85.04 12.711 84.91 12.6754 84.95 12.622Z" fill="#C5C5C5"/>
<path d="M71.55 12.0881C71.58 12.0436 71.74 11.919 71.9 11.8211C72.2 11.6342 72.2 11.6342 72.2 11.9012C72.2 12.1593 72.17 12.1771 71.84 12.1771C71.64 12.1771 71.51 12.1415 71.55 12.0881Z" fill="#C5C5C5"/>
<path d="M12.8 11.7321C12.8 11.5897 12.73 11.5541 12.5 11.5541C12.27 11.5541 12.2 11.5185 12.2 11.3761C12.2 11.2338 12.13 11.1982 11.85 11.1982C11.54 11.1982 11.5 11.1715 11.5 10.9757C11.5 10.8511 11.53 10.7532 11.56 10.7532C11.73 10.7532 13.5 11.741 13.5 11.8389C13.5 11.8745 13.34 11.9101 13.15 11.9101C12.87 11.9101 12.8 11.8745 12.8 11.7321Z" fill="#C5C5C5"/>
<path d="M85.2 11.2071C85.2 10.949 85.23 10.9312 85.56 10.9312C85.95 10.9312 85.94 11.0113 85.5 11.2872C85.2 11.474 85.2 11.474 85.2 11.2071Z" fill="#C5C5C5"/>
<path d="M86.8 11.3228C86.8 11.2605 87.05 11.0647 87.33 10.9223C87.48 10.8511 87.5 10.8778 87.5 11.1092C87.5 11.3583 87.47 11.3761 87.15 11.3761C86.96 11.3761 86.8 11.3494 86.8 11.3228Z" fill="#C5C5C5"/>
<path d="M87.96 10.5663C88.13 10.3972 88.61 10.1303 88.75 10.1303C88.78 10.1303 88.8 10.2282 88.8 10.3528C88.8 10.4951 88.74 10.5752 88.65 10.5752C88.57 10.5752 88.5 10.6197 88.5 10.6642C88.5 10.7176 88.34 10.7532 88.13 10.7532C87.77 10.7532 87.77 10.7532 87.96 10.5663Z" fill="#C5C5C5"/>
<path d="M9.7 10.5307C9.7 10.3083 10.43 10.2905 10.48 10.5129C10.51 10.6375 10.44 10.6642 10.11 10.6642C9.81 10.6642 9.7 10.6286 9.7 10.5307Z" fill="#C5C5C5"/>
<path d="M8.7 10.157C8.7 9.70312 8.79 9.59633 9.16 9.59633C9.55 9.59633 9.6 9.69422 9.27 9.8544C9.14 9.9167 8.96 10.068 8.87 10.2015C8.71 10.4417 8.71 10.4417 8.7 10.157V10.157Z" fill="#C5C5C5"/>
<path d="M86.8 10.1303C86.8 9.8811 86.83 9.8633 87.17 9.8633C87.53 9.8633 87.53 9.8633 87.34 10.0502C87.24 10.1481 87.07 10.2727 86.98 10.3172C86.83 10.3883 86.8 10.3616 86.8 10.1303V10.1303Z" fill="#C5C5C5"/>
<path d="M11.98 10.1659C11.6 9.98789 11.63 9.8633 12.05 9.8633C12.36 9.8633 12.4 9.89 12.4 10.0858C12.4 10.3439 12.35 10.3527 11.98 10.1659Z" fill="#C5C5C5"/>
<path d="M88.9 10.0591C88.9 9.98789 89.42 9.68532 89.54 9.68532C89.57 9.68532 89.6 9.78321 89.6 9.9078C89.6 10.1036 89.56 10.1303 89.25 10.1303C89.06 10.1303 88.9 10.0947 88.9 10.0591Z" fill="#C5C5C5"/>
<path d="M10.85 9.76541C10.74 9.72981 10.44 9.69422 10.18 9.69422C9.76 9.68532 9.7 9.65862 9.7 9.49844C9.7 9.32046 9.73 9.31156 10.38 9.37385C10.75 9.40945 11.06 9.44504 11.08 9.46284C11.1 9.48064 11.1 9.56963 11.08 9.66752C11.06 9.80101 11 9.81881 10.85 9.76541V9.76541Z" fill="#C5C5C5"/>
<path d="M25.7 9.32046C25.7 9.05348 25.7 9.05348 26 9.24036C26.44 9.51624 26.45 9.59633 26.06 9.59633C25.73 9.59633 25.7 9.57853 25.7 9.32046Z" fill="#C5C5C5"/>
<path d="M90.4 9.41835C90.4 9.31156 90.73 9.15137 90.94 9.15137C91.03 9.15137 91.1 9.23147 91.1 9.32936C91.1 9.47174 91.03 9.50734 90.75 9.50734C90.56 9.50734 90.4 9.47174 90.4 9.41835Z" fill="#C5C5C5"/>
<path d="M75.95 8.8844C75.98 8.83991 76.14 8.71532 76.3 8.61743C76.6 8.43055 76.6 8.43055 76.6 8.69752C76.6 8.95559 76.57 8.97339 76.24 8.97339C76.04 8.97339 75.91 8.93779 75.95 8.8844Z" fill="#C5C5C5"/>
<path d="M92.43 8.75092C92.22 8.52844 92.22 8.52844 92.46 8.52844C92.65 8.52844 92.7 8.57293 92.7 8.75092C92.7 9.02679 92.7 9.02679 92.43 8.75092Z" fill="#C5C5C5"/>
<path d="M24.6 8.51954C24.6 8.25257 24.6 8.25257 24.9 8.43945C25.34 8.71532 25.35 8.79541 24.96 8.79541C24.63 8.79541 24.6 8.77761 24.6 8.51954Z" fill="#C5C5C5"/>
<path d="M89.7 8.57293C89.7 8.37715 89.74 8.35046 90.06 8.35046C90.5 8.35046 90.48 8.51064 90.02 8.67972C89.71 8.79541 89.7 8.78651 89.7 8.57293V8.57293Z" fill="#C5C5C5"/>
<path d="M90.8 8.24367C90.8 8.11018 90.88 8.08348 91.4 8.08348C91.92 8.08348 92 8.11018 92 8.24367C92 8.38605 91.92 8.41275 91.4 8.41275C90.88 8.41275 90.8 8.38605 90.8 8.24367Z" fill="#C5C5C5"/>
<path d="M77.35 7.9055C77.38 7.86101 77.54 7.73642 77.7 7.63853C78 7.45165 78 7.45165 78 7.71862C78 7.9767 77.97 7.99449 77.64 7.99449C77.44 7.99449 77.31 7.9589 77.35 7.9055Z" fill="#C5C5C5"/>
<path d="M22.8 7.41605C22.8 7.34486 22.71 7.28257 22.6 7.28257C22.44 7.28257 22.4 7.22027 22.4 7.0067C22.4 6.73972 22.4 6.73972 22.95 7.07789C23.25 7.26477 23.5 7.44275 23.5 7.48725C23.5 7.52284 23.34 7.54954 23.15 7.54954C22.91 7.54954 22.8 7.50504 22.8 7.41605Z" fill="#C5C5C5"/>
<path d="M8.73 7.14908C8.74 6.9177 8.8 6.83761 8.93 6.83761C9.06 6.83761 9.1 6.9088 9.1 7.14908C9.1 7.39825 9.06 7.46055 8.9 7.46055C8.73 7.46055 8.7 7.40715 8.73 7.14908Z" fill="#C5C5C5"/>
<path d="M78.2 7.30926C78.2 7.26477 78.36 7.14908 78.55 7.0334C78.9 6.83762 78.9 6.83761 78.9 7.10459C78.9 7.35376 78.87 7.37156 78.55 7.37156C78.36 7.37156 78.2 7.34486 78.2 7.30926Z" fill="#C5C5C5"/>
<path d="M92.3 6.88211C92.3 6.52615 92.54 6.44605 92.64 6.77532C92.74 7.10459 92.71 7.19358 92.5 7.19358C92.34 7.19358 92.3 7.13128 92.3 6.88211Z" fill="#C5C5C5"/>
<path d="M92.2 5.81422C92.2 5.45826 92.44 5.37816 92.54 5.70743C92.64 6.0367 92.61 6.12569 92.4 6.12569C92.24 6.12569 92.2 6.06339 92.2 5.81422Z" fill="#C5C5C5"/>
<path d="M18.5 4.42596C18.5 4.15899 18.5 4.15899 18.8 4.34587C19.24 4.62174 19.25 4.70183 18.86 4.70183C18.53 4.70183 18.5 4.68404 18.5 4.42596Z" fill="#C5C5C5"/>
<path d="M82.56 4.42596C82.66 4.32807 82.83 4.20349 82.92 4.15899C83.07 4.0878 83.1 4.1145 83.1 4.34587C83.1 4.59505 83.07 4.61284 82.73 4.61284C82.37 4.61284 82.37 4.61284 82.56 4.42596V4.42596Z" fill="#C5C5C5"/>
<path d="M9.1 4.17679C9.1 3.90982 9.21 3.72293 9.36 3.72293C9.45 3.72293 9.5 3.82972 9.5 4.0344C9.5 4.28358 9.46 4.34587 9.3 4.34587C9.17 4.34587 9.1 4.28358 9.1 4.17679Z" fill="#C5C5C5"/>
<path d="M9.4 2.99321C9.4 2.72624 9.53 2.47706 9.66 2.47706C9.75 2.47706 9.8 2.58385 9.8 2.78853C9.8 3.0377 9.76 3.1 9.6 3.1C9.49 3.1 9.4 3.0466 9.4 2.99321Z" fill="#C5C5C5"/>
<path d="M86.1 2.40587C86.1 2.33468 86.62 2.03211 86.74 2.03211C86.77 2.03211 86.8 2.13 86.8 2.25459C86.8 2.45037 86.76 2.47706 86.45 2.47706C86.26 2.47706 86.1 2.44147 86.1 2.40587Z" fill="#C5C5C5"/>
<path d="M14.3 2.21009C14.3 2.16559 14.21 2.1211 14.1 2.1211C13.95 2.1211 13.9 2.05881 13.9 1.86303C13.9 1.59605 13.9 1.59605 14.45 1.88082C14.75 2.03211 15 2.19229 15 2.22789C15 2.26349 14.84 2.29908 14.65 2.29908C14.46 2.29908 14.3 2.26348 14.3 2.21009Z" fill="#C5C5C5"/>
<path d="M87 1.96092C87 1.88972 87.52 1.58715 87.64 1.58715C87.67 1.58715 87.7 1.68504 87.7 1.80963C87.7 2.00541 87.66 2.03211 87.35 2.03211C87.16 2.03211 87 1.99651 87 1.96092Z" fill="#C5C5C5"/>
<path d="M88 1.49816C88 1.42697 88.51 1.1422 88.65 1.1422C88.68 1.1422 88.7 1.24009 88.7 1.36468C88.7 1.56046 88.66 1.58715 88.35 1.58715C88.16 1.58715 88 1.55156 88 1.49816Z" fill="#C5C5C5"/>
<path d="M91.1 1.27569C91.1 0.893027 91.24 0.875229 91.45 1.23119C91.65 1.56936 91.64 1.58716 91.35 1.58716C91.13 1.58716 91.1 1.55156 91.1 1.27569Z" fill="#C5C5C5"/>
<path d="M11.4 0.964218C11.4 0.777338 11.5 0.750641 11.88 0.839632C12.24 0.928623 12.15 1.1422 11.75 1.1422C11.47 1.1422 11.4 1.1066 11.4 0.964218Z" fill="#C5C5C5"/>
<path d="M89.4 1.01762C89.4 0.901928 89.68 0.78624 89.98 0.78624C90.04 0.78624 90.1 0.866331 90.1 0.964221C90.1 1.10661 90.03 1.1422 89.75 1.1422C89.52 1.1422 89.4 1.09771 89.4 1.01762Z" fill="#C5C5C5"/>
<path d="M10.25 0.875224C10.35 0.777334 10.51 0.697243 10.62 0.697243C10.73 0.697243 10.8 0.759536 10.8 0.875224C10.8 1.01761 10.73 1.05321 10.43 1.05321C10.08 1.05321 10.07 1.05321 10.25 0.875224Z" fill="#C5C5C5"/>
</svg>
