<svg width="101" height="84" viewBox="0 0 101 84" fill="none" xmlns="http://www.w3.org/2000/svg">
<path d="M49.38 83.6634C49.05 83.5922 49.18 83.3697 49.55 83.3697C49.83 83.3697 49.9 83.4053 49.9 83.5477C49.9 83.7257 49.76 83.7524 49.38 83.6634Z" fill="#5A5A5A"/>
<path d="M50.2 83.5477C50.2 83.4053 50.27 83.3697 50.55 83.3697C50.95 83.3697 51.04 83.5833 50.68 83.6723C50.3 83.7613 50.2 83.7346 50.2 83.5477Z" fill="#5A5A5A"/>
<path d="M47.88 83.5744C47.55 83.5032 47.68 83.2807 48.05 83.2807C48.33 83.2807 48.4 83.3163 48.4 83.4587C48.4 83.6367 48.26 83.6634 47.88 83.5744Z" fill="#5A5A5A"/>
<path d="M52.9 83.2807C52.9 83.1383 52.97 83.1027 53.25 83.1027C53.52 83.1027 53.6 83.1383 53.6 83.2629C53.6 83.3697 53.51 83.4231 53.25 83.432C52.96 83.4587 52.9 83.432 52.9 83.2807Z" fill="#5A5A5A"/>
<path d="M46.18 83.3074C45.85 83.2362 45.98 83.0138 46.35 83.0138C46.63 83.0138 46.7 83.0494 46.7 83.1917C46.7 83.3697 46.56 83.3964 46.18 83.3074Z" fill="#5A5A5A"/>
<path d="M44.13 82.7023C43.7 82.5421 43.71 82.3908 44.15 82.3908C44.46 82.3908 44.5 82.4175 44.5 82.6133C44.5 82.7379 44.49 82.8358 44.48 82.8358C44.46 82.8269 44.3 82.7735 44.13 82.7023Z" fill="#5A5A5A"/>
<path d="M48.8 82.3196C48.8 82.1772 48.93 82.1595 50.4 82.1595C51.89 82.1506 52 82.1594 52 82.3107C52 82.4709 51.89 82.4798 50.4 82.4798C48.93 82.4798 48.8 82.4709 48.8 82.3196Z" fill="#5A5A5A"/>
<path d="M46.88 81.8302C46.81 81.759 46.62 81.6789 46.47 81.6433C46.27 81.5988 46.2 81.5365 46.2 81.3674C46.2 81.2428 46.22 81.1449 46.24 81.1449C46.39 81.1449 47.7 81.7857 47.7 81.8569C47.7 81.9904 47.03 81.9637 46.88 81.8302Z" fill="#5A5A5A"/>
<path d="M49.5 81.2339C49.5 81.0648 49.57 81.0559 50.7 81.0559C51.8 81.0559 51.9 81.0737 51.9 81.2161C51.9 81.3674 51.79 81.3852 50.7 81.3941C49.57 81.403 49.5 81.3941 49.5 81.2339Z" fill="#5A5A5A"/>
<path d="M54.4 81.1894C54.4 81.1183 54.44 81.0649 54.48 81.0827C54.6 81.1094 56.1 80.255 56.1 80.1572C56.1 80.1127 56.16 80.0771 56.24 80.0771C56.32 80.0771 56.45 79.997 56.54 79.8902C56.62 79.7834 56.8 79.6499 56.94 79.5876C57.19 79.4719 57.2 79.4719 57.2 79.73C57.2 79.9614 57.17 79.9881 56.9 79.9881C56.65 79.9881 56.6 80.0237 56.6 80.2105C56.6 80.4063 56.56 80.433 56.25 80.433C55.94 80.433 55.9 80.4597 55.9 80.6555C55.9 80.7979 55.84 80.878 55.75 80.878C55.67 80.878 55.6 80.9225 55.6 80.967C55.6 81.0204 55.49 81.056 55.35 81.056C55.19 81.056 55.1 81.1094 55.1 81.1894C55.1 81.2784 54.99 81.3229 54.75 81.3229C54.51 81.3229 54.4 81.2784 54.4 81.1894Z" fill="#5A5A5A"/>
<path d="M47.2 80.6822C46.84 80.5309 46.52 80.4063 46.48 80.4152C46.43 80.4241 46.4 80.3707 46.4 80.2995C46.4 80.2105 46.5 80.166 46.69 80.166C47.08 80.166 47.3 80.2461 47.3 80.3974C47.3 80.4775 47.41 80.522 47.6 80.522C47.85 80.522 47.9 80.5576 47.9 80.7445C47.9 80.8691 47.89 80.967 47.88 80.967C47.86 80.967 47.56 80.8424 47.2 80.6822Z" fill="#5A5A5A"/>
<path d="M40.37 80.2372C40.17 80.0415 40 79.8368 40 79.8012C40 79.7656 39.92 79.6855 39.83 79.641C39.68 79.5698 39.72 79.552 40.03 79.5431C40.36 79.5431 40.4 79.5698 40.4 79.7656C40.4 79.9258 40.45 79.9881 40.6 79.9881C40.76 79.9881 40.8 80.0504 40.8 80.2995C40.8 80.4686 40.79 80.611 40.77 80.611C40.76 80.611 40.58 80.4419 40.37 80.2372Z" fill="#5A5A5A"/>
<path d="M44.3 80.2639C44.3 80.0237 44.32 80.0148 44.54 80.1038C44.67 80.1571 44.83 80.2817 44.89 80.3618C44.99 80.5042 44.96 80.522 44.65 80.522C44.33 80.522 44.3 80.4953 44.3 80.2639Z" fill="#5A5A5A"/>
<path d="M54.06 80.4597C54.03 80.4241 54 80.3084 54 80.1927C54 80.0326 54.05 79.9881 54.25 79.9881C54.41 79.9881 54.5 79.9347 54.5 79.8546C54.5 79.7834 54.57 79.7211 54.65 79.7211C54.73 79.7211 54.8 79.6855 54.8 79.6321C54.8 79.5876 54.97 79.5431 55.18 79.5431C55.55 79.552 55.55 79.552 55.29 79.7478C54.79 80.1216 54.65 80.2194 54.55 80.2372C54.5 80.2461 54.38 80.3084 54.28 80.3796C54.19 80.4508 54.09 80.4864 54.06 80.4597Z" fill="#5A5A5A"/>
<path d="M55.6 79.2672C55.6 79.0359 55.63 79.0092 55.95 79.0092C56.26 79.0092 56.29 79.027 56.19 79.1694C56.13 79.2495 55.97 79.374 55.84 79.4274C55.62 79.5164 55.6 79.5075 55.6 79.2672Z" fill="#5A5A5A"/>
<path d="M57.42 79.1694C57.49 79.0537 57.63 78.9113 57.73 78.849C57.82 78.7867 57.88 78.6888 57.85 78.6443C57.81 78.5998 57.83 78.5642 57.88 78.5642C57.92 78.5642 58.04 78.4218 58.13 78.2527C58.33 77.8701 58.5 77.8523 58.5 78.1994C58.5 78.5998 58.4 78.7422 58.14 78.7422C57.93 78.7422 57.9 78.7867 57.9 79.0537C57.9 79.3384 57.88 79.3651 57.6 79.3651C57.32 79.3651 57.31 79.3562 57.42 79.1694Z" fill="#5A5A5A"/>
<path d="M42.7 78.8757C42.7 78.5998 42.72 78.5731 42.88 78.6621C42.97 78.7155 43.11 78.8579 43.17 78.9736C43.27 79.1693 43.26 79.1872 42.99 79.1872C42.73 79.1872 42.7 79.1605 42.7 78.8757Z" fill="#5A5A5A"/>
<path d="M60.9 78.1638C60.9 77.8879 60.93 77.8523 61.15 77.8523C61.45 77.8523 61.45 77.879 61.23 78.2171C61 78.5553 60.9 78.5464 60.9 78.1638Z" fill="#5A5A5A"/>
<path d="M56.9 78.1282C56.9 77.7544 57 77.5853 57.21 77.5853C57.45 77.5853 57.45 77.79 57.23 78.1282C57.01 78.4574 56.9 78.4574 56.9 78.1282Z" fill="#5A5A5A"/>
<path d="M58.36 77.0336C58.26 76.6954 58.29 76.6064 58.5 76.6064C58.66 76.6064 58.7 76.6687 58.7 76.9179C58.7 77.2739 58.46 77.3539 58.36 77.0336Z" fill="#5A5A5A"/>
<path d="M61.6 76.8378C61.6 76.553 61.63 76.5174 61.85 76.5174C62.09 76.5174 62.1 76.5263 61.97 76.8022C61.78 77.2115 61.6 77.2294 61.6 76.8378Z" fill="#5A5A5A"/>
<path d="M42.2 76.4818C42.2 76.197 42.23 76.1615 42.45 76.1615C42.66 76.1615 42.68 76.1882 42.61 76.3661C42.56 76.4729 42.52 76.6064 42.52 76.6509C42.51 76.7043 42.44 76.7488 42.36 76.7666C42.24 76.7933 42.2 76.7221 42.2 76.4818Z" fill="#5A5A5A"/>
<path d="M37.85 76.1793C37.79 76.1437 37.73 76.0102 37.72 75.8767C37.69 75.672 37.73 75.6275 37.89 75.6275C38.06 75.6275 38.1 75.6809 38.1 75.939C38.1 76.2505 38.04 76.3039 37.85 76.1793Z" fill="#5A5A5A"/>
<path d="M62 75.85C62 75.6008 62.04 75.5385 62.19 75.5385C62.43 75.5385 62.49 75.6898 62.36 75.9568C62.19 76.2682 62 76.206 62 75.85Z" fill="#5A5A5A"/>
<path d="M44.8 75.9657C44.8 75.8322 45.21 75.6453 45.38 75.6987C45.45 75.7165 45.5 75.8055 45.5 75.9034C45.5 76.0369 45.43 76.0725 45.15 76.0725C44.94 76.0725 44.8 76.028 44.8 75.9657Z" fill="#5A5A5A"/>
<path d="M54.9 75.8055C54.9 75.6186 55 75.5919 55.38 75.6809C55.74 75.7699 55.65 75.9835 55.25 75.9835C54.97 75.9835 54.9 75.9479 54.9 75.8055Z" fill="#5A5A5A"/>
<path d="M45.6 75.7432C45.6 75.6275 45.69 75.5741 45.95 75.5652C46.24 75.5385 46.3 75.5652 46.3 75.7165C46.3 75.8589 46.23 75.8945 45.95 75.8945C45.68 75.8945 45.6 75.8589 45.6 75.7432Z" fill="#5A5A5A"/>
<path d="M53.48 75.6898C53.01 75.6186 52.9 75.5652 52.9 75.4228C52.9 75.2715 52.95 75.2627 53.28 75.3071C54.42 75.4851 54.7 75.5563 54.7 75.6809C54.7 75.8233 54.36 75.8322 53.48 75.6898Z" fill="#5A5A5A"/>
<path d="M46.6 75.5919C46.6 75.4673 46.71 75.4317 47.53 75.3071C47.85 75.2627 47.9 75.2716 47.9 75.4317C47.9 75.5652 47.81 75.6186 47.44 75.6631C46.75 75.7432 46.6 75.7343 46.6 75.5919Z" fill="#5A5A5A"/>
<path d="M48 75.4139C48 75.3427 48.18 75.2537 48.4 75.2003C48.78 75.1203 48.8 75.1203 48.8 75.3249C48.8 75.5118 48.76 75.5385 48.4 75.5385C48.13 75.5385 48 75.5029 48 75.4139Z" fill="#5A5A5A"/>
<path d="M52 75.3605C52 75.1737 52.16 75.1381 52.58 75.236C52.97 75.3339 52.85 75.5385 52.4 75.5385C52.07 75.5385 52 75.5118 52 75.3605Z" fill="#5A5A5A"/>
<path d="M49.3 75.3249C49.3 75.1648 49.62 75.0936 50.4 75.0936C51.18 75.0936 51.5 75.1648 51.5 75.3249C51.5 75.4228 51.27 75.4495 50.4 75.4495C49.53 75.4495 49.3 75.4228 49.3 75.3249Z" fill="#5A5A5A"/>
<path d="M37.41 74.969C37.26 74.435 37.27 74.3816 37.49 74.3816C37.68 74.3816 37.8 74.6842 37.8 75.147C37.8 75.5118 37.53 75.3872 37.41 74.969Z" fill="#5A5A5A"/>
<path d="M55 74.7198C55 74.5952 55.08 74.5596 55.35 74.5596C55.63 74.5596 55.7 74.5952 55.7 74.7376C55.7 74.8889 55.64 74.9156 55.35 74.8889C55.09 74.88 55 74.8266 55 74.7198Z" fill="#5A5A5A"/>
<path d="M62.4 74.6041C62.4 74.3549 62.44 74.2926 62.6 74.2926C62.81 74.2926 62.84 74.3816 62.74 74.7198C62.64 75.0402 62.4 74.9601 62.4 74.6041Z" fill="#5A5A5A"/>
<path d="M45.5 74.6486C45.5 74.5062 45.57 74.4706 45.85 74.4706C46.12 74.4706 46.2 74.5062 46.2 74.6308C46.2 74.7376 46.11 74.791 45.85 74.7999C45.56 74.8266 45.5 74.7999 45.5 74.6486Z" fill="#5A5A5A"/>
<path d="M54.28 74.6753C53.95 74.6041 54.08 74.3816 54.45 74.3816C54.73 74.3816 54.8 74.4172 54.8 74.5596C54.8 74.7376 54.66 74.7643 54.28 74.6753Z" fill="#5A5A5A"/>
<path d="M46.5 74.4795C46.5 74.3638 46.56 74.2927 46.68 74.2927C46.77 74.2927 47.09 74.266 47.38 74.2393C47.81 74.1859 47.9 74.2037 47.9 74.3194C47.9 74.4528 47.78 74.4973 46.93 74.6041C46.54 74.6575 46.5 74.6486 46.5 74.4795Z" fill="#5A5A5A"/>
<path d="M52.38 74.4528C51.86 74.3282 51.88 74.1147 52.4 74.1147C52.76 74.1147 52.8 74.1414 52.8 74.3371C52.8 74.4617 52.79 74.5596 52.78 74.5507C52.76 74.5418 52.58 74.4973 52.38 74.4528Z" fill="#5A5A5A"/>
<path d="M53.08 74.4973C52.75 74.4262 52.88 74.2037 53.25 74.2037C53.53 74.2037 53.6 74.2393 53.6 74.3817C53.6 74.5596 53.46 74.5863 53.08 74.4973Z" fill="#5A5A5A"/>
<path d="M48 74.2926C48 74.1414 48.07 74.1147 48.4 74.1147C48.85 74.1147 48.97 74.3193 48.58 74.4172C48.16 74.5151 48 74.4795 48 74.2926Z" fill="#5A5A5A"/>
<path d="M49.3 74.2037C49.3 74.0346 49.37 74.0257 50.4 74.0257C51.43 74.0257 51.5 74.0346 51.5 74.2037C51.5 74.3727 51.43 74.3816 50.4 74.3816C49.37 74.3816 49.3 74.3727 49.3 74.2037Z" fill="#5A5A5A"/>
<path d="M37.16 74.0079C37.06 73.6697 37.09 73.5807 37.3 73.5807C37.46 73.5807 37.5 73.643 37.5 73.8922C37.5 74.2482 37.26 74.3283 37.16 74.0079Z" fill="#5A5A5A"/>
<path d="M36.96 72.851C36.86 72.5128 36.89 72.4238 37.1 72.4238C37.26 72.4238 37.3 72.4861 37.3 72.7353C37.3 73.0913 37.06 73.1714 36.96 72.851Z" fill="#5A5A5A"/>
<path d="M36.86 71.4272C36.72 70.9466 36.84 70.2881 37.06 70.2881C37.17 70.2881 37.2 70.4483 37.2 70.9555C37.2 71.4627 37.17 71.6229 37.06 71.6229C36.99 71.6229 36.9 71.5339 36.86 71.4272Z" fill="#5A5A5A"/>
<path d="M62.8 69.7096C62.8 69.3537 63.04 69.2736 63.14 69.6029C63.24 69.9321 63.21 70.0211 63 70.0211C62.84 70.0211 62.8 69.9588 62.8 69.7096Z" fill="#5A5A5A"/>
<path d="M36.91 69.5583C36.95 69.3982 37.02 69.1134 37.05 68.9354C37.09 68.704 37.16 68.5972 37.27 68.5972C37.4 68.5972 37.42 68.6684 37.36 69.0689C37.33 69.3181 37.3 69.6028 37.3 69.6918C37.3 69.7897 37.22 69.8431 37.06 69.8431C36.84 69.8431 36.83 69.8253 36.91 69.5583Z" fill="#5A5A5A"/>
<path d="M62.4 67.2179C62.4 66.9242 62.42 66.9064 62.73 66.9153C62.9 66.9153 62.99 66.942 62.93 66.9687C62.86 66.9865 62.8 67.1289 62.8 67.2713C62.8 67.4671 62.75 67.5293 62.6 67.5293C62.44 67.5293 62.4 67.4671 62.4 67.2179Z" fill="#5A5A5A"/>
<path d="M35.78 66.6661C35.45 66.595 35.58 66.3725 35.95 66.3725C36.23 66.3725 36.3 66.4081 36.3 66.5505C36.3 66.7284 36.16 66.7551 35.78 66.6661Z" fill="#5A5A5A"/>
<path d="M64.6 66.4615C64.6 66.3191 64.67 66.2835 64.95 66.2835C65.35 66.2835 65.44 66.4971 65.08 66.586C64.7 66.675 64.6 66.6483 64.6 66.4615Z" fill="#5A5A5A"/>
<path d="M66.7 66.1945C66.7 66.0521 66.77 66.0165 67.05 66.0165C67.45 66.0165 67.54 66.2301 67.18 66.3191C66.8 66.4081 66.7 66.3814 66.7 66.1945Z" fill="#5A5A5A"/>
<path d="M32.3 66.239C32.22 66.2212 31.98 66.1856 31.78 66.15C31.54 66.1144 31.4 66.0521 31.4 65.972C31.4 65.8207 31.51 65.8118 32.28 65.8919C32.7 65.9453 32.8 65.9809 32.8 66.1144C32.8 66.2746 32.68 66.3013 32.3 66.239Z" fill="#5A5A5A"/>
<path d="M68.7 65.9542C68.7 65.8118 68.86 65.7673 69.83 65.6338C70.44 65.5538 71.03 65.4826 71.13 65.4826C71.4 65.4826 71.33 65.7228 71.03 65.794C70.74 65.8652 70.67 65.8741 69.9 65.9631C69.65 65.9898 69.28 66.0343 69.08 66.0699C68.75 66.1144 68.7 66.0966 68.7 65.9542Z" fill="#5A5A5A"/>
<path d="M28.48 65.7139C28.08 65.5893 28.12 65.3936 28.55 65.3936C28.83 65.3936 28.9 65.4292 28.9 65.5627C28.9 65.794 28.81 65.8296 28.48 65.7139Z" fill="#5A5A5A"/>
<path d="M72.66 65.5893C72.63 65.5627 72.6 65.4648 72.6 65.3758C72.6 65.2512 72.68 65.2156 72.95 65.2156C73.17 65.2156 73.3 65.2601 73.3 65.3313C73.3 65.447 72.75 65.6783 72.66 65.5893Z" fill="#5A5A5A"/>
<path d="M26.48 65.4203C26.15 65.3491 26.28 65.1266 26.65 65.1266C26.93 65.1266 27 65.1622 27 65.3046C27 65.4826 26.86 65.5093 26.48 65.4203Z" fill="#5A5A5A"/>
<path d="M24.68 65.18C24.28 65.0554 24.32 64.8596 24.75 64.8596C25.03 64.8596 25.1 64.8952 25.1 65.0287C25.1 65.2601 25.01 65.2957 24.68 65.18Z" fill="#5A5A5A"/>
<path d="M76.36 65.0554C76.33 65.0287 76.3 64.9308 76.3 64.8418C76.3 64.7172 76.38 64.6816 76.65 64.6816C76.87 64.6816 77 64.7261 77 64.7973C77 64.913 76.45 65.1444 76.36 65.0554Z" fill="#5A5A5A"/>
<path d="M77.4 64.6816C77.4 64.5393 77.47 64.5037 77.75 64.5037C78.15 64.5037 78.24 64.7172 77.88 64.8062C77.5 64.8952 77.4 64.8685 77.4 64.6816Z" fill="#5A5A5A"/>
<path d="M21.07 64.646C20.76 64.5482 20.7 64.3257 20.99 64.3257C21.09 64.3257 21.38 64.3524 21.64 64.3791C22 64.4236 22.1 64.477 22.1 64.6016C22.1 64.735 22.03 64.7617 21.72 64.7439C21.51 64.735 21.22 64.6905 21.07 64.646Z" fill="#5A5A5A"/>
<path d="M78.6 64.5215C78.6 64.388 78.83 64.3346 80.28 64.121C82.2 63.8451 82.3 63.8362 82.3 64.0053C82.3 64.121 82.02 64.2278 81.55 64.2901C81.17 64.3346 80.65 64.4058 80.37 64.4503C78.82 64.6994 78.6 64.7083 78.6 64.5215Z" fill="#5A5A5A"/>
<path d="M19.38 64.3791C18.98 64.2545 19.02 64.0587 19.45 64.0587C19.73 64.0587 19.8 64.0943 19.8 64.2278C19.8 64.4592 19.71 64.4948 19.38 64.3791Z" fill="#5A5A5A"/>
<path d="M17.67 64.1121C17.36 64.0142 17.3 63.7917 17.59 63.7917C17.69 63.7917 17.98 63.8184 18.24 63.8451C18.6 63.8896 18.7 63.943 18.7 64.0676C18.7 64.2011 18.63 64.2278 18.32 64.21C18.11 64.2011 17.82 64.1566 17.67 64.1121Z" fill="#5A5A5A"/>
<path d="M83.86 63.8985C83.83 63.8718 83.8 63.7739 83.8 63.6849C83.8 63.5604 83.88 63.5248 84.15 63.5248C84.37 63.5248 84.5 63.5693 84.5 63.6405C84.5 63.7561 83.95 63.9875 83.86 63.8985Z" fill="#5A5A5A"/>
<path d="M13.68 63.4892C13.28 63.3646 13.32 63.1688 13.75 63.1688C14.03 63.1688 14.1 63.2044 14.1 63.3379C14.1 63.5693 14.01 63.6049 13.68 63.4892Z" fill="#5A5A5A"/>
<path d="M85.5 63.4358C85.5 63.2934 85.57 63.2578 85.85 63.2578C86.25 63.2578 86.34 63.4714 85.98 63.5604C85.6 63.6493 85.5 63.6226 85.5 63.4358Z" fill="#5A5A5A"/>
<path d="M86.6 63.2578C86.6 63.1154 86.67 63.0798 86.95 63.0798C87.35 63.0798 87.44 63.2934 87.08 63.3824C86.7 63.4714 86.6 63.4447 86.6 63.2578Z" fill="#5A5A5A"/>
<path d="M87.8 63.0798C87.8 62.9374 87.87 62.9018 88.15 62.9018C88.55 62.9018 88.64 63.1154 88.28 63.2044C87.9 63.2934 87.8 63.2667 87.8 63.0798Z" fill="#5A5A5A"/>
<path d="M89.4 62.8128C89.4 62.6705 89.47 62.6349 89.75 62.6349C90.15 62.6349 90.24 62.8484 89.88 62.9374C89.5 63.0264 89.4 62.9997 89.4 62.8128Z" fill="#5A5A5A"/>
<path d="M8.27 62.626C8.18 62.5726 8.04 62.5459 7.98 62.5548C7.73 62.5904 7.3 62.4391 7.3 62.3145C7.3 62.1721 7.46 62.1632 8.14 62.2433C8.49 62.2878 8.6 62.3412 8.6 62.4658C8.6 62.6704 8.49 62.7327 8.27 62.626Z" fill="#5A5A5A"/>
<path d="M91.6 62.4569C91.6 62.3145 91.67 62.2789 91.95 62.2789C92.35 62.2789 92.44 62.4925 92.08 62.5815C91.7 62.6705 91.6 62.6438 91.6 62.4569Z" fill="#5A5A5A"/>
<path d="M5.38 62.1276C5.05 62.0564 5.18 61.8339 5.55 61.8339C5.83 61.8339 5.9 61.8695 5.9 62.0119C5.9 62.1899 5.76 62.2166 5.38 62.1276Z" fill="#5A5A5A"/>
<path d="M94.3 62.0119C94.3 61.8695 94.37 61.8339 94.65 61.8339C95.05 61.8339 95.14 62.0475 94.78 62.1365C94.4 62.2255 94.3 62.1988 94.3 62.0119Z" fill="#5A5A5A"/>
<path d="M4.38 61.9763C3.98 61.8517 4.02 61.656 4.45 61.656C4.73 61.656 4.8 61.6916 4.8 61.825C4.8 62.0564 4.71 62.092 4.38 61.9763Z" fill="#5A5A5A"/>
<path d="M2.75 61.7005C2.7 61.6827 2.48 61.6471 2.28 61.6115C2.04 61.5759 1.9 61.5136 1.9 61.4335C1.9 61.2822 2.05 61.2733 2.74 61.3534C3.1 61.3979 3.2 61.4513 3.2 61.5759C3.2 61.7361 3.02 61.7806 2.75 61.7005Z" fill="#5A5A5A"/>
<path d="M98.06 61.5848C98.03 61.5581 98 61.4602 98 61.3712C98 61.2466 98.08 61.211 98.35 61.211C98.57 61.211 98.7 61.2555 98.7 61.3267C98.7 61.4424 98.15 61.6738 98.06 61.5848Z" fill="#5A5A5A"/>
<path d="M1.18 61.4424C0.779996 61.3178 0.819997 61.122 1.25 61.122C1.53 61.122 1.6 61.1576 1.6 61.2911C1.6 61.5225 1.51 61.5581 1.18 61.4424Z" fill="#5A5A5A"/>
<path d="M99.06 61.4068C99.03 61.3801 99 61.2822 99 61.1932C99 61.0686 99.08 61.033 99.35 61.033C99.67 61.033 99.7 61.0152 99.7 60.7661C99.7 60.4457 99.95 60.4012 100.04 60.7038C100.14 61.033 100.11 61.122 99.9 61.122C99.79 61.122 99.7 61.1576 99.7 61.1932C99.7 61.2822 99.13 61.478 99.06 61.4068Z" fill="#5A5A5A"/>
<path d="M1.14441e-05 60.3923C1.14441e-05 60.1253 0.130012 59.8761 0.260012 59.8761C0.350012 59.8761 0.400011 59.9829 0.400011 60.1876C0.400011 60.4368 0.360011 60.4991 0.200011 60.4991C0.0900114 60.4991 1.14441e-05 60.4457 1.14441e-05 60.3923Z" fill="#5A5A5A"/>
<path d="M30.3 59.5202C30.3 59.3511 30.37 59.3422 31.4 59.3422C32.43 59.3422 32.5 59.3511 32.5 59.5202C32.5 59.6893 32.43 59.6982 31.4 59.6982C30.37 59.6982 30.3 59.6893 30.3 59.5202Z" fill="#5A5A5A"/>
<path d="M67.7 59.5202C67.7 59.3511 67.77 59.3422 69 59.3422C70.23 59.3422 70.3 59.3511 70.3 59.5202C70.3 59.6893 70.23 59.6982 69 59.6982C67.77 59.6982 67.7 59.6893 67.7 59.5202Z" fill="#5A5A5A"/>
<path d="M28.4 59.4312C28.4 59.2443 28.5 59.2176 28.88 59.3066C29.24 59.3956 29.15 59.6092 28.75 59.6092C28.47 59.6092 28.4 59.5736 28.4 59.4312Z" fill="#5A5A5A"/>
<path d="M33.3 59.4846C33.3 59.3689 33.58 59.2532 33.88 59.2532C33.94 59.2532 34 59.3333 34 59.4312C34 59.5736 33.93 59.6092 33.65 59.6092C33.42 59.6092 33.3 59.5647 33.3 59.4846Z" fill="#5A5A5A"/>
<path d="M66.3 59.4312C66.3 59.2443 66.46 59.2087 66.88 59.3066C67.27 59.4045 67.15 59.6092 66.7 59.6092C66.37 59.6092 66.3 59.5825 66.3 59.4312Z" fill="#5A5A5A"/>
<path d="M71.2 59.4846C71.2 59.4223 71.3 59.3422 71.43 59.3066C71.84 59.2087 72 59.2443 72 59.4312C72 59.5825 71.93 59.6092 71.6 59.6092C71.33 59.6092 71.2 59.5736 71.2 59.4846Z" fill="#5A5A5A"/>
<path d="M34.2 59.4045C34.2 59.2888 34.75 59.0574 34.84 59.1464C34.87 59.1731 34.9 59.271 34.9 59.36C34.9 59.4846 34.82 59.5202 34.55 59.5202C34.33 59.5202 34.2 59.4757 34.2 59.4045Z" fill="#5A5A5A"/>
<path d="M65.5 59.3422C65.5 59.1553 65.6 59.1286 65.98 59.2176C66.34 59.3066 66.25 59.5202 65.85 59.5202C65.57 59.5202 65.5 59.4846 65.5 59.3422Z" fill="#5A5A5A"/>
<path d="M72.3 59.3956C72.3 59.2799 72.58 59.1642 72.88 59.1642C72.94 59.1642 73 59.2443 73 59.3422C73 59.4846 72.93 59.5202 72.65 59.5202C72.42 59.5202 72.3 59.4757 72.3 59.3956Z" fill="#5A5A5A"/>
<path d="M26.5 59.2532C26.5 59.0663 26.6 59.0396 26.98 59.1286C27.34 59.2176 27.25 59.4312 26.85 59.4312C26.57 59.4312 26.5 59.3956 26.5 59.2532Z" fill="#5A5A5A"/>
<path d="M73.2 59.2977C73.2 59.2265 73.33 59.1553 73.53 59.1197C73.92 59.0663 75.88 58.8083 75.95 58.8083C75.98 58.8083 76 58.8794 76 58.9684C76 59.1108 75.82 59.1464 74.73 59.2799C73.2 59.4668 73.2 59.4668 73.2 59.2977Z" fill="#5A5A5A"/>
<path d="M64.4 59.1642C64.4 58.9773 64.5 58.9506 64.88 59.0396C65.24 59.1286 65.15 59.3422 64.75 59.3422C64.47 59.3422 64.4 59.3066 64.4 59.1642Z" fill="#5A5A5A"/>
<path d="M24.4 58.9862C24.4 58.7994 24.5 58.7727 24.88 58.8616C25.24 58.9506 25.15 59.1642 24.75 59.1642C24.47 59.1642 24.4 59.1286 24.4 58.9862Z" fill="#5A5A5A"/>
<path d="M63 58.7637C63 58.568 63.03 58.5502 63.25 58.6303C63.39 58.6748 63.5 58.6837 63.5 58.6481C63.5 58.568 63.7 58.8349 63.7 58.9239C63.7 58.9595 63.54 58.9862 63.35 58.9862C63.04 58.9862 63 58.9595 63 58.7637Z" fill="#5A5A5A"/>
<path d="M76.4 58.8706C76.4 58.7549 76.95 58.5235 77.04 58.6125C77.07 58.6392 77.1 58.7371 77.1 58.8261C77.1 58.9506 77.02 58.9862 76.75 58.9862C76.53 58.9862 76.4 58.9417 76.4 58.8706Z" fill="#5A5A5A"/>
<path d="M22.7 58.7371C22.7 58.4968 22.78 58.4612 23.11 58.568C23.52 58.7104 23.48 58.8972 23.05 58.8972C22.78 58.8972 22.7 58.8617 22.7 58.7371Z" fill="#5A5A5A"/>
<path d="M37.22 58.7015C37.25 58.6392 37.41 58.5413 37.58 58.479C37.89 58.3633 37.9 58.3722 37.9 58.5858C37.9 58.7816 37.86 58.8083 37.54 58.8083C37.31 58.8083 37.2 58.7727 37.22 58.7015Z" fill="#5A5A5A"/>
<path d="M77.5 58.6837C77.5 58.5947 77.69 58.5235 78.03 58.4612C78.31 58.4078 78.98 58.2832 79.5 58.1853C80.98 57.9095 81.3 57.8828 81.3 58.0696C81.3 58.2031 81.03 58.2743 79.57 58.5235C77.64 58.8528 77.5 58.8617 77.5 58.6837Z" fill="#5A5A5A"/>
<path d="M0.200001 58.5413C0.200001 58.4879 0.320001 58.3989 0.480001 58.3366C0.630001 58.2832 0.780002 58.1942 0.820002 58.1408C0.860002 58.0963 0.900001 58.1853 0.900001 58.3455C0.900001 58.6125 0.880001 58.6303 0.550001 58.6303C0.360001 58.6303 0.200001 58.5858 0.200001 58.5413Z" fill="#5A5A5A"/>
<path d="M30.48 58.568C30.15 58.4968 30.28 58.2743 30.65 58.2743C30.93 58.2743 31 58.3099 31 58.4523C31 58.6303 30.86 58.657 30.48 58.568Z" fill="#5A5A5A"/>
<path d="M67.88 58.568C67.78 58.5502 67.7 58.4701 67.7 58.3989C67.7 58.301 67.95 58.2743 69.05 58.2743C70.13 58.2743 70.4 58.301 70.4 58.3989C70.4 58.4612 70.3 58.5413 70.18 58.5769C69.92 58.6392 68.14 58.6303 67.88 58.568Z" fill="#5A5A5A"/>
<path d="M66.48 58.479C66.12 58.3989 66.28 58.1853 66.7 58.1853C67.03 58.1853 67.1 58.212 67.1 58.3633C67.1 58.5413 66.9 58.5769 66.48 58.479Z" fill="#5A5A5A"/>
<path d="M71.1 58.3633C71.1 58.212 71.17 58.1853 71.55 58.1853C72.04 58.1853 72.19 58.39 71.78 58.4879C71.33 58.5947 71.1 58.5502 71.1 58.3633Z" fill="#5A5A5A"/>
<path d="M34.1 58.2743C34.1 58.1319 34.17 58.0963 34.45 58.0963C34.85 58.0963 34.94 58.3099 34.58 58.3989C34.2 58.4879 34.1 58.4612 34.1 58.2743Z" fill="#5A5A5A"/>
<path d="M72.2 58.2743C72.2 58.123 72.27 58.0963 72.6 58.0963C73.05 58.0963 73.17 58.301 72.78 58.3989C72.36 58.4968 72.2 58.4612 72.2 58.2743Z" fill="#5A5A5A"/>
<path d="M73.1 58.2031C73.1 58.0785 73.3 58.0251 74.43 57.8827C76.48 57.6158 76.5 57.6158 76.5 57.7671C76.5 57.8383 76.38 57.9272 76.23 57.9628C75.94 58.034 75.85 58.0429 75.05 58.1319C74.78 58.1675 74.28 58.2298 73.95 58.2743C73.15 58.39 73.1 58.39 73.1 58.2031Z" fill="#5A5A5A"/>
<path d="M64.48 58.1675C64.06 58.0696 63.96 57.8294 64.34 57.8294C64.86 57.8294 65.2 57.9361 65.2 58.1052C65.2 58.2921 65.06 58.301 64.48 58.1675Z" fill="#5A5A5A"/>
<path d="M36.13 58.123C36.06 58.0963 36 58.0073 36 57.9095C36 57.7849 36.07 57.7404 36.3 57.7404C36.47 57.7404 36.6 57.7048 36.6 57.6514C36.6 57.6069 36.71 57.5624 36.85 57.5624C36.99 57.5624 37.1 57.5268 37.1 57.4734C37.1 57.4289 37.19 57.3844 37.3 57.3844C37.41 57.3844 37.5 57.3488 37.5 57.2954C37.5 57.2509 37.66 57.2064 37.85 57.2064C38.09 57.2064 38.2 57.2509 38.2 57.3399C38.2 57.4111 38.17 57.4645 38.13 57.4556C38.08 57.4467 37.78 57.5535 37.45 57.6959C37.12 57.8294 36.76 57.9628 36.66 57.9806C36.55 57.9984 36.42 58.0429 36.36 58.0874C36.3 58.1319 36.19 58.1408 36.13 58.123Z" fill="#5A5A5A"/>
<path d="M1.8 57.9717C1.8 57.856 2.08 57.7404 2.38 57.7404C2.44 57.7404 2.5 57.8204 2.5 57.9183C2.5 58.0607 2.43 58.0963 2.15 58.0963C1.92 58.0963 1.8 58.0518 1.8 57.9717Z" fill="#5A5A5A"/>
<path d="M38.7 58.0429C38.7 57.9628 38.98 57.7404 39.07 57.7404C39.27 57.7404 40.43 56.6458 40.77 56.1296C41 55.7915 41.1 55.8004 41.1 56.183C41.1 56.3521 41.06 56.4945 41 56.4945C40.95 56.4945 40.9 56.5568 40.9 56.628C40.9 56.6992 40.81 56.7615 40.7 56.7615C40.55 56.7615 40.5 56.8238 40.5 56.9839C40.5 57.1708 40.45 57.2064 40.2 57.2064C39.93 57.2064 39.9 57.2331 39.9 57.4734C39.9 57.6959 39.86 57.7404 39.65 57.7404C39.47 57.7404 39.4 57.7849 39.4 57.9183C39.4 58.0607 39.33 58.0963 39.05 58.0963C38.86 58.0963 38.7 58.0696 38.7 58.0429Z" fill="#5A5A5A"/>
<path d="M24.18 57.945C23.85 57.8738 23.98 57.6514 24.35 57.6514C24.63 57.6514 24.7 57.687 24.7 57.8293C24.7 58.0073 24.56 58.034 24.18 57.945Z" fill="#5A5A5A"/>
<path d="M82.4 57.8917C82.4 57.776 82.95 57.5446 83.04 57.6336C83.07 57.6603 83.1 57.7582 83.1 57.8472C83.1 57.9717 83.02 58.0073 82.75 58.0073C82.53 58.0073 82.4 57.9628 82.4 57.8917Z" fill="#5A5A5A"/>
<path d="M63.23 57.7849C62.8 57.6247 62.81 57.4734 63.25 57.4734C63.56 57.4734 63.6 57.5001 63.6 57.6959C63.6 57.8205 63.59 57.9183 63.58 57.9183C63.56 57.9094 63.4 57.856 63.23 57.7849Z" fill="#5A5A5A"/>
<path d="M76.9 57.6692C76.9 57.5357 77.09 57.4734 78.03 57.3132C79.37 57.0818 79.6 57.0729 79.6 57.2509C79.6 57.3221 79.58 57.3844 79.56 57.3844C79.54 57.3844 78.98 57.4823 78.3 57.6069C76.84 57.8738 76.9 57.865 76.9 57.6692Z" fill="#5A5A5A"/>
<path d="M83.8 57.7137C83.8 57.5713 83.96 57.5268 84.83 57.42C85.26 57.3666 85.3 57.3755 85.3 57.5535C85.3 57.687 85.24 57.7404 85.08 57.7404C84.95 57.7404 84.61 57.7671 84.33 57.7938C83.89 57.8472 83.8 57.8294 83.8 57.7137Z" fill="#5A5A5A"/>
<path d="M96.23 57.7137C95.78 57.6425 95.7 57.598 95.7 57.4289C95.7 57.2331 95.71 57.2331 96.23 57.3577C96.51 57.42 96.9 57.4823 97.07 57.5001C97.31 57.509 97.4 57.5624 97.4 57.6781C97.4 57.8561 97.09 57.865 96.23 57.7137Z" fill="#5A5A5A"/>
<path d="M3.5 57.6158C3.5 57.5001 3.78 57.3844 4.08 57.3844C4.14 57.3844 4.2 57.4645 4.2 57.5624C4.2 57.7048 4.13 57.7404 3.85 57.7404C3.62 57.7404 3.5 57.6959 3.5 57.6158Z" fill="#5A5A5A"/>
<path d="M22.3 57.6514C22.11 57.6069 21.92 57.598 21.88 57.6158C21.83 57.6425 21.8 57.5802 21.8 57.4823C21.8 57.2776 21.96 57.2509 22.63 57.3488C22.9 57.3933 23 57.4467 23 57.5713C23 57.7582 22.87 57.7671 22.3 57.6514Z" fill="#5A5A5A"/>
<path d="M85.4 57.5268C85.4 57.4111 85.68 57.2954 85.98 57.2954C86.04 57.2954 86.1 57.3755 86.1 57.4734C86.1 57.6158 86.03 57.6514 85.75 57.6514C85.52 57.6514 85.4 57.6069 85.4 57.5268Z" fill="#5A5A5A"/>
<path d="M0.330002 57.3755C0.370002 57.2598 0.400002 57.1352 0.400002 57.0996C0.400002 57.0551 0.470002 57.0284 0.550002 57.0284C0.780002 57.0284 0.730001 57.3666 0.490001 57.4823C0.290001 57.5713 0.280002 57.5624 0.330002 57.3755Z" fill="#5A5A5A"/>
<path d="M4.7 57.4467C4.7 57.3755 4.86 57.2865 5.05 57.2331C5.38 57.1352 5.4 57.1441 5.4 57.3488C5.4 57.5357 5.35 57.5624 5.05 57.5624C4.83 57.5624 4.7 57.5179 4.7 57.4467Z" fill="#5A5A5A"/>
<path d="M62.26 57.3755C62.16 57.2865 62.03 57.2331 61.99 57.2598C61.94 57.2865 61.9 57.242 61.9 57.1708C61.9 57.064 62 57.0284 62.25 57.0284C62.55 57.0284 62.6 57.0551 62.6 57.242C62.6 57.5357 62.49 57.5713 62.26 57.3755Z" fill="#5A5A5A"/>
<path d="M86.3 57.4378C86.3 57.3755 86.4 57.2954 86.53 57.2598C86.94 57.1619 87.1 57.1975 87.1 57.3844C87.1 57.5357 87.03 57.5624 86.7 57.5624C86.43 57.5624 86.3 57.5268 86.3 57.4378Z" fill="#5A5A5A"/>
<path d="M94.9 57.3844C94.9 57.1975 95 57.1708 95.38 57.2598C95.74 57.3488 95.65 57.5624 95.25 57.5624C94.97 57.5624 94.9 57.5268 94.9 57.3844Z" fill="#5A5A5A"/>
<path d="M87.5 57.3488C87.5 57.2242 87.79 57.1174 88.18 57.1174C88.33 57.1174 88.4 57.1708 88.4 57.2954C88.4 57.4467 88.33 57.4734 87.95 57.4734C87.63 57.4734 87.5 57.4378 87.5 57.3488Z" fill="#5A5A5A"/>
<path d="M94 57.2954C94 57.1085 94.16 57.0729 94.58 57.1708C94.97 57.2687 94.85 57.4734 94.4 57.4734C94.07 57.4734 94 57.4467 94 57.2954Z" fill="#5A5A5A"/>
<path d="M7.4 57.2598C7.4 57.1441 7.68 57.0284 7.98 57.0284C8.04 57.0284 8.1 57.1085 8.1 57.2064C8.1 57.3488 8.03 57.3844 7.75 57.3844C7.52 57.3844 7.4 57.3399 7.4 57.2598Z" fill="#5A5A5A"/>
<path d="M10.1 57.2064C10.1 57.0195 10.2 56.9928 10.58 57.0818C10.94 57.1708 10.85 57.3844 10.45 57.3844C10.17 57.3844 10.1 57.3488 10.1 57.2064Z" fill="#5A5A5A"/>
<path d="M89.1 57.2598C89.1 57.1085 89.41 57.0284 89.98 57.0284C90.33 57.0284 90.4 57.0551 90.4 57.2064C90.4 57.3666 90.33 57.3844 89.75 57.3844C89.26 57.3844 89.1 57.3577 89.1 57.2598Z" fill="#5A5A5A"/>
<path d="M92.3 57.2064C92.3 57.064 92.37 57.0284 92.63 57.0284C93.1 57.0284 93.4 57.1174 93.4 57.2598C93.4 57.3488 93.25 57.3844 92.85 57.3844C92.37 57.3844 92.3 57.3666 92.3 57.2064Z" fill="#5A5A5A"/>
<path d="M99.26 57.2331C99.23 57.1708 99.23 57.064 99.26 56.9928C99.29 56.9216 99.24 56.4411 99.16 55.9161C98.96 54.7592 98.96 54.6257 99.15 54.6257C99.24 54.6257 99.31 54.7503 99.35 54.9639C99.38 55.1418 99.44 55.391 99.47 55.5156C99.5 55.6402 99.54 55.836 99.55 55.9605C99.61 56.4589 99.68 56.9039 99.7 56.9839C99.71 57.0373 99.72 57.1441 99.71 57.2242C99.7 57.4022 99.33 57.4022 99.26 57.2331Z" fill="#5A5A5A"/>
<path d="M18.88 57.0818C18.48 56.9572 18.52 56.7615 18.95 56.7615C19.23 56.7615 19.3 56.7971 19.3 56.9306C19.3 57.1619 19.21 57.1975 18.88 57.0818Z" fill="#5A5A5A"/>
<path d="M80.5 57.0462C80.5 56.9038 80.69 56.8593 81.93 56.6903C84.22 56.3699 84.4 56.361 84.4 56.5212C84.4 56.6102 84.28 56.6814 84.08 56.717C83.69 56.7704 82.66 56.9216 82.27 56.9839C82.12 57.0017 81.88 57.0373 81.72 57.064C80.71 57.2153 80.5 57.2153 80.5 57.0462Z" fill="#5A5A5A"/>
<path d="M17.68 56.9038C17.28 56.7793 17.32 56.5835 17.75 56.5835C18.03 56.5835 18.1 56.6191 18.1 56.7526C18.1 56.9839 18.01 57.0195 17.68 56.9038Z" fill="#5A5A5A"/>
<path d="M2.9 56.5835C2.9 56.4411 2.97 56.4055 3.25 56.4055C3.65 56.4055 3.74 56.6191 3.38 56.7081C3 56.7971 2.9 56.7704 2.9 56.5835Z" fill="#5A5A5A"/>
<path d="M96.4 56.6191C95.99 56.5479 95.5 56.4678 95.33 56.4411C94.97 56.3966 94.87 56.1385 95.21 56.1385C95.32 56.1385 95.88 56.2008 96.46 56.2809C97.35 56.4055 97.5 56.45 97.5 56.5924C97.5 56.7882 97.44 56.7882 96.4 56.6191Z" fill="#5A5A5A"/>
<path d="M84.5 56.4945C84.5 56.3521 84.57 56.3165 84.85 56.3165C85.25 56.3165 85.34 56.5301 84.98 56.6191C84.6 56.7081 84.5 56.6814 84.5 56.4945Z" fill="#5A5A5A"/>
<path d="M13.63 56.4767C13.18 56.3432 13.2 56.1385 13.65 56.1385C13.96 56.1385 14 56.1652 14 56.361C14 56.4856 13.99 56.5835 13.98 56.5746C13.96 56.5657 13.8 56.5212 13.63 56.4767Z" fill="#5A5A5A"/>
<path d="M14.38 56.5212C14.05 56.45 14.18 56.2275 14.55 56.2275C14.83 56.2275 14.9 56.2631 14.9 56.4055C14.9 56.5835 14.76 56.6102 14.38 56.5212Z" fill="#5A5A5A"/>
<path d="M85.3 56.4055C85.3 56.2542 85.37 56.2275 85.7 56.2275C86.15 56.2275 86.27 56.4322 85.88 56.5301C85.46 56.628 85.3 56.5924 85.3 56.4055Z" fill="#5A5A5A"/>
<path d="M86.3 56.3521C86.3 56.1652 86.34 56.1385 86.7 56.1385C86.97 56.1385 87.1 56.1741 87.1 56.2631C87.1 56.3343 86.92 56.4233 86.7 56.4767C86.32 56.5568 86.3 56.5568 86.3 56.3521Z" fill="#5A5A5A"/>
<path d="M4.7 56.3165C4.7 56.1741 4.77 56.1385 5.05 56.1385C5.45 56.1385 5.54 56.3521 5.18 56.4411C4.8 56.5301 4.7 56.5034 4.7 56.3165Z" fill="#5A5A5A"/>
<path d="M5.8 56.2275C5.8 56.0851 5.87 56.0495 6.15 56.0495C6.55 56.0495 6.64 56.2631 6.28 56.3521C5.9 56.4411 5.8 56.4144 5.8 56.2275Z" fill="#5A5A5A"/>
<path d="M87.5 56.2275C87.5 56.0762 87.57 56.0495 87.95 56.0495C88.44 56.0495 88.59 56.2542 88.18 56.3521C87.73 56.4589 87.5 56.4144 87.5 56.2275Z" fill="#5A5A5A"/>
<path d="M94.18 56.3432C93.82 56.2631 93.98 56.0495 94.4 56.0495C94.73 56.0495 94.8 56.0762 94.8 56.2275C94.8 56.4055 94.6 56.4411 94.18 56.3432Z" fill="#5A5A5A"/>
<path d="M7.4 56.1385C7.4 55.9961 7.47 55.9605 7.75 55.9605C8.15 55.9605 8.24 56.1741 7.88 56.2631C7.5 56.3521 7.4 56.3254 7.4 56.1385Z" fill="#5A5A5A"/>
<path d="M10.28 56.2542C9.95 56.183 10.08 55.9605 10.45 55.9605C10.73 55.9605 10.8 55.9961 10.8 56.1385C10.8 56.3165 10.66 56.3432 10.28 56.2542Z" fill="#5A5A5A"/>
<path d="M59.12 56.094C58.97 55.8093 58.96 55.3376 59.1 55.3376C59.16 55.3376 59.3 55.5156 59.42 55.7381C59.54 55.9605 59.68 56.1385 59.73 56.1385C59.77 56.1385 59.78 56.183 59.75 56.2275C59.63 56.4055 59.23 56.3254 59.12 56.094Z" fill="#5A5A5A"/>
<path d="M89.2 56.1385C89.2 55.9783 89.27 55.9605 89.8 55.9605C90.24 55.9605 90.4 55.9961 90.4 56.0851C90.4 56.2275 90.1 56.3165 89.58 56.3165C89.27 56.3165 89.2 56.2809 89.2 56.1385Z" fill="#5A5A5A"/>
<path d="M92.48 56.2542C92.38 56.2364 92.3 56.1563 92.3 56.0851C92.3 55.9961 92.43 55.9605 92.8 55.9605C93.23 55.9605 93.3 55.9872 93.3 56.1385C93.3 56.2809 93.24 56.3165 92.98 56.3076C92.8 56.2987 92.57 56.2809 92.48 56.2542Z" fill="#5A5A5A"/>
<path d="M60.42 55.8982C60.43 55.8537 60.36 55.7025 60.27 55.5423C60.05 55.1774 60.05 55.1596 60.34 55.1596C60.6 55.1596 60.7 55.302 60.7 55.7025C60.7 55.8715 60.65 55.9605 60.55 55.9605C60.47 55.9605 60.41 55.9338 60.42 55.8982Z" fill="#5A5A5A"/>
<path d="M58.5 54.5812C58.5 54.4121 58.53 54.2697 58.58 54.2697C58.67 54.2697 58.97 54.4477 58.88 54.4477C58.84 54.4477 58.85 54.5456 58.9 54.6702C58.99 54.866 58.97 54.8927 58.75 54.8927C58.53 54.8927 58.5 54.8571 58.5 54.5812Z" fill="#5A5A5A"/>
<path d="M40.4 54.2252C40.4 53.9583 40.43 53.9138 40.64 53.9138C40.9 53.9138 40.92 54.0116 40.72 54.3409C40.54 54.6257 40.4 54.5812 40.4 54.2252Z" fill="#5A5A5A"/>
<path d="M0.900002 54.0027C0.900002 53.6735 1.14 53.0238 1.26 53.0238C1.41 53.0238 1.43 53.2285 1.34 53.7625C1.29 54.0027 1.23 54.0917 1.09 54.0917C0.980001 54.0917 0.900002 54.0561 0.900002 54.0027Z" fill="#5A5A5A"/>
<path d="M58.2 53.7803C58.2 53.4243 58.39 53.362 58.56 53.6735C58.69 53.9405 58.63 54.0917 58.39 54.0917C58.24 54.0917 58.2 54.0294 58.2 53.7803Z" fill="#5A5A5A"/>
<path d="M36.9 53.54C36.9 53.362 36.95 53.3353 37.25 53.3353C37.55 53.3353 37.6 53.362 37.6 53.54C37.6 53.7091 37.55 53.7358 37.25 53.7358C36.95 53.7358 36.9 53.7091 36.9 53.54Z" fill="#5A5A5A"/>
<path d="M70.3 53.54C70.3 53.362 70.35 53.3353 70.65 53.3353C70.95 53.3353 71 53.362 71 53.54C71 53.7091 70.95 53.7358 70.65 53.7358C70.35 53.7358 70.3 53.7091 70.3 53.54Z" fill="#5A5A5A"/>
<path d="M40.8 53.0683C40.8 52.8192 40.84 52.7569 41 52.7569C41.21 52.7569 41.24 52.8459 41.14 53.184C41.04 53.5044 40.8 53.4243 40.8 53.0683Z" fill="#5A5A5A"/>
<path d="M57.86 52.6145C57.77 52.0094 57.78 51.867 57.94 51.867C58.09 51.867 58.2 52.1517 58.26 52.6946C58.29 52.9705 58.27 53.0239 58.11 53.0239C57.97 53.0239 57.91 52.9349 57.86 52.6145Z" fill="#5A5A5A"/>
<path d="M59.14 52.7836C59.14 52.6946 59.1 52.4365 59.06 52.2051C59 51.8225 59.01 51.778 59.18 51.778C59.33 51.778 59.39 51.8581 59.44 52.1873C59.47 52.4187 59.5 52.6768 59.5 52.7658C59.5 52.9794 59.14 52.9972 59.14 52.7836Z" fill="#5A5A5A"/>
<path d="M1.23 52.4454C1.24 52.214 1.3 52.1339 1.43 52.1339C1.56 52.1339 1.6 52.2051 1.6 52.4454C1.6 52.6946 1.56 52.7569 1.4 52.7569C1.23 52.7569 1.2 52.7035 1.23 52.4454Z" fill="#5A5A5A"/>
<path d="M36.4 52.4454C36.4 52.2051 36.44 52.1339 36.58 52.1339C36.7 52.1339 36.76 52.214 36.77 52.4454C36.8 52.7035 36.77 52.7569 36.6 52.7569C36.44 52.7569 36.4 52.6946 36.4 52.4454Z" fill="#5A5A5A"/>
<path d="M69.8 52.4454C69.8 52.2051 69.84 52.1339 69.98 52.1339C70.1 52.1339 70.16 52.214 70.17 52.4454C70.2 52.7035 70.17 52.7569 70 52.7569C69.84 52.7569 69.8 52.6946 69.8 52.4454Z" fill="#5A5A5A"/>
<path d="M71.06 52.5611C70.96 52.2229 70.99 52.1339 71.2 52.1339C71.36 52.1339 71.4 52.1962 71.4 52.4454C71.4 52.8014 71.16 52.8815 71.06 52.5611Z" fill="#5A5A5A"/>
<path d="M28.1 52.3564C28.1 52.1072 28.14 52.045 28.3 52.045C28.51 52.045 28.54 52.1339 28.44 52.4721C28.34 52.7925 28.1 52.7124 28.1 52.3564Z" fill="#5A5A5A"/>
<path d="M29.3 52.5611C29.3 52.2941 29.43 52.045 29.56 52.045C29.65 52.045 29.7 52.1517 29.7 52.3564C29.7 52.6056 29.66 52.6679 29.5 52.6679C29.39 52.6679 29.3 52.6145 29.3 52.5611Z" fill="#5A5A5A"/>
<path d="M62.7 52.5611C62.7 52.2941 62.83 52.045 62.96 52.045C63.05 52.045 63.1 52.1517 63.1 52.3564C63.1 52.6056 63.06 52.6679 62.9 52.6679C62.79 52.6679 62.7 52.6145 62.7 52.5611Z" fill="#5A5A5A"/>
<path d="M61.5 52.3653C61.5 51.9026 61.62 51.6 61.81 51.6C62.03 51.6 62.04 51.6534 61.89 52.1873C61.77 52.6056 61.5 52.7302 61.5 52.3653Z" fill="#5A5A5A"/>
<path d="M98.3 51.7335C98.3 51.3775 98.54 51.2974 98.64 51.6267C98.74 51.956 98.71 52.045 98.5 52.045C98.34 52.045 98.3 51.9827 98.3 51.7335Z" fill="#5A5A5A"/>
<path d="M1.43 51.6445C1.44 51.4131 1.5 51.333 1.63 51.333C1.76 51.333 1.8 51.4042 1.8 51.6445C1.8 51.8937 1.76 51.956 1.6 51.956C1.43 51.956 1.4 51.9026 1.43 51.6445Z" fill="#5A5A5A"/>
<path d="M28.3 51.6534C28.3 51.3686 28.33 51.333 28.55 51.333C28.76 51.333 28.78 51.3597 28.71 51.5377C28.66 51.6445 28.62 51.778 28.62 51.8225C28.61 51.8759 28.54 51.9204 28.46 51.9382C28.34 51.9649 28.3 51.8937 28.3 51.6534Z" fill="#5A5A5A"/>
<path d="M29.75 51.333C29.72 51.2885 29.74 51.244 29.79 51.244C29.85 51.244 29.9 51.1906 29.9 51.1283C29.9 51.066 29.99 50.9682 30.1 50.9059C30.29 50.808 30.3 50.8169 30.3 51.1105C30.3 51.3775 30.27 51.422 30.06 51.422C29.92 51.422 29.78 51.3864 29.75 51.333Z" fill="#5A5A5A"/>
<path d="M28.8 50.7546C28.8 50.4609 28.82 50.4431 29.15 50.4431C29.49 50.4431 29.49 50.4431 29.25 50.6745C29.11 50.808 29 50.9504 29 50.986C29 51.0305 28.96 51.0661 28.9 51.0661C28.85 51.0661 28.8 50.9237 28.8 50.7546Z" fill="#5A5A5A"/>
<path d="M34.9 50.4876C34.9 50.4075 34.81 50.3541 34.66 50.3541C34.52 50.3541 34.34 50.2829 34.24 50.2028C34.09 50.0693 33.88 50.0427 32.93 50.0515C32.09 50.0515 31.8 50.0249 31.8 49.9448C31.8 49.838 31.93 49.8024 32.71 49.6867C33.45 49.571 35.21 50.0604 35.49 50.4698C35.59 50.6033 35.56 50.6211 35.25 50.6211C35.01 50.6211 34.9 50.5766 34.9 50.4876Z" fill="#5A5A5A"/>
<path d="M68.3 50.4876C68.3 50.4075 68.21 50.3541 68.06 50.3541C67.92 50.3541 67.74 50.2829 67.64 50.2028C67.49 50.0693 67.28 50.0427 66.33 50.0515C65.49 50.0515 65.2 50.0249 65.2 49.9448C65.2 49.838 65.33 49.8024 66.11 49.6867C66.85 49.571 68.61 50.0604 68.89 50.4698C68.99 50.6033 68.96 50.6211 68.65 50.6211C68.41 50.6211 68.3 50.5766 68.3 50.4876Z" fill="#5A5A5A"/>
<path d="M30.8 50.3719C30.8 50.3007 31.32 49.9982 31.44 49.9982C31.47 49.9982 31.5 50.096 31.5 50.2206C31.5 50.4164 31.46 50.4431 31.15 50.4431C30.96 50.4431 30.8 50.4075 30.8 50.3719Z" fill="#5A5A5A"/>
<path d="M64.2 50.2918C64.2 50.2117 64.23 50.1761 64.26 50.2028C64.3 50.2295 64.42 50.2028 64.54 50.1316C64.83 49.9448 64.9 49.9626 64.9 50.2206C64.9 50.4164 64.86 50.4431 64.55 50.4431C64.29 50.4431 64.2 50.4075 64.2 50.2918Z" fill="#5A5A5A"/>
<path d="M57.8 50.0427C57.8 49.7935 57.84 49.7312 58 49.7312C58.21 49.7312 58.24 49.8202 58.14 50.1583C58.04 50.4787 57.8 50.3986 57.8 50.0427Z" fill="#5A5A5A"/>
<path d="M59 50.2473C59 49.9804 59.13 49.7312 59.26 49.7312C59.35 49.7312 59.4 49.838 59.4 50.0427C59.4 50.2918 59.36 50.3541 59.2 50.3541C59.09 50.3541 59 50.3007 59 50.2473Z" fill="#5A5A5A"/>
<path d="M63.2 49.7312C63.2 49.4909 63.23 49.4642 63.5 49.4642C63.73 49.4642 63.8 49.4286 63.8 49.2862C63.8 49.1438 63.87 49.1083 64.15 49.1083C64.56 49.1083 64.6 49.2061 64.25 49.3752C64.11 49.4375 64 49.5265 64 49.571C64 49.6155 63.96 49.6333 63.91 49.5977C63.85 49.571 63.78 49.5977 63.73 49.66C63.69 49.7223 63.55 49.8291 63.43 49.8914C63.21 49.9893 63.2 49.9804 63.2 49.7312Z" fill="#5A5A5A"/>
<path d="M30.46 49.5799C30.43 49.5443 30.4 49.4286 30.4 49.3129C30.4 49.1705 30.46 49.1082 30.6 49.1082C30.71 49.1082 30.8 49.0727 30.8 49.0193C30.8 48.9748 30.96 48.9303 31.15 48.9303C31.59 48.9303 31.6 49.0816 31.16 49.2417C30.97 49.3129 30.75 49.4286 30.67 49.4998C30.59 49.571 30.5 49.6066 30.46 49.5799Z" fill="#5A5A5A"/>
<path d="M59.2 49.4464C59.2 49.1794 59.33 48.9303 59.46 48.9303C59.55 48.9303 59.6 49.0371 59.6 49.2417C59.6 49.4909 59.56 49.5532 59.4 49.5532C59.29 49.5532 59.2 49.4998 59.2 49.4464Z" fill="#5A5A5A"/>
<path d="M97.6 49.2417C97.6 48.8858 97.79 48.8235 97.96 49.135C98.09 49.4019 98.03 49.5532 97.79 49.5532C97.64 49.5532 97.6 49.4909 97.6 49.2417Z" fill="#5A5A5A"/>
<path d="M34.98 49.2773C34.53 49.0727 34.49 48.9303 34.89 48.9303C35.34 48.9303 35.5 49.0193 35.5 49.2506C35.5 49.5087 35.46 49.5087 34.98 49.2773Z" fill="#5A5A5A"/>
<path d="M58 49.1527C58 48.9036 58.04 48.8413 58.2 48.8413C58.41 48.8413 58.44 48.9303 58.34 49.2684C58.24 49.5888 58 49.5087 58 49.1527Z" fill="#5A5A5A"/>
<path d="M68.38 49.2773C67.93 49.0727 67.89 48.9303 68.29 48.9303C68.74 48.9303 68.9 49.0193 68.9 49.2506C68.9 49.5087 68.86 49.5087 68.38 49.2773Z" fill="#5A5A5A"/>
<path d="M34.05 49.0104C34.01 48.9659 33.51 48.9392 32.84 48.957C31.81 48.9837 31.7 48.9748 31.7 48.8324C31.7 48.6366 32.62 48.5298 33.66 48.6188C34.28 48.6722 34.4 48.7078 34.4 48.8413C34.4 49.0193 34.14 49.1439 34.05 49.0104Z" fill="#5A5A5A"/>
<path d="M65.1 48.8324C65.1 48.6722 65.64 48.5743 66.56 48.5743C67.05 48.5743 67.1 48.5921 67.1 48.779C67.1 48.9659 67.07 48.9748 66.1 48.9748C65.24 48.9837 65.1 48.957 65.1 48.8324Z" fill="#5A5A5A"/>
<path d="M2.3 48.7345C2.3 48.4675 2.43 48.2183 2.56 48.2183C2.65 48.2183 2.7 48.3251 2.7 48.5298C2.7 48.779 2.66 48.8413 2.5 48.8413C2.39 48.8413 2.3 48.7879 2.3 48.7345Z" fill="#5A5A5A"/>
<path d="M59.95 47.7734C59.92 47.7289 59.94 47.6844 59.99 47.6844C60.05 47.6844 60.1 47.631 60.1 47.5687C60.1 47.5064 60.19 47.4085 60.3 47.3462C60.49 47.2483 60.5 47.2572 60.5 47.5509C60.5 47.8179 60.47 47.8624 60.26 47.8624C60.12 47.8624 59.98 47.8268 59.95 47.7734Z" fill="#5A5A5A"/>
<path d="M96.53 47.3996C96.39 47.3373 96.3 47.2216 96.3 47.0882C96.3 46.8835 96.3 46.8835 96.68 47.0259C96.88 47.106 97.1 47.1861 97.17 47.2128C97.23 47.2305 97.31 47.3106 97.34 47.3818C97.41 47.5331 96.87 47.5509 96.53 47.3996Z" fill="#5A5A5A"/>
<path d="M3.42 47.2217C3.45 47.1594 3.61 47.0615 3.78 46.9992C4.09 46.8835 4.1 46.8924 4.1 47.106C4.1 47.3017 4.06 47.3284 3.74 47.3284C3.51 47.3284 3.4 47.2928 3.42 47.2217Z" fill="#5A5A5A"/>
<path d="M39.07 46.9102C39.03 46.8835 39 46.7411 39 46.5987C39 46.3495 39.01 46.3495 39.21 46.4741C39.32 46.5453 39.48 46.6877 39.56 46.7856C39.7 46.9636 39.7 46.9725 39.42 46.9725C39.26 46.9725 39.1 46.9458 39.07 46.9102Z" fill="#5A5A5A"/>
<path d="M95 46.572C95 46.3584 95.01 46.3495 95.32 46.4652C95.78 46.6343 95.8 46.7945 95.36 46.7945C95.04 46.7945 95 46.7678 95 46.572Z" fill="#5A5A5A"/>
<path d="M4.92 46.5987C4.95 46.5364 5.11 46.4385 5.28 46.3762C5.59 46.2606 5.6 46.2695 5.6 46.483C5.6 46.6788 5.56 46.7055 5.24 46.7055C5.01 46.7055 4.9 46.6699 4.92 46.5987Z" fill="#5A5A5A"/>
<path d="M48.3 46.5275C48.3 46.3406 48.4 46.3139 48.78 46.4029C49.14 46.4919 49.05 46.7055 48.65 46.7055C48.37 46.7055 48.3 46.6699 48.3 46.5275Z" fill="#5A5A5A"/>
<path d="M61.13 46.4919C61.2 46.3673 61.3 46.2605 61.37 46.2605C61.43 46.2605 61.59 46.1538 61.72 46.0203C61.85 45.8779 62.06 45.7177 62.18 45.6554C62.39 45.5575 62.4 45.5664 62.4 45.8156C62.4 46.0648 62.37 46.0826 62.06 46.0826C61.74 46.0826 61.71 46.1093 61.68 46.3762C61.65 46.6254 61.61 46.661 61.33 46.6877C61.02 46.7144 61.02 46.7055 61.13 46.4919Z" fill="#5A5A5A"/>
<path d="M51.5 46.4029C51.5 46.2872 51.78 46.1716 52.08 46.1716C52.14 46.1716 52.2 46.2516 52.2 46.3495C52.2 46.4919 52.13 46.5275 51.85 46.5275C51.62 46.5275 51.5 46.483 51.5 46.4029Z" fill="#5A5A5A"/>
<path d="M94.1 46.2161C94.1 46.0025 94.11 45.9936 94.42 46.1093C94.88 46.2784 94.9 46.4385 94.46 46.4385C94.14 46.4385 94.1 46.4118 94.1 46.2161Z" fill="#5A5A5A"/>
<path d="M3.09 46.2338C3.15 46.1627 3.21 46.0381 3.23 45.9402C3.24 45.8512 3.29 45.7177 3.33 45.6643C3.38 45.602 3.38 45.5486 3.33 45.5486C3.23 45.5486 3.52 45.3706 3.63 45.3706C3.67 45.3706 3.7 45.4952 3.7 45.6376C3.7 45.7889 3.75 45.9046 3.8 45.9046C4.03 45.9046 3.88 46.1004 3.55 46.2249C3.11 46.3851 2.94 46.394 3.09 46.2338Z" fill="#5A5A5A"/>
<path d="M52.3 46.2427C52.3 46.1093 52.71 45.9224 52.88 45.9758C52.95 45.9936 53 46.0826 53 46.1805C53 46.3139 52.93 46.3495 52.65 46.3495C52.44 46.3495 52.3 46.305 52.3 46.2427Z" fill="#5A5A5A"/>
<path d="M6.52 45.9758C6.55 45.9135 6.71 45.8156 6.88 45.7533C7.19 45.6376 7.2 45.6465 7.2 45.8601C7.2 46.0559 7.16 46.0826 6.84 46.0826C6.61 46.0826 6.5 46.047 6.52 45.9758Z" fill="#5A5A5A"/>
<path d="M95.73 45.7711C95.3 45.6109 95.31 45.4596 95.75 45.4596C96.06 45.4596 96.1 45.4863 96.1 45.6821C96.1 45.8067 96.09 45.9046 96.08 45.9046C96.06 45.8957 95.9 45.8423 95.73 45.7711Z" fill="#5A5A5A"/>
<path d="M54.1 45.6376C54.1 45.5664 54.61 45.2816 54.75 45.2816C54.78 45.2816 54.8 45.3795 54.8 45.5041C54.8 45.6999 54.76 45.7266 54.45 45.7266C54.26 45.7266 54.1 45.691 54.1 45.6376Z" fill="#5A5A5A"/>
<path d="M7.72 45.5308C7.75 45.4685 7.91 45.3706 8.08 45.3083C8.39 45.1926 8.4 45.2015 8.4 45.4151C8.4 45.6109 8.36 45.6376 8.04 45.6376C7.81 45.6376 7.7 45.602 7.72 45.5308Z" fill="#5A5A5A"/>
<path d="M48.48 45.5753C48.15 45.5041 48.28 45.2816 48.65 45.2816C48.93 45.2816 49 45.3172 49 45.4596C49 45.6376 48.86 45.6643 48.48 45.5753Z" fill="#5A5A5A"/>
<path d="M50.1 45.4596C50.1 45.3172 50.17 45.2816 50.45 45.2816C50.85 45.2816 50.94 45.4952 50.58 45.5842C50.2 45.6732 50.1 45.6465 50.1 45.4596Z" fill="#5A5A5A"/>
<path d="M39.1 45.2817C38.75 45.0236 38.75 45.0236 39.13 45.0147C39.48 45.0147 39.5 45.0325 39.5 45.2817C39.5 45.4329 39.49 45.5486 39.47 45.5486C39.46 45.5486 39.29 45.4329 39.1 45.2817Z" fill="#5A5A5A"/>
<path d="M96.2 45.2371C96.2 45.0681 96.23 44.9257 96.28 44.9257C96.39 44.9257 96.62 45.0681 96.61 45.1393C96.6 45.166 96.6 45.2016 96.61 45.2194C96.7 45.4774 96.66 45.5486 96.44 45.5486C96.23 45.5486 96.2 45.5041 96.2 45.2371Z" fill="#5A5A5A"/>
<path d="M91.5 45.3706C91.5 45.3261 91.39 45.2816 91.25 45.2816C91.05 45.2816 91 45.2371 91 45.0592C91 44.8367 91 44.8367 91.52 45.0236C92.15 45.246 92.2 45.2727 92.2 45.3795C92.2 45.424 92.04 45.4596 91.85 45.4596C91.66 45.4596 91.5 45.424 91.5 45.3706Z" fill="#5A5A5A"/>
<path d="M5.9 45.1304C5.9 44.8545 5.92 44.8367 6.25 44.8367C6.67 44.8367 6.71 44.9791 6.33 45.1304C6.17 45.1838 6.02 45.2727 5.98 45.3261C5.94 45.3706 5.9 45.2816 5.9 45.1304Z" fill="#5A5A5A"/>
<path d="M51.9 45.2016C51.9 45.0503 51.96 45.0147 52.2 45.0147C52.37 45.0147 52.5 44.9791 52.5 44.9257C52.5 44.8812 52.66 44.8367 52.85 44.8367C53.04 44.8367 53.2 44.8812 53.2 44.9346C53.2 45.0325 52.65 45.2638 52.19 45.3439C51.94 45.3884 51.9 45.3617 51.9 45.2016Z" fill="#5A5A5A"/>
<path d="M8.72 45.1749C8.75 45.1126 8.91 45.0147 9.08 44.9524C9.39 44.8367 9.4 44.8456 9.4 45.0592C9.4 45.2549 9.36 45.2816 9.04 45.2816C8.81 45.2816 8.7 45.246 8.72 45.1749Z" fill="#5A5A5A"/>
<path d="M55 45.2105C55 45.1393 55.52 44.8367 55.64 44.8367C55.67 44.8367 55.7 44.9346 55.7 45.0592C55.7 45.2549 55.66 45.2816 55.35 45.2816C55.16 45.2816 55 45.2461 55 45.2105Z" fill="#5A5A5A"/>
<path d="M63 45.1393C63 45.0681 63.04 45.0236 63.08 45.0503C63.13 45.077 63.26 45.0236 63.37 44.9257C63.61 44.7388 63.7 44.7744 63.7 45.077C63.7 45.255 63.65 45.2817 63.35 45.2817C63.1 45.2817 63 45.2461 63 45.1393Z" fill="#5A5A5A"/>
<path d="M94.2 45.2105C94.2 45.1749 94.07 45.0948 93.9 45.0414C93.49 44.9079 93.52 44.7477 93.95 44.7477C94.27 44.7477 94.3 44.7655 94.3 45.0147C94.3 45.166 94.28 45.2816 94.25 45.2816C94.22 45.2816 94.2 45.2461 94.2 45.2105Z" fill="#5A5A5A"/>
<path d="M45.98 45.1304C45.65 45.0592 45.78 44.8367 46.15 44.8367C46.43 44.8367 46.5 44.8723 46.5 45.0147C46.5 45.1927 46.36 45.2194 45.98 45.1304Z" fill="#5A5A5A"/>
<path d="M3.6 45.0325C3.6 44.899 3.97 44.5697 4.04 44.632C4.07 44.6587 4.1 44.7833 4.1 44.899C4.1 45.0592 4.05 45.1037 3.85 45.1037C3.71 45.1037 3.6 45.0681 3.6 45.0325Z" fill="#5A5A5A"/>
<path d="M53.3 44.7922C53.3 44.5964 53.34 44.5697 53.66 44.5697C54.1 44.5697 54.08 44.7299 53.62 44.899C53.31 45.0147 53.3 45.0058 53.3 44.7922Z" fill="#5A5A5A"/>
<path d="M42 44.6142C42 44.3561 42.07 44.3383 42.36 44.5252C42.48 44.5964 42.6 44.6231 42.64 44.5964C42.67 44.5697 42.7 44.6053 42.7 44.6854C42.7 44.8011 42.61 44.8367 42.35 44.8367C42.04 44.8367 42 44.81 42 44.6142Z" fill="#5A5A5A"/>
<path d="M92.73 44.6142C92.3 44.454 92.31 44.3027 92.75 44.3027C93.06 44.3027 93.1 44.3294 93.1 44.5252C93.1 44.6498 93.09 44.7477 93.08 44.7477C93.06 44.7388 92.9 44.6854 92.73 44.6142Z" fill="#5A5A5A"/>
<path d="M7.8 44.3472C7.8 44.1693 7.85 44.1248 8.05 44.1248C8.19 44.1248 8.3 44.0892 8.3 44.0358C8.3 43.9913 8.41 43.9468 8.55 43.9468C8.69 43.9468 8.8 43.9112 8.8 43.8578C8.8 43.8133 8.96 43.7688 9.15 43.7688C9.6 43.7688 9.6 43.9201 9.15 44.0892C7.8 44.5875 7.8 44.5875 7.8 44.3472Z" fill="#5A5A5A"/>
<path d="M4.7 44.2405C4.7 44.1604 4.73 44.1159 4.76 44.1515C4.79 44.1782 5.03 44.0803 5.3 43.9379C5.87 43.6264 5.9 43.6264 5.9 43.9023C5.9 44.0803 5.85 44.1248 5.65 44.1248C5.49 44.1248 5.4 44.1782 5.4 44.2582C5.4 44.3472 5.29 44.3917 5.05 44.3917C4.79 44.3917 4.7 44.3561 4.7 44.2405Z" fill="#5A5A5A"/>
<path d="M11.4 44.3294C11.4 44.2405 11.6 43.9735 11.6 44.0536C11.6 44.0892 11.71 44.0803 11.85 44.0358C12.07 43.9557 12.1 43.9735 12.1 44.1693C12.1 44.365 12.06 44.3917 11.75 44.3917C11.56 44.3917 11.4 44.365 11.4 44.3294Z" fill="#5A5A5A"/>
<path d="M54.8 44.0892C54.8 43.8845 54.84 43.8578 55.15 43.8578C55.48 43.8578 55.49 43.8667 55.38 44.0358C55.31 44.1337 55.22 44.2138 55.18 44.2138C55.15 44.2138 55.05 44.2405 54.96 44.2672C54.84 44.3116 54.8 44.2672 54.8 44.0892Z" fill="#5A5A5A"/>
<path d="M56.81 44.0536C56.87 43.9735 57.03 43.8489 57.16 43.7955C57.38 43.7065 57.4 43.7154 57.4 43.9557C57.4 44.1871 57.37 44.2138 57.05 44.2138C56.74 44.2138 56.71 44.196 56.81 44.0536Z" fill="#5A5A5A"/>
<path d="M63.1 43.9023C63.1 43.7065 63.14 43.6798 63.45 43.6798C63.71 43.6798 63.8 43.7154 63.8 43.8311C63.8 43.9112 63.77 43.9468 63.74 43.9201C63.7 43.8934 63.58 43.9201 63.46 43.9913C63.17 44.1782 63.1 44.1604 63.1 43.9023Z" fill="#5A5A5A"/>
<path d="M12.6 43.929C12.6 43.7955 13.01 43.6086 13.18 43.662C13.25 43.6798 13.3 43.7688 13.3 43.8667C13.3 44.0002 13.23 44.0358 12.95 44.0358C12.74 44.0358 12.6 43.9913 12.6 43.929Z" fill="#5A5A5A"/>
<path d="M95.5 43.5374C95.5 43.1459 95.68 43.1637 95.87 43.573C96 43.8489 95.99 43.8578 95.75 43.8578C95.53 43.8578 95.5 43.8222 95.5 43.5374Z" fill="#5A5A5A"/>
<path d="M33.2 43.5463C33.2 43.3328 33.21 43.3239 33.52 43.4395C33.98 43.6086 34 43.7688 33.56 43.7688C33.24 43.7688 33.2 43.7421 33.2 43.5463Z" fill="#5A5A5A"/>
<path d="M4.25 43.5018C4.29 43.3772 4.38 43.2349 4.46 43.1815C4.54 43.1281 4.6 43.0391 4.6 42.9768C4.6 42.9234 4.75 42.8789 4.95 42.8789C5.21 42.8789 5.3 42.9145 5.3 43.0302C5.3 43.1103 5.27 43.1548 5.24 43.1192C5.17 43.0658 4.4 43.4662 4.27 43.6264C4.22 43.6798 4.22 43.6264 4.25 43.5018Z" fill="#5A5A5A"/>
<path d="M10.4 43.4573C10.4 43.2616 10.44 43.2349 10.76 43.2349C11.2 43.2349 11.18 43.395 10.72 43.5641C10.41 43.6798 10.4 43.6709 10.4 43.4573Z" fill="#5A5A5A"/>
<path d="M89.43 43.5018C89.3 43.4573 89.2 43.4484 89.2 43.484C89.2 43.5641 89 43.2971 89 43.2171C89 43.1726 89.16 43.1459 89.35 43.1459C89.66 43.1459 89.7 43.1726 89.7 43.3683C89.7 43.4929 89.69 43.5908 89.68 43.5819C89.66 43.5819 89.55 43.5463 89.43 43.5018Z" fill="#5A5A5A"/>
<path d="M41.94 43.3861C41.82 43.3327 41.67 43.2171 41.61 43.1281C41.51 42.9857 41.54 42.9679 41.85 42.9679C42.17 42.9679 42.2 42.9857 42.2 43.2349C42.2 43.3861 42.19 43.4929 42.18 43.4929C42.16 43.484 42.05 43.4395 41.94 43.3861Z" fill="#5A5A5A"/>
<path d="M85.1 43.3239C85.1 43.137 85.2 43.1103 85.58 43.1993C85.94 43.2883 85.85 43.5018 85.45 43.5018C85.17 43.5018 85.1 43.4662 85.1 43.3239Z" fill="#5A5A5A"/>
<path d="M6.6 43.3416C6.6 43.2705 7.12 42.9679 7.24 42.9679C7.27 42.9679 7.3 43.0658 7.3 43.1904C7.3 43.3861 7.26 43.4128 6.95 43.4128C6.76 43.4128 6.6 43.3772 6.6 43.3416Z" fill="#5A5A5A"/>
<path d="M32.1 43.1904C32.1 42.9946 32.13 42.9768 32.35 43.0569C32.49 43.1014 32.6 43.1103 32.6 43.0747C32.6 42.9946 32.8 43.2616 32.8 43.3505C32.8 43.3861 32.64 43.4128 32.45 43.4128C32.14 43.4128 32.1 43.3861 32.1 43.1904Z" fill="#5A5A5A"/>
<path d="M56.3 43.1459C56.3 42.8967 56.33 42.8789 56.65 42.8789C56.97 42.8789 57 42.8611 57 42.6119C57 42.3628 57.03 42.345 57.35 42.345C57.68 42.345 57.69 42.3539 57.58 42.5229C57.51 42.6208 57.4 42.7009 57.33 42.7009C57.27 42.7009 57.13 42.7899 57.03 42.9056C56.93 43.0124 56.73 43.1726 56.58 43.2616C56.3 43.4128 56.3 43.4128 56.3 43.1459Z" fill="#5A5A5A"/>
<path d="M65.1 43.0124C65.1 42.8166 65.14 42.7899 65.46 42.7899C65.9 42.7899 65.88 42.9501 65.42 43.1192C65.11 43.2349 65.1 43.226 65.1 43.0124Z" fill="#5A5A5A"/>
<path d="M83.83 43.1726C83.68 43.1459 83.6 43.0658 83.6 42.959C83.6 42.7632 83.66 42.7543 84.26 42.8878C85.08 43.0747 84.7 43.3238 83.83 43.1726Z" fill="#5A5A5A"/>
<path d="M30.5 42.8789C30.5 42.8344 30.34 42.7899 30.15 42.7899C29.87 42.7899 29.8 42.7543 29.8 42.6119C29.8 42.3984 29.84 42.3984 30.6 42.5852C31.28 42.7454 31.42 42.9679 30.85 42.9679C30.66 42.9679 30.5 42.9323 30.5 42.8789Z" fill="#5A5A5A"/>
<path d="M34.23 42.8344C33.8 42.6742 33.81 42.5229 34.25 42.5229C34.56 42.5229 34.6 42.5496 34.6 42.7454C34.6 42.87 34.59 42.9679 34.58 42.9679C34.56 42.959 34.4 42.9056 34.23 42.8344Z" fill="#5A5A5A"/>
<path d="M13.22 42.8077C13.15 42.7899 13.1 42.7009 13.1 42.603C13.1 42.4695 13.17 42.4339 13.45 42.4339C13.66 42.4339 13.8 42.4784 13.8 42.5496C13.8 42.6742 13.39 42.8611 13.22 42.8077Z" fill="#5A5A5A"/>
<path d="M17.4 42.7543C17.4 42.6386 17.68 42.5229 17.98 42.5229C18.04 42.5229 18.1 42.603 18.1 42.7009C18.1 42.8433 18.03 42.8789 17.75 42.8789C17.52 42.8789 17.4 42.8344 17.4 42.7543Z" fill="#5A5A5A"/>
<path d="M58.72 42.7009C58.79 42.603 58.88 42.5229 58.92 42.5229C58.95 42.5229 59.05 42.4962 59.14 42.4695C59.26 42.425 59.3 42.4695 59.3 42.6475C59.3 42.8522 59.26 42.8789 58.95 42.8789C58.62 42.8789 58.61 42.87 58.72 42.7009Z" fill="#5A5A5A"/>
<path d="M82.3 42.7009C82.3 42.514 82.4 42.4873 82.78 42.5763C83.14 42.6653 83.05 42.8789 82.65 42.8789C82.37 42.8789 82.3 42.8433 82.3 42.7009Z" fill="#5A5A5A"/>
<path d="M4.73 42.4161C4.92 42.0068 5.1 41.989 5.1 42.3806C5.1 42.6653 5.07 42.7009 4.85 42.7009C4.61 42.7009 4.6 42.692 4.73 42.4161Z" fill="#5A5A5A"/>
<path d="M38.7 42.4428C38.7 42.2026 38.72 42.1937 38.94 42.2827C39.07 42.3361 39.23 42.4606 39.29 42.5407C39.39 42.6831 39.36 42.7009 39.05 42.7009C38.73 42.7009 38.7 42.6742 38.7 42.4428Z" fill="#5A5A5A"/>
<path d="M18.9 42.4873C18.9 42.3183 19.21 42.2471 20.38 42.1314C20.83 42.0869 20.9 42.1047 20.9 42.2382C20.9 42.3716 20.75 42.4161 20.07 42.5051C19.01 42.6386 18.9 42.6386 18.9 42.4873Z" fill="#5A5A5A"/>
<path d="M33.14 42.5051C33.11 42.4606 33.05 42.4517 33 42.4784C32.93 42.514 32.8 42.3361 32.8 42.2026C32.8 42.1848 32.96 42.167 33.15 42.167C33.45 42.167 33.5 42.1937 33.5 42.3717C33.5 42.5763 33.25 42.6653 33.14 42.5051Z" fill="#5A5A5A"/>
<path d="M70.7 42.4606C70.7 42.3449 70.79 42.2916 71.05 42.2827C71.34 42.256 71.4 42.2827 71.4 42.4339C71.4 42.5763 71.33 42.6119 71.05 42.6119C70.78 42.6119 70.7 42.5763 70.7 42.4606Z" fill="#5A5A5A"/>
<path d="M80.23 42.4962C79.67 42.4161 79.6 42.3894 79.6 42.2026C79.6 42.0157 79.63 42.0068 79.84 42.078C79.98 42.1225 80.3 42.1759 80.57 42.2026C81.24 42.2649 81.5 42.3449 81.5 42.4873C81.5 42.6297 81.17 42.6297 80.23 42.4962Z" fill="#5A5A5A"/>
<path d="M71.6 42.2471C71.6 42.1492 71.63 42.0869 71.68 42.1047C71.72 42.1314 71.98 42.1136 72.25 42.0691C72.53 42.0246 72.99 41.9712 73.28 41.9356C73.74 41.8911 73.8 41.9089 73.8 42.0513C73.8 42.2026 73.67 42.2382 72.83 42.3272C71.58 42.4695 71.6 42.4695 71.6 42.2471Z" fill="#5A5A5A"/>
<path d="M40 42.0335C39.75 41.8644 39.5 41.722 39.45 41.722C39.39 41.722 39.29 41.6419 39.22 41.544C39.11 41.375 39.12 41.3661 39.45 41.3661C39.76 41.3661 39.8 41.3928 39.8 41.5885C39.8 41.7843 39.84 41.811 40.15 41.811C40.47 41.811 40.5 41.8288 40.5 42.078C40.5 42.2293 40.49 42.345 40.48 42.345C40.46 42.345 40.25 42.2026 40 42.0335Z" fill="#5A5A5A"/>
<path d="M78.8 42.167C78.8 41.9801 78.9 41.9534 79.28 42.0424C79.64 42.1314 79.55 42.3449 79.15 42.3449C78.87 42.3449 78.8 42.3093 78.8 42.167Z" fill="#5A5A5A"/>
<path d="M21.9 42.1314C21.9 42.0157 22.18 41.9 22.48 41.9C22.54 41.9 22.6 41.9801 22.6 42.078C22.6 42.2204 22.53 42.256 22.25 42.256C22.02 42.256 21.9 42.2115 21.9 42.1314Z" fill="#5A5A5A"/>
<path d="M26.6 42.078C26.6 41.8911 26.7 41.8644 27.08 41.9534C27.44 42.0424 27.35 42.256 26.95 42.256C26.67 42.256 26.6 42.2204 26.6 42.078Z" fill="#5A5A5A"/>
<path d="M77.8 42.078C77.8 41.8911 77.96 41.8555 78.38 41.9534C78.77 42.0513 78.65 42.256 78.2 42.256C77.87 42.256 77.8 42.2293 77.8 42.078Z" fill="#5A5A5A"/>
<path d="M15.6 41.989C15.6 41.8466 15.67 41.811 15.95 41.811C16.35 41.811 16.44 42.0246 16.08 42.1136C15.7 42.2026 15.6 42.1759 15.6 41.989Z" fill="#5A5A5A"/>
<path d="M23.6 42.0424C23.6 41.9267 23.88 41.811 24.18 41.811C24.24 41.811 24.3 41.8911 24.3 41.989C24.3 42.1314 24.23 42.167 23.95 42.167C23.72 42.167 23.6 42.1225 23.6 42.0424Z" fill="#5A5A5A"/>
<path d="M25.6 41.989C25.6 41.8021 25.7 41.7754 26.08 41.8644C26.44 41.9534 26.35 42.167 25.95 42.167C25.67 42.167 25.6 42.1314 25.6 41.989Z" fill="#5A5A5A"/>
<path d="M74.1 42.0424C74.1 41.8911 74.41 41.811 75.03 41.811C75.43 41.811 75.5 41.8377 75.5 41.989C75.5 42.1492 75.43 42.167 74.8 42.167C74.27 42.167 74.1 42.1403 74.1 42.0424Z" fill="#5A5A5A"/>
<path d="M75.9 41.989C75.9 41.8377 75.97 41.811 76.38 41.811C76.99 41.811 77.3 41.8911 77.3 42.0424C77.3 42.1403 77.13 42.167 76.6 42.167C75.97 42.167 75.9 42.1492 75.9 41.989Z" fill="#5A5A5A"/>
<path d="M84.1 41.9712C84.1 41.8466 84.18 41.811 84.45 41.811C84.73 41.811 84.8 41.8466 84.8 41.989C84.8 42.1403 84.74 42.167 84.45 42.1403C84.19 42.1314 84.1 42.078 84.1 41.9712Z" fill="#5A5A5A"/>
<path d="M16.8 41.722C16.8 41.5796 16.87 41.544 17.15 41.544C17.55 41.544 17.64 41.7576 17.28 41.8466C16.9 41.9356 16.8 41.9089 16.8 41.722Z" fill="#5A5A5A"/>
<path d="M82.4 41.722C82.21 41.6775 82.02 41.6686 81.98 41.6864C81.93 41.7131 81.9 41.6508 81.9 41.5529C81.9 41.3482 82.06 41.3215 82.73 41.4194C83 41.4639 83.1 41.5173 83.1 41.6419C83.1 41.8288 82.97 41.8377 82.4 41.722Z" fill="#5A5A5A"/>
<path d="M90.78 41.7487C90.57 41.7042 90.54 41.4017 90.74 41.3394C90.81 41.3127 90.93 41.3394 90.99 41.3928C91.05 41.4461 91.1 41.455 91.1 41.4195C91.1 41.375 91.17 41.3928 91.25 41.455C91.33 41.5173 91.4 41.5351 91.4 41.4906C91.4 41.3928 91.6 41.6508 91.6 41.7487C91.6 41.811 91.07 41.8199 90.78 41.7487Z" fill="#5A5A5A"/>
<path d="M30.08 41.6597C29.75 41.5885 29.88 41.3661 30.25 41.3661C30.53 41.3661 30.6 41.4017 30.6 41.544C30.6 41.722 30.46 41.7487 30.08 41.6597Z" fill="#5A5A5A"/>
<path d="M69.8 41.544C69.8 41.4017 69.87 41.3661 70.15 41.3661C70.55 41.3661 70.64 41.5796 70.28 41.6686C69.9 41.7576 69.8 41.7309 69.8 41.544Z" fill="#5A5A5A"/>
<path d="M5.23 41.3482C5.42 40.9389 5.6 40.9211 5.6 41.3127C5.6 41.5974 5.57 41.633 5.35 41.633C5.11 41.633 5.1 41.6241 5.23 41.3482Z" fill="#5A5A5A"/>
<path d="M70.6 41.366C70.6 41.2237 70.67 41.1881 70.95 41.1881C71.35 41.1881 71.44 41.4016 71.08 41.4906C70.7 41.5796 70.6 41.5529 70.6 41.366Z" fill="#5A5A5A"/>
<path d="M19.4 41.286C19.4 41.1703 19.46 41.0991 19.58 41.0991C19.67 41.0991 19.99 41.0724 20.28 41.0457C20.71 40.9923 20.8 41.0101 20.8 41.1258C20.8 41.2593 20.68 41.3038 19.83 41.4105C19.44 41.4639 19.4 41.455 19.4 41.286Z" fill="#5A5A5A"/>
<path d="M80.5 41.4105C80.42 41.3927 80.18 41.3572 79.98 41.3216C79.74 41.286 79.6 41.2237 79.6 41.1436C79.6 40.9923 79.71 40.9834 80.48 41.0635C80.9 41.1169 81 41.1525 81 41.286C81 41.4461 80.88 41.4728 80.5 41.4105Z" fill="#5A5A5A"/>
<path d="M28.4 41.3216C28.32 41.3038 28.08 41.2682 27.88 41.2326C27.64 41.197 27.5 41.1347 27.5 41.0546C27.5 40.9033 27.61 40.8944 28.38 40.9745C28.8 41.0279 28.9 41.0635 28.9 41.197C28.9 41.3572 28.78 41.3839 28.4 41.3216Z" fill="#5A5A5A"/>
<path d="M72.26 41.3038C72.23 41.2771 72.2 41.1792 72.2 41.0991C72.2 40.9834 72.32 40.93 72.73 40.8855C73.54 40.8054 73.8 40.8143 73.8 40.9567C73.8 41.0991 73.5 41.1881 73.02 41.1881C72.84 41.1881 72.61 41.2237 72.51 41.2771C72.41 41.3216 72.3 41.3305 72.26 41.3038Z" fill="#5A5A5A"/>
<path d="M79.13 41.2593C78.68 41.1258 78.7 40.9211 79.15 40.9211C79.46 40.9211 79.5 40.9478 79.5 41.1436C79.5 41.2682 79.49 41.3661 79.48 41.3572C79.46 41.3483 79.3 41.3038 79.13 41.2593Z" fill="#5A5A5A"/>
<path d="M21.9 41.0101C21.9 40.8677 21.97 40.8321 22.25 40.8321C22.65 40.8321 22.74 41.0457 22.38 41.1347C22 41.2237 21.9 41.197 21.9 41.0101Z" fill="#5A5A5A"/>
<path d="M26.88 41.1258C26.55 41.0546 26.68 40.8321 27.05 40.8321C27.33 40.8321 27.4 40.8677 27.4 41.0101C27.4 41.1881 27.26 41.2148 26.88 41.1258Z" fill="#5A5A5A"/>
<path d="M77.98 41.1258C77.62 41.0457 77.78 40.8321 78.2 40.8321C78.53 40.8321 78.6 40.8588 78.6 41.0101C78.6 41.1881 78.4 41.2237 77.98 41.1258Z" fill="#5A5A5A"/>
<path d="M88.6 41.0101C88.6 40.8232 88.7 40.7965 89.08 40.8855C89.44 40.9745 89.35 41.1881 88.95 41.1881C88.67 41.1881 88.6 41.1525 88.6 41.0101Z" fill="#5A5A5A"/>
<path d="M23.6 40.9211C23.6 40.7787 23.67 40.7431 23.95 40.7431C24.35 40.7431 24.44 40.9567 24.08 41.0457C23.7 41.1347 23.6 41.108 23.6 40.9211Z" fill="#5A5A5A"/>
<path d="M25.78 41.0368C25.45 40.9656 25.58 40.7431 25.95 40.7431C26.23 40.7431 26.3 40.7787 26.3 40.9211C26.3 41.0991 26.16 41.1258 25.78 41.0368Z" fill="#5A5A5A"/>
<path d="M60 40.8766C60 40.6808 60.04 40.6541 60.35 40.6541C60.78 40.6541 60.8 40.7787 60.4 40.9656C60.02 41.1436 60 41.1347 60 40.8766Z" fill="#5A5A5A"/>
<path d="M74.1 40.9211C74.1 40.7609 74.17 40.7431 74.85 40.7431C75.42 40.7431 75.6 40.7698 75.6 40.8677C75.6 41.019 75.29 41.0991 74.63 41.0991C74.17 41.0991 74.1 41.0724 74.1 40.9211Z" fill="#5A5A5A"/>
<path d="M75.98 41.0368C75.88 41.019 75.8 40.9389 75.8 40.8677C75.8 40.7698 75.97 40.7431 76.55 40.7431C77.23 40.7431 77.3 40.7609 77.3 40.9211C77.3 41.0813 77.24 41.0991 76.73 41.0902C76.41 41.0813 76.07 41.0635 75.98 41.0368Z" fill="#5A5A5A"/>
<path d="M92.33 41.0101C92.2 40.9656 92.1 40.9478 92.1 40.9834C92.1 41.0101 92.03 40.9834 91.95 40.9211C91.87 40.8588 91.8 40.841 91.8 40.8766C91.8 40.9122 91.74 40.8944 91.67 40.841C91.59 40.7876 91.5 40.7698 91.47 40.8054C91.43 40.8321 91.4 40.8143 91.4 40.752C91.4 40.6986 91.34 40.6541 91.28 40.663C91.04 40.6897 90.7 40.5473 90.7 40.4228C90.7 40.3427 90.82 40.2982 91.05 40.2982C91.24 40.2982 91.4 40.3427 91.4 40.3872C91.4 40.4405 91.5 40.4761 91.61 40.4761C91.73 40.4761 92 40.5206 92.21 40.5829C92.52 40.663 92.6 40.7253 92.6 40.8944C92.6 41.0012 92.59 41.0991 92.58 41.0902C92.56 41.0902 92.45 41.0546 92.33 41.0101Z" fill="#5A5A5A"/>
<path d="M9.8 40.6986C9.8 40.5028 9.84 40.4761 10.16 40.4761C10.6 40.4761 10.58 40.6363 10.12 40.8054C9.81 40.9211 9.8 40.9122 9.8 40.6986Z" fill="#5A5A5A"/>
<path d="M12.62 40.8143C12.65 40.752 12.81 40.6541 12.98 40.5918C13.29 40.4761 13.3 40.485 13.3 40.6986C13.3 40.8944 13.26 40.9211 12.94 40.9211C12.71 40.9211 12.6 40.8855 12.62 40.8143Z" fill="#5A5A5A"/>
<path d="M10.7 40.4138C10.7 40.138 10.72 40.1202 11.05 40.1202C11.47 40.1202 11.51 40.2626 11.13 40.4138C10.97 40.4672 10.82 40.5562 10.78 40.6096C10.74 40.6541 10.7 40.5651 10.7 40.4138Z" fill="#5A5A5A"/>
<path d="M13.7 40.4761C13.7 40.3872 14.06 40.1825 14.28 40.1558C14.35 40.1469 14.4 40.227 14.4 40.3516C14.4 40.5384 14.35 40.5651 14.05 40.5651C13.86 40.5651 13.7 40.5295 13.7 40.4761Z" fill="#5A5A5A"/>
<path d="M65.5 40.3516C65.5 40.2359 65.78 40.1202 66.08 40.1202C66.14 40.1202 66.2 40.2003 66.2 40.2982C66.2 40.4405 66.13 40.4761 65.85 40.4761C65.62 40.4761 65.5 40.4316 65.5 40.3516Z" fill="#5A5A5A"/>
<path d="M93.9 40.1558C93.9 39.7642 94.08 39.782 94.27 40.1914C94.4 40.4672 94.39 40.4761 94.15 40.4761C93.93 40.4761 93.9 40.4405 93.9 40.1558Z" fill="#5A5A5A"/>
<path d="M33.8 40.2092C33.8 40.1647 33.69 40.1202 33.55 40.1202C33.35 40.1202 33.3 40.0757 33.3 39.8977C33.3 39.6752 33.3 39.6752 33.82 39.8621C34.45 40.0846 34.5 40.1113 34.5 40.2181C34.5 40.2626 34.34 40.2982 34.15 40.2982C33.96 40.2982 33.8 40.2626 33.8 40.2092Z" fill="#5A5A5A"/>
<path d="M62.2 40.0846C62.2 39.9244 62.28 39.8621 62.59 39.782C63.03 39.6574 63.5 39.6396 63.5 39.7464C63.5 39.8354 63.3 40.0935 63.3 39.9956C63.3 39.9511 63.23 39.9689 63.15 40.0312C63.07 40.0935 63 40.1113 63 40.0757C63 40.0401 62.93 40.0579 62.85 40.1202C62.77 40.1825 62.7 40.2092 62.7 40.1736C62.7 40.1469 62.59 40.1647 62.45 40.2092C62.23 40.2804 62.2 40.2715 62.2 40.0846Z" fill="#5A5A5A"/>
<path d="M83.82 40.2359C83.54 40.2003 83.49 40.1647 83.52 40.0045C83.54 39.8799 83.61 39.8265 83.7 39.8443C83.78 39.8621 83.94 39.8888 84.05 39.8977C84.48 39.9422 84.8 40.0579 84.8 40.1736C84.8 40.2982 84.55 40.316 83.82 40.2359Z" fill="#5A5A5A"/>
<path d="M89.23 40.138C88.61 39.9867 88.51 39.7642 89.05 39.7642C89.24 39.7642 89.4 39.8087 89.4 39.8532C89.4 39.9066 89.56 39.9422 89.75 39.9422C90.03 39.9422 90.1 39.9778 90.1 40.1202C90.1 40.3338 89.96 40.3338 89.23 40.138Z" fill="#5A5A5A"/>
<path d="M67.5 39.9956C67.5 39.8799 67.78 39.7642 68.08 39.7642C68.14 39.7642 68.2 39.8443 68.2 39.9422C68.2 40.0846 68.13 40.1202 67.85 40.1202C67.62 40.1202 67.5 40.0757 67.5 39.9956Z" fill="#5A5A5A"/>
<path d="M16.2 39.7286C16.2 39.6129 16.48 39.4972 16.78 39.4972C16.84 39.4972 16.9 39.5773 16.9 39.6752C16.9 39.8176 16.83 39.8532 16.55 39.8532C16.32 39.8532 16.2 39.8087 16.2 39.7286Z" fill="#5A5A5A"/>
<path d="M69.5 39.7286C69.5 39.6129 69.78 39.4972 70.08 39.4972C70.14 39.4972 70.2 39.5773 70.2 39.6752C70.2 39.8176 70.13 39.8532 69.85 39.8532C69.62 39.8532 69.5 39.8087 69.5 39.7286Z" fill="#5A5A5A"/>
<path d="M80.5 39.6752C80.5 39.4883 80.6 39.4617 80.98 39.5506C81.34 39.6396 81.25 39.8532 80.85 39.8532C80.57 39.8532 80.5 39.8176 80.5 39.6752Z" fill="#5A5A5A"/>
<path d="M13 39.5328C13 39.346 13.05 39.3193 13.35 39.3193C13.75 39.3193 13.8 39.4438 13.48 39.604C13.11 39.782 13 39.7642 13 39.5328Z" fill="#5A5A5A"/>
<path d="M32.2 39.5862C32.2 39.3994 32.3 39.3727 32.68 39.4617C33.04 39.5506 32.95 39.7642 32.55 39.7642C32.27 39.7642 32.2 39.7286 32.2 39.5862Z" fill="#5A5A5A"/>
<path d="M63.8 39.5862C63.8 39.4439 63.87 39.4083 64.15 39.4083C64.55 39.4083 64.64 39.6218 64.28 39.7108C63.9 39.7998 63.8 39.7731 63.8 39.5862Z" fill="#5A5A5A"/>
<path d="M71.8 39.5506C71.8 39.4349 72.08 39.3193 72.38 39.3193C72.44 39.3193 72.5 39.3994 72.5 39.4972C72.5 39.6396 72.43 39.6752 72.15 39.6752C71.92 39.6752 71.8 39.6307 71.8 39.5506Z" fill="#5A5A5A"/>
<path d="M74.9 39.4617C74.9 39.3104 75.27 39.2214 75.58 39.2926C75.99 39.3816 75.84 39.5862 75.35 39.5862C75.03 39.5862 74.9 39.5506 74.9 39.4617Z" fill="#5A5A5A"/>
<path d="M86.38 39.5239C86.05 39.4528 86.18 39.2303 86.55 39.2303C86.83 39.2303 86.9 39.2659 86.9 39.4083C86.9 39.5862 86.76 39.6129 86.38 39.5239Z" fill="#5A5A5A"/>
<path d="M6.33 39.2125C6.52 38.8031 6.7 38.7853 6.7 39.1769C6.7 39.4616 6.67 39.4972 6.45 39.4972C6.21 39.4972 6.2 39.4883 6.33 39.2125Z" fill="#5A5A5A"/>
<path d="M18.2 39.2837C18.2 39.168 18.48 39.0523 18.78 39.0523C18.84 39.0523 18.9 39.1324 18.9 39.2303C18.9 39.3727 18.83 39.4083 18.55 39.4083C18.32 39.4083 18.2 39.3638 18.2 39.2837Z" fill="#5A5A5A"/>
<path d="M14.1 39.1413C14.1 38.9989 14.17 38.9633 14.45 38.9633C14.85 38.9633 14.94 39.1769 14.58 39.2659C14.2 39.3549 14.1 39.3282 14.1 39.1413Z" fill="#5A5A5A"/>
<path d="M19.2 39.1146C19.2 38.9989 19.75 38.7675 19.84 38.8565C19.87 38.8832 19.9 38.9811 19.9 39.0701C19.9 39.1947 19.82 39.2303 19.55 39.2303C19.33 39.2303 19.2 39.1858 19.2 39.1146Z" fill="#5A5A5A"/>
<path d="M66.8 38.9633C66.8 38.8209 66.87 38.7853 67.15 38.7853C67.55 38.7853 67.64 38.9989 67.28 39.0879C66.9 39.1769 66.8 39.1502 66.8 38.9633Z" fill="#5A5A5A"/>
<path d="M28.9 38.8921C28.9 38.6518 28.98 38.6162 29.31 38.723C29.72 38.8654 29.68 39.0523 29.25 39.0523C28.98 39.0523 28.9 39.0167 28.9 38.8921Z" fill="#5A5A5A"/>
<path d="M33.53 38.9188C33.1 38.7586 33.11 38.6073 33.55 38.6073C33.86 38.6073 33.9 38.634 33.9 38.8298C33.9 38.9544 33.89 39.0523 33.88 39.0523C33.86 39.0434 33.7 38.99 33.53 38.9188Z" fill="#5A5A5A"/>
<path d="M21.9 38.7497C21.9 38.634 22.18 38.5183 22.48 38.5183C22.54 38.5183 22.6 38.5984 22.6 38.6963C22.6 38.8387 22.53 38.8743 22.25 38.8743C22.02 38.8743 21.9 38.8298 21.9 38.7497Z" fill="#5A5A5A"/>
<path d="M27.4 38.6963C27.4 38.5095 27.5 38.4828 27.88 38.5717C28.24 38.6607 28.15 38.8743 27.75 38.8743C27.47 38.8743 27.4 38.8387 27.4 38.6963Z" fill="#5A5A5A"/>
<path d="M23.1 38.6607C23.1 38.545 23.38 38.4294 23.68 38.4294C23.74 38.4294 23.8 38.5094 23.8 38.6073C23.8 38.7497 23.73 38.7853 23.45 38.7853C23.22 38.7853 23.1 38.7408 23.1 38.6607Z" fill="#5A5A5A"/>
<path d="M26.2 38.6073C26.2 38.4205 26.3 38.3938 26.68 38.4827C27.04 38.5717 26.95 38.7853 26.55 38.7853C26.27 38.7853 26.2 38.7497 26.2 38.6073Z" fill="#5A5A5A"/>
<path d="M79.68 38.634C79.35 38.5628 79.48 38.3404 79.85 38.3404C80.13 38.3404 80.2 38.376 80.2 38.5183C80.2 38.6963 80.06 38.723 79.68 38.634Z" fill="#5A5A5A"/>
<path d="M71.8 38.4294C71.8 38.287 71.87 38.2514 72.15 38.2514C72.55 38.2514 72.64 38.465 72.28 38.5539C71.9 38.6429 71.8 38.6162 71.8 38.4294Z" fill="#5A5A5A"/>
<path d="M78.28 38.545C77.95 38.4738 78.08 38.2514 78.45 38.2514C78.73 38.2514 78.8 38.287 78.8 38.4294C78.8 38.6073 78.66 38.634 78.28 38.545Z" fill="#5A5A5A"/>
<path d="M17.2 38.3493C17.2 38.2247 17.32 38.1624 17.77 38.0823C18.52 37.9488 18.8 37.9577 18.8 38.109C18.8 38.1891 18.55 38.2781 18.09 38.376C17.2 38.5539 17.2 38.5539 17.2 38.3493Z" fill="#5A5A5A"/>
<path d="M31.78 38.4561C31.45 38.3849 31.58 38.1624 31.95 38.1624C32.23 38.1624 32.3 38.198 32.3 38.3404C32.3 38.5183 32.16 38.545 31.78 38.4561Z" fill="#5A5A5A"/>
<path d="M74.9 38.3404C74.9 38.1891 74.97 38.1624 75.3 38.1624C75.63 38.1624 75.7 38.1891 75.7 38.3404C75.7 38.4917 75.63 38.5183 75.3 38.5183C74.97 38.5183 74.9 38.4917 74.9 38.3404Z" fill="#5A5A5A"/>
<path d="M19.66 38.0912C19.63 38.0645 19.6 37.9666 19.6 37.8776C19.6 37.753 19.68 37.7174 19.95 37.7174C20.17 37.7174 20.3 37.7619 20.3 37.8331C20.3 37.9488 19.75 38.1802 19.66 38.0912Z" fill="#5A5A5A"/>
<path d="M29.43 37.9666C28.97 37.8776 28.82 37.6284 29.23 37.6284C29.81 37.6284 30.2 37.7441 30.2 37.9043C30.2 38.0912 30.08 38.1001 29.43 37.9666Z" fill="#5A5A5A"/>
<path d="M20.9 37.7174C20.9 37.575 20.97 37.5394 21.25 37.5394C21.65 37.5394 21.74 37.753 21.38 37.842C21 37.931 20.9 37.9043 20.9 37.7174Z" fill="#5A5A5A"/>
<path d="M27.83 37.7886C27.38 37.6551 27.4 37.4505 27.85 37.4505C28.16 37.4505 28.2 37.4772 28.2 37.6729C28.2 37.7975 28.19 37.8954 28.18 37.8865C28.16 37.8776 28 37.8331 27.83 37.7886Z" fill="#5A5A5A"/>
<path d="M23.1 37.5394C23.1 37.3971 23.17 37.3615 23.45 37.3615C23.85 37.3615 23.94 37.575 23.58 37.664C23.2 37.753 23.1 37.7263 23.1 37.5394Z" fill="#5A5A5A"/>
<path d="M26.38 37.6551C26.05 37.5839 26.18 37.3615 26.55 37.3615C26.83 37.3615 26.9 37.3971 26.9 37.5394C26.9 37.7174 26.76 37.7441 26.38 37.6551Z" fill="#5A5A5A"/>
<path d="M91.9 36.6051C91.9 36.2224 92 36.2135 92.23 36.5517C92.45 36.8898 92.45 36.9165 92.15 36.9165C91.93 36.9165 91.9 36.8809 91.9 36.6051Z" fill="#5A5A5A"/>
<path d="M87.9 30.8117C87.9 30.4647 87.99 30.4736 88.3 30.8651C88.51 31.1321 88.51 31.1321 88.21 31.1321C87.92 31.1321 87.9 31.1054 87.9 30.8117Z" fill="#5A5A5A"/>
<path d="M11 30.1977C11 30.0375 11.05 29.9752 11.19 29.9752C11.36 29.9752 11.37 30.0019 11.27 30.1977C11.12 30.4825 11 30.4825 11 30.1977Z" fill="#5A5A5A"/>
<path d="M13.03 29.3167C13.09 29.201 13.23 29.0586 13.32 29.0052C13.48 28.9162 13.5 28.9429 13.5 29.2188C13.5 29.5036 13.47 29.5303 13.21 29.5303C12.94 29.5303 12.93 29.5125 13.03 29.3167Z" fill="#5A5A5A"/>
<path d="M87.78 28.9073C87.5 28.5959 87.5 28.5959 87.76 28.5692C88.09 28.5336 88.12 28.5603 88.08 28.9162C88.05 29.2188 88.05 29.2188 87.78 28.9073Z" fill="#5A5A5A"/>
<path d="M88.2 28.7116C88.2 28.6048 88.3 28.0619 88.42 27.5102C88.6 26.6737 88.67 26.5046 88.82 26.5046C89.04 26.5046 89.05 26.4512 88.75 27.7505C88.61 28.3556 88.5 28.8539 88.5 28.8717C88.5 28.8895 88.43 28.9073 88.35 28.9073C88.26 28.9073 88.2 28.8272 88.2 28.7116Z" fill="#5A5A5A"/>
<path d="M85.6 28.1509C85.6 27.875 85.62 27.8483 85.78 27.9373C85.87 27.9907 86.01 28.1331 86.07 28.2488C86.17 28.4446 86.16 28.4624 85.89 28.4624C85.63 28.4624 85.6 28.4357 85.6 28.1509Z" fill="#5A5A5A"/>
<path d="M14.22 28.0174C14.29 27.9106 14.56 27.6259 14.83 27.3678C15.3 26.9139 15.3 26.9139 15.3 27.2432C15.3 27.5458 15.28 27.5725 15 27.5725C14.72 27.5725 14.7 27.5992 14.7 27.8839C14.7 28.1687 14.68 28.1954 14.4 28.1954C14.12 28.1954 14.11 28.1776 14.22 28.0174Z" fill="#5A5A5A"/>
<path d="M86.74 27.7772C86.01 26.9851 86.04 27.0385 86.39 27.0385C86.67 27.0385 86.7 27.0652 86.7 27.3055C86.7 27.528 86.74 27.5725 86.95 27.5725C87.17 27.5725 87.2 27.6081 87.2 27.8839C87.2 28.053 87.18 28.1954 87.17 28.1954C87.15 28.1954 86.96 28.0085 86.74 27.7772Z" fill="#5A5A5A"/>
<path d="M10.26 26.9317C10.16 26.5936 10.19 26.5046 10.4 26.5046C10.56 26.5046 10.6 26.5669 10.6 26.8161C10.6 27.172 10.36 27.2521 10.26 26.9317Z" fill="#5A5A5A"/>
<path d="M14.2 26.469C14.2 26.1753 14.22 26.1486 14.51 26.1486C14.81 26.1486 14.81 26.1486 14.6 26.4156C14.29 26.8072 14.2 26.816 14.2 26.469Z" fill="#5A5A5A"/>
<path d="M15.82 26.3978C15.95 26.2465 16.21 26.0151 16.39 25.8905C16.72 25.6681 16.72 25.6681 16.68 25.9795C16.66 26.1931 16.58 26.3088 16.43 26.3711C16.3 26.4156 16.2 26.5046 16.2 26.5669C16.2 26.6381 16.07 26.6826 15.89 26.6826C15.57 26.6826 15.57 26.6826 15.82 26.3978Z" fill="#5A5A5A"/>
<path d="M84.81 25.8372C84.61 25.5257 84.61 25.5257 84.9 25.5257C85.18 25.5257 85.2 25.5524 85.2 25.8372C85.2 26.0062 85.16 26.1486 85.11 26.1486C85.06 26.1486 84.93 26.0062 84.81 25.8372Z" fill="#5A5A5A"/>
<path d="M9.93 25.4456C9.81 25.1519 9.85 25.0807 10.12 25.0807C10.26 25.0807 10.3 25.1519 10.3 25.3922C10.3 25.7749 10.09 25.8105 9.93 25.4456Z" fill="#5A5A5A"/>
<path d="M83.78 24.9205C83.36 24.6892 83.35 24.5468 83.75 24.5468C84.07 24.5468 84.1 24.5646 84.1 24.8138C84.1 24.965 84.09 25.0807 84.08 25.0718C84.06 25.0718 83.93 25.0006 83.78 24.9205Z" fill="#5A5A5A"/>
<path d="M17.65 24.796C17.68 24.7337 17.84 24.6091 18 24.529C18.3 24.3777 18.3 24.3777 18.3 24.6358C18.3 24.885 18.27 24.9028 17.95 24.9028C17.72 24.9028 17.62 24.8672 17.65 24.796Z" fill="#5A5A5A"/>
<path d="M89.1 24.5023C89.1 24.2531 89.14 24.1908 89.3 24.1908C89.51 24.1908 89.54 24.2798 89.44 24.618C89.34 24.9383 89.1 24.8583 89.1 24.5023Z" fill="#5A5A5A"/>
<path d="M9.73 24.4667C9.61 24.173 9.65 24.1018 9.92 24.1018C10.06 24.1018 10.1 24.173 10.1 24.4133C10.1 24.796 9.89 24.8316 9.73 24.4667Z" fill="#5A5A5A"/>
<path d="M89.3 23.5234C89.3 23.2742 89.34 23.2119 89.5 23.2119C89.71 23.2119 89.74 23.3009 89.64 23.6391C89.54 23.9594 89.3 23.8794 89.3 23.5234Z" fill="#5A5A5A"/>
<path d="M80.2 23.4878C80.2 23.2475 80.22 23.2386 80.44 23.3276C80.57 23.381 80.73 23.5056 80.79 23.5857C80.89 23.7281 80.86 23.7459 80.55 23.7459C80.23 23.7459 80.2 23.7192 80.2 23.4878Z" fill="#5A5A5A"/>
<path d="M19.91 23.1407C19.97 23.0606 20.13 22.9361 20.26 22.8827C20.48 22.7937 20.5 22.8026 20.5 23.0428C20.5 23.2742 20.47 23.3009 20.15 23.3009C19.84 23.3009 19.81 23.2831 19.91 23.1407Z" fill="#5A5A5A"/>
<path d="M80.54 22.4733C80.42 22.4199 80.27 22.3042 80.21 22.2152C80.11 22.0728 80.14 22.055 80.45 22.055C80.77 22.055 80.8 22.0728 80.8 22.322C80.8 22.4733 80.79 22.5801 80.78 22.5801C80.76 22.5712 80.65 22.5267 80.54 22.4733Z" fill="#5A5A5A"/>
<path d="M19.4 22.233C19.4 21.9839 19.43 21.9661 19.75 21.9661C20.06 21.9661 20.1 21.9394 20.1 21.7436C20.1 21.5478 20.14 21.5211 20.45 21.5211C20.78 21.5211 20.79 21.53 20.68 21.6991C20.61 21.797 20.5 21.8771 20.44 21.8771C20.38 21.8771 20.22 21.9661 20.08 22.0817C19.94 22.1885 19.73 22.3309 19.61 22.3932C19.41 22.4911 19.4 22.4822 19.4 22.233Z" fill="#5A5A5A"/>
<path d="M89.6 22.0105C89.6 21.7703 89.64 21.6991 89.78 21.6991C90.05 21.6991 90.09 21.7703 89.97 22.0639C89.81 22.4288 89.6 22.3932 89.6 22.0105Z" fill="#5A5A5A"/>
<path d="M77.7 22.055C77.7 22.0106 77.63 21.9661 77.55 21.9661C77.46 21.9661 77.4 21.886 77.4 21.7614C77.4 21.3698 77.45 21.3787 78.19 21.9394C78.45 22.1351 78.45 22.1351 78.08 22.144C77.87 22.144 77.7 22.1084 77.7 22.055Z" fill="#5A5A5A"/>
<path d="M22.6 21.5389C22.6 21.4944 22.71 21.4054 22.85 21.3431C22.99 21.2808 23.1 21.1918 23.1 21.1473C23.1 21.1028 23.15 21.0939 23.2 21.1206C23.26 21.1473 23.3 21.2719 23.3 21.3965C23.3 21.5834 23.25 21.6101 22.95 21.6101C22.76 21.6101 22.6 21.5745 22.6 21.5389Z" fill="#5A5A5A"/>
<path d="M9.16 21.3253C9.06 20.9872 9.09 20.8982 9.3 20.8982C9.46 20.8982 9.5 20.9605 9.5 21.2096C9.5 21.5656 9.26 21.6457 9.16 21.3253Z" fill="#5A5A5A"/>
<path d="M21.6 20.8537C21.6 20.6579 21.64 20.6312 21.95 20.6312C22.38 20.6312 22.39 20.7202 22.01 20.9249C21.63 21.1206 21.6 21.1206 21.6 20.8537Z" fill="#5A5A5A"/>
<path d="M22.46 20.6579C22.36 20.5689 22.39 20.1862 22.5 20.1862C22.56 20.1862 22.6 20.1239 22.6 20.0528C22.6 19.9727 22.51 19.9193 22.35 19.9193C22.07 19.9193 21.97 19.7769 22.02 19.4743C22.05 19.2963 22.1 19.323 22.58 19.7235C23.06 20.1417 23.22 20.3642 23.02 20.3642C22.97 20.3642 22.84 20.4443 22.73 20.5333C22.61 20.6312 22.49 20.6846 22.46 20.6579Z" fill="#5A5A5A"/>
<path d="M89.9 20.4087C89.9 20.1595 89.94 20.0972 90.1 20.0972C90.31 20.0972 90.34 20.1862 90.24 20.5244C90.14 20.8448 89.9 20.7647 89.9 20.4087Z" fill="#5A5A5A"/>
<path d="M24.5 20.56C24.5 20.4888 25.02 20.1862 25.14 20.1862C25.17 20.1862 25.2 20.2841 25.2 20.4087C25.2 20.6045 25.16 20.6312 24.85 20.6312C24.66 20.6312 24.5 20.5956 24.5 20.56Z" fill="#5A5A5A"/>
<path d="M74.5 20.2307C74.5 19.9638 74.53 19.9638 74.91 20.1595C75.29 20.3642 75.28 20.4532 74.85 20.4532C74.54 20.4532 74.5 20.4265 74.5 20.2307Z" fill="#5A5A5A"/>
<path d="M75.71 19.6879C75.6 19.5722 75.61 19.5366 75.76 19.4298C75.93 19.323 75.95 19.3319 75.98 19.4921C76.03 19.7413 75.88 19.8481 75.71 19.6879Z" fill="#5A5A5A"/>
<path d="M8.86 19.501C8.67 18.6022 8.67 18.4954 8.89 18.4954C9.02 18.4954 9.1 18.5488 9.1 18.6556C9.1 18.7357 9.13 19.0205 9.16 19.2785C9.22 19.6612 9.2 19.7413 9.07 19.7413C8.98 19.7413 8.89 19.6345 8.86 19.501Z" fill="#5A5A5A"/>
<path d="M90.1 19.2518C90.1 19.0027 90.14 18.9404 90.3 18.9404C90.51 18.9404 90.54 19.0294 90.44 19.3675C90.34 19.6879 90.1 19.6078 90.1 19.2518Z" fill="#5A5A5A"/>
<path d="M74.8 18.8959C74.8 18.62 74.83 18.5844 75.05 18.5844C75.25 18.5844 75.3 18.5399 75.3 18.3619C75.3 18.1661 75.34 18.1395 75.65 18.1395C76.09 18.1395 76.09 18.2462 75.65 18.4865C75.46 18.5844 75.25 18.7713 75.19 18.887C75 19.2518 74.8 19.2518 74.8 18.8959Z" fill="#5A5A5A"/>
<path d="M25.6 18.8069C25.6 18.6111 25.64 18.5844 25.95 18.5844C26.38 18.5844 26.4 18.709 26 18.8959C25.62 19.0738 25.6 19.065 25.6 18.8069Z" fill="#5A5A5A"/>
<path d="M71 18.8514C71 18.8069 70.89 18.7624 70.75 18.7624C70.61 18.7624 70.5 18.7268 70.5 18.6734C70.5 18.6289 70.39 18.5844 70.25 18.5844C70.05 18.5844 70 18.5399 70 18.3619C70 18.1217 70 18.1217 71.35 18.62C71.8 18.7891 71.8 18.9404 71.35 18.9404C71.16 18.9404 71 18.9048 71 18.8514Z" fill="#5A5A5A"/>
<path d="M72.63 18.2729C72.2 18.1127 72.21 17.9615 72.65 17.9615C72.96 17.9615 73 17.9882 73 18.1839C73 18.3085 72.99 18.4064 72.98 18.4064C72.96 18.3975 72.8 18.3441 72.63 18.2729Z" fill="#5A5A5A"/>
<path d="M21.68 17.8903C21.47 17.7568 21.3 17.6233 21.3 17.5877C21.3 17.5432 21.46 17.5165 21.65 17.5165C22.02 17.5165 22.14 17.6322 22.08 17.9437C22.05 18.1128 22.03 18.1128 21.68 17.8903Z" fill="#5A5A5A"/>
<path d="M71.73 17.917C71.3 17.7568 71.31 17.6055 71.75 17.6055C72.06 17.6055 72.1 17.6322 72.1 17.828C72.1 17.9526 72.09 18.0505 72.08 18.0505C72.06 18.0416 71.9 17.9882 71.73 17.917Z" fill="#5A5A5A"/>
<path d="M31.2 17.8992C31.2 17.8102 31.4 17.5432 31.4 17.6233C31.4 17.6589 31.51 17.65 31.65 17.6055C31.87 17.5254 31.9 17.5432 31.9 17.739C31.9 17.9348 31.86 17.9615 31.55 17.9615C31.36 17.9615 31.2 17.9348 31.2 17.8992Z" fill="#5A5A5A"/>
<path d="M19.6 17.5165C19.6 17.2584 19.6 17.2584 19.95 17.4364C20.14 17.5432 20.3 17.6589 20.3 17.7034C20.3 17.7479 20.14 17.7835 19.95 17.7835C19.63 17.7835 19.6 17.7657 19.6 17.5165Z" fill="#5A5A5A"/>
<path d="M77.7 17.7212C77.71 17.6767 77.9 17.5254 78.13 17.3652C78.55 17.0805 78.55 17.0805 78.58 17.3029C78.6 17.4275 78.56 17.5877 78.49 17.6589C78.37 17.7835 77.7 17.8369 77.7 17.7212Z" fill="#5A5A5A"/>
<path d="M90.4 17.383C90.4 17.1338 90.44 17.0716 90.6 17.0716C90.81 17.0716 90.84 17.1605 90.74 17.4987C90.64 17.8191 90.4 17.739 90.4 17.383Z" fill="#5A5A5A"/>
<path d="M66.88 17.5432C66.78 17.5254 66.7 17.4631 66.7 17.4186C66.7 17.3741 66.57 17.3385 66.4 17.3385C66.17 17.3385 66.1 17.294 66.1 17.1695C66.1 16.9915 66.33 16.858 66.45 16.9648C66.49 17.0004 66.55 17.0271 66.58 17.036C66.62 17.036 66.73 17.0716 66.82 17.1072C66.91 17.1428 67.04 17.1783 67.12 17.1961C67.19 17.205 67.31 17.2406 67.38 17.2762C67.44 17.3207 67.5 17.3207 67.5 17.2762C67.5 17.1872 67.7 17.4453 67.7 17.5432C67.7 17.6055 67.17 17.6144 66.88 17.5432Z" fill="#5A5A5A"/>
<path d="M30.2 17.0271C30.2 16.8313 30.24 16.8046 30.56 16.8046C31 16.8046 30.98 16.9648 30.52 17.1339C30.21 17.2495 30.2 17.2406 30.2 17.0271Z" fill="#5A5A5A"/>
<path d="M33.6 17.125C33.6 17.0093 33.88 16.8936 34.18 16.8936C34.24 16.8936 34.3 16.9737 34.3 17.0716C34.3 17.2139 34.23 17.2495 33.95 17.2495C33.72 17.2495 33.6 17.205 33.6 17.125Z" fill="#5A5A5A"/>
<path d="M31.3 16.6711C31.3 16.4753 31.34 16.4486 31.66 16.4486C32.1 16.4486 32.08 16.6088 31.62 16.7779C31.31 16.8936 31.3 16.8847 31.3 16.6711Z" fill="#5A5A5A"/>
<path d="M35 16.769C35 16.6533 35.28 16.5376 35.58 16.5376C35.64 16.5376 35.7 16.6177 35.7 16.7156C35.7 16.858 35.63 16.8936 35.35 16.8936C35.12 16.8936 35 16.8491 35 16.769Z" fill="#5A5A5A"/>
<path d="M62.4 16.2706C62.4 16.0838 62.5 16.0571 62.88 16.1461C63.24 16.235 63.15 16.4486 62.75 16.4486C62.47 16.4486 62.4 16.413 62.4 16.2706Z" fill="#5A5A5A"/>
<path d="M19.68 16.1994C19.26 15.9681 19.25 15.8257 19.65 15.8257C19.97 15.8257 20 15.8435 20 16.0927C20 16.2439 19.99 16.3596 19.98 16.3507C19.96 16.3507 19.83 16.2795 19.68 16.1994Z" fill="#5A5A5A"/>
<path d="M66.43 16.235C66.08 16.0927 66.15 15.9147 66.55 15.9147C66.83 15.9147 66.9 15.9503 66.9 16.0838C66.9 16.2973 66.72 16.3507 66.43 16.235Z" fill="#5A5A5A"/>
<path d="M90.6 15.9592C90.6 15.71 90.64 15.6477 90.8 15.6477C91.01 15.6477 91.04 15.7367 90.94 16.0749C90.84 16.3952 90.6 16.3151 90.6 15.9592Z" fill="#5A5A5A"/>
<path d="M38.4 16.0571C38.4 15.977 38.59 15.8969 38.9 15.8346C39.57 15.71 39.6 15.71 39.6 15.9058C39.6 16.0304 39.5 16.0838 39.23 16.1283C38.63 16.2083 38.4 16.1906 38.4 16.0571Z" fill="#5A5A5A"/>
<path d="M8.36 15.8079C8.26 15.4697 8.29 15.3807 8.5 15.3807C8.66 15.3807 8.7 15.443 8.7 15.6922C8.7 16.0482 8.46 16.1283 8.36 15.8079Z" fill="#5A5A5A"/>
<path d="M39.9 15.799C39.9 15.6833 40.45 15.4519 40.54 15.5409C40.57 15.5676 40.6 15.6655 40.6 15.7545C40.6 15.8791 40.52 15.9147 40.25 15.9147C40.03 15.9147 39.9 15.8702 39.9 15.799Z" fill="#5A5A5A"/>
<path d="M79.95 15.8079C79.98 15.7456 80.14 15.621 80.3 15.5409C80.6 15.3896 80.6 15.3896 80.6 15.6477C80.6 15.8969 80.57 15.9147 80.25 15.9147C80.02 15.9147 79.92 15.8791 79.95 15.8079Z" fill="#5A5A5A"/>
<path d="M41.9 15.532C41.9 15.4608 42.06 15.3718 42.25 15.3184C42.58 15.2205 42.6 15.2294 42.6 15.4341C42.6 15.621 42.55 15.6477 42.25 15.6477C42.03 15.6477 41.9 15.6032 41.9 15.532Z" fill="#5A5A5A"/>
<path d="M66.05 15.5587C66.08 15.5142 66.24 15.3896 66.4 15.2917C66.7 15.1049 66.7 15.1049 66.7 15.3718C66.7 15.6299 66.67 15.6477 66.34 15.6477C66.14 15.6477 66.01 15.6121 66.05 15.5587Z" fill="#5A5A5A"/>
<path d="M78.8 15.3807C78.8 15.1316 78.83 15.1138 79.15 15.1138C79.56 15.1138 79.54 15.265 79.1 15.4875C78.8 15.6388 78.8 15.6388 78.8 15.3807Z" fill="#5A5A5A"/>
<path d="M42.7 15.4341C42.7 15.3184 42.98 15.2028 43.28 15.2028C43.34 15.2028 43.4 15.2828 43.4 15.3807C43.4 15.5231 43.33 15.5587 43.05 15.5587C42.82 15.5587 42.7 15.5142 42.7 15.4341Z" fill="#5A5A5A"/>
<path d="M43.5 15.354C43.5 15.2828 43.66 15.1938 43.85 15.1405C44.18 15.0426 44.2 15.0515 44.2 15.2561C44.2 15.443 44.15 15.4697 43.85 15.4697C43.63 15.4697 43.5 15.4252 43.5 15.354Z" fill="#5A5A5A"/>
<path d="M90.7 15.1583C90.7 14.8913 90.73 14.8468 90.94 14.8468C91.17 14.8468 91.18 14.8646 91.07 15.1583C91.01 15.3273 90.91 15.4697 90.83 15.4697C90.75 15.4697 90.7 15.354 90.7 15.1583Z" fill="#5A5A5A"/>
<path d="M32.4 15.1138C32.4 14.8646 32.37 14.8468 32.05 14.8468C31.73 14.8468 31.7 14.829 31.7 14.5798C31.7 14.3306 31.67 14.3128 31.35 14.3128C31.02 14.3128 31 14.295 31 14.037C31 13.7878 31.02 13.77 31.18 13.8768C31.44 14.0637 32.01 14.4908 32.61 14.9536C33.15 15.3807 33.15 15.3807 32.78 15.3807C32.42 15.3807 32.4 15.3629 32.4 15.1138Z" fill="#5A5A5A"/>
<path d="M44.5 15.2561C44.5 15.1405 44.78 15.0248 45.08 15.0248C45.14 15.0248 45.2 15.1049 45.2 15.2028C45.2 15.3451 45.13 15.3807 44.85 15.3807C44.62 15.3807 44.5 15.3362 44.5 15.2561Z" fill="#5A5A5A"/>
<path d="M54.9 15.2027C54.9 15.0159 55 14.9892 55.38 15.0782C55.74 15.1672 55.65 15.3807 55.25 15.3807C54.97 15.3807 54.9 15.3451 54.9 15.2027Z" fill="#5A5A5A"/>
<path d="M45.8 15.1672C45.8 15.0515 46.08 14.9358 46.38 14.9358C46.44 14.9358 46.5 15.0159 46.5 15.1138C46.5 15.2561 46.43 15.2917 46.15 15.2917C45.92 15.2917 45.8 15.2472 45.8 15.1672Z" fill="#5A5A5A"/>
<path d="M53.6 15.1138C53.6 14.9269 53.7 14.9002 54.08 14.9892C54.44 15.0782 54.35 15.2917 53.95 15.2917C53.67 15.2917 53.6 15.2561 53.6 15.1138Z" fill="#5A5A5A"/>
<path d="M48.2 15.0782C48.2 15.0159 48.3 14.9358 48.43 14.9002C48.84 14.8023 49 14.8379 49 15.0248C49 15.1761 48.93 15.2028 48.6 15.2028C48.33 15.2028 48.2 15.1672 48.2 15.0782Z" fill="#5A5A5A"/>
<path d="M51.1 15.0248C51.1 14.8379 51.26 14.8023 51.68 14.9002C52.07 14.9981 51.95 15.2028 51.5 15.2028C51.17 15.2028 51.1 15.1761 51.1 15.0248Z" fill="#5A5A5A"/>
<path d="M66.91 14.8646C66.97 14.7845 67.13 14.6599 67.26 14.6065C67.48 14.5175 67.5 14.5264 67.5 14.7667C67.5 14.9981 67.47 15.0248 67.15 15.0248C66.84 15.0248 66.81 15.007 66.91 14.8646Z" fill="#5A5A5A"/>
<path d="M81.1 14.8735C81.1 14.829 81.26 14.7133 81.45 14.5976C81.8 14.4018 81.8 14.4018 81.8 14.6688C81.8 14.918 81.77 14.9358 81.45 14.9358C81.26 14.9358 81.1 14.9091 81.1 14.8735Z" fill="#5A5A5A"/>
<path d="M8.26 14.651C8.16 14.3128 8.19 14.2239 8.4 14.2239C8.56 14.2239 8.6 14.2861 8.6 14.5353C8.6 14.8913 8.36 14.9714 8.26 14.651Z" fill="#5A5A5A"/>
<path d="M80.2 14.2239C80.2 13.9747 80.23 13.9569 80.55 13.9569C80.96 13.9569 80.94 14.1082 80.5 14.3306C80.2 14.4819 80.2 14.4819 80.2 14.2239Z" fill="#5A5A5A"/>
<path d="M14.8 13.7789C14.8 13.6454 14.73 13.6009 14.55 13.6009C14.37 13.6009 14.3 13.5564 14.3 13.4229C14.3 13.2894 14.23 13.245 14.05 13.245C13.84 13.245 13.8 13.2005 13.8 12.9691C13.8 12.6576 13.74 12.6309 14.61 13.2628C14.87 13.4496 15.12 13.6009 15.16 13.6009C15.21 13.6009 15.31 13.681 15.38 13.7789C15.49 13.948 15.48 13.9569 15.15 13.9569C14.87 13.9569 14.8 13.9213 14.8 13.7789Z" fill="#5A5A5A"/>
<path d="M16.6 13.6899C16.25 13.4318 16.25 13.4318 16.63 13.4229C16.98 13.4229 17 13.4407 17 13.6899C17 13.8412 16.99 13.9569 16.97 13.9569C16.96 13.9569 16.79 13.8412 16.6 13.6899Z" fill="#5A5A5A"/>
<path d="M30.2 13.414C30.2 13.1471 30.2 13.1471 30.5 13.3339C30.94 13.6098 30.95 13.6899 30.56 13.6899C30.23 13.6899 30.2 13.6721 30.2 13.414Z" fill="#5A5A5A"/>
<path d="M90.9 13.0225C90.9 12.7733 90.94 12.711 91.1 12.711C91.31 12.711 91.34 12.8 91.24 13.1382C91.14 13.4585 90.9 13.3784 90.9 13.0225Z" fill="#5A5A5A"/>
<path d="M82.7 12.275C82.7 12.0169 82.73 11.9991 83.06 11.9991C83.45 11.9991 83.44 12.0792 83 12.355C82.7 12.5419 82.7 12.5419 82.7 12.275Z" fill="#5A5A5A"/>
<path d="M14.54 12.2394C14.42 12.186 14.27 12.0703 14.21 11.9813C14.11 11.8389 14.14 11.8211 14.45 11.8211C14.77 11.8211 14.8 11.8389 14.8 12.0881C14.8 12.2394 14.79 12.3461 14.78 12.3461C14.76 12.3372 14.65 12.2928 14.54 12.2394Z" fill="#5A5A5A"/>
<path d="M84.81 12.0169C84.87 11.9368 85.03 11.8122 85.16 11.7588C85.38 11.6698 85.4 11.6787 85.4 11.919C85.4 12.1504 85.37 12.1771 85.05 12.1771C84.74 12.1771 84.71 12.1593 84.81 12.0169Z" fill="#5A5A5A"/>
<path d="M83.9 11.385C83.9 11.127 83.93 11.1092 84.26 11.1092C84.65 11.1092 84.64 11.1893 84.2 11.4651C83.9 11.652 83.9 11.652 83.9 11.385Z" fill="#5A5A5A"/>
<path d="M71.45 11.4651C71.48 11.4206 71.64 11.2961 71.8 11.1982C72.1 11.0113 72.1 11.0113 72.1 11.2783C72.1 11.5363 72.07 11.5541 71.74 11.5541C71.54 11.5541 71.41 11.5185 71.45 11.4651Z" fill="#5A5A5A"/>
<path d="M85.72 11.3761C85.79 11.2783 85.9 11.1982 85.97 11.1982C86.04 11.1982 86.14 11.127 86.19 11.0469C86.27 10.9134 86.29 10.949 86.3 11.2249C86.3 11.5452 86.29 11.5541 85.95 11.5541C85.62 11.5541 85.61 11.5452 85.72 11.3761Z" fill="#5A5A5A"/>
<path d="M10.6 11.0647C10.6 10.7977 10.63 10.7977 11.01 10.9935C11.39 11.1982 11.38 11.2872 10.95 11.2872C10.64 11.2872 10.6 11.2605 10.6 11.0647Z" fill="#5A5A5A"/>
<path d="M8.37 11.0914C8.32 10.9579 8.58 10.5752 8.71 10.5752C8.76 10.5752 8.8 10.7176 8.8 10.8867C8.8 11.1359 8.76 11.1982 8.61 11.1982C8.5 11.1982 8.4 11.1448 8.37 11.0914Z" fill="#5A5A5A"/>
<path d="M12.33 10.8155C11.91 10.5663 11.92 10.4862 12.35 10.4862C12.67 10.4862 12.7 10.504 12.7 10.7532C12.7 10.9045 12.69 11.0202 12.68 11.0113C12.66 11.0113 12.5 10.9223 12.33 10.8155Z" fill="#5A5A5A"/>
<path d="M72.97 10.335C73.19 10.1481 73.47 9.9434 73.59 9.8811C73.78 9.78321 73.8 9.79211 73.8 10.0413C73.8 10.2638 73.76 10.3083 73.55 10.3083C73.37 10.3083 73.3 10.3528 73.3 10.4862C73.3 10.6286 73.23 10.6642 72.93 10.6642C72.55 10.6642 72.55 10.6642 72.97 10.335Z" fill="#5A5A5A"/>
<path d="M26 10.3972C26 10.2638 25.93 10.2193 25.75 10.2193C25.54 10.2193 25.5 10.1748 25.5 9.95229C25.5 9.70312 25.51 9.69422 25.72 9.79211C25.85 9.8544 26.01 9.97899 26.08 10.068C26.15 10.1481 26.27 10.2193 26.33 10.2193C26.4 10.2193 26.51 10.2994 26.58 10.3972C26.69 10.5663 26.68 10.5752 26.35 10.5752C26.07 10.5752 26 10.5396 26 10.3972Z" fill="#5A5A5A"/>
<path d="M85.6 10.2905C85.6 9.96119 85.61 9.95229 85.95 9.95229C86.28 9.95229 86.29 9.96119 86.18 10.1303C86.11 10.2282 86 10.3083 85.93 10.3083C85.86 10.3083 85.76 10.3794 85.71 10.4684C85.63 10.593 85.61 10.5574 85.6 10.2905Z" fill="#5A5A5A"/>
<path d="M86.9 9.41835C86.9 9.16917 86.93 9.15137 87.25 9.15137C87.69 9.15137 87.69 9.23147 87.25 9.48954C86.9 9.68532 86.9 9.68532 86.9 9.41835Z" fill="#5A5A5A"/>
<path d="M89.02 9.57853C89.05 9.51623 89.21 9.41834 89.38 9.35605C89.69 9.24036 89.7 9.24926 89.7 9.46284C89.7 9.65862 89.66 9.68532 89.34 9.68532C89.11 9.68532 89 9.64972 89.02 9.57853Z" fill="#5A5A5A"/>
<path d="M74.21 9.43614C74.27 9.35605 74.43 9.23146 74.56 9.17807C74.78 9.08908 74.8 9.09798 74.8 9.33825C74.8 9.56963 74.77 9.59633 74.45 9.59633C74.14 9.59633 74.11 9.57853 74.21 9.43614Z" fill="#5A5A5A"/>
<path d="M90.5 9.37385C90.5 9.11578 90.62 9.08908 90.84 9.29376C91.07 9.48954 91.04 9.59633 90.75 9.59633C90.55 9.59633 90.5 9.55183 90.5 9.37385Z" fill="#5A5A5A"/>
<path d="M89.1 8.38605C89.1 8.19917 89.15 8.17247 89.45 8.17247C89.67 8.17247 89.8 8.21697 89.8 8.28816C89.8 8.35935 89.64 8.44835 89.45 8.50174C89.12 8.59963 89.1 8.59073 89.1 8.38605Z" fill="#5A5A5A"/>
<path d="M22.9 8.09238C22.9 7.85211 22.92 7.84321 23.14 7.9322C23.27 7.98559 23.43 8.11018 23.49 8.19027C23.59 8.33266 23.56 8.35045 23.25 8.35045C22.93 8.35045 22.9 8.32376 22.9 8.09238Z" fill="#5A5A5A"/>
<path d="M7.7 8.15468C7.7 7.8877 7.83 7.63853 7.96 7.63853C8.05 7.63853 8.1 7.74532 8.1 7.95C8.1 8.19917 8.06 8.26147 7.9 8.26147C7.79 8.26147 7.7 8.20807 7.7 8.15468Z" fill="#5A5A5A"/>
<path d="M91.3 7.59403C91.3 7.23807 91.54 7.15798 91.64 7.48724C91.74 7.81651 91.71 7.9055 91.5 7.9055C91.34 7.9055 91.3 7.84321 91.3 7.59403Z" fill="#5A5A5A"/>
<path d="M77.11 7.38935C77.17 7.30926 77.33 7.18467 77.46 7.13128C77.68 7.04229 77.7 7.05119 77.7 7.29146C77.7 7.52284 77.67 7.54954 77.35 7.54954C77.04 7.54954 77.01 7.53174 77.11 7.38935Z" fill="#5A5A5A"/>
<path d="M21.6 7.20247C21.6 6.9622 21.62 6.9533 21.84 7.04229C21.97 7.09568 22.13 7.22027 22.19 7.30036C22.29 7.44275 22.26 7.46055 21.95 7.46055C21.63 7.46055 21.6 7.43385 21.6 7.20247Z" fill="#5A5A5A"/>
<path d="M7.8 6.73082C7.8 6.46385 7.93 6.21468 8.06 6.21468C8.15 6.21468 8.2 6.32146 8.2 6.52614C8.2 6.77532 8.16 6.83761 8 6.83761C7.89 6.83761 7.8 6.78422 7.8 6.73082Z" fill="#5A5A5A"/>
<path d="M78.42 6.48165C78.49 6.38376 78.61 6.30367 78.68 6.30367C78.75 6.30367 78.83 6.24137 78.86 6.17018C78.9 6.09899 78.98 6.03669 79.06 6.03669C79.13 6.03669 79.24 5.9655 79.29 5.88541C79.37 5.75192 79.39 5.78752 79.4 6.06339C79.4 6.33036 79.36 6.39266 79.2 6.39266C79.09 6.39266 79 6.45495 79 6.52614C79 6.61513 78.89 6.65963 78.65 6.65963C78.32 6.65963 78.31 6.65073 78.42 6.48165Z" fill="#5A5A5A"/>
<path d="M80.32 5.23578C80.39 5.13789 80.49 5.0578 80.54 5.0578C80.58 5.0578 80.84 4.91541 81.11 4.73743C81.6 4.41706 81.6 4.41706 81.6 4.69293C81.6 4.95101 81.57 4.9688 81.25 4.9688C80.94 4.9688 80.9 4.9955 80.9 5.19128C80.9 5.38706 80.86 5.41376 80.55 5.41376C80.22 5.41376 80.21 5.40486 80.32 5.23578Z" fill="#5A5A5A"/>
<path d="M17 4.15899C17 3.89201 17 3.89201 17.3 4.0789C17.74 4.35477 17.75 4.43486 17.36 4.43486C17.03 4.43486 17 4.41706 17 4.15899Z" fill="#5A5A5A"/>
<path d="M90.7 3.23349C90.7 2.87752 90.94 2.79743 91.04 3.12669C91.14 3.45596 91.11 3.54495 90.9 3.54495C90.74 3.54495 90.7 3.48266 90.7 3.23349Z" fill="#5A5A5A"/>
<path d="M8.4 3.16229C8.4 3.1089 8.49 2.78853 8.59 2.45037C8.7 2.1211 8.77 1.85413 8.74 1.85413C8.72 1.85413 8.77 1.75624 8.86 1.63165C8.95 1.50706 9.07 1.40917 9.12 1.40917C9.26 1.40917 9.15 2.23679 9.01 2.28128C8.95 2.29908 8.9 2.40587 8.9 2.52156C8.9 2.97541 8.78 3.27798 8.59 3.27798C8.48 3.27798 8.4 3.22459 8.4 3.16229Z" fill="#5A5A5A"/>
<path d="M90.26 2.01431C90.18 1.72954 90.19 1.32018 90.28 1.32018C90.38 1.32018 90.67 1.49816 90.56 1.49816C90.51 1.49816 90.53 1.56046 90.6 1.63165C90.67 1.70284 90.69 1.76514 90.64 1.76514C90.6 1.76514 90.61 1.80963 90.67 1.86303C90.73 1.91642 90.76 2.02321 90.73 2.0855C90.65 2.28128 90.33 2.22789 90.26 2.01431Z" fill="#5A5A5A"/>
<path d="M88.2 1.10661C88.2 0.990918 88.48 0.875229 88.78 0.875229C88.84 0.875229 88.9 0.955321 88.9 1.05321C88.9 1.1956 88.83 1.23119 88.55 1.23119C88.32 1.23119 88.2 1.1867 88.2 1.10661Z" fill="#5A5A5A"/>
<path d="M9.2 0.96422C9.25 0.875229 9.43 0.786239 9.6 0.759542C10 0.67945 10.9 0.857431 10.9 1.00872C10.9 1.08881 10.67 1.11551 10.01 1.11551C9.19 1.11551 9.12 1.09771 9.2 0.96422Z" fill="#5A5A5A"/>
<path d="M89.1 0.928624C89.1 0.777339 89.52 0.67945 89.85 0.750642C90.31 0.848532 90.15 1.05321 89.6 1.05321C89.24 1.05321 89.1 1.01761 89.1 0.928624Z" fill="#5A5A5A"/>
</svg>
