<svg width="100" height="83" viewBox="0 0 100 83" fill="none" xmlns="http://www.w3.org/2000/svg">
<path d="M49.9 82.5477C49.9 82.4053 49.97 82.3697 50.25 82.3697C50.65 82.3697 50.74 82.5833 50.38 82.6723C50 82.7613 49.9 82.7346 49.9 82.5477Z" fill="#3A3A3A"/>
<path d="M51.5 82.4587C51.5 82.3163 51.57 82.2807 51.85 82.2807C52.25 82.2807 52.34 82.4943 51.98 82.5833C51.6 82.6723 51.5 82.6456 51.5 82.4587Z" fill="#3A3A3A"/>
<path d="M53.42 82.3875C53.35 82.3697 53.3 82.2807 53.3 82.1828C53.3 82.0493 53.37 82.0137 53.65 82.0137C53.86 82.0137 54 82.0582 54 82.1294C54 82.254 53.59 82.4409 53.42 82.3875Z" fill="#3A3A3A"/>
<path d="M54.1 82.0138C54.1 81.8714 54.17 81.8358 54.45 81.8358C54.72 81.8358 54.8 81.8714 54.8 81.996C54.8 82.1028 54.71 82.1562 54.45 82.1651C54.16 82.1918 54.1 82.1651 54.1 82.0138Z" fill="#3A3A3A"/>
<path d="M44.03 81.6578C43.9 81.6133 43.8 81.6044 43.8 81.64C43.8 81.7201 43.6 81.4531 43.6 81.373C43.6 81.3285 43.76 81.3018 43.95 81.3018C44.26 81.3018 44.3 81.3285 44.3 81.5243C44.3 81.6489 44.29 81.7468 44.28 81.7379C44.26 81.7379 44.15 81.7023 44.03 81.6578Z" fill="#3A3A3A"/>
<path d="M50.1 81.3552C50.1 81.195 50.32 81.1239 50.59 81.1861C50.94 81.2662 50.84 81.4798 50.45 81.4798C50.22 81.4798 50.1 81.4353 50.1 81.3552V81.3552Z" fill="#3A3A3A"/>
<path d="M56.66 81.4175C56.63 81.3819 56.6 81.2662 56.6 81.1505C56.6 80.9726 56.65 80.9459 56.95 80.9459C57.14 80.9459 57.3 80.9904 57.3 81.0349C57.3 81.0882 57.26 81.1238 57.22 81.1238C57.17 81.1238 57.04 81.2039 56.93 81.2929C56.81 81.3908 56.69 81.4442 56.66 81.4175V81.4175Z" fill="#3A3A3A"/>
<path d="M48.3 81.3018C48.3 81.2573 48.17 81.2128 48 81.2128C47.84 81.2128 47.7 81.1772 47.7 81.1239C47.7 81.0794 47.59 81.0349 47.45 81.0349C47.25 81.0349 47.2 80.9904 47.2 80.8124C47.2 80.6166 47.23 80.6077 47.44 80.6789C47.57 80.7234 47.71 80.7323 47.74 80.7056C47.77 80.67 47.8 80.6878 47.8 80.7412C47.8 80.7946 48.07 80.9103 48.4 80.9993C49.07 81.1772 49.21 81.3908 48.65 81.3908C48.46 81.3908 48.3 81.3552 48.3 81.3018V81.3018Z" fill="#3A3A3A"/>
<path d="M52.1 81.1862C52.1 81.115 52.26 81.026 52.45 80.9726C52.78 80.8747 52.8 80.8836 52.8 81.0883C52.8 81.2751 52.75 81.3018 52.45 81.3018C52.23 81.3018 52.1 81.2573 52.1 81.1862Z" fill="#3A3A3A"/>
<path d="M53.3 80.7679C53.3 80.7234 53.54 80.5721 53.83 80.4475C54.11 80.314 54.38 80.1627 54.42 80.1093C54.46 80.056 54.5 80.0471 54.5 80.0827C54.5 80.1272 54.65 80.0738 54.84 79.9759C55.27 79.7356 55.3 79.7445 55.3 80.0115C55.3 80.2072 55.26 80.2339 54.95 80.2339C54.68 80.2339 54.6 80.2695 54.6 80.3941C54.6 80.492 54.46 80.6166 54.25 80.7056C53.86 80.8747 53.3 80.9103 53.3 80.7679V80.7679Z" fill="#3A3A3A"/>
<path d="M41.75 80.4119C41.71 80.3585 41.66 80.3407 41.62 80.3585C41.58 80.3763 41.47 80.2962 41.37 80.1806C41.19 79.967 41.19 79.967 41.55 79.967C41.87 79.967 41.9 79.9848 41.9 80.2339C41.9 80.5098 41.86 80.5632 41.75 80.4119Z" fill="#3A3A3A"/>
<path d="M58.2 80.2428C58.2 79.9848 58.22 79.967 58.55 79.967C58.91 79.967 58.91 79.967 58.73 80.1806C58.63 80.2962 58.53 80.3763 58.51 80.3585C58.49 80.3407 58.41 80.3674 58.33 80.4208C58.23 80.5009 58.2 80.4653 58.2 80.2428V80.2428Z" fill="#3A3A3A"/>
<path d="M45.8 80.2784C45.8 80.1983 45.71 80.1449 45.55 80.1449C45.35 80.1449 45.3 80.1005 45.3 79.9225C45.3 79.7534 45.35 79.7 45.48 79.7178C45.57 79.7356 45.7 79.789 45.75 79.8513C45.81 79.9136 45.91 79.967 45.99 79.9848C46.14 80.0115 46.5 80.2873 46.5 80.3674C46.5 80.3941 46.34 80.4119 46.15 80.4119C45.91 80.4119 45.8 80.3674 45.8 80.2784Z" fill="#3A3A3A"/>
<path d="M48.68 80.2606C48.35 80.1895 48.48 79.967 48.85 79.967C49.13 79.967 49.2 80.0026 49.2 80.145C49.2 80.3229 49.06 80.3496 48.68 80.2606Z" fill="#3A3A3A"/>
<path d="M52.4 79.9937C52.4 79.7178 52.42 79.7 52.75 79.7C52.94 79.7 53.1 79.7267 53.1 79.7712C53.1 79.8958 52.95 80.0115 52.75 80.0382C52.64 80.056 52.52 80.1183 52.48 80.1717C52.44 80.234 52.4 80.145 52.4 79.9937Z" fill="#3A3A3A"/>
<path d="M47.23 79.6911C46.72 79.4686 46.68 79.344 47.13 79.344C47.55 79.344 47.73 79.4508 47.68 79.6911C47.65 79.878 47.65 79.878 47.23 79.6911Z" fill="#3A3A3A"/>
<path d="M59.1 79.4775C59.1 79.1838 59.12 79.166 59.41 79.166C59.66 79.166 59.7 79.1927 59.61 79.2817C59.55 79.3529 59.52 79.4241 59.54 79.4419C59.56 79.4597 59.47 79.5487 59.34 79.6377C59.1 79.7979 59.1 79.7979 59.1 79.4775Z" fill="#3A3A3A"/>
<path d="M40.21 79.0771C40.08 78.9792 40.01 78.8991 40.05 78.8991C40.09 78.8991 40.07 78.8368 40 78.7656C39.89 78.6499 39.92 78.6321 40.19 78.6321C40.48 78.6321 40.5 78.6499 40.5 78.9436C40.5 79.1127 40.49 79.255 40.48 79.255C40.46 79.2461 40.34 79.166 40.21 79.0771V79.0771Z" fill="#3A3A3A"/>
<path d="M45.85 79.0059C45.82 78.9436 45.76 78.9169 45.7 78.9436C45.65 78.9703 45.6 78.9347 45.6 78.8635C45.6 78.7567 45.7 78.7211 45.95 78.7211C46.25 78.7211 46.3 78.7478 46.3 78.9347C46.3 79.0949 46.25 79.1483 46.1 79.1394C45.99 79.1305 45.88 79.0771 45.85 79.0059Z" fill="#3A3A3A"/>
<path d="M59.9 78.5965C59.9 78.4185 59.95 78.2761 60 78.2761C60.06 78.2761 60.1 78.2138 60.1 78.1427C60.1 78.0715 60.15 78.0092 60.2 78.0092C60.26 78.0092 60.3 77.9469 60.3 77.8757C60.3 77.8045 60.37 77.7422 60.45 77.7422C60.54 77.7422 60.6 77.6621 60.6 77.5197C60.6 77.3417 60.65 77.2972 60.85 77.2972C60.99 77.2972 61.1 77.3239 61.1 77.3595C61.1 77.4574 60.21 78.6944 60.05 78.8101C59.92 78.908 59.9 78.8724 59.9 78.5965Z" fill="#3A3A3A"/>
<path d="M57.8 77.7867C57.87 77.7155 57.9 77.6532 57.86 77.6532C57.83 77.6532 57.89 77.5731 58 77.4752C58.27 77.2349 58.3 77.2438 58.3 77.6087C58.3 77.9024 58.28 77.9202 57.99 77.9202C57.72 77.9202 57.69 77.9024 57.8 77.7867Z" fill="#3A3A3A"/>
<path d="M42.3 77.3417C42.3 77.1727 42.32 77.0303 42.34 77.0303C42.49 77.0303 42.69 77.146 42.65 77.2083C42.62 77.2528 42.66 77.3418 42.74 77.4129C42.92 77.5731 42.85 77.6532 42.53 77.6532C42.33 77.6532 42.3 77.6087 42.3 77.3417Z" fill="#3A3A3A"/>
<path d="M38.67 76.8701C38.58 76.7277 38.46 76.5052 38.41 76.3806C38.31 76.1671 38.33 76.1404 38.54 76.1404C38.8 76.1404 39 76.4429 39 76.8523C39 77.1905 38.89 77.1905 38.67 76.8701Z" fill="#3A3A3A"/>
<path d="M57.1 76.0158C57.1 75.7933 57.06 75.6954 56.95 75.6954C56.87 75.6954 56.8 75.642 56.8 75.5708C56.8 75.5085 56.6 75.4017 56.35 75.3394C56.02 75.2594 55.9 75.1793 55.9 75.0636C55.9 74.8678 56.04 74.85 56.51 75.0013C56.91 75.117 57.24 75.3394 57.28 75.5174C57.3 75.5886 57.35 75.6687 57.38 75.6954C57.42 75.7221 57.46 75.8022 57.46 75.8734C57.47 75.9446 57.49 76.0692 57.51 76.1404C57.54 76.2205 57.46 76.2828 57.33 76.3006C57.13 76.3272 57.1 76.2916 57.1 76.0158V76.0158Z" fill="#3A3A3A"/>
<path d="M61.5 76.0069C61.5 75.8378 61.55 75.6954 61.6 75.6954C61.66 75.6954 61.7 75.5975 61.7 75.4729C61.7 75.295 61.75 75.2505 61.95 75.2505C62.2 75.2505 62.2 75.2505 61.99 75.7132C61.74 76.2738 61.71 76.3183 61.59 76.3183C61.54 76.3183 61.5 76.176 61.5 76.0069Z" fill="#3A3A3A"/>
<path d="M58.31 75.7488C58.25 75.5263 58.14 75.2949 58.06 75.2238C57.98 75.1526 57.94 75.0725 57.97 75.0369C58 75.0102 57.95 74.9657 57.86 74.9301C57.77 74.9034 57.72 74.8411 57.75 74.8055C57.83 74.6987 57.48 74.4762 56.96 74.2983C56.08 74.0046 56.38 73.7732 57.31 74.0224C57.62 74.1025 57.7 74.1648 57.7 74.3338C57.7 74.494 57.75 74.5385 57.95 74.5385C58.15 74.5385 58.2 74.583 58.2 74.761C58.2 74.9034 58.26 74.9835 58.35 74.9835C58.45 74.9835 58.5 75.0725 58.5 75.2505C58.5 75.4017 58.55 75.5174 58.6 75.5174C58.66 75.5174 58.7 75.6598 58.7 75.8289C58.7 76.2827 58.45 76.2294 58.31 75.7488V75.7488Z" fill="#3A3A3A"/>
<path d="M43.41 75.7043C43.47 75.5619 43.6 75.375 43.71 75.2861C43.89 75.1348 43.9 75.1437 43.9 75.4106C43.9 75.8111 43.81 75.9624 43.54 75.9624C43.33 75.9624 43.32 75.9446 43.41 75.7043Z" fill="#3A3A3A"/>
<path d="M44.5 75.0102C44.5 74.8945 44.59 74.8411 44.85 74.8322C45.14 74.8055 45.2 74.8322 45.2 74.9835C45.2 75.1259 45.13 75.1615 44.85 75.1615C44.58 75.1615 44.5 75.1259 44.5 75.0102Z" fill="#3A3A3A"/>
<path d="M46.1 74.6809C46.1 74.5652 46.38 74.4495 46.68 74.4495C46.74 74.4495 46.8 74.5296 46.8 74.6275C46.8 74.7699 46.73 74.8055 46.45 74.8055C46.22 74.8055 46.1 74.761 46.1 74.6809Z" fill="#3A3A3A"/>
<path d="M47.3 74.5029C47.3 74.3873 47.58 74.2716 47.88 74.2716C47.94 74.2716 48 74.3517 48 74.4496C48 74.5919 47.93 74.6275 47.65 74.6275C47.42 74.6275 47.3 74.583 47.3 74.5029Z" fill="#3A3A3A"/>
<path d="M51.9 74.3605C51.9 74.1737 52 74.147 52.38 74.236C52.74 74.3249 52.65 74.5385 52.25 74.5385C51.97 74.5385 51.9 74.5029 51.9 74.3605Z" fill="#3A3A3A"/>
<path d="M44.3 73.9156C44.3 73.7732 44.37 73.7376 44.65 73.7376C45.05 73.7376 45.14 73.9512 44.78 74.0402C44.4 74.1292 44.3 74.1025 44.3 73.9156Z" fill="#3A3A3A"/>
<path d="M46.02 73.7554C45.95 73.7376 45.9 73.6486 45.9 73.5507C45.9 73.4173 45.97 73.3817 46.25 73.3817C46.46 73.3817 46.6 73.4262 46.6 73.4973C46.6 73.6219 46.19 73.8088 46.02 73.7554Z" fill="#3A3A3A"/>
<path d="M47.9 73.2927C47.9 73.1503 47.97 73.1147 48.25 73.1147C48.65 73.1147 48.74 73.3283 48.38 73.4172C48 73.5062 47.9 73.4795 47.9 73.2927Z" fill="#3A3A3A"/>
<path d="M49.2 73.2037C49.2 73.0613 49.27 73.0257 49.55 73.0257C49.95 73.0257 50.04 73.2393 49.68 73.3283C49.3 73.4172 49.2 73.3906 49.2 73.2037Z" fill="#3A3A3A"/>
<path d="M62.6 72.7142C62.6 72.465 62.64 72.4027 62.79 72.4027C63.03 72.4027 63.09 72.554 62.96 72.821C62.79 73.1325 62.6 73.0702 62.6 72.7142Z" fill="#3A3A3A"/>
<path d="M36.88 68.8787C36.85 68.852 36.86 68.7274 36.91 68.5939C36.96 68.4605 37.02 68.2024 37.05 68.0244C37.09 67.793 37.16 67.6862 37.27 67.6862C37.4 67.6862 37.42 67.7574 37.36 68.1579C37.33 68.4071 37.3 68.6918 37.3 68.7808C37.3 68.9232 37.01 68.9944 36.88 68.8787V68.8787Z" fill="#3A3A3A"/>
<path d="M62.5 66.9298C62.5 66.5739 62.74 66.4938 62.84 66.823C62.94 67.1523 62.91 67.2413 62.7 67.2413C62.54 67.2413 62.5 67.179 62.5 66.9298Z" fill="#3A3A3A"/>
<path d="M37.3 66.1289C37.3 66.0577 37.21 65.9509 37.1 65.8886C36.81 65.7195 36.86 65.6395 37.25 65.6395C37.58 65.6395 37.6 65.6572 37.6 65.9509C37.6 66.1645 37.55 66.2624 37.45 66.2624C37.37 66.2624 37.3 66.2001 37.3 66.1289Z" fill="#3A3A3A"/>
<path d="M62.6 65.8886C62.6 65.5594 62.61 65.5505 62.95 65.5505C63.23 65.5505 63.3 65.5861 63.3 65.7284C63.3 65.8441 63.25 65.8886 63.15 65.853C63.07 65.8174 63 65.8441 63 65.9153C63 65.9776 62.97 65.9954 62.93 65.9687C62.9 65.9331 62.81 65.9776 62.74 66.0666C62.62 66.2001 62.61 66.1823 62.6 65.8886Z" fill="#3A3A3A"/>
<path d="M35.88 65.6661C35.55 65.595 35.68 65.3725 36.05 65.3725C36.33 65.3725 36.4 65.4081 36.4 65.5505C36.4 65.7284 36.26 65.7551 35.88 65.6661Z" fill="#3A3A3A"/>
<path d="M64.5 65.4615C64.5 65.3191 64.57 65.2835 64.85 65.2835C65.25 65.2835 65.34 65.4971 64.98 65.5861C64.6 65.675 64.5 65.6483 64.5 65.4615Z" fill="#3A3A3A"/>
<path d="M34.48 65.4882C34.15 65.417 34.28 65.1945 34.65 65.1945C34.93 65.1945 35 65.2301 35 65.3725C35 65.5505 34.86 65.5772 34.48 65.4882Z" fill="#3A3A3A"/>
<path d="M32.4 65.239C32.32 65.2212 32.08 65.1856 31.88 65.15C31.64 65.1144 31.5 65.0521 31.5 64.972C31.5 64.8207 31.61 64.8118 32.38 64.8919C32.8 64.9453 32.9 64.9809 32.9 65.1144C32.9 65.2746 32.78 65.3013 32.4 65.239Z" fill="#3A3A3A"/>
<path d="M68.6 64.9542C68.6 64.8118 68.73 64.7673 69.43 64.6783C70.48 64.5449 70.6 64.5449 70.6 64.6961C70.6 64.8296 70.33 64.9186 69.77 64.972C69.56 64.9898 69.21 65.0254 68.99 65.061C68.65 65.1144 68.6 65.0966 68.6 64.9542V64.9542Z" fill="#3A3A3A"/>
<path d="M26.58 64.4203C26.25 64.3491 26.38 64.1266 26.75 64.1266C27.03 64.1266 27.1 64.1622 27.1 64.3046C27.1 64.4826 26.96 64.5093 26.58 64.4203Z" fill="#3A3A3A"/>
<path d="M24.84 64.2067C24.81 64.1533 24.68 64.1266 24.57 64.1266C24.24 64.1533 23.9 64.0287 23.9 63.8952C23.9 63.7528 24.06 63.7439 24.74 63.824C25.09 63.8685 25.2 63.9219 25.2 64.0376C25.2 64.2156 24.94 64.3402 24.84 64.2067Z" fill="#3A3A3A"/>
<path d="M75.6 63.9486C75.6 63.8062 75.67 63.7706 75.95 63.7706C76.35 63.7706 76.44 63.9842 76.08 64.0732C75.7 64.1622 75.6 64.1355 75.6 63.9486Z" fill="#3A3A3A"/>
<path d="M21.13 63.6372C21 63.5927 20.9 63.5037 20.9 63.4414C20.9 63.3079 21.07 63.299 21.74 63.3791C22.09 63.4236 22.2 63.477 22.2 63.6016C22.2 63.735 22.13 63.7617 21.78 63.7439C21.54 63.735 21.25 63.6905 21.13 63.6372V63.6372Z" fill="#3A3A3A"/>
<path d="M77.9 63.6105C77.9 63.477 77.99 63.4236 78.36 63.3791C79.05 63.299 79.2 63.3079 79.2 63.4503C79.2 63.5749 79.09 63.6105 78.28 63.735C77.95 63.7795 77.9 63.7706 77.9 63.6105Z" fill="#3A3A3A"/>
<path d="M19.43 63.3791C19.08 63.2367 19.15 63.0587 19.55 63.0587C19.83 63.0587 19.9 63.0943 19.9 63.2278C19.9 63.4414 19.72 63.4948 19.43 63.3791Z" fill="#3A3A3A"/>
<path d="M82.72 63.0765C82.65 63.0587 82.6 62.9697 82.6 62.8718C82.6 62.7383 82.67 62.7028 82.95 62.7028C83.16 62.7028 83.3 62.7472 83.3 62.8184C83.3 62.943 82.89 63.1299 82.72 63.0765Z" fill="#3A3A3A"/>
<path d="M16.53 62.9341C16.18 62.7917 16.25 62.6138 16.65 62.6138C16.93 62.6138 17 62.6494 17 62.7829C17 62.9964 16.82 63.0498 16.53 62.9341Z" fill="#3A3A3A"/>
<path d="M83.82 62.8985C83.75 62.8807 83.7 62.7917 83.7 62.6938C83.7 62.5604 83.77 62.5248 84.05 62.5248C84.26 62.5248 84.4 62.5693 84.4 62.6405C84.4 62.765 83.99 62.9519 83.82 62.8985Z" fill="#3A3A3A"/>
<path d="M12.03 62.2222C11.68 62.0798 11.75 61.9018 12.15 61.9018C12.43 61.9018 12.5 61.9374 12.5 62.0709C12.5 62.2845 12.32 62.3379 12.03 62.2222Z" fill="#3A3A3A"/>
<path d="M87.1 62.1866C87.1 62.0531 87.19 61.9997 87.56 61.9552C88.25 61.8751 88.4 61.884 88.4 62.0264C88.4 62.151 88.29 62.1866 87.48 62.3112C87.15 62.3557 87.1 62.3468 87.1 62.1866Z" fill="#3A3A3A"/>
<path d="M88.92 62.0976C88.85 62.0798 88.8 61.9908 88.8 61.8929C88.8 61.7594 88.87 61.7238 89.15 61.7238C89.36 61.7238 89.5 61.7683 89.5 61.8395C89.5 61.9641 89.09 62.151 88.92 62.0976Z" fill="#3A3A3A"/>
<path d="M10.88 62.0175C10.55 61.9463 10.68 61.7238 11.05 61.7238C11.33 61.7238 11.4 61.7594 11.4 61.9018C11.4 62.0798 11.26 62.1065 10.88 62.0175Z" fill="#3A3A3A"/>
<path d="M91 61.5459C91 61.4035 91.07 61.3679 91.35 61.3679C91.75 61.3679 91.84 61.5815 91.48 61.6705C91.1 61.7595 91 61.7328 91 61.5459Z" fill="#3A3A3A"/>
<path d="M93.7 61.1009C93.7 60.9585 93.77 60.9229 94.05 60.9229C94.45 60.9229 94.54 61.1365 94.18 61.2255C93.8 61.3145 93.7 61.2878 93.7 61.1009Z" fill="#3A3A3A"/>
<path d="M96.43 60.8606C96.36 60.8339 96.3 60.7449 96.3 60.656C96.3 60.5492 96.4 60.4869 96.68 60.4424C97.26 60.3623 97.5 60.3801 97.5 60.5136C97.5 60.6382 97.16 60.7805 96.92 60.7449C96.84 60.7449 96.73 60.7716 96.67 60.8161C96.6 60.8606 96.49 60.8784 96.43 60.8606Z" fill="#3A3A3A"/>
<path d="M1.23 60.4424C0.88 60.3 0.950002 60.122 1.35 60.122C1.63 60.122 1.7 60.1576 1.7 60.2911C1.7 60.5047 1.52 60.5581 1.23 60.4424Z" fill="#3A3A3A"/>
<path d="M99.02 60.4068C98.95 60.389 98.9 60.3 98.9 60.2021C98.9 60.0686 98.97 60.033 99.25 60.033C99.46 60.033 99.6 60.0775 99.6 60.1487C99.6 60.2733 99.19 60.4602 99.02 60.4068Z" fill="#3A3A3A"/>
<path d="M1.14441e-05 59.5703C1.14441e-05 59.3033 0.130012 59.0541 0.260012 59.0541C0.350012 59.0541 0.400011 59.1609 0.400011 59.3656C0.400011 59.6148 0.360011 59.6771 0.200011 59.6771C0.0900114 59.6771 1.14441e-05 59.6237 1.14441e-05 59.5703Z" fill="#3A3A3A"/>
<path d="M29.9 58.5202C29.9 58.3333 30 58.3066 30.38 58.3956C30.74 58.4846 30.65 58.6982 30.25 58.6982C29.97 58.6982 29.9 58.6626 29.9 58.5202Z" fill="#3A3A3A"/>
<path d="M66.2 58.4312C66.2 58.2443 66.3 58.2176 66.68 58.3066C67.04 58.3956 66.95 58.6092 66.55 58.6092C66.27 58.6092 66.2 58.5736 66.2 58.4312Z" fill="#3A3A3A"/>
<path d="M34.3 58.4134C34.3 58.2799 34.71 58.093 34.88 58.1464C34.95 58.1642 35 58.2532 35 58.3511C35 58.4846 34.93 58.5202 34.65 58.5202C34.44 58.5202 34.3 58.4757 34.3 58.4134V58.4134Z" fill="#3A3A3A"/>
<path d="M0.0999985 58.3244C0.0999985 58.0574 0.229999 57.8083 0.359999 57.8083C0.449999 57.8083 0.499999 57.915 0.499999 58.1197C0.499999 58.3689 0.459999 58.4312 0.299998 58.4312C0.189998 58.4312 0.0999985 58.3778 0.0999985 58.3244Z" fill="#3A3A3A"/>
<path d="M74.7 58.1286C74.7 58.0129 74.98 57.8972 75.28 57.8972C75.34 57.8972 75.4 57.9773 75.4 58.0752C75.4 58.2176 75.33 58.2532 75.05 58.2532C74.82 58.2532 74.7 58.2087 74.7 58.1286Z" fill="#3A3A3A"/>
<path d="M24.3 57.9862C24.3 57.7994 24.4 57.7727 24.78 57.8616C25.14 57.9506 25.05 58.1642 24.65 58.1642C24.37 58.1642 24.3 58.1286 24.3 57.9862Z" fill="#3A3A3A"/>
<path d="M76.5 57.8794C76.5 57.746 76.91 57.5591 77.08 57.6125C77.15 57.6303 77.2 57.7193 77.2 57.8171C77.2 57.9506 77.13 57.9862 76.85 57.9862C76.64 57.9862 76.5 57.9417 76.5 57.8794V57.8794Z" fill="#3A3A3A"/>
<path d="M62.7 57.6748C62.7 57.4612 62.71 57.4523 63.02 57.568C63.48 57.7371 63.5 57.8972 63.06 57.8972C62.74 57.8972 62.7 57.8706 62.7 57.6748Z" fill="#3A3A3A"/>
<path d="M99.5 57.6748C99.5 57.4968 99.45 57.4523 99.25 57.4523C99.03 57.4523 99 57.4167 99 57.1675C99 57.0073 99.04 56.9183 99.08 56.9806C99.12 57.034 99.24 57.0963 99.35 57.1141C99.6 57.1497 99.72 57.2565 99.87 57.5591C100 57.8172 99.96 57.8972 99.68 57.8972C99.55 57.8972 99.5 57.835 99.5 57.6748V57.6748Z" fill="#3A3A3A"/>
<path d="M28.98 57.5057C28.58 57.3811 28.62 57.1853 29.05 57.1853C29.33 57.1853 29.4 57.2209 29.4 57.3544C29.4 57.5858 29.31 57.6214 28.98 57.5057Z" fill="#3A3A3A"/>
<path d="M30.88 57.568C30.78 57.5502 30.7 57.4701 30.7 57.3989C30.7 57.301 30.85 57.2743 31.35 57.2743C31.84 57.2743 32 57.301 32 57.3989C32 57.5947 31.38 57.6837 30.88 57.568Z" fill="#3A3A3A"/>
<path d="M20.6 57.3633C20.6 57.1764 20.7 57.1497 21.08 57.2387C21.44 57.3277 21.35 57.5413 20.95 57.5413C20.67 57.5413 20.6 57.5057 20.6 57.3633Z" fill="#3A3A3A"/>
<path d="M27.98 57.4167C27.58 57.2921 27.62 57.0963 28.05 57.0963C28.33 57.0963 28.4 57.1319 28.4 57.2654C28.4 57.4968 28.31 57.5324 27.98 57.4167Z" fill="#3A3A3A"/>
<path d="M0.700001 57.39C0.700001 57.301 0.900001 57.034 0.900001 57.1141C0.900001 57.1497 1.01 57.1408 1.15 57.0963C1.37 57.0162 1.4 57.034 1.4 57.2298C1.4 57.4256 1.36 57.4523 1.05 57.4523C0.860001 57.4523 0.700001 57.4256 0.700001 57.39V57.39Z" fill="#3A3A3A"/>
<path d="M80.1 57.2565C80.1 57.123 80.51 56.9361 80.68 56.9895C80.75 57.0073 80.8 57.0963 80.8 57.1942C80.8 57.3277 80.73 57.3633 80.45 57.3633C80.24 57.3633 80.1 57.3188 80.1 57.2565V57.2565Z" fill="#3A3A3A"/>
<path d="M61.3 57.1853C61.3 57.1408 61.23 57.0963 61.15 57.0963C61.07 57.0963 61 57.034 61 56.9628C61 56.8917 60.91 56.8294 60.8 56.8294C60.65 56.8294 60.6 56.7671 60.6 56.5713C60.6 56.1975 60.75 56.1619 61 56.4734C61.12 56.6247 61.25 56.7226 61.3 56.6959C61.34 56.6692 61.41 56.7137 61.44 56.7938C61.48 56.8738 61.53 56.9183 61.56 56.8917C61.61 56.8472 62 57.1408 62 57.2298C62 57.2565 61.84 57.2743 61.65 57.2743C61.46 57.2743 61.3 57.2387 61.3 57.1853Z" fill="#3A3A3A"/>
<path d="M73.8 57.1052C73.8 56.9895 73.86 56.9183 73.98 56.9183C74.07 56.9183 74.39 56.8917 74.68 56.865C75.11 56.8116 75.2 56.8294 75.2 56.945C75.2 57.0785 75.08 57.123 74.23 57.2298C73.84 57.2832 73.8 57.2743 73.8 57.1052Z" fill="#3A3A3A"/>
<path d="M3.1 56.7048C3.1 56.5891 3.38 56.4734 3.68 56.4734C3.74 56.4734 3.8 56.5535 3.8 56.6514C3.8 56.7938 3.73 56.8294 3.45 56.8294C3.22 56.8294 3.1 56.7849 3.1 56.7048Z" fill="#3A3A3A"/>
<path d="M14.2 56.4912C14.2 56.2509 14.28 56.2153 14.61 56.3221C15.02 56.4645 14.98 56.6514 14.55 56.6514C14.28 56.6514 14.2 56.6158 14.2 56.4912V56.4912Z" fill="#3A3A3A"/>
<path d="M21.74 56.5535C21.71 56.509 21.61 56.4734 21.52 56.4823C21.24 56.5001 20.9 56.3666 20.9 56.242C20.9 56.1085 21.14 56.0907 21.73 56.1708C21.99 56.2153 22.1 56.2776 22.1 56.3844C22.1 56.5624 21.84 56.687 21.74 56.5535Z" fill="#3A3A3A"/>
<path d="M85.5 56.5268C85.5 56.4111 85.78 56.2954 86.08 56.2954C86.14 56.2954 86.2 56.3755 86.2 56.4734C86.2 56.6158 86.13 56.6514 85.85 56.6514C85.62 56.6514 85.5 56.6069 85.5 56.5268Z" fill="#3A3A3A"/>
<path d="M13.1 56.3844C13.1 56.1975 13.2 56.1708 13.58 56.2598C13.94 56.3488 13.85 56.5624 13.45 56.5624C13.17 56.5624 13.1 56.5268 13.1 56.3844Z" fill="#3A3A3A"/>
<path d="M86.5 56.4378C86.5 56.3221 86.78 56.2064 87.08 56.2064C87.14 56.2064 87.2 56.2865 87.2 56.3844C87.2 56.5268 87.13 56.5624 86.85 56.5624C86.62 56.5624 86.5 56.5179 86.5 56.4378Z" fill="#3A3A3A"/>
<path d="M6 56.3488C6 56.2331 6.28 56.1174 6.58 56.1174C6.64 56.1174 6.7 56.1975 6.7 56.2954C6.7 56.4378 6.63 56.4734 6.35 56.4734C6.12 56.4734 6 56.4289 6 56.3488Z" fill="#3A3A3A"/>
<path d="M11.9 56.2954C11.9 56.1085 12 56.0818 12.38 56.1708C12.74 56.2598 12.65 56.4734 12.25 56.4734C11.97 56.4734 11.9 56.4378 11.9 56.2954Z" fill="#3A3A3A"/>
<path d="M7.7 56.2598C7.7 56.1441 7.98 56.0284 8.28 56.0284C8.34 56.0284 8.4 56.1085 8.4 56.2064C8.4 56.3488 8.33 56.3844 8.05 56.3844C7.82 56.3844 7.7 56.3399 7.7 56.2598Z" fill="#3A3A3A"/>
<path d="M9.8 56.2064C9.8 56.0195 9.9 55.9928 10.28 56.0818C10.64 56.1708 10.55 56.3844 10.15 56.3844C9.87 56.3844 9.8 56.3488 9.8 56.2064Z" fill="#3A3A3A"/>
<path d="M61.81 56.0996C61.75 56.0018 61.66 55.9484 61.62 55.9751C61.58 55.9929 61.47 55.9128 61.37 55.7971C61.19 55.5835 61.19 55.5835 61.55 55.5835C61.79 55.5835 61.9 55.6191 61.9 55.717C61.9 55.7882 61.99 55.8505 62.1 55.8505C62.25 55.8505 62.3 55.9128 62.3 56.064C62.3 56.331 61.99 56.3488 61.81 56.0996Z" fill="#3A3A3A"/>
<path d="M79.9 56.1174C79.9 55.975 79.97 55.9395 80.25 55.9395C80.65 55.9395 80.74 56.153 80.38 56.242C80 56.331 79.9 56.3043 79.9 56.1174Z" fill="#3A3A3A"/>
<path d="M18.93 56.0818C18.58 55.9394 18.65 55.7615 19.05 55.7615C19.33 55.7615 19.4 55.7971 19.4 55.9306C19.4 56.1441 19.22 56.1975 18.93 56.0818Z" fill="#3A3A3A"/>
<path d="M99.3 55.895C99.3 55.5123 99.51 55.4767 99.67 55.8416C99.79 56.1352 99.75 56.2064 99.48 56.2064C99.34 56.2064 99.3 56.1352 99.3 55.895Z" fill="#3A3A3A"/>
<path d="M59.5 55.628C59.5 55.5568 59.46 55.4945 59.4 55.4945C59.35 55.4945 59.3 55.3521 59.3 55.183C59.3 55.0139 59.32 54.8716 59.35 54.8716C59.43 54.8716 59.81 55.2275 59.73 55.2275C59.68 55.2275 59.74 55.2898 59.84 55.361C59.95 55.4322 60 55.4945 59.96 55.4945C59.91 55.4945 59.93 55.5568 60 55.628C60.11 55.7437 60.08 55.7615 59.81 55.7615C59.6 55.7615 59.5 55.717 59.5 55.628Z" fill="#3A3A3A"/>
<path d="M84.4 55.4945C84.4 55.3521 84.47 55.3165 84.75 55.3165C85.15 55.3165 85.24 55.5301 84.88 55.6191C84.5 55.7081 84.4 55.6814 84.4 55.4945Z" fill="#3A3A3A"/>
<path d="M14.48 55.5212C14.15 55.45 14.28 55.2275 14.65 55.2275C14.93 55.2275 15 55.2631 15 55.4055C15 55.5835 14.86 55.6102 14.48 55.5212Z" fill="#3A3A3A"/>
<path d="M95.98 55.5212C95.65 55.45 95.78 55.2275 96.15 55.2275C96.43 55.2275 96.5 55.2631 96.5 55.4055C96.5 55.5835 96.36 55.6102 95.98 55.5212Z" fill="#3A3A3A"/>
<path d="M4.6 55.3165C4.6 55.1741 4.67 55.1385 4.95 55.1385C5.35 55.1385 5.44 55.3521 5.08 55.4411C4.7 55.5301 4.6 55.5034 4.6 55.3165Z" fill="#3A3A3A"/>
<path d="M12.53 55.3877C12.08 55.2542 12.1 55.0495 12.55 55.0495C12.86 55.0495 12.9 55.0762 12.9 55.272C12.9 55.3966 12.89 55.4945 12.88 55.4856C12.86 55.4767 12.7 55.4322 12.53 55.3877Z" fill="#3A3A3A"/>
<path d="M39.3 55.183C39.3 54.8805 39.31 54.8716 39.68 54.8716C39.98 54.8805 40.02 54.8982 39.87 54.9694C39.78 55.0228 39.71 55.0851 39.74 55.1207C39.76 55.1563 39.67 55.2542 39.54 55.3432C39.3 55.5034 39.3 55.5034 39.3 55.183V55.183Z" fill="#3A3A3A"/>
<path d="M87.4 55.2631C87.4 55.0762 87.45 55.0495 87.75 55.0495C87.97 55.0495 88.1 55.094 88.1 55.1652C88.1 55.2364 87.94 55.3254 87.75 55.3788C87.42 55.4767 87.4 55.4678 87.4 55.2631Z" fill="#3A3A3A"/>
<path d="M5.6 55.2275C5.6 55.0851 5.67 55.0495 5.95 55.0495C6.35 55.0495 6.44 55.2631 6.08 55.3521C5.7 55.4411 5.6 55.4144 5.6 55.2275Z" fill="#3A3A3A"/>
<path d="M7 55.1385C7 54.9961 7.07 54.9605 7.35 54.9605C7.75 54.9605 7.84 55.1741 7.48 55.2631C7.1 55.3521 7 55.3254 7 55.1385Z" fill="#3A3A3A"/>
<path d="M60.65 55.0673C60.34 54.836 60.34 54.6046 60.65 54.6046C60.87 54.6046 60.9 54.6402 60.9 54.9161C60.9 55.272 60.91 55.272 60.65 55.0673Z" fill="#3A3A3A"/>
<path d="M39.8 54.4711C39.8 54.1952 39.83 54.1596 40.05 54.1596C40.35 54.1596 40.35 54.1863 40.13 54.5245C39.9 54.8627 39.8 54.8538 39.8 54.4711Z" fill="#3A3A3A"/>
<path d="M99 54.0261C99 53.6702 99.24 53.5901 99.34 53.9193C99.44 54.2486 99.41 54.3376 99.2 54.3376C99.04 54.3376 99 54.2753 99 54.0261Z" fill="#3A3A3A"/>
<path d="M58.6 53.8393C58.6 53.4477 58.78 53.4655 58.97 53.8749C59.1 54.1507 59.09 54.1596 58.85 54.1596C58.63 54.1596 58.6 54.124 58.6 53.8393Z" fill="#3A3A3A"/>
<path d="M59.77 53.4744C59.71 53.332 59.61 53.1985 59.55 53.1629C59.5 53.1273 59.6 53.0918 59.78 53.0918C60.08 53.0918 60.1 53.1095 60.1 53.4032C60.1 53.777 59.94 53.8126 59.77 53.4744Z" fill="#3A3A3A"/>
<path d="M58.06 52.5489C57.96 52.095 57.99 51.8459 58.14 51.8459C58.29 51.8459 58.39 52.0683 58.46 52.54C58.5 52.7714 58.47 52.8248 58.32 52.8248C58.18 52.8248 58.11 52.7447 58.06 52.5489Z" fill="#3A3A3A"/>
<path d="M98.62 52.2552C98.46 51.5255 98.47 51.3119 98.64 51.3119C98.78 51.3119 98.93 51.6145 98.91 51.8637C98.9 51.9438 98.93 52.0328 98.99 52.0595C99.04 52.0862 99.06 52.1929 99.03 52.2819C99 52.3709 99.03 52.4777 99.09 52.5044C99.24 52.5934 99.11 52.8248 98.91 52.8248C98.77 52.8248 98.71 52.6913 98.62 52.2552V52.2552Z" fill="#3A3A3A"/>
<path d="M37.2 52.5934C37.2 52.54 37.79 52.0238 37.86 52.0238C37.88 52.0238 37.9 52.1662 37.9 52.3353C37.9 52.629 37.88 52.6468 37.55 52.6468C37.36 52.6468 37.2 52.6201 37.2 52.5934Z" fill="#3A3A3A"/>
<path d="M28.1 52.2463C28.1 52.0328 28.15 51.9349 28.25 51.9349C28.33 51.9349 28.4 51.9972 28.4 52.0683C28.4 52.1395 28.45 52.2018 28.51 52.2018C28.56 52.2018 28.58 52.2463 28.55 52.2908C28.52 52.3442 28.56 52.3798 28.64 52.3798C28.73 52.3798 28.8 52.4243 28.8 52.4688C28.8 52.5222 28.64 52.5578 28.45 52.5578C28.12 52.5578 28.1 52.54 28.1 52.2463Z" fill="#3A3A3A"/>
<path d="M61.5 52.2463C61.5 52.0328 61.55 51.9349 61.65 51.9349C61.73 51.9349 61.8 51.9972 61.8 52.0683C61.8 52.1395 61.85 52.2018 61.91 52.2018C61.96 52.2018 61.98 52.2463 61.95 52.2908C61.92 52.3442 61.96 52.3798 62.04 52.3798C62.13 52.3798 62.2 52.4243 62.2 52.4688C62.2 52.5222 62.04 52.5578 61.85 52.5578C61.52 52.5578 61.5 52.54 61.5 52.2463Z" fill="#3A3A3A"/>
<path d="M59.24 52.0862C59.11 51.8192 59.17 51.6679 59.41 51.6679C59.56 51.6679 59.6 51.7302 59.6 51.9794C59.6 52.3353 59.41 52.3976 59.24 52.0862Z" fill="#3A3A3A"/>
<path d="M40.9 51.6234C40.9 51.3742 40.94 51.3119 41.1 51.3119C41.31 51.3119 41.34 51.4009 41.24 51.7391C41.14 52.0594 40.9 51.9794 40.9 51.6234Z" fill="#3A3A3A"/>
<path d="M36.4 51.5344C36.4 51.1784 36.64 51.0984 36.74 51.4276C36.84 51.7569 36.81 51.8459 36.6 51.8459C36.44 51.8459 36.4 51.7836 36.4 51.5344Z" fill="#3A3A3A"/>
<path d="M69.8 51.5344C69.8 51.1784 70.04 51.0984 70.14 51.4276C70.24 51.7569 70.21 51.8459 70 51.8459C69.84 51.8459 69.8 51.7836 69.8 51.5344Z" fill="#3A3A3A"/>
<path d="M29.3 51.6501C29.3 51.3831 29.43 51.1339 29.56 51.1339C29.65 51.1339 29.7 51.2407 29.7 51.4454C29.7 51.6946 29.66 51.7569 29.5 51.7569C29.39 51.7569 29.3 51.7035 29.3 51.6501Z" fill="#3A3A3A"/>
<path d="M71.06 51.4721C70.96 51.1339 70.99 51.045 71.2 51.045C71.36 51.045 71.4 51.1072 71.4 51.3564C71.4 51.7124 71.16 51.7925 71.06 51.4721Z" fill="#3A3A3A"/>
<path d="M37.45 50.7157C37.42 50.5822 37.33 50.4398 37.27 50.4042C37.2 50.3686 37.29 50.333 37.48 50.333C37.78 50.333 37.8 50.3508 37.8 50.6445C37.8 51.0272 37.55 51.0716 37.45 50.7157V50.7157Z" fill="#3A3A3A"/>
<path d="M70.83 50.6445C70.72 50.3508 70.73 50.333 70.96 50.333C71.17 50.333 71.2 50.3775 71.2 50.6445C71.2 50.8403 71.15 50.956 71.07 50.956C70.99 50.956 70.89 50.8136 70.83 50.6445Z" fill="#3A3A3A"/>
<path d="M28.4 50.422C28.4 50.0127 28.6 49.7101 28.87 49.7101C29.16 49.7101 29.16 49.7101 28.85 50.244C28.56 50.7513 28.4 50.8136 28.4 50.422Z" fill="#3A3A3A"/>
<path d="M61.8 50.4309C61.8 50.0305 61.9 49.8881 62.16 49.8881C62.4 49.8881 62.4 49.897 62.26 50.1995C62.18 50.3686 62.14 50.511 62.18 50.511C62.27 50.511 61.97 50.689 61.88 50.689C61.83 50.689 61.8 50.5733 61.8 50.4309V50.4309Z" fill="#3A3A3A"/>
<path d="M35.9 50.3063C35.9 50.1017 35.95 50.0038 36.05 50.0038C36.13 50.0038 36.17 50.0305 36.15 50.0661C36.13 50.1017 36.19 50.2084 36.3 50.3063C36.51 50.5199 36.47 50.6 36.13 50.6C35.94 50.6 35.9 50.5555 35.9 50.3063V50.3063Z" fill="#3A3A3A"/>
<path d="M42.3 50.4932C42.3 50.2262 42.43 49.9771 42.56 49.9771C42.65 49.9771 42.7 50.0838 42.7 50.2885C42.7 50.5377 42.66 50.6 42.5 50.6C42.39 50.6 42.3 50.5466 42.3 50.4932Z" fill="#3A3A3A"/>
<path d="M70.43 50.0127C70.47 49.9771 70.4 49.8347 70.29 49.7012C70.09 49.4431 70.09 49.4431 70.39 49.4431C70.68 49.4431 70.7 49.4698 70.7 49.7546C70.7 49.986 70.66 50.0661 70.53 50.0661C70.44 50.0661 70.4 50.0394 70.43 50.0127Z" fill="#3A3A3A"/>
<path d="M59 49.3363C59 49.0693 59.13 48.8202 59.26 48.8202C59.35 48.8202 59.4 48.927 59.4 49.1316C59.4 49.3808 59.36 49.4431 59.2 49.4431C59.09 49.4431 59 49.3897 59 49.3363Z" fill="#3A3A3A"/>
<path d="M31 49.2829C31 49.2206 31.17 49.1228 31.63 48.927C31.67 48.9092 31.7 48.9982 31.7 49.1228C31.7 49.3274 31.66 49.3541 31.35 49.3541C31.16 49.3541 31 49.3185 31 49.2829V49.2829Z" fill="#3A3A3A"/>
<path d="M64.4 49.274C64.4 49.2295 64.59 49.1138 64.83 49.0071C65.25 48.8202 65.25 48.8202 65.28 49.0071C65.3 49.1138 65.26 49.2384 65.18 49.274C65.01 49.3808 64.4 49.3719 64.4 49.274Z" fill="#3A3A3A"/>
<path d="M57.8 48.9537C57.8 48.7045 57.84 48.6422 58 48.6422C58.21 48.6422 58.24 48.7312 58.14 49.0694C58.04 49.3897 57.8 49.3096 57.8 48.9537Z" fill="#3A3A3A"/>
<path d="M97.76 48.9893C97.65 48.4909 97.69 48.2862 97.88 48.2862C97.98 48.2862 98.06 48.3574 98.06 48.4464C98.07 48.5265 98.1 48.749 98.15 48.9359C98.21 49.2295 98.2 49.2651 98.02 49.2651C97.88 49.2651 97.81 49.185 97.76 48.9893V48.9893Z" fill="#3A3A3A"/>
<path d="M1.93 48.8647C1.94 48.6333 2 48.5532 2.13 48.5532C2.26 48.5532 2.3 48.6244 2.3 48.8647C2.3 49.1138 2.26 49.1761 2.1 49.1761C1.93 49.1761 1.9 49.1227 1.93 48.8647Z" fill="#3A3A3A"/>
<path d="M33.9 48.9982C33.9 48.8024 34.1 48.7668 34.41 48.9092C34.71 49.0516 34.64 49.1761 34.25 49.1761C33.97 49.1761 33.9 49.1405 33.9 48.9982Z" fill="#3A3A3A"/>
<path d="M67.3 48.9982C67.3 48.8024 67.5 48.7668 67.81 48.9092C68.11 49.0516 68.04 49.1761 67.65 49.1761C67.37 49.1761 67.3 49.1405 67.3 48.9982Z" fill="#3A3A3A"/>
<path d="M69.55 48.9092C69.51 48.8558 69.46 48.838 69.42 48.8558C69.38 48.8736 69.27 48.7935 69.17 48.6778C68.99 48.4642 68.99 48.4642 69.35 48.4642C69.67 48.4642 69.7 48.482 69.7 48.7312C69.7 49.0071 69.66 49.0605 69.55 48.9092Z" fill="#3A3A3A"/>
<path d="M63.6 48.5265C63.6 48.2062 63.61 48.1973 63.95 48.1973C64.14 48.1973 64.3 48.215 64.3 48.2417C64.3 48.3129 63.9 48.6511 63.9 48.5799C63.9 48.5354 63.83 48.5888 63.75 48.6778C63.61 48.8469 63.6 48.838 63.6 48.5265V48.5265Z" fill="#3A3A3A"/>
<path d="M31 48.0638C31 47.868 31.04 47.8413 31.36 47.8413C31.8 47.8413 31.78 48.0015 31.32 48.1706C31.01 48.2862 31 48.2773 31 48.0638Z" fill="#3A3A3A"/>
<path d="M64.4 48.0638C64.4 47.868 64.44 47.8413 64.76 47.8413C65.2 47.8413 65.18 48.0015 64.72 48.1706C64.41 48.2862 64.4 48.2773 64.4 48.0638Z" fill="#3A3A3A"/>
<path d="M2.2 48.1083C2.2 48.0549 2.27 47.779 2.37 47.4853C2.55 46.8802 2.8 46.7556 2.8 47.2628C2.8 47.4319 2.76 47.5743 2.7 47.5743C2.65 47.5743 2.6 47.7167 2.6 47.8858C2.6 48.135 2.56 48.1972 2.4 48.1972C2.29 48.1972 2.2 48.1527 2.2 48.1083Z" fill="#3A3A3A"/>
<path d="M34.52 48.0994C34.39 48.0549 34.24 48.0371 34.19 48.0727C34.14 48.0994 34.1 48.0371 34.1 47.9392C34.1 47.7879 34.16 47.7523 34.45 47.7523C34.76 47.7523 34.8 47.779 34.8 47.9748C34.8 48.0994 34.79 48.1972 34.78 48.1883C34.76 48.1883 34.64 48.1527 34.52 48.0994Z" fill="#3A3A3A"/>
<path d="M67.92 48.0994C67.79 48.0549 67.64 48.0371 67.59 48.0727C67.54 48.0994 67.5 48.0371 67.5 47.9392C67.5 47.7879 67.56 47.7523 67.85 47.7523C68.16 47.7523 68.2 47.779 68.2 47.9748C68.2 48.0994 68.19 48.1972 68.18 48.1883C68.16 48.1883 68.04 48.1527 67.92 48.0994Z" fill="#3A3A3A"/>
<path d="M58.1 47.7968C58.1 47.6277 58.15 47.4853 58.2 47.4853C58.26 47.4853 58.3 47.3874 58.3 47.2628C58.3 47.0849 58.35 47.0404 58.55 47.0404C58.77 47.0404 58.78 47.0671 58.7 47.2539C58.65 47.3696 58.64 47.4942 58.67 47.5209C58.71 47.5476 58.68 47.5743 58.62 47.5743C58.56 47.5743 58.49 47.6989 58.45 47.8413C58.36 48.2239 58.1 48.1883 58.1 47.7968Z" fill="#3A3A3A"/>
<path d="M40.5 47.5298C40.5 47.1561 40.66 47.1205 40.83 47.4675C40.89 47.601 40.99 47.7345 41.05 47.7701C41.1 47.8057 41 47.8413 40.83 47.8413C40.52 47.8413 40.5 47.8235 40.5 47.5298V47.5298Z" fill="#3A3A3A"/>
<path d="M59.35 47.7701C59.41 47.7345 59.56 47.5209 59.69 47.2895C59.96 46.8001 60.1 46.7467 60.1 47.1294C60.1 47.5832 59.91 47.8413 59.56 47.8413C59.39 47.8413 59.3 47.8057 59.35 47.7701V47.7701Z" fill="#3A3A3A"/>
<path d="M97.1 46.8179C97.1 46.6933 97.06 46.5954 97 46.5954C96.95 46.5954 96.9 46.4975 96.9 46.3818C96.9 46.0704 97.26 46.1772 97.39 46.5242C97.55 46.9247 97.53 47.0404 97.3 47.0404C97.15 47.0404 97.1 46.9781 97.1 46.8179Z" fill="#3A3A3A"/>
<path d="M2.58 46.7111C2.64 46.6933 2.7 46.6132 2.7 46.5509C2.7 46.4886 2.84 46.3907 3 46.3373C3.28 46.2572 3.3 46.2661 3.3 46.453C3.3 46.6844 3.13 46.7734 2.72 46.7645C2.57 46.7645 2.51 46.7378 2.58 46.7111Z" fill="#3A3A3A"/>
<path d="M41.21 46.4085C41.08 46.2128 40.92 46.0259 40.84 45.9992C40.76 45.9725 40.72 45.9191 40.75 45.8835C40.78 45.839 40.7 45.7411 40.58 45.6699C40.46 45.5898 40.39 45.5275 40.44 45.5275C40.49 45.5275 40.47 45.4652 40.4 45.394C40.29 45.2783 40.32 45.2606 40.59 45.2606C40.83 45.2606 40.9 45.2961 40.9 45.4385C40.9 45.5364 40.97 45.6165 41.05 45.6165C41.15 45.6165 41.2 45.7055 41.2 45.8835C41.2 46.0882 41.24 46.1505 41.4 46.1505C41.56 46.1505 41.6 46.2128 41.6 46.4619C41.6 46.8713 41.49 46.8535 41.21 46.4085Z" fill="#3A3A3A"/>
<path d="M95.33 45.9102C95.26 45.8924 95.2 45.7678 95.2 45.6521C95.2 45.4385 95.21 45.4385 95.55 45.5631C95.74 45.6343 95.9 45.6699 95.9 45.6343C95.9 45.5542 96.1 45.8212 96.1 45.9102C96.1 45.9814 95.52 45.9814 95.33 45.9102Z" fill="#3A3A3A"/>
<path d="M4.52 45.7767C4.55 45.7144 4.71 45.6165 4.88 45.5542C5.19 45.4385 5.2 45.4474 5.2 45.661C5.2 45.8568 5.16 45.8835 4.84 45.8835C4.61 45.8835 4.5 45.8479 4.52 45.7767Z" fill="#3A3A3A"/>
<path d="M50.3 45.5898C50.3 45.4741 50.85 45.2428 50.94 45.3317C50.97 45.3584 51 45.4563 51 45.5453C51 45.6699 50.92 45.7055 50.65 45.7055C50.43 45.7055 50.3 45.661 50.3 45.5898Z" fill="#3A3A3A"/>
<path d="M94.3 45.305C94.3 45.1093 94.33 45.0915 94.55 45.1716C94.69 45.216 94.8 45.2249 94.8 45.1894C94.8 45.1093 95 45.3762 95 45.4652C95 45.5008 94.84 45.5275 94.65 45.5275C94.34 45.5275 94.3 45.5008 94.3 45.305V45.305Z" fill="#3A3A3A"/>
<path d="M45.6 45.0826C45.6 44.9313 45.66 44.9046 45.95 44.9313C46.21 44.9402 46.3 44.9936 46.3 45.1093C46.3 45.225 46.22 45.2606 45.95 45.2606C45.67 45.2606 45.6 45.225 45.6 45.0826Z" fill="#3A3A3A"/>
<path d="M96.67 45.1627C96.58 45.1093 96.5 45.1093 96.5 45.1449C96.5 45.2339 96.3 44.9758 96.3 44.8868C96.3 44.8423 96.41 44.8156 96.54 44.8156C96.7 44.8156 96.8 44.8779 96.83 45.0114C96.91 45.2517 96.89 45.2695 96.67 45.1627V45.1627Z" fill="#3A3A3A"/>
<path d="M3.6 44.9491C3.6 44.7533 3.64 44.7266 3.96 44.7266C4.4 44.7266 4.38 44.8868 3.92 45.0559C3.61 45.1715 3.6 45.1626 3.6 44.9491V44.9491Z" fill="#3A3A3A"/>
<path d="M6.3 45.1093C6.3 45.0203 6.5 44.7533 6.5 44.8334C6.5 44.869 6.61 44.8601 6.75 44.8156C6.97 44.7355 7 44.7533 7 44.9491C7 45.1449 6.96 45.1716 6.65 45.1716C6.46 45.1716 6.3 45.1449 6.3 45.1093V45.1093Z" fill="#3A3A3A"/>
<path d="M61.77 44.958C61.87 44.8423 61.97 44.7622 61.99 44.78C62.01 44.7978 62.09 44.7711 62.17 44.7177C62.27 44.6376 62.3 44.6732 62.3 44.8957C62.3 45.1538 62.28 45.1716 61.95 45.1716C61.59 45.1716 61.59 45.1716 61.77 44.958Z" fill="#3A3A3A"/>
<path d="M93.4 45.0381C93.4 44.9491 93.29 44.9046 93.05 44.9046C92.86 44.9046 92.7 44.869 92.7 44.8156C92.7 44.7711 92.59 44.7266 92.45 44.7266C92.25 44.7266 92.2 44.6821 92.2 44.5041C92.2 44.2816 92.2 44.2816 92.7 44.4596C92.98 44.5575 93.2 44.6109 93.2 44.5842C93.2 44.5575 93.27 44.602 93.36 44.6732C93.49 44.7978 93.64 44.8334 93.86 44.8067C93.94 44.7978 94.1 45.0025 94.1 45.1093C94.1 45.1449 93.94 45.1716 93.75 45.1716C93.51 45.1716 93.4 45.1271 93.4 45.0381Z" fill="#3A3A3A"/>
<path d="M44.7 44.7711C44.7 44.5575 44.71 44.5486 45.02 44.6643C45.48 44.8334 45.5 44.9936 45.06 44.9936C44.74 44.9936 44.7 44.9669 44.7 44.7711Z" fill="#3A3A3A"/>
<path d="M53.92 44.7088C53.95 44.6465 54.11 44.5486 54.28 44.4863C54.59 44.3706 54.6 44.3795 54.6 44.5931C54.6 44.7889 54.56 44.8156 54.24 44.8156C54.01 44.8156 53.9 44.78 53.92 44.7088Z" fill="#3A3A3A"/>
<path d="M95.53 44.6821C95.1 44.5219 95.11 44.3706 95.55 44.3706C95.86 44.3706 95.9 44.3973 95.9 44.5931C95.9 44.7177 95.89 44.8156 95.88 44.8156C95.86 44.8067 95.7 44.7533 95.53 44.6821Z" fill="#3A3A3A"/>
<path d="M37.3 44.3083C37.31 44.0325 37.33 43.9969 37.41 44.1304C37.47 44.2105 37.54 44.2727 37.58 44.2461C37.62 44.2283 37.73 44.3083 37.83 44.424C38.01 44.6376 38.01 44.6376 37.65 44.6376C37.31 44.6376 37.3 44.6287 37.3 44.3083V44.3083Z" fill="#3A3A3A"/>
<path d="M48.98 44.5753C48.65 44.5041 48.78 44.2816 49.15 44.2816C49.43 44.2816 49.5 44.3172 49.5 44.4596C49.5 44.6376 49.36 44.6643 48.98 44.5753Z" fill="#3A3A3A"/>
<path d="M62.57 44.424C62.67 44.3083 62.78 44.2282 62.83 44.2549C62.87 44.2727 62.92 44.2371 62.95 44.1749C62.98 44.1037 63.09 44.0503 63.2 44.0414C63.35 44.0325 63.4 44.0859 63.4 44.246C63.4 44.3795 63.34 44.4596 63.25 44.4596C63.17 44.4596 63.1 44.5041 63.1 44.5486C63.1 44.602 62.94 44.6376 62.75 44.6376C62.39 44.6376 62.39 44.6376 62.57 44.424V44.424Z" fill="#3A3A3A"/>
<path d="M47.78 44.4863C47.45 44.4151 47.58 44.1927 47.95 44.1927C48.23 44.1927 48.3 44.2283 48.3 44.3706C48.3 44.5486 48.16 44.5753 47.78 44.4863Z" fill="#3A3A3A"/>
<path d="M50.9 44.3706C50.9 44.2283 50.97 44.1927 51.25 44.1927C51.65 44.1927 51.74 44.4062 51.38 44.4952C51 44.5842 50.9 44.5575 50.9 44.3706Z" fill="#3A3A3A"/>
<path d="M5.4 44.2372C5.4 44.0414 5.44 44.0147 5.75 44.0147C5.94 44.0147 6.1 44.0414 6.1 44.0859C6.1 44.166 5.9 44.4329 5.9 44.3528C5.9 44.3172 5.79 44.3261 5.65 44.3706C5.43 44.4507 5.4 44.4329 5.4 44.2372Z" fill="#3A3A3A"/>
<path d="M43.3 44.2372C43.3 43.9791 43.32 43.9702 43.7 44.1482C44.1 44.335 44.08 44.4596 43.65 44.4596C43.34 44.4596 43.3 44.4329 43.3 44.2372Z" fill="#3A3A3A"/>
<path d="M61 44.2016C61 43.9435 61.02 43.9257 61.35 43.9257C61.71 43.9257 61.71 43.9257 61.48 44.1927C61.26 44.4596 61.12 44.5575 61.26 44.3528C61.31 44.2728 61.28 44.2728 61.17 44.3617C61.02 44.4685 61 44.4507 61 44.2016V44.2016Z" fill="#3A3A3A"/>
<path d="M94.53 44.2816C94.4 44.2371 94.3 44.2193 94.3 44.246C94.3 44.2727 94.23 44.2282 94.14 44.1571C94.01 44.0325 93.86 43.9969 93.64 44.0236C93.56 44.0325 93.4 43.8278 93.4 43.7299C93.4 43.6854 93.56 43.6587 93.75 43.6587C93.99 43.6587 94.1 43.7032 94.1 43.7922C94.1 43.8812 94.21 43.9257 94.45 43.9257C94.76 43.9257 94.8 43.9524 94.8 44.1482C94.8 44.2727 94.79 44.3706 94.78 44.3617C94.76 44.3617 94.65 44.3261 94.53 44.2816V44.2816Z" fill="#3A3A3A"/>
<path d="M46.38 44.2194C46.05 44.1482 46.18 43.9257 46.55 43.9257C46.83 43.9257 46.9 43.9613 46.9 44.1037C46.9 44.2817 46.76 44.3083 46.38 44.2194Z" fill="#3A3A3A"/>
<path d="M9 44.1037C9 44.0503 9.12 43.9613 9.28 43.899C9.43 43.8456 9.58 43.7566 9.62 43.7032C9.66 43.6587 9.7 43.7477 9.7 43.9079C9.7 44.1749 9.68 44.1927 9.35 44.1927C9.16 44.1927 9 44.1482 9 44.1037Z" fill="#3A3A3A"/>
<path d="M55.2 44.1215C55.2 44.0503 55.72 43.7477 55.84 43.7477C55.87 43.7477 55.9 43.8456 55.9 43.9702C55.9 44.166 55.86 44.1927 55.55 44.1927C55.36 44.1927 55.2 44.1571 55.2 44.1215Z" fill="#3A3A3A"/>
<path d="M90.7 44.1037C90.7 44.0592 90.59 44.0147 90.45 44.0147C90.25 44.0147 90.2 43.9702 90.2 43.7922C90.2 43.5964 90.23 43.5786 90.45 43.6587C90.59 43.7032 90.7 43.7121 90.7 43.6765C90.7 43.6409 90.74 43.6587 90.78 43.7032C90.82 43.7566 90.97 43.8456 91.13 43.899C91.51 44.0503 91.47 44.1927 91.05 44.1927C90.86 44.1927 90.7 44.1571 90.7 44.1037Z" fill="#3A3A3A"/>
<path d="M6.8 43.7032C6.8 43.5074 6.84 43.4807 7.15 43.4807C7.34 43.4807 7.5 43.5074 7.5 43.5519C7.5 43.632 7.3 43.899 7.3 43.8189C7.3 43.7833 7.19 43.7922 7.05 43.8367C6.83 43.9168 6.8 43.899 6.8 43.7032Z" fill="#3A3A3A"/>
<path d="M63.7 43.8545C63.7 43.81 63.81 43.721 63.95 43.6587C64.09 43.5964 64.2 43.5074 64.2 43.4629C64.2 43.4184 64.25 43.4095 64.3 43.4362C64.36 43.4629 64.4 43.5875 64.4 43.7121C64.4 43.899 64.35 43.9257 64.05 43.9257C63.86 43.9257 63.7 43.8901 63.7 43.8545Z" fill="#3A3A3A"/>
<path d="M3.9 43.6854C3.9 43.6053 3.93 43.5697 3.96 43.5964C4 43.6231 4.12 43.5964 4.24 43.5252C4.53 43.3383 4.6 43.3561 4.6 43.6142C4.6 43.81 4.56 43.8367 4.25 43.8367C3.99 43.8367 3.9 43.8011 3.9 43.6854V43.6854Z" fill="#3A3A3A"/>
<path d="M38.2 43.7566C38.2 43.7121 38 43.5608 37.75 43.4184C37.5 43.285 37.3 43.1426 37.3 43.107C37.3 43.0625 37.46 43.0358 37.65 43.0358C37.84 43.0358 38 43.0803 38 43.1248C38 43.1782 38.07 43.2138 38.15 43.2138C38.25 43.2138 38.3 43.3117 38.3 43.5252C38.3 43.6943 38.28 43.8367 38.25 43.8367C38.22 43.8367 38.2 43.8011 38.2 43.7566V43.7566Z" fill="#3A3A3A"/>
<path d="M95.9 43.5163C95.9 43.1248 96.08 43.1426 96.27 43.5519C96.4 43.8278 96.39 43.8367 96.15 43.8367C95.93 43.8367 95.9 43.8011 95.9 43.5163Z" fill="#3A3A3A"/>
<path d="M89.1 43.4362C89.1 43.2227 89.11 43.2138 89.42 43.3295C89.88 43.4985 89.9 43.6587 89.46 43.6587C89.14 43.6587 89.1 43.632 89.1 43.4362V43.4362Z" fill="#3A3A3A"/>
<path d="M62.4 43.2494C62.4 43.0803 62.45 43.0358 62.65 43.0358C62.81 43.0358 62.9 42.9824 62.9 42.9023C62.9 42.8133 63.01 42.7688 63.25 42.7688C63.71 42.7688 63.69 42.8667 63.2 43.1159C62.98 43.2227 62.8 43.3472 62.8 43.3828C62.8 43.4095 62.71 43.4451 62.6 43.454C62.45 43.4629 62.4 43.4184 62.4 43.2494Z" fill="#3A3A3A"/>
<path d="M92.03 43.3472C91.6 43.1871 91.61 43.0358 92.05 43.0358C92.36 43.0358 92.4 43.0625 92.4 43.2583C92.4 43.3828 92.39 43.4807 92.38 43.4807C92.36 43.4718 92.2 43.4184 92.03 43.3472Z" fill="#3A3A3A"/>
<path d="M41.2 43.0892C41.2 42.7866 41.2 42.7866 41.55 43.0625C41.74 43.2138 41.9 43.3473 41.9 43.365C41.9 43.3828 41.74 43.3917 41.55 43.3917C41.22 43.3917 41.2 43.3739 41.2 43.0892Z" fill="#3A3A3A"/>
<path d="M4.9 43.2316C4.9 43.1604 5.42 42.8578 5.54 42.8578C5.57 42.8578 5.6 42.9557 5.6 43.0803C5.6 43.2761 5.56 43.3028 5.25 43.3028C5.06 43.3028 4.9 43.2672 4.9 43.2316Z" fill="#3A3A3A"/>
<path d="M43.5 43.2316C43.5 43.1871 43.39 43.0981 43.25 43.0358C42.9 42.8667 42.94 42.7688 43.35 42.7688C43.65 42.7688 43.7 42.7955 43.7 42.9824C43.7 43.107 43.66 43.2316 43.6 43.2583C43.55 43.285 43.5 43.2761 43.5 43.2316Z" fill="#3A3A3A"/>
<path d="M56.77 43.0892C56.87 42.9735 56.98 42.8934 57.02 42.9112C57.05 42.929 57.2 42.8222 57.34 42.6709C57.48 42.5196 57.6 42.4306 57.6 42.4573C57.6 42.4929 57.67 42.4751 57.75 42.4128C57.88 42.315 57.9 42.3417 57.9 42.5819C57.9 42.8311 57.87 42.8578 57.6 42.8578C57.35 42.8578 57.3 42.8934 57.3 43.0803C57.3 43.2761 57.26 43.3028 56.95 43.3028C56.59 43.3028 56.59 43.3028 56.77 43.0892V43.0892Z" fill="#3A3A3A"/>
<path d="M65.1 43.2405C65.1 43.1515 65.3 42.8845 65.3 42.9646C65.3 43.0002 65.41 42.9913 65.55 42.9468C65.77 42.8667 65.8 42.8845 65.8 43.0803C65.8 43.276 65.76 43.3027 65.45 43.3027C65.26 43.3027 65.1 43.276 65.1 43.2405V43.2405Z" fill="#3A3A3A"/>
<path d="M91 43.0536C91 43.018 90.87 42.9379 90.7 42.8845C90.29 42.751 90.32 42.5908 90.75 42.5908C91.07 42.5908 91.1 42.6086 91.1 42.8578C91.1 43.0091 91.08 43.1248 91.05 43.1248C91.02 43.1248 91 43.0892 91 43.0536V43.0536Z" fill="#3A3A3A"/>
<path d="M95.6 42.8044C95.6 42.4128 95.78 42.4306 95.97 42.84C96.1 43.1159 96.09 43.1248 95.85 43.1248C95.63 43.1248 95.6 43.0892 95.6 42.8044Z" fill="#3A3A3A"/>
<path d="M55.5 42.751C55.5 42.4217 55.51 42.4128 55.85 42.4128C56.21 42.4128 56.21 42.4128 56.03 42.6264C55.93 42.7421 55.82 42.8222 55.78 42.8044C55.74 42.7777 55.67 42.84 55.61 42.9201C55.53 43.0536 55.51 43.018 55.5 42.751V42.751Z" fill="#3A3A3A"/>
<path d="M13.3 42.7332C13.3 42.6175 13.58 42.5018 13.88 42.5018C13.94 42.5018 14 42.5819 14 42.6798C14 42.8222 13.93 42.8578 13.65 42.8578C13.42 42.8578 13.3 42.8133 13.3 42.7332Z" fill="#3A3A3A"/>
<path d="M63.87 42.7955C63.74 42.6887 63.8 42.3417 63.96 42.2883C64.05 42.2616 64.25 42.2349 64.42 42.2349C64.65 42.2349 64.71 42.2705 64.66 42.3772C64.63 42.4573 64.6 42.5374 64.6 42.5552C64.6 42.5819 64.56 42.5819 64.51 42.5463C64.46 42.5196 64.34 42.5641 64.26 42.6442C64.17 42.7154 64.1 42.751 64.1 42.7065C64.1 42.6709 64.06 42.6887 64.02 42.751C63.97 42.8133 63.91 42.8311 63.87 42.7955Z" fill="#3A3A3A"/>
<path d="M86.4 42.6798C86.4 42.4929 86.5 42.4662 86.88 42.5552C87.24 42.6442 87.15 42.8578 86.75 42.8578C86.47 42.8578 86.4 42.8222 86.4 42.6798Z" fill="#3A3A3A"/>
<path d="M90.2 42.7866C90.2 42.751 90.07 42.6709 89.9 42.6175C89.49 42.484 89.52 42.3239 89.95 42.3239C90.27 42.3239 90.3 42.3417 90.3 42.5908C90.3 42.7421 90.28 42.8578 90.25 42.8578C90.22 42.8578 90.2 42.8222 90.2 42.7866V42.7866Z" fill="#3A3A3A"/>
<path d="M10.1 42.5463C10.1 42.3505 10.14 42.3239 10.46 42.3239C10.9 42.3239 10.88 42.484 10.42 42.6531C10.11 42.7688 10.1 42.7599 10.1 42.5463V42.5463Z" fill="#3A3A3A"/>
<path d="M6.1 42.6086C6.1 42.5374 6.62 42.2349 6.74 42.2349C6.77 42.2349 6.8 42.3328 6.8 42.4573C6.8 42.6531 6.76 42.6798 6.45 42.6798C6.26 42.6798 6.1 42.6442 6.1 42.6086Z" fill="#3A3A3A"/>
<path d="M32.9 42.4573C32.9 42.2438 32.91 42.2349 33.22 42.3506C33.68 42.5196 33.7 42.6798 33.26 42.6798C32.94 42.6798 32.9 42.6531 32.9 42.4573Z" fill="#3A3A3A"/>
<path d="M66.82 42.573C66.85 42.5107 67.01 42.4128 67.18 42.3506C67.49 42.2349 67.5 42.2438 67.5 42.4573C67.5 42.6531 67.46 42.6798 67.14 42.6798C66.91 42.6798 66.8 42.6442 66.82 42.573Z" fill="#3A3A3A"/>
<path d="M85.4 42.5018C85.4 42.4573 85.24 42.4128 85.05 42.4128C84.77 42.4128 84.7 42.3773 84.7 42.2349C84.7 42.0213 84.8 42.0213 85.44 42.1904C85.7 42.2616 85.96 42.2972 86.01 42.2705C86.06 42.2438 86.1 42.3061 86.1 42.404C86.1 42.5552 86.04 42.5908 85.75 42.5908C85.56 42.5908 85.4 42.5552 85.4 42.5018V42.5018Z" fill="#3A3A3A"/>
<path d="M4.42 42.2171C4.44 42.0569 4.53 42.0035 4.78 41.9857C5.18 41.9501 5.19 42.0569 4.81 42.2616C4.43 42.4573 4.38 42.4573 4.42 42.2171V42.2171Z" fill="#3A3A3A"/>
<path d="M15.8 42.1103C15.8 42.0391 15.99 41.9501 16.24 41.8878C16.84 41.7543 16.9 41.7632 16.9 41.959C16.9 42.0747 16.8 42.137 16.59 42.1815C16.08 42.2705 15.8 42.2438 15.8 42.1103Z" fill="#3A3A3A"/>
<path d="M56.5 41.9768C56.5 41.7276 56.53 41.7009 56.8 41.7009C57.05 41.7009 57.1 41.6653 57.1 41.4784C57.1 41.2827 57.14 41.256 57.45 41.256C57.81 41.256 57.81 41.256 57.63 41.4695C57.53 41.5852 57.42 41.6653 57.38 41.6475C57.35 41.6297 57.2 41.7365 57.06 41.8878C56.92 42.0391 56.8 42.1281 56.8 42.1014C56.8 42.0658 56.73 42.0836 56.65 42.1459C56.52 42.2438 56.5 42.2171 56.5 41.9768V41.9768Z" fill="#3A3A3A"/>
<path d="M7.2 42.0747C7.2 42.0035 7.72 41.7009 7.84 41.7009C7.87 41.7009 7.9 41.7988 7.9 41.9234C7.9 42.1192 7.86 42.1459 7.55 42.1459C7.36 42.1459 7.2 42.1103 7.2 42.0747Z" fill="#3A3A3A"/>
<path d="M34.73 42.0124C34.3 41.8522 34.31 41.7009 34.75 41.7009C35.06 41.7009 35.1 41.7276 35.1 41.9234C35.1 42.048 35.09 42.1459 35.08 42.1459C35.06 42.137 34.9 42.0836 34.73 42.0124Z" fill="#3A3A3A"/>
<path d="M41.55 42.0569C41.51 42.0035 41.46 41.9857 41.42 42.0035C41.38 42.0213 41.27 41.9412 41.17 41.8255C40.99 41.6119 40.99 41.6119 41.35 41.6119C41.67 41.6119 41.7 41.6297 41.7 41.8789C41.7 42.1548 41.66 42.2082 41.55 42.0569Z" fill="#3A3A3A"/>
<path d="M94.7 41.9234C94.7 41.7098 94.71 41.7009 95.02 41.8166C95.48 41.9857 95.5 42.1459 95.06 42.1459C94.74 42.1459 94.7 42.1192 94.7 41.9234V41.9234Z" fill="#3A3A3A"/>
<path d="M30.8 41.8789C30.8 41.692 30.9 41.6653 31.28 41.7543C31.64 41.8433 31.55 42.0569 31.15 42.0569C30.87 42.0569 30.8 42.0213 30.8 41.8789Z" fill="#3A3A3A"/>
<path d="M68.9 41.9234C68.9 41.8522 69.04 41.7721 69.25 41.7365C69.44 41.7098 69.6 41.6564 69.6 41.6208C69.6 41.5941 69.76 41.5585 69.95 41.5496C70.24 41.5229 70.3 41.5496 70.3 41.7009C70.3 41.8433 70.23 41.8789 69.95 41.8789C69.76 41.8789 69.6 41.9234 69.6 41.9679C69.6 42.0213 69.44 42.0569 69.25 42.0569C69.01 42.0569 68.9 42.0124 68.9 41.9234V41.9234Z" fill="#3A3A3A"/>
<path d="M65.8 41.7454C65.8 41.5674 65.85 41.5229 66.05 41.5229C66.19 41.5229 66.3 41.4873 66.3 41.4339C66.3 41.3895 66.46 41.345 66.65 41.345C66.84 41.345 67 41.3806 67 41.425C67 41.5318 66.95 41.5585 66.32 41.781C65.8 41.9679 65.8 41.9679 65.8 41.7454Z" fill="#3A3A3A"/>
<path d="M33.73 41.6564C33.3 41.4962 33.31 41.345 33.75 41.345C34.06 41.345 34.1 41.3717 34.1 41.5674C34.1 41.692 34.09 41.7899 34.08 41.7899C34.06 41.781 33.9 41.7276 33.73 41.6564Z" fill="#3A3A3A"/>
<path d="M86.05 41.514C85.56 41.3806 85.09 41.2827 85.03 41.3005C84.95 41.3272 84.9 41.2649 84.9 41.167C84.9 41.0246 84.97 40.989 85.25 40.989C85.44 40.989 85.6 41.0335 85.6 41.078C85.6 41.1314 85.76 41.167 85.95 41.167C86.14 41.167 86.3 41.2115 86.3 41.256C86.3 41.3094 86.42 41.345 86.58 41.345C87.05 41.345 87.3 41.4428 87.3 41.6208C87.3 41.8433 87.16 41.8255 86.05 41.514Z" fill="#3A3A3A"/>
<path d="M81.3 41.5229C81.3 41.3361 81.4 41.3094 81.78 41.3983C82.14 41.4873 82.05 41.7009 81.65 41.7009C81.37 41.7009 81.3 41.6653 81.3 41.5229Z" fill="#3A3A3A"/>
<path d="M19.6 41.3983C19.6 41.256 19.87 41.1759 20.53 41.1225C20.93 41.0958 21 41.1136 21 41.2471C21 41.3717 20.89 41.425 20.48 41.4695C19.72 41.5496 19.6 41.5407 19.6 41.3983Z" fill="#3A3A3A"/>
<path d="M71.2 41.4161C71.2 41.2827 71.61 41.0958 71.78 41.1492C71.85 41.167 71.9 41.256 71.9 41.3539C71.9 41.4873 71.83 41.5229 71.55 41.5229C71.34 41.5229 71.2 41.4784 71.2 41.4161V41.4161Z" fill="#3A3A3A"/>
<path d="M78.7 41.167C78.7 40.9801 78.8 40.9534 79.18 41.0424C79.54 41.1314 79.45 41.345 79.05 41.345C78.77 41.345 78.7 41.3094 78.7 41.167Z" fill="#3A3A3A"/>
<path d="M22.1 41.1314C22.1 41.0157 22.38 40.9 22.68 40.9C22.74 40.9 22.8 40.9801 22.8 41.078C22.8 41.2204 22.73 41.256 22.45 41.256C22.22 41.256 22.1 41.2115 22.1 41.1314Z" fill="#3A3A3A"/>
<path d="M57.9 40.9979C57.9 40.7398 57.92 40.722 58.25 40.722C58.61 40.722 58.61 40.722 58.43 40.9356C58.33 41.0513 58.23 41.1314 58.21 41.1136C58.19 41.0958 58.11 41.1225 58.03 41.1759C57.93 41.256 57.9 41.2204 57.9 40.9979Z" fill="#3A3A3A"/>
<path d="M77.7 41.078C77.7 40.8911 77.8 40.8644 78.18 40.9534C78.54 41.0424 78.45 41.256 78.05 41.256C77.77 41.256 77.7 41.2204 77.7 41.078Z" fill="#3A3A3A"/>
<path d="M24 41.0424C24 40.9267 24.28 40.811 24.58 40.811C24.64 40.811 24.7 40.8911 24.7 40.989C24.7 41.1314 24.63 41.167 24.35 41.167C24.12 41.167 24 41.1225 24 41.0424Z" fill="#3A3A3A"/>
<path d="M24.9 40.989C24.9 40.8021 25 40.7754 25.38 40.8644C25.74 40.9534 25.65 41.167 25.25 41.167C24.97 41.167 24.9 41.1314 24.9 40.989Z" fill="#3A3A3A"/>
<path d="M74.9 41.0424C74.9 40.9267 75.18 40.811 75.48 40.811C75.54 40.811 75.6 40.8911 75.6 40.989C75.6 41.1314 75.53 41.167 75.25 41.167C75.02 41.167 74.9 41.1225 74.9 41.0424Z" fill="#3A3A3A"/>
<path d="M75.8 40.989C75.8 40.8021 75.9 40.7754 76.28 40.8644C76.64 40.9534 76.55 41.167 76.15 41.167C75.87 41.167 75.8 41.1314 75.8 40.989Z" fill="#3A3A3A"/>
<path d="M9.62 40.9712C9.65 40.9089 9.81 40.811 9.98 40.7487C10.29 40.633 10.3 40.6419 10.3 40.8555C10.3 41.0513 10.26 41.078 9.94 41.078C9.71 41.078 9.6 41.0424 9.62 40.9712Z" fill="#3A3A3A"/>
<path d="M7.3 40.7665C7.3 40.5707 7.34 40.544 7.65 40.544C8.08 40.544 8.09 40.633 7.71 40.8377C7.33 41.0335 7.3 41.0335 7.3 40.7665Z" fill="#3A3A3A"/>
<path d="M30.48 40.7398C29.55 40.4995 29.3 40.2771 29.95 40.2771C30.14 40.2771 30.3 40.3216 30.3 40.3661C30.3 40.4194 30.46 40.455 30.65 40.455C30.84 40.455 31 40.4995 31 40.544C31 40.5974 31.16 40.633 31.35 40.633C31.63 40.633 31.7 40.6686 31.7 40.811C31.7 41.0335 31.58 41.0246 30.48 40.7398Z" fill="#3A3A3A"/>
<path d="M68.7 40.811C68.7 40.6686 68.77 40.633 69.05 40.633C69.45 40.633 69.54 40.8466 69.18 40.9356C68.8 41.0246 68.7 40.9979 68.7 40.811Z" fill="#3A3A3A"/>
<path d="M17.82 40.7398C17.75 40.722 17.7 40.633 17.7 40.5351C17.7 40.4017 17.77 40.3661 18.05 40.3661C18.26 40.3661 18.4 40.4106 18.4 40.4817C18.4 40.6063 17.99 40.7932 17.82 40.7398Z" fill="#3A3A3A"/>
<path d="M60.92 40.7042C60.95 40.6419 61.11 40.544 61.28 40.4817C61.59 40.366 61.6 40.3749 61.6 40.5885C61.6 40.7843 61.56 40.811 61.24 40.811C61.01 40.811 60.9 40.7754 60.92 40.7042Z" fill="#3A3A3A"/>
<path d="M39.3 40.6419C39.3 40.5529 38.5 40.0724 38.5 40.1614C38.5 40.2059 38.45 40.1614 38.39 40.0724C38.33 39.9923 38.25 39.9389 38.19 39.9656C38.14 40.0012 38.1 39.9567 38.1 39.8855C38.1 39.7787 38.2 39.7431 38.45 39.7431C38.64 39.7431 38.8 39.7876 38.8 39.8321C38.8 39.8855 38.87 39.9211 38.95 39.9211C39.03 39.9211 39.1 39.9656 39.1 40.0101C39.1 40.0635 39.17 40.0991 39.25 40.0991C39.35 40.0991 39.4 40.197 39.4 40.4105C39.4 40.5796 39.38 40.722 39.35 40.722C39.32 40.722 39.3 40.6864 39.3 40.6419Z" fill="#3A3A3A"/>
<path d="M81.73 40.5974C81.38 40.455 81.45 40.2771 81.85 40.2771C82.13 40.2771 82.2 40.3127 82.2 40.4461C82.2 40.6597 82.02 40.7131 81.73 40.5974Z" fill="#3A3A3A"/>
<path d="M8.1 40.4105C8.1 40.2237 8.15 40.1881 8.4 40.1881C8.59 40.1881 8.7 40.1436 8.7 40.0635C8.7 39.9122 8.92 39.8321 9.31 39.8321C9.74 39.8321 9.66 39.9745 9.09 40.2326C8.18 40.6419 8.1 40.6597 8.1 40.4105V40.4105Z" fill="#3A3A3A"/>
<path d="M71 40.2771C71 40.1347 71.07 40.0991 71.35 40.0991C71.75 40.0991 71.84 40.3127 71.48 40.4017C71.1 40.4907 71 40.464 71 40.2771Z" fill="#3A3A3A"/>
<path d="M11.4 40.2771C11.4 40.2237 11.52 40.1347 11.68 40.0724C11.83 40.019 11.98 39.93 12.02 39.8766C12.06 39.8321 12.1 39.8143 12.1 39.8499C12.1 39.8855 12.21 39.8766 12.35 39.8321C12.57 39.752 12.6 39.7698 12.6 39.9656C12.6 40.1436 12.55 40.1881 12.35 40.1881C12.21 40.1881 12.1 40.2326 12.1 40.2771C12.1 40.3305 11.94 40.3661 11.75 40.3661C11.56 40.3661 11.4 40.3216 11.4 40.2771Z" fill="#3A3A3A"/>
<path d="M59.4 40.1436C59.4 39.9478 59.44 39.9211 59.75 39.9211C60.18 39.9211 60.19 40.0101 59.81 40.2148C59.43 40.4106 59.4 40.4106 59.4 40.1436Z" fill="#3A3A3A"/>
<path d="M27.78 40.2148C27.45 40.1436 27.58 39.9211 27.95 39.9211C28.23 39.9211 28.3 39.9567 28.3 40.0991C28.3 40.2771 28.16 40.3038 27.78 40.2148Z" fill="#3A3A3A"/>
<path d="M21.7 40.0101C21.7 39.8677 21.77 39.8321 22.05 39.8321C22.45 39.8321 22.54 40.0457 22.18 40.1347C21.8 40.2237 21.7 40.197 21.7 40.0101Z" fill="#3A3A3A"/>
<path d="M26.08 40.0635C25.68 39.9389 25.72 39.7431 26.15 39.7431C26.43 39.7431 26.5 39.7787 26.5 39.9122C26.5 40.1436 26.41 40.1792 26.08 40.0635Z" fill="#3A3A3A"/>
<path d="M23.1 39.9211C23.1 39.7698 23.17 39.7431 23.5 39.7431C23.95 39.7431 24.07 39.9478 23.68 40.0457C23.26 40.1436 23.1 40.108 23.1 39.9211Z" fill="#3A3A3A"/>
<path d="M94.2 39.7787C94.2 39.3872 94.38 39.405 94.57 39.8143C94.7 40.0902 94.69 40.0991 94.45 40.0991C94.23 40.0991 94.2 40.0635 94.2 39.7787Z" fill="#3A3A3A"/>
<path d="M63.3 39.8855C63.3 39.7698 63.58 39.6541 63.88 39.6541C63.94 39.6541 64 39.7342 64 39.8321C64 39.9745 63.93 40.0101 63.65 40.0101C63.42 40.0101 63.3 39.9656 63.3 39.8855Z" fill="#3A3A3A"/>
<path d="M87.43 39.8944C87.11 39.8321 87 39.7609 87 39.6452C87 39.4406 87.04 39.4406 87.85 39.6185C88.26 39.7075 88.5 39.8143 88.5 39.8855C88.5 40.0279 88.07 40.0368 87.43 39.8944V39.8944Z" fill="#3A3A3A"/>
<path d="M60.4 39.6986C60.4 39.5028 60.44 39.4762 60.75 39.4762C60.94 39.4762 61.1 39.5028 61.1 39.5473C61.1 39.6274 60.9 39.8944 60.9 39.8143C60.9 39.7787 60.79 39.7876 60.65 39.8321C60.43 39.9122 60.4 39.8944 60.4 39.6986Z" fill="#3A3A3A"/>
<path d="M34.7 39.4317C34.7 39.2181 34.71 39.2092 35.02 39.3249C35.48 39.4939 35.5 39.6541 35.06 39.6541C34.74 39.6541 34.7 39.6274 34.7 39.4317Z" fill="#3A3A3A"/>
<path d="M37.38 39.4939C37.01 39.2982 37.03 39.2092 37.45 39.2092C37.76 39.2092 37.8 39.2359 37.8 39.4317C37.8 39.6897 37.74 39.6986 37.38 39.4939Z" fill="#3A3A3A"/>
<path d="M5.8 39.2537C5.85 39.1291 5.86 39.0312 5.82 39.0312C5.73 39.0312 6.03 38.8532 6.13 38.8532C6.17 38.8532 6.2 38.9956 6.2 39.1647C6.2 39.4405 6.17 39.4761 5.95 39.4761C5.73 39.4761 5.71 39.4494 5.8 39.2537Z" fill="#3A3A3A"/>
<path d="M90.28 39.4138C89.95 39.3427 90.08 39.1202 90.45 39.1202C90.73 39.1202 90.8 39.1558 90.8 39.2982C90.8 39.4761 90.66 39.5028 90.28 39.4138Z" fill="#3A3A3A"/>
<path d="M84 39.1291C84 38.9155 84.17 38.8621 84.47 38.9778C84.82 39.1291 84.75 39.2982 84.35 39.2982C84.07 39.2982 84 39.2626 84 39.1291Z" fill="#3A3A3A"/>
<path d="M89.28 39.1469C88.95 39.0757 89.08 38.8532 89.45 38.8532C89.73 38.8532 89.8 38.8888 89.8 39.0312C89.8 39.2092 89.66 39.2359 89.28 39.1469Z" fill="#3A3A3A"/>
<path d="M82.8 38.9422C82.8 38.7553 82.9 38.7286 83.28 38.8176C83.64 38.9066 83.55 39.1202 83.15 39.1202C82.87 39.1202 82.8 39.0846 82.8 38.9422Z" fill="#3A3A3A"/>
<path d="M93.62 38.8977C93.47 38.6218 93.46 38.1413 93.6 38.1413C93.7 38.1413 93.92 38.4794 94.1 38.8977C94.18 39.0935 94.17 39.1202 93.96 39.1202C93.81 39.1202 93.69 39.0401 93.62 38.8977V38.8977Z" fill="#3A3A3A"/>
<path d="M36.08 38.8888C35.7 38.7108 35.73 38.5862 36.15 38.5862C36.46 38.5862 36.5 38.6129 36.5 38.8087C36.5 39.0668 36.45 39.0757 36.08 38.8888Z" fill="#3A3A3A"/>
<path d="M70.7 38.6396C70.7 38.5239 70.98 38.4083 71.28 38.4083C71.34 38.4083 71.4 38.4883 71.4 38.5862C71.4 38.7286 71.33 38.7642 71.05 38.7642C70.82 38.7642 70.7 38.7197 70.7 38.6396Z" fill="#3A3A3A"/>
<path d="M79.3 38.604C79.3 38.3638 79.38 38.3282 79.71 38.435C80.12 38.5773 80.08 38.7642 79.65 38.7642C79.38 38.7642 79.3 38.7286 79.3 38.604V38.604Z" fill="#3A3A3A"/>
<path d="M87.38 38.7019C87.05 38.6307 87.18 38.4083 87.55 38.4083C87.83 38.4083 87.9 38.4439 87.9 38.5862C87.9 38.7642 87.76 38.7909 87.38 38.7019Z" fill="#3A3A3A"/>
<path d="M64.1 38.4973C64.1 38.3549 64.17 38.3193 64.45 38.3193C64.85 38.3193 64.94 38.5329 64.58 38.6218C64.2 38.7108 64.1 38.6841 64.1 38.4973Z" fill="#3A3A3A"/>
<path d="M72 38.5506C72 38.435 72.28 38.3193 72.58 38.3193C72.64 38.3193 72.7 38.3994 72.7 38.4973C72.7 38.6396 72.63 38.6752 72.35 38.6752C72.12 38.6752 72 38.6307 72 38.5506Z" fill="#3A3A3A"/>
<path d="M77.8 38.4973C77.8 38.3104 77.9 38.2837 78.28 38.3727C78.64 38.4617 78.55 38.6752 78.15 38.6752C77.87 38.6752 77.8 38.6396 77.8 38.4973Z" fill="#3A3A3A"/>
<path d="M31.1 38.3193C31.1 38.1324 31.2 38.1057 31.58 38.1947C31.94 38.2837 31.85 38.4973 31.45 38.4973C31.17 38.4973 31.1 38.4617 31.1 38.3193Z" fill="#3A3A3A"/>
<path d="M34.83 38.3638C34.4 38.2036 34.41 38.0523 34.85 38.0523C35.16 38.0523 35.2 38.079 35.2 38.2748C35.2 38.3994 35.19 38.4972 35.18 38.4972C35.16 38.4883 35 38.435 34.83 38.3638Z" fill="#3A3A3A"/>
<path d="M85.53 38.3727C85.18 38.2303 85.25 38.0523 85.65 38.0523C85.93 38.0523 86 38.0879 86 38.2214C86 38.435 85.82 38.4883 85.53 38.3727Z" fill="#3A3A3A"/>
<path d="M19.3 38.1235C19.3 37.99 19.71 37.8031 19.88 37.8565C19.95 37.8743 20 37.9633 20 38.0612C20 38.1947 19.93 38.2303 19.65 38.2303C19.44 38.2303 19.3 38.1858 19.3 38.1235V38.1235Z" fill="#3A3A3A"/>
<path d="M14.7 37.9633C14.7 37.8209 14.77 37.7853 15.05 37.7853C15.45 37.7853 15.54 37.9989 15.18 38.0879C14.8 38.1769 14.7 38.1502 14.7 37.9633Z" fill="#3A3A3A"/>
<path d="M28.1 37.7853C28.1 37.5984 28.2 37.5717 28.58 37.6607C28.94 37.7497 28.85 37.9633 28.45 37.9633C28.17 37.9633 28.1 37.9277 28.1 37.7853Z" fill="#3A3A3A"/>
<path d="M15.7 37.6963C15.7 37.5539 15.77 37.5183 16.05 37.5183C16.24 37.5183 16.4 37.4827 16.4 37.4294C16.4 37.3849 16.56 37.3404 16.75 37.3404C17.04 37.3404 17.1 37.376 17.1 37.5272C17.1 37.6251 17.06 37.6874 17.01 37.6607C16.96 37.634 16.7 37.6696 16.44 37.7408C15.8 37.9099 15.7 37.9099 15.7 37.6963V37.6963Z" fill="#3A3A3A"/>
<path d="M23.6 37.6607C23.6 37.545 23.88 37.4294 24.18 37.4294C24.24 37.4294 24.3 37.5095 24.3 37.6073C24.3 37.7497 24.23 37.7853 23.95 37.7853C23.72 37.7853 23.6 37.7408 23.6 37.6607Z" fill="#3A3A3A"/>
<path d="M25.9 37.6073C25.9 37.4205 26 37.3938 26.38 37.4828C26.74 37.5717 26.65 37.7853 26.25 37.7853C25.97 37.7853 25.9 37.7497 25.9 37.6073Z" fill="#3A3A3A"/>
<path d="M69.5 37.6073C69.5 37.465 69.57 37.4294 69.85 37.4294C70.25 37.4294 70.34 37.6429 69.98 37.7319C69.6 37.8209 69.5 37.7942 69.5 37.6073Z" fill="#3A3A3A"/>
<path d="M70.4 37.5183C70.4 37.376 70.47 37.3404 70.75 37.3404C71.15 37.3404 71.24 37.5539 70.88 37.6429C70.5 37.7319 70.4 37.7052 70.4 37.5183Z" fill="#3A3A3A"/>
<path d="M32.18 37.545C31.85 37.4738 31.98 37.2514 32.35 37.2514C32.63 37.2514 32.7 37.287 32.7 37.4294C32.7 37.6073 32.56 37.634 32.18 37.545Z" fill="#3A3A3A"/>
<path d="M71.6 37.4294C71.6 37.287 71.67 37.2514 71.95 37.2514C72.35 37.2514 72.44 37.465 72.08 37.5539C71.7 37.6429 71.6 37.6162 71.6 37.4294Z" fill="#3A3A3A"/>
<path d="M74.1 37.3404C74.1 37.1891 74.17 37.1624 74.5 37.1624C74.95 37.1624 75.07 37.3671 74.68 37.465C74.26 37.5628 74.1 37.5272 74.1 37.3404Z" fill="#3A3A3A"/>
<path d="M75.88 37.4561C75.52 37.376 75.68 37.1624 76.1 37.1624C76.43 37.1624 76.5 37.1891 76.5 37.3404C76.5 37.5183 76.3 37.5539 75.88 37.4561Z" fill="#3A3A3A"/>
<path d="M30.68 37.1891C30.35 37.1179 30.48 36.8954 30.85 36.8954C31.13 36.8954 31.2 36.931 31.2 37.0734C31.2 37.2514 31.06 37.2781 30.68 37.1891Z" fill="#3A3A3A"/>
<path d="M20.8 36.7174C20.8 36.575 20.87 36.5394 21.15 36.5394C21.55 36.5394 21.64 36.753 21.28 36.842C20.9 36.931 20.8 36.9043 20.8 36.7174Z" fill="#3A3A3A"/>
<path d="M21.6 36.6284C21.6 36.4861 21.67 36.4505 21.95 36.4505C22.35 36.4505 22.44 36.664 22.08 36.753C21.7 36.842 21.6 36.8153 21.6 36.6284Z" fill="#3A3A3A"/>
<path d="M26.83 36.6996C26.38 36.5661 26.4 36.3615 26.85 36.3615C27.16 36.3615 27.2 36.3882 27.2 36.5839C27.2 36.7085 27.19 36.8064 27.18 36.7975C27.16 36.7886 27 36.7441 26.83 36.6996Z" fill="#3A3A3A"/>
<path d="M22.9 36.5394C22.9 36.3971 22.97 36.3615 23.25 36.3615C23.65 36.3615 23.74 36.575 23.38 36.664C23 36.753 22.9 36.7263 22.9 36.5394Z" fill="#3A3A3A"/>
<path d="M92.1 35.961C92.1 35.5783 92.2 35.5695 92.43 35.9076C92.65 36.2458 92.65 36.2725 92.35 36.2725C92.13 36.2725 92.1 36.2369 92.1 35.961Z" fill="#3A3A3A"/>
<path d="M7.8 35.6851C7.8 35.5784 8.14 35.1156 8.22 35.1156C8.26 35.1156 8.3 35.258 8.3 35.4271C8.3 35.7029 8.27 35.7385 8.05 35.7385C7.91 35.7385 7.8 35.7118 7.8 35.6851Z" fill="#3A3A3A"/>
<path d="M91.5 34.9821C91.5 34.7329 91.46 34.6706 91.3 34.6706C91.14 34.6706 91.1 34.6083 91.1 34.3592C91.1 34.1901 91.14 34.0477 91.18 34.0477C91.23 34.0477 91.41 34.288 91.6 34.5817C91.79 34.8753 91.98 35.1156 92.02 35.1156C92.07 35.1156 92.08 35.1601 92.05 35.2046C92.02 35.258 91.88 35.2936 91.74 35.2936C91.53 35.2936 91.5 35.2491 91.5 34.9821Z" fill="#3A3A3A"/>
<path d="M89.8 32.4014C89.8 32.0187 89.9 32.0098 90.13 32.348C90.35 32.6862 90.35 32.7128 90.05 32.7128C89.83 32.7128 89.8 32.6772 89.8 32.4014Z" fill="#3A3A3A"/>
<path d="M88.9 31.2C88.9 30.9953 88.86 30.933 88.7 30.933C88.59 30.933 88.5 30.8707 88.5 30.7995C88.5 30.7283 88.46 30.666 88.4 30.666C88.35 30.666 88.3 30.5148 88.3 30.3368C88.31 29.963 88.23 29.9185 89 30.7372C89.1 30.844 89.16 30.933 89.14 30.933C89.11 30.933 89.16 31.022 89.24 31.1288C89.46 31.4047 89.44 31.467 89.15 31.467C88.94 31.467 88.9 31.4225 88.9 31.2Z" fill="#3A3A3A"/>
<path d="M87.6 29.4558C87.6 29.1087 87.69 29.1176 88 29.5092C88.21 29.7761 88.21 29.7761 87.91 29.7761C87.62 29.7761 87.6 29.7495 87.6 29.4558Z" fill="#3A3A3A"/>
<path d="M13.09 28.3256C13.15 28.2544 13.18 28.1832 13.16 28.1654C13.14 28.1476 13.23 28.0586 13.36 27.9696C13.6 27.8095 13.6 27.8095 13.6 28.1298C13.6 28.4235 13.58 28.4413 13.29 28.4413C13.04 28.4413 13 28.4146 13.09 28.3256V28.3256Z" fill="#3A3A3A"/>
<path d="M85.5 27.1064C85.5 26.8839 85.46 26.8394 85.25 26.8394C85.03 26.8394 85 26.8039 85 26.528C85 26.2076 85 26.2076 85.24 26.3678C85.37 26.4568 85.46 26.5547 85.44 26.5903C85.42 26.617 85.54 26.7505 85.71 26.875C85.88 26.9996 85.98 27.1064 85.95 27.1064C85.91 27.1064 85.93 27.1687 86 27.2399C86.11 27.3556 86.08 27.3734 85.81 27.3734C85.53 27.3734 85.5 27.3467 85.5 27.1064V27.1064Z" fill="#3A3A3A"/>
<path d="M14.29 26.9907C14.35 26.9195 14.38 26.8484 14.36 26.8306C14.34 26.8128 14.43 26.7238 14.56 26.6348C14.8 26.4746 14.8 26.4746 14.8 26.795C14.8 27.0886 14.78 27.1064 14.49 27.1064C14.24 27.1064 14.2 27.0797 14.29 26.9907V26.9907Z" fill="#3A3A3A"/>
<path d="M13.5 26.172C13.5 25.8783 13.52 25.8605 13.81 25.8605C14.06 25.8605 14.1 25.8872 14.01 25.9762C13.95 26.0474 13.92 26.1186 13.94 26.1364C13.96 26.1542 13.87 26.2432 13.74 26.3322C13.5 26.4924 13.5 26.4924 13.5 26.172V26.172Z" fill="#3A3A3A"/>
<path d="M86.01 26.0385C85.88 25.9406 85.81 25.8605 85.85 25.8605C85.89 25.8605 85.87 25.7983 85.8 25.7271C85.69 25.6114 85.72 25.5936 85.99 25.5936C86.28 25.5936 86.3 25.6114 86.3 25.905C86.3 26.0741 86.29 26.2165 86.28 26.2165C86.26 26.2076 86.14 26.1275 86.01 26.0385Z" fill="#3A3A3A"/>
<path d="M84.2 25.7093C84.21 25.3711 84.21 25.3711 84.44 25.6114C84.57 25.7449 84.7 25.8339 84.72 25.8072C84.75 25.7894 84.77 25.8339 84.77 25.905C84.77 25.994 84.67 26.0385 84.48 26.0385C84.22 26.0385 84.2 26.0118 84.2 25.7093Z" fill="#3A3A3A"/>
<path d="M85.25 25.2198C85.1 25.0596 85.01 24.9795 85.06 25.0507C85.11 25.1308 85.09 25.1575 85.01 25.113C84.83 25.0062 84.99 24.8817 85.31 24.8817C85.58 24.8817 85.6 24.9084 85.6 25.1931C85.6 25.3622 85.58 25.5046 85.56 25.5046C85.53 25.5046 85.39 25.3711 85.25 25.2198Z" fill="#3A3A3A"/>
<path d="M88.8 24.8372C88.8 24.588 88.84 24.5257 88.99 24.5257C89.23 24.5257 89.29 24.677 89.16 24.9439C88.99 25.2554 88.8 25.1931 88.8 24.8372V24.8372Z" fill="#3A3A3A"/>
<path d="M82.5 24.2765C82.5 24.1074 82.55 24.0184 82.65 24.0184C82.73 24.0184 82.78 24.0362 82.76 24.0629C82.73 24.0807 82.83 24.1964 82.98 24.3121C83.25 24.5168 83.25 24.5168 82.88 24.5257C82.53 24.5257 82.5 24.5079 82.5 24.2765Z" fill="#3A3A3A"/>
<path d="M83.54 23.7426C83.57 23.7248 83.47 23.6091 83.32 23.4934C83.05 23.2887 83.05 23.2887 83.43 23.2798C83.77 23.2798 83.8 23.2976 83.8 23.529C83.8 23.6981 83.75 23.7871 83.65 23.7871C83.57 23.7871 83.52 23.7693 83.54 23.7426Z" fill="#3A3A3A"/>
<path d="M16.7 23.1997C16.7 22.9416 16.73 22.9239 17.06 22.9239C17.45 22.9239 17.44 23.0039 17 23.2798C16.7 23.4667 16.7 23.4667 16.7 23.1997Z" fill="#3A3A3A"/>
<path d="M18.37 23.2442C18.47 23.1285 18.57 23.0484 18.59 23.0662C18.61 23.084 18.69 23.0573 18.77 23.0039C18.87 22.9239 18.9 22.9594 18.9 23.1819C18.9 23.44 18.88 23.4578 18.55 23.4578C18.19 23.4578 18.19 23.4578 18.37 23.2442Z" fill="#3A3A3A"/>
<path d="M80.8 23.0128C80.8 22.8794 80.73 22.8349 80.55 22.8349C80.34 22.8349 80.3 22.7904 80.3 22.559C80.3 22.3187 80.32 22.292 80.45 22.3899C80.53 22.4522 80.6 22.47 80.6 22.4344C80.6 22.3988 80.69 22.47 80.81 22.6035C80.92 22.7281 81.05 22.8171 81.08 22.7993C81.12 22.7815 81.23 22.8616 81.33 22.9773C81.51 23.1908 81.51 23.1908 81.15 23.1908C80.87 23.1908 80.8 23.1552 80.8 23.0128Z" fill="#3A3A3A"/>
<path d="M17.5 22.5768C17.5 22.3187 17.52 22.3009 17.85 22.3009C18.21 22.3009 18.21 22.3009 18.03 22.5145C17.93 22.6302 17.83 22.7103 17.81 22.6925C17.79 22.6747 17.71 22.7014 17.63 22.7548C17.53 22.8349 17.5 22.7993 17.5 22.5768Z" fill="#3A3A3A"/>
<path d="M82.05 22.4789C82.01 22.4255 81.96 22.4077 81.92 22.4255C81.88 22.4433 81.77 22.3632 81.67 22.2475C81.49 22.0339 81.49 22.0339 81.85 22.0339C82.17 22.0339 82.2 22.0517 82.2 22.3009C82.2 22.5768 82.16 22.6302 82.05 22.4789Z" fill="#3A3A3A"/>
<path d="M19.87 22.1763C19.97 22.0606 20.07 21.9805 20.09 21.9983C20.11 22.0161 20.19 21.9895 20.27 21.9361C20.37 21.856 20.4 21.8916 20.4 22.114C20.4 22.3721 20.38 22.3899 20.05 22.3899C19.69 22.3899 19.69 22.3899 19.87 22.1763Z" fill="#3A3A3A"/>
<path d="M79.4 21.9361C79.4 21.6691 79.4 21.6691 79.7 21.856C80.14 22.1318 80.15 22.2119 79.76 22.2119C79.43 22.2119 79.4 22.1941 79.4 21.9361Z" fill="#3A3A3A"/>
<path d="M89.5 21.4555C89.5 21.2063 89.54 21.144 89.7 21.144C89.91 21.144 89.94 21.233 89.84 21.5712C89.74 21.8916 89.5 21.8115 89.5 21.4555Z" fill="#3A3A3A"/>
<path d="M80.52 21.3932C80.45 21.3309 80.4 21.3131 80.4 21.3398C80.4 21.3665 80.26 21.2775 80.09 21.1351C79.92 20.9928 79.75 20.8949 79.71 20.9127C79.68 20.9305 79.57 20.8504 79.47 20.7347C79.29 20.5211 79.29 20.5211 79.65 20.5211C79.96 20.5211 80 20.5478 80 20.7436C80 20.9394 80.04 20.9661 80.35 20.9661C80.67 20.9661 80.7 20.9839 80.7 21.233C80.7 21.5356 80.69 21.5445 80.52 21.3932Z" fill="#3A3A3A"/>
<path d="M21.7 21.0284C21.89 20.8682 22.07 20.7436 22.09 20.7614C22.11 20.7703 22.22 20.7258 22.34 20.6546C22.63 20.4677 22.7 20.4855 22.7 20.7436C22.7 20.9305 22.65 20.9661 22.4 20.9661C22.17 20.9661 22.1 21.0017 22.1 21.144C22.1 21.2864 22.03 21.322 21.73 21.322C21.35 21.322 21.35 21.322 21.7 21.0284Z" fill="#3A3A3A"/>
<path d="M20.5 20.5656C20.5 20.352 20.55 20.2541 20.65 20.2541C20.73 20.2541 20.8 20.2185 20.8 20.1651C20.8 20.1206 20.87 20.0761 20.95 20.0761C21.03 20.0761 21.1 20.0405 21.1 19.9872C21.1 19.9427 21.26 19.8982 21.45 19.8982C21.64 19.8982 21.8 19.9249 21.8 19.9694C21.8 20.005 21.59 20.1473 21.32 20.2986C21.06 20.441 20.77 20.6368 20.68 20.7169C20.51 20.8682 20.5 20.8593 20.5 20.5656Z" fill="#3A3A3A"/>
<path d="M76.9 20.4766C76.9 20.2185 76.97 20.2007 77.26 20.3876C77.38 20.4588 77.5 20.4855 77.54 20.4588C77.57 20.4321 77.6 20.4677 77.6 20.5478C77.6 20.6635 77.51 20.6991 77.25 20.6991C76.94 20.6991 76.9 20.6724 76.9 20.4766Z" fill="#3A3A3A"/>
<path d="M75.4 19.6846C75.4 19.56 75.45 19.4354 75.5 19.4087C75.56 19.382 75.6 19.3909 75.6 19.4354C75.6 19.4799 75.71 19.5689 75.85 19.6312C76.2 19.8003 76.16 19.8982 75.75 19.8982C75.45 19.8982 75.4 19.8715 75.4 19.6846Z" fill="#3A3A3A"/>
<path d="M77.28 19.471C76.91 19.2752 76.93 19.1862 77.35 19.1862C77.66 19.1862 77.7 19.2129 77.7 19.4087C77.7 19.6668 77.64 19.6757 77.28 19.471Z" fill="#3A3A3A"/>
<path d="M89.9 19.3197C89.9 19.0705 89.94 19.0083 90.1 19.0083C90.31 19.0083 90.34 19.0972 90.24 19.4354C90.14 19.7558 89.9 19.6757 89.9 19.3197Z" fill="#3A3A3A"/>
<path d="M22.7 19.2307C22.7 18.9727 22.82 18.946 23.01 19.1506C23.11 19.2663 23.11 19.3019 22.99 19.3731C22.76 19.4977 22.7 19.471 22.7 19.2307V19.2307Z" fill="#3A3A3A"/>
<path d="M25.1 19.293C25.1 19.2218 25.62 18.9193 25.74 18.9193C25.77 18.9193 25.8 19.0172 25.8 19.1417C25.8 19.3375 25.76 19.3642 25.45 19.3642C25.26 19.3642 25.1 19.3286 25.1 19.293Z" fill="#3A3A3A"/>
<path d="M73.83 19.1239C73.7 19.0794 73.64 18.6523 73.76 18.6523C73.89 18.6523 74.6 19.0439 74.6 19.115C74.6 19.1951 74.03 19.204 73.83 19.1239V19.1239Z" fill="#3A3A3A"/>
<path d="M23.96 18.857C23.93 18.8214 23.9 18.7057 23.9 18.59C23.9 18.412 23.95 18.3853 24.25 18.3853C24.44 18.3853 24.6 18.4298 24.6 18.4743C24.6 18.5277 24.56 18.5633 24.52 18.5633C24.47 18.5633 24.34 18.6434 24.23 18.7324C24.11 18.8303 23.99 18.8837 23.96 18.857Z" fill="#3A3A3A"/>
<path d="M75.69 18.59C75.62 18.501 75.6 18.4565 75.64 18.4921C75.69 18.5277 75.89 18.3764 76.08 18.1628C76.27 17.9404 76.46 17.7891 76.51 17.8158C76.69 17.9048 76.59 18.3408 76.36 18.5455C76.07 18.7858 75.87 18.7947 75.69 18.59V18.59Z" fill="#3A3A3A"/>
<path d="M8.86 18.412C8.67 17.5132 8.67 17.4064 8.89 17.4064C9.02 17.4064 9.1 17.4598 9.1 17.5666C9.1 17.6467 9.13 17.9315 9.16 18.1895C9.22 18.5722 9.2 18.6523 9.07 18.6523C8.98 18.6523 8.89 18.5455 8.86 18.412V18.412Z" fill="#3A3A3A"/>
<path d="M72.62 18.5722C72.54 18.5366 72.5 18.412 72.52 18.3141C72.55 18.1272 72.55 18.1272 72.98 18.2963C73.21 18.3853 73.4 18.5099 73.4 18.5633C73.4 18.6701 72.81 18.679 72.62 18.5722V18.5722Z" fill="#3A3A3A"/>
<path d="M27.32 18.2785C27.35 18.2162 27.51 18.1183 27.68 18.0561C27.99 17.9404 28 17.9493 28 18.1628C28 18.3586 27.96 18.3853 27.64 18.3853C27.41 18.3853 27.3 18.3497 27.32 18.2785Z" fill="#3A3A3A"/>
<path d="M71.2 17.8069C71.2 17.5933 71.21 17.5844 71.52 17.7001C71.98 17.8692 72 18.0294 71.56 18.0294C71.24 18.0294 71.2 18.0027 71.2 17.8069Z" fill="#3A3A3A"/>
<path d="M73.83 17.7624C73.32 17.5577 73.28 17.4064 73.73 17.4064C74.15 17.4064 74.33 17.5132 74.28 17.7446C74.25 17.9315 74.25 17.9315 73.83 17.7624Z" fill="#3A3A3A"/>
<path d="M28.9 17.7001C28.9 17.5755 29.04 17.4509 29.2 17.4242C29.51 17.3708 30.45 17.0149 30.52 16.9259C30.56 16.8725 30.6 16.9615 30.6 17.1216C30.6 17.3708 30.57 17.4064 30.35 17.4064C30.21 17.4064 30.1 17.4509 30.1 17.4954C30.1 17.5488 29.99 17.5844 29.85 17.5844C29.71 17.5844 29.6 17.6289 29.6 17.6734C29.6 17.7268 29.44 17.7624 29.25 17.7624C29.06 17.7624 28.9 17.7357 28.9 17.7001V17.7001Z" fill="#3A3A3A"/>
<path d="M26.4 17.4509C26.4 17.2551 26.44 17.2284 26.76 17.2284C27.2 17.2284 27.18 17.3886 26.72 17.5577C26.41 17.6734 26.4 17.6645 26.4 17.4509Z" fill="#3A3A3A"/>
<path d="M69.2 17.0327C69.2 16.8725 69.24 16.7835 69.28 16.828C69.32 16.8814 69.47 16.9704 69.63 17.0238C70.01 17.175 69.97 17.3174 69.55 17.3174C69.22 17.3174 69.2 17.2996 69.2 17.0327Z" fill="#3A3A3A"/>
<path d="M27.5 17.006C27.5 16.8102 27.54 16.7835 27.86 16.7835C28.3 16.7835 28.28 16.9437 27.82 17.1128C27.51 17.2284 27.5 17.2195 27.5 17.006Z" fill="#3A3A3A"/>
<path d="M19.97 17.0772C19.93 17.0505 19.9 16.8992 19.9 16.7568C19.9 16.5254 19.92 16.5076 20.07 16.6144C20.22 16.7212 20.23 16.7212 20.15 16.6055C20.07 16.4631 20.09 16.4898 20.49 16.8992C20.73 17.1395 20.73 17.1395 20.38 17.1395C20.19 17.1395 20 17.1128 19.97 17.0772V17.0772Z" fill="#3A3A3A"/>
<path d="M28.9 16.472C28.9 16.2762 28.94 16.2495 29.25 16.2495C29.44 16.2495 29.6 16.2762 29.6 16.3207C29.6 16.4008 29.4 16.6678 29.4 16.5877C29.4 16.5521 29.29 16.561 29.15 16.6055C28.93 16.6856 28.9 16.6678 28.9 16.472Z" fill="#3A3A3A"/>
<path d="M8.56 16.4097C8.46 16.0716 8.49 15.9826 8.7 15.9826C8.86 15.9826 8.9 16.0449 8.9 16.294C8.9 16.65 8.66 16.7301 8.56 16.4097Z" fill="#3A3A3A"/>
<path d="M21.14 16.5076C21.09 16.4364 21.12 16.4186 21.21 16.472C21.29 16.5076 21.19 16.4186 21 16.2673C20.65 15.9915 20.65 15.9915 21.03 15.9826C21.37 15.9826 21.4 16.0004 21.4 16.2406C21.4 16.5254 21.26 16.6678 21.14 16.5076V16.5076Z" fill="#3A3A3A"/>
<path d="M32.42 16.4987C32.47 16.3741 33.52 16.0004 33.83 15.9915C33.93 15.9826 34 16.0449 34 16.1428C34 16.2584 33.85 16.3474 33.47 16.4542C32.83 16.6322 32.37 16.65 32.42 16.4987V16.4987Z" fill="#3A3A3A"/>
<path d="M90.4 16.294C90.4 16.0449 90.44 15.9826 90.6 15.9826C90.81 15.9826 90.84 16.0716 90.74 16.4097C90.64 16.7301 90.4 16.65 90.4 16.294Z" fill="#3A3A3A"/>
<path d="M77.17 16.1072C77.04 15.9915 77.1 15.5376 77.24 15.4842C77.32 15.4575 77.5 15.4486 77.63 15.4664C77.88 15.4931 77.88 15.4931 77.56 15.8313C77.39 16.0182 77.21 16.1427 77.17 16.1072V16.1072Z" fill="#3A3A3A"/>
<path d="M68.43 15.7601C68 15.5999 68.01 15.4486 68.45 15.4486C68.76 15.4486 68.8 15.4753 68.8 15.6711C68.8 15.7957 68.79 15.8936 68.78 15.8936C68.76 15.8847 68.6 15.8313 68.43 15.7601Z" fill="#3A3A3A"/>
<path d="M8.43 15.5465C8.31 15.2528 8.35 15.1816 8.62 15.1816C8.76 15.1816 8.8 15.2528 8.8 15.4931C8.8 15.8758 8.59 15.9114 8.43 15.5465Z" fill="#3A3A3A"/>
<path d="M18.4 15.5554C18.4 15.3863 18.45 15.2973 18.55 15.2973C18.63 15.2973 18.68 15.3151 18.66 15.3418C18.63 15.3596 18.73 15.4753 18.88 15.591C19.15 15.7957 19.15 15.7957 18.78 15.8046C18.43 15.8046 18.4 15.7868 18.4 15.5554Z" fill="#3A3A3A"/>
<path d="M67.38 15.4753C67.05 15.4041 67.18 15.1816 67.55 15.1816C67.83 15.1816 67.9 15.2172 67.9 15.3596C67.9 15.5376 67.76 15.5643 67.38 15.4753Z" fill="#3A3A3A"/>
<path d="M32.8 15.1817C32.8 15.0393 32.87 15.0037 33.15 15.0037C33.55 15.0037 33.64 15.2172 33.28 15.3062C32.9 15.3952 32.8 15.3685 32.8 15.1817Z" fill="#3A3A3A"/>
<path d="M37.5 15.2528C37.5 15.1194 37.91 14.9325 38.08 14.9859C38.15 15.0037 38.2 15.0927 38.2 15.1906C38.2 15.324 38.13 15.3596 37.85 15.3596C37.64 15.3596 37.5 15.3151 37.5 15.2528Z" fill="#3A3A3A"/>
<path d="M60.68 15.1194C60.48 15.0927 60.4 15.0304 60.4 14.9058C60.4 14.7634 60.46 14.7456 60.78 14.7723C61.34 14.8346 61.6 14.9236 61.6 15.0571C61.6 15.1817 61.29 15.1994 60.68 15.1194Z" fill="#3A3A3A"/>
<path d="M79.82 14.9681C79.97 14.8524 80.07 14.7367 80.04 14.7189C80.02 14.6922 80.07 14.6744 80.15 14.6744C80.25 14.6744 80.3 14.7634 80.3 14.9325C80.3 15.1639 80.27 15.1817 79.93 15.1817C79.55 15.1728 79.55 15.1728 79.82 14.9681Z" fill="#3A3A3A"/>
<path d="M90.6 14.8702C90.6 14.621 90.64 14.5587 90.8 14.5587C91.01 14.5587 91.04 14.6477 90.94 14.9859C90.84 15.3062 90.6 15.2261 90.6 14.8702Z" fill="#3A3A3A"/>
<path d="M19.44 15.0215C19.47 15.0037 19.37 14.888 19.22 14.7723C18.95 14.5676 18.95 14.5676 19.33 14.5587C19.67 14.5587 19.7 14.5765 19.7 14.8079C19.7 14.977 19.65 15.066 19.55 15.066C19.47 15.066 19.42 15.0482 19.44 15.0215Z" fill="#3A3A3A"/>
<path d="M40 14.7901C40 14.6477 40.27 14.5676 40.88 14.5142C41.24 14.4786 41.3 14.4964 41.3 14.6388C41.3 14.7634 41.2 14.8168 40.84 14.8613C40.16 14.9414 40 14.9325 40 14.7901V14.7901Z" fill="#3A3A3A"/>
<path d="M17.2 14.5765C17.2 14.4074 17.25 14.3184 17.35 14.3184C17.43 14.3184 17.48 14.3362 17.46 14.3629C17.43 14.3807 17.53 14.4964 17.68 14.6121C17.95 14.8168 17.95 14.8168 17.58 14.8257C17.23 14.8257 17.2 14.8079 17.2 14.5765Z" fill="#3A3A3A"/>
<path d="M79.1 14.096C79.1 13.8646 79.13 13.8468 79.48 13.8468C79.85 13.8557 79.85 13.8557 79.58 14.0604C79.43 14.1761 79.33 14.2917 79.36 14.3095C79.38 14.3362 79.33 14.354 79.25 14.354C79.15 14.354 79.1 14.265 79.1 14.096Z" fill="#3A3A3A"/>
<path d="M46.1 14.1672C46.1 14.0515 46.38 13.9358 46.68 13.9358C46.74 13.9358 46.8 14.0159 46.8 14.1138C46.8 14.2561 46.73 14.2917 46.45 14.2917C46.22 14.2917 46.1 14.2472 46.1 14.1672Z" fill="#3A3A3A"/>
<path d="M53.3 14.1138C53.3 13.9269 53.4 13.9002 53.78 13.9892C54.14 14.0782 54.05 14.2917 53.65 14.2917C53.37 14.2917 53.3 14.2561 53.3 14.1138Z" fill="#3A3A3A"/>
<path d="M80.92 14.0782C81.07 13.9625 81.17 13.8468 81.14 13.829C81.12 13.8023 81.17 13.7845 81.25 13.7845C81.35 13.7845 81.4 13.8735 81.4 14.0426C81.4 14.2739 81.37 14.2917 81.03 14.2917C80.65 14.2828 80.65 14.2828 80.92 14.0782Z" fill="#3A3A3A"/>
<path d="M49 14.0782C49 14.0159 49.1 13.9358 49.23 13.9002C49.64 13.8023 49.8 13.8379 49.8 14.0248C49.8 14.1761 49.73 14.2028 49.4 14.2028C49.13 14.2028 49 14.1672 49 14.0782Z" fill="#3A3A3A"/>
<path d="M50.3 14.0248C50.3 13.8379 50.46 13.8023 50.88 13.9002C51.27 13.9981 51.15 14.2028 50.7 14.2028C50.37 14.2028 50.3 14.1761 50.3 14.0248Z" fill="#3A3A3A"/>
<path d="M31.9 13.7489C31.9 13.5264 31.93 13.4908 32.03 13.5709C32.11 13.6243 32.19 13.651 32.21 13.6332C32.23 13.6154 32.33 13.6955 32.43 13.8112C32.61 14.0248 32.61 14.0248 32.25 14.0248C31.92 14.0248 31.9 14.007 31.9 13.7489V13.7489Z" fill="#3A3A3A"/>
<path d="M15.5 13.2683C15.5 13.0815 15.45 13.0459 15.2 13.0459C14.93 13.0459 14.9 13.0192 14.9 12.77C14.9 12.5297 14.92 12.503 15.05 12.6009C15.13 12.6632 15.2 12.681 15.2 12.6454C15.2 12.6187 15.32 12.7077 15.46 12.859C15.6 13.0103 15.75 13.1171 15.78 13.0993C15.82 13.0815 15.93 13.1616 16.03 13.2772C16.21 13.4908 16.21 13.4908 15.85 13.4908C15.54 13.4908 15.5 13.4641 15.5 13.2683V13.2683Z" fill="#3A3A3A"/>
<path d="M90.8 13.0904C90.8 12.8412 90.84 12.7789 91 12.7789C91.21 12.7789 91.24 12.8679 91.14 13.2061C91.04 13.5264 90.8 13.4463 90.8 13.0904Z" fill="#3A3A3A"/>
<path d="M82.97 12.3873C83.07 12.2717 83.17 12.1916 83.19 12.2094C83.21 12.2272 83.29 12.2005 83.37 12.1471C83.47 12.067 83.5 12.1026 83.5 12.325C83.5 12.5831 83.48 12.6009 83.15 12.6009C82.79 12.6009 82.79 12.6009 82.97 12.3873V12.3873Z" fill="#3A3A3A"/>
<path d="M68.97 12.2984C69.07 12.1827 69.17 12.1026 69.19 12.1204C69.21 12.1382 69.29 12.1115 69.37 12.0581C69.47 11.978 69.5 12.0136 69.5 12.2361C69.5 12.4941 69.48 12.5119 69.15 12.5119C68.79 12.5119 68.79 12.5119 68.97 12.2984V12.2984Z" fill="#3A3A3A"/>
<path d="M81.4 12.2539C81.4 11.9958 81.42 11.978 81.75 11.978C82.11 11.978 82.11 11.978 81.93 12.1916C81.83 12.3072 81.73 12.3873 81.71 12.3695C81.69 12.3517 81.61 12.3784 81.53 12.4318C81.43 12.5119 81.4 12.4763 81.4 12.2539V12.2539Z" fill="#3A3A3A"/>
<path d="M29.7 12.1115C29.7 11.9246 29.65 11.889 29.4 11.889C29.15 11.889 29.1 11.8534 29.1 11.6665C29.1 11.4796 29.05 11.444 28.8 11.444C28.55 11.444 28.5 11.4084 28.5 11.2216C28.5 11.0347 28.45 10.9991 28.2 10.9991C27.95 10.9991 27.9 10.9635 27.9 10.7766C27.9 10.5897 27.85 10.5541 27.6 10.5541C27.35 10.5541 27.3 10.5185 27.3 10.3317C27.3 10.1448 27.25 10.1092 27 10.1092C26.75 10.1092 26.7 10.0736 26.7 9.8867C26.7 9.69982 26.65 9.66422 26.4 9.66422C26.17 9.66422 26.1 9.62862 26.1 9.48624C26.1 9.35275 26.03 9.30826 25.85 9.30826C25.67 9.30826 25.6 9.26376 25.6 9.13027C25.6 8.99679 25.53 8.95229 25.35 8.95229C25.14 8.95229 25.1 8.9078 25.1 8.67642C25.1 8.43615 25.12 8.40945 25.25 8.50734C25.33 8.56963 25.4 8.58743 25.4 8.55183C25.4 8.51624 25.5 8.58743 25.61 8.72092C25.73 8.8544 25.85 8.94339 25.87 8.9167C25.9 8.89 26.02 8.97009 26.12 9.09468C26.23 9.21927 26.35 9.29936 26.37 9.27266C26.4 9.24596 26.54 9.35275 26.67 9.49514C26.81 9.63752 26.95 9.74431 26.97 9.71761C27 9.69092 27.14 9.79771 27.27 9.94009C27.41 10.0825 27.54 10.1893 27.56 10.1715C27.58 10.1537 27.85 10.3494 28.17 10.6075C28.48 10.8656 28.76 11.0614 28.78 11.0436C28.8 11.0258 28.94 11.1326 29.07 11.275C29.21 11.4173 29.35 11.5241 29.37 11.4974C29.4 11.4707 29.53 11.5686 29.67 11.7199C29.81 11.8623 29.95 11.9602 29.98 11.9424C30.02 11.9246 30.13 12.0047 30.23 12.1204C30.41 12.3339 30.41 12.3339 30.05 12.3339C29.74 12.3339 29.7 12.3072 29.7 12.1115V12.1115Z" fill="#3A3A3A"/>
<path d="M15.55 11.889C15.51 11.8356 15.46 11.8178 15.42 11.8356C15.38 11.8534 15.27 11.7733 15.17 11.6576C14.99 11.444 14.99 11.444 15.35 11.444C15.67 11.444 15.7 11.4618 15.7 11.711C15.7 11.9869 15.66 12.0403 15.55 11.889Z" fill="#3A3A3A"/>
<path d="M70.27 11.3195C70.37 11.2038 70.47 11.1237 70.49 11.1415C70.51 11.1593 70.59 11.1326 70.67 11.0792C70.77 10.9991 70.8 11.0347 70.8 11.2572C70.8 11.5152 70.78 11.533 70.45 11.533C70.09 11.533 70.09 11.533 70.27 11.3195V11.3195Z" fill="#3A3A3A"/>
<path d="M8.23 10.9546C8.29 10.7855 8.39 10.6431 8.47 10.6431C8.55 10.6431 8.6 10.7588 8.6 10.9546C8.6 11.2216 8.57 11.2661 8.36 11.2661C8.13 11.2661 8.12 11.2483 8.23 10.9546Z" fill="#3A3A3A"/>
<path d="M84.77 11.0525C84.87 10.9368 84.97 10.8567 84.99 10.8745C85.01 10.8923 85.09 10.8656 85.17 10.8122C85.27 10.7321 85.3 10.7677 85.3 10.9902C85.3 11.2483 85.28 11.2661 84.95 11.2661C84.59 11.2661 84.59 11.2661 84.77 11.0525V11.0525Z" fill="#3A3A3A"/>
<path d="M14.15 10.9101C14.11 10.8567 14.06 10.8389 14.02 10.8567C13.98 10.8745 13.87 10.7944 13.77 10.6787C13.59 10.4651 13.59 10.4651 13.95 10.4651C14.27 10.4651 14.3 10.4829 14.3 10.7321C14.3 11.008 14.26 11.0614 14.15 10.9101Z" fill="#3A3A3A"/>
<path d="M11.7 10.5986C11.7 10.2961 11.7 10.2961 11.96 10.5096C12.11 10.6342 12.26 10.7054 12.31 10.6787C12.36 10.652 12.4 10.6965 12.4 10.7677C12.4 10.8745 12.3 10.9101 12.05 10.9101C11.72 10.9101 11.7 10.8923 11.7 10.5986Z" fill="#3A3A3A"/>
<path d="M85.67 10.4295C85.77 10.3139 85.88 10.2338 85.92 10.2516C85.96 10.2694 86.06 10.1982 86.14 10.0914C86.23 9.98458 86.3 9.92229 86.3 9.96679C86.3 10.0113 86.37 9.99348 86.45 9.93119C86.58 9.8333 86.6 9.86 86.6 10.1003C86.6 10.3138 86.56 10.3761 86.4 10.3761C86.29 10.3761 86.2 10.4384 86.2 10.5096C86.2 10.6075 86.09 10.6431 85.85 10.6431C85.49 10.6431 85.49 10.6431 85.67 10.4295V10.4295Z" fill="#3A3A3A"/>
<path d="M8.53 9.64642C8.55 9.53073 8.65 9.44174 8.78 9.42394C8.96 9.40614 9 9.44174 9 9.61972C9 9.79771 8.95 9.8422 8.75 9.8422C8.55 9.8422 8.51 9.8066 8.53 9.64642Z" fill="#3A3A3A"/>
<path d="M9.1 9.58413C9.1 9.39725 9.36 9.26376 9.46 9.40615C9.49 9.45954 9.58 9.47734 9.66 9.45064C9.75 9.42394 9.8 9.46844 9.8 9.57523C9.8 9.71761 9.73 9.75321 9.45 9.75321C9.17 9.75321 9.1 9.71761 9.1 9.58413Z" fill="#3A3A3A"/>
<path d="M11.96 9.58413C11.79 9.48624 11.63 9.42395 11.58 9.45064C11.54 9.47734 11.5 9.45954 11.5 9.40615C11.5 9.36165 11.25 9.21927 10.95 9.08578C10.32 8.81881 10.25 8.68532 10.75 8.68532C10.99 8.68532 11.1 8.72982 11.1 8.81881C11.1 8.9078 11.2 8.95229 11.4 8.95229C11.63 8.95229 11.7 8.98789 11.7 9.13028C11.7 9.27266 11.77 9.30826 12.05 9.30826C12.36 9.30826 12.4 9.33495 12.4 9.53073C12.4 9.79771 12.34 9.80661 11.96 9.58413Z" fill="#3A3A3A"/>
<path d="M85.3 9.40615C85.3 9.14807 85.32 9.13028 85.65 9.13028C86.01 9.13028 86.01 9.13028 85.83 9.34385C85.73 9.45954 85.63 9.53963 85.61 9.52183C85.59 9.50404 85.51 9.53073 85.43 9.58413C85.33 9.66422 85.3 9.62862 85.3 9.40615V9.40615Z" fill="#3A3A3A"/>
<path d="M87.2 9.42394C87.2 9.34385 87.23 9.30826 87.26 9.33495C87.3 9.36165 87.42 9.33495 87.54 9.26376C87.83 9.07688 87.9 9.09468 87.9 9.35275C87.9 9.54853 87.86 9.57523 87.55 9.57523C87.29 9.57523 87.2 9.53963 87.2 9.42394V9.42394Z" fill="#3A3A3A"/>
<path d="M73.17 9.18367C73.27 9.06799 73.37 8.98789 73.39 9.00569C73.41 9.02349 73.49 8.99679 73.57 8.9434C73.67 8.86331 73.7 8.8989 73.7 9.12138C73.7 9.37945 73.68 9.39725 73.35 9.39725C72.99 9.39725 72.99 9.39725 73.17 9.18367V9.18367Z" fill="#3A3A3A"/>
<path d="M88 9.05908C88 8.98789 88.52 8.68532 88.64 8.68532C88.67 8.68532 88.7 8.78321 88.7 8.9078C88.7 9.10358 88.66 9.13028 88.35 9.13028C88.16 9.13028 88 9.09468 88 9.05908Z" fill="#3A3A3A"/>
<path d="M8 8.67642C8 8.44505 8.03 8.41835 8.35 8.41835C8.8 8.41835 8.8 8.59633 8.35 8.78321C8 8.9256 8 8.9256 8 8.67642V8.67642Z" fill="#3A3A3A"/>
<path d="M88.8 8.68532C88.8 8.58743 89.62 8.24037 89.86 8.24037C89.94 8.24037 90 8.32046 90 8.41835C90 8.55184 89.93 8.59633 89.75 8.59633C89.61 8.59633 89.5 8.64083 89.5 8.68532C89.5 8.73872 89.34 8.77431 89.15 8.77431C88.96 8.77431 88.8 8.72982 88.8 8.68532Z" fill="#3A3A3A"/>
<path d="M90.6 8.44504C90.6 8.13358 90.61 8.12468 90.79 8.27596C90.89 8.36495 91 8.50734 91.03 8.60523C91.07 8.73871 91.03 8.77431 90.84 8.77431C90.63 8.77431 90.6 8.72981 90.6 8.44504Z" fill="#3A3A3A"/>
<path d="M74.17 8.47174C74.27 8.35606 74.37 8.27596 74.39 8.29376C74.41 8.31156 74.49 8.28486 74.57 8.23147C74.67 8.15138 74.7 8.18697 74.7 8.40945C74.7 8.66752 74.68 8.68532 74.35 8.68532C73.99 8.68532 73.99 8.68532 74.17 8.47174V8.47174Z" fill="#3A3A3A"/>
<path d="M87.2 8.19587C87.2 8.00009 87.24 7.97339 87.55 7.97339C87.98 7.97339 87.99 8.06238 87.61 8.26706C87.23 8.46284 87.2 8.46284 87.2 8.19587Z" fill="#3A3A3A"/>
<path d="M24 7.8755C24 7.65303 24.03 7.61743 24.13 7.69752C24.21 7.75092 24.29 7.77761 24.31 7.75982C24.33 7.74202 24.43 7.82211 24.53 7.9378C24.71 8.15138 24.71 8.15137 24.35 8.15137C24.02 8.15137 24 8.13358 24 7.8755V7.8755Z" fill="#3A3A3A"/>
<path d="M88.8 7.48394C88.8 7.28816 88.84 7.26147 89.16 7.26147C89.6 7.26147 89.58 7.42165 89.12 7.59073C88.81 7.70642 88.8 7.69752 88.8 7.48394V7.48394Z" fill="#3A3A3A"/>
<path d="M7.7 7.51064C7.7 7.24367 7.83 6.9945 7.96 6.9945C8.05 6.9945 8.1 7.10128 8.1 7.30596C8.1 7.55514 8.06 7.61743 7.9 7.61743C7.79 7.61743 7.7 7.56404 7.7 7.51064Z" fill="#3A3A3A"/>
<path d="M75.55 7.52844C75.58 7.48394 75.74 7.35936 75.9 7.26147C76.2 7.07459 76.2 7.07459 76.2 7.34156C76.2 7.59963 76.17 7.61743 75.84 7.61743C75.64 7.61743 75.51 7.58183 75.55 7.52844Z" fill="#3A3A3A"/>
<path d="M23 7.16358C23 6.9411 23.03 6.9055 23.13 6.9856C23.21 7.03899 23.29 7.06569 23.31 7.04789C23.33 7.03009 23.43 7.11018 23.53 7.22587C23.71 7.43945 23.71 7.43945 23.35 7.43945C23.02 7.43945 23 7.42165 23 7.16358V7.16358Z" fill="#3A3A3A"/>
<path d="M91.3 6.86101C91.3 6.50504 91.54 6.42495 91.64 6.75422C91.74 7.08348 91.71 7.17247 91.5 7.17247C91.34 7.17247 91.3 7.11018 91.3 6.86101Z" fill="#3A3A3A"/>
<path d="M22.1 6.68303C22.1 6.61183 22.01 6.54954 21.9 6.54954C21.74 6.54954 21.7 6.48725 21.7 6.27367C21.7 6.03339 21.72 6.0067 21.85 6.10459C21.93 6.16688 22 6.18468 22 6.14018C22 6.09569 22.07 6.15798 22.16 6.26477C22.24 6.37156 22.34 6.44275 22.38 6.42495C22.42 6.40716 22.53 6.48725 22.63 6.60294C22.81 6.81651 22.81 6.81651 22.45 6.81651C22.21 6.81651 22.1 6.78092 22.1 6.68303V6.68303Z" fill="#3A3A3A"/>
<path d="M77.07 6.42495C77.17 6.30927 77.27 6.22917 77.29 6.24697C77.31 6.26477 77.39 6.23807 77.47 6.18468C77.57 6.10459 77.6 6.14018 77.6 6.36266C77.6 6.62073 77.58 6.63853 77.25 6.63853C76.89 6.63853 76.89 6.63853 77.07 6.42495V6.42495Z" fill="#3A3A3A"/>
<path d="M78.15 5.67743C78.37 5.49055 78.58 5.35707 78.62 5.36596C78.66 5.38376 78.76 5.30367 78.84 5.19688C78.93 5.09009 79 5.0367 79 5.08119C79.01 5.13459 79.1 5.07229 79.2 4.95661C79.31 4.84092 79.4 4.77862 79.4 4.81422C79.4 4.84982 79.47 4.83202 79.55 4.76972C79.68 4.67183 79.7 4.69853 79.7 4.93881C79.7 5.15238 79.66 5.21468 79.5 5.21468C79.39 5.21468 79.3 5.27697 79.3 5.34817C79.3 5.41936 79.21 5.48165 79.1 5.48165C78.99 5.48165 78.9 5.54394 78.9 5.61514C78.9 5.68633 78.81 5.74862 78.7 5.74862C78.59 5.74862 78.5 5.81092 78.5 5.88211C78.5 5.98 78.39 6.0156 78.13 6.0156C77.75 6.0156 77.75 6.0156 78.15 5.67743Z" fill="#3A3A3A"/>
<path d="M91.2 5.43716C91.2 5.08119 91.44 5.0011 91.54 5.33037C91.64 5.65963 91.61 5.74862 91.4 5.74862C91.24 5.74862 91.2 5.68633 91.2 5.43716Z" fill="#3A3A3A"/>
<path d="M20 5.25918C20 5.18798 19.91 5.12569 19.8 5.12569C19.69 5.12569 19.6 5.0634 19.6 4.9922C19.6 4.92101 19.51 4.85872 19.4 4.85872C19.24 4.85872 19.2 4.79642 19.2 4.58284C19.2 4.30697 19.2 4.30697 19.54 4.52945C19.72 4.66294 19.89 4.75193 19.91 4.74303C19.93 4.73413 20.13 4.87652 20.35 5.0545C20.75 5.39266 20.75 5.39266 20.38 5.39266C20.11 5.39266 20 5.35707 20 5.25918V5.25918Z" fill="#3A3A3A"/>
<path d="M18.1 3.92431C18.1 3.72853 18.06 3.70183 17.75 3.70183C17.43 3.70183 17.4 3.68403 17.4 3.42596C17.4 3.15009 17.4 3.15009 17.89 3.47046C18.15 3.64844 18.39 3.77303 18.41 3.75523C18.43 3.73743 18.53 3.81752 18.63 3.93321C18.81 4.14679 18.81 4.14679 18.45 4.14679C18.14 4.14679 18.1 4.12009 18.1 3.92431V3.92431Z" fill="#3A3A3A"/>
<path d="M90.9 3.21239C90.9 2.85642 91.14 2.77633 91.24 3.1056C91.34 3.43486 91.31 3.52385 91.1 3.52385C90.94 3.52385 90.9 3.46156 90.9 3.21239Z" fill="#3A3A3A"/>
<path d="M8.17 3.0344C8.13 2.96321 8.15 2.88312 8.21 2.84752C8.26 2.82082 8.3 2.73183 8.29 2.65174C8.27 2.40257 8.42 2.1 8.56 2.1C8.71 2.1 8.73 2.31358 8.64 2.83862C8.59 3.07 8.52 3.16789 8.4 3.16789C8.3 3.16789 8.2 3.10559 8.17 3.0344Z" fill="#3A3A3A"/>
<path d="M84.7 1.67285C84.7 1.60165 85.22 1.29908 85.34 1.29908C85.37 1.29908 85.4 1.39697 85.4 1.52156C85.4 1.71734 85.36 1.74404 85.05 1.74404C84.86 1.74404 84.7 1.70844 84.7 1.67285Z" fill="#3A3A3A"/>
<path d="M86.3 0.863028C86.3 0.818532 86.49 0.702844 86.73 0.596055C87.15 0.409174 87.15 0.409174 87.18 0.596055C87.2 0.702844 87.16 0.827431 87.08 0.863028C86.91 0.969817 86.3 0.960917 86.3 0.863028Z" fill="#3A3A3A"/>
<path d="M11.8 0.453667C11.8 0.240089 11.81 0.231189 12.12 0.346877C12.58 0.515959 12.6 0.676144 12.16 0.676144C11.84 0.676144 11.8 0.649447 11.8 0.453667V0.453667Z" fill="#3A3A3A"/>
</svg>
