<svg width="376" height="441" viewBox="0 0 376 441" fill="none" xmlns="http://www.w3.org/2000/svg">
<path d="M197.533 440.107C197.533 439.88 197.953 439.653 198.513 439.653C199.027 439.653 199.307 439.88 199.167 440.107C199.027 440.379 198.56 440.56 198.187 440.56C197.813 440.56 197.533 440.379 197.533 440.107Z" fill="#E8E7E6"/>
<path d="M372.86 399.035C371.647 398.128 370.807 397.222 370.947 396.995C371.367 396.27 374.54 398.491 375.007 399.896C375.38 400.939 375.333 400.894 372.86 399.035V399.035Z" fill="#E8E7E6"/>
<path d="M366.093 390.83C365.44 390.558 364.413 388.88 364.927 388.88C365.113 388.88 366.14 389.379 367.167 390.014C368.847 391.011 368.893 391.102 367.867 391.102C367.213 391.102 366.42 390.966 366.093 390.83Z" fill="#E8E7E6"/>
<path d="M363.667 385.933C363.2 385.389 363.2 385.253 363.853 385.253C364.273 385.253 364.6 385.571 364.6 385.933C364.6 386.296 364.507 386.613 364.413 386.613C364.32 386.613 363.993 386.296 363.667 385.933Z" fill="#E8E7E6"/>
<path d="M358.533 383.214C357.88 382.851 357.647 382.579 358.067 382.579C358.44 382.579 359.28 382.851 359.933 383.214C360.587 383.576 360.82 383.848 360.4 383.848C360.027 383.848 359.187 383.576 358.533 383.214Z" fill="#E8E7E6"/>
<path d="M334.267 373.92C334.267 373.694 335.06 373.467 336.04 373.512C337.44 373.512 337.58 373.603 336.833 373.92C335.527 374.464 334.267 374.464 334.267 373.92Z" fill="#E8E7E6"/>
<path d="M340.567 371.2C340.427 370.973 339.54 370.747 338.653 370.747C336.18 370.747 330.953 369.341 329.04 368.163C327.313 367.12 324.467 366.712 324.467 367.528C324.467 367.755 325.307 368.072 326.333 368.253C327.407 368.435 328.2 368.797 328.2 369.16C328.2 370.021 326.333 370.339 325.12 369.704C324.56 369.387 323.253 368.707 322.227 368.163C320.827 367.392 320.407 366.939 320.593 366.304C320.733 365.624 320.36 365.307 318.773 364.717C315.647 363.584 314.153 363.312 313.78 363.856C313.64 364.128 312.893 364.491 312.193 364.627C310.887 364.944 310.887 364.944 311.167 363.312L311.493 361.68H309.44C305.987 361.68 303 361.136 303 360.547C303 359.821 301.833 359.368 300.947 359.685C300.107 360.003 295.3 358.643 294.647 357.872C294.367 357.555 293.153 357.237 292.033 357.237C290.867 357.192 289.513 356.965 289.047 356.693C288.533 356.467 287.6 356.24 286.9 356.24C286.153 356.24 285.78 356.059 285.967 355.742C286.153 355.47 286.62 355.379 287.087 355.56C288.393 356.059 291.473 356.467 293.573 356.422C294.647 356.376 295.533 356.557 295.533 356.829C295.533 357.056 296.14 357.147 296.933 356.965C297.96 356.784 298.427 356.92 298.613 357.373C298.8 357.872 299.593 358.053 301.367 358.053C302.907 358.053 304.027 358.28 304.353 358.688C304.867 359.278 307.433 359.867 310 359.912C310.607 359.957 311.353 360.229 311.633 360.592C312.007 361.091 312.427 361.181 313.22 360.864C314.34 360.456 317.467 361.453 317.467 362.224C317.467 362.405 317.84 362.587 318.26 362.587C318.68 362.587 319.38 362.904 319.8 363.267C320.64 364.037 324.607 364.853 327.267 364.853C328.247 364.853 329.273 365.126 329.553 365.488C329.88 365.851 330.627 366.259 331.233 366.395C331.887 366.576 332.4 366.893 332.4 367.12C332.4 367.392 333.007 367.573 333.753 367.573C334.687 367.573 335.153 367.845 335.34 368.48C335.527 369.16 335.993 369.387 337.16 369.387C338.047 369.387 339.167 369.704 339.68 370.067C340.147 370.429 341.173 370.747 341.873 370.747C342.62 370.747 343.087 370.928 342.9 371.2C342.76 371.472 342.2 371.653 341.733 371.653C341.267 371.653 340.707 371.472 340.567 371.2V371.2Z" fill="#E8E7E6"/>
<path d="M202.2 368.254C202.2 367.891 202.433 367.574 202.667 367.574C202.947 367.574 203.133 367.891 203.133 368.254C203.133 368.616 202.947 368.934 202.667 368.934C202.433 368.934 202.2 368.616 202.2 368.254Z" fill="#E8E7E6"/>
<path d="M263.66 363.494C263.893 362.587 262.633 361.499 260.44 360.91C258.947 360.502 258.387 360.592 256.287 361.544L253.86 362.678L252.413 361C251.247 359.686 250.5 359.278 249.1 359.096C246.813 358.87 246.72 358.779 247.607 357.464L248.307 356.376L246.02 356.331C244.713 356.331 243.733 356.512 243.733 356.784C243.733 357.056 243.407 357.102 242.94 356.92C242.473 356.739 241.307 356.603 240.327 356.648C238.833 356.739 238.46 356.558 238.273 355.787C238.04 354.971 237.76 354.88 236.313 355.107C235.193 355.288 233.653 355.062 231.74 354.427C228.473 353.384 228.1 353.384 223.2 353.792C220.493 354.019 219.84 353.974 220.213 353.52C221.193 352.523 231.693 351.752 232.72 352.614C233.093 352.886 236.267 353.158 240.467 353.294C244.34 353.384 247.793 353.702 248.12 353.928C248.773 354.472 254.233 354.654 256.007 354.2C256.987 353.928 257.267 354.019 257.267 354.608C257.267 355.515 257.873 355.515 259.647 354.608C260.44 354.246 261.747 354.019 262.54 354.11L264.033 354.291L262.4 354.336C261.28 354.427 260.393 354.835 259.507 355.742C258.107 357.192 258.2 357.6 260.113 357.6C262.027 357.6 264.267 358.688 264.92 359.912C265.433 360.91 265.667 361 268.7 360.864C270.52 360.774 271.827 360.819 271.64 361.046C271.407 361.227 269.493 361.998 267.347 362.814C264.22 363.947 263.52 364.083 263.66 363.494V363.494ZM256.567 358.915C256.8 358.688 256.613 358.507 256.007 358.507C255.493 358.507 254.747 358.824 254.42 359.232C253.86 359.912 253.907 359.958 254.933 359.64C255.587 359.459 256.287 359.142 256.567 358.915ZM255.633 357.283C256.427 356.784 256.147 356.694 253.16 356.694C249.8 356.694 248.633 357.328 251.107 357.872C251.807 358.008 252.6 358.19 252.833 358.235C253.44 358.416 254.467 358.054 255.633 357.283V357.283Z" fill="#E8E7E6"/>
<path d="M214.1 352.16C215.407 351.616 215.827 351.616 215.5 352.16C215.36 352.432 214.753 352.613 214.193 352.568C213.213 352.568 213.213 352.523 214.1 352.16Z" fill="#E8E7E6"/>
<path d="M192.773 300.163C191.42 298.622 191.373 297.987 192.68 299.211C193.38 299.891 193.893 300.571 193.753 300.707C193.613 300.843 193.147 300.571 192.773 300.163V300.163Z" fill="#E8E7E6"/>
<path d="M184.42 267.342C183.16 264.848 182.553 262.854 183.067 262.854C183.767 262.854 184.98 264.984 185.447 266.979C186.053 269.563 185.68 269.699 184.42 267.342Z" fill="#E8E7E6"/>
<path d="M180.92 256.733C179.987 255.328 180.22 254.421 181.293 255.237C182.227 255.963 182.88 257.867 182.18 257.867C181.9 257.867 181.34 257.368 180.92 256.733V256.733Z" fill="#E8E7E6"/>
<path d="M178.493 252.608C177.933 252.245 176.953 250.931 176.3 249.707L175.133 247.485L176.487 248.211C177.793 248.936 179.427 250.976 180.08 252.563C180.453 253.515 179.847 253.56 178.493 252.608V252.608Z" fill="#E8E7E6"/>
<path d="M172.473 244.584C171.633 244.267 170.513 243.587 169.907 243.043L168.88 242.045L170.047 242.363C171.493 242.771 174.2 244.357 174.2 244.811C174.2 244.992 174.153 245.173 174.107 245.128C174.013 245.128 173.267 244.856 172.473 244.584V244.584Z" fill="#E8E7E6"/>
<path d="M160.387 232.254C159.92 231.891 159.733 231.619 159.967 231.574C160.667 231.574 161.833 232.39 161.553 232.662C161.413 232.798 160.9 232.616 160.387 232.254Z" fill="#E8E7E6"/>
<path d="M185.867 154.325C185.633 153.645 185.4 152.875 185.4 152.648C185.4 152.013 186.613 152.149 187.267 152.92C187.687 153.419 187.687 153.781 187.08 154.552L186.38 155.549L185.867 154.325V154.325Z" fill="#E8E7E6"/>
<path d="M78.5333 151.741C75.22 151.107 74.7067 150.608 76.9933 150.2C81.1933 149.52 84.04 146.483 85.3 141.224C86.0467 138.096 86.0467 137.688 85.3467 135.376C84.8333 133.608 84.32 132.792 83.6667 132.611C82.92 132.429 82.78 132.112 83.0133 131.069C83.2467 129.936 83.06 129.573 81.38 128.485C77.9733 126.173 73.8667 126.445 70.32 129.165C68.3134 130.707 68.08 130.797 68.6867 129.619C68.9667 129.165 69.06 128.667 68.92 128.576C68.5467 128.168 73.3067 124.269 75.4534 123.272C80.2134 121.005 88.5667 121.323 94.3067 123.997C101.773 127.443 109.94 137.371 109.007 141.904C108.447 144.669 100.933 149.339 94.1667 151.107C90.6667 152.013 81.94 152.331 78.5333 151.741V151.741Z" fill="#E8E7E6"/>
<path d="M5.96665 147.843C2.13998 145.395 0.833319 142.947 0.879985 138.187C0.973318 131.115 5.45332 124.36 10.68 123.408C12.5933 123.046 17.4 124.451 17.4 125.312C17.4 125.675 17.12 125.947 16.7933 125.947C16.42 125.947 15.2067 126.582 13.9933 127.352C10.7267 129.438 9.23331 132.702 9.23331 137.734C9.27998 142.312 10.2133 144.443 13.2467 146.982C14.3667 147.888 15.1133 148.75 14.9267 148.886C14.7867 149.022 13.34 149.248 11.7066 149.384C8.90664 149.611 8.62665 149.52 5.96665 147.843V147.843Z" fill="#E8E7E6"/>
<path d="M184.933 147.843C184.28 147.707 183.58 147.435 183.3 147.163C182.693 146.573 185.447 147.117 186.1 147.752C186.333 147.979 186.427 148.115 186.333 148.115C186.193 148.069 185.587 147.933 184.933 147.843Z" fill="#E8E7E6"/>
<path d="M184.467 145.123C184.093 144.987 182.927 144.261 181.9 143.536C180.873 142.856 178.54 141.723 176.767 141.133C174.947 140.499 173.173 139.637 172.8 139.229C172.193 138.595 172.193 138.549 173.033 138.821C173.547 139.003 175.32 139.592 177 140.091C180.92 141.315 186.847 144.171 186.66 144.76C186.473 145.304 185.447 145.485 184.467 145.123V145.123Z" fill="#E8E7E6"/>
<path d="M174.387 143.582L173.033 142.222L174.34 142.675C176.44 143.446 177.467 144.08 177.467 144.534C177.467 145.486 175.693 144.942 174.387 143.582Z" fill="#E8E7E6"/>
<path d="M168.693 136.328C169.533 136.011 170.233 136.011 170.793 136.328C171.447 136.691 171.213 136.782 169.533 136.782C167.573 136.736 167.527 136.736 168.693 136.328Z" fill="#E8E7E6"/>
<path d="M171.4 132.792C169.72 132.067 167.993 131.342 167.573 131.206C167.107 131.07 166.733 130.707 166.733 130.435C166.733 129.574 170.28 130.344 172.38 131.659C173.827 132.52 174.993 132.838 177.513 132.928C182.367 133.155 182.88 134.107 178.167 134.107C175.04 134.107 173.92 133.88 171.4 132.792V132.792Z" fill="#E8E7E6"/>
<path d="M23.9333 131.659C23.9333 131.206 24.3533 130.934 24.9133 130.934C26.0333 130.934 25.8934 131.976 24.7267 132.203C24.26 132.294 23.9333 132.067 23.9333 131.659Z" fill="#E8E7E6"/>
<path d="M215.5 131.341C215.127 130.299 215.453 129.8 216.153 130.253C216.76 130.616 216.853 132.293 216.247 132.293C216.013 132.293 215.64 131.885 215.5 131.341Z" fill="#E8E7E6"/>
<path d="M161.787 129.392C161.32 129.03 161.04 128.576 161.227 128.395C161.693 127.987 164.447 129.12 164.12 129.619C163.747 130.208 162.86 130.118 161.787 129.392Z" fill="#E8E7E6"/>
<path d="M214.893 126.763C214.24 126.128 214.147 125.494 214.753 125.494C215.173 125.494 215.873 126.854 215.593 127.126C215.5 127.216 215.173 127.035 214.893 126.763Z" fill="#E8E7E6"/>
<path d="M164.633 125.947C163.747 125.584 163.747 125.539 164.727 125.539C165.287 125.494 165.893 125.72 166.033 125.947C166.36 126.491 165.94 126.491 164.633 125.947Z" fill="#E8E7E6"/>
<path d="M212.933 122.094C212.933 121.232 213.167 120.507 213.4 120.507C213.68 120.507 213.867 121.232 213.867 122.094C213.867 122.955 213.68 123.68 213.4 123.68C213.167 123.68 212.933 122.955 212.933 122.094Z" fill="#E8E7E6"/>
<path d="M211.58 116.699C210.787 114.84 210.133 113.072 210.133 112.8C210.133 112.483 209.713 111.667 209.153 110.941C208.08 109.445 207.333 106.091 208.173 106.635C208.5 106.816 208.733 107.179 208.733 107.405C208.733 107.632 209.387 109.173 210.133 110.76C210.927 112.347 211.533 113.933 211.533 114.251C211.533 114.613 211.813 115.248 212.187 115.747C212.793 116.653 213.633 120.053 213.213 120.053C213.12 120.053 212.373 118.557 211.58 116.699V116.699Z" fill="#E8E7E6"/>
<path d="M159.407 110.488C158.24 110.08 158.007 109.627 158.94 109.627C159.64 109.627 160.947 110.398 160.667 110.67C160.527 110.806 159.967 110.715 159.407 110.488V110.488Z" fill="#E8E7E6"/>
<path d="M142.933 106.907C142.373 106.544 142.42 106.454 143.307 106.454C143.867 106.454 144.333 106.68 144.333 106.907C144.333 107.496 143.82 107.496 142.933 106.907Z" fill="#E8E7E6"/>
<path d="M125.573 83.6508C124.827 83.3788 124.267 83.0161 124.267 82.8348C124.267 82.3361 126.553 82.9254 127.113 83.6054C127.72 84.3308 127.347 84.3308 125.573 83.6508V83.6508Z" fill="#E8E7E6"/>
<path d="M112.133 80.6133C112.133 80.3866 112.647 80.2053 113.3 80.2506C113.953 80.296 114.467 80.5226 114.467 80.704C114.467 80.8853 113.953 81.0666 113.3 81.0666C112.647 81.0666 112.133 80.8853 112.133 80.6133Z" fill="#E8E7E6"/>
<path d="M103.78 75.899C104.34 75.4457 106.58 75.1737 106.3 75.627C106.16 75.8537 105.46 76.0804 104.807 76.0804C104.107 76.0804 103.687 75.9897 103.78 75.899V75.899Z" fill="#E8E7E6"/>
<path d="M111.667 75.6269C111.06 75.2643 111.06 75.1736 111.667 74.9923C112.6 74.6749 114.933 74.8563 114.933 75.2189C114.933 75.9896 112.74 76.2616 111.667 75.6269Z" fill="#E8E7E6"/>
<path d="M64.0667 72.3176C64.0667 71.6829 67.3333 69.2803 68.2667 69.2803C69.3867 69.2803 68.5933 70.5043 66.7267 71.5469C64.0667 73.0883 64.0667 73.0883 64.0667 72.3176Z" fill="#E8E7E6"/>
<path d="M109.567 72.0457C109.427 71.7737 109.753 71.6831 110.313 71.7737C111.713 72.0457 112.04 72.4537 110.827 72.4537C110.313 72.4537 109.753 72.2724 109.567 72.0457Z" fill="#E8E7E6"/>
<path d="M102.8 70.6403C102.8 70.4137 103.08 70.187 103.453 70.187C103.827 70.187 104.293 70.4137 104.433 70.6403C104.573 70.9123 104.293 71.0937 103.78 71.0937C103.22 71.0937 102.8 70.9123 102.8 70.6403Z" fill="#E8E7E6"/>
<path d="M96.5933 70.368C96.4066 70.1867 95.0533 70.0054 93.56 69.9147C88.8466 69.7334 88.52 69.6427 91.3666 69.144C94.4933 68.6454 95.24 68.6454 99.44 69.0987C102.193 69.3707 103.547 70.1867 101.307 70.1867C100.7 70.1867 99.4866 70.3227 98.6 70.4587C97.7133 70.5947 96.8266 70.5494 96.5933 70.368Z" fill="#E8E7E6"/>
<path d="M104.76 69.5975C103.547 69.1442 103.36 68.9175 103.827 68.4642C104.573 67.7388 105.133 67.7841 105.133 68.6001C105.133 68.9628 105.553 69.2801 106.067 69.2801C106.58 69.2801 107 69.5068 107 69.7335C107 70.2775 106.72 70.2775 104.76 69.5975Z" fill="#E8E7E6"/>
<path d="M83.9466 69.0536C84.1333 68.6456 84.5999 68.1469 85.0666 67.9203C85.7199 67.5576 85.9533 67.6936 86.0933 68.6003C86.3266 69.5976 86.1866 69.7336 85.0199 69.7336C84.0399 69.7336 83.7599 69.5523 83.9466 69.0536V69.0536Z" fill="#E8E7E6"/>
<path d="M65.42 67.6029C65.9333 66.6056 68.5 65.1096 68.92 65.5176C69.3867 65.9709 66.82 68.3736 65.84 68.3736C65.14 68.3736 65.0467 68.1923 65.42 67.6029Z" fill="#E8E7E6"/>
<path d="M76.0133 67.9201C76.2933 67.5574 76.62 66.9227 76.76 66.5601C76.9 66.1521 77.0866 66.1067 77.2733 66.4241C77.46 66.6961 77.1333 67.2854 76.5266 67.7387C75.9666 68.2374 75.7333 68.2827 76.0133 67.9201V67.9201Z" fill="#E8E7E6"/>
<path d="M100.933 67.9202C100.933 67.6935 101.073 67.4668 101.307 67.4215C101.493 67.4215 102.007 67.3308 102.427 67.2402C102.94 67.1495 103.127 67.3308 102.94 67.7388C102.66 68.4642 100.933 68.6002 100.933 67.9202Z" fill="#E8E7E6"/>
<path d="M80.8666 67.3764C81.24 67.0137 83.48 66.1524 85.7666 65.4724C88.1 64.7924 90.48 64.0217 91.0867 63.795C91.9267 63.4777 92.3 63.4777 92.58 63.931C93.14 64.747 91.74 65.6537 89.92 65.6537C89.1267 65.6537 87.68 65.971 86.7933 66.3337C85.86 66.6964 84.46 67.0137 83.6666 67.0137C82.8733 67.0137 81.7533 67.2404 81.1933 67.5124C80.3066 67.9657 80.26 67.9657 80.8666 67.3764V67.3764Z" fill="#E8E7E6"/>
<path d="M70.46 66.2429C69.6666 66.0616 69.7133 65.9709 70.6466 65.1549C71.2533 64.6562 72.2333 64.1576 72.8866 64.0216C73.54 63.8856 75.78 62.9789 77.7866 62.0269C79.84 61.0296 81.6133 60.3042 81.7066 60.4402C82.1266 60.8029 81.24 61.5282 78.6266 62.9336C77.18 63.7496 75.36 64.8829 74.66 65.4722C73.4 66.5149 72.28 66.6962 70.46 66.2429V66.2429Z" fill="#E8E7E6"/>
<path d="M53.1 15.3334C52.6333 14.8348 52.4 14.4268 52.5867 14.4268C52.7733 14.4268 53.3333 14.8348 53.8933 15.3334C54.4533 15.8321 54.6866 16.2401 54.4066 16.2401C54.1733 16.2401 53.5666 15.8321 53.1 15.3334Z" fill="#E8E7E6"/>
<path d="M28.8333 1.50687C28.0866 0.917535 27.5733 0.418868 27.76 0.373535C28.18 0.373535 31.4 2.18687 31.4 2.45887C31.4 3.00287 30.0466 2.5042 28.8333 1.50687Z" fill="#E8E7E6"/>
</svg>
