<svg width="102" height="84" viewBox="0 0 102 84" fill="none" xmlns="http://www.w3.org/2000/svg">
<path d="M50.78 83.6634C50.68 83.6456 50.6 83.5655 50.6 83.4943C50.6 83.4053 50.73 83.3697 51.05 83.3697C51.37 83.3697 51.5 83.4053 51.5 83.4943C51.5 83.5922 51.17 83.7435 51 83.7168C50.97 83.7079 50.87 83.6901 50.78 83.6634Z" fill="#292929"/>
<path d="M52.4 83.4587C52.4 83.3163 52.47 83.2807 52.75 83.2807C53.15 83.2807 53.24 83.4943 52.88 83.5833C52.5 83.6723 52.4 83.6456 52.4 83.4587Z" fill="#292929"/>
<path d="M53.32 83.5655C53.25 83.5477 53.2 83.4587 53.2 83.3608C53.2 83.2273 53.27 83.1917 53.55 83.1917C53.76 83.1917 53.9 83.2362 53.9 83.3074C53.9 83.432 53.49 83.6189 53.32 83.5655Z" fill="#292929"/>
<path d="M47.28 83.3074C46.95 83.2362 47.08 83.0138 47.45 83.0138C47.73 83.0138 47.8 83.0494 47.8 83.1917C47.8 83.3697 47.66 83.3964 47.28 83.3074Z" fill="#292929"/>
<path d="M54.7 83.1027C54.7 82.9604 54.77 82.9248 55.05 82.9248C55.45 82.9248 55.54 83.1383 55.18 83.2273C54.8 83.3163 54.7 83.2896 54.7 83.1027Z" fill="#292929"/>
<path d="M46.48 83.1295C46.15 83.0583 46.28 82.8358 46.65 82.8358C46.93 82.8358 47 82.8714 47 83.0138C47 83.1917 46.86 83.2184 46.48 83.1295Z" fill="#292929"/>
<path d="M44.7 82.5599C44.7 82.4976 44.44 82.3908 44.28 82.3908C44.19 82.3908 43.8 82.0616 43.8 81.9904C43.8 81.9637 43.96 81.9459 44.15 81.9459C44.39 81.9459 44.5 81.9904 44.5 82.0794C44.5 82.1683 44.6 82.2128 44.8 82.2128C45.05 82.2128 45.1 82.2484 45.1 82.4175C45.1 82.5599 45.04 82.6222 44.9 82.6222C44.79 82.6222 44.7 82.5866 44.7 82.5599Z" fill="#292929"/>
<path d="M57.4 82.2484C57.4 82.0616 57.45 82.0349 57.75 82.0349C58.03 82.0349 58.1 81.9993 58.1 81.8569C58.1 81.7145 58.17 81.6789 58.4 81.6789C58.63 81.6789 58.7 81.6433 58.7 81.5009C58.7 81.3585 58.77 81.3229 59.04 81.3229C59.36 81.3229 59.39 81.2962 59.42 81.0382C59.44 80.8157 59.5 80.7356 59.68 80.7178C59.82 80.7 59.9 80.6288 59.9 80.5131C59.9 80.3885 59.97 80.344 60.2 80.344C60.48 80.344 60.5 80.3173 60.5 80.0326C60.5 79.7478 60.52 79.7211 60.81 79.7211C61.11 79.7211 61.11 79.7211 60.9 79.9881C60.79 80.1305 60.65 80.2728 60.59 80.2995C60.54 80.3351 60.52 80.3974 60.56 80.4419C60.59 80.4864 60.58 80.5131 60.53 80.5042C60.41 80.4775 59.55 81.2606 59.59 81.3674C59.6 81.4119 59.59 81.4297 59.55 81.3941C59.51 81.3674 59.28 81.4742 59.03 81.6433C58.78 81.8124 58.4 82.0349 58.18 82.1327C57.97 82.2306 57.8 82.3374 57.8 82.373C57.8 82.4086 57.71 82.4442 57.6 82.4531C57.45 82.462 57.4 82.4175 57.4 82.2484Z" fill="#292929"/>
<path d="M42.99 81.5899C42.79 81.4475 42.6 81.3496 42.56 81.3674C42.53 81.3941 42.52 81.3852 42.54 81.3585C42.57 81.3318 42.43 81.1895 42.24 81.0382C42.05 80.8869 41.8 80.6555 41.69 80.5131C41.49 80.255 41.49 80.255 41.79 80.255C42.07 80.255 42.1 80.2817 42.1 80.5131C42.1 80.7445 42.14 80.7801 42.43 80.8068C42.7 80.8246 42.76 80.878 42.78 81.0827C42.81 81.2873 42.86 81.3229 43.11 81.3229C43.37 81.3229 43.4 81.3496 43.4 81.5899C43.4 81.7412 43.39 81.8569 43.37 81.8569C43.36 81.8569 43.18 81.7412 42.99 81.5899Z" fill="#292929"/>
<path d="M40.56 79.2583C40.59 79.2228 40.54 79.1605 40.46 79.1338C40.37 79.1071 40.33 79.0448 40.35 79.0003C40.38 78.9647 40.33 78.849 40.23 78.76C39.94 78.5019 39.95 78.2972 40.25 78.2972C40.45 78.2972 40.5 78.3417 40.5 78.5197C40.5 78.6621 40.56 78.7422 40.65 78.7422C40.75 78.7422 40.8 78.8312 40.8 79.0359C40.8 79.2405 40.75 79.3384 40.65 79.3384C40.57 79.3384 40.53 79.3028 40.56 79.2583Z" fill="#292929"/>
<path d="M62.4 77.1938C62.4 76.909 62.43 76.8734 62.65 76.8734C62.89 76.8734 62.9 76.8823 62.77 77.1582C62.58 77.5675 62.4 77.5853 62.4 77.1938Z" fill="#292929"/>
<path d="M62.8 76.3039C62.8 76.0191 62.83 75.9835 63.05 75.9835C63.29 75.9835 63.3 75.9924 63.17 76.2683C62.98 76.6776 62.8 76.6954 62.8 76.3039Z" fill="#292929"/>
<path d="M38.56 75.3783C38.36 74.7198 38.36 74.6486 38.58 74.6486C38.77 74.6486 39 75.2182 39 75.672C39 76.0903 38.73 75.9123 38.56 75.3783Z" fill="#292929"/>
<path d="M63.3 74.8711C63.3 74.6219 63.34 74.5596 63.5 74.5596C63.71 74.5596 63.74 74.6486 63.64 74.9868C63.54 75.3072 63.3 75.2271 63.3 74.8711Z" fill="#292929"/>
<path d="M63.7 73.0913C63.7 72.8421 63.74 72.7798 63.89 72.7798C64.13 72.7798 64.19 72.9311 64.06 73.1981C63.89 73.5095 63.7 73.4473 63.7 73.0913Z" fill="#292929"/>
<path d="M63.8 72.2904C63.8 72.0412 63.84 71.9789 64 71.9789C64.21 71.9789 64.24 72.0679 64.14 72.406C64.04 72.7264 63.8 72.6463 63.8 72.2904Z" fill="#292929"/>
<path d="M63.8 69.8876C63.8 69.5317 64.04 69.4516 64.14 69.7808C64.24 70.1101 64.21 70.1991 64 70.1991C63.84 70.1991 63.8 70.1368 63.8 69.8876Z" fill="#292929"/>
<path d="M63.4 67.3959C63.4 67.0399 63.64 66.9598 63.74 67.2891C63.84 67.6184 63.81 67.7073 63.6 67.7073C63.44 67.7073 63.4 67.6451 63.4 67.3959Z" fill="#292929"/>
<path d="M38.3 67.0399C38.3 66.9598 38.13 66.8708 37.85 66.8085C37.59 66.7462 37.4 66.6573 37.4 66.5861C37.4 66.4526 37.68 66.4259 38.19 66.5149C38.46 66.5683 38.5 66.6039 38.5 66.8708C38.5 67.0399 38.46 67.1734 38.4 67.1734C38.35 67.1734 38.3 67.1111 38.3 67.0399Z" fill="#292929"/>
<path d="M64.12 66.8352C64.05 66.8174 64 66.7284 64 66.6306C64 66.4971 64.07 66.4615 64.35 66.4615C64.56 66.4615 64.7 66.506 64.7 66.5772C64.7 66.7018 64.29 66.8886 64.12 66.8352Z" fill="#292929"/>
<path d="M66.32 66.5682C66.25 66.5504 66.2 66.4615 66.2 66.3636C66.2 66.2301 66.27 66.1945 66.55 66.1945C66.76 66.1945 66.9 66.239 66.9 66.3102C66.9 66.4348 66.49 66.6216 66.32 66.5682Z" fill="#292929"/>
<path d="M34.13 66.328C34 66.2835 33.9 66.1856 33.9 66.1144C33.9 66.0165 34.01 66.0076 34.43 66.0521C34.71 66.0788 35.03 66.1055 35.13 66.1055C35.23 66.1055 35.3 66.1767 35.3 66.2746C35.3 66.4259 35.23 66.4437 34.83 66.4348C34.56 66.4259 34.25 66.3814 34.13 66.328Z" fill="#292929"/>
<path d="M69.02 66.2123C68.95 66.1945 68.9 66.1055 68.9 66.0076C68.9 65.8741 68.97 65.8385 69.25 65.8385C69.46 65.8385 69.6 65.883 69.6 65.9542C69.6 66.0788 69.19 66.2657 69.02 66.2123Z" fill="#292929"/>
<path d="M28.88 65.5983C28.55 65.5271 28.68 65.3046 29.05 65.3046C29.33 65.3046 29.4 65.3402 29.4 65.4826C29.4 65.6606 29.26 65.6873 28.88 65.5983Z" fill="#292929"/>
<path d="M74.1 65.3224C74.1 65.1889 74.19 65.1355 74.56 65.091C75.25 65.0109 75.4 65.0198 75.4 65.1622C75.4 65.2868 75.29 65.3224 74.48 65.447C74.15 65.4915 74.1 65.4826 74.1 65.3224Z" fill="#292929"/>
<path d="M26.98 65.3313C26.65 65.2601 26.78 65.0376 27.15 65.0376C27.43 65.0376 27.5 65.0732 27.5 65.2156C27.5 65.3936 27.36 65.4203 26.98 65.3313Z" fill="#292929"/>
<path d="M78.3 64.6816C78.3 64.5393 78.37 64.5037 78.65 64.5037C79.05 64.5037 79.14 64.7172 78.78 64.8062C78.4 64.8952 78.3 64.8685 78.3 64.6816Z" fill="#292929"/>
<path d="M20.98 64.4414C20.65 64.3702 20.78 64.1477 21.15 64.1477C21.43 64.1477 21.5 64.1833 21.5 64.3257C21.5 64.5037 21.36 64.5304 20.98 64.4414Z" fill="#292929"/>
<path d="M84.1 63.7917C84.1 63.6494 84.17 63.6138 84.45 63.6138C84.85 63.6138 84.94 63.8273 84.58 63.9163C84.2 64.0053 84.1 63.9786 84.1 63.7917Z" fill="#292929"/>
<path d="M15.28 63.5515C14.95 63.4803 15.08 63.2578 15.45 63.2578C15.73 63.2578 15.8 63.2934 15.8 63.4358C15.8 63.6138 15.66 63.6404 15.28 63.5515Z" fill="#292929"/>
<path d="M87.5 63.2578C87.5 63.1154 87.57 63.0798 87.85 63.0798C88.25 63.0798 88.34 63.2934 87.98 63.3824C87.6 63.4714 87.5 63.4447 87.5 63.2578Z" fill="#292929"/>
<path d="M13.58 63.2845C13.25 63.2133 13.38 62.9908 13.75 62.9908C14.03 62.9908 14.1 63.0264 14.1 63.1688C14.1 63.3468 13.96 63.3735 13.58 63.2845Z" fill="#292929"/>
<path d="M12.48 63.1065C12.15 63.0353 12.28 62.8128 12.65 62.8128C12.93 62.8128 13 62.8484 13 62.9908C13 63.1688 12.86 63.1955 12.48 63.1065Z" fill="#292929"/>
<path d="M92.5 62.4569C92.5 62.3145 92.57 62.2789 92.85 62.2789C93.25 62.2789 93.34 62.4925 92.98 62.5815C92.6 62.6705 92.5 62.6438 92.5 62.4569Z" fill="#292929"/>
<path d="M94.1 62.1899C94.1 62.0475 94.17 62.0119 94.45 62.0119C94.85 62.0119 94.94 62.2255 94.58 62.3145C94.2 62.4035 94.1 62.3768 94.1 62.1899Z" fill="#292929"/>
<path d="M95.2 62.0386C95.2 61.8962 95.31 61.8428 95.84 61.7628C96.67 61.6204 96.9 61.6293 96.9 61.7806C96.9 61.9051 96.63 61.9763 95.58 62.1454C95.25 62.1988 95.2 62.1899 95.2 62.0386Z" fill="#292929"/>
<path d="M98.3 61.478C98.3 61.3356 98.37 61.3 98.65 61.3C99.05 61.3 99.14 61.5136 98.78 61.6026C98.4 61.6916 98.3 61.6649 98.3 61.478Z" fill="#292929"/>
<path d="M1.18 61.2377C0.849999 61.1665 0.979999 60.944 1.35 60.944C1.63 60.944 1.7 60.9796 1.7 61.122C1.7 61.3 1.56 61.3267 1.18 61.2377Z" fill="#292929"/>
<path d="M100.7 61.033C100.7 60.9351 100.76 60.855 100.84 60.855C100.91 60.855 101 60.9351 101.03 61.033C101.07 61.1665 101.03 61.211 100.89 61.211C100.77 61.211 100.7 61.1487 100.7 61.033Z" fill="#292929"/>
<path d="M1.03001 60.5436C1.09001 60.3745 1.19 60.2321 1.27 60.2321C1.35 60.2321 1.4 60.3478 1.4 60.5436C1.4 60.8105 1.37001 60.855 1.16001 60.855C0.930006 60.855 0.920005 60.8372 1.03001 60.5436Z" fill="#292929"/>
<path d="M1.1 59.4134C1.1 59.1464 1.23 58.8972 1.36 58.8972C1.45 58.8972 1.5 59.004 1.5 59.2087C1.5 59.4579 1.46 59.5202 1.3 59.5202C1.19 59.5202 1.1 59.4668 1.1 59.4134Z" fill="#292929"/>
<path d="M35.9 59.3066C35.9 59.1909 36.18 59.0752 36.48 59.0752C36.54 59.0752 36.6 59.1553 36.6 59.2532C36.6 59.3956 36.53 59.4312 36.25 59.4312C36.02 59.4312 35.9 59.3867 35.9 59.3066Z" fill="#292929"/>
<path d="M32.18 58.568C32.08 58.5502 32 58.4701 32 58.3989C32 58.3099 32.13 58.2743 32.45 58.2743C32.77 58.2743 32.9 58.3099 32.9 58.3989C32.9 58.4968 32.57 58.6481 32.4 58.6214C32.37 58.6125 32.27 58.5947 32.18 58.568Z" fill="#292929"/>
<path d="M38.7 58.5858C38.7 58.4968 39.09 58.2031 39.14 58.2565C39.17 58.2832 39.2 58.2654 39.2 58.212C39.2 58.1675 39.26 58.123 39.33 58.123C39.39 58.123 39.53 58.0874 39.63 58.0518C39.93 57.9361 39.85 58.3989 39.55 58.5235C39.29 58.6303 38.7 58.6748 38.7 58.5858Z" fill="#292929"/>
<path d="M37.8 57.7671C37.8 57.4912 37.82 57.4734 38.15 57.4734C38.57 57.4734 38.61 57.6158 38.23 57.7671C38.07 57.8205 37.92 57.9094 37.88 57.9628C37.84 58.0073 37.8 57.9183 37.8 57.7671Z" fill="#292929"/>
<path d="M3.6 57.7938C3.6 57.6781 3.88 57.5624 4.18 57.5624C4.24 57.5624 4.3 57.6425 4.3 57.7404C4.3 57.8828 4.23 57.9184 3.95 57.9184C3.72 57.9184 3.6 57.8739 3.6 57.7938Z" fill="#292929"/>
<path d="M17.4 57.7404C17.4 57.5535 17.5 57.5268 17.88 57.6158C18.24 57.7048 18.15 57.9184 17.75 57.9184C17.47 57.9184 17.4 57.8828 17.4 57.7404Z" fill="#292929"/>
<path d="M4.6 57.6158C4.6 57.5001 4.88 57.3844 5.18 57.3844C5.24 57.3844 5.3 57.4645 5.3 57.5624C5.3 57.7048 5.23 57.7404 4.95 57.7404C4.72 57.7404 4.6 57.6959 4.6 57.6158Z" fill="#292929"/>
<path d="M16 57.5624C16 57.3755 16.1 57.3488 16.48 57.4378C16.84 57.5268 16.75 57.7404 16.35 57.7404C16.07 57.7404 16 57.7048 16 57.5624Z" fill="#292929"/>
<path d="M23.08 57.5891C22.75 57.5179 22.88 57.2954 23.25 57.2954C23.53 57.2954 23.6 57.331 23.6 57.4734C23.6 57.6514 23.46 57.6781 23.08 57.5891Z" fill="#292929"/>
<path d="M5.9 57.4556C5.9 57.3221 6.31 57.1352 6.48 57.1886C6.55 57.2064 6.6 57.2954 6.6 57.3933C6.6 57.5268 6.53 57.5624 6.25 57.5624C6.04 57.5624 5.9 57.5179 5.9 57.4556Z" fill="#292929"/>
<path d="M14 57.3844C14 57.1975 14.1 57.1708 14.48 57.2598C14.84 57.3488 14.75 57.5624 14.35 57.5624C14.07 57.5624 14 57.5268 14 57.3844Z" fill="#292929"/>
<path d="M8.9 57.2598C8.9 57.1441 9.18 57.0284 9.48 57.0284C9.54 57.0284 9.6 57.1085 9.6 57.2064C9.6 57.3488 9.53 57.3844 9.25 57.3844C9.02 57.3844 8.9 57.3399 8.9 57.2598Z" fill="#292929"/>
<path d="M10.7 57.2064C10.7 57.0195 10.8 56.9928 11.18 57.0818C11.54 57.1708 11.45 57.3844 11.05 57.3844C10.77 57.3844 10.7 57.3488 10.7 57.2064Z" fill="#292929"/>
<path d="M2.3 56.9394C2.3 56.7971 2.37 56.7615 2.65 56.7615C3.05 56.7615 3.14 56.975 2.78 57.064C2.4 57.153 2.3 57.1263 2.3 56.9394Z" fill="#292929"/>
<path d="M39.5 56.8594C39.5 56.6013 39.53 56.5835 39.85 56.5835C40.18 56.5835 40.2 56.5657 40.2 56.272C40.2 55.9873 40.23 55.9606 40.48 55.9606C40.67 55.9606 40.77 56.0051 40.77 56.094C40.77 56.1652 40.75 56.2097 40.72 56.1919C40.7 56.1652 40.55 56.2898 40.38 56.4589C40.21 56.628 39.95 56.8505 39.79 56.9484C39.5 57.1263 39.5 57.1263 39.5 56.8594Z" fill="#292929"/>
<path d="M1.37 56.895C1.33 56.8238 1.35 56.7437 1.41 56.7081C1.47 56.6814 1.51 56.5479 1.5 56.4233C1.47 56.0762 1.6 55.7826 1.78 55.7826C1.9 55.7826 1.92 55.8627 1.86 56.2542C1.83 56.5034 1.8 56.7882 1.8 56.8772C1.8 57.064 1.45 57.0818 1.37 56.895Z" fill="#292929"/>
<path d="M18.03 56.8149C17.68 56.6725 17.75 56.4945 18.15 56.4945C18.43 56.4945 18.5 56.5301 18.5 56.6636C18.5 56.8772 18.32 56.9306 18.03 56.8149Z" fill="#292929"/>
<path d="M41.23 56.806C41.23 56.7348 41.26 56.6992 41.3 56.717C41.33 56.7348 41.47 56.5924 41.6 56.3966C41.9 55.9694 42 55.9605 42 56.361C42 56.5301 41.96 56.6725 41.9 56.6725C41.85 56.6725 41.8 56.7348 41.8 56.806C41.8 56.8949 41.7 56.9394 41.52 56.9394C41.34 56.9394 41.23 56.8949 41.23 56.806Z" fill="#292929"/>
<path d="M3.8 56.5835C3.8 56.4411 3.87 56.4055 4.15 56.4055C4.55 56.4055 4.64 56.6191 4.28 56.7081C3.9 56.7971 3.8 56.7704 3.8 56.5835Z" fill="#292929"/>
<path d="M14.73 56.4589C14.38 56.3165 14.45 56.1385 14.85 56.1385C15.13 56.1385 15.2 56.1741 15.2 56.3076C15.2 56.5212 15.02 56.5746 14.73 56.4589Z" fill="#292929"/>
<path d="M11.78 56.2809C11.38 56.1563 11.42 55.9606 11.85 55.9606C12.13 55.9606 12.2 55.9962 12.2 56.1296C12.2 56.361 12.11 56.3966 11.78 56.2809Z" fill="#292929"/>
<path d="M42.33 55.1418C42.52 54.7325 42.7 54.7147 42.7 55.1062C42.7 55.391 42.67 55.4266 42.45 55.4266C42.21 55.4266 42.2 55.4177 42.33 55.1418Z" fill="#292929"/>
<path d="M41.3 54.4032C41.3 54.1095 41.32 54.0917 41.63 54.0917C41.8 54.0917 41.9 54.1273 41.85 54.1629C41.79 54.1985 41.69 54.332 41.63 54.4744C41.46 54.8126 41.3 54.777 41.3 54.4032Z" fill="#292929"/>
<path d="M42.83 53.8693C42.84 53.6379 42.9 53.5578 43.03 53.5578C43.16 53.5578 43.2 53.629 43.2 53.8693C43.2 54.1184 43.16 54.1807 43 54.1807C42.83 54.1807 42.8 54.1273 42.83 53.8693Z" fill="#292929"/>
<path d="M2.05 53.4065C2.24 52.4632 2.32 52.2229 2.46 52.2229C2.63 52.2229 2.64 52.4276 2.48 53.1662C2.39 53.6379 2.33 53.7358 2.17 53.7358C2 53.7358 1.99 53.6913 2.05 53.4065Z" fill="#292929"/>
<path d="M41.8 52.9794C41.8 52.7302 41.84 52.6679 42 52.6679C42.21 52.6679 42.24 52.7569 42.14 53.095C42.04 53.4154 41.8 53.3353 41.8 52.9794Z" fill="#292929"/>
<path d="M2.4 51.9382C2.4 51.6712 2.53 51.422 2.66 51.422C2.75 51.422 2.8 51.5288 2.8 51.7335C2.8 51.9827 2.76 52.0449 2.6 52.0449C2.49 52.0449 2.4 51.9916 2.4 51.9382Z" fill="#292929"/>
<path d="M43.28 51.7246C43.18 51.6445 43.44 51.155 43.57 51.155C43.65 51.155 43.7 51.2707 43.7 51.4665C43.7 51.7068 43.66 51.778 43.52 51.778C43.42 51.778 43.31 51.7513 43.28 51.7246Z" fill="#292929"/>
<path d="M43.33 50.808C43.21 50.5143 43.25 50.4431 43.52 50.4431C43.66 50.4431 43.7 50.5143 43.7 50.7546C43.7 51.1372 43.49 51.1728 43.33 50.808Z" fill="#292929"/>
<path d="M42 50.1317C42 49.7757 42.19 49.7134 42.36 50.0249C42.49 50.2918 42.43 50.4431 42.19 50.4431C42.04 50.4431 42 50.3808 42 50.1317Z" fill="#292929"/>
<path d="M43.26 49.9804C43.16 49.6422 43.19 49.5532 43.4 49.5532C43.56 49.5532 43.6 49.6155 43.6 49.8647C43.6 50.2206 43.36 50.3007 43.26 49.9804Z" fill="#292929"/>
<path d="M3.1 49.4464C3.1 49.1795 3.23 48.9303 3.36 48.9303C3.45 48.9303 3.5 49.0371 3.5 49.2418C3.5 49.4909 3.46 49.5532 3.3 49.5532C3.19 49.5532 3.1 49.4998 3.1 49.4464Z" fill="#292929"/>
<path d="M43.06 49.1794C42.96 48.8413 42.99 48.7523 43.2 48.7523C43.36 48.7523 43.4 48.8146 43.4 49.0638C43.4 49.4197 43.16 49.4998 43.06 49.1794Z" fill="#292929"/>
<path d="M41.6 48.7968C41.6 48.4497 41.68 48.4052 41.9 48.6455C42.14 48.9036 42.11 49.1083 41.84 49.1083C41.63 49.1083 41.6 49.0638 41.6 48.7968Z" fill="#292929"/>
<path d="M3.53 47.9959C3.54 47.7645 3.6 47.6844 3.73 47.6844C3.86 47.6844 3.9 47.7556 3.9 47.9959C3.9 48.245 3.86 48.3073 3.7 48.3073C3.53 48.3073 3.5 48.2539 3.53 47.9959Z" fill="#292929"/>
<path d="M41 47.9069C41 47.8357 40.96 47.7734 40.9 47.7734C40.85 47.7734 40.8 47.6221 40.8 47.4441C40.8 47.106 40.8 47.106 41.13 47.4174C41.54 47.809 41.58 48.0404 41.24 48.0404C41.09 48.0404 41 47.987 41 47.9069Z" fill="#292929"/>
<path d="M5.1 46.9903C5.1 46.8835 5.44 46.661 5.63 46.6521C5.75 46.6432 5.8 46.7055 5.8 46.8479C5.8 47.0348 5.75 47.0615 5.45 47.0615C5.26 47.0615 5.1 47.0348 5.1 46.9903Z" fill="#292929"/>
<path d="M41.72 46.8924C41.74 46.7856 41.58 46.5275 41.51 46.572C41.47 46.5898 41.43 46.5542 41.43 46.483C41.43 46.394 41.54 46.3495 41.72 46.3495C41.97 46.3495 42 46.3762 42 46.6432C42 46.8479 41.95 46.9458 41.86 46.9458C41.78 46.9458 41.72 46.9191 41.72 46.8924Z" fill="#292929"/>
<path d="M47.88 46.5097C47.41 46.4385 47.3 46.3851 47.3 46.2517C47.3 46.047 47.26 46.047 48.23 46.2161C48.66 46.2873 49.04 46.3495 49.06 46.3495C49.08 46.3495 49.1 46.4118 49.1 46.483C49.1 46.6343 48.77 46.6432 47.88 46.5097Z" fill="#292929"/>
<path d="M52.1 46.4919C52.1 46.3762 52.38 46.2606 52.68 46.2606C52.74 46.2606 52.8 46.3406 52.8 46.4385C52.8 46.5809 52.73 46.6165 52.45 46.6165C52.22 46.6165 52.1 46.572 52.1 46.4919Z" fill="#292929"/>
<path d="M53.7 46.0737C53.7 45.9758 53.74 45.9135 53.79 45.9402C53.88 45.9936 54.31 45.869 55.03 45.602C55.4 45.4596 55.4 45.4596 55.4 45.6821C55.4 45.8779 55.36 45.9046 55.05 45.9046C54.82 45.9046 54.7 45.9491 54.7 46.0292C54.7 46.1627 54.4 46.2606 53.98 46.2606C53.76 46.2606 53.7 46.2161 53.7 46.0737Z" fill="#292929"/>
<path d="M5 45.7622C5 45.5753 5.05 45.5486 5.35 45.5486C5.74 45.5486 5.79 45.6198 5.52 45.8156C5.23 46.0292 5 46.0025 5 45.7622Z" fill="#292929"/>
<path d="M7.82 45.8868C7.85 45.8245 8.01 45.7266 8.18 45.6643C8.49 45.5486 8.5 45.5575 8.5 45.7711C8.5 45.9669 8.46 45.9936 8.14 45.9936C7.91 45.9936 7.8 45.958 7.82 45.8868Z" fill="#292929"/>
<path d="M38.7 45.6287C38.7 45.3617 38.7 45.3617 39 45.5486C39.44 45.8245 39.45 45.9046 39.06 45.9046C38.73 45.9046 38.7 45.8868 38.7 45.6287Z" fill="#292929"/>
<path d="M50.28 45.5753C50.18 45.5575 50.1 45.4774 50.1 45.4062C50.1 45.3083 50.25 45.2816 50.75 45.2816C51.24 45.2816 51.4 45.3083 51.4 45.4062C51.4 45.602 50.78 45.691 50.28 45.5753Z" fill="#292929"/>
<path d="M4.35 45.4774C4.41 45.4418 4.51 45.3084 4.57 45.1749C4.74 44.8278 4.9 44.8634 4.9 45.2372C4.9 45.5308 4.88 45.5486 4.58 45.5486C4.4 45.5486 4.3 45.513 4.35 45.4774Z" fill="#292929"/>
<path d="M9.02 45.4418C9.05 45.3795 9.21 45.2817 9.38 45.2194C9.69 45.1037 9.7 45.1126 9.7 45.3262C9.7 45.5219 9.66 45.5486 9.34 45.5486C9.11 45.5486 9 45.513 9.02 45.4418Z" fill="#292929"/>
<path d="M6.6 45.1304C6.6 44.9524 6.65 44.9257 6.95 44.9257C7.19 44.9257 7.3 44.8812 7.3 44.7922C7.3 44.7032 7.41 44.6587 7.65 44.6587C8.15 44.6587 8.08 44.8189 7.5 45.0325C7.23 45.1304 7 45.2461 7 45.2728C7 45.3084 6.91 45.3351 6.8 45.3351C6.66 45.3351 6.6 45.2728 6.6 45.1304Z" fill="#292929"/>
<path d="M39.8 45.0681C39.56 44.899 39.33 44.7744 39.29 44.7922C39.26 44.81 39.23 44.7744 39.23 44.7032C39.23 44.6142 39.34 44.5697 39.57 44.5697C39.8 44.5697 39.9 44.6142 39.9 44.7032C39.9 44.7744 39.99 44.8367 40.1 44.8367C40.26 44.8367 40.3 44.899 40.3 45.1037C40.3 45.2549 40.29 45.3706 40.28 45.3706C40.26 45.3706 40.05 45.2282 39.8 45.0681Z" fill="#292929"/>
<path d="M52.8 45.1927C52.8 45.0503 52.87 45.0147 53.15 45.0147C53.55 45.0147 53.64 45.2283 53.28 45.3172C52.9 45.4062 52.8 45.3795 52.8 45.1927Z" fill="#292929"/>
<path d="M53.7 44.9702C53.7 44.7744 53.74 44.7477 54.06 44.7477C54.5 44.7477 54.48 44.9079 54.02 45.077C53.71 45.1927 53.7 45.1838 53.7 44.9702Z" fill="#292929"/>
<path d="M97 44.7922C97 44.4184 97.16 44.3828 97.33 44.7299C97.39 44.8634 97.49 44.9969 97.55 45.0325C97.6 45.0681 97.5 45.1037 97.33 45.1037C97.02 45.1037 97 45.0859 97 44.7922Z" fill="#292929"/>
<path d="M43.3 44.7922C43.3 44.5252 43.53 44.5163 43.82 44.7744C44.07 44.988 44.05 45.0147 43.65 45.0147C43.34 45.0147 43.3 44.988 43.3 44.7922Z" fill="#292929"/>
<path d="M46.03 44.7922C45.6 44.632 45.61 44.4807 46.05 44.4807C46.36 44.4807 46.4 44.5074 46.4 44.7032C46.4 44.8278 46.39 44.9257 46.38 44.9257C46.36 44.9168 46.2 44.8634 46.03 44.7922Z" fill="#292929"/>
<path d="M36.8 44.6142C36.8 44.3472 37.03 44.3383 37.32 44.5964C37.57 44.81 37.55 44.8367 37.15 44.8367C36.84 44.8367 36.8 44.81 36.8 44.6142Z" fill="#292929"/>
<path d="M8.5 44.4362C8.5 44.2405 8.54 44.2138 8.86 44.2138C9.3 44.2138 9.28 44.3739 8.82 44.543C8.51 44.6587 8.5 44.6498 8.5 44.4362Z" fill="#292929"/>
<path d="M57.15 44.5697C57.18 44.5252 57.34 44.4006 57.5 44.3027C57.8 44.1159 57.8 44.1159 57.8 44.3828C57.8 44.6409 57.77 44.6587 57.44 44.6587C57.24 44.6587 57.11 44.6231 57.15 44.5697Z" fill="#292929"/>
<path d="M11.9 44.4807C11.9 44.4273 12.02 44.3384 12.18 44.2761C12.33 44.2227 12.48 44.1337 12.52 44.0803C12.56 44.0358 12.6 44.1248 12.6 44.285C12.6 44.5519 12.58 44.5697 12.25 44.5697C12.06 44.5697 11.9 44.5252 11.9 44.4807Z" fill="#292929"/>
<path d="M45.25 44.4896C45.14 44.4451 45.02 44.4273 44.98 44.454C44.93 44.4718 44.9 44.4451 44.9 44.3917C44.9 44.3383 44.86 44.3205 44.8 44.3472C44.75 44.3739 44.7 44.3561 44.7 44.2939C44.7 44.2316 44.67 44.2049 44.64 44.2405C44.59 44.285 44.2 43.9913 44.2 43.9023C44.2 43.7955 44.82 43.8667 45.15 44.0091C45.4 44.1159 45.5 44.2138 45.5 44.365C45.5 44.4807 45.49 44.5697 45.48 44.5608C45.46 44.5608 45.36 44.5252 45.25 44.4896Z" fill="#292929"/>
<path d="M96.7 44.0714C96.7 43.6798 96.88 43.6976 97.07 44.107C97.2 44.3828 97.19 44.3917 96.95 44.3917C96.73 44.3917 96.7 44.3561 96.7 44.0714Z" fill="#292929"/>
<path d="M35.6 44.1693C35.6 44.0803 35.49 44.0358 35.25 44.0358C34.94 44.0358 34.9 44.0091 34.9 43.8133C34.9 43.573 34.87 43.573 35.73 43.8934C35.93 43.9735 36.1 44.0091 36.1 43.9735C36.1 43.8845 36.3 44.1426 36.3 44.2405C36.3 44.2761 36.14 44.3028 35.95 44.3028C35.71 44.3028 35.6 44.2583 35.6 44.1693Z" fill="#292929"/>
<path d="M38.16 44.0803C37.94 43.9646 37.73 43.8845 37.68 43.9112C37.64 43.9379 37.6 43.9112 37.6 43.8578C37.6 43.8044 37.56 43.7866 37.5 43.8133C37.45 43.84 37.4 43.8311 37.4 43.7777C37.4 43.6709 37.14 43.5374 36.85 43.4929C36.63 43.4573 36.3 43.2349 36.3 43.1281C36.3 43.048 36.82 43.0302 37.04 43.1103C37.13 43.137 37.2 43.2171 37.2 43.2883C37.2 43.3594 37.3 43.4128 37.44 43.4128C37.81 43.4128 38 43.5018 38 43.6887C38 43.8222 38.07 43.8578 38.35 43.8578C38.66 43.8578 38.7 43.8845 38.7 44.0803C38.7 44.3561 38.65 44.3561 38.16 44.0803Z" fill="#292929"/>
<path d="M6.6 43.9023C6.6 43.8133 6.97 43.5463 7.13 43.5196C7.25 43.5018 7.3 43.5552 7.3 43.7243C7.3 43.9201 7.26 43.9468 6.95 43.9468C6.76 43.9468 6.6 43.929 6.6 43.9023Z" fill="#292929"/>
<path d="M14 43.7955C14 43.6798 14.09 43.6264 14.35 43.6175C14.64 43.5908 14.7 43.6175 14.7 43.7688C14.7 43.9112 14.63 43.9468 14.35 43.9468C14.08 43.9468 14 43.9112 14 43.7955Z" fill="#292929"/>
<path d="M41.5 43.7688C41.5 43.6353 41.43 43.5908 41.25 43.5908C41.09 43.5908 41 43.5374 41 43.4573C41 43.3861 40.91 43.3239 40.8 43.3239C40.64 43.3239 40.6 43.2616 40.6 43.048C40.6 42.781 40.6 42.781 41.03 43.0569C41.26 43.1993 41.63 43.4662 41.85 43.6353C42.25 43.9379 42.25 43.9379 41.88 43.9468C41.57 43.9468 41.5 43.9201 41.5 43.7688Z" fill="#292929"/>
<path d="M58.32 43.7332C58.47 43.6175 58.57 43.5018 58.54 43.484C58.52 43.4573 58.57 43.4395 58.65 43.4395C58.75 43.4395 58.8 43.5285 58.8 43.6976C58.8 43.929 58.77 43.9468 58.43 43.9468C58.05 43.9379 58.05 43.9379 58.32 43.7332Z" fill="#292929"/>
<path d="M10.8 43.6353C10.8 43.4395 10.84 43.4128 11.16 43.4128C11.6 43.4128 11.58 43.573 11.12 43.7421C10.81 43.8578 10.8 43.8489 10.8 43.6353Z" fill="#292929"/>
<path d="M15 43.5641C15 43.4929 15.25 43.3773 15.6 43.2972C16.36 43.1103 16.4 43.1103 16.4 43.3239C16.4 43.4662 16.33 43.5018 16.05 43.5018C15.86 43.5018 15.7 43.5463 15.7 43.5908C15.7 43.6442 15.54 43.6798 15.35 43.6798C15.12 43.6798 15 43.6353 15 43.5641Z" fill="#292929"/>
<path d="M33.6 43.3061C33.6 43.1459 33.64 43.0569 33.68 43.1014C33.72 43.1548 33.87 43.2438 34.03 43.2972C34.41 43.4484 34.37 43.5908 33.95 43.5908C33.62 43.5908 33.6 43.573 33.6 43.3061Z" fill="#292929"/>
<path d="M5.5 42.959C5.76 42.3895 5.79 42.345 5.91 42.345C5.96 42.345 6 42.4873 6 42.6564C6 42.8255 5.97 42.9679 5.92 42.9679C5.88 42.9679 5.8 43.0569 5.75 43.1637C5.69 43.2794 5.57 43.3772 5.47 43.395C5.31 43.4217 5.31 43.395 5.5 42.959Z" fill="#292929"/>
<path d="M12.2 43.1993C12.2 42.9768 12.41 42.8789 12.93 42.8789C13.35 42.8789 13.21 43.0747 12.67 43.2527C12.2 43.4128 12.2 43.4128 12.2 43.1993Z" fill="#292929"/>
<path d="M59.15 43.1459C59.18 43.1014 59.34 42.9768 59.5 42.8789C59.8 42.692 59.8 42.692 59.8 42.959C59.8 43.2171 59.77 43.2349 59.44 43.2349C59.24 43.2349 59.11 43.1993 59.15 43.1459Z" fill="#292929"/>
<path d="M95.9 43.0124C95.9 42.7988 95.91 42.7899 96.22 42.9056C96.68 43.0747 96.7 43.2349 96.26 43.2349C95.94 43.2349 95.9 43.2082 95.9 43.0124Z" fill="#292929"/>
<path d="M32.1 42.9679C32.1 42.781 32.2 42.7543 32.58 42.8433C32.94 42.9323 32.85 43.1459 32.45 43.1459C32.17 43.1459 32.1 43.1103 32.1 42.9679Z" fill="#292929"/>
<path d="M35.31 42.8522C34.65 42.6119 34.54 42.4339 35.04 42.4339C35.24 42.4339 35.4 42.4784 35.4 42.5229C35.4 42.5763 35.51 42.6119 35.65 42.6119C35.85 42.6119 35.9 42.6564 35.9 42.8344C35.9 42.959 35.89 43.0569 35.88 43.0569C35.86 43.048 35.61 42.959 35.31 42.8522Z" fill="#292929"/>
<path d="M8.6 42.9234C8.6 42.8344 8.99 42.5407 9.04 42.5941C9.07 42.6208 9.1 42.603 9.1 42.5585C9.1 42.514 9.19 42.4695 9.3 42.4606C9.55 42.4428 9.58 42.8344 9.34 42.9145C9.15 42.9768 8.6 42.9857 8.6 42.9234Z" fill="#292929"/>
<path d="M13.4 42.7899C13.4 42.6475 13.47 42.6119 13.75 42.6119C14.15 42.6119 14.24 42.8255 13.88 42.9145C13.5 43.0035 13.4 42.9768 13.4 42.7899Z" fill="#292929"/>
<path d="M18.5 42.7543C18.5 42.6386 18.78 42.5229 19.08 42.5229C19.14 42.5229 19.2 42.603 19.2 42.7009C19.2 42.8433 19.13 42.8789 18.85 42.8789C18.62 42.8789 18.5 42.8344 18.5 42.7543Z" fill="#292929"/>
<path d="M95 42.6564C95 42.4429 95.01 42.434 95.32 42.5496C95.78 42.7187 95.8 42.8789 95.36 42.8789C95.04 42.8789 95 42.8522 95 42.6564Z" fill="#292929"/>
<path d="M6.6 42.5674C6.6 42.4607 6.67 42.3361 6.76 42.3094C6.95 42.2471 7.5 42.2382 7.5 42.3005C7.5 42.3895 7.11 42.6831 7.06 42.6386C7.03 42.603 7 42.6208 7 42.6653C7 42.7098 6.91 42.7543 6.8 42.7632C6.65 42.7721 6.6 42.7276 6.6 42.5674Z" fill="#292929"/>
<path d="M41.8 42.5229C41.45 42.2649 41.45 42.2649 41.83 42.256C42.18 42.256 42.2 42.2738 42.2 42.5229C42.2 42.6742 42.19 42.7899 42.17 42.7899C42.16 42.7899 41.99 42.6742 41.8 42.5229Z" fill="#292929"/>
<path d="M19.4 42.5763C19.4 42.4606 19.68 42.345 19.98 42.345C20.04 42.345 20.1 42.425 20.1 42.5229C20.1 42.6653 20.03 42.7009 19.75 42.7009C19.52 42.7009 19.4 42.6564 19.4 42.5763Z" fill="#292929"/>
<path d="M58.2 42.4161C58.2 42.2293 58.25 42.167 58.4 42.167C58.51 42.167 58.6 42.1047 58.6 42.0335C58.6 41.9445 58.7 41.9 58.93 41.9C59.16 41.9 59.27 41.9445 59.27 42.0335C59.27 42.1047 59.24 42.1403 59.21 42.1225C59.13 42.078 58.39 42.5763 58.45 42.6297C58.48 42.6564 58.43 42.6742 58.35 42.6742C58.25 42.6742 58.2 42.5852 58.2 42.4161Z" fill="#292929"/>
<path d="M33.91 42.4695C33.91 42.4161 33.7 42.3183 33.45 42.256C33.17 42.1848 33 42.0958 33 42.0068C33 41.9089 33.09 41.8822 33.45 41.9267C34 41.9801 34.03 41.9979 33.97 42.3183C33.95 42.4517 33.92 42.5229 33.91 42.4695Z" fill="#292929"/>
<path d="M15.4 42.256C15.4 42.1136 15.47 42.078 15.75 42.078C16.15 42.078 16.24 42.2916 15.88 42.3806C15.5 42.4695 15.4 42.4428 15.4 42.256Z" fill="#292929"/>
<path d="M22.1 42.2382C22.1 42.1047 22.51 41.9178 22.68 41.9712C22.75 41.989 22.8 42.078 22.8 42.1759C22.8 42.3094 22.73 42.345 22.45 42.345C22.24 42.345 22.1 42.3005 22.1 42.2382Z" fill="#292929"/>
<path d="M60.7 42.3005C60.7 42.2115 61.07 41.9445 61.23 41.9178C61.35 41.9 61.4 41.9534 61.4 42.1225C61.4 42.3183 61.36 42.345 61.05 42.345C60.86 42.345 60.7 42.3272 60.7 42.3005Z" fill="#292929"/>
<path d="M10.2 42.1848C10.2 42.078 10.54 41.8555 10.73 41.8466C10.85 41.8377 10.9 41.9 10.9 42.0424C10.9 42.2293 10.85 42.256 10.55 42.256C10.36 42.256 10.2 42.2293 10.2 42.1848Z" fill="#292929"/>
<path d="M27.4 42.078C27.4 41.8911 27.5 41.8644 27.88 41.9534C28.24 42.0424 28.15 42.256 27.75 42.256C27.47 42.256 27.4 42.2204 27.4 42.078Z" fill="#292929"/>
<path d="M7.9 41.9445C7.9 41.7487 7.94 41.722 8.25 41.722C8.68 41.722 8.69 41.811 8.31 42.0157C7.93 42.2115 7.9 42.2115 7.9 41.9445Z" fill="#292929"/>
<path d="M25.2 42.0424C25.2 41.9712 25.32 41.8911 25.46 41.8644C25.82 41.7843 26.3 41.8822 26.3 42.0424C26.3 42.1314 26.16 42.167 25.75 42.167C25.35 42.167 25.2 42.1314 25.2 42.0424Z" fill="#292929"/>
<path d="M16.9 41.9C16.9 41.7576 16.97 41.722 17.25 41.722C17.65 41.722 17.74 41.9356 17.38 42.0246C17 42.1136 16.9 42.0869 16.9 41.9Z" fill="#292929"/>
<path d="M92.58 42.0157C92.45 41.989 92.4 41.8911 92.4 41.6953C92.4 41.5351 92.44 41.455 92.48 41.5084C92.52 41.5529 92.73 41.6597 92.94 41.7309C93.45 41.9 93.53 42.078 93.08 42.0691C92.9 42.0602 92.67 42.0424 92.58 42.0157Z" fill="#292929"/>
<path d="M6.13 41.6152C6.32 41.2059 6.5 41.1881 6.5 41.5796C6.5 41.8644 6.47 41.9 6.25 41.9C6.01 41.9 6 41.8911 6.13 41.6152Z" fill="#292929"/>
<path d="M17.7 41.722C17.7 41.5796 17.77 41.544 18.05 41.544C18.45 41.544 18.54 41.7576 18.18 41.8466C17.8 41.9356 17.7 41.9089 17.7 41.722Z" fill="#292929"/>
<path d="M31.88 41.8377C31.55 41.7665 31.68 41.544 32.05 41.544C32.33 41.544 32.4 41.5796 32.4 41.722C32.4 41.9 32.26 41.9267 31.88 41.8377Z" fill="#292929"/>
<path d="M38.3 41.7665C38.3 41.6864 38.21 41.633 38.05 41.633C37.87 41.633 37.8 41.5885 37.8 41.4551C37.8 41.3127 37.73 41.2771 37.45 41.2771C37.15 41.2771 37.1 41.2504 37.1 41.0635C37.1 40.8944 37.15 40.8499 37.3 40.8588C37.41 40.8677 37.5 40.8944 37.5 40.93C37.5 40.9656 37.84 41.1614 38.25 41.375C38.66 41.5796 39 41.7843 39 41.8288C39 41.8644 38.84 41.9 38.65 41.9C38.41 41.9 38.3 41.8555 38.3 41.7665Z" fill="#292929"/>
<path d="M61.72 41.7932C61.75 41.7309 61.91 41.633 62.08 41.5707C62.39 41.455 62.4 41.4639 62.4 41.6775C62.4 41.8733 62.36 41.9 62.04 41.9C61.81 41.9 61.7 41.8644 61.72 41.7932Z" fill="#292929"/>
<path d="M59.5 41.5885C59.5 41.4105 59.55 41.366 59.75 41.366C59.91 41.366 60 41.3127 60 41.2326C60 41.1436 60.11 41.0991 60.35 41.0991C60.76 41.0991 60.77 41.1258 60.5 41.366C60.39 41.4639 60.3 41.5173 60.3 41.4906C60.3 41.4639 60.15 41.5262 59.96 41.6241C59.53 41.8644 59.5 41.8555 59.5 41.5885Z" fill="#292929"/>
<path d="M11.5 41.633C11.5 41.5529 11.94 41.3483 12.68 41.0902C12.87 41.0279 12.9 41.0457 12.9 41.2326C12.9 41.4283 12.86 41.455 12.55 41.455C12.31 41.455 12.2 41.4995 12.2 41.5885C12.2 41.6775 12.09 41.722 11.85 41.722C11.66 41.722 11.5 41.6775 11.5 41.633Z" fill="#292929"/>
<path d="M95.1 41.6241C95.1 41.5974 94.92 41.5084 94.7 41.4283C94.21 41.2593 94.18 41.0991 94.65 41.0991C94.84 41.0991 95 41.1436 95 41.1881C95 41.2415 95.11 41.2771 95.25 41.2771C95.44 41.2771 95.5 41.3216 95.5 41.4817C95.5 41.6241 95.44 41.6864 95.3 41.6864C95.19 41.6864 95.1 41.6597 95.1 41.6241Z" fill="#292929"/>
<path d="M90.9 41.3661C90.9 41.1792 91 41.1525 91.38 41.2415C91.74 41.3305 91.65 41.544 91.25 41.544C90.97 41.544 90.9 41.5084 90.9 41.3661Z" fill="#292929"/>
<path d="M21.82 41.2949C21.75 41.2771 21.7 41.1881 21.7 41.0902C21.7 40.9567 21.77 40.9211 22.05 40.9211C22.26 40.9211 22.4 40.9656 22.4 41.0368C22.4 41.1614 21.99 41.3483 21.82 41.2949Z" fill="#292929"/>
<path d="M23.96 41.1169C23.93 41.0902 23.9 40.9923 23.9 40.9033C23.9 40.7787 23.98 40.7431 24.25 40.7431C24.47 40.7431 24.6 40.7876 24.6 40.8588C24.6 40.9745 24.05 41.2059 23.96 41.1169Z" fill="#292929"/>
<path d="M28.08 41.1258C27.75 41.0546 27.88 40.8321 28.25 40.8321C28.53 40.8321 28.6 40.8677 28.6 41.0101C28.6 41.1881 28.46 41.2148 28.08 41.1258Z" fill="#292929"/>
<path d="M10.3 40.8677C10.3 40.6808 10.35 40.6541 10.65 40.6541C11.04 40.6541 11.09 40.7253 10.82 40.9211C10.53 41.1347 10.3 41.108 10.3 40.8677Z" fill="#292929"/>
<path d="M95.1 40.6007C95.1 40.2092 95.28 40.227 95.47 40.6363C95.6 40.9122 95.59 40.9211 95.35 40.9211C95.13 40.9211 95.1 40.8855 95.1 40.6007Z" fill="#292929"/>
<path d="M61.6 40.6007C61.6 40.4139 61.65 40.3872 61.95 40.3872C62.34 40.3872 62.39 40.4584 62.12 40.6541C61.83 40.8677 61.6 40.841 61.6 40.6007Z" fill="#292929"/>
<path d="M38.58 40.5829C38.21 40.3872 38.23 40.2982 38.65 40.2982C38.96 40.2982 39 40.3249 39 40.5206C39 40.7787 38.94 40.7876 38.58 40.5829Z" fill="#292929"/>
<path d="M14.5 40.5651C14.5 40.5118 14.62 40.4228 14.78 40.3605C14.93 40.3071 15.08 40.2181 15.12 40.1647C15.16 40.1202 15.2 40.2092 15.2 40.3694C15.2 40.6363 15.18 40.6541 14.85 40.6541C14.66 40.6541 14.5 40.6096 14.5 40.5651Z" fill="#292929"/>
<path d="M66.6 40.3516C66.6 40.2359 66.88 40.1202 67.18 40.1202C67.24 40.1202 67.3 40.2003 67.3 40.2982C67.3 40.4405 67.23 40.4761 66.95 40.4761C66.72 40.4761 66.6 40.4316 66.6 40.3516Z" fill="#292929"/>
<path d="M12.1 40.1647C12.1 39.9867 12.15 39.9422 12.35 39.9422C12.49 39.9422 12.6 39.9066 12.6 39.8532C12.6 39.8087 12.76 39.7642 12.95 39.7642C13.14 39.7642 13.3 39.7998 13.3 39.8443C13.3 39.9511 13.25 39.9778 12.62 40.2003C12.1 40.3872 12.1 40.3872 12.1 40.1647Z" fill="#292929"/>
<path d="M6.84 40.1202C6.84 40.0223 6.88 39.9422 6.93 39.9422C6.97 39.9422 6.98 39.9066 6.95 39.8532C6.92 39.8087 6.91 39.7642 6.94 39.7642C6.96 39.7642 7.05 39.7375 7.14 39.7108C7.27 39.6663 7.3 39.7197 7.3 39.9778C7.3 40.2537 7.27 40.2982 7.07 40.2982C6.91 40.2982 6.84 40.2448 6.84 40.1202Z" fill="#292929"/>
<path d="M34.5 39.9867C34.5 39.7731 34.51 39.7642 34.82 39.8799C35.28 40.049 35.3 40.2092 34.86 40.2092C34.54 40.2092 34.5 40.1825 34.5 39.9867Z" fill="#292929"/>
<path d="M37.38 40.0134C37.13 39.7909 37.15 39.7642 37.55 39.7642C37.85 39.7642 37.9 39.7909 37.9 39.9778C37.9 40.2359 37.64 40.2537 37.38 40.0134Z" fill="#292929"/>
<path d="M68.6 39.9956C68.6 39.8799 68.88 39.7642 69.18 39.7642C69.24 39.7642 69.3 39.8443 69.3 39.9422C69.3 40.0846 69.23 40.1202 68.95 40.1202C68.72 40.1202 68.6 40.0757 68.6 39.9956Z" fill="#292929"/>
<path d="M83 39.8621C83 39.6485 83.17 39.5951 83.47 39.7108C83.82 39.8621 83.75 40.0312 83.35 40.0312C83.07 40.0312 83 39.9956 83 39.8621Z" fill="#292929"/>
<path d="M69.9 39.8354C69.9 39.7019 70.31 39.515 70.48 39.5684C70.55 39.5862 70.6 39.6752 70.6 39.7731C70.6 39.9066 70.53 39.9422 70.25 39.9422C70.04 39.9422 69.9 39.8977 69.9 39.8354Z" fill="#292929"/>
<path d="M36.57 39.6752C36.32 39.4616 36.36 39.4082 36.75 39.4082C37.05 39.4082 37.1 39.4349 37.1 39.6129C37.1 39.8532 36.83 39.8888 36.57 39.6752Z" fill="#292929"/>
<path d="M70.7 39.7286C70.7 39.6129 70.98 39.4973 71.28 39.4973C71.34 39.4973 71.4 39.5773 71.4 39.6752C71.4 39.8176 71.33 39.8532 71.05 39.8532C70.82 39.8532 70.7 39.8087 70.7 39.7286Z" fill="#292929"/>
<path d="M81.3 39.6752C81.3 39.4883 81.4 39.4617 81.78 39.5506C82.14 39.6396 82.05 39.8532 81.65 39.8532C81.37 39.8532 81.3 39.8176 81.3 39.6752Z" fill="#292929"/>
<path d="M14.2 39.5239C14.2 39.2481 14.22 39.2303 14.55 39.2303C14.97 39.2303 15.01 39.3727 14.63 39.5239C14.47 39.5773 14.32 39.6663 14.28 39.7197C14.24 39.7642 14.2 39.6752 14.2 39.5239Z" fill="#292929"/>
<path d="M32.8 39.4973C32.8 39.3104 32.9 39.2837 33.28 39.3727C33.64 39.4617 33.55 39.6752 33.15 39.6752C32.87 39.6752 32.8 39.6396 32.8 39.4973Z" fill="#292929"/>
<path d="M78.7 39.4616C78.7 39.257 78.72 39.2481 79.05 39.346C79.24 39.3994 79.4 39.4883 79.4 39.5595C79.4 39.6307 79.27 39.6752 79.05 39.6752C78.75 39.6752 78.7 39.6485 78.7 39.4616Z" fill="#292929"/>
<path d="M87.48 39.5239C87.15 39.4527 87.28 39.2303 87.65 39.2303C87.93 39.2303 88 39.2659 88 39.4083C88 39.5862 87.86 39.6129 87.48 39.5239Z" fill="#292929"/>
<path d="M19.3 39.2837C19.3 39.168 19.58 39.0523 19.88 39.0523C19.94 39.0523 20 39.1324 20 39.2303C20 39.3727 19.93 39.4083 19.65 39.4083C19.42 39.4083 19.3 39.3638 19.3 39.2837Z" fill="#292929"/>
<path d="M35.13 39.0968C34.7 38.9366 34.71 38.7853 35.15 38.7853C35.46 38.7853 35.5 38.812 35.5 39.0078C35.5 39.1324 35.49 39.2303 35.48 39.2303C35.46 39.2214 35.3 39.168 35.13 39.0968Z" fill="#292929"/>
<path d="M94.16 39.0879C94.13 39.0078 94.1 38.8298 94.1 38.6785C94.1 38.4739 94.14 38.4205 94.26 38.465C94.35 38.4917 94.44 38.5183 94.46 38.5183C94.49 38.5183 94.48 38.5628 94.45 38.6073C94.42 38.6607 94.44 38.6963 94.51 38.6963C94.58 38.6963 94.61 38.723 94.57 38.7497C94.54 38.7764 94.55 38.901 94.6 39.0167C94.68 39.2036 94.67 39.2303 94.46 39.2303C94.33 39.2303 94.19 39.168 94.16 39.0879Z" fill="#292929"/>
<path d="M16 38.8743C16 38.7319 16.07 38.6963 16.35 38.6963C16.62 38.6963 16.7 38.7319 16.7 38.8565C16.7 38.9633 16.61 39.0167 16.35 39.0256C16.06 39.0523 16 39.0256 16 38.8743Z" fill="#292929"/>
<path d="M68.3 38.8743C68.3 38.7319 68.37 38.6963 68.65 38.6963C69.05 38.6963 69.14 38.9099 68.78 38.9989C68.4 39.0879 68.3 39.0612 68.3 38.8743Z" fill="#292929"/>
<path d="M22.2 38.8565C22.2 38.723 22.61 38.5361 22.78 38.5895C22.85 38.6073 22.9 38.6963 22.9 38.7942C22.9 38.9277 22.83 38.9633 22.55 38.9633C22.34 38.9633 22.2 38.9188 22.2 38.8565Z" fill="#292929"/>
<path d="M34.26 38.8209C34.05 38.7497 33.84 38.723 33.79 38.7497C33.74 38.7764 33.7 38.7052 33.7 38.5984C33.7 38.4205 33.74 38.4116 34.15 38.4561C34.68 38.5005 34.73 38.5272 34.68 38.7675C34.65 38.9277 34.62 38.9277 34.26 38.8209Z" fill="#292929"/>
<path d="M28.2 38.6963C28.2 38.5095 28.3 38.4828 28.68 38.5717C29.04 38.6607 28.95 38.8743 28.55 38.8743C28.27 38.8743 28.2 38.8387 28.2 38.6963Z" fill="#292929"/>
<path d="M17 38.6073C17 38.465 17.07 38.4294 17.35 38.4294C17.75 38.4294 17.84 38.6429 17.48 38.7319C17.1 38.8209 17 38.7942 17 38.6073Z" fill="#292929"/>
<path d="M24.8 38.6607C24.8 38.5451 25.08 38.4294 25.38 38.4294C25.44 38.4294 25.5 38.5095 25.5 38.6073C25.5 38.7497 25.43 38.7853 25.15 38.7853C24.92 38.7853 24.8 38.7408 24.8 38.6607Z" fill="#292929"/>
<path d="M72.5 38.4294C72.5 38.287 72.57 38.2514 72.85 38.2514C73.25 38.2514 73.34 38.465 72.98 38.5539C72.6 38.6429 72.5 38.6162 72.5 38.4294Z" fill="#292929"/>
<path d="M74.8 38.3404C74.8 38.198 74.87 38.1624 75.15 38.1624C75.55 38.1624 75.64 38.376 75.28 38.465C74.9 38.5539 74.8 38.5272 74.8 38.3404Z" fill="#292929"/>
<path d="M77.28 38.4561C76.95 38.3849 77.08 38.1624 77.45 38.1624C77.73 38.1624 77.8 38.198 77.8 38.3404C77.8 38.5183 77.66 38.545 77.28 38.4561Z" fill="#292929"/>
<path d="M18.5 38.2603C18.5 38.1001 18.89 37.9844 19.48 37.9844C19.92 37.9844 19.71 38.2336 19.2 38.3315C18.53 38.4561 18.5 38.4561 18.5 38.2603Z" fill="#292929"/>
<path d="M21.1 37.8064C21.1 37.664 21.17 37.6284 21.45 37.6284C21.85 37.6284 21.94 37.842 21.58 37.931C21.2 38.02 21.1 37.9933 21.1 37.8064Z" fill="#292929"/>
<path d="M29.73 37.8509C29.6 37.8064 29.5 37.7174 29.5 37.6551C29.5 37.5217 29.67 37.5128 30.34 37.5928C30.69 37.6373 30.8 37.6907 30.8 37.8153C30.8 37.9488 30.73 37.9755 30.38 37.9577C30.14 37.9488 29.85 37.9043 29.73 37.8509Z" fill="#292929"/>
<path d="M28.93 37.7708C28.58 37.6284 28.65 37.4505 29.05 37.4505C29.33 37.4505 29.4 37.4861 29.4 37.6195C29.4 37.8331 29.22 37.8865 28.93 37.7708Z" fill="#292929"/>
<path d="M93.4 37.495C93.4 37.139 93.43 37.1212 93.68 37.3437C93.96 37.6017 93.95 37.8064 93.65 37.8064C93.43 37.8064 93.4 37.7708 93.4 37.495Z" fill="#292929"/>
<path d="M8.62 36.9432C8.64 36.8542 8.73 36.7029 8.83 36.6139C8.92 36.5161 9 36.4093 9 36.3648C9 36.3292 9.05 36.2936 9.1 36.2936C9.21 36.2936 9.24 36.7296 9.14 36.9521C9.05 37.1568 8.58 37.139 8.62 36.9432Z" fill="#292929"/>
<path d="M92.6 36.1601C92.6 35.9109 92.56 35.8486 92.4 35.8486C92.24 35.8486 92.2 35.7863 92.2 35.5372C92.2 35.3681 92.24 35.2257 92.28 35.2257C92.33 35.2257 92.49 35.4304 92.64 35.6706C92.79 35.9198 92.95 36.1156 92.98 36.1156C93.02 36.1156 93.06 36.1957 93.07 36.2936C93.08 36.4271 93.03 36.4716 92.84 36.4716C92.63 36.4716 92.6 36.4271 92.6 36.1601Z" fill="#292929"/>
<path d="M9.22 35.9643C9.25 35.8219 9.55 35.4927 9.65 35.4927C9.68 35.4927 9.7 35.635 9.7 35.8041C9.7 36.08 9.67 36.1156 9.45 36.1156C9.26 36.1156 9.2 36.0711 9.22 35.9643Z" fill="#292929"/>
<path d="M10 34.8163C10 34.7095 10.65 33.8018 10.72 33.8018C10.77 33.8018 10.8 33.9442 10.8 34.1133C10.8 34.3269 10.75 34.4248 10.65 34.4248C10.56 34.4248 10.5 34.5049 10.5 34.6472C10.5 34.8252 10.45 34.8697 10.25 34.8697C10.11 34.8697 10 34.843 10 34.8163Z" fill="#292929"/>
<path d="M91.4 34.3803C91.4 34.2379 91.34 34.1578 91.25 34.1578C91.15 34.1578 91.1 34.0599 91.1 33.8463C91.1 33.4815 91.13 33.4726 91.4 33.7128C91.51 33.8107 91.57 33.8908 91.54 33.8908C91.51 33.8908 91.58 34.0243 91.69 34.1934C91.96 34.5761 91.95 34.6028 91.65 34.6028C91.45 34.6028 91.4 34.5583 91.4 34.3803Z" fill="#292929"/>
<path d="M90.6 33.1344C90.6 32.7517 90.7 32.7428 90.93 33.081C91.15 33.4192 91.15 33.4459 90.85 33.4459C90.63 33.4459 90.6 33.4103 90.6 33.1344Z" fill="#292929"/>
<path d="M11.1 33.2056C11.1 33.0988 12.05 31.844 12.13 31.844C12.17 31.844 12.2 31.9864 12.2 32.1555C12.2 32.3246 12.16 32.467 12.1 32.467C12.05 32.467 12 32.5293 12 32.6005C12 32.6717 11.96 32.7339 11.9 32.7339C11.85 32.7339 11.8 32.7962 11.8 32.8674C11.8 32.9386 11.76 33.0009 11.7 33.0009C11.65 33.0009 11.6 33.0632 11.6 33.1344C11.6 33.2145 11.51 33.2679 11.35 33.2679C11.21 33.2679 11.1 33.2412 11.1 33.2056Z" fill="#292929"/>
<path d="M12.39 31.408C12.5 31.2745 12.56 31.1232 12.52 31.0876C12.48 31.0431 12.51 31.0431 12.58 31.0787C12.64 31.1143 12.7 31.0965 12.7 31.052C12.7 30.8829 12.73 30.8206 12.85 30.7317C13.14 30.5181 14.18 29.1921 14.12 29.1209C14.08 29.0764 14.09 29.0675 14.14 29.1031C14.18 29.1387 14.33 29.0586 14.46 28.9251C14.69 28.6849 14.69 28.6849 14.7 29.023C14.7 29.29 14.67 29.3523 14.5 29.3523C14.35 29.3523 14.3 29.4146 14.3 29.5748C14.3 29.7172 14.24 29.7972 14.15 29.7972C14.07 29.7972 14 29.8773 14 29.9752C14 30.0731 13.93 30.1532 13.85 30.1532C13.77 30.1532 13.7 30.2333 13.7 30.3312C13.7 30.4291 13.63 30.5092 13.55 30.5092C13.47 30.5092 13.4 30.5893 13.4 30.6872C13.4 30.785 13.36 30.8651 13.3 30.8651C13.25 30.8651 13.2 30.9274 13.2 30.9986C13.2 31.0698 13.11 31.1321 13 31.1321C12.84 31.1321 12.8 31.1944 12.8 31.3991C12.8 31.6394 12.77 31.6661 12.49 31.6661C12.19 31.6661 12.19 31.6661 12.39 31.408Z" fill="#292929"/>
<path d="M89 30.9897C89 30.6427 89.09 30.6516 89.4 31.0431C89.61 31.3101 89.61 31.3101 89.31 31.3101C89.02 31.3101 89 31.2834 89 30.9897Z" fill="#292929"/>
<path d="M12.06 30.3134C11.9 29.8417 11.91 29.7972 12.22 29.7972C12.51 29.7972 12.51 29.7973 12.31 30.0553C12.2 30.1888 12.13 30.3312 12.17 30.3668C12.2 30.3935 12.2 30.4202 12.16 30.4202C12.13 30.4202 12.08 30.3668 12.06 30.3134Z" fill="#292929"/>
<path d="M88 29.7439C88 29.3968 88.09 29.4057 88.4 29.7972C88.61 30.0642 88.61 30.0642 88.31 30.0642C88.02 30.0642 88 30.0375 88 29.7439Z" fill="#292929"/>
<path d="M12.8 29.0497C12.8 28.8272 12.84 28.7294 12.95 28.7294C13.03 28.7294 13.1 28.6493 13.1 28.5514C13.1 28.409 13.17 28.3734 13.41 28.3734C13.71 28.3734 13.71 28.3734 13.39 28.7739C12.89 29.3879 12.8 29.4324 12.8 29.0497Z" fill="#292929"/>
<path d="M88.86 28.9785C88.6 28.6849 88.6 28.6849 88.9 28.6582C89.14 28.6315 89.2 28.587 89.2 28.409C89.2 28.2577 89.25 28.1954 89.4 28.1954C89.63 28.1954 89.64 28.2132 89.49 28.8184C89.36 29.3434 89.22 29.379 88.86 28.9785Z" fill="#292929"/>
<path d="M15.13 28.1598C15.28 27.9996 15.37 27.8394 15.35 27.8039C15.32 27.7772 15.33 27.7683 15.36 27.7861C15.39 27.8128 15.53 27.7238 15.66 27.5903C15.89 27.35 15.89 27.35 15.9 27.6882C15.9 27.9551 15.87 28.0174 15.7 28.0174C15.55 28.0174 15.5 28.0797 15.5 28.2399C15.5 28.4268 15.45 28.4624 15.19 28.4624C14.88 28.4624 14.88 28.4624 15.13 28.1598Z" fill="#292929"/>
<path d="M88.08 28.1064C87.8 27.795 87.8 27.795 88.06 27.7683C88.39 27.7327 88.42 27.7594 88.38 28.1153C88.35 28.4179 88.35 28.4179 88.08 28.1064Z" fill="#292929"/>
<path d="M14.4 27.2877C14.4 26.9762 14.42 26.9495 14.68 26.9495C14.87 26.9495 14.97 26.994 14.97 27.083C14.97 27.1542 14.95 27.1987 14.92 27.1809C14.9 27.1542 14.77 27.2432 14.64 27.3767C14.41 27.617 14.41 27.617 14.4 27.2877Z" fill="#292929"/>
<path d="M11.36 27.2877C11.26 26.9495 11.29 26.8605 11.5 26.8605C11.66 26.8605 11.7 26.9228 11.7 27.172C11.7 27.528 11.46 27.6081 11.36 27.2877Z" fill="#292929"/>
<path d="M89.5 27.172C89.5 26.9228 89.54 26.8605 89.7 26.8605C89.91 26.8605 89.94 26.9495 89.84 27.2877C89.74 27.6081 89.5 27.528 89.5 27.172Z" fill="#292929"/>
<path d="M16.2 27.0385C16.51 26.647 16.6 26.6381 16.6 26.9851C16.6 27.2788 16.58 27.3055 16.29 27.3055C15.99 27.3055 15.99 27.3055 16.2 27.0385Z" fill="#292929"/>
<path d="M87.12 27.083C87.01 26.9673 86.9 26.8872 86.86 26.905C86.83 26.9317 86.82 26.9228 86.85 26.8961C86.87 26.8605 86.73 26.6737 86.54 26.469C86.21 26.1219 86.2 26.1041 86.4 26.0774C86.75 26.024 86.9 26.1219 86.9 26.4156C86.9 26.6381 86.94 26.6826 87.15 26.6826C87.37 26.6826 87.4 26.7182 87.4 26.994C87.4 27.3678 87.37 27.3767 87.12 27.083Z" fill="#292929"/>
<path d="M85 26.5402C85 26.1931 85.09 26.202 85.4 26.5936C85.61 26.8606 85.61 26.8606 85.31 26.8606C85.02 26.8606 85 26.8339 85 26.5402Z" fill="#292929"/>
<path d="M83.8 25.5168C83.8 25.2498 83.8 25.2498 84.1 25.4367C84.54 25.7126 84.55 25.7927 84.16 25.7927C83.83 25.7927 83.8 25.7749 83.8 25.5168Z" fill="#292929"/>
<path d="M16.3 25.4278C16.3 25.0273 16.57 24.7871 16.98 24.8316C17.28 24.8583 17.28 24.8583 16.79 25.3032C16.3 25.7482 16.3 25.7482 16.3 25.4278Z" fill="#292929"/>
<path d="M18.4 25.0629C18.59 24.9028 18.74 24.7337 18.72 24.6803C18.7 24.6269 18.73 24.6358 18.8 24.6892C18.86 24.7426 18.9 24.9028 18.88 25.0451C18.85 25.2765 18.81 25.3032 18.45 25.3299C18.05 25.3477 18.05 25.3477 18.4 25.0629Z" fill="#292929"/>
<path d="M90 24.8583C90 24.6091 90.04 24.5468 90.2 24.5468C90.41 24.5468 90.44 24.6358 90.34 24.9739C90.24 25.2943 90 25.2142 90 24.8583Z" fill="#292929"/>
<path d="M82.5 24.5023C82.5 24.3154 82.45 24.2798 82.2 24.2798C81.94 24.2798 81.9 24.2442 81.9 24.0306C81.9 23.8616 81.95 23.7726 82.05 23.7726C82.13 23.7726 82.18 23.7904 82.15 23.8171C82.13 23.8349 82.35 24.0395 82.65 24.2531C82.95 24.4756 83.2 24.6714 83.2 24.6892C83.2 24.707 83.04 24.7248 82.85 24.7248C82.54 24.7248 82.5 24.6981 82.5 24.5023Z" fill="#292929"/>
<path d="M84.2 24.3688C83.85 24.1107 83.85 24.1107 84.23 24.1018C84.58 24.1018 84.6 24.1196 84.6 24.3688C84.6 24.5201 84.59 24.6358 84.57 24.6358C84.56 24.6358 84.39 24.5201 84.2 24.3688Z" fill="#292929"/>
<path d="M17.8 24.1107C17.8 23.8527 17.83 23.8349 18.16 23.8349C18.55 23.8349 18.54 23.915 18.1 24.1908C17.8 24.3777 17.8 24.3777 17.8 24.1107Z" fill="#292929"/>
<path d="M10.66 23.8616C10.47 22.9895 10.47 22.945 10.68 22.945C10.83 22.945 10.89 23.0251 10.94 23.3543C10.97 23.5857 11 23.8438 11 23.9328C11 24.1908 10.72 24.1285 10.66 23.8616Z" fill="#292929"/>
<path d="M83.53 23.9506C83.6 23.8527 83 23.4255 82.85 23.4611C82.8 23.4789 82.78 23.4611 82.82 23.4344C82.86 23.3988 82.56 23.1318 82.15 22.8382C81.74 22.5445 81.4 22.2864 81.4 22.2686C81.4 22.2508 81.56 22.233 81.75 22.233C82.03 22.233 82.1 22.2686 82.1 22.411C82.1 22.5445 82.17 22.589 82.35 22.589C82.53 22.589 82.6 22.6335 82.6 22.767C82.6 22.9005 82.67 22.945 82.85 22.945C83.05 22.945 83.1 22.9895 83.1 23.1674C83.1 23.3543 83.15 23.3899 83.4 23.3899C83.67 23.3899 83.7 23.4166 83.7 23.648C83.7 23.7993 83.65 23.9417 83.58 23.9773C83.52 24.0128 83.5 24.0039 83.53 23.9506Z" fill="#292929"/>
<path d="M18.6 23.4611C18.6 23.2297 18.63 23.2119 18.98 23.2119C19.35 23.2208 19.35 23.2208 19.08 23.4255C18.93 23.5412 18.83 23.6569 18.86 23.6747C18.88 23.7014 18.83 23.7192 18.75 23.7192C18.65 23.7192 18.6 23.6302 18.6 23.4611Z" fill="#292929"/>
<path d="M80.9 23.292C80.9 23.025 80.9 23.025 81.2 23.2119C81.64 23.4878 81.65 23.5679 81.26 23.5679C80.93 23.5679 80.9 23.5501 80.9 23.292Z" fill="#292929"/>
<path d="M80.1 22.7581C80.1 22.4911 80.1 22.4911 80.4 22.678C80.84 22.9539 80.85 23.0339 80.46 23.0339C80.13 23.0339 80.1 23.0161 80.1 22.7581Z" fill="#292929"/>
<path d="M21.73 22.6335C21.73 22.5623 21.75 22.5178 21.78 22.5445C21.81 22.5623 21.96 22.5 22.11 22.4021C22.4 22.2241 22.4 22.2241 22.4 22.4911C22.4 22.7403 22.37 22.767 22.07 22.767C21.84 22.767 21.73 22.7225 21.73 22.6335Z" fill="#292929"/>
<path d="M78.8 22.144C78.8 22.0995 78.73 22.055 78.65 22.055C78.56 22.055 78.5 21.975 78.5 21.8326C78.5 21.5567 78.56 21.5567 79.01 21.8326C79.21 21.9483 79.4 22.0283 79.42 22.0105C79.45 21.9839 79.47 22.0283 79.47 22.0995C79.47 22.1885 79.36 22.233 79.13 22.233C78.95 22.233 78.8 22.1974 78.8 22.144Z" fill="#292929"/>
<path d="M81 22.0639C80.87 21.9661 80.73 21.9038 80.69 21.9216C80.66 21.9394 80.63 21.9038 80.63 21.8326C80.63 21.7436 80.74 21.6991 80.97 21.6991C81.27 21.6991 81.3 21.7258 81.3 21.9661C81.3 22.2775 81.32 22.2775 81 22.0639Z" fill="#292929"/>
<path d="M10.26 21.7703C10.16 21.4321 10.19 21.3431 10.4 21.3431C10.56 21.3431 10.6 21.4054 10.6 21.6546C10.6 22.0105 10.36 22.0906 10.26 21.7703Z" fill="#292929"/>
<path d="M90.7 21.3876C90.7 21.1384 90.74 21.0761 90.9 21.0761C91.11 21.0761 91.14 21.1651 91.04 21.5033C90.94 21.8237 90.7 21.7436 90.7 21.3876Z" fill="#292929"/>
<path d="M77.4 21.2986C77.4 21.2185 77.31 21.1651 77.15 21.1651C76.97 21.1651 76.9 21.1206 76.9 20.9872C76.9 20.8537 76.83 20.8092 76.61 20.8092C76.16 20.8092 76 20.7202 76 20.4799C76 20.3019 76.04 20.2663 76.18 20.3197C76.27 20.3553 76.41 20.3909 76.48 20.3909C76.54 20.3909 76.6 20.4265 76.6 20.4621C76.6 20.5689 77.16 20.8181 77.24 20.7469C77.27 20.7113 77.3 20.738 77.3 20.7914C77.3 20.8448 77.48 20.9783 77.7 21.085C78.19 21.3342 78.21 21.4321 77.75 21.4321C77.51 21.4321 77.4 21.3876 77.4 21.2986Z" fill="#292929"/>
<path d="M22.7 20.7647C22.7 20.5689 22.74 20.5422 23.05 20.5422C23.48 20.5422 23.49 20.6312 23.11 20.8359C22.73 21.0317 22.7 21.0317 22.7 20.7647Z" fill="#292929"/>
<path d="M25 20.8092C25 20.7647 25.05 20.7202 25.11 20.7202C25.16 20.7202 25.19 20.6846 25.16 20.649C25.13 20.6045 25.16 20.5689 25.23 20.5689C25.3 20.5689 25.43 20.5333 25.53 20.4977C25.67 20.4443 25.7 20.4799 25.7 20.6668C25.7 20.8715 25.66 20.8982 25.35 20.8982C25.16 20.8982 25 20.8626 25 20.8092Z" fill="#292929"/>
<path d="M77.98 20.293C77.61 20.0972 77.63 20.0083 78.05 20.0083C78.36 20.0083 78.4 20.035 78.4 20.2307C78.4 20.4888 78.34 20.4977 77.98 20.293Z" fill="#292929"/>
<path d="M26.5 20.1417C26.5 20.0528 26.89 19.7591 26.94 19.8125C26.97 19.8392 27 19.8214 27 19.7769C27 19.7324 27.09 19.6879 27.2 19.679C27.45 19.6612 27.48 20.0528 27.24 20.1329C27.05 20.1951 26.5 20.204 26.5 20.1417Z" fill="#292929"/>
<path d="M76.7 19.6256C76.64 19.5277 76.63 19.4832 76.69 19.5099C76.74 19.5455 76.81 19.5277 76.85 19.4743C76.97 19.2963 77.2 19.3853 77.2 19.5989C77.2 19.8659 76.88 19.8837 76.7 19.6256Z" fill="#292929"/>
<path d="M27.54 19.5989C27.57 19.5188 27.6 19.4387 27.6 19.4209C27.6 19.3942 27.65 19.4031 27.7 19.4298C27.76 19.4565 27.8 19.4387 27.8 19.3853C27.8 19.3319 27.85 19.3141 27.9 19.3408C27.96 19.3675 28 19.3586 28 19.323C28 19.2785 28.09 19.2429 28.2 19.2429C28.34 19.2429 28.4 19.3052 28.4 19.4387C28.4 19.6612 28.23 19.7413 27.78 19.7413C27.55 19.7413 27.49 19.7057 27.54 19.5989Z" fill="#292929"/>
<path d="M25.6 19.2696C25.6 19.1451 25.67 19.0205 25.76 18.9938C25.95 18.9315 26.5 18.9226 26.5 18.9849C26.5 19.0561 26.15 19.3408 26.04 19.3586C25.99 19.3675 25.87 19.4031 25.78 19.4298C25.64 19.4832 25.6 19.4476 25.6 19.2696Z" fill="#292929"/>
<path d="M75.56 19.1095C75.59 19.065 75.56 19.0294 75.51 19.0294C75.45 19.0294 75.4 18.9938 75.4 18.9404C75.4 18.8959 75.55 18.8514 75.73 18.8514C75.96 18.8514 76.07 18.8959 76.07 18.976C76.07 19.0472 76.04 19.1095 76.01 19.1006C75.98 19.1006 75.93 19.1095 75.9 19.1184C75.71 19.1806 75.51 19.1806 75.56 19.1095Z" fill="#292929"/>
<path d="M74.43 18.5755C74.3 18.531 74.2 18.5221 74.2 18.5399C74.2 18.5666 74.11 18.5132 74 18.4331C73.72 18.2195 73.75 18.1395 74.13 18.1395C74.55 18.1395 74.73 18.2462 74.68 18.4687C74.66 18.62 74.61 18.6378 74.43 18.5755Z" fill="#292929"/>
<path d="M27.8 18.2729C27.8 18.0772 27.84 18.0505 28.16 18.0505C28.6 18.0505 28.58 18.2106 28.12 18.3797C27.81 18.4954 27.8 18.4865 27.8 18.2729Z" fill="#292929"/>
<path d="M21.24 18.2818C21.21 18.2106 21.2 18.0683 21.22 17.9615C21.25 17.7835 21.27 17.7835 21.65 18.0861C22.05 18.3975 22.05 18.3975 21.67 18.4064C21.43 18.4064 21.27 18.3619 21.24 18.2818Z" fill="#292929"/>
<path d="M28.7 17.917C28.7 17.7212 28.74 17.6945 29.06 17.6945C29.5 17.6945 29.48 17.8547 29.02 18.0238C28.71 18.1395 28.7 18.1306 28.7 17.917Z" fill="#292929"/>
<path d="M31.7 18.0505C31.7 17.9971 31.82 17.9081 31.98 17.8458C32.13 17.7924 32.28 17.7034 32.32 17.65C32.36 17.6055 32.4 17.6945 32.4 17.8547C32.4 18.1217 32.38 18.1395 32.05 18.1395C31.86 18.1395 31.7 18.095 31.7 18.0505Z" fill="#292929"/>
<path d="M68.8 17.65C68.8 17.4364 68.81 17.4275 69.12 17.5432C69.58 17.7123 69.6 17.8725 69.16 17.8725C68.84 17.8725 68.8 17.8458 68.8 17.65Z" fill="#292929"/>
<path d="M71.8 17.5966C71.8 17.5699 71.62 17.4809 71.4 17.4008C70.91 17.2317 70.88 17.0716 71.35 17.0716C71.54 17.0716 71.7 17.1161 71.7 17.1606C71.7 17.2139 71.81 17.2495 71.95 17.2495C72.14 17.2495 72.2 17.294 72.2 17.4542C72.2 17.5966 72.14 17.6589 72 17.6589C71.89 17.6589 71.8 17.6322 71.8 17.5966Z" fill="#292929"/>
<path d="M30.1 17.3741C30.1 17.1872 30.15 17.1606 30.45 17.1606C30.84 17.1606 30.89 17.2317 30.62 17.4275C30.33 17.6411 30.1 17.6144 30.1 17.3741Z" fill="#292929"/>
<path d="M21.55 16.858C21.15 16.5465 21.15 16.5465 21.53 16.5376C21.93 16.5376 22.04 16.6444 21.98 16.9826C21.95 17.1606 21.93 17.1606 21.55 16.858Z" fill="#292929"/>
<path d="M31.4 16.9381C31.4 16.7423 31.44 16.7156 31.76 16.7156C32.2 16.7156 32.18 16.8758 31.72 17.0449C31.41 17.1606 31.4 17.1517 31.4 16.9381Z" fill="#292929"/>
<path d="M66 16.8936C66 16.7067 66.1 16.68 66.48 16.769C66.84 16.858 66.75 17.0716 66.35 17.0716C66.07 17.0716 66 17.036 66 16.8936Z" fill="#292929"/>
<path d="M70 17.0004C70 16.9648 69.87 16.8847 69.7 16.8313C69.29 16.6978 69.32 16.5376 69.75 16.5376C70.07 16.5376 70.1 16.5554 70.1 16.8046C70.1 16.9559 70.08 17.0716 70.05 17.0716C70.02 17.0716 70 17.036 70 17.0004Z" fill="#292929"/>
<path d="M19.6 16.7067C19.6 16.4397 19.6 16.4397 19.9 16.6266C20.34 16.9025 20.35 16.9826 19.96 16.9826C19.63 16.9826 19.6 16.9648 19.6 16.7067Z" fill="#292929"/>
<path d="M36.1 16.769C36.1 16.6533 36.38 16.5376 36.68 16.5376C36.74 16.5376 36.8 16.6177 36.8 16.7156C36.8 16.858 36.73 16.8936 36.45 16.8936C36.22 16.8936 36.1 16.8491 36.1 16.769Z" fill="#292929"/>
<path d="M64.9 16.6266C64.9 16.4397 65 16.413 65.38 16.502C65.74 16.591 65.65 16.8046 65.25 16.8046C64.97 16.8046 64.9 16.769 64.9 16.6266Z" fill="#292929"/>
<path d="M78.4 16.5465C78.4 16.2884 78.43 16.2706 78.76 16.2706C79.15 16.2706 79.14 16.3507 78.7 16.6266C78.4 16.8135 78.4 16.8135 78.4 16.5465Z" fill="#292929"/>
<path d="M80.55 16.2083C81.05 15.799 81.05 15.799 81.08 16.0393C81.13 16.3863 80.85 16.6266 80.41 16.6266C80.05 16.6177 80.05 16.6177 80.55 16.2083Z" fill="#292929"/>
<path d="M67.6 16.1639C67.6 16.0393 67.68 16.0037 67.95 16.0037C68.23 16.0037 68.3 16.0393 68.3 16.1817C68.3 16.3329 68.24 16.3596 67.95 16.3329C67.69 16.324 67.6 16.2706 67.6 16.1639Z" fill="#292929"/>
<path d="M34.6 16.0126C34.6 15.9147 34.65 15.8079 34.72 15.7723C34.79 15.7367 34.8 15.7456 34.76 15.8168C34.72 15.8702 34.76 15.9414 34.85 15.9681C34.98 16.0215 34.99 16.0393 34.88 16.1016C34.68 16.2173 34.6 16.1995 34.6 16.0126Z" fill="#292929"/>
<path d="M39.5 16.0571C39.5 15.9325 39.77 15.8613 40.83 15.6922C41.15 15.6388 41.2 15.6477 41.2 15.799C41.2 15.9414 41.09 15.9948 40.56 16.0749C39.73 16.2172 39.5 16.2083 39.5 16.0571Z" fill="#292929"/>
<path d="M18.4 15.7278C18.4 15.4608 18.4 15.4608 18.7 15.6477C19.14 15.9236 19.15 16.0037 18.76 16.0037C18.43 16.0037 18.4 15.9859 18.4 15.7278Z" fill="#292929"/>
<path d="M66.95 15.6922C67.35 15.3629 67.35 15.3629 67.38 15.6032C67.42 15.8969 67.44 15.888 66.95 15.9592C66.55 16.0126 66.55 16.0126 66.95 15.6922Z" fill="#292929"/>
<path d="M20.1 15.6477C19.75 15.3896 19.75 15.3896 20.13 15.3807C20.48 15.3807 20.5 15.3985 20.5 15.6477C20.5 15.799 20.49 15.9147 20.47 15.9147C20.46 15.9147 20.29 15.799 20.1 15.6477Z" fill="#292929"/>
<path d="M42.3 15.6299C42.3 15.4964 42.71 15.3095 42.88 15.3629C42.95 15.3807 43 15.4697 43 15.5676C43 15.7011 42.93 15.7367 42.65 15.7367C42.44 15.7367 42.3 15.6922 42.3 15.6299Z" fill="#292929"/>
<path d="M33.7 15.3807C33.7 15.1316 33.67 15.1138 33.35 15.1138C33.03 15.1138 33 15.096 33 14.8468C33 14.5976 32.97 14.5798 32.65 14.5798C32.33 14.5798 32.3 14.562 32.3 14.3039C32.3 14.037 32.3 14.037 32.58 14.215C32.74 14.3128 32.93 14.4552 33 14.5264C33.07 14.6065 33.17 14.6421 33.24 14.6065C33.3 14.5798 33.32 14.5798 33.28 14.6243C33.24 14.6599 33.48 14.8913 33.8 15.1405C34.13 15.3807 34.4 15.6032 34.4 15.621C34.4 15.6299 34.24 15.6477 34.05 15.6477C33.73 15.6477 33.7 15.6299 33.7 15.3807Z" fill="#292929"/>
<path d="M43.1 15.5409C43.1 15.4074 43.51 15.2206 43.68 15.2739C43.75 15.2917 43.8 15.3807 43.8 15.4786C43.8 15.6121 43.73 15.6477 43.45 15.6477C43.24 15.6477 43.1 15.6032 43.1 15.5409Z" fill="#292929"/>
<path d="M57.5 15.3896C57.5 15.1761 57.67 15.1227 57.97 15.2384C58.32 15.3896 58.25 15.5587 57.85 15.5587C57.57 15.5587 57.5 15.5231 57.5 15.3896Z" fill="#292929"/>
<path d="M81.55 15.3807C81.58 15.3362 81.74 15.2117 81.9 15.1138C82.2 14.9269 82.2 14.9269 82.2 15.1939C82.2 15.4519 82.17 15.4697 81.84 15.4697C81.64 15.4697 81.51 15.4341 81.55 15.3807Z" fill="#292929"/>
<path d="M47.2 15.1672C47.2 15.0515 47.48 14.9358 47.78 14.9358C47.84 14.9358 47.9 15.0159 47.9 15.1138C47.9 15.2561 47.83 15.2917 47.55 15.2917C47.32 15.2917 47.2 15.2472 47.2 15.1672Z" fill="#292929"/>
<path d="M91.7 14.9803C91.7 14.7311 91.74 14.6688 91.89 14.6688C92.13 14.6688 92.19 14.8201 92.06 15.0871C91.89 15.3985 91.7 15.3362 91.7 14.9803Z" fill="#292929"/>
<path d="M17.4 14.9447C17.4 14.7934 17.45 14.651 17.5 14.6243C17.56 14.5887 17.59 14.6065 17.58 14.6421C17.56 14.6866 17.69 14.829 17.85 14.9625C18.15 15.1939 18.15 15.1939 17.78 15.2028C17.43 15.2028 17.4 15.185 17.4 14.9447Z" fill="#292929"/>
<path d="M50.4 15.0782C50.4 15.007 50.54 14.9269 50.71 14.8913C51.13 14.8112 51.7 14.9091 51.7 15.0693C51.7 15.1761 51.55 15.2028 51.05 15.2028C50.56 15.2028 50.4 15.1761 50.4 15.0782Z" fill="#292929"/>
<path d="M80.3 14.9447C80.3 14.6866 80.33 14.6688 80.66 14.6688C81.05 14.6688 81.04 14.7489 80.6 15.0248C80.3 15.2117 80.3 15.2117 80.3 14.9447Z" fill="#292929"/>
<path d="M19.12 14.9625C19.14 14.918 19.02 14.7756 18.85 14.6421C18.55 14.4107 18.55 14.4107 18.93 14.4018C19.27 14.4018 19.3 14.4196 19.3 14.6599C19.3 14.8112 19.25 14.9536 19.2 14.9803C19.14 15.0159 19.11 14.9981 19.12 14.9625Z" fill="#292929"/>
<path d="M68.3 14.6332C68.3 14.6154 68.56 14.4107 68.88 14.1794C69.19 13.948 69.44 13.7166 69.42 13.6721C69.41 13.6276 69.44 13.6098 69.5 13.6454C69.55 13.6721 69.6 13.8145 69.6 13.9658C69.6 14.1972 69.57 14.2239 69.3 14.2239C69.05 14.2239 69 14.2594 69 14.4463C69 14.6421 68.96 14.6688 68.65 14.6688C68.46 14.6688 68.3 14.651 68.3 14.6332Z" fill="#292929"/>
<path d="M16.6 14.3573C16.6 14.1705 16.55 14.1349 16.3 14.1349C16.07 14.1349 16 14.0993 16 13.9569C16 13.8234 15.93 13.7789 15.75 13.7789C15.54 13.7789 15.5 13.7344 15.5 13.503C15.5 13.2272 15.5 13.2272 15.84 13.4496C16.02 13.5831 16.2 13.6632 16.24 13.6454C16.27 13.6187 16.28 13.6276 16.25 13.6543C16.19 13.7344 16.72 14.0993 16.85 14.0637C16.9 14.0459 16.92 14.0548 16.88 14.0904C16.84 14.126 16.93 14.2506 17.08 14.3662C17.35 14.5709 17.35 14.5709 16.98 14.5798C16.64 14.5798 16.6 14.5531 16.6 14.3573Z" fill="#292929"/>
<path d="M9.23 14.1794C9.12 13.8857 9.13 13.8679 9.36 13.8679C9.57 13.8679 9.6 13.9124 9.6 14.1794C9.6 14.3751 9.55 14.4908 9.47 14.4908C9.39 14.4908 9.29 14.3484 9.23 14.1794Z" fill="#292929"/>
<path d="M18.22 14.2417C18.24 14.1972 17.97 13.948 17.63 13.6899C17.28 13.4318 17 13.2005 17 13.1827C17 13.1738 17.16 13.156 17.35 13.156C17.67 13.156 17.7 13.1738 17.7 13.4229C17.7 13.6721 17.73 13.6899 18.05 13.6899C18.37 13.6899 18.4 13.7077 18.4 13.948C18.4 14.0993 18.35 14.2417 18.3 14.2683C18.24 14.3039 18.21 14.2861 18.22 14.2417Z" fill="#292929"/>
<path d="M83.15 14.0726C83.32 13.9391 83.44 13.7967 83.42 13.7522C83.41 13.7166 83.44 13.6988 83.5 13.7344C83.55 13.7611 83.6 13.9035 83.6 14.0548C83.6 14.295 83.57 14.3128 83.23 14.3128C82.85 14.3039 82.85 14.3039 83.15 14.0726Z" fill="#292929"/>
<path d="M81.67 14.1616C81.63 14.1349 81.6 13.9925 81.6 13.8501C81.6 13.6187 81.63 13.6009 81.98 13.6009C82.35 13.6098 82.35 13.6098 82.05 13.8412C81.89 13.9747 81.76 14.1082 81.78 14.1527C81.81 14.2417 81.76 14.2417 81.67 14.1616Z" fill="#292929"/>
<path d="M31.5 13.6899C31.5 13.4407 31.47 13.4229 31.15 13.4229C30.84 13.4229 30.8 13.3962 30.8 13.2005C30.8 13.0136 30.75 12.978 30.5 12.978C30.25 12.978 30.2 12.9424 30.2 12.7555C30.2 12.5686 30.15 12.533 29.9 12.533C29.65 12.533 29.6 12.4974 29.6 12.3106C29.6 12.1237 29.55 12.0881 29.3 12.0881C29.05 12.0881 29 12.0525 29 11.8656C29 11.6787 28.95 11.6431 28.7 11.6431C28.45 11.6431 28.4 11.6075 28.4 11.4206C28.4 11.2338 28.35 11.1982 28.1 11.1982C27.85 11.1982 27.8 11.1626 27.8 10.9757C27.8 10.7888 27.75 10.7532 27.5 10.7532C27.24 10.7532 27.2 10.7176 27.2 10.504C27.2 10.335 27.25 10.246 27.35 10.246C27.43 10.246 27.48 10.2638 27.45 10.2905C27.38 10.3528 27.93 10.7087 28.05 10.682C28.1 10.6642 28.12 10.682 28.08 10.7087C27.99 10.7888 28.51 11.1626 28.65 11.127C28.7 11.1092 28.72 11.127 28.68 11.1537C28.59 11.2338 29.7 12.0525 29.84 12.0169C29.9 11.9991 29.92 12.0169 29.88 12.0436C29.79 12.1237 30.31 12.4974 30.45 12.4618C30.5 12.444 30.52 12.4618 30.48 12.4885C30.39 12.5686 30.91 12.9424 31.05 12.9068C31.1 12.889 31.12 12.9068 31.08 12.9335C31.04 12.9691 31.28 13.2005 31.6 13.4496C31.93 13.6899 32.2 13.9124 32.2 13.9302C32.2 13.9391 32.04 13.9569 31.85 13.9569C31.53 13.9569 31.5 13.9391 31.5 13.6899Z" fill="#292929"/>
<path d="M83.92 13.4763C84.07 13.3606 84.16 13.2361 84.12 13.1916C84.08 13.156 84.1 13.156 84.17 13.1916C84.23 13.2183 84.31 13.2094 84.35 13.1649C84.38 13.1115 84.54 12.9869 84.7 12.889C85 12.7021 85 12.7021 85 12.9691C85 13.2183 84.97 13.245 84.7 13.245C84.45 13.245 84.4 13.2805 84.4 13.4674C84.4 13.6632 84.36 13.6899 84.03 13.6899C83.65 13.681 83.65 13.681 83.92 13.4763Z" fill="#292929"/>
<path d="M69.92 13.3873C70.07 13.2717 70.16 13.1471 70.12 13.1115C70.08 13.0759 70.1 13.067 70.15 13.0848C70.29 13.1204 70.9 12.7021 70.84 12.6042C70.81 12.5597 70.82 12.5419 70.87 12.5508C70.97 12.5864 71.51 12.2127 71.45 12.1593C71.42 12.1326 71.47 12.1148 71.55 12.1148C71.65 12.1148 71.7 12.2038 71.7 12.3728C71.7 12.5953 71.67 12.622 71.35 12.622C71.03 12.622 71 12.6398 71 12.889C71 13.1293 70.97 13.156 70.7 13.156C70.45 13.156 70.4 13.1916 70.4 13.3784C70.4 13.5742 70.36 13.6009 70.03 13.6009C69.65 13.592 69.65 13.592 69.92 13.3873Z" fill="#292929"/>
<path d="M14.5 12.9335C14.5 12.8623 14.41 12.8 14.3 12.8C14.19 12.8 14.1 12.7377 14.1 12.6665C14.1 12.5953 14.01 12.533 13.9 12.533C13.74 12.533 13.7 12.4707 13.7 12.2572C13.7 11.9902 13.7 11.9902 14.14 12.275C14.39 12.4262 14.74 12.6665 14.92 12.8089C15.25 13.0581 15.25 13.0581 14.88 13.067C14.61 13.067 14.5 13.0314 14.5 12.9335Z" fill="#292929"/>
<path d="M16.34 12.8178C16.37 12.8 16.27 12.6843 16.12 12.5686C15.85 12.3639 15.85 12.3639 16.23 12.355C16.57 12.355 16.6 12.3728 16.6 12.6042C16.6 12.7733 16.55 12.8623 16.45 12.8623C16.37 12.8623 16.32 12.8445 16.34 12.8178Z" fill="#292929"/>
<path d="M91.9 12.5775C91.9 12.3283 91.94 12.2661 92.1 12.2661C92.31 12.2661 92.34 12.355 92.24 12.6932C92.14 13.0136 91.9 12.9335 91.9 12.5775Z" fill="#292929"/>
<path d="M85.72 12.1415C85.87 12.0258 85.97 11.9012 85.94 11.8745C85.92 11.8478 85.93 11.8389 85.96 11.8656C86 11.8834 86.18 11.8033 86.36 11.6698C86.7 11.4473 86.7 11.4473 86.7 11.7232C86.7 11.9546 86.66 11.9991 86.45 11.9991C86.27 11.9991 86.2 12.0436 86.2 12.1771C86.2 12.3283 86.13 12.355 85.83 12.355C85.45 12.3461 85.45 12.3461 85.72 12.1415Z" fill="#292929"/>
<path d="M84 12.008C84 11.7499 84.03 11.7321 84.36 11.7321C84.75 11.7321 84.74 11.8122 84.3 12.0881C84 12.275 84 12.275 84 12.008Z" fill="#292929"/>
<path d="M11.9 11.2427C11.9 10.9757 11.93 10.9757 12.31 11.1715C12.69 11.3761 12.68 11.4651 12.25 11.4651C11.94 11.4651 11.9 11.4384 11.9 11.2427Z" fill="#292929"/>
<path d="M91.9 11.0647C91.9 10.8689 91.95 10.7532 92.03 10.7532C92.11 10.7532 92.21 10.8956 92.27 11.0647C92.38 11.3583 92.37 11.3761 92.14 11.3761C91.93 11.3761 91.9 11.3317 91.9 11.0647Z" fill="#292929"/>
<path d="M87.23 11.0647C87.23 10.9935 87.25 10.949 87.28 10.9757C87.31 10.9935 87.46 10.9312 87.61 10.8333C87.9 10.6553 87.9 10.6553 87.9 10.9223C87.9 11.1715 87.87 11.1982 87.57 11.1982C87.34 11.1982 87.23 11.1537 87.23 11.0647Z" fill="#292929"/>
<path d="M13.53 10.9045C13.11 10.6553 13.12 10.5752 13.55 10.5752C13.87 10.5752 13.9 10.593 13.9 10.8422C13.9 10.9935 13.89 11.1092 13.88 11.1003C13.86 11.1003 13.7 11.0113 13.53 10.9045Z" fill="#292929"/>
<path d="M85.6 10.8511C85.6 10.6375 85.64 10.5752 85.8 10.5752C85.91 10.5752 86 10.5129 86 10.4417C86 10.3528 86.1 10.3083 86.33 10.3083C86.56 10.3083 86.67 10.3528 86.67 10.4417C86.67 10.5129 86.65 10.5574 86.62 10.5307C86.59 10.5129 86.35 10.6286 86.09 10.8066C85.6 11.127 85.6 11.127 85.6 10.8511Z" fill="#292929"/>
<path d="M10.7 10.6464C10.7 10.4862 10.74 10.3972 10.78 10.4417C10.82 10.4951 10.97 10.5841 11.13 10.6375C11.51 10.7888 11.47 10.9312 11.05 10.9312C10.72 10.9312 10.7 10.9134 10.7 10.6464Z" fill="#292929"/>
<path d="M73.3 10.8956C73.3 10.8778 73.55 10.682 73.85 10.4595C74.15 10.246 74.37 10.0413 74.35 10.0235C74.32 9.99679 74.37 9.97899 74.45 9.97899C74.55 9.97899 74.6 10.068 74.6 10.2371C74.6 10.4506 74.56 10.4862 74.3 10.4862C74.05 10.4862 74 10.5218 74 10.7087C74 10.9045 73.96 10.9312 73.65 10.9312C73.46 10.9312 73.3 10.9134 73.3 10.8956Z" fill="#292929"/>
<path d="M9.6 10.6642C9.6 10.6197 9.59 10.5485 9.58 10.5129C9.56 10.4773 9.7 10.4417 9.88 10.4239C10.15 10.3883 10.2 10.415 10.2 10.5663C10.2 10.7176 10.14 10.7532 9.9 10.7532C9.74 10.7532 9.6 10.7176 9.6 10.6642Z" fill="#292929"/>
<path d="M12.38 10.2905C12.13 10.068 12.15 10.0413 12.55 10.0413C12.85 10.0413 12.9 10.068 12.9 10.2549C12.9 10.5129 12.64 10.5307 12.38 10.2905Z" fill="#292929"/>
<path d="M8.7 9.9701C8.7 9.59633 8.7 9.59633 9.07 9.59633C9.44 9.59633 9.44 9.59633 9.09 9.9256C8.91 10.1125 8.74 10.2816 8.73 10.2994C8.71 10.3172 8.7 10.1748 8.7 9.9701Z" fill="#292929"/>
<path d="M88.7 10.2371C88.7 10.1659 89.22 9.8633 89.34 9.8633C89.37 9.8633 89.4 9.96119 89.4 10.0858C89.4 10.2816 89.36 10.3083 89.05 10.3083C88.86 10.3083 88.7 10.2727 88.7 10.2371Z" fill="#292929"/>
<path d="M11.53 9.9078C11.1 9.74762 11.11 9.59633 11.55 9.59633C11.86 9.59633 11.9 9.62303 11.9 9.81881C11.9 9.9434 11.89 10.0413 11.88 10.0413C11.86 10.0324 11.7 9.97899 11.53 9.9078Z" fill="#292929"/>
<path d="M88 9.32046C88 9.08019 88.03 9.06239 88.35 9.06239C88.63 9.06239 88.7 9.02679 88.7 8.88441C88.7 8.74202 88.77 8.70643 89 8.70643C89.2 8.70643 89.3 8.66193 89.3 8.57294C89.3 8.48395 89.41 8.43945 89.65 8.43945C89.84 8.43945 90 8.46615 90 8.51064C90 8.60853 89.68 8.83991 89.53 8.84881C89.23 8.86661 89.19 8.89331 89.26 8.9912C89.3 9.04459 89.29 9.06239 89.23 9.03569C89.17 9.0001 88.87 9.11578 88.56 9.28487C88 9.58743 88 9.58743 88 9.32046Z" fill="#292929"/>
<path d="M25.1 8.9912C25.1 8.82211 25.15 8.73312 25.25 8.73312C25.33 8.73312 25.38 8.75092 25.36 8.77762C25.33 8.79541 25.43 8.9111 25.58 9.02679C25.85 9.23147 25.85 9.23147 25.48 9.24037C25.13 9.24037 25.1 9.22257 25.1 8.9912Z" fill="#292929"/>
<path d="M76.05 8.8844C76.08 8.83991 76.24 8.71532 76.4 8.61743C76.7 8.43055 76.7 8.43055 76.7 8.69752C76.7 8.9556 76.67 8.9734 76.34 8.9734C76.14 8.9734 76.01 8.9378 76.05 8.8844Z" fill="#292929"/>
<path d="M92.42 8.64413C92.29 8.53734 92.05 8.42165 91.89 8.39496C91.47 8.31486 91.51 8.08349 91.95 8.08349C92.23 8.08349 92.3 8.04789 92.3 7.90551C92.3 7.80762 92.37 7.72752 92.45 7.72752C92.61 7.72752 92.73 8.17248 92.68 8.58184C92.65 8.83991 92.65 8.83991 92.42 8.64413Z" fill="#292929"/>
<path d="M8.7 8.68862C8.7 8.42165 8.83 8.17248 8.96 8.17248C9.05 8.17248 9.1 8.27927 9.1 8.48395C9.1 8.73312 9.06 8.79541 8.9 8.79541C8.79 8.79541 8.7 8.74202 8.7 8.68862Z" fill="#292929"/>
<path d="M90.4 8.26147C90.4 8.11908 90.47 8.08349 90.75 8.08349C91.15 8.08349 91.24 8.29707 90.88 8.38606C90.5 8.47505 90.4 8.44835 90.4 8.26147Z" fill="#292929"/>
<path d="M76.95 8.26147C76.98 8.21697 77.14 8.09239 77.3 7.9945C77.6 7.80761 77.6 7.80761 77.6 8.07459C77.6 8.33266 77.57 8.35046 77.24 8.35046C77.04 8.35046 76.91 8.31486 76.95 8.26147Z" fill="#292929"/>
<path d="M23.6 7.8966C23.6 7.62963 23.6 7.62963 23.9 7.81651C24.34 8.09238 24.35 8.17248 23.96 8.17248C23.63 8.17248 23.6 8.15468 23.6 7.8966Z" fill="#292929"/>
<path d="M78.75 7.0156C78.78 6.9711 78.94 6.84651 79.1 6.74862C79.4 6.56174 79.4 6.56174 79.4 6.82871C79.4 7.08679 79.37 7.10459 79.04 7.10459C78.84 7.10459 78.71 7.06899 78.75 7.0156Z" fill="#292929"/>
<path d="M21.9 6.88211C21.9 6.81092 21.81 6.74863 21.7 6.74863C21.54 6.74863 21.5 6.68633 21.5 6.47275C21.5 6.20578 21.5 6.20578 21.95 6.49055C22.64 6.93551 22.69 7.0156 22.26 7.0156C22.01 7.0156 21.9 6.98 21.9 6.88211Z" fill="#292929"/>
<path d="M80.75 5.68073C80.78 5.63624 80.94 5.51165 81.1 5.41376C81.4 5.22688 81.4 5.22688 81.4 5.49385C81.4 5.75193 81.37 5.76972 81.04 5.76972C80.84 5.76972 80.71 5.73413 80.75 5.68073Z" fill="#292929"/>
<path d="M18.8 4.69294C18.8 4.42596 18.8 4.42596 19.09 4.60395C19.24 4.70184 19.39 4.76413 19.42 4.74633C19.45 4.71964 19.47 4.76413 19.47 4.83532C19.47 4.92431 19.36 4.96881 19.13 4.96881C18.83 4.96881 18.8 4.94211 18.8 4.69294Z" fill="#292929"/>
<path d="M82.83 4.30138C82.83 4.23018 82.85 4.18569 82.88 4.21239C82.91 4.23018 83.06 4.16789 83.21 4.07C83.5 3.89202 83.5 3.89202 83.5 4.15899C83.5 4.40816 83.47 4.43486 83.17 4.43486C82.94 4.43486 82.83 4.39037 82.83 4.30138Z" fill="#292929"/>
<path d="M16.6 3.54496C16.6 3.50046 16.53 3.45597 16.45 3.45597C16.37 3.45597 16.3 3.42037 16.3 3.36697C16.3 3.32248 16.23 3.27798 16.15 3.27798C16.07 3.27798 16 3.24239 16 3.18899C16 3.1445 15.93 3.1 15.85 3.1C15.76 3.1 15.7 3.01991 15.7 2.87753C15.7 2.75294 15.73 2.65505 15.77 2.65505C15.89 2.65505 17.3 3.50046 17.3 3.57165C17.3 3.60725 17.14 3.63395 16.95 3.63395C16.76 3.63395 16.6 3.59835 16.6 3.54496Z" fill="#292929"/>
<path d="M91.7 3.32248C91.7 2.96651 91.94 2.88642 92.04 3.21569C92.14 3.54495 92.11 3.63395 91.9 3.63395C91.74 3.63395 91.7 3.57165 91.7 3.32248Z" fill="#292929"/>
<path d="M84.3 3.47376C84.3 3.40257 84.82 3.1 84.94 3.1C84.97 3.1 85 3.19789 85 3.32248C85 3.51826 84.96 3.54496 84.65 3.54496C84.46 3.54496 84.3 3.50936 84.3 3.47376Z" fill="#292929"/>
<path d="M9.4 3.26018C9.4 2.99321 9.53 2.74404 9.66 2.74404C9.75 2.74404 9.8 2.85083 9.8 3.05551C9.8 3.30468 9.76 3.36697 9.6 3.36697C9.49 3.36697 9.4 3.31358 9.4 3.26018Z" fill="#292929"/>
<path d="M9.6 2.54826C9.6 2.28129 9.73 2.03211 9.86 2.03211C9.95 2.03211 10 2.1389 10 2.34358C10 2.59275 9.96 2.65505 9.8 2.65505C9.69 2.65505 9.6 2.60165 9.6 2.54826Z" fill="#292929"/>
<path d="M91.4 2.25459C91.4 2.01431 91.44 1.94312 91.58 1.94312C91.7 1.94312 91.76 2.02321 91.77 2.25459C91.8 2.51266 91.77 2.56605 91.6 2.56605C91.44 2.56605 91.4 2.50376 91.4 2.25459Z" fill="#292929"/>
<path d="M13.4 1.72954C13.4 1.48037 13.65 1.46257 13.92 1.70285C14.17 1.91642 14.15 1.94312 13.75 1.94312C13.45 1.94312 13.4 1.91643 13.4 1.72954Z" fill="#292929"/>
<path d="M12.3 1.42697C12.3 1.39137 12.03 1.30238 11.7 1.24009C11.21 1.1422 11.1 1.0888 11.1 0.946418C11.1 0.786234 11.14 0.777336 11.47 0.830731C12 0.919722 12.93 1.26678 12.98 1.39137C13 1.46256 12.9 1.49816 12.66 1.49816C12.46 1.49816 12.3 1.46257 12.3 1.42697Z" fill="#292929"/>
<path d="M88.7 1.31128C88.7 1.21339 89.25 0.982016 89.71 0.901925C89.96 0.857429 90 0.884127 90 1.04431C90 1.19559 89.94 1.23119 89.7 1.23119C89.54 1.23119 89.4 1.27569 89.4 1.32018C89.4 1.37358 89.24 1.40917 89.05 1.40917C88.86 1.40917 88.7 1.36468 88.7 1.31128Z" fill="#292929"/>
<path d="M90.9 1.05321C90.9 0.812937 90.92 0.795139 91.09 0.866331C91.19 0.919726 91.3 1.04431 91.33 1.1422C91.37 1.28459 91.33 1.32019 91.14 1.32019C90.94 1.32019 90.9 1.27569 90.9 1.05321Z" fill="#292929"/>
</svg>
