<svg width="402" height="436" viewBox="0 0 402 436" fill="none" xmlns="http://www.w3.org/2000/svg">
<path d="M146.3 435.347C141.167 434.984 137.293 434.213 136.36 433.307C135.8 432.853 135.567 431.04 135.753 429.136C135.753 428.864 137.107 428.048 138.74 427.277C140.373 426.552 142.427 425.328 143.36 424.512C144.293 423.741 145.227 423.107 145.507 423.107C145.787 423.107 146.067 422.971 146.16 422.789C146.347 422.336 150.033 419.888 151.76 419.072C153.813 418.075 154.42 418.8 152.46 419.933C150.453 421.112 150.407 421.565 152.413 420.795C153.767 420.251 154.933 419.979 156.473 419.843C156.893 419.797 157.267 419.571 157.267 419.389C157.267 419.208 157.593 419.027 157.967 419.027C158.34 419.027 158.667 419.299 158.667 419.616C158.667 419.933 158.807 419.979 159.04 419.707C159.227 419.435 160.673 419.208 162.307 419.117C164.127 419.072 165.853 418.664 166.927 418.12C168.373 417.349 169.213 417.259 172.853 417.531C176.633 417.757 178.967 417.803 180.74 417.667C181.02 417.621 182.047 417.803 183.027 418.029L184.707 418.483L185.22 416.488C185.967 413.723 185.873 410.141 185.033 409.371C184.66 409.008 184.52 408.555 184.707 408.328C184.893 408.101 184.707 408.192 184.287 408.509C183.353 409.189 182.933 408.781 182.933 407.149C182.933 406.016 183.073 405.88 184.473 405.88C185.687 405.88 186.153 406.197 187.087 407.557C188.16 409.144 188.16 409.235 187.413 411.456C186.993 412.68 186.667 414.085 186.667 414.539C186.667 414.992 186.48 415.445 186.247 415.581C186.013 415.717 185.687 416.533 185.547 417.395C185.033 419.979 183.447 422.971 182.093 423.968C181.393 424.512 180.647 425.056 180.367 425.283C178.453 426.733 162.213 433.76 159.6 434.259C158.713 434.395 157.78 434.712 157.5 434.893C156.753 435.483 151.293 435.709 146.3 435.347V435.347ZM147.607 434.485C148.353 434.213 148.913 433.533 149.1 432.672C149.427 431.267 150.92 429.816 153.487 428.456C155.447 427.413 154.933 426.552 152.693 426.96C150.407 427.368 148.587 428.683 147.187 430.995C146.533 431.992 145.413 433.307 144.76 433.851L143.5 434.893H144.993C145.787 434.893 147 434.712 147.607 434.485ZM140.467 431.267C140.467 430.269 140.373 429.453 140.233 429.453C139.86 429.453 137.247 432.355 137.2 432.763C137.2 432.944 137.947 433.08 138.833 433.08C140.42 433.08 140.467 433.035 140.467 431.267Z" fill="#2C1A18"/>
<path d="M46.4333 414.901C41.3467 414.539 38.2667 413.904 37.7533 413.088C37.1467 412.091 37.6133 409.28 38.4533 409.144C38.8733 409.053 39.2 408.827 39.2 408.6C39.2 408.373 39.6667 408.056 40.2267 407.875C41.3933 407.512 43.4467 406.197 45.2667 404.656C46.48 403.568 48.7667 403.115 47.6933 404.157C47.2733 404.565 47.32 404.792 47.88 405.2C48.58 405.653 48.58 405.789 47.88 406.469C47.46 406.877 46.9 408.373 46.62 409.824C46.34 411.275 45.92 412.635 45.6867 412.907C44.8467 413.723 45.3133 414.085 46.9933 413.949C48.6267 413.813 48.7667 413.677 49.0933 412C49.56 409.915 50.4933 409.053 52.36 409.053C53.76 409.053 54.6 410.096 54.6 412C54.6 412.861 54.2267 413.315 52.9667 413.904C52.08 414.312 51.4733 414.811 51.6133 415.037C51.7533 415.219 51.5667 415.355 51.24 415.309C50.9133 415.264 48.7667 415.083 46.4333 414.901ZM40.9733 411.592C41.1133 411.048 40.9267 410.821 40.5067 410.957C40.18 411.093 39.8067 411.547 39.76 411.955C39.62 412.499 39.8067 412.725 40.2267 412.589C40.5533 412.453 40.9267 412 40.9733 411.592Z" fill="#2C1A18"/>
<path d="M155.727 407.784L154.933 406.106L155.867 407.194C156.38 407.784 156.8 408.509 156.8 408.872C156.8 409.824 156.66 409.642 155.727 407.784Z" fill="#2C1A18"/>
<path d="M301.467 381.491C301.467 381.309 302.167 381.173 303.053 381.173C303.94 381.173 304.547 381.309 304.407 381.536C304.127 381.944 301.467 381.944 301.467 381.491V381.491Z" fill="#2C1A18"/>
<path d="M302.773 379.723C302.027 379.632 301.467 379.315 301.467 379.088C301.467 378.408 303.147 378.635 303.8 379.36C304.127 379.723 304.313 379.995 304.22 379.995C304.127 379.949 303.473 379.813 302.773 379.723V379.723Z" fill="#2C1A18"/>
<path d="M282.24 375.189C281.26 374.962 280.747 373.648 281.493 373.194C281.773 373.013 282.707 373.104 283.453 373.421C285.413 374.146 286.3 374.056 286.253 373.104C286.207 372.696 286.347 372.333 286.58 372.333C286.813 372.333 287 373.058 287 373.92C287 375.506 287 375.506 285.04 375.461C283.92 375.416 282.707 375.325 282.24 375.189Z" fill="#2C1A18"/>
<path d="M305.06 374.736C304.547 374.237 304.687 371.427 305.247 371.427C305.947 371.427 307.067 372.605 306.74 372.968C306.553 373.104 306.833 373.24 307.347 373.285C308.187 373.285 308.187 373.331 307.3 373.693C306.46 374.056 306.46 374.101 307.533 374.101C308.467 374.147 308.56 374.237 308 374.6C307.207 375.099 305.48 375.189 305.06 374.736V374.736Z" fill="#2C1A18"/>
<path d="M349.767 368.616C349.813 367.8 350.14 366.667 350.467 366.123C351.027 365.307 351.027 364.853 350.467 363.267C349.86 361.499 349.86 361.317 350.747 360.728C351.213 360.365 352.333 359.413 353.22 358.643C354.713 357.237 354.713 357.192 353.78 356.829C352.333 356.331 352.567 356.013 354.433 356.013C355.973 356.013 356.067 356.104 356.067 357.509C356.067 358.507 355.553 359.731 354.667 360.909C353.78 362.133 353.267 363.357 353.267 364.355C353.267 367.301 352.753 368.707 351.353 369.387C349.673 370.248 349.72 370.293 349.767 368.616Z" fill="#2C1A18"/>
<path d="M95.2 368.163C95.48 367.573 95.8067 366.757 95.9467 366.349C96.1333 365.896 96.4133 365.533 96.6467 365.533C96.88 365.533 96.6467 366.349 96.1333 367.347C95.1067 369.251 94.4533 369.84 95.2 368.163Z" fill="#2C1A18"/>
<path d="M350.467 358.778C350.467 358.189 351.82 357.192 352.193 357.509C352.52 357.872 351.493 359.186 350.887 359.186C350.653 359.186 350.467 359.005 350.467 358.778Z" fill="#2C1A18"/>
<path d="M372.4 356.965C372.4 355.651 373.147 353.883 373.847 353.293C374.033 353.157 374.313 351.797 374.5 350.256L374.827 347.4H376.973C378.98 347.4 379.027 347.355 378.327 346.584C377.86 346.131 377.533 345.088 377.533 344.317C377.533 343.093 377.72 342.867 378.653 342.867C379.54 342.867 379.773 343.048 379.633 343.728C379.54 344.227 379.727 344.725 380.053 344.816C380.38 344.952 380.8 345.496 380.94 346.04C381.127 346.765 380.94 347.083 380.053 347.445C379.4 347.672 378.98 348.035 379.12 348.261C379.307 348.488 379.073 349.032 378.653 349.395C378.14 349.939 378.093 350.12 378.56 350.12C379.027 350.12 378.98 350.256 378.467 350.573C378.093 350.8 378 351.027 378.233 351.072C378.513 351.072 378.187 351.299 377.533 351.48C376.46 351.797 376.46 351.843 377.393 351.888C378.373 351.933 386.867 345.451 386.867 344.68C386.867 344.453 388.033 342.912 389.48 341.28L392.093 338.288L391.347 336.792C390.413 334.843 390.413 334.435 391.44 333.709C392.7 332.848 393.68 330.944 392.98 330.717C391.86 330.355 392.56 328.813 394.613 327.136C396.76 325.368 396.807 325.323 396.013 324.235C395.36 323.237 395.36 322.965 395.967 322.195C396.807 321.107 396.853 319.928 396.013 319.611C395.127 319.248 395.36 317.571 396.62 315.213C397.553 313.445 397.6 313.264 396.853 312.72C396.293 312.357 396.153 311.859 396.387 310.952C396.573 310.227 396.433 309.229 395.967 308.368C395.36 307.28 395.267 305.965 395.407 302.52C395.5 300.027 395.453 297.851 395.313 297.669C394.52 296.581 389.667 293 389.013 293C388.593 293 388.267 292.637 388.267 292.048C388.267 291.549 388.08 291.277 387.753 291.413C387.427 291.64 387.52 292.093 387.987 292.819C389.107 294.405 388.873 294.723 387.613 293.408C386.727 292.501 385.793 292.139 383.833 291.867L381.173 291.549L381.36 289.781C381.453 288.603 381.313 288.013 380.987 288.013C380.66 288.013 379.773 287.651 378.98 287.243C377.813 286.608 377.533 286.109 377.533 284.976C377.533 283.571 377.627 283.48 379.307 283.48C381.78 283.48 383.133 284.523 383.133 286.427C383.133 287.605 383.273 287.923 383.833 287.741C384.207 287.56 384.533 287.107 384.533 286.653C384.533 286.2 384.86 285.701 385.28 285.565C386.353 285.157 388.733 285.248 388.733 285.656C388.733 285.837 389.387 286.2 390.227 286.427C391.3 286.744 392 287.424 392.7 288.784C393.213 289.827 394.24 291.187 394.94 291.821C395.64 292.456 396.2 293.272 396.2 293.635C396.2 294.043 396.807 294.632 397.6 295.04C398.347 295.403 399.233 296.173 399.513 296.717C399.98 297.533 400.213 300.933 399.98 303.427C399.84 305.059 400.307 311.451 400.633 312.176C400.82 312.629 400.867 314.125 400.727 315.485C400.587 316.8 400.68 318.024 400.913 318.16C401.613 318.613 401.38 321.197 400.54 321.787C399.887 322.24 399.84 322.557 400.307 323.645C401.147 325.731 400.773 327.635 399.42 327.816C398.813 327.907 397.6 328.496 396.76 329.131C395.547 329.992 395.267 330.491 395.453 331.307C395.733 332.44 394.567 335.16 393.773 335.16C393.447 335.16 393.4 335.749 393.54 336.747C393.68 337.608 393.633 338.333 393.353 338.333C393.12 338.333 392.933 338.832 392.933 339.421C392.933 340.509 391.953 341.96 389.34 344.68C388.5 345.541 387.66 346.629 387.52 347.083C387.38 347.491 387.1 347.853 386.913 347.853C386.307 347.853 380.24 352.387 378.467 354.2C376.087 356.557 374.64 357.691 373.473 358.053C372.54 358.325 372.4 358.189 372.4 356.965V356.965Z" fill="#2C1A18"/>
<path d="M348.973 354.789C349.44 354.608 349.44 354.427 349.02 353.883C348.553 353.339 348.553 353.157 349.113 352.795C349.953 352.296 353.08 351.163 354.9 350.755L356.3 350.437L354.9 349.848L353.5 349.259L355.74 349.213H357.98L357.84 350.936C357.7 352.613 357.7 352.613 353.967 353.837C351.913 354.517 349.813 355.061 349.3 355.061C348.787 355.061 348.647 354.925 348.973 354.789V354.789Z" fill="#2C1A18"/>
<path d="M249.9 341.416C247.847 340.691 247.333 340.192 247.333 338.786V337.562L249.527 338.605C250.693 339.194 251.907 339.693 252.187 339.693C252.467 339.693 253.213 340.237 253.82 340.826L254.893 341.96L253.12 341.914C252.093 341.914 250.693 341.688 249.9 341.416V341.416Z" fill="#2C1A18"/>
<path d="M353.267 340.781C353.267 339.874 353.407 339.693 353.873 340.01C354.853 340.736 356.673 340.01 356.767 338.832C356.813 338.061 356.673 337.88 355.973 338.016C355.46 338.152 355.133 338.016 355.133 337.608C355.133 337.2 355.693 336.973 356.767 336.973H358.4V339.194C358.4 341.597 357.98 341.96 354.807 341.96C353.453 341.96 353.267 341.824 353.267 340.781Z" fill="#2C1A18"/>
<path d="M252.607 333.483C251.72 333.301 251.533 332.984 251.533 331.715C251.533 330.355 251.673 330.173 252.7 330.173C253.867 330.173 257.133 331.307 257.133 331.715C257.133 331.805 256.667 331.805 256.107 331.715L255.033 331.488L256.107 332.259C256.667 332.667 257.133 333.165 257.133 333.392C257.133 333.8 254.52 333.845 252.607 333.483Z" fill="#2C1A18"/>
<path d="M382.06 330.309C381.873 330.173 381.733 329.357 381.733 328.496C381.733 327.181 381.873 327 382.947 327C383.927 327 384.067 327.181 383.833 327.907C383.647 328.405 383.74 328.813 384.02 328.813C384.3 328.813 384.72 329.221 385 329.72C385.467 330.536 385.373 330.627 383.927 330.627C383.04 330.627 382.2 330.491 382.06 330.309Z" fill="#2C1A18"/>
<path d="M253.4 326.365C253.4 325.368 253.68 324.733 254.147 324.552C255.36 324.098 255.593 324.733 254.567 325.504C253.68 326.093 253.773 326.138 255.407 325.866C256.62 325.64 257.133 325.685 257.133 326.093C257.133 326.41 257.46 326.546 257.88 326.365C258.44 326.138 258.58 326.274 258.347 326.818C258.207 327.181 258.067 327.634 258.067 327.725C258.067 327.816 257.04 327.906 255.733 327.906H253.4V326.365V326.365Z" fill="#2C1A18"/>
<path d="M258.207 323.056C257.88 322.965 257.6 322.512 257.6 322.058C257.6 321.514 256.9 321.197 254.753 320.789C251.3 320.154 250.6 319.61 250.6 317.661C250.6 316.165 250.647 316.12 252.42 316.12C253.447 316.12 254.567 316.437 254.94 316.8C255.313 317.162 255.733 317.344 255.873 317.208C256.34 316.754 258.067 318.16 258.067 318.93C258.067 319.384 258.393 319.746 258.767 319.746C259.513 319.746 261.8 321.514 261.8 322.058C261.8 322.285 259.047 323.509 258.813 323.328C258.767 323.328 258.487 323.192 258.207 323.056V323.056Z" fill="#2C1A18"/>
<path d="M381.407 322.602C379.493 322.421 379.4 322.33 379.4 320.925C379.4 319.565 379.54 319.429 381.687 318.794C382.993 318.432 383.927 318.25 383.787 318.477C383.647 318.658 383.833 318.84 384.16 318.84C384.533 318.885 384.393 319.157 383.833 319.61L382.9 320.336L383.833 320.018C385.42 319.429 385.7 319.474 385.653 320.336C385.56 320.97 385.7 321.016 386.213 320.608C386.587 320.29 387.053 320.2 387.193 320.381C387.66 320.789 384.953 322.92 384.067 322.829C383.693 322.784 382.48 322.693 381.407 322.602V322.602Z" fill="#2C1A18"/>
<path d="M213.127 319.429C212.94 319.293 212.8 318.477 212.8 317.616C212.8 316.573 213.033 316.12 213.5 316.12C213.873 316.12 214.2 316.392 214.2 316.754C214.2 317.072 214.527 317.616 214.9 317.933C215.46 318.386 215.647 318.296 216.02 317.434C216.44 316.437 216.487 316.528 216.487 318.069C216.533 319.656 216.487 319.746 214.993 319.746C214.107 319.746 213.267 319.61 213.127 319.429V319.429Z" fill="#2C1A18"/>
<path d="M220.267 315.44C220.267 313.944 220.313 313.898 221.9 313.944C222.973 313.989 223.533 314.216 223.533 314.624C223.533 315.077 223.253 315.168 222.553 314.986C221.853 314.76 221.667 314.805 221.853 315.168C222.04 315.44 222.507 315.666 222.88 315.666C223.253 315.666 223.533 315.984 223.533 316.346C223.533 316.8 223.02 317.026 221.9 317.026C220.36 317.026 220.267 316.936 220.267 315.44Z" fill="#2C1A18"/>
<path d="M377.067 315.44C377.067 314.035 377.253 313.808 379.213 312.947C380.427 312.448 382.387 312.04 383.647 312.04H385.933V313.853C385.933 315.485 385.84 315.667 384.767 315.667C384.113 315.667 382.807 315.984 381.873 316.347C380.987 316.709 379.493 317.027 378.653 317.027C377.16 317.027 377.067 316.936 377.067 315.44V315.44ZM385.14 312.901C384.813 312.584 384.253 312.539 383.74 312.72C382.947 313.083 382.947 313.083 383.74 313.264C384.16 313.4 384.533 313.717 384.533 313.989C384.533 314.352 384.72 314.307 385.093 313.944C385.513 313.536 385.513 313.264 385.14 312.901Z" fill="#2C1A18"/>
<path d="M249.2 313.672C249.2 312.176 249.247 312.176 251.673 311.858C256.153 311.36 256.2 311.36 256.2 313.4V315.213H252.7H249.2V313.672Z" fill="#2C1A18"/>
<path d="M324.8 310.635C324.8 309.955 325.033 309.773 325.5 309.955C325.873 310.091 326.2 309.955 326.2 309.683C326.2 309.411 326.713 309.32 327.6 309.501C328.533 309.637 328.953 309.592 328.767 309.32C328.58 309.048 329.093 308.731 329.887 308.595C330.68 308.413 331.24 308.187 331.147 308.005C331.053 307.869 331.567 307.688 332.313 307.643C334.367 307.507 333.947 308.187 331.707 308.731C330.587 308.957 330.307 309.093 331.007 309.048C331.893 308.912 332.22 309.048 331.987 309.411C331.753 309.728 331.987 309.819 332.64 309.683C333.2 309.501 333.667 309.592 333.667 309.773C333.667 310.227 327.787 311.587 326.013 311.587C325.08 311.587 324.8 311.36 324.8 310.635V310.635Z" fill="#2C1A18"/>
<path d="M384.44 309.456C383.833 309.32 383.6 308.821 383.6 307.733C383.6 306.101 384.3 305.693 387.473 305.693H389.247L389.153 307.733L389.013 309.773L387.147 309.728C386.073 309.683 384.86 309.592 384.44 309.456V309.456ZM388.733 307.008C388.733 306.464 386.82 306.509 385.933 307.053C385.42 307.416 385.56 307.461 386.54 307.235C387.333 307.053 387.8 307.144 387.8 307.507C387.8 307.779 388.033 307.869 388.267 307.733C388.547 307.597 388.733 307.28 388.733 307.008Z" fill="#2C1A18"/>
<path d="M257.133 307.733C257.133 306.147 257.133 306.147 259.14 306.192L261.1 306.237L259.233 306.827C257.647 307.325 257.553 307.461 258.533 307.507C259.187 307.552 260.027 307.552 260.4 307.507C260.96 307.416 260.913 307.643 260.213 308.368C259.7 308.912 258.813 309.32 258.207 309.32C257.273 309.32 257.133 309.093 257.133 307.733V307.733Z" fill="#2C1A18"/>
<path d="M247.473 305.421C247.147 305.285 246.867 304.515 246.867 303.653C246.867 302.384 247.053 302.157 248.313 301.885C249.107 301.749 250.133 301.613 250.553 301.613C251.16 301.613 251.16 301.704 250.647 302.021C249.807 302.565 255.36 303.155 257.88 302.837L259.653 302.611L258.533 303.472L257.367 304.379L259.14 303.699C260.587 303.109 260.867 303.109 260.867 303.653C260.867 304.016 260.4 304.56 259.84 304.832C258.767 305.376 248.5 305.875 247.473 305.421Z" fill="#2C1A18"/>
<path d="M384.16 304.242C383.833 303.925 383.6 302.928 383.6 301.976C383.6 300.48 383.74 300.253 384.673 300.253C386.073 300.253 387.147 300.933 386.4 301.386C386.027 301.613 386.12 301.885 386.727 302.338C387.24 302.701 387.333 302.928 387.007 302.973C386.68 302.973 386.4 303.2 386.4 303.472C386.4 303.698 386.587 303.834 386.82 303.698C387.053 303.562 387.333 303.744 387.52 304.106C387.707 304.605 387.427 304.786 386.26 304.786C385.42 304.786 384.487 304.56 384.16 304.242Z" fill="#2C1A18"/>
<path d="M383.04 298.666C380.987 297.624 380.8 297.352 380.8 295.901V294.224L382.9 294.541C384.067 294.677 385.933 294.949 387.1 295.085C390.32 295.538 389.62 296.128 386.073 295.946C382.667 295.81 383.413 296.49 386.913 296.808C388.873 296.989 389.34 297.533 387.94 298.032C387.287 298.304 387.333 298.394 388.36 298.394C390.18 298.44 390.367 299.165 388.593 299.21C387.753 299.21 386.68 299.346 386.167 299.482C385.607 299.664 384.393 299.346 383.04 298.666V298.666Z" fill="#2C1A18"/>
<path d="M320.507 298.304C317.987 297.397 317.8 297.216 317.8 295.856C317.8 294.405 317.893 294.36 319.62 294.36C321.347 294.36 324.333 295.131 324.8 295.72C324.94 295.856 325.547 296.355 326.2 296.808L327.367 297.624L325.733 297.352L324.1 297.125L325.64 297.624C326.433 297.896 327.133 298.395 327.133 298.712C327.133 299.664 323.633 299.437 320.507 298.304Z" fill="#2C1A18"/>
<path d="M1.21334 295.176C0.700011 294.45 0.466675 293.09 0.466675 290.642V287.106H2.28667C4.06001 287.106 4.06001 287.106 4.38667 289.282C4.52667 290.461 4.80668 292.229 4.94668 293.181C5.18001 294.586 5.08667 295.085 4.38667 295.584C3.17334 296.445 2.00668 296.309 1.21334 295.176V295.176Z" fill="#2C1A18"/>
<path d="M8.21333 291.323C7.93333 290.733 7.79333 290.688 7.51333 291.141C6.99999 291.957 6.53333 290.733 6.53333 288.421C6.53333 286.699 6.57999 286.653 8.16666 286.653H9.79999L9.05332 287.787C8.53999 288.557 8.49332 288.92 8.81999 288.92C9.14666 288.92 9.23999 289.147 9.09999 289.373C8.95999 289.645 8.95999 290.053 9.14666 290.325C9.33333 290.688 9.56666 290.643 9.84666 290.235C10.08 289.872 10.2667 289.827 10.2667 290.099C10.2667 290.371 9.89333 290.96 9.37999 291.368C8.58666 292.093 8.49333 292.093 8.21333 291.323V291.323Z" fill="#2C1A18"/>
<path d="M8.35335 283.843C7.37335 280.216 7.51334 272.781 8.54001 270.696C9.24001 269.291 9.33335 268.384 9.05335 265.528L8.72669 262.128L10.5467 262.264C12.0867 262.355 12.3667 262.536 12.32 263.397C12.32 263.941 12.46 264.304 12.6934 264.168C12.88 264.032 13.0667 264.259 13.0667 264.667C13.0667 265.075 12.88 265.256 12.6 265.12C12.2733 264.939 12.2733 265.256 12.6 266.027C12.8333 266.661 12.88 267.115 12.6467 266.979C12.4134 266.843 12.1334 267.296 11.9934 268.021C11.8534 268.747 11.5733 269.88 11.3867 270.56C11.1533 271.467 11.2 271.739 11.62 271.512C12.2267 271.149 11.9467 273.915 11.1533 276.499C10.92 277.269 10.78 279.672 10.8733 281.803C11.0133 285.656 10.8267 286.2 9.33335 286.2C9.14668 286.2 8.68001 285.112 8.35335 283.843Z" fill="#2C1A18"/>
<path d="M260.4 284.16V282.573H262.733C265.113 282.573 265.953 283.253 264.04 283.616L262.967 283.797L264.04 283.888C264.74 283.933 265.067 284.205 265.067 284.84C265.067 285.611 264.74 285.747 262.733 285.747H260.4V284.16Z" fill="#2C1A18"/>
<path d="M3.26672 280.533C3.26672 279.037 3.36006 278.946 4.90006 278.946C6.48672 278.946 6.53339 278.992 6.53339 280.669C6.53339 281.757 6.39339 282.12 6.11339 281.712C5.83339 281.304 5.60006 281.258 5.41339 281.621C5.22673 281.893 4.66672 282.12 4.15339 282.12C3.45339 282.12 3.26672 281.802 3.26672 280.533V280.533Z" fill="#2C1A18"/>
<path d="M168.373 202.152C167.907 201.517 167.533 200.384 167.533 199.658C167.533 198.344 167.627 198.253 169.213 198.253C170.567 198.253 170.847 198.389 170.613 198.978C170.473 199.386 170.333 199.794 170.333 199.885C170.333 200.021 170.1 199.976 169.82 199.84C169.54 199.658 169.587 199.93 169.913 200.429C170.24 200.973 170.66 201.29 170.847 201.154C171.033 201.064 171.08 201.426 170.94 201.97C170.753 202.832 170.8 202.877 171.267 202.333C171.733 201.744 171.78 201.744 171.593 202.333C171.313 203.466 169.26 203.376 168.373 202.152V202.152Z" fill="#2C1A18"/>
<path d="M164.873 191.634C163.24 190.32 162.867 189.73 162.867 188.461C162.867 186.92 163.427 186.421 164.08 187.464C164.313 187.781 164.173 187.872 163.753 187.645C163.38 187.418 163.847 187.872 164.733 188.552C165.62 189.277 167.207 190.637 168.233 191.544L170.1 193.221L168.467 193.266C167.253 193.266 166.32 192.813 164.873 191.634Z" fill="#2C1A18"/>
<path d="M96.46 125.856C96.2733 125.72 96.1333 124.904 96.1333 124.043C96.1333 123 96.3666 122.456 96.9733 122.275C97.3933 122.139 98.1866 121.821 98.7466 121.549C99.3066 121.323 100.24 121.187 100.847 121.277C101.733 121.368 102.013 121.731 102.107 122.819C102.247 123.997 101.967 124.451 100.893 125.221C99.54 126.128 97.1133 126.491 96.46 125.856V125.856Z" fill="#2C1A18"/>
<path d="M133.933 66.0612C133.933 64.5199 133.98 64.4746 135.473 64.6106C136.78 64.7466 136.967 64.9279 137.107 66.2425C137.247 67.6479 137.2 67.6932 135.613 67.6932C133.98 67.6932 133.933 67.6479 133.933 66.0612V66.0612Z" fill="#2C1A18"/>
<path d="M163.8 66.1067C163.8 64.52 163.8 64.52 165.9 64.52C168 64.52 168 64.52 168 66.1067C168 67.6934 168 67.6934 165.9 67.6934C163.8 67.6934 163.8 67.6934 163.8 66.1067Z" fill="#2C1A18"/>
<path d="M138.133 66.1065C138.133 65.1091 138.32 64.9731 139.767 64.9731C141.213 64.9731 141.4 65.1091 141.4 66.1065C141.4 67.1038 141.213 67.2398 139.767 67.2398C138.32 67.2398 138.133 67.1038 138.133 66.1065Z" fill="#2C1A18"/>
<path d="M164.733 62.5253C164.733 60.7573 165.247 60.4399 168.28 60.4399C170.287 60.4399 170.333 60.4853 170.333 61.9813C170.333 63.3866 170.193 63.5226 168.607 63.7946C165.107 64.3386 164.733 64.2026 164.733 62.5253Z" fill="#2C1A18"/>
<path d="M109.2 61.573C109.2 60.077 109.293 59.9863 110.833 59.9863C112.373 59.9863 112.467 60.077 112.467 61.573C112.467 63.069 112.373 63.1597 110.833 63.1597C109.293 63.1597 109.2 63.069 109.2 61.573Z" fill="#2C1A18"/>
<path d="M180.973 59.8052C180.46 59.4425 180.133 58.6265 180.133 57.7652C180.133 56.4959 180.273 56.3599 181.533 56.3599C184.007 56.3599 185.267 57.2212 185.267 58.9439C185.267 60.3945 185.173 60.4399 183.54 60.4399C182.56 60.4399 181.393 60.1225 180.973 59.8052Z" fill="#2C1A18"/>
<path d="M114.333 59.533C114.333 59.3063 114.007 59.0797 113.633 59.0797C113.26 59.0797 112.933 58.8983 112.933 58.6263C112.933 58.3997 112.607 58.173 112.233 58.173C111.86 58.173 111.533 57.9917 111.533 57.7197C111.533 57.493 111.207 57.2663 110.833 57.2663C110.413 57.2663 109.993 56.949 109.853 56.5863C109.387 55.453 108.733 55.8157 108.733 57.2663C108.733 58.5357 108.593 58.6263 107.1 58.6263C105.56 58.6263 105.467 58.5357 105.467 57.085C105.467 55.861 105.653 55.4983 106.447 55.3623C107.24 55.2717 106.913 54.8637 104.673 53.3677C103.18 52.325 101.033 51.0557 99.8667 50.4663C98.7 49.9223 97.6733 49.2877 97.5333 49.1517C97.3933 48.9703 96.4133 48.4717 95.34 48.0183C94.22 47.5197 93.3333 46.9757 93.3333 46.749C93.3333 46.5677 92.9133 46.3863 92.4 46.3863C91.7 46.3863 91.4667 46.069 91.4667 45.253C91.4667 44.2557 91.56 44.165 92.7267 44.6183C93.4267 44.845 96.18 46.205 98.8867 47.565C101.593 48.9703 103.413 49.741 102.947 49.3783C102.06 48.6983 102.107 48.653 103.647 48.653C104.86 48.653 106.073 49.197 108.313 50.7837C109.947 52.0077 111.393 53.0957 111.44 53.277C111.533 53.5037 111.907 53.6397 112.28 53.6397C112.653 53.6397 113.073 53.957 113.213 54.3197C113.4 54.6823 113.773 54.9997 114.147 54.9997C114.52 54.9997 114.8 55.2263 114.8 55.453C114.8 55.725 115.127 55.9063 115.5 55.9063C115.873 55.9063 116.2 56.133 116.2 56.3597C116.2 56.6317 116.527 56.813 116.9 56.813C117.32 56.813 117.6 57.2663 117.6 57.9917C117.6 58.7623 117.413 59.0344 117.04 58.8077C116.62 58.581 116.62 58.717 117.087 59.2157C117.647 59.8957 117.553 59.9863 116.013 59.9863C115.08 59.9863 114.333 59.805 114.333 59.533V59.533Z" fill="#2C1A18"/>
<path d="M99.1667 56.5866C98.14 56.2693 95.9 55.6346 94.1733 55.1813C91 54.4106 91 54.4106 91 52.824V51.2373L93.24 51.464C94.4533 51.6 97.4867 52.28 99.96 53.0053C104.533 54.32 104.533 54.32 104.533 55.816C104.533 57.2213 104.44 57.2666 102.807 57.2213C101.827 57.2213 100.193 56.904 99.1667 56.5866V56.5866Z" fill="#2C1A18"/>
<path d="M85.1667 43.893C84.14 43.5757 82.4134 43.077 81.34 42.805C79.66 42.3517 79.3334 42.0797 79.3334 41.1277C79.3334 40.1757 79.4734 39.9943 80.1734 40.2663C80.5934 40.493 81.34 40.629 81.8067 40.6743C82.2267 40.6743 82.6 40.8103 82.6 40.9917C82.6 41.173 83.3467 41.445 84.2334 41.581C86.52 42.0343 90.0667 43.5303 90.0667 44.1197C90.0667 44.7543 87.4534 44.6183 85.1667 43.893V43.893Z" fill="#2C1A18"/>
<path d="M80.2667 39.8133C79.4734 39.36 79.3334 39.1786 79.8467 39.1333C80.2667 39.1333 80.8734 39.4506 81.2 39.8133C81.9 40.6293 81.76 40.6293 80.2667 39.8133Z" fill="#2C1A18"/>
<path d="M91.1866 28.0267C90.3933 27.6187 89.2733 26.5307 88.62 25.5334C88.0133 24.5361 87.2666 23.7201 86.9866 23.7201C86.3333 23.7201 85.6799 17.6907 86.0999 15.7414C86.6599 13.384 87.3599 12.3867 88.5733 12.3867C89.5533 12.3867 89.5999 12.4774 89.1333 13.0667C88.6666 13.6107 88.6666 13.7467 89.1333 13.7467C89.5533 13.7467 89.5999 14.5174 89.3666 16.8294C88.9466 20.8187 89.6933 23.4481 91.6999 25.3974C92.8666 26.5307 93.66 26.8934 94.92 26.8934C98.56 26.8934 101.78 21.9521 101.033 17.4187C100.38 13.1574 100.38 12.8401 101.5 12.8401C102.06 12.8401 102.947 13.2934 103.507 13.8827C104.393 14.7894 104.533 15.4694 104.533 18.6427C104.533 21.9067 104.44 22.3601 103.693 22.3601C103.18 22.3601 102.667 22.904 102.293 23.856C102.013 24.672 100.987 26.0321 100.1 26.8934C98.6533 28.2534 98.1399 28.4347 95.5266 28.5707C93.5666 28.7067 92.1666 28.5254 91.1866 28.0267V28.0267Z" fill="#2C1A18"/>
<path d="M32.8534 26.9386C30.8 25.7146 29.7734 23.2666 29.6334 19.3226C29.5867 17.5092 29.4001 15.8772 29.2601 15.6959C28.7001 15.1972 28.9334 12.2052 29.5867 11.3892C30.0067 10.8452 30.8001 10.5732 32.0134 10.5732C33.8334 10.6186 33.8334 10.6186 32.6667 11.2532C31.8267 11.7519 31.6867 11.8879 32.2934 11.9332C32.9001 11.9332 33.0867 12.2959 32.9934 13.2479C32.9467 13.9732 32.7134 14.4719 32.4801 14.2906C32.2467 14.1546 32.2 14.3812 32.34 14.8346C32.5267 15.2426 32.4801 15.5146 32.2467 15.3786C31.2667 14.7439 30.9401 18.6879 31.7334 21.5439C32.3867 23.7199 35.0467 25.9866 36.9134 25.9866C38.9201 25.9866 40.6934 24.8532 42.0467 22.7679C43.4001 20.5919 43.8667 20.5466 43.8667 22.5866C43.8667 23.8559 43.4934 24.5812 42.0467 25.9866C40.2734 27.7092 40.0867 27.7999 37.24 27.7999C35.1867 27.7999 33.88 27.5279 32.8534 26.9386V26.9386Z" fill="#2C1A18"/>
<path d="M117.74 7.39982C117.6 6.90116 117.087 6.49316 116.62 6.49316C115.92 6.49316 115.733 6.17582 115.733 4.90649C115.733 3.41049 115.827 3.31982 117.367 3.31982C118.487 3.31982 119 3.54649 119 3.95449C119 4.31715 119.467 4.67983 120.027 4.7705C120.68 4.86116 121.147 5.26916 121.24 5.81316C121.333 6.35716 121.24 6.53849 121.007 6.22115C120.82 5.94915 120.073 5.63182 119.327 5.49582C118.067 5.26915 118.113 5.26916 119.793 6.76516L121.567 8.26115L119.793 8.30649C118.347 8.30649 117.927 8.12516 117.74 7.39982V7.39982Z" fill="#2C1A18"/>
<path d="M108.267 2.45849C108.267 1.95982 108.547 1.46116 108.873 1.37049C109.34 1.18916 109.34 1.09849 108.873 1.09849C107.473 1.00782 108.407 0.146484 109.9 0.146484C111.44 0.146484 111.533 0.237151 111.533 1.73315C111.533 3.22915 111.44 3.31982 109.9 3.31982C108.593 3.31982 108.267 3.13849 108.267 2.45849Z" fill="#2C1A18"/>
</svg>
