<svg width="101" height="84" viewBox="0 0 101 84" fill="none" xmlns="http://www.w3.org/2000/svg">
<path d="M50.1 83.5477C50.1 83.4053 50.17 83.3697 50.45 83.3697C50.85 83.3697 50.94 83.5833 50.58 83.6723C50.2 83.7613 50.1 83.7346 50.1 83.5477Z" fill="#525252"/>
<path d="M52.36 83.5655C52.33 83.5388 52.3 83.4409 52.3 83.3519C52.3 83.2273 52.38 83.1917 52.65 83.1917C52.87 83.1917 53 83.2362 53 83.3074C53 83.4231 52.45 83.6545 52.36 83.5655Z" fill="#525252"/>
<path d="M46.68 83.3964C46.35 83.3252 46.48 83.1028 46.85 83.1028C47.13 83.1028 47.2 83.1383 47.2 83.2807C47.2 83.4587 47.06 83.4854 46.68 83.3964Z" fill="#525252"/>
<path d="M45.78 83.2184C45.45 83.1472 45.58 82.9248 45.95 82.9248C46.23 82.9248 46.3 82.9604 46.3 83.1027C46.3 83.2807 46.16 83.3074 45.78 83.2184Z" fill="#525252"/>
<path d="M54.63 83.1295C54.56 83.1028 54.5 83.0138 54.5 82.9159C54.5 82.7824 54.57 82.7468 54.85 82.7468C55.04 82.7468 55.2 82.7735 55.2 82.818C55.2 82.907 55 83.165 55 83.0672C55 83.0227 54.94 83.0316 54.88 83.076C54.81 83.1294 54.69 83.1473 54.63 83.1295V83.1295Z" fill="#525252"/>
<path d="M45.03 83.0138C44.9 82.9693 44.8 82.9604 44.8 82.996C44.8 83.0761 44.6 82.8091 44.6 82.729C44.6 82.6845 44.76 82.6578 44.95 82.6578C45.26 82.6578 45.3 82.6845 45.3 82.8803C45.3 83.0049 45.29 83.1027 45.28 83.0938C45.26 83.0938 45.15 83.0582 45.03 83.0138Z" fill="#525252"/>
<path d="M55.8 82.5955C55.8 82.3196 55.82 82.3018 56.15 82.3018C56.57 82.3018 56.61 82.4442 56.23 82.5955C56.07 82.6489 55.92 82.7379 55.88 82.7913C55.84 82.8358 55.8 82.7468 55.8 82.5955Z" fill="#525252"/>
<path d="M57.3 81.8124C57.3 81.6166 57.34 81.5899 57.65 81.5899C58.08 81.5899 58.09 81.6789 57.71 81.8836C57.33 82.0794 57.3 82.0793 57.3 81.8124Z" fill="#525252"/>
<path d="M41.74 81.4742C41.62 81.4208 41.47 81.3051 41.41 81.2161C41.31 81.0738 41.34 81.056 41.65 81.056C41.97 81.056 42 81.0738 42 81.3229C42 81.4742 41.99 81.581 41.98 81.581C41.96 81.5721 41.85 81.5276 41.74 81.4742Z" fill="#525252"/>
<path d="M58.1 81.314C58.1 81.0827 58.13 81.056 58.45 81.056C58.76 81.056 58.79 81.0738 58.69 81.2161C58.63 81.2962 58.47 81.4208 58.34 81.4742C58.12 81.5632 58.1 81.5543 58.1 81.314Z" fill="#525252"/>
<path d="M60.5 78.7867C60.5 78.5108 60.53 78.4752 60.75 78.4752C61.05 78.4752 61.05 78.5019 60.83 78.8401C60.6 79.1782 60.5 79.1693 60.5 78.7867Z" fill="#525252"/>
<path d="M39.03 78.5998C39.06 78.5642 39.03 78.4574 38.95 78.3506C38.74 78.0926 38.76 78.0303 39.05 78.0303C39.27 78.0303 39.3 78.0659 39.3 78.3417C39.3 78.5731 39.26 78.6532 39.13 78.6532C39.04 78.6532 39 78.6265 39.03 78.5998V78.5998Z" fill="#525252"/>
<path d="M61 77.9858C61 77.7099 61.03 77.6743 61.25 77.6743C61.55 77.6743 61.55 77.701 61.33 78.0392C61.1 78.3773 61 78.3684 61 77.9858Z" fill="#525252"/>
<path d="M38.46 77.5052C38.43 77.4696 38.36 77.3273 38.31 77.1938C38.21 76.9802 38.23 76.9624 38.45 76.9624C38.67 76.9624 38.7 76.998 38.7 77.2739C38.7 77.5675 38.58 77.6832 38.46 77.5052Z" fill="#525252"/>
<path d="M61.9 76.117C61.9 75.8678 61.94 75.8055 62.1 75.8055C62.32 75.8055 62.36 75.9835 62.2 76.2594C62.04 76.5263 61.9 76.464 61.9 76.117Z" fill="#525252"/>
<path d="M37.06 73.474C36.96 73.1358 36.99 73.0468 37.2 73.0468C37.36 73.0468 37.4 73.1091 37.4 73.3583C37.4 73.7142 37.16 73.7943 37.06 73.474Z" fill="#525252"/>
<path d="M62.8 72.4683C62.8 72.2192 62.84 72.1569 63 72.1569C63.21 72.1569 63.24 72.2459 63.14 72.584C63.04 72.9044 62.8 72.8243 62.8 72.4683Z" fill="#525252"/>
<path d="M36.86 71.3026C36.77 70.9822 36.88 70.555 37.06 70.555C37.16 70.555 37.2 70.6796 37.2 71.0445C37.2 71.4005 37.16 71.5339 37.06 71.5339C36.98 71.5339 36.89 71.4272 36.86 71.3026Z" fill="#525252"/>
<path d="M62.6 68.4638C62.6 68.1078 62.84 68.0277 62.94 68.357C63.04 68.6862 63.01 68.7752 62.8 68.7752C62.64 68.7752 62.6 68.7129 62.6 68.4638Z" fill="#525252"/>
<path d="M37.2 67.9565C37.2 67.6895 37.33 67.4404 37.46 67.4404C37.55 67.4404 37.6 67.5472 37.6 67.7518C37.6 68.001 37.56 68.0633 37.4 68.0633C37.29 68.0633 37.2 68.0099 37.2 67.9565Z" fill="#525252"/>
<path d="M62.5 66.9509C62.5 66.6572 62.52 66.6395 62.85 66.6395C63.04 66.6395 63.2 66.6572 63.2 66.6839C63.2 66.7551 62.64 67.2624 62.56 67.2624C62.53 67.2624 62.5 67.12 62.5 66.9509Z" fill="#525252"/>
<path d="M36.48 66.7551C36.15 66.6839 36.28 66.4615 36.65 66.4615C36.93 66.4615 37 66.4971 37 66.6394C37 66.8174 36.86 66.8441 36.48 66.7551Z" fill="#525252"/>
<path d="M34.38 66.4882C34.05 66.417 34.18 66.1945 34.55 66.1945C34.83 66.1945 34.9 66.2301 34.9 66.3725C34.9 66.5505 34.76 66.5772 34.38 66.4882Z" fill="#525252"/>
<path d="M33.08 66.3369C32.68 66.2123 32.72 66.0165 33.15 66.0165C33.43 66.0165 33.5 66.0521 33.5 66.1856C33.5 66.417 33.41 66.4526 33.08 66.3369V66.3369Z" fill="#525252"/>
<path d="M66 66.2835C66 66.1411 66.07 66.1055 66.35 66.1055C66.75 66.1055 66.84 66.3191 66.48 66.4081C66.1 66.4971 66 66.4704 66 66.2835Z" fill="#525252"/>
<path d="M68.06 66.2123C68.03 66.1856 68 66.0877 68 65.9987C68 65.8741 68.08 65.8385 68.35 65.8385C68.57 65.8385 68.7 65.883 68.7 65.9542C68.7 66.0699 68.15 66.3013 68.06 66.2123Z" fill="#525252"/>
<path d="M30.38 65.9809C29.98 65.8563 30.02 65.6605 30.45 65.6605C30.73 65.6605 30.8 65.6961 30.8 65.8296C30.8 66.061 30.71 66.0966 30.38 65.9809V65.9809Z" fill="#525252"/>
<path d="M27.78 65.5983C27.45 65.5271 27.58 65.3046 27.95 65.3046C28.23 65.3046 28.3 65.3402 28.3 65.4826C28.3 65.6606 28.16 65.6873 27.78 65.5983Z" fill="#525252"/>
<path d="M73.2 65.3046C73.2 65.1622 73.27 65.1266 73.55 65.1266C73.95 65.1266 74.04 65.3402 73.68 65.4292C73.3 65.5182 73.2 65.4915 73.2 65.3046Z" fill="#525252"/>
<path d="M25.88 65.3313C25.55 65.2601 25.68 65.0376 26.05 65.0376C26.33 65.0376 26.4 65.0732 26.4 65.2156C26.4 65.3936 26.26 65.4203 25.88 65.3313Z" fill="#525252"/>
<path d="M19.88 64.4414C19.55 64.3702 19.68 64.1477 20.05 64.1477C20.33 64.1477 20.4 64.1833 20.4 64.3257C20.4 64.5037 20.26 64.5304 19.88 64.4414Z" fill="#525252"/>
<path d="M16.98 63.9964C16.65 63.9252 16.78 63.7027 17.15 63.7027C17.43 63.7027 17.5 63.7383 17.5 63.8807C17.5 64.0587 17.36 64.0854 16.98 63.9964Z" fill="#525252"/>
<path d="M83.2 63.7917C83.2 63.6494 83.27 63.6138 83.55 63.6138C83.95 63.6138 84.04 63.8273 83.68 63.9163C83.3 64.0053 83.2 63.9786 83.2 63.7917Z" fill="#525252"/>
<path d="M15.88 63.8184C15.55 63.7472 15.68 63.5248 16.05 63.5248C16.33 63.5248 16.4 63.5604 16.4 63.7028C16.4 63.8807 16.26 63.9074 15.88 63.8184Z" fill="#525252"/>
<path d="M14.18 63.5515C13.85 63.4803 13.98 63.2578 14.35 63.2578C14.63 63.2578 14.7 63.2934 14.7 63.4358C14.7 63.6138 14.56 63.6405 14.18 63.5515Z" fill="#525252"/>
<path d="M12.48 63.2845C12.15 63.2133 12.28 62.9908 12.65 62.9908C12.93 62.9908 13 63.0264 13 63.1688C13 63.3468 12.86 63.3735 12.48 63.2845Z" fill="#525252"/>
<path d="M11.38 63.1065C11.05 63.0353 11.18 62.8128 11.55 62.8128C11.83 62.8128 11.9 62.8484 11.9 62.9908C11.9 63.1688 11.76 63.1955 11.38 63.1065Z" fill="#525252"/>
<path d="M90.5 62.6349C90.5 62.4925 90.57 62.4569 90.85 62.4569C91.25 62.4569 91.34 62.6705 90.98 62.7594C90.6 62.8484 90.5 62.8217 90.5 62.6349Z" fill="#525252"/>
<path d="M92.1 62.3679C92.1 62.2255 92.17 62.1899 92.45 62.1899C92.85 62.1899 92.94 62.4035 92.58 62.4925C92.2 62.5815 92.1 62.5548 92.1 62.3679Z" fill="#525252"/>
<path d="M93.2 62.1899C93.2 62.0475 93.27 62.0119 93.55 62.0119C93.95 62.0119 94.04 62.2255 93.68 62.3145C93.3 62.4035 93.2 62.3768 93.2 62.1899Z" fill="#525252"/>
<path d="M4.88 62.0386C4.55 61.9674 4.68 61.7449 5.05 61.7449C5.33 61.7449 5.4 61.7805 5.4 61.9229C5.4 62.1009 5.26 62.1276 4.88 62.0386Z" fill="#525252"/>
<path d="M94.8 61.9318C94.8 61.7716 95.19 61.656 95.78 61.656C96.22 61.656 96.01 61.9051 95.5 62.003C94.83 62.1276 94.8 62.1276 94.8 61.9318Z" fill="#525252"/>
<path d="M97.4 61.478C97.4 61.3356 97.47 61.3 97.75 61.3C98.15 61.3 98.24 61.5136 97.88 61.6026C97.5 61.6916 97.4 61.6649 97.4 61.478Z" fill="#525252"/>
<path d="M1.4 61.3712C1.4 61.2466 1.48 61.211 1.75 61.211C2.03 61.211 2.1 61.2466 2.1 61.389C2.1 61.5403 2.04 61.567 1.75 61.5403C1.49 61.5314 1.4 61.478 1.4 61.3712V61.3712Z" fill="#525252"/>
<path d="M99.7 60.8995C99.7 60.5436 99.94 60.4635 100.04 60.7927C100.14 61.122 100.11 61.211 99.9 61.211C99.74 61.211 99.7 61.1487 99.7 60.8995Z" fill="#525252"/>
<path d="M99.6 59.5647C99.6 59.2087 99.84 59.1286 99.94 59.4579C100.04 59.7872 100.01 59.8761 99.8 59.8761C99.64 59.8761 99.6 59.8139 99.6 59.5647Z" fill="#525252"/>
<path d="M30.2 59.5202C30.2 59.3333 30.3 59.3066 30.68 59.3956C31.04 59.4846 30.95 59.6982 30.55 59.6982C30.27 59.6982 30.2 59.6626 30.2 59.5202Z" fill="#525252"/>
<path d="M31.9 59.5736C31.9 59.4579 32.18 59.3422 32.48 59.3422C32.54 59.3422 32.6 59.4223 32.6 59.5202C32.6 59.6626 32.53 59.6982 32.25 59.6982C32.02 59.6982 31.9 59.6537 31.9 59.5736Z" fill="#525252"/>
<path d="M28.3 59.4312C28.3 59.2443 28.4 59.2176 28.78 59.3066C29.14 59.3956 29.05 59.6092 28.65 59.6092C28.37 59.6092 28.3 59.5736 28.3 59.4312Z" fill="#525252"/>
<path d="M27.2 59.3422C27.2 59.1553 27.3 59.1286 27.68 59.2176C28.04 59.3066 27.95 59.5202 27.55 59.5202C27.27 59.5202 27.2 59.4846 27.2 59.3422Z" fill="#525252"/>
<path d="M34.8 59.3066C34.8 59.1909 35.08 59.0752 35.38 59.0752C35.44 59.0752 35.5 59.1553 35.5 59.2532C35.5 59.3956 35.43 59.4312 35.15 59.4312C34.92 59.4312 34.8 59.3867 34.8 59.3066Z" fill="#525252"/>
<path d="M0.0999985 59.2354C0.0999985 58.9684 0.229999 58.7193 0.359999 58.7193C0.449999 58.7193 0.499999 58.8261 0.499999 59.0307C0.499999 59.2799 0.459999 59.3422 0.299998 59.3422C0.189998 59.3422 0.0999985 59.2888 0.0999985 59.2354Z" fill="#525252"/>
<path d="M35.7 59.1286C35.7 59.0574 35.84 58.9773 36.03 58.9417C36.2 58.9061 36.41 58.835 36.48 58.7905C36.54 58.7371 36.6 58.7193 36.6 58.7549C36.6 58.7816 36.71 58.7638 36.85 58.7193C37.07 58.6392 37.1 58.657 37.1 58.8528C37.1 59.0485 37.06 59.0752 36.75 59.0752C36.56 59.0752 36.4 59.1197 36.4 59.1642C36.4 59.2176 36.24 59.2532 36.05 59.2532C35.81 59.2532 35.7 59.2087 35.7 59.1286Z" fill="#525252"/>
<path d="M99.5 58.4968C99.5 58.123 99.73 58.1497 99.89 58.5502C99.98 58.7904 99.97 58.8082 99.74 58.8082C99.53 58.8082 99.5 58.7637 99.5 58.4968Z" fill="#525252"/>
<path d="M28.93 58.5235C28.48 58.39 28.5 58.1853 28.95 58.1853C29.26 58.1853 29.3 58.212 29.3 58.4078C29.3 58.5324 29.29 58.6303 29.28 58.6214C29.26 58.6125 29.1 58.568 28.93 58.5235Z" fill="#525252"/>
<path d="M30.58 58.568C30.25 58.4968 30.38 58.2743 30.75 58.2743C31.03 58.2743 31.1 58.3099 31.1 58.4523C31.1 58.6303 30.96 58.657 30.58 58.568Z" fill="#525252"/>
<path d="M31.6 58.4523C31.6 58.3099 31.67 58.2743 31.95 58.2743C32.35 58.2743 32.44 58.4879 32.08 58.5769C31.7 58.6659 31.6 58.6392 31.6 58.4523Z" fill="#525252"/>
<path d="M27.93 58.4345C27.48 58.301 27.5 58.0963 27.95 58.0963C28.26 58.0963 28.3 58.123 28.3 58.3188C28.3 58.4434 28.29 58.5413 28.28 58.5324C28.26 58.5235 28.1 58.479 27.93 58.4345Z" fill="#525252"/>
<path d="M33.2 58.3633C33.2 58.2209 33.27 58.1853 33.55 58.1853C33.95 58.1853 34.04 58.3989 33.68 58.4879C33.3 58.5769 33.2 58.5502 33.2 58.3633Z" fill="#525252"/>
<path d="M19.88 58.39C19.68 58.3633 19.6 58.301 19.6 58.1764C19.6 57.9806 19.63 57.9717 20.3 58.1052C20.61 58.1675 20.8 58.2476 20.8 58.3277C20.8 58.4523 20.5 58.4701 19.88 58.39V58.39Z" fill="#525252"/>
<path d="M27.18 58.4078C27.15 58.3811 26.84 58.3188 26.49 58.2743C25.27 58.1052 25.2 58.0874 25.2 57.9628C25.2 57.8027 25.28 57.8027 26.41 57.9361C27.24 58.034 27.3 58.0518 27.3 58.2476C27.3 58.4523 27.27 58.4879 27.18 58.4078Z" fill="#525252"/>
<path d="M36.3 57.8383C36.3 57.687 36.36 57.6514 36.65 57.6514C36.84 57.6514 37 57.6781 37 57.7226C37 57.865 36.84 57.9628 36.58 57.9895C36.35 58.0162 36.3 57.9806 36.3 57.8383V57.8383Z" fill="#525252"/>
<path d="M15.9 57.6692C15.9 57.4289 15.98 57.3933 16.31 57.5001C16.72 57.6425 16.68 57.8294 16.25 57.8294C15.98 57.8294 15.9 57.7938 15.9 57.6692V57.6692Z" fill="#525252"/>
<path d="M39.15 57.7404C39.18 57.6959 39.34 57.5713 39.5 57.4734C39.8 57.2865 39.8 57.2865 39.8 57.5535C39.8 57.8116 39.77 57.8294 39.44 57.8294C39.24 57.8294 39.11 57.7938 39.15 57.7404Z" fill="#525252"/>
<path d="M14.3 57.4378C14.3 57.2331 14.32 57.2242 14.65 57.3221C14.84 57.3755 15 57.4645 15 57.5357C15 57.6069 14.87 57.6514 14.65 57.6514C14.35 57.6514 14.3 57.6247 14.3 57.4378Z" fill="#525252"/>
<path d="M13.2 57.3844C13.2 57.1975 13.3 57.1708 13.68 57.2598C14.04 57.3488 13.95 57.5624 13.55 57.5624C13.27 57.5624 13.2 57.5268 13.2 57.3844Z" fill="#525252"/>
<path d="M12 57.2954C12 57.1085 12.1 57.0818 12.48 57.1708C12.84 57.2598 12.75 57.4734 12.35 57.4734C12.07 57.4734 12 57.4378 12 57.2954Z" fill="#525252"/>
<path d="M7.5 57.2598C7.5 57.1441 7.78 57.0284 8.08 57.0284C8.14 57.0284 8.2 57.1085 8.2 57.2064C8.2 57.3488 8.13 57.3844 7.85 57.3844C7.62 57.3844 7.5 57.3399 7.5 57.2598Z" fill="#525252"/>
<path d="M10 57.2064C10 57.0195 10.1 56.9928 10.48 57.0818C10.84 57.1708 10.75 57.3844 10.35 57.3844C10.07 57.3844 10 57.3488 10 57.2064Z" fill="#525252"/>
<path d="M16.08 56.6992C15.75 56.628 15.88 56.4055 16.25 56.4055C16.53 56.4055 16.6 56.4411 16.6 56.5835C16.6 56.7615 16.46 56.7882 16.08 56.6992Z" fill="#525252"/>
<path d="M12.18 56.3432C11.85 56.272 11.98 56.0495 12.35 56.0495C12.63 56.0495 12.7 56.0851 12.7 56.2275C12.7 56.4055 12.56 56.4322 12.18 56.3432Z" fill="#525252"/>
<path d="M7.3 56.1385C7.3 55.9962 7.37 55.9606 7.65 55.9606C8.05 55.9606 8.14 56.1741 7.78 56.2631C7.4 56.3521 7.3 56.3254 7.3 56.1385Z" fill="#525252"/>
<path d="M40 55.124C40 54.8393 40.03 54.8037 40.25 54.8037C40.49 54.8037 40.5 54.8126 40.37 55.0884C40.18 55.4978 40 55.5156 40 55.124Z" fill="#525252"/>
<path d="M0.799999 54.5189C0.799999 54.2519 0.93 54.0027 1.06 54.0027C1.15 54.0027 1.2 54.1095 1.2 54.3142C1.2 54.5634 1.16 54.6257 0.999999 54.6257C0.889999 54.6257 0.799999 54.5723 0.799999 54.5189Z" fill="#525252"/>
<path d="M40.5 54.0295C40.5 53.6112 40.61 53.3798 40.8 53.3798C41 53.3798 41.13 53.5845 41 53.7002C40.95 53.7447 40.9 53.8604 40.88 53.9583C40.82 54.3231 40.5 54.3765 40.5 54.0295Z" fill="#525252"/>
<path d="M1.1 53.095C1.1 52.8281 1.23 52.5789 1.36 52.5789C1.45 52.5789 1.5 52.6857 1.5 52.8904C1.5 53.1395 1.46 53.2018 1.3 53.2018C1.19 53.2018 1.1 53.1484 1.1 53.095Z" fill="#525252"/>
<path d="M41 50.0427C41 49.66 41.21 49.6244 41.37 49.9893C41.49 50.2829 41.45 50.3541 41.18 50.3541C41.04 50.3541 41 50.2829 41 50.0427V50.0427Z" fill="#525252"/>
<path d="M1.98 49.7134C1.92 49.5621 2.13 49.1973 2.28 49.1973C2.35 49.1973 2.4 49.3218 2.4 49.5087C2.4 49.7579 2.36 49.8202 2.21 49.8202C2.1 49.8202 2 49.7757 1.98 49.7134Z" fill="#525252"/>
<path d="M40.8 49.2417C40.8 48.8858 41.04 48.8057 41.14 49.135C41.24 49.4642 41.21 49.5532 41 49.5532C40.84 49.5532 40.8 49.4909 40.8 49.2417Z" fill="#525252"/>
<path d="M2.57 47.8268C2.52 47.72 2.82 47.3284 2.95 47.3284C2.98 47.3284 3 47.4708 3 47.6399C3 47.8891 2.96 47.9514 2.81 47.9514C2.71 47.9514 2.6 47.898 2.57 47.8268V47.8268Z" fill="#525252"/>
<path d="M39.9 47.5331C39.9 47.195 39.9 47.195 40.19 47.4619C40.51 47.7645 40.5 47.8624 40.14 47.8624C39.93 47.8624 39.9 47.8268 39.9 47.5331Z" fill="#525252"/>
<path d="M3.22 47.3106C3.25 47.2483 3.41 47.1505 3.58 47.0882C3.89 46.9725 3.9 46.9814 3.9 47.195C3.9 47.3907 3.86 47.4174 3.54 47.4174C3.31 47.4174 3.2 47.3818 3.22 47.3106Z" fill="#525252"/>
<path d="M40.6 46.6788C40.52 46.6165 40.39 46.483 40.32 46.3673C40.21 46.1805 40.22 46.1716 40.5 46.1716C40.78 46.1716 40.8 46.1983 40.8 46.483C40.8 46.8301 40.8 46.8301 40.6 46.6788Z" fill="#525252"/>
<path d="M50.2 46.5898C50.2 46.5186 50.36 46.4296 50.55 46.3762C50.88 46.2783 50.9 46.2872 50.9 46.4919C50.9 46.6788 50.85 46.7055 50.55 46.7055C50.33 46.7055 50.2 46.661 50.2 46.5898Z" fill="#525252"/>
<path d="M51 46.4919C51 46.3762 51.28 46.2605 51.58 46.2605C51.64 46.2605 51.7 46.3406 51.7 46.4385C51.7 46.5809 51.63 46.6165 51.35 46.6165C51.12 46.6165 51 46.572 51 46.4919Z" fill="#525252"/>
<path d="M46.9 46.3495C46.9 46.1627 47 46.136 47.38 46.225C47.74 46.3139 47.65 46.5275 47.25 46.5275C46.97 46.5275 46.9 46.4919 46.9 46.3495Z" fill="#525252"/>
<path d="M5.8 46.2606C5.8 46.2072 5.92 46.1182 6.08 46.0559C6.23 46.0025 6.38 45.9135 6.42 45.8601C6.46 45.8156 6.5 45.9046 6.5 46.0648C6.5 46.3317 6.48 46.3495 6.15 46.3495C5.96 46.3495 5.8 46.305 5.8 46.2606Z" fill="#525252"/>
<path d="M46 46.1805C46 45.9669 46.17 45.9135 46.47 46.0292C46.82 46.1805 46.75 46.3495 46.35 46.3495C46.07 46.3495 46 46.3139 46 46.1805Z" fill="#525252"/>
<path d="M38 45.8245C38 45.5842 38.02 45.5753 38.24 45.6643C38.37 45.7177 38.53 45.8423 38.59 45.9224C38.69 46.0648 38.66 46.0826 38.35 46.0826C38.03 46.0826 38 46.0559 38 45.8245Z" fill="#525252"/>
<path d="M53.22 45.9758C53.25 45.9135 53.41 45.8156 53.58 45.7533C53.89 45.6376 53.9 45.6465 53.9 45.8601C53.9 46.0559 53.86 46.0826 53.54 46.0826C53.31 46.0826 53.2 46.047 53.22 45.9758Z" fill="#525252"/>
<path d="M96.3 45.5041C96.3 45.335 96.33 45.1927 96.38 45.1927C96.47 45.1927 96.77 45.3706 96.68 45.3706C96.64 45.3706 96.65 45.4685 96.7 45.5931C96.79 45.7889 96.77 45.8156 96.55 45.8156C96.33 45.8156 96.3 45.78 96.3 45.5041Z" fill="#525252"/>
<path d="M44 45.4418C44 45.2816 44.04 45.1927 44.08 45.2372C44.12 45.2905 44.27 45.3795 44.43 45.4329C44.81 45.5842 44.77 45.7266 44.35 45.7266C44.02 45.7266 44 45.7088 44 45.4418Z" fill="#525252"/>
<path d="M48.58 45.5753C48.22 45.4952 48.38 45.2817 48.8 45.2817C49.13 45.2817 49.2 45.3084 49.2 45.4596C49.2 45.6376 49 45.6732 48.58 45.5753Z" fill="#525252"/>
<path d="M50 45.4596C50 45.3173 50.07 45.2817 50.35 45.2817C50.75 45.2817 50.84 45.4952 50.48 45.5842C50.1 45.6732 50 45.6465 50 45.4596Z" fill="#525252"/>
<path d="M54.3 45.5664C54.3 45.4952 54.82 45.1927 54.94 45.1927C54.97 45.1927 55 45.2905 55 45.4151C55 45.6109 54.96 45.6376 54.65 45.6376C54.46 45.6376 54.3 45.602 54.3 45.5664Z" fill="#525252"/>
<path d="M5.2 45.3261C5.2 45.1304 5.24 45.1037 5.56 45.1037C6 45.1037 5.98 45.2639 5.52 45.4329C5.21 45.5486 5.2 45.5397 5.2 45.3261V45.3261Z" fill="#525252"/>
<path d="M47.68 45.4863C47.35 45.4151 47.48 45.1927 47.85 45.1927C48.13 45.1927 48.2 45.2283 48.2 45.3706C48.2 45.5486 48.06 45.5753 47.68 45.4863Z" fill="#525252"/>
<path d="M46.68 45.3083C46.35 45.2372 46.48 45.0147 46.85 45.0147C47.13 45.0147 47.2 45.0503 47.2 45.1927C47.2 45.3706 47.06 45.3973 46.68 45.3083Z" fill="#525252"/>
<path d="M52.2 45.1037C52.2 44.9613 52.27 44.9257 52.55 44.9257C52.94 44.9257 53.01 45.0503 52.71 45.1927C52.4 45.335 52.2 45.2995 52.2 45.1037Z" fill="#525252"/>
<path d="M36.2 44.81C36.2 44.5074 36.29 44.4718 36.53 44.6587C36.64 44.7566 36.77 44.81 36.82 44.7833C36.86 44.7566 36.9 44.8011 36.9 44.8723C36.9 44.9791 36.8 45.0147 36.55 45.0147C36.25 45.0147 36.2 44.988 36.2 44.81V44.81Z" fill="#525252"/>
<path d="M45.01 44.81C44.35 44.5697 44.24 44.3917 44.74 44.3917C44.94 44.3917 45.1 44.4362 45.1 44.4807C45.1 44.5341 45.21 44.5697 45.35 44.5697C45.55 44.5697 45.6 44.6142 45.6 44.7922C45.6 44.9168 45.59 45.0147 45.58 45.0147C45.56 45.0058 45.31 44.9168 45.01 44.81V44.81Z" fill="#525252"/>
<path d="M53.5 44.7032C53.5 44.5163 53.55 44.4807 53.8 44.4807C54 44.4807 54.1 44.4362 54.1 44.3472C54.1 44.2583 54.21 44.2138 54.45 44.2138C54.64 44.2138 54.8 44.2494 54.8 44.285C54.8 44.365 54.2 44.6854 53.77 44.8278C53.52 44.9168 53.5 44.9079 53.5 44.7032Z" fill="#525252"/>
<path d="M10.32 44.6409C10.35 44.5786 10.51 44.4807 10.68 44.4184C10.99 44.3027 11 44.3116 11 44.5252C11 44.721 10.96 44.7477 10.64 44.7477C10.41 44.7477 10.3 44.7121 10.32 44.6409Z" fill="#525252"/>
<path d="M95.8 44.2494C95.8 43.8578 95.98 43.8756 96.17 44.285C96.3 44.5608 96.29 44.5697 96.05 44.5697C95.83 44.5697 95.8 44.5341 95.8 44.2494Z" fill="#525252"/>
<path d="M11.72 44.196C11.75 44.1337 11.91 44.0358 12.08 43.9735C12.39 43.8578 12.4 43.8667 12.4 44.0803C12.4 44.2761 12.36 44.3027 12.04 44.3027C11.81 44.3027 11.7 44.2672 11.72 44.196Z" fill="#525252"/>
<path d="M40.8 43.8667C40.8 43.6264 40.82 43.6175 41.04 43.7065C41.17 43.7599 41.33 43.8845 41.39 43.9646C41.49 44.107 41.46 44.1248 41.15 44.1248C40.83 44.1248 40.8 44.0981 40.8 43.8667Z" fill="#525252"/>
<path d="M55.8 43.5374C55.8 43.2527 55.82 43.2349 56.15 43.2349C56.34 43.2349 56.5 43.2438 56.5 43.2616C56.5 43.2793 56.34 43.4128 56.15 43.5641C55.8 43.84 55.8 43.84 55.8 43.5374Z" fill="#525252"/>
<path d="M5.9 43.6175C5.9 43.5374 5.93 43.5018 5.96 43.5285C6 43.5552 6.12 43.5285 6.24 43.4573C6.53 43.2705 6.6 43.2883 6.6 43.5463C6.6 43.7421 6.56 43.7688 6.25 43.7688C5.99 43.7688 5.9 43.7332 5.9 43.6175V43.6175Z" fill="#525252"/>
<path d="M57.41 43.6086C57.47 43.5285 57.63 43.4039 57.76 43.3506C57.98 43.2616 58 43.2705 58 43.5107C58 43.7421 57.97 43.7688 57.65 43.7688C57.34 43.7688 57.31 43.751 57.41 43.6086Z" fill="#525252"/>
<path d="M4.4 43.1459C4.66 42.5674 4.69 42.5229 4.81 42.5229C4.97 42.5229 4.91 43.0569 4.73 43.2171C4.23 43.662 4.18 43.6531 4.4 43.1459Z" fill="#525252"/>
<path d="M95.3 43.1904C95.3 42.8789 95.59 42.9234 95.73 43.2616C95.78 43.3772 95.74 43.4128 95.55 43.4128C95.35 43.4128 95.3 43.3683 95.3 43.1904Z" fill="#525252"/>
<path d="M31.5 43.0569C31.5 42.87 31.6 42.8433 31.98 42.9323C32.34 43.0213 32.25 43.2349 31.85 43.2349C31.57 43.2349 31.5 43.1993 31.5 43.0569Z" fill="#525252"/>
<path d="M18.3 42.5763C18.3 42.4606 18.58 42.345 18.88 42.345C18.94 42.345 19 42.425 19 42.5229C19 42.6653 18.93 42.7009 18.65 42.7009C18.42 42.7009 18.3 42.6564 18.3 42.5763Z" fill="#525252"/>
<path d="M33.53 42.6119C33.4 42.5674 33.3 42.5585 33.3 42.5941C33.3 42.6742 33.1 42.4072 33.1 42.3272C33.1 42.2827 33.26 42.256 33.45 42.256C33.76 42.256 33.8 42.2827 33.8 42.4784C33.8 42.603 33.79 42.7009 33.78 42.692C33.76 42.692 33.65 42.6564 33.53 42.6119Z" fill="#525252"/>
<path d="M29 42.4339C29 42.2471 29.1 42.2204 29.48 42.3094C29.84 42.3983 29.75 42.6119 29.35 42.6119C29.07 42.6119 29 42.5763 29 42.4339Z" fill="#525252"/>
<path d="M57.5 42.2649C57.5 42.0068 57.53 41.989 57.86 41.989C58.25 41.989 58.24 42.0691 57.8 42.3449C57.5 42.5318 57.5 42.5318 57.5 42.2649Z" fill="#525252"/>
<path d="M6.4 42.2115C6.4 42.0157 6.44 41.989 6.75 41.989C7.18 41.989 7.19 42.078 6.81 42.2827C6.43 42.4784 6.4 42.4784 6.4 42.2115Z" fill="#525252"/>
<path d="M15.2 42.078C15.2 41.9356 15.27 41.9 15.55 41.9C15.95 41.9 16.04 42.1136 15.68 42.2026C15.3 42.2916 15.2 42.2649 15.2 42.078Z" fill="#525252"/>
<path d="M22 42.1314C22 42.0157 22.28 41.9 22.58 41.9C22.64 41.9 22.7 41.9801 22.7 42.078C22.7 42.2204 22.63 42.256 22.35 42.256C22.12 42.256 22 42.2115 22 42.1314Z" fill="#525252"/>
<path d="M92.3 42.0335C92.3 41.8377 92.33 41.8199 92.55 41.9C92.69 41.9445 92.8 41.9534 92.8 41.9178C92.8 41.8377 93 42.1047 93 42.1937C93 42.2293 92.84 42.256 92.65 42.256C92.34 42.256 92.3 42.2293 92.3 42.0335V42.0335Z" fill="#525252"/>
<path d="M23.7 42.0424C23.7 41.9267 23.98 41.811 24.28 41.811C24.34 41.811 24.4 41.8911 24.4 41.989C24.4 42.1314 24.33 42.167 24.05 42.167C23.82 42.167 23.7 42.1225 23.7 42.0424Z" fill="#525252"/>
<path d="M25.4 41.989C25.4 41.8021 25.56 41.7665 25.98 41.8644C26.37 41.9623 26.25 42.167 25.8 42.167C25.47 42.167 25.4 42.1403 25.4 41.989Z" fill="#525252"/>
<path d="M37.5 41.7665C37.5 41.4995 37.53 41.4995 37.91 41.6953C38.29 41.9 38.28 41.989 37.85 41.989C37.54 41.989 37.5 41.9623 37.5 41.7665Z" fill="#525252"/>
<path d="M94.87 41.8911C94.68 41.7932 94.64 41.633 94.81 41.633C94.96 41.633 95.22 41.8822 95.12 41.9356C95.08 41.9534 94.97 41.9356 94.87 41.8911Z" fill="#525252"/>
<path d="M10.02 41.7932C10.05 41.7309 10.21 41.633 10.38 41.5707C10.69 41.455 10.7 41.4639 10.7 41.6775C10.7 41.8733 10.66 41.9 10.34 41.9C10.11 41.9 10 41.8644 10.02 41.7932Z" fill="#525252"/>
<path d="M61.1 41.633C61.1 41.5796 61.22 41.4906 61.38 41.4283C61.53 41.3749 61.68 41.286 61.72 41.2326C61.76 41.1881 61.8 41.2771 61.8 41.4372C61.8 41.7042 61.78 41.722 61.45 41.722C61.26 41.722 61.1 41.6775 61.1 41.633V41.633Z" fill="#525252"/>
<path d="M94.1 41.6508C94.1 41.6152 93.97 41.5351 93.8 41.4817C93.39 41.3483 93.42 41.1881 93.85 41.1881C94.17 41.1881 94.2 41.2059 94.2 41.455C94.2 41.6063 94.18 41.722 94.15 41.722C94.12 41.722 94.1 41.6864 94.1 41.6508V41.6508Z" fill="#525252"/>
<path d="M26.03 41.0813C25.58 40.9478 25.6 40.7431 26.05 40.7431C26.36 40.7431 26.4 40.7698 26.4 40.9656C26.4 41.0902 26.39 41.1881 26.38 41.1792C26.36 41.1703 26.2 41.1258 26.03 41.0813V41.0813Z" fill="#525252"/>
<path d="M59.8 40.9656C59.8 40.7698 59.84 40.7431 60.15 40.7431C60.58 40.7431 60.59 40.8321 60.21 41.0368C59.83 41.2326 59.8 41.2326 59.8 40.9656Z" fill="#525252"/>
<path d="M92.53 41.0546C92.1 40.8944 92.11 40.7431 92.55 40.7431C92.86 40.7431 92.9 40.7698 92.9 40.9656C92.9 41.0902 92.89 41.1881 92.88 41.1881C92.86 41.1792 92.7 41.1258 92.53 41.0546Z" fill="#525252"/>
<path d="M23.5 40.9211C23.5 40.7787 23.57 40.7431 23.85 40.7431C24.25 40.7431 24.34 40.9567 23.98 41.0457C23.6 41.1347 23.5 41.108 23.5 40.9211Z" fill="#525252"/>
<path d="M63.6 40.7965C63.6 40.6719 63.84 40.5829 64.29 40.5206C64.42 40.5028 64.57 40.4494 64.63 40.3961C64.77 40.2715 65 40.3783 65 40.574C65 40.7075 64.93 40.7431 64.65 40.7431C64.46 40.7431 64.3 40.7876 64.3 40.8321C64.3 40.8855 64.14 40.9211 63.95 40.9211C63.72 40.9211 63.6 40.8766 63.6 40.7965Z" fill="#525252"/>
<path d="M86.6 40.5651C86.6 40.3783 86.7 40.3516 87.08 40.4405C87.44 40.5295 87.35 40.7431 86.95 40.7431C86.67 40.7431 86.6 40.7075 86.6 40.5651Z" fill="#525252"/>
<path d="M37.18 40.4049C36.81 40.2092 36.83 40.1202 37.25 40.1202C37.56 40.1202 37.6 40.1469 37.6 40.3427C37.6 40.6007 37.54 40.6096 37.18 40.4049Z" fill="#525252"/>
<path d="M14 40.4138C14 40.3249 14.2 40.0579 14.2 40.138C14.2 40.1736 14.31 40.1647 14.45 40.1202C14.67 40.0401 14.7 40.0579 14.7 40.2537C14.7 40.4494 14.66 40.4761 14.35 40.4761C14.16 40.4761 14 40.4494 14 40.4138V40.4138Z" fill="#525252"/>
<path d="M11.4 40.0757C11.4 39.8799 11.44 39.8532 11.76 39.8532C12.2 39.8532 12.18 40.0134 11.72 40.1825C11.41 40.2982 11.4 40.2893 11.4 40.0757V40.0757Z" fill="#525252"/>
<path d="M14.9 40.0846C14.9 40.0223 15.1 39.9155 15.35 39.8532C15.6 39.7909 15.83 39.7108 15.86 39.6663C15.94 39.5418 16.2 39.6841 16.2 39.8443C16.2 39.9511 16.07 40.0401 15.81 40.1024C15.29 40.2448 14.9 40.2359 14.9 40.0846V40.0846Z" fill="#525252"/>
<path d="M82.9 39.9422C82.9 39.7553 83 39.7286 83.38 39.8176C83.74 39.9066 83.65 40.1202 83.25 40.1202C82.97 40.1202 82.9 40.0846 82.9 39.9422Z" fill="#525252"/>
<path d="M12.7 39.6307C12.7 39.4349 12.74 39.4082 13.05 39.4082C13.24 39.4082 13.4 39.4349 13.4 39.4794C13.4 39.5595 13.2 39.8265 13.2 39.7464C13.2 39.7108 13.09 39.7197 12.95 39.7642C12.73 39.8443 12.7 39.8265 12.7 39.6307Z" fill="#525252"/>
<path d="M70.6 39.6396C70.6 39.5239 70.88 39.4082 71.18 39.4082C71.24 39.4082 71.3 39.4883 71.3 39.5862C71.3 39.7286 71.23 39.7642 70.95 39.7642C70.72 39.7642 70.6 39.7197 70.6 39.6396Z" fill="#525252"/>
<path d="M71.9 39.5506C71.9 39.4349 72.18 39.3193 72.48 39.3193C72.54 39.3193 72.6 39.3994 72.6 39.4972C72.6 39.6396 72.53 39.6752 72.25 39.6752C72.02 39.6752 71.9 39.6307 71.9 39.5506Z" fill="#525252"/>
<path d="M78 39.4972C78 39.3104 78.1 39.2837 78.48 39.3727C78.84 39.4616 78.75 39.6752 78.35 39.6752C78.07 39.6752 78 39.6396 78 39.4972Z" fill="#525252"/>
<path d="M86.88 39.6129C86.55 39.5417 86.68 39.3193 87.05 39.3193C87.33 39.3193 87.4 39.3549 87.4 39.4972C87.4 39.6752 87.26 39.7019 86.88 39.6129Z" fill="#525252"/>
<path d="M35.03 39.4527C34.6 39.2926 34.61 39.1413 35.05 39.1413C35.36 39.1413 35.4 39.168 35.4 39.3638C35.4 39.4883 35.39 39.5862 35.38 39.5862C35.36 39.5773 35.2 39.5239 35.03 39.4527Z" fill="#525252"/>
<path d="M29.9 39.0523C29.9 38.901 29.96 38.8743 30.25 38.901C30.51 38.9099 30.6 38.9633 30.6 39.079C30.6 39.1947 30.52 39.2303 30.25 39.2303C29.97 39.2303 29.9 39.1947 29.9 39.0523Z" fill="#525252"/>
<path d="M15.52 38.9811C15.45 38.9633 15.4 38.8743 15.4 38.7764C15.4 38.6429 15.47 38.6073 15.75 38.6073C15.96 38.6073 16.1 38.6518 16.1 38.723C16.1 38.8476 15.69 39.0345 15.52 38.9811Z" fill="#525252"/>
<path d="M20.4 38.9188C20.4 38.8387 20.54 38.7764 20.78 38.7408C20.98 38.7141 21.27 38.6607 21.42 38.6162C21.72 38.5272 21.8 38.5628 21.8 38.7853C21.8 38.901 21.68 38.9544 21.28 38.9989C20.51 39.079 20.4 39.0701 20.4 38.9188Z" fill="#525252"/>
<path d="M67.4 38.8743C67.4 38.7319 67.47 38.6963 67.75 38.6963C68.15 38.6963 68.24 38.9099 67.88 38.9989C67.5 39.0879 67.4 39.0612 67.4 38.8743Z" fill="#525252"/>
<path d="M28.2 38.7853C28.2 38.5984 28.3 38.5717 28.68 38.6607C29.04 38.7497 28.95 38.9633 28.55 38.9633C28.27 38.9633 28.2 38.9277 28.2 38.7853Z" fill="#525252"/>
<path d="M82.48 38.901C82.15 38.8298 82.28 38.6073 82.65 38.6073C82.93 38.6073 83 38.6429 83 38.7853C83 38.9633 82.86 38.99 82.48 38.901Z" fill="#525252"/>
<path d="M68.8 38.6963C68.8 38.5539 68.87 38.5183 69.15 38.5183C69.55 38.5183 69.64 38.7319 69.28 38.8209C68.9 38.9099 68.8 38.8832 68.8 38.6963Z" fill="#525252"/>
<path d="M81.68 38.812C81.35 38.7408 81.48 38.5183 81.85 38.5183C82.13 38.5183 82.2 38.5539 82.2 38.6963C82.2 38.8743 82.06 38.901 81.68 38.812Z" fill="#525252"/>
<path d="M23.2 38.6607C23.2 38.545 23.48 38.4294 23.78 38.4294C23.84 38.4294 23.9 38.5094 23.9 38.6073C23.9 38.7497 23.83 38.7853 23.55 38.7853C23.32 38.7853 23.2 38.7408 23.2 38.6607Z" fill="#525252"/>
<path d="M26.1 38.6073C26.1 38.4205 26.2 38.3938 26.58 38.4828C26.94 38.5717 26.85 38.7853 26.45 38.7853C26.17 38.7853 26.1 38.7497 26.1 38.6073Z" fill="#525252"/>
<path d="M32.53 38.6607C32.18 38.5183 32.25 38.3404 32.65 38.3404C32.93 38.3404 33 38.376 33 38.5094C33 38.723 32.82 38.7764 32.53 38.6607Z" fill="#525252"/>
<path d="M69.6 38.6073C69.6 38.4649 69.67 38.4294 69.95 38.4294C70.35 38.4294 70.44 38.6429 70.08 38.7319C69.7 38.8209 69.6 38.7942 69.6 38.6073Z" fill="#525252"/>
<path d="M80.78 38.723C80.45 38.6518 80.58 38.4294 80.95 38.4294C81.23 38.4294 81.3 38.4649 81.3 38.6073C81.3 38.7853 81.16 38.812 80.78 38.723Z" fill="#525252"/>
<path d="M70.5 38.5183C70.5 38.376 70.57 38.3404 70.85 38.3404C71.25 38.3404 71.34 38.5539 70.98 38.6429C70.6 38.7319 70.5 38.7052 70.5 38.5183Z" fill="#525252"/>
<path d="M74.7 38.3315C74.7 38.1802 74.78 38.1624 75.3 38.1624C75.82 38.1624 75.9 38.1802 75.9 38.3315C75.9 38.4828 75.82 38.5005 75.3 38.5005C74.78 38.5005 74.7 38.4828 74.7 38.3315Z" fill="#525252"/>
<path d="M19 37.9844C19 37.842 19.07 37.8064 19.35 37.8064C19.75 37.8064 19.84 38.02 19.48 38.109C19.1 38.198 19 38.1713 19 37.9844Z" fill="#525252"/>
<path d="M30.18 38.1001C29.85 38.0289 29.98 37.8064 30.35 37.8064C30.63 37.8064 30.7 37.842 30.7 37.9844C30.7 38.1624 30.56 38.1891 30.18 38.1001Z" fill="#525252"/>
<path d="M20.2 37.8064C20.2 37.664 20.27 37.6284 20.55 37.6284C20.95 37.6284 21.04 37.842 20.68 37.931C20.3 38.02 20.2 37.9933 20.2 37.8064Z" fill="#525252"/>
<path d="M7.2 37.664C7.2 37.5572 7.54 37.0945 7.62 37.0945C7.66 37.0945 7.7 37.2369 7.7 37.406C7.7 37.6818 7.67 37.7174 7.45 37.7174C7.31 37.7174 7.2 37.6907 7.2 37.664Z" fill="#525252"/>
<path d="M26.48 37.6551C26.15 37.5839 26.28 37.3615 26.65 37.3615C26.93 37.3615 27 37.3971 27 37.5394C27 37.7174 26.86 37.7441 26.48 37.6551Z" fill="#525252"/>
<path d="M91.4 35.8041C91.4 35.4215 91.5 35.4126 91.73 35.7507C91.95 36.0889 91.95 36.1156 91.65 36.1156C91.43 36.1156 91.4 36.08 91.4 35.8041Z" fill="#525252"/>
<path d="M10.24 32.9564C10.32 32.7606 11.48 31.2389 11.6 31.1766C11.66 31.141 11.7 31.2478 11.7 31.4347C11.7 31.6127 11.66 31.755 11.6 31.755C11.55 31.755 11.5 31.8173 11.5 31.8885C11.5 31.9597 11.46 32.022 11.4 32.022C11.35 32.022 11.3 32.0843 11.3 32.1555C11.3 32.2267 11.26 32.289 11.2 32.289C11.15 32.289 11.1 32.3513 11.1 32.4225C11.1 32.4937 11.06 32.556 11 32.556C10.95 32.556 10.9 32.6183 10.9 32.6895C10.9 32.7606 10.86 32.8229 10.8 32.8229C10.75 32.8229 10.7 32.8852 10.7 32.9564C10.7 33.0365 10.6 33.0899 10.44 33.0899C10.25 33.0899 10.19 33.0543 10.24 32.9564Z" fill="#525252"/>
<path d="M11.77 30.8918C11.74 30.8473 11.85 30.7049 12.01 30.5537C12.3 30.2867 12.3 30.2867 12.3 30.6249C12.3 30.9185 12.27 30.9541 12.06 30.9541C11.92 30.9541 11.79 30.9274 11.77 30.8918Z" fill="#525252"/>
<path d="M87.4 30.1888C87.4 29.8417 87.49 29.8506 87.8 30.2422C88.01 30.5092 88.01 30.5092 87.71 30.5092C87.42 30.5092 87.4 30.4825 87.4 30.1888Z" fill="#525252"/>
<path d="M11 30.0642C11 29.7172 11.01 29.7083 11.34 29.7083C11.69 29.7083 11.69 29.7083 11.4 29.993C11.24 30.1443 11.13 30.3045 11.16 30.349C11.19 30.3846 11.16 30.4202 11.11 30.4202C11.05 30.4202 11 30.26 11 30.0642Z" fill="#525252"/>
<path d="M88.19 29.3968C87.97 29.201 88.06 28.7294 88.31 28.7294C88.51 28.7294 88.53 28.8361 88.41 29.29C88.36 29.5125 88.34 29.5214 88.19 29.3968Z" fill="#525252"/>
<path d="M86.4 29.1298C86.4 28.9696 86.35 28.9073 86.2 28.9073C86.03 28.9073 86 28.845 86 28.5781C86.01 28.2399 86.01 28.2399 86.31 28.5514C86.48 28.7205 86.7 28.9696 86.81 29.112C87.01 29.3523 87.01 29.3523 86.71 29.3523C86.45 29.3523 86.4 29.3167 86.4 29.1298Z" fill="#525252"/>
<path d="M85.1 27.617C85.1 27.3411 85.12 27.3144 85.28 27.4034C85.37 27.4568 85.51 27.5992 85.57 27.7149C85.67 27.9106 85.66 27.9284 85.39 27.9284C85.13 27.9284 85.1 27.9017 85.1 27.617Z" fill="#525252"/>
<path d="M10.36 27.3767C10.26 27.0385 10.29 26.9495 10.5 26.9495C10.66 26.9495 10.7 27.0118 10.7 27.261C10.7 27.617 10.46 27.6971 10.36 27.3767Z" fill="#525252"/>
<path d="M13.6 27.083C13.6 26.7983 13.63 26.7716 13.89 26.7716C14.16 26.7716 14.17 26.7894 14.07 26.9851C14.01 27.1008 13.87 27.2432 13.78 27.2966C13.62 27.3856 13.6 27.3589 13.6 27.083Z" fill="#525252"/>
<path d="M84.4 26.905C84.4 26.6292 84.42 26.6025 84.58 26.6915C84.67 26.7449 84.81 26.8872 84.87 27.0029C84.97 27.1987 84.96 27.2165 84.69 27.2165C84.43 27.2165 84.4 27.1898 84.4 26.905Z" fill="#525252"/>
<path d="M86 27.0118C85.92 26.9495 85.79 26.8161 85.72 26.7004C85.61 26.5135 85.62 26.5046 85.9 26.5046C86.18 26.5046 86.2 26.5313 86.2 26.8161C86.2 27.1631 86.2 27.1631 86 27.0118Z" fill="#525252"/>
<path d="M15.83 26.4156C15.91 26.3088 16.08 26.1575 16.2 26.0863C16.41 25.9528 16.41 25.9617 16.38 26.2465C16.35 26.5135 16.31 26.5491 16.01 26.5758C15.69 26.6025 15.68 26.6025 15.83 26.4156Z" fill="#525252"/>
<path d="M85.12 26.1575C85.05 26.1219 84.92 25.9795 84.85 25.855C84.72 25.6236 84.72 25.6147 85.01 25.6147C85.28 25.6147 85.3 25.6414 85.3 25.9261C85.3 26.2732 85.3 26.2643 85.12 26.1575Z" fill="#525252"/>
<path d="M10.06 25.9528C9.96 25.6147 9.99 25.5257 10.2 25.5257C10.36 25.5257 10.4 25.588 10.4 25.8372C10.4 26.1931 10.16 26.2732 10.06 25.9528Z" fill="#525252"/>
<path d="M82.2 24.9917C82.2 24.7337 82.2 24.7337 82.5 24.885C82.94 25.1074 82.96 25.2587 82.55 25.2587C82.23 25.2587 82.2 25.2409 82.2 24.9917Z" fill="#525252"/>
<path d="M89 24.9472C89 24.6981 89.04 24.6358 89.2 24.6358C89.41 24.6358 89.44 24.7248 89.34 25.0629C89.24 25.3833 89 25.3032 89 24.9472Z" fill="#525252"/>
<path d="M83.74 24.8761C83.62 24.8227 83.47 24.707 83.41 24.618C83.31 24.4756 83.34 24.4578 83.65 24.4578C83.97 24.4578 84 24.4756 84 24.7248C84 24.8761 83.99 24.9828 83.98 24.9828C83.96 24.9739 83.85 24.9294 83.74 24.8761Z" fill="#525252"/>
<path d="M16.5 24.3777C16.5 24.1196 16.53 24.1018 16.86 24.1018C17.25 24.1018 17.24 24.1819 16.8 24.4578C16.5 24.6447 16.5 24.6447 16.5 24.3777Z" fill="#525252"/>
<path d="M9.66 23.995C9.56 23.6569 9.59 23.5679 9.8 23.5679C9.96 23.5679 10 23.6302 10 23.8794C10 24.2353 9.76 24.3154 9.66 23.995Z" fill="#525252"/>
<path d="M82.76 24.0751C82.65 24.0128 82.45 23.8616 82.32 23.7281C82.19 23.5857 82.03 23.4789 81.97 23.4789C81.9 23.4789 81.79 23.3988 81.72 23.3009C81.61 23.1318 81.62 23.1229 81.95 23.1229C82.27 23.1229 82.3 23.1407 82.3 23.3899C82.3 23.6391 82.33 23.6569 82.65 23.6569C82.97 23.6569 83 23.6747 83 23.9238C83 24.0751 82.99 24.1908 82.98 24.1819C82.96 24.1819 82.86 24.1285 82.76 24.0751V24.0751Z" fill="#525252"/>
<path d="M80.7 23.8438C80.7 23.6035 80.72 23.5946 80.94 23.6836C81.07 23.737 81.23 23.8616 81.29 23.9417C81.39 24.084 81.36 24.1018 81.05 24.1018C80.73 24.1018 80.7 24.0751 80.7 23.8438Z" fill="#525252"/>
<path d="M17.4 23.648C17.4 23.4166 17.43 23.3899 17.75 23.3899C18.06 23.3899 18.09 23.4077 17.99 23.5501C17.93 23.6302 17.77 23.7548 17.64 23.8082C17.42 23.8972 17.4 23.8883 17.4 23.648Z" fill="#525252"/>
<path d="M18.5 22.8649C18.5 22.6068 18.53 22.589 18.86 22.589C19.25 22.589 19.24 22.6691 18.8 22.945C18.5 23.1318 18.5 23.1318 18.5 22.8649Z" fill="#525252"/>
<path d="M79 22.6691C79 22.4021 79 22.4021 79.3 22.589C79.74 22.8649 79.75 22.9449 79.36 22.9449C79.03 22.9449 79 22.9272 79 22.6691Z" fill="#525252"/>
<path d="M20.85 22.589C20.88 22.5445 21.04 22.4199 21.2 22.322C21.5 22.1351 21.5 22.1351 21.5 22.4021C21.5 22.6602 21.47 22.678 21.14 22.678C20.94 22.678 20.81 22.6424 20.85 22.589Z" fill="#525252"/>
<path d="M9.26 21.8593C9.16 21.5211 9.18999 21.4321 9.39999 21.4321C9.55999 21.4321 9.59999 21.4944 9.59999 21.7436C9.59999 22.0995 9.36 22.1796 9.26 21.8593Z" fill="#525252"/>
<path d="M89.7 21.619C89.7 21.53 89.73 21.2719 89.76 21.0405C89.81 20.738 89.87 20.6312 90 20.6312C90.24 20.6312 90.3 20.7113 90.2 20.9249C90.15 21.0316 90.09 21.2719 90.05 21.4588C89.99 21.797 89.7 21.9394 89.7 21.619V21.619Z" fill="#525252"/>
<path d="M78.43 21.1384C78.01 20.8893 78.02 20.8092 78.45 20.8092C78.77 20.8092 78.8 20.827 78.8 21.0761C78.8 21.2274 78.79 21.3431 78.78 21.3342C78.76 21.3342 78.6 21.2452 78.43 21.1384V21.1384Z" fill="#525252"/>
<path d="M77.8 20.827C77.8 20.7825 77.69 20.6935 77.55 20.6312C77.2 20.4621 77.24 20.3642 77.65 20.3642C77.95 20.3642 78 20.3909 78 20.5778C78 20.7024 77.96 20.827 77.9 20.8537C77.85 20.8804 77.8 20.8715 77.8 20.827Z" fill="#525252"/>
<path d="M76.5 20.115C76.5 20.0705 76.39 19.9816 76.25 19.9193C75.9 19.7502 75.94 19.6523 76.35 19.6523C76.65 19.6523 76.7 19.679 76.7 19.8659C76.7 19.9905 76.66 20.115 76.6 20.1417C76.55 20.1684 76.5 20.1595 76.5 20.115Z" fill="#525252"/>
<path d="M74.7 18.9404C74.7 18.7001 74.73 18.6734 75 18.6734C75.28 18.6734 75.29 18.6823 75.18 18.8781C74.92 19.2785 74.7 19.3141 74.7 18.9404Z" fill="#525252"/>
<path d="M25.8 18.7179C25.8 18.5221 25.84 18.4954 26.16 18.4954C26.6 18.4954 26.58 18.6556 26.12 18.8247C25.81 18.9404 25.8 18.9315 25.8 18.7179V18.7179Z" fill="#525252"/>
<path d="M76.81 18.5043C76.99 18.2996 77.17 18.1394 77.22 18.1394C77.27 18.1394 77.3 18.2907 77.28 18.4776C77.25 18.7891 77.23 18.8069 76.86 18.8336C76.48 18.8603 76.48 18.8603 76.81 18.5043Z" fill="#525252"/>
<path d="M75.4 18.3174C75.4 18.0683 75.43 18.0505 75.76 18.0505C76.19 18.0505 76.18 18.1928 75.72 18.4242C75.4 18.5844 75.4 18.5844 75.4 18.3174Z" fill="#525252"/>
<path d="M27.3 18.095C27.3 17.8992 27.34 17.8725 27.66 17.8725C28.1 17.8725 28.08 18.0327 27.62 18.2017C27.31 18.3174 27.3 18.3085 27.3 18.095Z" fill="#525252"/>
<path d="M21.53 17.7657C21.11 17.5343 21.11 17.4275 21.55 17.4275C21.87 17.4275 21.9 17.4453 21.9 17.6945C21.9 17.8458 21.89 17.9615 21.88 17.9526C21.86 17.9526 21.7 17.8636 21.53 17.7657V17.7657Z" fill="#525252"/>
<path d="M31.52 17.7657C31.55 17.7034 31.71 17.6055 31.88 17.5432C32.19 17.4275 32.2 17.4364 32.2 17.65C32.2 17.8458 32.16 17.8725 31.84 17.8725C31.61 17.8725 31.5 17.8369 31.52 17.7657Z" fill="#525252"/>
<path d="M77.6 17.7924C77.6 17.7479 77.76 17.6322 77.95 17.5254C78.3 17.3474 78.3 17.3474 78.3 17.6055C78.3 17.8547 78.27 17.8725 77.95 17.8725C77.76 17.8725 77.6 17.8369 77.6 17.7924Z" fill="#525252"/>
<path d="M76.4 17.4898C76.4 17.1161 76.55 16.9826 76.97 16.9826C77.15 16.9826 77.3 17.0004 77.3 17.0093C77.3 17.0716 76.53 17.7835 76.47 17.7835C76.43 17.7835 76.4 17.65 76.4 17.4898Z" fill="#525252"/>
<path d="M8.56 17.4987C8.46 17.1605 8.49 17.0716 8.7 17.0716C8.86 17.0716 8.9 17.1338 8.9 17.383C8.9 17.739 8.66 17.8191 8.56 17.4987Z" fill="#525252"/>
<path d="M70.8 17.6233C70.8 17.5877 70.67 17.5076 70.5 17.4542C70.09 17.3207 70.12 17.1605 70.55 17.1605C70.87 17.1605 70.9 17.1783 70.9 17.4275C70.9 17.5788 70.88 17.6945 70.85 17.6945C70.82 17.6945 70.8 17.6589 70.8 17.6233Z" fill="#525252"/>
<path d="M66.4 17.2584C66.4 17.0271 66.6 16.9826 66.88 17.1427C67.2 17.3296 67.15 17.4275 66.75 17.4275C66.47 17.4275 66.4 17.3919 66.4 17.2584Z" fill="#525252"/>
<path d="M69.33 17.0716C69.2 17.0271 69.1 17.0182 69.1 17.0538C69.1 17.1338 68.9 16.8669 68.9 16.7868C68.9 16.7423 69.06 16.7156 69.25 16.7156C69.56 16.7156 69.6 16.7423 69.6 16.9381C69.6 17.0627 69.59 17.1605 69.58 17.1516C69.56 17.1516 69.45 17.1161 69.33 17.0716Z" fill="#525252"/>
<path d="M34.3 16.9648C34.3 16.8313 34.71 16.6444 34.88 16.6978C34.95 16.7156 35 16.8046 35 16.9025C35 17.036 34.93 17.0716 34.65 17.0716C34.44 17.0716 34.3 17.0271 34.3 16.9648Z" fill="#525252"/>
<path d="M90.5 16.6711C90.5 16.4219 90.54 16.3596 90.7 16.3596C90.91 16.3596 90.94 16.4486 90.84 16.7868C90.74 17.1072 90.5 17.0271 90.5 16.6711Z" fill="#525252"/>
<path d="M8.42999 16.5821C8.31999 16.2884 8.33 16.2706 8.56 16.2706C8.77 16.2706 8.8 16.3151 8.8 16.5821C8.8 16.7779 8.75 16.8936 8.67 16.8936C8.59 16.8936 8.48999 16.7512 8.42999 16.5821Z" fill="#525252"/>
<path d="M63.23 16.5999C62.91 16.5376 62.8 16.4664 62.8 16.3507C62.8 16.1461 62.84 16.1461 63.65 16.324C64.06 16.413 64.3 16.5198 64.3 16.591C64.3 16.7334 63.87 16.7423 63.23 16.5999Z" fill="#525252"/>
<path d="M32.32 16.5554C32.25 16.5376 32.2 16.4486 32.2 16.3507C32.2 16.2172 32.27 16.1816 32.55 16.1816C32.76 16.1816 32.9 16.2261 32.9 16.2973C32.9 16.4219 32.49 16.6088 32.32 16.5554Z" fill="#525252"/>
<path d="M18.1 16.2706C18.1 16.0126 18.1 16.0126 18.4 16.1638C18.84 16.3863 18.86 16.5376 18.45 16.5376C18.13 16.5376 18.1 16.5198 18.1 16.2706Z" fill="#525252"/>
<path d="M19.64 16.155C19.52 16.1016 19.37 15.9859 19.31 15.8969C19.21 15.7545 19.24 15.7367 19.55 15.7367C19.87 15.7367 19.9 15.7545 19.9 16.0037C19.9 16.155 19.89 16.2617 19.88 16.2617C19.86 16.2528 19.75 16.2083 19.64 16.155Z" fill="#525252"/>
<path d="M33.3 15.8346C33.3 15.5943 33.32 15.5854 33.54 15.6744C33.67 15.7278 33.83 15.8524 33.89 15.9325C33.99 16.0749 33.96 16.0927 33.65 16.0927C33.33 16.0927 33.3 16.066 33.3 15.8346Z" fill="#525252"/>
<path d="M39.4 15.8791C39.4 15.7634 39.68 15.6477 39.98 15.6477C40.04 15.6477 40.1 15.7278 40.1 15.8257C40.1 15.9681 40.03 16.0037 39.75 16.0037C39.52 16.0037 39.4 15.9592 39.4 15.8791Z" fill="#525252"/>
<path d="M17 15.3896C17 15.1494 17.02 15.1405 17.24 15.2294C17.37 15.2828 17.53 15.4074 17.59 15.4875C17.69 15.6299 17.66 15.6477 17.35 15.6477C17.03 15.6477 17 15.621 17 15.3896Z" fill="#525252"/>
<path d="M78.9 15.2828C78.9 15.0515 78.93 15.0248 79.25 15.0248C79.56 15.0248 79.59 15.0426 79.49 15.185C79.43 15.265 79.27 15.3896 79.14 15.443C78.92 15.532 78.9 15.5231 78.9 15.2828Z" fill="#525252"/>
<path d="M45.9 15.1672C45.9 15.0515 46.18 14.9358 46.48 14.9358C46.54 14.9358 46.6 15.0159 46.6 15.1138C46.6 15.2561 46.53 15.2917 46.25 15.2917C46.02 15.2917 45.9 15.2472 45.9 15.1672Z" fill="#525252"/>
<path d="M53.5 15.1138C53.5 14.9269 53.6 14.9002 53.98 14.9892C54.34 15.0782 54.25 15.2917 53.85 15.2917C53.57 15.2917 53.5 15.2561 53.5 15.1138Z" fill="#525252"/>
<path d="M18.34 15.0871C18.22 15.0337 18.07 14.918 18.01 14.829C17.91 14.6866 17.94 14.6688 18.25 14.6688C18.57 14.6688 18.6 14.6866 18.6 14.9358C18.6 15.0871 18.59 15.1939 18.58 15.1939C18.56 15.185 18.45 15.1405 18.34 15.0871Z" fill="#525252"/>
<path d="M48.4 15.0782C48.4 15.0159 48.5 14.9358 48.63 14.9002C49.04 14.8023 49.2 14.8379 49.2 15.0248C49.2 15.1761 49.13 15.2028 48.8 15.2028C48.53 15.2028 48.4 15.1672 48.4 15.0782Z" fill="#525252"/>
<path d="M50.9 15.0248C50.9 14.8379 51.06 14.8023 51.48 14.9002C51.87 14.9981 51.75 15.2028 51.3 15.2028C50.97 15.2028 50.9 15.1761 50.9 15.0248Z" fill="#525252"/>
<path d="M81.05 14.918C81.08 14.8557 81.24 14.7311 81.4 14.651C81.7 14.4997 81.7 14.4997 81.7 14.7578C81.7 15.007 81.67 15.0248 81.35 15.0248C81.12 15.0248 81.02 14.9892 81.05 14.918Z" fill="#525252"/>
<path d="M16.1 14.6688C16.1 14.4196 16.07 14.4018 15.75 14.4018C15.43 14.4018 15.4 14.384 15.4 14.1349C15.4 13.8857 15.41 13.8768 15.62 13.9747C15.74 14.037 15.95 14.1972 16.08 14.3395C16.21 14.473 16.37 14.5798 16.43 14.5798C16.5 14.5798 16.61 14.6599 16.68 14.7578C16.79 14.9269 16.78 14.9358 16.45 14.9358C16.13 14.9358 16.1 14.918 16.1 14.6688Z" fill="#525252"/>
<path d="M8.26 14.562C8.16 14.2239 8.18999 14.1349 8.39999 14.1349C8.55999 14.1349 8.59999 14.1972 8.59999 14.4463C8.59999 14.8023 8.36 14.8824 8.26 14.562Z" fill="#525252"/>
<path d="M17.44 14.3751C17.32 14.3217 17.17 14.2061 17.11 14.1171C17.01 13.9747 17.04 13.9569 17.35 13.9569C17.67 13.9569 17.7 13.9747 17.7 14.2239C17.7 14.3751 17.69 14.4819 17.68 14.4819C17.66 14.473 17.55 14.4285 17.44 14.3751Z" fill="#525252"/>
<path d="M68 14.0459C68.3 13.8056 68.57 13.6009 68.61 13.6009C68.65 13.6009 68.8 13.4852 68.93 13.3339C69.07 13.1916 69.23 13.067 69.28 13.067C69.34 13.067 69.5 12.9513 69.63 12.8C69.77 12.6576 69.93 12.533 69.99 12.533C70.04 12.533 70.17 12.444 70.27 12.3372C70.37 12.2216 70.56 12.0792 70.68 12.0169C70.89 11.919 70.9 11.9279 70.9 12.1771C70.9 12.4173 70.87 12.444 70.6 12.444C70.35 12.444 70.3 12.4796 70.3 12.6665C70.3 12.8623 70.26 12.889 69.95 12.889C69.63 12.889 69.6 12.9068 69.6 13.156C69.6 13.4051 69.57 13.4229 69.25 13.4229C68.93 13.4229 68.9 13.4407 68.9 13.6899C68.9 13.9391 68.87 13.9569 68.55 13.9569C68.23 13.9569 68.2 13.9747 68.2 14.2239C68.2 14.473 68.17 14.4908 67.83 14.4908C67.46 14.4908 67.46 14.4908 68 14.0459V14.0459Z" fill="#525252"/>
<path d="M90.8 14.1794C90.8 13.9302 90.84 13.8679 91 13.8679C91.21 13.8679 91.24 13.9569 91.14 14.295C91.04 14.6154 90.8 14.5353 90.8 14.1794Z" fill="#525252"/>
<path d="M80.3 14.126C80.3 13.8946 80.33 13.8679 80.65 13.8679C80.96 13.8679 80.99 13.8857 80.89 14.0281C80.83 14.1082 80.67 14.2328 80.54 14.2861C80.32 14.3751 80.3 14.3662 80.3 14.126Z" fill="#525252"/>
<path d="M82.32 13.8679C82.39 13.77 82.5 13.6899 82.57 13.6899C82.63 13.6899 82.79 13.5831 82.92 13.4496C83.05 13.3072 83.26 13.1471 83.38 13.0848C83.59 12.9869 83.6 12.9958 83.6 13.245C83.6 13.4941 83.57 13.5119 83.25 13.5119C82.93 13.5119 82.9 13.5297 82.9 13.7789C82.9 14.0281 82.87 14.0459 82.55 14.0459C82.22 14.0459 82.21 14.037 82.32 13.8679Z" fill="#525252"/>
<path d="M81.3 13.3339C81.3 13.0848 81.33 13.067 81.65 13.067C81.97 13.067 82 13.0492 82 12.8C82 12.5508 82.03 12.533 82.35 12.533C82.68 12.533 82.69 12.5419 82.58 12.711C82.51 12.8089 82.4 12.889 82.33 12.889C82.27 12.889 82.11 12.9958 81.98 13.1382C81.85 13.2716 81.64 13.4318 81.52 13.4941C81.31 13.592 81.3 13.5831 81.3 13.3339Z" fill="#525252"/>
<path d="M29.6 12.9869C29.6 12.7466 29.62 12.7377 29.84 12.8267C29.97 12.8801 30.13 13.0047 30.19 13.0848C30.29 13.2272 30.26 13.245 29.95 13.245C29.63 13.245 29.6 13.2183 29.6 12.9869Z" fill="#525252"/>
<path d="M90.9 12.9335C90.9 12.6843 90.94 12.622 91.1 12.622C91.31 12.622 91.34 12.711 91.24 13.0492C91.14 13.3695 90.9 13.2894 90.9 12.9335Z" fill="#525252"/>
<path d="M15.54 12.9513C15.42 12.8979 15.27 12.7822 15.21 12.6932C15.11 12.5508 15.14 12.533 15.45 12.533C15.77 12.533 15.8 12.5508 15.8 12.8C15.8 12.9513 15.79 13.0581 15.78 13.0581C15.76 13.0492 15.65 13.0047 15.54 12.9513Z" fill="#525252"/>
<path d="M8.2 12.0703C8.2 11.8033 8.33 11.5541 8.46 11.5541C8.55 11.5541 8.6 11.6609 8.6 11.8656C8.6 12.1148 8.56 12.1771 8.4 12.1771C8.29 12.1771 8.2 12.1237 8.2 12.0703Z" fill="#525252"/>
<path d="M27.8 11.6342C27.8 11.3672 27.8 11.3672 28.1 11.5541C28.54 11.83 28.55 11.9101 28.16 11.9101C27.83 11.9101 27.8 11.8923 27.8 11.6342Z" fill="#525252"/>
<path d="M10.4 10.9757C10.4 10.7087 10.43 10.7087 10.81 10.9045C11.19 11.1092 11.18 11.1982 10.75 11.1982C10.44 11.1982 10.4 11.1715 10.4 10.9757Z" fill="#525252"/>
<path d="M86.35 11.0202C86.38 10.9757 86.54 10.8511 86.7 10.7532C87 10.5663 87 10.5663 87 10.8333C87 11.0914 86.97 11.1092 86.64 11.1092C86.44 11.1092 86.31 11.0736 86.35 11.0202Z" fill="#525252"/>
<path d="M90.9 10.7977C90.9 10.4417 91.14 10.3616 91.24 10.6909C91.34 11.0202 91.31 11.1092 91.1 11.1092C90.94 11.1092 90.9 11.0469 90.9 10.7977Z" fill="#525252"/>
<path d="M9.5 10.6731C9.5 10.4417 9.7 10.3972 9.98 10.5574C10.3 10.7443 10.25 10.8422 9.85 10.8422C9.57 10.8422 9.5 10.8066 9.5 10.6731Z" fill="#525252"/>
<path d="M11.82 10.5218C11.7 10.4506 11.6 10.415 11.6 10.4595C11.6 10.4951 11.56 10.4862 11.52 10.4328C11.48 10.3794 11.3 10.2638 11.13 10.1837C10.7 9.98789 10.71 9.8633 11.15 9.8633C11.43 9.8633 11.5 9.8989 11.5 10.0413C11.5 10.1837 11.57 10.2193 11.85 10.2193C12.16 10.2193 12.2 10.246 12.2 10.4417C12.2 10.6998 12.13 10.7176 11.82 10.5218V10.5218Z" fill="#525252"/>
<path d="M87.5 10.3261C87.5 10.2549 88.02 9.95229 88.14 9.95229C88.17 9.95229 88.2 10.0502 88.2 10.1748C88.2 10.3705 88.16 10.3972 87.85 10.3972C87.66 10.3972 87.5 10.3616 87.5 10.3261Z" fill="#525252"/>
<path d="M9.95 9.76541C9.92 9.73871 9.74 9.67642 9.55 9.64972C9.15 9.57853 9.06 9.32935 9.44 9.32935C10 9.32935 10.3 9.43614 10.3 9.64082C10.3 9.8188 10.05 9.91669 9.95 9.76541V9.76541Z" fill="#525252"/>
<path d="M25 9.60523C25 9.36495 25.02 9.35605 25.24 9.44504C25.37 9.49844 25.53 9.62302 25.59 9.70312C25.69 9.8455 25.66 9.8633 25.35 9.8633C25.03 9.8633 25 9.8366 25 9.60523Z" fill="#525252"/>
<path d="M87.4 9.10688C87.4 8.9111 87.44 8.8844 87.75 8.8844C88.18 8.8844 88.19 8.97339 87.81 9.17807C87.43 9.37385 87.4 9.37385 87.4 9.10688Z" fill="#525252"/>
<path d="M23.9 8.8844C23.9 8.75091 23.83 8.70642 23.65 8.70642C23.44 8.70642 23.4 8.66192 23.4 8.43055C23.4 8.14578 23.4 8.14578 23.73 8.38605C23.9 8.51954 24.12 8.64412 24.2 8.67082C24.29 8.69752 24.41 8.79541 24.48 8.8933C24.59 9.04458 24.57 9.06238 24.25 9.06238C23.97 9.06238 23.9 9.02678 23.9 8.8844V8.8844Z" fill="#525252"/>
<path d="M7.7 8.24367C7.7 7.97669 7.83 7.72752 7.96 7.72752C8.05 7.72752 8.1 7.83431 8.1 8.03899C8.1 8.28816 8.06 8.35046 7.9 8.35046C7.79 8.35046 7.7 8.29706 7.7 8.24367Z" fill="#525252"/>
<path d="M91.3 7.68302C91.3 7.32706 91.54 7.24697 91.64 7.57623C91.74 7.9055 91.71 7.99449 91.5 7.99449C91.34 7.99449 91.3 7.9322 91.3 7.68302Z" fill="#525252"/>
<path d="M21.2 6.9177C21.2 6.65073 21.2 6.65073 21.5 6.83761C21.94 7.11348 21.95 7.19358 21.56 7.19358C21.23 7.19358 21.2 7.17578 21.2 6.9177Z" fill="#525252"/>
<path d="M18.4 5.0222C18.4 4.71963 18.4 4.71963 18.75 4.9955C18.94 5.14679 19.1 5.28027 19.1 5.29807C19.1 5.31587 18.94 5.32477 18.75 5.32477C18.42 5.32477 18.4 5.30697 18.4 5.0222Z" fill="#525252"/>
<path d="M91 4.74633C91 4.36367 91.21 4.32807 91.37 4.69293C91.49 4.9866 91.45 5.05779 91.18 5.05779C91.04 5.05779 91 4.9866 91 4.74633Z" fill="#525252"/>
<path d="M8.07999 4.55945C7.97999 4.47936 8.24 3.98991 8.37 3.98991C8.45 3.98991 8.5 4.10559 8.5 4.30137C8.5 4.54165 8.46 4.61284 8.32 4.61284C8.22 4.61284 8.10999 4.58614 8.07999 4.55945Z" fill="#525252"/>
<path d="M81.95 4.25688C81.98 4.21238 82.14 4.0878 82.3 3.98991C82.6 3.80303 82.6 3.80303 82.6 4.07C82.6 4.32807 82.57 4.34587 82.24 4.34587C82.04 4.34587 81.91 4.31027 81.95 4.25688Z" fill="#525252"/>
<path d="M90.8 3.67844C90.8 3.32248 91.04 3.24238 91.14 3.57165C91.24 3.90091 91.21 3.98991 91 3.98991C90.84 3.98991 90.8 3.92761 90.8 3.67844Z" fill="#525252"/>
<path d="M83.1 3.56275C83.1 3.49156 83.62 3.18899 83.74 3.18899C83.77 3.18899 83.8 3.28688 83.8 3.41146C83.8 3.60724 83.76 3.63394 83.45 3.63394C83.26 3.63394 83.1 3.59835 83.1 3.56275Z" fill="#525252"/>
<path d="M15.5 3.45596C15.5 3.41147 15.43 3.36697 15.35 3.36697C15.27 3.36697 15.2 3.33137 15.2 3.27798C15.2 3.23348 15.13 3.18899 15.05 3.18899C14.96 3.18899 14.9 3.1089 14.9 2.96651C14.9 2.84192 14.93 2.74403 14.97 2.74403C15.08 2.74403 16.2 3.41146 16.2 3.48266C16.2 3.51825 16.04 3.54495 15.85 3.54495C15.66 3.54495 15.5 3.50935 15.5 3.45596Z" fill="#525252"/>
<path d="M84.2 2.93981C84.2 2.86862 84.72 2.56605 84.84 2.56605C84.87 2.56605 84.9 2.66394 84.9 2.78853C84.9 2.98431 84.86 3.01101 84.55 3.01101C84.36 3.01101 84.2 2.97541 84.2 2.93981Z" fill="#525252"/>
<path d="M13.9 2.47706C13.9 2.34358 13.83 2.29908 13.61 2.29908C13.16 2.29908 13 2.21009 13 1.97871C13 1.86303 13.03 1.76514 13.06 1.76514C13.09 1.76514 13.42 1.91642 13.78 2.0944C14.15 2.28128 14.48 2.42367 14.53 2.40587C14.57 2.39697 14.6 2.45037 14.6 2.52156C14.6 2.61055 14.49 2.65504 14.25 2.65504C13.97 2.65504 13.9 2.61945 13.9 2.47706Z" fill="#525252"/>
<path d="M11.1 1.1867C11.1 0.973117 11.11 0.964217 11.42 1.07991C11.88 1.24899 11.9 1.40917 11.46 1.40917C11.14 1.40917 11.1 1.38248 11.1 1.1867V1.1867Z" fill="#525252"/>
<path d="M87.9 1.23119C87.9 1.1244 88.23 0.964214 88.44 0.964214C88.53 0.964214 88.6 1.04431 88.6 1.1422C88.6 1.28458 88.53 1.32018 88.25 1.32018C88.06 1.32018 87.9 1.28458 87.9 1.23119Z" fill="#525252"/>
</svg>
