<svg width="102" height="85" viewBox="0 0 102 85" fill="none" xmlns="http://www.w3.org/2000/svg">
<path d="M49.45 84.3842C49.23 84.3575 48.55 84.2596 47.93 84.1707C43.85 83.5299 41.16 81.848 39.21 78.6977C37.46 75.8767 36.69 72.3794 37.15 69.3092C37.25 68.6507 37.34 67.9654 37.34 67.7963C37.35 67.4849 37.35 67.4849 36.75 67.4137C36.15 67.3425 33.64 67.0221 31.7 66.764C25.9 65.9898 15.83 64.4503 7.05 62.9908C1.49 62.0653 0.389999 61.8606 0.279999 61.7628C0.129999 61.6293 0.149999 60.597 0.359999 58.5858C0.869999 53.4955 2.28 48.2451 4.45 43.3239C6.16 39.4439 8.32 35.5995 10.46 32.6272C10.83 32.1199 10.91 31.933 10.87 31.7194C10.84 31.5682 10.61 30.4825 10.36 29.3078C9.27 24.1552 8.58 19.7502 8.13 15.1138C7.89 12.5597 7.89 7.10459 8.13 5.43156C8.47 3.04661 9.12 0.919723 9.66 0.412476C11.21 -1.02028 16.36 1.49816 26.25 8.51954C28.25 9.94339 32.98 13.4941 35.28 15.3095C36.02 15.8969 36.02 15.8969 36.73 15.7278C39.3 15.1316 42.69 14.6065 45.75 14.3484C48.27 14.126 53.74 14.126 56.25 14.3395C59.23 14.6065 61.77 14.9625 64.19 15.4786C64.87 15.621 65.46 15.7367 65.51 15.7367C65.56 15.7367 65.97 15.443 66.43 15.0871C72.58 10.2549 79.26 5.53835 83.59 2.96651C86.61 1.1778 88.41 0.359083 89.92 0.0921108C90.85 -0.0680727 91.38 0.0298161 91.8 0.430275C92.28 0.893027 92.9 2.87752 93.25 5.14679C93.47 6.55284 93.56 11.3317 93.41 13.5564C93.1 18.0416 92.2 24.0573 91 29.6638C90.84 30.4469 90.7 31.1588 90.7 31.2389C90.7 31.319 91.12 31.9864 91.64 32.7073C96.67 39.7909 100.05 47.8446 101.35 55.7915C101.63 57.5446 101.93 60.597 101.88 61.3089C101.85 61.7895 101.85 61.7895 101.35 61.9051C101.08 61.9674 100.49 62.0742 100.05 62.1454C99.61 62.2166 98.31 62.4302 97.15 62.626C86.68 64.3791 76.32 65.972 70.25 66.764C69.65 66.8441 68.43 67.0132 67.55 67.1289C66.67 67.2446 65.67 67.3692 65.33 67.4048C64.59 67.476 64.62 67.4048 64.84 68.7574C65.08 70.1813 65.13 71.1602 65.01 72.2904C64.54 76.6865 62.31 80.5754 59.16 82.4709C57.84 83.2718 55.85 83.9304 53.9 84.2151C52.96 84.3575 50.22 84.4554 49.45 84.3842ZM53.12 83.3252C55.83 82.9604 57.94 82.1595 59.49 80.9047C61.79 79.0359 63.51 75.672 63.9 72.2904C64.04 71.1157 63.99 70.2525 63.7 68.5973C63.46 67.2713 63.45 66.8708 63.64 66.7373C63.72 66.675 65.15 66.4526 66.82 66.239C72.7 65.4826 77.66 64.7617 85.6 63.5159C91.44 62.5993 100.71 61.0597 100.79 60.9885C100.84 60.9351 100.63 58.6481 100.56 58.5502C100.45 58.39 98.76 57.9095 97.57 57.7048C95.59 57.3488 94.24 57.2687 91.36 57.3221C87.71 57.3844 84.86 57.6959 79.77 58.5858C69.48 60.3834 63.32 59.8139 60.78 56.8416C59.58 55.4266 58.71 52.6501 58.84 50.6211C58.92 49.393 59.11 48.6989 59.65 47.7289C60.6 45.9758 62.36 44.5875 65.16 43.3417C67.54 42.2827 70.72 41.375 73.4 41.0012C74.68 40.8143 79.1 40.841 80.7 41.0457C85.49 41.6419 90.81 43.0836 96.18 45.2194C96.85 45.4952 97.4 45.691 97.4 45.6732C97.4 45.6465 97.17 45.0948 96.89 44.4451C96.38 43.2527 96.38 43.2527 95.28 42.8344C91.3 41.3216 87.17 40.3516 82.55 39.8532C75.86 39.1235 69.65 39.5239 64.57 41.0101C62.02 41.7576 60.48 42.5051 58.52 43.9557C56.9 45.1571 55.27 45.9224 53.42 46.3673C52.29 46.6343 49.91 46.6877 48.45 46.483C45.94 46.136 43.36 45.0859 41.15 43.5107C39.19 42.1136 36.63 40.7965 34.33 39.9956C33.23 39.6129 31.13 39.1235 29.8 38.9277C23.08 37.9399 14.74 39.8265 6.5 44.196C5.01 44.9791 4.94 45.0325 4.79 45.4151C4.7 45.6376 4.65 45.8156 4.69 45.8156C4.72 45.8156 5.45 45.5397 6.3 45.2105C12.07 42.9323 17.02 41.6063 21.76 41.0368C23.58 40.8232 27.74 40.8143 29.2 41.0279C31.74 41.3928 34.94 42.3183 37.25 43.3506C40.07 44.6053 41.82 46.0114 42.8 47.8179C43.39 48.8947 43.53 49.5443 43.54 51.1106C43.54 52.2585 43.5 52.5789 43.28 53.3887C42.53 56.0673 41.45 57.509 39.53 58.39C37.85 59.1642 36.09 59.4935 33.2 59.5736C30.17 59.6626 27.36 59.4045 22.6 58.5858C16.63 57.5624 14.43 57.3399 10.2 57.3399C7.25 57.3488 6.83 57.3666 5.66 57.5535C4.12 57.7938 2.93 58.0874 2.05 58.4434C1.42 58.7015 1.4 58.7193 1.39 59.0485C1.39 59.2354 1.35 59.7605 1.32 60.2143C1.28 60.6593 1.28 61.033 1.33 61.033C1.37 61.033 2.96 61.3 4.88 61.6204C9.81 62.448 13.55 63.0442 20.3 64.0943C25.06 64.8418 30.17 65.5627 34.98 66.1945C36.89 66.4437 38.38 66.675 38.47 66.7373C38.65 66.8797 38.63 67.209 38.3 69.0867C38.19 69.7274 38.1 70.6262 38.1 71.089C38.11 75.3072 40.55 79.8546 43.83 81.7501C46.16 83.1028 49.99 83.7524 53.12 83.3252ZM35.55 58.1497C38.24 57.7226 39.98 56.7971 40.83 55.3643C41.7 53.8782 42.14 52.4632 42.14 51.0661C42.14 50.1762 42.1 49.9448 41.86 49.3307C41.36 48.0404 40.27 46.7767 38.76 45.7622C36.44 44.196 31.87 42.6653 28.15 42.2026C26.58 42.0157 23.75 42.0691 21.7 42.3361C17.02 42.9501 10.92 44.721 5.39 47.0793C3.93 47.7022 3.93 47.7022 3.52 49.0015C2.77 51.3686 2.21 53.6735 1.82 56.014C1.63 57.0818 1.63 57.0818 2.59 56.8327C5.93 55.9428 10.98 55.8093 16.9 56.45C18.97 56.6725 20.39 56.8861 23.6 57.4289C25.8 57.8027 27.7 58.0696 29.3 58.2298C30.92 58.39 34.3 58.3455 35.55 58.1497ZM72.45 58.2743C74.32 58.123 76.42 57.8383 79.04 57.3844C83.35 56.6458 85.77 56.3432 89.05 56.1296C91.08 55.9962 95.46 56.0762 96.9 56.272C98.06 56.4233 99.9 56.7971 100.21 56.9395C100.36 57.0106 100.4 57.0017 100.4 56.9039C100.4 56.5212 99.66 52.9171 99.29 51.5377C98.92 50.1317 98.14 47.6043 98.06 47.5242C97.93 47.4085 94.24 45.958 92.58 45.3706C88.21 43.8133 84.12 42.781 80.4 42.3005C78.93 42.1047 75.98 42.0335 74.72 42.1581C71.06 42.514 66.19 44.0981 63.7 45.7266C63.01 46.1805 61.99 47.0704 61.54 47.5954C60.86 48.4141 60.35 49.6066 60.24 50.6745C60.08 52.2318 61.12 55.0973 62.24 56.2008C63.33 57.2687 65.3 58.0162 67.72 58.2654C68.77 58.3722 71.17 58.3811 72.45 58.2743ZM52.43 45.2283C54.31 44.8456 55.84 44.1248 57.68 42.7543C58.86 41.8733 59.74 41.3572 61.05 40.7876C66.25 38.5273 74.69 37.7174 83.4 38.6607C87.03 39.0523 91.95 40.138 94.8 41.1881C95.19 41.3305 95.5 41.4284 95.5 41.4017C95.5 41.2949 94.22 38.8921 93.55 37.7619C87.18 26.905 80.29 21.3431 68.68 17.6945C64.6 16.4041 59.68 15.5142 54.95 15.2028C53.15 15.0871 48.95 15.0871 47.15 15.2028C37.88 15.8079 29.04 18.4509 22.37 22.6068C19.67 24.2798 17.26 26.2821 15.2 28.5514C13.41 30.5359 12.04 32.2979 10.38 34.7807C9 36.8453 6.7 40.9567 5.95 42.7187C5.9 42.8255 6.35 42.6475 7.27 42.1937C12.7 39.5417 18.22 37.9221 23.19 37.5306C24.94 37.3971 28.79 37.4683 30.2 37.6729C31.46 37.8509 33.53 38.3137 34.7 38.6785C37.2 39.4617 39.51 40.6274 42.22 42.4606C44.5 44.0002 46.54 44.8723 48.75 45.2372C49.76 45.4062 51.56 45.3973 52.43 45.2283ZM12.5 29.3345C15.17 26.0774 18.4 23.292 21.97 21.1651C23.59 20.204 23.59 20.204 22.02 18.8336C17.28 14.7044 13.5 11.9635 11.19 10.9757C10.22 10.5663 9.95 10.5663 9.75 10.9846C9.03 12.5241 9.6 17.65 11.52 26.7093C11.86 28.3111 12.16 29.6193 12.2 29.6193C12.23 29.6193 12.37 29.4858 12.5 29.3345ZM89.69 26.6826C91.41 18.8336 92.25 13.1026 92 10.9401C91.9 10.1303 91.7 9.52514 91.48 9.40945C91.3 9.31156 90.18 9.72092 89.27 10.2104C86.94 11.4651 83.58 14.0014 78.76 18.1573C77.16 19.5277 77.16 19.5277 77.91 19.9104C82.06 22.0995 85.16 24.4578 88.21 27.7861C88.95 28.587 89.17 28.7739 89.22 28.6582C89.26 28.5781 89.47 27.6882 89.69 26.6826ZM29.42 17.5788C30.28 17.2584 31.73 16.7601 32.64 16.4842C33.55 16.2084 34.27 15.9503 34.24 15.9058C34.09 15.6833 28.68 11.6164 25.6 9.40945C18.74 4.49716 14.14 1.79183 11.48 1.09771C10.73 0.910825 10.53 0.973118 10.28 1.48037C9.96 2.1478 9.43 4.1145 9.26 5.33367C9.1 6.40156 8.88 9.51624 8.95 9.57853C8.97 9.59633 9.07 9.56963 9.18 9.51624C9.55 9.33826 10.79 9.40055 11.52 9.63193C13.73 10.3261 17.17 12.7288 22.73 17.4631C25.05 19.4476 25.05 19.4476 26.45 18.8069C27.22 18.4598 28.56 17.9081 29.42 17.5788ZM77.78 17.0449C82.87 12.5864 86.67 9.79211 89.06 8.72422C90.15 8.23477 90.52 8.15468 91.53 8.19028C92.4 8.21697 92.4 8.21697 92.4 7.68303C92.4 6.9355 92.15 5.0044 91.9 3.90092C91.65 2.69954 91.14 1.28459 90.9 1.09771C90.72 0.955321 90.67 0.955321 89.98 1.09771C87.72 1.59605 82.89 4.39927 76.45 8.9645C73.74 10.8867 67.39 15.6477 67.32 15.8079C67.31 15.8435 67.96 16.066 68.77 16.2973C70.89 16.9025 75.2 18.4776 75.55 18.7713C75.6 18.8158 75.66 18.8514 75.67 18.8514C75.69 18.8514 76.64 18.0327 77.78 17.0449Z" fill="white"/>
<path d="M48.94 82.1416C47.34 81.6433 45.55 80.6555 44.39 79.6321C43.39 78.7511 43.16 78.315 43.16 77.3183C43.15 76.6687 43.19 76.4907 43.42 76.0636C43.8 75.3783 44.01 75.236 45.1 74.9334C48.93 73.8477 53.67 73.8477 57.69 74.9334C58.67 75.2004 58.75 75.236 59.06 75.6275C59.51 76.1704 59.63 76.6331 59.58 77.523C59.55 78.1371 59.49 78.3417 59.25 78.7066C58.64 79.6499 56.81 80.9314 54.96 81.7234C53.53 82.3285 53.19 82.3908 51.36 82.3908C49.85 82.3908 49.7 82.373 48.94 82.1416ZM53.13 80.9314C55.64 80.0949 58.2 78.2438 58.2 77.2738C58.2 76.7933 57.82 76.4106 57.14 76.1882C56.28 75.9212 54.43 75.5652 53.28 75.4584C50.87 75.2182 48.13 75.4673 45.82 76.1348C45 76.3661 45 76.375 44.74 76.8467C44.48 77.3094 44.48 77.3094 44.7 77.7099C45.14 78.5197 46.77 79.7122 48.5 80.4775C49.78 81.0471 50.13 81.1272 51.37 81.1361C52.32 81.145 52.59 81.1093 53.13 80.9314Z" fill="white"/>
<path d="M29.24 53.4243C29.1 53.2374 29.09 53.095 29.18 52.4721C29.31 51.5199 29.59 50.8792 30.15 50.2473C31 49.2862 32.17 48.7701 33.66 48.69C35.89 48.5654 37.6 49.4019 38.48 51.0394C38.8 51.6445 38.85 51.8314 38.88 52.5522C38.91 53.1306 38.89 53.4243 38.8 53.5133C38.65 53.6735 37.86 53.6913 37.73 53.54C37.67 53.4777 37.58 53.1484 37.52 52.8103C37.31 51.6356 36.51 50.6834 35.32 50.1939C33.29 49.3485 30.86 50.7546 30.54 52.9527C30.45 53.5578 30.37 53.6468 29.84 53.6468C29.49 53.6468 29.37 53.6023 29.24 53.4243Z" fill="white"/>
<path d="M62.64 53.4154C62.49 53.2196 62.48 53.095 62.58 52.392C62.89 50.1583 64.82 48.6633 67.4 48.6633C69.48 48.6722 71.06 49.5087 71.88 51.0572C72.2 51.6445 72.25 51.8314 72.28 52.5522C72.31 53.1306 72.29 53.4243 72.2 53.5133C72.05 53.6735 71.26 53.6913 71.13 53.54C71.07 53.4777 70.98 53.1484 70.92 52.8192C70.71 51.6534 69.97 50.7546 68.82 50.2473C68.26 49.9982 68.05 49.9537 67.45 49.9537C66.52 49.9626 65.7 50.2829 65.01 50.9237C64.38 51.5288 64.13 51.9738 63.98 52.7747C63.92 53.1306 63.82 53.4777 63.77 53.54C63.72 53.5934 63.48 53.6468 63.24 53.6468C62.88 53.6468 62.77 53.6023 62.64 53.4154Z" fill="white"/>
</svg>
