<svg width="100" height="84" viewBox="0 0 100 84" fill="none" xmlns="http://www.w3.org/2000/svg">
<path d="M50.9 83.5477C50.9 83.4053 50.97 83.3697 51.25 83.3697C51.65 83.3697 51.74 83.5833 51.38 83.6723C51 83.7613 50.9 83.7346 50.9 83.5477Z" fill="#B5B5B5"/>
<path d="M54.3 83.0138C54.3 82.8714 54.37 82.8358 54.6 82.8358C54.77 82.8358 54.9 82.8002 54.9 82.7468C54.9 82.7023 55.06 82.6578 55.25 82.6578C55.72 82.6578 55.69 82.8091 55.18 83.0138C54.61 83.2451 54.3 83.2451 54.3 83.0138Z" fill="#B5B5B5"/>
<path d="M41.08 80.9581C40.72 80.7178 40.73 80.611 41.1 80.611C41.37 80.611 41.4 80.6377 41.4 80.878C41.4 81.1895 41.42 81.1895 41.08 80.9581Z" fill="#B5B5B5"/>
<path d="M59.5 80.1305C59.5 79.8368 59.52 79.8101 59.81 79.8101C60.11 79.8101 60.11 79.8101 59.9 80.0771C59.59 80.4686 59.5 80.4775 59.5 80.1305Z" fill="#B5B5B5"/>
<path d="M39.76 79.5787C39.67 79.5075 39.55 79.3651 39.5 79.2673C39.4 79.116 39.43 79.0982 39.7 79.0982C39.98 79.0982 40 79.1249 40 79.4096C40 79.7656 39.98 79.7745 39.76 79.5787Z" fill="#B5B5B5"/>
<path d="M60.6 78.6977C60.6 78.4218 60.63 78.3862 60.85 78.3862C61.15 78.3862 61.15 78.4129 60.93 78.7511C60.7 79.0893 60.6 79.0804 60.6 78.6977Z" fill="#B5B5B5"/>
<path d="M38.77 78.1282C38.55 77.79 38.55 77.7633 38.85 77.7633C39.07 77.7633 39.1 77.7989 39.1 78.0748C39.1 78.4574 39 78.4663 38.77 78.1282Z" fill="#B5B5B5"/>
<path d="M61.2 77.7188C61.2 77.4429 61.23 77.4073 61.46 77.4073C61.6 77.4073 61.7 77.434 61.68 77.4785C61.33 78.1282 61.2 78.1905 61.2 77.7188V77.7188Z" fill="#B5B5B5"/>
<path d="M38.46 77.5942C38.43 77.5586 38.36 77.4162 38.31 77.2828C38.21 77.0692 38.23 77.0514 38.45 77.0514C38.67 77.0514 38.7 77.087 38.7 77.3628C38.7 77.6565 38.58 77.7722 38.46 77.5942Z" fill="#B5B5B5"/>
<path d="M62.2 75.405C62.2 75.1559 62.24 75.0936 62.4 75.0936C62.61 75.0936 62.64 75.1826 62.54 75.5207C62.44 75.8411 62.2 75.761 62.2 75.405Z" fill="#B5B5B5"/>
<path d="M37.11 73.9189C36.87 72.8065 36.87 72.6908 37.07 72.6908C37.22 72.6908 37.28 72.8065 37.38 73.385C37.53 74.266 37.53 74.3816 37.36 74.3816C37.26 74.3816 37.18 74.2215 37.11 73.9189Z" fill="#B5B5B5"/>
<path d="M62.9 71.8454C62.9 71.5962 62.94 71.5339 63.1 71.5339C63.31 71.5339 63.34 71.6229 63.24 71.9611C63.14 72.2815 62.9 72.2014 62.9 71.8454Z" fill="#B5B5B5"/>
<path d="M36.9 69.4694C36.9 69.2024 37.03 68.9532 37.16 68.9532C37.25 68.9532 37.3 69.06 37.3 69.2647C37.3 69.5139 37.26 69.5761 37.1 69.5761C36.99 69.5761 36.9 69.5228 36.9 69.4694Z" fill="#B5B5B5"/>
<path d="M62.6 68.1968C62.6 67.8408 62.84 67.7607 62.94 68.09C63.04 68.4193 63.01 68.5083 62.8 68.5083C62.64 68.5083 62.6 68.446 62.6 68.1968Z" fill="#B5B5B5"/>
<path d="M37.2 67.6895C37.2 67.4226 37.33 67.1734 37.46 67.1734C37.55 67.1734 37.6 67.2802 37.6 67.4849C37.6 67.734 37.56 67.7963 37.4 67.7963C37.29 67.7963 37.2 67.7429 37.2 67.6895Z" fill="#B5B5B5"/>
<path d="M36.18 66.7551C35.85 66.684 35.98 66.4615 36.35 66.4615C36.63 66.4615 36.7 66.4971 36.7 66.6395C36.7 66.8174 36.56 66.8441 36.18 66.7551Z" fill="#B5B5B5"/>
<path d="M64.9 66.4704C64.9 66.3191 64.96 66.2835 65.26 66.2835C65.54 66.2835 65.61 66.3191 65.58 66.4348C65.56 66.5238 65.43 66.5949 65.22 66.6127C64.95 66.6483 64.9 66.6216 64.9 66.4704V66.4704Z" fill="#B5B5B5"/>
<path d="M66.3 66.2835C66.3 66.1411 66.37 66.1055 66.65 66.1055C67.05 66.1055 67.14 66.3191 66.78 66.4081C66.4 66.4971 66.3 66.4704 66.3 66.2835Z" fill="#B5B5B5"/>
<path d="M32.68 66.3102C32.35 66.239 32.48 66.0165 32.85 66.0165C33.13 66.0165 33.2 66.0521 33.2 66.1945C33.2 66.3725 33.06 66.3992 32.68 66.3102Z" fill="#B5B5B5"/>
<path d="M68.3 66.0165C68.3 65.8741 68.37 65.8385 68.65 65.8385C69.05 65.8385 69.14 66.0521 68.78 66.1411C68.4 66.2301 68.3 66.2034 68.3 66.0165Z" fill="#B5B5B5"/>
<path d="M29.38 65.8652C29.05 65.794 29.18 65.5716 29.55 65.5716C29.83 65.5716 29.9 65.6072 29.9 65.7495C29.9 65.9275 29.76 65.9542 29.38 65.8652Z" fill="#B5B5B5"/>
<path d="M74.7 65.1266C74.7 64.9842 74.77 64.9486 75.05 64.9486C75.45 64.9486 75.54 65.1622 75.18 65.2512C74.8 65.3402 74.7 65.3135 74.7 65.1266Z" fill="#B5B5B5"/>
<path d="M23.25 64.9931C23.2 64.9753 22.98 64.9397 22.78 64.9041C22.54 64.8685 22.4 64.8062 22.4 64.7261C22.4 64.5749 22.55 64.566 23.24 64.6461C23.6 64.6905 23.7 64.7439 23.7 64.8685C23.7 65.0287 23.52 65.0732 23.25 64.9931Z" fill="#B5B5B5"/>
<path d="M20.18 64.5304C19.85 64.4592 19.98 64.2367 20.35 64.2367C20.63 64.2367 20.7 64.2723 20.7 64.4147C20.7 64.5927 20.56 64.6194 20.18 64.5304Z" fill="#B5B5B5"/>
<path d="M16.18 63.9074C15.85 63.8362 15.98 63.6138 16.35 63.6138C16.63 63.6138 16.7 63.6494 16.7 63.7918C16.7 63.9697 16.56 63.9964 16.18 63.9074Z" fill="#B5B5B5"/>
<path d="M84.6 63.6138C84.6 63.4714 84.67 63.4358 84.95 63.4358C85.35 63.4358 85.44 63.6494 85.08 63.7383C84.7 63.8273 84.6 63.8006 84.6 63.6138Z" fill="#B5B5B5"/>
<path d="M9.98 62.9285C9.65 62.8573 9.78 62.6349 10.15 62.6349C10.43 62.6349 10.5 62.6705 10.5 62.8128C10.5 62.9908 10.36 63.0175 9.98 62.9285Z" fill="#B5B5B5"/>
<path d="M90.2 62.7239C90.2 62.5815 90.27 62.5459 90.55 62.5459C90.95 62.5459 91.04 62.7595 90.68 62.8484C90.3 62.9374 90.2 62.9107 90.2 62.7239Z" fill="#B5B5B5"/>
<path d="M97.1 61.567C97.1 61.4246 97.17 61.389 97.45 61.389C97.85 61.389 97.94 61.6026 97.58 61.6916C97.2 61.7806 97.1 61.7539 97.1 61.567Z" fill="#B5B5B5"/>
<path d="M1.33 61.5047C1.05 61.4068 1.2 61.211 1.55 61.211C1.83 61.211 1.9 61.2466 1.9 61.389C1.9 61.567 1.64 61.6204 1.33 61.5047Z" fill="#B5B5B5"/>
<path d="M29 59.4312C29 59.2443 29.1 59.2176 29.48 59.3066C29.84 59.3956 29.75 59.6092 29.35 59.6092C29.07 59.6092 29 59.5736 29 59.4312Z" fill="#B5B5B5"/>
<path d="M32.7 59.4846C32.7 59.3689 32.98 59.2532 33.28 59.2532C33.34 59.2532 33.4 59.3333 33.4 59.4312C33.4 59.5736 33.33 59.6092 33.05 59.6092C32.82 59.6092 32.7 59.5647 32.7 59.4846Z" fill="#B5B5B5"/>
<path d="M33.9 59.3956C33.9 59.2799 34.18 59.1642 34.48 59.1642C34.54 59.1642 34.6 59.2443 34.6 59.3422C34.6 59.4846 34.53 59.5202 34.25 59.5202C34.02 59.5202 33.9 59.4757 33.9 59.3956Z" fill="#B5B5B5"/>
<path d="M26.8 59.2532C26.8 59.0663 26.9 59.0396 27.28 59.1286C27.64 59.2176 27.55 59.4312 27.15 59.4312C26.87 59.4312 26.8 59.3956 26.8 59.2532Z" fill="#B5B5B5"/>
<path d="M99.6 59.0307C99.6 58.7905 99.64 58.7193 99.78 58.7193C99.9 58.7193 99.96 58.7994 99.97 59.0307C100 59.2888 99.97 59.3422 99.8 59.3422C99.64 59.3422 99.6 59.2799 99.6 59.0307Z" fill="#B5B5B5"/>
<path d="M24 58.8972C24 58.7104 24.1 58.6837 24.48 58.7727C24.84 58.8616 24.75 59.0752 24.35 59.0752C24.07 59.0752 24 59.0396 24 58.8972Z" fill="#B5B5B5"/>
<path d="M37.12 58.7015C37.15 58.6392 37.31 58.5413 37.48 58.479C37.79 58.3633 37.8 58.3722 37.8 58.5858C37.8 58.7816 37.76 58.8083 37.44 58.8083C37.21 58.8083 37.1 58.7727 37.12 58.7015Z" fill="#B5B5B5"/>
<path d="M0.169995 58.5502C0.199995 58.4523 0.349996 58.3366 0.509996 58.2832C0.779996 58.2031 0.799995 58.212 0.799995 58.3989C0.799995 58.6125 0.629995 58.7193 0.299995 58.7193C0.169995 58.7193 0.129995 58.6748 0.169995 58.5502Z" fill="#B5B5B5"/>
<path d="M29.48 58.568C29.15 58.4968 29.28 58.2743 29.65 58.2743C29.93 58.2743 30 58.3099 30 58.4523C30 58.6303 29.86 58.657 29.48 58.568Z" fill="#B5B5B5"/>
<path d="M32.4 58.4523C32.4 58.3099 32.47 58.2743 32.75 58.2743C33.15 58.2743 33.24 58.4879 32.88 58.5769C32.5 58.6659 32.4 58.6392 32.4 58.4523Z" fill="#B5B5B5"/>
<path d="M33.6 58.3633C33.6 58.2209 33.67 58.1853 33.95 58.1853C34.35 58.1853 34.44 58.3989 34.08 58.4879C33.7 58.5769 33.6 58.5502 33.6 58.3633Z" fill="#B5B5B5"/>
<path d="M26.5 58.3188C26.42 58.301 26.18 58.2654 25.98 58.2298C25.74 58.1942 25.6 58.1319 25.6 58.0518C25.6 57.9006 25.71 57.8917 26.48 57.9717C26.9 58.0251 27 58.0607 27 58.1942C27 58.3544 26.88 58.3811 26.5 58.3188Z" fill="#B5B5B5"/>
<path d="M19.3 58.0963C19.3 57.9094 19.4 57.8827 19.78 57.9717C20.14 58.0607 20.05 58.2743 19.65 58.2743C19.37 58.2743 19.3 58.2387 19.3 58.0963Z" fill="#B5B5B5"/>
<path d="M17.5 57.8294C17.5 57.6425 17.6 57.6158 17.98 57.7048C18.34 57.7938 18.25 58.0073 17.85 58.0073C17.57 58.0073 17.5 57.9717 17.5 57.8294Z" fill="#B5B5B5"/>
<path d="M2.8 57.7048C2.8 57.5891 3.08 57.4734 3.38 57.4734C3.44 57.4734 3.5 57.5535 3.5 57.6514C3.5 57.7938 3.43 57.8294 3.15 57.8294C2.92 57.8294 2.8 57.7849 2.8 57.7048Z" fill="#B5B5B5"/>
<path d="M15.5 57.5535C15.5 57.4022 15.55 57.3755 15.82 57.4111C16.03 57.4289 16.16 57.5001 16.18 57.5891C16.21 57.7048 16.14 57.7404 15.86 57.7404C15.56 57.7404 15.5 57.7048 15.5 57.5535Z" fill="#B5B5B5"/>
<path d="M22.25 57.6781C22.14 57.6603 21.95 57.6247 21.83 57.598C21.7 57.5802 21.6 57.5001 21.6 57.4289C21.6 57.2865 21.82 57.2598 22.43 57.3488C22.7 57.3933 22.8 57.4467 22.8 57.5713C22.8 57.7404 22.68 57.7671 22.25 57.6781V57.6781Z" fill="#B5B5B5"/>
<path d="M3.8 57.5268C3.8 57.4022 3.91 57.3666 4.73 57.242C5.05 57.1975 5.1 57.2064 5.1 57.3666C5.1 57.5001 5.01 57.5535 4.64 57.598C3.95 57.6781 3.8 57.6692 3.8 57.5268Z" fill="#B5B5B5"/>
<path d="M13.7 57.3844C13.7 57.2331 13.76 57.2064 14.05 57.2331C14.31 57.242 14.4 57.2954 14.4 57.4111C14.4 57.5268 14.32 57.5624 14.05 57.5624C13.77 57.5624 13.7 57.5268 13.7 57.3844Z" fill="#B5B5B5"/>
<path d="M20.78 57.4111C20.45 57.3399 20.58 57.1174 20.95 57.1174C21.23 57.1174 21.3 57.153 21.3 57.2954C21.3 57.4734 21.16 57.5001 20.78 57.4111Z" fill="#B5B5B5"/>
<path d="M11.1 57.2064C11.1 57.0195 11.2 56.9928 11.58 57.0818C11.94 57.1708 11.85 57.3844 11.45 57.3844C11.17 57.3844 11.1 57.3488 11.1 57.2064Z" fill="#B5B5B5"/>
<path d="M1.5 56.9395C1.5 56.7971 1.57 56.7615 1.85 56.7615C2.04 56.7615 2.2 56.7259 2.2 56.6725C2.2 56.628 2.36 56.5835 2.55 56.5835C2.98 56.5835 3.04 56.8238 2.63 56.9039C2.47 56.9306 2.22 56.9929 2.06 57.0373C1.63 57.1619 1.5 57.1352 1.5 56.9395Z" fill="#B5B5B5"/>
<path d="M17.15 56.8594C16.99 56.717 17.14 56.5835 17.45 56.5835C17.73 56.5835 17.8 56.6191 17.8 56.7615C17.8 56.9039 17.74 56.9395 17.5 56.9217C17.33 56.9128 17.17 56.8861 17.15 56.8594V56.8594Z" fill="#B5B5B5"/>
<path d="M3.1 56.5835C3.1 56.4411 3.17 56.4055 3.45 56.4055C3.85 56.4055 3.94 56.6191 3.58 56.7081C3.2 56.7971 3.1 56.7704 3.1 56.5835Z" fill="#B5B5B5"/>
<path d="M14.88 56.6102C14.55 56.539 14.68 56.3165 15.05 56.3165C15.33 56.3165 15.4 56.3521 15.4 56.4945C15.4 56.6725 15.26 56.6992 14.88 56.6102Z" fill="#B5B5B5"/>
<path d="M6.3 56.2275C6.3 56.0851 6.37 56.0495 6.65 56.0495C7.05 56.0495 7.14 56.2631 6.78 56.3521C6.4 56.4411 6.3 56.4144 6.3 56.2275Z" fill="#B5B5B5"/>
<path d="M11.38 56.3432C11.05 56.272 11.18 56.0495 11.55 56.0495C11.83 56.0495 11.9 56.0851 11.9 56.2275C11.9 56.4055 11.76 56.4322 11.38 56.3432Z" fill="#B5B5B5"/>
<path d="M40 55.213C40 54.9283 40.03 54.8927 40.25 54.8927C40.49 54.8927 40.5 54.9016 40.37 55.1774C40.18 55.5868 40 55.6046 40 55.213Z" fill="#B5B5B5"/>
<path d="M0.900002 53.807C0.900002 53.54 1.03 53.2908 1.16 53.2908C1.25 53.2908 1.3 53.3976 1.3 53.6023C1.3 53.8515 1.26 53.9138 1.1 53.9138C0.990002 53.9138 0.900002 53.8604 0.900002 53.807Z" fill="#B5B5B5"/>
<path d="M41 49.7757C41 49.4197 41.24 49.3396 41.34 49.6689C41.44 49.9982 41.41 50.0872 41.2 50.0872C41.04 50.0872 41 50.0249 41 49.7757Z" fill="#B5B5B5"/>
<path d="M1.9 49.8291C1.9 49.5621 2.01 49.3752 2.16 49.3752C2.25 49.3752 2.3 49.482 2.3 49.6867C2.3 49.9359 2.26 49.9982 2.1 49.9982C1.97 49.9982 1.9 49.9359 1.9 49.8291Z" fill="#B5B5B5"/>
<path d="M2.2 48.9125C2.2 48.6455 2.33 48.3963 2.46 48.3963C2.55 48.3963 2.6 48.5031 2.6 48.7078C2.6 48.957 2.56 49.0193 2.4 49.0193C2.29 49.0193 2.2 48.9659 2.2 48.9125Z" fill="#B5B5B5"/>
<path d="M2.92 47.3996C2.95 47.3373 3.11 47.2395 3.28 47.1772C3.59 47.0615 3.6 47.0704 3.6 47.2839C3.6 47.4797 3.56 47.5064 3.24 47.5064C3.01 47.5064 2.9 47.4708 2.92 47.3996Z" fill="#B5B5B5"/>
<path d="M51.3 46.4029C51.3 46.2872 51.58 46.1716 51.88 46.1716C51.94 46.1716 52 46.2517 52 46.3495C52 46.4919 51.93 46.5275 51.65 46.5275C51.42 46.5275 51.3 46.483 51.3 46.4029Z" fill="#B5B5B5"/>
<path d="M38.3 46.0826C38.3 45.9491 38.23 45.9046 38.05 45.9046C37.84 45.9046 37.8 45.8601 37.8 45.6287C37.8 45.3617 37.8 45.3617 38.13 45.5575C38.3 45.6732 38.59 45.8779 38.75 46.0114C39.05 46.2605 39.05 46.2605 38.68 46.2605C38.37 46.2605 38.3 46.2249 38.3 46.0826Z" fill="#B5B5B5"/>
<path d="M45.8 46.0826C45.8 45.9046 46.02 45.8512 46.34 45.958C46.64 46.0648 46.52 46.2605 46.15 46.2605C45.87 46.2605 45.8 46.2249 45.8 46.0826Z" fill="#B5B5B5"/>
<path d="M52.5 46.1449C52.5 46.0559 52.67 45.958 52.98 45.8868C53.42 45.7711 53.45 45.7711 53.48 45.9313C53.53 46.1538 53.48 46.1894 52.95 46.2338C52.59 46.2783 52.5 46.2605 52.5 46.1449Z" fill="#B5B5B5"/>
<path d="M39.75 45.869C39.35 45.5575 39.35 45.5575 39.73 45.5486C40.13 45.5486 40.24 45.6554 40.18 45.9936C40.15 46.1716 40.13 46.1716 39.75 45.869Z" fill="#B5B5B5"/>
<path d="M6.4 45.9669C6.4 45.8957 6.56 45.8067 6.75 45.7533C7.08 45.6554 7.1 45.6643 7.1 45.869C7.1 46.0559 7.05 46.0826 6.75 46.0826C6.53 46.0826 6.4 46.0381 6.4 45.9669Z" fill="#B5B5B5"/>
<path d="M44.1 45.5041C44.1 45.2906 44.11 45.2817 44.42 45.3973C44.88 45.5664 44.9 45.7266 44.46 45.7266C44.14 45.7266 44.1 45.6999 44.1 45.5041Z" fill="#B5B5B5"/>
<path d="M54 45.6465C54 45.5931 54.28 45.4329 54.62 45.2816C54.96 45.1215 55.33 44.9435 55.44 44.8723C55.73 44.6943 55.8 44.7121 55.8 44.9702C55.8 45.166 55.76 45.1927 55.45 45.1927C55.17 45.1927 55.1 45.2283 55.1 45.3706C55.1 45.4863 55.03 45.5486 54.9 45.5486C54.79 45.5486 54.7 45.5931 54.7 45.6376C54.7 45.691 54.54 45.7266 54.35 45.7266C54.16 45.7266 54 45.691 54 45.6465V45.6465Z" fill="#B5B5B5"/>
<path d="M3.3 45.5931C3.3 45.4685 3.62 45.0147 3.7 45.0147C3.76 45.0147 3.8 45.1571 3.8 45.3261C3.8 45.602 3.77 45.6376 3.55 45.6376C3.41 45.6376 3.3 45.6198 3.3 45.5931Z" fill="#B5B5B5"/>
<path d="M7.62 45.5308C7.65 45.4685 7.81 45.3706 7.98 45.3084C8.29 45.1927 8.3 45.2016 8.3 45.4151C8.3 45.6109 8.26 45.6376 7.94 45.6376C7.71 45.6376 7.6 45.602 7.62 45.5308Z" fill="#B5B5B5"/>
<path d="M5.3 45.3172C5.3 45.1304 5.35 45.1037 5.65 45.1037C5.87 45.1037 6 45.1482 6 45.2194C6 45.2905 5.84 45.3795 5.65 45.4329C5.32 45.5308 5.3 45.5219 5.3 45.3172Z" fill="#B5B5B5"/>
<path d="M46.18 45.2194C45.85 45.1482 45.98 44.9257 46.35 44.9257C46.63 44.9257 46.7 44.9613 46.7 45.1037C46.7 45.2817 46.56 45.3083 46.18 45.2194Z" fill="#B5B5B5"/>
<path d="M52.6 45.0592C52.6 44.8634 52.64 44.8367 52.96 44.8367C53.4 44.8367 53.38 44.9969 52.92 45.166C52.61 45.2817 52.6 45.2728 52.6 45.0592Z" fill="#B5B5B5"/>
<path d="M44.63 44.7032C44.2 44.543 44.21 44.3917 44.65 44.3917C44.96 44.3917 45 44.4184 45 44.6142C45 44.7388 44.99 44.8367 44.98 44.8367C44.96 44.8278 44.8 44.7744 44.63 44.7032Z" fill="#B5B5B5"/>
<path d="M53.8 44.6231C53.8 44.4184 53.84 44.3917 54.15 44.3917C54.68 44.3917 54.61 44.5074 53.88 44.8189C53.83 44.8367 53.8 44.7477 53.8 44.6231V44.6231Z" fill="#B5B5B5"/>
<path d="M41.9 44.5252C41.9 44.2583 41.93 44.2583 42.31 44.454C42.69 44.6587 42.68 44.7477 42.25 44.7477C41.94 44.7477 41.9 44.721 41.9 44.5252Z" fill="#B5B5B5"/>
<path d="M56.05 44.5697C56.08 44.5252 56.24 44.4006 56.4 44.3027C56.7 44.1159 56.7 44.1159 56.7 44.3828C56.7 44.6409 56.67 44.6587 56.34 44.6587C56.14 44.6587 56.01 44.6231 56.05 44.5697Z" fill="#B5B5B5"/>
<path d="M9.7 43.7243C9.7 43.5285 9.74 43.5018 10.06 43.5018C10.5 43.5018 10.48 43.662 10.02 43.8311C9.71 43.9468 9.7 43.9379 9.7 43.7243V43.7243Z" fill="#B5B5B5"/>
<path d="M95.5 43.4484C95.5 43.0569 95.68 43.0747 95.87 43.484C96 43.7599 95.99 43.7688 95.75 43.7688C95.53 43.7688 95.5 43.7332 95.5 43.4484Z" fill="#B5B5B5"/>
<path d="M4.2 43.5463C4.2 43.484 4.27 43.3684 4.35 43.2883C4.43 43.2171 4.5 43.1192 4.5 43.0658C4.5 43.0124 4.66 42.9679 4.85 42.9679C5.04 42.9679 5.2 42.9946 5.2 43.0391C5.19 43.1637 4.2 43.6709 4.2 43.5463Z" fill="#B5B5B5"/>
<path d="M32.5 43.2794C32.5 43.0213 32.52 43.0124 32.9 43.1904C33.3 43.3773 33.28 43.5018 32.85 43.5018C32.54 43.5018 32.5 43.4751 32.5 43.2794Z" fill="#B5B5B5"/>
<path d="M6.9 43.1637C6.9 43.0925 7.42 42.7899 7.54 42.7899C7.57 42.7899 7.6 42.8878 7.6 43.0124C7.6 43.2082 7.56 43.2349 7.25 43.2349C7.06 43.2349 6.9 43.1993 6.9 43.1637Z" fill="#B5B5B5"/>
<path d="M34.83 43.1014C34.4 42.9412 34.41 42.7899 34.85 42.7899C35.16 42.7899 35.2 42.8166 35.2 43.0124C35.2 43.137 35.19 43.2349 35.18 43.2349C35.16 43.226 35 43.1726 34.83 43.1014Z" fill="#B5B5B5"/>
<path d="M41.05 42.781C40.75 42.5229 40.75 42.5229 41.13 42.5229C41.48 42.5229 41.5 42.5407 41.5 42.7899C41.5 43.1192 41.43 43.1192 41.05 42.781Z" fill="#B5B5B5"/>
<path d="M94.6 42.8344C94.6 42.6208 94.61 42.6119 94.92 42.7276C95.38 42.8967 95.4 43.0569 94.96 43.0569C94.64 43.0569 94.6 43.0302 94.6 42.8344V42.8344Z" fill="#B5B5B5"/>
<path d="M16.8 42.8433C16.8 42.7098 17.01 42.6119 17.31 42.6119C17.43 42.6119 17.5 42.6742 17.5 42.7899C17.5 42.9323 17.43 42.9679 17.15 42.9679C16.92 42.9679 16.8 42.9234 16.8 42.8433Z" fill="#B5B5B5"/>
<path d="M30.3 42.7009C30.3 42.514 30.4 42.4873 30.78 42.5763C31.14 42.6653 31.05 42.8789 30.65 42.8789C30.37 42.8789 30.3 42.8433 30.3 42.7009Z" fill="#B5B5B5"/>
<path d="M18.1 42.5763C18.1 42.4606 18.38 42.345 18.68 42.345C18.74 42.345 18.8 42.425 18.8 42.5229C18.8 42.6653 18.73 42.7009 18.45 42.7009C18.22 42.7009 18.1 42.6564 18.1 42.5763Z" fill="#B5B5B5"/>
<path d="M4.73 42.3005C4.79 42.1314 4.89 41.989 4.97 41.989C5.05 41.989 5.1 42.1047 5.1 42.3005C5.1 42.5674 5.07 42.6119 4.86 42.6119C4.63 42.6119 4.62 42.5941 4.73 42.3005Z" fill="#B5B5B5"/>
<path d="M29.2 42.4339C29.2 42.2471 29.3 42.2204 29.68 42.3094C30.04 42.3983 29.95 42.6119 29.55 42.6119C29.27 42.6119 29.2 42.5763 29.2 42.4339Z" fill="#B5B5B5"/>
<path d="M32.68 42.3806C32.3 42.2026 32.33 42.078 32.75 42.078C33.06 42.078 33.1 42.1047 33.1 42.3005C33.1 42.5585 33.05 42.5674 32.68 42.3806Z" fill="#B5B5B5"/>
<path d="M91.6 41.7665C91.6 41.5529 91.61 41.544 91.92 41.6597C92.38 41.8288 92.4 41.989 91.96 41.989C91.64 41.989 91.6 41.9623 91.6 41.7665V41.7665Z" fill="#B5B5B5"/>
<path d="M7.6 41.6775C7.6 41.4817 7.64 41.455 7.95 41.455C8.38 41.455 8.39 41.544 8.01 41.7487C7.63 41.9445 7.6 41.9445 7.6 41.6775Z" fill="#B5B5B5"/>
<path d="M9.92 41.7932C9.95 41.7309 10.11 41.633 10.28 41.5707C10.59 41.455 10.6 41.4639 10.6 41.6775C10.6 41.8733 10.56 41.9 10.24 41.9C10.01 41.9 9.9 41.8644 9.92 41.7932Z" fill="#B5B5B5"/>
<path d="M17 41.722C17 41.5796 17.07 41.544 17.35 41.544C17.75 41.544 17.84 41.7576 17.48 41.8466C17.1 41.9356 17 41.9089 17 41.722Z" fill="#B5B5B5"/>
<path d="M61.02 41.6152C61.05 41.5529 61.21 41.455 61.38 41.3928C61.69 41.2771 61.7 41.286 61.7 41.4995C61.7 41.6953 61.66 41.722 61.34 41.722C61.11 41.722 61 41.6864 61.02 41.6152Z" fill="#B5B5B5"/>
<path d="M18.5 41.455C18.5 41.3127 18.57 41.2771 18.85 41.2771C19.25 41.2771 19.34 41.4906 18.98 41.5796C18.6 41.6686 18.5 41.6419 18.5 41.455Z" fill="#B5B5B5"/>
<path d="M90.1 41.366C90.1 41.1792 90.2 41.1525 90.58 41.2415C90.94 41.3305 90.85 41.544 90.45 41.544C90.17 41.544 90.1 41.5084 90.1 41.366Z" fill="#B5B5B5"/>
<path d="M20.4 41.197C20.4 41.0457 20.46 41.0101 20.76 41.0101C21.04 41.0101 21.11 41.0457 21.08 41.1614C21.06 41.2504 20.93 41.3216 20.72 41.3394C20.45 41.3749 20.4 41.3482 20.4 41.197Z" fill="#B5B5B5"/>
<path d="M27.38 41.2148C27.05 41.1436 27.18 40.9211 27.55 40.9211C27.83 40.9211 27.9 40.9567 27.9 41.0991C27.9 41.2771 27.76 41.3038 27.38 41.2148Z" fill="#B5B5B5"/>
<path d="M22.4 41.0101C22.4 40.8677 22.47 40.8321 22.75 40.8321C23.02 40.8321 23.1 40.8677 23.1 40.9923C23.1 41.0991 23.01 41.1525 22.75 41.1614C22.46 41.1881 22.4 41.1614 22.4 41.0101V41.0101Z" fill="#B5B5B5"/>
<path d="M12.52 40.8143C12.55 40.752 12.71 40.6541 12.88 40.5918C13.19 40.4761 13.2 40.485 13.2 40.6986C13.2 40.8944 13.16 40.9211 12.84 40.9211C12.61 40.9211 12.5 40.8855 12.52 40.8143Z" fill="#B5B5B5"/>
<path d="M37.28 40.494C36.91 40.2982 36.93 40.2092 37.35 40.2092C37.66 40.2092 37.7 40.2359 37.7 40.4317C37.7 40.6897 37.64 40.6986 37.28 40.494Z" fill="#B5B5B5"/>
<path d="M61.5 40.3427C61.5 40.1469 61.54 40.1202 61.86 40.1202C62.3 40.1202 62.28 40.2804 61.82 40.4495C61.51 40.5651 61.5 40.5562 61.5 40.3427Z" fill="#B5B5B5"/>
<path d="M64.9 40.4406C64.9 40.3249 65.18 40.2092 65.48 40.2092C65.54 40.2092 65.6 40.2893 65.6 40.3872C65.6 40.5295 65.53 40.5651 65.25 40.5651C65.02 40.5651 64.9 40.5206 64.9 40.4406Z" fill="#B5B5B5"/>
<path d="M89.78 40.3249C89.45 40.2537 89.58 40.0312 89.95 40.0312C90.23 40.0312 90.3 40.0668 90.3 40.2092C90.3 40.3872 90.16 40.4138 89.78 40.3249Z" fill="#B5B5B5"/>
<path d="M33.9 40.0757C33.9 39.8621 33.91 39.8532 34.22 39.9689C34.68 40.138 34.7 40.2982 34.26 40.2982C33.94 40.2982 33.9 40.2715 33.9 40.0757Z" fill="#B5B5B5"/>
<path d="M88.18 39.9244C87.76 39.8265 87.66 39.5862 88.04 39.5862C88.56 39.5862 88.9 39.693 88.9 39.8621C88.9 40.049 88.76 40.0579 88.18 39.9244V39.9244Z" fill="#B5B5B5"/>
<path d="M81.7 39.7553C81.7 39.604 81.75 39.5773 82.02 39.6129C82.23 39.6307 82.36 39.7019 82.38 39.7909C82.41 39.9066 82.34 39.9422 82.06 39.9422C81.76 39.9422 81.7 39.9066 81.7 39.7553Z" fill="#B5B5B5"/>
<path d="M70.1 39.6396C70.1 39.5239 70.38 39.4083 70.68 39.4083C70.74 39.4083 70.8 39.4883 70.8 39.5862C70.8 39.7286 70.73 39.7642 70.45 39.7642C70.22 39.7642 70.1 39.7197 70.1 39.6396Z" fill="#B5B5B5"/>
<path d="M79.9 39.5862C79.9 39.3994 80 39.3727 80.38 39.4617C80.74 39.5506 80.65 39.7642 80.25 39.7642C79.97 39.7642 79.9 39.7286 79.9 39.5862Z" fill="#B5B5B5"/>
<path d="M71.3 39.5506C71.3 39.435 71.58 39.3193 71.88 39.3193C71.94 39.3193 72 39.3994 72 39.4973C72 39.6396 71.93 39.6752 71.65 39.6752C71.42 39.6752 71.3 39.6307 71.3 39.5506Z" fill="#B5B5B5"/>
<path d="M78.8 39.4972C78.8 39.346 78.86 39.3193 79.15 39.346C79.41 39.3549 79.5 39.4083 79.5 39.5239C79.5 39.6396 79.42 39.6752 79.15 39.6752C78.87 39.6752 78.8 39.6396 78.8 39.4972Z" fill="#B5B5B5"/>
<path d="M34.93 39.4527C34.5 39.2926 34.51 39.1413 34.95 39.1413C35.26 39.1413 35.3 39.168 35.3 39.3638C35.3 39.4883 35.29 39.5862 35.28 39.5862C35.26 39.5773 35.1 39.5239 34.93 39.4527Z" fill="#B5B5B5"/>
<path d="M65.1 39.3549C65.1 39.168 65.15 39.1413 65.45 39.1413C65.69 39.1413 65.8 39.1858 65.8 39.2748C65.8 39.346 65.79 39.4083 65.77 39.4083C65.76 39.4083 65.6 39.4439 65.42 39.4883C65.12 39.5684 65.1 39.5595 65.1 39.3549Z" fill="#B5B5B5"/>
<path d="M73.1 39.4617C73.1 39.346 73.38 39.2303 73.68 39.2303C73.74 39.2303 73.8 39.3104 73.8 39.4083C73.8 39.5506 73.73 39.5862 73.45 39.5862C73.22 39.5862 73.1 39.5417 73.1 39.4617Z" fill="#B5B5B5"/>
<path d="M76.7 39.4083C76.7 39.2214 76.8 39.1947 77.18 39.2837C77.54 39.3727 77.45 39.5862 77.05 39.5862C76.77 39.5862 76.7 39.5506 76.7 39.4083Z" fill="#B5B5B5"/>
<path d="M86.18 39.5239C85.85 39.4528 85.98 39.2303 86.35 39.2303C86.63 39.2303 86.7 39.2659 86.7 39.4083C86.7 39.5862 86.56 39.6129 86.18 39.5239Z" fill="#B5B5B5"/>
<path d="M17.6 39.3727C17.6 39.257 17.88 39.1413 18.18 39.1413C18.24 39.1413 18.3 39.2214 18.3 39.3193C18.3 39.4616 18.23 39.4972 17.95 39.4972C17.72 39.4972 17.6 39.4527 17.6 39.3727Z" fill="#B5B5B5"/>
<path d="M6.43 38.9455C6.62 38.5361 6.8 38.5184 6.8 38.9099C6.8 39.1947 6.77 39.2303 6.55 39.2303C6.31 39.2303 6.3 39.2214 6.43 38.9455Z" fill="#B5B5B5"/>
<path d="M30.1 39.0523C30.1 38.8743 30.32 38.8209 30.64 38.9277C30.94 39.0345 30.82 39.2303 30.45 39.2303C30.17 39.2303 30.1 39.1947 30.1 39.0523Z" fill="#B5B5B5"/>
<path d="M20.1 38.9277C20.1 38.812 20.38 38.6963 20.68 38.6963C20.74 38.6963 20.8 38.7764 20.8 38.8743C20.8 39.0167 20.73 39.0523 20.45 39.0523C20.22 39.0523 20.1 39.0078 20.1 38.9277Z" fill="#B5B5B5"/>
<path d="M67.7 38.8743C67.7 38.7319 67.77 38.6963 68.05 38.6963C68.45 38.6963 68.54 38.9099 68.18 38.9989C67.8 39.0879 67.7 39.0612 67.7 38.8743Z" fill="#B5B5B5"/>
<path d="M81.28 38.812C80.95 38.7408 81.08 38.5183 81.45 38.5183C81.73 38.5183 81.8 38.5539 81.8 38.6963C81.8 38.8743 81.66 38.901 81.28 38.812Z" fill="#B5B5B5"/>
<path d="M22.6 38.634C22.6 38.5183 22.69 38.465 22.95 38.4561C23.24 38.4294 23.3 38.4561 23.3 38.6073C23.3 38.7497 23.23 38.7853 22.95 38.7853C22.68 38.7853 22.6 38.7497 22.6 38.634Z" fill="#B5B5B5"/>
<path d="M70 38.6073C70 38.4649 70.07 38.4294 70.35 38.4294C70.75 38.4294 70.84 38.6429 70.48 38.7319C70.1 38.8209 70 38.7942 70 38.6073Z" fill="#B5B5B5"/>
<path d="M16.6 38.5184C16.6 38.376 16.67 38.3404 16.95 38.3404C17.32 38.3404 17.44 38.5362 17.14 38.6429C16.82 38.7497 16.6 38.6963 16.6 38.5184Z" fill="#B5B5B5"/>
<path d="M71 38.5184C71 38.376 71.07 38.3404 71.35 38.3404C71.75 38.3404 71.84 38.554 71.48 38.6429C71.1 38.7319 71 38.7052 71 38.5184Z" fill="#B5B5B5"/>
<path d="M72.6 38.4294C72.6 38.287 72.67 38.2514 72.95 38.2514C73.35 38.2514 73.44 38.465 73.08 38.5539C72.7 38.6429 72.6 38.6162 72.6 38.4294Z" fill="#B5B5B5"/>
<path d="M77.38 38.545C77.05 38.4738 77.18 38.2514 77.55 38.2514C77.83 38.2514 77.9 38.287 77.9 38.4294C77.9 38.6073 77.76 38.634 77.38 38.545Z" fill="#B5B5B5"/>
<path d="M17.8 38.2514C17.8 38.109 17.87 38.0734 18.15 38.0734C18.55 38.0734 18.64 38.287 18.28 38.376C17.9 38.465 17.8 38.4383 17.8 38.2514Z" fill="#B5B5B5"/>
<path d="M31.03 38.3226C30.58 38.1891 30.6 37.9844 31.05 37.9844C31.36 37.9844 31.4 38.0111 31.4 38.2069C31.4 38.3315 31.39 38.4294 31.38 38.4205C31.36 38.4116 31.2 38.3671 31.03 38.3226Z" fill="#B5B5B5"/>
<path d="M6.9 38.109C6.9 37.9933 7.34 37.3615 7.42 37.3615C7.51 37.3615 7.53 37.8153 7.44 38.02C7.38 38.1535 6.9 38.2336 6.9 38.109Z" fill="#B5B5B5"/>
<path d="M29.57 38.0289C29.25 37.9666 28.96 37.9132 28.92 37.9132C28.88 37.9043 28.84 37.842 28.82 37.7708C28.78 37.6017 28.99 37.5929 29.86 37.7352C30.37 37.8153 30.5 37.8687 30.5 38.0022C30.5 38.1891 30.39 38.1891 29.57 38.0289Z" fill="#B5B5B5"/>
<path d="M28.05 37.8153C27.89 37.6729 28.04 37.5394 28.35 37.5394C28.63 37.5394 28.7 37.575 28.7 37.7174C28.7 37.8598 28.64 37.8954 28.4 37.8776C28.23 37.8687 28.07 37.842 28.05 37.8153V37.8153Z" fill="#B5B5B5"/>
<path d="M22.2 37.6284C22.2 37.4861 22.27 37.4505 22.55 37.4505C22.95 37.4505 23.04 37.664 22.68 37.753C22.3 37.842 22.2 37.8153 22.2 37.6284Z" fill="#B5B5B5"/>
<path d="M25.28 37.6551C24.95 37.5839 25.08 37.3615 25.45 37.3615C25.73 37.3615 25.8 37.3971 25.8 37.5394C25.8 37.7174 25.66 37.7441 25.28 37.6551Z" fill="#B5B5B5"/>
<path d="M91.5 35.8931C91.5 35.5016 91.59 35.5016 91.88 35.8931C92.1 36.2046 92.1 36.2046 91.8 36.2046C91.52 36.2046 91.5 36.1779 91.5 35.8931Z" fill="#B5B5B5"/>
<path d="M89.8 33.3124C89.8 32.9297 89.9 32.9208 90.13 33.259C90.35 33.5972 90.35 33.6239 90.05 33.6239C89.83 33.6239 89.8 33.5883 89.8 33.3124Z" fill="#B5B5B5"/>
<path d="M9.9 33.3925C9.9 33.2857 10.24 32.8229 10.32 32.8229C10.36 32.8229 10.4 32.9653 10.4 33.1344C10.4 33.4103 10.37 33.4459 10.15 33.4459C10.01 33.4459 9.9 33.4192 9.9 33.3925Z" fill="#B5B5B5"/>
<path d="M87.8 30.6338C87.8 30.2867 87.89 30.2956 88.2 30.6872C88.41 30.9541 88.41 30.9541 88.11 30.9541C87.82 30.9541 87.8 30.9274 87.8 30.6338Z" fill="#B5B5B5"/>
<path d="M12 30.5092C12.31 30.1176 12.4 30.1087 12.4 30.4558C12.4 30.7495 12.38 30.7761 12.09 30.7761C11.79 30.7761 11.79 30.7761 12 30.5092Z" fill="#B5B5B5"/>
<path d="M87 29.6549C87 29.3078 87.09 29.3167 87.4 29.7083C87.61 29.9752 87.61 29.9752 87.31 29.9752C87.02 29.9752 87 29.9485 87 29.6549Z" fill="#B5B5B5"/>
<path d="M87.88 29.0853C87.6 28.7739 87.6 28.7739 87.86 28.7472C88.19 28.7116 88.22 28.7383 88.18 29.0942C88.15 29.3968 88.15 29.3968 87.88 29.0853Z" fill="#B5B5B5"/>
<path d="M88.3 28.4535C88.3 28.3467 88.35 28.0085 88.42 27.6971C88.51 27.2254 88.57 27.1275 88.73 27.1275C88.94 27.1275 88.94 27.1542 88.68 28.2221C88.58 28.6493 88.3 28.8184 88.3 28.4535Z" fill="#B5B5B5"/>
<path d="M14.12 28.0619C14.41 27.6704 14.5 27.6704 14.5 28.0619C14.5 28.3467 14.48 28.3734 14.2 28.3734C13.9 28.3734 13.9 28.3734 14.12 28.0619Z" fill="#B5B5B5"/>
<path d="M10.26 27.1097C10.16 26.7716 10.19 26.6826 10.4 26.6826C10.56 26.6826 10.6 26.7449 10.6 26.994C10.6 27.35 10.36 27.4301 10.26 27.1097Z" fill="#B5B5B5"/>
<path d="M13.9 26.825C13.9 26.5313 13.92 26.5046 14.21 26.5046C14.51 26.5046 14.51 26.5046 14.3 26.7716C13.99 27.1631 13.9 27.172 13.9 26.825Z" fill="#B5B5B5"/>
<path d="M88.7 26.5491C88.7 26.2999 88.74 26.2376 88.9 26.2376C89.11 26.2376 89.14 26.3266 89.04 26.6648C88.94 26.9851 88.7 26.905 88.7 26.5491Z" fill="#B5B5B5"/>
<path d="M83.9 26.5046C83.9 26.3889 83.83 26.3266 83.72 26.3266C83.44 26.3266 83.18 26.024 83.22 25.7482C83.25 25.5168 83.25 25.5168 83.67 25.8372C83.9 26.0151 84.19 26.2732 84.3 26.4245C84.51 26.6826 84.51 26.6826 84.21 26.6826C83.97 26.6826 83.9 26.647 83.9 26.5046Z" fill="#B5B5B5"/>
<path d="M14.9 25.8461C14.9 25.5524 14.92 25.5257 15.21 25.5257C15.51 25.5257 15.51 25.5257 15.3 25.7927C14.99 26.1842 14.9 26.1931 14.9 25.8461Z" fill="#B5B5B5"/>
<path d="M9.96 25.6859C9.86 25.3477 9.89 25.2587 10.1 25.2587C10.26 25.2587 10.3 25.321 10.3 25.5702C10.3 25.9261 10.06 26.0062 9.96 25.6859Z" fill="#B5B5B5"/>
<path d="M16.95 25.3477C16.98 25.3032 17.14 25.1786 17.3 25.0807C17.6 24.8938 17.6 24.8939 17.6 25.1608C17.6 25.4189 17.57 25.4367 17.24 25.4367C17.04 25.4367 16.91 25.4011 16.95 25.3477Z" fill="#B5B5B5"/>
<path d="M16 24.8227C16 24.5646 16.03 24.5468 16.36 24.5468C16.75 24.5468 16.74 24.6269 16.3 24.9028C16 25.0896 16 25.0896 16 24.8227Z" fill="#B5B5B5"/>
<path d="M89.1 24.6803C89.1 24.4311 89.14 24.3688 89.3 24.3688C89.51 24.3688 89.54 24.4578 89.44 24.796C89.34 25.1163 89.1 25.0362 89.1 24.6803Z" fill="#B5B5B5"/>
<path d="M81.7 24.5468C81.7 24.2976 81.67 24.2798 81.35 24.2798C81.03 24.2798 81 24.262 81 24.0128C81 23.8705 81.02 23.7459 81.05 23.7459C81.08 23.7459 81.28 23.8794 81.48 24.0484C81.68 24.2086 81.99 24.4489 82.15 24.5735C82.45 24.8049 82.45 24.8049 82.08 24.8138C81.72 24.8138 81.7 24.796 81.7 24.5468Z" fill="#B5B5B5"/>
<path d="M18.27 24.2798C18.45 24.1285 18.61 24.0128 18.64 24.0128C18.68 24.0128 18.7 24.1374 18.7 24.2798C18.7 24.529 18.68 24.5468 18.33 24.5468C17.95 24.5468 17.95 24.5468 18.27 24.2798Z" fill="#B5B5B5"/>
<path d="M83 24.2798C82.65 24.0217 82.65 24.0217 83.03 24.0128C83.38 24.0128 83.4 24.0306 83.4 24.2798C83.4 24.4311 83.39 24.5468 83.37 24.5468C83.36 24.5468 83.19 24.4311 83 24.2798Z" fill="#B5B5B5"/>
<path d="M17 24.0217C17 23.7637 17.03 23.7459 17.36 23.7459C17.75 23.7459 17.74 23.826 17.3 24.1018C17 24.2887 17 24.2887 17 24.0217Z" fill="#B5B5B5"/>
<path d="M80 23.3009C80 23.0339 80 23.0339 80.35 23.2297C80.79 23.4878 80.79 23.5679 80.35 23.5679C80.03 23.5679 80 23.5501 80 23.3009Z" fill="#B5B5B5"/>
<path d="M81.55 23.203C81.25 22.945 81.25 22.945 81.63 22.945C81.98 22.945 82 22.9628 82 23.2119C82 23.5412 81.93 23.5412 81.55 23.203Z" fill="#B5B5B5"/>
<path d="M9.46 23.1496C9.27 22.2775 9.27 22.233 9.48 22.233C9.63 22.233 9.69 22.3131 9.74 22.6424C9.77 22.8738 9.8 23.1318 9.8 23.2208C9.8 23.4789 9.52 23.4166 9.46 23.1496V23.1496Z" fill="#B5B5B5"/>
<path d="M78.2 22.1351C78.2 21.8682 78.2 21.8682 78.5 22.0195C78.94 22.2597 78.96 22.411 78.55 22.411C78.23 22.411 78.2 22.3932 78.2 22.1351Z" fill="#B5B5B5"/>
<path d="M21.5 20.9427C21.5 20.7469 21.54 20.7202 21.85 20.7202C22.28 20.7202 22.29 20.8092 21.91 21.0139C21.53 21.2096 21.5 21.2096 21.5 20.9427Z" fill="#B5B5B5"/>
<path d="M22.3 20.4977C22.3 20.3019 22.34 20.2752 22.65 20.2752C23.06 20.2752 23.08 20.3197 22.78 20.5511C22.46 20.7736 22.3 20.7647 22.3 20.4977Z" fill="#B5B5B5"/>
<path d="M24.8 20.382C24.8 20.3108 25.32 20.0083 25.44 20.0083C25.47 20.0083 25.5 20.1061 25.5 20.2307C25.5 20.4265 25.46 20.4532 25.15 20.4532C24.96 20.4532 24.8 20.4176 24.8 20.382Z" fill="#B5B5B5"/>
<path d="M74.2 20.0528C74.2 19.7858 74.23 19.7858 74.61 19.9816C74.99 20.1862 74.98 20.2752 74.55 20.2752C74.24 20.2752 74.2 20.2485 74.2 20.0528Z" fill="#B5B5B5"/>
<path d="M24 19.6523C24 19.4031 24.03 19.3853 24.35 19.3853C24.79 19.3853 24.79 19.4654 24.35 19.7235C24 19.9193 24 19.9193 24 19.6523Z" fill="#B5B5B5"/>
<path d="M8.76 19.1895C8.66 18.8514 8.69 18.7624 8.9 18.7624C9.06 18.7624 9.1 18.8247 9.1 19.0739C9.1 19.4298 8.86 19.5099 8.76 19.1895Z" fill="#B5B5B5"/>
<path d="M72.2 19.1628C72.2 18.9493 72.21 18.9404 72.52 19.0561C72.98 19.2251 73 19.3853 72.56 19.3853C72.24 19.3853 72.2 19.3586 72.2 19.1628Z" fill="#B5B5B5"/>
<path d="M27.42 19.1895C27.45 19.1272 27.61 19.0294 27.78 18.9671C28.09 18.8514 28.1 18.8603 28.1 19.0739C28.1 19.2696 28.06 19.2963 27.74 19.2963C27.51 19.2963 27.4 19.2607 27.42 19.1895Z" fill="#B5B5B5"/>
<path d="M25.3 18.9849C25.3 18.7891 25.34 18.7624 25.65 18.7624C26.08 18.7624 26.09 18.8514 25.71 19.0561C25.33 19.2518 25.3 19.2518 25.3 18.9849Z" fill="#B5B5B5"/>
<path d="M71.1 18.8514C71.1 18.8069 70.99 18.7624 70.85 18.7624C70.71 18.7624 70.6 18.7268 70.6 18.6734C70.6 18.6289 70.49 18.5844 70.35 18.5844C70.15 18.5844 70.1 18.5399 70.1 18.3619C70.1 18.1217 70.1 18.1217 71.45 18.62C71.9 18.7891 71.9 18.9404 71.45 18.9404C71.26 18.9404 71.1 18.9048 71.1 18.8514Z" fill="#B5B5B5"/>
<path d="M26.1 18.6289C26.1 18.4331 26.14 18.4064 26.46 18.4064C26.9 18.4064 26.88 18.5666 26.42 18.7357C26.11 18.8514 26.1 18.8425 26.1 18.6289V18.6289Z" fill="#B5B5B5"/>
<path d="M20.7 18.3975C20.7 18.1306 20.7 18.1306 21 18.3174C21.44 18.5933 21.45 18.6734 21.06 18.6734C20.73 18.6734 20.7 18.6556 20.7 18.3975Z" fill="#B5B5B5"/>
<path d="M27.4 18.095C27.4 17.8992 27.44 17.8725 27.76 17.8725C28.2 17.8725 28.18 18.0327 27.72 18.2017C27.41 18.3174 27.4 18.3085 27.4 18.095Z" fill="#B5B5B5"/>
<path d="M71.63 17.917C71.2 17.7568 71.21 17.6055 71.65 17.6055C71.96 17.6055 72 17.6322 72 17.828C72 17.9526 71.99 18.0505 71.98 18.0505C71.96 18.0416 71.8 17.9882 71.63 17.917Z" fill="#B5B5B5"/>
<path d="M67.7 17.561C67.7 17.3474 67.71 17.3385 68.02 17.4542C68.48 17.6233 68.5 17.7835 68.06 17.7835C67.74 17.7835 67.7 17.7568 67.7 17.561Z" fill="#B5B5B5"/>
<path d="M8.46 17.0538C8.36 16.7156 8.39 16.6266 8.6 16.6266C8.76 16.6266 8.8 16.6889 8.8 16.9381C8.8 17.294 8.56 17.3741 8.46 17.0538Z" fill="#B5B5B5"/>
<path d="M65.9 17.0716C65.9 16.8936 66.12 16.8402 66.44 16.947C66.74 17.0538 66.62 17.2495 66.25 17.2495C65.97 17.2495 65.9 17.2139 65.9 17.0716Z" fill="#B5B5B5"/>
<path d="M18.9 16.8847C18.9 16.6177 18.9 16.6177 19.2 16.8046C19.64 17.0805 19.65 17.1606 19.26 17.1606C18.93 17.1606 18.9 17.1428 18.9 16.8847Z" fill="#B5B5B5"/>
<path d="M33.8 17.036C33.8 16.9203 34.08 16.8046 34.38 16.8046C34.44 16.8046 34.5 16.8847 34.5 16.9826C34.5 17.125 34.43 17.1606 34.15 17.1606C33.92 17.1606 33.8 17.1161 33.8 17.036Z" fill="#B5B5B5"/>
<path d="M68.78 16.9292C68.4 16.7512 68.43 16.6266 68.85 16.6266C69.16 16.6266 69.2 16.6533 69.2 16.8491C69.2 17.1072 69.15 17.1161 68.78 16.9292Z" fill="#B5B5B5"/>
<path d="M78.65 16.8936C78.68 16.8491 78.84 16.7245 79 16.6266C79.3 16.4397 79.3 16.4397 79.3 16.7067C79.3 16.9648 79.27 16.9826 78.94 16.9826C78.74 16.9826 78.61 16.947 78.65 16.8936Z" fill="#B5B5B5"/>
<path d="M20.2 16.6266C19.85 16.3685 19.85 16.3685 20.23 16.3596C20.58 16.3596 20.6 16.3774 20.6 16.6266C20.6 16.7779 20.59 16.8936 20.57 16.8936C20.56 16.8936 20.39 16.7779 20.2 16.6266Z" fill="#B5B5B5"/>
<path d="M31.7 16.5732C31.7 16.3863 31.75 16.3596 32.05 16.3596C32.27 16.3596 32.4 16.4041 32.4 16.4753C32.4 16.5465 32.24 16.6355 32.05 16.6889C31.72 16.7868 31.7 16.7779 31.7 16.5732Z" fill="#B5B5B5"/>
<path d="M35.6 16.591C35.6 16.4575 35.81 16.3596 36.11 16.3596C36.23 16.3596 36.3 16.4219 36.3 16.5376C36.3 16.68 36.23 16.7156 35.95 16.7156C35.72 16.7156 35.6 16.6711 35.6 16.591Z" fill="#B5B5B5"/>
<path d="M36.4 16.4219C36.4 16.3507 36.63 16.2439 36.95 16.1639C37.5 16.0304 37.5 16.0304 37.5 16.2261C37.5 16.3774 37.43 16.4397 37.19 16.4842C36.69 16.5732 36.4 16.5465 36.4 16.4219Z" fill="#B5B5B5"/>
<path d="M33.3 16.1016C33.3 15.9503 33.36 15.9147 33.59 15.9147C33.76 15.9147 33.92 15.9592 33.95 16.0126C34.04 16.1372 33.99 16.1728 33.62 16.235C33.34 16.2884 33.3 16.2706 33.3 16.1016Z" fill="#B5B5B5"/>
<path d="M38.2 16.0571C38.2 15.977 38.39 15.8969 38.7 15.8346C39.37 15.71 39.4 15.71 39.4 15.9058C39.4 16.0304 39.3 16.0838 39.03 16.1283C38.43 16.2084 38.2 16.1906 38.2 16.0571Z" fill="#B5B5B5"/>
<path d="M17.6 15.8168C17.6 15.5498 17.6 15.5498 17.9 15.7367C18.34 16.0126 18.35 16.0927 17.96 16.0927C17.63 16.0927 17.6 16.0749 17.6 15.8168Z" fill="#B5B5B5"/>
<path d="M59.13 15.799C58.62 15.7278 58.5 15.6833 58.5 15.5498C58.5 15.3451 58.45 15.3451 59.5 15.5142C59.97 15.5854 60.36 15.6477 60.38 15.6477C60.39 15.6477 60.4 15.71 60.4 15.7812C60.4 15.9325 60.1 15.9414 59.13 15.799Z" fill="#B5B5B5"/>
<path d="M90.7 15.5142C90.7 15.265 90.74 15.2028 90.9 15.2028C91.11 15.2028 91.14 15.2917 91.04 15.6299C90.94 15.9503 90.7 15.8702 90.7 15.5142Z" fill="#B5B5B5"/>
<path d="M18.8 15.4697C18.45 15.2117 18.45 15.2117 18.83 15.2028C19.18 15.2028 19.2 15.2205 19.2 15.4697C19.2 15.621 19.19 15.7367 19.17 15.7367C19.16 15.7367 18.99 15.621 18.8 15.4697Z" fill="#B5B5B5"/>
<path d="M32.9 15.4608C32.9 15.1939 32.9 15.1939 33.2 15.3807C33.64 15.6566 33.65 15.7367 33.26 15.7367C32.93 15.7367 32.9 15.7189 32.9 15.4608Z" fill="#B5B5B5"/>
<path d="M41.62 15.4964C41.64 15.4074 41.77 15.3362 41.98 15.3184C42.25 15.2828 42.3 15.3095 42.3 15.4608C42.3 15.6121 42.24 15.6477 41.94 15.6477C41.66 15.6477 41.59 15.6121 41.62 15.4964V15.4964Z" fill="#B5B5B5"/>
<path d="M42.42 15.4074C42.44 15.3184 42.57 15.2472 42.78 15.2294C43.05 15.1939 43.1 15.2205 43.1 15.3718C43.1 15.5231 43.04 15.5587 42.74 15.5587C42.46 15.5587 42.39 15.5231 42.42 15.4074V15.4074Z" fill="#B5B5B5"/>
<path d="M43.2 15.3451C43.2 15.2295 43.48 15.1138 43.78 15.1138C43.84 15.1138 43.9 15.1939 43.9 15.2917C43.9 15.4341 43.83 15.4697 43.55 15.4697C43.32 15.4697 43.2 15.4252 43.2 15.3451Z" fill="#B5B5B5"/>
<path d="M8.23 15.0693C8.2 14.8112 8.23 14.7578 8.4 14.7578C8.56 14.7578 8.6 14.8201 8.6 15.0693C8.6 15.3095 8.56 15.3807 8.43 15.3807C8.3 15.3807 8.24 15.3006 8.23 15.0693Z" fill="#B5B5B5"/>
<path d="M54.2 15.1138C54.2 14.9625 54.26 14.9358 54.55 14.9625C54.81 14.9714 54.9 15.0248 54.9 15.1405C54.9 15.2561 54.82 15.2917 54.55 15.2917C54.27 15.2917 54.2 15.2561 54.2 15.1138Z" fill="#B5B5B5"/>
<path d="M66.4 15.265C66.4 15.2473 66.56 15.1138 66.75 14.9625C67.1 14.6866 67.1 14.6866 67.1 14.9892C67.1 15.2739 67.08 15.2917 66.75 15.2917C66.56 15.2917 66.4 15.2828 66.4 15.265Z" fill="#B5B5B5"/>
<path d="M47 15.0782C47 14.9625 47.28 14.8468 47.58 14.8468C47.64 14.8468 47.7 14.9269 47.7 15.0248C47.7 15.1672 47.63 15.2028 47.35 15.2028C47.12 15.2028 47 15.1583 47 15.0782Z" fill="#B5B5B5"/>
<path d="M52.3 15.0248C52.3 14.8379 52.4 14.8112 52.78 14.9002C53.14 14.9892 53.05 15.2028 52.65 15.2028C52.37 15.2028 52.3 15.1672 52.3 15.0248Z" fill="#B5B5B5"/>
<path d="M90.9 13.5564C90.9 13.3073 90.94 13.245 91.1 13.245C91.31 13.245 91.34 13.3339 91.24 13.6721C91.14 13.9925 90.9 13.9124 90.9 13.5564Z" fill="#B5B5B5"/>
<path d="M14.6 13.5119C14.6 13.245 14.6 13.245 14.95 13.4407C15.39 13.6988 15.39 13.7789 14.95 13.7789C14.63 13.7789 14.6 13.7611 14.6 13.5119Z" fill="#B5B5B5"/>
<path d="M16.2 13.4229C15.85 13.1649 15.85 13.1649 16.23 13.156C16.58 13.156 16.6 13.1738 16.6 13.4229C16.6 13.5742 16.59 13.6899 16.57 13.6899C16.56 13.6899 16.39 13.5742 16.2 13.4229Z" fill="#B5B5B5"/>
<path d="M83.25 13.156C83.28 13.1115 83.44 12.9869 83.6 12.889C83.9 12.7021 83.9 12.7021 83.9 12.9691C83.9 13.2272 83.87 13.245 83.54 13.245C83.34 13.245 83.21 13.2094 83.25 13.156Z" fill="#B5B5B5"/>
<path d="M82.4 12.5686C82.4 12.2839 82.42 12.2661 82.75 12.2661C82.94 12.2661 83.1 12.275 83.1 12.2928C83.1 12.3106 82.94 12.444 82.75 12.5953C82.4 12.8712 82.4 12.8712 82.4 12.5686Z" fill="#B5B5B5"/>
<path d="M13.2 12.6665C13.2 12.5953 13.11 12.533 13 12.533C12.89 12.533 12.8 12.4707 12.8 12.3995C12.8 12.3283 12.71 12.2661 12.6 12.2661C12.45 12.2661 12.4 12.2038 12.4 12.0436C12.4 11.919 12.44 11.8211 12.49 11.8211C12.58 11.8211 13.9 12.6932 13.9 12.7555C13.9 12.7822 13.74 12.8 13.55 12.8C13.31 12.8 13.2 12.7555 13.2 12.6665Z" fill="#B5B5B5"/>
<path d="M8.25 11.4473C8.35 10.8689 8.4 10.7532 8.56 10.7532C8.71 10.7532 8.73 10.9579 8.64 11.4918C8.59 11.741 8.53 11.8211 8.38 11.8211C8.2 11.8211 8.19 11.7766 8.25 11.4473Z" fill="#B5B5B5"/>
<path d="M71.05 11.7321C71.08 11.6876 71.24 11.563 71.4 11.4651C71.7 11.2783 71.7 11.2783 71.7 11.5452C71.7 11.8033 71.67 11.8211 71.34 11.8211C71.14 11.8211 71.01 11.7855 71.05 11.7321Z" fill="#B5B5B5"/>
<path d="M27.5 11.4206C27.5 11.2338 27.45 11.1982 27.2 11.1982C26.95 11.1982 26.9 11.1626 26.9 10.9757C26.9 10.7888 26.85 10.7532 26.6 10.7532C26.37 10.7532 26.3 10.7176 26.3 10.5752C26.3 10.4417 26.23 10.3972 26.05 10.3972C25.87 10.3972 25.8 10.3528 25.8 10.2193C25.8 10.0858 25.73 10.0413 25.55 10.0413C25.34 10.0413 25.3 9.99679 25.3 9.77431C25.3 9.48064 25.35 9.45394 25.54 9.62303C25.61 9.67642 25.82 9.82771 26 9.95229C26.18 10.0769 26.41 10.2371 26.52 10.3261C26.62 10.4061 26.89 10.6019 27.12 10.771C27.35 10.9312 27.69 11.1982 27.89 11.3494C28.25 11.6431 28.25 11.6431 27.88 11.6431C27.54 11.6431 27.5 11.6164 27.5 11.4206V11.4206Z" fill="#B5B5B5"/>
<path d="M9.3 10.5396C9.3 10.335 9.32 10.3261 9.62 10.4061C9.8 10.4506 9.96 10.4862 9.97 10.4862C9.99 10.4862 10 10.5485 10 10.6197C10 10.7087 9.89 10.7532 9.65 10.7532C9.35 10.7532 9.3 10.7265 9.3 10.5396Z" fill="#B5B5B5"/>
<path d="M11.23 10.2816C10.81 10.0324 10.82 9.95229 11.25 9.95229C11.57 9.95229 11.6 9.97009 11.6 10.2193C11.6 10.3706 11.59 10.4862 11.58 10.4773C11.56 10.4773 11.4 10.3883 11.23 10.2816Z" fill="#B5B5B5"/>
<path d="M73.07 10.2193C73.25 10.068 73.41 9.95229 73.44 9.95229C73.48 9.95229 73.5 10.0769 73.5 10.2193C73.5 10.4684 73.48 10.4862 73.13 10.4862C72.75 10.4862 72.75 10.4862 73.07 10.2193Z" fill="#B5B5B5"/>
<path d="M90.7 9.55183C90.7 9.20477 90.84 9.14248 91 9.40945C91.16 9.68532 91.12 9.8633 90.9 9.8633C90.74 9.8633 90.7 9.80101 90.7 9.55183Z" fill="#B5B5B5"/>
<path d="M88.92 9.57853C88.95 9.51624 89.11 9.41835 89.28 9.35605C89.59 9.24037 89.6 9.24927 89.6 9.46285C89.6 9.65862 89.56 9.68532 89.24 9.68532C89.01 9.68532 88.9 9.64972 88.92 9.57853Z" fill="#B5B5B5"/>
<path d="M87.3 9.19587C87.3 9.00009 87.34 8.9734 87.65 8.9734C88.08 8.9734 88.09 9.06239 87.71 9.26706C87.33 9.46284 87.3 9.46285 87.3 9.19587Z" fill="#B5B5B5"/>
<path d="M24.2 8.9734C24.2 8.83101 24.22 8.70642 24.26 8.70642C24.29 8.70642 24.45 8.82211 24.63 8.9734C24.95 9.24037 24.95 9.24037 24.58 9.24037C24.22 9.24037 24.2 9.22257 24.2 8.9734Z" fill="#B5B5B5"/>
<path d="M7.7 7.44275C7.7 7.17578 7.83 6.92661 7.96 6.92661C8.05 6.92661 8.1 7.03339 8.1 7.23807C8.1 7.48725 8.06 7.54954 7.9 7.54954C7.79 7.54954 7.7 7.49615 7.7 7.44275Z" fill="#B5B5B5"/>
<path d="M91.3 6.9711C91.3 6.61514 91.54 6.53505 91.64 6.86431C91.74 7.19358 91.71 7.28257 91.5 7.28257C91.34 7.28257 91.3 7.22028 91.3 6.9711Z" fill="#B5B5B5"/>
<path d="M7.8 6.28587C7.8 6.0189 7.93 5.76973 8.06 5.76973C8.15 5.76973 8.2 5.87651 8.2 6.08119C8.2 6.33037 8.16 6.39266 8 6.39266C7.89 6.39266 7.8 6.33927 7.8 6.28587Z" fill="#B5B5B5"/>
<path d="M91.2 5.90321C91.2 5.54725 91.44 5.46716 91.54 5.79642C91.64 6.12569 91.61 6.21468 91.4 6.21468C91.24 6.21468 91.2 6.15239 91.2 5.90321Z" fill="#B5B5B5"/>
<path d="M7.93 5.30697C7.95 5.12009 8.03 5.00441 8.13 4.98661C8.26 4.95991 8.3 5.0222 8.3 5.27138C8.3 5.53835 8.26 5.59174 8.09 5.59174C7.92 5.59174 7.89 5.54725 7.93 5.30697V5.30697Z" fill="#B5B5B5"/>
<path d="M91.02 4.67514C90.87 3.73184 90.87 3.63395 91.05 3.63395C91.13 3.63395 91.2 3.65174 91.2 3.66954C91.2 3.68734 91.24 3.90092 91.3 4.15009C91.53 5.22688 91.53 5.41376 91.33 5.41376C91.17 5.41376 91.12 5.29807 91.02 4.67514V4.67514Z" fill="#B5B5B5"/>
<path d="M17.2 4.24798C17.2 3.98101 17.2 3.98101 17.5 4.16789C17.94 4.44376 17.95 4.52385 17.56 4.52385C17.23 4.52385 17.2 4.50605 17.2 4.24798Z" fill="#B5B5B5"/>
<path d="M83.5 3.31358C83.5 3.22459 83.94 2.93092 84.08 2.92202C84.14 2.92202 84.2 3.01991 84.2 3.1445C84.2 3.34028 84.16 3.36697 83.85 3.36697C83.66 3.36697 83.5 3.34028 83.5 3.31358Z" fill="#B5B5B5"/>
<path d="M8.6 2.37028C8.6 2.1033 8.73 1.85413 8.86 1.85413C8.95 1.85413 9 1.96092 9 2.1656C9 2.41477 8.96 2.47707 8.8 2.47707C8.69 2.47707 8.6 2.42367 8.6 2.37028Z" fill="#B5B5B5"/>
<path d="M86.2 1.87193C86.2 1.79184 86.8 1.47147 87.23 1.32908C87.48 1.24009 87.5 1.24899 87.5 1.45367C87.5 1.64055 87.45 1.67615 87.2 1.67615C87 1.67615 86.9 1.72064 86.9 1.80963C86.9 1.89862 86.79 1.94312 86.55 1.94312C86.36 1.94312 86.2 1.90752 86.2 1.87193V1.87193Z" fill="#B5B5B5"/>
<path d="M10.7 1.05321C10.7 0.857434 10.9 0.821837 11.21 0.964223C11.51 1.10661 11.44 1.2312 11.05 1.2312C10.77 1.2312 10.7 1.1956 10.7 1.05321Z" fill="#B5B5B5"/>
<path d="M9.9 0.875233C9.9 0.688352 10 0.661655 10.38 0.750646C10.74 0.839637 10.65 1.05321 10.25 1.05321C9.97 1.05321 9.9 1.01762 9.9 0.875233Z" fill="#B5B5B5"/>
<path d="M89.6 0.875094C89.6 0.670415 89.86 0.643717 90.13 0.821699C90.38 0.999681 90.34 1.05308 89.95 1.05308C89.67 1.05308 89.6 1.01748 89.6 0.875094Z" fill="#B5B5B5"/>
</svg>
