<svg width="317" height="425" viewBox="0 0 317 425" fill="none" xmlns="http://www.w3.org/2000/svg">
<path d="M110.6 423.488C110.6 421.72 111.533 420.813 113.353 420.813C114.753 420.813 114.8 420.859 114.8 422.853V424.893H112.7C110.647 424.893 110.6 424.848 110.6 423.488Z" fill="#07070A"/>
<path d="M125.72 405.219C125.58 404.856 125.533 403.995 125.627 403.269C125.72 402.272 126.047 401.955 127.12 401.864C129.687 401.547 130.667 402.091 130.667 403.768C130.667 404.947 130.433 405.355 129.64 405.581C127.773 406.035 126 405.899 125.72 405.219Z" fill="#07070A"/>
<path d="M125.16 398.283C125.3 396.651 125.393 396.56 127.073 396.424L128.847 396.288L128.707 398.011C128.567 399.643 128.473 399.733 126.793 399.869L125.02 400.005L125.16 398.283Z" fill="#07070A"/>
<path d="M26.1334 389.806C26.1334 389.08 25.1534 388.627 23.52 388.627C22.54 388.627 22.4 388.4 22.4 387.04C22.4 385.544 22.4934 385.454 23.9867 385.454C24.8734 385.454 25.7134 385.272 25.9 385C26.04 384.774 28.7 384.592 31.78 384.592C37.9867 384.547 38.7334 384.819 38.7334 387.176C38.7334 388.355 38.5 388.582 36.54 389.126C35.28 389.488 33.18 389.76 31.8734 389.76C30.52 389.76 29.4 389.896 29.4 390.123C29.4 390.304 28.6534 390.44 27.7667 390.44C26.6934 390.44 26.1334 390.214 26.1334 389.806Z" fill="#07070A"/>
<path d="M193.2 379.696C177.147 379.379 165.2 377.294 165.2 374.846C165.2 374.574 165.947 373.531 166.833 372.534C167.72 371.536 168.467 370.312 168.467 369.768C168.467 368.68 169.82 367.32 170.847 367.32C172.013 367.32 172.667 366.323 172.667 364.464V362.696L175.653 363.014L178.64 363.286L178.967 361.926C179.247 360.611 179.433 360.52 181.3 360.52C182.42 360.52 183.447 360.702 183.587 360.928C184.1 361.699 186.2 360.339 186.2 359.296C186.2 358.39 186.433 358.254 187.973 358.254C188.953 358.254 190.12 358.526 190.633 358.888C191.52 359.478 191.567 359.432 191.38 357.528L191.24 355.534H192.873C193.76 355.534 194.74 355.851 195.113 356.259C195.813 357.075 197.867 356.758 198.473 355.715C198.66 355.352 199.36 355.08 199.967 355.08C200.9 355.08 201.087 354.808 201.367 353.176C201.553 352.088 201.88 351.091 202.113 350.955C202.347 350.819 202.02 350.048 201.367 349.187C200.667 348.28 200.2 347.056 200.2 346.15C200.2 344.835 200.34 344.654 201.367 344.654C202.02 344.654 202.533 344.427 202.533 344.155C202.533 343.384 208.32 344.064 209.953 345.016C210.653 345.424 212.1 346.331 213.08 347.011C214.107 347.691 215.927 348.462 217.14 348.688C218.353 348.915 219.8 349.459 220.267 349.867C220.827 350.366 221.2 350.456 221.2 350.184C221.2 349.867 221.48 349.64 221.853 349.64C222.227 349.64 222.647 349.323 222.787 348.915C223.067 348.19 223.44 348.19 228.34 349.006C229.273 349.142 230.067 349.459 230.067 349.686C230.067 349.912 230.393 349.958 230.767 349.822C231.14 349.64 231.467 349.142 231.467 348.688C231.467 348.008 231.793 347.827 233.333 347.827C234.873 347.827 235.2 347.963 235.2 348.734C235.2 349.504 235.387 349.595 236.507 349.368C237.207 349.187 237.953 348.87 238.233 348.688C238.467 348.462 239.54 348.28 240.66 348.28C242.527 348.28 242.713 348.371 242.947 349.595C243.133 350.456 243.693 351.091 244.673 351.499C245.793 351.998 246.26 352.542 246.54 353.856C246.773 354.763 247.24 355.534 247.567 355.534C248.36 355.534 248.733 356.576 248.733 358.888C248.733 360.928 248.127 361.88 246.82 361.88C246.307 361.88 245.747 362.47 245.42 363.467C245.093 364.328 244.673 365.054 244.487 365.054C243.927 365.054 242.667 367.819 242.667 369.134C242.667 370.539 241.92 371.4 240.567 371.446C240.053 371.446 239.913 371.582 240.24 371.718C240.613 371.854 240.8 372.896 240.8 374.619V377.294H238.513C237.253 377.294 234.547 377.611 232.54 377.974C230.533 378.336 227.22 378.654 225.167 378.654C223.113 378.654 220.173 378.88 218.633 379.107C215.787 379.56 202.207 379.878 193.2 379.696Z" fill="#07070A"/>
<path d="M44.8933 374.12C45.0333 372.035 44.9399 371.853 44.0066 371.853C43.0266 371.853 42.9333 371.627 42.9333 369.36C42.9333 366.776 42.0466 363.24 41.4399 363.24C40.8333 363.24 41.02 360.157 41.6266 359.976C42 359.84 41.8133 359.205 41.0666 357.981C40.46 357.029 39.7599 356.168 39.5733 356.077C39.3866 355.987 39.2 355.216 39.2 354.355C39.2 353.085 39.4333 352.723 40.4133 352.36C42.2799 351.68 44.6599 351.816 46.5733 352.768C48.8599 353.901 51.6133 354.4 51.9866 353.765C52.1733 353.493 52.9666 353.267 53.76 353.267C55.8133 353.267 61.6 355.216 61.6 355.896C61.6 356.848 59.4533 360.656 58.1466 362.016C57.4933 362.696 56.9333 363.421 56.8866 363.603C56.8866 363.784 56.14 364.827 55.2533 365.96C54.3666 367.093 53.1533 369.088 52.5 370.403C51.5666 372.307 51.1466 372.76 50.1666 372.76C49.28 372.76 49 372.987 49 373.803C48.9533 375.389 47.88 376.387 46.2 376.387H44.7066L44.8933 374.12ZM49 371.173C49 370.811 48.6733 370.493 48.3 370.493C47.8333 370.493 47.6 370.04 47.6 369.133C47.6 368.408 47.4133 367.773 47.1333 367.773C46.9 367.773 46.6666 368.363 46.6666 369.088C46.6666 369.813 46.5266 370.72 46.3866 371.128C46.1533 371.717 46.4333 371.853 47.5533 371.853C48.5333 371.853 49 371.627 49 371.173Z" fill="#07070A"/>
<path d="M270.667 370.947C270.667 370.222 270.947 369.451 271.273 369.27C271.647 369.088 272.02 368.544 272.207 368.136C272.347 367.728 272.953 367.32 273.56 367.23C274.447 367.139 274.633 366.776 274.773 365.19L274.913 363.24L276.873 363.195C277.947 363.195 278.553 363.059 278.273 362.923C277.527 362.651 277.48 360.022 278.18 358.526C278.46 357.936 279.207 357.302 279.813 357.166C280.607 356.939 280.933 356.576 280.933 355.806C280.933 354.718 281.727 354.174 283.313 354.174C283.967 354.174 284.2 353.856 284.2 352.814C284.2 352.088 284.387 351.454 284.667 351.454C284.9 351.454 285.6 351 286.207 350.456C288.96 347.963 290.547 346.92 291.713 346.92C292.367 346.92 293.487 346.512 294.14 346.014C294.793 345.515 295.633 345.107 296.053 345.107C296.473 345.107 296.8 344.744 296.8 344.2C296.8 343.611 297.127 343.294 297.733 343.294C298.433 343.294 298.667 342.976 298.667 342.16C298.667 341.254 298.9 341.027 299.833 341.027C300.533 341.027 301.513 340.528 302.12 339.894C303.147 338.851 303.52 338.76 307.487 338.76C311.547 338.76 311.733 338.806 311.78 339.803C311.827 340.528 311.873 340.619 312.06 340.03C312.2 339.44 312.713 339.214 313.833 339.214C316.307 339.214 316.867 339.576 316.867 341.299C316.867 342.659 316.727 342.84 315.7 342.84C315 342.84 313.973 343.43 313.133 344.246C311.687 345.742 311.36 346.467 312.2 346.467C312.48 346.467 312.667 347.192 312.667 348.054C312.667 349.459 312.807 349.64 313.88 349.64C314.953 349.64 315.047 349.776 314.907 351.363C314.813 352.587 314.487 353.176 313.74 353.494C312.9 353.811 312.667 354.31 312.667 355.579C312.667 356.576 312.2 357.891 311.5 358.888C310.847 359.795 310.333 360.838 310.333 361.155C310.333 361.472 309.867 361.926 309.307 362.198C307.347 363.014 302.12 364.555 300.16 364.872C299.04 365.054 298.06 365.371 297.92 365.552C297.78 365.779 297.22 365.96 296.66 365.96C296.1 366.006 294.793 366.368 293.767 366.867C292.74 367.366 291.34 367.728 290.687 367.774C289.987 367.774 288.213 368.136 286.72 368.635C285.18 369.088 282.38 369.814 280.467 370.222C278.553 370.63 275.753 371.31 274.307 371.672C270.713 372.534 270.667 372.534 270.667 370.947Z" fill="#07070A"/>
<path d="M293.533 319.493C293.533 317.997 293.627 317.907 295.167 317.907C296.707 317.907 296.8 317.997 296.8 319.493C296.8 320.989 296.707 321.08 295.167 321.08C293.627 321.08 293.533 320.989 293.533 319.493Z" fill="#07070A"/>
<path d="M133.467 182.134C133.467 181.182 133.233 181 132.067 181C130.76 181 130.667 180.91 130.667 179.187C130.667 177.6 130.807 177.374 131.787 177.374C134.213 177.374 135.8 177.918 135.8 178.779C135.8 179.278 136.127 179.64 136.5 179.64C137.013 179.64 137.2 180.139 137.2 181.454V183.267H135.333C133.653 183.267 133.467 183.176 133.467 182.134Z" fill="#07070A"/>
<path d="M79.8 98.9923C79.8 98.4483 79.52 98.0403 79.1 98.0403C78.68 98.0403 78.4 97.6323 78.4 96.907C78.4 96.2723 78.2133 95.7737 77.9333 95.7737C77.7 95.7737 77.4667 95.0483 77.4667 94.187C77.4667 93.099 77.7 92.6003 78.1667 92.6003C78.54 92.6003 78.8667 92.3737 78.8667 92.1017C78.8667 91.4217 87.1267 91.9203 88.0133 92.6457C88.3867 92.9177 88.6667 93.5523 88.6667 94.0057C88.6667 94.6403 88.9933 94.867 89.8333 94.867C90.86 94.867 91 95.0483 91 96.363C91 97.6323 90.7667 97.995 89.46 98.5843C88.62 98.9923 86.1 99.4457 83.86 99.627C79.94 99.9443 79.8 99.9443 79.8 98.9923Z" fill="#07070A"/>
<path d="M51.3334 32.5334C51.3334 31.0374 51.4267 30.9468 52.9667 30.9468C54.5067 30.9468 54.6 31.0374 54.6 32.5334C54.6 34.0294 54.5067 34.1201 52.9667 34.1201C51.4267 34.1201 51.3334 34.0294 51.3334 32.5334Z" fill="#07070A"/>
<path d="M56.1399 17.2561C53.8999 15.7148 53.2 13.8108 53.2 9.50412C53.2 5.46946 54.4133 1.93345 55.7666 1.93345C56.14 1.93345 56.4666 1.75212 56.4666 1.57079C56.4666 0.890789 58.8 0.120117 60.9 0.120117C62.44 0.120117 63.2799 0.437456 64.4466 1.34412C66.4999 3.02146 67.2 4.97079 67.1533 8.82412C67.1066 12.1788 66.64 14.0828 65.2866 15.8961C63.4666 18.3441 58.7999 19.0694 56.1399 17.2561Z" fill="#07070A"/>
<path d="M0.93335 15.7603C0.93335 14.8989 1.16668 14.1736 1.40002 14.1736C1.68002 14.1736 1.86668 13.8563 1.86668 13.4936C1.86668 13.1309 2.24001 12.8136 2.75335 12.8136C3.26668 12.8136 3.82668 12.2696 4.20002 11.4536C4.52668 10.7283 4.94669 10.0936 5.18002 10.0936C5.41335 10.0936 5.60002 9.68561 5.60002 9.18694C5.60002 8.41627 5.92669 8.28027 7.51335 8.28027H9.47334L9.19336 10.5923C8.91336 12.7683 7.23336 15.9869 6.39336 15.9869C6.16002 15.9869 5.69335 16.3043 5.32001 16.6669C4.90001 17.0296 3.78001 17.3469 2.75335 17.3469C0.980013 17.3469 0.93335 17.3016 0.93335 15.7603Z" fill="#07070A"/>
</svg>
