<svg width="393" height="448" viewBox="0 0 393 448" fill="none" xmlns="http://www.w3.org/2000/svg">
<path d="M368.4 447.021C368.4 446.749 368.867 446.115 369.473 445.616C370.873 444.347 375.54 440.946 375.867 440.946C376.053 440.946 376.52 440.221 376.94 439.36C377.36 438.453 378.06 437.637 378.433 437.501C378.807 437.365 379.553 436.549 380.113 435.688C380.627 434.826 381.28 434.146 381.513 434.146C382.213 434.146 381.327 435.461 378.947 438C377.78 439.269 376.707 440.629 376.567 441.083C376.38 441.491 376.1 441.853 375.913 441.853C375.447 441.853 369.24 446.386 368.773 447.021C368.493 447.384 368.4 447.384 368.4 447.021V447.021Z" fill="#6D4941"/>
<path d="M352.067 432.152C352.067 432.061 352.813 431.88 353.7 431.789C354.587 431.698 355.333 431.789 355.333 431.97C355.333 432.152 354.587 432.333 353.7 432.333C352.813 432.333 352.067 432.242 352.067 432.152Z" fill="#6D4941"/>
<path d="M382.96 427.12C383.613 425.851 384.173 425.261 384.407 425.488C385.013 426.077 383.473 429.16 382.633 429.16C382.073 429.16 382.167 428.752 382.96 427.12Z" fill="#6D4941"/>
<path d="M383.567 423.312C383.24 422.768 385.713 421.045 387.533 420.546C388.467 420.274 389.027 420.365 389.353 420.728C389.96 421.453 389.54 421.906 388.28 421.906C387.72 421.906 386.787 422.314 386.133 422.813C384.873 423.765 383.987 423.946 383.567 423.312V423.312Z" fill="#6D4941"/>
<path d="M389.4 417.6C389.4 417.192 388.98 416.92 388.233 416.92C386.647 416.92 386.74 415.877 388.56 414.245C389.68 413.248 389.913 412.749 389.54 412.296C388.653 411.208 388.513 409.53 389.167 408.034C389.727 406.72 389.727 406.402 389.12 405.813C388.7 405.45 388.187 405.133 387.907 405.133C387.627 405.133 387.533 404.634 387.767 403.909C387.953 403.184 388.093 402.096 388.047 401.416C388.047 400.464 388.28 400.146 388.933 400.146C390.333 400.146 390.053 399.421 388.233 398.333C386.46 397.245 386.273 396.882 387.253 396.112C387.58 395.84 388 394.842 388.14 393.89C388.373 392.576 388.187 391.85 387.207 390.4C386.507 389.402 385.807 387.634 385.667 386.456C385.387 384.416 385.433 384.28 386.46 384.28C387.253 384.28 387.533 384.552 387.533 385.232C387.533 385.73 387.72 386.501 387.953 386.909C388.187 387.362 388.607 389.176 388.84 390.989C389.12 392.848 389.633 394.752 389.96 395.296C390.473 396.021 390.52 396.61 390.147 397.517C389.773 398.56 389.867 399.013 390.613 400.01C391.407 401.098 391.453 401.552 391.08 403.274C390.8 404.634 390.8 405.36 391.08 405.45C391.36 405.541 391.547 406.765 391.453 408.216C391.407 409.621 391.593 411.026 391.827 411.344C392.153 411.706 391.967 412.205 391.313 412.885C390.333 413.882 390.52 414.653 391.92 415.605C392.48 416.013 391.827 416.92 390.987 416.92C390.613 416.92 390.333 417.237 390.333 417.6C390.333 417.962 390.147 418.28 389.867 418.28C389.633 418.28 389.4 417.962 389.4 417.6V417.6Z" fill="#6D4941"/>
<path d="M201.94 414.744C200.913 414.427 200.913 414.427 201.707 412.659L202.547 410.891L203.387 412.16C204.18 413.293 204.367 413.384 206.467 413.112C208.287 412.885 208.753 412.976 208.987 413.565C209.173 413.973 209.173 414.427 209.033 414.563C208.613 414.971 203.107 415.107 201.94 414.744V414.744Z" fill="#6D4941"/>
<path d="M296.907 412.795C295.787 412.205 295.833 411.48 297 411.48C297.467 411.48 298.12 411.888 298.4 412.387C298.96 413.429 298.307 413.611 296.907 412.795Z" fill="#6D4941"/>
<path d="M365.133 412.794C366.02 412.568 367.327 412.16 368.073 411.933C368.773 411.752 369.333 411.616 369.333 411.752C369.333 412.16 367.513 412.749 365.6 412.976C363.593 413.248 363.593 413.248 365.133 412.794V412.794Z" fill="#6D4941"/>
<path d="M365.413 411.434C365.787 410.845 369.8 409.032 370.08 409.349C370.313 409.53 365.927 411.933 365.367 411.933C365.18 411.933 365.227 411.706 365.413 411.434V411.434Z" fill="#6D4941"/>
<path d="M295.04 407.989C295.6 407.898 296.533 407.898 297.14 407.989C297.7 408.08 297.233 408.17 296.067 408.17C294.9 408.17 294.433 408.08 295.04 407.989Z" fill="#6D4941"/>
<path d="M299.333 401.37C299.333 400.418 299.52 400.328 300.873 400.509C301.667 400.645 302.74 400.962 303.207 401.28C303.953 401.778 303.813 401.869 302.273 402.141C299.567 402.549 299.333 402.504 299.333 401.37Z" fill="#6D4941"/>
<path d="M359.533 401.461C359.533 400.962 360 400.736 361.307 400.69C362.66 400.69 362.847 400.781 362.1 401.053C361.26 401.416 361.307 401.461 362.427 401.461C363.127 401.506 363.827 401.688 363.967 401.96C364.153 402.232 363.36 402.368 361.913 402.277C360.093 402.232 359.533 402.005 359.533 401.461Z" fill="#6D4941"/>
<path d="M291.867 398.786L290.793 397.88L291.913 397.834C292.52 397.834 293.453 397.698 293.967 397.608C295.553 397.245 297.7 397.064 298.213 397.29C299.24 397.653 298.307 399.149 296.907 399.421C294.433 399.92 292.987 399.738 291.867 398.786V398.786ZM295.973 397.88C296.16 397.336 296.067 397.29 295.553 397.744C295.18 398.016 294.387 398.333 293.733 398.469C292.94 398.65 293.033 398.696 294.153 398.65C295.133 398.605 295.833 398.288 295.973 397.88Z" fill="#6D4941"/>
<path d="M291.4 392.168C291.4 391.397 292.193 390.536 292.52 390.989C292.66 391.216 292.473 391.669 292.1 391.986C291.727 392.304 291.4 392.394 291.4 392.168V392.168Z" fill="#6D4941"/>
<path d="M295.553 391.125C296.067 390.808 296.02 390.626 295.367 390.264C294.573 389.856 294.573 389.81 295.507 389.538C296.673 389.176 297.607 389.584 297.233 390.218C297.047 390.445 297.373 390.627 297.887 390.627C299.753 390.627 298.867 391.352 296.907 391.397C295.647 391.442 295.133 391.352 295.553 391.125V391.125Z" fill="#6D4941"/>
<path d="M295.133 385.776C295.133 385.549 294.573 385.141 293.873 384.869L292.567 384.371L294.013 384.325C294.76 384.28 295.74 384.552 296.113 384.869C296.487 385.141 296.673 385.368 296.58 385.323C296.487 385.232 296.113 385.413 295.74 385.685C295.413 385.957 295.133 386.003 295.133 385.776V385.776Z" fill="#6D4941"/>
<path d="M300.267 383.872C300.267 383.328 302.133 382.013 302.927 382.013C303.953 382.013 303.58 382.693 302.18 383.509C300.64 384.371 300.267 384.461 300.267 383.872V383.872Z" fill="#6D4941"/>
<path d="M295.273 383.056C294.947 382.92 294.667 382.512 294.667 382.104C294.667 381.56 294.807 381.514 295.18 381.877C295.46 382.149 296.067 382.285 296.487 382.149C296.907 382.013 297.047 382.104 296.767 382.33C296.533 382.512 296.207 382.829 296.067 382.965C295.927 383.146 295.553 383.146 295.273 383.056V383.056Z" fill="#6D4941"/>
<path d="M364.667 381.061C364.667 380.291 364.9 380.155 366.207 380.291C368.913 380.517 368.96 382.013 366.253 382.013C364.947 382.013 364.667 381.832 364.667 381.061V381.061Z" fill="#6D4941"/>
<path d="M286.033 378.341C285.847 378.069 285.8 377.797 285.847 377.707C286.453 377.163 295.227 374.76 296.58 374.76C297.7 374.76 298.4 374.533 298.587 374.08C298.727 373.717 299.24 373.4 299.753 373.4C300.407 373.4 300.64 373.627 300.453 374.08C300.267 374.443 300.407 374.76 300.687 374.76C300.967 374.76 301.2 375.168 301.2 375.621C301.2 376.347 300.78 376.528 298.54 376.709C297.047 376.845 295.273 376.981 294.573 376.981C293.873 376.981 292.613 377.435 291.773 377.933C290.14 378.885 286.547 379.157 286.033 378.341V378.341Z" fill="#6D4941"/>
<path d="M301.667 376.075C301.667 375.213 301.853 375.123 303.58 375.349C304.607 375.485 305.633 375.712 305.773 375.893C306.287 376.347 304.793 377.027 303.207 377.027C301.947 377.027 301.667 376.845 301.667 376.075V376.075Z" fill="#6D4941"/>
<path d="M363.267 375.032C363.267 373.4 364.013 372.81 364.48 374.08C364.667 374.442 365.133 374.76 365.553 374.76C366.02 374.76 366.393 375.077 366.393 375.44C366.393 375.802 366.16 376.12 365.88 376.12C365.6 376.12 364.9 376.256 364.34 376.392C363.36 376.664 363.267 376.528 363.267 375.032V375.032Z" fill="#6D4941"/>
<path d="M340.867 375.394C340.867 373.944 345.02 371.632 345.44 372.901C345.533 373.173 346.047 373.4 346.513 373.4C347.027 373.4 347.307 373.218 347.167 372.946C347.027 372.674 347.213 372.629 347.587 372.765C348.007 372.901 348.333 372.81 348.333 372.584C348.333 372.312 347.96 372.04 347.54 371.949C346.84 371.813 346.887 371.722 347.773 371.496C348.66 371.269 348.8 371.405 348.8 372.674C348.8 374.08 348.707 374.125 345.813 374.896C342.78 375.666 340.867 375.893 340.867 375.394Z" fill="#6D4941"/>
<path d="M285.66 374.352C286.22 373.853 286.827 373.4 286.967 373.4C287.107 373.4 287.713 372.992 288.273 372.448L289.3 371.541L289.44 372.946C289.533 373.762 289.487 374.488 289.347 374.624C289.207 374.76 288.087 374.986 286.873 375.077L284.633 375.304L285.66 374.352Z" fill="#6D4941"/>
<path d="M376.007 373.763C375.82 373.445 375.633 372.493 375.633 371.723C375.633 370.453 375.82 370.227 376.707 370.227C377.547 370.227 377.733 370.499 377.733 371.541C377.733 373.944 376.893 375.032 376.007 373.763Z" fill="#6D4941"/>
<path d="M146.547 372.176C145.847 368.504 145.753 367.053 146.22 367.053C146.78 367.053 148.133 369.365 148.133 370.317C148.133 370.635 148.46 371.451 148.787 372.176C149.487 373.355 149.44 373.4 148.133 373.4C147.06 373.4 146.78 373.173 146.547 372.176V372.176Z" fill="#6D4941"/>
<path d="M139.733 370.906C139.733 368.957 140.713 368.776 141.46 370.589C141.927 371.677 141.973 371.722 142.02 370.816C142.113 369.093 143 369.138 143 370.861C143 372.402 142.907 372.493 141.367 372.493C139.827 372.493 139.733 372.402 139.733 370.906V370.906Z" fill="#6D4941"/>
<path d="M356.033 372.085C354.82 371.858 354.633 371.586 354.493 370.09C354.353 368.504 354.447 368.413 355.66 368.413C356.36 368.413 357.667 368.594 358.507 368.821C359.907 369.229 360 369.184 360.047 368.05C360.047 367.37 360.187 367.098 360.327 367.416C360.467 367.733 361.96 368.594 363.64 369.365C366.487 370.589 367.42 371.314 367.467 372.176C367.467 372.765 364.667 372.538 363.267 371.813C362.007 371.178 361.867 371.178 361.867 371.813C361.867 372.312 361.353 372.493 359.673 372.448C358.413 372.402 356.827 372.266 356.033 372.085V372.085ZM360.467 370.317C360.467 369.818 357.2 368.821 356.64 369.138C356.453 369.274 356.267 369.592 356.267 369.818C356.267 370.09 356.453 370.181 356.64 370.045C356.827 369.954 357.293 370 357.667 370.272C358.553 370.77 360.467 370.816 360.467 370.317Z" fill="#6D4941"/>
<path d="M150.887 368.323C150.56 367.507 149.907 366.283 149.44 365.603C148.973 364.968 148.6 363.789 148.6 363.019C148.6 361.749 148.74 361.613 150 361.613C151.027 361.613 151.307 361.795 151.12 362.293C150.933 362.656 150.607 362.837 150.28 362.656C150 362.52 150.14 362.747 150.56 363.245C151.26 364.016 153.733 368.957 153.733 369.547C153.733 369.683 153.22 369.773 152.613 369.773C151.82 369.773 151.353 369.365 150.887 368.323V368.323Z" fill="#6D4941"/>
<path d="M154.107 368.866C153.92 368.232 153.733 367.144 153.78 366.373C153.78 365.013 153.78 365.013 154.247 366.146C154.527 366.736 154.667 367.869 154.573 368.64C154.433 369.954 154.433 370 154.107 368.866Z" fill="#6D4941"/>
<path d="M296.533 367.189C296.58 365.602 296.627 365.512 297.233 366.328C297.933 367.189 298.867 367.189 303.02 366.328C304.28 366.056 304.513 366.146 304.233 366.6C303.953 367.053 304.093 367.144 304.887 366.917C305.727 366.736 305.82 366.781 305.353 367.325C305.073 367.688 304.98 368.005 305.213 368.005C306.193 368.141 301.2 368.821 299.007 368.821L296.533 368.866V367.189V367.189Z" fill="#6D4941"/>
<path d="M363.733 367.053C363.08 366.872 361.867 366.69 361.073 366.645C359.627 366.6 359.533 366.509 359.533 365.013C359.533 364.152 359.767 363.426 360 363.426C360.28 363.426 360.42 363.653 360.373 363.97C360.28 364.333 361.12 364.65 362.567 364.832C363.873 365.013 365.46 365.376 366.16 365.602C367.513 366.146 368.307 367.053 367.373 367.053C367.047 367.053 366.347 367.144 365.833 367.234C365.32 367.37 364.387 367.28 363.733 367.053V367.053Z" fill="#6D4941"/>
<path d="M141.647 362.475C140.9 360.435 140.993 358.44 141.787 358.44C142.16 358.44 142.533 358.893 142.673 359.483C142.86 360.027 143.28 360.888 143.7 361.387C144.447 362.248 144.447 362.203 144.213 360.253C143.933 358.304 143.98 358.259 144.633 359.347C145.007 359.981 145.287 361.251 145.333 362.203C145.333 363.835 145.287 363.88 143.747 363.88C142.393 363.88 142.067 363.699 141.647 362.475Z" fill="#6D4941"/>
<path d="M216.827 349.509C216.92 349.056 217.387 348.648 217.9 348.512C218.413 348.421 219.487 347.832 220.327 347.242L221.867 346.109V347.65C221.867 349.418 220.607 350.28 218.087 350.28C216.967 350.28 216.687 350.098 216.827 349.509V349.509Z" fill="#6D4941"/>
<path d="M295.133 348.92C295.133 348.285 295.46 348.013 296.207 348.013C297.607 348.013 298.073 348.467 297.42 349.237C296.58 350.144 295.133 349.963 295.133 348.92V348.92Z" fill="#6D4941"/>
<path d="M299.333 349.419C299.333 349.056 303.953 348.467 304.42 348.784C304.84 349.056 304.187 349.237 301.807 349.555C300.36 349.736 299.333 349.691 299.333 349.419V349.419Z" fill="#6D4941"/>
<path d="M225.133 338.04C225.133 337.36 225.46 337.133 226.487 337.133C227.233 337.133 228.167 336.997 228.587 336.861C229.147 336.634 229.333 336.861 229.333 337.768C229.333 338.856 229.193 338.946 227.233 338.946C225.46 338.946 225.133 338.81 225.133 338.04Z" fill="#6D4941"/>
<path d="M124.193 333.189C124.007 333.053 123.867 332.101 123.867 331.149C123.867 329.789 124.053 329.426 124.707 329.426C125.22 329.426 125.547 329.789 125.593 330.378C125.733 331.784 126.107 331.965 126.9 330.968C127.507 330.152 127.553 330.197 127.6 331.829C127.6 333.416 127.553 333.506 126.06 333.506C125.173 333.506 124.333 333.37 124.193 333.189V333.189Z" fill="#6D4941"/>
<path d="M205.16 329.426C204.413 328.202 203.667 327.296 203.527 327.432C203.107 327.84 201.753 326.706 202.08 326.208C202.22 325.981 202.08 325.392 201.8 324.893C201.52 324.394 201.053 322.082 200.82 319.77C200.12 313.877 199.233 313.197 199.28 318.682C199.327 321.448 199.14 323.261 198.673 324.122C198.347 324.802 197.973 325.346 197.88 325.346C197.787 325.346 197.833 324.304 197.973 323.034C198.113 321.402 198.02 320.586 197.6 320.36C197.133 320.088 197.087 319.816 197.46 319.362C198.3 318.32 197.087 315.826 195.267 314.965C193.633 314.194 192.513 312.925 193.073 312.381C193.26 312.2 193.82 312.426 194.333 312.88C194.847 313.333 195.267 313.605 195.267 313.514C195.313 313.424 195.407 312.29 195.5 311.021C195.593 309.752 196.013 307.938 196.387 306.986C197.18 305.218 197.367 302.68 196.76 302.68C196.433 302.68 195.5 301.048 194.333 298.373C194.007 297.648 193.587 296.696 193.353 296.333C192.42 294.837 191.953 293.386 192.093 292.525C192.233 291.754 192.467 291.936 193.307 293.522C194.287 295.336 194.987 295.834 195.407 295.109C195.5 294.882 195.453 293.522 195.267 292.026C194.8 288.354 195.127 286.677 196.247 286.949C198.347 287.493 196.527 283.05 193.96 281.373C190.367 278.97 188.453 276.386 189.247 274.981C189.9 273.712 189.76 273.213 188.5 272.76C187.287 272.306 186.913 270.81 187.847 270.221C188.687 269.722 193.867 275.752 193.867 277.293C193.867 277.701 194.193 278.426 194.567 278.925C195.08 279.56 195.267 279.605 195.22 279.106C195.08 277.656 195.313 276.976 195.92 276.976C196.387 276.976 196.667 277.792 196.9 279.424C197.04 280.738 197.413 281.917 197.647 282.053C198.113 282.37 198.207 281.872 198.067 279.696C198.02 278.517 198.16 278.2 198.907 278.2C199.56 278.2 199.98 278.834 200.587 280.829C201.053 282.234 202.313 285.181 203.48 287.357C205.487 291.21 205.533 291.346 205.533 295.744C205.533 298.192 205.627 302.861 205.767 306.08C205.907 309.344 206 313.741 206 315.962C206 319 206.14 319.906 206.653 319.906C208.053 319.906 208.987 329.789 207.68 331.058C207.307 331.421 206.887 331.693 206.747 331.693C206.607 331.693 205.907 330.696 205.16 329.426V329.426Z" fill="#6D4941"/>
<path d="M201.147 328.701C200.773 327.749 200.773 327.613 201.287 327.613C201.847 327.613 202.313 328.883 201.847 329.2C201.613 329.336 201.287 329.109 201.147 328.701Z" fill="#6D4941"/>
<path d="M193.167 306.216C193.167 303.496 193.353 301.546 193.633 301.456C194.193 301.274 195.873 303.768 195.453 304.176C195.313 304.312 195.127 304.674 195.08 305.037C194.893 305.898 193.353 310.84 193.26 310.84C193.213 310.84 193.167 308.754 193.167 306.216V306.216Z" fill="#6D4941"/>
<path d="M196.993 275.525C195.92 273.757 195.967 272.307 197.087 272.307C198.02 272.307 198.533 273.44 198.533 275.616C198.533 277.203 198.02 277.157 196.993 275.525V275.525Z" fill="#6D4941"/>
<path d="M195.267 270.72C194.94 270.085 194.38 269.587 194.007 269.587C193.167 269.587 188.967 265.189 187.94 263.24C187.473 262.379 186.913 261.517 186.633 261.336C186.4 261.155 186.307 260.883 186.447 260.747C186.633 260.611 187.287 261.155 187.94 261.971C188.593 262.787 190.04 264.373 191.067 265.507C192.653 267.184 192.933 267.32 192.653 266.413C192.467 265.824 191.953 264.781 191.533 264.147C190.087 262.061 189.013 260.293 189.247 260.248C189.34 260.248 189.153 259.885 188.78 259.477C188.453 259.024 188.313 258.707 188.453 258.707C188.92 258.707 190.367 260.157 190.273 260.475C190.18 260.883 190.74 261.563 191.72 262.333C192.56 262.923 192.607 262.923 192.373 262.333C192.233 261.971 191.953 261.155 191.767 260.52C191.44 259.432 191.487 259.477 192.887 260.837C193.68 261.653 194.333 262.56 194.333 262.877C194.333 263.195 194.847 264.691 195.5 266.187C197.18 270.131 196.993 273.803 195.267 270.72V270.72Z" fill="#6D4941"/>
<path d="M187.193 257.074C187.007 256.893 186.867 256.44 186.867 256.032C186.867 255.533 187.007 255.488 187.38 255.85C187.66 256.122 187.847 256.576 187.707 256.893C187.613 257.165 187.38 257.256 187.193 257.074Z" fill="#6D4941"/>
<path d="M136.933 162.464C136.933 161.965 137.493 161.648 138.707 161.466C139.64 161.33 141.133 161.104 141.973 160.968C144.073 160.65 146.267 161.149 146.267 161.965C146.267 162.373 145.753 162.6 144.773 162.6C143.933 162.6 141.833 162.736 140.107 162.917C137.4 163.144 136.933 163.098 136.933 162.464Z" fill="#6D4941"/>
<path d="M122.233 162.328C121.72 162.237 119.48 162.056 117.24 161.92C113.6 161.648 113.133 161.512 113.133 160.741C113.133 160.288 113.273 159.88 113.507 159.88C114.953 159.88 124.707 160.877 125.547 161.059C126.153 161.24 126.667 161.603 126.667 161.965C126.667 162.555 124.8 162.736 122.233 162.328V162.328Z" fill="#6D4941"/>
<path d="M149.533 162.01C149.533 161.24 152.987 160.197 154.2 160.56C154.713 160.741 155.74 160.877 156.533 160.877C157.56 160.922 157.933 161.149 157.933 161.784C157.933 162.509 157.513 162.6 153.733 162.6C150.513 162.6 149.533 162.464 149.533 162.01Z" fill="#6D4941"/>
<path d="M103.8 158.973C103.8 158.747 103.38 158.52 102.867 158.52C102.26 158.52 101.933 158.203 101.933 157.613C101.933 156.48 102.867 156.48 105.2 157.613C107.487 158.747 107.58 159.427 105.433 159.427C104.547 159.427 103.8 159.245 103.8 158.973Z" fill="#6D4941"/>
<path d="M157.467 158.202C155.367 157.522 155.32 157.522 156.3 157.16C157.513 156.752 158.867 157.114 158.867 157.885C158.867 158.565 158.633 158.61 157.467 158.202V158.202Z" fill="#6D4941"/>
<path d="M161.107 157.749C159.147 157.522 158.867 156.978 160.313 156.253C161.573 155.573 165.867 156.48 165.867 157.432C165.867 158.066 164.98 158.112 161.107 157.749V157.749Z" fill="#6D4941"/>
<path d="M97.1266 157.296C96.9399 157.16 96.7999 156.344 96.7999 155.528V154.032L98.0132 155.12C98.7132 155.754 99.5532 156.253 99.8799 156.253C100.253 156.253 100.533 156.57 100.533 156.933C100.533 157.386 100.067 157.613 98.9933 157.613C98.1066 157.613 97.2666 157.477 97.1266 157.296Z" fill="#6D4941"/>
<path d="M21.8067 155.573C20.9667 155.21 20.2667 154.712 20.2667 154.44C20.2667 154.213 19.9867 153.986 19.66 153.986C18.96 153.986 17 152.128 17 151.448C17 151.221 16.58 150.768 16.0667 150.45C15.5534 150.133 15.1334 149.634 15.1334 149.272C15.1334 148.909 14.8067 148.546 14.4334 148.365C13.6867 148.093 13.4067 145.373 14.1067 145.373C14.5267 145.373 16.0667 146.869 16.0667 147.277C16.0667 147.821 20.9667 152.717 22.3667 153.533C24.1867 154.621 26.66 154.712 28.1067 153.714C29.0867 153.034 29.1334 153.08 29.1334 154.349C29.1334 155.165 28.8533 155.8 28.3867 155.981C27.08 156.48 23.3467 156.253 21.8067 155.573V155.573Z" fill="#6D4941"/>
<path d="M1.50662 148.864C-0.126713 148.229 -0.220041 147.549 1.36663 147.821C2.76663 148.093 3.46663 148.456 3.46663 149.045C3.46663 149.544 3.18662 149.499 1.50662 148.864V148.864Z" fill="#6D4941"/>
<path d="M39.8666 146.416C39.8666 146.189 40.6132 145.6 41.4999 145.011L43.1332 144.013V145.373C43.1332 146.643 42.9932 146.733 41.4999 146.733C40.6132 146.733 39.8666 146.597 39.8666 146.416V146.416Z" fill="#6D4941"/>
<path d="M80.7466 125.245C77.4799 124.066 74.8666 120.757 74.8666 117.765C74.8666 116.042 75.4266 115.952 76.4999 117.538C77.1066 118.445 77.3866 118.581 77.7132 118.128C77.9932 117.674 78.4599 117.901 79.7199 119.17C83.1266 122.57 87.1399 121.709 90.0799 116.994C90.5932 116.178 90.6399 116.224 90.9666 117.357C91.1532 118.128 91.0132 119.08 90.5932 119.986C90.1732 120.757 90.0799 121.21 90.3599 121.074C90.5932 120.938 91.1999 119.941 91.7132 118.898L92.5999 117.04L92.4599 119.125C92.1799 121.981 91.2466 123.613 89.2399 124.61C86.9532 125.789 83.0332 126.061 80.7466 125.245Z" fill="#6D4941"/>
<path d="M20.9667 122.616C17.7 120.893 16.0667 117.539 16.0667 112.643C16.0667 110.331 16.16 110.013 17 110.013C17.84 110.013 17.9333 110.331 17.9333 112.507C17.9333 115.045 19.0066 117.947 19.7533 117.493C19.9866 117.357 21.06 117.992 22.1333 118.853C23.3933 119.896 24.56 120.44 25.4933 120.44C27.64 120.44 31.1867 119.443 31.7933 118.672C32.26 118.083 32.3533 118.219 32.4 119.669C32.4 122.208 30.5333 123.16 25.6333 123.16C23.58 123.16 21.48 122.888 20.9667 122.616Z" fill="#6D4941"/>
<path d="M166.333 118.173C166.333 117.221 166.8 117.085 168.573 117.538C170.253 117.992 169.833 119.08 167.967 119.08C166.66 119.08 166.333 118.898 166.333 118.173Z" fill="#6D4941"/>
<path d="M48.2666 54.1624C48.2666 53.1197 48.4999 51.0344 48.7799 49.5384C49.0599 47.997 49.3866 46.3197 49.4799 45.821C49.5733 45.277 50.0399 44.733 50.5533 44.597C51.2066 44.461 51.3466 44.597 51.2066 45.2317C51.0666 45.7304 51.1599 46.093 51.4399 46.093C52.4666 46.093 53.3999 45.5037 53.3999 44.9144C53.3999 44.5064 53.9133 44.2797 54.9399 44.2797C56.4333 44.2797 56.4333 44.2344 56.2933 42.4664C56.1066 40.653 56.1066 40.653 57.7866 40.653C59.0466 40.653 59.4666 40.4717 59.4666 39.8824C59.5133 38.477 61.1466 37.0264 62.6866 37.0264C64.0866 37.0264 64.1333 37.117 64.1333 38.9757C64.1333 41.2877 63.1066 42.9197 61.5666 42.9197C60.6799 42.9197 60.4466 43.1917 60.3066 44.4157C60.1666 45.685 59.9799 45.8664 58.6733 46.0024C57.6933 46.093 57.1333 46.4104 57.1333 46.8184C57.1333 47.2264 56.6666 47.453 55.7799 47.453C53.8199 47.453 52.9333 47.861 52.9333 48.813C52.9333 49.2664 52.6066 51.0797 52.1866 52.8477C51.4399 56.0664 51.4399 56.0664 49.8533 56.0664C48.3133 56.0664 48.2666 56.021 48.2666 54.1624Z" fill="#6D4941"/>
<path d="M76.7333 6.0183C76.7333 5.42897 76.8733 4.29563 77.0133 3.52497C77.2933 2.30096 77.5266 2.11963 78.8333 2.11963C80.4666 2.11963 80.9333 2.70896 80.9333 4.70363C80.9333 6.19963 79.9066 7.1063 78.1799 7.1063C76.9666 7.1063 76.7333 6.92497 76.7333 6.0183ZM79.5333 5.47429C79.5333 5.11163 79.3466 4.83963 79.0666 4.83963C78.8333 4.83963 78.5999 5.24763 78.5999 5.79163C78.5999 6.2903 78.8333 6.5623 79.0666 6.4263C79.3466 6.2903 79.5333 5.83696 79.5333 5.47429Z" fill="#6D4941"/>
<path d="M90.0799 5.92776C89.1466 4.97576 88.8666 4.25043 88.8666 2.75443V0.759766H91.1066C92.3199 0.759766 93.5799 0.986431 93.9066 1.30376C94.2332 1.6211 94.4666 3.02643 94.4666 4.4771V7.10643H92.8799C91.8066 7.10643 90.9199 6.74376 90.0799 5.92776Z" fill="#6D4941"/>
</svg>
