<svg width="101" height="84" viewBox="0 0 101 84" fill="none" xmlns="http://www.w3.org/2000/svg">
<path d="M48.68 83.6634C48.35 83.5922 48.48 83.3697 48.85 83.3697C49.13 83.3697 49.2 83.4053 49.2 83.5477C49.2 83.7257 49.06 83.7524 48.68 83.6634Z" fill="#ADADAD"/>
<path d="M46.73 83.4409C46.27 83.3519 46.12 83.1028 46.53 83.1028C47.11 83.1028 47.5 83.2184 47.5 83.3786C47.5 83.5655 47.38 83.5744 46.73 83.4409Z" fill="#ADADAD"/>
<path d="M55.9 82.5243C55.9 82.3285 55.94 82.3018 56.26 82.3018C56.7 82.3018 56.68 82.462 56.22 82.6311C55.91 82.7468 55.9 82.7379 55.9 82.5243Z" fill="#ADADAD"/>
<path d="M56.7 82.2128C56.7 81.9637 56.73 81.9459 57.05 81.9459C57.49 81.9459 57.49 82.026 57.05 82.284C56.7 82.4798 56.7 82.4798 56.7 82.2128Z" fill="#ADADAD"/>
<path d="M51.6 82.2662C51.6 82.1505 51.88 82.0349 52.18 82.0349C52.24 82.0349 52.3 82.115 52.3 82.2128C52.3 82.3552 52.23 82.3908 51.95 82.3908C51.72 82.3908 51.6 82.3463 51.6 82.2662Z" fill="#ADADAD"/>
<path d="M52.5 82.0437C52.5 81.9993 52.95 81.7679 53.5 81.5276C54.5 81.0916 54.5 81.0915 54.5 81.3229C54.5 81.5009 54.42 81.5899 54.15 81.7056C53.95 81.7857 53.66 81.8569 53.5 81.8569C53.3 81.8569 53.2 81.9014 53.2 81.9904C53.2 82.0793 53.09 82.1238 52.85 82.1238C52.66 82.1238 52.5 82.0882 52.5 82.0437Z" fill="#ADADAD"/>
<path d="M45.9 81.1894C45.9 80.9225 46.06 80.9136 46.38 81.1361C46.68 81.3674 46.66 81.4119 46.25 81.4119C45.94 81.4119 45.9 81.3852 45.9 81.1894Z" fill="#ADADAD"/>
<path d="M51.4 81.2339C51.4 81.0916 51.47 81.056 51.75 81.056C52.12 81.056 52.24 81.2517 51.94 81.3585C51.62 81.4653 51.4 81.4119 51.4 81.2339Z" fill="#ADADAD"/>
<path d="M48.25 81.1717C47.73 81.056 47.66 80.789 48.15 80.789C48.46 80.789 48.5 80.8157 48.5 81.0115C48.5 81.1361 48.49 81.2251 48.48 81.2251C48.46 81.2162 48.36 81.1895 48.25 81.1717Z" fill="#ADADAD"/>
<path d="M40.91 80.7801C40.56 80.4775 40.56 80.4775 40.84 80.4508C41.2 80.4152 41.32 80.522 41.28 80.8424C41.25 81.0916 41.25 81.0916 40.91 80.7801Z" fill="#ADADAD"/>
<path d="M58.8 80.789C58.8 80.5487 58.83 80.522 59.1 80.522C59.37 80.522 59.39 80.5398 59.29 80.6911C59.22 80.7801 59.09 80.8958 58.99 80.9581C58.82 81.0471 58.8 81.0293 58.8 80.789Z" fill="#ADADAD"/>
<path d="M55 80.9047C55 80.8602 55.16 80.7445 55.35 80.6288C55.7 80.433 55.7 80.433 55.7 80.7C55.7 80.9492 55.67 80.967 55.35 80.967C55.16 80.967 55 80.9403 55 80.9047Z" fill="#ADADAD"/>
<path d="M47.23 80.7356C46.8 80.5487 46.81 80.433 47.25 80.433C47.56 80.433 47.6 80.4597 47.6 80.6555C47.6 80.7801 47.59 80.878 47.58 80.878C47.56 80.878 47.4 80.8068 47.23 80.7356Z" fill="#ADADAD"/>
<path d="M53.9 80.2996C53.9 80.1038 53.94 80.0771 54.25 80.0771C54.66 80.0771 54.68 80.1216 54.38 80.3529C54.06 80.5754 53.9 80.5665 53.9 80.2996Z" fill="#ADADAD"/>
<path d="M56.1 80.1661C56.1 80.1216 56.14 80.0771 56.19 80.0771C56.23 80.0771 56.39 79.9703 56.54 79.8457C56.8 79.6054 56.8 79.6054 56.8 79.9347C56.8 80.2462 56.79 80.2551 56.45 80.2551C56.26 80.2551 56.1 80.2195 56.1 80.1661Z" fill="#ADADAD"/>
<path d="M43.52 79.8813C43.45 79.819 43.4 79.73 43.4 79.6766C43.4 79.6321 43.3 79.5431 43.18 79.4986C43.01 79.4363 42.94 79.3206 42.92 79.0804C42.88 78.6621 42.98 78.6621 43.3 79.0537C43.44 79.2228 43.72 79.4719 43.92 79.6054C44.13 79.7389 44.3 79.8813 44.3 79.9258C44.3 80.0326 43.65 79.997 43.52 79.8813Z" fill="#ADADAD"/>
<path d="M55.4 79.4541C55.4 79.2139 55.43 79.1872 55.7 79.1872C55.95 79.1872 56 79.1516 56 78.9825C56 78.671 56.51 78.2794 56.86 78.315C57.15 78.3417 57.15 78.3417 56.54 78.8757C55.91 79.4274 55.53 79.7211 55.45 79.7211C55.42 79.7211 55.4 79.6054 55.4 79.4541Z" fill="#ADADAD"/>
<path d="M44.6 79.2228C44.25 78.9202 44.25 78.9202 44.63 78.9202C44.99 78.9202 45 78.9291 45 79.2316C45 79.4007 44.99 79.5431 44.98 79.5342C44.96 79.5253 44.79 79.3918 44.6 79.2228Z" fill="#ADADAD"/>
<path d="M39.5 79.2584C39.23 79.0003 39.25 78.8312 39.55 78.8312C39.77 78.8312 39.8 78.8668 39.8 79.1427C39.8 79.5075 39.77 79.5164 39.5 79.2584Z" fill="#ADADAD"/>
<path d="M57.8 78.7066C57.8 78.6354 57.85 78.5464 57.9 78.5197C57.96 78.4841 58.07 78.3239 58.15 78.1549C58.33 77.7633 58.5 77.7633 58.5 78.1638C58.5 78.3328 58.46 78.4752 58.4 78.4752C58.35 78.4752 58.3 78.5553 58.3 78.6532C58.3 78.7867 58.23 78.8312 58.05 78.8312C57.9 78.8312 57.8 78.7778 57.8 78.7066Z" fill="#ADADAD"/>
<path d="M43.78 78.4752C43.5 78.1638 43.5 78.1638 43.76 78.1371C44.09 78.1015 44.12 78.1282 44.08 78.4841C44.05 78.7867 44.05 78.7867 43.78 78.4752Z" fill="#ADADAD"/>
<path d="M38.67 77.9502C38.45 77.612 38.45 77.5853 38.75 77.5853C38.97 77.5853 39 77.6209 39 77.8968C39 78.2794 38.9 78.2883 38.67 77.9502Z" fill="#ADADAD"/>
<path d="M57.1 76.8289C57.1 76.4996 57.18 76.4462 57.38 76.6242C57.58 76.8022 57.53 77.1404 57.3 77.1404C57.14 77.1404 57.1 77.0781 57.1 76.8289Z" fill="#ADADAD"/>
<path d="M43.3 76.909C43.3 76.7221 43.48 76.4284 43.6 76.4284C43.66 76.4284 43.7 76.5708 43.7 76.7399C43.7 76.9891 43.66 77.0514 43.5 77.0514C43.39 77.0514 43.3 76.9891 43.3 76.909Z" fill="#ADADAD"/>
<path d="M61.9 76.206C61.9 76.0369 61.95 75.8945 62 75.8945C62.06 75.8945 62.1 75.7788 62.1 75.6275C62.1 75.4228 62.14 75.3605 62.3 75.3605C62.56 75.3605 62.56 75.583 62.3 76.1081C62.07 76.5975 61.9 76.6331 61.9 76.206Z" fill="#ADADAD"/>
<path d="M37.66 75.8767C37.56 75.5385 37.59 75.4495 37.8 75.4495C37.96 75.4495 38 75.5118 38 75.761C38 76.117 37.76 76.1971 37.66 75.8767Z" fill="#ADADAD"/>
<path d="M42.7 75.761C42.7 75.4762 42.72 75.4495 43 75.4495C43.29 75.4495 43.29 75.4495 43.12 75.7165C42.87 76.1081 42.7 76.1259 42.7 75.761Z" fill="#ADADAD"/>
<path d="M55.4 75.8945C55.4 75.7165 55.62 75.6631 55.94 75.7699C56.24 75.8767 56.12 76.0725 55.75 76.0725C55.47 76.0725 55.4 76.0369 55.4 75.8945Z" fill="#ADADAD"/>
<path d="M57.48 75.6097C57.32 75.4673 57.2 75.3339 57.2 75.3072C57.2 75.2894 57.36 75.2716 57.55 75.2716C57.88 75.2716 57.9 75.2894 57.9 75.583C57.9 75.9568 57.84 75.9568 57.48 75.6097Z" fill="#ADADAD"/>
<path d="M53.98 75.7432C53.78 75.7165 53.7 75.6542 53.7 75.5296C53.7 75.3339 53.73 75.325 54.4 75.4584C54.71 75.5207 54.9 75.6008 54.9 75.6809C54.9 75.8055 54.6 75.8233 53.98 75.7432Z" fill="#ADADAD"/>
<path d="M52.4 75.3605C52.4 75.1737 52.5 75.147 52.88 75.236C53.24 75.3249 53.15 75.5385 52.75 75.5385C52.47 75.5385 52.4 75.5029 52.4 75.3605Z" fill="#ADADAD"/>
<path d="M43.5 75.236C43.5 75.0135 43.71 74.9156 44.23 74.9156C44.4 74.9156 44.5 74.9601 44.5 75.0491C44.5 75.1203 44.49 75.1826 44.48 75.1826C44.46 75.1826 44.24 75.2449 43.98 75.3161C43.5 75.4407 43.5 75.4407 43.5 75.236Z" fill="#ADADAD"/>
<path d="M48.8 75.325C48.8 75.2093 49.08 75.0936 49.38 75.0936C49.44 75.0936 49.5 75.1737 49.5 75.2716C49.5 75.4139 49.43 75.4495 49.15 75.4495C48.92 75.4495 48.8 75.405 48.8 75.325Z" fill="#ADADAD"/>
<path d="M55.78 75.0313C55.45 74.9601 55.58 74.7376 55.95 74.7376C56.23 74.7376 56.3 74.7732 56.3 74.9156C56.3 75.0936 56.16 75.1203 55.78 75.0313Z" fill="#ADADAD"/>
<path d="M54.48 74.7465C54.09 74.6664 53.9 74.5863 53.9 74.4884C53.9 74.3816 54 74.3639 54.47 74.4173C55.12 74.4884 55.13 74.4884 55.08 74.7109C55.05 74.8622 55.01 74.8622 54.48 74.7465Z" fill="#ADADAD"/>
<path d="M48.4 74.2927C48.4 74.1503 48.47 74.1147 48.75 74.1147C49.15 74.1147 49.24 74.3283 48.88 74.4173C48.5 74.5062 48.4 74.4795 48.4 74.2927Z" fill="#ADADAD"/>
<path d="M62.7 73.6074C62.7 73.5184 62.73 73.2337 62.76 72.9845C62.82 72.5929 62.86 72.5128 63.02 72.5128C63.22 72.5128 63.22 72.5929 63.06 73.5362C63.02 73.7676 62.7 73.8299 62.7 73.6074Z" fill="#ADADAD"/>
<path d="M36.86 72.2281C36.76 71.8899 36.79 71.8009 37 71.8009C37.16 71.8009 37.2 71.8632 37.2 72.1124C37.2 72.4684 36.96 72.5485 36.86 72.2281Z" fill="#ADADAD"/>
<path d="M62.9 71.7564C62.9 71.5072 62.94 71.445 63.1 71.445C63.31 71.445 63.34 71.5339 63.24 71.8721C63.14 72.1925 62.9 72.1124 62.9 71.7564Z" fill="#ADADAD"/>
<path d="M62.9 70.4216C62.9 70.0656 63.14 69.9855 63.24 70.3148C63.34 70.6441 63.31 70.733 63.1 70.733C62.94 70.733 62.9 70.6707 62.9 70.4216Z" fill="#ADADAD"/>
<path d="M36.83 70.0656C36.84 69.8342 36.9 69.7541 37.03 69.7541C37.16 69.7541 37.2 69.8253 37.2 70.0656C37.2 70.3148 37.16 70.3771 37 70.3771C36.83 70.3771 36.8 70.3237 36.83 70.0656Z" fill="#ADADAD"/>
<path d="M62.8 69.6028C62.8 69.5139 62.77 69.2291 62.74 68.9799C62.68 68.5884 62.7 68.5083 62.83 68.5083C62.98 68.5083 63.03 68.615 63.15 69.3804C63.21 69.7185 63.2 69.7541 63.01 69.7541C62.88 69.7541 62.8 69.7007 62.8 69.6028Z" fill="#ADADAD"/>
<path d="M37.1 68.3125C37.1 68.0455 37.23 67.7963 37.36 67.7963C37.45 67.7963 37.5 67.9031 37.5 68.1078C37.5 68.357 37.46 68.4193 37.3 68.4193C37.19 68.4193 37.1 68.3659 37.1 68.3125Z" fill="#ADADAD"/>
<path d="M34.19 66.5149C34.16 66.4882 33.95 66.4615 33.71 66.4526C33.32 66.4259 33.08 66.2746 33.23 66.1411C33.26 66.1144 33.58 66.1144 33.94 66.15C34.49 66.2034 34.6 66.239 34.6 66.3814C34.6 66.5327 34.31 66.6217 34.19 66.5149Z" fill="#ADADAD"/>
<path d="M65.6 66.3725C65.6 66.2301 65.67 66.1945 65.95 66.1945C66.35 66.1945 66.44 66.4081 66.08 66.4971C65.7 66.5861 65.6 66.5594 65.6 66.3725Z" fill="#ADADAD"/>
<path d="M67.6 66.1144C67.6 65.9631 67.66 65.9275 67.96 65.9275C68.24 65.9275 68.31 65.9631 68.28 66.0788C68.26 66.1678 68.13 66.239 67.92 66.2568C67.65 66.2924 67.6 66.2657 67.6 66.1144Z" fill="#ADADAD"/>
<path d="M28.65 65.7584C28.49 65.6161 28.64 65.4826 28.95 65.4826C29.23 65.4826 29.3 65.5182 29.3 65.6606C29.3 65.8029 29.24 65.8385 29 65.8207C28.83 65.8118 28.67 65.7851 28.65 65.7584Z" fill="#ADADAD"/>
<path d="M26.88 65.5093C26.55 65.4381 26.68 65.2156 27.05 65.2156C27.33 65.2156 27.4 65.2512 27.4 65.3936C27.4 65.5716 27.26 65.5983 26.88 65.5093Z" fill="#ADADAD"/>
<path d="M24.85 65.2245C24.69 65.0821 24.84 64.9486 25.15 64.9486C25.43 64.9486 25.5 64.9842 25.5 65.1266C25.5 65.269 25.44 65.3046 25.2 65.2868C25.03 65.2779 24.87 65.2512 24.85 65.2245Z" fill="#ADADAD"/>
<path d="M75.3 65.0376C75.3 64.8952 75.37 64.8596 75.65 64.8596C76.05 64.8596 76.14 65.0732 75.78 65.1622C75.4 65.2512 75.3 65.2245 75.3 65.0376Z" fill="#ADADAD"/>
<path d="M23.78 65.0643C23.45 64.9931 23.58 64.7706 23.95 64.7706C24.23 64.7706 24.3 64.8062 24.3 64.9486C24.3 65.1266 24.16 65.1533 23.78 65.0643Z" fill="#ADADAD"/>
<path d="M76.5 64.8596C76.5 64.7173 76.57 64.6817 76.85 64.6817C77.25 64.6817 77.34 64.8952 76.98 64.9842C76.6 65.0732 76.5 65.0465 76.5 64.8596Z" fill="#ADADAD"/>
<path d="M21.98 64.7973C21.65 64.7262 21.78 64.5037 22.15 64.5037C22.43 64.5037 22.5 64.5393 22.5 64.6817C22.5 64.8596 22.36 64.8863 21.98 64.7973Z" fill="#ADADAD"/>
<path d="M77.6 64.6995C77.6 64.566 77.69 64.5126 78.06 64.4681C78.75 64.388 78.9 64.3969 78.9 64.5393C78.9 64.6639 78.79 64.6995 77.98 64.824C77.65 64.8685 77.6 64.8596 77.6 64.6995Z" fill="#ADADAD"/>
<path d="M20.78 64.6194C20.45 64.5482 20.58 64.3257 20.95 64.3257C21.23 64.3257 21.3 64.3613 21.3 64.5037C21.3 64.6816 21.16 64.7083 20.78 64.6194Z" fill="#ADADAD"/>
<path d="M19.08 64.3524C18.75 64.2812 18.88 64.0587 19.25 64.0587C19.53 64.0587 19.6 64.0943 19.6 64.2367C19.6 64.4147 19.46 64.4414 19.08 64.3524Z" fill="#ADADAD"/>
<path d="M84 63.7028C84 63.5604 84.07 63.5248 84.35 63.5248C84.75 63.5248 84.84 63.7384 84.48 63.8273C84.1 63.9163 84 63.8896 84 63.7028Z" fill="#ADADAD"/>
<path d="M85.7 63.4358C85.7 63.2934 85.77 63.2578 86.05 63.2578C86.45 63.2578 86.54 63.4714 86.18 63.5604C85.8 63.6494 85.7 63.6227 85.7 63.4358Z" fill="#ADADAD"/>
<path d="M13.38 63.4625C13.05 63.3913 13.18 63.1688 13.55 63.1688C13.83 63.1688 13.9 63.2044 13.9 63.3468C13.9 63.5248 13.76 63.5515 13.38 63.4625Z" fill="#ADADAD"/>
<path d="M87.4 63.1688C87.4 63.0264 87.47 62.9908 87.75 62.9908C88.15 62.9908 88.24 63.2044 87.88 63.2934C87.5 63.3824 87.4 63.3557 87.4 63.1688Z" fill="#ADADAD"/>
<path d="M10.58 63.0175C10.25 62.9463 10.38 62.7238 10.75 62.7238C11.03 62.7238 11.1 62.7594 11.1 62.9018C11.1 63.0798 10.96 63.1065 10.58 63.0175Z" fill="#ADADAD"/>
<path d="M91.8 62.4569C91.8 62.3145 91.87 62.2789 92.15 62.2789C92.55 62.2789 92.64 62.4925 92.28 62.5815C91.9 62.6705 91.8 62.6438 91.8 62.4569Z" fill="#ADADAD"/>
<path d="M5.18 62.1276C4.85 62.0564 4.98 61.8339 5.35 61.8339C5.63 61.8339 5.7 61.8695 5.7 62.0119C5.7 62.1899 5.56 62.2166 5.18 62.1276Z" fill="#ADADAD"/>
<path d="M94.5 62.0208C94.5 61.8607 94.89 61.745 95.48 61.745C95.92 61.745 95.71 61.9941 95.2 62.092C94.53 62.2166 94.5 62.2166 94.5 62.0208Z" fill="#ADADAD"/>
<path d="M4.08 61.9496C3.75 61.8784 3.88 61.656 4.25 61.656C4.53 61.656 4.6 61.6916 4.6 61.8339C4.6 62.0119 4.46 62.0386 4.08 61.9496Z" fill="#ADADAD"/>
<path d="M2.48 61.6827C2.15 61.6115 2.28 61.389 2.65 61.389C2.93 61.389 3 61.4246 3 61.567C3 61.745 2.86 61.7717 2.48 61.6827Z" fill="#ADADAD"/>
<path d="M99.2 61.211C99.2 61.0686 99.27 61.033 99.55 61.033C99.95 61.033 100.04 61.2466 99.68 61.3356C99.3 61.4246 99.2 61.3979 99.2 61.211Z" fill="#ADADAD"/>
<path d="M99.7 60.2766C99.7 59.9206 99.94 59.8406 100.04 60.1698C100.14 60.4991 100.11 60.5881 99.9 60.5881C99.74 60.5881 99.7 60.5258 99.7 60.2766Z" fill="#ADADAD"/>
<path d="M32.8 59.4846C32.8 59.3689 33.08 59.2532 33.38 59.2532C33.44 59.2532 33.5 59.3333 33.5 59.4312C33.5 59.5736 33.43 59.6092 33.15 59.6092C32.92 59.6092 32.8 59.5647 32.8 59.4846Z" fill="#ADADAD"/>
<path d="M66.8 59.4312C66.8 59.2443 66.9 59.2176 67.28 59.3066C67.64 59.3956 67.55 59.6092 67.15 59.6092C66.87 59.6092 66.8 59.5736 66.8 59.4312Z" fill="#ADADAD"/>
<path d="M70.7 59.4846C70.7 59.3689 70.98 59.2532 71.28 59.2532C71.34 59.2532 71.4 59.3333 71.4 59.4312C71.4 59.5736 71.33 59.6092 71.05 59.6092C70.82 59.6092 70.7 59.5647 70.7 59.4846Z" fill="#ADADAD"/>
<path d="M27.6 59.3422C27.6 59.1909 27.66 59.1642 27.95 59.1909C28.21 59.1998 28.3 59.2532 28.3 59.3689C28.3 59.4846 28.22 59.5202 27.95 59.5202C27.67 59.5202 27.6 59.4846 27.6 59.3422Z" fill="#ADADAD"/>
<path d="M64.6 59.1642C64.6 58.9773 64.7 58.9506 65.08 59.0396C65.44 59.1286 65.35 59.3422 64.95 59.3422C64.67 59.3422 64.6 59.3066 64.6 59.1642Z" fill="#ADADAD"/>
<path d="M63.1 58.7727C63.1 58.568 63.12 58.5591 63.42 58.6392C63.6 58.6837 63.76 58.7193 63.77 58.7193C63.79 58.7193 63.8 58.7816 63.8 58.8527C63.8 58.9417 63.69 58.9862 63.45 58.9862C63.15 58.9862 63.1 58.9595 63.1 58.7727Z" fill="#ADADAD"/>
<path d="M22.9 58.7193C22.9 58.5324 23 58.5057 23.38 58.5947C23.74 58.6837 23.65 58.8972 23.25 58.8972C22.97 58.8972 22.9 58.8617 22.9 58.7193Z" fill="#ADADAD"/>
<path d="M77.3 58.6748C77.3 58.6036 77.32 58.5413 77.34 58.5413C77.36 58.5413 77.92 58.4434 78.6 58.3188C80.06 58.0518 80 58.0607 80 58.2565C80 58.39 79.81 58.4523 78.87 58.6125C77.53 58.8438 77.3 58.8527 77.3 58.6748Z" fill="#ADADAD"/>
<path d="M70.3 58.4523C70.3 58.3099 70.37 58.2743 70.65 58.2743C71.05 58.2743 71.14 58.4879 70.78 58.5769C70.4 58.6659 70.3 58.6392 70.3 58.4523Z" fill="#ADADAD"/>
<path d="M99.5 58.5413C99.5 58.4968 99.41 58.4523 99.3 58.4523C99.19 58.4523 99.1 58.4167 99.1 58.3633C99.1 58.3188 99.03 58.2743 98.94 58.2743C98.56 58.2743 98 58.0607 98 57.9183C98 57.8383 98.03 57.7493 98.06 57.7137C98.14 57.6514 98.82 57.8561 99.65 58.2031C99.95 58.3277 99.99 58.6303 99.7 58.6303C99.59 58.6303 99.5 58.5947 99.5 58.5413Z" fill="#ADADAD"/>
<path d="M27.2 58.2565C27.2 58.1319 27.28 58.0963 27.55 58.0963C27.83 58.0963 27.9 58.1319 27.9 58.2743C27.9 58.4256 27.84 58.4523 27.55 58.4256C27.29 58.4167 27.2 58.3633 27.2 58.2565Z" fill="#ADADAD"/>
<path d="M64.98 58.301C64.65 58.2298 64.78 58.0073 65.15 58.0073C65.43 58.0073 65.5 58.0429 65.5 58.1853C65.5 58.3633 65.36 58.39 64.98 58.301Z" fill="#ADADAD"/>
<path d="M18.7 58.0073C18.7 57.8205 18.8 57.7938 19.18 57.8827C19.54 57.9717 19.45 58.1853 19.05 58.1853C18.77 58.1853 18.7 58.1497 18.7 58.0073Z" fill="#ADADAD"/>
<path d="M38.5 58.1319C38.5 58.0696 38.75 57.8739 39.03 57.7315C39.18 57.6603 39.2 57.687 39.2 57.9184C39.2 58.1675 39.17 58.1853 38.85 58.1853C38.66 58.1853 38.5 58.1586 38.5 58.1319Z" fill="#ADADAD"/>
<path d="M74.8 58.0162C74.8 57.865 74.86 57.8294 75.16 57.8294C75.44 57.8294 75.51 57.865 75.48 57.9806C75.46 58.0696 75.33 58.1408 75.12 58.1586C74.85 58.1942 74.8 58.1675 74.8 58.0162Z" fill="#ADADAD"/>
<path d="M24.05 57.9628C24 57.945 23.78 57.9094 23.58 57.8738C23.34 57.8383 23.2 57.776 23.2 57.6959C23.2 57.5446 23.35 57.5357 24.04 57.6158C24.4 57.6603 24.5 57.7137 24.5 57.8383C24.5 57.9984 24.32 58.0429 24.05 57.9628Z" fill="#ADADAD"/>
<path d="M76 57.8294C76 57.687 76.07 57.6514 76.35 57.6514C76.75 57.6514 76.84 57.865 76.48 57.9539C76.1 58.0429 76 58.0162 76 57.8294Z" fill="#ADADAD"/>
<path d="M60.8 57.5891C60.8 57.2598 60.8 57.2598 61 57.4556C61.12 57.5624 61.25 57.6514 61.29 57.6514C61.34 57.6514 61.4 57.7137 61.44 57.7849C61.48 57.8916 61.41 57.9183 61.15 57.9183C60.81 57.9183 60.8 57.9094 60.8 57.5891Z" fill="#ADADAD"/>
<path d="M63.13 57.8116C62.68 57.6781 62.7 57.4734 63.15 57.4734C63.46 57.4734 63.5 57.5001 63.5 57.6959C63.5 57.8205 63.49 57.9184 63.48 57.9095C63.46 57.9006 63.3 57.8561 63.13 57.8116Z" fill="#ADADAD"/>
<path d="M82.82 57.7671C82.84 57.687 82.92 57.6158 83 57.6069C84.21 57.4645 84.2 57.4645 84.2 57.6336C84.2 57.776 84.1 57.8116 83.68 57.865C82.88 57.9451 82.78 57.9362 82.82 57.7671Z" fill="#ADADAD"/>
<path d="M77.1 57.6692C77.1 57.5357 77.29 57.4734 78.23 57.3132C79.57 57.0818 79.8 57.0729 79.8 57.2509C79.8 57.3221 79.78 57.3844 79.76 57.3844C79.74 57.3844 79.18 57.4823 78.5 57.6069C77.04 57.8739 77.1 57.865 77.1 57.6692Z" fill="#ADADAD"/>
<path d="M96.68 57.7671C96.48 57.7404 96.4 57.6781 96.4 57.5446C96.4 57.3844 96.44 57.3755 96.83 57.4289C97.47 57.5179 97.6 57.5624 97.6 57.7048C97.6 57.8294 97.3 57.8472 96.68 57.7671Z" fill="#ADADAD"/>
<path d="M86 57.4378C86 57.3221 86.28 57.2064 86.58 57.2064C86.64 57.2064 86.7 57.2865 86.7 57.3844C86.7 57.5268 86.63 57.5624 86.35 57.5624C86.12 57.5624 86 57.5179 86 57.4378Z" fill="#ADADAD"/>
<path d="M95.2 57.3755C95.2 57.2242 95.25 57.1975 95.52 57.2331C95.73 57.2509 95.86 57.3221 95.88 57.4111C95.91 57.5268 95.84 57.5624 95.56 57.5624C95.26 57.5624 95.2 57.5268 95.2 57.3755Z" fill="#ADADAD"/>
<path d="M0.599998 57.2509C0.599998 57.0551 0.639999 57.0284 0.959999 57.0284C1.4 57.0284 1.38 57.1886 0.92 57.3577C0.61 57.4734 0.599998 57.4645 0.599998 57.2509Z" fill="#ADADAD"/>
<path d="M12.5 57.2954C12.5 57.1085 12.6 57.0818 12.98 57.1708C13.34 57.2598 13.25 57.4734 12.85 57.4734C12.57 57.4734 12.5 57.4378 12.5 57.2954Z" fill="#ADADAD"/>
<path d="M37.9 57.2509C37.9 57.0551 37.94 57.0284 38.25 57.0284C38.66 57.0284 38.67 57.0551 38.38 57.2954C38.09 57.5357 37.9 57.5179 37.9 57.2509Z" fill="#ADADAD"/>
<path d="M87.1 57.3488C87.1 57.2331 87.38 57.1174 87.68 57.1174C87.74 57.1174 87.8 57.1975 87.8 57.2954C87.8 57.4378 87.73 57.4734 87.45 57.4734C87.22 57.4734 87.1 57.4289 87.1 57.3488Z" fill="#ADADAD"/>
<path d="M94.4 57.2954C94.4 57.1085 94.5 57.0818 94.88 57.1708C95.24 57.2598 95.15 57.4734 94.75 57.4734C94.47 57.4734 94.4 57.4378 94.4 57.2954Z" fill="#ADADAD"/>
<path d="M6.6 57.2598C6.6 57.1441 6.88 57.0284 7.18 57.0284C7.24 57.0284 7.3 57.1085 7.3 57.2064C7.3 57.3488 7.23 57.3844 6.95 57.3844C6.72 57.3844 6.6 57.3399 6.6 57.2598Z" fill="#ADADAD"/>
<path d="M11 57.2064C11 57.0195 11.1 56.9928 11.48 57.0818C11.84 57.1708 11.75 57.3844 11.35 57.3844C11.07 57.3844 11 57.3488 11 57.2064Z" fill="#ADADAD"/>
<path d="M20.18 57.3221C19.85 57.2509 19.98 57.0284 20.35 57.0284C20.63 57.0284 20.7 57.064 20.7 57.2064C20.7 57.3844 20.56 57.4111 20.18 57.3221Z" fill="#ADADAD"/>
<path d="M98.93 57.2064C98.42 57.0017 98.37 56.8505 98.83 56.8594C99.29 56.8683 99.75 57.0462 99.76 57.2331C99.78 57.4378 99.47 57.4289 98.93 57.2064Z" fill="#ADADAD"/>
<path d="M38.7 56.7704C38.7 56.5123 38.73 56.4945 39.06 56.4945C39.45 56.4945 39.44 56.5746 39 56.8505C38.7 57.0373 38.7 57.0373 38.7 56.7704Z" fill="#ADADAD"/>
<path d="M61.12 56.6102C60.7 56.2275 60.7 56.2275 61.04 56.2275C61.45 56.2275 61.62 56.3966 61.58 56.7348C61.55 56.9928 61.55 56.9928 61.12 56.6102Z" fill="#ADADAD"/>
<path d="M2.6 56.7081C2.6 56.5212 2.65 56.4945 2.95 56.4945C3.17 56.4945 3.3 56.539 3.3 56.6102C3.3 56.6814 3.14 56.7704 2.95 56.8238C2.62 56.9217 2.6 56.9128 2.6 56.7081Z" fill="#ADADAD"/>
<path d="M97.03 56.7437C96.57 56.6547 96.42 56.4055 96.83 56.4055C97.41 56.4055 97.8 56.5212 97.8 56.6814C97.8 56.8683 97.68 56.8772 97.03 56.7437Z" fill="#ADADAD"/>
<path d="M99.3 56.6992C99.3 56.6102 99.27 56.3254 99.23 56.0584C99.18 55.6313 99.19 55.5868 99.35 55.6135C99.45 55.6313 99.54 55.7292 99.56 55.8271C99.72 56.7882 99.72 56.8505 99.51 56.8505C99.38 56.8505 99.3 56.7882 99.3 56.6992Z" fill="#ADADAD"/>
<path d="M84 56.5835C84 56.4411 84.07 56.4055 84.35 56.4055C84.75 56.4055 84.84 56.6191 84.48 56.7081C84.1 56.7971 84 56.7704 84 56.5835Z" fill="#ADADAD"/>
<path d="M0.449994 56.2542C0.549994 55.5868 0.609995 55.4266 0.769995 55.4266C0.899995 55.4266 0.919995 55.5067 0.859995 55.8983C0.829995 56.1474 0.799994 56.4322 0.799994 56.5212C0.799994 56.6191 0.719994 56.6725 0.589994 56.6725C0.399994 56.6725 0.389994 56.6369 0.449994 56.2542Z" fill="#ADADAD"/>
<path d="M3.7 56.5123C3.7 56.3699 3.83 56.3254 4.53 56.2453C5.59 56.1118 5.7 56.1118 5.7 56.272C5.7 56.3432 5.57 56.4144 5.38 56.4411C5.2 56.4678 4.78 56.5301 4.46 56.5835C3.69 56.6992 3.7 56.6992 3.7 56.5123Z" fill="#ADADAD"/>
<path d="M94.88 56.4322C94.55 56.361 94.68 56.1385 95.05 56.1385C95.33 56.1385 95.4 56.1741 95.4 56.3165C95.4 56.4945 95.26 56.5212 94.88 56.4322Z" fill="#ADADAD"/>
<path d="M93.78 56.3432C93.45 56.272 93.58 56.0495 93.95 56.0495C94.23 56.0495 94.3 56.0851 94.3 56.2275C94.3 56.4055 94.16 56.4322 93.78 56.3432Z" fill="#ADADAD"/>
<path d="M39.8 55.5601C39.8 55.2842 39.83 55.2486 40.05 55.2486C40.35 55.2486 40.35 55.2753 40.13 55.6135C39.9 55.9517 39.8 55.9428 39.8 55.5601Z" fill="#ADADAD"/>
<path d="M58.9 55.3732C58.9 54.9817 59.08 54.9994 59.27 55.4088C59.4 55.6847 59.39 55.6936 59.15 55.6936C58.93 55.6936 58.9 55.658 58.9 55.3732Z" fill="#ADADAD"/>
<path d="M59.96 54.9906C59.93 54.955 59.86 54.8126 59.81 54.6791C59.71 54.4655 59.73 54.4477 59.95 54.4477C60.17 54.4477 60.2 54.4833 60.2 54.7592C60.2 55.0528 60.08 55.1685 59.96 54.9906Z" fill="#ADADAD"/>
<path d="M99 54.7592C99 54.4032 99.24 54.3231 99.34 54.6524C99.44 54.9817 99.41 55.0706 99.2 55.0706C99.04 55.0706 99 55.0084 99 54.7592Z" fill="#ADADAD"/>
<path d="M58.42 54.4566C58.35 54.2697 58.3 54.0116 58.3 53.8782C58.3 53.7536 58.26 53.6468 58.2 53.6468C58.15 53.6468 58.1 53.5044 58.1 53.3353C58.1 52.9527 58.37 52.8993 58.46 53.273C58.49 53.4065 58.58 53.6557 58.65 53.8248C58.72 53.9939 58.82 54.2875 58.88 54.4744C58.98 54.7859 58.97 54.8037 58.76 54.8037C58.58 54.8037 58.51 54.7236 58.42 54.4566Z" fill="#ADADAD"/>
<path d="M40.4 54.3142C40.4 54.0384 40.43 54.0028 40.65 54.0028C40.94 54.0028 40.95 54.0206 40.75 54.3587C40.54 54.7147 40.4 54.6969 40.4 54.3142Z" fill="#ADADAD"/>
<path d="M59.62 54.243C59.56 54.1807 59.46 53.9494 59.41 53.718C59.35 53.4955 59.26 53.2107 59.2 53.0772C59.11 52.8637 59.13 52.8459 59.35 52.8459C59.57 52.8459 59.6 52.8815 59.6 53.1484C59.6 53.3175 59.65 53.4688 59.71 53.4866C59.85 53.5311 59.96 54.3587 59.83 54.3587C59.77 54.3587 59.68 54.3053 59.62 54.243Z" fill="#ADADAD"/>
<path d="M40.7 53.5133C40.7 53.2641 40.74 53.2018 40.9 53.2018C41.1 53.2018 41.16 53.3976 41.04 53.6824C40.92 53.9494 40.7 53.8426 40.7 53.5133Z" fill="#ADADAD"/>
<path d="M28.8 53.4866C28.8 53.451 28.89 53.3709 29 53.3086C29.11 53.2463 29.2 53.1395 29.2 53.0683C29.2 52.9972 29.27 52.9349 29.35 52.9349C29.45 52.9349 29.5 53.0328 29.5 53.2463C29.5 53.54 29.48 53.5578 29.15 53.5578C28.96 53.5578 28.8 53.5311 28.8 53.4866Z" fill="#ADADAD"/>
<path d="M1 53.3798C1 53.0505 1.24 52.4009 1.36 52.4009C1.51 52.4009 1.53 52.6056 1.44 53.1395C1.39 53.3798 1.33 53.4688 1.19 53.4688C1.08 53.4688 1 53.4332 1 53.3798Z" fill="#ADADAD"/>
<path d="M42 53.2285C42 53.184 42.07 52.837 42.14 52.4454C42.22 52.0539 42.26 51.7068 42.24 51.6712C42.21 51.6356 42.28 51.6 42.39 51.6C42.64 51.6 42.64 51.6801 42.49 52.6234C42.39 53.184 42.35 53.2908 42.19 53.2908C42.08 53.2908 42 53.2641 42 53.2285Z" fill="#ADADAD"/>
<path d="M41 52.3564C41 52.1072 41.04 52.045 41.2 52.045C41.41 52.045 41.44 52.1339 41.34 52.4721C41.24 52.7925 41 52.7124 41 52.3564Z" fill="#ADADAD"/>
<path d="M36.4 52.2674C36.4 51.9382 36.62 51.8314 36.74 52.0983C36.86 52.3831 36.8 52.5789 36.6 52.5789C36.44 52.5789 36.4 52.5166 36.4 52.2674Z" fill="#ADADAD"/>
<path d="M37.56 52.2051C37.46 51.867 37.49 51.778 37.7 51.778C37.86 51.778 37.9 51.8403 37.9 52.0895C37.9 52.4454 37.66 52.5255 37.56 52.2051Z" fill="#ADADAD"/>
<path d="M98.4 52.0005C98.4 51.8047 98.45 51.689 98.53 51.689C98.61 51.689 98.71 51.8314 98.77 52.0005C98.88 52.2941 98.87 52.3119 98.64 52.3119C98.43 52.3119 98.4 52.2674 98.4 52.0005Z" fill="#ADADAD"/>
<path d="M62.8 52.0183C62.8 51.8136 62.97 51.6 63.12 51.6C63.16 51.6 63.2 51.7424 63.2 51.9115C63.2 52.1606 63.16 52.2229 63 52.2229C62.86 52.2229 62.8 52.1606 62.8 52.0183Z" fill="#ADADAD"/>
<path d="M28.3 51.7335C28.3 51.5644 28.35 51.422 28.4 51.422C28.46 51.422 28.5 51.3419 28.5 51.2529C28.5 50.986 28.61 50.7991 28.76 50.7991C28.84 50.7991 28.9 50.7101 28.9 50.5766C28.9 50.4164 28.95 50.3541 29.1 50.3541C29.24 50.3541 29.3 50.2918 29.3 50.1405C29.3 49.8647 29.52 49.7134 29.89 49.749C30.19 49.7757 30.19 49.7757 29.69 50.2473C29.2 50.719 28.79 51.3419 28.66 51.8047C28.56 52.1695 28.3 52.1161 28.3 51.7335Z" fill="#ADADAD"/>
<path d="M61.7 51.7335C61.7 51.5644 61.75 51.422 61.8 51.422C61.86 51.422 61.9 51.3241 61.9 51.1995C61.9 51.0394 61.95 50.9771 62.1 50.9771C62.26 50.9771 62.3 50.9148 62.3 50.6656C62.3 50.4164 62.34 50.3541 62.5 50.3541C62.64 50.3541 62.7 50.2918 62.7 50.1405C62.7 49.8558 62.92 49.7134 63.29 49.749C63.6 49.7757 63.6 49.7757 63.17 50.1761C62.59 50.719 62.36 51.0305 62.15 51.5822C61.93 52.1161 61.7 52.1962 61.7 51.7335Z" fill="#ADADAD"/>
<path d="M69.6 51.7335C69.6 51.5199 69.65 51.422 69.75 51.422C69.83 51.422 69.9 51.4309 69.9 51.4487C69.9 51.4576 69.94 51.6 69.99 51.7602C70.08 52.0272 70.07 52.045 69.84 52.045C69.63 52.045 69.6 52.0005 69.6 51.7335Z" fill="#ADADAD"/>
<path d="M98.2 51.1995C98.2 50.8436 98.44 50.7635 98.54 51.0928C98.64 51.422 98.61 51.511 98.4 51.511C98.24 51.511 98.2 51.4487 98.2 51.1995Z" fill="#ADADAD"/>
<path d="M29.9 51.0928C29.9 50.9593 30.89 50.2028 31.31 50.016C31.75 49.8202 31.75 49.8202 31.78 50.0071C31.82 50.2384 31.65 50.3541 31.28 50.3541C31.07 50.3541 31 50.3986 31 50.5321C31 50.6656 30.93 50.7101 30.75 50.7101C30.55 50.7101 30.5 50.7546 30.5 50.9326C30.5 51.1194 30.45 51.155 30.2 51.155C30.04 51.155 29.9 51.1283 29.9 51.0928Z" fill="#ADADAD"/>
<path d="M35.43 50.9415C35.22 50.7546 35.11 50.2651 35.26 50.2651C35.35 50.2651 36.2 51.0216 36.2 51.1017C36.2 51.244 35.63 51.1283 35.43 50.9415Z" fill="#ADADAD"/>
<path d="M68.77 50.9059C68.62 50.7546 68.53 50.2651 68.65 50.2651C68.74 50.2651 69.2 50.6567 69.35 50.8614C69.5 51.0572 69.49 51.0661 69.22 51.0661C69.06 51.0661 68.86 50.9949 68.77 50.9059Z" fill="#ADADAD"/>
<path d="M1.7 50.6122C1.7 50.3274 1.94 49.7312 2.06 49.7312C2.21 49.7312 2.24 49.9804 2.14 50.4342C2.09 50.6211 2.02 50.7101 1.89 50.7101C1.78 50.7101 1.7 50.6656 1.7 50.6122Z" fill="#ADADAD"/>
<path d="M41.1 50.3897C41.1 50.1406 41.14 50.0783 41.27 50.105C41.37 50.1228 41.45 50.2384 41.47 50.4253C41.51 50.6656 41.48 50.7101 41.31 50.7101C41.14 50.7101 41.1 50.6567 41.1 50.3897Z" fill="#ADADAD"/>
<path d="M63.95 50.4609C64.12 50.3274 64.45 50.1228 64.7 50.016C65.15 49.8202 65.15 49.8202 65.18 50.0071C65.22 50.2384 65.05 50.3541 64.68 50.3541C64.47 50.3541 64.4 50.3986 64.4 50.5321C64.4 50.6745 64.33 50.7101 64.03 50.7101C63.65 50.7101 63.65 50.7101 63.95 50.4609Z" fill="#ADADAD"/>
<path d="M42.26 50.3363C42.16 49.9982 42.19 49.9092 42.4 49.9092C42.56 49.9092 42.6 49.9715 42.6 50.2206C42.6 50.5766 42.36 50.6567 42.26 50.3363Z" fill="#ADADAD"/>
<path d="M97.8 49.7757C97.8 49.4197 98.04 49.3396 98.14 49.6689C98.24 49.9982 98.21 50.0872 98 50.0872C97.84 50.0872 97.8 50.0249 97.8 49.7757Z" fill="#ADADAD"/>
<path d="M32.1 49.8736C32.1 49.7579 32.38 49.6422 32.68 49.6422C32.74 49.6422 32.8 49.7223 32.8 49.8202C32.8 49.9626 32.73 49.9982 32.45 49.9982C32.22 49.9982 32.1 49.9537 32.1 49.8736Z" fill="#ADADAD"/>
<path d="M65.5 49.8736C65.5 49.7579 65.78 49.6422 66.08 49.6422C66.14 49.6422 66.2 49.7223 66.2 49.8202C66.2 49.9626 66.13 49.9982 65.85 49.9982C65.62 49.9982 65.5 49.9537 65.5 49.8736Z" fill="#ADADAD"/>
<path d="M35.9 49.838C35.9 49.7935 35.79 49.7134 35.65 49.66C35.29 49.5176 35.34 49.3752 35.75 49.3752C36.07 49.3752 36.1 49.393 36.1 49.6422C36.1 49.7935 36.06 49.9092 36 49.9092C35.95 49.9092 35.9 49.8736 35.9 49.838Z" fill="#ADADAD"/>
<path d="M59.26 49.046C59.29 48.957 59.5 48.5565 59.72 48.1561C60.17 47.3284 60.4 47.1594 60.4 47.6399C60.4 47.8535 60.35 47.9514 60.25 47.9514C60.17 47.9514 60.1 48.0315 60.1 48.1294C60.1 48.3429 59.89 48.7523 59.78 48.7523C59.74 48.7523 59.7 48.8502 59.7 48.9748C59.7 49.1528 59.65 49.1972 59.45 49.1972C59.26 49.1972 59.22 49.1616 59.26 49.046Z" fill="#ADADAD"/>
<path d="M97.5 48.7968C97.5 48.6277 97.46 48.4853 97.4 48.4853C97.35 48.4853 97.3 48.3429 97.3 48.1739C97.3 47.6666 97.55 47.7912 97.73 48.3963C97.94 49.0727 97.94 49.1083 97.7 49.1083C97.54 49.1083 97.5 49.046 97.5 48.7968Z" fill="#ADADAD"/>
<path d="M31.9 48.8502C31.9 48.6989 31.96 48.6633 32.26 48.6633C32.54 48.6633 32.61 48.6989 32.58 48.8146C32.56 48.9036 32.43 48.9748 32.22 48.9926C31.95 49.0282 31.9 49.0015 31.9 48.8502Z" fill="#ADADAD"/>
<path d="M65.3 48.8413C65.3 48.6989 65.37 48.6633 65.65 48.6633C66.05 48.6633 66.14 48.8769 65.78 48.9659C65.4 49.0549 65.3 49.0282 65.3 48.8413Z" fill="#ADADAD"/>
<path d="M40.3 48.0849C40.3 47.7022 40.4 47.6933 40.63 48.0315C40.85 48.3696 40.85 48.3963 40.55 48.3963C40.33 48.3963 40.3 48.3607 40.3 48.0849Z" fill="#ADADAD"/>
<path d="M2.5 47.9247C2.5 47.6399 2.75 47.364 3.1 47.2572C3.38 47.1683 3.4 47.1772 3.4 47.3729C3.4 47.5331 3.33 47.6043 3.15 47.6488C2.97 47.6844 2.9 47.7645 2.9 47.9158C2.9 48.0671 2.84 48.1294 2.7 48.1294C2.56 48.1294 2.5 48.0671 2.5 47.9247Z" fill="#ADADAD"/>
<path d="M39.8 47.364C39.8 47.017 39.89 47.0259 40.2 47.4174C40.41 47.6844 40.41 47.6844 40.11 47.6844C39.82 47.6844 39.8 47.6577 39.8 47.364Z" fill="#ADADAD"/>
<path d="M59.1 47.106C59.1 46.8212 59.12 46.7945 59.4 46.7945C59.7 46.7945 59.7 46.7945 59.48 47.106C59.19 47.4975 59.1 47.4975 59.1 47.106Z" fill="#ADADAD"/>
<path d="M60.6 46.9725C60.91 46.5809 61 46.572 61 46.9191C61 47.2128 60.98 47.2394 60.69 47.2394C60.39 47.2394 60.39 47.2394 60.6 46.9725Z" fill="#ADADAD"/>
<path d="M95.3 46.6699C95.3 46.4652 95.32 46.4563 95.65 46.5542C95.84 46.6076 96 46.6966 96 46.7678C96 46.839 95.87 46.8835 95.65 46.8835C95.35 46.8835 95.3 46.8568 95.3 46.6699Z" fill="#ADADAD"/>
<path d="M4.62 46.6877C4.65 46.6254 4.81 46.5275 4.98 46.4652C5.29 46.3495 5.3 46.3584 5.3 46.572C5.3 46.7678 5.26 46.7945 4.94 46.7945C4.71 46.7945 4.6 46.7589 4.62 46.6877Z" fill="#ADADAD"/>
<path d="M47.8 46.4385C47.8 46.2517 47.9 46.225 48.28 46.3139C48.64 46.4029 48.55 46.6165 48.15 46.6165C47.87 46.6165 47.8 46.5809 47.8 46.4385Z" fill="#ADADAD"/>
<path d="M59.82 46.2872C59.85 45.9758 59.88 45.9491 60.17 45.9224C60.45 45.8957 60.49 45.8601 60.52 45.6109C60.55 45.3617 60.59 45.3261 60.88 45.2994C61.14 45.2727 61.2 45.2372 61.2 45.0503C61.2 44.8634 61.24 44.8367 61.57 44.8367C61.94 44.8367 61.94 44.8367 61.6 45.1304C61.41 45.2905 61.07 45.5486 60.84 45.6999C60.62 45.8601 60.32 46.1271 60.19 46.305C59.88 46.7055 59.78 46.6966 59.82 46.2872Z" fill="#ADADAD"/>
<path d="M94.2 46.305C94.2 46.216 94.09 46.1716 93.85 46.1716C93.61 46.1716 93.5 46.1271 93.5 46.0381C93.5 45.9491 93.39 45.9046 93.15 45.9046C92.84 45.9046 92.8 45.8779 92.8 45.6821C92.8 45.4151 92.75 45.4062 94.21 45.9847C94.46 46.0915 94.72 46.1716 94.78 46.1716C94.85 46.1716 94.9 46.2338 94.9 46.305C94.9 46.394 94.79 46.4385 94.55 46.4385C94.31 46.4385 94.2 46.394 94.2 46.305Z" fill="#ADADAD"/>
<path d="M5.72 46.2428C5.75 46.1805 5.91 46.0826 6.08 46.0203C6.39 45.9046 6.4 45.9135 6.4 46.1271C6.4 46.3229 6.36 46.3495 6.04 46.3495C5.81 46.3495 5.7 46.314 5.72 46.2428Z" fill="#ADADAD"/>
<path d="M61.3 46.3228C61.3 46.305 61.46 46.1716 61.65 46.0203C62 45.7444 62 45.7444 62 46.047C62 46.3317 61.98 46.3495 61.65 46.3495C61.46 46.3495 61.3 46.3406 61.3 46.3228Z" fill="#ADADAD"/>
<path d="M3.5 46.0381C3.5 45.8423 3.54 45.8156 3.86 45.8156C4.3 45.8156 4.28 45.9758 3.82 46.1449C3.51 46.2606 3.5 46.2517 3.5 46.0381Z" fill="#ADADAD"/>
<path d="M96.58 46.1983C96.31 46.136 96.36 45.9046 96.64 45.9046C96.79 45.9046 96.9 45.9669 96.93 46.0826C96.98 46.2606 96.92 46.2783 96.58 46.1983Z" fill="#ADADAD"/>
<path d="M53.12 45.9758C53.15 45.9135 53.31 45.8156 53.48 45.7533C53.79 45.6376 53.8 45.6465 53.8 45.8601C53.8 46.0559 53.76 46.0826 53.44 46.0826C53.21 46.0826 53.1 46.047 53.12 45.9758Z" fill="#ADADAD"/>
<path d="M39.6 45.7266C39.25 45.4685 39.25 45.4685 39.63 45.4596C39.98 45.4596 40 45.4774 40 45.7266C40 45.8779 39.99 45.9936 39.97 45.9936C39.96 45.9936 39.79 45.8779 39.6 45.7266Z" fill="#ADADAD"/>
<path d="M95.43 45.7088C94.98 45.5753 95 45.3706 95.45 45.3706C95.76 45.3706 95.8 45.3973 95.8 45.5931C95.8 45.7177 95.79 45.8156 95.78 45.8067C95.76 45.7978 95.6 45.7533 95.43 45.7088Z" fill="#ADADAD"/>
<path d="M48.18 45.5753C47.85 45.5041 47.98 45.2816 48.35 45.2816C48.63 45.2816 48.7 45.3172 48.7 45.4596C48.7 45.6376 48.56 45.6643 48.18 45.5753Z" fill="#ADADAD"/>
<path d="M50.6 45.4596C50.6 45.3172 50.67 45.2816 50.95 45.2816C51.35 45.2816 51.44 45.4952 51.08 45.5842C50.7 45.6732 50.6 45.6465 50.6 45.4596Z" fill="#ADADAD"/>
<path d="M91.6 45.3706C91.6 45.3261 91.49 45.2816 91.35 45.2816C91.15 45.2816 91.1 45.2372 91.1 45.0592C91.1 44.8367 91.1 44.8367 91.62 45.0236C92.25 45.2461 92.3 45.2727 92.3 45.3795C92.3 45.424 92.14 45.4596 91.95 45.4596C91.76 45.4596 91.6 45.424 91.6 45.3706Z" fill="#ADADAD"/>
<path d="M94.7 45.3973C94.55 45.3528 94.41 45.2994 93.5 44.9435C93.25 44.8456 92.88 44.7032 92.68 44.632C92.2 44.454 92.19 44.3027 92.65 44.3027C92.84 44.3027 93 44.3472 93 44.3917C93 44.4451 93.11 44.4807 93.25 44.4807C93.41 44.4807 93.5 44.5341 93.5 44.6142C93.5 44.7032 93.61 44.7477 93.85 44.7477C94.09 44.7477 94.2 44.7922 94.2 44.8812C94.2 44.9702 94.31 45.0147 94.55 45.0147C94.86 45.0147 94.9 45.0414 94.9 45.2372C94.9 45.3617 94.89 45.4596 94.88 45.4507C94.86 45.4507 94.78 45.424 94.7 45.3973Z" fill="#ADADAD"/>
<path d="M38.68 45.077C38.07 44.7032 38.01 44.5697 38.45 44.5697C38.69 44.5697 38.8 44.6142 38.8 44.7032C38.8 44.7744 38.89 44.8367 39 44.8367C39.16 44.8367 39.2 44.899 39.2 45.1037C39.2 45.255 39.19 45.3706 39.18 45.3617C39.16 45.3617 38.94 45.2283 38.68 45.077Z" fill="#ADADAD"/>
<path d="M8.62 45.1749C8.65 45.1126 8.81 45.0147 8.98 44.9524C9.29 44.8367 9.3 44.8456 9.3 45.0592C9.3 45.255 9.26 45.2817 8.94 45.2817C8.71 45.2817 8.6 45.2461 8.62 45.1749Z" fill="#ADADAD"/>
<path d="M96.1 44.8812C96.1 44.4985 96.24 44.4807 96.45 44.8367C96.65 45.1749 96.64 45.1927 96.35 45.1927C96.13 45.1927 96.1 45.1571 96.1 44.8812Z" fill="#ADADAD"/>
<path d="M36.1 44.6587C36.1 44.3739 36.18 44.3739 36.63 44.6854C36.88 44.8723 36.84 44.9257 36.45 44.9257C36.13 44.9257 36.1 44.9079 36.1 44.6587Z" fill="#ADADAD"/>
<path d="M63.6 44.8634C63.6 44.8189 63.76 44.7032 63.95 44.5875C64.3 44.3917 64.3 44.3917 64.3 44.6587C64.3 44.9079 64.27 44.9257 63.95 44.9257C63.76 44.9257 63.6 44.899 63.6 44.8634Z" fill="#ADADAD"/>
<path d="M89.8 44.6142C89.8 44.3561 89.82 44.3472 90.2 44.5252C90.6 44.7121 90.58 44.8367 90.15 44.8367C89.84 44.8367 89.8 44.81 89.8 44.6142Z" fill="#ADADAD"/>
<path d="M7.9 44.3472C7.9 44.1693 7.95 44.1248 8.15 44.1248C8.29 44.1248 8.4 44.0892 8.4 44.0358C8.4 43.9913 8.51 43.9468 8.65 43.9468C8.79 43.9468 8.9 43.9112 8.9 43.8578C8.9 43.8133 9.06 43.7688 9.25 43.7688C9.7 43.7688 9.7 43.9201 9.25 44.0892C7.9 44.5875 7.9 44.5875 7.9 44.3472Z" fill="#ADADAD"/>
<path d="M11 44.3917C11 44.3206 11.51 44.0358 11.65 44.0358C11.68 44.0358 11.7 44.1337 11.7 44.2583C11.7 44.454 11.66 44.4807 11.35 44.4807C11.16 44.4807 11 44.4451 11 44.3917Z" fill="#ADADAD"/>
<path d="M54.7 44.1693C54.7 44.0269 54.76 43.9468 54.85 43.9468C54.93 43.9468 55 43.9112 55 43.8578C55 43.8133 55.16 43.7688 55.35 43.7688C55.79 43.7688 55.74 43.9379 55.21 44.196C54.72 44.4451 54.7 44.4362 54.7 44.1693Z" fill="#ADADAD"/>
<path d="M88 44.2405C87.75 44.1604 87.54 44.0625 87.52 44.0269C87.5 43.9824 87.35 43.9468 87.19 43.9468C86.97 43.9468 86.9 43.9023 86.9 43.7688C86.9 43.662 86.97 43.5908 87.07 43.5908C87.3 43.5908 88.81 44.0358 88.98 44.1515C89.35 44.4184 88.75 44.4718 88 44.2405Z" fill="#ADADAD"/>
<path d="M4.8 44.2316C4.8 44.1604 5.32 43.8578 5.44 43.8578C5.47 43.8578 5.5 43.9557 5.5 44.0803C5.5 44.2761 5.46 44.3028 5.15 44.3028C4.96 44.3028 4.8 44.2672 4.8 44.2316Z" fill="#ADADAD"/>
<path d="M43.23 44.0981C42.81 43.8489 42.82 43.7688 43.25 43.7688C43.57 43.7688 43.6 43.7866 43.6 44.0358C43.6 44.1871 43.59 44.3028 43.58 44.2939C43.56 44.2939 43.4 44.2049 43.23 44.0981Z" fill="#ADADAD"/>
<path d="M65.2 44.0981C65.2 44.0447 65.39 43.929 65.63 43.8489C65.86 43.7688 66.29 43.6175 66.58 43.5196C67.1 43.3239 67.1 43.3239 67.1 43.5463C67.1 43.7243 67.05 43.7688 66.85 43.7688C66.71 43.7688 66.6 43.8133 66.6 43.8578C66.6 43.9112 66.44 43.9468 66.25 43.9468C66.01 43.9468 65.9 43.9913 65.9 44.0803C65.9 44.1693 65.79 44.2138 65.55 44.2138C65.34 44.2138 65.2 44.1693 65.2 44.0981Z" fill="#ADADAD"/>
<path d="M91.25 44.1515C90.73 44.0358 90.66 43.7688 91.15 43.7688C91.46 43.7688 91.5 43.7955 91.5 43.9913C91.5 44.1159 91.49 44.2049 91.48 44.2049C91.46 44.196 91.36 44.1693 91.25 44.1515Z" fill="#ADADAD"/>
<path d="M34.3 43.9023C34.3 43.6887 34.31 43.6798 34.62 43.7955C35.08 43.9646 35.1 44.1248 34.66 44.1248C34.34 44.1248 34.3 44.0981 34.3 43.9023Z" fill="#ADADAD"/>
<path d="M12.8 43.8222C12.8 43.6887 13.01 43.5908 13.31 43.5908C13.43 43.5908 13.5 43.6531 13.5 43.7688C13.5 43.9112 13.43 43.9468 13.15 43.9468C12.92 43.9468 12.8 43.9023 12.8 43.8222Z" fill="#ADADAD"/>
<path d="M90.45 43.8845C89.93 43.7688 89.86 43.5018 90.35 43.5018C90.66 43.5018 90.7 43.5285 90.7 43.7243C90.7 43.8489 90.69 43.9379 90.68 43.9379C90.66 43.929 90.56 43.9023 90.45 43.8845Z" fill="#ADADAD"/>
<path d="M63.9 43.5908C63.9 43.3239 64.04 43.2349 64.51 43.2349C64.94 43.2349 64.87 43.4306 64.35 43.6531C63.9 43.8489 63.9 43.8489 63.9 43.5908Z" fill="#ADADAD"/>
<path d="M33.3 43.5463C33.3 43.3328 33.31 43.3239 33.62 43.4395C34.08 43.6086 34.1 43.7688 33.66 43.7688C33.34 43.7688 33.3 43.7421 33.3 43.5463Z" fill="#ADADAD"/>
<path d="M6 43.6086C6 43.5374 6.52 43.2349 6.64 43.2349C6.67 43.2349 6.7 43.3328 6.7 43.4573C6.7 43.6531 6.66 43.6798 6.35 43.6798C6.16 43.6798 6 43.6442 6 43.6086Z" fill="#ADADAD"/>
<path d="M10.8 43.3772C10.8 43.1548 11.01 43.0569 11.53 43.0569C11.95 43.0569 11.81 43.2527 11.27 43.4306C10.8 43.5908 10.8 43.5908 10.8 43.3772Z" fill="#ADADAD"/>
<path d="M85.6 43.4128C85.6 43.2349 85.82 43.1815 86.14 43.2883C86.44 43.395 86.32 43.5908 85.95 43.5908C85.67 43.5908 85.6 43.5552 85.6 43.4128Z" fill="#ADADAD"/>
<path d="M89 43.4217C88.33 43.2349 88 43.0836 88 42.9679C88 42.8344 88.47 42.8611 89.07 43.0302C89.51 43.1548 89.6 43.2171 89.6 43.3861C89.6 43.5018 89.59 43.5908 89.58 43.5819C89.56 43.5819 89.3 43.5107 89 43.4217Z" fill="#ADADAD"/>
<path d="M67.22 43.395C67.26 43.2794 68.17 42.9234 68.55 42.8611C68.69 42.8433 68.76 42.8878 68.78 43.0213C68.8 43.1637 68.71 43.226 68.27 43.3505C67.63 43.5285 67.17 43.5463 67.22 43.395Z" fill="#ADADAD"/>
<path d="M39.7 43.048C39.7 42.781 39.7 42.781 40 42.9679C40.44 43.2438 40.45 43.3238 40.06 43.3238C39.73 43.3238 39.7 43.3061 39.7 43.048Z" fill="#ADADAD"/>
<path d="M58.21 43.0302C58.57 42.7454 58.87 42.5674 59.53 42.2204C60.1 41.9089 60.1 41.9089 60.1 42.1759C60.1 42.4161 60.07 42.4339 59.75 42.4339C59.47 42.4339 59.4 42.4695 59.4 42.6119C59.4 42.7543 59.33 42.7899 59.05 42.7899C58.74 42.7899 58.7 42.8166 58.7 43.0124C58.7 43.2082 58.66 43.2349 58.33 43.2349C57.95 43.226 57.95 43.226 58.21 43.0302Z" fill="#ADADAD"/>
<path d="M65.2 43.0124C65.2 42.8166 65.24 42.7899 65.56 42.7899C66 42.7899 65.98 42.9501 65.52 43.1192C65.21 43.2349 65.2 43.226 65.2 43.0124Z" fill="#ADADAD"/>
<path d="M7.1 43.0747C7.1 43.0035 7.62 42.7009 7.74 42.7009C7.77 42.7009 7.8 42.7988 7.8 42.9234C7.8 43.1192 7.76 43.1459 7.45 43.1459C7.26 43.1459 7.1 43.1103 7.1 43.0747Z" fill="#ADADAD"/>
<path d="M16 43.0302C16 42.959 16.23 42.8522 16.55 42.7721C17.1 42.6386 17.1 42.6386 17.1 42.8344C17.1 42.9857 17.03 43.048 16.79 43.0925C16.29 43.1815 16 43.1548 16 43.0302Z" fill="#ADADAD"/>
<path d="M4.53 42.7721C4.72 42.3628 4.9 42.345 4.9 42.7365C4.9 43.0213 4.87 43.0569 4.65 43.0569C4.41 43.0569 4.4 43.048 4.53 42.7721Z" fill="#ADADAD"/>
<path d="M12.6 42.7899C12.6 42.6475 12.67 42.6119 12.95 42.6119C13.35 42.6119 13.44 42.8255 13.08 42.9145C12.7 43.0035 12.6 42.9768 12.6 42.7899Z" fill="#ADADAD"/>
<path d="M34.13 42.8344C33.7 42.6742 33.71 42.5229 34.15 42.5229C34.46 42.5229 34.5 42.5496 34.5 42.7454C34.5 42.87 34.49 42.9679 34.48 42.9679C34.46 42.959 34.3 42.9056 34.13 42.8344Z" fill="#ADADAD"/>
<path d="M87.23 42.9056C86.95 42.8077 87.1 42.6119 87.45 42.6119C87.73 42.6119 87.8 42.6475 87.8 42.7899C87.8 42.9679 87.54 43.0213 87.23 42.9056Z" fill="#ADADAD"/>
<path d="M40.7 42.5229C40.35 42.2649 40.35 42.2649 40.73 42.256C41.08 42.256 41.1 42.2738 41.1 42.5229C41.1 42.6742 41.09 42.7899 41.07 42.7899C41.06 42.7899 40.89 42.6742 40.7 42.5229Z" fill="#ADADAD"/>
<path d="M82 42.6119C82 42.425 82.1 42.3983 82.48 42.4873C82.84 42.5763 82.75 42.7899 82.35 42.7899C82.07 42.7899 82 42.7543 82 42.6119Z" fill="#ADADAD"/>
<path d="M13.9 42.4339C13.9 42.2916 13.97 42.256 14.25 42.256C14.62 42.256 14.74 42.4517 14.44 42.5585C14.12 42.6653 13.9 42.6119 13.9 42.4339Z" fill="#ADADAD"/>
<path d="M33.01 42.4962C32.62 42.3183 32.63 42.167 33.04 42.167C33.36 42.167 33.4 42.1937 33.4 42.3894C33.4 42.6386 33.35 42.6564 33.01 42.4962Z" fill="#ADADAD"/>
<path d="M67 42.3805C67 42.1937 67.05 42.167 67.35 42.167C67.86 42.167 67.77 42.425 67.23 42.5496C67.04 42.5852 67 42.5585 67 42.3805Z" fill="#ADADAD"/>
<path d="M81 42.434C81 42.2471 81.1 42.2204 81.48 42.3094C81.84 42.3984 81.75 42.6119 81.35 42.6119C81.07 42.6119 81 42.5763 81 42.434Z" fill="#ADADAD"/>
<path d="M85.98 42.5496C85.65 42.4784 85.78 42.256 86.15 42.256C86.43 42.256 86.5 42.2916 86.5 42.4339C86.5 42.6119 86.36 42.6386 85.98 42.5496Z" fill="#ADADAD"/>
<path d="M19.92 42.2827C19.94 42.1937 20.07 42.1225 20.28 42.1047C20.55 42.0691 20.6 42.0958 20.6 42.2471C20.6 42.3983 20.54 42.4339 20.24 42.4339C19.96 42.4339 19.89 42.3983 19.92 42.2827Z" fill="#ADADAD"/>
<path d="M57.7 42.167C57.7 41.9178 57.73 41.9 58.05 41.9C58.46 41.9 58.44 42.0513 58 42.2738C57.7 42.425 57.7 42.425 57.7 42.167Z" fill="#ADADAD"/>
<path d="M21.5 42.1047C21.5 41.989 21.59 41.9356 21.85 41.9267C22.14 41.9 22.2 41.9267 22.2 42.078C22.2 42.2204 22.13 42.256 21.85 42.256C21.58 42.256 21.5 42.2204 21.5 42.1047Z" fill="#ADADAD"/>
<path d="M68.26 42.1937C68.23 42.1581 68.2 42.0602 68.2 41.9712C68.2 41.8466 68.28 41.811 68.55 41.811C68.78 41.811 68.9 41.8555 68.9 41.9356C68.9 42.0691 68.36 42.2827 68.26 42.1937Z" fill="#ADADAD"/>
<path d="M72.72 42.1047C72.74 42.0157 72.87 41.9445 73.08 41.9267C73.35 41.8911 73.4 41.9178 73.4 42.0691C73.4 42.2204 73.34 42.256 73.04 42.256C72.76 42.256 72.69 42.2204 72.72 42.1047Z" fill="#ADADAD"/>
<path d="M78.3 42.078C78.3 41.8911 78.4 41.8644 78.78 41.9534C79.14 42.0424 79.05 42.256 78.65 42.256C78.37 42.256 78.3 42.2204 78.3 42.078Z" fill="#ADADAD"/>
<path d="M22.7 42.0424C22.7 41.9267 22.98 41.811 23.28 41.811C23.34 41.811 23.4 41.8911 23.4 41.989C23.4 42.1314 23.33 42.167 23.05 42.167C22.82 42.167 22.7 42.1225 22.7 42.0424Z" fill="#ADADAD"/>
<path d="M26 41.989C26 41.8021 26.1 41.7754 26.48 41.8644C26.84 41.9534 26.75 42.167 26.35 42.167C26.07 42.167 26 42.1314 26 41.989Z" fill="#ADADAD"/>
<path d="M9.72 41.8822C9.75 41.8199 9.91 41.722 10.08 41.6597C10.39 41.544 10.4 41.5529 10.4 41.7665C10.4 41.9623 10.36 41.989 10.04 41.989C9.81 41.989 9.7 41.9534 9.72 41.8822Z" fill="#ADADAD"/>
<path d="M94.78 41.8911C94.66 41.8377 94.6 41.6953 94.6 41.4995C94.6 41.286 94.55 41.1881 94.45 41.1881C94.35 41.1881 94.3 41.0902 94.3 40.8766C94.3 40.4406 94.47 40.485 94.71 40.9923C94.82 41.2237 94.98 41.5262 95.06 41.6686C95.14 41.811 95.2 41.9445 95.2 41.9623C95.2 42.0246 94.95 41.9801 94.78 41.8911Z" fill="#ADADAD"/>
<path d="M69.2 41.722C69.2 41.5796 69.27 41.544 69.55 41.544C69.95 41.544 70.04 41.7576 69.68 41.8466C69.3 41.9356 69.2 41.9089 69.2 41.722Z" fill="#ADADAD"/>
<path d="M91.3 41.6775C91.3 41.4195 91.32 41.4106 91.7 41.5885C92.1 41.7754 92.08 41.9 91.65 41.9C91.34 41.9 91.3 41.8733 91.3 41.6775Z" fill="#ADADAD"/>
<path d="M82.38 41.7487C82.05 41.6775 82.18 41.455 82.55 41.455C82.83 41.455 82.9 41.4906 82.9 41.633C82.9 41.811 82.76 41.8377 82.38 41.7487Z" fill="#ADADAD"/>
<path d="M8 41.4995C8 41.3038 8.04 41.2771 8.36 41.2771C8.8 41.2771 8.78 41.4372 8.32 41.6063C8.01 41.722 8 41.7131 8 41.4995Z" fill="#ADADAD"/>
<path d="M29.58 41.5707C29.25 41.4995 29.38 41.2771 29.75 41.2771C30.03 41.2771 30.1 41.3127 30.1 41.455C30.1 41.633 29.96 41.6597 29.58 41.5707Z" fill="#ADADAD"/>
<path d="M28.68 41.3928C28.35 41.3216 28.48 41.0991 28.85 41.0991C29.13 41.0991 29.2 41.1347 29.2 41.2771C29.2 41.455 29.06 41.4817 28.68 41.3928Z" fill="#ADADAD"/>
<path d="M59.5 41.1436C59.5 40.9478 59.54 40.9211 59.85 40.9211C60.28 40.9211 60.29 41.0101 59.91 41.2148C59.53 41.4106 59.5 41.4106 59.5 41.1436Z" fill="#ADADAD"/>
<path d="M71.8 41.197C71.8 41.0457 71.86 41.0101 72.16 41.0101C72.44 41.0101 72.51 41.0457 72.48 41.1614C72.46 41.2504 72.33 41.3216 72.12 41.3394C71.85 41.375 71.8 41.3483 71.8 41.197Z" fill="#ADADAD"/>
<path d="M89.1 41.0991C89.1 40.9122 89.2 40.8855 89.58 40.9745C89.94 41.0635 89.85 41.2771 89.45 41.2771C89.17 41.2771 89.1 41.2415 89.1 41.0991Z" fill="#ADADAD"/>
<path d="M26.3 40.9923C26.3 40.8677 26.38 40.8321 26.65 40.8321C26.93 40.8321 27 40.8677 27 41.0101C27 41.1614 26.94 41.1881 26.65 41.1614C26.39 41.1525 26.3 41.0991 26.3 40.9923Z" fill="#ADADAD"/>
<path d="M77.58 41.1258C77.25 41.0546 77.38 40.8321 77.75 40.8321C78.03 40.8321 78.1 40.8677 78.1 41.0101C78.1 41.1881 77.96 41.2148 77.58 41.1258Z" fill="#ADADAD"/>
<path d="M91.68 40.8677C91.14 40.7164 90.9 40.6007 90.9 40.5028C90.9 40.3872 90.99 40.3694 91.37 40.4139C91.63 40.4406 91.86 40.5029 91.88 40.5562C91.9 40.6096 92.05 40.6541 92.21 40.6541C92.45 40.6541 92.5 40.6897 92.5 40.8766C92.5 41.0012 92.49 41.0991 92.48 41.0991C92.46 41.0902 92.1 40.9923 91.68 40.8677Z" fill="#ADADAD"/>
<path d="M60.3 40.7787C60.3 40.5918 60.35 40.5651 60.65 40.5651C60.87 40.5651 61 40.6096 61 40.6808C61 40.752 60.84 40.841 60.65 40.8944C60.32 40.9923 60.3 40.9834 60.3 40.7787Z" fill="#ADADAD"/>
<path d="M88 40.8321C88 40.6452 88.1 40.6185 88.48 40.7075C88.84 40.7965 88.75 41.0101 88.35 41.0101C88.07 41.0101 88 40.9745 88 40.8321Z" fill="#ADADAD"/>
<path d="M63.8 40.6986C63.8 40.6274 63.92 40.5474 64.08 40.5118C64.23 40.4851 64.45 40.4228 64.58 40.3783C64.96 40.2448 65.2 40.2804 65.2 40.4762C65.2 40.6185 65.13 40.6541 64.85 40.6541C64.66 40.6541 64.5 40.6986 64.5 40.7431C64.5 40.7965 64.34 40.8321 64.15 40.8321C63.91 40.8321 63.8 40.7876 63.8 40.6986Z" fill="#ADADAD"/>
<path d="M87.03 40.7698C86.88 40.7431 86.8 40.663 86.8 40.5562C86.8 40.3605 86.86 40.3516 87.46 40.485C88.28 40.6719 87.9 40.9211 87.03 40.7698Z" fill="#ADADAD"/>
<path d="M5.73 40.2537C5.79 40.0846 5.89 39.9422 5.97 39.9422C6.05 39.9422 6.1 40.0579 6.1 40.2537C6.1 40.5206 6.07 40.5651 5.86 40.5651C5.63 40.5651 5.62 40.5473 5.73 40.2537Z" fill="#ADADAD"/>
<path d="M13.6 40.4761C13.6 40.405 14.11 40.1202 14.25 40.1202C14.28 40.1202 14.3 40.2181 14.3 40.3427C14.3 40.5384 14.26 40.5651 13.95 40.5651C13.76 40.5651 13.6 40.5295 13.6 40.4761Z" fill="#ADADAD"/>
<path d="M34.6 40.3427C34.6 40.1291 34.61 40.1202 34.92 40.2359C35.38 40.405 35.4 40.5651 34.96 40.5651C34.64 40.5651 34.6 40.5384 34.6 40.3427Z" fill="#ADADAD"/>
<path d="M84.3 40.1202C84.3 39.9333 84.4 39.9066 84.78 39.9956C85.14 40.0846 85.05 40.2982 84.65 40.2982C84.37 40.2982 84.3 40.2626 84.3 40.1202Z" fill="#ADADAD"/>
<path d="M93.8 39.8888C93.8 39.4972 93.98 39.515 94.17 39.9244C94.3 40.2003 94.29 40.2092 94.05 40.2092C93.83 40.2092 93.8 40.1736 93.8 39.8888Z" fill="#ADADAD"/>
<path d="M33.4 39.8977C33.4 39.6841 33.41 39.6752 33.72 39.7909C34.18 39.96 34.2 40.1202 33.76 40.1202C33.44 40.1202 33.4 40.0935 33.4 39.8977Z" fill="#ADADAD"/>
<path d="M15.7 39.8176C15.7 39.6841 15.91 39.5862 16.21 39.5862C16.33 39.5862 16.4 39.6485 16.4 39.7642C16.4 39.9066 16.33 39.9422 16.05 39.9422C15.82 39.9422 15.7 39.8977 15.7 39.8176Z" fill="#ADADAD"/>
<path d="M69.22 39.7019C69.24 39.6129 69.37 39.5417 69.58 39.5239C69.85 39.4884 69.9 39.5151 69.9 39.6663C69.9 39.8176 69.84 39.8532 69.54 39.8532C69.26 39.8532 69.19 39.8176 69.22 39.7019Z" fill="#ADADAD"/>
<path d="M80.8 39.6752C80.8 39.4884 80.9 39.4617 81.28 39.5506C81.64 39.6396 81.55 39.8532 81.15 39.8532C80.87 39.8532 80.8 39.8176 80.8 39.6752Z" fill="#ADADAD"/>
<path d="M87.58 39.7909C87.25 39.7197 87.38 39.4973 87.75 39.4973C88.03 39.4973 88.1 39.5328 88.1 39.6752C88.1 39.8532 87.96 39.8799 87.58 39.7909Z" fill="#ADADAD"/>
<path d="M13.1 39.5418C13.1 39.346 13.14 39.3193 13.45 39.3193C13.88 39.3193 13.9 39.4439 13.5 39.6307C13.12 39.8087 13.1 39.7998 13.1 39.5418Z" fill="#ADADAD"/>
<path d="M16.8 39.5506C16.8 39.4172 17.01 39.3193 17.31 39.3193C17.43 39.3193 17.5 39.3816 17.5 39.4973C17.5 39.6396 17.43 39.6752 17.15 39.6752C16.92 39.6752 16.8 39.6307 16.8 39.5506Z" fill="#ADADAD"/>
<path d="M32 39.5862C32 39.5417 31.84 39.4972 31.65 39.4972C31.37 39.4972 31.3 39.4617 31.3 39.3193C31.3 39.1057 31.34 39.1057 32.1 39.2926C32.78 39.4528 32.92 39.6752 32.35 39.6752C32.16 39.6752 32 39.6396 32 39.5862Z" fill="#ADADAD"/>
<path d="M78.7 39.4973C78.7 39.3104 78.8 39.2837 79.18 39.3727C79.54 39.4617 79.45 39.6752 79.05 39.6752C78.77 39.6752 78.7 39.6396 78.7 39.4973Z" fill="#ADADAD"/>
<path d="M86.68 39.6129C86.35 39.5418 86.48 39.3193 86.85 39.3193C87.13 39.3193 87.2 39.3549 87.2 39.4973C87.2 39.6752 87.06 39.7019 86.68 39.6129Z" fill="#ADADAD"/>
<path d="M73.2 39.4616C73.2 39.346 73.48 39.2303 73.78 39.2303C73.84 39.2303 73.9 39.3104 73.9 39.4083C73.9 39.5506 73.83 39.5862 73.55 39.5862C73.32 39.5862 73.2 39.5417 73.2 39.4616Z" fill="#ADADAD"/>
<path d="M76.6 39.4083C76.6 39.2214 76.7 39.1947 77.08 39.2837C77.44 39.3727 77.35 39.5862 76.95 39.5862C76.67 39.5862 76.6 39.5506 76.6 39.4083Z" fill="#ADADAD"/>
<path d="M13.9 39.2659C13.9 39.079 13.95 39.0523 14.25 39.0523C14.47 39.0523 14.6 39.0968 14.6 39.168C14.6 39.2392 14.44 39.3282 14.25 39.3816C13.92 39.4794 13.9 39.4706 13.9 39.2659Z" fill="#ADADAD"/>
<path d="M34.23 39.1858C33.8 39.0256 33.81 38.8743 34.25 38.8743C34.56 38.8743 34.6 38.901 34.6 39.0968C34.6 39.2214 34.59 39.3193 34.58 39.3193C34.56 39.3104 34.4 39.257 34.23 39.1858Z" fill="#ADADAD"/>
<path d="M19 39.1057C19 38.99 19.28 38.8743 19.58 38.8743C19.64 38.8743 19.7 38.9544 19.7 39.0523C19.7 39.1947 19.63 39.2303 19.35 39.2303C19.12 39.2303 19 39.1858 19 39.1057Z" fill="#ADADAD"/>
<path d="M84.25 39.1858C84.2 39.168 83.98 39.1324 83.78 39.0968C83.54 39.0612 83.4 38.9989 83.4 38.9188C83.4 38.7675 83.55 38.7586 84.24 38.8387C84.6 38.8832 84.7 38.9366 84.7 39.0612C84.7 39.2214 84.52 39.2659 84.25 39.1858Z" fill="#ADADAD"/>
<path d="M6.51 38.812C6.68 38.4027 7.13 37.7174 7.22 37.7174C7.38 37.7174 7.3 38.2514 7.08 38.6518C6.91 38.9544 6.8 39.0523 6.63 39.0523C6.43 39.0523 6.41 39.0256 6.51 38.812Z" fill="#ADADAD"/>
<path d="M15.2 38.8743C15.2 38.7319 15.27 38.6963 15.55 38.6963C15.92 38.6963 16.04 38.8921 15.74 38.9989C15.42 39.1057 15.2 39.0523 15.2 38.8743Z" fill="#ADADAD"/>
<path d="M29.1 38.8743C29.1 38.6874 29.2 38.6607 29.58 38.7497C29.94 38.8387 29.85 39.0523 29.45 39.0523C29.17 39.0523 29.1 39.0167 29.1 38.8743Z" fill="#ADADAD"/>
<path d="M33.4 38.9188C33.21 38.8565 32.93 38.7764 32.78 38.7497C32.36 38.6696 32.42 38.4294 32.85 38.4294C33.04 38.4294 33.2 38.4739 33.2 38.5184C33.2 38.5717 33.34 38.6073 33.5 38.6073C33.75 38.6073 33.8 38.6429 33.8 38.8298C33.8 38.9544 33.79 39.0523 33.78 39.0434C33.76 39.0434 33.59 38.99 33.4 38.9188Z" fill="#ADADAD"/>
<path d="M20.8 38.8387C20.8 38.7052 20.99 38.6518 21.73 38.5628C22.15 38.5094 22.2 38.5183 22.2 38.6785C22.2 38.8209 22.11 38.8565 21.68 38.9099C20.92 38.99 20.8 38.9811 20.8 38.8387Z" fill="#ADADAD"/>
<path d="M26.8 38.6073C26.8 38.4205 26.9 38.3938 27.28 38.4828C27.64 38.5717 27.55 38.7853 27.15 38.7853C26.87 38.7853 26.8 38.7497 26.8 38.6073Z" fill="#ADADAD"/>
<path d="M80.38 38.723C80.05 38.6518 80.18 38.4294 80.55 38.4294C80.83 38.4294 80.9 38.465 80.9 38.6073C80.9 38.7853 80.76 38.812 80.38 38.723Z" fill="#ADADAD"/>
<path d="M79.28 38.634C78.95 38.5628 79.08 38.3404 79.45 38.3404C79.73 38.3404 79.8 38.376 79.8 38.5184C79.8 38.6963 79.66 38.723 79.28 38.634Z" fill="#ADADAD"/>
<path d="M72.5 38.4294C72.5 38.287 72.57 38.2514 72.85 38.2514C73.25 38.2514 73.34 38.465 72.98 38.554C72.6 38.6429 72.5 38.6162 72.5 38.4294Z" fill="#ADADAD"/>
<path d="M77.48 38.545C77.15 38.4739 77.28 38.2514 77.65 38.2514C77.93 38.2514 78 38.287 78 38.4294C78 38.6073 77.86 38.634 77.48 38.545Z" fill="#ADADAD"/>
<path d="M31.23 38.3671C30.95 38.2692 31.1 38.0734 31.45 38.0734C31.73 38.0734 31.8 38.109 31.8 38.2514C31.8 38.4294 31.54 38.4828 31.23 38.3671Z" fill="#ADADAD"/>
<path d="M18.3 38.1624C18.3 38.02 18.37 37.9844 18.65 37.9844C19.05 37.9844 19.14 38.198 18.78 38.287C18.4 38.376 18.3 38.3493 18.3 38.1624Z" fill="#ADADAD"/>
<path d="M21.2 37.7174C21.2 37.575 21.27 37.5395 21.55 37.5395C21.95 37.5395 22.04 37.753 21.68 37.842C21.3 37.931 21.2 37.9043 21.2 37.7174Z" fill="#ADADAD"/>
<path d="M27.1 37.6106C27.1 37.486 27.18 37.4505 27.45 37.4505C27.73 37.4505 27.8 37.4861 27.8 37.6284C27.8 37.7797 27.74 37.8064 27.45 37.7797C27.19 37.7708 27.1 37.7174 27.1 37.6106Z" fill="#ADADAD"/>
<path d="M23.7 37.5394C23.7 37.3971 23.77 37.3615 24.05 37.3615C24.45 37.3615 24.54 37.575 24.18 37.664C23.8 37.753 23.7 37.7263 23.7 37.5394Z" fill="#ADADAD"/>
<path d="M25.38 37.6551C25.05 37.5839 25.18 37.3615 25.55 37.3615C25.83 37.3615 25.9 37.3971 25.9 37.5394C25.9 37.7174 25.76 37.7441 25.38 37.6551Z" fill="#ADADAD"/>
<path d="M92.1 36.872C92.1 36.4894 92.2 36.4805 92.43 36.8186C92.65 37.1568 92.65 37.1835 92.35 37.1835C92.13 37.1835 92.1 37.1479 92.1 36.872Z" fill="#ADADAD"/>
<path d="M7.8 36.5962C7.8 36.4894 8.14 36.0266 8.22 36.0266C8.26 36.0266 8.3 36.169 8.3 36.3381C8.3 36.614 8.27 36.6495 8.05 36.6495C7.91 36.6495 7.8 36.6229 7.8 36.5962Z" fill="#ADADAD"/>
<path d="M8.42 35.5372C8.71 35.1456 8.8 35.1456 8.8 35.5372C8.8 35.8219 8.78 35.8486 8.5 35.8486C8.2 35.8486 8.2 35.8486 8.42 35.5372Z" fill="#ADADAD"/>
<path d="M91.1 35.2702C91.1 34.8875 91.2 34.8786 91.43 35.2168C91.65 35.555 91.65 35.5817 91.35 35.5817C91.13 35.5817 91.1 35.5461 91.1 35.2702Z" fill="#ADADAD"/>
<path d="M11.38 31.3101C11.63 30.9185 11.8 30.9007 11.8 31.2656C11.8 31.5504 11.78 31.5771 11.5 31.5771C11.21 31.5771 11.21 31.5771 11.38 31.3101Z" fill="#ADADAD"/>
<path d="M10.96 30.2244C10.87 29.904 10.88 29.8862 11.2 29.8862C11.49 29.8862 11.49 29.8862 11.32 30.1532C11.12 30.4736 11.04 30.4825 10.96 30.2244Z" fill="#ADADAD"/>
<path d="M12.4 30.0464C12.58 29.8328 12.82 29.5303 12.93 29.379C13.21 29.0052 13.3 29.0141 13.3 29.3968C13.3 29.6104 13.25 29.7083 13.15 29.7083C13.07 29.7083 13 29.7883 13 29.8862C13 29.9841 12.93 30.0642 12.85 30.0642C12.77 30.0642 12.7 30.1443 12.7 30.2422C12.7 30.3846 12.63 30.4202 12.39 30.4202C12.08 30.4202 12.08 30.4202 12.4 30.0464Z" fill="#ADADAD"/>
<path d="M88.16 29.379C88.12 29.2989 88.12 29.0586 88.16 28.845C88.21 28.5514 88.27 28.4624 88.41 28.4624C88.63 28.4624 88.63 28.4891 88.49 29.0853C88.38 29.5392 88.27 29.646 88.16 29.379Z" fill="#ADADAD"/>
<path d="M12.1 28.8006C12.1 28.5247 12.13 28.4624 12.3 28.4624C12.45 28.4624 12.5 28.4001 12.5 28.2399C12.5 28.053 12.55 28.0174 12.81 28.0174C13.11 28.0174 13.11 28.0174 12.91 28.2666C12.8 28.4001 12.58 28.6493 12.41 28.8184C12.11 29.1298 12.11 29.1298 12.1 28.8006Z" fill="#ADADAD"/>
<path d="M87.58 28.7294C87.3 28.4179 87.3 28.4179 87.56 28.3912C87.89 28.3556 87.92 28.3823 87.88 28.7383C87.85 29.0408 87.85 29.0408 87.58 28.7294Z" fill="#ADADAD"/>
<path d="M85.4 27.8839C85.4 27.5992 85.38 27.5725 85.1 27.5725C84.82 27.5725 84.8 27.5547 84.8 27.2432C84.8 26.905 84.8 26.905 85.18 27.2788C85.79 27.8839 86 28.1064 86 28.1509C86 28.1776 85.87 28.1954 85.7 28.1954C85.42 28.1954 85.4 28.1687 85.4 27.8839Z" fill="#ADADAD"/>
<path d="M86.68 27.7505C86.4 27.439 86.4 27.439 86.66 27.4123C86.99 27.3767 87.02 27.4034 86.98 27.7594C86.95 28.0619 86.95 28.0619 86.68 27.7505Z" fill="#ADADAD"/>
<path d="M14.63 27.528C14.8 27.3589 14.95 27.2165 14.97 27.2165C14.99 27.2165 15 27.3589 15 27.528C15 27.8217 14.98 27.8395 14.66 27.8395C14.32 27.8395 14.32 27.8395 14.63 27.528Z" fill="#ADADAD"/>
<path d="M88.6 26.994C88.6 26.7449 88.64 26.6826 88.8 26.6826C89.01 26.6826 89.04 26.7716 88.94 27.1097C88.84 27.4301 88.6 27.35 88.6 26.994Z" fill="#ADADAD"/>
<path d="M15.4 26.7716C15.71 26.38 15.8 26.3711 15.8 26.7182C15.8 27.0118 15.78 27.0385 15.49 27.0385C15.19 27.0385 15.19 27.0385 15.4 26.7716Z" fill="#ADADAD"/>
<path d="M83.67 26.4423C83.63 26.4156 83.6 26.2732 83.6 26.1308C83.6 25.8817 83.6 25.8817 83.85 26.024C83.99 26.1041 84.15 26.2465 84.21 26.3355C84.29 26.4868 84.27 26.5046 84.02 26.5046C83.86 26.5046 83.7 26.4779 83.67 26.4423Z" fill="#ADADAD"/>
<path d="M14.8 25.935C14.8 25.6414 14.82 25.6147 15.11 25.6147C15.41 25.6147 15.41 25.6147 15.2 25.8817C14.89 26.2732 14.8 26.2821 14.8 25.935Z" fill="#ADADAD"/>
<path d="M16.85 25.4367C16.88 25.3922 17.04 25.2676 17.2 25.1697C17.5 24.9828 17.5 24.9828 17.5 25.2498C17.5 25.5079 17.47 25.5257 17.14 25.5257C16.94 25.5257 16.81 25.4901 16.85 25.4367Z" fill="#ADADAD"/>
<path d="M19.77 23.2119C19.95 23.0606 20.11 22.945 20.14 22.945C20.18 22.945 20.2 23.0695 20.2 23.2119C20.2 23.4611 20.18 23.4789 19.83 23.4789C19.45 23.4789 19.45 23.4789 19.77 23.2119Z" fill="#ADADAD"/>
<path d="M18.3 23.0428C18.3 22.7848 18.33 22.767 18.66 22.767C19.05 22.767 19.04 22.8471 18.6 23.1229C18.3 23.3098 18.3 23.3098 18.3 23.0428Z" fill="#ADADAD"/>
<path d="M79.2 22.7581C79.2 22.4911 79.2 22.4911 79.5 22.678C79.94 22.9539 79.95 23.0339 79.56 23.0339C79.23 23.0339 79.2 23.0161 79.2 22.7581Z" fill="#ADADAD"/>
<path d="M89.5 22.7225C89.5 22.4733 89.54 22.411 89.7 22.411C89.91 22.411 89.94 22.5 89.84 22.8382C89.74 23.1585 89.5 23.0784 89.5 22.7225Z" fill="#ADADAD"/>
<path d="M79.88 22.0728C79.46 21.8415 79.45 21.6991 79.85 21.6991C80.17 21.6991 80.2 21.7169 80.2 21.9661C80.2 22.1173 80.19 22.233 80.18 22.2241C80.16 22.2241 80.03 22.1529 79.88 22.0728Z" fill="#ADADAD"/>
<path d="M77.3 21.6546C77.3 21.3876 77.46 21.3787 77.78 21.6012C78.08 21.8326 78.06 21.8771 77.65 21.8771C77.34 21.8771 77.3 21.8504 77.3 21.6546Z" fill="#ADADAD"/>
<path d="M22.7 21.4677C22.7 21.3787 23.14 21.085 23.28 21.0761C23.34 21.0761 23.4 21.174 23.4 21.2986C23.4 21.4944 23.36 21.5211 23.05 21.5211C22.86 21.5211 22.7 21.4944 22.7 21.4677Z" fill="#ADADAD"/>
<path d="M23.7 20.9338C23.7 20.8448 24.14 20.5511 24.28 20.5422C24.34 20.5422 24.4 20.6401 24.4 20.7647C24.4 20.9605 24.36 20.9872 24.05 20.9872C23.86 20.9872 23.7 20.9605 23.7 20.9338Z" fill="#ADADAD"/>
<path d="M75.5 20.6312C75.5 20.3642 75.5 20.3642 75.85 20.56C76.29 20.8181 76.29 20.8982 75.85 20.8982C75.53 20.8982 75.5 20.8804 75.5 20.6312Z" fill="#ADADAD"/>
<path d="M90 20.0528C90 19.8036 90.04 19.7413 90.2 19.7413C90.41 19.7413 90.44 19.8303 90.34 20.1684C90.24 20.4888 90 20.4087 90 20.0528Z" fill="#ADADAD"/>
<path d="M74 19.9638C74 19.6968 74.03 19.6968 74.41 19.8926C74.79 20.0973 74.78 20.1862 74.35 20.1862C74.04 20.1862 74 20.1595 74 19.9638Z" fill="#ADADAD"/>
<path d="M72.4 19.2518C72.4 19.0383 72.41 19.0294 72.72 19.1451C73.18 19.3141 73.2 19.4743 72.76 19.4743C72.44 19.4743 72.4 19.4476 72.4 19.2518Z" fill="#ADADAD"/>
<path d="M90.2 18.8959C90.2 18.6467 90.24 18.5844 90.4 18.5844C90.61 18.5844 90.64 18.6734 90.54 19.0116C90.44 19.3319 90.2 19.2518 90.2 18.8959Z" fill="#ADADAD"/>
<path d="M73.98 18.887C73.6 18.709 73.63 18.5844 74.05 18.5844C74.36 18.5844 74.4 18.6111 74.4 18.8069C74.4 19.065 74.35 19.0739 73.98 18.887Z" fill="#ADADAD"/>
<path d="M30.8 17.9615C30.8 17.8903 31.31 17.6055 31.45 17.6055C31.48 17.6055 31.5 17.7034 31.5 17.828C31.5 18.0238 31.46 18.0505 31.15 18.0505C30.96 18.0505 30.8 18.0149 30.8 17.9615Z" fill="#ADADAD"/>
<path d="M90.4 17.6589C90.4 17.3919 90.44 17.3385 90.61 17.3385C90.78 17.3385 90.81 17.383 90.77 17.6233C90.75 17.8102 90.67 17.9259 90.57 17.9437C90.44 17.9704 90.4 17.9081 90.4 17.6589Z" fill="#ADADAD"/>
<path d="M67.4 17.472C67.4 17.2139 67.42 17.205 67.8 17.383C68.2 17.5699 68.18 17.6945 67.75 17.6945C67.44 17.6945 67.4 17.6678 67.4 17.472Z" fill="#ADADAD"/>
<path d="M19 16.9737C19 16.7067 19 16.7067 19.3 16.8936C19.74 17.1694 19.75 17.2495 19.36 17.2495C19.03 17.2495 19 17.2317 19 16.9737Z" fill="#ADADAD"/>
<path d="M30.3 17.0271C30.3 16.8313 30.34 16.8046 30.66 16.8046C31.1 16.8046 31.08 16.9648 30.62 17.1339C30.31 17.2495 30.3 17.2406 30.3 17.0271Z" fill="#ADADAD"/>
<path d="M34.5 16.858C34.5 16.7245 34.71 16.6266 35.01 16.6266C35.13 16.6266 35.2 16.6889 35.2 16.8046C35.2 16.947 35.13 16.9826 34.85 16.9826C34.62 16.9826 34.5 16.9381 34.5 16.858Z" fill="#ADADAD"/>
<path d="M31.4 16.6711C31.4 16.4753 31.44 16.4486 31.76 16.4486C32.2 16.4486 32.18 16.6088 31.72 16.7779C31.41 16.8936 31.4 16.8847 31.4 16.6711Z" fill="#ADADAD"/>
<path d="M64.5 16.7156C64.5 16.5376 64.72 16.4842 65.04 16.591C65.34 16.6978 65.22 16.8936 64.85 16.8936C64.57 16.8936 64.5 16.858 64.5 16.7156Z" fill="#ADADAD"/>
<path d="M20.1 16.5376C19.75 16.2795 19.75 16.2795 20.13 16.2706C20.48 16.2706 20.5 16.2884 20.5 16.5376C20.5 16.6889 20.49 16.8046 20.47 16.8046C20.46 16.8046 20.29 16.6889 20.1 16.5376Z" fill="#ADADAD"/>
<path d="M36 16.502C36 16.3863 36.28 16.2706 36.58 16.2706C36.64 16.2706 36.7 16.3507 36.7 16.4486C36.7 16.591 36.63 16.6266 36.35 16.6266C36.12 16.6266 36 16.5821 36 16.502Z" fill="#ADADAD"/>
<path d="M77.72 16.3507C77.75 16.066 77.78 16.0482 78.14 16.0215C78.5 15.9948 78.52 16.0037 78.4 16.1372C78.33 16.2172 78.14 16.3596 77.98 16.4664C77.69 16.6444 77.69 16.6444 77.72 16.3507Z" fill="#ADADAD"/>
<path d="M8.33 16.0482C8.3 15.7901 8.33 15.7367 8.5 15.7367C8.66 15.7367 8.7 15.799 8.7 16.0482C8.7 16.2884 8.66 16.3596 8.53 16.3596C8.4 16.3596 8.34 16.2795 8.33 16.0482Z" fill="#ADADAD"/>
<path d="M39.2 15.8791C39.2 15.799 39.39 15.7189 39.7 15.6566C40.37 15.532 40.4 15.532 40.4 15.7278C40.4 15.8524 40.3 15.9058 40.03 15.9503C39.43 16.0304 39.2 16.0126 39.2 15.8791Z" fill="#ADADAD"/>
<path d="M40.9 15.6121C40.9 15.4964 41.18 15.3807 41.48 15.3807C41.54 15.3807 41.6 15.4608 41.6 15.5587C41.6 15.7011 41.53 15.7367 41.25 15.7367C41.02 15.7367 40.9 15.6922 40.9 15.6121Z" fill="#ADADAD"/>
<path d="M80.35 15.4697C80.38 15.4252 80.54 15.3006 80.7 15.2028C81 15.0159 81 15.0159 81 15.2828C81 15.5409 80.97 15.5587 80.64 15.5587C80.44 15.5587 80.31 15.5231 80.35 15.4697Z" fill="#ADADAD"/>
<path d="M55.3 15.2028C55.3 15.0159 55.4 14.9892 55.78 15.0782C56.14 15.1672 56.05 15.3807 55.65 15.3807C55.37 15.3807 55.3 15.3451 55.3 15.2028Z" fill="#ADADAD"/>
<path d="M45.2 15.1672C45.2 15.0515 45.48 14.9358 45.78 14.9358C45.84 14.9358 45.9 15.0159 45.9 15.1138C45.9 15.2561 45.83 15.2917 45.55 15.2917C45.32 15.2917 45.2 15.2472 45.2 15.1672Z" fill="#ADADAD"/>
<path d="M47.1 15.0782C47.1 14.9625 47.38 14.8468 47.68 14.8468C47.74 14.8468 47.8 14.9269 47.8 15.0248C47.8 15.1672 47.73 15.2028 47.45 15.2028C47.22 15.2028 47.1 15.1583 47.1 15.0782Z" fill="#ADADAD"/>
<path d="M52.2 15.0248C52.2 14.8379 52.3 14.8112 52.68 14.9002C53.04 14.9892 52.95 15.2028 52.55 15.2028C52.27 15.2028 52.2 15.1672 52.2 15.0248Z" fill="#ADADAD"/>
<path d="M79.6 14.7667C79.6 14.5086 79.63 14.4908 79.96 14.4908C80.35 14.4908 80.34 14.5709 79.9 14.8468C79.6 15.0337 79.6 15.0337 79.6 14.7667Z" fill="#ADADAD"/>
<path d="M90.8 14.6243C90.8 14.3751 90.84 14.3128 91 14.3128C91.17 14.3128 91.2 14.3662 91.17 14.6243C91.16 14.8557 91.1 14.9358 90.98 14.9358C90.84 14.9358 90.8 14.8646 90.8 14.6243Z" fill="#ADADAD"/>
<path d="M17.7 14.5798C17.35 14.3217 17.35 14.3217 17.73 14.3128C18.08 14.3128 18.1 14.3306 18.1 14.5798C18.1 14.7311 18.09 14.8468 18.07 14.8468C18.06 14.8468 17.89 14.7311 17.7 14.5798Z" fill="#ADADAD"/>
<path d="M67 14.7845C67 14.74 67.16 14.6243 67.35 14.5086C67.7 14.3128 67.7 14.3128 67.7 14.5798C67.7 14.829 67.67 14.8468 67.35 14.8468C67.16 14.8468 67 14.8201 67 14.7845Z" fill="#ADADAD"/>
<path d="M81.65 14.4018C81.68 14.3573 81.84 14.2328 82 14.1349C82.3 13.948 82.3 13.948 82.3 14.215C82.3 14.473 82.27 14.4908 81.94 14.4908C81.74 14.4908 81.61 14.4552 81.65 14.4018Z" fill="#ADADAD"/>
<path d="M30.7 13.77C30.7 13.503 30.7 13.503 31 13.6899C31.44 13.9658 31.45 14.0459 31.06 14.0459C30.73 14.0459 30.7 14.0281 30.7 13.77Z" fill="#ADADAD"/>
<path d="M81.7 13.1026C81.7 12.8178 81.72 12.8 82.05 12.8C82.24 12.8 82.4 12.8089 82.4 12.8267C82.4 12.8445 82.24 12.978 82.05 13.1293C81.7 13.4051 81.7 13.4051 81.7 13.1026Z" fill="#ADADAD"/>
<path d="M83.85 12.711C83.88 12.6665 84.04 12.5419 84.2 12.444C84.5 12.2572 84.5 12.2572 84.5 12.5241C84.5 12.7822 84.47 12.8 84.14 12.8C83.94 12.8 83.81 12.7644 83.85 12.711Z" fill="#ADADAD"/>
<path d="M83.7 11.563C83.7 11.305 83.73 11.2872 84.06 11.2872C84.45 11.2872 84.44 11.3672 84 11.6431C83.7 11.83 83.7 11.83 83.7 11.563Z" fill="#ADADAD"/>
<path d="M71.65 11.2872C71.68 11.2427 71.84 11.1181 72 11.0202C72.3 10.8333 72.3 10.8333 72.3 11.1003C72.3 11.3583 72.27 11.3761 71.94 11.3761C71.74 11.3761 71.61 11.3406 71.65 11.2872Z" fill="#ADADAD"/>
<path d="M86.15 11.0914C86.18 11.0291 86.34 10.9045 86.5 10.8244C86.8 10.6731 86.8 10.6731 86.8 10.9312C86.8 11.1804 86.77 11.1982 86.45 11.1982C86.22 11.1982 86.12 11.1626 86.15 11.0914Z" fill="#ADADAD"/>
<path d="M8.38 11.0558C8.28 10.9757 8.54 10.4862 8.67 10.4862C8.75 10.4862 8.8 10.6019 8.8 10.7977C8.8 11.038 8.76 11.1092 8.62 11.1092C8.52 11.1092 8.41 11.0825 8.38 11.0558Z" fill="#ADADAD"/>
<path d="M11.88 10.593C11.51 10.3972 11.53 10.3083 11.95 10.3083C12.26 10.3083 12.3 10.335 12.3 10.5307C12.3 10.7888 12.24 10.7977 11.88 10.593Z" fill="#ADADAD"/>
<path d="M10.83 10.0858C10.4 9.9256 10.41 9.77431 10.85 9.77431C11.16 9.77431 11.2 9.80101 11.2 9.99679C11.2 10.1214 11.19 10.2193 11.18 10.2193C11.16 10.2104 11 10.157 10.83 10.0858Z" fill="#ADADAD"/>
<path d="M73.3 10.068C73.3 10.0235 73.46 9.9078 73.65 9.79211C74 9.59633 74 9.59633 74 9.8633C74 10.1125 73.97 10.1303 73.65 10.1303C73.46 10.1303 73.3 10.1036 73.3 10.068Z" fill="#ADADAD"/>
<path d="M8.6 9.50734C8.6 9.36495 8.67 9.32936 8.95 9.32936C9.22 9.32936 9.3 9.36495 9.3 9.48954C9.3 9.59633 9.21 9.64973 8.95 9.65862C8.66 9.68532 8.6 9.65862 8.6 9.50734Z" fill="#ADADAD"/>
<path d="M89.9 9.29376C89.9 9.17807 90.18 9.06239 90.48 9.06239C90.54 9.06239 90.6 9.14248 90.6 9.24037C90.6 9.38275 90.53 9.41835 90.25 9.41835C90.02 9.41835 89.9 9.37385 89.9 9.29376Z" fill="#ADADAD"/>
<path d="M90.98 8.50174C90.58 8.35936 90.62 8.17248 91.05 8.17248C91.36 8.17248 91.4 8.19917 91.4 8.39495C91.4 8.63523 91.38 8.64413 90.98 8.50174Z" fill="#ADADAD"/>
<path d="M23.2 8.26147C23.2 8.11908 23.22 7.9945 23.26 7.9945C23.29 7.9945 23.45 8.11018 23.63 8.26147C23.95 8.52844 23.95 8.52844 23.58 8.52844C23.22 8.52844 23.2 8.51064 23.2 8.26147Z" fill="#ADADAD"/>
<path d="M89.7 8.26147C89.7 8.11908 89.77 8.08349 90.05 8.08349C90.45 8.08349 90.54 8.29707 90.18 8.38606C89.8 8.47505 89.7 8.44835 89.7 8.26147Z" fill="#ADADAD"/>
<path d="M76.97 7.46055C77.15 7.30927 77.31 7.19358 77.34 7.19358C77.38 7.19358 77.4 7.31817 77.4 7.46055C77.4 7.70973 77.38 7.72753 77.03 7.72753C76.65 7.72753 76.65 7.72753 76.97 7.46055Z" fill="#ADADAD"/>
<path d="M77.65 7.0156C77.68 6.9711 77.84 6.84651 78 6.74862C78.3 6.56174 78.3 6.56174 78.3 6.82871C78.3 7.08679 78.27 7.10459 77.94 7.10459C77.74 7.10459 77.61 7.06899 77.65 7.0156Z" fill="#ADADAD"/>
<path d="M20.6 6.47275C20.6 6.20578 20.6 6.20578 20.9 6.39266C21.34 6.66853 21.35 6.74863 20.96 6.74863C20.63 6.74863 20.6 6.73083 20.6 6.47275Z" fill="#ADADAD"/>
<path d="M79.65 5.68073C79.68 5.63624 79.84 5.51165 80 5.41376C80.3 5.22688 80.3 5.22688 80.3 5.49385C80.3 5.75193 80.27 5.76972 79.94 5.76972C79.74 5.76972 79.61 5.73413 79.65 5.68073Z" fill="#ADADAD"/>
<path d="M8.03 4.68404C8.05 4.49716 8.13 4.38147 8.23 4.36367C8.36 4.33697 8.4 4.39927 8.4 4.64844C8.4 4.91541 8.36 4.96881 8.19 4.96881C8.02 4.96881 7.99 4.92431 8.03 4.68404Z" fill="#ADADAD"/>
<path d="M81.75 4.32807C81.78 4.26578 81.94 4.14119 82.1 4.0611C82.4 3.90982 82.4 3.90982 82.4 4.16789C82.4 4.41706 82.37 4.43486 82.05 4.43486C81.82 4.43486 81.72 4.39926 81.75 4.32807Z" fill="#ADADAD"/>
<path d="M90.8 3.50046C90.8 3.1445 91.04 3.0644 91.14 3.39367C91.24 3.72294 91.21 3.81193 91 3.81193C90.84 3.81193 90.8 3.74963 90.8 3.50046Z" fill="#ADADAD"/>
<path d="M13.8 2.34358C13.8 2.07661 13.83 2.07661 14.21 2.27239C14.59 2.47707 14.58 2.56606 14.15 2.56606C13.84 2.56606 13.8 2.53936 13.8 2.34358Z" fill="#ADADAD"/>
<path d="M85.3 2.31688C85.3 2.24569 85.82 1.94312 85.94 1.94312C85.97 1.94312 86 2.04101 86 2.1656C86 2.36138 85.96 2.38807 85.65 2.38807C85.46 2.38807 85.3 2.35248 85.3 2.31688Z" fill="#ADADAD"/>
<path d="M90.4 2.07661C90.4 1.74734 90.62 1.64055 90.74 1.90752C90.86 2.19229 90.8 2.38807 90.6 2.38807C90.44 2.38807 90.4 2.32578 90.4 2.07661Z" fill="#ADADAD"/>
<path d="M86.4 1.77404C86.4 1.72954 86.59 1.61385 86.83 1.50707C87.25 1.32019 87.25 1.32019 87.28 1.50707C87.3 1.61385 87.26 1.73844 87.18 1.77404C87.01 1.88083 86.4 1.87193 86.4 1.77404Z" fill="#ADADAD"/>
<path d="M11.7 1.36468C11.7 1.1511 11.71 1.1422 12.02 1.25789C12.48 1.42697 12.5 1.58716 12.06 1.58716C11.74 1.58716 11.7 1.56046 11.7 1.36468Z" fill="#ADADAD"/>
<path d="M87.82 1.2134C87.85 1.1511 88.01 1.05321 88.18 0.99092C88.49 0.875232 88.5 0.884132 88.5 1.09771C88.5 1.29349 88.46 1.32019 88.14 1.32019C87.91 1.32019 87.8 1.28459 87.82 1.2134Z" fill="#ADADAD"/>
</svg>
