<svg width="388" height="529" viewBox="0 0 388 529" fill="none" xmlns="http://www.w3.org/2000/svg">
<path d="M141.133 526.941C141.133 524.72 141.88 523.813 143.7 523.813C145.24 523.813 145.333 523.904 145.333 525.355C145.333 527.893 144.96 528.347 142.953 528.347C141.227 528.347 141.133 528.256 141.133 526.941Z" fill="#131116"/>
<path d="M148.6 511.845C148.6 510.893 148.833 510.304 149.207 510.349C151.447 510.395 151.727 510.213 152.1 508.309C152.94 504.048 152.66 501.963 151.073 499.651C150.14 498.336 149.533 496.885 149.533 496.024C149.533 495.208 149.207 494.165 148.833 493.712C148.46 493.213 148.133 491.944 148.133 490.856C148.133 488.952 148.18 488.907 149.58 488.907C150.607 488.907 151.447 489.315 152.287 490.176L153.5 491.4L153.64 489.723C153.78 488.091 153.873 488 155.367 488C156.487 488 157.14 488.272 157.467 488.907C157.793 489.541 158.447 489.813 159.52 489.813C161.013 489.813 161.107 489.904 161.527 492.216L161.993 494.573L162.087 492.352L162.133 490.131L164.84 490.448C168.48 490.856 169.227 491.717 169.133 495.661C169.133 497.293 169.227 500.104 169.413 501.872C169.693 504.909 169.647 505.091 168.713 505.363C168.2 505.499 167.733 505.952 167.733 506.36C167.733 506.813 167.173 507.629 166.473 508.264C165.26 509.261 164.84 509.307 160.64 509.216C157.56 509.171 155.88 509.307 155.507 509.669C155.18 509.987 154.247 510.213 153.407 510.213C151.96 510.213 151.867 510.304 151.867 511.8C151.867 513.296 151.773 513.387 150.233 513.387C148.693 513.387 148.6 513.296 148.6 511.845V511.845ZM158.587 506.995C158.4 506.632 158.633 506.587 159.38 506.768C160.313 507.04 160.36 506.995 159.66 506.587C158.773 506.043 157.747 506.405 158.167 507.085C158.353 507.312 158.54 507.493 158.68 507.493C158.82 507.493 158.773 507.267 158.587 506.995Z" fill="#131116"/>
<path d="M59.4667 503.187C59.4667 501.917 59.6533 501.6 60.4 501.6C60.9133 501.6 61.3333 501.419 61.3333 501.147C61.3333 500.92 61.8467 500.693 62.5 500.693C63.1533 500.693 63.6667 500.512 63.6667 500.24C63.6667 500.013 64.0867 499.787 64.6 499.787C65.1133 499.787 65.5333 499.605 65.5333 499.333C65.5333 499.107 66.7 498.88 68.1 498.88C70.48 498.88 70.6667 498.971 70.6667 499.923C70.6667 500.92 69.1267 502.053 67.82 502.053C67.3534 502.053 63.5733 503.549 62.1733 504.32C61.7067 504.592 60.9133 504.773 60.4 504.773C59.6533 504.773 59.4667 504.456 59.4667 503.187Z" fill="#131116"/>
<path d="M169.6 495.933C169.6 494.437 169.693 494.347 171.233 494.347C172.773 494.347 172.867 494.437 172.867 495.933C172.867 497.429 172.773 497.52 171.233 497.52C169.693 497.52 169.6 497.429 169.6 495.933Z" fill="#131116"/>
<path d="M48.2666 493.531C48.2666 492.533 48.5933 492.08 49.8999 491.491C50.7866 491.083 51.5333 490.539 51.5333 490.267C51.5333 490.04 51.8133 489.813 52.1399 489.813C52.4666 489.813 52.9799 488.861 53.3066 487.683C53.6799 486.459 54.0999 485.189 54.3333 484.781C54.5199 484.419 54.7999 481.88 54.8466 479.16C55.0333 474.445 54.9866 474.264 53.9599 473.811C52.6999 473.267 52.5599 470.864 53.6799 469.187C54.5666 467.872 57.1333 467.6 58.0666 468.733C58.3933 469.096 59.0466 469.413 59.4666 469.413C59.9333 469.413 60.4466 469.685 60.5399 470.003C60.6799 470.32 60.8199 470.229 60.8199 469.776C60.8666 469.277 61.2399 468.96 61.7533 468.96C62.4999 468.96 62.6866 468.461 62.9666 465.107L63.2933 461.253H64.8333C65.8133 461.253 66.6066 461.571 66.9333 462.069C67.3999 462.749 67.4466 462.749 67.1199 461.933C66.9799 461.435 66.6533 460.029 66.4199 458.805C66.1866 457.581 65.8133 456.357 65.5333 456.085C65.2999 455.859 65.0666 454.952 65.0666 454.136C65.0666 452.731 65.1599 452.64 66.6066 452.64C70.0133 452.685 77.1533 453.955 78.8799 454.861C80.3733 455.632 81.1666 455.768 83.4999 455.541C85.6466 455.315 87.1866 455.496 89.7533 456.176C91.6666 456.72 93.2999 457.264 93.4399 457.4C93.9066 457.853 91.7599 461.027 90.8733 461.208C90.1733 461.344 90.1266 461.253 90.6866 460.619C91.0599 460.211 91.2466 459.803 91.1533 459.757C90.1266 459.213 84.8999 457.717 84.6199 457.899C84.3866 458.035 84.1999 458.624 84.1999 459.259C84.1999 460.573 83.7799 460.619 82.2866 459.485C81.6799 459.032 80.4199 458.488 79.5333 458.307C78.6466 458.125 77.0599 457.581 76.0333 457.083C74.5399 456.357 73.9333 456.312 72.8599 456.675C71.7399 457.083 71.6466 457.264 72.1599 457.763C72.4866 458.125 73.1866 459.168 73.6999 460.12C74.2133 461.117 75.0066 462.296 75.4733 462.795C76.3599 463.792 76.4999 464.427 75.7533 464.427C75.5199 464.427 75.4266 464.155 75.6133 463.883C75.8466 463.475 75.7999 463.429 75.4266 463.747C74.7266 464.381 74.6333 466.648 75.1933 468.053C75.4733 468.688 75.6133 469.595 75.5199 470.093C75.4266 470.909 75.4733 470.909 75.9399 470.275C76.2666 469.867 76.9199 469.459 77.3866 469.368C78.4599 469.141 78.9733 468.053 77.9933 468.053C77.6666 468.053 77.1066 467.555 76.8266 466.92C76.1266 465.469 76.1266 464.88 76.7333 464.88C77.4799 464.88 79.9999 467.237 79.9999 467.917C79.9999 468.371 80.4199 468.507 81.3999 468.325C82.3799 468.189 82.7999 468.325 82.7999 468.733C82.7999 469.051 82.9399 469.731 83.0799 470.184C83.2199 470.637 83.1733 470.819 82.9399 470.547C82.0999 469.549 81.3999 469.867 81.8666 471.045C82.1466 471.68 82.1933 472.405 82.0533 472.677C81.8199 472.995 81.9599 473.04 82.2866 472.813C82.6133 472.632 83.2666 471.861 83.7799 471.045C85.6933 468.008 84.4799 471.272 80.6066 479.84C80.1866 480.701 79.7666 483.104 79.6266 485.144C79.4866 488 79.2533 488.907 78.6466 489.088C78.2266 489.224 77.5733 489.541 77.1999 489.723C75.8466 490.539 73.1399 491.173 71.0399 491.173C69.8266 491.173 67.5399 491.581 65.9066 492.08C62.2666 493.168 59.9333 493.259 59.9333 492.307C59.9333 491.717 59.5133 491.627 57.5066 491.899C56.1533 492.08 54.9866 492.397 54.8933 492.579C54.7999 492.805 54.4266 492.987 54.0533 492.987C53.6799 492.987 52.9333 493.395 52.3733 493.893C51.7666 494.437 50.6933 494.8 49.8066 494.8C48.4066 494.8 48.2666 494.664 48.2666 493.531V493.531ZM62.7799 490.992C62.2199 490.357 62.7799 490.085 65.9999 489.496C67.8199 489.179 67.7266 488.907 65.6733 488.907C64.6466 488.907 63.6666 489.043 63.4799 489.224C62.9199 489.768 61.6133 489.813 60.5399 489.315C59.4199 488.725 57.8333 489.088 58.2999 489.813C58.4399 490.04 58.3466 490.267 58.0199 490.267C56.6666 490.267 58.2999 490.947 60.3066 491.219C61.5199 491.355 62.6866 491.536 62.9199 491.581C63.1533 491.581 63.0599 491.355 62.7799 490.992ZM66.9333 490.448L68.5666 489.813L66.9333 490.085C66.0466 490.267 64.8799 490.539 64.3666 490.765L63.4333 491.128H64.3666C64.8799 491.128 66.0466 490.811 66.9333 490.448V490.448ZM78.3666 476.304C77.9933 475.941 77.1999 476.757 77.1999 477.483C77.1999 478.072 77.2933 478.072 77.8533 477.301C78.2266 476.848 78.4599 476.349 78.3666 476.304V476.304ZM70.5733 468.189C70.4333 467.963 70.1066 467.192 69.7799 466.376C69.1733 464.835 67.8666 463.973 68.1466 465.243C68.7066 468.28 68.8466 468.507 69.7799 468.507C70.2933 468.507 70.6666 468.371 70.5733 468.189Z" fill="#131116"/>
<path d="M270.4 479.795C270.4 479.568 270.213 479.432 269.98 479.614C269.747 479.75 269.373 479.614 269.187 479.342C269 479.024 269.047 478.934 269.373 479.115C269.653 479.251 269.98 478.843 270.167 478.027C270.447 476.848 270.26 476.44 269.14 475.488L267.833 474.355L270.353 474.491C272.78 474.627 272.92 474.718 273.293 476.032C273.76 477.755 274.507 478.118 276.56 477.528C277.4 477.302 279.127 477.12 280.34 477.12C282.253 477.12 282.767 476.939 283.747 475.806C285.52 473.766 287.48 473.358 293.453 473.72C297.653 473.947 298.54 473.902 298.073 473.448C297.747 473.131 297.467 472.088 297.467 471.136C297.467 469.368 297.56 469.278 299.8 468.779C300.453 468.643 301.293 468.326 301.667 468.054C302.273 467.646 302.273 467.51 301.573 466.966C301.013 466.558 300.733 465.742 300.733 464.518V462.659L303.253 462.387C304.653 462.206 306.007 462.206 306.287 462.387C306.613 462.568 306.8 462.024 306.8 460.846C306.8 459.304 306.66 458.987 305.867 458.987C305.12 458.987 304.933 458.67 304.933 457.4C304.933 456.358 305.167 455.814 305.587 455.814C305.913 455.814 306.473 455.496 306.8 455.134C307.127 454.771 308.06 454.454 308.9 454.454C310.393 454.454 311.513 453.592 312.073 452.096C312.26 451.643 312.82 451.28 313.333 451.28C314.033 451.28 314.267 450.963 314.267 450.147C314.267 449.512 314.08 449.014 313.8 449.014C313.567 449.014 313.333 448.288 313.333 447.427C313.333 446.158 313.52 445.84 314.267 445.84C315.013 445.84 315.2 445.523 315.2 444.254C315.2 442.939 315.433 442.576 316.413 442.214C317.067 441.942 318.093 441.76 318.653 441.76C319.54 441.76 319.68 441.534 319.54 440.763C319.447 440.174 319.54 438.496 319.727 437L320.1 434.326L322.34 433.691L324.627 433.056L324.3 431.424C324.113 430.472 323.693 429.611 323.367 429.384C322.993 429.203 322.62 427.798 322.387 425.984C322.247 424.307 321.92 422.856 321.733 422.72C321.547 422.584 321.22 420.907 321.033 419.003L320.707 415.467H322.993C324.253 415.467 325.42 415.376 325.513 415.286C325.607 415.15 325.513 413.518 325.28 411.659C324.907 408.939 324.673 408.214 324.067 408.214C323.227 408.214 322.2 406.446 322.2 405.04C322.2 404.406 321.873 404.134 321.08 404.134C319.073 404.134 318.467 403.68 318.467 402.139C318.467 400.96 318.793 400.552 320.333 399.736C321.313 399.147 322.573 398.694 323.087 398.694C323.74 398.694 324.067 398.331 324.16 397.47C324.3 396.11 325.513 395.656 327.613 396.155C328.407 396.382 328.733 396.744 328.733 397.56C328.733 398.195 328.967 398.694 329.2 398.694C329.48 398.694 329.667 399.419 329.667 400.326C329.667 401.595 329.807 401.912 330.507 401.776C331.44 401.595 331.86 399.736 331.113 399.011C330.833 398.739 330.6 397.923 330.6 397.243C330.6 396.155 330.413 395.974 329.2 395.974C327.893 395.974 327.8 395.883 327.8 394.16C327.8 392.438 327.707 392.347 326.353 392.347C324.253 392.347 320.987 391.44 320.007 390.624C319.54 390.171 318.56 389.536 317.767 389.174C315.947 388.312 315.667 387.904 315.667 386.182C315.667 384.595 316.273 384.187 318.513 384.187C319.26 384.187 319.867 384.006 319.867 383.734C319.867 383.507 320.147 383.28 320.473 383.28C320.753 383.28 321.687 382.963 322.433 382.555C323.227 382.147 325 381.422 326.4 381.014L328.967 380.198L326.773 380.152C324.533 380.107 324.533 380.107 324.533 378.566C324.533 376.662 325.467 376.254 328.547 376.707C330.46 376.979 330.6 377.07 330.6 378.43V379.88H333.54H336.433L336.573 381.512C336.713 383.008 336.573 383.19 335.407 383.416C330.6 384.368 328.22 385.094 327.38 385.864C326.493 386.68 326.54 386.68 331.673 386.363C337.6 385.955 337.74 386 337.46 389.264C337.32 391.032 337.413 391.395 338.16 391.576C339.327 391.894 339.373 395.067 338.207 395.067C337.693 395.112 338.02 395.384 338.907 395.747C339.7 396.11 340.4 396.563 340.4 396.79C340.4 397.062 341.147 397.379 342.033 397.515C343.387 397.787 343.667 398.014 343.667 398.92C343.667 399.827 343.9 400.054 344.787 400.054C346.793 400.054 347.4 400.507 347.4 402.094C347.4 403.499 346.233 405.04 345.16 405.04C344.833 405.04 344.6 405.403 344.6 405.856C344.6 406.491 344.88 406.627 346.14 406.491C346.933 406.4 348.193 406.536 348.94 406.808C349.92 407.171 350.2 407.579 350.2 408.667C350.2 409.574 350.433 410.027 350.9 410.027C351.413 410.027 351.6 410.526 351.6 411.84C351.6 413.608 351.553 413.654 350.013 413.654C349.127 413.654 348.24 413.88 348.1 414.107C347.96 414.379 346.84 414.56 345.627 414.56H343.48L345.067 415.694C345.953 416.328 347.027 416.827 347.493 416.827C349.127 416.827 349.967 420.68 348.567 421.814C347.54 422.63 347.68 423.582 349.033 424.942C352.207 428.16 352.533 428.704 352.533 430.926C352.533 432.966 352.44 433.147 351.413 433.147C350.387 433.147 350.293 433.283 350.527 435.051C350.853 437.136 350.06 438.088 347.913 438.224C347.26 438.224 347.773 438.406 349.033 438.542C351.367 438.814 351.367 438.814 351.507 440.582C351.6 441.534 351.507 442.486 351.273 442.622C351.087 442.758 350.667 443.302 350.387 443.755C350.107 444.254 349.313 444.843 348.567 445.07C347.82 445.342 346.98 445.704 346.7 445.976C345.907 446.702 346.42 449.875 347.447 450.419C348.053 450.691 348.333 451.371 348.333 452.414C348.333 454.227 347.027 455.36 344.927 455.36C343.76 455.36 343.62 455.27 344.133 454.68C344.647 454.091 344.507 454 343.247 454C341.893 454 340.4 452.958 340.353 451.96C340.353 451.734 340.82 451.371 341.427 451.19C342.407 450.963 342.36 450.918 341.147 450.872C339.84 450.827 339.84 450.782 340.587 449.966C341.007 449.512 341.333 448.968 341.287 448.742C341.1 447.744 341.427 447.155 342.593 446.067C343.293 445.432 343.62 444.934 343.293 444.934C343.013 444.934 342.733 445.115 342.733 445.387C342.733 445.614 342.593 445.795 342.407 445.795C341.473 445.659 340.82 445.886 341.1 446.294C341.24 446.566 341.147 446.747 340.913 446.747C340.633 446.747 340.4 447.064 340.4 447.472C340.4 447.926 340.12 448.107 339.7 447.971C339.327 447.79 338.907 447.88 338.767 448.107C338.393 448.696 336.2 448.696 336.2 448.107C336.2 447.88 336.807 447.654 337.553 447.654C338.627 447.654 338.953 447.382 339.187 446.52C339.373 445.886 339.373 445.16 339.233 444.934C338.86 444.344 336.667 445.387 336.667 446.158C336.667 446.566 336.06 446.747 334.8 446.747C332.7 446.747 332.28 447.472 334.24 447.79C335.173 447.971 335.08 447.971 333.867 447.926C332.7 447.88 332.28 447.699 332.373 447.2C332.513 446.656 332.42 446.611 331.953 447.11C331.627 447.382 330.88 447.654 330.273 447.654C328.873 447.654 328.827 448.968 330.273 449.104C330.833 449.104 330.367 449.286 329.2 449.422C327.613 449.648 327.007 449.966 326.633 450.736C326.4 451.28 326.027 451.734 325.793 451.734C325.607 451.734 325.56 451.462 325.747 451.19C325.98 450.736 325.933 450.736 325.467 451.144C325.14 451.416 324.533 451.552 324.113 451.416C323.553 451.235 323.507 451.28 323.973 451.598C324.44 451.96 324.44 452.142 323.88 452.595C323.32 453.048 323.18 452.958 323.04 452.096L322.9 451.054L321.967 452.006C321.453 452.504 320.333 453.411 319.493 453.955C318.653 454.544 318.047 455.27 318.187 455.587C318.327 455.95 318.093 456.086 317.487 455.95C317.02 455.814 316.6 455.95 316.6 456.222C316.6 456.494 317.02 456.72 317.487 456.72C318 456.72 318.56 456.947 318.7 457.174C318.887 457.446 319.12 457.536 319.307 457.446C319.493 457.355 319.913 457.536 320.24 457.899C320.707 458.398 320.427 458.534 318.373 458.488C314.593 458.488 314.267 458.534 314.267 459.259C314.267 459.622 314.5 459.803 314.733 459.667C315.013 459.531 315.713 459.803 316.367 460.256L317.533 461.163L316.273 461.118C315.527 461.072 314.827 460.846 314.64 460.574C314.407 460.302 314.267 460.302 314.267 460.619C314.267 460.936 313.567 461.299 312.727 461.435C310.58 461.843 309.6 463.702 311 464.79C311.933 465.515 312.68 467.646 312.027 467.555C311.84 467.51 310.767 467.51 309.6 467.555C307.827 467.6 307.453 467.736 307.407 468.507C307.36 469.006 307.593 469.414 307.873 469.414C308.2 469.414 308.153 469.595 307.733 469.867C307.127 470.23 307.173 470.32 307.873 470.32C309.273 470.32 308.293 471.182 306.52 471.499C305.587 471.68 304.747 472.134 304.56 472.542C304.42 472.95 303.953 473.494 303.58 473.811C303.02 474.219 303.02 474.355 303.44 474.4C304.513 474.4 303.533 475.307 302.413 475.307C301.807 475.307 300.267 475.579 299.053 475.942C295.46 476.939 286.453 478.48 281.6 478.888C279.173 479.115 276.84 479.432 276.467 479.523C274.787 480.067 270.4 480.294 270.4 479.795V479.795ZM334.427 445.75C334.8 445.432 335.267 444.707 335.407 444.163C335.593 443.256 335.5 443.256 334.193 444.526C333.307 445.387 332.467 445.84 331.907 445.704C331.44 445.568 331.16 445.659 331.347 445.886C331.72 446.475 333.587 446.384 334.427 445.75V445.75ZM339 443.347C339 443.211 338.347 443.12 337.6 443.12C336.387 443.12 336.247 443.211 336.76 443.755C337.18 444.208 337.6 444.254 338.207 443.982C338.627 443.71 339 443.438 339 443.347ZM346 444.027C345.113 443.438 344.6 443.438 344.6 444.027C344.6 444.299 345.067 444.48 345.673 444.48C346.513 444.48 346.56 444.39 346 444.027Z" fill="#131116"/>
<path d="M196.107 478.435C194.94 477.8 195.08 477.211 196.667 474.899C197.413 473.811 198.16 472.224 198.347 471.408C198.533 470.456 199.233 469.368 200.213 468.507C201.1 467.781 202.127 466.376 202.547 465.333C202.967 464.336 203.48 463.52 203.667 463.52C204.227 463.52 205.72 460.8 206.42 458.579C206.793 457.309 207.307 456.539 207.913 456.403C208.473 456.267 208.8 455.768 208.8 455.133C208.8 454.589 208.94 453.456 209.08 452.685C209.36 451.416 209.547 451.28 211.18 451.28C212.86 451.28 214.867 452.549 214.867 453.637C214.867 453.819 215.147 454 215.473 454C215.8 454 216.687 454.635 217.48 455.405L218.833 456.765L219.3 453.683C219.767 450.691 219.813 450.6 221.167 450.464C222.613 450.328 226.347 452.051 227.467 453.32C228.633 454.68 229.707 454.136 229.893 452.141C229.987 451.144 229.893 450.192 229.707 450.101C229.52 449.965 229.333 447.835 229.333 445.296V440.717L232.973 440.944C234.98 441.08 237.173 441.533 237.967 441.941C240.113 443.029 240.58 442.893 240.02 441.352C239.74 440.627 239.6 439.448 239.693 438.723C239.88 436.955 242.027 436.773 245.153 438.36C247.02 439.267 247.533 439.357 247.533 438.859C247.533 438.496 246.973 437.907 246.273 437.589C245.247 437.136 244.92 436.637 244.827 435.277C244.687 433.691 244.78 433.6 245.993 433.555C247.3 433.509 247.3 433.509 245.713 432.965C243.193 432.104 241.933 430.291 241.933 427.661C241.933 425.44 241.933 425.44 243.473 425.44C244.313 425.44 245.853 425.848 246.833 426.347C247.86 426.891 249.913 427.571 251.407 427.933C254.067 428.523 254.113 428.523 253.973 427.616C253.88 427.027 253.04 426.392 251.267 425.667C248.887 424.715 248.7 424.488 248.56 422.992L248.42 421.36H250.52C252.34 421.36 252.667 421.224 252.667 420.453C252.667 419.864 252.34 419.547 251.78 419.547C251.267 419.547 250.567 419.275 250.24 418.957C249.26 418.005 247.72 417.28 246.647 417.28C245.853 417.28 245.667 417.008 245.667 415.648V414.016L248.84 414.243C250.567 414.424 252.48 414.56 253.133 414.651C254.207 414.787 254.3 414.605 254.44 412.883C254.58 410.979 254.58 410.979 256.773 410.707C259.713 410.299 260.133 410.163 260.133 409.437C260.133 408.939 259.013 408.667 255.84 408.395L251.5 407.987L251.36 406.491C251.173 404.904 252.573 401.459 253.367 401.413C253.647 401.413 254.113 401.005 254.44 400.507C254.813 399.872 255.513 399.6 256.633 399.6C258.08 399.6 258.267 399.464 258.267 398.467C258.267 397.832 257.94 397.197 257.567 397.061C257.193 396.88 256.867 396.291 256.867 395.701C256.867 395.112 256.68 394.613 256.4 394.613C256.167 394.613 255.933 395.021 255.933 395.475C255.933 395.973 255.56 396.472 255.14 396.608C252.9 397.197 250.053 397.379 247.533 397.107L244.733 396.789V395.248C244.733 393.888 244.92 393.661 246.133 393.435C246.927 393.253 247.533 392.845 247.533 392.437C247.533 392.075 248 391.395 248.56 390.941C249.353 390.261 250.287 390.08 253.413 390.08C257.66 390.08 258.733 389.853 258.733 388.901C258.733 388.539 259.06 388.267 259.433 388.267C260.46 388.267 260.273 387.043 259.2 386.771C257.94 386.453 257.847 383.416 259.107 382.963C259.527 382.781 260.18 382.373 260.507 382.056C260.927 381.693 262.327 381.467 264.38 381.467C267.32 381.467 267.6 381.557 267.6 382.373C267.6 383.053 268.02 383.371 269 383.597C269.98 383.779 270.4 384.096 270.4 384.685C270.4 385.456 270.633 385.501 272.22 385.275C273.2 385.139 274.787 385.229 275.72 385.547C277.26 386.045 277.4 386.227 277.4 387.859C277.4 389.309 277.26 389.627 276.467 389.627C275.953 389.627 275.533 389.763 275.533 389.989C275.533 390.171 276.7 390.216 278.1 390.171C280.433 389.989 280.667 390.08 280.667 390.941C280.667 391.712 280.947 391.893 282.3 391.893C283.84 391.893 283.933 391.984 283.933 393.48C283.933 394.568 283.7 395.067 283.28 395.067C282.767 395.067 282.533 396.155 282.253 399.6C282.113 402.093 281.787 404.269 281.553 404.405C281.087 404.677 282.02 406.445 282.907 406.989C284.073 407.715 283.187 412.747 281.88 412.747C281.6 412.747 281.74 412.973 282.207 413.245C282.767 413.563 283 414.288 283 415.693V417.733H280.2C277.913 417.733 277.493 417.869 277.68 418.413C277.867 418.867 278.613 419.093 279.78 419.093C283.747 419.093 287.667 422.312 287.667 425.485C287.667 428.432 287.06 429.067 284.4 429.067C282.113 429.067 282.067 429.112 282.067 430.427C282.067 431.288 282.393 431.968 283 432.331C283.7 432.784 283.933 433.419 283.933 435.051C283.933 436.229 283.747 437.317 283.467 437.453C283.233 437.589 283 438.451 283 439.312C283 440.581 282.813 440.853 282.067 440.853C281.273 440.853 281.18 440.989 281.6 441.715C282.347 443.075 282.207 445.387 281.367 445.387C280.9 445.387 280.667 445.84 280.667 446.928C280.667 447.744 280.993 448.696 281.367 449.013C281.74 449.331 282.067 450.101 282.067 450.781C282.067 451.416 282.393 452.368 282.767 452.821C283.14 453.32 283.467 454.499 283.467 455.451C283.467 457.037 283.373 457.173 282.16 457.173H280.807L281.04 460.709L281.227 464.2L278.613 465.061C276.7 465.696 276 466.149 276 466.784C276 467.419 275.627 467.6 274.507 467.6C273.06 467.555 273.013 467.555 273.853 466.92C274.367 466.557 274.647 466.24 274.46 466.24C274.273 466.24 274.46 465.741 274.88 465.107C275.767 463.747 275.72 463.656 273.993 463.339C272.407 463.067 271.94 462.749 271.333 461.661C270.913 460.981 271.007 460.8 271.567 460.8C271.94 460.8 272.267 461.208 272.267 461.752C272.267 462.296 272.453 462.523 272.78 462.387C273.06 462.205 273.153 461.752 273.013 461.299C272.827 460.891 273.153 461.072 273.62 461.707C274.46 462.749 274.553 462.749 274.32 461.888C274.087 461.072 274.227 460.936 275.207 461.117C275.86 461.253 276.467 461.117 276.653 460.891C277.073 460.165 276 457.581 275.393 457.944C275.02 458.125 275.067 457.989 275.44 457.536C275.907 456.992 275.86 456.72 275.3 456.267C274.693 455.768 274.647 455.813 274.833 456.403C275.02 456.765 274.88 457.219 274.553 457.445C274.227 457.627 274.087 457.581 274.273 457.309C274.46 457.037 274.227 456.448 273.853 455.995C273.2 455.179 273.153 455.224 273.433 456.493C273.573 457.264 273.527 457.627 273.34 457.309C272.78 456.539 269.093 455.36 268.86 455.949C268.767 456.221 268.113 456.085 267.18 455.632C266.34 455.179 265.36 454.952 264.987 455.088C264.66 455.224 264.24 455.088 264.053 454.816C263.82 454.453 264.287 454.408 265.547 454.589C267.133 454.816 267.227 454.771 266.293 454.317C265.5 453.955 264.473 453.955 262.513 454.363C261.067 454.68 259.06 454.907 258.127 454.907C257.193 454.907 256.4 455.043 256.4 455.269C256.4 455.451 257.613 455.496 259.06 455.451C261.86 455.269 262.327 455.723 259.76 456.04C257.613 456.267 256.4 456.72 256.4 457.219C256.4 457.491 256.213 457.536 255.933 457.4C255.7 457.264 255.467 457.355 255.467 457.627C255.467 458.125 253.227 457.173 252.107 456.176C249.4 453.637 248.42 453.139 247.487 453.683C246.693 454.136 246.46 454.091 245.853 453.365C245.48 452.867 245.2 452.64 245.2 452.821C245.2 453.003 244.267 452.504 243.147 451.779C242.027 451.008 240.953 450.555 240.767 450.736C240.627 450.917 240.533 450.827 240.627 450.6C240.72 450.328 240.627 450.147 240.487 450.147C240.347 450.147 239.833 449.829 239.413 449.467C238.947 449.104 238.247 448.787 237.827 448.741C237.407 448.651 236.567 448.515 235.913 448.333C234.98 448.152 234.887 448.197 235.4 448.56C235.96 448.923 235.867 449.013 234.933 449.059C234.28 449.104 233.487 449.149 233.207 449.149C232.46 449.104 233.3 450.781 234.187 451.099C234.513 451.235 234.793 451.597 234.84 451.96C234.887 452.323 234.98 452.912 235.027 453.275C235.073 453.637 235.447 453.864 235.913 453.773C236.38 453.683 236.893 453.773 237.033 454.045C237.22 454.272 236.893 454.453 236.427 454.453C235.913 454.453 235.353 454.771 235.213 455.179C235.073 455.541 234.747 455.723 234.467 455.587C234.233 455.451 234 455.632 234 456.04C234 456.448 234.233 456.629 234.467 456.493C234.747 456.357 234.933 456.403 234.933 456.675C234.933 456.901 234.56 457.355 234.14 457.581C233.393 457.989 233.393 458.125 234 458.488C234.56 458.851 234.56 458.987 233.813 459.259C232.973 459.576 232.973 459.621 233.813 460.211C234.513 460.709 234.56 460.8 233.907 460.8C233.487 460.8 232.973 460.573 232.833 460.347C232.647 460.075 232.32 459.984 232.087 460.12C231.853 460.301 231.667 460.165 231.667 459.893C231.667 459.621 231.433 459.531 231.153 459.712C230.827 459.893 231.2 460.528 232.087 461.435C234.467 463.837 233.673 465.515 231.107 463.52C230.453 463.067 229.753 462.795 229.567 462.976C229.333 463.157 229.333 463.067 229.473 462.795C229.66 462.477 229.473 462.024 229.053 461.707C228.493 461.208 228.26 461.208 227.793 461.707C227.373 462.16 227.373 462.205 227.84 461.979C228.12 461.797 228.4 461.843 228.4 462.069C228.4 462.341 228.073 462.613 227.7 462.795C227.233 462.931 227 462.749 227 462.296C227 461.888 226.86 461.707 226.673 461.843C226.487 462.024 225.787 461.616 225.04 460.936C224.34 460.256 223.733 459.984 223.733 460.256C223.733 460.573 224.06 460.936 224.433 461.072C225.367 461.435 226.487 463.747 226.067 464.427C225.88 464.699 225.227 464.88 224.62 464.835C224.013 464.744 223.173 464.88 222.8 465.061C222.427 465.288 222.24 465.288 222.427 465.107C222.8 464.744 219.72 462.659 218.833 462.659C218.6 462.659 218.74 462.84 219.253 463.112C219.953 463.52 220 463.701 219.487 464.064C219.02 464.381 219.113 464.427 219.813 464.2C220.933 463.928 221.54 464.835 220.887 465.832C220.56 466.331 220.467 466.331 220.467 465.696C220.467 464.744 220.047 464.699 218.973 465.515C218.32 465.968 218.273 466.195 218.74 466.693C219.207 467.237 219.16 467.237 218.507 466.784C218.04 466.421 217.667 466.376 217.48 466.648C217.107 467.192 214.54 466.421 213.42 465.515C212.347 464.563 211.74 464.744 211.413 466.059C211.04 467.419 211.18 467.6 212.393 467.781C212.907 467.872 213.28 468.371 213.373 469.141C213.467 469.912 213.373 470.32 213.047 470.139C212.813 469.957 212.487 470.048 212.3 470.32C211.927 470.909 210.667 470.909 210.667 470.32C210.667 470.093 210.947 470.003 211.273 470.139C211.647 470.275 212.207 470.048 212.533 469.64C212.86 469.232 212.907 468.96 212.627 468.96C212.347 468.96 212.02 469.232 211.927 469.549C211.74 469.957 211.553 469.912 211.18 469.413C210.807 468.869 210.667 468.869 210.667 469.368C210.667 469.821 210.527 469.867 210.013 469.459C209.5 469.051 209.313 469.096 209.08 469.685C208.893 470.139 208.987 470.637 209.313 470.773C209.593 470.955 209.827 471.272 209.827 471.453C209.827 471.816 208.8 472.587 208.287 472.587C207.867 472.587 206.467 469.459 206.467 468.552C206.467 468.099 206.14 467.6 205.813 467.464C205.253 467.237 205.16 467.509 205.3 468.779C205.533 470.411 204.367 472.133 203.247 471.771C202.407 471.499 200.867 473.04 200.867 474.128C200.867 474.944 197.74 478.979 197.133 478.933C196.993 478.933 196.527 478.707 196.107 478.435V478.435ZM277.82 462.16C277.447 461.933 277.447 461.707 277.773 461.525C278.053 461.344 278.147 460.891 278.007 460.483C277.727 459.848 277.587 459.939 277.12 461.027C276.42 462.704 276.747 463.792 277.727 463.021C278.193 462.613 278.24 462.387 277.82 462.16ZM270.633 453.547C270.82 453.275 271.1 453.184 271.333 453.32C271.567 453.456 271.847 453.365 271.987 453.139C272.267 452.731 271.66 452.731 270.4 453.229C270.027 453.365 269.373 453.592 269 453.683C268.533 453.864 268.673 453.955 269.327 453.955C269.887 454 270.493 453.773 270.633 453.547V453.547ZM276.933 426.165C276.933 425.576 276.607 424.987 276.233 424.805C275.487 424.533 275.3 425.259 275.813 426.528C276.233 427.616 276.933 427.389 276.933 426.165ZM272.36 402.547C272.22 401.64 271.893 401.413 270.773 401.413C270.027 401.413 269 401.187 268.487 400.96C267.693 400.507 267.6 400.643 267.6 401.821C267.6 402.728 267.32 403.227 266.807 403.363C266.34 403.499 267.46 403.589 269.28 403.635C272.593 403.68 272.593 403.68 272.36 402.547Z" fill="#131116"/>
<path d="M78.0867 462.523C77.8067 461.526 77.8533 460.755 78.18 460.528C78.4133 460.392 78.6 460.483 78.6 460.755C78.6 460.982 78.9267 461.254 79.3 461.344C79.9067 461.435 79.86 461.616 79.0667 462.07C78.5533 462.387 78.1334 462.568 78.0867 462.523V462.523Z" fill="#131116"/>
<path d="M372.6 443.8C372.6 442.939 372.833 442.214 373.067 442.214C373.347 442.214 373.533 441.579 373.533 440.854C373.533 439.856 373.813 439.358 374.56 439.086C375.4 438.814 375.447 438.678 374.793 438.451C373.58 437.998 373.813 435.686 375.4 432.83C376.193 431.424 376.8 429.747 376.8 429.067C376.8 428.206 377.127 427.707 378.013 427.299C378.713 427.027 379.647 426.256 380.16 425.667C380.953 424.67 381.467 424.534 383.847 424.534H386.6V426.438C386.6 428.07 386.32 428.568 384.547 430.2C383.473 431.243 382.4 432.694 382.213 433.419C382.027 434.144 381.42 435.232 380.86 435.822C380.16 436.592 380.02 436.955 380.44 437.091C380.767 437.227 381 438.088 381 439.267C381 440.854 380.767 441.443 379.787 442.168C379.087 442.712 378.06 443.12 377.453 443.12C376.567 443.12 376.333 443.347 376.333 444.254C376.333 445.296 376.147 445.387 374.467 445.387C372.647 445.387 372.6 445.342 372.6 443.8V443.8Z" fill="#131116"/>
<path d="M317.533 431.107C317.533 429.52 317.533 429.52 319.633 429.52C321.733 429.52 321.733 429.52 321.733 431.107C321.733 432.693 321.733 432.693 319.633 432.693C317.533 432.693 317.533 432.693 317.533 431.107Z" fill="#131116"/>
<path d="M380.067 421.179C380.067 419.819 379.88 418.549 379.6 418.413C378.9 418.005 379.04 415.331 379.88 414.197C380.533 413.245 380.533 413.2 379.413 413.2C377.267 413.2 377.92 410.027 380.72 406.989C381.467 406.128 382.12 405.947 384.267 405.947C387.3 405.947 388 406.445 388 408.531C388 409.709 387.72 410.208 386.553 410.888C385.667 411.432 385.34 411.795 385.76 411.931C386.74 412.248 386.413 420.952 385.387 421.496C384.967 421.723 384.313 422.312 383.893 422.765C383.427 423.264 382.54 423.627 381.607 423.627H380.067V421.179V421.179Z" fill="#131116"/>
<path d="M209.033 408.123C209.407 404.179 209.453 400.28 209.033 397.288C208.567 393.843 209.173 392.8 211.6 392.8H213.467V399.555C213.467 404.587 213.28 406.899 212.673 408.622C211.973 410.798 211.833 410.934 210.34 410.934H208.707L209.033 408.123V408.123Z" fill="#131116"/>
<path d="M216.407 408.123C216.22 407.806 216.033 405.811 215.987 403.68C215.94 401.55 215.753 398.603 215.567 397.107C215.1 393.344 215.753 391.894 217.807 391.894C219.3 391.894 219.393 391.984 219.907 394.206C220.467 396.563 220.7 406.672 220.187 407.942C219.86 408.803 216.967 408.939 216.407 408.123Z" fill="#131116"/>
<path d="M383.333 402.91C383.333 402.456 383.473 401.006 383.613 399.736L383.94 397.333H385.713C387.393 397.333 387.533 397.424 387.813 398.965C387.953 399.827 387.907 401.232 387.673 402.003C387.3 403.318 387.067 403.454 385.293 403.59C383.66 403.726 383.333 403.59 383.333 402.91Z" fill="#131116"/>
<path d="M381.14 395.203C380.207 394.84 380.393 391.576 381.373 391.032C381.793 390.76 381.887 390.534 381.607 390.534C381.233 390.534 381 389.899 381 388.947C381 387.36 381 387.36 383.1 387.36C385.153 387.36 385.2 387.36 385.2 388.902C385.2 390.035 385.433 390.488 386.133 390.67C387.44 390.987 387.487 394.387 386.18 395.067C385.247 395.52 382.167 395.611 381.14 395.203V395.203Z" fill="#131116"/>
<path d="M3.74662 383.416C3.51329 382.736 3.09328 382.6 1.83328 382.736L0.199951 382.917V377.886V372.854H1.83328H3.46662V375.936V379.019L5.33328 378.837C7.19995 378.656 7.80662 379.291 6.77995 380.379C6.54662 380.606 6.26661 381.512 6.17328 382.374C6.07995 383.598 5.79995 384.006 5.00661 384.096C4.35328 384.187 3.93329 383.96 3.74662 383.416V383.416Z" fill="#131116"/>
<path d="M8.78666 358.574C8.13333 355.99 9.06667 354.358 15.2267 347.739C15.6933 347.24 16.16 346.47 16.3467 346.016C16.6733 344.974 19.4267 344.883 20.4533 345.926C21.34 346.742 21.4333 348.918 20.6867 350.278C20.4067 350.776 19.4733 351.774 18.6333 352.499C17.7933 353.224 16.6733 354.72 16.1133 355.808C14.9467 358.256 12.9867 359.707 10.7467 359.707C9.34667 359.707 9.02 359.526 8.78666 358.574V358.574Z" fill="#131116"/>
<path d="M177.3 332.507C177.16 332.28 176.553 332.054 175.947 332.054C174.78 332.054 174.08 330.603 173.053 325.843C172.727 324.211 171.887 321.808 171.233 320.494C170.3 318.499 170.067 317.366 170.067 314.283C170.067 311.291 169.88 310.248 169.133 309.16C168.107 307.619 167.873 304.128 168.76 303.856C169.18 303.72 169.04 302.95 168.107 301.182C167.453 299.822 166.66 297.963 166.333 297.056C166.053 296.104 165.587 295.243 165.353 295.107C165.12 294.926 164.933 293.974 164.933 292.931C164.933 291.344 165.213 290.8 166.38 289.758C167.313 288.942 168.34 288.534 169.367 288.534C170.767 288.534 170.907 288.67 171.187 290.438C171.373 291.48 171.747 292.614 172.027 292.931C172.307 293.248 172.4 294.336 172.26 295.379C172.073 296.739 172.307 297.872 173.193 299.776C174.593 302.859 175.107 305.307 175.62 311.699C175.947 315.598 176.18 316.686 176.927 317.411C177.627 318.091 178 319.224 178.187 321.219C178.887 328.019 178.98 328.336 179.913 328.563C180.613 328.744 180.8 329.198 180.8 330.875C180.8 332.96 180.8 332.96 179.213 332.96C178.327 332.96 177.44 332.779 177.3 332.507V332.507Z" fill="#131116"/>
<path d="M165.167 286.811C165.027 286.086 164.373 285.224 163.767 284.907C163.113 284.59 162.6 284.136 162.6 283.955C162.6 283.774 162.087 283.547 161.527 283.366C159.427 282.867 157.933 281.326 157.933 279.648V278.107H160.313C161.62 278.107 164.047 278.47 165.727 278.923C168.48 279.603 168.9 279.875 169.46 281.19C169.833 282.051 170.067 283.819 169.973 285.27L169.833 287.854L167.64 287.99C165.587 288.126 165.447 288.08 165.167 286.811V286.811Z" fill="#131116"/>
<path d="M135.253 230.507C132.453 229.419 131.147 224.568 133.573 224.251C134.413 224.115 134.6 223.797 134.6 222.528C134.6 221.077 134.693 220.987 136.233 220.987C137.12 220.987 137.867 221.213 137.867 221.44C137.867 221.712 138.52 221.893 139.267 221.893C140.62 221.893 140.667 221.848 140.667 219.627C140.667 218.403 140.48 217.36 140.2 217.36C139.967 217.36 139.733 216.635 139.733 215.773C139.733 214.277 139.827 214.187 141.32 214.187C142.207 214.187 143.047 214.005 143.187 213.779C143.327 213.597 144.073 213.28 144.867 213.144C146.173 212.872 146.267 212.691 146.267 210.832C146.267 209.472 146.5 208.747 146.967 208.565C147.34 208.429 147.667 207.885 147.667 207.387C147.667 206.888 147.993 206.48 148.367 206.48C149.533 206.48 149.16 205.664 147.667 204.893C146.127 204.123 146.127 204.123 146.267 206.616L146.36 208.293H143.98C141.647 208.293 141.6 208.293 141.6 206.888C141.6 205.619 141.507 205.483 140.573 205.8C139.967 205.981 138.287 206.253 136.793 206.344C134.927 206.48 133.993 206.797 133.807 207.251C133.573 207.795 132.687 207.885 129 207.795L124.473 207.613L122.467 209.336C121.347 210.243 119.9 211.149 119.247 211.285C118.593 211.421 117.66 211.693 117.24 211.965C116.773 212.192 115.653 212.373 114.72 212.373H113.04L113.227 210.56L113.413 208.747H108.793C103.333 208.747 102.4 209.109 102.4 211.195C102.4 213.235 101.14 214.187 98.0133 214.504L95.4 214.776V213.053C95.4 211.965 95.68 211.104 96.24 210.741C96.94 210.197 96.8934 210.152 95.7267 210.107C95.0267 210.107 93.86 210.379 93.16 210.741C92.46 211.059 89.9867 211.512 87.6534 211.693C82.8 212.056 81.4 211.648 81.4 209.88C81.4 209.245 81.1667 208.747 80.84 208.747C80.56 208.747 79.9533 208.475 79.58 208.112C79.16 207.795 77.2934 207.024 75.4267 206.48C73.56 205.936 71.88 205.211 71.74 204.848C71.6 204.44 70.76 204.213 69.22 204.213H66.9333V201.493C66.9333 199.816 67.1667 198.683 67.54 198.456C69.08 197.504 70.1533 195.555 69.8733 194.013C69.1733 189.888 70.5267 189.253 80.0467 189.253C83.5 189.253 89.24 189.208 92.8334 189.208C96.4267 189.163 102.213 189.435 105.713 189.843C110.1 190.341 112.573 190.432 113.647 190.16C115.373 189.707 123.913 190.205 128.767 191.067C130.307 191.339 133.34 191.701 135.533 191.928C137.727 192.155 140.06 192.563 140.76 192.835C142.3 193.424 148.273 194.24 154.107 194.648C160.453 195.147 161.433 196.099 161.993 202.491C162.18 204.667 162.04 205.211 161.247 205.981C160.687 206.525 160.267 207.523 160.267 208.203C160.267 208.883 160.033 209.699 159.707 210.016C159.38 210.333 158.54 210.56 157.84 210.56C156.813 210.56 156.533 210.787 156.533 211.603C156.533 213.507 155.973 214.64 155.087 214.64C154.527 214.64 154.2 214.957 154.2 215.547C154.2 216.227 153.873 216.453 153.033 216.453C152.007 216.453 151.867 216.635 151.867 218.267C151.867 220.035 151.82 220.08 150.28 220.08C148.927 220.08 148.553 220.307 147.947 221.531C147.527 222.301 147.2 223.163 147.2 223.389C147.2 224.16 145.613 225.021 144.167 225.067C143.42 225.067 142.44 225.248 142.067 225.52C141.507 225.883 141.507 225.973 142.207 226.245C142.72 226.427 143 227.016 143 228.059C143 229.555 142.953 229.6 141.133 229.6C139.78 229.6 139.267 229.781 139.267 230.28C139.267 231.051 136.933 231.187 135.253 230.507V230.507ZM115.047 201.04C115.467 201.04 116.353 200.496 117.053 199.861C118.08 198.864 118.173 198.547 117.707 197.957C117.193 197.368 117.24 197.323 117.8 197.64C118.36 197.912 118.407 197.867 117.94 197.413C117.287 196.733 114.487 196.507 114.86 197.187C115.047 197.459 115.467 198.003 115.84 198.411C116.82 199.544 115.793 200.587 113.787 200.587C112.9 200.587 112.2 200.813 112.2 201.085C112.2 201.403 112.62 201.493 113.273 201.312C113.833 201.176 114.627 201.04 115.047 201.04V201.04ZM119.2 200.133C120.6 199.408 120.693 199.272 119.807 199.227C119.2 199.227 118.733 199.408 118.733 199.589C118.733 199.816 118.267 200.224 117.707 200.496C117.1 200.768 116.867 200.995 117.1 200.995C117.38 200.995 118.313 200.632 119.2 200.133ZM114.067 198.501C114.067 198.139 113.74 197.731 113.32 197.549C112.62 197.277 112.62 197.187 113.413 196.643C113.88 196.325 114.067 196.053 113.787 196.053C113.553 196.053 112.853 196.507 112.2 197.005C111.453 197.64 111.313 197.867 111.873 197.685C112.293 197.549 112.667 197.64 112.667 197.867C112.667 198.093 112.293 198.365 111.873 198.456C111.407 198.547 111.593 198.592 112.293 198.501C113.32 198.365 113.507 198.501 113.273 199.091C113.087 199.589 113.133 199.725 113.507 199.499C113.833 199.317 114.067 198.864 114.067 198.501V198.501Z" fill="#131116"/>
<path d="M153.267 224.84C153.267 223.344 153.36 223.253 154.9 223.253C156.44 223.253 156.533 223.344 156.533 224.84C156.533 226.336 156.44 226.427 154.9 226.427C153.36 226.427 153.267 226.336 153.267 224.84Z" fill="#131116"/>
<path d="M109.4 212.6C109.4 211.104 109.493 211.014 111.033 211.014C112.573 211.014 112.667 211.104 112.667 212.6C112.667 214.096 112.573 214.187 111.033 214.187C109.493 214.187 109.4 214.096 109.4 212.6Z" fill="#131116"/>
<path d="M131.473 159.288C131.147 158.971 130.867 158.064 130.867 157.248C130.867 155.934 131.007 155.798 132.64 155.526C139.033 154.392 140.667 154.755 140.667 157.248C140.667 159.016 140.433 159.107 135.3 159.56C132.92 159.787 131.893 159.696 131.473 159.288Z" fill="#131116"/>
<path d="M133.667 147.773C133.667 146.504 133.853 146.187 134.6 146.187C135.113 146.187 135.533 145.869 135.533 145.507C135.533 145.053 136.047 144.827 137.167 144.827C138.707 144.827 138.8 144.917 138.8 146.413C138.8 147.501 138.567 148 138.1 148C137.727 148 137.4 148.317 137.4 148.68C137.4 149.179 136.887 149.36 135.533 149.36C133.713 149.36 133.667 149.315 133.667 147.773Z" fill="#131116"/>
<path d="M34.9199 148.136C33.8932 147.411 33.3333 145.733 33.3333 143.467C33.3333 141.563 33.5199 140.973 34.5933 140.021C35.2466 139.432 36.3199 138.797 36.9266 138.661C38.3733 138.299 42.3399 138.707 42.5266 139.251C43.1333 140.792 43.5533 140.973 44.8599 140.021C45.5599 139.523 46.6333 138.253 47.1933 137.301C48.1266 135.669 48.1732 135.307 47.7066 133.675C47.3799 132.723 46.9599 131.771 46.7266 131.635C46.4933 131.499 46.3999 130.683 46.4933 129.821C46.6333 128.416 46.7733 128.28 48.3599 128.144C49.8066 128.008 50.2266 128.235 51.2066 129.504C52.7932 131.589 53.8666 134.853 53.8666 137.845C53.8666 142.288 51.8133 144.509 47.2866 144.963C45.4666 145.144 43.9266 145.643 42.1999 146.685C39.7733 148.136 35.9932 148.907 34.9199 148.136V148.136Z" fill="#131116"/>
<path d="M22.7866 146.731C21.8999 146.142 21.2 144.464 21.2 142.832C21.2 141.291 21.2933 141.2 22.7866 141.2C24.0933 141.2 24.6533 141.518 25.5866 142.696C26.2866 143.603 26.8 144.827 26.8 145.643C26.8 147.003 26.7066 147.094 25.0733 147.094C24.0933 147.094 23.0666 146.912 22.7866 146.731V146.731Z" fill="#131116"/>
<path d="M90.0333 140.067C86.7199 138.48 82.2399 136.622 80.0933 135.942C77.0599 135.035 75.9866 134.446 75.0999 133.312C73.8866 131.771 73.6066 129.912 74.3999 128.507C75.1466 127.192 74.5399 126.467 72.2999 125.878C70.1999 125.334 70.1999 125.334 70.1999 123.294C70.1999 121.299 71.3199 119.44 72.5333 119.44C72.8133 119.44 72.9999 119.259 72.9999 118.987C72.9999 118.76 72.8133 118.534 72.5333 118.534C71.8333 118.534 71.9733 115.496 72.6733 115.224C72.9999 115.043 72.9533 114.952 72.4399 114.952C71.2733 114.907 70.6666 109.966 71.7866 109.376C72.9066 108.787 72.7199 107.472 71.3666 106.475C70.6199 105.931 70.1999 105.16 70.1999 104.39C70.1999 103.483 69.9199 103.166 69.1733 103.03C68.2866 102.939 68.0533 102.576 67.9599 101.126C67.8666 100.038 68.0533 99.2216 68.4266 98.995C68.8466 98.723 68.7066 98.587 68.0066 98.587C67.1199 98.587 66.9333 98.859 66.9333 99.9016C66.9333 101.171 66.8399 101.262 64.4132 101.534C62.2199 101.806 61.7066 101.715 60.8666 100.944C60.0266 100.174 59.8866 99.6297 60.0266 97.9523C60.1199 96.819 60.0266 95.867 59.8866 95.867C59.2799 95.867 58.3466 90.4723 58.2999 87.027V83.4003L60.0266 83.2643L61.7533 83.1283L62.0799 85.4403C62.3599 87.3896 62.5466 87.7523 63.5733 88.0243C64.3666 88.2057 64.8333 88.0696 65.1599 87.5256C65.3933 87.0723 66.1866 86.8003 67.1666 86.8003C68.4266 86.8003 68.7533 86.619 68.8933 85.803C69.0333 84.8963 69.3133 84.7603 71.0399 84.7603C72.7666 84.7603 72.9999 84.6243 72.9999 83.763C72.9999 83.1736 73.2333 82.7203 73.4666 82.7203C73.7466 82.7203 73.9333 82.403 73.9333 82.0403C73.9333 81.6776 74.3999 80.907 75.0066 80.363C75.6133 79.7736 76.3132 78.9576 76.5466 78.595C77.3866 77.1896 80.8399 75.467 82.7999 75.467C84.1066 75.467 84.6666 75.2856 84.6666 74.787C84.6666 74.4243 85.0866 73.9256 85.5533 73.6536C86.8133 73.019 93.8599 73.0643 94.0933 73.699C94.2333 74.107 94.5133 74.107 95.2599 73.699C96.4733 73.0643 101.42 73.019 103.053 73.6536C103.987 73.971 104.267 74.379 104.267 75.467C104.267 76.6003 104.453 76.827 105.433 76.827C106.367 76.827 106.6 77.0536 106.6 77.9603C106.6 78.867 106.833 79.0936 107.767 79.0936C108.373 79.0936 109.913 79.7283 111.127 80.4536C112.34 81.2243 113.6 81.8136 113.973 81.8136C114.347 81.8136 115 82.267 115.513 82.8563C116.26 83.7176 116.353 83.7176 116.4 83.083C116.4 81.723 119.993 81.9496 121.113 83.355C121.627 83.9896 122.42 84.6243 122.933 84.7603C123.633 84.987 123.867 85.4403 123.867 86.619C123.867 87.8883 123.68 88.1603 122.887 88.1603C121.953 88.1603 121.953 88.2056 123.12 89.5657C123.773 90.3363 124.333 91.107 124.333 91.3336C124.333 91.515 125.827 91.9683 127.6 92.2403L130.867 92.7843V94.779C130.867 96.139 130.68 96.7736 130.213 96.7736C129.793 96.7736 129.653 97.1363 129.84 97.907C129.933 98.5416 130.353 99.0403 130.68 99.0403C131.567 99.0403 131.52 101.624 130.68 102.486C130.307 102.848 129.467 103.12 128.86 103.12C127.46 103.12 127.18 103.982 127.507 107.11C127.833 110.691 127.413 111.734 125.593 111.734C124.38 111.734 123.867 111.371 122.84 109.966C122.093 108.968 121.533 108.062 121.533 107.88C121.533 107.427 117.707 102.078 116.96 101.534C116.68 101.307 115.98 100.083 115.513 98.8136C115.047 97.5896 114.207 96.3203 113.647 96.0483C113.133 95.7763 112.293 95.2323 111.873 94.8696C110.053 93.3283 105.667 91.787 103.053 91.787C100.627 91.787 100.487 91.8323 100.253 93.147C99.9266 94.5976 99.9266 94.5976 95.2599 95.6403C87.9799 97.227 82.8933 101.987 80.2333 109.694C79.6266 111.326 79.4866 112.912 79.6266 115.632C79.8599 119.576 80.4666 120.846 83.7333 123.974C84.3866 124.608 85.2733 125.787 85.6933 126.603C86.4866 128.099 87.9333 128.235 87.9333 126.784C87.9333 126.195 88.4466 126.15 91.3399 126.422C93.1599 126.558 96.4733 126.83 98.6666 126.92C100.953 127.102 102.773 127.419 102.96 127.736C103.567 128.688 103.38 131.227 102.68 131.227C102.353 131.227 101.933 131.635 101.793 132.088C101.513 133.086 102.54 133.494 105.527 133.494C106.6 133.494 107.533 133.72 107.627 134.038C107.767 134.446 108.467 134.4 110.38 133.811C111.733 133.358 114.113 132.859 115.607 132.723L118.313 132.451L118.173 134.672C118.033 136.712 117.94 136.894 116.773 137.03C116.027 137.12 115.467 137.392 115.467 137.619C115.467 137.846 115.047 138.027 114.58 138.027C114.113 138.027 113.6 138.344 113.46 138.707C113.04 139.704 109.867 141.472 107.067 142.288C105.527 142.742 102.913 143.014 100.347 142.968H96.0999L90.0333 140.067V140.067Z" fill="#131116"/>
<path d="M132.733 140.112C132.733 138.843 132.547 138.525 131.567 138.299C130.867 138.117 130.4 137.664 130.4 137.165C130.4 136.621 129.747 136.123 128.533 135.624C126.807 134.989 126.667 134.808 126.667 133.085C126.667 131.363 126.76 131.272 128.3 130.955C129.84 130.683 130.447 129.776 129.467 129.187C128.627 128.688 128.953 125.515 129.933 124.291C130.447 123.656 130.867 122.613 130.867 121.979C130.867 121.344 131.1 120.8 131.333 120.8C131.613 120.8 131.8 120.211 131.8 119.44C131.8 118.216 131.94 118.08 133.34 118.035C134.133 118.035 134.553 117.899 134.273 117.763C133.947 117.672 133.667 117.264 133.667 116.901C133.667 116.539 133.247 115.813 132.733 115.269C132.22 114.725 131.8 113.955 131.8 113.501C131.8 113.093 131.473 112.64 131.1 112.459C130.633 112.323 130.4 111.597 130.4 110.373V108.56H132.453C133.947 108.56 134.787 108.832 135.72 109.693C136.42 110.328 137.167 110.827 137.447 110.827C137.68 110.827 137.867 111.325 137.867 111.96C137.867 112.685 138.147 113.093 138.567 113.093C139.033 113.093 139.267 113.592 139.267 114.68C139.267 116.085 139.407 116.267 140.9 116.539C142.393 116.811 142.533 116.947 142.533 118.352C142.533 119.757 142.393 119.893 141.133 119.893C140.387 119.893 139.733 120.075 139.733 120.301C139.733 120.891 142.44 122.749 144.12 123.339C145.287 123.701 145.613 124.109 145.707 125.243C145.8 126.149 145.567 126.965 145.1 127.464C144.353 128.144 144.353 128.28 145.053 128.733C145.52 129.096 145.8 129.957 145.8 130.955C145.8 132.088 145.987 132.587 146.5 132.587C147.433 132.587 147.433 135.443 146.547 136.168C145.38 137.12 140.993 138.48 139.173 138.48C137.54 138.48 137.4 138.571 137.4 139.795C137.4 141.2 136.56 141.653 134.04 141.653C132.873 141.653 132.733 141.472 132.733 140.112V140.112Z" fill="#131116"/>
<path d="M122.467 123.747C122.467 123.294 122 123.067 121.067 123.067C119.807 123.067 119.667 122.931 119.667 121.526C119.667 119.44 122.933 116.72 125.5 116.72H127.273L126.947 118.896C126.153 124.654 126.293 124.427 124.287 124.427C122.98 124.427 122.467 124.246 122.467 123.747V123.747Z" fill="#131116"/>
<path d="M87.9333 119.893C87.56 119.395 87 118.987 86.72 118.987C86.02 118.987 85.6 117.944 85.6 116.357L85.6466 115.133L86.3933 116.493C87.3266 118.171 88.9133 119.485 89.7066 119.213C90.0333 119.077 90.1733 119.213 90.0333 119.44C89.66 120.029 90.78 120.029 92.32 119.44C93.2533 119.123 93.5333 119.168 93.5333 119.621C93.5333 120.211 91.62 120.8 89.6133 120.8C89.0533 120.8 88.3066 120.392 87.9333 119.893V119.893Z" fill="#131116"/>
<path d="M29.1333 119.168C26.8933 117.309 26.3333 115.813 26.3333 111.869C26.3333 107.744 27.4066 105.432 30.0199 103.709C32.0266 102.395 35.9933 102.259 37.5333 103.483C40.0999 105.523 41.4533 113.955 39.3999 115.36C38.8399 115.723 38.4666 116.539 38.4666 117.264C38.4666 118.08 38.2333 118.533 37.7666 118.533C37.3933 118.533 37.0666 118.715 37.0666 118.896C37.0666 119.44 34.1266 120.347 32.3066 120.347C31.1399 120.347 30.1133 119.939 29.1333 119.168V119.168ZM34.7333 118.533C35.2933 118.216 35.2933 117.989 34.8266 117.536C34.4066 117.128 34.2666 117.128 34.2666 117.717C34.2666 118.125 33.9866 118.579 33.7066 118.669C33.3799 118.805 33.3333 118.941 33.5666 118.941C33.8466 118.941 34.3599 118.76 34.7333 118.533V118.533ZM37.4866 116.085C38.2799 115.179 38.9799 112.64 38.4199 112.64C38.1866 112.64 37.9999 113.048 37.9999 113.547C37.9999 114.045 37.8133 114.453 37.6266 114.453C37.3933 114.453 36.9733 114.952 36.6933 115.587C36.1333 116.811 36.5999 117.128 37.4866 116.085Z" fill="#131116"/>
<path d="M149.067 118.76V117.173H151.4H153.733V118.76V120.347H151.4H149.067V118.76Z" fill="#131116"/>
<path d="M96.1932 114.454C96.0532 113.91 96.1466 113.638 96.4266 113.819C96.9866 114.182 96.7066 109.376 96.0999 108.016C95.9132 107.518 95.9599 107.2 96.2866 107.2C96.5666 107.2 96.7999 107.518 96.7999 107.88C96.7999 108.243 97.0332 108.56 97.2666 108.56C97.5466 108.56 97.7332 110.011 97.7332 111.96C97.7332 114.544 97.5932 115.36 97.0799 115.36C96.7532 115.36 96.3332 114.952 96.1932 114.454Z" fill="#131116"/>
<path d="M95.68 111.416C95.4933 111.008 95.5867 110.464 95.8667 110.192C96.1933 109.875 96.3333 110.102 96.3333 110.963C96.3333 112.368 96.1 112.504 95.68 111.416Z" fill="#131116"/>
<path d="M87 106.293C87 106.021 86.58 105.84 86.0666 105.84C85.32 105.84 85.1333 105.523 85.1333 104.253C85.1333 102.848 85.2733 102.667 86.3 102.667C87.0466 102.667 87.4666 102.395 87.4666 101.987C87.4666 101.443 88.1666 101.307 90.9666 101.307H94.4666V102.893C94.4666 104.48 94.42 104.48 92.46 104.48C91.1533 104.48 90.1266 104.752 89.52 105.296C88.4 106.339 87 106.883 87 106.293V106.293Z" fill="#131116"/>
<path d="M39.8199 99.1307C39.5866 98.7227 34.2199 95.4133 33.6599 95.4133C33.0066 95.4133 28.0132 92.1493 26.9399 91.0613C26.3799 90.472 25.5866 89.9733 25.1666 89.9733C24.0932 89.9733 24.1866 85.6213 25.3066 85.0773C26.6599 84.3973 30.0199 84.0347 32.3066 84.352C34.2199 84.5787 34.7332 84.896 36.0866 86.6187C36.9266 87.7067 37.8599 88.6133 38.0932 88.6133C38.5132 88.6133 38.8399 88.7947 40.8466 90.5173C42.1999 91.6507 43.2266 94.552 43.3199 97.4533C43.3666 99.2213 43.3199 99.2667 41.6866 99.4027C40.7066 99.4933 39.8666 99.3573 39.8199 99.1307V99.1307Z" fill="#131116"/>
<path d="M146.267 92.9202C146.267 91.4242 146.36 91.3335 147.9 91.3335C149.44 91.3335 149.533 91.4242 149.533 92.9202C149.533 94.4162 149.44 94.5068 147.9 94.5068C146.36 94.5068 146.267 94.4162 146.267 92.9202Z" fill="#131116"/>
<path d="M79.5333 72.5203C79.5333 71.0243 79.6267 70.9336 81.1667 70.9336C82.7067 70.9336 82.8 71.0243 82.8 72.5203C82.8 74.0163 82.7067 74.1069 81.1667 74.1069C79.6267 74.1069 79.5333 74.0163 79.5333 72.5203Z" fill="#131116"/>
<path d="M180.007 27.0961C179.68 27.0055 179.4 26.1895 179.4 25.3735C179.4 24.2401 179.633 23.7868 180.333 23.5601C181.173 23.2881 181.267 22.8801 181.267 19.2081V15.1735L178.84 15.1281C177.487 15.0828 175.62 15.1281 174.64 15.1735C173.1 15.2188 172.913 15.1282 172.633 13.8588C172.4 12.7255 172.073 12.4535 171.093 12.4535C170.393 12.4535 169.413 12.7708 168.947 13.1335C167.733 14.0401 163.533 14.0402 163.533 13.1788C163.533 12.8162 163.207 12.4535 162.833 12.2722C161.853 11.9095 161.9 8.69081 162.88 7.87481C163.253 7.55748 164.047 6.46949 164.56 5.47215C166.053 2.57082 166.753 2.02682 168.807 2.02682C169.973 2.02682 170.86 1.75482 171.233 1.25615C172.307 -0.194516 179.867 0.0774825 179.867 1.57348C179.867 1.75482 180.473 2.02682 181.22 2.16282C182.013 2.34415 182.62 2.79748 182.807 3.34148C182.947 3.93081 183.413 4.29348 184.02 4.29348C185.233 4.29348 185.98 5.88015 187.193 11.0935C187.333 11.7281 187.66 12.3175 187.847 12.4535C188.033 12.5895 188.36 14.9922 188.547 17.8028C188.78 21.6108 189.013 22.8801 189.48 22.8801C190.507 22.8801 190.273 25.7362 189.247 26.5975C188.547 27.1868 187.38 27.3681 184.44 27.3228C182.293 27.3228 180.287 27.2321 180.007 27.0961V27.0961Z" fill="#131116"/>
</svg>
