<svg width="102" height="84" viewBox="0 0 102 84" fill="none" xmlns="http://www.w3.org/2000/svg">
<path d="M52.1 83.5477C52.1 83.4053 52.17 83.3697 52.45 83.3697C52.85 83.3697 52.94 83.5833 52.58 83.6723C52.2 83.7613 52.1 83.7346 52.1 83.5477Z" fill="#D6D6D6"/>
<path d="M56.7 82.6133C56.7 82.4175 56.74 82.3908 57.05 82.3908C57.48 82.3908 57.5 82.5154 57.1 82.7023C56.72 82.8803 56.7 82.8714 56.7 82.6133Z" fill="#D6D6D6"/>
<path d="M44.48 82.4976C44.11 82.3018 44.13 82.2129 44.55 82.2129C44.86 82.2129 44.9 82.2395 44.9 82.4353C44.9 82.6934 44.84 82.7023 44.48 82.4976Z" fill="#D6D6D6"/>
<path d="M52.5 82.2751C52.5 82.2039 52.73 82.0972 53.05 82.0171C53.6 81.8836 53.6 81.8836 53.6 82.0794C53.6 82.2306 53.53 82.2929 53.29 82.3374C52.79 82.4264 52.5 82.3997 52.5 82.2751Z" fill="#D6D6D6"/>
<path d="M43.39 81.9281C42.95 81.6344 42.95 81.6344 43.3 81.6077C43.49 81.5899 43.66 81.6166 43.68 81.67C43.7 81.7234 43.78 81.7679 43.86 81.7679C43.94 81.7679 44 81.8569 44 81.9904C44 82.284 43.92 82.2751 43.39 81.9281Z" fill="#D6D6D6"/>
<path d="M53.7 81.9459C53.7 81.8747 54.21 81.5899 54.35 81.5899C54.38 81.5899 54.4 81.6878 54.4 81.8124C54.4 82.0082 54.36 82.0349 54.05 82.0349C53.86 82.0349 53.7 81.9993 53.7 81.9459Z" fill="#D6D6D6"/>
<path d="M41.91 80.789C40.87 79.8368 40.79 79.7211 41.2 79.7211C41.47 79.7211 41.5 79.7478 41.5 79.9881C41.5 80.2105 41.54 80.255 41.75 80.255C41.97 80.255 42 80.2906 42 80.5665C42 80.8602 42.02 80.878 42.35 80.878C42.73 80.878 42.84 80.9936 42.77 81.3407C42.74 81.5276 42.65 81.4653 41.91 80.789Z" fill="#D6D6D6"/>
<path d="M49.48 81.2517C48.91 81.0827 48.84 80.878 49.35 80.878C49.54 80.878 49.7 80.9225 49.7 80.967C49.7 81.0204 49.84 81.056 50 81.056C50.23 81.056 50.3 81.0916 50.3 81.2339C50.3 81.4475 50.14 81.4475 49.48 81.2517Z" fill="#D6D6D6"/>
<path d="M59.4 81.145C59.4 80.9047 59.43 80.878 59.7 80.878C59.97 80.878 60 80.8513 60 80.611C60 80.3707 60.03 80.344 60.3 80.344C60.47 80.344 60.6 80.3707 60.6 80.4152C60.59 80.4953 59.55 81.4119 59.46 81.4119C59.43 81.4119 59.4 81.2962 59.4 81.145Z" fill="#D6D6D6"/>
<path d="M46.1 80.878C46.1 80.8335 46.03 80.789 45.95 80.789C45.85 80.789 45.8 80.7 45.8 80.522C45.8 80.2639 45.8 80.2639 46.3 80.5398C46.58 80.6911 46.8 80.8513 46.8 80.8869C46.8 80.9314 46.64 80.967 46.45 80.967C46.26 80.967 46.1 80.9314 46.1 80.878Z" fill="#D6D6D6"/>
<path d="M57.45 79.8991C57.61 79.7567 57.77 79.6321 57.82 79.6321C57.86 79.6321 57.9 79.7567 57.9 79.8991C57.9 80.1483 57.87 80.1661 57.53 80.1661C57.16 80.1661 57.16 80.1661 57.45 79.8991Z" fill="#D6D6D6"/>
<path d="M46.23 79.7033C45.81 79.4452 45.82 79.3651 46.25 79.3651C46.57 79.3651 46.6 79.3829 46.6 79.6321C46.6 79.7834 46.59 79.8991 46.57 79.8991C46.56 79.8991 46.4 79.8101 46.23 79.7033Z" fill="#D6D6D6"/>
<path d="M56.3 79.5431C56.3 79.3207 56.34 79.2762 56.54 79.2762C56.72 79.2762 56.79 79.2228 56.82 79.0804C56.84 78.9113 56.92 78.8668 57.23 78.849C57.58 78.8223 57.6 78.8045 57.6 78.5108C57.6 78.235 57.62 78.2083 57.91 78.2083C58.21 78.2083 58.21 78.2083 58 78.4663C57.78 78.7511 56.76 79.5876 56.48 79.73C56.33 79.8012 56.3 79.7745 56.3 79.5431Z" fill="#D6D6D6"/>
<path d="M44.24 79.5965C44.21 79.5253 44.2 79.3651 44.22 79.2316C44.25 79.0003 44.25 79.0003 44.65 79.3562C45.04 79.7211 45.04 79.7211 44.67 79.7211C44.44 79.7211 44.27 79.6766 44.24 79.5965Z" fill="#D6D6D6"/>
<path d="M58.49 79.0359C58.65 78.7867 58.87 78.5642 58.94 78.5642C58.97 78.5642 59 78.7066 59 78.8757C59 79.1605 58.98 79.1872 58.7 79.1872C58.44 79.1872 58.41 79.1694 58.49 79.0359Z" fill="#D6D6D6"/>
<path d="M44.71 78.4218C44.44 78.1104 44.45 78.0303 44.75 78.0303C44.97 78.0303 45 78.0659 45 78.3417C45 78.5108 44.98 78.6532 44.96 78.6532C44.93 78.6532 44.82 78.5464 44.71 78.4218Z" fill="#D6D6D6"/>
<path d="M43.1 77.0959C43.1 76.8467 43.14 76.7844 43.3 76.7844C43.51 76.7844 43.54 76.8734 43.44 77.2116C43.34 77.5319 43.1 77.4518 43.1 77.0959Z" fill="#D6D6D6"/>
<path d="M44.2 77.2116C44.2 76.9446 44.33 76.6954 44.46 76.6954C44.55 76.6954 44.6 76.8022 44.6 77.0069C44.6 77.2561 44.56 77.3183 44.4 77.3183C44.29 77.3183 44.2 77.265 44.2 77.2116Z" fill="#D6D6D6"/>
<path d="M57.13 76.2327C56.95 76.1793 56.8 76.0992 56.8 76.0636C56.8 76.0191 56.64 75.9835 56.45 75.9835C56.16 75.9835 56.1 75.9479 56.1 75.7966C56.1 75.6275 56.14 75.6186 56.46 75.672C57.04 75.761 58.03 76.1081 58.08 76.2327C58.13 76.3661 57.6 76.3661 57.13 76.2327Z" fill="#D6D6D6"/>
<path d="M45.6 75.9568C45.6 75.8856 45.76 75.7966 45.95 75.7432C46.28 75.6453 46.3 75.6542 46.3 75.8589C46.3 76.0458 46.25 76.0725 45.95 76.0725C45.73 76.0725 45.6 76.028 45.6 75.9568Z" fill="#D6D6D6"/>
<path d="M43.82 75.6542C43.85 75.3339 43.87 75.3161 44.23 75.2894C44.43 75.2716 44.6 75.2805 44.6 75.2983C44.6 75.3517 43.89 75.9835 43.83 75.9835C43.81 75.9835 43.8 75.8322 43.82 75.6542Z" fill="#D6D6D6"/>
<path d="M55.08 75.7432C54.88 75.7165 54.8 75.6542 54.8 75.5296C54.8 75.3339 54.83 75.325 55.5 75.4584C55.81 75.5207 56 75.6008 56 75.6809C56 75.8055 55.7 75.8233 55.08 75.7432Z" fill="#D6D6D6"/>
<path d="M47.8 75.5029C47.8 75.3783 47.94 75.3339 48.78 75.2271C49.15 75.1737 49.2 75.1826 49.2 75.3428C49.2 75.4851 49.11 75.5207 48.68 75.5741C47.92 75.6542 47.8 75.6453 47.8 75.5029Z" fill="#D6D6D6"/>
<path d="M58.01 75.3694C57.37 75.1648 57.33 74.969 57.94 75.0224C58.48 75.0758 58.53 75.1025 58.48 75.3428C58.45 75.5118 58.44 75.5118 58.01 75.3694Z" fill="#D6D6D6"/>
<path d="M63.3 75.1381C63.3 74.8889 63.34 74.8266 63.5 74.8266C63.71 74.8266 63.74 74.9156 63.64 75.2538C63.54 75.5741 63.3 75.494 63.3 75.1381Z" fill="#D6D6D6"/>
<path d="M46.3 74.7376C46.3 74.5952 46.37 74.5596 46.65 74.5596C47.05 74.5596 47.14 74.7732 46.78 74.8622C46.4 74.9512 46.3 74.9245 46.3 74.7376Z" fill="#D6D6D6"/>
<path d="M54.98 74.6753C54.65 74.6041 54.78 74.3817 55.15 74.3817C55.43 74.3817 55.5 74.4173 55.5 74.5596C55.5 74.7376 55.36 74.7643 54.98 74.6753Z" fill="#D6D6D6"/>
<path d="M52.48 74.4083C52.15 74.3371 52.28 74.1147 52.65 74.1147C52.93 74.1147 53 74.1503 53 74.2926C53 74.4706 52.86 74.4973 52.48 74.4083Z" fill="#D6D6D6"/>
<path d="M37.96 73.207C37.86 72.8688 37.89 72.7798 38.1 72.7798C38.26 72.7798 38.3 72.8421 38.3 73.0913C38.3 73.4472 38.06 73.5273 37.96 73.207Z" fill="#D6D6D6"/>
<path d="M37.86 72.4061C37.76 72.0679 37.79 71.9789 38 71.9789C38.16 71.9789 38.2 72.0412 38.2 72.2904C38.2 72.6463 37.96 72.7264 37.86 72.4061Z" fill="#D6D6D6"/>
<path d="M37.8 70.03C37.8 69.763 37.91 69.5761 38.06 69.5761C38.15 69.5761 38.2 69.6829 38.2 69.8876C38.2 70.1368 38.16 70.1991 38 70.1991C37.87 70.1991 37.8 70.1368 37.8 70.03Z" fill="#D6D6D6"/>
<path d="M37.9 69.3804C37.9 69.1134 38.03 68.8642 38.16 68.8642C38.25 68.8642 38.3 68.971 38.3 69.1757C38.3 69.4249 38.26 69.4872 38.1 69.4872C37.99 69.4872 37.9 69.4338 37.9 69.3804Z" fill="#D6D6D6"/>
<path d="M63.6 68.1078C63.6 67.7518 63.84 67.6718 63.94 68.001C64.04 68.3303 64.01 68.4193 63.8 68.4193C63.64 68.4193 63.6 68.357 63.6 68.1078Z" fill="#D6D6D6"/>
<path d="M35.68 66.5772C35.35 66.506 35.48 66.2835 35.85 66.2835C36.13 66.2835 36.2 66.3191 36.2 66.4615C36.2 66.6394 36.06 66.6662 35.68 66.5772Z" fill="#D6D6D6"/>
<path d="M33.58 66.3102C33.25 66.239 33.38 66.0165 33.75 66.0165C34.03 66.0165 34.1 66.0521 34.1 66.1945C34.1 66.3725 33.96 66.3992 33.58 66.3102Z" fill="#D6D6D6"/>
<path d="M30.28 65.8652C29.95 65.794 30.08 65.5716 30.45 65.5716C30.73 65.5716 30.8 65.6072 30.8 65.7495C30.8 65.9275 30.66 65.9542 30.28 65.8652Z" fill="#D6D6D6"/>
<path d="M75.8 65.1266C75.8 64.9842 75.87 64.9486 76.15 64.9486C76.55 64.9486 76.64 65.1622 76.28 65.2512C75.9 65.3402 75.8 65.3135 75.8 65.1266Z" fill="#D6D6D6"/>
<path d="M24.68 65.0643C24.35 64.9931 24.48 64.7706 24.85 64.7706C25.13 64.7706 25.2 64.8062 25.2 64.9486C25.2 65.1266 25.06 65.1533 24.68 65.0643Z" fill="#D6D6D6"/>
<path d="M19.98 64.3524C19.65 64.2812 19.78 64.0587 20.15 64.0587C20.43 64.0587 20.5 64.0943 20.5 64.2367C20.5 64.4147 20.36 64.4414 19.98 64.3524Z" fill="#D6D6D6"/>
<path d="M82.9 64.0587C82.9 63.9163 82.97 63.8807 83.25 63.8807C83.65 63.8807 83.74 64.0943 83.38 64.1833C83 64.2723 82.9 64.2456 82.9 64.0587Z" fill="#D6D6D6"/>
<path d="M86.8 63.4358C86.8 63.2934 86.87 63.2578 87.15 63.2578C87.55 63.2578 87.64 63.4714 87.28 63.5604C86.9 63.6494 86.8 63.6227 86.8 63.4358Z" fill="#D6D6D6"/>
<path d="M11.55 63.0353C11.5 63.0175 11.28 62.9819 11.08 62.9463C10.84 62.9107 10.7 62.8484 10.7 62.7684C10.7 62.6171 10.85 62.6082 11.54 62.6883C11.9 62.7328 12 62.7862 12 62.9107C12 63.0709 11.82 63.1154 11.55 63.0353Z" fill="#D6D6D6"/>
<path d="M92.9 62.4569C92.9 62.3145 92.97 62.2789 93.25 62.2789C93.65 62.2789 93.74 62.4925 93.38 62.5815C93 62.6705 92.9 62.6438 92.9 62.4569Z" fill="#D6D6D6"/>
<path d="M96.1 61.9229C96.1 61.7805 96.17 61.7449 96.45 61.7449C96.85 61.7449 96.94 61.9585 96.58 62.0475C96.2 62.1365 96.1 62.1098 96.1 61.9229Z" fill="#D6D6D6"/>
<path d="M4.98 61.9496C4.65 61.8784 4.78 61.656 5.15 61.656C5.43 61.656 5.5 61.6916 5.5 61.8339C5.5 62.0119 5.36 62.0386 4.98 61.9496Z" fill="#D6D6D6"/>
<path d="M3.38 61.6827C3.05 61.6115 3.18 61.389 3.55 61.389C3.83 61.389 3.9 61.4246 3.9 61.567C3.9 61.745 3.76 61.7717 3.38 61.6827Z" fill="#D6D6D6"/>
<path d="M1.16999 61.3267C0.919995 61.2911 0.889995 61.2555 0.929995 61.0063C0.969995 60.6771 1.29999 60.5347 1.29999 60.8462C1.29999 60.9885 1.35999 61.033 1.54999 61.033C1.72999 61.033 1.79999 61.0775 1.79999 61.211C1.79999 61.389 1.74999 61.3979 1.16999 61.3267Z" fill="#D6D6D6"/>
<path d="M1 59.6804C1 59.4134 1.13 59.1642 1.26 59.1642C1.35 59.1642 1.4 59.271 1.4 59.4757C1.4 59.7249 1.36 59.7872 1.2 59.7872C1.09 59.7872 1 59.7338 1 59.6804Z" fill="#D6D6D6"/>
<path d="M30.2 59.4223C30.2 59.271 30.25 59.2443 30.52 59.2799C30.73 59.2977 30.86 59.3689 30.88 59.4579C30.91 59.5736 30.84 59.6092 30.56 59.6092C30.26 59.6092 30.2 59.5736 30.2 59.4223Z" fill="#D6D6D6"/>
<path d="M33.5 59.4846C33.5 59.3689 33.78 59.2532 34.08 59.2532C34.14 59.2532 34.2 59.3333 34.2 59.4312C34.2 59.5736 34.13 59.6092 33.85 59.6092C33.62 59.6092 33.5 59.5647 33.5 59.4846Z" fill="#D6D6D6"/>
<path d="M28.8 59.3422C28.8 59.1642 29.02 59.1108 29.34 59.2176C29.64 59.3244 29.52 59.5202 29.15 59.5202C28.87 59.5202 28.8 59.4846 28.8 59.3422Z" fill="#D6D6D6"/>
<path d="M67 59.3422C67 59.1553 67.1 59.1286 67.48 59.2176C67.84 59.3066 67.75 59.5202 67.35 59.5202C67.07 59.5202 67 59.4846 67 59.3422Z" fill="#D6D6D6"/>
<path d="M72.7 59.3956C72.7 59.2799 72.98 59.1642 73.28 59.1642C73.34 59.1642 73.4 59.2443 73.4 59.3422C73.4 59.4846 73.33 59.5202 73.05 59.5202C72.82 59.5202 72.7 59.4757 72.7 59.3956Z" fill="#D6D6D6"/>
<path d="M27.9 59.2532C27.9 59.0663 28 59.0396 28.38 59.1286C28.74 59.2176 28.65 59.4312 28.25 59.4312C27.97 59.4312 27.9 59.3956 27.9 59.2532Z" fill="#D6D6D6"/>
<path d="M36 59.2176C36 59.1019 36.28 58.9862 36.58 58.9862C36.64 58.9862 36.7 59.0663 36.7 59.1642C36.7 59.3066 36.63 59.3422 36.35 59.3422C36.12 59.3422 36 59.2977 36 59.2176Z" fill="#D6D6D6"/>
<path d="M65.48 59.2799C65.28 59.2532 65.2 59.1909 65.2 59.0663C65.2 58.8705 65.23 58.8616 65.9 58.9951C66.21 59.0574 66.4 59.1375 66.4 59.2176C66.4 59.3422 66.1 59.36 65.48 59.2799Z" fill="#D6D6D6"/>
<path d="M74.5 59.2176C74.5 59.1019 74.78 58.9862 75.08 58.9862C75.14 58.9862 75.2 59.0663 75.2 59.1642C75.2 59.3066 75.13 59.3422 74.85 59.3422C74.62 59.3422 74.5 59.2977 74.5 59.2176Z" fill="#D6D6D6"/>
<path d="M75.9 59.0307C75.9 58.9595 75.91 58.8972 75.93 58.8972C75.94 58.8972 76.33 58.8349 76.8 58.7637C77.85 58.5947 77.8 58.5947 77.8 58.7904C77.8 58.9239 77.67 58.9773 77.03 59.0574C76.03 59.1998 75.9 59.1909 75.9 59.0307Z" fill="#D6D6D6"/>
<path d="M100.6 58.8527C100.6 58.5235 100.82 58.4167 100.94 58.6837C101.06 58.9684 101 59.1642 100.8 59.1642C100.64 59.1642 100.6 59.1019 100.6 58.8527Z" fill="#D6D6D6"/>
<path d="M25.1 58.8972C25.1 58.7104 25.2 58.6837 25.58 58.7727C25.94 58.8616 25.85 59.0752 25.45 59.0752C25.17 59.0752 25.1 59.0396 25.1 58.8972Z" fill="#D6D6D6"/>
<path d="M1.1 58.6303C1.1 58.5146 1.24 58.39 1.5 58.2743C1.99 58.0518 2 58.0518 2 58.3188C2 58.4968 1.95 58.5413 1.75 58.5413C1.59 58.5413 1.5 58.5947 1.5 58.6748C1.5 58.746 1.41 58.8083 1.3 58.8083C1.17 58.8083 1.1 58.746 1.1 58.6303Z" fill="#D6D6D6"/>
<path d="M78.2 58.6837C78.2 58.6036 78.39 58.5235 78.7 58.4612C79.37 58.3366 79.4 58.3366 79.4 58.5324C79.4 58.657 79.3 58.7104 79.03 58.7549C78.43 58.835 78.2 58.8172 78.2 58.6837Z" fill="#D6D6D6"/>
<path d="M30.15 58.5502C29.99 58.4078 30.14 58.2743 30.45 58.2743C30.73 58.2743 30.8 58.3099 30.8 58.4523C30.8 58.5947 30.74 58.6303 30.5 58.6125C30.33 58.6036 30.17 58.5769 30.15 58.5502Z" fill="#D6D6D6"/>
<path d="M29.13 58.479C28.85 58.3811 29 58.1853 29.35 58.1853C29.63 58.1853 29.7 58.2209 29.7 58.3633C29.7 58.5413 29.44 58.5947 29.13 58.479Z" fill="#D6D6D6"/>
<path d="M72.9 58.3633C72.9 58.2209 72.97 58.1853 73.25 58.1853C73.65 58.1853 73.74 58.3989 73.38 58.4879C73 58.5769 72.9 58.5502 72.9 58.3633Z" fill="#D6D6D6"/>
<path d="M79.7 58.4167C79.7 58.3366 79.89 58.2565 80.2 58.1942C80.87 58.0696 80.9 58.0696 80.9 58.2654C80.9 58.39 80.8 58.4434 80.53 58.4879C79.93 58.568 79.7 58.5502 79.7 58.4167Z" fill="#D6D6D6"/>
<path d="M28.13 58.39C27.85 58.2921 28 58.0963 28.35 58.0963C28.63 58.0963 28.7 58.1319 28.7 58.2743C28.7 58.4523 28.44 58.5057 28.13 58.39Z" fill="#D6D6D6"/>
<path d="M66.13 58.3455C65.67 58.2565 65.52 58.0073 65.93 58.0073C66.51 58.0073 66.9 58.123 66.9 58.2832C66.9 58.4701 66.78 58.479 66.13 58.3455Z" fill="#D6D6D6"/>
<path d="M73.8 58.2743C73.8 58.1319 73.87 58.0963 74.15 58.0963C74.55 58.0963 74.64 58.3099 74.28 58.3989C73.9 58.4879 73.8 58.4612 73.8 58.2743Z" fill="#D6D6D6"/>
<path d="M74.6 58.1942C74.6 58.0785 74.66 58.0073 74.78 58.0073C74.87 58.0073 75.19 57.9806 75.48 57.9539C75.91 57.9005 76 57.9183 76 58.034C76 58.1675 75.88 58.212 75.03 58.3188C74.64 58.3722 74.6 58.3633 74.6 58.1942Z" fill="#D6D6D6"/>
<path d="M20.13 58.212C19.88 58.1853 19.8 58.1319 19.8 57.9895C19.8 57.8294 19.84 57.8205 20.18 57.865C20.99 57.9896 21.1 58.0251 21.1 58.1497C21.1 58.2743 20.86 58.2921 20.13 58.212Z" fill="#D6D6D6"/>
<path d="M65.08 58.123C64.75 58.0518 64.88 57.8294 65.25 57.8294C65.53 57.8294 65.6 57.865 65.6 58.0073C65.6 58.1853 65.46 58.212 65.08 58.123Z" fill="#D6D6D6"/>
<path d="M82.4 57.9717C82.4 57.8472 82.51 57.8116 83.33 57.687C83.65 57.6425 83.7 57.6514 83.7 57.8116C83.7 57.945 83.61 57.9984 83.24 58.0429C82.55 58.123 82.4 58.1141 82.4 57.9717Z" fill="#D6D6D6"/>
<path d="M18.6 57.8294C18.6 57.6425 18.7 57.6158 19.08 57.7048C19.44 57.7938 19.35 58.0073 18.95 58.0073C18.67 58.0073 18.6 57.9717 18.6 57.8294Z" fill="#D6D6D6"/>
<path d="M24.95 57.9628C24.9 57.945 24.68 57.9094 24.48 57.8738C24.24 57.8383 24.1 57.776 24.1 57.6959C24.1 57.5446 24.25 57.5357 24.94 57.6158C25.3 57.6603 25.4 57.7137 25.4 57.8383C25.4 57.9984 25.22 58.0429 24.95 57.9628Z" fill="#D6D6D6"/>
<path d="M61.7 57.509C61.7 57.1886 61.7 57.1886 62.04 57.4467C62.48 57.7671 62.48 57.8293 62.05 57.8293C61.71 57.8293 61.7 57.8116 61.7 57.509Z" fill="#D6D6D6"/>
<path d="M78.2 57.6692C78.2 57.5357 78.36 57.4823 79.08 57.3577C80.17 57.1708 80.4 57.1708 80.4 57.3399C80.4 57.4111 80.38 57.4734 80.36 57.4734C80.34 57.4734 79.88 57.5535 79.35 57.6514C78.17 57.865 78.2 57.865 78.2 57.6692Z" fill="#D6D6D6"/>
<path d="M97.5 57.5624C97.5 57.3755 97.6 57.3488 97.98 57.4378C98.34 57.5268 98.25 57.7404 97.85 57.7404C97.57 57.7404 97.5 57.7048 97.5 57.5624Z" fill="#D6D6D6"/>
<path d="M4.7 57.5268C4.7 57.4111 4.98 57.2954 5.28 57.2954C5.34 57.2954 5.4 57.3755 5.4 57.4734C5.4 57.6158 5.33 57.6514 5.05 57.6514C4.82 57.6514 4.7 57.6069 4.7 57.5268Z" fill="#D6D6D6"/>
<path d="M15.8 57.4734C15.8 57.2865 15.9 57.2598 16.28 57.3488C16.64 57.4378 16.55 57.6514 16.15 57.6514C15.87 57.6514 15.8 57.6158 15.8 57.4734Z" fill="#D6D6D6"/>
<path d="M14.9 57.3844C14.9 57.2064 15.12 57.153 15.44 57.2598C15.74 57.3666 15.62 57.5624 15.25 57.5624C14.97 57.5624 14.9 57.5268 14.9 57.3844Z" fill="#D6D6D6"/>
<path d="M63 57.2865C62.48 56.9662 61.83 56.4322 61.69 56.2097C61.61 56.0762 61.64 56.0495 61.9 56.0495C62.15 56.0495 62.2 56.0851 62.2 56.272C62.2 56.45 62.25 56.4945 62.46 56.4945C62.63 56.4945 62.74 56.5479 62.77 56.6725C62.8 56.7704 62.91 56.8505 63.01 56.8505C63.12 56.8505 63.2 56.895 63.2 56.9395C63.2 56.9928 63.27 57.0284 63.35 57.0284C63.45 57.0284 63.5 57.1174 63.5 57.2954C63.5 57.4467 63.49 57.5624 63.48 57.5624C63.46 57.5624 63.25 57.4378 63 57.2865Z" fill="#D6D6D6"/>
<path d="M21.68 57.4111C21.35 57.3399 21.48 57.1174 21.85 57.1174C22.13 57.1174 22.2 57.153 22.2 57.2954C22.2 57.4734 22.06 57.5001 21.68 57.4111Z" fill="#D6D6D6"/>
<path d="M100.48 57.4111C100.2 57.3488 100.26 57.1174 100.55 57.1174C100.73 57.1174 100.8 57.1619 100.8 57.2954C100.8 57.4734 100.78 57.4823 100.48 57.4111Z" fill="#D6D6D6"/>
<path d="M1.3 57.0373C1.3 56.7704 1.41 56.5835 1.56 56.5835C1.65 56.5835 1.7 56.6903 1.7 56.895C1.7 57.1441 1.66 57.2064 1.5 57.2064C1.37 57.2064 1.3 57.1441 1.3 57.0373Z" fill="#D6D6D6"/>
<path d="M60.8 56.717C60.8 56.5479 60.82 56.4055 60.85 56.4055C60.93 56.4055 61.39 56.8772 61.4 56.9661C61.4 57.0017 61.27 57.0284 61.1 57.0284C60.82 57.0284 60.8 57.0017 60.8 56.717Z" fill="#D6D6D6"/>
<path d="M98.78 56.9217C98.36 56.8238 98.26 56.5835 98.64 56.5835C99.16 56.5835 99.5 56.6903 99.5 56.8594C99.5 57.0462 99.36 57.0551 98.78 56.9217Z" fill="#D6D6D6"/>
<path d="M3.7 56.6814C3.7 56.5479 3.83 56.5034 4.39 56.4144C5.31 56.2809 5.5 56.2898 5.5 56.45C5.5 56.5212 5.48 56.5835 5.46 56.5835C5.44 56.5835 5.06 56.6458 4.63 56.717C3.66 56.8861 3.7 56.8861 3.7 56.6814Z" fill="#D6D6D6"/>
<path d="M16.58 56.6992C16.25 56.628 16.38 56.4055 16.75 56.4055C17.03 56.4055 17.1 56.4411 17.1 56.5835C17.1 56.7615 16.96 56.7882 16.58 56.6992Z" fill="#D6D6D6"/>
<path d="M97.68 56.6992C97.35 56.628 97.48 56.4055 97.85 56.4055C98.13 56.4055 98.2 56.4411 98.2 56.5835C98.2 56.7615 98.06 56.7882 97.68 56.6992Z" fill="#D6D6D6"/>
<path d="M86 56.4945C86 56.3521 86.07 56.3165 86.35 56.3165C86.75 56.3165 86.84 56.5301 86.48 56.6191C86.1 56.7081 86 56.6814 86 56.4945Z" fill="#D6D6D6"/>
<path d="M14.83 56.5212C14.55 56.4233 14.7 56.2275 15.05 56.2275C15.33 56.2275 15.4 56.2631 15.4 56.4055C15.4 56.5835 15.14 56.6369 14.83 56.5212Z" fill="#D6D6D6"/>
<path d="M40.3 56.2898C40.3 55.9872 40.32 55.9605 40.6 55.9605C40.86 55.9605 40.89 55.9872 40.81 56.1207C40.76 56.2008 40.62 56.3521 40.51 56.4411C40.3 56.6102 40.3 56.6102 40.3 56.2898Z" fill="#D6D6D6"/>
<path d="M7.5 56.2275C7.5 56.0851 7.57 56.0495 7.85 56.0495C8.25 56.0495 8.34 56.2631 7.98 56.3521C7.6 56.4411 7.5 56.4144 7.5 56.2275Z" fill="#D6D6D6"/>
<path d="M11.95 56.3254C11.79 56.183 11.94 56.0495 12.25 56.0495C12.53 56.0495 12.6 56.0851 12.6 56.2275C12.6 56.3699 12.54 56.4055 12.3 56.3877C12.13 56.3788 11.97 56.3521 11.95 56.3254Z" fill="#D6D6D6"/>
<path d="M41.1 55.035C41.1 54.7503 41.13 54.7147 41.35 54.7147C41.59 54.7147 41.6 54.7236 41.47 54.9994C41.28 55.4088 41.1 55.4266 41.1 55.035Z" fill="#D6D6D6"/>
<path d="M99.96 54.5723C99.87 53.9583 99.88 53.8248 100.04 53.8248C100.18 53.8248 100.22 53.9227 100.36 54.6524C100.41 54.9372 100.4 54.9816 100.22 54.9816C100.07 54.9816 100.01 54.9016 99.96 54.5723Z" fill="#D6D6D6"/>
<path d="M59.2 53.6023C59.2 53.4065 59.25 53.2908 59.33 53.2908C59.41 53.2908 59.51 53.4332 59.57 53.6023C59.68 53.896 59.67 53.9138 59.44 53.9138C59.23 53.9138 59.2 53.8693 59.2 53.6023Z" fill="#D6D6D6"/>
<path d="M29.3 53.3175C29.3 52.9972 29.3 52.9972 29.53 53.184C29.66 53.2908 29.82 53.3798 29.88 53.3798C29.95 53.3798 30 53.4421 30 53.5133C30 53.6023 29.89 53.6468 29.65 53.6468C29.31 53.6468 29.3 53.6379 29.3 53.3175Z" fill="#D6D6D6"/>
<path d="M62.7 53.3175C62.7 52.9972 62.7 52.9972 62.93 53.184C63.06 53.2908 63.22 53.3798 63.28 53.3798C63.35 53.3798 63.4 53.4421 63.4 53.5133C63.4 53.6023 63.29 53.6468 63.05 53.6468C62.71 53.6468 62.7 53.6379 62.7 53.3175Z" fill="#D6D6D6"/>
<path d="M71.6 53.4866C71.6 53.451 71.69 53.3709 71.8 53.3086C71.91 53.2463 72 53.1395 72 53.0684C72 52.9972 72.07 52.9349 72.15 52.9349C72.25 52.9349 72.3 53.0328 72.3 53.2463C72.3 53.54 72.28 53.5578 71.95 53.5578C71.76 53.5578 71.6 53.5311 71.6 53.4866Z" fill="#D6D6D6"/>
<path d="M41.9 52.8904C41.9 52.6412 41.94 52.5789 42.1 52.5789C42.31 52.5789 42.34 52.6679 42.24 53.0061C42.14 53.3264 41.9 53.2463 41.9 52.8904Z" fill="#D6D6D6"/>
<path d="M59 52.8904C59 52.5344 59.24 52.4543 59.34 52.7836C59.44 53.1128 59.41 53.2018 59.2 53.2018C59.04 53.2018 59 53.1395 59 52.8904Z" fill="#D6D6D6"/>
<path d="M2.1 52.8281C2.1 52.5611 2.23 52.3119 2.36 52.3119C2.45 52.3119 2.5 52.4187 2.5 52.6234C2.5 52.8726 2.46 52.9349 2.3 52.9349C2.19 52.9349 2.1 52.8815 2.1 52.8281Z" fill="#D6D6D6"/>
<path d="M30.2 52.8459C30.2 52.5166 30.44 51.867 30.56 51.867C30.71 51.867 30.73 52.0717 30.64 52.6056C30.59 52.8459 30.53 52.9349 30.39 52.9349C30.28 52.9349 30.2 52.8993 30.2 52.8459Z" fill="#D6D6D6"/>
<path d="M43.1 52.6501C43.1 52.3831 43.23 52.1339 43.36 52.1339C43.45 52.1339 43.5 52.2407 43.5 52.4454C43.5 52.6946 43.46 52.7569 43.3 52.7569C43.19 52.7569 43.1 52.7035 43.1 52.6501Z" fill="#D6D6D6"/>
<path d="M71.88 52.0005C71.73 51.511 71.73 51.511 71.95 51.511C72.12 51.511 72.19 51.5733 72.24 51.7869C72.42 52.5967 72.12 52.7747 71.88 52.0005Z" fill="#D6D6D6"/>
<path d="M37.3 51.9115C37.3 51.7157 37.35 51.6 37.43 51.6C37.51 51.6 37.61 51.7424 37.67 51.9115C37.78 52.2051 37.77 52.2229 37.54 52.2229C37.33 52.2229 37.3 52.1784 37.3 51.9115Z" fill="#D6D6D6"/>
<path d="M99.4 51.9115C99.4 51.5555 99.64 51.4754 99.74 51.8047C99.84 52.1339 99.81 52.2229 99.6 52.2229C99.44 52.2229 99.4 52.1606 99.4 51.9115Z" fill="#D6D6D6"/>
<path d="M2.3 52.0272C2.3 51.7602 2.43 51.511 2.56 51.511C2.65 51.511 2.7 51.6178 2.7 51.8225C2.7 52.0717 2.66 52.1339 2.5 52.1339C2.39 52.1339 2.3 52.0805 2.3 52.0272Z" fill="#D6D6D6"/>
<path d="M38.43 51.8225C38.32 51.5288 38.33 51.511 38.56 51.511C38.77 51.511 38.8 51.5555 38.8 51.8225C38.8 52.0183 38.75 52.1339 38.67 52.1339C38.59 52.1339 38.49 51.9916 38.43 51.8225Z" fill="#D6D6D6"/>
<path d="M42.1 51.8225C42.1 51.5733 42.14 51.511 42.3 51.511C42.51 51.511 42.54 51.6 42.44 51.9382C42.34 52.2585 42.1 52.1784 42.1 51.8225Z" fill="#D6D6D6"/>
<path d="M43.2 51.8759C43.2 51.6089 43.31 51.422 43.46 51.422C43.55 51.422 43.6 51.5288 43.6 51.7335C43.6 51.9827 43.56 52.045 43.4 52.045C43.27 52.045 43.2 51.9827 43.2 51.8759Z" fill="#D6D6D6"/>
<path d="M58.8 51.6445C58.8 51.2885 59.04 51.2084 59.14 51.5377C59.24 51.867 59.21 51.956 59 51.956C58.84 51.956 58.8 51.8937 58.8 51.6445Z" fill="#D6D6D6"/>
<path d="M36.7 50.9148C36.7 50.5944 36.7 50.5944 36.91 50.7635C37.02 50.8525 37.16 51.0038 37.21 51.0839C37.29 51.2173 37.26 51.244 37 51.244C36.72 51.244 36.7 51.2173 36.7 50.9148Z" fill="#D6D6D6"/>
<path d="M99.06 50.7902C98.96 50.3363 98.99 50.0872 99.14 50.0872C99.22 50.0872 99.32 50.2562 99.39 50.4787C99.54 51.0127 99.53 51.066 99.31 51.066C99.18 51.066 99.11 50.9771 99.06 50.7902Z" fill="#D6D6D6"/>
<path d="M30 50.5944C30 50.2918 30.02 50.2651 30.3 50.2651C30.56 50.2651 30.59 50.2918 30.51 50.4253C30.46 50.5054 30.32 50.6567 30.21 50.7457C30 50.9148 30 50.9148 30 50.5944Z" fill="#D6D6D6"/>
<path d="M63.4 50.5944C63.4 50.2918 63.42 50.2651 63.7 50.2651C63.96 50.2651 63.99 50.2918 63.91 50.4253C63.86 50.5054 63.72 50.6567 63.61 50.7457C63.4 50.9148 63.4 50.9148 63.4 50.5944Z" fill="#D6D6D6"/>
<path d="M31.5 50.4787C31.65 50.3185 32.33 49.9626 32.73 49.8291C32.98 49.7401 33 49.749 33 49.9537C33 50.1405 32.95 50.1761 32.7 50.1761C32.5 50.1761 32.4 50.2206 32.4 50.3096C32.4 50.3808 32.33 50.4431 32.25 50.4431C32.17 50.4431 32.1 50.4876 32.1 50.5321C32.1 50.5855 31.94 50.6211 31.74 50.6211C31.42 50.6211 31.39 50.6033 31.5 50.4787Z" fill="#D6D6D6"/>
<path d="M59.9 50.5143C59.9 50.2473 60.03 49.9982 60.16 49.9982C60.25 49.9982 60.3 50.105 60.3 50.3096C60.3 50.5588 60.26 50.6211 60.1 50.6211C59.99 50.6211 59.9 50.5677 59.9 50.5143Z" fill="#D6D6D6"/>
<path d="M64.96 50.4342C65.15 50.2473 65.66 49.9893 66.15 49.8202C66.37 49.7401 66.4 49.7579 66.4 49.9537C66.4 50.1405 66.35 50.1761 66.1 50.1761C65.9 50.1761 65.8 50.2206 65.8 50.3096C65.8 50.3808 65.73 50.4431 65.65 50.4431C65.57 50.4431 65.5 50.4876 65.5 50.5321C65.5 50.5855 65.34 50.6211 65.13 50.6211C64.77 50.6211 64.77 50.6211 64.96 50.4342Z" fill="#D6D6D6"/>
<path d="M34.8 49.9092C34.8 49.7134 35 49.6778 35.31 49.8202C35.61 49.9626 35.54 50.0872 35.15 50.0872C34.87 50.0872 34.8 50.0516 34.8 49.9092Z" fill="#D6D6D6"/>
<path d="M58.9 49.7757C58.9 49.5265 58.94 49.4642 59.1 49.4642C59.31 49.4642 59.34 49.5532 59.24 49.8914C59.14 50.2117 58.9 50.1316 58.9 49.7757Z" fill="#D6D6D6"/>
<path d="M68.2 49.9092C68.2 49.7134 68.4 49.6778 68.71 49.8202C69.01 49.9626 68.94 50.0872 68.55 50.0872C68.27 50.0872 68.2 50.0516 68.2 49.9092Z" fill="#D6D6D6"/>
<path d="M36.83 49.8024C36.41 49.5443 36.42 49.4642 36.85 49.4642C37.17 49.4642 37.2 49.482 37.2 49.7312C37.2 49.8825 37.19 49.9982 37.17 49.9982C37.16 49.9982 37 49.9092 36.83 49.8024Z" fill="#D6D6D6"/>
<path d="M70.18 49.7312C69.85 49.4731 69.85 49.4731 70.23 49.4642C70.58 49.4642 70.6 49.482 70.6 49.7312C70.6 49.8825 70.58 49.9982 70.55 49.9982C70.52 49.9982 70.36 49.8825 70.18 49.7312Z" fill="#D6D6D6"/>
<path d="M31.7 49.2417C31.7 49.046 31.74 49.0193 32.06 49.0193C32.5 49.0193 32.48 49.1794 32.02 49.3485C31.71 49.4642 31.7 49.4553 31.7 49.2417Z" fill="#D6D6D6"/>
<path d="M98.6 49.0638C98.6 48.868 98.65 48.7523 98.73 48.7523C98.81 48.7523 98.91 48.8947 98.97 49.0638C99.08 49.3574 99.07 49.3752 98.84 49.3752C98.63 49.3752 98.6 49.3307 98.6 49.0638Z" fill="#D6D6D6"/>
<path d="M35.53 49.1794C35.08 49.046 35.1 48.8413 35.55 48.8413C35.86 48.8413 35.9 48.868 35.9 49.0638C35.9 49.1883 35.89 49.2862 35.88 49.2773C35.86 49.2684 35.7 49.2239 35.53 49.1794Z" fill="#D6D6D6"/>
<path d="M68.93 49.1794C68.48 49.046 68.5 48.8413 68.95 48.8413C69.26 48.8413 69.3 48.868 69.3 49.0638C69.3 49.1883 69.29 49.2862 69.28 49.2773C69.26 49.2684 69.1 49.2239 68.93 49.1794Z" fill="#D6D6D6"/>
<path d="M60.3 48.8858C60.3 48.7612 60.62 48.3073 60.7 48.3073C60.76 48.3073 60.8 48.4497 60.8 48.6188C60.8 48.8947 60.77 48.9303 60.55 48.9303C60.41 48.9303 60.3 48.9125 60.3 48.8858Z" fill="#D6D6D6"/>
<path d="M42.76 48.4942C42.73 48.4586 42.66 48.3162 42.61 48.1827C42.51 47.9692 42.53 47.9514 42.75 47.9514C42.97 47.9514 43 47.987 43 48.2628C43 48.5565 42.88 48.6722 42.76 48.4942Z" fill="#D6D6D6"/>
<path d="M59.4 48.2628C59.4 47.9959 59.43 47.9514 59.64 47.9514C59.87 47.9514 59.88 47.9692 59.77 48.2628C59.71 48.4319 59.61 48.5743 59.53 48.5743C59.45 48.5743 59.4 48.4586 59.4 48.2628Z" fill="#D6D6D6"/>
<path d="M98.2 47.8179C98.2 47.4619 98.44 47.3818 98.54 47.7111C98.64 48.0404 98.61 48.1294 98.4 48.1294C98.24 48.1294 98.2 48.0671 98.2 47.8179Z" fill="#D6D6D6"/>
<path d="M41.85 47.0882C41.24 46.3139 41.25 46.3495 41.6 46.3495C41.88 46.3495 41.9 46.3762 41.9 46.661C41.9 46.9369 41.93 46.9725 42.15 46.9725C42.37 46.9725 42.4 47.0081 42.4 47.2839C42.4 47.453 42.37 47.5954 42.33 47.5954C42.28 47.5865 42.07 47.364 41.85 47.0882Z" fill="#D6D6D6"/>
<path d="M61.38 47.1683C61.5 47.0259 61.66 46.8568 61.75 46.7945C61.9 46.6877 61.91 46.7055 61.88 47.0259C61.85 47.3462 61.83 47.3729 61.51 47.3996C61.18 47.4263 61.18 47.4263 61.38 47.1683Z" fill="#D6D6D6"/>
<path d="M4.52 47.1327C4.55 47.0704 4.71 46.9725 4.88 46.9102C5.19 46.7945 5.2 46.8034 5.2 47.017C5.2 47.2127 5.16 47.2394 4.84 47.2394C4.61 47.2394 4.5 47.2038 4.52 47.1327Z" fill="#D6D6D6"/>
<path d="M97.2 47.017C97.2 46.8034 97.21 46.7945 97.52 46.9102C97.98 47.0793 98 47.2394 97.56 47.2394C97.24 47.2394 97.2 47.2127 97.2 47.017Z" fill="#D6D6D6"/>
<path d="M51.6 46.4919C51.6 46.3584 51.81 46.2606 52.11 46.2606C52.23 46.2606 52.3 46.3228 52.3 46.4385C52.3 46.5809 52.23 46.6165 51.95 46.6165C51.72 46.6165 51.6 46.572 51.6 46.4919Z" fill="#D6D6D6"/>
<path d="M53.1 46.2339C53.1 46.1627 53.26 46.0737 53.45 46.0203C53.78 45.9224 53.8 45.9313 53.8 46.136C53.8 46.3228 53.75 46.3495 53.45 46.3495C53.23 46.3495 53.1 46.3051 53.1 46.2339Z" fill="#D6D6D6"/>
<path d="M61.1 46.0648C61.1 45.6821 61.28 45.5308 61.7 45.5664C62.01 45.5931 62.01 45.5931 61.56 45.9936C61.1 46.3851 61.1 46.3851 61.1 46.0648Z" fill="#D6D6D6"/>
<path d="M6.9 46.1716C6.9 46.1004 7.41 45.8156 7.55 45.8156C7.58 45.8156 7.6 45.9135 7.6 46.0381C7.6 46.2339 7.56 46.2606 7.25 46.2606C7.06 46.2606 6.9 46.225 6.9 46.1716Z" fill="#D6D6D6"/>
<path d="M62.66 45.9847C62.76 45.8868 62.93 45.7622 63.02 45.7177C63.17 45.6465 63.2 45.6732 63.2 45.9046C63.2 46.1538 63.17 46.1716 62.83 46.1716C62.47 46.1716 62.47 46.1716 62.66 45.9847Z" fill="#D6D6D6"/>
<path d="M96.83 45.8601C96.4 45.6999 96.41 45.5486 96.85 45.5486C97.16 45.5486 97.2 45.5753 97.2 45.7711C97.2 45.8957 97.19 45.9936 97.18 45.9936C97.16 45.9847 97 45.9313 96.83 45.8601Z" fill="#D6D6D6"/>
<path d="M44.9 45.4151C44.9 45.1571 44.92 45.1482 45.3 45.3261C45.7 45.513 45.68 45.6376 45.25 45.6376C44.94 45.6376 44.9 45.6109 44.9 45.4151Z" fill="#D6D6D6"/>
<path d="M63.45 45.4596C63.55 45.3617 63.85 45.1571 64.12 45.0147C64.6 44.7477 64.6 44.7477 64.6 45.0147C64.6 45.255 64.57 45.2816 64.3 45.2816C64.07 45.2816 64 45.3172 64 45.4596C64 45.602 63.93 45.6376 63.63 45.6376C63.27 45.6376 63.27 45.6376 63.45 45.4596Z" fill="#D6D6D6"/>
<path d="M8.8 45.4685C8.8 45.3617 8.85 45.335 9.48 45.1126C10 44.9257 10 44.9257 10 45.1482C10 45.3261 9.95 45.3706 9.75 45.3706C9.61 45.3706 9.5 45.4151 9.5 45.4596C9.5 45.513 9.34 45.5486 9.15 45.5486C8.96 45.5486 8.8 45.513 8.8 45.4685Z" fill="#D6D6D6"/>
<path d="M52.7 45.2816C52.7 45.1393 52.77 45.1037 53.05 45.1037C53.45 45.1037 53.54 45.3172 53.18 45.4062C52.8 45.4952 52.7 45.4685 52.7 45.2816Z" fill="#D6D6D6"/>
<path d="M62.1 45.1927C62.1 44.9435 62.13 44.9257 62.47 44.9257C62.84 44.9257 62.84 44.9257 62.55 45.1927C62.39 45.3439 62.23 45.4596 62.18 45.4596C62.14 45.4596 62.1 45.3439 62.1 45.1927Z" fill="#D6D6D6"/>
<path d="M47.48 45.3083C47.15 45.2372 47.28 45.0147 47.65 45.0147C47.93 45.0147 48 45.0503 48 45.1927C48 45.3706 47.86 45.3973 47.48 45.3083Z" fill="#D6D6D6"/>
<path d="M94.63 45.0147C93.92 44.721 93.83 44.5697 94.35 44.5697C94.59 44.5697 94.7 44.6142 94.7 44.7032C94.7 44.7922 94.81 44.8367 95.05 44.8367C95.36 44.8367 95.4 44.8634 95.4 45.0592C95.4 45.3261 95.4 45.3261 94.63 45.0147Z" fill="#D6D6D6"/>
<path d="M46.33 44.9702C45.9 44.81 45.91 44.6587 46.35 44.6587C46.66 44.6587 46.7 44.6854 46.7 44.8812C46.7 45.0058 46.69 45.1037 46.68 45.1037C46.66 45.0948 46.5 45.0414 46.33 44.9702Z" fill="#D6D6D6"/>
<path d="M37.3 44.7477C37.3 44.4896 37.3 44.4896 37.65 44.6676C37.84 44.7744 38 44.8901 38 44.9346C38 44.9791 37.84 45.0147 37.65 45.0147C37.33 45.0147 37.3 44.9969 37.3 44.7477Z" fill="#D6D6D6"/>
<path d="M10.6 44.81C10.6 44.7388 10.76 44.6498 10.95 44.5964C11.28 44.4985 11.3 44.5074 11.3 44.7121C11.3 44.899 11.25 44.9257 10.95 44.9257C10.73 44.9257 10.6 44.8812 10.6 44.81Z" fill="#D6D6D6"/>
<path d="M62.9 44.6587C62.9 44.4807 62.95 44.3917 63.05 44.3917C63.13 44.3917 63.2 44.3561 63.2 44.3028C63.2 44.2583 63.36 44.2138 63.55 44.2138C64 44.2138 63.99 44.3205 63.53 44.5786C63.32 44.6943 63.09 44.8189 63.03 44.8634C62.93 44.9168 62.9 44.8634 62.9 44.6587Z" fill="#D6D6D6"/>
<path d="M91.1 44.7121C91.1 44.5074 91.12 44.4985 91.45 44.5964C91.64 44.6498 91.8 44.7388 91.8 44.81C91.8 44.8812 91.67 44.9257 91.45 44.9257C91.15 44.9257 91.1 44.899 91.1 44.7121Z" fill="#D6D6D6"/>
<path d="M43.1 44.6142C43.1 44.3561 43.12 44.3472 43.5 44.5252C43.9 44.7121 43.88 44.8367 43.45 44.8367C43.14 44.8367 43.1 44.81 43.1 44.6142Z" fill="#D6D6D6"/>
<path d="M5.1 44.5964C5.1 44.5519 5.26 44.4362 5.45 44.3205C5.8 44.1248 5.8 44.1248 5.8 44.3917C5.8 44.6409 5.77 44.6587 5.45 44.6587C5.26 44.6587 5.1 44.632 5.1 44.5964Z" fill="#D6D6D6"/>
<path d="M10.2 43.9023C10.2 43.7065 10.24 43.6798 10.56 43.6798C11 43.6798 10.98 43.84 10.52 44.0091C10.21 44.1248 10.2 44.1159 10.2 43.9023Z" fill="#D6D6D6"/>
<path d="M43.18 43.5641C42.92 43.4039 42.7 43.2527 42.7 43.2171C42.7 43.1726 42.86 43.1459 43.05 43.1459C43.24 43.1459 43.4 43.1904 43.4 43.2349C43.4 43.2883 43.47 43.3239 43.55 43.3239C43.65 43.3239 43.7 43.4128 43.7 43.5908C43.7 43.7421 43.69 43.8578 43.68 43.8489C43.66 43.8489 43.44 43.7154 43.18 43.5641Z" fill="#D6D6D6"/>
<path d="M67.12 43.751C67.15 43.6887 67.31 43.5908 67.48 43.5285C67.79 43.4128 67.8 43.4217 67.8 43.6353C67.8 43.8311 67.76 43.8578 67.44 43.8578C67.21 43.8578 67.1 43.8222 67.12 43.751Z" fill="#D6D6D6"/>
<path d="M6.8 43.6887C6.8 43.6175 8.02 42.9679 8.15 42.9679C8.18 42.9679 8.2 43.0658 8.2 43.1904C8.2 43.3862 8.16 43.4128 7.85 43.4128C7.57 43.4128 7.5 43.4484 7.5 43.5908C7.5 43.7332 7.43 43.7688 7.15 43.7688C6.96 43.7688 6.8 43.7332 6.8 43.6887Z" fill="#D6D6D6"/>
<path d="M87.3 43.5908C87.3 43.404 87.4 43.3773 87.78 43.4662C88.14 43.5552 88.05 43.7688 87.65 43.7688C87.37 43.7688 87.3 43.7332 87.3 43.5908Z" fill="#D6D6D6"/>
<path d="M90.73 43.6353C90.3 43.4751 90.31 43.3239 90.75 43.3239C91.06 43.3239 91.1 43.3505 91.1 43.5463C91.1 43.6709 91.09 43.7688 91.08 43.7688C91.06 43.7599 90.9 43.7065 90.73 43.6353Z" fill="#D6D6D6"/>
<path d="M5.3 43.2349C5.7 42.3361 5.79 42.167 5.89 42.167C5.95 42.167 6 42.3094 6 42.4784C6 42.6475 5.96 42.7899 5.9 42.7899C5.85 42.7899 5.8 42.87 5.8 42.9679C5.8 43.1459 5.34 43.6798 5.18 43.6798C5.14 43.6798 5.19 43.484 5.3 43.2349Z" fill="#D6D6D6"/>
<path d="M86.3 43.3239C86.3 43.137 86.4 43.1103 86.78 43.1993C87.14 43.2883 87.05 43.5018 86.65 43.5018C86.37 43.5018 86.3 43.4662 86.3 43.3239Z" fill="#D6D6D6"/>
<path d="M96.3 43.1103C96.3 42.9412 96.34 42.9056 96.49 42.9412C96.6 42.9679 96.7 43.0569 96.73 43.1548C96.77 43.2882 96.73 43.3238 96.54 43.3238C96.35 43.3238 96.3 43.2793 96.3 43.1103Z" fill="#D6D6D6"/>
<path d="M42.01 42.781C41.73 42.5852 41.5 42.3984 41.5 42.3806C41.5 42.3628 41.66 42.345 41.85 42.345C42.09 42.345 42.2 42.3895 42.2 42.4784C42.2 42.5496 42.29 42.6119 42.4 42.6119C42.56 42.6119 42.6 42.6742 42.6 42.8789C42.6 43.0302 42.58 43.1459 42.56 43.1459C42.54 43.1459 42.3 42.9857 42.01 42.781Z" fill="#D6D6D6"/>
<path d="M84.23 42.9946C84.08 42.9679 84 42.8878 84 42.781C84 42.5852 84.06 42.5763 84.66 42.7098C85.48 42.8967 85.1 43.1459 84.23 42.9946Z" fill="#D6D6D6"/>
<path d="M31.7 42.8789C31.7 42.8344 31.54 42.7899 31.35 42.7899C31.07 42.7899 31 42.7543 31 42.6119C31 42.3984 31.04 42.3984 31.8 42.5852C32.48 42.7454 32.62 42.9679 32.05 42.9679C31.86 42.9679 31.7 42.9323 31.7 42.8789Z" fill="#D6D6D6"/>
<path d="M40.2 42.692C40.2 42.425 40.2 42.425 40.5 42.6119C40.94 42.8878 40.95 42.9679 40.56 42.9679C40.23 42.9679 40.2 42.9501 40.2 42.692Z" fill="#D6D6D6"/>
<path d="M70 42.8522C70 42.781 70.16 42.692 70.35 42.6386C70.68 42.5407 70.7 42.5496 70.7 42.7543C70.7 42.9412 70.65 42.9679 70.35 42.9679C70.13 42.9679 70 42.9234 70 42.8522Z" fill="#D6D6D6"/>
<path d="M18.6 42.6653C18.6 42.5496 18.88 42.4339 19.18 42.4339C19.24 42.4339 19.3 42.514 19.3 42.6119C19.3 42.7543 19.23 42.7899 18.95 42.7899C18.72 42.7899 18.6 42.7454 18.6 42.6653Z" fill="#D6D6D6"/>
<path d="M58.2 42.5229C58.2 42.2738 58.23 42.256 58.57 42.256C58.93 42.256 58.93 42.256 58.74 42.4428C58.64 42.5407 58.47 42.6653 58.38 42.7098C58.23 42.781 58.2 42.7543 58.2 42.5229Z" fill="#D6D6D6"/>
<path d="M83.1 42.6119C83.1 42.425 83.2 42.3983 83.58 42.4873C83.94 42.5763 83.85 42.7899 83.45 42.7899C83.17 42.7899 83.1 42.7543 83.1 42.6119Z" fill="#D6D6D6"/>
<path d="M87.58 42.7276C87.25 42.6564 87.38 42.4339 87.75 42.4339C88.03 42.4339 88.1 42.4695 88.1 42.6119C88.1 42.7899 87.96 42.8166 87.58 42.7276Z" fill="#D6D6D6"/>
<path d="M29.8 42.345C29.8 42.1581 29.9 42.1314 30.28 42.2204C30.64 42.3094 30.55 42.5229 30.15 42.5229C29.87 42.5229 29.8 42.4873 29.8 42.345Z" fill="#D6D6D6"/>
<path d="M71.9 42.3983C71.9 42.2827 72.18 42.167 72.48 42.167C72.54 42.167 72.6 42.2471 72.6 42.345C72.6 42.4873 72.53 42.5229 72.25 42.5229C72.02 42.5229 71.9 42.4784 71.9 42.3983Z" fill="#D6D6D6"/>
<path d="M7.5 42.2115C7.5 42.0157 7.54 41.989 7.85 41.989C8.28 41.989 8.29 42.078 7.91 42.2827C7.53 42.4784 7.5 42.4784 7.5 42.2115Z" fill="#D6D6D6"/>
<path d="M86.18 42.3717C85.85 42.3005 85.98 42.078 86.35 42.078C86.63 42.078 86.7 42.1136 86.7 42.256C86.7 42.434 86.56 42.4606 86.18 42.3717Z" fill="#D6D6D6"/>
<path d="M38.9 41.9445C38.9 41.6775 38.93 41.6775 39.31 41.8733C39.69 42.078 39.68 42.167 39.25 42.167C38.94 42.167 38.9 42.1403 38.9 41.9445Z" fill="#D6D6D6"/>
<path d="M93.2 41.9534C93.2 41.7487 93.22 41.7398 93.55 41.8377C93.74 41.8911 93.9 41.9801 93.9 42.0513C93.9 42.1225 93.77 42.167 93.55 42.167C93.25 42.167 93.2 42.1403 93.2 41.9534Z" fill="#D6D6D6"/>
<path d="M17.2 41.9089C17.2 41.7398 17.54 41.633 18.06 41.633C18.47 41.633 18.33 41.8733 17.86 41.9801C17.26 42.1136 17.2 42.1047 17.2 41.9089Z" fill="#D6D6D6"/>
<path d="M32.28 42.0157C31.95 41.9445 32.08 41.722 32.45 41.722C32.73 41.722 32.8 41.7576 32.8 41.9C32.8 42.078 32.66 42.1047 32.28 42.0157Z" fill="#D6D6D6"/>
<path d="M40.63 41.8733C40.21 41.6241 40.22 41.544 40.65 41.544C40.97 41.544 41 41.5618 41 41.811C41 41.9623 40.99 42.078 40.98 42.0691C40.96 42.0691 40.8 41.9801 40.63 41.8733Z" fill="#D6D6D6"/>
<path d="M61.3 41.9178C61.3 41.8555 61.47 41.7576 61.93 41.5618C61.97 41.544 62 41.633 62 41.7576C62 41.9623 61.96 41.989 61.65 41.989C61.46 41.989 61.3 41.9534 61.3 41.9178Z" fill="#D6D6D6"/>
<path d="M83.78 41.8377C83.45 41.7665 83.58 41.544 83.95 41.544C84.23 41.544 84.3 41.5796 84.3 41.722C84.3 41.9 84.16 41.9267 83.78 41.8377Z" fill="#D6D6D6"/>
<path d="M30.88 41.6597C30.55 41.5885 30.68 41.3661 31.05 41.3661C31.33 41.3661 31.4 41.4017 31.4 41.544C31.4 41.722 31.26 41.7487 30.88 41.6597Z" fill="#D6D6D6"/>
<path d="M71 41.544C71 41.4017 71.07 41.3661 71.35 41.3661C71.75 41.3661 71.84 41.5796 71.48 41.6686C71.1 41.7576 71 41.7309 71 41.544Z" fill="#D6D6D6"/>
<path d="M94.88 41.5796C94.5 41.4016 94.53 41.2771 94.95 41.2771C95.26 41.2771 95.3 41.3038 95.3 41.4995C95.3 41.7576 95.25 41.7665 94.88 41.5796Z" fill="#D6D6D6"/>
<path d="M82.28 41.5707C81.95 41.4995 82.08 41.2771 82.45 41.2771C82.73 41.2771 82.8 41.3127 82.8 41.455C82.8 41.633 82.66 41.6597 82.28 41.5707Z" fill="#D6D6D6"/>
<path d="M27.23 41.1258C26.95 41.0279 27.1 40.8321 27.45 40.8321C27.73 40.8321 27.8 40.8677 27.8 41.0101C27.8 41.1881 27.54 41.2415 27.23 41.1258Z" fill="#D6D6D6"/>
<path d="M10.7 40.7876C10.7 40.5918 10.74 40.5651 11.06 40.5651C11.5 40.5651 11.48 40.7253 11.02 40.8944C10.71 41.0101 10.7 41.0012 10.7 40.7876Z" fill="#D6D6D6"/>
<path d="M11.6 40.4317C11.6 40.2359 11.64 40.2092 11.95 40.2092C12.19 40.2092 12.3 40.1647 12.3 40.0757C12.3 39.9956 12.39 39.9422 12.55 39.9422C12.69 39.9422 12.8 39.9066 12.8 39.8532C12.8 39.8087 12.96 39.7642 13.16 39.7642C13.72 39.7642 13.53 39.9333 12.55 40.3071C12.05 40.5028 11.64 40.6541 11.63 40.6541C11.61 40.6541 11.6 40.5562 11.6 40.4317Z" fill="#D6D6D6"/>
<path d="M38.08 40.4049C37.71 40.2092 37.73 40.1202 38.15 40.1202C38.46 40.1202 38.5 40.1469 38.5 40.3427C38.5 40.6007 38.44 40.6096 38.08 40.4049Z" fill="#D6D6D6"/>
<path d="M91.38 40.5029C91.05 40.4317 91.18 40.2092 91.55 40.2092C91.83 40.2092 91.9 40.2448 91.9 40.3872C91.9 40.5651 91.76 40.5918 91.38 40.5029Z" fill="#D6D6D6"/>
<path d="M95 40.2448C95 39.8532 95.18 39.871 95.37 40.2804C95.5 40.5562 95.49 40.5651 95.25 40.5651C95.03 40.5651 95 40.5295 95 40.2448Z" fill="#D6D6D6"/>
<path d="M62.8 40.2537C62.8 40.0579 62.84 40.0312 63.16 40.0312C63.6 40.0312 63.58 40.1914 63.12 40.3605C62.81 40.4761 62.8 40.4672 62.8 40.2537Z" fill="#D6D6D6"/>
<path d="M85.4 40.1202C85.4 39.9333 85.5 39.9066 85.88 39.9956C86.24 40.0846 86.15 40.2982 85.75 40.2982C85.47 40.2982 85.4 40.2626 85.4 40.1202Z" fill="#D6D6D6"/>
<path d="M90.38 40.2359C90.05 40.1647 90.18 39.9422 90.55 39.9422C90.83 39.9422 90.9 39.9778 90.9 40.1202C90.9 40.2982 90.76 40.3249 90.38 40.2359Z" fill="#D6D6D6"/>
<path d="M17 39.7286C17 39.6129 17.28 39.4973 17.58 39.4973C17.64 39.4973 17.7 39.5773 17.7 39.6752C17.7 39.8176 17.63 39.8532 17.35 39.8532C17.12 39.8532 17 39.8087 17 39.7286Z" fill="#D6D6D6"/>
<path d="M7.1 39.5328C7.36 38.9188 7.6 38.7764 7.6 39.2214C7.6 39.6129 7.5 39.7642 7.24 39.7642C7.03 39.7642 7.01 39.7375 7.1 39.5328Z" fill="#D6D6D6"/>
<path d="M87.83 39.6574C87.37 39.5684 87.22 39.3193 87.63 39.3193C88.21 39.3193 88.6 39.435 88.6 39.5951C88.6 39.782 88.48 39.7909 87.83 39.6574Z" fill="#D6D6D6"/>
<path d="M36.13 39.5417C35.7 39.3816 35.71 39.2303 36.15 39.2303C36.46 39.2303 36.5 39.257 36.5 39.4527C36.5 39.5773 36.49 39.6752 36.48 39.6752C36.46 39.6663 36.3 39.6129 36.13 39.5417Z" fill="#D6D6D6"/>
<path d="M80 39.4973C80 39.3193 80.22 39.2659 80.54 39.3727C80.84 39.4795 80.72 39.6752 80.35 39.6752C80.07 39.6752 80 39.6396 80 39.4973Z" fill="#D6D6D6"/>
<path d="M73.7 39.4349C73.7 39.3193 73.79 39.2659 74.05 39.257C74.34 39.2303 74.4 39.257 74.4 39.4083C74.4 39.5506 74.33 39.5862 74.05 39.5862C73.78 39.5862 73.7 39.5506 73.7 39.4349Z" fill="#D6D6D6"/>
<path d="M78.1 39.4083C78.1 39.257 78.16 39.2303 78.45 39.257C78.71 39.2659 78.8 39.3193 78.8 39.4349C78.8 39.5506 78.72 39.5862 78.45 39.5862C78.17 39.5862 78.1 39.5506 78.1 39.4083Z" fill="#D6D6D6"/>
<path d="M19.9 39.1057C19.9 38.99 20.18 38.8743 20.48 38.8743C20.54 38.8743 20.6 38.9544 20.6 39.0523C20.6 39.1947 20.53 39.2303 20.25 39.2303C20.02 39.2303 19.9 39.1858 19.9 39.1057Z" fill="#D6D6D6"/>
<path d="M84.75 39.1324C84.48 39.0879 84.1 39.0345 83.93 39.0078C83.73 38.9722 83.6 38.901 83.6 38.8298C83.6 38.6696 83.71 38.6696 84.78 38.8031C85.47 38.8832 85.6 38.9277 85.6 39.0701C85.6 39.2481 85.52 39.257 84.75 39.1324Z" fill="#D6D6D6"/>
<path d="M16.6 38.8209C16.6 38.634 16.65 38.6073 16.95 38.6073C17.17 38.6073 17.3 38.6518 17.3 38.723C17.3 38.7942 17.14 38.8832 16.95 38.9366C16.62 39.0345 16.6 39.0256 16.6 38.8209Z" fill="#D6D6D6"/>
<path d="M21 38.9277C21 38.812 21.28 38.6963 21.58 38.6963C21.64 38.6963 21.7 38.7764 21.7 38.8743C21.7 39.0167 21.63 39.0523 21.35 39.0523C21.12 39.0523 21 39.0078 21 38.9277Z" fill="#D6D6D6"/>
<path d="M30.2 38.8743C30.2 38.6874 30.3 38.6607 30.68 38.7497C31.04 38.8387 30.95 39.0523 30.55 39.0523C30.27 39.0523 30.2 39.0167 30.2 38.8743Z" fill="#D6D6D6"/>
<path d="M68.8 38.8832C68.8 38.7675 68.86 38.6963 68.98 38.6963C69.07 38.6963 69.39 38.6696 69.68 38.6429C70.11 38.5895 70.2 38.6073 70.2 38.723C70.2 38.8565 70.08 38.901 69.23 39.0078C68.84 39.0612 68.8 39.0523 68.8 38.8832Z" fill="#D6D6D6"/>
<path d="M33.08 38.5806C32.34 38.376 32.17 38.1624 32.75 38.1624C32.94 38.1624 33.1 38.2069 33.1 38.2514C33.1 38.3048 33.26 38.3404 33.45 38.3404C33.76 38.3404 33.8 38.3671 33.8 38.5628C33.8 38.6874 33.79 38.7764 33.78 38.7764C33.76 38.7675 33.45 38.6785 33.08 38.5806Z" fill="#D6D6D6"/>
<path d="M81.18 38.723C80.85 38.6518 80.98 38.4294 81.35 38.4294C81.63 38.4294 81.7 38.4649 81.7 38.6073C81.7 38.7853 81.56 38.812 81.18 38.723Z" fill="#D6D6D6"/>
<path d="M25.5 38.545C25.5 38.4383 25.59 38.376 25.78 38.3671C26.24 38.3315 26.7 38.4294 26.7 38.5628C26.7 38.6696 26.56 38.6963 26.1 38.6963C25.6 38.6963 25.5 38.6696 25.5 38.545Z" fill="#D6D6D6"/>
<path d="M72.2 38.5183C72.2 38.376 72.27 38.3404 72.55 38.3404C72.95 38.3404 73.04 38.5539 72.68 38.6429C72.3 38.7319 72.2 38.7052 72.2 38.5183Z" fill="#D6D6D6"/>
<path d="M79.95 38.6162C79.79 38.4738 79.94 38.3404 80.25 38.3404C80.53 38.3404 80.6 38.376 80.6 38.5183C80.6 38.6607 80.54 38.6963 80.3 38.6785C80.13 38.6696 79.97 38.6429 79.95 38.6162Z" fill="#D6D6D6"/>
<path d="M74 38.4294C74 38.287 74.07 38.2514 74.35 38.2514C74.62 38.2514 74.7 38.287 74.7 38.4116C74.7 38.5183 74.61 38.5717 74.35 38.5806C74.06 38.6073 74 38.5806 74 38.4294Z" fill="#D6D6D6"/>
<path d="M77.8 38.4116C77.8 38.287 77.88 38.2514 78.15 38.2514C78.43 38.2514 78.5 38.287 78.5 38.4294C78.5 38.5806 78.44 38.6073 78.15 38.5806C77.89 38.5717 77.8 38.5183 77.8 38.4116Z" fill="#D6D6D6"/>
<path d="M29.83 37.9221C29.55 37.8242 29.7 37.6284 30.05 37.6284C30.33 37.6284 30.4 37.664 30.4 37.8064C30.4 37.9844 30.14 38.0378 29.83 37.9221Z" fill="#D6D6D6"/>
<path d="M29.03 37.8331C28.75 37.7352 28.9 37.5394 29.25 37.5394C29.53 37.5394 29.6 37.575 29.6 37.7174C29.6 37.8954 29.34 37.9488 29.03 37.8331Z" fill="#D6D6D6"/>
<path d="M23.4 37.6284C23.4 37.4861 23.47 37.4505 23.75 37.4505C24.15 37.4505 24.24 37.664 23.88 37.753C23.5 37.842 23.4 37.8153 23.4 37.6284Z" fill="#D6D6D6"/>
<path d="M8.3 37.3971C8.3 37.2903 8.64 36.8275 8.72 36.8275C8.76 36.8275 8.8 36.9699 8.8 37.139C8.8 37.4149 8.77 37.4505 8.55 37.4505C8.41 37.4505 8.3 37.4238 8.3 37.3971Z" fill="#D6D6D6"/>
<path d="M92.9 36.5161C92.9 36.1334 93 36.1245 93.23 36.4627C93.45 36.8008 93.45 36.8275 93.15 36.8275C92.93 36.8275 92.9 36.7919 92.9 36.5161Z" fill="#D6D6D6"/>
<path d="M92.4 35.7151C92.4 35.3325 92.5 35.3236 92.73 35.6617C92.95 35.9999 92.95 36.0266 92.65 36.0266C92.43 36.0266 92.4 35.991 92.4 35.7151Z" fill="#D6D6D6"/>
<path d="M10.82 33.4014C11.11 33.0098 11.2 33.0098 11.2 33.4014C11.2 33.6862 11.18 33.7128 10.9 33.7128C10.6 33.7128 10.6 33.7128 10.82 33.4014Z" fill="#D6D6D6"/>
<path d="M90.5 33.0454C90.5 32.9742 90.46 32.9119 90.4 32.9119C90.35 32.9119 90.3 32.7695 90.3 32.6005C90.3 32.4314 90.33 32.289 90.38 32.289C90.45 32.289 91 33.0187 91 33.1255C91 33.1522 90.89 33.1789 90.75 33.1789C90.59 33.1789 90.5 33.1255 90.5 33.0454Z" fill="#D6D6D6"/>
<path d="M89.3 31.2567C89.3 30.9096 89.39 30.9185 89.7 31.3101C89.91 31.5771 89.91 31.5771 89.61 31.5771C89.32 31.5771 89.3 31.5504 89.3 31.2567Z" fill="#D6D6D6"/>
<path d="M11.97 30.3312C11.93 30.1977 11.97 30.1532 12.11 30.1532C12.28 30.1532 12.29 30.1799 12.2 30.3312C12.14 30.4291 12.08 30.5092 12.06 30.5092C12.04 30.5092 12 30.4291 11.97 30.3312Z" fill="#D6D6D6"/>
<path d="M13.91 29.3968C14.09 29.1743 14.32 28.934 14.42 28.845C14.59 28.7116 14.6 28.7205 14.6 29.023C14.6 29.29 14.56 29.3523 14.4 29.3523C14.25 29.3523 14.2 29.4146 14.2 29.5748C14.2 29.7617 14.15 29.7972 13.89 29.7972C13.59 29.7972 13.59 29.7972 13.91 29.3968Z" fill="#D6D6D6"/>
<path d="M89.22 29.5125C89.02 29.3345 89.07 28.9963 89.3 28.9963C89.51 28.9963 89.55 29.1654 89.42 29.468C89.36 29.5926 89.32 29.6015 89.22 29.5125Z" fill="#D6D6D6"/>
<path d="M86.5 27.9551C86.5 27.6348 86.5 27.6348 86.71 27.8038C86.82 27.8928 86.96 28.0441 87.01 28.1242C87.09 28.2577 87.06 28.2844 86.8 28.2844C86.52 28.2844 86.5 28.2577 86.5 27.9551Z" fill="#D6D6D6"/>
<path d="M11.36 27.6437C11.26 27.3055 11.29 27.2165 11.5 27.2165C11.66 27.2165 11.7 27.2788 11.7 27.528C11.7 27.8839 11.46 27.964 11.36 27.6437Z" fill="#D6D6D6"/>
<path d="M16.1 27.0385C16.41 26.647 16.5 26.6381 16.5 26.9851C16.5 27.2788 16.48 27.3055 16.19 27.3055C15.89 27.3055 15.89 27.3055 16.1 27.0385Z" fill="#D6D6D6"/>
<path d="M86.33 26.3711C86.02 26.0596 86.02 26.0596 86.36 26.0596C86.68 26.0596 86.7 26.0774 86.7 26.3711C86.7 26.5402 86.69 26.6826 86.67 26.6826C86.65 26.6826 86.5 26.5402 86.33 26.3711Z" fill="#D6D6D6"/>
<path d="M83.8 25.4278C83.8 25.1608 83.8 25.1608 84.1 25.3477C84.54 25.6236 84.55 25.7037 84.16 25.7037C83.83 25.7037 83.8 25.6859 83.8 25.4278Z" fill="#D6D6D6"/>
<path d="M18.47 24.9028C18.65 24.7515 18.81 24.6358 18.84 24.6358C18.88 24.6358 18.9 24.7604 18.9 24.9028C18.9 25.1519 18.88 25.1697 18.53 25.1697C18.15 25.1697 18.15 25.1697 18.47 24.9028Z" fill="#D6D6D6"/>
<path d="M84.2 24.4934C83.85 24.1908 83.85 24.1908 84.23 24.1908C84.59 24.1908 84.6 24.1997 84.6 24.5023C84.6 24.6714 84.59 24.8138 84.58 24.8049C84.56 24.796 84.39 24.6625 84.2 24.4934Z" fill="#D6D6D6"/>
<path d="M82.5 24.4133C82.5 24.2264 82.45 24.1908 82.2 24.1908C81.93 24.1908 81.9 24.1641 81.9 23.9239C81.9 23.5946 82 23.6302 82.75 24.2353C83.25 24.6358 83.25 24.6358 82.88 24.6358C82.54 24.6358 82.5 24.6091 82.5 24.4133Z" fill="#D6D6D6"/>
<path d="M17.8 24.1997C17.8 23.9416 17.83 23.9239 18.16 23.9239C18.55 23.9239 18.54 24.0039 18.1 24.2798C17.8 24.4667 17.8 24.4667 17.8 24.1997Z" fill="#D6D6D6"/>
<path d="M19.26 24.2709C19.36 24.173 19.53 24.0484 19.62 24.0039C19.77 23.9328 19.8 23.9594 19.8 24.1908C19.8 24.44 19.77 24.4578 19.43 24.4578C19.07 24.4578 19.07 24.4578 19.26 24.2709Z" fill="#D6D6D6"/>
<path d="M83.45 23.9061C83.4 23.8616 83.13 23.6391 82.85 23.4255C82.35 23.0428 82.35 23.0428 82.73 23.0339C83.06 23.0339 83.1 23.0606 83.1 23.2564C83.1 23.4433 83.15 23.4789 83.4 23.4789C83.67 23.4789 83.7 23.5056 83.7 23.7459C83.7 24.0217 83.62 24.0751 83.45 23.9061Z" fill="#D6D6D6"/>
<path d="M18.6 23.5679C18.6 23.3187 18.63 23.3009 18.97 23.3009C19.33 23.3009 19.33 23.3009 19.14 23.4878C19.04 23.5857 18.87 23.7103 18.78 23.7548C18.63 23.826 18.6 23.7993 18.6 23.5679Z" fill="#D6D6D6"/>
<path d="M80.9 23.203C80.9 22.9361 80.9 22.9361 81.2 23.1229C81.64 23.3988 81.65 23.4789 81.26 23.4789C80.93 23.4789 80.9 23.4611 80.9 23.203Z" fill="#D6D6D6"/>
<path d="M20.71 23.2475C20.78 23.1674 21.03 22.9895 21.27 22.8471C21.7 22.5801 21.7 22.5801 21.7 22.856C21.7 23.0606 21.66 23.1229 21.5 23.1229C21.39 23.1229 21.3 23.1852 21.3 23.2564C21.3 23.3543 21.19 23.3899 20.94 23.3899C20.62 23.3899 20.59 23.3721 20.71 23.2475Z" fill="#D6D6D6"/>
<path d="M90.5 22.8115C90.5 22.5623 90.54 22.5 90.7 22.5C90.91 22.5 90.94 22.589 90.84 22.9272C90.74 23.2475 90.5 23.1674 90.5 22.8115Z" fill="#D6D6D6"/>
<path d="M10.36 22.7492C10.26 22.411 10.29 22.322 10.5 22.322C10.66 22.322 10.7 22.3843 10.7 22.6335C10.7 22.9895 10.46 23.0695 10.36 22.7492Z" fill="#D6D6D6"/>
<path d="M79.8 22.4911C79.8 22.2241 79.8 22.2241 80.1 22.411C80.54 22.6869 80.55 22.767 80.16 22.767C79.83 22.767 79.8 22.7492 79.8 22.4911Z" fill="#D6D6D6"/>
<path d="M22.05 22.411C22.08 22.3665 22.24 22.2419 22.4 22.144C22.7 21.9571 22.7 21.9572 22.7 22.2241C22.7 22.4822 22.67 22.5 22.34 22.5C22.14 22.5 22.01 22.4644 22.05 22.411Z" fill="#D6D6D6"/>
<path d="M80.05 21.5389C79.55 21.2096 79.55 21.2096 79.9 21.1829C80.09 21.1651 80.26 21.1918 80.28 21.2452C80.3 21.2986 80.38 21.3431 80.46 21.3431C80.55 21.3431 80.6 21.441 80.6 21.6101C80.6 21.7614 80.59 21.8771 80.58 21.8771C80.56 21.8771 80.33 21.7258 80.05 21.5389Z" fill="#D6D6D6"/>
<path d="M23.2 21.7169C23.2 21.6457 23.72 21.3431 23.84 21.3431C23.87 21.3431 23.9 21.441 23.9 21.5656C23.9 21.7614 23.86 21.7881 23.55 21.7881C23.36 21.7881 23.2 21.7525 23.2 21.7169Z" fill="#D6D6D6"/>
<path d="M77.7 21.2986C77.7 21.0317 77.73 21.0317 78.11 21.2274C78.49 21.4321 78.48 21.5211 78.05 21.5211C77.74 21.5211 77.7 21.4944 77.7 21.2986Z" fill="#D6D6D6"/>
<path d="M24 21.263C24 21.2185 24.27 21.0405 24.6 20.8715C25.2 20.5511 25.2 20.5511 25.2 20.8092C25.2 21.0316 25.16 21.0761 24.95 21.0761C24.79 21.0761 24.7 21.1295 24.7 21.2096C24.7 21.2986 24.59 21.3431 24.35 21.3431C24.16 21.3431 24 21.3075 24 21.263Z" fill="#D6D6D6"/>
<path d="M23 20.6757C23 20.4799 23.04 20.4532 23.35 20.4532C23.78 20.4532 23.8 20.5778 23.4 20.7647C23.02 20.9427 23 20.9338 23 20.6757Z" fill="#D6D6D6"/>
<path d="M25.4 19.4298C25.4 19.234 25.44 19.2073 25.75 19.2073C26.18 19.2073 26.19 19.2963 25.81 19.501C25.43 19.6968 25.4 19.6968 25.4 19.4298Z" fill="#D6D6D6"/>
<path d="M9.76 19.2785C9.66 18.9404 9.69 18.8514 9.9 18.8514C10.06 18.8514 10.1 18.9137 10.1 19.1628C10.1 19.5188 9.86 19.5989 9.76 19.2785Z" fill="#D6D6D6"/>
<path d="M73.73 18.3619C73.3 18.2017 73.31 18.0505 73.75 18.0505C74.06 18.0505 74.1 18.0772 74.1 18.2729C74.1 18.3975 74.09 18.4954 74.08 18.4954C74.06 18.4865 73.9 18.4331 73.73 18.3619Z" fill="#D6D6D6"/>
<path d="M21.24 18.1928C21.21 18.1216 21.2 17.9704 21.22 17.8547C21.25 17.6589 21.26 17.6589 21.65 17.9793C22.05 18.3174 22.05 18.3174 21.67 18.3174C21.44 18.3174 21.27 18.2729 21.24 18.1928Z" fill="#D6D6D6"/>
<path d="M72.83 18.006C72.4 17.8458 72.41 17.6945 72.85 17.6945C73.16 17.6945 73.2 17.7212 73.2 17.917C73.2 18.0416 73.19 18.1394 73.18 18.1394C73.16 18.1305 73 18.0772 72.83 18.006Z" fill="#D6D6D6"/>
<path d="M33.22 17.4987C33.25 17.4364 33.48 17.3118 33.73 17.2317C34.2 17.0716 34.2 17.0716 34.2 17.2851C34.2 17.5076 33.99 17.6055 33.47 17.6055C33.28 17.6055 33.2 17.5699 33.22 17.4987Z" fill="#D6D6D6"/>
<path d="M21.65 17.036C21.25 16.7245 21.25 16.7245 21.63 16.7156C22.03 16.7156 22.14 16.8224 22.08 17.1605C22.05 17.3385 22.03 17.3385 21.65 17.036Z" fill="#D6D6D6"/>
<path d="M31.9 16.8491C31.9 16.6533 31.94 16.6266 32.26 16.6266C32.7 16.6266 32.68 16.7868 32.22 16.9559C31.91 17.0716 31.9 17.0627 31.9 16.8491Z" fill="#D6D6D6"/>
<path d="M78.4 16.6622C78.4 16.3774 78.42 16.3596 78.75 16.3596C78.94 16.3596 79.1 16.3685 79.1 16.3863C79.1 16.4041 78.94 16.5376 78.75 16.6889C78.4 16.9648 78.4 16.9648 78.4 16.6622Z" fill="#D6D6D6"/>
<path d="M19.6 16.591C19.6 16.2884 19.6 16.2884 19.95 16.5643C20.14 16.7156 20.3 16.8491 20.3 16.8669C20.3 16.8847 20.14 16.8936 19.95 16.8936C19.62 16.8936 19.6 16.8758 19.6 16.591Z" fill="#D6D6D6"/>
<path d="M35.8 16.769C35.8 16.6533 36.08 16.5376 36.38 16.5376C36.44 16.5376 36.5 16.6177 36.5 16.7156C36.5 16.858 36.43 16.8936 36.15 16.8936C35.92 16.8936 35.8 16.8491 35.8 16.769Z" fill="#D6D6D6"/>
<path d="M68.93 16.6889C68.23 16.4753 68.1 16.2706 68.65 16.2706C68.84 16.2706 69 16.3151 69 16.3596C69 16.413 69.14 16.4486 69.3 16.4486C69.55 16.4486 69.6 16.4842 69.6 16.6711C69.6 16.7957 69.59 16.8847 69.58 16.8847C69.56 16.8758 69.27 16.7868 68.93 16.6889Z" fill="#D6D6D6"/>
<path d="M65.2 16.6266C65.2 16.4397 65.3 16.413 65.68 16.502C66.04 16.591 65.95 16.8046 65.55 16.8046C65.27 16.8046 65.2 16.769 65.2 16.6266Z" fill="#D6D6D6"/>
<path d="M9.36 16.3952C9.24 16.1105 9.3 15.9147 9.5 15.9147C9.66 15.9147 9.7 15.977 9.7 16.2261C9.7 16.5554 9.48 16.6622 9.36 16.3952Z" fill="#D6D6D6"/>
<path d="M33.7 16.2706C33.7 16.1283 33.77 16.0927 34.05 16.0927C34.45 16.0927 34.54 16.3062 34.18 16.3952C33.8 16.4842 33.7 16.4575 33.7 16.2706Z" fill="#D6D6D6"/>
<path d="M34.6 16.0037C34.6 15.6922 34.64 15.6833 34.91 15.9058C35.12 16.0749 35.1 16.1105 34.78 16.2083C34.63 16.2528 34.6 16.2172 34.6 16.0037Z" fill="#D6D6D6"/>
<path d="M80.4 16.2439C80.4 16.2261 80.56 16.0927 80.75 15.9414C81.1 15.6655 81.1 15.6655 81.1 15.9681C81.1 16.2528 81.08 16.2706 80.75 16.2706C80.56 16.2706 80.4 16.2617 80.4 16.2439Z" fill="#D6D6D6"/>
<path d="M20.1 15.7723C19.75 15.4697 19.75 15.4697 20.13 15.4697C20.49 15.4697 20.5 15.4786 20.5 15.7812C20.5 15.9503 20.49 16.0927 20.48 16.0838C20.46 16.0749 20.29 15.9414 20.1 15.7723Z" fill="#D6D6D6"/>
<path d="M40.6 15.7901C40.6 15.6744 40.88 15.5587 41.18 15.5587C41.24 15.5587 41.3 15.6388 41.3 15.7367C41.3 15.8791 41.23 15.9147 40.95 15.9147C40.72 15.9147 40.6 15.8702 40.6 15.7901Z" fill="#D6D6D6"/>
<path d="M60.2 15.6477C60.2 15.4608 60.3 15.4341 60.68 15.5231C61.04 15.6121 60.95 15.8257 60.55 15.8257C60.27 15.8257 60.2 15.7901 60.2 15.6477Z" fill="#D6D6D6"/>
<path d="M58.9 15.4697C58.9 15.2828 59 15.2561 59.38 15.3451C59.74 15.4341 59.65 15.6477 59.25 15.6477C58.97 15.6477 58.9 15.6121 58.9 15.4697Z" fill="#D6D6D6"/>
<path d="M9.26 15.4163C9.14 15.1316 9.2 14.9358 9.4 14.9358C9.56 14.9358 9.6 14.9981 9.6 15.2472C9.6 15.5765 9.38 15.6833 9.26 15.4163Z" fill="#D6D6D6"/>
<path d="M33.7 15.2917C33.7 15.0426 33.67 15.0248 33.35 15.0248C33.03 15.0248 33 15.007 33 14.7578C33 14.5086 32.97 14.4908 32.65 14.4908C32.32 14.4908 32.3 14.473 32.3 14.215C32.3 13.9658 32.32 13.948 32.48 14.0548C32.82 14.295 34.4 15.5053 34.4 15.532C34.4 15.5498 34.24 15.5587 34.05 15.5587C33.73 15.5587 33.7 15.5409 33.7 15.2917Z" fill="#D6D6D6"/>
<path d="M58.1 15.3807C58.1 15.2028 58.32 15.1494 58.64 15.2561C58.94 15.3629 58.82 15.5587 58.45 15.5587C58.17 15.5587 58.1 15.5231 58.1 15.3807Z" fill="#D6D6D6"/>
<path d="M57.3 15.2917C57.3 15.1138 57.52 15.0604 57.84 15.1672C58.14 15.2739 58.02 15.4697 57.65 15.4697C57.37 15.4697 57.3 15.4341 57.3 15.2917Z" fill="#D6D6D6"/>
<path d="M56.5 15.2028C56.5 15.0159 56.6 14.9892 56.98 15.0782C57.34 15.1672 57.25 15.3807 56.85 15.3807C56.57 15.3807 56.5 15.3451 56.5 15.2028Z" fill="#D6D6D6"/>
<path d="M80.3 15.0604C80.3 14.7756 80.32 14.7578 80.65 14.7578C80.84 14.7578 81 14.7667 81 14.7845C81 14.8023 80.84 14.9358 80.65 15.0871C80.3 15.3629 80.3 15.3629 80.3 15.0604Z" fill="#D6D6D6"/>
<path d="M46 15.1672C46 15.0515 46.28 14.9358 46.58 14.9358C46.64 14.9358 46.7 15.0159 46.7 15.1138C46.7 15.2561 46.63 15.2917 46.35 15.2917C46.12 15.2917 46 15.2472 46 15.1672Z" fill="#D6D6D6"/>
<path d="M55.4 15.1138C55.4 14.9358 55.62 14.8824 55.94 14.9892C56.24 15.096 56.12 15.2917 55.75 15.2917C55.47 15.2917 55.4 15.2561 55.4 15.1138Z" fill="#D6D6D6"/>
<path d="M53.7 15.0159C53.7 14.8646 53.75 14.8379 54.02 14.8735C54.23 14.8913 54.36 14.9625 54.38 15.0515C54.41 15.1672 54.34 15.2027 54.06 15.2027C53.76 15.2027 53.7 15.1672 53.7 15.0159Z" fill="#D6D6D6"/>
<path d="M91.8 14.8023C91.8 14.5531 91.84 14.4908 92 14.4908C92.2 14.4908 92.26 14.6866 92.14 14.9714C92.02 15.2383 91.8 15.1316 91.8 14.8023Z" fill="#D6D6D6"/>
<path d="M18.85 14.7489C18.55 14.4908 18.55 14.4908 18.93 14.4908C19.28 14.4908 19.3 14.5086 19.3 14.7578C19.3 15.0871 19.23 15.0871 18.85 14.7489Z" fill="#D6D6D6"/>
<path d="M68.55 14.3484C68.72 14.215 69 14.0014 69.17 13.859C69.35 13.7166 69.52 13.6009 69.55 13.6009C69.58 13.6009 69.6 13.7255 69.6 13.8679C69.6 14.1082 69.57 14.1349 69.3 14.1349C69.05 14.1349 69 14.1705 69 14.3573C69 14.5531 68.96 14.5798 68.63 14.5798C68.25 14.5709 68.25 14.5709 68.55 14.3484Z" fill="#D6D6D6"/>
<path d="M16.6 14.2239C16.6 13.9925 16.63 13.9658 16.78 14.037C16.87 14.0815 17.04 14.2061 17.14 14.3039C17.33 14.4908 17.33 14.4908 16.97 14.4908C16.63 14.4908 16.6 14.473 16.6 14.2239Z" fill="#D6D6D6"/>
<path d="M17.95 14.037C17.65 13.7789 17.65 13.7789 18.03 13.7789C18.38 13.7789 18.4 13.7967 18.4 14.0459C18.4 14.3751 18.33 14.3751 17.95 14.037Z" fill="#D6D6D6"/>
<path d="M81.6 13.9569C81.6 13.7077 81.62 13.6899 81.98 13.6899C82.35 13.6899 82.35 13.6899 82.03 13.9569C81.85 14.1082 81.69 14.2239 81.66 14.2239C81.62 14.2239 81.6 14.1082 81.6 13.9569Z" fill="#D6D6D6"/>
<path d="M83.17 13.9569C83.35 13.8056 83.51 13.6899 83.54 13.6899C83.58 13.6899 83.6 13.8145 83.6 13.9569C83.6 14.2061 83.58 14.2239 83.23 14.2239C82.85 14.2239 82.85 14.2239 83.17 13.9569Z" fill="#D6D6D6"/>
<path d="M91.9 13.7344C91.9 13.4852 91.94 13.4229 92.1 13.4229C92.31 13.4229 92.34 13.5119 92.24 13.8501C92.14 14.1705 91.9 14.0904 91.9 13.7344Z" fill="#D6D6D6"/>
<path d="M9.13 13.6454C9.1 13.3873 9.13 13.3339 9.3 13.3339C9.46 13.3339 9.5 13.3962 9.5 13.6454C9.5 13.8857 9.46 13.9569 9.33 13.9569C9.2 13.9569 9.14 13.8768 9.13 13.6454Z" fill="#D6D6D6"/>
<path d="M31.5 13.6009C31.5 13.3517 31.47 13.3339 31.15 13.3339C30.84 13.3339 30.8 13.3072 30.8 13.1115C30.8 12.9246 30.75 12.889 30.5 12.889C30.25 12.889 30.2 12.8534 30.2 12.6665C30.2 12.4796 30.15 12.444 29.9 12.444C29.65 12.444 29.6 12.4084 29.6 12.2216C29.6 12.0347 29.55 11.9991 29.3 11.9991C29.05 11.9991 29 11.9635 29 11.7766C29 11.5897 28.95 11.5541 28.7 11.5541C28.45 11.5541 28.4 11.5185 28.4 11.3316C28.4 11.1448 28.35 11.1092 28.1 11.1092C27.85 11.1092 27.8 11.0736 27.8 10.8867C27.8 10.6998 27.75 10.6642 27.5 10.6642C27.27 10.6642 27.2 10.6286 27.2 10.4862C27.2 10.3527 27.13 10.3083 26.95 10.3083C26.77 10.3083 26.7 10.2638 26.7 10.1303C26.7 9.99679 26.63 9.95229 26.45 9.95229C26.24 9.95229 26.2 9.90779 26.2 9.68532C26.2 9.47174 26.23 9.42724 26.34 9.48064C26.48 9.55183 31.05 12.9246 31.85 13.5475C32.25 13.859 32.25 13.859 31.88 13.8679C31.52 13.8679 31.5 13.8501 31.5 13.6009Z" fill="#D6D6D6"/>
<path d="M15.5 13.414C15.5 13.1471 15.5 13.1471 15.8 13.3339C16.24 13.6098 16.25 13.6899 15.86 13.6899C15.53 13.6899 15.5 13.6721 15.5 13.414Z" fill="#D6D6D6"/>
<path d="M69.86 13.325C69.96 13.2272 70.13 13.1026 70.22 13.0581C70.37 12.9869 70.4 13.0136 70.4 13.245C70.4 13.4941 70.37 13.5119 70.03 13.5119C69.67 13.5119 69.67 13.5119 69.86 13.325Z" fill="#D6D6D6"/>
<path d="M84.35 13.067C84.38 13.0225 84.54 12.8979 84.7 12.8C85 12.6131 85 12.6131 85 12.8801C85 13.1382 84.97 13.156 84.64 13.156C84.44 13.156 84.31 13.1204 84.35 13.067Z" fill="#D6D6D6"/>
<path d="M9.13 12.4262C9.15 12.2394 9.23 12.1237 9.33 12.1059C9.46 12.0792 9.5 12.1415 9.5 12.3906C9.5 12.6576 9.46 12.711 9.29 12.711C9.12 12.711 9.09 12.6665 9.13 12.4262Z" fill="#D6D6D6"/>
<path d="M71.16 12.3461C71.26 12.2483 71.43 12.1237 71.52 12.0792C71.67 12.008 71.7 12.0347 71.7 12.2661C71.7 12.5152 71.67 12.533 71.33 12.533C70.97 12.533 70.97 12.533 71.16 12.3461Z" fill="#D6D6D6"/>
<path d="M84 12.097C84 11.8389 84.03 11.8211 84.36 11.8211C84.75 11.8211 84.74 11.9012 84.3 12.1771C84 12.3639 84 12.3639 84 12.097Z" fill="#D6D6D6"/>
<path d="M85.66 12.0792C85.76 11.9813 85.93 11.8567 86.02 11.8122C86.17 11.741 86.2 11.7677 86.2 11.9991C86.2 12.2483 86.17 12.2661 85.83 12.2661C85.47 12.2661 85.47 12.2661 85.66 12.0792Z" fill="#D6D6D6"/>
<path d="M11.7 11.0647C11.7 10.7977 11.73 10.7977 12.11 10.9935C12.49 11.1982 12.48 11.2872 12.05 11.2872C11.74 11.2872 11.7 11.2605 11.7 11.0647Z" fill="#D6D6D6"/>
<path d="M73.75 10.4417C74.5 9.8366 74.6 9.80101 74.6 10.1303C74.6 10.3705 74.57 10.3972 74.3 10.3972C74.05 10.3972 74 10.4328 74 10.6197C74 10.8155 73.96 10.8422 73.63 10.8422C73.25 10.8422 73.25 10.8422 73.75 10.4417Z" fill="#D6D6D6"/>
<path d="M12.68 10.5218C12.3 10.3439 12.33 10.2193 12.75 10.2193C13.06 10.2193 13.1 10.246 13.1 10.4417C13.1 10.6998 13.05 10.7087 12.68 10.5218Z" fill="#D6D6D6"/>
<path d="M88.4 10.3261C88.4 10.2549 88.92 9.95229 89.04 9.95229C89.07 9.95229 89.1 10.0502 89.1 10.1748C89.1 10.3706 89.06 10.3972 88.75 10.3972C88.56 10.3972 88.4 10.3617 88.4 10.3261Z" fill="#D6D6D6"/>
<path d="M87.1 9.95229C87.1 9.70312 87.13 9.68532 87.45 9.68532C87.89 9.68532 87.89 9.76541 87.45 10.0235C87.1 10.2193 87.1 10.2193 87.1 9.95229Z" fill="#D6D6D6"/>
<path d="M91.8 9.8188C91.8 9.46284 92.04 9.38275 92.14 9.71201C92.24 10.0413 92.21 10.1303 92 10.1303C91.84 10.1303 91.8 10.068 91.8 9.8188Z" fill="#D6D6D6"/>
<path d="M9.2 9.63193C9.2 9.44505 9.25 9.41835 9.55 9.41835C9.77 9.41835 9.9 9.46284 9.9 9.53404C9.9 9.60523 9.74 9.69422 9.55 9.74762C9.22 9.84551 9.2 9.83661 9.2 9.63193Z" fill="#D6D6D6"/>
<path d="M88.5 9.10688C88.5 8.9111 88.54 8.8844 88.85 8.8844C89.28 8.8844 89.29 8.97339 88.91 9.17807C88.53 9.37385 88.5 9.37385 88.5 9.10688Z" fill="#D6D6D6"/>
<path d="M25.1 8.8844C25.1 8.65303 25.13 8.62633 25.28 8.69752C25.37 8.74202 25.54 8.8666 25.64 8.96449C25.83 9.15138 25.83 9.15138 25.47 9.15138C25.13 9.15138 25.1 9.13358 25.1 8.8844Z" fill="#D6D6D6"/>
<path d="M92.46 8.79541C92.31 8.64413 92.14 8.52844 92.09 8.52844C92.04 8.52844 92 8.49284 92 8.43945C92 8.39495 92.15 8.35046 92.34 8.35046C92.65 8.35046 92.68 8.37715 92.75 8.67082C92.78 8.84881 92.8 9.00899 92.78 9.02679C92.76 9.04459 92.62 8.9378 92.46 8.79541Z" fill="#D6D6D6"/>
<path d="M76.45 8.52844C76.48 8.48394 76.64 8.35936 76.8 8.26147C77.1 8.07459 77.1 8.07459 77.1 8.34156C77.1 8.59963 77.07 8.61743 76.74 8.61743C76.54 8.61743 76.41 8.58183 76.45 8.52844Z" fill="#D6D6D6"/>
<path d="M24.1 8.17248C24.1 7.9411 24.13 7.9144 24.28 7.9856C24.37 8.03009 24.54 8.15468 24.64 8.25257C24.83 8.43945 24.83 8.43945 24.47 8.43945C24.13 8.43945 24.1 8.42165 24.1 8.17248Z" fill="#D6D6D6"/>
<path d="M23.2 7.54954C23.2 7.31817 23.23 7.29147 23.38 7.36266C23.47 7.40716 23.64 7.53174 23.74 7.62963C23.93 7.81651 23.93 7.81651 23.57 7.81651C23.23 7.81651 23.2 7.79872 23.2 7.54954Z" fill="#D6D6D6"/>
<path d="M77.96 7.45165C78.06 7.35376 78.23 7.22917 78.32 7.18468C78.47 7.11349 78.5 7.14018 78.5 7.37156C78.5 7.62073 78.47 7.63853 78.13 7.63853C77.77 7.63853 77.77 7.63853 77.96 7.45165Z" fill="#D6D6D6"/>
<path d="M8.73 7.08679C8.75 6.89991 8.83 6.78422 8.93 6.76642C9.06 6.73973 9.1 6.80202 9.1 7.05119C9.1 7.31816 9.06 7.37156 8.89 7.37156C8.72 7.37156 8.69 7.32706 8.73 7.08679Z" fill="#D6D6D6"/>
<path d="M92.3 6.79312C92.3 6.43716 92.54 6.35706 92.64 6.68633C92.74 7.0156 92.71 7.10459 92.5 7.10459C92.34 7.10459 92.3 7.04229 92.3 6.79312Z" fill="#D6D6D6"/>
<path d="M21.1 6.11678C21.1 5.84981 21.1 5.84981 21.4 6.03669C21.84 6.31257 21.85 6.39266 21.46 6.39266C21.13 6.39266 21.1 6.37486 21.1 6.11678Z" fill="#D6D6D6"/>
<path d="M80.3 5.88541C80.3 5.84092 80.46 5.72523 80.65 5.60954C81 5.41376 81 5.41376 81 5.68074C81 5.92991 80.97 5.94771 80.65 5.94771C80.46 5.94771 80.3 5.92101 80.3 5.88541Z" fill="#D6D6D6"/>
<path d="M20.3 5.72523C20.3 5.65404 20.21 5.59174 20.1 5.59174C19.94 5.59174 19.9 5.52945 19.9 5.32477C19.9 5.0489 19.9 5.0489 20.45 5.38707C20.75 5.57395 20.99 5.75193 21 5.79642C21 5.83202 20.84 5.85872 20.65 5.85872C20.41 5.85872 20.3 5.81422 20.3 5.72523Z" fill="#D6D6D6"/>
<path d="M92.1 5.0133C92.1 4.68403 92.32 4.57725 92.44 4.84422C92.56 5.12899 92.5 5.32477 92.3 5.32477C92.14 5.32477 92.1 5.26247 92.1 5.0133Z" fill="#D6D6D6"/>
<path d="M81.4 5.17349C81.41 5.12899 81.72 4.91541 82.1 4.67514C82.8 4.25688 82.8 4.25688 82.8 4.52385C82.8 4.77303 82.77 4.79083 82.45 4.79083C82.14 4.79083 82.1 4.81752 82.1 5.0133C82.1 5.20908 82.06 5.23578 81.75 5.23578C81.56 5.23578 81.4 5.20908 81.4 5.17349Z" fill="#D6D6D6"/>
<path d="M91.86 3.83862C91.77 3.30468 91.79 3.1 91.94 3.1C92.03 3.1 92.12 3.26908 92.19 3.54495C92.33 4.14119 92.33 4.16789 92.11 4.16789C91.97 4.16789 91.91 4.0789 91.86 3.83862Z" fill="#D6D6D6"/>
<path d="M83.4 3.94541C83.4 3.88312 84.21 3.36697 84.32 3.36697C84.36 3.36697 84.4 3.46486 84.4 3.58945C84.4 3.73184 84.34 3.81193 84.25 3.81193C84.17 3.81193 84.1 3.85642 84.1 3.90092C84.1 3.95431 83.94 3.98991 83.75 3.98991C83.56 3.98991 83.4 3.97211 83.4 3.94541Z" fill="#D6D6D6"/>
<path d="M15 2.43257C15 2.17449 15.02 2.1656 15.4 2.34358C15.8 2.53046 15.78 2.65505 15.35 2.65505C15.04 2.65505 15 2.62835 15 2.43257Z" fill="#D6D6D6"/>
<path d="M86.8 2.04991C86.8 1.97872 87.32 1.67615 87.44 1.67615C87.47 1.67615 87.5 1.77404 87.5 1.89862C87.5 2.0944 87.46 2.1211 87.15 2.1211C86.96 2.1211 86.8 2.08551 86.8 2.04991Z" fill="#D6D6D6"/>
<path d="M12 1.09771C12 0.884128 12.01 0.875228 12.32 0.990916C12.78 1.16 12.8 1.32018 12.36 1.32018C12.04 1.32018 12 1.29349 12 1.09771Z" fill="#D6D6D6"/>
<path d="M89 1.1422C89 1.03541 89.33 0.875229 89.54 0.875229C89.63 0.875229 89.7 0.955321 89.7 1.05321C89.7 1.1956 89.63 1.23119 89.35 1.23119C89.16 1.23119 89 1.1956 89 1.1422Z" fill="#D6D6D6"/>
</svg>
