<svg width="100" height="84" viewBox="0 0 100 84" fill="none" xmlns="http://www.w3.org/2000/svg">
<path d="M49.48 83.6634C49.15 83.5922 49.28 83.3697 49.65 83.3697C49.93 83.3697 50 83.4053 50 83.5477C50 83.7257 49.86 83.7524 49.48 83.6634Z" fill="#4A4A4A"/>
<path d="M48 83.5922C47.92 83.5744 47.68 83.5388 47.48 83.5032C47.24 83.4676 47.1 83.4053 47.1 83.3252C47.1 83.1739 47.21 83.165 47.98 83.2451C48.4 83.2985 48.5 83.3341 48.5 83.4676C48.5 83.6278 48.38 83.6545 48 83.5922Z" fill="#4A4A4A"/>
<path d="M51.6 83.4587C51.6 83.3163 51.67 83.2807 51.95 83.2807C52.35 83.2807 52.44 83.4943 52.08 83.5833C51.7 83.6723 51.6 83.6456 51.6 83.4587Z" fill="#4A4A4A"/>
<path d="M48 82.0882C48 81.8836 48.02 81.8747 48.35 81.9726C48.54 82.026 48.7 82.1149 48.7 82.1861C48.7 82.2573 48.57 82.3018 48.35 82.3018C48.05 82.3018 48 82.2751 48 82.0882Z" fill="#4A4A4A"/>
<path d="M56.8 82.0794C56.8 81.8836 56.84 81.8569 57.15 81.8569C57.58 81.8569 57.59 81.9459 57.21 82.1506C56.83 82.3463 56.8 82.3463 56.8 82.0794Z" fill="#4A4A4A"/>
<path d="M42.43 81.9014C41.76 81.5009 41.7 81.4119 42.14 81.4119C42.34 81.4119 42.5 81.4564 42.5 81.5009C42.5 81.5543 42.57 81.5899 42.65 81.5899C42.73 81.5899 42.8 81.6344 42.8 81.6789C42.8 81.7323 42.87 81.7679 42.95 81.7679C43.04 81.7679 43.1 81.848 43.1 81.9904C43.1 82.115 43.07 82.2129 43.02 82.2129C42.98 82.2129 42.71 82.0705 42.43 81.9014Z" fill="#4A4A4A"/>
<path d="M52.6 82.0349C52.6 81.9815 52.72 81.8925 52.88 81.8302C53.03 81.7768 53.18 81.6878 53.22 81.6344C53.26 81.5899 53.3 81.6789 53.3 81.8391C53.3 82.1061 53.28 82.1239 52.95 82.1239C52.76 82.1239 52.6 82.0794 52.6 82.0349Z" fill="#4A4A4A"/>
<path d="M46 81.2873C46 81.1628 46.05 81.0382 46.1 81.0115C46.16 80.9848 46.2 80.9937 46.2 81.0382C46.2 81.0827 46.31 81.1717 46.45 81.234C46.8 81.403 46.76 81.5009 46.35 81.5009C46.05 81.5009 46 81.4742 46 81.2873Z" fill="#4A4A4A"/>
<path d="M49.08 81.3496C48.75 81.2784 48.88 81.056 49.25 81.056C49.53 81.056 49.6 81.0916 49.6 81.2339C49.6 81.4119 49.46 81.4386 49.08 81.3496Z" fill="#4A4A4A"/>
<path d="M50.78 81.3496C50.45 81.2784 50.58 81.056 50.95 81.056C51.23 81.056 51.3 81.0916 51.3 81.2339C51.3 81.4119 51.16 81.4386 50.78 81.3496Z" fill="#4A4A4A"/>
<path d="M51.73 81.3496C51.51 81.2784 51.58 80.9937 51.83 80.9314C52.14 80.8602 52.6 80.8691 52.6 80.9492C52.6 81.0738 52.45 81.1894 52.25 81.2161C52.14 81.2339 52.01 81.2784 51.95 81.3229C51.9 81.3585 51.79 81.3674 51.73 81.3496Z" fill="#4A4A4A"/>
<path d="M48.33 81.145C48.2 81.1005 48.1 81.0916 48.1 81.1272C48.1 81.2073 47.9 80.9403 47.9 80.8602C47.9 80.8157 48.06 80.789 48.25 80.789C48.56 80.789 48.6 80.8157 48.6 81.0115C48.6 81.1361 48.59 81.234 48.58 81.2251C48.56 81.2251 48.45 81.1895 48.33 81.145Z" fill="#4A4A4A"/>
<path d="M45 80.878C45 80.8335 44.93 80.789 44.85 80.789C44.74 80.789 44.7 80.6911 44.7 80.4597C44.7 80.1839 44.72 80.1572 44.83 80.2728C45.02 80.4775 45.57 80.789 45.64 80.7267C45.67 80.7 45.7 80.7356 45.7 80.8157C45.7 80.9314 45.61 80.967 45.35 80.967C45.16 80.967 45 80.9314 45 80.878Z" fill="#4A4A4A"/>
<path d="M55.5 80.6733C55.5 80.6555 55.66 80.522 55.85 80.3707C56.2 80.0949 56.2 80.0949 56.2 80.3974C56.2 80.6822 56.18 80.7 55.85 80.7C55.66 80.7 55.5 80.6911 55.5 80.6733Z" fill="#4A4A4A"/>
<path d="M59.2 80.3885C59.2 80.1038 59.23 80.0771 59.49 80.0771C59.76 80.0771 59.77 80.0949 59.67 80.2906C59.61 80.4063 59.47 80.5487 59.38 80.6021C59.22 80.6911 59.2 80.6644 59.2 80.3885Z" fill="#4A4A4A"/>
<path d="M46.26 80.2461C46.16 80.1572 46.03 80.1038 45.99 80.1305C45.94 80.1571 45.9 80.1127 45.9 80.0415C45.9 79.9347 46 79.8991 46.25 79.8991C46.55 79.8991 46.6 79.9258 46.6 80.1127C46.6 80.4063 46.49 80.4419 46.26 80.2461Z" fill="#4A4A4A"/>
<path d="M43.9 79.9792C43.9 79.7567 43.93 79.7211 44.03 79.8012C44.11 79.8546 44.19 79.8813 44.21 79.8635C44.23 79.8457 44.33 79.9258 44.43 80.0415C44.61 80.255 44.61 80.2551 44.25 80.2551C43.92 80.2551 43.9 80.2373 43.9 79.9792Z" fill="#4A4A4A"/>
<path d="M56.56 79.8546C56.65 79.73 56.75 79.6499 56.78 79.6766C56.81 79.6944 56.89 79.6766 56.97 79.6232C57.07 79.5431 57.1 79.5787 57.1 79.8012C57.1 80.0593 57.08 80.0771 56.75 80.0771C56.4 80.0771 56.4 80.0771 56.56 79.8546Z" fill="#4A4A4A"/>
<path d="M45.56 79.8457C45.52 79.7656 45.47 79.7211 45.44 79.7478C45.4 79.7745 45.29 79.7122 45.19 79.6054C45.09 79.4986 45.01 79.4452 45 79.4808C45 79.5253 44.88 79.4274 44.73 79.2761C44.59 79.1249 44.36 78.9558 44.22 78.9113C44.08 78.8668 44 78.8045 44.03 78.7689C44.07 78.7422 43.96 78.5731 43.79 78.3951C43.31 77.879 43.29 77.8523 43.37 77.8523C43.41 77.8523 43.39 77.8078 43.33 77.7544C43.17 77.612 43.28 77.4073 43.51 77.4073C43.65 77.4073 43.7 77.4696 43.7 77.6743C43.7 77.8523 43.75 77.9413 43.85 77.9413C43.95 77.9413 44 78.0303 44 78.1994C44 78.4218 44.04 78.4663 44.28 78.493C44.5 78.5108 44.56 78.5642 44.58 78.8134C44.61 79.0715 44.64 79.0982 44.96 79.0982C45.2 79.0982 45.3 79.1427 45.3 79.2317C45.3 79.3028 45.39 79.3651 45.5 79.3651C45.66 79.3651 45.7 79.4274 45.7 79.6766C45.7 80.0148 45.66 80.0682 45.56 79.8457Z" fill="#4A4A4A"/>
<path d="M55.2 79.552C55.2 79.3206 55.24 79.2762 55.45 79.2762C55.63 79.2762 55.7 79.2317 55.7 79.0982C55.7 78.9558 55.77 78.9202 56.05 78.9202C56.41 78.9202 56.41 78.9202 56.23 79.1338C56.13 79.2495 56.02 79.3295 55.98 79.3118C55.95 79.294 55.82 79.3829 55.71 79.5075C55.59 79.641 55.5 79.7122 55.5 79.6766C55.5 79.641 55.43 79.6588 55.35 79.7211C55.22 79.819 55.2 79.7923 55.2 79.552Z" fill="#4A4A4A"/>
<path d="M57.49 79.1605C57.55 79.0893 57.58 79.0181 57.56 79.0003C57.54 78.9825 57.63 78.8935 57.76 78.8045C58 78.6443 58 78.6443 58 78.9647C58 79.2583 57.98 79.2761 57.69 79.2761C57.44 79.2761 57.4 79.2494 57.49 79.1605Z" fill="#4A4A4A"/>
<path d="M56.7 78.3684C56.7 78.0659 56.73 78.0303 56.95 78.0303C57.26 78.0303 57.27 78.1282 56.95 78.4485C56.71 78.6977 56.71 78.6977 56.7 78.3684Z" fill="#4A4A4A"/>
<path d="M61.1 77.8345C61.1 77.4518 61.22 77.2916 61.49 77.3361C61.7 77.3628 61.7 77.3628 61.49 77.7455C61.24 78.1904 61.1 78.226 61.1 77.8345Z" fill="#4A4A4A"/>
<path d="M58.28 77.9235C58.22 77.7722 58.43 77.4073 58.58 77.4073C58.65 77.4073 58.7 77.5319 58.7 77.7188C58.7 77.968 58.66 78.0303 58.51 78.0303C58.4 78.0303 58.3 77.9858 58.28 77.9235Z" fill="#4A4A4A"/>
<path d="M42.1 76.7399C42.1 76.4907 42.14 76.4284 42.29 76.4284C42.53 76.4284 42.59 76.5797 42.46 76.8467C42.29 77.1582 42.1 77.0959 42.1 76.7399Z" fill="#4A4A4A"/>
<path d="M38.1 76.8734C38.02 76.8289 37.98 76.7844 38.02 76.7844C38.06 76.7844 38.05 76.6865 38 76.5619C37.91 76.3662 37.93 76.3395 38.15 76.3395C38.37 76.3395 38.4 76.3751 38.4 76.6509C38.4 76.9802 38.35 77.0158 38.1 76.8734Z" fill="#4A4A4A"/>
<path d="M43.63 76.3128C43.78 76.028 44.1 76.0191 44.1 76.3039C44.1 76.4818 44.05 76.5174 43.81 76.5174C43.54 76.5174 43.53 76.4996 43.63 76.3128Z" fill="#4A4A4A"/>
<path d="M42.5 75.939C42.5 75.6542 42.52 75.6275 42.8 75.6275C43.06 75.6275 43.1 75.6008 43.1 75.3694C43.1 75.1826 43.16 75.1025 43.33 75.058C43.64 74.9868 44.1 74.9957 44.1 75.0758C44.1 75.1737 43.94 75.3783 43.86 75.3694C43.62 75.3427 43.48 75.3872 43.2 75.5919C43.03 75.7254 42.91 75.85 42.94 75.8678C42.98 75.9123 42.64 76.2504 42.55 76.2504C42.52 76.2504 42.5 76.1081 42.5 75.939Z" fill="#4A4A4A"/>
<path d="M55.6 75.9924C55.6 75.7788 55.77 75.7254 56.07 75.8411C56.42 75.9924 56.35 76.1615 55.95 76.1615C55.67 76.1615 55.6 76.1259 55.6 75.9924Z" fill="#4A4A4A"/>
<path d="M45.2 75.8055C45.2 75.6987 45.25 75.6542 45.34 75.6809C45.42 75.7076 45.51 75.6898 45.54 75.6364C45.64 75.494 45.9 75.6275 45.9 75.8144C45.9 75.9479 45.83 75.9835 45.55 75.9835C45.27 75.9835 45.2 75.9479 45.2 75.8055Z" fill="#4A4A4A"/>
<path d="M52.8 75.4495C52.8 75.2626 52.9 75.2359 53.28 75.3249C53.64 75.4139 53.55 75.6275 53.15 75.6275C52.87 75.6275 52.8 75.5919 52.8 75.4495Z" fill="#4A4A4A"/>
<path d="M56.08 75.0669C55.34 74.8622 55.17 74.6486 55.75 74.6486C55.94 74.6486 56.1 74.6931 56.1 74.7376C56.1 74.791 56.26 74.8266 56.45 74.8266C56.76 74.8266 56.8 74.8533 56.8 75.0491C56.8 75.1737 56.79 75.2627 56.78 75.2627C56.76 75.2538 56.45 75.1648 56.08 75.0669Z" fill="#4A4A4A"/>
<path d="M54.83 74.791C54.48 74.6486 54.55 74.4706 54.95 74.4706C55.23 74.4706 55.3 74.5062 55.3 74.6397C55.3 74.8533 55.12 74.9067 54.83 74.791Z" fill="#4A4A4A"/>
<path d="M53.78 74.5863C53.45 74.5151 53.58 74.2927 53.95 74.2927C54.23 74.2927 54.3 74.3283 54.3 74.4706C54.3 74.6486 54.16 74.6753 53.78 74.5863Z" fill="#4A4A4A"/>
<path d="M47.1 74.3816C47.1 74.2393 47.17 74.2037 47.45 74.2037C47.85 74.2037 47.94 74.4172 47.58 74.5062C47.2 74.5952 47.1 74.5685 47.1 74.3816Z" fill="#4A4A4A"/>
<path d="M62.7 73.1803C62.7 72.94 62.74 72.8688 62.88 72.8688C63.15 72.8688 63.19 72.94 63.07 73.2337C62.91 73.5985 62.7 73.5629 62.7 73.1803Z" fill="#4A4A4A"/>
<path d="M36.96 72.762C36.86 72.4238 36.89 72.3349 37.1 72.3349C37.26 72.3349 37.3 72.3971 37.3 72.6463C37.3 73.0023 37.06 73.0824 36.96 72.762Z" fill="#4A4A4A"/>
<path d="M36.87 71.267C36.8 71.0178 36.9 70.733 37.06 70.733C37.16 70.733 37.2 70.8487 37.2 71.089C37.2 71.4716 36.97 71.5962 36.87 71.267Z" fill="#4A4A4A"/>
<path d="M62.7 69.0867C62.7 68.7307 62.94 68.6507 63.04 68.9799C63.14 69.3092 63.11 69.3982 62.9 69.3982C62.74 69.3982 62.7 69.3359 62.7 69.0867Z" fill="#4A4A4A"/>
<path d="M62.4 67.2179C62.4 66.8352 62.41 66.8174 62.7 66.8174C62.87 66.8174 63 66.8619 63 66.9153C63 66.9598 62.96 66.9776 62.9 66.9509C62.8 66.8975 62.76 67.0577 62.8 67.4226C62.81 67.565 62.76 67.6183 62.61 67.6183C62.43 67.6183 62.4 67.565 62.4 67.2179Z" fill="#4A4A4A"/>
<path d="M63.16 66.8352C63.13 66.8085 63.1 66.7107 63.1 66.6217C63.1 66.4971 63.18 66.4615 63.45 66.4615C63.67 66.4615 63.8 66.506 63.8 66.5772C63.8 66.6929 63.25 66.9242 63.16 66.8352Z" fill="#4A4A4A"/>
<path d="M65.36 66.5683C65.33 66.5416 65.3 66.4437 65.3 66.3547C65.3 66.2301 65.38 66.1945 65.65 66.1945C65.87 66.1945 66 66.239 66 66.3102C66 66.4259 65.45 66.6572 65.36 66.5683Z" fill="#4A4A4A"/>
<path d="M33.68 66.3992C33.35 66.328 33.48 66.1055 33.85 66.1055C34.13 66.1055 34.2 66.1411 34.2 66.2835C34.2 66.4615 34.06 66.4882 33.68 66.3992Z" fill="#4A4A4A"/>
<path d="M67.3 66.1055C67.3 65.9631 67.37 65.9275 67.65 65.9275C68.05 65.9275 68.14 66.1411 67.78 66.2301C67.4 66.3191 67.3 66.2924 67.3 66.1055Z" fill="#4A4A4A"/>
<path d="M29.68 65.8652C29.35 65.794 29.48 65.5716 29.85 65.5716C30.13 65.5716 30.2 65.6072 30.2 65.7495C30.2 65.9275 30.06 65.9542 29.68 65.8652Z" fill="#4A4A4A"/>
<path d="M73.8 65.2334C73.8 65.0999 73.89 65.0465 74.26 65.002C74.95 64.9219 75.1 64.9308 75.1 65.0732C75.1 65.1978 74.99 65.2334 74.18 65.358C73.85 65.4025 73.8 65.3936 73.8 65.2334Z" fill="#4A4A4A"/>
<path d="M22.88 64.8863C22.55 64.8151 22.68 64.5927 23.05 64.5927C23.33 64.5927 23.4 64.6283 23.4 64.7706C23.4 64.9486 23.26 64.9753 22.88 64.8863Z" fill="#4A4A4A"/>
<path d="M76.8 64.7706C76.8 64.6283 76.87 64.5927 77.15 64.5927C77.55 64.5927 77.64 64.8062 77.28 64.8952C76.9 64.9842 76.8 64.9575 76.8 64.7706Z" fill="#4A4A4A"/>
<path d="M18.78 64.2634C18.45 64.1922 18.58 63.9697 18.95 63.9697C19.23 63.9697 19.3 64.0053 19.3 64.1477C19.3 64.3257 19.16 64.3524 18.78 64.2634Z" fill="#4A4A4A"/>
<path d="M82.1 63.9697C82.1 63.8273 82.17 63.7917 82.45 63.7917C82.85 63.7917 82.94 64.0053 82.58 64.0943C82.2 64.1833 82.1 64.1566 82.1 63.9697Z" fill="#4A4A4A"/>
<path d="M14.78 63.6405C14.45 63.5693 14.58 63.3468 14.95 63.3468C15.23 63.3468 15.3 63.3824 15.3 63.5248C15.3 63.7027 15.16 63.7294 14.78 63.6405Z" fill="#4A4A4A"/>
<path d="M84.9 63.5248C84.9 63.3824 84.97 63.3468 85.25 63.3468C85.65 63.3468 85.74 63.5604 85.38 63.6494C85 63.7383 84.9 63.7116 84.9 63.5248Z" fill="#4A4A4A"/>
<path d="M9.68 62.8395C9.35 62.7683 9.48 62.5459 9.85 62.5459C10.13 62.5459 10.2 62.5815 10.2 62.7238C10.2 62.9018 10.06 62.9285 9.68 62.8395Z" fill="#4A4A4A"/>
<path d="M3.78 61.8606C3.45 61.7894 3.58 61.567 3.95 61.567C4.23 61.567 4.3 61.6026 4.3 61.745C4.3 61.9229 4.16 61.9496 3.78 61.8606Z" fill="#4A4A4A"/>
<path d="M0.580001 61.3267C0.250001 61.2555 0.380001 61.033 0.750001 61.033C1.03 61.033 1.1 61.0686 1.1 61.211C1.1 61.389 0.960001 61.4157 0.580001 61.3267Z" fill="#4A4A4A"/>
<path d="M1.14441e-05 60.4813C1.14441e-05 60.2143 0.130012 59.9651 0.260012 59.9651C0.350012 59.9651 0.400011 60.0719 0.400011 60.2766C0.400011 60.5258 0.360011 60.5881 0.200011 60.5881C0.0900114 60.5881 1.14441e-05 60.5347 1.14441e-05 60.4813Z" fill="#4A4A4A"/>
<path d="M30.1 59.5202C30.1 59.3333 30.2 59.3066 30.58 59.3956C30.94 59.4846 30.85 59.6982 30.45 59.6982C30.17 59.6982 30.1 59.6626 30.1 59.5202Z" fill="#4A4A4A"/>
<path d="M67.6 59.5202C67.6 59.3333 67.7 59.3066 68.08 59.3956C68.44 59.4846 68.35 59.6982 67.95 59.6982C67.67 59.6982 67.6 59.6626 67.6 59.5202Z" fill="#4A4A4A"/>
<path d="M69.7 59.5736C69.7 59.4579 69.98 59.3422 70.28 59.3422C70.34 59.3422 70.4 59.4223 70.4 59.5202C70.4 59.6626 70.33 59.6982 70.05 59.6982C69.82 59.6982 69.7 59.6537 69.7 59.5736Z" fill="#4A4A4A"/>
<path d="M33.4 59.4846C33.4 59.3689 33.68 59.2532 33.98 59.2532C34.04 59.2532 34.1 59.3333 34.1 59.4312C34.1 59.5736 34.03 59.6092 33.75 59.6092C33.52 59.6092 33.4 59.5647 33.4 59.4846Z" fill="#4A4A4A"/>
<path d="M72.4 59.3956C72.4 59.2799 72.68 59.1642 72.98 59.1642C73.04 59.1642 73.1 59.2443 73.1 59.3422C73.1 59.4846 73.03 59.5202 72.75 59.5202C72.52 59.5202 72.4 59.4757 72.4 59.3956Z" fill="#4A4A4A"/>
<path d="M64.9 59.2532C64.9 59.0663 65 59.0396 65.38 59.1286C65.74 59.2176 65.65 59.4312 65.25 59.4312C64.97 59.4312 64.9 59.3956 64.9 59.2532Z" fill="#4A4A4A"/>
<path d="M25.7 59.1642C25.7 58.9773 25.8 58.9506 26.18 59.0396C26.54 59.1286 26.45 59.3422 26.05 59.3422C25.77 59.3422 25.7 59.3066 25.7 59.1642Z" fill="#4A4A4A"/>
<path d="M35.3 59.2176C35.3 59.1019 35.58 58.9862 35.88 58.9862C35.94 58.9862 36 59.0663 36 59.1642C36 59.3066 35.93 59.3422 35.65 59.3422C35.42 59.3422 35.3 59.2977 35.3 59.2176Z" fill="#4A4A4A"/>
<path d="M74 59.2176C74 59.1019 74.28 58.9862 74.58 58.9862C74.64 58.9862 74.7 59.0663 74.7 59.1642C74.7 59.3066 74.63 59.3422 74.35 59.3422C74.12 59.3422 74 59.2977 74 59.2176Z" fill="#4A4A4A"/>
<path d="M36.1 59.0396C36.1 58.9328 36.43 58.7727 36.62 58.7994C36.66 58.7994 36.85 58.746 37.04 58.6748C37.4 58.5413 37.4 58.5413 37.4 58.7638C37.4 58.9506 37.35 58.9862 37.1 58.9862C36.94 58.9862 36.8 59.0307 36.8 59.0752C36.8 59.1286 36.64 59.1642 36.45 59.1642C36.22 59.1642 36.1 59.1197 36.1 59.0396Z" fill="#4A4A4A"/>
<path d="M63.6 58.9862C63.6 58.7994 63.7 58.7727 64.08 58.8617C64.44 58.9506 64.35 59.1642 63.95 59.1642C63.67 59.1642 63.6 59.1286 63.6 58.9862Z" fill="#4A4A4A"/>
<path d="M23.7 58.8973C23.7 58.7104 23.8 58.6837 24.18 58.7727C24.54 58.8617 24.45 59.0752 24.05 59.0752C23.77 59.0752 23.7 59.0396 23.7 58.8973Z" fill="#4A4A4A"/>
<path d="M75.9 58.9506C75.9 58.835 76.18 58.7193 76.48 58.7193C76.54 58.7193 76.6 58.7994 76.6 58.8973C76.6 59.0396 76.53 59.0752 76.25 59.0752C76.02 59.0752 75.9 59.0307 75.9 58.9506Z" fill="#4A4A4A"/>
<path d="M77 58.7727C77 58.657 77.28 58.5413 77.58 58.5413C77.64 58.5413 77.7 58.6214 77.7 58.7193C77.7 58.8617 77.63 58.8973 77.35 58.8973C77.12 58.8973 77 58.8528 77 58.7727Z" fill="#4A4A4A"/>
<path d="M21.88 58.746C21.68 58.7193 21.6 58.657 21.6 58.5324C21.6 58.3366 21.63 58.3277 22.3 58.4612C22.61 58.5235 22.8 58.6036 22.8 58.6837C22.8 58.8083 22.5 58.8261 21.88 58.746Z" fill="#4A4A4A"/>
<path d="M0.22 58.5769C0.24 58.4968 0.350001 58.3989 0.480001 58.3544C0.670001 58.2921 0.7 58.3099 0.7 58.4968C0.7 58.6748 0.65 58.7193 0.44 58.7193C0.26 58.7193 0.19 58.6748 0.22 58.5769Z" fill="#4A4A4A"/>
<path d="M30.68 58.568C30.35 58.4968 30.48 58.2743 30.85 58.2743C31.13 58.2743 31.2 58.3099 31.2 58.4523C31.2 58.6303 31.06 58.657 30.68 58.568Z" fill="#4A4A4A"/>
<path d="M31.5 58.4523C31.5 58.3099 31.57 58.2743 31.85 58.2743C32.25 58.2743 32.34 58.4879 31.98 58.5769C31.6 58.6659 31.5 58.6392 31.5 58.4523Z" fill="#4A4A4A"/>
<path d="M65.85 58.4078C65.8 58.39 65.58 58.3544 65.38 58.3188C65.14 58.2832 65 58.2209 65 58.1408C65 57.9895 65.15 57.9806 65.84 58.0607C66.2 58.1052 66.3 58.1586 66.3 58.2832C66.3 58.4434 66.12 58.4879 65.85 58.4078Z" fill="#4A4A4A"/>
<path d="M1.22 58.1675C1.25 58.1052 1.41 58.0073 1.58 57.9451C1.89 57.8294 1.9 57.8383 1.9 58.0518C1.9 58.2476 1.86 58.2743 1.54 58.2743C1.31 58.2743 1.2 58.2387 1.22 58.1675Z" fill="#4A4A4A"/>
<path d="M38.4 58.2031C38.4 58.1586 38.51 58.0696 38.65 58.0073C38.79 57.945 38.9 57.856 38.9 57.8116C38.9 57.7671 38.95 57.7582 39 57.7849C39.06 57.8116 39.1 57.9361 39.1 58.0607C39.1 58.2476 39.05 58.2743 38.75 58.2743C38.56 58.2743 38.4 58.2387 38.4 58.2031Z" fill="#4A4A4A"/>
<path d="M81.2 58.0607C81.2 57.9362 81.31 57.9006 82.13 57.776C82.45 57.7315 82.5 57.7404 82.5 57.9006C82.5 58.034 82.41 58.0874 82.04 58.1319C81.35 58.212 81.2 58.2031 81.2 58.0607Z" fill="#4A4A4A"/>
<path d="M17.8 57.9183C17.8 57.7315 17.9 57.7048 18.28 57.7938C18.64 57.8827 18.55 58.0963 18.15 58.0963C17.87 58.0963 17.8 58.0607 17.8 57.9183Z" fill="#4A4A4A"/>
<path d="M97.33 57.945C97.19 57.9183 97.1 57.8383 97.1 57.7404C97.1 57.5624 97.36 57.4378 97.46 57.5713C97.49 57.6247 97.58 57.6425 97.66 57.6158C97.73 57.5891 97.82 57.6069 97.86 57.6603C97.89 57.7137 97.98 57.7315 98.06 57.7048C98.15 57.6781 98.2 57.7226 98.2 57.8294C98.2 57.9717 98.14 58.0073 97.88 57.9984C97.7 57.9895 97.45 57.9628 97.33 57.945Z" fill="#4A4A4A"/>
<path d="M16.5 57.7404C16.5 57.5535 16.6 57.5268 16.98 57.6158C17.34 57.7048 17.25 57.9184 16.85 57.9184C16.57 57.9184 16.5 57.8828 16.5 57.7404Z" fill="#4A4A4A"/>
<path d="M76.3 57.7404C76.3 57.598 76.37 57.5624 76.65 57.5624C77.05 57.5624 77.14 57.776 76.78 57.865C76.4 57.9539 76.3 57.9272 76.3 57.7404Z" fill="#4A4A4A"/>
<path d="M83.1 57.7938C83.1 57.6781 83.38 57.5624 83.68 57.5624C83.74 57.5624 83.8 57.6425 83.8 57.7404C83.8 57.8828 83.73 57.9183 83.45 57.9183C83.22 57.9183 83.1 57.8739 83.1 57.7938Z" fill="#4A4A4A"/>
<path d="M15.1 57.5624C15.1 57.3755 15.2 57.3488 15.58 57.4378C15.94 57.5268 15.85 57.7404 15.45 57.7404C15.17 57.7404 15.1 57.7048 15.1 57.5624Z" fill="#4A4A4A"/>
<path d="M60.47 57.6781C60.43 57.6514 60.4 57.5268 60.4 57.4111C60.4 57.2509 60.35 57.2064 60.15 57.2064C59.93 57.2064 59.9 57.1708 59.9 56.895C59.9 56.5835 59.9 56.5835 60.15 56.7259C60.29 56.806 60.38 56.9039 60.35 56.9395C60.29 57.0195 60.65 57.3132 60.72 57.242C60.75 57.2153 60.88 57.3221 61 57.4645C61.21 57.7404 61.21 57.7404 60.87 57.7404C60.69 57.7404 60.5 57.7137 60.47 57.6781Z" fill="#4A4A4A"/>
<path d="M95.6 57.4912C95.6 57.2509 95.68 57.2153 96.01 57.3221C96.42 57.4645 96.38 57.6514 95.95 57.6514C95.68 57.6514 95.6 57.6158 95.6 57.4912Z" fill="#4A4A4A"/>
<path d="M0.5 57.2509C0.5 57.0551 0.540001 57.0284 0.860001 57.0284C1.3 57.0284 1.28 57.1886 0.820001 57.3577C0.510001 57.4734 0.5 57.4645 0.5 57.2509Z" fill="#4A4A4A"/>
<path d="M5.9 57.3488C5.9 57.2331 6.18 57.1174 6.48 57.1174C6.54 57.1174 6.6 57.1975 6.6 57.2954C6.6 57.4378 6.53 57.4734 6.25 57.4734C6.02 57.4734 5.9 57.4289 5.9 57.3488Z" fill="#4A4A4A"/>
<path d="M93.9 57.2954C93.9 57.1085 94 57.0818 94.38 57.1708C94.74 57.2598 94.65 57.4734 94.25 57.4734C93.97 57.4734 93.9 57.4378 93.9 57.2954Z" fill="#4A4A4A"/>
<path d="M7.6 57.2598C7.6 57.1441 7.88 57.0284 8.18 57.0284C8.24 57.0284 8.3 57.1085 8.3 57.2064C8.3 57.3488 8.23 57.3844 7.95 57.3844C7.72 57.3844 7.6 57.3399 7.6 57.2598Z" fill="#4A4A4A"/>
<path d="M79.4 57.2064C79.4 57.064 79.47 57.0284 79.75 57.0284C80.15 57.0284 80.24 57.242 79.88 57.331C79.5 57.42 79.4 57.3933 79.4 57.2064Z" fill="#4A4A4A"/>
<path d="M38.4 56.975C38.4 56.6903 38.42 56.6725 38.75 56.6725C38.94 56.6725 39.1 56.6814 39.1 56.6992C39.1 56.717 38.94 56.8505 38.75 57.0017C38.4 57.2776 38.4 57.2776 38.4 56.975Z" fill="#4A4A4A"/>
<path d="M40.13 56.9039C40.19 56.7882 40.33 56.6458 40.42 56.5924C40.58 56.5034 40.6 56.5301 40.6 56.806C40.6 57.0907 40.57 57.1174 40.31 57.1174C40.04 57.1174 40.03 57.0996 40.13 56.9039Z" fill="#4A4A4A"/>
<path d="M18.18 56.9661C17.85 56.8949 17.98 56.6725 18.35 56.6725C18.63 56.6725 18.7 56.7081 18.7 56.8505C18.7 57.0284 18.56 57.0551 18.18 56.9661Z" fill="#4A4A4A"/>
<path d="M0.370001 56.8861C0.340001 56.8505 0.350002 56.7526 0.400002 56.6636C0.460002 56.5835 0.500001 56.4144 0.490001 56.2987C0.490001 56.183 0.560001 55.7559 0.640001 55.3376C0.730001 54.9194 0.800002 54.5723 0.800002 54.5634C0.800002 54.5456 0.870002 54.5367 0.950002 54.5367C1.14 54.5367 1.14 54.5367 0.93 55.8538C0.79 56.7348 0.730002 56.9394 0.600002 56.9394C0.510002 56.9394 0.400001 56.9128 0.370001 56.8861Z" fill="#4A4A4A"/>
<path d="M2.52 56.8683C2.45 56.8505 2.4 56.7615 2.4 56.6636C2.4 56.5301 2.47 56.4945 2.75 56.4945C2.96 56.4945 3.1 56.539 3.1 56.6102C3.1 56.7348 2.69 56.9216 2.52 56.8683Z" fill="#4A4A4A"/>
<path d="M16.98 56.8149C16.58 56.6903 16.62 56.4945 17.05 56.4945C17.33 56.4945 17.4 56.5301 17.4 56.6636C17.4 56.895 17.31 56.9305 16.98 56.8149Z" fill="#4A4A4A"/>
<path d="M15.28 56.6102C14.95 56.539 15.08 56.3165 15.45 56.3165C15.73 56.3165 15.8 56.3521 15.8 56.4945C15.8 56.6725 15.66 56.6992 15.28 56.6102Z" fill="#4A4A4A"/>
<path d="M60.88 56.3699C60.78 56.3076 60.7 56.2097 60.7 56.1563C60.7 56.1029 60.62 56.0139 60.53 55.9694C60.38 55.8983 60.42 55.8805 60.73 55.8716C61.09 55.8716 61.1 55.8805 61.1 56.183C61.1 56.539 61.11 56.5301 60.88 56.3699Z" fill="#4A4A4A"/>
<path d="M5.7 56.2275C5.7 56.0851 5.77 56.0495 6.05 56.0495C6.45 56.0495 6.54 56.2631 6.18 56.3521C5.8 56.4411 5.7 56.4144 5.7 56.2275Z" fill="#4A4A4A"/>
<path d="M12.28 56.3432C11.95 56.272 12.08 56.0495 12.45 56.0495C12.73 56.0495 12.8 56.0851 12.8 56.2275C12.8 56.4055 12.66 56.4322 12.28 56.3432Z" fill="#4A4A4A"/>
<path d="M7.2 56.1385C7.2 55.9962 7.27 55.9606 7.55 55.9606C7.95 55.9606 8.04 56.1741 7.68 56.2631C7.3 56.3521 7.2 56.3254 7.2 56.1385Z" fill="#4A4A4A"/>
<path d="M10.38 56.2542C10.05 56.183 10.18 55.9606 10.55 55.9606C10.83 55.9606 10.9 55.9962 10.9 56.1385C10.9 56.3165 10.76 56.3432 10.38 56.2542Z" fill="#4A4A4A"/>
<path d="M89.1 56.1385C89.1 55.9962 89.17 55.9606 89.45 55.9606C89.85 55.9606 89.94 56.1741 89.58 56.2631C89.2 56.3521 89.1 56.3254 89.1 56.1385Z" fill="#4A4A4A"/>
<path d="M92.88 56.2542C92.55 56.183 92.68 55.9606 93.05 55.9606C93.33 55.9606 93.4 55.9962 93.4 56.1385C93.4 56.3165 93.26 56.3432 92.88 56.2542Z" fill="#4A4A4A"/>
<path d="M39.7 55.6491C39.7 55.3732 39.73 55.3376 39.95 55.3376C40.24 55.3376 40.26 55.3999 40.05 55.658C39.97 55.7648 39.94 55.8716 39.97 55.9072C40 55.9338 39.96 55.9605 39.87 55.9605C39.74 55.9605 39.7 55.8805 39.7 55.6491Z" fill="#4A4A4A"/>
<path d="M58.9 55.4622C58.9 55.0706 59.08 55.0884 59.27 55.4978C59.4 55.7737 59.39 55.7826 59.15 55.7826C58.93 55.7826 58.9 55.747 58.9 55.4622Z" fill="#4A4A4A"/>
<path d="M60.1 55.1863C59.68 54.3943 59.68 54.3587 59.95 54.3587C60.17 54.3587 60.2 54.3943 60.2 54.6702C60.2 54.8838 60.25 54.9817 60.35 54.9817C60.45 54.9817 60.5 55.0795 60.5 55.2931C60.5 55.7203 60.36 55.6847 60.1 55.1863Z" fill="#4A4A4A"/>
<path d="M98.86 54.3943C98.77 53.7803 98.78 53.6468 98.94 53.6468C99.08 53.6468 99.12 53.7447 99.26 54.4744C99.31 54.7592 99.3 54.8037 99.12 54.8037C98.97 54.8037 98.91 54.7236 98.86 54.3943Z" fill="#4A4A4A"/>
<path d="M41.87 53.6913C41.83 53.6201 41.85 53.54 41.89 53.5133C41.94 53.4955 42.01 53.3264 42.04 53.1573C42.12 52.8014 42.4 52.7213 42.4 53.0595C42.4 53.5133 42.28 53.8248 42.1 53.8248C42 53.8248 41.9 53.7625 41.87 53.6913Z" fill="#4A4A4A"/>
<path d="M28.38 53.6735C28.25 53.6468 28.2 53.54 28.2 53.3264C28.2 52.9794 28.29 52.9438 28.5 53.2018C28.72 53.4777 29.1 53.4332 29.23 53.1128C29.39 52.7391 29.6 52.7658 29.6 53.1573C29.6 53.4065 29.56 53.4688 29.4 53.4688C29.29 53.4688 29.2 53.5311 29.2 53.6023C29.2 53.7358 28.79 53.7714 28.38 53.6735Z" fill="#4A4A4A"/>
<path d="M61.78 53.6735C61.65 53.6468 61.6 53.54 61.6 53.3264C61.6 52.9794 61.69 52.9438 61.9 53.2018C62.12 53.4777 62.5 53.4332 62.63 53.1128C62.79 52.7391 63 52.7658 63 53.1573C63 53.4065 62.96 53.4688 62.8 53.4688C62.69 53.4688 62.6 53.5311 62.6 53.6023C62.6 53.7358 62.19 53.7714 61.78 53.6735Z" fill="#4A4A4A"/>
<path d="M59.36 53.451C59.26 53.1128 59.29 53.0239 59.5 53.0239C59.66 53.0239 59.7 53.0862 59.7 53.3353C59.7 53.6913 59.46 53.7714 59.36 53.451Z" fill="#4A4A4A"/>
<path d="M37.66 52.4721C37.56 52.1339 37.59 52.045 37.8 52.045C37.96 52.045 38 52.1072 38 52.3564C38 52.7124 37.76 52.7925 37.66 52.4721Z" fill="#4A4A4A"/>
<path d="M28.1 52.3653C28.1 51.9115 28.22 51.6 28.4 51.6C28.59 51.6 28.75 51.8314 28.61 51.9115C28.56 51.9293 28.49 52.0984 28.46 52.2674C28.38 52.6234 28.1 52.7035 28.1 52.3653Z" fill="#4A4A4A"/>
<path d="M98.4 52.1784C98.4 51.8225 98.59 51.7602 98.76 52.0717C98.89 52.3386 98.83 52.4899 98.59 52.4899C98.44 52.4899 98.4 52.4276 98.4 52.1784Z" fill="#4A4A4A"/>
<path d="M36.26 52.2051C36.18 51.9204 36.19 51.511 36.28 51.511C36.42 51.511 36.55 51.6445 36.58 51.8225C36.6 51.9204 36.65 52.0361 36.7 52.0806C36.83 52.1962 36.7 52.4009 36.5 52.4009C36.4 52.4009 36.3 52.3119 36.26 52.2051Z" fill="#4A4A4A"/>
<path d="M69.66 52.2051C69.63 52.0894 69.6 51.9115 69.6 51.8047C69.6 51.6801 69.54 51.6 69.45 51.6C69.37 51.6 69.3 51.5377 69.3 51.4665C69.3 51.3953 69.26 51.333 69.2 51.333C69.15 51.333 69.1 51.1817 69.1 51.0038C69.11 50.6656 69.11 50.6656 69.33 50.897C69.81 51.4042 69.88 51.5021 69.83 51.5466C69.79 51.5733 69.82 51.6 69.89 51.6C69.96 51.6 69.99 51.6356 69.96 51.6712C69.93 51.7157 69.97 51.8403 70.04 51.9649C70.11 52.0805 70.15 52.2318 70.12 52.2941C70.05 52.481 69.73 52.4098 69.66 52.2051Z" fill="#4A4A4A"/>
<path d="M98.2 51.3775C98.2 51.0216 98.44 50.9415 98.54 51.2707C98.64 51.6 98.61 51.689 98.4 51.689C98.24 51.689 98.2 51.6267 98.2 51.3775Z" fill="#4A4A4A"/>
<path d="M42.3 51.0661C42.3 50.7724 42.33 50.7101 42.5 50.7101C42.67 50.7101 42.7 50.7724 42.7 51.0661C42.7 51.3597 42.67 51.422 42.5 51.422C42.33 51.422 42.3 51.3597 42.3 51.0661Z" fill="#4A4A4A"/>
<path d="M63.2 51.3419C63.2 51.2885 63.31 51.1372 63.45 51.0038C63.69 50.7546 63.69 50.7546 63.7 51.0928C63.7 51.3864 63.67 51.422 63.45 51.422C63.31 51.422 63.2 51.3864 63.2 51.3419Z" fill="#4A4A4A"/>
<path d="M35.7 51.0216C35.7 50.7012 35.7 50.7012 35.94 50.8614C36.07 50.9504 36.16 51.0394 36.14 51.0572C36.12 51.075 36.15 51.1462 36.21 51.2173C36.3 51.3063 36.26 51.333 36.01 51.333C35.72 51.333 35.7 51.3152 35.7 51.0216Z" fill="#4A4A4A"/>
<path d="M62 51.0216C62 50.7724 62.04 50.7101 62.2 50.7101C62.36 50.7101 62.4 50.6478 62.4 50.4431C62.4 50.2028 62.43 50.1761 62.71 50.1761C62.98 50.1761 63.01 50.1939 62.9 50.3096C62.83 50.3808 62.81 50.4431 62.86 50.4431C62.91 50.4431 62.87 50.4876 62.77 50.541C62.68 50.5855 62.51 50.7902 62.4 50.986C62.15 51.4131 62 51.4309 62 51.0216Z" fill="#4A4A4A"/>
<path d="M37.04 50.986C37.07 50.9415 37 50.808 36.87 50.6923C36.75 50.5677 36.59 50.3808 36.52 50.274C36.41 50.0961 36.42 50.0872 36.7 50.0872C36.93 50.0872 37 50.1228 37 50.2651C37 50.363 37.07 50.4431 37.15 50.4431C37.25 50.4431 37.3 50.541 37.3 50.7546C37.3 50.9771 37.26 51.0661 37.14 51.0661C37.06 51.0661 37.01 51.0305 37.04 50.986Z" fill="#4A4A4A"/>
<path d="M29 50.4876C29 50.1939 29.02 50.1761 29.31 50.1761C29.56 50.1761 29.6 50.2028 29.51 50.2918C29.45 50.363 29.42 50.4342 29.44 50.452C29.46 50.4698 29.37 50.5588 29.24 50.6478C29 50.808 29 50.808 29 50.4876Z" fill="#4A4A4A"/>
<path d="M70.11 50.5321C69.98 50.4342 69.91 50.3541 69.96 50.3541C70 50.3541 69.93 50.2562 69.8 50.1317C69.67 50.0071 69.51 49.9092 69.44 49.9092C69.38 49.9092 69.3 49.8558 69.27 49.7846C69.24 49.7134 69.03 49.571 68.81 49.4553C68.31 49.2062 68.29 49.1083 68.75 49.1083C69.06 49.1083 69.1 49.135 69.1 49.3307C69.1 49.5265 69.14 49.5532 69.45 49.5532C69.77 49.5532 69.8 49.571 69.8 49.8202C69.8 50.0605 69.83 50.0872 70.1 50.0872C70.38 50.0872 70.4 50.1139 70.4 50.3986C70.4 50.5677 70.39 50.7101 70.38 50.7101C70.36 50.7012 70.24 50.6211 70.11 50.5321Z" fill="#4A4A4A"/>
<path d="M30.55 50.5321C30.63 50.4075 31.33 50.016 31.65 49.9092C31.87 49.8291 31.9 49.8469 31.9 50.0427C31.9 50.2384 31.86 50.2651 31.55 50.2651C31.27 50.2651 31.2 50.3007 31.2 50.4431C31.2 50.5855 31.13 50.6211 30.84 50.6211C30.62 50.6211 30.51 50.5855 30.55 50.5321Z" fill="#4A4A4A"/>
<path d="M64.06 50.4164C64.31 50.1316 64.6 50.1227 64.6 50.4075C64.6 50.5944 64.55 50.6211 64.25 50.6211C63.89 50.6211 63.89 50.6211 64.06 50.4164Z" fill="#4A4A4A"/>
<path d="M42.26 50.0694C42.16 49.7312 42.19 49.6422 42.4 49.6422C42.56 49.6422 42.6 49.7045 42.6 49.9537C42.6 50.3096 42.36 50.3897 42.26 50.0694Z" fill="#4A4A4A"/>
<path d="M29.8 49.7401C29.8 49.482 29.83 49.4642 30.16 49.4642C30.55 49.4642 30.54 49.5443 30.1 49.8202C29.8 50.0071 29.8 50.0071 29.8 49.7401Z" fill="#4A4A4A"/>
<path d="M36.12 49.8914C36.05 49.8291 36 49.8202 36 49.8647C36 49.9092 35.93 49.8558 35.84 49.749C35.76 49.6422 35.64 49.571 35.59 49.5977C35.54 49.6333 35.5 49.6155 35.5 49.571C35.5 49.5265 35.39 49.4375 35.25 49.3752C34.9 49.2062 34.94 49.1083 35.35 49.1083C35.63 49.1083 35.7 49.1439 35.7 49.2862C35.7 49.4286 35.77 49.4642 36 49.4642C36.27 49.4642 36.3 49.4909 36.3 49.7312C36.3 50.0338 36.29 50.0427 36.12 49.8914Z" fill="#4A4A4A"/>
<path d="M59.08 49.8024C59.05 49.7401 59.09 49.5888 59.16 49.4642C59.23 49.3396 59.3 49.1439 59.32 49.0193C59.35 48.8057 59.47 48.6633 59.63 48.6633C59.67 48.6633 59.7 48.8057 59.7 48.9748C59.7 49.1439 59.66 49.2862 59.6 49.2862C59.55 49.2862 59.5 49.4286 59.5 49.5977C59.5 49.8469 59.46 49.9092 59.31 49.9092C59.2 49.9092 59.1 49.8647 59.08 49.8024Z" fill="#4A4A4A"/>
<path d="M40.7 48.9748C40.7 48.8057 40.73 48.6633 40.78 48.6633C40.94 48.6633 41.05 48.8057 41.08 49.046C41.11 49.2417 41.07 49.2862 40.91 49.2862C40.74 49.2862 40.7 49.2328 40.7 48.9748Z" fill="#4A4A4A"/>
<path d="M31.3 48.9659C31.3 48.779 31.35 48.7523 31.65 48.7523C31.87 48.7523 32 48.7968 32 48.868C32 48.9392 31.84 49.0282 31.65 49.0816C31.32 49.1795 31.3 49.1706 31.3 48.9659Z" fill="#4A4A4A"/>
<path d="M64.7 48.9659C64.7 48.779 64.75 48.7523 65.05 48.7523C65.27 48.7523 65.4 48.7968 65.4 48.868C65.4 48.9392 65.24 49.0282 65.05 49.0816C64.72 49.1795 64.7 49.1706 64.7 48.9659Z" fill="#4A4A4A"/>
<path d="M67.44 49.0104C67.41 48.9659 67.31 48.9303 67.22 48.9392C66.93 48.9748 66.5 48.8235 66.5 48.6989C66.5 48.5565 66.66 48.5476 67.34 48.6277C67.69 48.6722 67.8 48.7256 67.8 48.8413C67.8 49.0193 67.54 49.1439 67.44 49.0104Z" fill="#4A4A4A"/>
<path d="M33.38 48.8947C32.98 48.7701 33.02 48.5743 33.45 48.5743C33.73 48.5743 33.8 48.6099 33.8 48.7434C33.8 48.9748 33.71 49.0104 33.38 48.8947Z" fill="#4A4A4A"/>
<path d="M97.4 48.6188C97.4 48.4497 97.36 48.3073 97.3 48.3073C97.25 48.3073 97.2 48.165 97.2 47.9959C97.2 47.4886 97.45 47.6132 97.63 48.2183C97.84 48.8947 97.84 48.9303 97.6 48.9303C97.44 48.9303 97.4 48.868 97.4 48.6188Z" fill="#4A4A4A"/>
<path d="M41.86 48.5832C41.83 48.5476 41.76 48.4052 41.71 48.2717C41.61 48.0582 41.63 48.0404 41.85 48.0404C42.07 48.0404 42.1 48.076 42.1 48.3518C42.1 48.6455 41.98 48.7612 41.86 48.5832Z" fill="#4A4A4A"/>
<path d="M40.2 47.9959C40.2 47.7645 40.24 47.6844 40.37 47.6844C40.46 47.6844 40.5 47.7111 40.47 47.7378C40.44 47.7734 40.47 47.8802 40.55 47.987C40.76 48.245 40.74 48.3073 40.45 48.3073C40.23 48.3073 40.2 48.2717 40.2 47.9959Z" fill="#4A4A4A"/>
<path d="M59.7 48.2361C59.7 48.2006 59.77 48.0849 59.85 47.987C59.93 47.8802 59.96 47.7734 59.93 47.7378C59.9 47.7111 59.94 47.6844 60.03 47.6844C60.16 47.6844 60.2 47.7645 60.2 47.9959C60.2 48.2717 60.17 48.3073 59.95 48.3073C59.81 48.3073 59.7 48.2806 59.7 48.2361Z" fill="#4A4A4A"/>
<path d="M58.8 47.4619C58.8 47.2128 58.84 47.1505 59 47.1505C59.16 47.1505 59.2 47.0882 59.2 46.8835C59.2 46.7055 59.25 46.6165 59.35 46.6165C59.43 46.6165 59.5 46.5364 59.5 46.4385C59.5 46.2962 59.57 46.2606 59.81 46.2606C60.08 46.2606 60.11 46.2784 60 46.394C59.93 46.4652 59.9 46.5275 59.93 46.5275C59.96 46.5275 59.85 46.6521 59.69 46.8034C59.53 46.9547 59.3 47.2306 59.18 47.4263C58.91 47.8535 58.8 47.8624 58.8 47.4619Z" fill="#4A4A4A"/>
<path d="M3.02 47.3996C3.05 47.3373 3.21 47.2395 3.38 47.1772C3.69 47.0615 3.7 47.0704 3.7 47.2839C3.7 47.4797 3.66 47.5064 3.34 47.5064C3.11 47.5064 3 47.4708 3.02 47.3996Z" fill="#4A4A4A"/>
<path d="M39.6 47.1861C39.6 46.839 39.69 46.8479 40 47.2395C40.21 47.5064 40.21 47.5064 39.91 47.5064C39.62 47.5064 39.6 47.4797 39.6 47.1861Z" fill="#4A4A4A"/>
<path d="M41.2 47.4263C41.2 47.3907 41.09 47.2483 40.95 47.1149C40.71 46.8835 40.71 46.8835 41.05 46.8835C41.38 46.8835 41.4 46.9013 41.4 47.195C41.4 47.364 41.36 47.5064 41.3 47.5064C41.25 47.5064 41.2 47.4708 41.2 47.4263Z" fill="#4A4A4A"/>
<path d="M60.43 47.195C60.6 47.0259 60.75 46.8835 60.77 46.8835C60.79 46.8835 60.8 47.0259 60.8 47.195C60.8 47.4886 60.78 47.5064 60.46 47.5064C60.12 47.5064 60.12 47.5064 60.43 47.195Z" fill="#4A4A4A"/>
<path d="M47.5 46.4385C47.5 46.2517 47.6 46.225 47.98 46.3139C48.34 46.4029 48.25 46.6165 47.85 46.6165C47.57 46.6165 47.5 46.5809 47.5 46.4385Z" fill="#4A4A4A"/>
<path d="M3.4 46.0381C3.4 45.8423 3.44 45.8156 3.76 45.8156C4.2 45.8156 4.18 45.9758 3.72 46.1449C3.41 46.2606 3.4 46.2517 3.4 46.0381Z" fill="#4A4A4A"/>
<path d="M96.63 46.1449C96.46 46.0826 96.4 45.9758 96.4 45.7533C96.4 45.3706 96.57 45.3795 96.76 45.78C96.95 46.1716 96.91 46.2606 96.63 46.1449Z" fill="#4A4A4A"/>
<path d="M45 45.869C45 45.6643 45.02 45.6554 45.35 45.7533C45.54 45.8067 45.7 45.8957 45.7 45.9669C45.7 46.0381 45.57 46.0826 45.35 46.0826C45.05 46.0826 45 46.0559 45 45.869Z" fill="#4A4A4A"/>
<path d="M37.6 45.513C37.6 45.2105 37.6 45.2105 37.95 45.4863C38.14 45.6376 38.3 45.7711 38.3 45.7889C38.3 45.8067 38.14 45.8156 37.95 45.8156C37.62 45.8156 37.6 45.7978 37.6 45.513Z" fill="#4A4A4A"/>
<path d="M62.1 45.7889C62.1 45.7711 62.26 45.6376 62.45 45.4863C62.8 45.2105 62.8 45.2105 62.8 45.513C62.8 45.7978 62.78 45.8156 62.45 45.8156C62.26 45.8156 62.1 45.8067 62.1 45.7889Z" fill="#4A4A4A"/>
<path d="M48.78 45.5753C48.45 45.5041 48.58 45.2817 48.95 45.2817C49.23 45.2817 49.3 45.3173 49.3 45.4596C49.3 45.6376 49.16 45.6643 48.78 45.5753Z" fill="#4A4A4A"/>
<path d="M60.9 45.2905C60.9 45.0592 60.94 45.0147 61.15 45.0147C61.33 45.0147 61.4 44.9702 61.4 44.8367C61.4 44.721 61.47 44.6587 61.6 44.6587C61.71 44.6587 61.8 44.5964 61.8 44.5252C61.8 44.454 61.87 44.3917 61.95 44.3917C62.03 44.3917 62.1 44.3561 62.1 44.3028C62.1 44.2583 62.26 44.2138 62.45 44.2138C62.7 44.2138 62.8 44.2494 62.8 44.3561C62.8 44.4273 62.76 44.4718 62.71 44.4451C62.66 44.4184 62.51 44.4896 62.37 44.6053C62.23 44.721 62.09 44.8011 62.07 44.7833C62.05 44.7566 61.84 44.9079 61.61 45.1037C61.39 45.2994 61.2 45.4329 61.2 45.4062C61.2 45.3706 61.13 45.3973 61.05 45.4596C60.92 45.5575 60.9 45.5308 60.9 45.2905Z" fill="#4A4A4A"/>
<path d="M8.22 45.3529C8.25 45.2906 8.41 45.1927 8.58 45.1304C8.89 45.0147 8.9 45.0236 8.9 45.2372C8.9 45.4329 8.86 45.4596 8.54 45.4596C8.31 45.4596 8.2 45.424 8.22 45.3529Z" fill="#4A4A4A"/>
<path d="M51.4 45.2817C51.4 45.1393 51.47 45.1037 51.75 45.1037C52.15 45.1037 52.24 45.3173 51.88 45.4062C51.5 45.4952 51.4 45.4685 51.4 45.2817Z" fill="#4A4A4A"/>
<path d="M94.63 45.3261C94.2 45.166 94.21 45.0147 94.65 45.0147C94.96 45.0147 95 45.0414 95 45.2372C95 45.3617 94.99 45.4596 94.98 45.4596C94.96 45.4507 94.8 45.3973 94.63 45.3261Z" fill="#4A4A4A"/>
<path d="M36.7 45.077C36.7 44.7744 36.79 44.7388 37.03 44.9257C37.14 45.0236 37.27 45.077 37.32 45.0503C37.36 45.0236 37.4 45.0681 37.4 45.1393C37.4 45.2461 37.3 45.2817 37.05 45.2817C36.75 45.2817 36.7 45.255 36.7 45.077Z" fill="#4A4A4A"/>
<path d="M38.6 44.9257C38.25 44.6676 38.25 44.6676 38.63 44.6587C38.98 44.6587 39 44.6765 39 44.9257C39 45.077 38.99 45.1927 38.97 45.1927C38.96 45.1927 38.79 45.077 38.6 44.9257Z" fill="#4A4A4A"/>
<path d="M45.68 45.0414C45.35 44.9702 45.48 44.7477 45.85 44.7477C46.13 44.7477 46.2 44.7833 46.2 44.9257C46.2 45.1037 46.06 45.1304 45.68 45.0414Z" fill="#4A4A4A"/>
<path d="M9.5 44.9524C9.5 44.8634 9.7 44.5964 9.7 44.6765C9.7 44.7121 9.81 44.7032 9.95 44.6587C10.17 44.5786 10.2 44.5964 10.2 44.7922C10.2 44.988 10.16 45.0147 9.85 45.0147C9.66 45.0147 9.5 44.988 9.5 44.9524Z" fill="#4A4A4A"/>
<path d="M55.5 44.9524C55.51 44.9079 55.82 44.6943 56.2 44.454C56.9 44.0358 56.9 44.0358 56.9 44.3027C56.9 44.5519 56.87 44.5697 56.55 44.5697C56.24 44.5697 56.2 44.5964 56.2 44.7922C56.2 44.988 56.16 45.0147 55.85 45.0147C55.66 45.0147 55.5 44.988 55.5 44.9524Z" fill="#4A4A4A"/>
<path d="M63.5 44.8634C63.5 44.7833 63.53 44.7477 63.56 44.7744C63.6 44.8011 63.72 44.7744 63.84 44.7032C64.13 44.5163 64.2 44.5341 64.2 44.7922C64.2 44.988 64.16 45.0147 63.85 45.0147C63.59 45.0147 63.5 44.9791 63.5 44.8634Z" fill="#4A4A4A"/>
<path d="M93.5 44.9435C93.5 44.9079 93.37 44.8278 93.2 44.7744C92.79 44.6409 92.82 44.4807 93.25 44.4807C93.57 44.4807 93.6 44.4985 93.6 44.7477C93.6 44.899 93.58 45.0147 93.55 45.0147C93.52 45.0147 93.5 44.9791 93.5 44.9435Z" fill="#4A4A4A"/>
<path d="M7.3 44.5964C7.3 44.3205 7.32 44.3027 7.65 44.3027C8.07 44.3027 8.11 44.4451 7.73 44.5964C7.57 44.6498 7.42 44.7388 7.38 44.7922C7.34 44.8367 7.3 44.7477 7.3 44.5964Z" fill="#4A4A4A"/>
<path d="M53.9 44.5252C53.9 44.3294 53.94 44.3027 54.25 44.3027C54.68 44.3027 54.69 44.3917 54.31 44.5964C53.93 44.7922 53.9 44.7922 53.9 44.5252Z" fill="#4A4A4A"/>
<path d="M89.4 44.5252C89.4 44.3294 89.43 44.3116 89.65 44.3917C89.79 44.4362 89.9 44.4451 89.9 44.4095C89.9 44.3294 90.1 44.5964 90.1 44.6854C90.1 44.721 89.94 44.7477 89.75 44.7477C89.44 44.7477 89.4 44.721 89.4 44.5252Z" fill="#4A4A4A"/>
<path d="M4.2 44.5875C4.2 44.543 4.31 44.454 4.45 44.3917C4.59 44.3295 4.7 44.2405 4.7 44.196C4.7 44.1515 4.75 44.1426 4.8 44.1693C4.86 44.196 4.9 44.3206 4.9 44.4451C4.9 44.632 4.85 44.6587 4.55 44.6587C4.36 44.6587 4.2 44.6231 4.2 44.5875Z" fill="#4A4A4A"/>
<path d="M12 44.1159C12 44.018 12.6 43.7688 12.85 43.7688C13.09 43.7688 13.03 44.0981 12.78 44.1604C12.42 44.2405 12 44.2227 12 44.1159Z" fill="#4A4A4A"/>
<path d="M37.08 44.0536C36.71 43.8578 36.73 43.7688 37.15 43.7688C37.46 43.7688 37.5 43.7955 37.5 43.9913C37.5 44.2494 37.44 44.2583 37.08 44.0536Z" fill="#4A4A4A"/>
<path d="M65.3 44.1248C65.3 44.0447 65.74 43.84 66.48 43.5819C66.67 43.5196 66.7 43.5374 66.7 43.7243C66.7 43.9201 66.66 43.9468 66.35 43.9468C66.11 43.9468 66 43.9913 66 44.0803C66 44.1693 65.89 44.2138 65.65 44.2138C65.46 44.2138 65.3 44.1693 65.3 44.1248Z" fill="#4A4A4A"/>
<path d="M91.33 44.1248C91.2 44.0803 91.1 44.0714 91.1 44.107C91.1 44.1871 90.9 43.9201 90.9 43.84C90.9 43.7955 91.06 43.7688 91.25 43.7688C91.56 43.7688 91.6 43.7955 91.6 43.9913C91.6 44.1159 91.59 44.2138 91.58 44.2049C91.56 44.2049 91.45 44.1693 91.33 44.1248Z" fill="#4A4A4A"/>
<path d="M34.2 43.9023C34.2 43.6887 34.21 43.6798 34.52 43.7955C34.98 43.9646 35 44.1248 34.56 44.1248C34.24 44.1248 34.2 44.0981 34.2 43.9023Z" fill="#4A4A4A"/>
<path d="M43.03 43.9379C42.85 43.8311 42.7 43.7777 42.7 43.8044C42.7 43.8578 42.55 43.7599 42.01 43.3506C41.75 43.1548 41.75 43.1548 42.13 43.1459C42.33 43.1459 42.5 43.1904 42.5 43.2349C42.5 43.2883 42.57 43.3239 42.65 43.3239C42.73 43.3239 42.8 43.4039 42.8 43.5018C42.8 43.6442 42.87 43.6798 43.15 43.6798C43.46 43.6798 43.5 43.7065 43.5 43.9023C43.5 44.1693 43.44 44.1782 43.03 43.9379Z" fill="#4A4A4A"/>
<path d="M13.6 43.6531C13.6 43.5819 13.97 43.4395 14.55 43.2972C15.69 43.0124 15.7 43.0124 15.7 43.2349C15.7 43.3772 15.63 43.4128 15.35 43.4128C15.16 43.4128 15 43.4573 15 43.5018C15 43.5552 14.84 43.5908 14.65 43.5908C14.46 43.5908 14.3 43.6353 14.3 43.6798C14.3 43.7332 14.14 43.7688 13.95 43.7688C13.73 43.7688 13.6 43.7243 13.6 43.6531Z" fill="#4A4A4A"/>
<path d="M85.98 43.7065C85.88 43.6887 85.8 43.5908 85.8 43.5018C85.8 43.3328 86.06 43.1904 86.15 43.3239C86.18 43.3683 86.34 43.4217 86.5 43.4573C86.92 43.5374 86.9 43.7688 86.48 43.7599C86.3 43.751 86.07 43.7332 85.98 43.7065Z" fill="#4A4A4A"/>
<path d="M89.63 43.5463C89.2 43.3861 89.21 43.2349 89.65 43.2349C89.96 43.2349 90 43.2616 90 43.4573C90 43.5819 89.99 43.6798 89.98 43.6798C89.96 43.6709 89.8 43.6175 89.63 43.5463Z" fill="#4A4A4A"/>
<path d="M39.9 43.226C39.9 42.959 39.9 42.959 40.2 43.1459C40.64 43.4217 40.65 43.5018 40.26 43.5018C39.93 43.5018 39.9 43.484 39.9 43.226Z" fill="#4A4A4A"/>
<path d="M58.05 43.1815C58.99 42.4696 58.9 42.5051 58.9 42.8433C58.9 43.0836 58.86 43.1459 58.7 43.1459C58.59 43.1459 58.5 43.2082 58.5 43.2794C58.5 43.3773 58.39 43.4129 58.13 43.4129C57.75 43.404 57.75 43.404 58.05 43.1815Z" fill="#4A4A4A"/>
<path d="M6.8 43.2527C6.8 43.1815 7.32 42.8789 7.44 42.8789C7.47 42.8789 7.5 42.9768 7.5 43.1014C7.5 43.2972 7.46 43.3239 7.15 43.3239C6.96 43.3239 6.8 43.2883 6.8 43.2527Z" fill="#4A4A4A"/>
<path d="M31.8 43.1459C31.8 42.9501 32 42.9145 32.31 43.0569C32.61 43.1993 32.54 43.3239 32.15 43.3239C31.87 43.3239 31.8 43.2883 31.8 43.1459Z" fill="#4A4A4A"/>
<path d="M56.4 43.048C56.4 42.8166 56.43 42.7899 56.75 42.7899C57.06 42.7899 57.09 42.8077 56.99 42.9501C56.93 43.0302 56.77 43.1548 56.64 43.2082C56.42 43.2972 56.4 43.2883 56.4 43.048Z" fill="#4A4A4A"/>
<path d="M34.93 43.1014C34.5 42.9412 34.51 42.7899 34.95 42.7899C35.26 42.7899 35.3 42.8166 35.3 43.0124C35.3 43.137 35.29 43.2349 35.28 43.2349C35.26 43.226 35.1 43.1726 34.93 43.1014Z" fill="#4A4A4A"/>
<path d="M5.16 43.0836C5.13 43.048 5.1 42.9323 5.1 42.8166C5.1 42.6386 5.15 42.6119 5.45 42.6119C5.64 42.6119 5.8 42.6564 5.8 42.7009C5.8 42.7543 5.76 42.7899 5.72 42.7899C5.67 42.7899 5.54 42.87 5.43 42.959C5.31 43.0569 5.19 43.1103 5.16 43.0836Z" fill="#4A4A4A"/>
<path d="M94.5 42.8344C94.5 42.6208 94.51 42.6119 94.82 42.7276C95.28 42.8967 95.3 43.0569 94.86 43.0569C94.54 43.0569 94.5 43.0302 94.5 42.8344Z" fill="#4A4A4A"/>
<path d="M17 42.8166C17 42.7009 17.09 42.6475 17.35 42.6386C17.64 42.6119 17.7 42.6386 17.7 42.7899C17.7 42.9323 17.63 42.9679 17.35 42.9679C17.08 42.9679 17 42.9323 17 42.8166Z" fill="#4A4A4A"/>
<path d="M39.1 42.7454C39.1 42.5496 39.06 42.5229 38.75 42.5229C38.47 42.5229 38.4 42.4873 38.4 42.345C38.4 42.2026 38.33 42.167 38.1 42.167C37.85 42.167 37.8 42.1314 37.8 41.9445C37.8 41.8199 37.84 41.722 37.88 41.722C37.93 41.722 38.22 41.8822 38.53 42.0691C38.83 42.2649 39.1 42.4072 39.12 42.3983C39.14 42.3894 39.31 42.514 39.5 42.6742C39.85 42.9679 39.85 42.9679 39.48 42.9679C39.14 42.9679 39.1 42.9412 39.1 42.7454Z" fill="#4A4A4A"/>
<path d="M69.2 42.8611C69.2 42.7276 69.61 42.5407 69.78 42.5941C69.85 42.6119 69.9 42.7009 69.9 42.7988C69.9 42.9323 69.83 42.9679 69.55 42.9679C69.34 42.9679 69.2 42.9234 69.2 42.8611Z" fill="#4A4A4A"/>
<path d="M87.13 42.8433C86.78 42.7009 86.85 42.5229 87.25 42.5229C87.53 42.5229 87.6 42.5585 87.6 42.692C87.6 42.9056 87.42 42.959 87.13 42.8433Z" fill="#4A4A4A"/>
<path d="M81.8 42.6119C81.8 42.425 81.9 42.3983 82.28 42.4873C82.64 42.5763 82.55 42.7899 82.15 42.7899C81.87 42.7899 81.8 42.7543 81.8 42.6119Z" fill="#4A4A4A"/>
<path d="M13.4 42.5318C13.4 42.3806 13.46 42.345 13.75 42.345C13.94 42.345 14.1 42.3094 14.1 42.256C14.1 42.2115 14.26 42.167 14.45 42.167C15.05 42.167 14.88 42.4428 14.2 42.5674C14.12 42.5852 13.9 42.6208 13.73 42.6564C13.44 42.7187 13.4 42.7009 13.4 42.5318Z" fill="#4A4A4A"/>
<path d="M29.4 42.5229C29.4 42.3361 29.5 42.3094 29.88 42.3983C30.24 42.4873 30.15 42.7009 29.75 42.7009C29.47 42.7009 29.4 42.6653 29.4 42.5229Z" fill="#4A4A4A"/>
<path d="M66.6 42.4784C66.6 42.2827 66.64 42.256 66.96 42.256C67.4 42.256 67.38 42.4162 66.92 42.5852C66.61 42.7009 66.6 42.692 66.6 42.4784Z" fill="#4A4A4A"/>
<path d="M70.3 42.5941C70.3 42.4606 70.71 42.2738 70.88 42.3272C70.95 42.345 71 42.4339 71 42.5318C71 42.6653 70.93 42.7009 70.65 42.7009C70.44 42.7009 70.3 42.6564 70.3 42.5941Z" fill="#4A4A4A"/>
<path d="M40.5 42.345C40.15 42.0869 40.15 42.0869 40.53 42.078C40.88 42.078 40.9 42.0958 40.9 42.345C40.9 42.4962 40.89 42.6119 40.87 42.6119C40.86 42.6119 40.69 42.4962 40.5 42.345Z" fill="#4A4A4A"/>
<path d="M59.3 42.4518C59.3 42.3806 59.82 42.078 59.94 42.078C59.97 42.078 60 42.1759 60 42.3005C60 42.4962 59.96 42.5229 59.65 42.5229C59.46 42.5229 59.3 42.4873 59.3 42.4518Z" fill="#4A4A4A"/>
<path d="M93.1 42.3005C93.1 42.0869 93.11 42.078 93.42 42.1937C93.88 42.3627 93.9 42.5229 93.46 42.5229C93.14 42.5229 93.1 42.4962 93.1 42.3005Z" fill="#4A4A4A"/>
<path d="M79.5 42.2738C79.5 42.0335 79.58 41.9979 79.91 42.1047C80.32 42.2471 80.28 42.4339 79.85 42.4339C79.58 42.4339 79.5 42.3983 79.5 42.2738Z" fill="#4A4A4A"/>
<path d="M21 42.2293C21 42.1136 21.55 41.8822 21.64 41.9712C21.67 41.9979 21.7 42.0958 21.7 42.1848C21.7 42.3094 21.62 42.345 21.35 42.345C21.13 42.345 21 42.3005 21 42.2293Z" fill="#4A4A4A"/>
<path d="M84.73 42.2204C84.38 42.078 84.45 41.9 84.85 41.9C85.13 41.9 85.2 41.9356 85.2 42.0691C85.2 42.2827 85.02 42.336 84.73 42.2204Z" fill="#4A4A4A"/>
<path d="M23.8 42.0424C23.8 41.9267 24.08 41.811 24.38 41.811C24.44 41.811 24.5 41.8911 24.5 41.989C24.5 42.1314 24.43 42.167 24.15 42.167C23.92 42.167 23.8 42.1225 23.8 42.0424Z" fill="#4A4A4A"/>
<path d="M25.2 41.989C25.2 41.8021 25.36 41.7665 25.78 41.8644C26.17 41.9623 26.05 42.167 25.6 42.167C25.27 42.167 25.2 42.1403 25.2 41.989Z" fill="#4A4A4A"/>
<path d="M68.52 42.0958C68.45 42.078 68.4 41.989 68.4 41.8911C68.4 41.7576 68.47 41.722 68.75 41.722C68.96 41.722 69.1 41.7665 69.1 41.8377C69.1 41.9623 68.69 42.1492 68.52 42.0958Z" fill="#4A4A4A"/>
<path d="M84.04 42.0691C84.01 42.0157 83.92 41.9979 83.84 42.0246C83.77 42.0513 83.68 42.0335 83.65 41.9801C83.61 41.9356 83.53 41.9 83.47 41.9089C83.24 41.9267 82.9 41.7843 82.9 41.6686C82.9 41.5173 83.22 41.5084 83.89 41.6508C84.26 41.722 84.4 41.7932 84.4 41.9089C84.4 42.0869 84.14 42.2026 84.04 42.0691Z" fill="#4A4A4A"/>
<path d="M31.48 42.0157C31.15 41.9445 31.28 41.722 31.65 41.722C31.93 41.722 32 41.7576 32 41.9C32 42.078 31.86 42.1047 31.48 42.0157Z" fill="#4A4A4A"/>
<path d="M94.73 41.8377C94.66 41.8199 94.6 41.6775 94.6 41.5351C94.6 41.3661 94.55 41.2771 94.45 41.2771C94.34 41.2771 94.3 41.1792 94.3 40.9567C94.3 40.5029 94.49 40.6096 94.79 41.2415C94.93 41.5262 95.09 41.7932 95.15 41.8288C95.26 41.9089 94.92 41.9089 94.73 41.8377Z" fill="#4A4A4A"/>
<path d="M7.7 41.5885C7.7 41.3928 7.74 41.3661 8.05 41.3661C8.48 41.3661 8.5 41.4906 8.1 41.6775C7.72 41.8555 7.7 41.8466 7.7 41.5885Z" fill="#4A4A4A"/>
<path d="M69.4 41.633C69.4 41.4906 69.47 41.455 69.75 41.455C70.15 41.455 70.24 41.6686 69.88 41.7576C69.5 41.8466 69.4 41.8199 69.4 41.633Z" fill="#4A4A4A"/>
<path d="M18.8 41.3661C18.8 41.2237 18.87 41.1881 19.15 41.1881C19.55 41.1881 19.64 41.4017 19.28 41.4907C18.9 41.5796 18.8 41.5529 18.8 41.3661Z" fill="#4A4A4A"/>
<path d="M81.08 41.4817C80.75 41.4106 80.88 41.1881 81.25 41.1881C81.53 41.1881 81.6 41.2237 81.6 41.3661C81.6 41.544 81.46 41.5707 81.08 41.4817Z" fill="#4A4A4A"/>
<path d="M28.88 41.3928C28.55 41.3216 28.68 41.0991 29.05 41.0991C29.33 41.0991 29.4 41.1347 29.4 41.2771C29.4 41.455 29.26 41.4817 28.88 41.3928Z" fill="#4A4A4A"/>
<path d="M20.86 41.2949C20.83 41.2682 20.8 41.1703 20.8 41.0813C20.8 40.9567 20.88 40.9211 21.15 40.9211C21.37 40.9211 21.5 40.9656 21.5 41.0368C21.5 41.1525 20.95 41.3839 20.86 41.2949Z" fill="#4A4A4A"/>
<path d="M62.12 41.2593C62.15 41.197 62.31 41.0991 62.48 41.0368C62.79 40.9211 62.8 40.93 62.8 41.1436C62.8 41.3394 62.76 41.3661 62.44 41.3661C62.21 41.3661 62.1 41.3305 62.12 41.2593Z" fill="#4A4A4A"/>
<path d="M71.5 41.1881C71.5 41.0457 71.57 41.0101 71.85 41.0101C72.25 41.0101 72.34 41.2237 71.98 41.3127C71.6 41.4017 71.5 41.375 71.5 41.1881Z" fill="#4A4A4A"/>
<path d="M79.18 41.2415C78.78 41.1169 78.82 40.9211 79.25 40.9211C79.53 40.9211 79.6 40.9567 79.6 41.0902C79.6 41.3216 79.51 41.3572 79.18 41.2415Z" fill="#4A4A4A"/>
<path d="M79.88 41.3038C79.55 41.2326 79.68 41.0101 80.05 41.0101C80.33 41.0101 80.4 41.0457 80.4 41.1881C80.4 41.3661 80.26 41.3928 79.88 41.3038Z" fill="#4A4A4A"/>
<path d="M89.3 41.1881C89.3 41.0012 89.4 40.9745 89.78 41.0635C90.14 41.1525 90.05 41.3661 89.65 41.3661C89.37 41.3661 89.3 41.3305 89.3 41.1881Z" fill="#4A4A4A"/>
<path d="M78.33 41.1703C77.88 41.0368 77.9 40.8321 78.35 40.8321C78.66 40.8321 78.7 40.8588 78.7 41.0546C78.7 41.1792 78.69 41.2771 78.68 41.2682C78.66 41.2593 78.5 41.2148 78.33 41.1703Z" fill="#4A4A4A"/>
<path d="M21.8 41.0101C21.8 40.8677 21.87 40.8321 22.15 40.8321C22.55 40.8321 22.64 41.0457 22.28 41.1347C21.9 41.2237 21.8 41.197 21.8 41.0101Z" fill="#4A4A4A"/>
<path d="M23.4 40.9211C23.4 40.7787 23.47 40.7431 23.75 40.7431C24.15 40.7431 24.24 40.9567 23.88 41.0457C23.5 41.1347 23.4 41.108 23.4 40.9211Z" fill="#4A4A4A"/>
<path d="M38.1 40.9389C38.1 40.8944 37.99 40.8054 37.85 40.7431C37.5 40.574 37.54 40.4762 37.95 40.4762C38.25 40.4762 38.3 40.5028 38.3 40.6897C38.3 40.8143 38.26 40.9389 38.2 40.9656C38.15 40.9923 38.1 40.9834 38.1 40.9389Z" fill="#4A4A4A"/>
<path d="M60.2 40.7876C60.2 40.5918 60.24 40.5651 60.56 40.5651C61 40.5651 60.98 40.7253 60.52 40.8944C60.21 41.0101 60.2 41.0012 60.2 40.7876Z" fill="#4A4A4A"/>
<path d="M5.73 40.3694C5.92 39.96 6.1 39.9422 6.1 40.3338C6.1 40.6185 6.07 40.6541 5.85 40.6541C5.61 40.6541 5.6 40.6452 5.73 40.3694Z" fill="#4A4A4A"/>
<path d="M65.1 40.4406C65.1 40.3249 65.38 40.2092 65.68 40.2092C65.74 40.2092 65.8 40.2893 65.8 40.3872C65.8 40.5295 65.73 40.5651 65.45 40.5651C65.22 40.5651 65.1 40.5206 65.1 40.4406Z" fill="#4A4A4A"/>
<path d="M90.58 40.5029C90.25 40.4317 90.38 40.2092 90.75 40.2092C91.03 40.2092 91.1 40.2448 91.1 40.3872C91.1 40.5651 90.96 40.5918 90.58 40.5029Z" fill="#4A4A4A"/>
<path d="M14.3 40.2893C14.3 40.1914 14.9 39.9422 15.15 39.9422C15.39 39.9422 15.33 40.2715 15.08 40.3338C14.72 40.4139 14.3 40.3961 14.3 40.2893Z" fill="#4A4A4A"/>
<path d="M84.6 40.2092C84.6 40.0223 84.7 39.9956 85.08 40.0846C85.44 40.1736 85.35 40.3872 84.95 40.3872C84.67 40.3872 84.6 40.3516 84.6 40.2092Z" fill="#4A4A4A"/>
<path d="M11.9 39.8977C11.9 39.7019 11.94 39.6752 12.26 39.6752C12.7 39.6752 12.68 39.8354 12.22 40.0045C11.91 40.1202 11.9 40.1113 11.9 39.8977Z" fill="#4A4A4A"/>
<path d="M68.1 39.8977C68.1 39.8176 68.24 39.7553 68.48 39.7197C68.68 39.693 68.97 39.6396 69.12 39.5951C69.42 39.5061 69.5 39.5417 69.5 39.7642C69.5 39.8799 69.38 39.9333 68.98 39.9778C68.21 40.0579 68.1 40.049 68.1 39.8977Z" fill="#4A4A4A"/>
<path d="M82.1 39.871C82.1 39.6307 82.18 39.5951 82.51 39.7019C82.92 39.8443 82.88 40.0312 82.45 40.0312C82.18 40.0312 82.1 39.9956 82.1 39.871Z" fill="#4A4A4A"/>
<path d="M81.3 39.7642C81.3 39.5773 81.4 39.5506 81.78 39.6396C82.14 39.7286 82.05 39.9422 81.65 39.9422C81.37 39.9422 81.3 39.9066 81.3 39.7642Z" fill="#4A4A4A"/>
<path d="M32.5 39.6663C32.5 39.524 32.55 39.4884 32.78 39.5151C33.04 39.5418 33.2 39.6396 33.2 39.7909C33.2 39.8265 33.04 39.8532 32.85 39.8532C32.56 39.8532 32.5 39.8176 32.5 39.6663Z" fill="#4A4A4A"/>
<path d="M63.4 39.6752C63.4 39.5328 63.47 39.4973 63.75 39.4973C64.15 39.4973 64.24 39.7108 63.88 39.7998C63.5 39.8888 63.4 39.8621 63.4 39.6752Z" fill="#4A4A4A"/>
<path d="M16.6 39.6574C16.6 39.524 17.01 39.3371 17.18 39.3905C17.25 39.4083 17.3 39.4973 17.3 39.5951C17.3 39.7286 17.23 39.7642 16.95 39.7642C16.74 39.7642 16.6 39.7197 16.6 39.6574Z" fill="#4A4A4A"/>
<path d="M79.4 39.5506C79.4 39.346 79.42 39.3371 79.75 39.435C79.94 39.4883 80.1 39.5773 80.1 39.6485C80.1 39.7197 79.97 39.7642 79.75 39.7642C79.45 39.7642 79.4 39.7375 79.4 39.5506Z" fill="#4A4A4A"/>
<path d="M77.9 39.4973C77.9 39.3104 78 39.2837 78.38 39.3727C78.74 39.4617 78.65 39.6752 78.25 39.6752C77.97 39.6752 77.9 39.6396 77.9 39.4973Z" fill="#4A4A4A"/>
<path d="M64.5 39.4261C64.5 39.3015 64.62 39.2392 65.01 39.1591C65.68 39.0167 66 39.0256 66 39.1769C66 39.2837 65.83 39.3638 65.45 39.4528C65.4 39.4617 65.33 39.4795 65.3 39.4884C65.27 39.4973 65.08 39.5239 64.88 39.5506C64.56 39.5862 64.5 39.5684 64.5 39.4261Z" fill="#4A4A4A"/>
<path d="M17.8 39.3727C17.8 39.257 18.08 39.1413 18.38 39.1413C18.44 39.1413 18.5 39.2214 18.5 39.3193C18.5 39.4616 18.43 39.4972 18.15 39.4972C17.92 39.4972 17.8 39.4527 17.8 39.3727Z" fill="#4A4A4A"/>
<path d="M6.43 39.0345C6.62 38.6251 6.8 38.6073 6.8 38.9989C6.8 39.2837 6.77 39.3193 6.55 39.3193C6.31 39.3193 6.3 39.3104 6.43 39.0345Z" fill="#4A4A4A"/>
<path d="M18.7 39.1947C18.7 39.079 18.98 38.9633 19.28 38.9633C19.34 38.9633 19.4 39.0434 19.4 39.1413C19.4 39.2837 19.33 39.3193 19.05 39.3193C18.82 39.3193 18.7 39.2748 18.7 39.1947Z" fill="#4A4A4A"/>
<path d="M34.33 39.1858C33.9 39.0256 33.91 38.8743 34.35 38.8743C34.66 38.8743 34.7 38.901 34.7 39.0968C34.7 39.2214 34.69 39.3193 34.68 39.3193C34.66 39.3104 34.5 39.257 34.33 39.1858Z" fill="#4A4A4A"/>
<path d="M14.4 39.0523C14.4 38.9099 14.47 38.8743 14.75 38.8743C15.15 38.8743 15.24 39.0879 14.88 39.1769C14.5 39.2659 14.4 39.2392 14.4 39.0523Z" fill="#4A4A4A"/>
<path d="M19.8 39.0167C19.8 38.901 20.08 38.7853 20.38 38.7853C20.44 38.7853 20.5 38.8654 20.5 38.9633C20.5 39.1057 20.43 39.1413 20.15 39.1413C19.92 39.1413 19.8 39.0968 19.8 39.0167Z" fill="#4A4A4A"/>
<path d="M23.3 38.6607C23.3 38.5984 23.4 38.5184 23.53 38.4828C23.94 38.3849 24.1 38.4205 24.1 38.6073C24.1 38.7586 24.03 38.7853 23.7 38.7853C23.43 38.7853 23.3 38.7497 23.3 38.6607Z" fill="#4A4A4A"/>
<path d="M16.92 38.6251C16.85 38.6073 16.8 38.5183 16.8 38.4205C16.8 38.287 16.87 38.2514 17.15 38.2514C17.36 38.2514 17.5 38.2959 17.5 38.3671C17.5 38.4916 17.09 38.6785 16.92 38.6251Z" fill="#4A4A4A"/>
<path d="M79.78 38.634C79.45 38.5628 79.58 38.3404 79.95 38.3404C80.23 38.3404 80.3 38.376 80.3 38.5184C80.3 38.6963 80.16 38.723 79.78 38.634Z" fill="#4A4A4A"/>
<path d="M71.7 38.4294C71.7 38.287 71.77 38.2514 72.05 38.2514C72.45 38.2514 72.54 38.465 72.18 38.5539C71.8 38.6429 71.7 38.6162 71.7 38.4294Z" fill="#4A4A4A"/>
<path d="M78.38 38.545C78.05 38.4738 78.18 38.2514 78.55 38.2514C78.83 38.2514 78.9 38.287 78.9 38.4294C78.9 38.6073 78.76 38.634 78.38 38.545Z" fill="#4A4A4A"/>
<path d="M74.5 38.3226C74.5 38.1802 74.59 38.1624 75.3 38.1624C76.01 38.1624 76.1 38.1802 76.1 38.3226C76.1 38.465 76.01 38.4827 75.3 38.4827C74.59 38.4827 74.5 38.465 74.5 38.3226Z" fill="#4A4A4A"/>
<path d="M28.68 37.8598C28.28 37.7352 28.32 37.5395 28.75 37.5395C29.03 37.5395 29.1 37.5751 29.1 37.7085C29.1 37.9399 29.01 37.9755 28.68 37.8598Z" fill="#4A4A4A"/>
<path d="M7.1 37.842C7.1 37.7352 7.44 37.2725 7.52 37.2725C7.56 37.2725 7.6 37.4149 7.6 37.5839C7.6 37.8598 7.57 37.8954 7.35 37.8954C7.21 37.8954 7.1 37.8687 7.1 37.842Z" fill="#4A4A4A"/>
<path d="M21.7 37.6284C21.7 37.4861 21.77 37.4505 22.05 37.4505C22.45 37.4505 22.54 37.664 22.18 37.753C21.8 37.842 21.7 37.8153 21.7 37.6284Z" fill="#4A4A4A"/>
<path d="M23 37.5395C23 37.3971 23.07 37.3615 23.35 37.3615C23.75 37.3615 23.84 37.5751 23.48 37.664C23.1 37.753 23 37.7263 23 37.5395Z" fill="#4A4A4A"/>
<path d="M26.58 37.6551C26.25 37.5839 26.38 37.3615 26.75 37.3615C27.03 37.3615 27.1 37.3971 27.1 37.5395C27.1 37.7174 26.96 37.7441 26.58 37.6551Z" fill="#4A4A4A"/>
<path d="M92 36.783C92 36.4004 92.1 36.3915 92.33 36.7296C92.55 37.0678 92.55 37.0945 92.25 37.0945C92.03 37.0945 92 37.0589 92 36.783Z" fill="#4A4A4A"/>
<path d="M7.9 36.5072C7.9 36.4004 8.24 35.9376 8.32 35.9376C8.36 35.9376 8.4 36.08 8.4 36.2491C8.4 36.525 8.37 36.5606 8.15 36.5606C8.01 36.5606 7.9 36.5339 7.9 36.5072Z" fill="#4A4A4A"/>
<path d="M8.4 35.7062C8.4 35.5995 8.74 35.1367 8.82 35.1367C8.86 35.1367 8.9 35.2791 8.9 35.4482C8.9 35.724 8.87 35.7596 8.65 35.7596C8.51 35.7596 8.4 35.7329 8.4 35.7062Z" fill="#4A4A4A"/>
<path d="M91 35.1812C91 34.932 90.96 34.8697 90.8 34.8697C90.65 34.8697 90.6 34.8074 90.6 34.6473C90.6 34.5049 90.54 34.4248 90.45 34.4248C90.36 34.4248 90.3 34.3447 90.3 34.2023C90.3 34.0599 90.24 33.9798 90.15 33.9798C90.05 33.9798 90 33.8819 90 33.6684C90 33.4993 90.05 33.3569 90.1 33.3569C90.16 33.3569 90.2 33.3925 90.2 33.4281C90.2 33.4726 90.28 33.5794 90.38 33.6773C90.48 33.7662 90.57 33.8908 90.59 33.9353C90.6 33.9887 90.81 34.3358 91.06 34.7095C91.3 35.0833 91.5 35.4215 91.5 35.4482C91.5 35.4749 91.39 35.4927 91.25 35.4927C91.03 35.4927 91 35.4571 91 35.1812Z" fill="#4A4A4A"/>
<path d="M9.65 33.7128C9.62 33.6683 9.63 33.6238 9.68 33.6238C9.73 33.6238 9.83 33.526 9.9 33.4014C10.09 33.0899 10.2 33.1255 10.2 33.4904C10.2 33.7573 10.17 33.8018 9.96 33.8018C9.82 33.8018 9.68 33.7662 9.65 33.7128Z" fill="#4A4A4A"/>
<path d="M89.5 32.9564C89.5 32.5738 89.6 32.5649 89.83 32.903C90.05 33.2412 90.05 33.2679 89.75 33.2679C89.53 33.2679 89.5 33.2323 89.5 32.9564Z" fill="#4A4A4A"/>
<path d="M88.1 31.0787C88.1 30.7317 88.19 30.7406 88.5 31.1321C88.71 31.3991 88.71 31.3991 88.41 31.3991C88.12 31.3991 88.1 31.3724 88.1 31.0787Z" fill="#4A4A4A"/>
<path d="M12.5 29.9752C12.81 29.5837 12.9 29.5748 12.9 29.9218C12.9 30.2155 12.88 30.2422 12.59 30.2422C12.29 30.2422 12.29 30.2422 12.5 29.9752Z" fill="#4A4A4A"/>
<path d="M87.1 29.9752C87.1 29.8773 87.03 29.7972 86.95 29.7972C86.84 29.7972 86.8 29.6994 86.8 29.4769C86.8 29.0942 86.89 29.1387 87.39 29.7527C87.71 30.1532 87.71 30.1532 87.41 30.1532C87.17 30.1532 87.1 30.1176 87.1 29.9752Z" fill="#4A4A4A"/>
<path d="M88 29.1743C87.79 28.9073 87.79 28.9073 88.09 28.9073C88.37 28.9073 88.4 28.934 88.4 29.1743C88.4 29.3256 88.36 29.4413 88.31 29.4413C88.26 29.4413 88.12 29.3256 88 29.1743Z" fill="#4A4A4A"/>
<path d="M13.53 28.7828C13.59 28.6671 13.73 28.5247 13.82 28.4713C13.98 28.3823 14 28.409 14 28.6849C14 28.9696 13.97 28.9963 13.71 28.9963C13.44 28.9963 13.43 28.9785 13.53 28.7828Z" fill="#4A4A4A"/>
<path d="M12.2 28.6048C12.2 28.3111 12.22 28.2844 12.51 28.2844C12.81 28.2844 12.81 28.2844 12.6 28.5514C12.29 28.9429 12.2 28.9518 12.2 28.6048Z" fill="#4A4A4A"/>
<path d="M87.38 28.4624C87.1 28.1509 87.1 28.1509 87.36 28.1242C87.69 28.0886 87.72 28.1153 87.68 28.4713C87.65 28.7738 87.65 28.7739 87.38 28.4624Z" fill="#4A4A4A"/>
<path d="M10.46 27.8217C10.36 27.4835 10.39 27.3945 10.6 27.3945C10.76 27.3945 10.8 27.4568 10.8 27.706C10.8 28.0619 10.56 28.142 10.46 27.8217Z" fill="#4A4A4A"/>
<path d="M13.1 27.6259C13.1 27.3322 13.12 27.3055 13.41 27.3055C13.71 27.3055 13.71 27.3055 13.5 27.5725C13.19 27.964 13.1 27.9729 13.1 27.6259Z" fill="#4A4A4A"/>
<path d="M14.1 26.558C14.1 26.2643 14.12 26.2376 14.41 26.2376C14.71 26.2376 14.71 26.2376 14.5 26.5046C14.19 26.8961 14.1 26.905 14.1 26.558Z" fill="#4A4A4A"/>
<path d="M85.1 26.1486C84.96 26.0507 84.89 25.9706 84.94 25.9706C84.99 25.9706 84.97 25.9084 84.9 25.8372C84.79 25.7215 84.82 25.7037 85.09 25.7037C85.38 25.7037 85.4 25.7215 85.4 26.0151C85.4 26.1842 85.39 26.3266 85.38 26.3266C85.36 26.3266 85.24 26.2465 85.1 26.1486Z" fill="#4A4A4A"/>
<path d="M82.3 25.0896C82.3 24.8494 82.32 24.8405 82.54 24.9295C82.67 24.9828 82.83 25.1074 82.89 25.1875C82.99 25.3299 82.96 25.3477 82.65 25.3477C82.33 25.3477 82.3 25.321 82.3 25.0896Z" fill="#4A4A4A"/>
<path d="M17.61 24.8316C17.67 24.7515 17.83 24.6269 17.96 24.5735C18.18 24.4845 18.2 24.4934 18.2 24.7337C18.2 24.965 18.17 24.9917 17.85 24.9917C17.54 24.9917 17.51 24.974 17.61 24.8316Z" fill="#4A4A4A"/>
<path d="M16.6 24.2887C16.6 24.0306 16.63 24.0128 16.96 24.0128C17.35 24.0128 17.34 24.0929 16.9 24.3688C16.6 24.5557 16.6 24.5557 16.6 24.2887Z" fill="#4A4A4A"/>
<path d="M18.42 24.1908C18.49 24.0929 18.59 24.0129 18.64 24.0129C18.68 24.0129 18.93 23.8616 19.19 23.6747C20.06 23.0429 20 23.0696 20 23.381C20 23.6124 19.96 23.6569 19.75 23.6569C19.57 23.6569 19.5 23.7014 19.5 23.8349C19.5 23.9684 19.43 24.0129 19.25 24.0129C19.07 24.0129 19 24.0573 19 24.1908C19 24.3332 18.93 24.3688 18.65 24.3688C18.32 24.3688 18.31 24.3599 18.42 24.1908Z" fill="#4A4A4A"/>
<path d="M9.56 23.4611C9.46 23.1229 9.49 23.034 9.7 23.034C9.86 23.034 9.9 23.0962 9.9 23.3454C9.9 23.7014 9.66 23.7815 9.56 23.4611Z" fill="#4A4A4A"/>
<path d="M18 23.2208C18 22.9628 18.03 22.945 18.36 22.945C18.75 22.945 18.74 23.0251 18.3 23.3009C18 23.4878 18 23.4878 18 23.2208Z" fill="#4A4A4A"/>
<path d="M89.4 22.9895C89.4 22.7403 89.44 22.678 89.6 22.678C89.81 22.678 89.84 22.767 89.74 23.1051C89.64 23.4255 89.4 23.3454 89.4 22.9895Z" fill="#4A4A4A"/>
<path d="M81.3 22.945C80.95 22.6869 80.95 22.6869 81.33 22.678C81.68 22.678 81.7 22.6958 81.7 22.945C81.7 23.0962 81.69 23.2119 81.67 23.2119C81.66 23.2119 81.49 23.0962 81.3 22.945Z" fill="#4A4A4A"/>
<path d="M19 22.5089C19 22.2508 19.03 22.233 19.36 22.233C19.75 22.233 19.74 22.3131 19.3 22.589C19 22.7759 19 22.7759 19 22.5089Z" fill="#4A4A4A"/>
<path d="M9.36 22.3932C9.26 22.055 9.29 21.9661 9.5 21.9661C9.66 21.9661 9.7 22.0284 9.7 22.2775C9.7 22.6335 9.46 22.7136 9.36 22.3932Z" fill="#4A4A4A"/>
<path d="M80.06 22.1351C79.89 22.0017 79.74 21.8949 79.72 21.9127C79.7 21.9394 79.61 21.886 79.51 21.8059C79.41 21.7258 79.11 21.5122 78.84 21.3431C78.35 21.0317 78.35 21.0317 78.7 21.005C78.89 20.9872 79.06 21.0139 79.08 21.0673C79.1 21.1206 79.18 21.1651 79.26 21.1651C79.34 21.1651 79.4 21.2096 79.4 21.2541C79.4 21.3075 79.47 21.3431 79.55 21.3431C79.64 21.3431 79.7 21.4232 79.7 21.5656C79.7 21.7614 79.74 21.7881 80.05 21.7881C80.38 21.7881 80.4 21.8059 80.4 22.0995C80.4 22.2686 80.39 22.411 80.38 22.4021C80.36 22.3932 80.22 22.2775 80.06 22.1351Z" fill="#4A4A4A"/>
<path d="M22.3 21.7169C22.3 21.6457 22.82 21.3431 22.94 21.3431C22.97 21.3431 23 21.441 23 21.5656C23 21.7614 22.96 21.7881 22.65 21.7881C22.46 21.7881 22.3 21.7525 22.3 21.7169Z" fill="#4A4A4A"/>
<path d="M76.6 21.2986C76.6 21.0317 76.63 21.0317 77.01 21.2274C77.39 21.4321 77.38 21.5211 76.95 21.5211C76.64 21.5211 76.6 21.4944 76.6 21.2986Z" fill="#4A4A4A"/>
<path d="M23.1 21.2007C23.1 21.1295 23.14 21.085 23.18 21.1117C23.23 21.1384 23.36 21.085 23.46 21.005C23.56 20.916 23.7 20.8359 23.75 20.827C23.81 20.8181 23.92 20.7558 24.02 20.6846C24.22 20.5333 24.3 20.5867 24.3 20.8715C24.3 21.0316 24.25 21.0761 24.05 21.0761C23.89 21.0761 23.8 21.1295 23.8 21.2096C23.8 21.2986 23.69 21.3431 23.45 21.3431C23.2 21.3431 23.1 21.3075 23.1 21.2007Z" fill="#4A4A4A"/>
<path d="M75.6 20.7647C75.6 20.5066 75.67 20.4888 75.96 20.6757C76.08 20.7469 76.2 20.7736 76.24 20.7469C76.27 20.7202 76.3 20.7558 76.3 20.8359C76.3 20.9516 76.21 20.9872 75.95 20.9872C75.64 20.9872 75.6 20.9605 75.6 20.7647Z" fill="#4A4A4A"/>
<path d="M9.06 20.7024C8.96 20.3642 8.99 20.2752 9.2 20.2752C9.36 20.2752 9.4 20.3375 9.4 20.5867C9.4 20.9427 9.16 21.0228 9.06 20.7024Z" fill="#4A4A4A"/>
<path d="M24.7 20.471C24.7 20.3998 25.22 20.0972 25.34 20.0972C25.37 20.0972 25.4 20.1951 25.4 20.3197C25.4 20.5155 25.36 20.5422 25.05 20.5422C24.86 20.5422 24.7 20.5066 24.7 20.471Z" fill="#4A4A4A"/>
<path d="M74.3 20.1417C74.3 19.8748 74.33 19.8748 74.71 20.0706C75.09 20.2752 75.08 20.3642 74.65 20.3642C74.34 20.3642 74.3 20.3375 74.3 20.1417Z" fill="#4A4A4A"/>
<path d="M24.1 19.5188C24.1 19.323 24.14 19.2963 24.45 19.2963C24.88 19.2963 24.89 19.3853 24.51 19.59C24.13 19.7858 24.1 19.7858 24.1 19.5188Z" fill="#4A4A4A"/>
<path d="M72.1 19.1628C72.1 18.9493 72.11 18.9404 72.42 19.0561C72.88 19.2251 72.9 19.3853 72.46 19.3853C72.14 19.3853 72.1 19.3586 72.1 19.1628Z" fill="#4A4A4A"/>
<path d="M27.52 19.1895C27.55 19.1272 27.71 19.0294 27.88 18.9671C28.19 18.8514 28.2 18.8603 28.2 19.0739C28.2 19.2696 28.16 19.2963 27.84 19.2963C27.61 19.2963 27.5 19.2607 27.52 19.1895Z" fill="#4A4A4A"/>
<path d="M76.2 19.0383C76.25 18.9404 76.46 18.7802 76.65 18.6734C76.84 18.5666 76.98 18.4509 76.95 18.4153C76.9 18.3352 77.64 17.6945 77.97 17.5432C78.2 17.4364 78.21 17.4453 78.18 17.7212C78.15 17.9704 78.11 18.006 77.83 18.0327C77.54 18.0594 77.5 18.095 77.5 18.3352C77.5 18.5221 77.44 18.6111 77.3 18.6467C77.19 18.6734 77.1 18.7446 77.1 18.8069C77.1 18.9938 76.74 19.2073 76.41 19.2073C76.13 19.2073 76.1 19.1895 76.2 19.0383Z" fill="#4A4A4A"/>
<path d="M25.4 18.8959C25.4 18.709 25.45 18.6734 25.7 18.6734C25.9 18.6734 26 18.6289 26 18.5399C26 18.4509 26.11 18.4064 26.35 18.4064C26.54 18.4064 26.7 18.442 26.7 18.4865C26.7 18.5577 25.57 19.1183 25.43 19.1183C25.42 19.1183 25.4 19.0205 25.4 18.8959Z" fill="#4A4A4A"/>
<path d="M90.2 18.7891C90.2 18.7001 90.23 18.4153 90.26 18.1661C90.31 17.8013 90.37 17.6945 90.5 17.6945C90.75 17.6945 90.79 17.7657 90.69 18.0327C90.64 18.1661 90.58 18.4242 90.55 18.6111C90.49 18.9493 90.2 19.0917 90.2 18.7891Z" fill="#4A4A4A"/>
<path d="M75.52 18.2195C75.55 17.9437 75.58 17.917 75.93 17.8903C76.28 17.8636 76.3 17.8458 76.3 17.5521C76.3 17.3118 76.34 17.2495 76.5 17.2495C76.63 17.2495 76.7 17.1872 76.7 17.0894C76.7 16.8491 76.9 16.7156 77.27 16.7156C77.57 16.7156 77.6 16.7334 77.51 16.8847C77.45 16.9737 77.25 17.1339 77.05 17.2406C76.86 17.3385 76.71 17.4542 76.72 17.4898C76.74 17.5254 76.53 17.7568 76.27 17.9971C76.01 18.2373 75.8 18.4064 75.8 18.3708C75.8 18.3263 75.73 18.3441 75.64 18.4153C75.5 18.5132 75.49 18.4954 75.52 18.2195Z" fill="#4A4A4A"/>
<path d="M8.66 18.2106C8.56 17.8725 8.59 17.7835 8.8 17.7835C8.96 17.7835 9 17.8458 9 18.095C9 18.4509 8.76 18.531 8.66 18.2106Z" fill="#4A4A4A"/>
<path d="M28.2 17.739C28.2 17.5432 28.24 17.5165 28.56 17.5165C29 17.5165 28.98 17.6767 28.52 17.8458C28.21 17.9615 28.2 17.9526 28.2 17.739Z" fill="#4A4A4A"/>
<path d="M19.7 17.6144C19.7 17.3563 19.7 17.3563 19.99 17.4809C20.44 17.6767 20.47 17.8725 20.05 17.8725C19.73 17.8725 19.7 17.8458 19.7 17.6144Z" fill="#4A4A4A"/>
<path d="M21.48 17.7123C21.32 17.65 21.15 17.5165 21.1 17.4186C21 17.2673 21.03 17.2495 21.35 17.2495C21.72 17.2495 21.84 17.3652 21.78 17.6678C21.75 17.8191 21.72 17.8191 21.48 17.7123Z" fill="#4A4A4A"/>
<path d="M31.82 17.6767C31.85 17.6144 32.01 17.5165 32.18 17.4542C32.49 17.3385 32.5 17.3474 32.5 17.561C32.5 17.7568 32.46 17.7835 32.14 17.7835C31.91 17.7835 31.8 17.7479 31.82 17.6767Z" fill="#4A4A4A"/>
<path d="M65.4 17.0716C65.4 17.0271 65.24 16.9826 65.05 16.9826C64.77 16.9826 64.7 16.947 64.7 16.8135C64.7 16.6355 64.96 16.4931 65.05 16.6177C65.08 16.6622 65.32 16.7423 65.6 16.8046C66.2 16.9292 66.29 17.1605 65.75 17.1605C65.56 17.1605 65.4 17.125 65.4 17.0716Z" fill="#4A4A4A"/>
<path d="M35.4 16.6978C35.4 16.5643 35.81 16.3774 35.98 16.4308C36.05 16.4486 36.1 16.5376 36.1 16.6355C36.1 16.769 36.03 16.8046 35.75 16.8046C35.54 16.8046 35.4 16.7601 35.4 16.6978Z" fill="#4A4A4A"/>
<path d="M68.13 16.6978C67.68 16.5643 67.7 16.3596 68.15 16.3596C68.46 16.3596 68.5 16.3863 68.5 16.5821C68.5 16.7067 68.49 16.8046 68.48 16.7957C68.46 16.7868 68.3 16.7423 68.13 16.6978Z" fill="#4A4A4A"/>
<path d="M18.2 16.3685C18.2 16.1283 18.22 16.1194 18.44 16.2084C18.57 16.2617 18.73 16.3863 18.79 16.4664C18.89 16.6088 18.86 16.6266 18.55 16.6266C18.23 16.6266 18.2 16.5999 18.2 16.3685Z" fill="#4A4A4A"/>
<path d="M32.5 16.2706C32.5 16.1283 32.57 16.0927 32.85 16.0927C33.25 16.0927 33.34 16.3062 32.98 16.3952C32.6 16.4842 32.5 16.4575 32.5 16.2706Z" fill="#4A4A4A"/>
<path d="M37 16.3418C37 16.2083 37.41 16.0215 37.58 16.0749C37.65 16.0927 37.7 16.1817 37.7 16.2795C37.7 16.413 37.63 16.4486 37.35 16.4486C37.14 16.4486 37 16.4041 37 16.3418Z" fill="#4A4A4A"/>
<path d="M61.9 16.1817C61.9 15.9948 62 15.9681 62.38 16.0571C62.74 16.1461 62.65 16.3596 62.25 16.3596C61.97 16.3596 61.9 16.324 61.9 16.1817Z" fill="#4A4A4A"/>
<path d="M79.91 15.8435C79.97 15.7634 80.13 15.6388 80.26 15.5854C80.48 15.4964 80.5 15.5053 80.5 15.7456C80.5 15.977 80.47 16.0037 80.15 16.0037C79.84 16.0037 79.81 15.9859 79.91 15.8435Z" fill="#4A4A4A"/>
<path d="M58.2 15.5587C58.2 15.3718 58.3 15.3451 58.68 15.4341C59.04 15.5231 58.95 15.7367 58.55 15.7367C58.27 15.7367 58.2 15.7011 58.2 15.5587Z" fill="#4A4A4A"/>
<path d="M65.95 15.6477C65.98 15.6032 66.14 15.4786 66.3 15.3807C66.6 15.1939 66.6 15.1939 66.6 15.4608C66.6 15.7189 66.57 15.7367 66.24 15.7367C66.04 15.7367 65.91 15.7011 65.95 15.6477Z" fill="#4A4A4A"/>
<path d="M57.4 15.4875C57.4 15.2472 57.48 15.2116 57.81 15.3184C58.22 15.4608 58.18 15.6477 57.75 15.6477C57.48 15.6477 57.4 15.6121 57.4 15.4875Z" fill="#4A4A4A"/>
<path d="M56.6 15.3985C56.6 15.1583 56.68 15.1227 57.01 15.2294C57.42 15.3718 57.38 15.5587 56.95 15.5587C56.68 15.5587 56.6 15.5231 56.6 15.3985Z" fill="#4A4A4A"/>
<path d="M32.5 15.2028C32.5 14.9536 32.47 14.9358 32.15 14.9358C31.83 14.9358 31.8 14.918 31.8 14.6688C31.8 14.4196 31.77 14.4018 31.45 14.4018C31.13 14.4018 31.1 14.384 31.1 14.126C31.1 13.859 31.1 13.859 31.38 14.0281C31.53 14.126 31.74 14.2861 31.84 14.3929C31.95 14.4997 32.06 14.5798 32.09 14.5798C32.13 14.5798 32.4 14.7845 32.7 15.0248C33.24 15.4697 33.24 15.4697 32.87 15.4697C32.53 15.4697 32.5 15.4519 32.5 15.2028Z" fill="#4A4A4A"/>
<path d="M55.8 15.2917C55.8 15.1049 55.9 15.0782 56.28 15.1672C56.64 15.2561 56.55 15.4697 56.15 15.4697C55.87 15.4697 55.8 15.4341 55.8 15.2917Z" fill="#4A4A4A"/>
<path d="M79 15.2117C79 14.9536 79.02 14.9358 79.35 14.9358C79.71 14.9358 79.71 14.9358 79.53 15.1494C79.43 15.265 79.33 15.3451 79.31 15.3273C79.29 15.3095 79.21 15.3362 79.13 15.3896C79.03 15.4697 79 15.4341 79 15.2117Z" fill="#4A4A4A"/>
<path d="M54.8 15.1672C54.8 14.9625 54.82 14.9536 55.15 15.0515C55.34 15.1049 55.5 15.1939 55.5 15.265C55.5 15.3362 55.37 15.3807 55.15 15.3807C54.85 15.3807 54.8 15.354 54.8 15.1672Z" fill="#4A4A4A"/>
<path d="M53.4 15.1138C53.4 14.9269 53.5 14.9002 53.88 14.9892C54.24 15.0782 54.15 15.2917 53.75 15.2917C53.47 15.2917 53.4 15.2561 53.4 15.1138Z" fill="#4A4A4A"/>
<path d="M48.6 15.0782C48.6 15.0159 48.7 14.9358 48.83 14.9002C49.24 14.8023 49.4 14.8379 49.4 15.0248C49.4 15.1761 49.33 15.2028 49 15.2028C48.73 15.2028 48.6 15.1672 48.6 15.0782Z" fill="#4A4A4A"/>
<path d="M50.7 15.0248C50.7 14.8379 50.86 14.8023 51.28 14.9002C51.67 14.9981 51.55 15.2028 51.1 15.2028C50.77 15.2028 50.7 15.1761 50.7 15.0248Z" fill="#4A4A4A"/>
<path d="M81.01 14.9536C81.07 14.8735 81.23 14.7489 81.36 14.6955C81.58 14.6065 81.6 14.6154 81.6 14.8557C81.6 15.0871 81.57 15.1138 81.25 15.1138C80.94 15.1138 80.91 15.096 81.01 14.9536Z" fill="#4A4A4A"/>
<path d="M16.5 13.6009C16.15 13.3428 16.15 13.3428 16.53 13.3339C16.88 13.3339 16.9 13.3517 16.9 13.6009C16.9 13.7522 16.89 13.8679 16.87 13.8679C16.86 13.8679 16.69 13.7522 16.5 13.6009Z" fill="#4A4A4A"/>
<path d="M30.3 13.503C30.3 13.2361 30.3 13.2361 30.6 13.4229C31.04 13.6988 31.05 13.7789 30.66 13.7789C30.33 13.7789 30.3 13.7611 30.3 13.503Z" fill="#4A4A4A"/>
<path d="M90.9 12.8445C90.9 12.5953 90.94 12.533 91.1 12.533C91.31 12.533 91.34 12.622 91.24 12.9602C91.14 13.2805 90.9 13.2005 90.9 12.8445Z" fill="#4A4A4A"/>
<path d="M83.85 12.7466C84.07 12.5775 84.37 12.355 84.53 12.2572C84.8 12.0792 84.8 12.0792 84.8 12.3461C84.8 12.5953 84.77 12.622 84.5 12.622C84.25 12.622 84.2 12.6576 84.2 12.8445C84.2 13.0403 84.16 13.067 83.83 13.067C83.45 13.0581 83.45 13.0581 83.85 12.7466Z" fill="#4A4A4A"/>
<path d="M13.4 12.8445C13.4 12.7733 13.31 12.711 13.2 12.711C13.09 12.711 13 12.6487 13 12.5775C13 12.5063 12.91 12.444 12.8 12.444C12.64 12.444 12.6 12.3817 12.6 12.1682C12.6 11.9012 12.6 11.9012 13.04 12.186C13.29 12.3372 13.64 12.5775 13.82 12.7199C14.15 12.9691 14.15 12.9691 13.78 12.978C13.51 12.978 13.4 12.9424 13.4 12.8445Z" fill="#4A4A4A"/>
<path d="M29 12.5775C29 12.3906 28.95 12.355 28.7 12.355C28.43 12.355 28.4 12.3284 28.4 12.0881C28.4 11.8389 28.41 11.83 28.62 11.9279C28.74 11.9902 28.93 12.1326 29.03 12.2483C29.13 12.355 29.27 12.444 29.33 12.444C29.4 12.444 29.51 12.5241 29.58 12.622C29.69 12.7911 29.68 12.8 29.35 12.8C29.04 12.8 29 12.7733 29 12.5775Z" fill="#4A4A4A"/>
<path d="M14.8 12.355C14.45 12.097 14.45 12.097 14.83 12.0881C15.18 12.0881 15.2 12.1059 15.2 12.355C15.2 12.5063 15.19 12.622 15.17 12.622C15.16 12.622 14.99 12.5063 14.8 12.355Z" fill="#4A4A4A"/>
<path d="M70.7 12.0525C70.7 12.0258 72.71 10.5218 73.02 10.3261C73.18 10.2193 73.2 10.2371 73.2 10.4773C73.2 10.7265 73.17 10.7532 72.9 10.7532C72.65 10.7532 72.6 10.7888 72.6 10.9757C72.6 11.1626 72.55 11.1982 72.3 11.1982C72.05 11.1982 72 11.2338 72 11.4206C72 11.6075 71.95 11.6431 71.7 11.6431C71.45 11.6431 71.4 11.6787 71.4 11.8656C71.4 12.0614 71.36 12.0881 71.05 12.0881C70.86 12.0881 70.7 12.0703 70.7 12.0525Z" fill="#4A4A4A"/>
<path d="M83.4 11.741C83.4 11.4829 83.43 11.4651 83.76 11.4651C84.15 11.4651 84.14 11.5452 83.7 11.8211C83.4 12.008 83.4 12.008 83.4 11.741Z" fill="#4A4A4A"/>
<path d="M8.33 11.2427C8.34 11.0113 8.4 10.9312 8.53 10.9312C8.66 10.9312 8.7 11.0024 8.7 11.2427C8.7 11.4918 8.66 11.5541 8.5 11.5541C8.33 11.5541 8.3 11.5007 8.33 11.2427Z" fill="#4A4A4A"/>
<path d="M27.2 11.2427C27.2 11.0558 27.15 11.0202 26.9 11.0202C26.63 11.0202 26.6 10.9935 26.6 10.7532C26.6 10.504 26.61 10.4951 26.82 10.593C26.94 10.6553 27.13 10.7977 27.23 10.9134C27.33 11.0202 27.47 11.1092 27.53 11.1092C27.6 11.1092 27.71 11.1893 27.78 11.2872C27.89 11.4562 27.88 11.4651 27.55 11.4651C27.24 11.4651 27.2 11.4384 27.2 11.2427Z" fill="#4A4A4A"/>
<path d="M12.75 11.038C12.25 10.7087 12.25 10.7087 12.6 10.682C12.79 10.6642 12.96 10.6909 12.98 10.7443C13 10.7977 13.08 10.8422 13.16 10.8422C13.25 10.8422 13.3 10.9401 13.3 11.1092C13.3 11.2605 13.29 11.3761 13.28 11.3761C13.26 11.3761 13.03 11.2249 12.75 11.038Z" fill="#4A4A4A"/>
<path d="M10.2 10.8778C10.2 10.7532 10.23 10.6642 10.28 10.682C11.01 10.9935 11.08 11.1092 10.55 11.1092C10.24 11.1092 10.2 11.0825 10.2 10.8778Z" fill="#4A4A4A"/>
<path d="M84.9 10.6731C84.9 10.415 84.93 10.3972 85.26 10.3972C85.65 10.3972 85.64 10.4773 85.2 10.7532C84.9 10.9401 84.9 10.9401 84.9 10.6731Z" fill="#4A4A4A"/>
<path d="M90.8 10.0858C90.8 9.72982 91.04 9.64972 91.14 9.97899C91.24 10.3083 91.21 10.3972 91 10.3972C90.84 10.3972 90.8 10.335 90.8 10.0858Z" fill="#4A4A4A"/>
<path d="M10.93 10.0858C10.5 9.9256 10.51 9.77431 10.95 9.77431C11.26 9.77431 11.3 9.80101 11.3 9.99679C11.3 10.1214 11.29 10.2193 11.28 10.2193C11.26 10.2104 11.1 10.157 10.93 10.0858Z" fill="#4A4A4A"/>
<path d="M86.6 9.60523C86.6 9.34716 86.63 9.32936 86.96 9.32936C87.35 9.32936 87.34 9.40945 86.9 9.68532C86.6 9.8722 86.6 9.8722 86.6 9.60523Z" fill="#4A4A4A"/>
<path d="M89.6 9.38276C89.6 9.26707 89.88 9.15138 90.18 9.15138C90.24 9.15138 90.3 9.23147 90.3 9.32936C90.3 9.47175 90.23 9.50734 89.95 9.50734C89.72 9.50734 89.6 9.46285 89.6 9.38276Z" fill="#4A4A4A"/>
<path d="M74.65 9.15138C74.68 9.10688 74.84 8.98229 75 8.8844C75.3 8.69752 75.3 8.69752 75.3 8.96449C75.3 9.22257 75.27 9.24037 74.94 9.24037C74.74 9.24037 74.61 9.20477 74.65 9.15138Z" fill="#4A4A4A"/>
<path d="M91.13 8.51064C90.71 8.27927 90.71 8.17248 91.15 8.17248C91.47 8.17248 91.5 8.19028 91.5 8.43945C91.5 8.59073 91.49 8.70642 91.48 8.69752C91.46 8.69752 91.3 8.60853 91.13 8.51064Z" fill="#4A4A4A"/>
<path d="M7.7 8.33266C7.7 8.06569 7.83 7.81651 7.96 7.81651C8.05 7.81651 8.1 7.9233 8.1 8.12798C8.1 8.37716 8.06 8.43945 7.9 8.43945C7.79 8.43945 7.7 8.38605 7.7 8.33266Z" fill="#4A4A4A"/>
<path d="M91.3 7.77202C91.3 7.41605 91.54 7.33596 91.64 7.66523C91.74 7.99449 91.71 8.08349 91.5 8.08349C91.34 8.08349 91.3 8.02119 91.3 7.77202Z" fill="#4A4A4A"/>
<path d="M76.55 7.81651C76.58 7.77202 76.74 7.64743 76.9 7.54954C77.2 7.36266 77.2 7.36266 77.2 7.62963C77.2 7.88771 77.17 7.9055 76.84 7.9055C76.64 7.9055 76.51 7.86991 76.55 7.81651Z" fill="#4A4A4A"/>
<path d="M77.45 7.19358C77.48 7.14908 77.64 7.0245 77.8 6.92661C78.1 6.73972 78.1 6.73972 78.1 7.0067C78.1 7.26477 78.07 7.28257 77.74 7.28257C77.54 7.28257 77.41 7.24697 77.45 7.19358Z" fill="#4A4A4A"/>
<path d="M20.8 6.65074C20.8 6.38376 20.8 6.38376 21.1 6.57064C21.54 6.84652 21.55 6.92661 21.16 6.92661C20.83 6.92661 20.8 6.90881 20.8 6.65074Z" fill="#4A4A4A"/>
<path d="M91.2 6.34817C91.2 5.9922 91.44 5.91211 91.54 6.24138C91.64 6.57064 91.61 6.65963 91.4 6.65963C91.24 6.65963 91.2 6.59734 91.2 6.34817Z" fill="#4A4A4A"/>
<path d="M7.9 5.84092C7.9 5.57395 8.03 5.32477 8.16 5.32477C8.25 5.32477 8.3 5.43156 8.3 5.63624C8.3 5.88541 8.26 5.94771 8.1 5.94771C7.99 5.94771 7.9 5.89431 7.9 5.84092Z" fill="#4A4A4A"/>
<path d="M91.1 5.45826C91.1 5.1023 91.34 5.0222 91.44 5.35147C91.54 5.68073 91.51 5.76973 91.3 5.76973C91.14 5.76973 91.1 5.70743 91.1 5.45826Z" fill="#4A4A4A"/>
<path d="M79.8 5.65404C79.8 5.63624 79.96 5.50275 80.15 5.35147C80.5 5.07559 80.5 5.0756 80.5 5.37817C80.5 5.66294 80.48 5.68073 80.15 5.68073C79.96 5.68073 79.8 5.67184 79.8 5.65404Z" fill="#4A4A4A"/>
<path d="M7.98 5.18239C7.88 5.1023 8.14 4.61285 8.27 4.61285C8.35 4.61285 8.4 4.72853 8.4 4.92431C8.4 5.16459 8.36 5.23578 8.22 5.23578C8.12 5.23578 8.01 5.20908 7.98 5.18239Z" fill="#4A4A4A"/>
<path d="M17.7 4.60394C17.7 4.33697 17.7 4.33697 18 4.52385C18.44 4.79972 18.45 4.87982 18.06 4.87982C17.73 4.87982 17.7 4.86202 17.7 4.60394Z" fill="#4A4A4A"/>
<path d="M16.7 3.98101C16.7 3.71404 16.7 3.71404 17 3.90092C17.44 4.17679 17.45 4.25688 17.06 4.25688C16.73 4.25688 16.7 4.23908 16.7 3.98101Z" fill="#4A4A4A"/>
<path d="M82.3 4.0433C82.43 3.90092 83.33 3.36697 83.43 3.36697C83.47 3.36697 83.5 3.46486 83.5 3.58945C83.5 3.73184 83.44 3.81193 83.35 3.81193C83.27 3.81193 83.2 3.85642 83.2 3.90092C83.2 3.95431 83.13 3.98991 83.05 3.98991C82.97 3.98991 82.9 4.03441 82.9 4.0789C82.9 4.1323 82.74 4.16789 82.54 4.16789C82.23 4.16789 82.19 4.15009 82.3 4.0433Z" fill="#4A4A4A"/>
<path d="M15.8 3.50046C15.8 3.23349 15.83 3.23349 16.21 3.42927C16.59 3.63395 16.58 3.72294 16.15 3.72294C15.84 3.72294 15.8 3.69624 15.8 3.50046Z" fill="#4A4A4A"/>
<path d="M90.56 2.91312C90.46 2.45927 90.49 2.21009 90.64 2.21009C90.72 2.21009 90.82 2.37918 90.89 2.60165C91.04 3.1356 91.03 3.18899 90.81 3.18899C90.68 3.18899 90.61 3.1 90.56 2.91312Z" fill="#4A4A4A"/>
<path d="M14.4 2.70844C14.4 2.58386 14.45 2.45927 14.5 2.43257C14.56 2.40587 14.6 2.41477 14.6 2.45927C14.6 2.50376 14.71 2.59275 14.85 2.65505C15.2 2.82413 15.16 2.92202 14.75 2.92202C14.45 2.92202 14.4 2.89532 14.4 2.70844Z" fill="#4A4A4A"/>
<path d="M85.2 2.40587C85.2 2.33468 85.72 2.03211 85.84 2.03211C85.87 2.03211 85.9 2.13 85.9 2.25459C85.9 2.45037 85.86 2.47707 85.55 2.47707C85.36 2.47707 85.2 2.44147 85.2 2.40587Z" fill="#4A4A4A"/>
<path d="M12.8 1.90752C12.8 1.78294 12.85 1.65835 12.9 1.63165C12.96 1.60495 13 1.61385 13 1.65835C13 1.70284 13.11 1.79184 13.25 1.85413C13.6 2.02321 13.56 2.1211 13.15 2.1211C12.85 2.1211 12.8 2.0944 12.8 1.90752Z" fill="#4A4A4A"/>
<path d="M86.1 1.96092C86.1 1.88973 86.62 1.58716 86.74 1.58716C86.77 1.58716 86.8 1.68505 86.8 1.80964C86.8 2.00542 86.76 2.03211 86.45 2.03211C86.26 2.03211 86.1 1.99652 86.1 1.96092Z" fill="#4A4A4A"/>
<path d="M86.9 1.58716C86.9 1.53376 87.02 1.44477 87.18 1.38248C87.33 1.32908 87.48 1.24009 87.52 1.1867C87.56 1.1422 87.6 1.12441 87.6 1.16C87.6 1.1956 87.71 1.1867 87.85 1.1422C88.07 1.06211 88.1 1.07991 88.1 1.27569C88.1 1.45367 88.05 1.49817 87.85 1.49817C87.71 1.49817 87.6 1.54266 87.6 1.58716C87.6 1.64055 87.44 1.67615 87.25 1.67615C87.06 1.67615 86.9 1.63165 86.9 1.58716Z" fill="#4A4A4A"/>
<path d="M11.6 1.36468C11.6 1.1511 11.61 1.1422 11.92 1.25789C12.38 1.42697 12.4 1.58716 11.96 1.58716C11.64 1.58716 11.6 1.56046 11.6 1.36468Z" fill="#4A4A4A"/>
<path d="M88.6 1.01762C88.6 0.901928 88.88 0.78624 89.18 0.78624C89.24 0.78624 89.3 0.866331 89.3 0.964221C89.3 1.10661 89.23 1.1422 88.95 1.1422C88.72 1.1422 88.6 1.09771 88.6 1.01762Z" fill="#4A4A4A"/>
</svg>
