<svg width="101" height="83" viewBox="0 0 101 83" fill="none" xmlns="http://www.w3.org/2000/svg">
<path d="M50.4 82.5477C50.4 82.4053 50.47 82.3697 50.75 82.3697C51.15 82.3697 51.24 82.5833 50.88 82.6723C50.5 82.7613 50.4 82.7346 50.4 82.5477Z" fill="#737373"/>
<path d="M52.4 82.4053C52.4 82.2184 52.45 82.1917 52.75 82.1917C52.97 82.1917 53.1 82.2362 53.1 82.3074C53.1 82.3786 52.94 82.4676 52.75 82.521C52.42 82.6189 52.4 82.61 52.4 82.4053Z" fill="#737373"/>
<path d="M55.6 81.6044C55.6 81.4175 55.65 81.3908 55.95 81.3908C56.35 81.3908 56.4 81.5154 56.08 81.6756C55.71 81.8536 55.6 81.8358 55.6 81.6044Z" fill="#737373"/>
<path d="M49.4 81.3552C49.4 81.2395 49.68 81.1238 49.98 81.1238C50.04 81.1238 50.1 81.2039 50.1 81.3018C50.1 81.4442 50.03 81.4798 49.75 81.4798C49.52 81.4798 49.4 81.4353 49.4 81.3552Z" fill="#737373"/>
<path d="M52.3 81.1238C52.3 81.0349 53.07 80.6878 53.38 80.6255C53.45 80.6166 53.5 80.6967 53.5 80.8213C53.5 80.9904 53.45 81.0349 53.25 81.0349C53.11 81.0349 53 81.0793 53 81.1238C53 81.1772 52.84 81.2128 52.65 81.2128C52.46 81.2128 52.3 81.1683 52.3 81.1238Z" fill="#737373"/>
<path d="M47.5 80.9103C47.5 80.6789 47.61 80.6611 47.98 80.8391C48.3 80.9993 48.25 81.1239 47.85 81.1239C47.55 81.1239 47.5 81.0972 47.5 80.9103Z" fill="#737373"/>
<path d="M46.6 80.5454C46.6 80.2873 46.62 80.2784 47 80.4564C47.4 80.6433 47.38 80.7679 46.95 80.7679C46.64 80.7679 46.6 80.7412 46.6 80.5454Z" fill="#737373"/>
<path d="M41.78 80.5187C41.36 80.2873 41.35 80.145 41.75 80.145C42.07 80.145 42.1 80.1627 42.1 80.4119C42.1 80.5632 42.09 80.6789 42.08 80.67C42.06 80.67 41.93 80.5988 41.78 80.5187Z" fill="#737373"/>
<path d="M58 80.4119C58 80.1627 58.03 80.145 58.35 80.145C58.76 80.145 58.74 80.2962 58.3 80.5187C58 80.67 58 80.67 58 80.4119Z" fill="#737373"/>
<path d="M50.1 80.2161C50.1 80.0916 50.18 80.056 50.45 80.056C50.73 80.056 50.8 80.0916 50.8 80.2339C50.8 80.3763 50.74 80.403 50.45 80.3941C50.18 80.3852 50.1 80.3407 50.1 80.2161Z" fill="#737373"/>
<path d="M48.58 80.2251C48.29 80.0827 48.37 79.967 48.75 79.967C49.03 79.967 49.1 80.0026 49.1 80.145C49.1 80.3407 48.86 80.3763 48.58 80.2251Z" fill="#737373"/>
<path d="M47.82 79.9848C47.5 79.7979 47.55 79.7 47.95 79.7C48.25 79.7 48.3 79.7267 48.3 79.9047C48.3 80.145 48.13 80.1717 47.82 79.9848Z" fill="#737373"/>
<path d="M52.9 79.8246C52.9 79.6021 52.96 79.5309 53.25 79.4063C53.45 79.3262 53.74 79.255 53.9 79.255C54.13 79.255 54.2 79.2194 54.2 79.0771C54.2 78.9347 54.27 78.8991 54.55 78.8991C54.74 78.8991 54.9 78.9258 54.9 78.9525C54.9 79.0415 54.64 79.2283 54.42 79.2906C54.3 79.3262 54.2 79.3974 54.2 79.4419C54.2 79.4864 54.17 79.5131 54.13 79.5042C54.02 79.4864 53.07 79.9047 52.98 80.0115C52.94 80.0649 52.9 79.9759 52.9 79.8246Z" fill="#737373"/>
<path d="M40.33 79.2105C40.02 78.8991 40.02 78.8991 40.36 78.8991C40.68 78.8991 40.7 78.9169 40.7 79.2105C40.7 79.3796 40.69 79.522 40.67 79.522C40.65 79.522 40.5 79.3796 40.33 79.2105Z" fill="#737373"/>
<path d="M43.7 78.8101C43.7 78.552 43.7 78.552 44 78.7033C44.44 78.9258 44.46 79.0771 44.05 79.0771C43.73 79.0771 43.7 79.0593 43.7 78.8101Z" fill="#737373"/>
<path d="M55.1 78.6321C55.1 78.4274 55.14 78.3651 55.3 78.3651C55.41 78.3651 55.5 78.3028 55.5 78.2316C55.5 78.1427 55.61 78.0982 55.85 78.0982C56.11 78.0982 56.18 78.1249 56.14 78.2316C56.1 78.3028 56.04 78.3651 55.99 78.3651C55.94 78.3651 55.82 78.4363 55.72 78.5253C55.62 78.6054 55.44 78.73 55.32 78.7923C55.11 78.8902 55.1 78.8813 55.1 78.6321Z" fill="#737373"/>
<path d="M56.6 78.8546C56.6 78.8279 56.87 78.5787 57.2 78.3028C57.53 78.0181 57.8 77.76 57.8 77.7155C57.8 77.6354 58.05 77.3862 58.14 77.3862C58.17 77.3862 58.2 77.5286 58.2 77.6977C58.2 77.9469 58.16 78.0092 58 78.0092C57.86 78.0092 57.8 78.0715 57.8 78.2138C57.8 78.5164 57.31 78.8991 56.92 78.8991C56.74 78.8991 56.6 78.8813 56.6 78.8546Z" fill="#737373"/>
<path d="M45.3 78.7211C45.3 78.6677 45.23 78.6054 45.15 78.5698C45.06 78.5431 44.86 78.4185 44.71 78.285C44.56 78.1604 44.32 77.9736 44.19 77.8668C43.91 77.6532 43.36 76.9591 43.34 76.79C43.33 76.7188 43.42 76.6743 43.56 76.6743C43.77 76.6743 43.8 76.7188 43.8 76.9858C43.8 77.2616 43.83 77.2972 44.06 77.2972C44.23 77.2972 44.34 77.3506 44.37 77.4663C44.4 77.5642 44.5 77.6532 44.61 77.6799C44.74 77.7066 44.8 77.8045 44.8 77.9558C44.8 78.1516 44.84 78.1871 45.1 78.1871C45.38 78.1871 45.4 78.2138 45.4 78.4986C45.4 78.6677 45.38 78.8101 45.35 78.8101C45.32 78.8101 45.3 78.7656 45.3 78.7211Z" fill="#737373"/>
<path d="M42.2 77.0748C42.2 76.7188 42.43 76.6387 42.55 76.968C42.69 77.3596 42.68 77.3862 42.44 77.3862C42.23 77.3862 42.2 77.3418 42.2 77.0748Z" fill="#737373"/>
<path d="M58.19 77.1015C58.24 76.9858 58.28 76.879 58.28 76.8523C58.32 76.3895 58.7 76.0959 58.7 76.5319C58.7 77.0481 58.58 77.2972 58.34 77.2972C58.14 77.2972 58.12 77.2706 58.19 77.1015Z" fill="#737373"/>
<path d="M38.18 76.0336C37.98 75.7043 38 75.6064 38.26 75.6064C38.47 75.6064 38.5 75.6509 38.5 75.9179C38.5 76.2738 38.36 76.3183 38.18 76.0336Z" fill="#737373"/>
<path d="M57.06 76.0336C56.95 75.642 56.99 75.3394 57.17 75.3394C57.26 75.3394 57.3 75.3661 57.27 75.4017C57.23 75.4284 57.27 75.5352 57.37 75.6242C57.46 75.7132 57.5 75.7844 57.47 75.7844C57.43 75.7844 57.45 75.8823 57.5 76.0069C57.58 76.2027 57.57 76.2294 57.36 76.2294C57.2 76.2294 57.1 76.1671 57.06 76.0336Z" fill="#737373"/>
<path d="M61.8 75.3928C61.8 75.1081 61.83 75.0725 62.05 75.0725C62.29 75.0725 62.3 75.0814 62.17 75.3572C61.98 75.7666 61.8 75.7844 61.8 75.3928Z" fill="#737373"/>
<path d="M42.3 75.3483C42.3 75.206 42.33 75.028 42.36 74.9479C42.43 74.7877 42.85 74.7521 42.95 74.8945C42.98 74.9479 42.97 74.9835 42.92 74.9835C42.88 74.9835 42.76 75.1259 42.67 75.2949C42.47 75.6776 42.3 75.6954 42.3 75.3483Z" fill="#737373"/>
<path d="M43.67 75.2504C43.7 75.1526 43.78 75.0725 43.86 75.0725C43.93 75.0725 44.11 75.028 44.27 74.9657C44.42 74.9123 44.64 74.85 44.75 74.8322C44.86 74.8144 45.02 74.7788 45.1 74.7432C45.18 74.7165 45.3 74.6809 45.35 74.672C45.41 74.6542 45.52 74.6364 45.6 74.6186C45.69 74.5919 45.76 74.6631 45.78 74.7877C45.81 74.9568 45.77 74.9835 45.46 74.9835C45.26 74.9835 45.1 75.0191 45.1 75.0547C45.1 75.1437 44.12 75.4284 43.83 75.4284C43.67 75.4284 43.63 75.3839 43.67 75.2504Z" fill="#737373"/>
<path d="M55.3 74.8856C55.3 74.7343 55.35 74.7076 55.62 74.7432C55.83 74.761 55.96 74.8322 55.98 74.9212C56.01 75.0369 55.94 75.0725 55.66 75.0725C55.36 75.0725 55.3 75.0369 55.3 74.8856Z" fill="#737373"/>
<path d="M57.9 74.9568C57.82 74.8945 57.69 74.761 57.62 74.6453C57.51 74.4584 57.52 74.4495 57.8 74.4495C58.08 74.4495 58.1 74.4762 58.1 74.761C58.1 75.1081 58.1 75.1081 57.9 74.9568Z" fill="#737373"/>
<path d="M54.1 74.6275C54.1 74.4406 54.2 74.4139 54.58 74.5029C54.94 74.5919 54.85 74.8055 54.45 74.8055C54.17 74.8055 54.1 74.7699 54.1 74.6275Z" fill="#737373"/>
<path d="M37.56 74.5208C37.46 74.1826 37.49 74.0936 37.7 74.0936C37.86 74.0936 37.9 74.1559 37.9 74.4051C37.9 74.761 37.66 74.8411 37.56 74.5208Z" fill="#737373"/>
<path d="M46.5 74.5919C46.5 74.4762 46.78 74.3606 47.08 74.3606C47.14 74.3606 47.2 74.4406 47.2 74.5385C47.2 74.6809 47.13 74.7165 46.85 74.7165C46.62 74.7165 46.5 74.672 46.5 74.5919Z" fill="#737373"/>
<path d="M49.2 74.325C49.2 74.2093 49.48 74.0936 49.78 74.0936C49.84 74.0936 49.9 74.1737 49.9 74.2716C49.9 74.414 49.83 74.4496 49.55 74.4496C49.32 74.4496 49.2 74.4051 49.2 74.325Z" fill="#737373"/>
<path d="M53.7 73.6041C53.62 73.5863 53.38 73.5507 53.18 73.5151C52.94 73.4795 52.8 73.4172 52.8 73.3371C52.8 73.1859 52.91 73.177 53.68 73.2571C54.1 73.3104 54.2 73.346 54.2 73.4795C54.2 73.6397 54.08 73.6664 53.7 73.6041Z" fill="#737373"/>
<path d="M62.5 73.2482C62.5 72.999 62.54 72.9367 62.7 72.9367C62.91 72.9367 62.94 73.0257 62.84 73.3639C62.74 73.6842 62.5 73.6041 62.5 73.2482Z" fill="#737373"/>
<path d="M37.06 72.5184C36.87 71.6196 36.87 71.5128 37.09 71.5128C37.22 71.5128 37.3 71.5662 37.3 71.673C37.3 71.7531 37.33 72.0379 37.36 72.296C37.42 72.6786 37.4 72.7587 37.27 72.7587C37.18 72.7587 37.09 72.6519 37.06 72.5184Z" fill="#737373"/>
<path d="M36.86 70.7831C36.76 70.445 36.79 70.356 37 70.356C37.16 70.356 37.2 70.4183 37.2 70.6674C37.2 71.0234 36.96 71.1035 36.86 70.7831Z" fill="#737373"/>
<path d="M62.8 68.6207C62.8 68.2647 63.04 68.1846 63.14 68.5139C63.24 68.8431 63.21 68.9321 63 68.9321C62.84 68.9321 62.8 68.8698 62.8 68.6207Z" fill="#737373"/>
<path d="M62.6 67.3748C62.6 67.0188 62.84 66.9387 62.94 67.268C63.04 67.5973 63.01 67.6862 62.8 67.6862C62.64 67.6862 62.6 67.6239 62.6 67.3748Z" fill="#737373"/>
<path d="M37.2 66.8675C37.2 66.6006 37.33 66.3514 37.46 66.3514C37.55 66.3514 37.6 66.4582 37.6 66.6628C37.6 66.912 37.56 66.9743 37.4 66.9743C37.29 66.9743 37.2 66.9209 37.2 66.8675Z" fill="#737373"/>
<path d="M36.38 65.7551C36.05 65.684 36.18 65.4615 36.55 65.4615C36.83 65.4615 36.9 65.4971 36.9 65.6395C36.9 65.8174 36.76 65.8441 36.38 65.7551Z" fill="#737373"/>
<path d="M64.7 65.4615C64.7 65.3191 64.77 65.2835 65.05 65.2835C65.45 65.2835 65.54 65.4971 65.18 65.5861C64.8 65.675 64.7 65.6483 64.7 65.4615Z" fill="#737373"/>
<path d="M34.28 65.4882C33.95 65.417 34.08 65.1945 34.45 65.1945C34.73 65.1945 34.8 65.2301 34.8 65.3725C34.8 65.5505 34.66 65.5772 34.28 65.4882Z" fill="#737373"/>
<path d="M33.03 65.3547C32.58 65.2212 32.6 65.0165 33.05 65.0165C33.36 65.0165 33.4 65.0432 33.4 65.239C33.4 65.3636 33.39 65.4615 33.38 65.4526C33.36 65.4437 33.2 65.3992 33.03 65.3547Z" fill="#737373"/>
<path d="M66.1 65.2835C66.1 65.1411 66.17 65.1055 66.45 65.1055C66.85 65.1055 66.94 65.3191 66.58 65.4081C66.2 65.4971 66.1 65.4704 66.1 65.2835Z" fill="#737373"/>
<path d="M68.1 65.0521C68.1 64.8652 68.15 64.8385 68.45 64.8385C68.67 64.8385 68.8 64.883 68.8 64.9542C68.8 65.0254 68.64 65.1144 68.45 65.1678C68.12 65.2657 68.1 65.2568 68.1 65.0521Z" fill="#737373"/>
<path d="M27.68 64.5983C27.35 64.5271 27.48 64.3046 27.85 64.3046C28.13 64.3046 28.2 64.3402 28.2 64.4826C28.2 64.6606 28.06 64.6873 27.68 64.5983Z" fill="#737373"/>
<path d="M25.78 64.3313C25.45 64.2601 25.58 64.0376 25.95 64.0376C26.23 64.0376 26.3 64.0732 26.3 64.2156C26.3 64.3936 26.16 64.4203 25.78 64.3313Z" fill="#737373"/>
<path d="M73.9 64.2156C73.9 64.0732 73.97 64.0376 74.25 64.0376C74.65 64.0376 74.74 64.2512 74.38 64.3402C74 64.4292 73.9 64.4025 73.9 64.2156Z" fill="#737373"/>
<path d="M22.78 63.8863C22.45 63.8151 22.58 63.5927 22.95 63.5927C23.23 63.5927 23.3 63.6283 23.3 63.7706C23.3 63.9486 23.16 63.9753 22.78 63.8863Z" fill="#737373"/>
<path d="M18.68 63.2634C18.35 63.1922 18.48 62.9697 18.85 62.9697C19.13 62.9697 19.2 63.0053 19.2 63.1477C19.2 63.3257 19.06 63.3524 18.68 63.2634Z" fill="#737373"/>
<path d="M82.2 62.9697C82.2 62.8273 82.27 62.7917 82.55 62.7917C82.82 62.7917 82.9 62.8273 82.9 62.9519C82.9 63.0587 82.81 63.1121 82.55 63.121C82.26 63.1477 82.2 63.121 82.2 62.9697Z" fill="#737373"/>
<path d="M14.68 62.6405C14.35 62.5693 14.48 62.3468 14.85 62.3468C15.13 62.3468 15.2 62.3824 15.2 62.5248C15.2 62.7027 15.06 62.7294 14.68 62.6405Z" fill="#737373"/>
<path d="M85 62.5248C85 62.3824 85.07 62.3468 85.35 62.3468C85.75 62.3468 85.84 62.5604 85.48 62.6494C85.1 62.7383 85 62.7116 85 62.5248Z" fill="#737373"/>
<path d="M88.4 61.9908C88.4 61.8484 88.47 61.8128 88.75 61.8128C89.02 61.8128 89.1 61.8484 89.1 61.973C89.1 62.0798 89.01 62.1332 88.75 62.1421C88.46 62.1688 88.4 62.1421 88.4 61.9908Z" fill="#737373"/>
<path d="M9.15 61.7683C8.82 61.7061 8.52 61.6705 8.48 61.6883C8.43 61.715 8.4 61.6527 8.4 61.5548C8.4 61.3323 8.55 61.3234 9.46 61.4747C9.97 61.5548 10.1 61.6082 10.1 61.7417C10.1 61.9285 9.99 61.9285 9.15 61.7683Z" fill="#737373"/>
<path d="M6.88 61.3946C6.55 61.3234 6.68 61.1009 7.05 61.1009C7.33 61.1009 7.4 61.1365 7.4 61.2789C7.4 61.4569 7.26 61.4836 6.88 61.3946Z" fill="#737373"/>
<path d="M4.6 60.9051C4.6 60.7806 4.68 60.745 4.95 60.745C5.23 60.745 5.3 60.7806 5.3 60.9229C5.3 61.0742 5.24 61.1009 4.95 61.0742C4.69 61.0653 4.6 61.0119 4.6 60.9051Z" fill="#737373"/>
<path d="M3.18 60.7717C2.85 60.7005 2.98 60.478 3.35 60.478C3.63 60.478 3.7 60.5136 3.7 60.656C3.7 60.8339 3.56 60.8606 3.18 60.7717Z" fill="#737373"/>
<path d="M0.480014 60.3267C0.150014 60.2555 0.280014 60.033 0.650014 60.033C0.930014 60.033 1.00001 60.0686 1.00001 60.211C1.00001 60.389 0.860014 60.4157 0.480014 60.3267Z" fill="#737373"/>
<path d="M99.5 60.122C99.5 59.9796 99.57 59.944 99.8 59.944C100.12 59.944 100.22 60.1487 99.94 60.2466C99.65 60.3445 99.5 60.3 99.5 60.122Z" fill="#737373"/>
<path d="M99.6 58.3867C99.6 58.0307 99.84 57.9506 99.94 58.2799C100.04 58.6092 100.01 58.6982 99.8 58.6982C99.64 58.6982 99.6 58.6359 99.6 58.3867Z" fill="#737373"/>
<path d="M65 58.2532C65 58.0663 65.1 58.0396 65.48 58.1286C65.84 58.2176 65.75 58.4312 65.35 58.4312C65.07 58.4312 65 58.3956 65 58.2532Z" fill="#737373"/>
<path d="M35.2 58.2176C35.2 58.1019 35.48 57.9862 35.78 57.9862C35.84 57.9862 35.9 58.0663 35.9 58.1642C35.9 58.3066 35.83 58.3422 35.55 58.3422C35.32 58.3422 35.2 58.2977 35.2 58.2176Z" fill="#737373"/>
<path d="M23.3 57.8083C23.3 57.6214 23.4 57.5947 23.78 57.6837C24.14 57.7727 24.05 57.9862 23.65 57.9862C23.37 57.9862 23.3 57.9506 23.3 57.8083Z" fill="#737373"/>
<path d="M76.9 57.746C76.9 57.6303 76.99 57.5769 77.25 57.568C77.54 57.5413 77.6 57.568 77.6 57.7193C77.6 57.8616 77.53 57.8972 77.25 57.8972C76.98 57.8972 76.9 57.8616 76.9 57.746Z" fill="#737373"/>
<path d="M21.98 57.746C21.78 57.7193 21.7 57.657 21.7 57.5235C21.7 57.3633 21.74 57.3544 22.13 57.4167C22.36 57.4523 22.63 57.4879 22.73 57.4879C22.82 57.4879 22.9 57.5591 22.9 57.6481C22.9 57.8083 22.66 57.835 21.98 57.746Z" fill="#737373"/>
<path d="M30.18 57.568C29.85 57.4968 29.98 57.2743 30.35 57.2743C30.63 57.2743 30.7 57.3099 30.7 57.4523C30.7 57.6303 30.56 57.657 30.18 57.568Z" fill="#737373"/>
<path d="M31.9 57.4523C31.9 57.3099 31.97 57.2743 32.25 57.2743C32.65 57.2743 32.74 57.4879 32.38 57.5769C32 57.6659 31.9 57.6392 31.9 57.4523Z" fill="#737373"/>
<path d="M0.400002 57.4523C0.400002 57.3633 0.76 57.1586 0.98 57.1319C1.05 57.123 1.1 57.2031 1.1 57.3277C1.1 57.5146 1.05 57.5413 0.750002 57.5413C0.560002 57.5413 0.400002 57.5057 0.400002 57.4523Z" fill="#737373"/>
<path d="M34.2 57.2743C34.2 57.1319 34.27 57.0963 34.55 57.0963C34.95 57.0963 35.04 57.3099 34.68 57.3989C34.3 57.4879 34.2 57.4612 34.2 57.2743Z" fill="#737373"/>
<path d="M72.4 57.2743C72.4 57.1319 72.47 57.0963 72.75 57.0963C73.15 57.0963 73.24 57.3099 72.88 57.3989C72.5 57.4879 72.4 57.4612 72.4 57.2743Z" fill="#737373"/>
<path d="M26.3 57.2654C25.18 57.1052 25.1 57.0874 25.1 56.9628C25.1 56.8027 25.18 56.8027 26.31 56.9361C27.06 57.0251 27.2 57.0607 27.2 57.2031C27.2 57.3811 27.14 57.3811 26.3 57.2654Z" fill="#737373"/>
<path d="M38.2 57.212C38.2 57.1319 38.23 57.0963 38.26 57.123C38.3 57.1497 38.42 57.123 38.54 57.0518C38.83 56.865 38.9 56.8828 38.9 57.1408C38.9 57.3366 38.86 57.3633 38.55 57.3633C38.29 57.3633 38.2 57.3277 38.2 57.212Z" fill="#737373"/>
<path d="M65.08 57.301C64.75 57.2298 64.88 57.0073 65.25 57.0073C65.53 57.0073 65.6 57.0429 65.6 57.1853C65.6 57.3633 65.46 57.39 65.08 57.301Z" fill="#737373"/>
<path d="M80.5 57.123C80.5 57.0073 80.59 56.9539 80.85 56.945C81.14 56.9183 81.2 56.945 81.2 57.0963C81.2 57.2387 81.13 57.2743 80.85 57.2743C80.58 57.2743 80.5 57.2387 80.5 57.123Z" fill="#737373"/>
<path d="M17.9 56.9184C17.9 56.7315 18 56.7048 18.38 56.7938C18.74 56.8828 18.65 57.0963 18.25 57.0963C17.97 57.0963 17.9 57.0607 17.9 56.9184Z" fill="#737373"/>
<path d="M63.73 56.9628C63.33 56.8116 63.3 56.6514 63.68 56.6514C64.15 56.6514 64.4 56.7493 64.4 56.9272C64.4 57.1319 64.18 57.1408 63.73 56.9628Z" fill="#737373"/>
<path d="M60.9 56.7849C60.9 56.598 60.85 56.5624 60.62 56.5624C60.47 56.5624 60.29 56.5179 60.22 56.4556C60.1 56.3488 60.05 55.7615 60.16 55.7615C60.19 55.7615 60.43 55.9662 60.7 56.2064C60.97 56.4556 61.22 56.6514 61.27 56.6514C61.31 56.6514 61.41 56.7315 61.48 56.8294C61.59 56.9984 61.58 57.0073 61.25 57.0073C60.94 57.0073 60.9 56.9806 60.9 56.7849Z" fill="#737373"/>
<path d="M82.3 56.8916C82.3 56.8205 82.46 56.7315 82.65 56.6781C82.98 56.5802 83 56.5891 83 56.7938C83 56.9806 82.95 57.0073 82.65 57.0073C82.43 57.0073 82.3 56.9628 82.3 56.8916Z" fill="#737373"/>
<path d="M85.3 56.5268C85.3 56.4111 85.58 56.2954 85.88 56.2954C85.94 56.2954 86 56.3755 86 56.4734C86 56.6158 85.93 56.6514 85.65 56.6514C85.42 56.6514 85.3 56.6069 85.3 56.5268Z" fill="#737373"/>
<path d="M0.299999 56.4467C0.299999 56.1886 0.43 55.9394 0.56 55.9394C0.79 55.9394 0.739999 56.4467 0.499999 56.5001C0.379999 56.5268 0.299999 56.5001 0.299999 56.4467Z" fill="#737373"/>
<path d="M39.78 56.2064C40.01 56.0017 40.2 55.806 40.2 55.7615C40.2 55.7081 40.25 55.6725 40.3 55.6725C40.36 55.6725 40.4 55.8149 40.4 55.9839C40.4 56.1975 40.35 56.2954 40.25 56.2954C40.17 56.2954 40.1 56.3577 40.1 56.4289C40.1 56.5268 39.99 56.5624 39.73 56.5624C39.36 56.5624 39.36 56.5624 39.78 56.2064Z" fill="#737373"/>
<path d="M5.7 56.3488C5.7 56.2331 5.98 56.1174 6.28 56.1174C6.34 56.1174 6.4 56.1975 6.4 56.2954C6.4 56.4378 6.33 56.4734 6.05 56.4734C5.82 56.4734 5.7 56.4289 5.7 56.3488Z" fill="#737373"/>
<path d="M12.2 56.2954C12.2 56.1085 12.3 56.0818 12.68 56.1708C13.04 56.2598 12.95 56.4734 12.55 56.4734C12.27 56.4734 12.2 56.4378 12.2 56.2954Z" fill="#737373"/>
<path d="M87.4 56.3488C87.4 56.2331 87.68 56.1174 87.98 56.1174C88.04 56.1174 88.1 56.1975 88.1 56.2954C88.1 56.4378 88.03 56.4734 87.75 56.4734C87.52 56.4734 87.4 56.4289 87.4 56.3488Z" fill="#737373"/>
<path d="M7.1 56.2598C7.1 56.1441 7.38 56.0284 7.68 56.0284C7.74 56.0284 7.8 56.1085 7.8 56.2064C7.8 56.3488 7.73 56.3844 7.45 56.3844C7.22 56.3844 7.1 56.3399 7.1 56.2598Z" fill="#737373"/>
<path d="M10.3 56.2064C10.3 56.0195 10.4 55.9928 10.78 56.0818C11.14 56.1708 11.05 56.3844 10.65 56.3844C10.37 56.3844 10.3 56.3488 10.3 56.2064Z" fill="#737373"/>
<path d="M79.5 56.2064C79.5 56.064 79.57 56.0284 79.85 56.0284C80.25 56.0284 80.34 56.242 79.98 56.331C79.6 56.42 79.5 56.3933 79.5 56.2064Z" fill="#737373"/>
<path d="M98.63 56.0996C98.18 55.9662 98.2 55.7615 98.65 55.7615C98.96 55.7615 99 55.7882 99 55.984C99 56.1085 98.99 56.2064 98.98 56.1975C98.96 56.1886 98.8 56.1441 98.63 56.0996Z" fill="#737373"/>
<path d="M17.9 55.8327C17.9 55.7081 17.98 55.6725 18.25 55.6725C18.53 55.6725 18.6 55.7081 18.6 55.8505C18.6 56.0017 18.54 56.0284 18.25 56.0017C17.99 55.9928 17.9 55.9394 17.9 55.8327Z" fill="#737373"/>
<path d="M82.4 55.7971C82.4 55.6102 82.45 55.5835 82.75 55.5835C82.97 55.5835 83.1 55.628 83.1 55.6992C83.1 55.7704 82.94 55.8594 82.75 55.9128C82.42 56.0106 82.4 56.0017 82.4 55.7971Z" fill="#737373"/>
<path d="M83.8 55.5835C83.8 55.4411 83.87 55.4055 84.15 55.4055C84.55 55.4055 84.64 55.6191 84.28 55.7081C83.9 55.7971 83.8 55.7704 83.8 55.5835Z" fill="#737373"/>
<path d="M84.6 55.4945C84.6 55.3521 84.67 55.3165 84.95 55.3165C85.35 55.3165 85.44 55.5301 85.08 55.6191C84.7 55.7081 84.6 55.6814 84.6 55.4945Z" fill="#737373"/>
<path d="M96.38 55.6102C96.05 55.539 96.18 55.3165 96.55 55.3165C96.83 55.3165 96.9 55.3521 96.9 55.4945C96.9 55.6725 96.76 55.6992 96.38 55.6102Z" fill="#737373"/>
<path d="M14.28 55.5212C13.95 55.45 14.08 55.2275 14.45 55.2275C14.73 55.2275 14.8 55.2631 14.8 55.4055C14.8 55.5835 14.66 55.6102 14.28 55.5212Z" fill="#737373"/>
<path d="M86.5 55.3165C86.5 55.1741 86.57 55.1385 86.85 55.1385C87.25 55.1385 87.34 55.3521 86.98 55.4411C86.6 55.5301 86.5 55.5034 86.5 55.3165Z" fill="#737373"/>
<path d="M7.7 55.1385C7.7 54.9961 7.77 54.9605 8.05 54.9605C8.45 54.9605 8.54 55.1741 8.18 55.2631C7.8 55.3521 7.7 55.3254 7.7 55.1385Z" fill="#737373"/>
<path d="M10.08 55.2542C9.75 55.183 9.88 54.9605 10.25 54.9605C10.53 54.9605 10.6 54.9961 10.6 55.1385C10.6 55.3165 10.46 55.3432 10.08 55.2542Z" fill="#737373"/>
<path d="M40.7 55.2631C40.7 55.1563 41.04 54.6936 41.12 54.6936C41.16 54.6936 41.2 54.836 41.2 55.005C41.2 55.2809 41.17 55.3165 40.95 55.3165C40.81 55.3165 40.7 55.2898 40.7 55.2631Z" fill="#737373"/>
<path d="M60.16 54.3465C60.13 54.3109 60.06 54.1685 60.01 54.035C59.91 53.8215 59.93 53.8037 60.15 53.8037C60.37 53.8037 60.4 53.8393 60.4 54.1151C60.4 54.4088 60.28 54.5245 60.16 54.3465Z" fill="#737373"/>
<path d="M58.7 54.0172C58.7 53.6257 58.88 53.6435 59.07 54.0528C59.2 54.3287 59.19 54.3376 58.95 54.3376C58.73 54.3376 58.7 54.302 58.7 54.0172Z" fill="#737373"/>
<path d="M0.74 53.7414C0.88 53.0117 0.920001 52.9138 1.06 52.9138C1.22 52.9138 1.23 53.0473 1.14 53.6613C1.09 53.9906 1.03 54.0706 0.879999 54.0706C0.699999 54.0706 0.69 54.0261 0.74 53.7414Z" fill="#737373"/>
<path d="M98.8 52.8693C98.8 52.629 98.84 52.5578 98.98 52.5578C99.1 52.5578 99.16 52.6379 99.17 52.8693C99.2 53.1273 99.17 53.1807 99 53.1807C98.84 53.1807 98.8 53.1184 98.8 52.8693Z" fill="#737373"/>
<path d="M58.06 52.4599C57.96 52.0061 57.99 51.7569 58.14 51.7569C58.28 51.7569 58.38 51.9527 58.46 52.451C58.51 52.6913 58.49 52.7358 58.32 52.7358C58.18 52.7358 58.11 52.6557 58.06 52.4599Z" fill="#737373"/>
<path d="M36.5 52.1573C36.5 51.9438 36.55 51.8459 36.65 51.8459C36.73 51.8459 36.8 51.9082 36.8 51.9794C36.8 52.0505 36.89 52.1929 37 52.2908C37.2 52.4688 37.2 52.4688 36.85 52.4688C36.52 52.4688 36.5 52.451 36.5 52.1573Z" fill="#737373"/>
<path d="M69.9 52.1573C69.9 51.9438 69.95 51.8459 70.05 51.8459C70.13 51.8459 70.2 51.9082 70.2 51.9794C70.2 52.0505 70.29 52.1929 70.4 52.2908C70.6 52.4688 70.6 52.4688 70.25 52.4688C69.92 52.4688 69.9 52.451 69.9 52.1573Z" fill="#737373"/>
<path d="M59.23 52.1217C59.11 51.8281 59.15 51.7569 59.42 51.7569C59.56 51.7569 59.6 51.8281 59.6 52.0683C59.6 52.451 59.39 52.4866 59.23 52.1217Z" fill="#737373"/>
<path d="M62.63 52.0683C62.69 51.8993 62.79 51.7569 62.87 51.7569C62.95 51.7569 63 51.8726 63 52.0683C63 52.3353 62.97 52.3798 62.76 52.3798C62.53 52.3798 62.52 52.362 62.63 52.0683Z" fill="#737373"/>
<path d="M40.9 51.7124C40.9 51.4632 40.94 51.4009 41.1 51.4009C41.31 51.4009 41.34 51.4899 41.24 51.8281C41.14 52.1484 40.9 52.0683 40.9 51.7124Z" fill="#737373"/>
<path d="M59.06 51.2941C58.96 50.956 58.99 50.867 59.2 50.867C59.36 50.867 59.4 50.9293 59.4 51.1784C59.4 51.5344 59.16 51.6145 59.06 51.2941Z" fill="#737373"/>
<path d="M98.4 51.0894C98.4 50.7068 98.61 50.6712 98.77 51.0361C98.89 51.3297 98.85 51.4009 98.58 51.4009C98.44 51.4009 98.4 51.3297 98.4 51.0894Z" fill="#737373"/>
<path d="M1.28 51.2585C1.18 51.1784 1.44 50.689 1.57 50.689C1.65 50.689 1.7 50.8047 1.7 51.0005C1.7 51.2407 1.66 51.3119 1.52 51.3119C1.42 51.3119 1.31 51.2852 1.28 51.2585Z" fill="#737373"/>
<path d="M62.84 50.9382C62.87 50.7424 63.1 50.422 63.2 50.422C63.26 50.422 63.3 50.5644 63.3 50.7335C63.3 51.0005 63.27 51.045 63.06 51.045C62.92 51.045 62.83 51.0005 62.84 50.9382Z" fill="#737373"/>
<path d="M29.62 50.5822C29.73 50.2974 29.92 50.0661 30.04 50.0661C30.12 50.0661 30.12 50.5466 30.04 50.7246C30.01 50.8047 29.87 50.867 29.74 50.867C29.52 50.867 29.52 50.8492 29.62 50.5822Z" fill="#737373"/>
<path d="M37.38 50.5822C37.31 50.4665 37.27 50.3508 37.28 50.3152C37.29 50.2707 37.25 50.244 37.19 50.244C37.14 50.244 37.12 50.2084 37.15 50.1551C37.18 50.1106 37.16 50.0661 37.11 50.0661C37.05 50.0661 37 50.0038 37 49.9415C37 49.8703 36.9 49.7101 36.78 49.5855C36.65 49.4698 36.48 49.2918 36.39 49.2029C36.3 49.1139 36.12 48.9626 35.99 48.8647C35.75 48.6867 35.75 48.6867 36.08 48.66C36.52 48.6244 36.9 48.927 36.9 49.3363C36.9 49.5766 36.93 49.6211 37.15 49.6211C37.36 49.6211 37.4 49.6656 37.4 49.8881C37.4 50.0661 37.45 50.1551 37.55 50.1551C37.65 50.1551 37.7 50.2529 37.7 50.4665C37.7 50.8225 37.56 50.867 37.38 50.5822Z" fill="#737373"/>
<path d="M70.77 50.5377C70.71 50.3953 70.61 50.2618 70.55 50.2262C70.5 50.1906 70.6 50.155 70.78 50.155C71.08 50.155 71.1 50.1728 71.1 50.4665C71.1 50.8403 70.94 50.8759 70.77 50.5377Z" fill="#737373"/>
<path d="M41.1 50.2885C41.1 50.0394 41.14 49.9771 41.3 49.9771C41.51 49.9771 41.54 50.0661 41.44 50.4042C41.34 50.7246 41.1 50.6445 41.1 50.2885Z" fill="#737373"/>
<path d="M1.47 50.4576C1.44 50.422 1.44 50.333 1.49 50.2529C1.54 50.1728 1.65 49.8169 1.75 49.4698C1.86 49.0516 1.97 48.8202 2.06 48.8202C2.25 48.8202 2.24 49.0872 2.03 49.8703C1.91 50.3419 1.82 50.511 1.7 50.511C1.61 50.511 1.5 50.4843 1.47 50.4576Z" fill="#737373"/>
<path d="M35.8 50.1106C35.8 49.8169 35.81 49.808 36 49.9059C36.11 49.9682 36.2 50.0483 36.2 50.0839C36.2 50.1106 36.23 50.1995 36.26 50.2796C36.31 50.3864 36.26 50.422 36.06 50.422C35.83 50.422 35.8 50.3864 35.8 50.1106Z" fill="#737373"/>
<path d="M63.55 49.8525C63.64 49.7279 63.82 49.5677 63.96 49.4876C64.19 49.3541 64.2 49.3541 64.2 49.6033C64.2 49.7368 64.15 49.897 64.08 49.9593C64.01 50.0216 63.83 50.0661 63.68 50.0661C63.4 50.0661 63.4 50.0572 63.55 49.8525Z" fill="#737373"/>
<path d="M30.23 49.7991C30.31 49.6923 30.48 49.541 30.6 49.4698C30.81 49.3363 30.81 49.3452 30.78 49.63C30.75 49.897 30.71 49.9326 30.41 49.9593C30.09 49.986 30.08 49.986 30.23 49.7991Z" fill="#737373"/>
<path d="M29.12 49.3808C29.15 49.0872 29.19 49.0427 29.43 49.016C29.64 48.9893 29.7 48.9359 29.7 48.7668C29.7 48.5799 29.74 48.5532 30.07 48.5532C30.45 48.5532 30.45 48.5532 29.97 48.9359C29.71 49.1494 29.5 49.363 29.5 49.4075C29.5 49.452 29.41 49.541 29.29 49.6033C29.1 49.7101 29.09 49.7012 29.12 49.3808Z" fill="#737373"/>
<path d="M62.5 49.3986C62.5 49.1138 62.52 49.0872 62.8 49.0872C63.07 49.0872 63.1 49.0605 63.1 48.8202C63.1 48.571 63.13 48.5532 63.45 48.5532C63.86 48.5532 63.84 48.6956 63.37 48.9537C63.19 49.0516 63.01 49.2206 62.96 49.3185C62.91 49.4253 62.78 49.5588 62.68 49.6122C62.52 49.7012 62.5 49.6745 62.5 49.3986Z" fill="#737373"/>
<path d="M69.66 49.1227C69.17 48.6867 69.17 48.6867 69.5 48.66C69.72 48.6422 69.89 48.6867 70.02 48.8024C70.15 48.9181 70.2 49.0693 70.18 49.2651C70.15 49.5588 70.15 49.5588 69.66 49.1227Z" fill="#737373"/>
<path d="M41 48.9537C41 48.7579 41.05 48.6422 41.13 48.6422C41.21 48.6422 41.31 48.7846 41.37 48.9537C41.48 49.2473 41.47 49.2651 41.24 49.2651C41.03 49.2651 41 49.2206 41 48.9537Z" fill="#737373"/>
<path d="M97.76 48.9003C97.65 48.4019 97.68 48.1795 97.87 48.215C97.96 48.2328 98.04 48.304 98.05 48.3752C98.07 48.4464 98.11 48.66 98.15 48.8469C98.21 49.1406 98.2 49.1761 98.02 49.1761C97.88 49.1761 97.81 49.0961 97.76 48.9003Z" fill="#737373"/>
<path d="M66.5 48.8202C66.5 48.6333 66.6 48.6066 66.98 48.6956C67.34 48.7846 67.25 48.9982 66.85 48.9982C66.57 48.9982 66.5 48.9626 66.5 48.8202Z" fill="#737373"/>
<path d="M42.16 48.6244C42.06 48.2862 42.09 48.1972 42.3 48.1972C42.46 48.1972 42.5 48.2595 42.5 48.5087C42.5 48.8647 42.26 48.9448 42.16 48.6244Z" fill="#737373"/>
<path d="M30.6 48.2417C30.6 48.046 30.64 48.0193 30.95 48.0193C31.38 48.0193 31.4 48.1439 31 48.3307C30.62 48.5087 30.6 48.4998 30.6 48.2417Z" fill="#737373"/>
<path d="M64 48.2417C64 48.046 64.04 48.0193 64.35 48.0193C64.78 48.0193 64.8 48.1439 64.4 48.3307C64.02 48.5087 64 48.4998 64 48.2417Z" fill="#737373"/>
<path d="M59.34 47.9125C59.37 47.7167 59.6 47.3963 59.7 47.3963C59.76 47.3963 59.8 47.5387 59.8 47.7078C59.8 47.9748 59.77 48.0193 59.56 48.0193C59.42 48.0193 59.33 47.9748 59.34 47.9125Z" fill="#737373"/>
<path d="M41.84 47.601C41.76 47.4141 41.6 47.1205 41.5 46.9425C41.25 46.5331 41.25 46.5064 41.54 46.5064C41.8 46.5064 41.9 46.6488 41.9 47.0493C41.9 47.2183 41.95 47.3073 42.05 47.3073C42.15 47.3073 42.2 47.4052 42.2 47.6188C42.2 48.0282 42.03 48.0193 41.84 47.601Z" fill="#737373"/>
<path d="M58.4 47.2272C58.4 46.8357 58.5 46.6844 58.75 46.6844C59.01 46.6844 59.02 46.7823 58.77 47.2005C58.55 47.5565 58.4 47.5654 58.4 47.2272Z" fill="#737373"/>
<path d="M40.1 46.8179C40.1 46.6488 40.13 46.5064 40.16 46.5064C40.26 46.5064 40.47 46.7378 40.54 46.9336C40.6 47.1027 40.58 47.1294 40.36 47.1294C40.13 47.1294 40.1 47.0938 40.1 46.8179Z" fill="#737373"/>
<path d="M59.86 46.9336C59.93 46.7378 60.14 46.5064 60.24 46.5064C60.27 46.5064 60.3 46.6488 60.3 46.8179C60.3 47.0938 60.27 47.1294 60.04 47.1294C59.82 47.1294 59.8 47.1027 59.86 46.9336Z" fill="#737373"/>
<path d="M96.03 46.1772C95.96 46.1594 95.9 46.0081 95.9 45.8568C95.9 45.661 95.93 45.6076 95.99 45.6877C96.03 45.7589 96.1 45.8034 96.14 45.8034C96.26 45.7856 96.8 46.0704 96.8 46.1505C96.8 46.2394 96.25 46.2572 96.03 46.1772Z" fill="#737373"/>
<path d="M3.8 46.0615C3.8 46.0081 3.92 45.9191 4.08 45.8568C4.23 45.8034 4.38 45.7144 4.42 45.661C4.46 45.6165 4.5 45.7055 4.5 45.8657C4.5 46.1327 4.48 46.1505 4.15 46.1505C3.96 46.1505 3.8 46.106 3.8 46.0615Z" fill="#737373"/>
<path d="M60.79 45.8212C61.14 45.394 61.24 45.305 61.53 45.1449C61.8 44.9936 61.8 44.9936 61.8 45.2605C61.8 45.4385 61.75 45.5275 61.65 45.5275C61.57 45.5275 61.5 45.5809 61.5 45.6432C61.5 45.839 61.16 46.0615 60.86 46.0615C60.59 46.0615 60.59 46.0615 60.79 45.8212Z" fill="#737373"/>
<path d="M59.62 45.4652C59.65 45.1538 59.68 45.1271 59.97 45.1004C60.3 45.0737 60.3 45.0737 60.13 45.3317C60.04 45.4741 59.88 45.6432 59.77 45.6966C59.6 45.7945 59.59 45.7767 59.62 45.4652Z" fill="#737373"/>
<path d="M40.55 45.6343C40.49 45.5987 40.37 45.4652 40.27 45.3317C40.1 45.0826 40.1 45.0826 40.4 45.0826C40.68 45.0826 40.7 45.1093 40.7 45.394C40.7 45.7322 40.7 45.7322 40.55 45.6343Z" fill="#737373"/>
<path d="M48.7 45.5275C48.7 45.3406 48.8 45.3139 49.18 45.4029C49.54 45.4919 49.45 45.7055 49.05 45.7055C48.77 45.7055 48.7 45.6699 48.7 45.5275Z" fill="#737373"/>
<path d="M94.8 45.4207C94.8 45.2605 94.84 45.1716 94.88 45.2161C94.92 45.2694 95.07 45.3584 95.23 45.4118C95.61 45.5631 95.57 45.7055 95.15 45.7055C94.82 45.7055 94.8 45.6877 94.8 45.4207Z" fill="#737373"/>
<path d="M50.9 45.4919C50.9 45.3762 51.18 45.2606 51.48 45.2606C51.54 45.2606 51.6 45.3406 51.6 45.4385C51.6 45.5809 51.53 45.6165 51.25 45.6165C51.02 45.6165 50.9 45.572 50.9 45.4919Z" fill="#737373"/>
<path d="M38.6 45.2517C38.6 44.9847 38.6 44.9847 38.9 45.1716C39.34 45.4474 39.35 45.5275 38.96 45.5275C38.63 45.5275 38.6 45.5097 38.6 45.2517Z" fill="#737373"/>
<path d="M3.06 45.3762C2.98 45.2961 3.2 45.0826 3.36 45.0826C3.44 45.0826 3.5 45.1182 3.5 45.1716C3.5 45.2783 3.15 45.4474 3.06 45.3762Z" fill="#737373"/>
<path d="M6 45.1716C6 45.0826 6.36 44.8779 6.58 44.8512C6.65 44.8423 6.7 44.9224 6.7 45.047C6.7 45.2338 6.65 45.2605 6.35 45.2605C6.16 45.2605 6 45.2249 6 45.1716Z" fill="#737373"/>
<path d="M52.62 45.1182C52.64 45.047 52.67 44.9847 52.7 44.9936C52.73 45.0025 52.87 44.9669 53.03 44.9135C53.28 44.8245 53.3 44.8334 53.3 45.0381C53.3 45.2338 53.26 45.2605 52.94 45.2605C52.67 45.2605 52.59 45.2249 52.62 45.1182Z" fill="#737373"/>
<path d="M96.41 45.1093C96.41 45.047 96.37 45.0025 96.33 45.0114C96.2 45.0381 95.6 44.7266 95.6 44.6376C95.6 44.5308 96.2 44.5219 96.38 44.6287C96.46 44.6732 96.5 44.8067 96.47 44.958C96.45 45.1004 96.42 45.1627 96.41 45.1093Z" fill="#737373"/>
<path d="M39.15 44.3618C38.3 43.7477 38.3 43.7477 38.73 43.7477C39.06 43.7477 39.1 43.7744 39.1 43.9702C39.1 44.1571 39.15 44.1927 39.4 44.1927C39.67 44.1927 39.7 44.2194 39.7 44.4596C39.7 44.6109 39.69 44.7266 39.67 44.7266C39.66 44.7266 39.42 44.5664 39.15 44.3618Z" fill="#737373"/>
<path d="M5 44.4151C5 44.2194 5.04 44.1927 5.36 44.1927C5.8 44.1927 5.78 44.3528 5.32 44.5219C5.01 44.6376 5 44.6287 5 44.4151Z" fill="#737373"/>
<path d="M43.8 44.424C43.8 44.1927 43.91 44.1749 44.28 44.3528C44.6 44.513 44.55 44.6376 44.15 44.6376C43.85 44.6376 43.8 44.6109 43.8 44.424Z" fill="#737373"/>
<path d="M50.3 44.4596C50.3 44.3172 50.37 44.2816 50.65 44.2816C51.05 44.2816 51.14 44.4952 50.78 44.5842C50.4 44.6732 50.3 44.6465 50.3 44.4596Z" fill="#737373"/>
<path d="M60.8 44.3617C60.8 44.1482 60.84 44.1037 61.05 44.1037C61.23 44.1037 61.3 44.0592 61.3 43.9257C61.3 43.81 61.37 43.7477 61.5 43.7477C61.61 43.7477 61.7 43.6854 61.7 43.6142C61.7 43.5252 61.81 43.4807 62.05 43.4807C62.38 43.4807 62.39 43.4896 62.28 43.6587C62.21 43.7566 62.11 43.8367 62.05 43.8367C61.99 43.8367 61.79 43.9702 61.6 44.1215C61.41 44.2816 61.15 44.4596 61.03 44.5219C60.82 44.6198 60.8 44.6109 60.8 44.3617Z" fill="#737373"/>
<path d="M94.92 44.4774C94.6 44.2905 94.65 44.1927 95.05 44.1927C95.35 44.1927 95.4 44.2194 95.4 44.3973C95.4 44.6376 95.23 44.6643 94.92 44.4774Z" fill="#737373"/>
<path d="M37.2 44.4596C37.2 44.4151 37.13 44.3706 37.05 44.3706C36.96 44.3706 36.9 44.2817 36.9 44.1393C36.9 43.9435 36.93 43.9257 37.13 43.9791C37.25 44.0058 37.37 44.077 37.38 44.1126C37.4 44.1571 37.47 44.1927 37.53 44.1927C37.6 44.1927 37.71 44.2728 37.78 44.3706C37.89 44.5397 37.88 44.5486 37.55 44.5486C37.36 44.5486 37.2 44.513 37.2 44.4596Z" fill="#737373"/>
<path d="M3.55 44.1482C3.72 43.7744 3.88 43.6142 4.18 43.5341C4.37 43.4807 4.4 43.4985 4.4 43.6943C4.4 43.8812 4.35 43.9257 4.15 43.9257C3.94 43.9257 3.9 43.9702 3.9 44.1927C3.9 44.4151 3.86 44.4596 3.65 44.4596C3.4 44.4596 3.4 44.4596 3.55 44.1482Z" fill="#737373"/>
<path d="M91.3 44.1482C91.3 43.9346 91.31 43.9257 91.62 44.0414C92.08 44.2105 92.1 44.3706 91.66 44.3706C91.34 44.3706 91.3 44.3439 91.3 44.1482Z" fill="#737373"/>
<path d="M94.03 44.1304C93.91 44.0592 93.75 43.988 93.68 43.9791C93.46 43.9524 93.1 43.7477 93.1 43.6587C93.1 43.6053 93.26 43.5697 93.45 43.5697C93.69 43.5697 93.8 43.6142 93.8 43.7032C93.8 43.7922 93.91 43.8367 94.15 43.8367C94.45 43.8367 94.5 43.8634 94.5 44.0414C94.5 44.2817 94.34 44.3084 94.03 44.1304Z" fill="#737373"/>
<path d="M63.3 44.0503C63.3 43.9613 63.56 43.7744 63.78 43.7121C63.97 43.6587 64 43.6765 64 43.8723C64 44.077 63.96 44.1037 63.65 44.1037C63.46 44.1037 63.3 44.077 63.3 44.0503Z" fill="#737373"/>
<path d="M90.5 44.0147C90.5 43.9702 90.39 43.9257 90.25 43.9257C90.05 43.9257 90 43.8812 90 43.7032C90 43.4807 90 43.4807 90.35 43.6053C90.54 43.6765 90.7 43.721 90.7 43.6943C90.7 43.6765 90.81 43.721 90.95 43.8011C91.3 44.0058 91.26 44.1037 90.85 44.1037C90.66 44.1037 90.5 44.0681 90.5 44.0147Z" fill="#737373"/>
<path d="M96 43.6943C96 43.3028 96.18 43.3205 96.37 43.7299C96.5 44.0058 96.49 44.0147 96.25 44.0147C96.03 44.0147 96 43.9791 96 43.6943Z" fill="#737373"/>
<path d="M7.1 43.6053C7.1 43.4185 7.15 43.3918 7.45 43.3918C7.85 43.3918 7.9 43.5163 7.58 43.6765C7.21 43.8545 7.1 43.8367 7.1 43.6053Z" fill="#737373"/>
<path d="M35.3 43.3384C35.3 43.2138 35.33 43.1248 35.38 43.1426C36.11 43.454 36.18 43.5697 35.65 43.5697C35.34 43.5697 35.3 43.543 35.3 43.3384Z" fill="#737373"/>
<path d="M64.4 43.4184C64.4 43.3383 64.43 43.3028 64.47 43.3294C64.5 43.365 64.62 43.3294 64.72 43.2405C64.82 43.1604 64.9 43.1337 64.9 43.1782C64.9 43.2227 64.95 43.196 65 43.1248C65.07 43.0269 65.1 43.0625 65.1 43.285C65.1 43.5519 65.08 43.5697 64.75 43.5697C64.49 43.5697 64.4 43.5341 64.4 43.4184Z" fill="#737373"/>
<path d="M88.9 43.3472C88.9 43.1337 88.91 43.1248 89.22 43.2405C89.68 43.4095 89.7 43.5697 89.26 43.5697C88.94 43.5697 88.9 43.543 88.9 43.3472Z" fill="#737373"/>
<path d="M56.6 43.1871C56.8 43.0358 57.08 42.8311 57.23 42.7421C57.5 42.5908 57.5 42.5908 57.5 42.8578C57.5 43.0803 57.46 43.1248 57.25 43.1248C57.07 43.1248 57 43.1693 57 43.3028C57 43.4451 56.93 43.4807 56.63 43.4807C56.25 43.4807 56.25 43.4807 56.6 43.1871Z" fill="#737373"/>
<path d="M65.52 43.018C65.55 42.9557 65.71 42.8578 65.88 42.7955C66.19 42.6798 66.2 42.6887 66.2 42.9023C66.2 43.0981 66.16 43.1248 65.84 43.1248C65.61 43.1248 65.5 43.0892 65.52 43.018Z" fill="#737373"/>
<path d="M90.82 42.9646C90.5 42.7777 90.55 42.6798 90.95 42.6798C91.25 42.6798 91.3 42.7065 91.3 42.8845C91.3 43.1248 91.13 43.1515 90.82 42.9646Z" fill="#737373"/>
<path d="M55.4 42.7688C55.4 42.5196 55.43 42.5018 55.75 42.5018C56.08 42.5018 56.09 42.5107 55.98 42.6798C55.91 42.7777 55.8 42.8578 55.73 42.8578C55.66 42.8578 55.6 42.9023 55.6 42.9468C55.6 43.0002 55.56 43.0358 55.5 43.0358C55.45 43.0358 55.4 42.9201 55.4 42.7688Z" fill="#737373"/>
<path d="M5.7 42.8044C5.7 42.7154 5.96 42.5285 6.18 42.4662C6.37 42.4128 6.4 42.4306 6.4 42.6264C6.4 42.8311 6.36 42.8578 6.05 42.8578C5.86 42.8578 5.7 42.8311 5.7 42.8044Z" fill="#737373"/>
<path d="M86.5 42.6798C86.5 42.4929 86.6 42.4662 86.98 42.5552C87.34 42.6442 87.25 42.8578 86.85 42.8578C86.57 42.8578 86.5 42.8222 86.5 42.6798Z" fill="#737373"/>
<path d="M90.02 42.6976C89.7 42.5107 89.75 42.4128 90.15 42.4128C90.45 42.4128 90.5 42.4395 90.5 42.6175C90.5 42.8578 90.33 42.8845 90.02 42.6976Z" fill="#737373"/>
<path d="M67.02 42.484C67.05 42.4218 67.21 42.3239 67.38 42.2616C67.69 42.1459 67.7 42.1548 67.7 42.3684C67.7 42.5641 67.66 42.5908 67.34 42.5908C67.11 42.5908 67 42.5552 67.02 42.484Z" fill="#737373"/>
<path d="M85.5 42.4039C85.5 42.2527 85.55 42.226 85.82 42.2616C86.03 42.2794 86.16 42.3505 86.18 42.4395C86.21 42.5552 86.14 42.5908 85.86 42.5908C85.56 42.5908 85.5 42.5552 85.5 42.4039Z" fill="#737373"/>
<path d="M56.2 42.2349C56.2 41.9857 56.23 41.9679 56.55 41.9679C56.99 41.9679 56.99 42.048 56.55 42.306C56.2 42.5018 56.2 42.5018 56.2 42.2349Z" fill="#737373"/>
<path d="M64.7 42.2705C64.7 42.0925 64.76 41.9679 64.86 41.9323C65.11 41.8522 65.6 41.87 65.6 41.9679C65.6 42.048 65.06 42.3328 64.94 42.315C64.9 42.315 64.83 42.3594 64.79 42.4306C64.73 42.5107 64.7 42.4573 64.7 42.2705Z" fill="#737373"/>
<path d="M11.3 42.1904C11.3 41.9857 11.52 41.8789 11.98 41.8789C12.1 41.8789 12.2 41.8433 12.2 41.7899C12.2 41.7454 12.36 41.7009 12.55 41.7009C13.15 41.7009 12.94 41.9145 12.1 42.1548C11.3 42.395 11.3 42.395 11.3 42.1904Z" fill="#737373"/>
<path d="M15.3 42.1993C15.3 42.1281 15.54 42.0213 15.95 41.9323C16.76 41.7543 16.8 41.7543 16.8 41.9501C16.8 42.0747 16.67 42.137 16.29 42.2171C15.62 42.3594 15.3 42.3505 15.3 42.1993Z" fill="#737373"/>
<path d="M95.2 42.1014C95.2 41.9145 95.23 41.8967 95.43 41.959C95.76 42.0658 95.78 42.3238 95.46 42.3238C95.25 42.3238 95.2 42.2794 95.2 42.1014Z" fill="#737373"/>
<path d="M87.98 42.0658C87.33 41.8878 87.32 41.6564 87.95 41.7276C88.48 41.7721 88.53 41.8077 88.48 42.0302C88.45 42.1904 88.43 42.1904 87.98 42.0658Z" fill="#737373"/>
<path d="M68.52 41.9946C68.54 41.9056 68.67 41.8344 68.88 41.8166C69.15 41.781 69.2 41.8077 69.2 41.959C69.2 42.1103 69.14 42.1459 68.84 42.1459C68.56 42.1459 68.49 42.1103 68.52 41.9946Z" fill="#737373"/>
<path d="M30.2 41.7009C30.2 41.514 30.3 41.4873 30.68 41.5763C31.04 41.6653 30.95 41.8789 30.55 41.8789C30.27 41.8789 30.2 41.8433 30.2 41.7009Z" fill="#737373"/>
<path d="M69.52 41.7276C69.54 41.6386 69.67 41.5674 69.88 41.5496C70.15 41.514 70.2 41.5407 70.2 41.692C70.2 41.8433 70.14 41.8789 69.84 41.8789C69.56 41.8789 69.49 41.8433 69.52 41.7276Z" fill="#737373"/>
<path d="M17.8 41.6653C17.8 41.5496 18.08 41.4339 18.38 41.4339C18.44 41.4339 18.5 41.514 18.5 41.6119C18.5 41.7543 18.43 41.7899 18.15 41.7899C17.92 41.7899 17.8 41.7454 17.8 41.6653Z" fill="#737373"/>
<path d="M81.9 41.6119C81.9 41.425 82 41.3983 82.38 41.4873C82.74 41.5763 82.65 41.7899 82.25 41.7899C81.97 41.7899 81.9 41.7543 81.9 41.6119Z" fill="#737373"/>
<path d="M86.38 41.6386C86.05 41.5674 86.18 41.3449 86.55 41.3449C86.83 41.3449 86.9 41.3805 86.9 41.5229C86.9 41.7009 86.76 41.7276 86.38 41.6386Z" fill="#737373"/>
<path d="M13.8 41.4428C13.8 41.2916 13.86 41.256 14.16 41.256C14.44 41.256 14.51 41.2916 14.48 41.4073C14.46 41.4962 14.33 41.5674 14.12 41.5852C13.85 41.6208 13.8 41.5941 13.8 41.4428Z" fill="#737373"/>
<path d="M8.5 41.4428C8.5 41.3983 8.69 41.2827 8.93 41.1759C9.35 40.989 9.35 40.989 9.38 41.1759C9.4 41.2827 9.36 41.4072 9.28 41.4428C9.11 41.5496 8.5 41.5407 8.5 41.4428Z" fill="#737373"/>
<path d="M28.6 41.345C28.6 41.1581 28.7 41.1314 29.08 41.2204C29.44 41.3094 29.35 41.5229 28.95 41.5229C28.67 41.5229 28.6 41.4873 28.6 41.345Z" fill="#737373"/>
<path d="M67.2 41.3094C67.2 41.1492 67.29 41.0869 67.59 41.0068C68.16 40.8466 68.52 40.8644 68.48 41.0513C68.46 41.1314 68.35 41.2026 68.24 41.2204C68.12 41.2382 67.9 41.3005 67.74 41.3539C67.27 41.5229 67.2 41.5229 67.2 41.3094Z" fill="#737373"/>
<path d="M71.1 41.4072C71.1 41.2916 71.65 41.0602 71.74 41.1492C71.77 41.1759 71.8 41.2738 71.8 41.3628C71.8 41.4873 71.72 41.5229 71.45 41.5229C71.23 41.5229 71.1 41.4784 71.1 41.4072Z" fill="#737373"/>
<path d="M20.1 41.3094C20.1 41.1937 20.38 41.078 20.68 41.078C20.74 41.078 20.8 41.1581 20.8 41.256C20.8 41.3984 20.73 41.434 20.45 41.434C20.22 41.434 20.1 41.3895 20.1 41.3094Z" fill="#737373"/>
<path d="M32.23 41.2382C31.78 41.1047 31.8 40.9 32.25 40.9C32.56 40.9 32.6 40.9267 32.6 41.1225C32.6 41.2471 32.59 41.345 32.58 41.3361C32.56 41.3272 32.4 41.2827 32.23 41.2382Z" fill="#737373"/>
<path d="M78.9 41.167C78.9 40.9801 79 40.9534 79.38 41.0424C79.74 41.1314 79.65 41.3449 79.25 41.3449C78.97 41.3449 78.9 41.3094 78.9 41.167Z" fill="#737373"/>
<path d="M84.85 41.2649C84.69 41.1225 84.84 40.989 85.15 40.989C85.43 40.989 85.5 41.0246 85.5 41.167C85.5 41.3094 85.44 41.3449 85.2 41.3271C85.03 41.3182 84.87 41.2915 84.85 41.2649Z" fill="#737373"/>
<path d="M21.8 41.1314C21.8 41.0157 22.08 40.9 22.38 40.9C22.44 40.9 22.5 40.9801 22.5 41.078C22.5 41.2204 22.43 41.256 22.15 41.256C21.92 41.256 21.8 41.2115 21.8 41.1314Z" fill="#737373"/>
<path d="M78 41.078C78 40.8911 78.1 40.8644 78.48 40.9534C78.84 41.0424 78.75 41.256 78.35 41.256C78.07 41.256 78 41.2204 78 41.078Z" fill="#737373"/>
<path d="M23.2 41.0424C23.2 40.9801 23.3 40.9 23.43 40.8644C23.84 40.7665 24 40.8021 24 40.989C24 41.1403 23.93 41.167 23.6 41.167C23.33 41.167 23.2 41.1314 23.2 41.0424Z" fill="#737373"/>
<path d="M76.7 40.989C76.7 40.8021 76.8 40.7754 77.18 40.8644C77.54 40.9534 77.45 41.167 77.05 41.167C76.77 41.167 76.7 41.1314 76.7 40.989Z" fill="#737373"/>
<path d="M91.8 40.8555C91.8 40.6419 91.81 40.633 92.12 40.7487C92.58 40.9178 92.6 41.078 92.16 41.078C91.84 41.078 91.8 41.0513 91.8 40.8555Z" fill="#737373"/>
<path d="M83.08 40.8644C82.68 40.7398 82.72 40.544 83.15 40.544C83.43 40.544 83.5 40.5796 83.5 40.7131C83.5 40.9445 83.41 40.9801 83.08 40.8644Z" fill="#737373"/>
<path d="M93.68 40.4817C93.11 40.2326 93.07 40.0991 93.55 40.0991C93.74 40.0991 93.9 40.1436 93.9 40.1881C93.9 40.2415 94.01 40.2771 94.15 40.2771C94.35 40.2771 94.4 40.3216 94.4 40.4817C94.4 40.7398 94.28 40.7398 93.68 40.4817Z" fill="#737373"/>
<path d="M18.9 40.3661C18.9 40.2237 18.97 40.1881 19.25 40.1881C19.65 40.1881 19.74 40.4017 19.38 40.4906C19 40.5796 18.9 40.5529 18.9 40.3661Z" fill="#737373"/>
<path d="M61.82 40.3483C61.85 40.286 62.01 40.1881 62.18 40.1258C62.49 40.0101 62.5 40.019 62.5 40.2326C62.5 40.4284 62.46 40.455 62.14 40.455C61.91 40.455 61.8 40.4195 61.82 40.3483Z" fill="#737373"/>
<path d="M80.38 40.3927C80.05 40.3216 80.18 40.0991 80.55 40.0991C80.83 40.0991 80.9 40.1347 80.9 40.2771C80.9 40.455 80.76 40.4817 80.38 40.3927Z" fill="#737373"/>
<path d="M89.7 40.2771C89.7 40.0902 89.8 40.0635 90.18 40.1525C90.54 40.2415 90.45 40.455 90.05 40.455C89.77 40.455 89.7 40.4195 89.7 40.2771Z" fill="#737373"/>
<path d="M72.3 40.1347C72.3 39.9478 72.35 39.9211 72.65 39.9211C72.87 39.9211 73 39.9656 73 40.0368C73 40.108 72.84 40.197 72.65 40.2504C72.32 40.3483 72.3 40.3394 72.3 40.1347Z" fill="#737373"/>
<path d="M27.58 40.2148C27.25 40.1436 27.38 39.9211 27.75 39.9211C28.03 39.9211 28.1 39.9567 28.1 40.0991C28.1 40.2771 27.96 40.3038 27.58 40.2148Z" fill="#737373"/>
<path d="M22 40.0101C22 39.8677 22.07 39.8321 22.35 39.8321C22.75 39.8321 22.84 40.0457 22.48 40.1347C22.1 40.2237 22 40.197 22 40.0101Z" fill="#737373"/>
<path d="M38.4 40.108C38.4 40.0546 38.33 40.0101 38.25 40.0101C38.17 40.0101 38.1 39.9834 38.1 39.9478C38.1 39.9033 37.78 39.7164 37.4 39.5295C37.01 39.3338 36.7 39.1469 36.7 39.1024C36.7 39.0668 36.86 39.0312 37.05 39.0312C37.33 39.0312 37.4 39.0668 37.4 39.2092C37.4 39.3516 37.47 39.3872 37.75 39.3872C37.99 39.3872 38.1 39.4316 38.1 39.5206C38.1 39.6007 38.19 39.6541 38.35 39.6541C38.55 39.6541 38.6 39.6986 38.6 39.8677C38.6 39.9923 38.56 40.1169 38.5 40.1436C38.45 40.1703 38.4 40.1525 38.4 40.108Z" fill="#737373"/>
<path d="M23.9 39.9211C23.9 39.7787 23.97 39.7431 24.25 39.7431C24.65 39.7431 24.74 39.9567 24.38 40.0457C24 40.1347 23.9 40.108 23.9 39.9211Z" fill="#737373"/>
<path d="M25.18 40.0368C24.82 39.9567 24.98 39.7431 25.4 39.7431C25.73 39.7431 25.8 39.7698 25.8 39.9211C25.8 40.0991 25.6 40.1347 25.18 40.0368Z" fill="#737373"/>
<path d="M5.44 39.9033C5.47 39.7075 5.7 39.3872 5.8 39.3872C5.86 39.3872 5.9 39.5295 5.9 39.6986C5.9 39.9656 5.87 40.0101 5.66 40.0101C5.52 40.0101 5.43 39.9656 5.44 39.9033Z" fill="#737373"/>
<path d="M87.53 39.8944C87.21 39.8321 87.1 39.7609 87.1 39.6452C87.1 39.4405 87.14 39.4405 87.95 39.6185C88.36 39.7075 88.6 39.8143 88.6 39.8855C88.6 40.0279 88.17 40.0368 87.53 39.8944Z" fill="#737373"/>
<path d="M10.5 39.4227C10.5 39.2359 10.55 39.2092 10.85 39.2092C11.25 39.2092 11.3 39.3338 10.98 39.4939C10.61 39.6719 10.5 39.6541 10.5 39.4227Z" fill="#737373"/>
<path d="M13.42 39.5473C13.45 39.485 13.61 39.3872 13.78 39.3249C14.09 39.2092 14.1 39.2181 14.1 39.4317C14.1 39.6274 14.06 39.6541 13.74 39.6541C13.51 39.6541 13.4 39.6185 13.42 39.5473Z" fill="#737373"/>
<path d="M64.62 39.5028C64.64 39.4139 64.77 39.3427 64.98 39.3249C65.25 39.2893 65.3 39.316 65.3 39.4672C65.3 39.6185 65.24 39.6541 64.94 39.6541C64.66 39.6541 64.59 39.6185 64.62 39.5028Z" fill="#737373"/>
<path d="M86.2 39.4939C86.2 39.2537 86.28 39.2181 86.61 39.3249C87.02 39.4672 86.98 39.6541 86.55 39.6541C86.28 39.6541 86.2 39.6185 86.2 39.4939Z" fill="#737373"/>
<path d="M65.9 39.2626C65.9 39.1469 66.18 39.0312 66.48 39.0312C66.54 39.0312 66.6 39.1113 66.6 39.2092C66.6 39.3516 66.53 39.3872 66.25 39.3872C66.02 39.3872 65.9 39.3427 65.9 39.2626Z" fill="#737373"/>
<path d="M84.7 39.2092C84.7 39.0223 84.8 38.9956 85.18 39.0846C85.54 39.1736 85.45 39.3872 85.05 39.3872C84.77 39.3872 84.7 39.3516 84.7 39.2092Z" fill="#737373"/>
<path d="M89.88 39.3249C89.55 39.2537 89.68 39.0312 90.05 39.0312C90.33 39.0312 90.4 39.0668 90.4 39.2092C90.4 39.3872 90.26 39.4138 89.88 39.3249Z" fill="#737373"/>
<path d="M12.2 38.8087C12.2 38.6129 12.24 38.5862 12.56 38.5862C13 38.5862 12.98 38.7464 12.52 38.9155C12.21 39.0312 12.2 39.0223 12.2 38.8087Z" fill="#737373"/>
<path d="M69.4 38.7286C69.4 38.6129 69.68 38.4973 69.98 38.4973C70.04 38.4973 70.1 38.5773 70.1 38.6752C70.1 38.8176 70.03 38.8532 69.75 38.8532C69.52 38.8532 69.4 38.8087 69.4 38.7286Z" fill="#737373"/>
<path d="M87.48 38.7464C87.06 38.6485 86.96 38.4082 87.34 38.4082C87.86 38.4082 88.2 38.515 88.2 38.6841C88.2 38.871 88.06 38.8799 87.48 38.7464Z" fill="#737373"/>
<path d="M79.6 38.5862C79.6 38.3994 79.7 38.3727 80.08 38.4617C80.44 38.5506 80.35 38.7642 79.95 38.7642C79.67 38.7642 79.6 38.7286 79.6 38.5862Z" fill="#737373"/>
<path d="M13.3 38.4527C13.3 38.257 13.34 38.2303 13.66 38.2303C14.1 38.2303 14.08 38.3905 13.62 38.5595C13.31 38.6752 13.3 38.6663 13.3 38.4527Z" fill="#737373"/>
<path d="M34.91 38.4172C34.15 38.1324 34.02 37.9633 34.54 37.9633C34.79 37.9633 34.9 37.9989 34.9 38.0968C34.9 38.1858 35.01 38.2303 35.25 38.2303C35.56 38.2303 35.6 38.257 35.6 38.4528C35.6 38.5773 35.59 38.6752 35.58 38.6752C35.56 38.6663 35.26 38.5595 34.91 38.4172Z" fill="#737373"/>
<path d="M71.7 38.5506C71.7 38.435 71.98 38.3193 72.28 38.3193C72.34 38.3193 72.4 38.3994 72.4 38.4972C72.4 38.6396 72.33 38.6752 72.05 38.6752C71.82 38.6752 71.7 38.6307 71.7 38.5506Z" fill="#737373"/>
<path d="M17.3 38.4616C17.3 38.346 17.58 38.2303 17.88 38.2303C17.94 38.2303 18 38.3104 18 38.4083C18 38.5506 17.93 38.5862 17.65 38.5862C17.42 38.5862 17.3 38.5417 17.3 38.4616Z" fill="#737373"/>
<path d="M74.3 38.4617C74.3 38.3994 74.4 38.3193 74.53 38.2837C74.94 38.1858 75.1 38.2214 75.1 38.4083C75.1 38.5595 75.03 38.5862 74.7 38.5862C74.43 38.5862 74.3 38.5506 74.3 38.4617Z" fill="#737373"/>
<path d="M75.5 38.4083C75.5 38.2214 75.66 38.1858 76.08 38.2837C76.47 38.3816 76.35 38.5862 75.9 38.5862C75.57 38.5862 75.5 38.5595 75.5 38.4083Z" fill="#737373"/>
<path d="M31.2 38.3193C31.2 38.1324 31.3 38.1057 31.68 38.1947C32.04 38.2837 31.95 38.4973 31.55 38.4973C31.27 38.4973 31.2 38.4617 31.2 38.3193Z" fill="#737373"/>
<path d="M18.6 38.1947C18.6 38.079 18.88 37.9633 19.18 37.9633C19.24 37.9633 19.3 38.0434 19.3 38.1413C19.3 38.2837 19.23 38.3193 18.95 38.3193C18.72 38.3193 18.6 38.2748 18.6 38.1947Z" fill="#737373"/>
<path d="M30.4 38.1591C30.4 37.9188 30.48 37.8832 30.81 37.99C31.22 38.1324 31.18 38.3193 30.75 38.3193C30.48 38.3193 30.4 38.2837 30.4 38.1591Z" fill="#737373"/>
<path d="M19.7 37.9722C19.7 37.8832 19.76 37.812 19.83 37.812C20.05 37.8298 21.24 37.6785 21.48 37.5984C21.67 37.5361 21.7 37.5539 21.7 37.723C21.7 37.9099 21.63 37.9366 20.87 38.0345C19.77 38.1769 19.7 38.168 19.7 37.9722Z" fill="#737373"/>
<path d="M67.5 37.8743C67.5 37.7319 67.57 37.6963 67.85 37.6963C68.25 37.6963 68.34 37.9099 67.98 37.9989C67.6 38.0879 67.5 38.0612 67.5 37.8743Z" fill="#737373"/>
<path d="M28.3 37.7853C28.3 37.5984 28.4 37.5717 28.78 37.6607C29.14 37.7497 29.05 37.9633 28.65 37.9633C28.37 37.9633 28.3 37.9277 28.3 37.7853Z" fill="#737373"/>
<path d="M27.5 37.6963C27.5 37.5095 27.6 37.4828 27.98 37.5717C28.34 37.6607 28.25 37.8743 27.85 37.8743C27.57 37.8743 27.5 37.8387 27.5 37.6963Z" fill="#737373"/>
<path d="M23 37.6607C23 37.545 23.28 37.4294 23.58 37.4294C23.64 37.4294 23.7 37.5095 23.7 37.6073C23.7 37.7497 23.63 37.7853 23.35 37.7853C23.12 37.7853 23 37.7408 23 37.6607Z" fill="#737373"/>
<path d="M26.4 37.6073C26.4 37.4205 26.5 37.3938 26.88 37.4828C27.24 37.5717 27.15 37.7853 26.75 37.7853C26.47 37.7853 26.4 37.7497 26.4 37.6073Z" fill="#737373"/>
<path d="M79.58 37.634C79.25 37.5628 79.38 37.3404 79.75 37.3404C80.03 37.3404 80.1 37.376 80.1 37.5183C80.1 37.6963 79.96 37.723 79.58 37.634Z" fill="#737373"/>
<path d="M78.08 37.545C77.75 37.4738 77.88 37.2514 78.25 37.2514C78.53 37.2514 78.6 37.287 78.6 37.4294C78.6 37.6073 78.46 37.634 78.08 37.545Z" fill="#737373"/>
<path d="M92.76 37.287C92.67 37.0912 92.69 36.6284 92.78 36.6284C92.87 36.6284 93.07 36.9132 93.2 37.2158C93.28 37.4027 93.27 37.4294 93.06 37.4294C92.93 37.4294 92.79 37.3671 92.76 37.287Z" fill="#737373"/>
<path d="M20.3 36.8153C20.3 36.6996 20.36 36.6284 20.48 36.6284C20.57 36.6284 20.89 36.6017 21.18 36.575C21.61 36.5216 21.7 36.5394 21.7 36.6551C21.7 36.7886 21.58 36.8331 20.73 36.9399C20.34 36.9933 20.3 36.9844 20.3 36.8153Z" fill="#737373"/>
<path d="M21.9 36.6284C21.9 36.4861 21.97 36.4505 22.25 36.4505C22.65 36.4505 22.74 36.664 22.38 36.753C22 36.842 21.9 36.8153 21.9 36.6284Z" fill="#737373"/>
<path d="M23.3 36.5394C23.3 36.3971 23.37 36.3615 23.65 36.3615C24.05 36.3615 24.14 36.575 23.78 36.664C23.4 36.753 23.3 36.7263 23.3 36.5394Z" fill="#737373"/>
<path d="M26.18 36.6551C25.85 36.5839 25.98 36.3615 26.35 36.3615C26.63 36.3615 26.7 36.3971 26.7 36.5394C26.7 36.7174 26.56 36.7441 26.18 36.6551Z" fill="#737373"/>
<path d="M91.8 35.4271C91.8 35.1957 91.84 35.1156 91.97 35.1156C92.06 35.1156 92.1 35.1423 92.07 35.169C92.04 35.2046 92.07 35.3114 92.15 35.4182C92.36 35.6762 92.34 35.7385 92.05 35.7385C91.83 35.7385 91.8 35.7029 91.8 35.4271Z" fill="#737373"/>
<path d="M91.3 34.6261C91.3 34.2435 91.4 34.2346 91.63 34.5728C91.85 34.9109 91.85 34.9376 91.55 34.9376C91.33 34.9376 91.3 34.902 91.3 34.6261Z" fill="#737373"/>
<path d="M90.2 32.9353C90.2 32.7662 90.23 32.6239 90.26 32.6239C90.36 32.6239 90.57 32.8552 90.64 33.051C90.7 33.2201 90.68 33.2468 90.46 33.2468C90.23 33.2468 90.2 33.2112 90.2 32.9353Z" fill="#737373"/>
<path d="M9.56 32.873C9.63 32.6772 9.84 32.4459 9.94 32.4459C9.97 32.4459 10 32.5882 10 32.7573C10 33.0332 9.97 33.0688 9.74 33.0688C9.52 33.0688 9.5 33.0421 9.56 32.873Z" fill="#737373"/>
<path d="M88.8 30.9775C88.8 30.8084 88.83 30.6661 88.86 30.6661C88.96 30.6661 89.17 30.8974 89.24 31.0932C89.3 31.2623 89.28 31.289 89.06 31.289C88.83 31.289 88.8 31.2534 88.8 30.9775Z" fill="#737373"/>
<path d="M87.7 29.5448C87.7 29.1977 87.79 29.2066 88.1 29.5982C88.31 29.8651 88.31 29.8651 88.01 29.8651C87.72 29.8651 87.7 29.8384 87.7 29.5448Z" fill="#737373"/>
<path d="M12.21 29.2956C12.38 29.0731 12.65 28.7616 12.81 28.6015C13.09 28.3078 13.09 28.3078 13.1 28.646C13.1 28.8773 13.06 28.9752 12.95 28.9752C12.87 28.9752 12.8 29.0553 12.8 29.1532C12.8 29.2511 12.73 29.3312 12.65 29.3312C12.57 29.3312 12.5 29.4113 12.5 29.5092C12.5 29.6516 12.43 29.6871 12.19 29.6871C11.89 29.6871 11.89 29.6871 12.21 29.2956Z" fill="#737373"/>
<path d="M10.96 29.1354C10.86 28.7972 10.89 28.7083 11.1 28.7083C11.3 28.7083 11.36 28.904 11.24 29.1888C11.15 29.3935 11.03 29.3668 10.96 29.1354Z" fill="#737373"/>
<path d="M12 27.8717C12 27.5781 12.02 27.5514 12.31 27.5514C12.61 27.5514 12.61 27.5514 12.4 27.8183C12.09 28.2099 12 28.2188 12 27.8717Z" fill="#737373"/>
<path d="M10.51 27.1064C10.37 26.5102 10.37 26.4835 10.59 26.4835C10.77 26.4835 10.9 26.8306 10.9 27.3556C10.9 27.7472 10.62 27.5603 10.51 27.1064Z" fill="#737373"/>
<path d="M84.6 26.083C84.6 25.6915 84.69 25.6915 84.98 26.083C85.2 26.3945 85.2 26.3945 84.9 26.3945C84.62 26.3945 84.6 26.3678 84.6 26.083Z" fill="#737373"/>
<path d="M85.95 25.9673C85.89 25.9317 85.77 25.7983 85.67 25.6648C85.5 25.4156 85.5 25.4156 85.8 25.4156C86.08 25.4156 86.1 25.4423 86.1 25.7271C86.1 26.0652 86.1 26.0652 85.95 25.9673Z" fill="#737373"/>
<path d="M88.9 24.4812C88.9 24.232 88.94 24.1697 89.1 24.1697C89.27 24.1697 89.3 24.2231 89.27 24.4812C89.26 24.7126 89.2 24.7927 89.08 24.7927C88.94 24.7927 88.9 24.7215 88.9 24.4812Z" fill="#737373"/>
<path d="M84.38 24.4367C84.1 24.1252 84.1 24.1252 84.36 24.0985C84.69 24.0629 84.72 24.0896 84.68 24.4456C84.65 24.7482 84.65 24.7482 84.38 24.4367Z" fill="#737373"/>
<path d="M82 23.8049C82 23.5379 82 23.5379 82.3 23.7248C82.74 24.0006 82.75 24.0807 82.36 24.0807C82.03 24.0807 82 24.0629 82 23.8049Z" fill="#737373"/>
<path d="M16.3 23.5557C16.3 23.2976 16.33 23.2798 16.66 23.2798C17.05 23.2798 17.04 23.3599 16.6 23.6358C16.3 23.8227 16.3 23.8227 16.3 23.5557Z" fill="#737373"/>
<path d="M18.45 23.173C18.48 23.1107 18.64 22.9861 18.8 22.9061C19.1 22.7548 19.1 22.7548 19.1 23.0128C19.1 23.262 19.07 23.2798 18.75 23.2798C18.52 23.2798 18.42 23.2442 18.45 23.173Z" fill="#737373"/>
<path d="M9.56 22.5501C9.46 22.2119 9.49 22.1229 9.7 22.1229C9.86 22.1229 9.9 22.1852 9.9 22.4344C9.9 22.7904 9.66 22.8705 9.56 22.5501Z" fill="#737373"/>
<path d="M82.08 22.5857C81.66 22.3543 81.65 22.2119 82.05 22.2119C82.37 22.2119 82.4 22.2297 82.4 22.4789C82.4 22.6302 82.39 22.7459 82.38 22.737C82.36 22.737 82.23 22.6658 82.08 22.5857Z" fill="#737373"/>
<path d="M89.4 22.0784C89.4 21.8293 89.44 21.767 89.6 21.767C89.81 21.767 89.84 21.856 89.74 22.1941C89.64 22.5145 89.4 22.4344 89.4 22.0784Z" fill="#737373"/>
<path d="M18.9 21.5979C18.9 21.3398 18.93 21.322 19.26 21.322C19.65 21.322 19.64 21.4021 19.2 21.678C18.9 21.8649 18.9 21.8649 18.9 21.5979Z" fill="#737373"/>
<path d="M9.26 20.9483C9.16 20.6101 9.19 20.5211 9.4 20.5211C9.56 20.5211 9.6 20.5834 9.6 20.8326C9.6 21.1885 9.36 21.2686 9.26 20.9483Z" fill="#737373"/>
<path d="M21.92 20.8771C21.99 20.7792 22.08 20.6991 22.12 20.6991C22.15 20.6991 22.25 20.6724 22.34 20.6457C22.46 20.6012 22.5 20.6457 22.5 20.8237C22.5 21.0283 22.46 21.055 22.15 21.055C21.82 21.055 21.81 21.0461 21.92 20.8771Z" fill="#737373"/>
<path d="M77.1 20.5567C77.1 20.3609 77.13 20.3431 77.32 20.3965C77.54 20.4588 77.8 20.6457 77.8 20.7347C77.8 20.7614 77.64 20.7881 77.45 20.7881C77.14 20.7881 77.1 20.7614 77.1 20.5567Z" fill="#737373"/>
<path d="M76.3 20.2096C76.3 20.1295 76.21 20.0761 76.05 20.0761C75.85 20.0761 75.8 20.0317 75.8 19.8448C75.8 19.649 75.83 19.6312 76.03 19.6846C76.15 19.7202 76.27 19.7736 76.3 19.8092C76.33 19.8359 76.5 19.9427 76.68 20.0317C77.09 20.2541 77.09 20.3431 76.65 20.3431C76.41 20.3431 76.3 20.2986 76.3 20.2096Z" fill="#737373"/>
<path d="M78 19.9249C77.84 19.8626 77.6 19.6668 77.6 19.5956C77.6 19.5689 77.76 19.5422 77.95 19.5422C78.26 19.5422 78.3 19.5689 78.3 19.7647C78.3 19.9961 78.26 20.0139 78 19.9249Z" fill="#737373"/>
<path d="M76.7 19.2129C76.54 19.1506 76.3 18.9549 76.3 18.8837C76.3 18.857 76.46 18.8303 76.65 18.8303C76.96 18.8303 77 18.857 77 19.0528C77 19.2841 76.96 19.3019 76.7 19.2129Z" fill="#737373"/>
<path d="M23.1 18.1184C22.55 17.6289 22.55 17.6289 22.84 17.6022C23.05 17.5755 23.21 17.6378 23.42 17.8336C23.64 18.0205 23.71 18.1628 23.68 18.3497C23.65 18.6078 23.65 18.6078 23.1 18.1184Z" fill="#737373"/>
<path d="M21.6 18.1984C21.6 17.9315 21.6 17.9315 21.9 18.1184C22.34 18.3942 22.35 18.4743 21.96 18.4743C21.63 18.4743 21.6 18.4565 21.6 18.1984Z" fill="#737373"/>
<path d="M22 17.1394C21.65 16.8814 21.65 16.8814 22.03 16.8725C22.38 16.8725 22.4 16.8903 22.4 17.1394C22.4 17.2907 22.39 17.4064 22.37 17.4064C22.36 17.4064 22.19 17.2907 22 17.1394Z" fill="#737373"/>
<path d="M30.62 17.0327C30.65 16.9704 30.81 16.8725 30.98 16.8102C31.29 16.6945 31.3 16.7034 31.3 16.917C31.3 17.1128 31.26 17.1395 30.94 17.1395C30.71 17.1395 30.6 17.1039 30.62 17.0327Z" fill="#737373"/>
<path d="M71.93 17.006C71.5 16.8458 71.51 16.6945 71.95 16.6945C72.26 16.6945 72.3 16.7212 72.3 16.917C72.3 17.0416 72.29 17.1394 72.28 17.1394C72.26 17.1305 72.1 17.0772 71.93 17.006Z" fill="#737373"/>
<path d="M67.9 16.65C67.9 16.4364 67.91 16.4275 68.22 16.5432C68.68 16.7123 68.7 16.8725 68.26 16.8725C67.94 16.8725 67.9 16.8458 67.9 16.65Z" fill="#737373"/>
<path d="M90.4 16.472C90.4 16.2228 90.44 16.1606 90.6 16.1606C90.81 16.1606 90.84 16.2495 90.74 16.5877C90.64 16.9081 90.4 16.828 90.4 16.472Z" fill="#737373"/>
<path d="M70.38 16.4542C69.81 16.205 69.77 16.0716 70.25 16.0716C70.44 16.0716 70.6 16.1161 70.6 16.1606C70.6 16.2139 70.71 16.2495 70.85 16.2495C71.05 16.2495 71.1 16.294 71.1 16.4542C71.1 16.7123 70.98 16.7123 70.38 16.4542Z" fill="#737373"/>
<path d="M29.2 16.3741C29.2 16.1872 29.25 16.1606 29.55 16.1606C29.95 16.1606 30 16.2851 29.68 16.4453C29.31 16.6233 29.2 16.6055 29.2 16.3741Z" fill="#737373"/>
<path d="M19.3 16.2406C19.3 15.9737 19.3 15.9737 19.6 16.1605C20.04 16.4364 20.05 16.5165 19.66 16.5165C19.33 16.5165 19.3 16.4987 19.3 16.2406Z" fill="#737373"/>
<path d="M78.25 16.2495C78.28 16.205 78.44 16.0805 78.6 15.9826C78.9 15.7957 78.9 15.7957 78.9 16.0627C78.9 16.3207 78.87 16.3385 78.54 16.3385C78.34 16.3385 78.21 16.3029 78.25 16.2495Z" fill="#737373"/>
<path d="M65.8 16.0627C65.8 15.9114 65.85 15.8847 66.12 15.9203C66.33 15.9381 66.46 16.0093 66.48 16.0983C66.51 16.2139 66.44 16.2495 66.16 16.2495C65.86 16.2495 65.8 16.2139 65.8 16.0627Z" fill="#737373"/>
<path d="M33.9 16.036C33.9 15.9648 34.04 15.8847 34.23 15.8491C34.4 15.8135 34.6 15.7601 34.65 15.7245C34.71 15.6889 34.87 15.6533 35.03 15.6355C35.25 15.6177 35.3 15.6533 35.3 15.7957C35.3 15.947 35.24 15.9826 34.95 15.9826C34.76 15.9826 34.6 16.0271 34.6 16.0716C34.6 16.125 34.44 16.1605 34.25 16.1605C34.01 16.1605 33.9 16.1161 33.9 16.036Z" fill="#737373"/>
<path d="M68.63 15.8491C68.2 15.6889 68.21 15.5376 68.65 15.5376C68.96 15.5376 69 15.5643 69 15.7601C69 15.8847 68.99 15.9826 68.98 15.9826C68.96 15.9737 68.8 15.9203 68.63 15.8491Z" fill="#737373"/>
<path d="M64.4 15.7067C64.4 15.5554 64.45 15.5287 64.72 15.5643C64.93 15.5821 65.06 15.6533 65.08 15.7423C65.11 15.858 65.04 15.8936 64.76 15.8936C64.46 15.8936 64.4 15.858 64.4 15.7067Z" fill="#737373"/>
<path d="M66.98 15.3863C66.65 15.3151 66.78 15.0927 67.15 15.0927C67.43 15.0927 67.5 15.1283 67.5 15.2706C67.5 15.4486 67.36 15.4753 66.98 15.3863Z" fill="#737373"/>
<path d="M61.77 15.2973C61.55 15.2617 61.49 15.2172 61.52 15.066C61.54 14.9414 61.61 14.8791 61.7 14.9058C61.78 14.9236 62.04 14.977 62.28 15.0215C62.53 15.0749 62.7 15.155 62.7 15.235C62.7 15.3596 62.4 15.3774 61.77 15.2973Z" fill="#737373"/>
<path d="M90.6 15.0482C90.6 14.799 90.64 14.7367 90.8 14.7367C91.01 14.7367 91.04 14.8257 90.94 15.1639C90.84 15.4842 90.6 15.4041 90.6 15.0482Z" fill="#737373"/>
<path d="M33.2 15.0927C33.2 14.9503 33.27 14.9147 33.55 14.9147C33.95 14.9147 34.04 15.1283 33.68 15.2172C33.3 15.3062 33.2 15.2795 33.2 15.0927Z" fill="#737373"/>
<path d="M78.7 14.4697C78.7 14.2205 78.73 14.2028 79.05 14.2028C79.49 14.2028 79.49 14.2828 79.05 14.5409C78.7 14.7367 78.7 14.7367 78.7 14.4697Z" fill="#737373"/>
<path d="M80.15 14.6477C80.18 14.6032 80.34 14.4786 80.5 14.3807C80.8 14.1939 80.8 14.1939 80.8 14.4608C80.8 14.7189 80.77 14.7367 80.44 14.7367C80.24 14.7367 80.11 14.7011 80.15 14.6477Z" fill="#737373"/>
<path d="M66.15 14.4697C66.18 14.4252 66.34 14.3006 66.5 14.2028C66.8 14.0159 66.8 14.0159 66.8 14.2828C66.8 14.5409 66.77 14.5587 66.44 14.5587C66.24 14.5587 66.11 14.5231 66.15 14.4697Z" fill="#737373"/>
<path d="M18.43 14.1761C18.01 13.9269 18.02 13.8468 18.45 13.8468C18.77 13.8468 18.8 13.8646 18.8 14.1138C18.8 14.265 18.79 14.3807 18.78 14.3718C18.76 14.3718 18.6 14.2828 18.43 14.1761Z" fill="#737373"/>
<path d="M55 14.2028C55 14.0159 55.1 13.9892 55.48 14.0782C55.84 14.1672 55.75 14.3807 55.35 14.3807C55.07 14.3807 55 14.3451 55 14.2028Z" fill="#737373"/>
<path d="M45.6 14.1672C45.6 14.0515 45.88 13.9358 46.18 13.9358C46.24 13.9358 46.3 14.0159 46.3 14.1138C46.3 14.2561 46.23 14.2917 45.95 14.2917C45.72 14.2917 45.6 14.2472 45.6 14.1672Z" fill="#737373"/>
<path d="M53.8 14.1138C53.8 13.9269 53.9 13.9002 54.28 13.9892C54.64 14.0782 54.55 14.2917 54.15 14.2917C53.87 14.2917 53.8 14.2561 53.8 14.1138Z" fill="#737373"/>
<path d="M47.9 14.0782C47.9 13.9625 48.18 13.8468 48.48 13.8468C48.54 13.8468 48.6 13.9269 48.6 14.0248C48.6 14.1672 48.53 14.2028 48.25 14.2028C48.02 14.2028 47.9 14.1583 47.9 14.0782Z" fill="#737373"/>
<path d="M51.5 14.0248C51.5 13.8379 51.6 13.8112 51.98 13.9002C52.34 13.9892 52.25 14.2028 51.85 14.2028C51.57 14.2028 51.5 14.1672 51.5 14.0248Z" fill="#737373"/>
<path d="M90.8 13.3573C90.8 13.1082 90.84 13.0459 91 13.0459C91.21 13.0459 91.24 13.1349 91.14 13.473C91.04 13.7934 90.8 13.7133 90.8 13.3573Z" fill="#737373"/>
<path d="M15.3 13.0459C15.3 12.7878 15.3 12.7878 15.6 12.9391C16.04 13.1616 16.06 13.3128 15.65 13.3128C15.33 13.3128 15.3 13.295 15.3 13.0459Z" fill="#737373"/>
<path d="M30.9 12.948C30.9 12.681 30.9 12.681 31.2 12.8679C31.64 13.1438 31.65 13.2238 31.26 13.2238C30.93 13.2238 30.9 13.2061 30.9 12.948Z" fill="#737373"/>
<path d="M81.1 12.5119C81.1 12.2628 81.13 12.245 81.45 12.245C81.89 12.245 81.89 12.325 81.45 12.5831C81.1 12.7789 81.1 12.7789 81.1 12.5119Z" fill="#737373"/>
<path d="M30.1 12.325C30.1 12.0581 30.1 12.0581 30.4 12.245C30.84 12.5208 30.85 12.6009 30.46 12.6009C30.13 12.6009 30.1 12.5831 30.1 12.325Z" fill="#737373"/>
<path d="M90.9 12.2005C90.9 11.9513 90.94 11.889 91.1 11.889C91.31 11.889 91.34 11.978 91.24 12.3161C91.14 12.6365 90.9 12.5564 90.9 12.2005Z" fill="#737373"/>
<path d="M83.05 12.3161C83.08 12.2539 83.24 12.1293 83.4 12.0492C83.7 11.8979 83.7 11.8979 83.7 12.156C83.7 12.4051 83.67 12.4229 83.35 12.4229C83.12 12.4229 83.02 12.3873 83.05 12.3161Z" fill="#737373"/>
<path d="M15.62 12.0047C15.5 11.9246 15.2 11.711 14.97 11.5241C14.55 11.1771 14.55 11.1771 14.93 11.1771C15.26 11.1771 15.3 11.2038 15.3 11.3995C15.3 11.5864 15.35 11.622 15.6 11.622C15.87 11.622 15.9 11.6487 15.9 11.889C15.9 12.0403 15.89 12.156 15.88 12.1471C15.86 12.1471 15.75 12.0848 15.62 12.0047Z" fill="#737373"/>
<path d="M81.9 11.889C81.9 11.6398 81.93 11.622 82.25 11.622C82.57 11.622 82.6 11.6042 82.6 11.355C82.6 11.1059 82.63 11.0881 82.97 11.0881C83.35 11.0881 83.35 11.0881 82.86 11.4885C82.59 11.711 82.26 11.9513 82.13 12.0225C81.91 12.156 81.9 12.156 81.9 11.889Z" fill="#737373"/>
<path d="M69.76 11.6665C69.8 11.5953 69.86 11.533 69.92 11.533C69.97 11.533 70.11 11.444 70.23 11.3283C70.36 11.2216 70.58 11.0614 70.73 10.9724C71 10.8211 71 10.8211 71 11.0881C71 11.3283 70.97 11.355 70.7 11.355C70.45 11.355 70.4 11.3906 70.4 11.5775C70.4 11.7733 70.36 11.8 70.05 11.8C69.79 11.8 69.72 11.7733 69.76 11.6665Z" fill="#737373"/>
<path d="M11.9 10.9101C11.9 10.8656 11.83 10.8211 11.75 10.8211C11.58 10.8211 11.54 10.4206 11.7 10.3317C11.76 10.305 11.8 10.3139 11.8 10.3583C11.8 10.4028 11.92 10.4918 12.08 10.563C12.37 10.6965 12.6 10.8656 12.6 10.9457C12.6 10.9724 12.44 10.9991 12.25 10.9991C12.06 10.9991 11.9 10.9635 11.9 10.9101Z" fill="#737373"/>
<path d="M10.8 10.1537C10.8 9.8867 10.83 9.8867 11.21 10.0825C11.59 10.2872 11.58 10.3761 11.15 10.3761C10.84 10.3761 10.8 10.3495 10.8 10.1537Z" fill="#737373"/>
<path d="M90.9 9.77991C90.9 9.69092 90.87 9.40615 90.84 9.15697C90.78 8.76541 90.8 8.68532 90.93 8.68532C91.08 8.68532 91.13 8.79211 91.25 9.55743C91.31 9.8956 91.3 9.93119 91.11 9.93119C90.98 9.93119 90.9 9.8778 90.9 9.77991Z" fill="#737373"/>
<path d="M87.12 9.48624C87.19 9.38835 87.28 9.30826 87.32 9.30826C87.35 9.30826 87.45 9.28156 87.54 9.25486C87.66 9.21037 87.7 9.25486 87.7 9.43285C87.7 9.63752 87.66 9.66422 87.35 9.66422C87.02 9.66422 87.01 9.65532 87.12 9.48624Z" fill="#737373"/>
<path d="M11.7 9.51294C11.54 9.45064 11.3 9.25486 11.3 9.18367C11.3 9.15697 11.46 9.13028 11.65 9.13028C11.96 9.13028 12 9.15697 12 9.35275C12 9.58413 11.96 9.60193 11.7 9.51294Z" fill="#737373"/>
<path d="M7.7 9.08578C7.7 8.92559 7.75 8.8633 7.9 8.8633C8.1 8.8633 8.1 8.8722 7.94 9.08578C7.85 9.21036 7.76 9.30825 7.74 9.30825C7.72 9.30825 7.7 9.21036 7.7 9.08578Z" fill="#737373"/>
<path d="M9.28 8.62303C8.95 8.55183 9.08 8.32936 9.45 8.32936C9.73 8.32936 9.8 8.36495 9.8 8.50734C9.8 8.68532 9.66 8.71202 9.28 8.62303Z" fill="#737373"/>
<path d="M87.6 8.01789C87.6 7.82211 87.64 7.79541 87.95 7.79541C88.21 7.79541 88.3 7.83101 88.3 7.9467C88.3 8.02679 88.27 8.06239 88.24 8.03569C88.2 8.00899 88.08 8.03569 87.96 8.10688C87.67 8.29376 87.6 8.27596 87.6 8.01789Z" fill="#737373"/>
<path d="M23.8 7.70642C23.8 7.44835 23.8 7.44835 24.1 7.59963C24.54 7.82211 24.56 7.97339 24.15 7.97339C23.83 7.97339 23.8 7.9556 23.8 7.70642Z" fill="#737373"/>
<path d="M91.3 6.41605C91.3 6.06009 91.54 5.98 91.64 6.30926C91.74 6.63853 91.71 6.72752 91.5 6.72752C91.34 6.72752 91.3 6.66523 91.3 6.41605Z" fill="#737373"/>
<path d="M91.2 5.17018C91.2 4.81422 91.44 4.73413 91.54 5.06339C91.64 5.39266 91.61 5.48165 91.4 5.48165C91.24 5.48165 91.2 5.41936 91.2 5.17018Z" fill="#737373"/>
<path d="M18.7 4.22688C18.7 3.9599 18.7 3.95991 19 4.14679C19.44 4.42266 19.45 4.50275 19.06 4.50275C18.73 4.50275 18.7 4.48495 18.7 4.22688Z" fill="#737373"/>
<path d="M91 3.65734C91 3.46156 91.05 3.34587 91.13 3.34587C91.21 3.34587 91.31 3.48826 91.37 3.65734C91.48 3.95101 91.47 3.96881 91.24 3.96881C91.03 3.96881 91 3.92431 91 3.65734Z" fill="#737373"/>
<path d="M14.6 1.78853C14.6 1.52156 14.63 1.52156 15.01 1.71734C15.39 1.92202 15.38 2.01101 14.95 2.01101C14.64 2.01101 14.6 1.98431 14.6 1.78853Z" fill="#737373"/>
<path d="M85.7 1.1389C85.7 1.06771 86.22 0.765137 86.34 0.765137C86.37 0.765137 86.4 0.863027 86.4 0.987614C86.4 1.18339 86.36 1.21009 86.05 1.21009C85.86 1.21009 85.7 1.1745 85.7 1.1389Z" fill="#737373"/>
<path d="M11.4 0.275685C11.4 0.0621066 11.41 0.0532064 11.72 0.168894C12.18 0.337977 12.2 0.498162 11.76 0.498162C11.44 0.498162 11.4 0.471464 11.4 0.275685Z" fill="#737373"/>
</svg>
