<svg width="101" height="84" viewBox="0 0 101 84" fill="none" xmlns="http://www.w3.org/2000/svg">
<path d="M48.98 83.6634C48.65 83.5922 48.78 83.3697 49.15 83.3697C49.43 83.3697 49.5 83.4053 49.5 83.5477C49.5 83.7257 49.36 83.7524 48.98 83.6634Z" fill="#848484"/>
<path d="M50.6 83.5477C50.6 83.4053 50.67 83.3697 50.95 83.3697C51.35 83.3697 51.44 83.5833 51.08 83.6723C50.7 83.7613 50.6 83.7346 50.6 83.5477Z" fill="#848484"/>
<path d="M51.8 83.4587C51.8 83.3163 51.87 83.2807 52.15 83.2807C52.42 83.2807 52.5 83.3163 52.5 83.4409C52.5 83.5477 52.41 83.6011 52.15 83.61C51.86 83.6367 51.8 83.61 51.8 83.4587Z" fill="#848484"/>
<path d="M44.33 82.7913C43.9 82.6311 43.91 82.4798 44.35 82.4798C44.66 82.4798 44.7 82.5065 44.7 82.7023C44.7 82.8269 44.69 82.9248 44.68 82.9248C44.66 82.9159 44.5 82.8625 44.33 82.7913Z" fill="#848484"/>
<path d="M56.3 82.3374C56.3 82.1506 56.35 82.1239 56.65 82.1239C56.84 82.1239 57 82.1506 57 82.1773C57 82.2751 56.75 82.4442 56.53 82.4976C56.34 82.5421 56.3 82.5154 56.3 82.3374V82.3374Z" fill="#848484"/>
<path d="M50.7 82.3107C50.7 82.1772 50.78 82.1506 51.25 82.1506C51.72 82.1506 51.8 82.1772 51.8 82.3107C51.8 82.4531 51.72 82.4798 51.25 82.4798C50.78 82.4798 50.7 82.4531 50.7 82.3107Z" fill="#848484"/>
<path d="M48.4 82.2128C48.4 82.026 48.5 81.9993 48.88 82.0882C49.24 82.1772 49.15 82.3908 48.75 82.3908C48.47 82.3908 48.4 82.3552 48.4 82.2128Z" fill="#848484"/>
<path d="M52 82.1861C52 82.1149 52.16 82.026 52.35 81.9726C52.68 81.8747 52.7 81.8836 52.7 82.0882C52.7 82.2751 52.65 82.3018 52.35 82.3018C52.13 82.3018 52 82.2573 52 82.1861Z" fill="#848484"/>
<path d="M51.3 81.2428C51.3 81.0916 51.36 81.056 51.66 81.056C51.94 81.056 52.01 81.0916 51.98 81.2072C51.96 81.2962 51.83 81.3674 51.62 81.3852C51.35 81.4208 51.3 81.3941 51.3 81.2428V81.2428Z" fill="#848484"/>
<path d="M48.43 81.1894C48 81.0293 48.01 80.878 48.45 80.878C48.76 80.878 48.8 80.9047 48.8 81.1005C48.8 81.225 48.79 81.3229 48.78 81.3229C48.76 81.314 48.6 81.2606 48.43 81.1894Z" fill="#848484"/>
<path d="M52.7 80.8246C52.7 80.6377 52.75 80.611 53.05 80.611C53.45 80.611 53.5 80.7356 53.18 80.8958C52.81 81.0738 52.7 81.056 52.7 80.8246Z" fill="#848484"/>
<path d="M44.6 80.433C44.6 80.2906 44.62 80.166 44.66 80.166C44.69 80.166 44.85 80.2817 45.03 80.433C45.35 80.7 45.35 80.7 44.98 80.7C44.62 80.7 44.6 80.6822 44.6 80.433V80.433Z" fill="#848484"/>
<path d="M46.6 80.4597C46.52 80.4241 46.39 80.3529 46.32 80.2817C46.25 80.2194 46.12 80.166 46.04 80.166C45.96 80.166 45.9 80.1304 45.9 80.0771C45.9 80.0326 45.83 79.9881 45.75 79.9881C45.67 79.9881 45.6 79.9525 45.6 79.8991C45.6 79.8546 45.54 79.8101 45.47 79.8101C45.4 79.8101 45.29 79.73 45.22 79.6321C45.11 79.463 45.12 79.4541 45.45 79.4541C45.73 79.4541 45.8 79.4897 45.8 79.6321C45.8 79.7745 45.87 79.8101 46.1 79.8101C46.3 79.8101 46.4 79.8546 46.4 79.9436C46.4 80.0237 46.49 80.0771 46.65 80.0771C46.85 80.0771 46.9 80.1215 46.9 80.2995C46.9 80.5309 46.86 80.5487 46.6 80.4597V80.4597Z" fill="#848484"/>
<path d="M59.4 80.2105C59.4 79.9258 59.42 79.8991 59.7 79.8991C60 79.8991 60 79.8991 59.78 80.2105C59.49 80.6021 59.4 80.6021 59.4 80.2105Z" fill="#848484"/>
<path d="M56.06 80.2106C56.1 80.1394 56.16 80.0771 56.21 80.0771C56.26 80.0771 56.39 79.997 56.5 79.8991C56.7 79.7211 56.7 79.7211 56.7 80.0326C56.7 80.3262 56.68 80.344 56.35 80.344C56.09 80.344 56.02 80.3173 56.06 80.2106Z" fill="#848484"/>
<path d="M44.44 79.0715C44.21 78.9202 43.93 78.6532 43.81 78.5019C43.6 78.2082 43.6 78.2082 43.9 78.2082C44.18 78.2082 44.2 78.2349 44.2 78.5197C44.2 78.8134 44.22 78.8312 44.55 78.8312C44.87 78.8312 44.9 78.849 44.9 79.0982C44.9 79.2494 44.89 79.3651 44.88 79.3651C44.86 79.3651 44.66 79.2316 44.44 79.0715Z" fill="#848484"/>
<path d="M42.8 79.0982C42.8 79.0003 42.73 78.9202 42.65 78.9202C42.55 78.9202 42.5 78.8223 42.5 78.6087C42.5 78.4396 42.53 78.2972 42.56 78.2972C42.66 78.2972 42.9 78.5464 42.9 78.6443C42.9 78.6977 42.93 78.7422 42.98 78.7422C43.02 78.7422 43.13 78.8668 43.22 79.0092C43.39 79.2761 43.39 79.2761 43.1 79.2761C42.87 79.2761 42.8 79.2316 42.8 79.0982V79.0982Z" fill="#848484"/>
<path d="M42.1 76.8289C42.1 76.5886 42.14 76.5174 42.28 76.5174C42.55 76.5174 42.59 76.5886 42.47 76.8823C42.31 77.2471 42.1 77.2116 42.1 76.8289V76.8289Z" fill="#848484"/>
<path d="M38.06 76.7043C38.03 76.6687 37.96 76.5263 37.91 76.3928C37.81 76.1793 37.83 76.1615 38.05 76.1615C38.27 76.1615 38.3 76.1971 38.3 76.4729C38.3 76.7666 38.18 76.8823 38.06 76.7043Z" fill="#848484"/>
<path d="M43.5 76.5619C43.5 76.5441 43.55 76.4195 43.62 76.2949C43.78 75.9835 44 76.0102 44 76.3394C44 76.5619 43.96 76.6064 43.75 76.6064C43.61 76.6064 43.5 76.5886 43.5 76.5619Z" fill="#848484"/>
<path d="M56.18 76.2772C55.96 76.2238 55.94 75.8945 56.15 75.8945C56.4 75.8945 57 76.1437 57 76.2416C57 76.3394 56.51 76.3572 56.18 76.2772V76.2772Z" fill="#848484"/>
<path d="M58.03 76.206C57.96 76.1348 57.9 76.0369 57.9 75.9835C57.9 75.939 57.86 75.8945 57.8 75.8945C57.75 75.8945 57.7 75.8589 57.7 75.8055C57.7 75.761 57.84 75.7165 58 75.7165C58.28 75.7165 58.3 75.7432 58.3 76.028C58.3 76.3572 58.23 76.4106 58.03 76.206Z" fill="#848484"/>
<path d="M42.6 75.85C42.6 75.5652 42.62 75.5385 42.9 75.5385C43.18 75.5385 43.19 75.5474 43.08 75.7343C42.93 75.9657 42.74 76.1615 42.66 76.1615C42.63 76.1615 42.6 76.0191 42.6 75.85V75.85Z" fill="#848484"/>
<path d="M45.52 75.7432C45.54 75.6542 45.67 75.583 45.88 75.5652C46.15 75.5296 46.2 75.5563 46.2 75.7076C46.2 75.8589 46.14 75.8945 45.84 75.8945C45.56 75.8945 45.49 75.8589 45.52 75.7432V75.7432Z" fill="#848484"/>
<path d="M47.1 75.5029C47.1 75.3872 47.38 75.2716 47.68 75.2716C47.74 75.2716 47.8 75.3516 47.8 75.4495C47.8 75.5919 47.73 75.6275 47.45 75.6275C47.22 75.6275 47.1 75.583 47.1 75.5029Z" fill="#848484"/>
<path d="M47.9 75.4139C47.9 75.2982 48.18 75.1826 48.48 75.1826C48.54 75.1826 48.6 75.2626 48.6 75.3605C48.6 75.5029 48.53 75.5385 48.25 75.5385C48.02 75.5385 47.9 75.494 47.9 75.4139Z" fill="#848484"/>
<path d="M56.78 75.2805C55.95 75.0313 55.76 74.8266 56.35 74.8266C56.54 74.8266 56.7 74.8622 56.7 74.9067C56.7 74.9423 56.88 75.0046 57.11 75.0313C57.59 75.0847 57.63 75.1114 57.58 75.3338C57.55 75.494 57.52 75.494 56.78 75.2805V75.2805Z" fill="#848484"/>
<path d="M50.9 75.2716C50.9 75.0847 51 75.058 51.38 75.147C51.74 75.236 51.65 75.4495 51.25 75.4495C50.97 75.4495 50.9 75.4139 50.9 75.2716Z" fill="#848484"/>
<path d="M44.4 74.9156C44.4 74.7732 44.47 74.7376 44.75 74.7376C45.15 74.7376 45.24 74.9512 44.88 75.0402C44.5 75.1292 44.4 75.1025 44.4 74.9156Z" fill="#848484"/>
<path d="M54.9 74.8266C54.82 74.791 54.58 74.7376 54.38 74.702C53.96 74.6308 53.84 74.3817 54.23 74.3817C54.8 74.3817 55.2 74.4973 55.2 74.6575C55.2 74.8533 55.09 74.9245 54.9 74.8266Z" fill="#848484"/>
<path d="M46.6 74.4706C46.6 74.3283 46.67 74.2927 46.95 74.2927C47.35 74.2927 47.44 74.5062 47.08 74.5952C46.7 74.6842 46.6 74.6575 46.6 74.4706Z" fill="#848484"/>
<path d="M52.08 74.4083C51.75 74.3372 51.88 74.1147 52.25 74.1147C52.53 74.1147 52.6 74.1503 52.6 74.2927C52.6 74.4706 52.46 74.4973 52.08 74.4083Z" fill="#848484"/>
<path d="M36.86 71.9611C36.76 71.6229 36.79 71.5339 37 71.5339C37.16 71.5339 37.2 71.5962 37.2 71.8454C37.2 72.2014 36.96 72.2815 36.86 71.9611Z" fill="#848484"/>
<path d="M62.9 71.089C62.9 70.7686 62.94 70.644 63.04 70.644C63.21 70.644 63.32 71.0178 63.24 71.3115C63.13 71.7208 62.9 71.5784 62.9 71.089Z" fill="#848484"/>
<path d="M36.8 70.5372C36.8 70.2703 36.93 70.0211 37.06 70.0211C37.15 70.0211 37.2 70.1279 37.2 70.3326C37.2 70.5817 37.16 70.644 37 70.644C36.89 70.644 36.8 70.5906 36.8 70.5372Z" fill="#848484"/>
<path d="M62.5 67.7518C62.5 67.3959 62.74 67.3158 62.84 67.645C62.94 67.9743 62.91 68.0633 62.7 68.0633C62.54 68.0633 62.5 68.001 62.5 67.7518Z" fill="#848484"/>
<path d="M64 66.5505C64 66.4081 64.07 66.3725 64.35 66.3725C64.75 66.3725 64.84 66.5861 64.48 66.6751C64.1 66.764 64 66.7373 64 66.5505Z" fill="#848484"/>
<path d="M34.98 66.5772C34.65 66.506 34.78 66.2835 35.15 66.2835C35.43 66.2835 35.5 66.3191 35.5 66.4615C35.5 66.6394 35.36 66.6662 34.98 66.5772Z" fill="#848484"/>
<path d="M66.8 66.1945C66.8 66.0521 66.87 66.0165 67.15 66.0165C67.55 66.0165 67.64 66.2301 67.28 66.3191C66.9 66.4081 66.8 66.3814 66.8 66.1945Z" fill="#848484"/>
<path d="M30.6 65.9097C30.6 65.7851 30.68 65.7495 30.95 65.7495C31.23 65.7495 31.3 65.7851 31.3 65.9275C31.3 66.0788 31.24 66.1055 30.95 66.0788C30.69 66.0699 30.6 66.0165 30.6 65.9097Z" fill="#848484"/>
<path d="M69.5 65.8385C69.5 65.6961 69.57 65.6606 69.85 65.6606C70.12 65.6606 70.2 65.6962 70.2 65.8207C70.2 65.9275 70.11 65.9809 69.85 65.9898C69.56 66.0165 69.5 65.9898 69.5 65.8385Z" fill="#848484"/>
<path d="M28.7 65.6428C28.7 65.5182 28.78 65.4826 29.05 65.4826C29.33 65.4826 29.4 65.5182 29.4 65.6605C29.4 65.8118 29.34 65.8385 29.05 65.8118C28.79 65.8029 28.7 65.7495 28.7 65.6428Z" fill="#848484"/>
<path d="M71.4 65.5716C71.4 65.4648 71.47 65.3936 71.58 65.3936C71.67 65.3936 71.99 65.3669 72.28 65.3402C72.75 65.2868 72.8 65.2957 72.8 65.447C72.8 65.5538 72.73 65.6249 72.63 65.6249C72.53 65.6249 72.21 65.6516 71.93 65.6872C71.44 65.7495 71.4 65.7406 71.4 65.5716V65.5716Z" fill="#848484"/>
<path d="M24.03 65.1088C23.58 64.9753 23.6 64.7706 24.05 64.7706C24.36 64.7706 24.4 64.7973 24.4 64.9931C24.4 65.1177 24.39 65.2156 24.38 65.2067C24.36 65.1978 24.2 65.1533 24.03 65.1088V65.1088Z" fill="#848484"/>
<path d="M75.8 64.9664C75.8 64.8329 75.9 64.7795 76.26 64.735C76.94 64.6549 77.1 64.6639 77.1 64.8062C77.1 64.9397 76.8 65.0287 76.18 65.091C75.86 65.1266 75.8 65.1088 75.8 64.9664Z" fill="#848484"/>
<path d="M77.5 64.6994C77.5 64.566 77.63 64.5126 78.28 64.4325C79.33 64.2901 79.4 64.2901 79.4 64.5126C79.4 64.6104 79.37 64.6727 79.33 64.6549C79.28 64.6283 78.91 64.6638 78.5 64.7261C77.52 64.8863 77.5 64.8863 77.5 64.6994Z" fill="#848484"/>
<path d="M21.03 64.6638C20.58 64.5304 20.6 64.3257 21.05 64.3257C21.36 64.3257 21.4 64.3524 21.4 64.5482C21.4 64.6727 21.39 64.7706 21.38 64.7617C21.36 64.7528 21.2 64.7083 21.03 64.6638Z" fill="#848484"/>
<path d="M19.33 64.3969C18.88 64.2634 18.9 64.0587 19.35 64.0587C19.66 64.0587 19.7 64.0854 19.7 64.2812C19.7 64.4058 19.69 64.5037 19.68 64.4948C19.66 64.4859 19.5 64.4414 19.33 64.3969Z" fill="#848484"/>
<path d="M81.7 64.0943C81.7 63.9074 81.75 63.8807 82.05 63.8807C82.27 63.8807 82.4 63.9252 82.4 63.9964C82.4 64.0676 82.24 64.1566 82.05 64.21C81.72 64.3079 81.7 64.299 81.7 64.0943Z" fill="#848484"/>
<path d="M16.43 63.9519C15.98 63.8184 16 63.6138 16.45 63.6138C16.76 63.6138 16.8 63.6405 16.8 63.8362C16.8 63.9608 16.79 64.0587 16.78 64.0498C16.76 64.0409 16.6 63.9964 16.43 63.9519Z" fill="#848484"/>
<path d="M83.9 63.7384C83.9 63.5515 83.95 63.5248 84.25 63.5248C84.47 63.5248 84.6 63.5693 84.6 63.6405C84.6 63.7117 84.44 63.8006 84.25 63.854C83.92 63.9519 83.9 63.943 83.9 63.7384Z" fill="#848484"/>
<path d="M13.63 63.507C13.18 63.3735 13.2 63.1688 13.65 63.1688C13.96 63.1688 14 63.1955 14 63.3913C14 63.5159 13.99 63.6137 13.98 63.6048C13.96 63.596 13.8 63.5515 13.63 63.507Z" fill="#848484"/>
<path d="M85.6 63.4358C85.6 63.2934 85.67 63.2578 85.95 63.2578C86.35 63.2578 86.44 63.4714 86.08 63.5604C85.7 63.6494 85.6 63.6227 85.6 63.4358Z" fill="#848484"/>
<path d="M87.3 63.1866C87.3 63.0531 87.39 62.9997 87.76 62.9552C88.45 62.8751 88.6 62.884 88.6 63.0264C88.6 63.151 88.49 63.1866 87.68 63.3112C87.35 63.3557 87.3 63.3468 87.3 63.1866Z" fill="#848484"/>
<path d="M10.68 63.0175C10.35 62.9463 10.48 62.7238 10.85 62.7238C11.13 62.7238 11.2 62.7594 11.2 62.9018C11.2 63.0798 11.06 63.1065 10.68 63.0175Z" fill="#848484"/>
<path d="M89.5 62.8128C89.5 62.6705 89.57 62.6349 89.85 62.6349C90.25 62.6349 90.34 62.8484 89.98 62.9374C89.6 63.0264 89.5 62.9997 89.5 62.8128Z" fill="#848484"/>
<path d="M91.7 62.4569C91.7 62.3145 91.77 62.2789 92.05 62.2789C92.45 62.2789 92.54 62.4925 92.18 62.5815C91.8 62.6705 91.7 62.6438 91.7 62.4569Z" fill="#848484"/>
<path d="M5.28 62.1276C4.95 62.0564 5.08 61.8339 5.45 61.8339C5.73 61.8339 5.8 61.8695 5.8 62.0119C5.8 62.1899 5.66 62.2166 5.28 62.1276Z" fill="#848484"/>
<path d="M94.4 62.0386C94.4 61.8962 94.51 61.8428 95.04 61.7627C95.87 61.6204 96.1 61.6293 96.1 61.7805C96.1 61.9051 95.83 61.9763 94.78 62.1454C94.45 62.1988 94.4 62.1899 94.4 62.0386Z" fill="#848484"/>
<path d="M4.33 61.9941C3.88 61.8606 3.9 61.656 4.35 61.656C4.66 61.656 4.7 61.6827 4.7 61.8784C4.7 62.003 4.69 62.1009 4.68 62.092C4.66 62.0831 4.5 62.0386 4.33 61.9941Z" fill="#848484"/>
<path d="M2.58 61.6827C2.25 61.6115 2.38 61.389 2.75 61.389C3.03 61.389 3.1 61.4246 3.1 61.567C3.1 61.7449 2.96 61.7716 2.58 61.6827Z" fill="#848484"/>
<path d="M1.13 61.4513C0.759998 61.3534 0.679998 61.122 1.03 61.122C1.62 61.122 2 61.2377 2 61.3979C2 61.5848 1.72 61.6026 1.13 61.4513Z" fill="#848484"/>
<path d="M99.1 61.2466C99.1 61.0597 99.15 61.033 99.45 61.033C99.67 61.033 99.8 61.0775 99.8 61.1487C99.8 61.2199 99.64 61.3089 99.45 61.3623C99.12 61.4602 99.1 61.4513 99.1 61.2466Z" fill="#848484"/>
<path d="M99.7 60.5436C99.7 60.1876 99.94 60.1075 100.04 60.4368C100.14 60.766 100.11 60.855 99.9 60.855C99.74 60.855 99.7 60.7927 99.7 60.5436Z" fill="#848484"/>
<path d="M99.6 59.2977C99.6 58.9417 99.84 58.8617 99.94 59.1909C100.04 59.5202 100.01 59.6092 99.8 59.6092C99.64 59.6092 99.6 59.5469 99.6 59.2977Z" fill="#848484"/>
<path d="M27.4 59.3422C27.4 59.1553 27.5 59.1286 27.88 59.2176C28.24 59.3066 28.15 59.5202 27.75 59.5202C27.47 59.5202 27.4 59.4846 27.4 59.3422Z" fill="#848484"/>
<path d="M34.1 59.4045C34.1 59.3333 34.26 59.2443 34.45 59.1909C34.78 59.093 34.8 59.1019 34.8 59.3066C34.8 59.4935 34.75 59.5202 34.45 59.5202C34.23 59.5202 34.1 59.4757 34.1 59.4045Z" fill="#848484"/>
<path d="M25.58 59.2799C25.28 59.2532 25.2 59.2087 25.2 59.0663C25.2 58.8973 25.24 58.8884 25.63 58.9417C26.46 59.0485 26.6 59.093 26.6 59.2176C26.6 59.3422 26.41 59.3511 25.58 59.2799V59.2799Z" fill="#848484"/>
<path d="M64.5 59.1642C64.5 58.9773 64.6 58.9506 64.98 59.0396C65.34 59.1286 65.25 59.3422 64.85 59.3422C64.57 59.3422 64.5 59.3066 64.5 59.1642Z" fill="#848484"/>
<path d="M36 59.0485C36 58.9329 36.55 58.7015 36.64 58.7905C36.67 58.8172 36.7 58.9151 36.7 59.004C36.7 59.1286 36.62 59.1642 36.35 59.1642C36.13 59.1642 36 59.1197 36 59.0485Z" fill="#848484"/>
<path d="M22.8 58.6837C22.8 58.479 22.82 58.4701 23.15 58.568C23.34 58.6214 23.5 58.7104 23.5 58.7816C23.5 58.8528 23.37 58.8973 23.15 58.8973C22.85 58.8973 22.8 58.8706 22.8 58.6837Z" fill="#848484"/>
<path d="M36.92 58.7905C36.95 58.7282 37.19 58.6036 37.46 58.5057C37.73 58.4078 37.98 58.2832 38.02 58.2387C38.06 58.1853 38.1 58.2743 38.1 58.4345C38.1 58.6837 38.07 58.7193 37.85 58.7193C37.71 58.7193 37.6 58.7638 37.6 58.8083C37.6 58.8617 37.44 58.8972 37.24 58.8972C37.01 58.8972 36.9 58.8617 36.92 58.7905V58.7905Z" fill="#848484"/>
<path d="M77.4 58.6748C77.4 58.6036 77.42 58.5413 77.44 58.5413C77.46 58.5413 77.92 58.4612 78.45 58.3633C79.63 58.1497 79.6 58.1497 79.6 58.3455C79.6 58.479 79.44 58.5324 78.72 58.657C77.63 58.8439 77.4 58.8439 77.4 58.6748Z" fill="#848484"/>
<path d="M62.3 58.4345C62.3 58.212 62.33 58.1764 62.4 58.2743C62.45 58.3455 62.5 58.3811 62.5 58.3366C62.5 58.2476 63 58.5413 63 58.6392C63 58.6837 62.84 58.7193 62.65 58.7193C62.32 58.7193 62.3 58.7015 62.3 58.4345Z" fill="#848484"/>
<path d="M29.88 58.568C29.55 58.4968 29.68 58.2743 30.05 58.2743C30.33 58.2743 30.4 58.3099 30.4 58.4523C30.4 58.6303 30.26 58.657 29.88 58.568Z" fill="#848484"/>
<path d="M66.38 58.479C66.05 58.4078 66.18 58.1853 66.55 58.1853C66.83 58.1853 66.9 58.2209 66.9 58.3633C66.9 58.5413 66.76 58.568 66.38 58.479Z" fill="#848484"/>
<path d="M71.4 58.3633C71.4 58.2209 71.47 58.1853 71.75 58.1853C72.15 58.1853 72.24 58.3989 71.88 58.4879C71.5 58.5769 71.4 58.5502 71.4 58.3633Z" fill="#848484"/>
<path d="M99.3 58.3277C99.3 58.0963 99.47 58.0696 99.74 58.2654C99.98 58.4434 99.93 58.5413 99.6 58.5413C99.35 58.5413 99.3 58.5057 99.3 58.3277Z" fill="#848484"/>
<path d="M20.2 58.2743C20.2 58.0874 20.3 58.0607 20.68 58.1497C21.04 58.2387 20.95 58.4523 20.55 58.4523C20.27 58.4523 20.2 58.4167 20.2 58.2743Z" fill="#848484"/>
<path d="M64.58 58.212C64.25 58.1408 64.38 57.9183 64.75 57.9183C65.03 57.9183 65.1 57.9539 65.1 58.0963C65.1 58.2743 64.96 58.301 64.58 58.212Z" fill="#848484"/>
<path d="M74 58.0963C74 57.9539 74.07 57.9183 74.35 57.9183C74.75 57.9183 74.84 58.1319 74.48 58.2209C74.1 58.3099 74 58.2832 74 58.0963Z" fill="#848484"/>
<path d="M61.2 57.9184C61.2 57.776 61.25 57.6514 61.3 57.6514C61.36 57.6514 61.4 57.6959 61.4 57.7404C61.4 57.7938 61.45 57.8294 61.51 57.8294C61.62 57.8294 61.9 58.0429 61.9 58.1319C61.9 58.1586 61.74 58.1853 61.55 58.1853C61.23 58.1853 61.2 58.1675 61.2 57.9184Z" fill="#848484"/>
<path d="M75.3 57.9717C75.3 57.7938 75.36 57.7582 75.76 57.7048C76.45 57.6247 76.6 57.6336 76.6 57.776C76.6 57.8917 76.07 58.0696 75.88 58.0251C75.84 58.0162 75.69 58.0518 75.55 58.0963C75.33 58.1675 75.3 58.1586 75.3 57.9717V57.9717Z" fill="#848484"/>
<path d="M2.1 57.8828C2.1 57.7671 2.38 57.6514 2.68 57.6514C2.74 57.6514 2.8 57.7315 2.8 57.8294C2.8 57.9717 2.73 58.0073 2.45 58.0073C2.22 58.0073 2.1 57.9628 2.1 57.8828Z" fill="#848484"/>
<path d="M63.43 57.8738C63 57.7137 63.01 57.5624 63.45 57.5624C63.76 57.5624 63.8 57.5891 63.8 57.7849C63.8 57.9094 63.79 58.0073 63.78 58.0073C63.76 57.9984 63.6 57.945 63.43 57.8738Z" fill="#848484"/>
<path d="M96.98 57.8472C96.44 57.7315 96.3 57.6692 96.3 57.5357C96.3 57.3933 96.35 57.3755 96.73 57.4289C97.17 57.5001 97.36 57.5357 97.73 57.6158C97.85 57.6425 98.02 57.6692 98.1 57.687C98.18 57.7048 98.26 57.776 98.28 57.8561C98.32 58.0429 97.92 58.0429 96.98 57.8472V57.8472Z" fill="#848484"/>
<path d="M23.48 57.856C23.15 57.7849 23.28 57.5624 23.65 57.5624C23.93 57.5624 24 57.598 24 57.7404C24 57.9183 23.86 57.945 23.48 57.856Z" fill="#848484"/>
<path d="M36.9 57.6959C36.9 57.5001 36.94 57.4734 37.26 57.4734C37.7 57.4734 37.68 57.6336 37.22 57.8027C36.91 57.9184 36.9 57.9095 36.9 57.6959Z" fill="#848484"/>
<path d="M15.3 57.5624C15.3 57.3755 15.4 57.3488 15.78 57.4378C16.14 57.5268 16.05 57.7404 15.65 57.7404C15.37 57.7404 15.3 57.7048 15.3 57.5624Z" fill="#848484"/>
<path d="M22.49 57.7048C22.47 57.687 22.29 57.6514 22.1 57.6336C21.69 57.5891 21.53 57.2954 21.92 57.2954C22.51 57.2954 22.9 57.4111 22.9 57.5713C22.9 57.7226 22.61 57.8116 22.49 57.7048V57.7048Z" fill="#848484"/>
<path d="M77.5 57.5802C77.5 57.4467 77.66 57.3933 78.38 57.2687C79.47 57.0818 79.7 57.0818 79.7 57.2509C79.7 57.3221 79.68 57.3844 79.66 57.3844C79.64 57.3844 79.18 57.4645 78.65 57.5624C77.47 57.776 77.5 57.776 77.5 57.5802Z" fill="#848484"/>
<path d="M0.300007 57.3844C0.300007 57.2509 0.370007 57.2064 0.550007 57.2064C0.850007 57.2064 0.880007 57.3399 0.610007 57.4734C0.340007 57.598 0.300007 57.5891 0.300007 57.3844V57.3844Z" fill="#848484"/>
<path d="M5.6 57.3488C5.6 57.2331 5.88 57.1174 6.18 57.1174C6.24 57.1174 6.3 57.1975 6.3 57.2954C6.3 57.4378 6.23 57.4734 5.95 57.4734C5.72 57.4734 5.6 57.4289 5.6 57.3488Z" fill="#848484"/>
<path d="M12.3 57.2954C12.3 57.1085 12.4 57.0818 12.78 57.1708C13.14 57.2598 13.05 57.4734 12.65 57.4734C12.37 57.4734 12.3 57.4378 12.3 57.2954Z" fill="#848484"/>
<path d="M6.9 57.2598C6.9 57.1441 7.18 57.0284 7.48 57.0284C7.54 57.0284 7.6 57.1085 7.6 57.2064C7.6 57.3488 7.53 57.3844 7.25 57.3844C7.02 57.3844 6.9 57.3399 6.9 57.2598Z" fill="#848484"/>
<path d="M39.9 57.0729C40.09 56.9039 40.25 56.7615 40.27 56.7615C40.29 56.7615 40.3 56.9039 40.3 57.0729C40.3 57.3755 40.29 57.3844 39.93 57.3844C39.56 57.3844 39.56 57.3844 39.9 57.0729Z" fill="#848484"/>
<path d="M62.1 57.331C62.01 57.3043 61.89 57.2153 61.82 57.1174C61.71 56.9573 61.73 56.9395 62.05 56.9395C62.36 56.9395 62.4 56.9662 62.4 57.1619C62.4 57.3844 62.38 57.3933 62.1 57.331Z" fill="#848484"/>
<path d="M38.3 57.0284C38.3 56.7793 38.33 56.7615 38.65 56.7615C38.97 56.7615 39 56.7437 39 56.4945C39 56.2542 39.03 56.2275 39.31 56.2275C39.59 56.2275 39.61 56.2453 39.49 56.3788C39.41 56.4589 39.2 56.6547 39.01 56.806C38.82 56.9483 38.61 57.1263 38.54 57.1886C38.35 57.3488 38.3 57.3221 38.3 57.0284Z" fill="#848484"/>
<path d="M80.6 57.0462C80.6 56.9127 80.73 56.8683 81.38 56.7793C82.4 56.6369 82.5 56.6458 82.5 56.8327C82.5 56.9216 82.42 56.9928 82.33 57.0017C82.23 57.0017 82.02 57.0284 81.85 57.0551C80.79 57.2242 80.6 57.2242 80.6 57.0462Z" fill="#848484"/>
<path d="M16.68 56.7882C16.35 56.717 16.48 56.4945 16.85 56.4945C17.13 56.4945 17.2 56.5301 17.2 56.6725C17.2 56.8505 17.06 56.8772 16.68 56.7882Z" fill="#848484"/>
<path d="M59.6 56.717C59.6 56.6458 59.56 56.5835 59.5 56.5835C59.45 56.5835 59.4 56.4411 59.4 56.272C59.4 56.1029 59.43 55.9606 59.46 55.9606C59.56 55.9606 59.8 56.2097 59.8 56.3076C59.8 56.361 59.85 56.4055 59.9 56.4055C59.96 56.4055 60 56.4678 60 56.539C60 56.6013 60.08 56.7081 60.18 56.7526C60.32 56.8238 60.28 56.8416 59.98 56.8505C59.71 56.8505 59.6 56.8149 59.6 56.717Z" fill="#848484"/>
<path d="M83.1 56.6725C83.1 56.5301 83.17 56.4945 83.45 56.4945C83.85 56.4945 83.94 56.7081 83.58 56.7971C83.2 56.8861 83.1 56.8594 83.1 56.6725Z" fill="#848484"/>
<path d="M15.88 56.6992C15.55 56.628 15.68 56.4055 16.05 56.4055C16.33 56.4055 16.4 56.4411 16.4 56.5835C16.4 56.7615 16.26 56.7882 15.88 56.6992Z" fill="#848484"/>
<path d="M96.88 56.6992C96.55 56.628 96.68 56.4055 97.05 56.4055C97.33 56.4055 97.4 56.4411 97.4 56.5835C97.4 56.7615 97.26 56.7882 96.88 56.6992Z" fill="#848484"/>
<path d="M85.5 56.4055C85.5 56.2631 85.57 56.2275 85.85 56.2275C86.25 56.2275 86.34 56.4411 85.98 56.5301C85.6 56.6191 85.5 56.5924 85.5 56.4055Z" fill="#848484"/>
<path d="M95.78 56.5212C95.45 56.45 95.58 56.2275 95.95 56.2275C96.23 56.2275 96.3 56.2631 96.3 56.4055C96.3 56.5835 96.16 56.6102 95.78 56.5212Z" fill="#848484"/>
<path d="M4.8 56.3165C4.8 56.1741 4.87 56.1385 5.15 56.1385C5.55 56.1385 5.64 56.3521 5.28 56.4411C4.9 56.5301 4.8 56.5034 4.8 56.3165Z" fill="#848484"/>
<path d="M13.28 56.4322C12.95 56.361 13.08 56.1385 13.45 56.1385C13.73 56.1385 13.8 56.1741 13.8 56.3165C13.8 56.4945 13.66 56.5212 13.28 56.4322Z" fill="#848484"/>
<path d="M11.78 56.3432C11.45 56.272 11.58 56.0495 11.95 56.0495C12.23 56.0495 12.3 56.0851 12.3 56.2275C12.3 56.4055 12.16 56.4322 11.78 56.3432Z" fill="#848484"/>
<path d="M60.8 56.2898C60.72 56.2008 60.6 56.0851 60.54 56.0228C60.48 55.9605 60.39 55.8182 60.36 55.7114C60.3 55.5423 60.32 55.5156 60.54 55.5156C60.7 55.5156 60.8 55.569 60.8 55.6402C60.8 55.7114 60.85 55.7826 60.91 55.8004C60.97 55.8182 61 55.9694 60.98 56.1385C60.95 56.4233 60.94 56.4322 60.8 56.2898V56.2898Z" fill="#848484"/>
<path d="M7.9 56.1385C7.9 55.9962 7.97 55.9606 8.25 55.9606C8.65 55.9606 8.74 56.1741 8.38 56.2631C8 56.3521 7.9 56.3254 7.9 56.1385Z" fill="#848484"/>
<path d="M40.9 55.916C40.9 55.7915 41.22 55.3376 41.3 55.3376C41.36 55.3376 41.4 55.48 41.4 55.6491C41.4 55.9249 41.37 55.9605 41.15 55.9605C41.01 55.9605 40.9 55.9427 40.9 55.916Z" fill="#848484"/>
<path d="M59.86 54.7236C59.83 54.688 59.76 54.5456 59.71 54.4121C59.61 54.1985 59.63 54.1807 59.85 54.1807C60.07 54.1807 60.1 54.2163 60.1 54.4922C60.1 54.7859 59.98 54.9016 59.86 54.7236Z" fill="#848484"/>
<path d="M0.95 53.6735C1.14 52.7302 1.22 52.4899 1.36 52.4899C1.53 52.4899 1.54 52.6946 1.38 53.4332C1.29 53.9049 1.23 54.0028 1.07 54.0028C0.900001 54.0028 0.89 53.9583 0.95 53.6735Z" fill="#848484"/>
<path d="M41.88 53.6824C41.78 53.6023 42.04 53.1128 42.17 53.1128C42.25 53.1128 42.3 53.2285 42.3 53.4243C42.3 53.6646 42.26 53.7358 42.12 53.7358C42.02 53.7358 41.91 53.7091 41.88 53.6824Z" fill="#848484"/>
<path d="M59.36 53.54C59.26 53.2018 59.29 53.1128 59.5 53.1128C59.66 53.1128 59.7 53.1751 59.7 53.4243C59.7 53.7803 59.46 53.8604 59.36 53.54Z" fill="#848484"/>
<path d="M37.5 53.2908C37.61 53.1929 37.7 53.0505 37.7 52.9794C37.7 52.9082 37.77 52.8459 37.85 52.8459C37.95 52.8459 38 52.9438 38 53.1573C38 53.451 37.98 53.4688 37.65 53.4688C37.3 53.4688 37.3 53.4688 37.5 53.2908Z" fill="#848484"/>
<path d="M70.9 53.2908C71.01 53.1929 71.1 53.0505 71.1 52.9794C71.1 52.9082 71.17 52.8459 71.25 52.8459C71.35 52.8459 71.4 52.9438 71.4 53.1573C71.4 53.451 71.38 53.4688 71.05 53.4688C70.7 53.4688 70.7 53.4688 70.9 53.2908Z" fill="#848484"/>
<path d="M29.23 53.0683C29.29 52.8993 29.39 52.7569 29.47 52.7569C29.55 52.7569 29.6 52.8726 29.6 53.0683C29.6 53.3353 29.57 53.3798 29.36 53.3798C29.13 53.3798 29.12 53.362 29.23 53.0683Z" fill="#848484"/>
<path d="M59.19 53.006C59.19 52.9882 59.16 52.8459 59.14 52.6946C59.1 52.4454 59.12 52.4009 59.29 52.4009C59.46 52.4009 59.5 52.4543 59.5 52.7124C59.5 52.926 59.45 53.0238 59.35 53.0238C59.27 53.0238 59.2 53.0149 59.19 53.006Z" fill="#848484"/>
<path d="M57.9 52.6234C57.9 52.3831 57.94 52.3119 58.08 52.3119C58.2 52.3119 58.26 52.392 58.27 52.6234C58.3 52.8815 58.27 52.9349 58.1 52.9349C57.94 52.9349 57.9 52.8726 57.9 52.6234V52.6234Z" fill="#848484"/>
<path d="M36.36 52.392C36.27 51.9827 36.29 51.689 36.4 51.689C36.53 51.689 36.72 52.0272 36.77 52.3742C36.81 52.6234 36.78 52.6679 36.62 52.6679C36.48 52.6679 36.41 52.5878 36.36 52.392Z" fill="#848484"/>
<path d="M41 52.2674C41 52.0183 41.04 51.956 41.2 51.956C41.41 51.956 41.44 52.045 41.34 52.3831C41.24 52.7035 41 52.6234 41 52.2674Z" fill="#848484"/>
<path d="M28.2 52.0005C28.2 51.7602 28.24 51.689 28.38 51.689C28.65 51.689 28.69 51.7602 28.57 52.0538C28.41 52.4187 28.2 52.3831 28.2 52.0005V52.0005Z" fill="#848484"/>
<path d="M69.7 52.0005C69.7 51.6267 69.84 51.6 70.04 51.9471C70.21 52.2229 70.17 52.3119 69.88 52.3119C69.74 52.3119 69.7 52.2407 69.7 52.0005Z" fill="#848484"/>
<path d="M29.53 51.7602C29.72 51.3508 29.9 51.333 29.9 51.7246C29.9 52.0094 29.87 52.045 29.65 52.045C29.41 52.045 29.4 52.0361 29.53 51.7602Z" fill="#848484"/>
<path d="M70.83 51.7335C70.72 51.4398 70.73 51.422 70.96 51.422C71.17 51.422 71.2 51.4665 71.2 51.7335C71.2 51.9293 71.15 52.0449 71.07 52.0449C70.99 52.0449 70.89 51.9026 70.83 51.7335Z" fill="#848484"/>
<path d="M41.1 51.4665C41.1 51.2173 41.14 51.155 41.3 51.155C41.51 51.155 41.54 51.244 41.44 51.5822C41.34 51.9026 41.1 51.8225 41.1 51.4665Z" fill="#848484"/>
<path d="M98.2 51.2885C98.2 50.9326 98.44 50.8525 98.54 51.1817C98.64 51.511 98.61 51.6 98.4 51.6C98.24 51.6 98.2 51.5377 98.2 51.2885Z" fill="#848484"/>
<path d="M69.2 51.0928C69.21 50.7546 69.21 50.7546 69.45 51.0038C69.77 51.3241 69.76 51.422 69.45 51.422C69.23 51.422 69.2 51.3864 69.2 51.0928Z" fill="#848484"/>
<path d="M58.98 51.1817C58.92 50.9326 59 50.7101 59.16 50.7101C59.25 50.7101 59.3 50.808 59.3 51.0216C59.3 51.3508 59.06 51.4665 58.98 51.1817V51.1817Z" fill="#848484"/>
<path d="M30.14 50.8436C30.45 50.5499 31.1 50.0872 31.21 50.0872C31.26 50.0872 31.3 50.185 31.3 50.3096C31.3 50.5054 31.26 50.5321 30.95 50.5321C30.63 50.5321 30.6 50.5499 30.6 50.7991C30.6 51.0483 30.57 51.0661 30.25 51.0661C29.91 51.0661 29.91 51.0661 30.14 50.8436Z" fill="#848484"/>
<path d="M41.1 50.7546C41.1 50.3986 41.34 50.3185 41.44 50.6478C41.54 50.9771 41.51 51.0661 41.3 51.0661C41.14 51.0661 41.1 51.0038 41.1 50.7546Z" fill="#848484"/>
<path d="M70.4 50.897C70.4 50.8614 70.29 50.719 70.15 50.5855C69.91 50.3541 69.91 50.3541 70.25 50.3541C70.58 50.3541 70.6 50.3719 70.6 50.6656C70.6 50.8347 70.56 50.9771 70.5 50.9771C70.45 50.9771 70.4 50.9415 70.4 50.897Z" fill="#848484"/>
<path d="M63.92 50.4965C64.13 50.3274 64.39 50.1672 64.5 50.1317C64.66 50.0872 64.7 50.1139 64.7 50.3007C64.7 50.4698 64.65 50.5321 64.5 50.5321C64.39 50.5321 64.3 50.5944 64.3 50.6656C64.3 50.7635 64.19 50.7991 63.93 50.7991C63.55 50.7991 63.55 50.7991 63.92 50.4965V50.4965Z" fill="#848484"/>
<path d="M29.6 49.9181C29.6 49.6867 29.64 49.6422 29.85 49.6422C30.03 49.6422 30.1 49.5977 30.1 49.4642C30.1 49.3218 30.17 49.2862 30.45 49.2862C30.64 49.2862 30.8 49.3129 30.8 49.3396C30.8 49.4019 30.6 49.5621 30.38 49.6867C30.29 49.7401 30.08 49.8647 29.91 49.9804C29.6 50.185 29.6 50.185 29.6 49.9181V49.9181Z" fill="#848484"/>
<path d="M31.4 50.0871C31.4 49.9804 31.73 49.8202 31.94 49.8202C32.03 49.8202 32.1 49.9003 32.1 49.9982C32.1 50.1405 32.03 50.1761 31.75 50.1761C31.56 50.1761 31.4 50.1405 31.4 50.0871Z" fill="#848484"/>
<path d="M34 49.9982C34 49.8024 34.2 49.7668 34.51 49.9092C34.81 50.0515 34.74 50.1761 34.35 50.1761C34.07 50.1761 34 50.1405 34 49.9982Z" fill="#848484"/>
<path d="M64.8 50.0871C64.8 49.9804 65.13 49.8202 65.34 49.8202C65.43 49.8202 65.5 49.9003 65.5 49.9982C65.5 50.1405 65.43 50.1761 65.15 50.1761C64.96 50.1761 64.8 50.1405 64.8 50.0871Z" fill="#848484"/>
<path d="M59.08 49.7668C58.98 49.6867 59.24 49.1973 59.37 49.1973C59.45 49.1973 59.5 49.3129 59.5 49.5087C59.5 49.749 59.46 49.8202 59.32 49.8202C59.22 49.8202 59.11 49.7935 59.08 49.7668Z" fill="#848484"/>
<path d="M31.1 49.0638C31.1 48.868 31.14 48.8413 31.46 48.8413C31.9 48.8413 31.88 49.0015 31.42 49.1706C31.11 49.2862 31.1 49.2773 31.1 49.0638Z" fill="#848484"/>
<path d="M34.6 49.1527C34.41 49.0905 34.21 49.046 34.15 49.046C34.1 49.046 34.03 48.9748 34.01 48.8858C33.98 48.7434 34.03 48.7345 34.44 48.7701C34.98 48.8235 35.03 48.8502 34.98 49.0905C34.95 49.2506 34.92 49.2506 34.6 49.1527V49.1527Z" fill="#848484"/>
<path d="M68 49.1527C67.81 49.0905 67.61 49.046 67.55 49.046C67.5 49.046 67.43 48.9748 67.41 48.8858C67.38 48.7434 67.43 48.7345 67.84 48.7701C68.38 48.8235 68.43 48.8502 68.38 49.0905C68.35 49.2506 68.32 49.2506 68 49.1527V49.1527Z" fill="#848484"/>
<path d="M58.1 48.8858C58.1 48.6188 58.13 48.5743 58.34 48.5743C58.57 48.5743 58.58 48.5921 58.47 48.8858C58.41 49.0549 58.31 49.1972 58.23 49.1972C58.15 49.1972 58.1 49.0816 58.1 48.8858Z" fill="#848484"/>
<path d="M97.4 48.5298C97.4 48.1739 97.64 48.0938 97.74 48.423C97.84 48.7523 97.81 48.8413 97.6 48.8413C97.44 48.8413 97.4 48.779 97.4 48.5298Z" fill="#848484"/>
<path d="M97.1 47.6399C97.1 47.2839 97.34 47.2039 97.44 47.5331C97.54 47.8624 97.51 47.9514 97.3 47.9514C97.14 47.9514 97.1 47.8891 97.1 47.6399Z" fill="#848484"/>
<path d="M41.17 47.4263C40.95 47.0882 40.95 47.0615 41.25 47.0615C41.47 47.0615 41.5 47.0971 41.5 47.3729C41.5 47.7556 41.4 47.7645 41.17 47.4263Z" fill="#848484"/>
<path d="M60.1 47.542C60.1 47.5153 60.23 47.3729 60.4 47.2128C60.7 46.928 60.7 46.928 60.7 47.2661C60.7 47.5776 60.68 47.5954 60.4 47.5954C60.24 47.5954 60.1 47.5776 60.1 47.542Z" fill="#848484"/>
<path d="M39.3 46.8301C39.3 46.483 39.39 46.4919 39.7 46.8835C39.91 47.1505 39.91 47.1505 39.61 47.1505C39.32 47.1505 39.3 47.1238 39.3 46.8301Z" fill="#848484"/>
<path d="M4 46.9725C4 46.8835 4.36 46.6788 4.58 46.6521C4.65 46.6432 4.7 46.7233 4.7 46.8479C4.7 47.0348 4.65 47.0615 4.35 47.0615C4.16 47.0615 4 47.0259 4 46.9725Z" fill="#848484"/>
<path d="M49 46.5275C49 46.3406 49.1 46.3139 49.48 46.4029C49.84 46.4919 49.75 46.7055 49.35 46.7055C49.07 46.7055 49 46.6699 49 46.5275Z" fill="#848484"/>
<path d="M49.8 46.5809C49.8 46.4652 50.08 46.3495 50.38 46.3495C50.44 46.3495 50.5 46.4296 50.5 46.5275C50.5 46.6699 50.43 46.7055 50.15 46.7055C49.92 46.7055 49.8 46.661 49.8 46.5809Z" fill="#848484"/>
<path d="M94.6 46.4029C94.6 46.1716 94.71 46.1538 95.08 46.3317C95.4 46.4919 95.35 46.6165 94.95 46.6165C94.65 46.6165 94.6 46.5898 94.6 46.4029V46.4029Z" fill="#848484"/>
<path d="M61.2 46.3762C61.2 46.3317 61.36 46.2161 61.55 46.1004C61.9 45.9046 61.9 45.9046 61.9 46.1716C61.9 46.4207 61.87 46.4385 61.55 46.4385C61.36 46.4385 61.2 46.4118 61.2 46.3762V46.3762Z" fill="#848484"/>
<path d="M93.7 46.1271C93.7 46.0381 93.59 45.9936 93.35 45.9936C93.05 45.9936 93 45.9669 93 45.78C93 45.5397 93.1 45.5308 93.58 45.7533C93.75 45.8423 93.9 45.8868 93.9 45.8601C93.9 45.8334 94.01 45.8779 94.15 45.958C94.5 46.1626 94.46 46.2605 94.05 46.2605C93.81 46.2605 93.7 46.216 93.7 46.1271V46.1271Z" fill="#848484"/>
<path d="M45.4 45.9936C45.4 45.8067 45.5 45.78 45.88 45.869C46.24 45.958 46.15 46.1716 45.75 46.1716C45.47 46.1716 45.4 46.136 45.4 45.9936Z" fill="#848484"/>
<path d="M6.72 45.8868C6.75 45.8245 6.91 45.7266 7.08 45.6643C7.39 45.5486 7.4 45.5575 7.4 45.7711C7.4 45.9669 7.36 45.9936 7.04 45.9936C6.81 45.9936 6.7 45.958 6.72 45.8868Z" fill="#848484"/>
<path d="M53.62 45.7978C53.65 45.7355 53.81 45.6376 53.98 45.5753C54.29 45.4596 54.3 45.4685 54.3 45.6821C54.3 45.8779 54.26 45.9046 53.94 45.9046C53.71 45.9046 53.6 45.869 53.62 45.7978Z" fill="#848484"/>
<path d="M37.5 45.4596C37.5 45.3172 37.52 45.1927 37.56 45.1927C37.59 45.1927 37.75 45.3083 37.93 45.4596C38.25 45.7266 38.25 45.7266 37.88 45.7266C37.52 45.7266 37.5 45.7088 37.5 45.4596V45.4596Z" fill="#848484"/>
<path d="M60.7 45.4596C60.7 45.2105 60.73 45.1927 61.05 45.1927C61.24 45.1927 61.4 45.2283 61.4 45.2728C61.4 45.3172 61.24 45.4329 61.05 45.5397C60.7 45.7177 60.7 45.7177 60.7 45.4596Z" fill="#848484"/>
<path d="M50.4 45.4596C50.4 45.3173 50.47 45.2817 50.75 45.2817C51.15 45.2817 51.24 45.4952 50.88 45.5842C50.5 45.6732 50.4 45.6465 50.4 45.4596Z" fill="#848484"/>
<path d="M62.62 45.3706C62.69 45.2728 62.8 45.1927 62.87 45.1927C62.93 45.1927 63 45.1571 63.02 45.1126C63.04 45.077 63.15 45.0058 63.28 44.9791C63.47 44.9257 63.5 44.9435 63.5 45.1393C63.5 45.2817 63.44 45.3706 63.35 45.3706C63.27 45.3706 63.2 45.4151 63.2 45.4596C63.2 45.513 63.04 45.5486 62.85 45.5486C62.52 45.5486 62.51 45.5397 62.62 45.3706V45.3706Z" fill="#848484"/>
<path d="M91.8 45.3261C91.8 45.1126 91.81 45.1037 92.12 45.2194C92.58 45.3884 92.6 45.5486 92.16 45.5486C91.84 45.5486 91.8 45.5219 91.8 45.3261V45.3261Z" fill="#848484"/>
<path d="M54.8 45.2994C54.8 45.2371 55.82 44.6587 55.94 44.6587C55.97 44.6587 56 44.7566 56 44.8812C56 45.0592 55.95 45.1037 55.75 45.1037C55.59 45.1037 55.5 45.1571 55.5 45.2371C55.5 45.3261 55.39 45.3706 55.15 45.3706C54.96 45.3706 54.8 45.3439 54.8 45.2994Z" fill="#848484"/>
<path d="M6.4 44.8812C6.4 44.6854 6.44 44.6587 6.76 44.6587C7.2 44.6587 7.18 44.8189 6.72 44.988C6.41 45.1037 6.4 45.0948 6.4 44.8812V44.8812Z" fill="#848484"/>
<path d="M9.72 44.8189C9.75 44.7566 9.91 44.6587 10.08 44.5964C10.39 44.4807 10.4 44.4896 10.4 44.7032C10.4 44.899 10.36 44.9257 10.04 44.9257C9.81 44.9257 9.7 44.8901 9.72 44.8189Z" fill="#848484"/>
<path d="M35.83 44.7744C35.76 44.7566 35.7 44.632 35.7 44.5074C35.7 44.3383 35.74 44.2938 35.86 44.3383C35.95 44.365 36.05 44.3917 36.09 44.3917C36.19 44.3917 36.6 44.7032 36.6 44.7833C36.6 44.8456 36.01 44.8456 35.83 44.7744Z" fill="#848484"/>
<path d="M92.93 44.7032C92.5 44.543 92.51 44.3917 92.95 44.3917C93.26 44.3917 93.3 44.4184 93.3 44.6142C93.3 44.7388 93.29 44.8367 93.28 44.8367C93.26 44.8278 93.1 44.7744 92.93 44.7032Z" fill="#848484"/>
<path d="M4 44.6765C4 44.6053 4.52 44.3027 4.64 44.3027C4.67 44.3027 4.7 44.4006 4.7 44.5252C4.7 44.721 4.66 44.7477 4.35 44.7477C4.16 44.7477 4 44.7121 4 44.6765Z" fill="#848484"/>
<path d="M10.52 44.5519C10.55 44.4896 10.71 44.3917 10.88 44.3294C11.19 44.2138 11.2 44.2227 11.2 44.4362C11.2 44.632 11.16 44.6587 10.84 44.6587C10.61 44.6587 10.5 44.6231 10.52 44.5519Z" fill="#848484"/>
<path d="M37.73 44.454C37.31 44.2049 37.32 44.1248 37.75 44.1248C38.07 44.1248 38.1 44.1426 38.1 44.3917C38.1 44.543 38.09 44.6587 38.08 44.6498C38.06 44.6498 37.9 44.5608 37.73 44.454V44.454Z" fill="#848484"/>
<path d="M64.2 44.5163C64.2 44.4451 64.25 44.4095 64.3 44.4362C64.36 44.4629 64.4 44.4629 64.4 44.4184C64.4 44.3828 64.51 44.3028 64.65 44.2405C64.89 44.1515 64.9 44.1604 64.9 44.4006C64.9 44.632 64.87 44.6587 64.55 44.6587C64.3 44.6587 64.2 44.6231 64.2 44.5163V44.5163Z" fill="#848484"/>
<path d="M89.2 44.4362C89.2 44.2227 89.21 44.2138 89.52 44.3294C89.98 44.4985 90 44.6587 89.56 44.6587C89.24 44.6587 89.2 44.632 89.2 44.4362V44.4362Z" fill="#848484"/>
<path d="M8.1 44.2582C8.1 44.0803 8.15 44.0358 8.35 44.0358C8.49 44.0358 8.6 44.0002 8.6 43.9468C8.6 43.9023 8.71 43.8578 8.85 43.8578C8.99 43.8578 9.1 43.8222 9.1 43.7688C9.1 43.7243 9.26 43.6798 9.45 43.6798C9.9 43.6798 9.9 43.8311 9.45 44.0002C8.1 44.4985 8.1 44.4985 8.1 44.2582Z" fill="#848484"/>
<path d="M91.43 44.1693C91 44.0091 91.01 43.8578 91.45 43.8578C91.76 43.8578 91.8 43.8845 91.8 44.0803C91.8 44.2049 91.79 44.3028 91.78 44.3028C91.76 44.2939 91.6 44.2405 91.43 44.1693Z" fill="#848484"/>
<path d="M5 44.1426C5 44.0714 5.52 43.7688 5.64 43.7688C5.67 43.7688 5.7 43.8667 5.7 43.9913C5.7 44.1871 5.66 44.2138 5.35 44.2138C5.16 44.2138 5 44.1782 5 44.1426Z" fill="#848484"/>
<path d="M36.78 43.9735C36.68 43.9557 36.6 43.8934 36.6 43.8489C36.6 43.7955 36.56 43.7866 36.5 43.8133C36.45 43.84 36.4 43.8044 36.4 43.7332C36.4 43.6264 36.5 43.5908 36.75 43.5908C37.06 43.5908 37.1 43.6175 37.1 43.8133C37.1 44.0358 37.09 44.0447 36.78 43.9735Z" fill="#848484"/>
<path d="M40.7 43.9023C40.7 43.8311 40.61 43.7688 40.5 43.7688C40.34 43.7688 40.3 43.7065 40.3 43.5018C40.3 43.2349 40.3 43.2349 40.79 43.5196C41.43 43.9023 41.5 44.0358 41.05 44.0358C40.81 44.0358 40.7 43.9913 40.7 43.9023Z" fill="#848484"/>
<path d="M63.3 43.8222C63.3 43.6175 63.34 43.5908 63.65 43.5908C63.9 43.5908 64 43.6264 64 43.7332C64 43.8044 63.96 43.8489 63.91 43.8222C63.86 43.7866 63.8 43.8044 63.78 43.8489C63.77 43.8845 63.65 43.9557 63.53 43.9824C63.33 44.0358 63.3 44.018 63.3 43.8222V43.8222Z" fill="#848484"/>
<path d="M55.7 43.5908C55.7 43.3417 55.72 43.3239 56.08 43.3239C56.45 43.3239 56.45 43.3239 56.13 43.5908C55.95 43.7421 55.79 43.8578 55.76 43.8578C55.72 43.8578 55.7 43.7421 55.7 43.5908V43.5908Z" fill="#848484"/>
<path d="M66.22 43.751C66.25 43.6887 66.41 43.5908 66.58 43.5285C66.89 43.4128 66.9 43.4217 66.9 43.6353C66.9 43.8311 66.86 43.8578 66.54 43.8578C66.31 43.8578 66.2 43.8222 66.22 43.751Z" fill="#848484"/>
<path d="M86.2 43.5908C86.2 43.404 86.3 43.3773 86.68 43.4662C87.04 43.5552 86.95 43.7688 86.55 43.7688C86.27 43.7688 86.2 43.7332 86.2 43.5908Z" fill="#848484"/>
<path d="M89.83 43.6353C89.4 43.4751 89.41 43.3239 89.85 43.3239C90.16 43.3239 90.2 43.3505 90.2 43.5463C90.2 43.6709 90.19 43.7688 90.18 43.7688C90.16 43.7599 90 43.7065 89.83 43.6353Z" fill="#848484"/>
<path d="M14.2 43.4751C14.2 43.4039 14.45 43.2882 14.8 43.2082C15.56 43.0213 15.6 43.0213 15.6 43.2349C15.6 43.3772 15.53 43.4128 15.25 43.4128C15.06 43.4128 14.9 43.4573 14.9 43.5018C14.9 43.5552 14.74 43.5908 14.55 43.5908C14.32 43.5908 14.2 43.5463 14.2 43.4751Z" fill="#848484"/>
<path d="M95.4 43.4128C95.4 43.2972 95.33 43.2349 95.2 43.2349C95.05 43.2349 95 43.1726 95 43.0124C95 42.7988 95.01 42.7899 95.32 42.9056C95.52 42.9768 95.69 43.1281 95.77 43.3061C95.9 43.5819 95.89 43.5908 95.65 43.5908C95.47 43.5908 95.4 43.5463 95.4 43.4128Z" fill="#848484"/>
<path d="M35.42 43.3417C35.1 43.1548 35.15 43.0569 35.55 43.0569C35.85 43.0569 35.9 43.0836 35.9 43.2616C35.9 43.5018 35.73 43.5285 35.42 43.3417V43.3417Z" fill="#848484"/>
<path d="M84.8 43.2349C84.8 43.048 84.9 43.0213 85.28 43.1103C85.64 43.1993 85.55 43.4128 85.15 43.4128C84.87 43.4128 84.8 43.3772 84.8 43.2349Z" fill="#848484"/>
<path d="M4.8 43.0213C4.8 42.8166 4.84 42.7899 5.15 42.7899C5.34 42.7899 5.5 42.8166 5.5 42.8433C5.5 42.9323 5.24 43.1192 5.02 43.1815C4.83 43.2349 4.8 43.2171 4.8 43.0213Z" fill="#848484"/>
<path d="M34.43 42.9234C34 42.7632 34.01 42.6119 34.45 42.6119C34.76 42.6119 34.8 42.6386 34.8 42.8344C34.8 42.959 34.79 43.0569 34.78 43.0569C34.76 43.048 34.6 42.9946 34.43 42.9234Z" fill="#848484"/>
<path d="M58.57 42.7899C58.75 42.6386 58.91 42.5229 58.94 42.5229C58.98 42.5229 59 42.6475 59 42.7899C59 43.0391 58.98 43.0569 58.63 43.0569C58.25 43.0569 58.25 43.0569 58.57 42.7899Z" fill="#848484"/>
<path d="M68.8 42.9323C68.8 42.8166 69.08 42.7009 69.38 42.7009C69.44 42.7009 69.5 42.781 69.5 42.8789C69.5 43.0213 69.43 43.0569 69.15 43.0569C68.92 43.0569 68.8 43.0124 68.8 42.9323Z" fill="#848484"/>
<path d="M7.7 42.8255C7.7 42.7276 8.12 42.4339 8.27 42.4339C8.34 42.4339 8.4 42.5318 8.4 42.6564C8.4 42.8522 8.36 42.8789 8.05 42.8789C7.86 42.8789 7.7 42.8522 7.7 42.8255Z" fill="#848484"/>
<path d="M82.4 42.7009C82.4 42.514 82.5 42.4873 82.88 42.5763C83.24 42.6653 83.15 42.8789 82.75 42.8789C82.47 42.8789 82.4 42.8433 82.4 42.7009Z" fill="#848484"/>
<path d="M5.7 42.5674C5.7 42.3717 5.74 42.345 6.05 42.345C6.46 42.345 6.48 42.3983 6.18 42.6208C5.89 42.8522 5.7 42.8344 5.7 42.5674Z" fill="#848484"/>
<path d="M66.4 42.5674C66.4 42.3717 66.44 42.345 66.76 42.345C67.2 42.345 67.18 42.5051 66.72 42.6742C66.41 42.7899 66.4 42.781 66.4 42.5674Z" fill="#848484"/>
<path d="M86.68 42.7276C86.35 42.6564 86.48 42.4339 86.85 42.4339C87.13 42.4339 87.2 42.4695 87.2 42.6119C87.2 42.7899 87.06 42.8166 86.68 42.7276Z" fill="#848484"/>
<path d="M18.2 42.5763C18.2 42.4606 18.48 42.345 18.78 42.345C18.84 42.345 18.9 42.425 18.9 42.5229C18.9 42.6653 18.83 42.7009 18.55 42.7009C18.32 42.7009 18.2 42.6564 18.2 42.5763Z" fill="#848484"/>
<path d="M29.33 42.6386C29.18 42.6119 29.1 42.5318 29.1 42.425C29.1 42.2293 29.16 42.2204 29.76 42.3539C30.58 42.5407 30.2 42.7899 29.33 42.6386V42.6386Z" fill="#848484"/>
<path d="M70.2 42.5852C70.2 42.4695 70.75 42.2382 70.84 42.3272C70.87 42.3539 70.9 42.4517 70.9 42.5407C70.9 42.6653 70.82 42.7009 70.55 42.7009C70.33 42.7009 70.2 42.6564 70.2 42.5852Z" fill="#848484"/>
<path d="M14.25 42.5318C14.22 42.514 14.2 42.4161 14.2 42.3272C14.2 42.2026 14.28 42.167 14.55 42.167C14.74 42.167 14.9 42.1314 14.9 42.078C14.9 42.0335 15.06 41.989 15.25 41.989C15.82 41.989 15.66 42.1937 14.95 42.3983C14.59 42.4962 14.27 42.5585 14.25 42.5318V42.5318Z" fill="#848484"/>
<path d="M80.33 42.4962C79.81 42.425 79.7 42.3805 79.7 42.2382C79.7 42.0869 79.75 42.0691 80.08 42.1136C80.28 42.1492 80.59 42.1848 80.75 42.2026C81.31 42.2649 81.6 42.3627 81.6 42.4873C81.6 42.6297 81.28 42.6297 80.33 42.4962V42.4962Z" fill="#848484"/>
<path d="M93.4 42.5229C93.4 42.4784 93.29 42.4339 93.15 42.4339C92.95 42.4339 92.9 42.3894 92.9 42.2115C92.9 41.989 92.9 41.989 93.42 42.1759C94.05 42.3983 94.1 42.425 94.1 42.5318C94.1 42.5763 93.94 42.6119 93.75 42.6119C93.56 42.6119 93.4 42.5763 93.4 42.5229Z" fill="#848484"/>
<path d="M85.68 42.4606C85.35 42.3895 85.48 42.167 85.85 42.167C86.13 42.167 86.2 42.2026 86.2 42.345C86.2 42.5229 86.06 42.5496 85.68 42.4606Z" fill="#848484"/>
<path d="M38.3 42.2115C38.3 41.9356 38.41 41.9267 38.77 42.2115C39.05 42.425 39.05 42.425 38.68 42.4339C38.34 42.4339 38.3 42.4072 38.3 42.2115V42.2115Z" fill="#848484"/>
<path d="M20.8 42.2204C20.8 42.1047 21.08 41.989 21.38 41.989C21.44 41.989 21.5 42.0691 21.5 42.167C21.5 42.3094 21.43 42.345 21.15 42.345C20.92 42.345 20.8 42.3005 20.8 42.2204Z" fill="#848484"/>
<path d="M27.18 42.2827C26.88 42.256 26.8 42.2115 26.8 42.0691C26.8 41.9 26.84 41.8911 27.23 41.9445C28.06 42.0513 28.2 42.0958 28.2 42.2204C28.2 42.3449 28.01 42.3538 27.18 42.2827V42.2827Z" fill="#848484"/>
<path d="M9.1 42.167C9.1 42.078 9.46 41.8733 9.68 41.8466C9.75 41.8377 9.8 41.9178 9.8 42.0424C9.8 42.2293 9.75 42.256 9.45 42.256C9.26 42.256 9.1 42.2204 9.1 42.167Z" fill="#848484"/>
<path d="M21.7 42.1314C21.7 42.0157 21.98 41.9 22.28 41.9C22.34 41.9 22.4 41.9801 22.4 42.078C22.4 42.2204 22.33 42.256 22.05 42.256C21.82 42.256 21.7 42.2115 21.7 42.1314Z" fill="#848484"/>
<path d="M59.8 42.2026C59.8 42.1136 60.06 41.9267 60.28 41.8644C60.47 41.811 60.5 41.8288 60.5 42.0246C60.5 42.2293 60.46 42.256 60.15 42.256C59.96 42.256 59.8 42.2293 59.8 42.2026Z" fill="#848484"/>
<path d="M23 42.0424C23 41.9267 23.28 41.811 23.58 41.811C23.64 41.811 23.7 41.8911 23.7 41.989C23.7 42.1314 23.63 42.167 23.35 42.167C23.12 42.167 23 42.1225 23 42.0424Z" fill="#848484"/>
<path d="M25.8 41.989C25.8 41.8021 25.9 41.7754 26.28 41.8644C26.64 41.9534 26.55 42.167 26.15 42.167C25.87 42.167 25.8 42.1314 25.8 41.989V41.989Z" fill="#848484"/>
<path d="M58.1 41.9C58.1 41.6508 58.13 41.633 58.45 41.633C58.86 41.633 58.9 41.7309 58.55 41.9C58.41 41.9623 58.3 42.0513 58.3 42.0958C58.3 42.1314 58.26 42.167 58.2 42.167C58.15 42.167 58.1 42.0513 58.1 41.9Z" fill="#848484"/>
<path d="M84.08 42.1136C84.03 42.078 83.81 42.0246 83.4 41.9534C83.32 41.9356 83.24 41.8644 83.22 41.7843C83.18 41.6152 83.43 41.5885 83.99 41.6864C84.2 41.722 84.3 41.7932 84.3 41.9089C84.3 42.0691 84.17 42.1937 84.08 42.1136Z" fill="#848484"/>
<path d="M92.1 41.9445C92.1 41.7309 92.11 41.722 92.42 41.8377C92.88 42.0068 92.9 42.167 92.46 42.167C92.14 42.167 92.1 42.1403 92.1 41.9445V41.9445Z" fill="#848484"/>
<path d="M68.8 41.811C68.8 41.6686 68.87 41.633 69.15 41.633C69.34 41.633 69.5 41.5974 69.5 41.544C69.5 41.4995 69.66 41.455 69.85 41.455C70.42 41.455 70.28 41.6775 69.6 41.8377C68.84 42.0246 68.8 42.0246 68.8 41.811Z" fill="#848484"/>
<path d="M16.9 41.722C16.9 41.5796 16.97 41.544 17.25 41.544C17.65 41.544 17.74 41.7576 17.38 41.8466C17 41.9356 16.9 41.9089 16.9 41.722Z" fill="#848484"/>
<path d="M5.13 41.5262C5.32 41.1169 5.5 41.0991 5.5 41.4906C5.5 41.7754 5.47 41.811 5.25 41.811C5.01 41.811 5 41.8021 5.13 41.5262Z" fill="#848484"/>
<path d="M82.48 41.7487C82.15 41.6775 82.28 41.455 82.65 41.455C82.93 41.455 83 41.4906 83 41.633C83 41.811 82.86 41.8377 82.48 41.7487Z" fill="#848484"/>
<path d="M70.7 41.366C70.7 41.2237 70.77 41.1881 71.05 41.1881C71.45 41.1881 71.54 41.4016 71.18 41.4906C70.8 41.5796 70.7 41.5529 70.7 41.366Z" fill="#848484"/>
<path d="M79.68 41.3038C79.35 41.2326 79.48 41.0101 79.85 41.0101C80.13 41.0101 80.2 41.0457 80.2 41.1881C80.2 41.366 80.06 41.3927 79.68 41.3038Z" fill="#848484"/>
<path d="M89.4 41.1881C89.4 41.0012 89.5 40.9745 89.88 41.0635C90.24 41.1525 90.15 41.3661 89.75 41.3661C89.47 41.3661 89.4 41.3305 89.4 41.1881Z" fill="#848484"/>
<path d="M21 41.0991C21 40.9567 21.07 40.9211 21.35 40.9211C21.75 40.9211 21.84 41.1347 21.48 41.2237C21.1 41.3127 21 41.286 21 41.0991Z" fill="#848484"/>
<path d="M22.1 41.0101C22.1 40.8677 22.17 40.8321 22.45 40.8321C22.85 40.8321 22.94 41.0457 22.58 41.1347C22.2 41.2237 22.1 41.197 22.1 41.0101Z" fill="#848484"/>
<path d="M26.68 41.1258C26.35 41.0546 26.48 40.8321 26.85 40.8321C27.13 40.8321 27.2 40.8677 27.2 41.0101C27.2 41.1881 27.06 41.2148 26.68 41.1258Z" fill="#848484"/>
<path d="M36 40.9567C36 40.7609 36.03 40.7431 36.23 40.7965C36.35 40.8232 36.47 40.8944 36.48 40.93C36.5 40.9745 36.56 40.9923 36.61 40.9567C36.66 40.93 36.7 40.9745 36.7 41.0457C36.7 41.1525 36.6 41.1881 36.35 41.1881C36.04 41.1881 36 41.1614 36 40.9567V40.9567Z" fill="#848484"/>
<path d="M77.88 41.1258C77.55 41.0546 77.68 40.8321 78.05 40.8321C78.33 40.8321 78.4 40.8677 78.4 41.0101C78.4 41.1881 78.26 41.2148 77.88 41.1258Z" fill="#848484"/>
<path d="M24.2 40.9033C24.2 40.7698 24.28 40.7431 24.8 40.7431C25.32 40.7431 25.4 40.7609 25.4 40.9122C25.4 41.0635 25.32 41.0813 24.8 41.0724C24.29 41.0724 24.2 41.0457 24.2 40.9033Z" fill="#848484"/>
<path d="M63.2 40.8855C63.2 40.7698 63.48 40.6541 63.78 40.6541C63.84 40.6541 63.9 40.7342 63.9 40.8321C63.9 40.9745 63.83 41.0101 63.55 41.0101C63.32 41.0101 63.2 40.9656 63.2 40.8855Z" fill="#848484"/>
<path d="M60.7 40.6007C60.7 40.4139 60.75 40.3872 61.05 40.3872C61.45 40.3872 61.5 40.5117 61.18 40.6719C60.81 40.8499 60.7 40.8321 60.7 40.6007V40.6007Z" fill="#848484"/>
<path d="M94.1 40.5117C94.1 40.1202 94.28 40.138 94.47 40.5473C94.6 40.8232 94.59 40.8321 94.35 40.8321C94.13 40.8321 94.1 40.7965 94.1 40.5117Z" fill="#848484"/>
<path d="M65 40.4405C65 40.3249 65.28 40.2092 65.58 40.2092C65.64 40.2092 65.7 40.2893 65.7 40.3871C65.7 40.5295 65.63 40.5651 65.35 40.5651C65.12 40.5651 65 40.5206 65 40.4405Z" fill="#848484"/>
<path d="M90.18 40.4138C89.85 40.3427 89.98 40.1202 90.35 40.1202C90.63 40.1202 90.7 40.1558 90.7 40.2982C90.7 40.4761 90.56 40.5028 90.18 40.4138Z" fill="#848484"/>
<path d="M36.7 40.2359C36.54 40.1736 36.3 39.9778 36.3 39.9066C36.3 39.8799 36.46 39.8532 36.65 39.8532C36.96 39.8532 37 39.8799 37 40.0757C37 40.3071 36.96 40.3249 36.7 40.2359V40.2359Z" fill="#848484"/>
<path d="M84.2 40.0846C84.2 39.8799 84.22 39.871 84.55 39.9689C84.74 40.0223 84.9 40.1113 84.9 40.1825C84.9 40.2537 84.77 40.2982 84.55 40.2982C84.25 40.2982 84.2 40.2715 84.2 40.0846Z" fill="#848484"/>
<path d="M5.85 40.0223C5.9 39.8087 6.08 39.5862 6.21 39.5862C6.26 39.5862 6.3 39.7286 6.3 39.8977C6.3 40.1647 6.27 40.2092 6.06 40.2092C5.86 40.2092 5.82 40.1736 5.85 40.0223Z" fill="#848484"/>
<path d="M33.6 39.9867C33.6 39.7731 33.61 39.7642 33.92 39.8799C34.38 40.049 34.4 40.2092 33.96 40.2092C33.64 40.2092 33.6 40.1825 33.6 39.9867Z" fill="#848484"/>
<path d="M82.3 39.8532C82.3 39.6663 82.4 39.6396 82.78 39.7286C83.14 39.8176 83.05 40.0312 82.65 40.0312C82.37 40.0312 82.3 39.9956 82.3 39.8532Z" fill="#848484"/>
<path d="M68.6 39.8176C68.6 39.7019 68.88 39.5862 69.18 39.5862C69.24 39.5862 69.3 39.6663 69.3 39.7642C69.3 39.9066 69.23 39.9422 68.95 39.9422C68.72 39.9422 68.6 39.8977 68.6 39.8176Z" fill="#848484"/>
<path d="M35.52 39.693C35.2 39.5062 35.25 39.4083 35.65 39.4083C35.95 39.4083 36 39.435 36 39.6129C36 39.8532 35.83 39.8799 35.52 39.693V39.693Z" fill="#848484"/>
<path d="M63.5 39.6752C63.5 39.5328 63.57 39.4972 63.85 39.4972C64.25 39.4972 64.34 39.7108 63.98 39.7998C63.6 39.8888 63.5 39.8621 63.5 39.6752Z" fill="#848484"/>
<path d="M16.5 39.6485C16.5 39.5328 17.05 39.3015 17.14 39.3905C17.17 39.4172 17.2 39.515 17.2 39.604C17.2 39.7286 17.12 39.7642 16.85 39.7642C16.63 39.7642 16.5 39.7197 16.5 39.6485Z" fill="#848484"/>
<path d="M78.4 39.4972C78.4 39.3104 78.5 39.2837 78.88 39.3727C79.24 39.4616 79.15 39.6752 78.75 39.6752C78.47 39.6752 78.4 39.6396 78.4 39.4972Z" fill="#848484"/>
<path d="M64.6 39.435C64.6 39.3015 64.72 39.2392 65.11 39.1591C65.39 39.0968 65.72 39.0523 65.86 39.0523C66.19 39.0523 66.17 39.2837 65.83 39.3638C64.82 39.6129 64.6 39.6307 64.6 39.435V39.435Z" fill="#848484"/>
<path d="M73.8 39.4616C73.8 39.3993 73.9 39.3193 74.03 39.2837C74.44 39.1858 74.6 39.2214 74.6 39.4082C74.6 39.5595 74.53 39.5862 74.2 39.5862C73.93 39.5862 73.8 39.5506 73.8 39.4616Z" fill="#848484"/>
<path d="M76 39.4083C76 39.2214 76.1 39.1947 76.48 39.2837C76.84 39.3727 76.75 39.5862 76.35 39.5862C76.07 39.5862 76 39.5506 76 39.4083Z" fill="#848484"/>
<path d="M86.28 39.5239C85.95 39.4527 86.08 39.2303 86.45 39.2303C86.73 39.2303 86.8 39.2659 86.8 39.4083C86.8 39.5862 86.66 39.6129 86.28 39.5239Z" fill="#848484"/>
<path d="M17.7 39.3727C17.7 39.257 17.98 39.1413 18.28 39.1413C18.34 39.1413 18.4 39.2214 18.4 39.3193C18.4 39.4616 18.33 39.4972 18.05 39.4972C17.82 39.4972 17.7 39.4527 17.7 39.3727Z" fill="#848484"/>
<path d="M19.1 39.1146C19.1 39.0434 19.26 38.9544 19.45 38.901C19.78 38.8031 19.8 38.812 19.8 39.0167C19.8 39.2036 19.75 39.2303 19.45 39.2303C19.23 39.2303 19.1 39.1858 19.1 39.1146Z" fill="#848484"/>
<path d="M30 39.0434C30 38.8921 30.05 38.8654 30.32 38.901C30.53 38.9188 30.66 38.99 30.68 39.079C30.71 39.1947 30.64 39.2303 30.36 39.2303C30.06 39.2303 30 39.1947 30 39.0434Z" fill="#848484"/>
<path d="M66.9 38.9633C66.9 38.8209 66.97 38.7853 67.25 38.7853C67.65 38.7853 67.74 38.9989 67.38 39.0879C67 39.1769 66.9 39.1502 66.9 38.9633Z" fill="#848484"/>
<path d="M29 38.8387C29 38.634 29.02 38.6251 29.35 38.723C29.54 38.7764 29.7 38.8654 29.7 38.9366C29.7 39.0078 29.57 39.0523 29.35 39.0523C29.05 39.0523 29 39.0256 29 38.8387Z" fill="#848484"/>
<path d="M82.28 38.901C81.95 38.8298 82.08 38.6073 82.45 38.6073C82.73 38.6073 82.8 38.6429 82.8 38.7853C82.8 38.9633 82.66 38.99 82.28 38.901Z" fill="#848484"/>
<path d="M93.1 38.6518C93.1 38.4827 93.14 38.3404 93.19 38.3404C93.32 38.3404 93.5 38.5628 93.55 38.7764C93.58 38.9277 93.54 38.9633 93.34 38.9633C93.13 38.9633 93.1 38.9188 93.1 38.6518Z" fill="#848484"/>
<path d="M15.8 38.6963C15.8 38.5539 15.87 38.5183 16.15 38.5183C16.55 38.5183 16.64 38.7319 16.28 38.8209C15.9 38.9099 15.8 38.8832 15.8 38.6963Z" fill="#848484"/>
<path d="M22.9 38.6607C22.9 38.545 23.18 38.4294 23.48 38.4294C23.54 38.4294 23.6 38.5094 23.6 38.6073C23.6 38.7497 23.53 38.7853 23.25 38.7853C23.02 38.7853 22.9 38.7408 22.9 38.6607Z" fill="#848484"/>
<path d="M69.8 38.6073C69.8 38.4649 69.87 38.4294 70.15 38.4294C70.55 38.4294 70.64 38.6429 70.28 38.7319C69.9 38.8209 69.8 38.7942 69.8 38.6073Z" fill="#848484"/>
<path d="M16.96 38.6251C16.93 38.5984 16.9 38.5005 16.9 38.4116C16.9 38.287 16.98 38.2514 17.25 38.2514C17.47 38.2514 17.6 38.2959 17.6 38.3671C17.6 38.4827 17.05 38.7141 16.96 38.6251Z" fill="#848484"/>
<path d="M70.7 38.5183C70.7 38.376 70.77 38.3404 71.05 38.3404C71.45 38.3404 71.54 38.5539 71.18 38.6429C70.8 38.7319 70.7 38.7052 70.7 38.5183Z" fill="#848484"/>
<path d="M79.48 38.634C79.15 38.5628 79.28 38.3404 79.65 38.3404C79.93 38.3404 80 38.376 80 38.5183C80 38.6963 79.86 38.723 79.48 38.634Z" fill="#848484"/>
<path d="M31.08 38.3048C30.68 38.1802 30.72 37.9844 31.15 37.9844C31.43 37.9844 31.5 38.02 31.5 38.1535C31.5 38.3849 31.41 38.4205 31.08 38.3048Z" fill="#848484"/>
<path d="M18.2 38.1624C18.2 38.02 18.27 37.9844 18.55 37.9844C18.95 37.9844 19.04 38.198 18.68 38.287C18.3 38.376 18.2 38.3493 18.2 38.1624Z" fill="#848484"/>
<path d="M30.08 38.1001C29.75 38.0289 29.88 37.8064 30.25 37.8064C30.53 37.8064 30.6 37.842 30.6 37.9844C30.6 38.1624 30.46 38.1891 30.08 38.1001Z" fill="#848484"/>
<path d="M28.56 37.8687C28.36 37.8242 28.2 37.7352 28.2 37.664C28.2 37.5216 28.32 37.5127 29.08 37.5928C29.5 37.6462 29.6 37.6818 29.6 37.8153C29.6 38.0022 29.28 38.0111 28.56 37.8687V37.8687Z" fill="#848484"/>
<path d="M92.5 37.5839C92.5 37.3615 92.54 37.2725 92.66 37.2725C92.74 37.2725 92.79 37.3081 92.76 37.3526C92.72 37.3971 92.74 37.4505 92.79 37.4683C92.83 37.4772 92.91 37.5839 92.94 37.6996C93 37.8687 92.98 37.8954 92.76 37.8954C92.53 37.8954 92.5 37.8598 92.5 37.5839Z" fill="#848484"/>
<path d="M27.48 37.7441C27.15 37.6729 27.28 37.4505 27.65 37.4505C27.93 37.4505 28 37.4861 28 37.6284C28 37.8064 27.86 37.8331 27.48 37.7441Z" fill="#848484"/>
<path d="M23.4 37.5394C23.4 37.3971 23.47 37.3615 23.75 37.3615C24.15 37.3615 24.24 37.575 23.88 37.664C23.5 37.753 23.4 37.7263 23.4 37.5394Z" fill="#848484"/>
<path d="M7.6 36.8987C7.61 36.7741 7.94 36.3826 8.04 36.3826C8.07 36.3826 8.1 36.525 8.1 36.694C8.1 36.9699 8.07 37.0055 7.85 37.0055C7.71 37.0055 7.6 36.9521 7.6 36.8987Z" fill="#848484"/>
<path d="M91.7 36.2491C91.7 36.08 91.73 35.9376 91.76 35.9376C91.86 35.9376 92.07 36.169 92.14 36.3648C92.2 36.5338 92.18 36.5605 91.96 36.5605C91.73 36.5605 91.7 36.5249 91.7 36.2491Z" fill="#848484"/>
<path d="M8.6 35.3503C8.6 35.2435 8.94 34.7807 9.02 34.7807C9.06 34.7807 9.1 34.9231 9.1 35.0922C9.1 35.3681 9.07 35.4037 8.85 35.4037C8.71 35.4037 8.6 35.377 8.6 35.3503Z" fill="#848484"/>
<path d="M9.8 33.5705C9.8 33.4637 10.14 33.0009 10.22 33.0009C10.26 33.0009 10.3 33.1433 10.3 33.3124C10.3 33.5883 10.27 33.6239 10.05 33.6239C9.91 33.6239 9.8 33.5972 9.8 33.5705Z" fill="#848484"/>
<path d="M89 32.2445C89 31.8618 89.1 31.8529 89.33 32.1911C89.55 32.5293 89.55 32.556 89.25 32.556C89.03 32.556 89 32.5204 89 32.2445Z" fill="#848484"/>
<path d="M87.68 28.8183C87.4 28.5069 87.4 28.5069 87.66 28.4802C87.99 28.4446 88.02 28.4713 87.98 28.8272C87.95 29.1298 87.95 29.1298 87.68 28.8183Z" fill="#848484"/>
<path d="M88.2 28.8005C88.2 28.6938 88.3 28.1509 88.42 27.5992C88.6 26.7627 88.67 26.5936 88.82 26.5936C89.04 26.5936 89.05 26.5402 88.75 27.8394C88.61 28.4446 88.5 28.9429 88.5 28.9607C88.5 28.9785 88.43 28.9963 88.35 28.9963C88.26 28.9963 88.2 28.9162 88.2 28.8005Z" fill="#848484"/>
<path d="M14.18 28.0174C14.43 27.6259 14.6 27.6081 14.6 27.9729C14.6 28.2577 14.58 28.2844 14.3 28.2844C14.01 28.2844 14.01 28.2844 14.18 28.0174Z" fill="#848484"/>
<path d="M85.3 27.795C85.3 27.6259 85.35 27.4835 85.4 27.4835C85.46 27.4835 85.5 27.5191 85.5 27.5636C85.5 27.5992 85.61 27.7416 85.75 27.8751C85.99 28.1064 85.99 28.1064 85.65 28.1064C85.32 28.1064 85.3 28.0886 85.3 27.795Z" fill="#848484"/>
<path d="M86.78 27.8394C86.5 27.528 86.5 27.528 86.76 27.5013C87.09 27.4657 87.12 27.4924 87.08 27.8483C87.05 28.1509 87.05 28.1509 86.78 27.8394Z" fill="#848484"/>
<path d="M10.26 27.0207C10.16 26.6826 10.19 26.5936 10.4 26.5936C10.56 26.5936 10.6 26.6559 10.6 26.905C10.6 27.261 10.36 27.3411 10.26 27.0207Z" fill="#848484"/>
<path d="M89.1 24.5913C89.1 24.3421 89.14 24.2798 89.3 24.2798C89.51 24.2798 89.54 24.3688 89.44 24.707C89.34 25.0273 89.1 24.9472 89.1 24.5913Z" fill="#848484"/>
<path d="M17.85 24.6358C17.88 24.5913 18.04 24.4667 18.2 24.3688C18.5 24.1819 18.5 24.1819 18.5 24.4489C18.5 24.707 18.47 24.7248 18.14 24.7248C17.94 24.7248 17.81 24.6892 17.85 24.6358Z" fill="#848484"/>
<path d="M89.3 23.6124C89.3 23.3632 89.34 23.3009 89.5 23.3009C89.71 23.3009 89.74 23.3899 89.64 23.7281C89.54 24.0484 89.3 23.9683 89.3 23.6124Z" fill="#848484"/>
<path d="M80.1 23.3899C80.1 23.1318 80.1 23.1318 80.4 23.2831C80.84 23.5056 80.86 23.6569 80.45 23.6569C80.13 23.6569 80.1 23.6391 80.1 23.3899Z" fill="#848484"/>
<path d="M21.25 22.322C21.28 22.2775 21.44 22.1529 21.6 22.055C21.9 21.8682 21.9 21.8682 21.9 22.1351C21.9 22.3932 21.87 22.411 21.54 22.411C21.34 22.411 21.21 22.3754 21.25 22.322Z" fill="#848484"/>
<path d="M89.6 22.0995C89.6 21.8326 89.63 21.7881 89.84 21.7881C90.07 21.7881 90.08 21.8059 89.97 22.0995C89.91 22.2686 89.81 22.411 89.73 22.411C89.65 22.411 89.6 22.2953 89.6 22.0995Z" fill="#848484"/>
<path d="M22.1 21.8059C22.1 21.7347 22.62 21.4321 22.74 21.4321C22.77 21.4321 22.8 21.53 22.8 21.6546C22.8 21.8504 22.76 21.8771 22.45 21.8771C22.26 21.8771 22.1 21.8415 22.1 21.8059Z" fill="#848484"/>
<path d="M76.8 21.3876C76.8 21.1206 76.83 21.1206 77.21 21.3164C77.59 21.5211 77.58 21.6101 77.15 21.6101C76.84 21.6101 76.8 21.5834 76.8 21.3876Z" fill="#848484"/>
<path d="M9.06 20.8359C8.87 19.9371 8.87 19.8303 9.09 19.8303C9.22 19.8303 9.3 19.8837 9.3 19.9905C9.3 20.0706 9.33 20.3553 9.36 20.6134C9.42 20.9961 9.4 21.0761 9.27 21.0761C9.18 21.0761 9.09 20.9694 9.06 20.8359V20.8359Z" fill="#848484"/>
<path d="M23.9 20.8448C23.9 20.7558 24.16 20.5689 24.38 20.5066C24.57 20.4532 24.6 20.471 24.6 20.6668C24.6 20.8715 24.56 20.8982 24.25 20.8982C24.06 20.8982 23.9 20.8715 23.9 20.8448Z" fill="#848484"/>
<path d="M89.9 20.4977C89.9 20.2485 89.94 20.1862 90.1 20.1862C90.27 20.1862 90.3 20.2396 90.27 20.4977C90.26 20.7291 90.2 20.8092 90.08 20.8092C89.94 20.8092 89.9 20.738 89.9 20.4977Z" fill="#848484"/>
<path d="M75.1 20.4888C75.1 20.293 75.13 20.2752 75.32 20.3286C75.54 20.3909 75.8 20.5778 75.8 20.6668C75.8 20.6935 75.64 20.7202 75.45 20.7202C75.14 20.7202 75.1 20.6935 75.1 20.4888Z" fill="#848484"/>
<path d="M25.8 19.8659C25.8 19.7947 25.84 19.7502 25.89 19.7769C25.94 19.8125 26 19.8036 26.02 19.768C26.06 19.679 26.82 19.3319 26.88 19.3675C26.91 19.3853 26.97 19.3497 27.01 19.2785C27.07 19.1984 27.1 19.2607 27.1 19.4565C27.1 19.7146 27.07 19.7413 26.8 19.7413C26.6 19.7413 26.5 19.7858 26.5 19.8748C26.5 19.9638 26.39 20.0083 26.15 20.0083C25.9 20.0083 25.8 19.9727 25.8 19.8659V19.8659Z" fill="#848484"/>
<path d="M23.5 19.4743C23.15 19.2162 23.15 19.2162 23.53 19.2073C23.88 19.2073 23.9 19.2251 23.9 19.4743C23.9 19.6256 23.89 19.7413 23.87 19.7413C23.86 19.7413 23.69 19.6256 23.5 19.4743Z" fill="#848484"/>
<path d="M24.7 19.2607C24.7 19.0561 24.74 19.0294 25.05 19.0294C25.24 19.0294 25.4 19.0561 25.4 19.0828C25.4 19.1717 25.14 19.3586 24.92 19.4209C24.73 19.4743 24.7 19.4565 24.7 19.2607Z" fill="#848484"/>
<path d="M74.43 19.0738C74.24 18.8781 74.27 18.8514 74.66 18.8514C74.94 18.8514 75.01 18.8781 74.98 19.0116C74.94 19.2073 74.59 19.2429 74.43 19.0738Z" fill="#848484"/>
<path d="M21.2 18.8425C21.2 18.5755 21.2 18.5755 21.5 18.7624C21.94 19.0383 21.95 19.1183 21.56 19.1183C21.23 19.1183 21.2 19.1005 21.2 18.8425Z" fill="#848484"/>
<path d="M70.8 18.7624C70.8 18.7179 70.69 18.6734 70.55 18.6734C70.35 18.6734 70.3 18.6289 70.3 18.4509C70.3 18.2284 70.3 18.2284 70.82 18.4153C71.45 18.6378 71.5 18.6645 71.5 18.7713C71.5 18.8158 71.34 18.8514 71.15 18.8514C70.96 18.8514 70.8 18.8158 70.8 18.7624Z" fill="#848484"/>
<path d="M22.3 18.4509C21.96 18.1395 21.96 18.1395 22.33 18.1395C22.69 18.1395 22.7 18.1483 22.7 18.4509C22.7 18.62 22.69 18.7624 22.67 18.7624C22.65 18.7624 22.49 18.62 22.3 18.4509Z" fill="#848484"/>
<path d="M8.66 18.3886C8.56 18.0505 8.59 17.9615 8.8 17.9615C8.96 17.9615 9 18.0238 9 18.2729C9 18.6289 8.76 18.709 8.66 18.3886Z" fill="#848484"/>
<path d="M26.9 18.2729C26.9 18.0772 26.94 18.0505 27.26 18.0505C27.7 18.0505 27.68 18.2106 27.22 18.3797C26.91 18.4954 26.9 18.4865 26.9 18.2729Z" fill="#848484"/>
<path d="M90.3 18.1839C90.3 17.9348 90.34 17.8725 90.5 17.8725C90.71 17.8725 90.74 17.9615 90.64 18.2996C90.54 18.62 90.3 18.5399 90.3 18.1839Z" fill="#848484"/>
<path d="M27.8 17.917C27.8 17.7212 27.84 17.6945 28.15 17.6945C28.39 17.6945 28.5 17.65 28.5 17.561C28.5 17.472 28.61 17.4275 28.85 17.4275C29.5 17.4275 29.22 17.6411 28.03 18.0594C27.83 18.1216 27.8 18.1039 27.8 17.917Z" fill="#848484"/>
<path d="M68.5 17.828C68.5 17.6144 68.51 17.6055 68.82 17.7212C69.28 17.8903 69.3 18.0505 68.86 18.0505C68.54 18.0505 68.5 18.0238 68.5 17.828Z" fill="#848484"/>
<path d="M32.6 17.4186C32.6 17.3207 33.15 17.0894 33.61 17.0093C33.85 16.9648 33.9 16.9915 33.9 17.1339C33.9 17.2584 33.79 17.3385 33.51 17.4097C33.03 17.5432 32.6 17.5432 32.6 17.4186Z" fill="#848484"/>
<path d="M19.2 17.1516C19.2 16.8847 19.2 16.8847 19.5 17.0716C19.94 17.3474 19.95 17.4275 19.56 17.4275C19.23 17.4275 19.2 17.4097 19.2 17.1516Z" fill="#848484"/>
<path d="M8.46 16.8758C8.36 16.5376 8.39 16.4486 8.6 16.4486C8.76 16.4486 8.8 16.5109 8.8 16.7601C8.8 17.1161 8.56 17.1961 8.46 16.8758Z" fill="#848484"/>
<path d="M30.8 16.8491C30.8 16.6533 30.84 16.6266 31.16 16.6266C31.6 16.6266 31.58 16.7868 31.12 16.9559C30.81 17.0716 30.8 17.0627 30.8 16.8491Z" fill="#848484"/>
<path d="M64.8 16.8224C64.8 16.5821 64.88 16.5465 65.21 16.6533C65.62 16.7957 65.58 16.9826 65.15 16.9826C64.88 16.9826 64.8 16.947 64.8 16.8224Z" fill="#848484"/>
<path d="M32.9 16.1816C32.9 16.0393 32.97 16.0037 33.25 16.0037C33.65 16.0037 33.74 16.2172 33.38 16.3062C33 16.3952 32.9 16.3685 32.9 16.1816Z" fill="#848484"/>
<path d="M8.36 15.9859C8.26 15.6477 8.29 15.5587 8.5 15.5587C8.66 15.5587 8.7 15.621 8.7 15.8702C8.7 16.2261 8.46 16.3062 8.36 15.9859Z" fill="#848484"/>
<path d="M38.8 15.9592C38.8 15.888 38.82 15.8257 38.84 15.8257C38.87 15.8257 39.22 15.7634 39.62 15.6833C40.86 15.443 41.1 15.4341 41.1 15.621C41.1 15.7545 40.94 15.8079 40.13 15.9414C38.95 16.1283 38.8 16.1283 38.8 15.9592V15.9592Z" fill="#848484"/>
<path d="M57.6 15.4697C57.6 15.2828 57.7 15.2561 58.08 15.3451C58.44 15.4341 58.35 15.6477 57.95 15.6477C57.67 15.6477 57.6 15.6121 57.6 15.4697Z" fill="#848484"/>
<path d="M90.7 15.3362C90.7 15.0871 90.74 15.0248 90.9 15.0248C91.11 15.0248 91.14 15.1138 91.04 15.4519C90.94 15.7723 90.7 15.6922 90.7 15.3362Z" fill="#848484"/>
<path d="M56.8 15.3807C56.8 15.1938 56.9 15.1672 57.28 15.2561C57.64 15.3451 57.55 15.5587 57.15 15.5587C56.87 15.5587 56.8 15.5231 56.8 15.3807Z" fill="#848484"/>
<path d="M18.5 15.2027C18.15 14.9447 18.15 14.9447 18.53 14.9358C18.88 14.9358 18.9 14.9536 18.9 15.2027C18.9 15.354 18.89 15.4697 18.87 15.4697C18.86 15.4697 18.69 15.354 18.5 15.2027Z" fill="#848484"/>
<path d="M56 15.2917C56 15.1049 56.1 15.0782 56.48 15.1672C56.84 15.2561 56.75 15.4697 56.35 15.4697C56.07 15.4697 56 15.4341 56 15.2917Z" fill="#848484"/>
<path d="M55.1 15.2027C55.1 15.0159 55.2 14.9892 55.58 15.0782C55.94 15.1672 55.85 15.3807 55.45 15.3807C55.17 15.3807 55.1 15.3451 55.1 15.2027Z" fill="#848484"/>
<path d="M53.9 15.1138C53.9 14.9269 54 14.9002 54.38 14.9892C54.74 15.0782 54.65 15.2917 54.25 15.2917C53.97 15.2917 53.9 15.2561 53.9 15.1138Z" fill="#848484"/>
<path d="M47.7 15.0782C47.7 14.9625 47.98 14.8468 48.28 14.8468C48.34 14.8468 48.4 14.9269 48.4 15.0248C48.4 15.1672 48.33 15.2027 48.05 15.2027C47.82 15.2027 47.7 15.1583 47.7 15.0782Z" fill="#848484"/>
<path d="M51.7 15.0248C51.7 14.8379 51.8 14.8112 52.18 14.9002C52.54 14.9892 52.45 15.2028 52.05 15.2028C51.77 15.2028 51.7 15.1672 51.7 15.0248Z" fill="#848484"/>
<path d="M8.26 14.918C8.16 14.5798 8.19 14.4908 8.4 14.4908C8.56 14.4908 8.6 14.5531 8.6 14.8023C8.6 15.1583 8.36 15.2383 8.26 14.918Z" fill="#848484"/>
<path d="M66.95 14.829C66.98 14.7667 67.14 14.6421 67.3 14.562C67.6 14.4107 67.6 14.4107 67.6 14.6688C67.6 14.918 67.57 14.9358 67.25 14.9358C67.02 14.9358 66.92 14.9002 66.95 14.829Z" fill="#848484"/>
<path d="M15.9 14.4908C15.9 14.2239 15.9 14.2239 16.25 14.4196C16.69 14.6777 16.69 14.7578 16.25 14.7578C15.93 14.7578 15.9 14.74 15.9 14.4908Z" fill="#848484"/>
<path d="M14.7 13.6009C14.7 13.3428 14.7 13.3428 15 13.4941C15.44 13.7166 15.46 13.8679 15.05 13.8679C14.73 13.8679 14.7 13.8501 14.7 13.6009Z" fill="#848484"/>
<path d="M68.4 13.7166C68.4 13.6721 68.56 13.5564 68.75 13.4407C69.1 13.245 69.1 13.245 69.1 13.5119C69.1 13.7611 69.07 13.7789 68.75 13.7789C68.56 13.7789 68.4 13.7522 68.4 13.7166Z" fill="#848484"/>
<path d="M90.9 13.2894C90.9 13.0403 90.94 12.978 91.1 12.978C91.31 12.978 91.34 13.067 91.24 13.4051C91.14 13.7255 90.9 13.6454 90.9 13.2894Z" fill="#848484"/>
<path d="M83.75 12.8C83.78 12.7555 83.94 12.6309 84.1 12.533C84.4 12.3461 84.4 12.3461 84.4 12.6131C84.4 12.8712 84.37 12.889 84.04 12.889C83.84 12.889 83.71 12.8534 83.75 12.8Z" fill="#848484"/>
<path d="M12.9 12.3461C12.9 12.0792 12.9 12.0792 13.2 12.266C13.64 12.5419 13.65 12.622 13.26 12.622C12.93 12.622 12.9 12.6042 12.9 12.3461Z" fill="#848484"/>
<path d="M83.8 11.474C83.8 11.216 83.83 11.1982 84.16 11.1982C84.55 11.1982 84.54 11.2783 84.1 11.5541C83.8 11.741 83.8 11.741 83.8 11.474Z" fill="#848484"/>
<path d="M71.55 11.3761C71.58 11.3317 71.74 11.2071 71.9 11.1092C72.2 10.9223 72.2 10.9223 72.2 11.1893C72.2 11.4473 72.17 11.4651 71.84 11.4651C71.64 11.4651 71.51 11.4295 71.55 11.3761Z" fill="#848484"/>
<path d="M84.8 10.7621C84.8 10.504 84.83 10.4862 85.16 10.4862C85.55 10.4862 85.54 10.5663 85.1 10.8422C84.8 11.0291 84.8 11.0291 84.8 10.7621Z" fill="#848484"/>
<path d="M8.49 10.6909C8.59 10.3527 8.9 10.335 8.9 10.6731C8.9 10.8867 8.86 10.9312 8.66 10.9312C8.45 10.9312 8.43 10.9045 8.49 10.6909V10.6909Z" fill="#848484"/>
<path d="M73 10.2816C73.2 10.1303 73.48 9.92559 73.63 9.8366C73.9 9.68532 73.9 9.68532 73.9 9.95229C73.9 10.1748 73.86 10.2193 73.65 10.2193C73.47 10.2193 73.4 10.2638 73.4 10.3972C73.4 10.5396 73.33 10.5752 73.03 10.5752C72.65 10.5752 72.65 10.5752 73 10.2816Z" fill="#848484"/>
<path d="M25.9 10.3083C25.9 10.1748 25.83 10.1303 25.65 10.1303C25.43 10.1303 25.4 10.0947 25.4 9.81881C25.4 9.51624 25.41 9.51624 25.59 9.66752C25.99 9.98789 26.32 10.2193 26.4 10.2193C26.44 10.2193 26.5 10.2816 26.54 10.3528C26.58 10.4595 26.51 10.4862 26.25 10.4862C25.97 10.4862 25.9 10.4506 25.9 10.3083Z" fill="#848484"/>
<path d="M87.3 10.415C87.3 10.3439 87.82 10.0413 87.94 10.0413C87.97 10.0413 88 10.1392 88 10.2638C88 10.4595 87.96 10.4862 87.65 10.4862C87.46 10.4862 87.3 10.4506 87.3 10.415Z" fill="#848484"/>
<path d="M7.9 9.77431C7.9 9.52513 7.93 9.50734 8.25 9.50734C8.69 9.50734 8.69 9.58743 8.25 9.8455C7.9 10.0413 7.9 10.0413 7.9 9.77431Z" fill="#848484"/>
<path d="M90.4 9.32936C90.4 9.21367 90.47 9.15137 90.6 9.15137C90.7 9.15137 90.84 9.23147 90.9 9.32936C91 9.48954 90.98 9.50734 90.7 9.50734C90.47 9.50734 90.4 9.47174 90.4 9.32936Z" fill="#848484"/>
<path d="M88.4 8.65302C88.4 8.46614 88.45 8.43945 88.75 8.43945C89.15 8.43945 89.2 8.56403 88.88 8.72422C88.51 8.9022 88.4 8.8844 88.4 8.65302Z" fill="#848484"/>
<path d="M7.7 7.79871C7.7 7.53174 7.83 7.28257 7.96 7.28257C8.05 7.28257 8.1 7.38936 8.1 7.59403C8.1 7.84321 8.06 7.9055 7.9 7.9055C7.79 7.9055 7.7 7.85211 7.7 7.79871Z" fill="#848484"/>
<path d="M21.1 6.82871C21.1 6.56174 21.1 6.56174 21.4 6.74862C21.84 7.02449 21.85 7.10458 21.46 7.10458C21.13 7.10458 21.1 7.08678 21.1 6.82871Z" fill="#848484"/>
<path d="M91.2 6.08119C91.2 5.72523 91.44 5.64513 91.54 5.9744C91.64 6.30367 91.61 6.39266 91.4 6.39266C91.24 6.39266 91.2 6.33037 91.2 6.08119Z" fill="#848484"/>
<path d="M80.17 5.32477C80.35 5.17348 80.51 5.0578 80.54 5.0578C80.58 5.0578 80.6 5.18238 80.6 5.32477C80.6 5.57394 80.58 5.59174 80.23 5.59174C79.85 5.59174 79.85 5.59174 80.17 5.32477Z" fill="#848484"/>
<path d="M16.3 3.76743C16.3 3.49156 16.41 3.48266 16.77 3.76743C17.05 3.98101 17.05 3.98101 16.68 3.98991C16.34 3.98991 16.3 3.96321 16.3 3.76743Z" fill="#848484"/>
<path d="M90.5 2.43257C90.5 2.0766 90.74 1.99651 90.84 2.32578C90.94 2.65504 90.91 2.74403 90.7 2.74403C90.54 2.74403 90.5 2.68174 90.5 2.43257Z" fill="#848484"/>
<path d="M12.5 1.72954C12.5 1.55156 12.54 1.51596 12.7 1.54266C12.9 1.57825 13.2 1.79183 13.2 1.88972C13.2 1.91642 13.04 1.94312 12.85 1.94312C12.55 1.94312 12.5 1.91642 12.5 1.72954Z" fill="#848484"/>
<path d="M88.5 1.01761C88.5 0.901924 88.78 0.786236 89.08 0.786236C89.14 0.786236 89.2 0.866328 89.2 0.964217C89.2 1.1066 89.13 1.1422 88.85 1.1422C88.62 1.1422 88.5 1.0977 88.5 1.01761Z" fill="#848484"/>
<path d="M9.8 0.875084C9.8 0.688203 9.9 0.661507 10.28 0.750497C10.64 0.839488 10.55 1.05307 10.15 1.05307C9.87 1.05307 9.8 1.01747 9.8 0.875084Z" fill="#848484"/>
<path d="M89.5 0.875227C89.5 0.679448 89.7 0.643851 90.01 0.786237C90.31 0.928622 90.24 1.05321 89.85 1.05321C89.57 1.05321 89.5 1.01761 89.5 0.875227Z" fill="#848484"/>
</svg>
