<svg width="101" height="84" viewBox="0 0 101 84" fill="none" xmlns="http://www.w3.org/2000/svg">
<path d="M49.08 83.6634C48.75 83.5922 48.88 83.3697 49.25 83.3697C49.53 83.3697 49.6 83.4053 49.6 83.5477C49.6 83.7257 49.46 83.7524 49.08 83.6634Z" fill="#7B7B7B"/>
<path d="M50.5 83.5477C50.5 83.4053 50.57 83.3697 50.85 83.3697C51.25 83.3697 51.34 83.5833 50.98 83.6723C50.6 83.7613 50.5 83.7346 50.5 83.5477Z" fill="#7B7B7B"/>
<path d="M47.78 83.5744C47.45 83.5032 47.58 83.2807 47.95 83.2807C48.23 83.2807 48.3 83.3163 48.3 83.4587C48.3 83.6367 48.16 83.6634 47.78 83.5744Z" fill="#7B7B7B"/>
<path d="M46.58 83.3964C46.25 83.3252 46.38 83.1028 46.75 83.1028C47.03 83.1028 47.1 83.1383 47.1 83.2807C47.1 83.4587 46.96 83.4854 46.58 83.3964Z" fill="#7B7B7B"/>
<path d="M54.2 83.0227C54.2 82.8714 54.26 82.8358 54.56 82.8358C54.84 82.8358 54.91 82.8714 54.88 82.9871C54.86 83.0761 54.73 83.1472 54.52 83.165C54.25 83.2006 54.2 83.1739 54.2 83.0227V83.0227Z" fill="#7B7B7B"/>
<path d="M55.1 82.7913C55.1 82.5955 55.14 82.5688 55.46 82.5688C55.9 82.5688 55.88 82.729 55.42 82.8981C55.11 83.0138 55.1 83.0049 55.1 82.7913Z" fill="#7B7B7B"/>
<path d="M43.45 82.4887C43.13 82.3374 42.9 82.1683 42.9 82.0883C42.9 82.0616 43.06 82.0349 43.25 82.0349C43.44 82.0349 43.6 82.0794 43.6 82.1238C43.6 82.1772 43.69 82.2128 43.8 82.2128C43.94 82.2128 44 82.2751 44 82.4175C44 82.6667 43.86 82.6756 43.45 82.4887Z" fill="#7B7B7B"/>
<path d="M60 79.5075C60 79.3295 60.05 79.1872 60.1 79.1872C60.16 79.1872 60.2 79.1249 60.2 79.0537C60.2 78.9825 60.25 78.9202 60.3 78.9202C60.36 78.9202 60.4 78.8579 60.4 78.7867C60.4 78.7066 60.49 78.6532 60.65 78.6532C60.79 78.6532 60.9 78.6799 60.9 78.7155C60.9 78.8045 60.3 79.6054 60.14 79.7211C60.02 79.819 60 79.7834 60 79.5075Z" fill="#7B7B7B"/>
<path d="M39.14 78.7066C39.08 78.6443 38.99 78.5108 38.96 78.404C38.9 78.2349 38.93 78.2083 39.14 78.2083C39.37 78.2083 39.4 78.2438 39.4 78.5197C39.4 78.849 39.33 78.9024 39.14 78.7066V78.7066Z" fill="#7B7B7B"/>
<path d="M61.4 77.2828C61.4 76.998 61.43 76.9624 61.65 76.9624C61.89 76.9624 61.9 76.9713 61.77 77.2472C61.58 77.6565 61.4 77.6743 61.4 77.2828V77.2828Z" fill="#7B7B7B"/>
<path d="M62.8 72.6463C62.8 72.3972 62.84 72.3349 63 72.3349C63.21 72.3349 63.24 72.4239 63.14 72.762C63.04 73.0824 62.8 73.0023 62.8 72.6463Z" fill="#7B7B7B"/>
<path d="M36.86 71.8721C36.76 71.5339 36.79 71.445 37 71.445C37.16 71.445 37.2 71.5072 37.2 71.7564C37.2 72.1124 36.96 72.1925 36.86 71.8721Z" fill="#7B7B7B"/>
<path d="M62.9 71.089C62.9 70.7063 63.13 70.5817 63.23 70.911C63.3 71.1602 63.2 71.4449 63.04 71.4449C62.94 71.4449 62.9 71.3293 62.9 71.089Z" fill="#7B7B7B"/>
<path d="M36.8 70.6262C36.8 70.3593 36.93 70.1101 37.06 70.1101C37.15 70.1101 37.2 70.2169 37.2 70.4216C37.2 70.6707 37.16 70.733 37 70.733C36.89 70.733 36.8 70.6796 36.8 70.6262Z" fill="#7B7B7B"/>
<path d="M36.95 69.3804C37.07 68.615 37.12 68.5083 37.27 68.5083C37.4 68.5083 37.42 68.5884 37.36 68.9799C37.33 69.2291 37.3 69.5139 37.3 69.6028C37.3 69.7007 37.22 69.7541 37.09 69.7541C36.9 69.7541 36.89 69.7185 36.95 69.3804Z" fill="#7B7B7B"/>
<path d="M37.26 67.0399C37.23 66.9687 37.09 66.8886 36.95 66.853C36.56 66.764 36.63 66.5505 37.05 66.5505C37.38 66.5505 37.4 66.5683 37.4 66.8619C37.4 67.1912 37.36 67.2535 37.26 67.0399Z" fill="#7B7B7B"/>
<path d="M35.68 66.6661C35.35 66.595 35.48 66.3725 35.85 66.3725C36.13 66.3725 36.2 66.4081 36.2 66.5505C36.2 66.7284 36.06 66.7551 35.68 66.6661Z" fill="#7B7B7B"/>
<path d="M32.2 66.239C32.12 66.2212 31.88 66.1856 31.68 66.15C31.44 66.1144 31.3 66.0521 31.3 65.972C31.3 65.8207 31.41 65.8118 32.18 65.8919C32.6 65.9453 32.7 65.9809 32.7 66.1144C32.7 66.2746 32.58 66.3013 32.2 66.239Z" fill="#7B7B7B"/>
<path d="M30.33 65.9987C29.88 65.8652 29.9 65.6605 30.35 65.6605C30.66 65.6605 30.7 65.6872 30.7 65.883C30.7 66.0076 30.69 66.1055 30.68 66.0966C30.66 66.0877 30.5 66.0432 30.33 65.9987V65.9987Z" fill="#7B7B7B"/>
<path d="M68.8 65.9275C68.8 65.7851 68.87 65.7495 69.15 65.7495C69.55 65.7495 69.64 65.9631 69.28 66.0521C68.9 66.1411 68.8 66.1144 68.8 65.9275Z" fill="#7B7B7B"/>
<path d="M70.1 65.8029C70.1 65.6249 70.16 65.5894 70.56 65.536C71.25 65.4559 71.4 65.4648 71.4 65.6072C71.4 65.7228 70.87 65.9008 70.68 65.8563C70.64 65.8474 70.49 65.883 70.35 65.9275C70.13 65.9987 70.1 65.9898 70.1 65.8029V65.8029Z" fill="#7B7B7B"/>
<path d="M28.43 65.7317C27.98 65.5983 28 65.3936 28.45 65.3936C28.76 65.3936 28.8 65.4203 28.8 65.6161C28.8 65.7406 28.79 65.8385 28.78 65.8296C28.76 65.8207 28.6 65.7762 28.43 65.7317V65.7317Z" fill="#7B7B7B"/>
<path d="M72.7 65.447C72.7 65.269 72.76 65.2334 73.16 65.18C73.85 65.0999 74 65.1088 74 65.2601C74 65.3402 73.86 65.4025 73.63 65.4381C73.42 65.4737 73.13 65.5271 72.98 65.5716C72.73 65.6428 72.7 65.6339 72.7 65.447Z" fill="#7B7B7B"/>
<path d="M26.38 65.4203C26.05 65.3491 26.18 65.1266 26.55 65.1266C26.83 65.1266 26.9 65.1622 26.9 65.3046C26.9 65.4826 26.76 65.5093 26.38 65.4203Z" fill="#7B7B7B"/>
<path d="M24.72 65.2067C24.59 65.1622 24.44 65.1444 24.39 65.18C24.34 65.2067 24.3 65.1444 24.3 65.0465C24.3 64.8952 24.36 64.8596 24.65 64.8596C24.96 64.8596 25 64.8863 25 65.0821C25 65.2067 24.99 65.3046 24.98 65.2957C24.96 65.2957 24.84 65.2601 24.72 65.2067Z" fill="#7B7B7B"/>
<path d="M21.3 64.5749C21.3 64.4503 21.38 64.4147 21.65 64.4147C21.93 64.4147 22 64.4503 22 64.5927C22 64.7439 21.94 64.7706 21.65 64.7439C21.39 64.735 21.3 64.6817 21.3 64.5749V64.5749Z" fill="#7B7B7B"/>
<path d="M79.3 64.4859C79.3 64.2812 79.36 64.2634 80.38 64.121C81.71 63.9341 81.8 63.9341 81.8 64.1299C81.8 64.2189 81.72 64.2901 81.63 64.299C81.47 64.299 81.1 64.3524 80.4 64.4592C80.26 64.4859 80 64.5215 79.82 64.5393C79.64 64.566 79.45 64.6105 79.4 64.6371C79.34 64.6638 79.3 64.6016 79.3 64.4859V64.4859Z" fill="#7B7B7B"/>
<path d="M19.6 64.3079C19.6 64.1833 19.68 64.1477 19.95 64.1477C20.23 64.1477 20.3 64.1833 20.3 64.3257C20.3 64.477 20.24 64.5037 19.95 64.477C19.69 64.4681 19.6 64.4147 19.6 64.3079V64.3079Z" fill="#7B7B7B"/>
<path d="M17.69 64.1299C17.58 64.0943 17.32 64.0498 17.1 64.0409C16.8 64.0231 16.7 63.9786 16.7 63.8629C16.7 63.6761 16.8 63.6672 17.83 63.8095C18.47 63.8896 18.6 63.943 18.6 64.0765C18.6 64.2011 18.53 64.2367 18.25 64.21C18.05 64.2011 17.8 64.1655 17.69 64.1299Z" fill="#7B7B7B"/>
<path d="M83.3 63.7917C83.3 63.6494 83.37 63.6138 83.65 63.6138C83.92 63.6138 84 63.6493 84 63.7739C84 63.8807 83.91 63.9341 83.65 63.943C83.36 63.9697 83.3 63.943 83.3 63.7917V63.7917Z" fill="#7B7B7B"/>
<path d="M15.78 63.8184C15.45 63.7472 15.58 63.5248 15.95 63.5248C16.23 63.5248 16.3 63.5604 16.3 63.7028C16.3 63.8807 16.16 63.9074 15.78 63.8184Z" fill="#7B7B7B"/>
<path d="M13.9 63.418C13.9 63.2934 13.98 63.2578 14.25 63.2578C14.53 63.2578 14.6 63.2934 14.6 63.4358C14.6 63.5871 14.54 63.6138 14.25 63.5871C13.99 63.5782 13.9 63.5248 13.9 63.418V63.418Z" fill="#7B7B7B"/>
<path d="M86.7 63.2578C86.7 63.1154 86.77 63.0798 87.05 63.0798C87.45 63.0798 87.54 63.2934 87.18 63.3824C86.8 63.4714 86.7 63.4447 86.7 63.2578Z" fill="#7B7B7B"/>
<path d="M12.2 63.151C12.2 63.0264 12.28 62.9908 12.55 62.9908C12.83 62.9908 12.9 63.0264 12.9 63.1688C12.9 63.3201 12.84 63.3468 12.55 63.3201C12.29 63.3112 12.2 63.2578 12.2 63.151V63.151Z" fill="#7B7B7B"/>
<path d="M11.28 63.1065C10.95 63.0353 11.08 62.8129 11.45 62.8129C11.73 62.8129 11.8 62.8484 11.8 62.9908C11.8 63.1688 11.66 63.1955 11.28 63.1065Z" fill="#7B7B7B"/>
<path d="M90.6 62.6349C90.6 62.4925 90.67 62.4569 90.95 62.4569C91.35 62.4569 91.44 62.6705 91.08 62.7594C90.7 62.8484 90.6 62.8217 90.6 62.6349Z" fill="#7B7B7B"/>
<path d="M8.39 62.6883C8.35 62.6527 8.2 62.6171 8.04 62.5993C7.47 62.5281 7.2 62.4391 7.2 62.3056C7.2 62.1899 7.3 62.181 7.82 62.2255C8.17 62.2611 8.46 62.3056 8.48 62.3234C8.5 62.3412 8.5 62.4391 8.48 62.5459C8.46 62.6527 8.42 62.715 8.39 62.6883V62.6883Z" fill="#7B7B7B"/>
<path d="M92.2 62.3679C92.2 62.2255 92.27 62.1899 92.55 62.1899C92.95 62.1899 93.04 62.4035 92.68 62.4925C92.3 62.5815 92.2 62.5548 92.2 62.3679Z" fill="#7B7B7B"/>
<path d="M93.3 62.1899C93.3 62.0475 93.37 62.0119 93.65 62.0119C94.05 62.0119 94.14 62.2255 93.78 62.3145C93.4 62.4035 93.3 62.3768 93.3 62.1899Z" fill="#7B7B7B"/>
<path d="M3.68 61.8606C3.35 61.7894 3.48 61.567 3.85 61.567C4.13 61.567 4.2 61.6026 4.2 61.745C4.2 61.9229 4.06 61.9496 3.68 61.8606Z" fill="#7B7B7B"/>
<path d="M1.98 61.5937C1.65 61.5225 1.78 61.3 2.15 61.3C2.43 61.3 2.5 61.3356 2.5 61.478C2.5 61.656 2.36 61.6827 1.98 61.5937Z" fill="#7B7B7B"/>
<path d="M97.5 61.4958C97.5 61.3623 97.6 61.3089 97.96 61.2644C98.64 61.1843 98.8 61.1932 98.8 61.3356C98.8 61.4691 98.5 61.5581 97.88 61.6204C97.56 61.656 97.5 61.6382 97.5 61.4958Z" fill="#7B7B7B"/>
<path d="M99.7 60.6326C99.7 60.2766 99.94 60.1965 100.04 60.5258C100.14 60.8551 100.11 60.9441 99.9 60.9441C99.74 60.9441 99.7 60.8818 99.7 60.6326Z" fill="#7B7B7B"/>
<path d="M1.14441e-05 60.2143C1.14441e-05 59.9473 0.130012 59.6982 0.260012 59.6982C0.350012 59.6982 0.400011 59.805 0.400011 60.0096C0.400011 60.2588 0.360011 60.3211 0.200011 60.3211C0.0900114 60.3211 1.14441e-05 60.2677 1.14441e-05 60.2143Z" fill="#7B7B7B"/>
<path d="M28.6 59.4312C28.6 59.2443 28.7 59.2176 29.08 59.3066C29.44 59.3956 29.35 59.6092 28.95 59.6092C28.67 59.6092 28.6 59.5736 28.6 59.4312Z" fill="#7B7B7B"/>
<path d="M33.1 59.4846C33.1 59.3689 33.38 59.2532 33.68 59.2532C33.74 59.2532 33.8 59.3333 33.8 59.4312C33.8 59.5736 33.73 59.6092 33.45 59.6092C33.22 59.6092 33.1 59.5647 33.1 59.4846Z" fill="#7B7B7B"/>
<path d="M26.6 59.2532C26.6 59.0663 26.7 59.0396 27.08 59.1286C27.44 59.2176 27.35 59.4312 26.95 59.4312C26.67 59.4312 26.6 59.3956 26.6 59.2532Z" fill="#7B7B7B"/>
<path d="M34.7 59.2799C34.7 59.1642 34.79 59.1108 35.05 59.1019C35.34 59.0752 35.4 59.1019 35.4 59.2532C35.4 59.3956 35.33 59.4312 35.05 59.4312C34.78 59.4312 34.7 59.3956 34.7 59.2799Z" fill="#7B7B7B"/>
<path d="M0.0999985 59.0574C0.0999985 58.7904 0.229999 58.5413 0.359999 58.5413C0.449999 58.5413 0.499999 58.6481 0.499999 58.8527C0.499999 59.1019 0.459999 59.1642 0.299998 59.1642C0.189998 59.1642 0.0999985 59.1108 0.0999985 59.0574Z" fill="#7B7B7B"/>
<path d="M24.5 58.9862C24.5 58.7994 24.6 58.7727 24.98 58.8617C25.34 58.9506 25.25 59.1642 24.85 59.1642C24.57 59.1642 24.5 59.1286 24.5 58.9862Z" fill="#7B7B7B"/>
<path d="M29.98 58.568C29.62 58.4879 29.78 58.2743 30.2 58.2743C30.53 58.2743 30.6 58.301 30.6 58.4523C30.6 58.6303 30.4 58.6659 29.98 58.568Z" fill="#7B7B7B"/>
<path d="M32 58.4523C32 58.3099 32.07 58.2743 32.35 58.2743C32.75 58.2743 32.84 58.4879 32.48 58.5769C32.1 58.6659 32 58.6392 32 58.4523Z" fill="#7B7B7B"/>
<path d="M28.58 58.479C28.25 58.4078 28.38 58.1853 28.75 58.1853C29.03 58.1853 29.1 58.2209 29.1 58.3633C29.1 58.5413 28.96 58.568 28.58 58.479Z" fill="#7B7B7B"/>
<path d="M33.4 58.3633C33.4 58.2209 33.47 58.1853 33.75 58.1853C34.15 58.1853 34.24 58.3989 33.88 58.4879C33.5 58.5769 33.4 58.5502 33.4 58.3633Z" fill="#7B7B7B"/>
<path d="M27.58 58.39C27.25 58.3188 27.38 58.0963 27.75 58.0963C28.03 58.0963 28.1 58.1319 28.1 58.2743C28.1 58.4523 27.96 58.479 27.58 58.39Z" fill="#7B7B7B"/>
<path d="M19.7 58.1853C19.7 57.9984 19.8 57.9717 20.18 58.0607C20.54 58.1497 20.45 58.3633 20.05 58.3633C19.77 58.3633 19.7 58.3277 19.7 58.1853Z" fill="#7B7B7B"/>
<path d="M16 57.6158C16 57.4111 16.02 57.4022 16.35 57.5001C16.54 57.5535 16.7 57.6425 16.7 57.7137C16.7 57.7849 16.57 57.8294 16.35 57.8294C16.05 57.8294 16 57.8027 16 57.6158Z" fill="#7B7B7B"/>
<path d="M4.6 57.4378C4.6 57.3221 4.88 57.2064 5.18 57.2064C5.24 57.2064 5.3 57.2865 5.3 57.3844C5.3 57.5268 5.23 57.5624 4.95 57.5624C4.72 57.5624 4.6 57.5179 4.6 57.4378Z" fill="#7B7B7B"/>
<path d="M13.4 57.3844C13.4 57.1975 13.5 57.1708 13.88 57.2598C14.24 57.3488 14.15 57.5624 13.75 57.5624C13.47 57.5624 13.4 57.5268 13.4 57.3844Z" fill="#7B7B7B"/>
<path d="M37.7 57.3488C37.7 57.1441 37.74 57.1174 38.05 57.1174C38.24 57.1174 38.4 57.1441 38.4 57.1708C38.4 57.2598 38.14 57.4467 37.92 57.509C37.73 57.5624 37.7 57.5446 37.7 57.3488Z" fill="#7B7B7B"/>
<path d="M39.5 57.4467C39.5 57.4378 39.66 57.2954 39.85 57.1263C40.2 56.8327 40.2 56.8327 40.2 57.153C40.2 57.4556 40.18 57.4734 39.85 57.4734C39.66 57.4734 39.5 57.4645 39.5 57.4467Z" fill="#7B7B7B"/>
<path d="M0.799999 57.1619C0.799999 56.9483 1.02 56.8505 1.53 56.8505C1.98 56.8505 1.84 57.0729 1.3 57.2242C0.799999 57.3666 0.799999 57.3666 0.799999 57.1619Z" fill="#7B7B7B"/>
<path d="M7 57.2598C7 57.1441 7.28 57.0284 7.58 57.0284C7.64 57.0284 7.7 57.1085 7.7 57.2064C7.7 57.3488 7.63 57.3844 7.35 57.3844C7.12 57.3844 7 57.3399 7 57.2598Z" fill="#7B7B7B"/>
<path d="M10.4 57.2064C10.4 57.0195 10.5 56.9928 10.88 57.0818C11.24 57.1708 11.15 57.3844 10.75 57.3844C10.47 57.3844 10.4 57.3488 10.4 57.2064Z" fill="#7B7B7B"/>
<path d="M18.83 57.0996C18.38 56.9662 18.4 56.7615 18.85 56.7615C19.16 56.7615 19.2 56.7882 19.2 56.984C19.2 57.1085 19.19 57.2064 19.18 57.1975C19.16 57.1886 19 57.1441 18.83 57.0996Z" fill="#7B7B7B"/>
<path d="M17.63 56.9216C17.18 56.7882 17.2 56.5835 17.65 56.5835C17.96 56.5835 18 56.6102 18 56.806C18 56.9305 17.99 57.0284 17.98 57.0195C17.96 57.0106 17.8 56.9661 17.63 56.9216Z" fill="#7B7B7B"/>
<path d="M2.1 56.7793C2.1 56.6547 2.19 56.5924 2.41 56.5479C2.92 56.4589 3.2 56.4856 3.2 56.6191C3.2 56.7437 2.98 56.8327 2.43 56.9039C2.15 56.9483 2.1 56.9306 2.1 56.7793Z" fill="#7B7B7B"/>
<path d="M15.08 56.6102C14.75 56.539 14.88 56.3165 15.25 56.3165C15.53 56.3165 15.6 56.3521 15.6 56.4945C15.6 56.6725 15.46 56.6992 15.08 56.6102Z" fill="#7B7B7B"/>
<path d="M6 56.2275C6 56.0851 6.07 56.0495 6.35 56.0495C6.75 56.0495 6.84 56.2631 6.48 56.3521C6.1 56.4411 6 56.4144 6 56.2275Z" fill="#7B7B7B"/>
<path d="M11.88 56.3432C11.55 56.272 11.68 56.0495 12.05 56.0495C12.33 56.0495 12.4 56.0851 12.4 56.2275C12.4 56.4055 12.26 56.4322 11.88 56.3432Z" fill="#7B7B7B"/>
<path d="M7.8 56.1385C7.8 55.9962 7.87 55.9606 8.15 55.9606C8.55 55.9606 8.64 56.1741 8.28 56.2631C7.9 56.3521 7.8 56.3254 7.8 56.1385Z" fill="#7B7B7B"/>
<path d="M9.98 56.2542C9.65 56.183 9.78 55.9606 10.15 55.9606C10.43 55.9606 10.5 55.9962 10.5 56.1385C10.5 56.3165 10.36 56.3432 9.98 56.2542Z" fill="#7B7B7B"/>
<path d="M40.8 56.0851C40.8 55.9783 41.14 55.5156 41.22 55.5156C41.26 55.5156 41.3 55.658 41.3 55.8271C41.3 56.1029 41.27 56.1385 41.05 56.1385C40.91 56.1385 40.8 56.1118 40.8 56.0851Z" fill="#7B7B7B"/>
<path d="M41.33 55.0528C41.52 54.6435 41.7 54.6257 41.7 55.0172C41.7 55.302 41.67 55.3376 41.45 55.3376C41.21 55.3376 41.2 55.3287 41.33 55.0528Z" fill="#7B7B7B"/>
<path d="M40.1 54.9372C40.1 54.7681 40.15 54.6257 40.2 54.6257C40.26 54.6257 40.3 54.5278 40.3 54.4032C40.3 54.2252 40.35 54.1807 40.55 54.1807C40.8 54.1807 40.8 54.1807 40.59 54.6435C40.34 55.2041 40.31 55.2486 40.19 55.2486C40.14 55.2486 40.1 55.1062 40.1 54.9372Z" fill="#7B7B7B"/>
<path d="M41.68 54.1807C41.85 53.7002 42.1 53.5756 42.1 53.985C42.1 54.4299 41.99 54.6257 41.75 54.6257C41.52 54.6257 41.52 54.6257 41.68 54.1807Z" fill="#7B7B7B"/>
<path d="M42 53.273C42 53.0061 42.13 52.7569 42.26 52.7569C42.35 52.7569 42.4 52.8637 42.4 53.0683C42.4 53.3175 42.36 53.3798 42.2 53.3798C42.09 53.3798 42 53.3264 42 53.273Z" fill="#7B7B7B"/>
<path d="M42.2 52.2941C42.2 52.0272 42.33 51.778 42.46 51.778C42.55 51.778 42.6 51.8848 42.6 52.0895C42.6 52.3386 42.56 52.4009 42.4 52.4009C42.29 52.4009 42.2 52.3475 42.2 52.2941Z" fill="#7B7B7B"/>
<path d="M41.1 51.1105C41.1 50.6656 41.13 50.5321 41.25 50.5321C41.43 50.5321 41.54 51.0394 41.45 51.4131C41.41 51.5644 41.32 51.689 41.24 51.689C41.13 51.689 41.1 51.5466 41.1 51.1105Z" fill="#7B7B7B"/>
<path d="M1.93 49.8024C1.95 49.6155 2.03 49.4998 2.13 49.482C2.26 49.4553 2.3 49.5176 2.3 49.7668C2.3 50.0338 2.26 50.0872 2.09 50.0872C1.92 50.0872 1.89 50.0427 1.93 49.8024V49.8024Z" fill="#7B7B7B"/>
<path d="M40.9 49.5087C40.9 49.1527 41.14 49.0727 41.24 49.4019C41.34 49.7312 41.31 49.8202 41.1 49.8202C40.94 49.8202 40.9 49.7579 40.9 49.5087Z" fill="#7B7B7B"/>
<path d="M2.2 49.0193C2.2 48.9659 2.27 48.69 2.37 48.3963C2.55 47.7912 2.8 47.6666 2.8 48.1739C2.8 48.3429 2.76 48.4853 2.7 48.4853C2.65 48.4853 2.6 48.6277 2.6 48.7968C2.6 49.046 2.56 49.1083 2.4 49.1083C2.29 49.1083 2.2 49.0638 2.2 49.0193Z" fill="#7B7B7B"/>
<path d="M41.65 48.2183C41.45 47.8802 41.46 47.8624 41.75 47.8624C41.97 47.8624 42 47.898 42 48.1738C42 48.5565 41.86 48.5743 41.65 48.2183Z" fill="#7B7B7B"/>
<path d="M48.8 46.5275C48.8 46.3406 48.96 46.305 49.38 46.4029C49.77 46.5008 49.65 46.7055 49.2 46.7055C48.87 46.7055 48.8 46.6788 48.8 46.5275Z" fill="#7B7B7B"/>
<path d="M49.9 46.5809C49.9 46.4652 50.18 46.3495 50.48 46.3495C50.54 46.3495 50.6 46.4296 50.6 46.5275C50.6 46.6699 50.53 46.7055 50.25 46.7055C50.02 46.7055 49.9 46.661 49.9 46.5809Z" fill="#7B7B7B"/>
<path d="M5.32 46.4207C5.35 46.3584 5.51 46.2606 5.68 46.1983C5.99 46.0826 6 46.0915 6 46.3051C6 46.5008 5.96 46.5275 5.64 46.5275C5.41 46.5275 5.3 46.4919 5.32 46.4207Z" fill="#7B7B7B"/>
<path d="M47 46.3495C47 46.1627 47.1 46.136 47.48 46.225C47.84 46.3139 47.75 46.5275 47.35 46.5275C47.07 46.5275 47 46.4919 47 46.3495Z" fill="#7B7B7B"/>
<path d="M38.5 46.2161C38.5 46.0292 38.45 45.9936 38.2 45.9936C37.93 45.9936 37.9 45.9669 37.9 45.7266C37.9 45.4596 37.9 45.4596 38.15 45.602C38.29 45.6821 38.59 45.9046 38.82 46.0915C39.25 46.4385 39.25 46.4385 38.87 46.4385C38.54 46.4385 38.5 46.4118 38.5 46.2161Z" fill="#7B7B7B"/>
<path d="M45.7 46.0737C45.7 45.9224 45.75 45.8957 46.02 45.9313C46.23 45.9491 46.36 46.0203 46.38 46.1093C46.41 46.225 46.34 46.2605 46.06 46.2605C45.76 46.2605 45.7 46.225 45.7 46.0737Z" fill="#7B7B7B"/>
<path d="M4.1 45.7622C4.1 45.5753 4.15 45.5486 4.45 45.5486C4.85 45.5486 4.9 45.6732 4.58 45.8334C4.21 46.0114 4.1 45.9936 4.1 45.7622V45.7622Z" fill="#7B7B7B"/>
<path d="M48.38 45.5753C48.05 45.5041 48.18 45.2816 48.55 45.2816C48.83 45.2816 48.9 45.3172 48.9 45.4596C48.9 45.6376 48.76 45.6643 48.38 45.5753Z" fill="#7B7B7B"/>
<path d="M7.9 45.4685C7.9 45.3617 7.95 45.335 8.58 45.1126C9.1 44.9257 9.1 44.9257 9.1 45.1482C9.1 45.3261 9.05 45.3706 8.85 45.3706C8.71 45.3706 8.6 45.4151 8.6 45.4596C8.6 45.513 8.44 45.5486 8.25 45.5486C8.06 45.5486 7.9 45.513 7.9 45.4685Z" fill="#7B7B7B"/>
<path d="M47.58 45.4863C47.25 45.4151 47.38 45.1927 47.75 45.1927C48.03 45.1927 48.1 45.2283 48.1 45.3706C48.1 45.5486 47.96 45.5753 47.58 45.4863Z" fill="#7B7B7B"/>
<path d="M51.5 45.2816C51.5 45.1393 51.57 45.1037 51.85 45.1037C52.25 45.1037 52.34 45.3172 51.98 45.4062C51.6 45.4952 51.5 45.4685 51.5 45.2816Z" fill="#7B7B7B"/>
<path d="M5.7 45.1393C5.7 44.9524 5.75 44.9257 6.05 44.9257C6.45 44.9257 6.5 45.0503 6.18 45.2105C5.81 45.3884 5.7 45.3706 5.7 45.1393V45.1393Z" fill="#7B7B7B"/>
<path d="M46.28 45.2194C45.95 45.1482 46.08 44.9257 46.45 44.9257C46.73 44.9257 46.8 44.9613 46.8 45.1037C46.8 45.2817 46.66 45.3083 46.28 45.2194Z" fill="#7B7B7B"/>
<path d="M3.57 45.0414C3.6 44.9524 3.71 44.81 3.82 44.721C3.99 44.5697 4 44.5697 4 44.8812C4 45.1571 3.97 45.1927 3.75 45.1927C3.56 45.1927 3.52 45.1571 3.57 45.0414V45.0414Z" fill="#7B7B7B"/>
<path d="M52.8 44.9702C52.8 44.7744 52.84 44.7477 53.16 44.7477C53.6 44.7477 53.58 44.9079 53.12 45.077C52.81 45.1927 52.8 45.1838 52.8 44.9702Z" fill="#7B7B7B"/>
<path d="M36.4 44.8723C36.4 44.6765 36.43 44.6587 36.62 44.7121C36.84 44.7744 37.1 44.9613 37.1 45.0503C37.1 45.077 36.94 45.1037 36.75 45.1037C36.44 45.1037 36.4 45.077 36.4 44.8723Z" fill="#7B7B7B"/>
<path d="M45.03 44.8367C44.51 44.632 44.48 44.4807 44.95 44.4807C45.14 44.4807 45.3 44.5252 45.3 44.5697C45.3 44.6231 45.41 44.6587 45.55 44.6587C45.73 44.6587 45.8 44.7032 45.8 44.8367C45.8 45.0592 45.59 45.0592 45.03 44.8367Z" fill="#7B7B7B"/>
<path d="M42.2 44.7922C42.2 44.7121 42.11 44.6587 41.95 44.6587C41.81 44.6587 41.7 44.6231 41.7 44.5697C41.7 44.5252 41.63 44.4807 41.55 44.4807C41.47 44.4807 41.4 44.4451 41.4 44.3917C41.4 44.3473 41.33 44.3028 41.25 44.3028C41.15 44.3028 41.1 44.2138 41.1 44.0358C41.1 43.7866 41.24 43.6709 41.32 43.84C41.36 43.9379 42.42 44.5697 42.53 44.5697C42.63 44.5697 42.9 44.8011 42.9 44.8723C42.9 44.899 42.74 44.9257 42.55 44.9257C42.31 44.9257 42.2 44.8812 42.2 44.7922V44.7922Z" fill="#7B7B7B"/>
<path d="M37.95 44.5608C37.65 44.3028 37.65 44.3027 38.03 44.3027C38.38 44.3027 38.4 44.3205 38.4 44.5697C38.4 44.899 38.33 44.899 37.95 44.5608Z" fill="#7B7B7B"/>
<path d="M55.95 44.6587C55.98 44.6142 56.14 44.4896 56.3 44.3917C56.6 44.2049 56.6 44.2049 56.6 44.4718C56.6 44.7299 56.57 44.7477 56.24 44.7477C56.04 44.7477 55.91 44.7121 55.95 44.6587Z" fill="#7B7B7B"/>
<path d="M7.6 44.4362C7.6 44.2405 7.64 44.2138 7.96 44.2138C8.4 44.2138 8.38 44.3739 7.92 44.543C7.61 44.6587 7.6 44.6498 7.6 44.4362V44.4362Z" fill="#7B7B7B"/>
<path d="M35.5 44.5786C35.5 44.5341 35.37 44.4807 35.2 44.454C34.97 44.4095 34.9 44.3472 34.9 44.1782C34.9 43.9201 34.99 43.929 35.6 44.2138C35.85 44.3295 36.08 44.4184 36.13 44.4095C36.17 44.4006 36.2 44.454 36.2 44.5252C36.2 44.6142 36.09 44.6587 35.85 44.6587C35.66 44.6587 35.5 44.6231 35.5 44.5786Z" fill="#7B7B7B"/>
<path d="M4.5 44.4273C4.5 44.3384 4.76 44.1515 4.98 44.0892C5.17 44.0358 5.2 44.0536 5.2 44.2494C5.2 44.454 5.16 44.4807 4.85 44.4807C4.66 44.4807 4.5 44.454 4.5 44.4273Z" fill="#7B7B7B"/>
<path d="M36.94 43.9913C36.82 43.9201 36.7 43.8934 36.66 43.9201C36.63 43.9468 36.6 43.9112 36.6 43.8311C36.6 43.7154 36.69 43.6798 36.95 43.6798C37.26 43.6798 37.3 43.7065 37.3 43.9023C37.3 44.1604 37.23 44.1782 36.94 43.9913Z" fill="#7B7B7B"/>
<path d="M34 43.9468C34 43.9023 33.89 43.8578 33.75 43.8578C33.55 43.8578 33.5 43.8133 33.5 43.6353C33.5 43.4129 33.5 43.4128 34.02 43.5997C34.65 43.8222 34.7 43.8489 34.7 43.9557C34.7 44.0002 34.54 44.0358 34.35 44.0358C34.16 44.0358 34 44.0002 34 43.9468Z" fill="#7B7B7B"/>
<path d="M42.8 43.8845C42.64 43.8222 42.4 43.6264 42.4 43.5552C42.4 43.5285 42.56 43.5018 42.75 43.5018C43.06 43.5018 43.1 43.5285 43.1 43.7243C43.1 43.9557 43.06 43.9735 42.8 43.8845V43.8845Z" fill="#7B7B7B"/>
<path d="M9.9 43.6353C9.9 43.4395 9.94 43.4128 10.26 43.4128C10.7 43.4128 10.68 43.573 10.22 43.7421C9.91 43.8578 9.9 43.8489 9.9 43.6353V43.6353Z" fill="#7B7B7B"/>
<path d="M13.2 43.7332C13.2 43.6175 13.48 43.5018 13.78 43.5018C13.84 43.5018 13.9 43.5819 13.9 43.6798C13.9 43.8222 13.83 43.8578 13.55 43.8578C13.32 43.8578 13.2 43.8133 13.2 43.7332Z" fill="#7B7B7B"/>
<path d="M4.2 43.6086C4.2 43.4217 4.77 42.3094 4.88 42.2738C4.96 42.256 5 42.3539 5 42.5585C5 42.7365 4.96 42.8789 4.9 42.8789C4.85 42.8789 4.8 42.9768 4.8 43.1014C4.8 43.226 4.76 43.3239 4.72 43.3239C4.67 43.3239 4.54 43.4039 4.42 43.5018C4.3 43.6086 4.2 43.6531 4.2 43.6086V43.6086Z" fill="#7B7B7B"/>
<path d="M57.45 43.573C57.48 43.5107 57.64 43.3861 57.8 43.3061C58.1 43.1548 58.1 43.1548 58.1 43.4128C58.1 43.662 58.07 43.6798 57.75 43.6798C57.52 43.6798 57.42 43.6442 57.45 43.573Z" fill="#7B7B7B"/>
<path d="M32.7 43.3684C32.7 43.1548 32.71 43.1459 33.02 43.2616C33.48 43.4307 33.5 43.5908 33.06 43.5908C32.74 43.5908 32.7 43.5641 32.7 43.3684Z" fill="#7B7B7B"/>
<path d="M35.6 43.4306C35.6 43.3951 35.47 43.315 35.3 43.2616C34.89 43.1281 34.92 42.9679 35.35 42.9679C35.67 42.9679 35.7 42.9857 35.7 43.2349C35.7 43.3862 35.68 43.5018 35.65 43.5018C35.62 43.5018 35.6 43.4662 35.6 43.4306V43.4306Z" fill="#7B7B7B"/>
<path d="M39.8 43.137C39.8 42.87 39.8 42.87 40.1 43.0569C40.54 43.3328 40.55 43.4128 40.16 43.4128C39.83 43.4128 39.8 43.395 39.8 43.137Z" fill="#7B7B7B"/>
<path d="M11.9 43.0035C11.9 42.8166 11.95 42.7899 12.25 42.7899C12.47 42.7899 12.6 42.8344 12.6 42.9056C12.6 42.9768 12.44 43.0658 12.25 43.1192C11.92 43.2171 11.9 43.2082 11.9 43.0035Z" fill="#7B7B7B"/>
<path d="M16.5 42.9323C16.5 42.8077 16.72 42.7187 17.28 42.6475C17.55 42.603 17.6 42.6208 17.6 42.7721C17.6 42.8967 17.51 42.959 17.29 43.0035C16.78 43.0925 16.5 43.0658 16.5 42.9323Z" fill="#7B7B7B"/>
<path d="M30.9 42.8789C30.9 42.692 31 42.6653 31.38 42.7543C31.74 42.8433 31.65 43.0569 31.25 43.0569C30.97 43.0569 30.9 43.0213 30.9 42.8789Z" fill="#7B7B7B"/>
<path d="M56.9 42.7009C56.9 42.4517 56.93 42.4339 57.25 42.4339C57.66 42.4339 57.64 42.5852 57.2 42.8077C56.9 42.959 56.9 42.959 56.9 42.7009Z" fill="#7B7B7B"/>
<path d="M5.5 42.6653C5.5 42.4606 5.54 42.4339 5.85 42.4339C6.1 42.4339 6.2 42.4695 6.2 42.5763C6.2 42.6475 6.16 42.692 6.11 42.6653C6.06 42.6297 6 42.6475 5.98 42.692C5.97 42.7276 5.85 42.7988 5.73 42.8255C5.53 42.8789 5.5 42.8611 5.5 42.6653Z" fill="#7B7B7B"/>
<path d="M33.93 42.7454C33.5 42.5852 33.51 42.4339 33.95 42.4339C34.26 42.4339 34.3 42.4606 34.3 42.6564C34.3 42.781 34.29 42.8789 34.28 42.8789C34.26 42.87 34.1 42.8166 33.93 42.7454Z" fill="#7B7B7B"/>
<path d="M39 42.6119C39 42.4695 39.02 42.345 39.06 42.345C39.09 42.345 39.25 42.4606 39.43 42.6119C39.75 42.8789 39.75 42.8789 39.38 42.8789C39.02 42.8789 39 42.8611 39 42.6119V42.6119Z" fill="#7B7B7B"/>
<path d="M94.1 42.6564C94.1 42.4429 94.11 42.434 94.42 42.5496C94.88 42.7187 94.9 42.8789 94.46 42.8789C94.14 42.8789 94.1 42.8522 94.1 42.6564V42.6564Z" fill="#7B7B7B"/>
<path d="M7.9 42.6475C7.9 42.5763 7.94 42.5318 7.99 42.5585C8.04 42.5941 8.1 42.5852 8.12 42.5496C8.13 42.5051 8.44 42.3628 8.8 42.2115C9.16 42.0691 9.48 41.9089 9.52 41.8555C9.56 41.811 9.6 41.9 9.6 42.0602C9.6 42.3183 9.57 42.345 9.3 42.345C9.12 42.345 9 42.3895 9 42.4606C9 42.6208 8.57 42.7899 8.2 42.7899C7.99 42.7899 7.9 42.7454 7.9 42.6475Z" fill="#7B7B7B"/>
<path d="M40.6 42.4339C40.25 42.1759 40.25 42.1759 40.63 42.167C40.98 42.167 41 42.1848 41 42.4339C41 42.5852 40.99 42.7009 40.97 42.7009C40.96 42.7009 40.79 42.5852 40.6 42.4339Z" fill="#7B7B7B"/>
<path d="M18.8 42.4873C18.8 42.3716 19.33 42.1937 19.52 42.2382C19.56 42.2471 19.71 42.2115 19.85 42.167C20.07 42.0958 20.1 42.1047 20.1 42.2916C20.1 42.4695 20.04 42.5051 19.64 42.5585C18.95 42.6386 18.8 42.6297 18.8 42.4873V42.4873Z" fill="#7B7B7B"/>
<path d="M6.8 42.0335C6.8 41.8377 6.84 41.811 7.15 41.811C7.58 41.811 7.59 41.9 7.21 42.1047C6.83 42.3005 6.8 42.3005 6.8 42.0335Z" fill="#7B7B7B"/>
<path d="M23.1 42.0424C23.1 41.9267 23.38 41.811 23.68 41.811C23.74 41.811 23.8 41.8911 23.8 41.989C23.8 42.1314 23.73 42.167 23.45 42.167C23.22 42.167 23.1 42.1225 23.1 42.0424Z" fill="#7B7B7B"/>
<path d="M39.85 41.9445C39.69 41.8288 39.51 41.7309 39.47 41.722C39.43 41.722 39.3 41.6508 39.19 41.5618C39.09 41.464 38.87 41.3394 38.72 41.2682C38.43 41.1347 38.2 40.9656 38.2 40.8855C38.2 40.8588 38.36 40.8321 38.55 40.8321C38.74 40.8321 38.9 40.8766 38.9 40.9211C38.9 40.9745 38.97 41.0101 39.05 41.0101C39.13 41.0101 39.2 41.0546 39.2 41.0991C39.2 41.1525 39.27 41.1881 39.35 41.1881C39.44 41.1881 39.5 41.2682 39.5 41.4106C39.5 41.6063 39.54 41.633 39.85 41.633C40.17 41.633 40.2 41.6508 40.2 41.9C40.2 42.0513 40.19 42.167 40.18 42.167C40.16 42.167 40.02 42.0691 39.85 41.9445V41.9445Z" fill="#7B7B7B"/>
<path d="M60 42.0335C60 41.9623 60.03 41.9089 60.08 41.9178C60.12 41.9267 60.3 41.8644 60.47 41.7843C60.65 41.6953 60.91 41.5885 61.05 41.544C61.28 41.4639 61.3 41.4817 61.3 41.6775C61.3 41.8644 61.25 41.9 61 41.9C60.8 41.9 60.7 41.9445 60.7 42.0335C60.7 42.1225 60.59 42.167 60.35 42.167C60.11 42.167 60 42.1225 60 42.0335V42.0335Z" fill="#7B7B7B"/>
<path d="M30.38 41.7398C29.45 41.4995 29.2 41.2771 29.85 41.2771C30.04 41.2771 30.2 41.3216 30.2 41.3661C30.2 41.4194 30.36 41.455 30.55 41.455C30.74 41.455 30.9 41.4995 30.9 41.544C30.9 41.5974 31.06 41.633 31.25 41.633C31.53 41.633 31.6 41.6686 31.6 41.811C31.6 42.0335 31.48 42.0246 30.38 41.7398Z" fill="#7B7B7B"/>
<path d="M11.12 41.3483C11.15 41.286 11.31 41.1881 11.48 41.1258C11.79 41.0101 11.8 41.019 11.8 41.2326C11.8 41.4284 11.76 41.455 11.44 41.455C11.21 41.455 11.1 41.4195 11.12 41.3483Z" fill="#7B7B7B"/>
<path d="M19.5 41.286C19.5 41.1703 19.56 41.0991 19.68 41.0991C19.77 41.0991 20.09 41.0724 20.38 41.0457C20.81 40.9923 20.9 41.0101 20.9 41.1258C20.9 41.2593 20.78 41.3038 19.93 41.4105C19.54 41.4639 19.5 41.455 19.5 41.286Z" fill="#7B7B7B"/>
<path d="M28.53 41.3483C28.07 41.2593 27.92 41.0101 28.33 41.0101C28.91 41.0101 29.3 41.1258 29.3 41.286C29.3 41.4728 29.18 41.4817 28.53 41.3483V41.3483Z" fill="#7B7B7B"/>
<path d="M62.3 41.1792C62.3 41.0813 62.85 40.8499 63.31 40.7698C63.55 40.7253 63.6 40.752 63.6 40.8944C63.6 41.019 63.49 41.0991 63.21 41.1703C62.73 41.3038 62.3 41.3038 62.3 41.1792Z" fill="#7B7B7B"/>
<path d="M9.4 40.8677C9.4 40.6808 9.45 40.6541 9.75 40.6541C10.15 40.6541 10.2 40.7787 9.88 40.9389C9.51 41.1169 9.4 41.0991 9.4 40.8677V40.8677Z" fill="#7B7B7B"/>
<path d="M24 40.9033C24 40.7609 24.09 40.7431 24.8 40.7431C25.51 40.7431 25.6 40.7609 25.6 40.9033C25.6 41.0457 25.51 41.0635 24.8 41.0635C24.09 41.0635 24 41.0457 24 40.9033Z" fill="#7B7B7B"/>
<path d="M35.66 40.9656C35.58 40.8944 35.44 40.8321 35.36 40.8321C35.26 40.8321 35.2 40.752 35.2 40.6185C35.2 40.3605 35.3 40.3694 35.9 40.6541C36.15 40.7698 36.38 40.8588 36.43 40.8499C36.47 40.841 36.5 40.8944 36.5 40.9656C36.5 41.0546 36.4 41.0991 36.16 41.0991C35.97 41.0991 35.75 41.0368 35.66 40.9656Z" fill="#7B7B7B"/>
<path d="M88.3 40.9211C88.3 40.7342 88.4 40.7075 88.78 40.7965C89.14 40.8855 89.05 41.0991 88.65 41.0991C88.37 41.0991 88.3 41.0635 88.3 40.9211Z" fill="#7B7B7B"/>
<path d="M13.12 40.6363C13.15 40.574 13.31 40.4761 13.48 40.4139C13.79 40.2982 13.8 40.3071 13.8 40.5206C13.8 40.7164 13.76 40.7431 13.44 40.7431C13.21 40.7431 13.1 40.7075 13.12 40.6363Z" fill="#7B7B7B"/>
<path d="M86.7 40.5651C86.7 40.3783 86.8 40.3516 87.18 40.4405C87.54 40.5295 87.45 40.7431 87.05 40.7431C86.77 40.7431 86.7 40.7075 86.7 40.5651Z" fill="#7B7B7B"/>
<path d="M61.7 40.2537C61.7 40.0579 61.74 40.0312 62.06 40.0312C62.5 40.0312 62.48 40.1914 62.02 40.3605C61.71 40.4761 61.7 40.4672 61.7 40.2537Z" fill="#7B7B7B"/>
<path d="M11.2 40.1647C11.2 39.9867 11.25 39.9422 11.45 39.9422C11.59 39.9422 11.7 39.9066 11.7 39.8532C11.7 39.8087 11.86 39.7642 12.05 39.7642C12.24 39.7642 12.4 39.7998 12.4 39.8443C12.4 39.9511 12.35 39.9778 11.72 40.2003C11.2 40.3872 11.2 40.3872 11.2 40.1647Z" fill="#7B7B7B"/>
<path d="M36.84 40.2537C36.72 40.1825 36.6 40.1558 36.56 40.1825C36.53 40.2092 36.5 40.1736 36.5 40.0935C36.5 39.9778 36.59 39.9422 36.85 39.9422C37.16 39.9422 37.2 39.9689 37.2 40.1647C37.2 40.4228 37.13 40.4405 36.84 40.2537Z" fill="#7B7B7B"/>
<path d="M83.33 40.1469C83.08 40.1202 83 40.0668 83 39.9333C83 39.7731 83.05 39.7642 83.48 39.8176C83.74 39.8443 84.03 39.8799 84.13 39.8799C84.22 39.8888 84.3 39.96 84.3 40.049C84.3 40.2181 84.12 40.2359 83.33 40.1469V40.1469Z" fill="#7B7B7B"/>
<path d="M88.63 40.0045C88.14 39.8888 87.9 39.782 87.9 39.693C87.9 39.5862 88 39.5684 88.42 39.6129C88.71 39.6485 88.96 39.7108 88.98 39.7642C89 39.8087 89.17 39.8532 89.36 39.8532C89.63 39.8532 89.7 39.8888 89.7 40.0312C89.7 40.2448 89.59 40.2448 88.63 40.0045V40.0045Z" fill="#7B7B7B"/>
<path d="M67.4 39.9956C67.4 39.8799 67.68 39.7642 67.98 39.7642C68.04 39.7642 68.1 39.8443 68.1 39.9422C68.1 40.0846 68.03 40.1202 67.75 40.1202C67.52 40.1202 67.4 40.0757 67.4 39.9956Z" fill="#7B7B7B"/>
<path d="M5.9 39.9422C5.98 39.8977 6.02 39.8532 5.97 39.8532C5.87 39.8532 6.2 39.4083 6.31 39.4083C6.36 39.4083 6.4 39.5506 6.4 39.7197C6.4 40.0134 6.38 40.0312 6.08 40.0312C5.83 40.0312 5.79 40.0045 5.9 39.9422V39.9422Z" fill="#7B7B7B"/>
<path d="M81.5 39.7642C81.5 39.5773 81.6 39.5506 81.98 39.6396C82.34 39.7286 82.25 39.9422 81.85 39.9422C81.57 39.9422 81.5 39.9066 81.5 39.7642Z" fill="#7B7B7B"/>
<path d="M35.7 39.782C35.7 39.7464 35.57 39.6663 35.4 39.6129C34.99 39.4795 35.02 39.3193 35.45 39.3193C35.77 39.3193 35.8 39.3371 35.8 39.5862C35.8 39.7375 35.78 39.8532 35.75 39.8532C35.72 39.8532 35.7 39.8176 35.7 39.782V39.782Z" fill="#7B7B7B"/>
<path d="M80.6 39.6752C80.6 39.4884 80.7 39.4617 81.08 39.5506C81.44 39.6396 81.35 39.8532 80.95 39.8532C80.67 39.8532 80.6 39.8176 80.6 39.6752Z" fill="#7B7B7B"/>
<path d="M70.4 39.6396C70.4 39.5239 70.68 39.4083 70.98 39.4083C71.04 39.4083 71.1 39.4883 71.1 39.5862C71.1 39.7286 71.03 39.7642 70.75 39.7642C70.52 39.7642 70.4 39.7197 70.4 39.6396Z" fill="#7B7B7B"/>
<path d="M64.2 39.4973C64.2 39.3549 64.27 39.3193 64.55 39.3193C64.95 39.3193 65.04 39.5329 64.68 39.6218C64.3 39.7108 64.2 39.6841 64.2 39.4973Z" fill="#7B7B7B"/>
<path d="M71.6 39.5506C71.6 39.435 71.88 39.3193 72.18 39.3193C72.24 39.3193 72.3 39.3994 72.3 39.4973C72.3 39.6396 72.23 39.6752 71.95 39.6752C71.72 39.6752 71.6 39.6307 71.6 39.5506Z" fill="#7B7B7B"/>
<path d="M78.3 39.4973C78.3 39.3104 78.4 39.2837 78.78 39.3727C79.14 39.4617 79.05 39.6752 78.65 39.6752C78.37 39.6752 78.3 39.6396 78.3 39.4973Z" fill="#7B7B7B"/>
<path d="M86.78 39.6129C86.45 39.5418 86.58 39.3193 86.95 39.3193C87.23 39.3193 87.3 39.3549 87.3 39.4973C87.3 39.6752 87.16 39.7019 86.78 39.6129Z" fill="#7B7B7B"/>
<path d="M31.6 39.4083C31.6 39.2214 31.7 39.1947 32.08 39.2837C32.44 39.3727 32.35 39.5862 31.95 39.5862C31.67 39.5862 31.6 39.5506 31.6 39.4083Z" fill="#7B7B7B"/>
<path d="M74 39.4616C74 39.3371 74.29 39.2303 74.68 39.2303C74.83 39.2303 74.9 39.2837 74.9 39.4083C74.9 39.5595 74.83 39.5862 74.45 39.5862C74.13 39.5862 74 39.5506 74 39.4616Z" fill="#7B7B7B"/>
<path d="M75.7 39.4083C75.7 39.2214 75.93 39.1769 76.38 39.2837C76.79 39.3816 76.64 39.5862 76.15 39.5862C75.77 39.5862 75.7 39.5595 75.7 39.4083Z" fill="#7B7B7B"/>
<path d="M34.03 39.0968C33.6 38.9366 33.61 38.7853 34.05 38.7853C34.36 38.7853 34.4 38.812 34.4 39.0078C34.4 39.1324 34.39 39.2303 34.38 39.2303C34.36 39.2214 34.2 39.168 34.03 39.0968Z" fill="#7B7B7B"/>
<path d="M14.8 38.9633C14.8 38.8209 14.87 38.7853 15.15 38.7853C15.55 38.7853 15.64 38.9989 15.28 39.0879C14.9 39.1769 14.8 39.1502 14.8 38.9633Z" fill="#7B7B7B"/>
<path d="M83.08 38.99C82.75 38.9188 82.88 38.6963 83.25 38.6963C83.53 38.6963 83.6 38.7319 83.6 38.8743C83.6 39.0523 83.46 39.079 83.08 38.99Z" fill="#7B7B7B"/>
<path d="M33.23 38.8565C32.78 38.723 32.8 38.5183 33.25 38.5183C33.56 38.5183 33.6 38.545 33.6 38.7408C33.6 38.8654 33.59 38.9633 33.58 38.9544C33.56 38.9455 33.4 38.901 33.23 38.8565Z" fill="#7B7B7B"/>
<path d="M68.2 38.7853C68.2 38.6429 68.27 38.6073 68.55 38.6073C68.95 38.6073 69.04 38.8209 68.68 38.9099C68.3 38.9989 68.2 38.9722 68.2 38.7853Z" fill="#7B7B7B"/>
<path d="M21.7 38.7497C21.7 38.634 21.98 38.5183 22.28 38.5183C22.34 38.5183 22.4 38.5984 22.4 38.6963C22.4 38.8387 22.33 38.8743 22.05 38.8743C21.82 38.8743 21.7 38.8298 21.7 38.7497Z" fill="#7B7B7B"/>
<path d="M81.48 38.812C81.15 38.7408 81.28 38.5183 81.65 38.5183C81.93 38.5183 82 38.5539 82 38.6963C82 38.8743 81.86 38.901 81.48 38.812Z" fill="#7B7B7B"/>
<path d="M26.5 38.6073C26.5 38.4205 26.6 38.3938 26.98 38.4828C27.34 38.5717 27.25 38.7853 26.85 38.7853C26.57 38.7853 26.5 38.7497 26.5 38.6073Z" fill="#7B7B7B"/>
<path d="M80.58 38.723C80.25 38.6518 80.38 38.4294 80.75 38.4294C81.03 38.4294 81.1 38.465 81.1 38.6073C81.1 38.7853 80.96 38.812 80.58 38.723Z" fill="#7B7B7B"/>
<path d="M92.96 38.6429C92.93 38.5628 92.9 38.4027 92.9 38.287C92.9 38.1535 92.84 38.0734 92.75 38.0734C92.65 38.0734 92.6 37.9755 92.6 37.7619C92.6 37.5483 92.65 37.4505 92.75 37.4505C92.83 37.4505 92.89 37.4772 92.88 37.5216C92.87 37.5572 92.98 37.7975 93.13 38.0467C93.28 38.3048 93.4 38.545 93.39 38.5717C93.39 38.6073 93.44 38.6696 93.52 38.7052C93.61 38.7586 93.55 38.7853 93.34 38.7853C93.14 38.7853 93 38.7319 92.96 38.6429V38.6429Z" fill="#7B7B7B"/>
<path d="M16.5 38.5272C16.5 38.376 16.56 38.3404 16.86 38.3404C17.14 38.3404 17.21 38.376 17.18 38.4917C17.16 38.5806 17.03 38.6518 16.82 38.6696C16.55 38.7052 16.5 38.6785 16.5 38.5272Z" fill="#7B7B7B"/>
<path d="M32.08 38.545C31.75 38.4739 31.88 38.2514 32.25 38.2514C32.53 38.2514 32.6 38.287 32.6 38.4294C32.6 38.6073 32.46 38.634 32.08 38.545Z" fill="#7B7B7B"/>
<path d="M72 38.4294C72 38.287 72.07 38.2514 72.35 38.2514C72.75 38.2514 72.84 38.465 72.48 38.554C72.1 38.6429 72 38.6162 72 38.4294Z" fill="#7B7B7B"/>
<path d="M77.98 38.545C77.65 38.4739 77.78 38.2514 78.15 38.2514C78.43 38.2514 78.5 38.287 78.5 38.4294C78.5 38.6073 78.36 38.634 77.98 38.545Z" fill="#7B7B7B"/>
<path d="M19.1 38.0022C19.1 37.8687 19.2 37.8153 19.56 37.7708C20.24 37.6907 20.4 37.6996 20.4 37.842C20.4 37.9755 20.1 38.0645 19.48 38.1268C19.16 38.1624 19.1 38.1446 19.1 38.0022Z" fill="#7B7B7B"/>
<path d="M26.08 37.6551C25.75 37.5839 25.88 37.3615 26.25 37.3615C26.53 37.3615 26.6 37.3971 26.6 37.5394C26.6 37.7174 26.46 37.7441 26.08 37.6551Z" fill="#7B7B7B"/>
<path d="M7.56 36.9877C7.63 36.7919 7.84 36.5605 7.94 36.5605C7.97 36.5605 8 36.7029 8 36.872C8 37.1479 7.97 37.1835 7.74 37.1835C7.52 37.1835 7.5 37.1568 7.56 36.9877Z" fill="#7B7B7B"/>
<path d="M8.16 36.0088C8.23 35.813 8.44 35.5817 8.54 35.5817C8.57 35.5817 8.6 35.724 8.6 35.8931C8.6 36.169 8.57 36.2046 8.34 36.2046C8.12 36.2046 8.1 36.1779 8.16 36.0088Z" fill="#7B7B7B"/>
<path d="M89.9 33.4904C89.9 33.1077 90 33.0988 90.23 33.437C90.45 33.7751 90.45 33.8018 90.15 33.8018C89.93 33.8018 89.9 33.7662 89.9 33.4904Z" fill="#7B7B7B"/>
<path d="M88.4 31.4347C88.4 31.0876 88.49 31.0965 88.8 31.4881C89.01 31.755 89.01 31.755 88.71 31.755C88.42 31.755 88.4 31.7283 88.4 31.4347Z" fill="#7B7B7B"/>
<path d="M87.2 30.0642C87.2 29.9663 87.13 29.8862 87.05 29.8862C86.94 29.8862 86.9 29.7884 86.9 29.5659C86.9 29.1832 86.99 29.2277 87.49 29.8417C87.81 30.2422 87.81 30.2422 87.51 30.2422C87.27 30.2422 87.2 30.2066 87.2 30.0642V30.0642Z" fill="#7B7B7B"/>
<path d="M12.98 29.3523C13.23 28.9607 13.4 28.9429 13.4 29.3078C13.4 29.5926 13.38 29.6193 13.1 29.6193C12.81 29.6193 12.81 29.6193 12.98 29.3523Z" fill="#7B7B7B"/>
<path d="M87.96 29.1565C87.7 28.8628 87.7 28.8628 88.06 28.8361C88.5 28.8005 88.54 28.8272 88.45 29.1654C88.37 29.5125 88.28 29.5125 87.96 29.1565Z" fill="#7B7B7B"/>
<path d="M87.28 28.3734C87 28.0619 87 28.0619 87.26 28.0352C87.59 27.9996 87.62 28.0263 87.58 28.3823C87.55 28.6849 87.55 28.6849 87.28 28.3734Z" fill="#7B7B7B"/>
<path d="M85.7 28.2399C85.7 27.875 85.87 27.8928 86.12 28.2844C86.29 28.5514 86.29 28.5514 86 28.5514C85.72 28.5514 85.7 28.5247 85.7 28.2399Z" fill="#7B7B7B"/>
<path d="M10.36 27.4657C10.26 27.1275 10.29 27.0385 10.5 27.0385C10.66 27.0385 10.7 27.1008 10.7 27.35C10.7 27.706 10.46 27.7861 10.36 27.4657Z" fill="#7B7B7B"/>
<path d="M86.28 27.3055C86 26.994 86 26.994 86.26 26.9673C86.59 26.9317 86.62 26.9584 86.58 27.3144C86.55 27.617 86.55 27.617 86.28 27.3055Z" fill="#7B7B7B"/>
<path d="M15.6 26.5936C15.91 26.202 16 26.1931 16 26.5402C16 26.8339 15.98 26.8606 15.69 26.8606C15.39 26.8606 15.39 26.8606 15.6 26.5936Z" fill="#7B7B7B"/>
<path d="M14.5 26.202C14.5 25.9083 14.52 25.8817 14.81 25.8817C15.11 25.8817 15.11 25.8817 14.9 26.1486C14.59 26.5402 14.5 26.5491 14.5 26.202Z" fill="#7B7B7B"/>
<path d="M10.06 26.0418C9.96 25.7037 9.99 25.6147 10.2 25.6147C10.36 25.6147 10.4 25.677 10.4 25.9262C10.4 26.2821 10.16 26.3622 10.06 26.0418Z" fill="#7B7B7B"/>
<path d="M16.55 25.7037C16.58 25.6592 16.74 25.5346 16.9 25.4367C17.2 25.2498 17.2 25.2498 17.2 25.5168C17.2 25.7749 17.17 25.7927 16.84 25.7927C16.64 25.7927 16.51 25.7571 16.55 25.7037Z" fill="#7B7B7B"/>
<path d="M84.05 25.1786C83.56 24.7248 83.56 24.7248 83.91 24.7248C84.37 24.7248 84.63 24.9651 84.58 25.3477C84.55 25.6236 84.55 25.6236 84.05 25.1786Z" fill="#7B7B7B"/>
<path d="M89 25.0362C89 24.7871 89.04 24.7248 89.2 24.7248C89.41 24.7248 89.44 24.8138 89.34 25.1519C89.24 25.4723 89 25.3922 89 25.0362Z" fill="#7B7B7B"/>
<path d="M9.75 24.5735C9.71 24.4311 9.66 24.173 9.64 23.995C9.6 23.7103 9.62 23.6569 9.78 23.6569C9.93 23.6569 9.99 23.7459 10.04 24.0662C10.07 24.2976 10.1 24.5557 10.1 24.6447C10.1 24.9028 9.83 24.8405 9.75 24.5735V24.5735Z" fill="#7B7B7B"/>
<path d="M82.83 24.1641C82.41 23.915 82.42 23.8349 82.85 23.8349C83.17 23.8349 83.2 23.8527 83.2 24.1018C83.2 24.2531 83.19 24.3688 83.18 24.3599C83.16 24.3599 83 24.2709 82.83 24.1641V24.1641Z" fill="#7B7B7B"/>
<path d="M17.2 23.8349C17.2 23.5857 17.23 23.5679 17.55 23.5679C17.99 23.5679 17.99 23.648 17.55 23.9061C17.2 24.1018 17.2 24.1018 17.2 23.8349Z" fill="#7B7B7B"/>
<path d="M80.6 23.7014C80.6 23.3899 80.6 23.3899 80.8 23.5679C80.91 23.6658 81.04 23.7459 81.09 23.7459C81.14 23.7459 81.2 23.8082 81.24 23.8794C81.28 23.9862 81.21 24.0129 80.95 24.0129C80.62 24.0129 80.6 23.9951 80.6 23.7014Z" fill="#7B7B7B"/>
<path d="M19.4 23.5412C19.4 23.5234 19.56 23.3899 19.75 23.2386C20.1 22.9628 20.1 22.9628 20.1 23.2653C20.1 23.5501 20.08 23.5679 19.75 23.5679C19.56 23.5679 19.4 23.559 19.4 23.5412Z" fill="#7B7B7B"/>
<path d="M18.4 22.9539C18.4 22.6958 18.43 22.678 18.76 22.678C19.15 22.678 19.14 22.7581 18.7 23.0339C18.4 23.2208 18.4 23.2208 18.4 22.9539Z" fill="#7B7B7B"/>
<path d="M20.47 22.767C20.65 22.6157 20.81 22.5 20.84 22.5C20.88 22.5 20.9 22.6246 20.9 22.767C20.9 23.0161 20.88 23.0339 20.53 23.0339C20.15 23.0339 20.15 23.0339 20.47 22.767Z" fill="#7B7B7B"/>
<path d="M78.6 22.411C78.6 22.2686 78.62 22.144 78.66 22.144C78.69 22.144 78.85 22.2597 79.03 22.411C79.35 22.678 79.35 22.678 78.98 22.678C78.62 22.678 78.6 22.6602 78.6 22.411Z" fill="#7B7B7B"/>
<path d="M19.7 22.055C19.7 21.8059 19.73 21.7881 20.05 21.7881C20.36 21.7881 20.4 21.7614 20.4 21.5656C20.4 21.4232 20.46 21.3431 20.55 21.3431C20.63 21.3431 20.7 21.3075 20.7 21.2541C20.7 21.2096 20.77 21.1651 20.85 21.1651C20.93 21.1651 21 21.1295 21 21.0761C21 21.0317 21.07 20.9872 21.15 20.9872C21.23 20.9872 21.3 20.9516 21.3 20.8982C21.3 20.8537 21.46 20.8092 21.65 20.8092C21.84 20.8092 22 20.8359 22 20.8804C22 20.916 21.68 21.1206 21.3 21.3431C20.92 21.5656 20.6 21.7703 20.6 21.8148C20.6 21.8504 20.54 21.8771 20.47 21.8771C20.4 21.8771 20.23 21.975 20.08 22.0995C19.73 22.3843 19.7 22.3754 19.7 22.055Z" fill="#7B7B7B"/>
<path d="M21.77 21.9661C21.95 21.8148 22.11 21.6991 22.14 21.6991C22.18 21.6991 22.2 21.8237 22.2 21.9661C22.2 22.2152 22.18 22.233 21.83 22.233C21.45 22.233 21.45 22.233 21.77 21.9661Z" fill="#7B7B7B"/>
<path d="M89.7 21.708C89.7 21.619 89.73 21.3609 89.76 21.1295C89.82 20.7736 89.86 20.7202 90.06 20.7202C90.27 20.7202 90.28 20.7469 90.2 20.9427C90.15 21.0672 90.09 21.3253 90.08 21.5211C90.06 21.7881 90.01 21.8771 89.88 21.8771C89.77 21.8771 89.7 21.8059 89.7 21.708Z" fill="#7B7B7B"/>
<path d="M9.16 21.4143C9.06 21.0761 9.09 20.9872 9.3 20.9872C9.46 20.9872 9.5 21.0494 9.5 21.2986C9.5 21.6546 9.26 21.7347 9.16 21.4143Z" fill="#7B7B7B"/>
<path d="M22.9 21.3787C22.9 21.2897 23.16 21.1028 23.38 21.0405C23.5 21.0049 23.6 20.9338 23.6 20.8893C23.6 20.8448 23.66 20.8092 23.74 20.8092C23.82 20.8092 23.96 20.7469 24.04 20.6668C24.13 20.5956 24.2 20.5511 24.2 20.5867C24.2 20.6134 24.3 20.5778 24.42 20.5066C24.73 20.3108 24.8 20.3286 24.8 20.5867C24.8 20.7825 24.76 20.8092 24.45 20.8092C24.17 20.8092 24.1 20.8448 24.1 20.9872C24.1 21.1206 24.03 21.1651 23.85 21.1651C23.69 21.1651 23.6 21.2185 23.6 21.2986C23.6 21.3876 23.49 21.4321 23.25 21.4321C23.06 21.4321 22.9 21.4054 22.9 21.3787Z" fill="#7B7B7B"/>
<path d="M22.1 20.5956C22.1 20.3909 22.14 20.3642 22.45 20.3642C22.64 20.3642 22.8 20.3909 22.8 20.4176C22.8 20.5066 22.54 20.6935 22.32 20.7558C22.13 20.8092 22.1 20.7914 22.1 20.5956Z" fill="#7B7B7B"/>
<path d="M74.9 20.4087C74.9 20.1506 74.97 20.1328 75.26 20.3197C75.38 20.3909 75.5 20.4176 75.54 20.3909C75.57 20.3642 75.6 20.3998 75.6 20.4799C75.6 20.5956 75.51 20.6312 75.25 20.6312C74.94 20.6312 74.9 20.6045 74.9 20.4087Z" fill="#7B7B7B"/>
<path d="M26 19.768C26 19.6879 26.03 19.6523 26.06 19.679C26.1 19.7146 26.26 19.6523 26.41 19.5544C26.57 19.4565 26.7 19.4031 26.7 19.4476C26.7 19.4832 26.75 19.4565 26.8 19.3853C26.87 19.2874 26.9 19.3141 26.9 19.5277C26.9 19.8392 26.77 19.9193 26.29 19.9193C26.09 19.9193 26 19.8748 26 19.768Z" fill="#7B7B7B"/>
<path d="M76 19.857C75.84 19.7947 75.6 19.5989 75.6 19.5277C75.6 19.501 75.76 19.4743 75.95 19.4743C76.26 19.4743 76.3 19.501 76.3 19.6968C76.3 19.9282 76.26 19.946 76 19.857Z" fill="#7B7B7B"/>
<path d="M8.86 19.59C8.67 18.6912 8.67 18.5844 8.89 18.5844C9.02 18.5844 9.1 18.6378 9.1 18.7446C9.1 18.8247 9.13 19.1094 9.16 19.3675C9.22 19.7502 9.2 19.8303 9.07 19.8303C8.98 19.8303 8.89 19.7235 8.86 19.59V19.59Z" fill="#7B7B7B"/>
<path d="M22.72 18.8069C21.75 17.9615 21.75 17.9615 22.08 17.9615C22.55 17.9615 23.1 18.4242 23.1 18.8247C23.1 19.1006 23.12 19.1183 23.45 19.1183C23.77 19.1183 23.8 19.1361 23.8 19.3853C23.8 19.5366 23.77 19.6523 23.74 19.6523C23.71 19.6523 23.25 19.2696 22.72 18.8069Z" fill="#7B7B7B"/>
<path d="M90.1 19.3408C90.1 19.0917 90.14 19.0294 90.3 19.0294C90.51 19.0294 90.54 19.1183 90.44 19.4565C90.34 19.7769 90.1 19.6968 90.1 19.3408Z" fill="#7B7B7B"/>
<path d="M24.5 19.3408C24.5 19.145 24.54 19.1183 24.85 19.1183C25.11 19.1183 25.2 19.1539 25.2 19.2696C25.2 19.3497 25.17 19.3853 25.14 19.3586C25.1 19.3319 24.98 19.3586 24.86 19.4298C24.57 19.6167 24.5 19.5989 24.5 19.3408V19.3408Z" fill="#7B7B7B"/>
<path d="M21.41 19.2607C21.34 19.1895 21.3 19.0205 21.32 18.887C21.35 18.6556 21.35 18.6556 21.8 19.0116C22.25 19.3764 22.25 19.3764 21.89 19.3853C21.69 19.3853 21.47 19.3319 21.41 19.2607Z" fill="#7B7B7B"/>
<path d="M71.7 18.9849C71.7 18.7713 71.71 18.7624 72.02 18.8781C72.48 19.0472 72.5 19.2073 72.06 19.2073C71.74 19.2073 71.7 19.1806 71.7 18.9849Z" fill="#7B7B7B"/>
<path d="M27.9 19.0294C27.9 18.9404 28.26 18.7357 28.48 18.709C28.55 18.7001 28.6 18.7802 28.6 18.9048C28.6 19.0917 28.55 19.1184 28.25 19.1184C28.06 19.1184 27.9 19.0828 27.9 19.0294V19.0294Z" fill="#7B7B7B"/>
<path d="M72.92 18.4242C72.6 18.2373 72.65 18.1395 73.05 18.1395C73.35 18.1395 73.4 18.1661 73.4 18.3441C73.4 18.5844 73.23 18.6111 72.92 18.4242Z" fill="#7B7B7B"/>
<path d="M68.2 17.739C68.2 17.5254 68.21 17.5165 68.52 17.6322C68.98 17.8013 69 17.9615 68.56 17.9615C68.24 17.9615 68.2 17.9348 68.2 17.739Z" fill="#7B7B7B"/>
<path d="M78.35 17.1606C78.38 17.1161 78.54 16.9915 78.7 16.8936C79 16.7067 79 16.7067 79 16.9737C79 17.2317 78.97 17.2495 78.64 17.2495C78.44 17.2495 78.31 17.2139 78.35 17.1606Z" fill="#7B7B7B"/>
<path d="M30.5 16.9381C30.5 16.7423 30.54 16.7156 30.86 16.7156C31.3 16.7156 31.28 16.8758 30.82 17.0449C30.51 17.1606 30.5 17.1517 30.5 16.9381Z" fill="#7B7B7B"/>
<path d="M35.72 16.5732C35.74 16.502 35.78 16.4397 35.82 16.4397C35.86 16.4308 36.2 16.3596 36.57 16.2706C36.95 16.1906 37.32 16.1016 37.4 16.0838C37.49 16.066 37.56 16.1194 37.58 16.235C37.6 16.3952 37.52 16.4308 36.88 16.5643C35.96 16.7601 35.67 16.7601 35.72 16.5732V16.5732Z" fill="#7B7B7B"/>
<path d="M19.8 16.2706C19.45 16.0126 19.45 16.0126 19.83 16.0037C20.18 16.0037 20.2 16.0215 20.2 16.2706C20.2 16.4219 20.19 16.5376 20.17 16.5376C20.16 16.5376 19.99 16.4219 19.8 16.2706Z" fill="#7B7B7B"/>
<path d="M67.28 16.4753C66.95 16.4041 67.08 16.1817 67.45 16.1817C67.73 16.1817 67.8 16.2173 67.8 16.3596C67.8 16.5376 67.66 16.5643 67.28 16.4753Z" fill="#7B7B7B"/>
<path d="M17.9 16.0838C17.9 15.8168 17.9 15.8168 18.2 16.0037C18.64 16.2795 18.65 16.3596 18.26 16.3596C17.93 16.3596 17.9 16.3418 17.9 16.0838Z" fill="#7B7B7B"/>
<path d="M65.7 16.0037C65.57 15.9325 65.58 15.9058 65.75 15.799C65.99 15.6388 66.2 15.7011 66.2 15.9236C66.2 16.1105 65.95 16.1461 65.7 16.0037V16.0037Z" fill="#7B7B7B"/>
<path d="M78.6 15.5676C78.6 15.3095 78.63 15.2917 78.96 15.2917C79.35 15.2917 79.34 15.3718 78.9 15.6477C78.6 15.8346 78.6 15.8346 78.6 15.5676Z" fill="#7B7B7B"/>
<path d="M41.8 15.5231C41.8 15.4074 42.08 15.2917 42.38 15.2917C42.44 15.2917 42.5 15.3718 42.5 15.4697C42.5 15.6121 42.43 15.6477 42.15 15.6477C41.92 15.6477 41.8 15.6032 41.8 15.5231Z" fill="#7B7B7B"/>
<path d="M42.6 15.4341C42.6 15.3184 42.88 15.2028 43.18 15.2028C43.24 15.2028 43.3 15.2828 43.3 15.3807C43.3 15.5231 43.23 15.5587 42.95 15.5587C42.72 15.5587 42.6 15.5142 42.6 15.4341Z" fill="#7B7B7B"/>
<path d="M16.8 15.2028C16.8 14.9358 16.8 14.9358 17.15 15.1316C17.59 15.3896 17.59 15.4697 17.15 15.4697C16.83 15.4697 16.8 15.4519 16.8 15.2028Z" fill="#7B7B7B"/>
<path d="M43.4 15.3451C43.4 15.2295 43.68 15.1138 43.98 15.1138C44.04 15.1138 44.1 15.1939 44.1 15.2917C44.1 15.4341 44.03 15.4697 43.75 15.4697C43.52 15.4697 43.4 15.4252 43.4 15.3451Z" fill="#7B7B7B"/>
<path d="M44.3 15.2561C44.3 15.1405 44.58 15.0248 44.88 15.0248C44.94 15.0248 45 15.1049 45 15.2028C45 15.3451 44.93 15.3807 44.65 15.3807C44.42 15.3807 44.3 15.3362 44.3 15.2561Z" fill="#7B7B7B"/>
<path d="M32.3 15.0248C32.3 14.7756 32.27 14.7578 31.95 14.7578C31.63 14.7578 31.6 14.74 31.6 14.4819C31.6 14.215 31.6 14.215 31.88 14.384C32.03 14.4819 32.35 14.7222 32.6 14.9269C33.05 15.2917 33.05 15.2917 32.67 15.2917C32.33 15.2917 32.3 15.2739 32.3 15.0248Z" fill="#7B7B7B"/>
<path d="M45.5 15.1672C45.5 15.0515 45.78 14.9358 46.08 14.9358C46.14 14.9358 46.2 15.0159 46.2 15.1138C46.2 15.2561 46.13 15.2917 45.85 15.2917C45.62 15.2917 45.5 15.2472 45.5 15.1672Z" fill="#7B7B7B"/>
<path d="M47.8 15.0782C47.8 14.9625 48.08 14.8468 48.38 14.8468C48.44 14.8468 48.5 14.9269 48.5 15.0248C48.5 15.1672 48.43 15.2028 48.15 15.2028C47.92 15.2028 47.8 15.1583 47.8 15.0782Z" fill="#7B7B7B"/>
<path d="M51.6 15.0248C51.6 14.8379 51.7 14.8112 52.08 14.9002C52.44 14.9892 52.35 15.2028 51.95 15.2028C51.67 15.2028 51.6 15.1672 51.6 15.0248Z" fill="#7B7B7B"/>
<path d="M8.26 14.829C8.16 14.4908 8.19 14.4018 8.4 14.4018C8.56 14.4018 8.6 14.4641 8.6 14.7133C8.6 15.0693 8.36 15.1494 8.26 14.829Z" fill="#7B7B7B"/>
<path d="M79.92 14.4819C79.95 14.1972 79.98 14.1794 80.34 14.1527C80.7 14.126 80.72 14.1349 80.6 14.2684C80.53 14.3484 80.34 14.4908 80.18 14.5976C79.89 14.7756 79.89 14.7756 79.92 14.4819Z" fill="#7B7B7B"/>
<path d="M81.35 14.6688C81.38 14.6243 81.54 14.4997 81.7 14.4018C82 14.215 82 14.215 82 14.4819C82 14.74 81.97 14.7578 81.64 14.7578C81.44 14.7578 81.31 14.7222 81.35 14.6688Z" fill="#7B7B7B"/>
<path d="M17.53 14.4641C17.11 14.215 17.12 14.1349 17.55 14.1349C17.87 14.1349 17.9 14.1527 17.9 14.4018C17.9 14.5531 17.89 14.6688 17.88 14.6599C17.86 14.6599 17.7 14.5709 17.53 14.4641Z" fill="#7B7B7B"/>
<path d="M16.7 13.7789C16.35 13.5208 16.35 13.5208 16.73 13.5119C17.08 13.5119 17.1 13.5297 17.1 13.7789C17.1 13.9302 17.09 14.0459 17.07 14.0459C17.06 14.0459 16.89 13.9302 16.7 13.7789Z" fill="#7B7B7B"/>
<path d="M81 13.6098C81 13.3517 81.03 13.3339 81.36 13.3339C81.75 13.3339 81.74 13.414 81.3 13.6899C81 13.8768 81 13.8768 81 13.6098Z" fill="#7B7B7B"/>
<path d="M13.3 12.6131C13.3 12.3461 13.3 12.3461 13.6 12.533C14.04 12.8089 14.05 12.889 13.66 12.889C13.33 12.889 13.3 12.8712 13.3 12.6131Z" fill="#7B7B7B"/>
<path d="M12.5 12.0792C12.5 11.8122 12.5 11.8122 12.8 11.9991C13.24 12.275 13.25 12.355 12.86 12.355C12.53 12.355 12.5 12.3372 12.5 12.0792Z" fill="#7B7B7B"/>
<path d="M8.25 11.6253C8.28 11.4117 8.33 11.1626 8.34 11.0647C8.36 10.9668 8.44 10.8778 8.53 10.86C8.72 10.8244 8.74 10.9401 8.64 11.5897C8.59 11.919 8.53 11.9991 8.38 11.9991C8.21 11.9991 8.2 11.9546 8.25 11.6253V11.6253Z" fill="#7B7B7B"/>
<path d="M11.3 11.4117C11.3 11.216 11.33 11.1982 11.52 11.2516C11.74 11.3139 12 11.5007 12 11.5897C12 11.6164 11.84 11.6431 11.65 11.6431C11.34 11.6431 11.3 11.6164 11.3 11.4117Z" fill="#7B7B7B"/>
<path d="M13.25 11.3672C12.95 11.1092 12.95 11.1092 13.33 11.1092C13.68 11.1092 13.7 11.127 13.7 11.3761C13.7 11.7054 13.63 11.7054 13.25 11.3672Z" fill="#7B7B7B"/>
<path d="M9.8 10.8422C9.8 10.7977 9.66 10.7532 9.49 10.7532C9.23 10.7532 9.19 10.7265 9.22 10.5574C9.24 10.4328 9.31 10.3617 9.4 10.3884C9.48 10.4062 9.6 10.4239 9.65 10.4328C9.94 10.4951 10.5 10.7532 10.5 10.8333C10.5 10.8867 10.34 10.9312 10.15 10.9312C9.96 10.9312 9.8 10.8956 9.8 10.8422V10.8422Z" fill="#7B7B7B"/>
<path d="M86.97 10.5752C87.15 10.4239 87.31 10.3083 87.34 10.3083C87.38 10.3083 87.4 10.4328 87.4 10.5752C87.4 10.8244 87.38 10.8422 87.03 10.8422C86.65 10.8422 86.65 10.8422 86.97 10.5752Z" fill="#7B7B7B"/>
<path d="M10.43 9.9078C10 9.74762 10.01 9.59633 10.45 9.59633C10.76 9.59633 10.8 9.62303 10.8 9.81881C10.8 9.9434 10.79 10.0413 10.78 10.0413C10.76 10.0324 10.6 9.97899 10.43 9.9078Z" fill="#7B7B7B"/>
<path d="M24.9 9.50734C24.9 9.24926 24.9 9.24926 25.2 9.40055C25.64 9.62302 25.66 9.77431 25.25 9.77431C24.93 9.77431 24.9 9.75651 24.9 9.50734Z" fill="#7B7B7B"/>
<path d="M74.25 9.40055C74.28 9.33825 74.44 9.21367 74.6 9.13358C74.9 8.98229 74.9 8.98229 74.9 9.24037C74.9 9.48954 74.87 9.50734 74.55 9.50734C74.32 9.50734 74.22 9.47174 74.25 9.40055Z" fill="#7B7B7B"/>
<path d="M23.3 8.31486C23.3 8.0123 23.3 8.01229 23.65 8.28817C23.84 8.43945 24 8.57294 24 8.59074C24 8.60853 23.84 8.61743 23.65 8.61743C23.32 8.61743 23.3 8.59963 23.3 8.31486Z" fill="#7B7B7B"/>
<path d="M7.7 7.8877C7.7 7.62073 7.83 7.37156 7.96 7.37156C8.05 7.37156 8.1 7.47835 8.1 7.68303C8.1 7.9322 8.06 7.99449 7.9 7.99449C7.79 7.99449 7.7 7.9411 7.7 7.8877Z" fill="#7B7B7B"/>
<path d="M76.6 7.78982C76.6 7.77202 76.76 7.63853 76.95 7.48725C77.3 7.21138 77.3 7.21138 77.3 7.51395C77.3 7.79872 77.28 7.81651 76.95 7.81651C76.76 7.81651 76.6 7.80762 76.6 7.78982Z" fill="#7B7B7B"/>
<path d="M91.3 7.32707C91.3 6.9711 91.54 6.89101 91.64 7.22028C91.74 7.54954 91.71 7.63854 91.5 7.63854C91.34 7.63854 91.3 7.57624 91.3 7.32707Z" fill="#7B7B7B"/>
<path d="M77.55 7.10459C77.58 7.06009 77.74 6.93551 77.9 6.83762C78.2 6.65074 78.2 6.65073 78.2 6.91771C78.2 7.17578 78.17 7.19358 77.84 7.19358C77.64 7.19358 77.51 7.15798 77.55 7.10459Z" fill="#7B7B7B"/>
<path d="M20.7 6.56174C20.7 6.29477 20.7 6.29477 21 6.48165C21.44 6.75752 21.45 6.83761 21.06 6.83761C20.73 6.83761 20.7 6.81982 20.7 6.56174Z" fill="#7B7B7B"/>
<path d="M7.8 6.55284C7.8 6.28587 7.93 6.0367 8.06 6.0367C8.15 6.0367 8.2 6.14349 8.2 6.34817C8.2 6.59734 8.16 6.65963 8 6.65963C7.89 6.65963 7.8 6.60624 7.8 6.55284Z" fill="#7B7B7B"/>
<path d="M7.9 5.66294C7.9 5.39596 8.03 5.14679 8.16 5.14679C8.25 5.14679 8.3 5.25358 8.3 5.45826C8.3 5.70743 8.26 5.76973 8.1 5.76973C7.99 5.76973 7.9 5.71633 7.9 5.66294Z" fill="#7B7B7B"/>
<path d="M91.1 5.28028C91.1 4.92431 91.34 4.84422 91.44 5.17349C91.54 5.50275 91.51 5.59174 91.3 5.59174C91.14 5.59174 91.1 5.52945 91.1 5.28028Z" fill="#7B7B7B"/>
<path d="M80.6 5.10229C80.6 5.0845 80.86 4.89761 81.18 4.68404C81.49 4.47936 81.77 4.28358 81.78 4.23908C81.86 4.07 82 4.19459 82 4.43486C82 4.68404 81.97 4.70183 81.65 4.70183C81.34 4.70183 81.3 4.72853 81.3 4.92431C81.3 5.12009 81.26 5.14679 80.95 5.14679C80.76 5.14679 80.6 5.12899 80.6 5.10229Z" fill="#7B7B7B"/>
<path d="M8.1 4.29248C8.16 4.16789 8.18 4.0255 8.14 3.98101C8.11 3.93651 8.18 3.90092 8.29 3.90092C8.46 3.90092 8.5 3.95431 8.5 4.21238C8.5 4.48826 8.47 4.52385 8.25 4.52385C8.03 4.52385 8.01 4.50605 8.1 4.29248Z" fill="#7B7B7B"/>
<path d="M90.8 3.58945C90.8 3.23349 91.04 3.15339 91.14 3.48266C91.24 3.81193 91.21 3.90092 91 3.90092C90.84 3.90092 90.8 3.83862 90.8 3.58945Z" fill="#7B7B7B"/>
<path d="M83.7 3.22459C83.7 3.1356 83.96 2.94872 84.18 2.88642C84.37 2.83303 84.4 2.85083 84.4 3.04661C84.4 3.25129 84.36 3.27798 84.05 3.27798C83.86 3.27798 83.7 3.25129 83.7 3.22459Z" fill="#7B7B7B"/>
<path d="M90.6 2.78853C90.6 2.43257 90.84 2.35247 90.94 2.68174C91.04 3.01101 91.01 3.1 90.8 3.1C90.64 3.1 90.6 3.03771 90.6 2.78853Z" fill="#7B7B7B"/>
<path d="M14.1 2.51266C14.1 2.31688 14.13 2.29909 14.32 2.35248C14.54 2.41477 14.8 2.60165 14.8 2.69065C14.8 2.71734 14.64 2.74404 14.45 2.74404C14.14 2.74404 14.1 2.71734 14.1 2.51266Z" fill="#7B7B7B"/>
<path d="M87.62 1.30239C87.65 1.24009 87.81 1.1422 87.98 1.07991C88.29 0.964221 88.3 0.973121 88.3 1.1867C88.3 1.38248 88.26 1.40918 87.94 1.40918C87.71 1.40918 87.6 1.37358 87.62 1.30239Z" fill="#7B7B7B"/>
<path d="M10.9 1.09771C10.9 0.884132 10.91 0.875232 11.22 0.99092C11.68 1.16 11.7 1.32019 11.26 1.32019C10.94 1.32019 10.9 1.29349 10.9 1.09771V1.09771Z" fill="#7B7B7B"/>
</svg>
