<svg width="395" height="456" viewBox="0 0 395 456" fill="none" xmlns="http://www.w3.org/2000/svg">
<path d="M213.86 454.419C213.067 452.605 213.253 451.653 214.513 451.653C215.447 451.653 215.633 452.741 214.933 454.827C214.607 455.96 214.607 455.96 213.86 454.419Z" fill="#DBD6D6"/>
<path d="M39.98 421.96C40.0266 420.147 40.0267 420.147 40.4933 421.416C40.82 422.368 40.82 422.867 40.4466 423.229C40.0733 423.592 39.9333 423.229 39.98 421.96Z" fill="#DBD6D6"/>
<path d="M108.533 421.507C108.533 421.144 108.767 420.827 109 420.827C109.28 420.827 109.467 421.144 109.467 421.507C109.467 421.869 109.28 422.187 109 422.187C108.767 422.187 108.533 421.869 108.533 421.507Z" fill="#DBD6D6"/>
<path d="M31.0667 420.645C31.0667 420.282 31.3 419.829 31.5333 419.693C31.8133 419.557 32 419.829 32 420.328C32 420.872 31.8133 421.28 31.5333 421.28C31.3 421.28 31.0667 421.008 31.0667 420.645Z" fill="#DBD6D6"/>
<path d="M60.4668 420.373C60.9334 419.512 63.7801 417.2 64.3401 417.2C65.1334 417.2 63.8734 418.696 62.0534 419.92C60.3734 421.008 60.0934 421.098 60.4668 420.373Z" fill="#DBD6D6"/>
<path d="M393.293 417.563C392.407 416.701 392.64 415.885 393.667 416.157C394.18 416.293 394.6 416.792 394.6 417.245C394.6 418.243 394.087 418.333 393.293 417.563Z" fill="#DBD6D6"/>
<path d="M118.427 413.754C118.1 413.392 117.96 412.893 118.147 412.576C118.38 412.258 118.613 412.44 118.893 413.12C119.36 414.389 119.22 414.616 118.427 413.754Z" fill="#DBD6D6"/>
<path d="M40.8667 412.621C40.8667 411.805 42.6867 409.403 42.7334 410.173C42.7334 410.445 42.3134 411.261 41.8 411.987C41.1934 412.893 40.8667 413.075 40.8667 412.621Z" fill="#DBD6D6"/>
<path d="M390.353 412.667C387.46 411.035 385.407 407.635 386.947 407.045C387.973 406.683 388.02 406.683 387.74 407.635C387.6 408.179 388.067 408.904 389.14 409.765C390.027 410.491 390.913 411.533 391.053 412.123C391.427 413.256 391.427 413.256 390.353 412.667Z" fill="#DBD6D6"/>
<path d="M74.42 411.08C73.9534 410.672 74.56 408.541 75.0734 408.722C75.3534 408.813 75.6334 409.085 75.7267 409.312C75.9134 409.901 74.7467 411.442 74.42 411.08Z" fill="#DBD6D6"/>
<path d="M29.6667 409.04C30.18 408.133 31.0667 407.77 31.0667 408.496C31.0667 408.994 30.04 409.946 29.5733 409.946C29.34 409.946 29.3867 409.538 29.6667 409.04Z" fill="#DBD6D6"/>
<path d="M113.947 408.315C113.573 407.317 113.573 406.32 114.04 406.32C114.227 406.32 114.647 406.954 114.927 407.68C115.347 408.768 115.347 409.04 114.833 409.04C114.507 409.04 114.087 408.723 113.947 408.315Z" fill="#DBD6D6"/>
<path d="M98.08 406.955C97.66 405.912 97.7533 404.869 98.22 405.141C98.78 405.504 99.2 407.181 98.7333 407.453C98.5467 407.589 98.22 407.363 98.08 406.955Z" fill="#DBD6D6"/>
<path d="M111.893 406.003C112.127 404.869 113.2 404.733 113.2 405.821C113.2 406.365 112.92 406.773 112.453 406.773C112.033 406.773 111.8 406.456 111.893 406.003Z" fill="#DBD6D6"/>
<path d="M89.8667 405.323C89.8667 404.597 90.1 404.053 90.3334 404.053C90.94 404.053 90.94 404.96 90.3334 405.867C89.96 406.411 89.8667 406.275 89.8667 405.323Z" fill="#DBD6D6"/>
<path d="M39 405.005C39 404.778 39.3733 404.144 39.8867 403.554C40.4 402.92 40.6333 401.968 40.54 401.242C40.4467 400.517 40.5867 399.973 40.8667 399.973C41.1467 399.973 41.24 400.2 41.0533 400.472C40.9133 400.744 41.0067 401.152 41.2867 401.333C41.7067 401.56 41.66 402.058 41.0533 403.282C40.3067 404.778 39 405.912 39 405.005Z" fill="#DBD6D6"/>
<path d="M94.5333 402.149C94.5333 399.293 94.9533 398.251 95.8867 398.795C96.3067 399.067 95.6533 403.419 94.9533 404.507C94.72 404.96 94.58 404.099 94.5333 402.149Z" fill="#DBD6D6"/>
<path d="M382.233 402.965C379.573 400.699 379.62 399.883 382.28 401.379C384.333 402.557 385.733 403.781 385.733 404.507C385.733 405.459 384.473 404.915 382.233 402.965Z" fill="#DBD6D6"/>
<path d="M83.1 401.786C82.7734 401.242 83.6134 399.973 84.3134 399.973C84.9667 399.973 84.78 401.152 84.08 401.741C83.6134 402.149 83.3334 402.149 83.1 401.786Z" fill="#DBD6D6"/>
<path d="M34.1934 397.842C34.8001 396.12 36.2001 395.213 36.2001 396.482C36.2001 397.117 34.7534 398.613 34.1934 398.613C34.0534 398.613 34.0068 398.25 34.1934 397.842Z" fill="#DBD6D6"/>
<path d="M38.5333 398.16C38.5333 397.933 38.9533 397.299 39.4667 396.8C40.1667 396.12 40.4 395.304 40.4 393.491C40.4 391.179 40.4933 390.997 42.4067 389.501C43.48 388.685 44.74 387.507 45.2533 386.917C45.72 386.328 46.1867 385.965 46.3267 386.101C46.6533 386.419 45.0667 389.184 43.6667 390.771C42.9667 391.541 42.0333 393.219 41.5667 394.488C41.1467 395.757 40.6333 396.8 40.4 396.8C40.2133 396.8 39.9333 397.208 39.7933 397.707C39.56 398.613 38.5333 398.976 38.5333 398.16Z" fill="#DBD6D6"/>
<path d="M378.5 397.706C377.753 396.936 377.753 396.8 378.407 396.8C379.62 396.8 380.6 397.298 380.6 397.978C380.6 398.885 379.48 398.749 378.5 397.706Z" fill="#DBD6D6"/>
<path d="M78.0133 396.573C78.2 396.211 78.48 396.029 78.7133 396.165C79.3666 396.528 79.18 397.253 78.4333 397.253C78.0133 397.253 77.8733 396.981 78.0133 396.573Z" fill="#DBD6D6"/>
<path d="M103.727 396.936C103.167 396.392 103.4 394.986 104.053 394.986C104.473 394.986 104.613 395.349 104.427 396.12C104.193 397.344 104.147 397.389 103.727 396.936Z" fill="#DBD6D6"/>
<path d="M375.187 395.667C374.347 395.349 373.553 394.851 373.367 394.533C373.087 394.08 376.213 395.123 376.82 395.667C377.38 396.211 376.493 396.211 375.187 395.667Z" fill="#DBD6D6"/>
<path d="M367.067 387.733C367.067 387.506 367.533 387.28 368.14 387.28C368.98 387.28 369.027 387.37 368.467 387.733C367.58 388.322 367.067 388.322 367.067 387.733Z" fill="#DBD6D6"/>
<path d="M217.547 387.325C217.08 386.645 217.64 379.211 218.247 378.168C218.48 377.669 218.62 376.672 218.433 375.947C217.967 373.861 218.993 373.952 219.74 376.083C220.347 377.896 220.347 378.349 219.507 381.432C218.993 383.291 218.527 385.376 218.433 386.056C218.247 387.552 217.967 388.005 217.547 387.325Z" fill="#DBD6D6"/>
<path d="M356.893 387.008C356.007 386.419 355.167 386.328 352.833 386.6C350.453 386.827 349.613 386.736 348.773 386.192C347.98 385.648 347.14 385.557 345.413 385.739C342.753 386.101 342.707 385.24 345.367 384.741C347.28 384.424 347.747 383.88 347 382.973C346.3 382.157 344.247 382.112 341.867 382.792C340.28 383.245 339.907 383.2 338.647 382.339C337.9 381.795 336.593 381.115 335.753 380.843C334.493 380.435 334.353 380.208 334.493 379.029C334.68 377.851 334.493 377.579 333.187 376.944C331.88 376.355 331.227 376.309 329.407 376.717C328.193 376.989 327.027 377.125 326.84 377.035C326.653 376.899 326.607 376.219 326.793 375.493C327.027 374.269 326.933 374.133 325.813 374.133C325.16 374.133 324.18 374.541 323.713 374.995C323.247 375.448 322.407 375.992 321.893 376.128C320.82 376.491 319.98 375.584 320.867 375.04C321.707 374.541 321.007 373.68 319.747 373.68C319.047 373.68 318.533 373.363 318.393 372.819C318.207 372.093 317.88 371.957 316.34 372.184C314.52 372.411 312.28 371.685 310.6 370.28C310.227 369.963 308.873 369.555 307.567 369.419C306.307 369.283 304.067 369.011 302.667 368.784C300.147 368.421 300.147 368.421 301.313 367.832C302.387 367.333 303.04 367.333 305.7 368.013C307.427 368.421 309.387 368.603 310.18 368.467C310.927 368.285 311.533 368.331 311.533 368.557C311.533 369.101 315.313 370.053 317.32 370.053C319.373 370.053 320.4 370.461 320.4 371.187C320.4 371.595 321.427 371.867 323.573 372.093C327.027 372.411 328.8 373.045 328.8 373.997C328.8 374.405 329.593 374.587 331.6 374.587C334.867 374.587 338.133 375.947 338.133 377.352C338.133 377.805 338.273 378.213 338.507 378.213C338.693 378.213 339.58 378.667 340.467 379.211C341.82 380.027 342.707 380.163 345.833 380.072C348.447 380.027 349.987 380.208 350.92 380.707C351.62 381.069 352.787 381.387 353.487 381.387C354.187 381.387 355.167 381.659 355.68 382.021C356.193 382.384 357.173 382.747 357.873 382.837C358.807 382.928 358.993 383.109 358.667 383.653C358.34 384.197 358.013 384.197 356.66 383.744C354.793 383.109 350.267 383.019 350.267 383.653C350.267 383.925 349.94 384.107 349.52 384.107C349.147 384.107 348.96 384.333 349.1 384.56C349.24 384.832 350.687 385.013 352.273 385.013C354.093 385.059 355.867 385.376 356.987 385.875C358.013 386.373 359.133 386.645 359.46 386.509C359.787 386.373 360.067 386.509 360.067 386.781C360.067 387.053 359.88 387.28 359.647 387.28C359.413 387.28 358.947 387.371 358.573 387.507C358.247 387.643 357.453 387.416 356.893 387.008Z" fill="#DBD6D6"/>
<path d="M361.933 385.467C361.327 385.059 361.327 385.013 361.933 385.013C362.307 385.013 362.96 385.24 363.333 385.467C363.94 385.875 363.94 385.92 363.333 385.92C362.96 385.92 362.307 385.693 361.933 385.467Z" fill="#DBD6D6"/>
<path d="M284.467 384.378C284.467 384.288 285.447 383.834 286.707 383.381C287.92 382.928 289.413 382.202 290.02 381.749C290.627 381.296 291.653 380.933 292.353 380.933L293.567 380.978L292.167 381.704C291.42 382.112 290.113 382.928 289.32 383.517C288.433 384.152 287.22 384.56 286.193 384.56C285.213 384.56 284.467 384.469 284.467 384.378Z" fill="#DBD6D6"/>
<path d="M42.2667 381.069C42.2667 380.797 42.5934 380.344 42.9667 380.026C43.3401 379.709 43.6667 379.256 43.6667 378.984C43.6667 378.349 45.6734 375.493 46.0934 375.493C46.2334 375.493 45.6734 376.672 44.7867 378.077C43.0134 380.979 42.2667 381.84 42.2667 381.069Z" fill="#DBD6D6"/>
<path d="M277.28 379.165L275.04 378.893L276.02 378.032C277.14 377.08 277.28 375.947 276.44 375.131C275.647 374.36 272.24 374.451 271.12 375.267C269.767 376.264 268.273 376.128 267.853 374.949C267.387 373.499 266.967 373.317 264.633 373.68C262.72 373.952 262.533 373.907 262.533 373.045C262.487 371.096 258.333 368.784 255.907 369.373C255.113 369.555 254.553 369.373 253.947 368.739C253.247 368.013 252.5 367.787 250.54 367.787C249.187 367.787 248.067 367.605 248.067 367.424C248.067 366.835 243.773 365.792 241.673 365.928C240.133 365.973 239.667 365.837 239.667 365.339C239.667 363.979 242.233 363.888 250.867 365.021C252.78 365.248 254.647 365.475 254.973 365.475C255.253 365.52 255.533 365.837 255.533 366.2C255.533 366.971 257.4 367.152 262.673 366.925L265.8 366.789V368.149C265.8 369.283 266.033 369.509 267.293 369.781C268.087 369.917 268.973 369.872 269.253 369.6C269.487 369.373 270.42 369.147 271.26 369.147C272.473 369.147 272.8 368.965 272.8 368.285C272.8 367.787 273.22 367.333 273.873 367.197C274.433 367.107 275.32 366.835 275.833 366.608C276.627 366.291 276.673 366.336 276.207 366.971C275.88 367.333 275.74 367.787 275.927 367.923C276.067 368.104 275.973 368.24 275.693 368.24C275.367 368.24 275.133 368.557 275.133 368.92C275.133 369.283 275.46 369.6 275.833 369.6C277.093 369.6 276.58 370.915 275.273 371.096C274.2 371.232 274.293 371.277 275.693 371.368C277.047 371.413 277.42 371.232 277.56 370.552C277.7 369.736 277.793 369.736 279.427 370.371C280.36 370.733 281.2 371.413 281.34 371.912C281.573 372.683 281.993 372.773 285.167 372.773H288.713L288.573 374.224C288.433 375.539 288.62 375.765 290.02 376.219C291.84 376.808 291.7 376.899 287.967 378.259C285.493 379.165 285.213 379.165 284.7 378.485C283.953 377.533 283.393 377.579 282.367 378.667C281.48 379.573 281.2 379.619 277.28 379.165ZM283.3 376.4C283.487 376.083 283.16 376.037 282.273 376.219C280.687 376.581 279.707 377.261 280.08 377.805C280.36 378.259 282.833 377.171 283.3 376.4Z" fill="#DBD6D6"/>
<path d="M107.133 376.218C107.133 375.584 107.32 374.994 107.553 374.858C108.02 374.586 108.627 376.354 108.253 376.944C107.787 377.669 107.133 377.261 107.133 376.218Z" fill="#DBD6D6"/>
<path d="M218.48 372.048C218.013 370.824 218.153 369.509 218.807 369.691C219.46 369.917 219.88 372.773 219.227 372.773C218.947 372.773 218.62 372.456 218.48 372.048Z" fill="#DBD6D6"/>
<path d="M278.4 366.971C278.4 366.699 278.027 366.381 277.607 366.291C277.14 366.155 277.747 366.064 278.913 366.019C280.127 366.019 281.807 365.883 282.647 365.747L284.233 365.52L282.647 366.2C280.5 367.197 278.4 367.56 278.4 366.971Z" fill="#DBD6D6"/>
<path d="M235.513 366.019C235 365.701 235.28 365.475 236.68 365.112C237.8 364.795 238.64 364.795 238.92 365.067C239.153 365.293 239.247 365.611 239.153 365.747C238.64 366.245 236.12 366.427 235.513 366.019Z" fill="#DBD6D6"/>
<path d="M218.387 365.293C218.2 364.885 218.293 363.706 218.573 362.664L219.087 360.76L218.993 362.437C218.9 363.752 219.04 364.16 219.74 364.341C220.253 364.432 220.533 364.84 220.44 365.157C220.113 366.064 218.713 366.154 218.387 365.293Z" fill="#DBD6D6"/>
<path d="M289.647 365.792C289.74 365.701 290.627 365.52 291.607 365.338C292.867 365.112 293.333 365.157 293.1 365.474C292.96 365.746 292.073 365.973 291.14 365.973C290.207 365.973 289.553 365.882 289.647 365.792Z" fill="#DBD6D6"/>
<path d="M227.3 364.885C226.413 364.205 226.46 364.205 228.327 364.16C229.4 364.16 230.66 364.024 231.127 363.888C231.873 363.616 231.873 363.661 231.267 364.296C230.193 365.384 228.373 365.656 227.3 364.885Z" fill="#DBD6D6"/>
<path d="M109 362.8C108.58 362.528 108.533 362.347 108.86 362.347C109.14 362.347 109.467 361.893 109.56 361.349C109.7 360.307 109.7 360.307 109.98 361.259C110.4 362.573 109.887 363.344 109 362.8Z" fill="#DBD6D6"/>
<path d="M107.927 361.349C107.227 359.626 107.18 359.173 107.647 358.946C108.207 358.584 108.673 359.762 108.44 361.077C108.253 361.984 108.207 361.984 107.927 361.349Z" fill="#DBD6D6"/>
<path d="M110.027 358.539C109.467 356.635 109.607 355.955 110.447 356.771C110.727 357.043 110.867 357.949 110.773 358.765L110.587 360.307L110.027 358.539Z" fill="#DBD6D6"/>
<path d="M217.593 353.416C217.407 353.28 217.313 351.875 217.313 350.379L217.407 347.613L217.78 350.56C218.153 353.507 218.153 353.96 217.593 353.416Z" fill="#DBD6D6"/>
<path d="M217.127 346.616C216.94 346.48 216.8 345.89 216.847 345.392C216.847 344.53 216.893 344.53 217.313 345.528C217.78 346.616 217.687 347.16 217.127 346.616Z" fill="#DBD6D6"/>
<path d="M216.147 338.275C216.007 337.685 215.773 336.053 215.633 334.693C215.493 333.333 214.933 330.613 214.42 328.664C213.907 326.715 213.533 324.901 213.673 324.584C213.767 324.267 214.14 324.947 214.42 326.08C214.747 327.213 215.167 328.755 215.4 329.48C216.007 331.429 216.94 338.773 216.66 339.091C216.473 339.227 216.287 338.864 216.147 338.275Z" fill="#DBD6D6"/>
<path d="M210.127 315.336C209.52 314.112 208.54 312.389 207.98 311.482C207.373 310.53 207.14 309.76 207.373 309.76C207.98 309.76 209.567 311.89 209.893 313.16C210.033 313.658 210.5 314.837 210.92 315.789C211.993 318.192 211.387 317.874 210.127 315.336Z" fill="#DBD6D6"/>
<path d="M203.36 293.304C202.567 292.397 200.373 286.187 200.607 285.597C200.747 285.28 200.98 285.416 201.167 285.96C201.4 286.459 202.147 288.363 202.893 290.221C204.2 293.485 204.387 294.483 203.36 293.304Z" fill="#DBD6D6"/>
<path d="M200.373 283.92C199.953 283.648 199.72 283.104 199.813 282.651C200.14 281.608 197.9 273.267 196.967 271.997C196.593 271.453 196.267 270.592 196.267 270.048C196.267 269.549 195.473 268.008 194.447 266.648C193.467 265.288 192.16 263.293 191.6 262.16C190.993 261.027 188.847 258.533 186.747 256.584C183.667 253.637 183.2 253.048 184.227 253.275C186.56 253.773 187.633 254.363 189.267 256.04C190.153 256.947 191.413 258.216 192.02 258.805C193.047 259.803 194.727 262.251 196.967 265.877C198.227 267.917 199.16 271.227 198.413 270.955C198.087 270.819 198.6 272.269 199.58 274.173C201.167 277.392 201.773 279.387 202.147 282.923C202.287 284.419 201.82 284.736 200.373 283.92Z" fill="#DBD6D6"/>
<path d="M180.353 250.419C176.48 246.475 172.653 241.171 173.167 240.4C173.587 239.765 175.267 240.717 175.267 241.624C175.267 241.987 176.2 243.12 177.367 244.117C178.953 245.477 179.467 246.248 179.467 247.245C179.467 248.424 179.653 248.56 180.867 248.56C181.66 248.56 182.267 248.741 182.267 248.968C182.267 249.195 182.687 249.512 183.2 249.693C184.227 250.011 184.227 250.917 183.2 251.371C182.033 251.869 181.613 251.733 180.353 250.419Z" fill="#DBD6D6"/>
<path d="M11.56 218.685C11.2334 218.504 10.9067 217.915 10.7667 217.325C10.6734 216.781 10.7667 216.464 11.0467 216.6C11.28 216.781 11.4667 216.645 11.4667 216.419C11.4667 216.147 11.7467 215.92 12.0733 215.92C12.4 215.92 12.6334 216.509 12.6334 217.235C12.6334 218.776 12.3534 219.184 11.56 218.685Z" fill="#DBD6D6"/>
<path d="M8.06008 216.509C7.45342 215.784 7.40675 215.557 7.96675 214.56C8.34008 213.925 8.62008 213.064 8.66675 212.656C8.66675 211.885 9.50675 211.115 9.88008 211.523C10.0201 211.659 9.88008 212.611 9.60008 213.653C9.22675 215.013 9.22674 215.739 9.55341 216.056C9.83341 216.328 10.0667 216.736 10.0667 216.917C10.0667 217.552 8.80675 217.28 8.06008 216.509Z" fill="#DBD6D6"/>
<path d="M5.49336 211.84C4.37336 211.659 3.25336 211.251 3.06669 210.933C2.60003 210.253 3.30003 208.667 4.28003 208.077C4.65336 207.896 4.93336 207.533 4.93336 207.307C4.93336 206.627 3.6267 206.763 3.39336 207.443C3.2067 207.851 3.11336 207.851 3.11336 207.397C3.06669 206.944 2.88002 206.989 2.32002 207.533C1.43336 208.395 0.546695 207.851 1.01336 206.717C1.20003 206.219 1.80669 205.947 2.64669 205.947C3.58003 205.947 3.90669 205.765 3.72002 205.312C3.58002 204.995 3.81336 204.36 4.23336 203.952C4.65336 203.544 4.88669 203.045 4.74669 202.819C4.60669 202.592 4.84003 202.139 5.26003 201.821C5.91336 201.277 5.96003 201.323 5.68003 202.139C5.44669 202.909 5.58669 203.181 6.38003 203.363C7.36003 203.635 7.36003 203.68 6.66003 204.768C5.68003 206.219 5.68003 206.581 6.61336 206.219C7.78003 205.765 8.20002 206.355 7.64002 207.533C7.22002 208.485 7.26669 208.757 8.24669 209.528C9.36669 210.435 9.36669 210.435 8.43336 211.296C7.68669 211.976 7.08003 212.067 5.49336 211.84Z" fill="#DBD6D6"/>
<path d="M209.1 208.576C208.073 207.85 206.44 206.762 205.507 206.128C203.873 204.994 202.987 203.816 203.5 203.317C203.593 203.181 204.387 203.634 205.227 204.314C206.067 204.949 207.42 205.946 208.167 206.445C209.567 207.397 211.433 209.528 211.107 209.754C211.06 209.845 210.127 209.301 209.1 208.576Z" fill="#DBD6D6"/>
<path d="M208.867 204.36C207.467 202.909 208.4 202.864 210.127 204.36C211.06 205.131 211.2 205.448 210.687 205.493C210.313 205.493 209.473 204.995 208.867 204.36Z" fill="#DBD6D6"/>
<path d="M28.1267 203.816C27.4267 203.181 27.8466 202.32 28.8733 202.32C29.48 202.32 30.18 202.093 30.46 201.821C30.74 201.549 31.3466 201.413 31.8133 201.504C32.5133 201.64 32.3266 201.912 30.8333 202.909C28.8733 204.224 28.5933 204.315 28.1267 203.816Z" fill="#DBD6D6"/>
<path d="M207.047 200.643C206.767 199.917 205.88 198.693 205.133 197.832C203.407 195.973 203.407 195.52 204.947 195.52C205.833 195.52 206.113 195.701 205.88 196.2C205.6 196.925 206.02 198.104 207.467 200.416C207.98 201.187 208.213 201.867 207.98 201.867C207.747 201.867 207.327 201.323 207.047 200.643Z" fill="#DBD6D6"/>
<path d="M49.9667 197.696C48.8467 197.061 48.3334 196.381 48.6134 195.883C49.1267 195.067 50.1534 195.611 50.6201 196.88C50.8534 197.651 51.0401 198.24 50.9934 198.24C50.9467 198.24 50.4801 197.968 49.9667 197.696Z" fill="#DBD6D6"/>
<path d="M208.027 196.88C207.42 196.381 207 195.747 207.093 195.475C207.233 195.112 207.933 195.475 208.913 196.336C210.64 197.877 209.847 198.376 208.027 196.88Z" fill="#DBD6D6"/>
<path d="M64.8067 196.88C64.2 196.653 62.0533 196.426 60 196.381C57.9467 196.336 56.1267 196.109 55.9867 195.928C55.8467 195.701 56.4533 195.52 57.2933 195.52C58.1333 195.52 60.14 195.429 61.7733 195.338C63.9667 195.202 64.8067 195.338 64.9933 195.792C65.1333 196.154 65.5067 196.426 65.88 196.426C66.2533 196.426 66.5333 196.653 66.5333 196.88C66.5333 197.424 66.2067 197.424 64.8067 196.88Z" fill="#DBD6D6"/>
<path d="M31.5333 194.432C31.5333 193.661 32.1867 193.117 32.6067 193.525C32.98 193.888 32.4667 195.066 31.9533 195.066C31.72 195.066 31.5333 194.794 31.5333 194.432Z" fill="#DBD6D6"/>
<path d="M212.647 193.072C211.48 191.893 210.78 191.531 210.08 191.712C209.24 191.893 208.727 191.349 206.813 188.312C203.92 183.643 204.247 182.6 207.233 186.952C208.96 189.445 209.567 190.035 209.8 189.445C210.033 188.72 210.173 188.72 211.293 189.627C212.74 190.715 214.607 193.48 214.373 194.16C214.28 194.432 213.487 193.933 212.647 193.072Z" fill="#DBD6D6"/>
<path d="M57.9 190.533C57.7133 190.261 58.1334 190.08 58.7867 190.08C59.44 190.08 60 190.307 60 190.533C60 190.805 59.58 190.987 59.1133 190.987C58.6 190.987 58.04 190.805 57.9 190.533Z" fill="#DBD6D6"/>
<path d="M68.4933 189.672C68.5867 189.355 68.82 189.128 69.0066 189.128C69.5666 189.173 69.4266 189.808 68.8666 190.035C68.54 190.125 68.3533 189.944 68.4933 189.672Z" fill="#DBD6D6"/>
<path d="M53.84 187.768C52.0666 186.861 51.6933 186.272 52.5333 185.773C53.14 185.411 56.8267 187.723 56.5 188.267C56.1267 188.856 55.8466 188.811 53.84 187.768Z" fill="#DBD6D6"/>
<path d="M64.4334 187.179C63.92 186.816 63.64 186.363 63.8267 186.227C64.2934 185.773 67.4667 186.408 67.4667 186.907C67.4667 187.179 67.28 187.36 67.0467 187.36C66.8133 187.36 66.3467 187.451 65.9734 187.587C65.6467 187.723 64.9467 187.541 64.4334 187.179Z" fill="#DBD6D6"/>
<path d="M195.753 185.819C194.867 185.275 192.72 184.096 190.947 183.28C189.173 182.419 187.96 181.648 188.287 181.557C188.567 181.467 189.967 182.011 191.367 182.781C194.167 184.323 194.307 184.277 193.187 182.555C191.927 180.741 192.86 180.741 194.68 182.6C196.593 184.595 197.9 186.408 197.573 186.68C197.48 186.771 196.64 186.408 195.753 185.819Z" fill="#DBD6D6"/>
<path d="M47.96 185.002C49.8267 182.69 51.32 181.738 52.3466 182.282C52.86 182.554 53.7933 182.872 54.4933 183.008C55.38 183.189 55.7067 183.506 55.52 183.96C55.1933 184.776 53.42 184.866 52.58 184.096C52.1133 183.597 51.88 183.642 51.4133 184.322C51.0866 184.73 50.5267 185.093 50.1533 185.093C49.78 185.093 49.08 185.41 48.6133 185.773C47.0733 186.906 46.7467 186.544 47.96 185.002Z" fill="#DBD6D6"/>
<path d="M213.907 184.549C213.067 183.778 212.04 182.645 211.62 182.056C211.2 181.421 208.073 178.112 204.62 174.621C199.767 169.68 197.947 168.184 196.313 167.549C193.093 166.416 185.907 162.154 184.133 160.386C182.593 158.845 182.593 158.8 183.62 158.8C184.273 158.8 185.347 159.434 186.187 160.341C187.633 161.837 190.387 163.061 193.607 163.56C195.753 163.877 195.893 163.152 193.84 162.064C193.047 161.656 191.6 160.658 190.713 159.842L189.033 158.392L191.133 158.618L193.233 158.89L191.087 157.53C189.64 156.578 188.567 156.261 187.727 156.397C186.327 156.669 183.2 155.762 183.2 155.082C183.2 154.493 186.84 154.992 187.727 155.717C188.147 156.034 188.333 156.034 188.333 155.672C188.333 155.4 187.773 154.946 187.073 154.674C185.627 154.13 184.133 152.997 184.133 152.362C184.133 151.592 185.907 152.045 189.08 153.586C190.853 154.448 192.533 155.173 192.86 155.173C193.187 155.173 193.607 155.49 193.84 155.898C194.307 156.669 196.78 157.712 199.533 158.301C200.467 158.482 202.38 159.389 203.827 160.296C205.273 161.202 207.327 162.381 208.4 162.88C209.473 163.424 210.267 163.968 210.127 164.058C209.987 164.194 209.333 163.968 208.68 163.56C208.027 163.152 207.42 162.834 207.233 162.834C207.093 162.88 205.973 162.381 204.667 161.746C203.407 161.112 201.96 160.613 201.4 160.613C200.373 160.613 200.28 160.432 203.267 163.741C204.013 164.557 204.76 165.645 204.9 166.098C205.087 166.597 205.647 166.96 206.207 166.96C206.907 166.96 207.047 167.096 206.627 167.322C205.88 167.821 208.027 169.725 210.173 170.586C210.967 170.904 211.667 171.448 211.667 171.81C211.667 172.309 211.48 172.309 210.687 171.946C209.427 171.266 209.147 171.629 209.8 172.944C210.173 173.669 209.847 173.488 208.773 172.354C206.393 169.816 194.867 164.24 194.867 165.6C194.867 165.781 195.427 166.189 196.173 166.461C196.873 166.778 199.627 168.501 202.333 170.269C206.207 172.853 207.233 173.76 207.28 174.666C207.327 175.392 208.307 176.616 210.22 178.293C211.947 179.834 213.627 181.874 214.42 183.416C215.167 184.866 215.68 186 215.587 186C215.493 186 214.747 185.365 213.907 184.549ZM199.533 163.786C199.533 162.88 198.833 162.653 197.48 163.152C196.873 163.378 196.827 163.56 197.247 164.058C198.087 165.01 199.533 164.829 199.533 163.786ZM195.893 158.8C194.213 157.802 193.467 157.666 193.467 158.346C193.467 158.89 195.147 159.616 196.5 159.661C197.2 159.706 197.06 159.48 195.893 158.8Z" fill="#DBD6D6"/>
<path d="M204.107 182.283C203.313 181.467 201.12 178.928 199.253 176.661C195.987 172.717 193.047 170.36 190.107 169.272C189.36 169 188.8 168.501 188.8 168.093C188.8 167.141 190.993 167.232 191.553 168.229C191.787 168.637 193 169.499 194.26 170.133C195.8 170.904 196.78 171.765 197.34 172.944C198.087 174.44 200.233 176.435 202.287 177.613C202.613 177.795 202.38 177.16 201.68 176.208C200.467 174.44 200 173.035 201.073 174.259C201.493 174.803 204.573 177.251 206.487 178.611C206.58 178.656 206.72 179.2 206.813 179.744C206.86 180.333 207.14 181.467 207.42 182.283C207.84 183.643 207.793 183.733 206.673 183.733C205.973 183.733 204.947 183.189 204.107 182.283Z" fill="#DBD6D6"/>
<path d="M53.9333 179.698C53.9333 179.472 54.3067 178.928 54.7267 178.474C55.5667 177.658 56.1267 178.202 55.6133 179.426C55.3333 180.152 53.9333 180.378 53.9333 179.698Z" fill="#DBD6D6"/>
<path d="M214.653 177.976C213.02 176.253 211.527 173.76 211.9 173.397C212.227 173.08 215.913 176.843 216.847 178.429C217.593 179.699 216.007 179.381 214.653 177.976Z" fill="#DBD6D6"/>
<path d="M237.987 177.115C237.8 176.661 237.567 176.117 237.473 175.936C237.38 175.709 237.473 175.573 237.753 175.573C238.267 175.573 238.967 177.341 238.547 177.704C238.407 177.84 238.127 177.568 237.987 177.115Z" fill="#DBD6D6"/>
<path d="M236.867 173.261C236.4 172.445 236.447 172.354 237.193 172.49C237.66 172.581 238.08 172.989 238.173 173.442C238.407 174.53 237.473 174.394 236.867 173.261Z" fill="#DBD6D6"/>
<path d="M198.32 170.36C197.527 169.77 197.527 169.725 198.227 169.68C198.647 169.68 199.16 169.906 199.3 170.178C199.813 170.949 199.3 171.085 198.32 170.36Z" fill="#DBD6D6"/>
<path d="M195.333 169.317C194.96 169.181 194.353 168.818 194.027 168.456C193.14 167.594 194.353 167.64 195.613 168.501C196.593 169.226 196.453 169.68 195.333 169.317Z" fill="#DBD6D6"/>
<path d="M212.413 167.595C211.713 166.96 211.387 165.6 211.9 165.6C212.507 165.6 215.867 167.549 215.867 167.912C215.867 168.592 213.16 168.365 212.413 167.595Z" fill="#DBD6D6"/>
<path d="M207.327 165.736C206.207 164.693 207.747 164.331 209.147 165.373C209.987 166.008 209.987 166.008 208.82 166.053C208.167 166.053 207.467 165.917 207.327 165.736Z" fill="#DBD6D6"/>
<path d="M236.587 164.376C236.073 163.56 235.747 162.154 235.7 160.386C235.653 158.845 235.28 157.032 234.813 156.17C234.393 155.354 234.16 154.538 234.3 154.312C234.393 154.085 234.207 153.314 233.833 152.634C233.46 151.909 233.133 150.73 233.133 150.005C233.133 149.28 232.573 147.784 231.92 146.696C231.08 145.29 230.66 143.84 230.567 142.117C230.473 140.349 230.053 138.898 229.213 137.493C228.467 136.224 228 134.773 228 133.64C228 132.597 227.58 131.237 227.067 130.466C226.553 129.741 226.133 128.744 226.133 128.29C226.133 127.792 225.853 126.885 225.48 126.25C224.267 124.074 222.867 119.405 222.867 117.546C222.867 116.549 222.353 114.328 221.747 112.605C221.14 110.882 220.72 108.978 220.86 108.298C221 107.664 220.813 106.666 220.393 106.077C220.02 105.533 219.693 104.037 219.693 102.813C219.693 101.544 219.367 99.7305 218.947 98.7785C218.387 97.4638 218.293 96.6478 218.62 95.5145C218.9 94.5625 218.853 93.1118 218.433 91.1625C218.107 89.6211 217.78 87.8078 217.78 87.1731C217.733 84.3625 217.313 77.6078 217.08 74.6158C216.893 72.5758 216.94 71.2611 217.267 71.0798C217.547 70.8985 217.733 71.3971 217.733 72.3491C217.733 73.2105 217.967 75.0238 218.247 76.3385C218.48 77.6985 218.993 81.0531 219.367 83.7731C219.74 86.5385 220.253 90.2105 220.487 91.9331C220.767 93.7011 221.187 97.4638 221.42 100.32C222.073 107.573 222.773 112.605 223.333 113.693C223.567 114.192 223.987 115.778 224.22 117.184C224.5 118.589 225.34 121.082 226.133 122.714C226.88 124.346 227.533 125.933 227.533 126.296C227.533 126.613 227.86 127.293 228.233 127.792C228.607 128.245 228.933 128.97 228.933 129.378C228.933 129.786 229.26 131.237 229.68 132.552C231.127 137.221 232.153 140.938 233.18 144.973C233.74 147.24 234.393 149.234 234.627 149.506C234.813 149.733 235 150.549 235 151.32C235 152.136 235.42 153.994 235.933 155.536C236.447 157.077 237.007 159.616 237.147 161.157C237.333 162.744 237.66 164.376 237.893 164.829C238.547 166.098 237.52 165.736 236.587 164.376Z" fill="#DBD6D6"/>
<path d="M91.1267 163.832C89.6334 163.333 87.6267 162.472 86.6934 161.837C84.6867 160.568 82.5867 157.122 82.2134 154.493C82.0734 153.496 82.0734 153.088 82.2134 153.541C82.4 153.994 82.68 154.629 82.9134 154.901C83.1467 155.173 84.0334 156.397 84.8734 157.666C86.9267 160.749 88.9334 161.973 91.92 161.973C96.96 161.973 100.553 158.165 101.253 152C101.72 148.418 101.067 145.517 99.76 144.973C98.92 144.61 98.7334 144.248 98.92 143.341C99.4334 140.712 94.2534 138.264 90.38 139.306C88.0467 139.896 85.0134 142.48 83.8467 144.882C83.3334 145.925 82.82 147.874 82.7734 149.189C82.68 150.685 82.4467 151.546 82.0734 151.546C81.3734 151.546 81.3267 150.413 81.9334 146.832C83.4267 137.856 91.1267 132.733 101.72 133.64C108.207 134.184 112.5 135.997 117.073 140.168C121.973 144.61 125.333 149.824 125.333 152.952C125.333 154.674 125.053 155.128 123.093 156.941C120.48 159.389 116.7 161.429 111.567 163.152C108.3 164.24 106.993 164.421 100.833 164.557C94.9067 164.693 93.4134 164.557 91.1267 163.832ZM108.627 161.746C112.827 160.704 119.687 157.304 121.787 155.218C123.467 153.541 123.513 153.405 123.047 151.728C122.393 149.552 119.92 146.152 116.093 142.344C113.947 140.122 112.22 138.944 109.14 137.448C105.08 135.544 104.94 135.498 100.133 135.453C96.2134 135.453 94.86 135.634 93.3667 136.314L91.5 137.176L94.0667 137.538C97.1934 137.901 98.2667 138.309 98.2667 139.08C98.2667 139.442 98.7334 139.76 99.34 139.85C100.18 139.941 100.413 140.304 100.507 141.709C100.6 142.797 100.88 143.386 101.347 143.386C101.72 143.386 102 143.84 102 144.474C102 145.064 102.233 145.653 102.467 145.744C102.747 145.834 103.12 147.058 103.26 148.509C103.54 151.274 102.373 157.485 101.347 158.482C101.02 158.8 100.647 159.389 100.46 159.842C100.273 160.341 99.7134 160.794 99.2 160.93C98.64 161.066 98.2667 161.565 98.2667 162.109C98.2667 162.97 98.4534 163.016 102 162.744C104.053 162.562 107.04 162.154 108.627 161.746Z" fill="#DBD6D6"/>
<path d="M22.6667 161.474C18.98 159.298 17.2067 156.714 16.74 152.861C16.5067 150.821 16.5534 150.64 17.4867 150.64C18.1867 150.64 18.4667 150.912 18.4667 151.592C18.4667 153.768 20.52 156.669 23.32 158.437C26.3534 160.341 27.7534 160.613 28.1267 159.298C28.36 158.437 28.36 158.437 29.8534 159.298C30.6934 159.752 31.9534 160.205 32.6067 160.25C34.7534 160.432 34.0067 160.885 30.74 161.52C25.0467 162.517 24.3934 162.517 22.6667 161.474Z" fill="#DBD6D6"/>
<path d="M206.673 160.613C205.833 160.115 203.407 159.117 201.307 158.301C199.16 157.531 196.967 156.715 196.36 156.488C195.753 156.261 195.333 155.763 195.427 155.309C195.52 154.765 194.587 154.221 191.32 153.133C188.987 152.363 186.14 151.275 185.02 150.731C183.853 150.187 182.547 149.733 182.173 149.733C181.053 149.733 179.933 149.235 179.933 148.781C179.933 148.555 180.447 148.373 181.053 148.373C181.707 148.373 182.36 148.147 182.547 147.875C182.967 147.195 186.607 147.648 190.667 148.827L193.7 149.733L191.273 149.461C189.593 149.28 188.8 149.371 188.8 149.688C188.8 150.232 191.833 151.637 194.167 152.181C194.96 152.363 196.827 153.088 198.367 153.813C199.907 154.539 202.567 155.672 204.34 156.352C207.607 157.712 208.447 158.573 206.067 158.256C203.36 157.848 204.713 159.344 207.84 160.115C208.913 160.432 209.8 160.84 209.8 161.067C209.8 161.792 208.26 161.565 206.673 160.613Z" fill="#DBD6D6"/>
<path d="M36.6667 159.888C37.5533 159.525 39.2333 158.347 40.3533 157.304L42.4067 155.4L42.08 156.76C41.8933 157.531 41.1933 158.664 40.4933 159.389C39.5133 160.387 38.9067 160.613 37.18 160.613L35.0333 160.568L36.6667 159.888Z" fill="#DBD6D6"/>
<path d="M199.253 149.688C197.9 148.282 197.9 148.282 199.067 148.645C199.72 148.872 200.933 149.008 201.773 148.962C202.8 148.917 203.267 149.098 203.267 149.552C203.267 149.914 202.94 150.186 202.567 150.186C202.193 150.186 201.867 150.413 201.867 150.64C201.867 151.546 200.607 151.048 199.253 149.688Z" fill="#DBD6D6"/>
<path d="M16.7867 147.874C17.5333 142.344 20.9867 136.586 24.44 135.136C28.36 133.413 32.4667 133.957 37.04 136.768C39.1867 138.082 39.7933 139.669 37.9733 139.08C35.8733 138.4 33.4467 138.309 31.8134 138.853C29.7134 139.533 26.6333 142.797 25.8867 145.154C25.1867 147.421 24.0667 147.648 24.0667 145.517C24.0667 143.341 26.12 139.624 28.1733 138.218L29.9 137.04H28.36C27.52 137.04 26.2134 137.357 25.5134 137.674C22.5734 139.17 19.12 144.52 18.6067 148.418C18.3733 149.824 18.14 150.186 17.3934 150.186C16.5534 150.186 16.5067 150.005 16.7867 147.874Z" fill="#DBD6D6"/>
<path d="M200.933 147.92C200.327 147.512 200.327 147.467 200.933 147.467C201.307 147.467 201.96 147.693 202.333 147.92C202.94 148.328 202.94 148.373 202.333 148.373C201.96 148.373 201.307 148.147 200.933 147.92Z" fill="#DBD6D6"/>
<path d="M187.073 145.517C186 144.792 183.433 143.84 181.38 143.387C177.367 142.435 175.733 141.709 175.733 140.803C175.733 140.485 175.453 140.213 175.127 140.213C174.753 140.213 174.1 139.805 173.633 139.307C172.887 138.536 172.887 138.4 173.54 138.4C173.96 138.4 174.38 138.581 174.52 138.808C175.08 139.669 183.153 141.709 187.307 142.027C190.2 142.208 191.88 142.571 192.347 143.024C193 143.613 192.813 143.659 190.947 143.387C188.473 143.024 188.147 143.477 190.247 144.293C191.367 144.747 191.88 144.747 192.72 144.293C193.56 143.885 194.073 143.885 194.773 144.248C195.987 144.883 196.733 144.883 196.733 144.293C196.733 144.067 196.267 143.84 195.707 143.84C194.493 143.84 193.14 143.115 193.513 142.752C193.793 142.435 198.087 143.749 198.88 144.384C199.16 144.565 199.393 145.2 199.393 145.789C199.393 146.741 199.3 146.787 194.26 146.787C189.36 146.787 188.987 146.696 187.073 145.517Z" fill="#DBD6D6"/>
<path d="M40.0267 144.203C39.4201 143.613 40.1201 142.48 41.1467 142.48C42.0801 142.48 42.4067 143.341 41.8001 144.067C41.1001 144.883 40.7734 144.928 40.0267 144.203Z" fill="#DBD6D6"/>
<path d="M201.167 142.933C201.027 142.707 201.213 142.48 201.587 142.48C201.96 142.48 202.427 142.707 202.567 142.933C202.707 143.205 202.52 143.387 202.147 143.387C201.773 143.387 201.307 143.205 201.167 142.933Z" fill="#DBD6D6"/>
<path d="M195.567 140.485C194.727 139.896 194.727 139.85 195.707 139.352C197.06 138.672 197.107 138.717 197.013 139.986C196.967 141.301 196.78 141.346 195.567 140.485Z" fill="#DBD6D6"/>
<path d="M181.193 138.672C178.953 137.901 176.947 137.04 176.76 136.768C176.573 136.496 175.173 135.816 173.633 135.272C172.093 134.683 170.32 134.003 169.713 133.776C168.873 133.459 168.733 133.232 169.153 132.824C169.527 132.461 170.04 132.461 171.16 132.869C172.28 133.277 172.793 133.277 173.26 132.869C173.633 132.597 174.707 132.235 175.64 132.053L177.367 131.736L175.453 131.237C174.38 130.92 173.26 130.421 172.98 130.059C172.513 129.515 172.84 129.469 175.267 129.651C177.133 129.832 178.067 129.741 178.067 129.424C178.067 129.061 178.487 129.061 179.513 129.424C180.307 129.696 182.267 129.787 183.9 129.651C185.86 129.515 187.167 129.651 187.727 130.013C188.193 130.285 189.127 130.693 189.873 130.875C190.573 131.011 191.133 131.373 191.133 131.645C191.133 131.963 190.713 132.053 190.107 131.827C188.007 131.237 179.467 131.056 178.767 131.6C178.393 131.917 178.207 132.325 178.347 132.552C178.487 132.779 178.067 132.96 177.413 132.96C176.667 132.96 176.2 133.232 176.2 133.64C176.2 134.139 176.713 134.32 178.16 134.32C179.7 134.32 179.98 134.184 179.56 133.776C178.627 132.869 178.907 131.963 180.073 132.144C180.773 132.235 181.053 132.552 180.96 133.096C180.727 134.32 182.127 135.635 184.32 136.179C189.5 137.493 193.933 139.035 193.607 139.352C193.28 139.669 187.353 138.309 183.433 136.949C182.687 136.677 181.427 136.405 180.633 136.315C179.233 136.133 179.233 136.133 180.913 136.949C181.847 137.403 182.92 137.992 183.247 138.264C183.62 138.536 184.6 138.899 185.44 139.08C186.98 139.397 187.54 140.259 186.14 140.168C185.673 140.123 183.433 139.488 181.193 138.672Z" fill="#DBD6D6"/>
<path d="M184.973 135.181C183.807 134.728 182.78 133.187 183.34 132.688C183.48 132.552 184.367 132.597 185.3 132.779C186.513 133.005 186.84 133.187 186.373 133.459C185.86 133.776 185.907 133.957 186.467 134.275C186.933 134.592 187.4 134.501 187.913 134.048C188.333 133.685 189.173 133.504 189.78 133.595C190.387 133.731 191.227 133.821 191.6 133.821C192.767 133.912 188.66 135.68 187.4 135.635C186.747 135.635 185.673 135.408 184.973 135.181Z" fill="#DBD6D6"/>
<path d="M167.1 132.507C166.96 132.28 167.24 132.053 167.8 132.053C168.36 132.053 168.64 132.28 168.5 132.507C168.36 132.779 168.033 132.96 167.8 132.96C167.567 132.96 167.24 132.779 167.1 132.507Z" fill="#DBD6D6"/>
<path d="M167.1 130.24C166.587 129.65 166.447 129.333 166.82 129.333C167.66 129.333 169.2 130.194 169.2 130.693C169.2 131.464 167.987 131.192 167.1 130.24Z" fill="#DBD6D6"/>
<path d="M161.92 128.2C161.033 127.565 161.033 127.565 162.06 127.52C163.367 127.52 164.533 127.973 164.533 128.472C164.533 129.107 162.947 128.971 161.92 128.2Z" fill="#DBD6D6"/>
<path d="M179.56 127.248C177.413 126.704 175.593 126.432 175.453 126.658C175.313 126.885 173.26 126.93 170.693 126.794C165.887 126.477 162.76 125.344 159.633 122.76C157.673 121.173 158.747 121.354 163.367 123.349C166.913 124.936 167.52 125.072 168.967 124.618L170.553 124.165L166.493 122.986C162.433 121.808 162.433 121.808 162.573 120.402C162.76 118.589 161.92 118.045 161.173 119.541C160.613 120.765 160.1 121.037 159.633 120.312C159.493 120.085 158.7 119.768 157.86 119.586C156.133 119.224 152.4 117.229 152.4 116.685C152.4 116.277 155.293 116.73 157.16 117.456C157.907 117.773 158.56 117.773 158.7 117.546C158.84 117.32 158.233 117.002 157.3 116.821C156.32 116.64 155.667 116.277 155.667 115.869C155.667 115.325 155.947 115.28 156.973 115.506C157.673 115.733 158.653 115.869 159.167 115.824C160.753 115.778 164.533 116.685 164.533 117.138C164.533 117.365 165.373 117.954 166.447 118.453C167.707 119.088 168.267 119.632 168.08 120.085C167.94 120.448 168.127 120.72 168.453 120.72C168.873 120.72 169.06 120.357 168.92 119.722C168.827 119.133 168.873 118.952 169.013 119.269C169.247 119.722 169.433 119.722 170.04 119.269C170.507 118.906 170.647 118.861 170.46 119.224C170.273 119.496 170.367 119.904 170.647 120.085C171.02 120.312 171.02 120.493 170.6 120.72C170.273 120.901 170.18 121.309 170.32 121.581C170.74 122.216 172 122.216 172 121.581C172 120.538 181.94 122.488 183.34 123.848C183.993 124.482 182.36 124.528 180.587 123.893C178.393 123.077 176.667 124.301 178.58 125.344C178.953 125.525 180.447 126.024 181.94 126.432C184.507 127.112 185.207 127.656 184.04 128.064C183.713 128.2 181.707 127.837 179.56 127.248Z" fill="#DBD6D6"/>
<path d="M173.587 115.96C173.12 115.597 172.933 115.325 173.167 115.28C173.867 115.28 175.033 116.096 174.753 116.368C174.613 116.504 174.1 116.322 173.587 115.96Z" fill="#DBD6D6"/>
<path d="M166.587 115.235C164.02 114.373 161.033 114.056 159.82 114.555C159.307 114.781 158.933 114.509 158.56 113.693C158.28 113.059 157.72 112.56 157.347 112.56C157.02 112.56 156.46 112.243 156.133 111.88C155.807 111.517 154.733 110.973 153.66 110.701C152.633 110.429 151.233 109.885 150.58 109.432C147.173 107.211 144.98 105.896 143.347 105.08C142.087 104.491 141.76 104.128 142.273 104.037C143.253 103.856 148.247 106.077 148.947 107.029C149.413 107.619 149.46 107.619 149.74 106.984C150.02 106.259 152.027 106.213 160.707 106.893C163.927 107.165 165.327 107.483 166.073 108.072C168.733 110.293 169.387 110.747 169.76 110.747C169.993 110.747 170.04 110.973 169.9 111.2C169.62 111.608 171.627 112.696 174.52 113.648C175.173 113.875 175.267 114.101 174.94 114.419C174.567 114.781 173.773 114.6 172.14 113.784C170.927 113.104 168.313 112.061 166.4 111.381C162.48 110.021 161.453 109.387 163.18 109.387C164.067 109.387 164.16 109.296 163.6 108.933C162.433 108.208 158.84 108.435 156.647 109.432L154.547 110.339L155.993 111.155C157.347 111.971 163.507 113.24 168.5 113.784C171.393 114.056 172.373 114.691 171.207 115.552C170.18 116.323 169.573 116.277 166.587 115.235Z" fill="#DBD6D6"/>
<path d="M149.6 112.605C147.64 111.744 147.267 109.976 149.04 110.157C149.6 110.248 150.347 110.52 150.673 110.747C151 111.019 151.607 111.472 152.073 111.789C152.867 112.288 152.867 112.379 152.027 112.832C151.373 113.24 150.813 113.195 149.6 112.605Z" fill="#DBD6D6"/>
<path d="M153.8 103.901C153.147 103.584 151.7 103.221 150.58 103.085C148.2 102.768 147.5 101.816 149.46 101.544C150.673 101.362 150.673 101.362 149.227 101.272C148.387 101.272 147.08 100.773 146.38 100.274C144.513 98.9598 141.2 98.3705 140.267 99.2318C139.707 99.7758 139.707 99.8665 140.5 99.8665C141.947 99.8665 144.887 101 145.54 101.77C145.82 102.178 146.52 102.677 147.033 102.949C148.76 103.901 146.613 103.538 144.233 102.541C143.02 102.042 141.62 101.68 141.107 101.816C140.64 101.952 139.287 101.68 138.213 101.181C136.627 100.501 135.88 99.8211 134.947 98.0531C134.293 96.8291 133.687 95.6505 133.64 95.4691C133.64 95.2425 133.173 95.1518 132.66 95.2425C132.193 95.3331 131.493 95.0158 131.12 94.5171C130.653 93.8371 129.767 93.6105 127.013 93.3838C123.7 93.1571 120.853 92.0691 121.367 91.2531C121.507 91.0265 122.253 90.7545 123 90.5731C123.98 90.3465 124.4 89.9838 124.4 89.3945C124.4 88.3971 125.707 88.2158 126.08 89.2131C126.36 89.8478 129.067 90.2105 129.067 89.6211C129.067 88.3518 125.567 87.6718 123.327 88.4878C122.067 88.9411 112.593 89.6211 113.573 89.1678C114.32 88.8051 114.273 88.0798 113.48 88.0798C113.153 88.0798 112.36 87.5811 111.753 86.9918C111.147 86.4025 109.933 85.7678 109.14 85.5865C108.253 85.4505 107.6 84.9971 107.6 84.6345C107.6 83.9091 107.553 83.9091 103.213 83.9998C101.067 84.0451 100.133 83.9091 100.367 83.5918C100.507 83.3198 101.207 83.0931 101.907 83.0931C102.887 83.0931 103.027 83.0025 102.467 82.6398C101.533 82.0505 96.7267 82.0505 96.0734 82.6851C95.7001 83.0478 95.0001 82.9118 93.6001 82.2318C91.8267 81.4158 91.5001 81.3705 90.2867 81.9598C89.5867 82.3225 88.7934 82.9118 88.6067 83.2291C88.1401 83.9998 86.0867 85.3598 85.4334 85.3598C85.2001 85.3598 85.6201 84.8158 86.3667 84.1811L87.7667 83.0478L86.3667 83.3198C85.6201 83.5011 84.4534 84.0905 83.7534 84.7251C83.1001 85.3145 82.0267 85.8131 81.3267 85.8131C80.0201 85.8131 75.7734 88.2158 74.2801 89.8478C73.8134 90.3465 73.2534 90.7091 73.0667 90.5731C72.8801 90.4825 72.5067 90.8905 72.2267 91.4798C71.7134 92.5678 70.7334 93.0211 70.7334 92.2051C70.7334 91.9785 71.4801 90.8451 72.3667 89.7118C73.2534 88.5331 74.0001 87.4451 74.0001 87.2638C74.0001 87.0825 74.4201 86.4478 74.9334 85.8131C75.4467 85.1785 75.8667 84.5438 75.8667 84.3625C75.8667 83.7731 74.0001 83.5011 73.0667 83.9998C71.2467 84.9518 72.1334 83.6825 74.7001 81.6878C76.1001 80.5998 77.5001 79.1491 77.7801 78.4238C78.3401 77.1545 82.2134 73.7091 82.6801 74.1171C82.9601 74.3891 79.6934 78.5598 77.1267 81.1438C76.0534 82.2318 75.3534 83.2291 75.5401 83.4105C75.8667 83.7278 76.2401 83.4105 81.0467 79.1491C82.6801 77.6985 84.4067 76.6105 85.5734 76.2931C87.5334 75.7945 90.3334 73.8905 89.8201 73.3918C89.6801 73.2558 88.7934 73.6638 87.8134 74.2985C86.8334 74.9331 85.9467 75.3865 85.8067 75.2505C85.2001 74.6158 87.2534 72.2585 89.4467 71.1251L91.8734 69.8105L91.6401 70.9891C91.5001 71.6691 91.5934 72.0771 91.7801 71.9411C91.9667 71.8505 93.6001 70.8078 95.3267 69.7198C98.7801 67.4985 101.02 66.9091 99.4334 68.5865C98.9667 69.0851 98.1734 69.4931 97.6601 69.4931C97.1467 69.4931 95.9334 70.2185 94.9534 71.0798C93.9267 71.9411 92.9001 72.6665 92.6667 72.6665C92.3867 72.6665 92.2001 72.9838 92.2001 73.3465C92.2001 74.2078 92.3867 74.2078 94.0667 73.3465C94.8134 72.9838 95.5134 72.2585 95.7001 71.7598C95.9334 71.0345 96.1201 70.9438 96.9134 71.4425C97.6601 71.8958 98.1267 71.8051 99.8067 70.9438C102.98 69.3118 102.887 69.7651 99.2467 73.1651C95.7001 76.4745 95.0467 77.8798 98.1267 75.5225C99.5267 74.4345 100.553 74.0718 103.073 73.8451C104.987 73.6185 106.2 73.6638 106.2 73.9358C106.2 74.1625 105.687 74.5251 105.033 74.6611C103.587 75.0238 97.8001 77.5625 97.8001 77.8345C97.8001 78.1065 103.587 76.5651 105.5 75.7945C106.293 75.4771 107.927 75.1145 109.14 74.9331C111.287 74.6611 111.38 74.6611 111.147 75.6131C110.913 76.4745 111.1 76.7011 112.22 76.8825C112.967 77.0638 114.787 77.0638 116.28 76.9731C118.193 76.8371 118.8 76.9278 118.427 77.2905C118.193 77.5171 117.12 77.6985 116.093 77.5625C114.6 77.4265 114.32 77.5171 114.693 77.9705C114.973 78.3331 115.907 78.4691 117.12 78.3785C119.407 78.1518 122.58 79.3305 122.207 80.2371C122.067 80.5545 122.16 80.8265 122.44 80.8265C122.673 80.8265 123 80.5091 123.14 80.1465C123.373 79.5571 123.7 79.5571 125.66 80.1465C126.873 80.5091 128.273 80.6905 128.693 80.5545C129.813 80.2371 130.467 80.6905 130.14 81.5518C129.953 82.0958 129.487 82.1865 128.32 82.0051C126.687 81.6878 124.4 82.0505 124.4 82.6398C124.4 82.8211 125.66 83.1385 127.247 83.2745C129.627 83.5465 130 83.6825 129.533 84.2265C129.067 84.7705 129.207 84.9518 130.14 85.3145C130.793 85.5411 132.1 85.9038 133.08 86.0398C136.113 86.5385 136.627 86.7651 136.347 87.4451C136.16 87.8531 136.487 88.2611 137.187 88.5331C137.793 88.7145 138.4 89.3038 138.493 89.8025C138.633 90.3011 139.333 90.7998 140.08 90.9811C140.827 91.1625 142.133 91.7518 142.973 92.2505C144.233 93.0211 144.467 93.3838 144.28 94.2905C143.953 95.4238 144.513 95.8318 146.753 96.0131C148.993 96.1491 149.18 96.2398 148.9 96.6931C148.713 96.9651 148.247 97.1011 147.873 97.0558C147.453 96.9651 147.033 97.1465 146.94 97.4185C146.753 97.9171 150.067 99.5038 152.447 100.048C153.1 100.184 153.847 100.773 154.127 101.317C154.5 102.178 154.873 102.314 156.88 102.224C159.633 102.088 163.74 103.176 162.433 103.674C160.8 104.264 154.967 104.4 153.8 103.901ZM142.413 97.1918C142.273 96.9651 141.06 96.4211 139.8 95.9678C137.187 95.0611 137.047 94.5171 139.287 93.7465C140.687 93.2931 140.733 93.2025 140.08 92.6585C138.96 91.7518 135.413 93.2931 136.02 94.3811C137.187 96.4665 138.82 97.5998 140.733 97.5998C141.807 97.5998 142.553 97.4185 142.413 97.1918ZM133.547 90.5731C132.24 89.8931 131.4 89.9838 131.4 90.8451C131.4 91.0718 132.193 91.2531 133.173 91.2531H134.9L133.547 90.5731ZM137.467 90.0745C137.467 88.9865 133.733 87.3998 132.1 87.8078C130.513 88.2158 130.607 88.9865 132.287 88.9865C133.033 88.9865 134.34 89.3038 135.18 89.6665C136.907 90.3918 137.467 90.4825 137.467 90.0745ZM79.7401 83.6825C80.0667 82.0958 79.7867 81.8238 78.8534 82.6851C78.4801 83.0931 78.2934 83.7278 78.4801 84.1358C78.9001 85.2691 79.4601 85.0878 79.7401 83.6825ZM107.833 80.3731C108.487 80.3278 108.3 80.1465 107.32 79.8745C106.247 79.6025 105.407 79.6478 104.287 80.1011L102.7 80.7811L104.8 80.5998C105.967 80.5091 107.32 80.3731 107.833 80.3731ZM114.787 80.5545C116.187 80.0558 115.02 79.4665 112.593 79.5118H110.167L111.8 80.1011C113.853 80.8718 113.9 80.8718 114.787 80.5545Z" fill="#DBD6D6"/>
<path d="M40.2133 84.1357C40.0267 83.7277 40.0733 83.2291 40.3067 83.0024C40.5867 82.7304 40.82 83.0478 40.96 83.7278C41.24 85.0424 40.68 85.3144 40.2133 84.1357Z" fill="#DBD6D6"/>
<path d="M43.2 83.9546C42.4533 82.5946 42.8266 82.5493 43.8066 83.8186C44.2733 84.4079 44.4133 84.9066 44.18 84.9066C43.9 84.9066 43.48 84.4986 43.2 83.9546Z" fill="#DBD6D6"/>
<path d="M131.213 82.8666C131.4 82.4586 131.913 82.1866 132.52 82.2772C133.873 82.4586 133.593 83.2746 132.1 83.4559C131.213 83.5919 130.98 83.4559 131.213 82.8666Z" fill="#DBD6D6"/>
<path d="M214.513 40.253C213.953 36.853 213.58 33.9064 213.72 33.7704C214.093 33.4077 214.327 34.3597 215.167 40.117C216.287 47.6424 215.82 47.733 214.513 40.253Z" fill="#DBD6D6"/>
<path d="M206.3 41.7944C206.02 39.7544 206.207 38.6211 206.72 39.1651C207.187 39.6638 207.513 44.1064 207.093 44.1064C206.813 44.1064 206.487 43.0638 206.3 41.7944Z" fill="#DBD6D6"/>
<path d="M76.52 33.0904C74.98 32.2744 72.6 30.8237 71.2 29.8264C69.8467 28.8291 67.9333 27.5144 66.9534 26.8797C61.2134 23.1624 59.3933 21.9837 55.8 19.7624C53.6067 18.4024 50.6667 16.7704 49.2667 16.1357C47.8667 15.5011 45.86 14.6397 44.8333 14.1411C41.52 12.6451 38.8133 11.8744 37.5533 12.1464C35.8733 12.5091 28.5 9.97039 29.0133 9.15439C29.2467 8.79173 30.2733 8.8824 34.1 9.6984C37.32 10.3784 44.2733 12.4184 44.8333 12.8264C45.1133 13.0077 46.6533 13.7331 48.2867 14.4131C49.92 15.0477 51.7867 15.9997 52.4867 16.4531C53.14 16.9064 55.6133 18.4477 57.9 19.8077C63.6867 23.3437 63.78 23.3891 64.62 24.1597C65.04 24.5224 66.2067 25.2477 67.2333 25.7464C68.26 26.2451 69.2867 26.7891 69.5667 27.0157C69.8 27.1971 70.9667 28.0584 72.1333 28.9197C73.3 29.7811 74.4667 30.5064 74.7467 30.5064C75.0267 30.5064 75.54 30.8237 75.8667 31.1864C76.1933 31.5491 77.4067 32.2744 78.5267 32.7731C79.6933 33.2717 80.4867 33.8611 80.3 34.1331C79.88 34.7677 79.74 34.7224 76.52 33.0904Z" fill="#DBD6D6"/>
<path d="M212.507 30.6879C212.273 30.5066 212.133 29.9173 212.133 29.3733C212.133 28.7839 211.713 28.0586 211.2 27.7413C210.407 27.1973 208.54 22.9813 207 18.1759C206.393 16.2719 207.093 16.6346 208.26 18.8559C211.293 24.5679 214 32.1839 212.507 30.6879Z" fill="#DBD6D6"/>
<path d="M203.033 13.144C202.38 12.6 201.773 11.648 201.68 11.0134C201.587 10.3787 201.4 9.38136 201.213 8.79202C200.933 8.02136 200.98 7.79469 201.447 7.93069C201.82 8.06669 202.193 8.52002 202.287 9.01869C202.38 9.47202 202.847 10.2427 203.313 10.696C203.78 11.1494 204.527 12.1014 204.9 12.8267C205.553 14.0054 205.553 14.1867 204.947 14.1867C204.573 14.1867 203.687 13.7334 203.033 13.144Z" fill="#DBD6D6"/>
<path d="M177.6 3.48788C177.6 3.17055 180.027 2.35455 180.26 2.58121C180.353 2.67188 179.793 2.94388 179.047 3.21588C178.253 3.48788 177.6 3.62388 177.6 3.48788Z" fill="#DBD6D6"/>
<path d="M182.36 2.76242C182.64 2.03709 186.7 0.949087 188.707 1.13042C189.593 1.22109 190.48 1.53842 190.573 1.90109C190.76 2.39976 190.293 2.49042 188.287 2.26375C186.467 2.08242 185.533 2.17309 184.88 2.62642C183.76 3.44242 182.127 3.53309 182.36 2.76242Z" fill="#DBD6D6"/>
<path d="M196.267 2.58106C196.267 1.81039 197.293 1.94639 197.573 2.76239C197.667 3.07972 197.433 3.30639 197.013 3.30639C196.593 3.30639 196.267 2.98906 196.267 2.58106Z" fill="#DBD6D6"/>
<path d="M192.533 2.5359C192.58 1.90123 193.933 0.405229 194.213 0.677229C194.587 1.0399 193.56 2.85323 193 2.85323C192.72 2.85323 192.533 2.71723 192.533 2.5359Z" fill="#DBD6D6"/>
</svg>
