<svg width="98" height="84" viewBox="0 0 98 84" fill="none" xmlns="http://www.w3.org/2000/svg">
<path d="M48.88 83.6634C48.55 83.5922 48.68 83.3697 49.05 83.3697C49.33 83.3697 49.4 83.4053 49.4 83.5477C49.4 83.7257 49.26 83.7524 48.88 83.6634Z" fill="#8C8C8C"/>
<path d="M47.08 83.4854C46.75 83.4142 46.88 83.1917 47.25 83.1917C47.53 83.1917 47.6 83.2273 47.6 83.3697C47.6 83.5477 47.46 83.5744 47.08 83.4854Z" fill="#8C8C8C"/>
<path d="M53 83.2896C53 83.1383 53.06 83.1027 53.36 83.1027C53.64 83.1027 53.71 83.1383 53.68 83.254C53.66 83.343 53.53 83.4142 53.32 83.432C53.05 83.4676 53 83.4409 53 83.2896V83.2896Z" fill="#8C8C8C"/>
<path d="M45.63 83.1917C45.29 83.1027 44.96 83.0049 44.91 82.9693C44.69 82.8536 44.81 82.7468 45.15 82.7468C45.34 82.7468 45.5 82.7913 45.5 82.8358C45.5 82.8892 45.61 82.9248 45.74 82.9248C46.26 82.9248 46.6 83.0315 46.6 83.2006C46.6 83.4053 46.44 83.4053 45.63 83.1917V83.1917Z" fill="#8C8C8C"/>
<path d="M56.1 82.4264C56.1 82.2395 56.15 82.2128 56.45 82.2128C56.67 82.2128 56.8 82.2573 56.8 82.3285C56.8 82.3997 56.64 82.4887 56.45 82.5421C56.12 82.64 56.1 82.6311 56.1 82.4264Z" fill="#8C8C8C"/>
<path d="M42.29 81.8391C41.85 81.5454 41.85 81.5454 42.2 81.5187C42.39 81.5009 42.56 81.5276 42.58 81.581C42.6 81.6344 42.68 81.6789 42.76 81.6789C42.84 81.6789 42.9 81.7679 42.9 81.9014C42.9 82.195 42.82 82.1861 42.29 81.8391V81.8391Z" fill="#8C8C8C"/>
<path d="M57.5 81.7234C57.5 81.5276 57.54 81.5009 57.88 81.5009C58.25 81.5098 58.25 81.5098 57.97 81.7234C57.61 82.0082 57.5 81.9993 57.5 81.7234V81.7234Z" fill="#8C8C8C"/>
<path d="M50 81.234C50 81.0916 50.07 81.056 50.35 81.056C50.63 81.056 50.7 81.0916 50.7 81.234C50.7 81.3763 50.63 81.4119 50.35 81.4119C50.07 81.4119 50 81.3763 50 81.234Z" fill="#8C8C8C"/>
<path d="M53.7 80.3974C53.7 80.1928 53.74 80.1661 54.05 80.1661C54.24 80.1661 54.4 80.1928 54.4 80.2195C54.4 80.3084 54.14 80.4953 53.92 80.5576C53.73 80.611 53.7 80.5932 53.7 80.3974Z" fill="#8C8C8C"/>
<path d="M40.08 79.9436C40.01 79.8635 39.89 79.7478 39.83 79.6766C39.64 79.4986 39.67 79.4541 40 79.4541C40.28 79.4541 40.3 79.4808 40.3 79.7656C40.3 80.1127 40.27 80.1394 40.08 79.9436Z" fill="#8C8C8C"/>
<path d="M60.7 78.5197C60.7 78.2438 60.73 78.2083 60.95 78.2083C61.25 78.2083 61.25 78.2349 61.03 78.5731C60.8 78.9113 60.7 78.9024 60.7 78.5197Z" fill="#8C8C8C"/>
<path d="M57.7 75.7165C57.7 75.672 57.57 75.5741 57.4 75.494C57 75.3072 57.02 75.1826 57.45 75.1826C57.78 75.1826 57.8 75.2004 57.8 75.494C57.8 75.6631 57.78 75.8055 57.75 75.8055C57.72 75.8055 57.7 75.7699 57.7 75.7165Z" fill="#8C8C8C"/>
<path d="M56.63 75.2538C56.18 75.1203 56.2 74.9156 56.65 74.9156C56.96 74.9156 57 74.9423 57 75.1381C57 75.2627 56.99 75.3605 56.98 75.3516C56.96 75.3427 56.8 75.2983 56.63 75.2538V75.2538Z" fill="#8C8C8C"/>
<path d="M37.26 74.4795C37.06 73.6964 37.06 73.6697 37.28 73.6697C37.42 73.6697 37.49 73.7854 37.58 74.1859C37.74 74.8622 37.73 75.0936 37.56 75.0936C37.46 75.0936 37.36 74.88 37.26 74.4795Z" fill="#8C8C8C"/>
<path d="M55.59 74.969C55.57 74.9423 55.41 74.9156 55.25 74.8889C54.87 74.8444 54.77 74.5596 55.13 74.5596C55.66 74.5596 56 74.6664 56 74.8355C56 74.9868 55.71 75.0758 55.59 74.969V74.969Z" fill="#8C8C8C"/>
<path d="M45.6 74.6664C45.6 74.5329 45.69 74.4795 45.98 74.435C46.56 74.3549 46.8 74.3727 46.8 74.5062C46.8 74.6308 46.53 74.7198 45.93 74.7999C45.65 74.8355 45.6 74.8088 45.6 74.6664Z" fill="#8C8C8C"/>
<path d="M53.3 74.5596C53.05 74.524 52.82 74.5062 52.78 74.5329C52.73 74.5507 52.7 74.4884 52.7 74.3906C52.7 74.1859 52.77 74.177 53.58 74.2571C54 74.3105 54.1 74.3461 54.1 74.4796C54.1 74.6575 54.03 74.6664 53.3 74.5596V74.5596Z" fill="#8C8C8C"/>
<path d="M47.3 74.3817C47.3 74.2393 47.37 74.2037 47.65 74.2037C48.05 74.2037 48.14 74.4173 47.78 74.5062C47.4 74.5952 47.3 74.5685 47.3 74.3817Z" fill="#8C8C8C"/>
<path d="M48.2 74.2927C48.2 74.1414 48.27 74.1147 48.6 74.1147C49.05 74.1147 49.17 74.3194 48.78 74.4172C48.36 74.5151 48.2 74.4795 48.2 74.2927Z" fill="#8C8C8C"/>
<path d="M51.88 74.4083C51.52 74.3283 51.68 74.1147 52.1 74.1147C52.43 74.1147 52.5 74.1414 52.5 74.2927C52.5 74.4706 52.3 74.5062 51.88 74.4083Z" fill="#8C8C8C"/>
<path d="M62.7 73.3583C62.7 73.1091 62.74 73.0468 62.9 73.0468C63.07 73.0468 63.1 73.1002 63.07 73.3583C63.06 73.5896 63 73.6697 62.88 73.6697C62.74 73.6697 62.7 73.5985 62.7 73.3583V73.3583Z" fill="#8C8C8C"/>
<path d="M36.86 72.0501C36.76 71.7119 36.79 71.6229 37 71.6229C37.16 71.6229 37.2 71.6852 37.2 71.9344C37.2 72.2904 36.96 72.3705 36.86 72.0501Z" fill="#8C8C8C"/>
<path d="M62.9 71.0445C62.9 70.5996 62.93 70.4661 63.05 70.4661C63.23 70.4661 63.34 70.9733 63.25 71.3471C63.21 71.4984 63.12 71.6229 63.04 71.6229C62.93 71.6229 62.9 71.4806 62.9 71.0445Z" fill="#8C8C8C"/>
<path d="M36.8 70.4482C36.8 70.1813 36.93 69.9321 37.06 69.9321C37.15 69.9321 37.2 70.0389 37.2 70.2436C37.2 70.4927 37.16 70.555 37 70.555C36.89 70.555 36.8 70.5016 36.8 70.4482Z" fill="#8C8C8C"/>
<path d="M62.8 69.6918C62.8 69.6028 62.77 69.3181 62.74 69.0689C62.68 68.6773 62.7 68.5972 62.83 68.5972C62.98 68.5972 63.03 68.704 63.15 69.4694C63.21 69.8075 63.2 69.8431 63.01 69.8431C62.88 69.8431 62.8 69.7897 62.8 69.6918Z" fill="#8C8C8C"/>
<path d="M37.1 68.4015C37.1 68.1345 37.23 67.8853 37.36 67.8853C37.45 67.8853 37.5 67.9921 37.5 68.1968C37.5 68.446 37.46 68.5083 37.3 68.5083C37.19 68.5083 37.1 68.4549 37.1 68.4015Z" fill="#8C8C8C"/>
<path d="M62.7 66.8708C62.7 66.5861 62.72 66.5683 63.16 66.5149C63.85 66.4348 64 66.4437 64 66.595C64 66.7017 63.58 66.8352 63.18 66.8619C63.14 66.8619 63.02 66.9331 62.9 67.0132C62.7 67.1645 62.7 67.1645 62.7 66.8708V66.8708Z" fill="#8C8C8C"/>
<path d="M33.9 66.4615C33.65 66.4259 33.42 66.4081 33.38 66.4348C33.33 66.4526 33.3 66.3903 33.3 66.2924C33.3 66.0877 33.37 66.0788 34.18 66.1589C34.6 66.2123 34.7 66.2479 34.7 66.3814C34.7 66.5594 34.63 66.5683 33.9 66.4615V66.4615Z" fill="#8C8C8C"/>
<path d="M65.5 66.3725C65.5 66.2301 65.57 66.1945 65.85 66.1945C66.25 66.1945 66.34 66.4081 65.98 66.4971C65.6 66.5861 65.5 66.5594 65.5 66.3725Z" fill="#8C8C8C"/>
<path d="M67.5 66.1055C67.5 65.9631 67.57 65.9275 67.85 65.9275C68.12 65.9275 68.2 65.9631 68.2 66.0877C68.2 66.1945 68.11 66.2479 67.85 66.2568C67.56 66.2835 67.5 66.2568 67.5 66.1055Z" fill="#8C8C8C"/>
<path d="M26.98 65.5093C26.65 65.4381 26.78 65.2156 27.15 65.2156C27.43 65.2156 27.5 65.2512 27.5 65.3936C27.5 65.5716 27.36 65.5983 26.98 65.5093Z" fill="#8C8C8C"/>
<path d="M24.9 65.1088C24.9 64.9842 24.98 64.9486 25.25 64.9486C25.53 64.9486 25.6 64.9842 25.6 65.1266C25.6 65.2779 25.54 65.3046 25.25 65.2779C24.99 65.269 24.9 65.2156 24.9 65.1088V65.1088Z" fill="#8C8C8C"/>
<path d="M74.6 65.1444C74.6 65.0109 74.69 64.9575 75.06 64.913C75.75 64.8329 75.9 64.8418 75.9 64.9842C75.9 65.1088 75.79 65.1444 74.98 65.269C74.65 65.3135 74.6 65.3046 74.6 65.1444V65.1444Z" fill="#8C8C8C"/>
<path d="M23.28 64.9753C22.95 64.9041 23.08 64.6817 23.45 64.6817C23.73 64.6817 23.8 64.7173 23.8 64.8596C23.8 65.0376 23.66 65.0643 23.28 64.9753Z" fill="#8C8C8C"/>
<path d="M22.08 64.7973C21.75 64.7261 21.88 64.5037 22.25 64.5037C22.53 64.5037 22.6 64.5393 22.6 64.6816C22.6 64.8596 22.46 64.8863 22.08 64.7973Z" fill="#8C8C8C"/>
<path d="M82.8 63.9163C82.8 63.7295 82.85 63.7028 83.15 63.7028C83.37 63.7028 83.5 63.7472 83.5 63.8184C83.5 63.8896 83.34 63.9786 83.15 64.032C82.82 64.1299 82.8 64.121 82.8 63.9163Z" fill="#8C8C8C"/>
<path d="M84.5 63.6138C84.5 63.4714 84.57 63.4358 84.85 63.4358C85.25 63.4358 85.34 63.6494 84.98 63.7384C84.6 63.8274 84.5 63.8007 84.5 63.6138Z" fill="#8C8C8C"/>
<path d="M11.93 63.24C11.48 63.1065 11.5 62.9018 11.95 62.9018C12.26 62.9018 12.3 62.9285 12.3 63.1243C12.3 63.2489 12.29 63.3468 12.28 63.3379C12.26 63.329 12.1 63.2845 11.93 63.24Z" fill="#8C8C8C"/>
<path d="M10.08 62.9285C9.75 62.8573 9.88 62.6349 10.25 62.6349C10.53 62.6349 10.6 62.6705 10.6 62.8128C10.6 62.9908 10.46 63.0175 10.08 62.9285Z" fill="#8C8C8C"/>
<path d="M90.1 62.7238C90.1 62.5815 90.17 62.5459 90.45 62.5459C90.85 62.5459 90.94 62.7594 90.58 62.8484C90.2 62.9374 90.1 62.9107 90.1 62.7238Z" fill="#8C8C8C"/>
<path d="M91.2 62.5459C91.2 62.4035 91.27 62.3679 91.55 62.3679C91.95 62.3679 92.04 62.5815 91.68 62.6705C91.3 62.7595 91.2 62.7328 91.2 62.5459Z" fill="#8C8C8C"/>
<path d="M97 61.6026C97 61.4157 97.05 61.389 97.35 61.389C97.57 61.389 97.7 61.4335 97.7 61.5047C97.7 61.5759 97.54 61.6649 97.35 61.7183C97.02 61.8161 97 61.8072 97 61.6026Z" fill="#8C8C8C"/>
<path d="M1.14441e-05 60.1253C1.14441e-05 59.8583 0.130012 59.6092 0.260012 59.6092C0.350012 59.6092 0.400011 59.716 0.400011 59.9206C0.400011 60.1698 0.360011 60.2321 0.200011 60.2321C0.0900114 60.2321 1.14441e-05 60.1787 1.14441e-05 60.1253Z" fill="#8C8C8C"/>
<path d="M28.7 59.4312C28.7 59.2443 28.8 59.2176 29.18 59.3066C29.54 59.3956 29.45 59.6092 29.05 59.6092C28.77 59.6092 28.7 59.5736 28.7 59.4312Z" fill="#8C8C8C"/>
<path d="M33 59.4846C33 59.3689 33.28 59.2532 33.58 59.2532C33.64 59.2532 33.7 59.3333 33.7 59.4312C33.7 59.5736 33.63 59.6092 33.35 59.6092C33.12 59.6092 33 59.5647 33 59.4846Z" fill="#8C8C8C"/>
<path d="M35.6 59.1286C35.6 59.0129 35.88 58.8972 36.18 58.8972C36.24 58.8972 36.3 58.9773 36.3 59.0752C36.3 59.2176 36.23 59.2532 35.95 59.2532C35.72 59.2532 35.6 59.2087 35.6 59.1286Z" fill="#8C8C8C"/>
<path d="M23.9 58.8973C23.9 58.7104 24 58.6837 24.38 58.7727C24.74 58.8617 24.65 59.0752 24.25 59.0752C23.97 59.0752 23.9 59.0396 23.9 58.8973Z" fill="#8C8C8C"/>
<path d="M29.78 58.568C29.45 58.4968 29.58 58.2743 29.95 58.2743C30.23 58.2743 30.3 58.3099 30.3 58.4523C30.3 58.6303 30.16 58.657 29.78 58.568Z" fill="#8C8C8C"/>
<path d="M32.1 58.4523C32.1 58.3099 32.17 58.2743 32.45 58.2743C32.85 58.2743 32.94 58.4879 32.58 58.5769C32.2 58.6659 32.1 58.6392 32.1 58.4523Z" fill="#8C8C8C"/>
<path d="M67.38 58.568C67.28 58.5502 67.2 58.4701 67.2 58.3989C67.2 58.3099 67.33 58.2743 67.7 58.2743C68.13 58.2743 68.2 58.301 68.2 58.4523C68.2 58.5947 68.14 58.6303 67.88 58.6214C67.7 58.6125 67.47 58.5947 67.38 58.568Z" fill="#8C8C8C"/>
<path d="M69.8 58.4523C69.8 58.2921 69.87 58.2743 70.35 58.2743C70.75 58.2743 70.9 58.3099 70.9 58.3989C70.9 58.5413 70.6 58.6303 70.13 58.6303C69.87 58.6303 69.8 58.5947 69.8 58.4523Z" fill="#8C8C8C"/>
<path d="M20.8 58.3633C20.8 58.1764 20.9 58.1497 21.28 58.2387C21.64 58.3277 21.55 58.5413 21.15 58.5413C20.87 58.5413 20.8 58.5057 20.8 58.3633Z" fill="#8C8C8C"/>
<path d="M37.8 58.4879C37.8 58.4078 38.21 58.0963 38.31 58.0963C38.35 58.0963 38.45 58.0696 38.54 58.0429C38.66 57.9984 38.7 58.0429 38.7 58.212C38.7 58.3366 38.63 58.4612 38.54 58.4879C38.33 58.5591 37.8 58.5591 37.8 58.4879Z" fill="#8C8C8C"/>
<path d="M66.3 58.4968C66.22 58.479 65.98 58.4434 65.78 58.4078C65.54 58.3722 65.4 58.3099 65.4 58.2298C65.4 58.0785 65.51 58.0696 66.28 58.1497C66.7 58.2031 66.8 58.2387 66.8 58.3722C66.8 58.5324 66.68 58.5591 66.3 58.4968Z" fill="#8C8C8C"/>
<path d="M71.5 58.3633C71.5 58.212 71.57 58.1853 71.9 58.1853C72.35 58.1853 72.47 58.39 72.08 58.4879C71.66 58.5858 71.5 58.5502 71.5 58.3633Z" fill="#8C8C8C"/>
<path d="M72.5 58.2743C72.5 58.1319 72.57 58.0963 72.85 58.0963C73.25 58.0963 73.34 58.3099 72.98 58.3989C72.6 58.4879 72.5 58.4612 72.5 58.2743Z" fill="#8C8C8C"/>
<path d="M73.3 58.1853C73.3 58.0429 73.37 58.0073 73.65 58.0073C74.05 58.0073 74.14 58.2209 73.78 58.3099C73.4 58.3989 73.3 58.3722 73.3 58.1853Z" fill="#8C8C8C"/>
<path d="M18.93 58.212C18.68 58.1853 18.6 58.1319 18.6 57.9895C18.6 57.8293 18.64 57.8205 18.98 57.8649C19.79 57.9895 19.9 58.0251 19.9 58.1497C19.9 58.2743 19.66 58.2921 18.93 58.212V58.212Z" fill="#8C8C8C"/>
<path d="M74.1 58.1141C74.1 57.9806 74.19 57.9272 74.56 57.8827C74.82 57.856 75.11 57.8294 75.21 57.8294C75.45 57.8294 75.47 58.1497 75.23 58.1497C75.13 58.1497 74.84 58.1853 74.58 58.2209C74.15 58.2743 74.1 58.2654 74.1 58.1141V58.1141Z" fill="#8C8C8C"/>
<path d="M1.4 58.0963C1.4 57.9895 1.73 57.8294 1.94 57.8294C2.03 57.8294 2.1 57.9094 2.1 58.0073C2.1 58.1497 2.03 58.1853 1.75 58.1853C1.56 58.1853 1.4 58.1497 1.4 58.0963Z" fill="#8C8C8C"/>
<path d="M64.18 58.123C63.85 58.0518 63.98 57.8294 64.35 57.8294C64.63 57.8294 64.7 57.8649 64.7 58.0073C64.7 58.1853 64.56 58.212 64.18 58.123Z" fill="#8C8C8C"/>
<path d="M24.33 57.9895C23.87 57.9005 23.72 57.6514 24.13 57.6514C24.71 57.6514 25.1 57.7671 25.1 57.9272C25.1 58.1141 24.98 58.123 24.33 57.9895V57.9895Z" fill="#8C8C8C"/>
<path d="M17.08 57.945C16.78 57.9183 16.7 57.8739 16.7 57.7315C16.7 57.5624 16.74 57.5535 17.13 57.6069C17.96 57.7137 18.1 57.7582 18.1 57.8827C18.1 58.0073 17.91 58.0162 17.08 57.945V57.945Z" fill="#8C8C8C"/>
<path d="M38.85 57.9006C38.88 57.8383 39.04 57.7137 39.2 57.6336C39.5 57.4823 39.5 57.4823 39.5 57.7404C39.5 57.9895 39.47 58.0073 39.15 58.0073C38.92 58.0073 38.82 57.9717 38.85 57.9006Z" fill="#8C8C8C"/>
<path d="M76.5 57.7493C76.5 57.5891 76.89 57.4734 77.48 57.4734C77.92 57.4734 77.71 57.7226 77.2 57.8205C76.53 57.945 76.5 57.945 76.5 57.7493Z" fill="#8C8C8C"/>
<path d="M2.9 57.7048C2.9 57.5891 3.18 57.4734 3.48 57.4734C3.54 57.4734 3.6 57.5535 3.6 57.6514C3.6 57.7938 3.53 57.8294 3.25 57.8294C3.02 57.8294 2.9 57.7849 2.9 57.7048Z" fill="#8C8C8C"/>
<path d="M62.88 57.7048C62.54 57.598 62.2 57.3755 62.2 57.2598C62.2 57.1708 62.78 57.2064 63.05 57.3132C63.21 57.3755 63.3 57.4823 63.3 57.6247C63.3 57.7315 63.29 57.8294 63.28 57.8294C63.26 57.8205 63.08 57.7671 62.88 57.7048Z" fill="#8C8C8C"/>
<path d="M3.9 57.5268C3.9 57.4111 4.18 57.2954 4.48 57.2954C4.54 57.2954 4.6 57.3755 4.6 57.4734C4.6 57.6158 4.53 57.6514 4.25 57.6514C4.02 57.6514 3.9 57.6069 3.9 57.5268Z" fill="#8C8C8C"/>
<path d="M14.5 57.4734C14.5 57.2865 14.6 57.2598 14.98 57.3488C15.34 57.4378 15.25 57.6514 14.85 57.6514C14.57 57.6514 14.5 57.6158 14.5 57.4734Z" fill="#8C8C8C"/>
<path d="M13.5 57.3844C13.5 57.1975 13.6 57.1708 13.98 57.2598C14.34 57.3488 14.25 57.5624 13.85 57.5624C13.57 57.5624 13.5 57.5268 13.5 57.3844Z" fill="#8C8C8C"/>
<path d="M21.1 57.4645C20.96 57.4289 20.68 57.3755 20.48 57.3399C20.23 57.3043 20.1 57.242 20.1 57.1441C20.1 57.0284 20.19 57.0106 20.72 57.064C21.07 57.0996 21.36 57.1441 21.38 57.1619C21.4 57.1797 21.4 57.2687 21.38 57.3666C21.36 57.5001 21.3 57.5179 21.1 57.4645Z" fill="#8C8C8C"/>
<path d="M0.299999 57.3666C0.299999 57.0996 0.43 56.8505 0.56 56.8505C0.65 56.8505 0.699999 56.9572 0.699999 57.1619C0.699999 57.4111 0.659999 57.4734 0.499999 57.4734C0.389999 57.4734 0.299999 57.42 0.299999 57.3666Z" fill="#8C8C8C"/>
<path d="M6.8 57.2598C6.8 57.1441 7.08 57.0284 7.38 57.0284C7.44 57.0284 7.5 57.1085 7.5 57.2064C7.5 57.3488 7.43 57.3844 7.15 57.3844C6.92 57.3844 6.8 57.3399 6.8 57.2598Z" fill="#8C8C8C"/>
<path d="M10.5 57.2064C10.5 57.0195 10.6 56.9928 10.98 57.0818C11.34 57.1708 11.25 57.3844 10.85 57.3844C10.57 57.3844 10.5 57.3488 10.5 57.2064Z" fill="#8C8C8C"/>
<path d="M80.1 57.1174C80.1 56.975 80.17 56.9394 80.45 56.9394C80.85 56.9394 80.94 57.153 80.58 57.242C80.2 57.331 80.1 57.3043 80.1 57.1174Z" fill="#8C8C8C"/>
<path d="M82.5 56.7793C82.5 56.6369 82.64 56.6013 83.39 56.5123C84.52 56.3788 84.6 56.3788 84.6 56.539C84.6 56.6636 84.53 56.6814 83.3 56.8505C82.46 56.9661 82.5 56.9661 82.5 56.7793Z" fill="#8C8C8C"/>
<path d="M38.9 56.5835C38.9 56.3432 38.93 56.3165 39.2 56.3165C39.55 56.3165 39.52 56.4945 39.14 56.717C38.9 56.8505 38.9 56.8505 38.9 56.5835Z" fill="#8C8C8C"/>
<path d="M0.440001 56.361C0.530001 55.7292 0.610002 55.5156 0.770002 55.5156C0.900002 55.5156 0.920002 55.5957 0.860002 55.9873C0.830002 56.2364 0.800001 56.5212 0.800001 56.6102C0.800001 56.6992 0.720001 56.7615 0.600001 56.7615C0.410001 56.7615 0.400001 56.717 0.440001 56.361V56.361Z" fill="#8C8C8C"/>
<path d="M3 56.6013C3 56.4678 3.13 56.4144 3.78 56.3343C4.77 56.1919 4.9 56.2008 4.9 56.361C4.9 56.4322 4.89 56.4945 4.88 56.4945C4.86 56.4945 4.47 56.5568 4 56.628C2.95 56.7971 3 56.7971 3 56.6013Z" fill="#8C8C8C"/>
<path d="M84.7 56.4945C84.7 56.3521 84.77 56.3165 85.05 56.3165C85.45 56.3165 85.54 56.5301 85.18 56.6191C84.8 56.7081 84.7 56.6814 84.7 56.4945Z" fill="#8C8C8C"/>
<path d="M14.18 56.5212C13.85 56.45 13.98 56.2275 14.35 56.2275C14.63 56.2275 14.7 56.2631 14.7 56.4055C14.7 56.5835 14.56 56.6102 14.18 56.5212Z" fill="#8C8C8C"/>
<path d="M85.6 56.4055C85.6 56.2631 85.67 56.2275 85.95 56.2275C86.35 56.2275 86.44 56.4411 86.08 56.5301C85.7 56.6191 85.6 56.5924 85.6 56.4055Z" fill="#8C8C8C"/>
<path d="M95.7 56.539C95.62 56.5212 95.38 56.4856 95.18 56.45C94.94 56.4144 94.8 56.3521 94.8 56.272C94.8 56.1207 94.91 56.1118 95.68 56.1919C96.1 56.2453 96.2 56.2809 96.2 56.4144C96.2 56.5746 96.08 56.6013 95.7 56.539Z" fill="#8C8C8C"/>
<path d="M86.6 56.3165C86.6 56.1652 86.67 56.1385 87 56.1385C87.45 56.1385 87.57 56.3432 87.18 56.4411C86.76 56.539 86.6 56.5034 86.6 56.3165Z" fill="#8C8C8C"/>
<path d="M6.1 56.2275C6.1 56.0851 6.17 56.0495 6.45 56.0495C6.85 56.0495 6.94 56.2631 6.58 56.3521C6.2 56.4411 6.1 56.4144 6.1 56.2275Z" fill="#8C8C8C"/>
<path d="M11.68 56.3432C11.35 56.272 11.48 56.0495 11.85 56.0495C12.13 56.0495 12.2 56.0851 12.2 56.2275C12.2 56.4055 12.06 56.4322 11.68 56.3432Z" fill="#8C8C8C"/>
<path d="M87.8 56.2275C87.8 56.0762 87.87 56.0495 88.25 56.0495C88.74 56.0495 88.89 56.2542 88.48 56.3521C88.03 56.4589 87.8 56.4144 87.8 56.2275Z" fill="#8C8C8C"/>
<path d="M93.88 56.3432C93.52 56.2631 93.68 56.0495 94.1 56.0495C94.43 56.0495 94.5 56.0762 94.5 56.2275C94.5 56.4055 94.3 56.4411 93.88 56.3432Z" fill="#8C8C8C"/>
<path d="M8 56.1385C8 55.9961 8.07 55.9605 8.35 55.9605C8.75 55.9605 8.84 56.1741 8.48 56.2631C8.1 56.3521 8 56.3254 8 56.1385Z" fill="#8C8C8C"/>
<path d="M9.88 56.2542C9.55 56.183 9.68 55.9605 10.05 55.9605C10.33 55.9605 10.4 55.9961 10.4 56.1385C10.4 56.3165 10.26 56.3432 9.88 56.2542Z" fill="#8C8C8C"/>
<path d="M89.9 56.1385C89.9 55.9694 89.97 55.9605 91.35 55.9605C92.73 55.9605 92.8 55.9694 92.8 56.1385C92.8 56.3076 92.73 56.3165 91.35 56.3165C89.97 56.3165 89.9 56.3076 89.9 56.1385Z" fill="#8C8C8C"/>
<path d="M40.8 53.1573C40.8 52.9082 40.84 52.8459 41 52.8459C41.21 52.8459 41.24 52.9349 41.14 53.273C41.04 53.5934 40.8 53.5133 40.8 53.1573Z" fill="#8C8C8C"/>
<path d="M42.1 52.8281C42.1 52.5611 42.23 52.3119 42.36 52.3119C42.45 52.3119 42.5 52.4187 42.5 52.6234C42.5 52.8726 42.46 52.9349 42.3 52.9349C42.19 52.9349 42.1 52.8815 42.1 52.8281Z" fill="#8C8C8C"/>
<path d="M1.23 52.3831C1.25 52.1962 1.33 52.0805 1.43 52.0627C1.56 52.0361 1.6 52.0983 1.6 52.3475C1.6 52.6145 1.56 52.6679 1.39 52.6679C1.22 52.6679 1.19 52.6234 1.23 52.3831V52.3831Z" fill="#8C8C8C"/>
<path d="M1.43 51.5822C1.45 51.3953 1.53 51.2796 1.63 51.2618C1.76 51.2351 1.8 51.2974 1.8 51.5466C1.8 51.8136 1.76 51.867 1.59 51.867C1.42 51.867 1.39 51.8225 1.43 51.5822V51.5822Z" fill="#8C8C8C"/>
<path d="M41.1 51.5555C41.1 51.3063 41.14 51.244 41.3 51.244C41.51 51.244 41.54 51.333 41.44 51.6712C41.34 51.9916 41.1 51.9115 41.1 51.5555Z" fill="#8C8C8C"/>
<path d="M41.1 50.6656C41.1 50.3096 41.34 50.2295 41.44 50.5588C41.54 50.8881 41.51 50.9771 41.3 50.9771C41.14 50.9771 41.1 50.9148 41.1 50.6656Z" fill="#8C8C8C"/>
<path d="M42.26 50.2473C42.16 49.9092 42.19 49.8202 42.4 49.8202C42.56 49.8202 42.6 49.8825 42.6 50.1316C42.6 50.4876 42.36 50.5677 42.26 50.2473Z" fill="#8C8C8C"/>
<path d="M63.5 49.5532C63.5 49.304 63.53 49.2862 63.85 49.2862C64.04 49.2862 64.2 49.3129 64.2 49.3396C64.2 49.4286 63.92 49.6422 63.81 49.6422C63.75 49.6422 63.7 49.6867 63.7 49.7312C63.7 49.7846 63.66 49.8202 63.6 49.8202C63.55 49.8202 63.5 49.7045 63.5 49.5532Z" fill="#8C8C8C"/>
<path d="M1.98 49.6778C1.88 49.5977 2.14 49.1083 2.27 49.1083C2.35 49.1083 2.4 49.2239 2.4 49.4197C2.4 49.66 2.36 49.7312 2.22 49.7312C2.12 49.7312 2.01 49.7045 1.98 49.6778Z" fill="#8C8C8C"/>
<path d="M40.8 49.1528C40.8 48.8057 40.94 48.7434 41.1 49.0104C41.26 49.2862 41.22 49.4642 41 49.4642C40.84 49.4642 40.8 49.4019 40.8 49.1528Z" fill="#8C8C8C"/>
<path d="M64.5 49.0638C64.5 48.9036 64.58 48.8413 64.94 48.7612C66.06 48.512 66.28 48.7968 65.2 49.0816C64.5 49.2595 64.5 49.2595 64.5 49.0638Z" fill="#8C8C8C"/>
<path d="M31.4 48.9748C31.4 48.8235 31.47 48.7612 31.71 48.7167C32.3 48.6188 32.5 48.6455 32.5 48.8502C32.5 48.9481 32.46 49.0104 32.41 48.9837C32.36 48.957 32.12 48.9926 31.86 49.0549C31.41 49.1794 31.4 49.1794 31.4 48.9748Z" fill="#8C8C8C"/>
<path d="M33.97 49.0104C33.88 48.957 33.75 48.9481 33.7 48.9748C33.64 49.0015 33.6 48.9481 33.6 48.8502C33.6 48.6989 33.66 48.6633 33.95 48.6633C34.23 48.6633 34.3 48.6989 34.3 48.8324C34.3 49.0549 34.19 49.1172 33.97 49.0104Z" fill="#8C8C8C"/>
<path d="M67.37 49.0104C67.28 48.957 67.15 48.9481 67.1 48.9748C67.04 49.0015 67 48.9481 67 48.8502C67 48.6989 67.06 48.6633 67.35 48.6633C67.63 48.6633 67.7 48.6989 67.7 48.8324C67.7 49.0549 67.59 49.1172 67.37 49.0104Z" fill="#8C8C8C"/>
<path d="M41 47.195C40.93 47.0704 40.83 46.9725 40.78 46.9725C40.74 46.9725 40.7 46.9369 40.7 46.8835C40.7 46.839 40.84 46.7945 41 46.7945C41.28 46.7945 41.3 46.8212 41.3 47.106C41.3 47.4708 41.19 47.5064 41 47.195Z" fill="#8C8C8C"/>
<path d="M49.1 46.5364C49.1 46.394 49.18 46.3762 49.75 46.3762C50.31 46.3851 50.4 46.4029 50.4 46.5453C50.4 46.6877 50.31 46.7055 49.75 46.7055C49.18 46.7055 49.1 46.6877 49.1 46.5364Z" fill="#8C8C8C"/>
<path d="M47.7 46.4385C47.7 46.2517 47.8 46.225 48.18 46.3139C48.54 46.4029 48.45 46.6165 48.05 46.6165C47.77 46.6165 47.7 46.5809 47.7 46.4385Z" fill="#8C8C8C"/>
<path d="M51.4 46.4029C51.4 46.2872 51.68 46.1716 51.98 46.1716C52.04 46.1716 52.1 46.2517 52.1 46.3495C52.1 46.4919 52.03 46.5275 51.75 46.5275C51.52 46.5275 51.4 46.483 51.4 46.4029Z" fill="#8C8C8C"/>
<path d="M5.52 46.3317C5.55 46.2695 5.71 46.1716 5.88 46.1093C6.19 45.9936 6.2 46.0025 6.2 46.2161C6.2 46.4118 6.16 46.4385 5.84 46.4385C5.61 46.4385 5.5 46.4029 5.52 46.3317Z" fill="#8C8C8C"/>
<path d="M46.1 46.1894C46.1 45.9491 46.18 45.9135 46.51 46.0203C46.92 46.1627 46.88 46.3495 46.45 46.3495C46.18 46.3495 46.1 46.3139 46.1 46.1894V46.1894Z" fill="#8C8C8C"/>
<path d="M96.2 46.0203C95.9 45.8334 95.96 45.7266 96.35 45.7266C96.65 45.7266 96.7 45.7533 96.7 45.9313C96.7 46.1716 96.5 46.2072 96.2 46.0203Z" fill="#8C8C8C"/>
<path d="M39.4 45.5486C39.05 45.2905 39.05 45.2905 39.43 45.2816C39.78 45.2816 39.8 45.2994 39.8 45.5486C39.8 45.6999 39.79 45.8156 39.77 45.8156C39.76 45.8156 39.59 45.6999 39.4 45.5486Z" fill="#8C8C8C"/>
<path d="M44.3 45.6821C44.3 45.5931 44.19 45.5486 43.95 45.5486C43.64 45.5486 43.6 45.5219 43.6 45.3261C43.6 45.077 43.63 45.0859 44.48 45.4329C45.08 45.6732 45.15 45.8156 44.65 45.8156C44.41 45.8156 44.3 45.7711 44.3 45.6821Z" fill="#8C8C8C"/>
<path d="M4.8 45.5041C4.8 45.3083 4.84 45.2816 5.16 45.2816C5.6 45.2816 5.58 45.4418 5.12 45.6109C4.81 45.7266 4.8 45.7177 4.8 45.5041V45.5041Z" fill="#8C8C8C"/>
<path d="M7.42 45.6198C7.45 45.5575 7.61 45.4596 7.78 45.3973C8.09 45.2817 8.1 45.2906 8.1 45.5041C8.1 45.6999 8.06 45.7266 7.74 45.7266C7.51 45.7266 7.4 45.691 7.42 45.6198Z" fill="#8C8C8C"/>
<path d="M95.35 45.6643C94.83 45.5486 94.76 45.2816 95.25 45.2816C95.56 45.2816 95.6 45.3083 95.6 45.5041C95.6 45.6287 95.59 45.7177 95.58 45.7177C95.56 45.7088 95.46 45.6821 95.35 45.6643Z" fill="#8C8C8C"/>
<path d="M50.5 45.4596C50.5 45.3172 50.57 45.2816 50.85 45.2816C51.25 45.2816 51.34 45.4952 50.98 45.5842C50.6 45.6732 50.5 45.6465 50.5 45.4596Z" fill="#8C8C8C"/>
<path d="M94.45 45.2906C94.25 45.2283 93.76 45.0503 93.51 44.9346C93.21 44.8011 93.28 44.6587 93.64 44.6587C93.89 44.6587 94 44.6943 94 44.7922C94 44.8812 94.11 44.9257 94.35 44.9257C94.66 44.9257 94.7 44.9524 94.7 45.1482C94.7 45.2728 94.69 45.3707 94.68 45.3618C94.66 45.3529 94.56 45.3262 94.45 45.2906V45.2906Z" fill="#8C8C8C"/>
<path d="M8.92 45.0859C8.95 45.0236 9.11 44.9257 9.28 44.8634C9.59 44.7477 9.6 44.7566 9.6 44.9702C9.6 45.166 9.56 45.1927 9.24 45.1927C9.01 45.1927 8.9 45.1571 8.92 45.0859Z" fill="#8C8C8C"/>
<path d="M45.58 45.0414C45.25 44.9702 45.38 44.7477 45.75 44.7477C46.03 44.7477 46.1 44.7833 46.1 44.9257C46.1 45.1037 45.96 45.1304 45.58 45.0414Z" fill="#8C8C8C"/>
<path d="M42.4 44.7922C42.4 44.5252 42.56 44.5163 42.88 44.7388C43.18 44.9702 43.16 45.0147 42.75 45.0147C42.44 45.0147 42.4 44.988 42.4 44.7922Z" fill="#8C8C8C"/>
<path d="M62 44.5697C62 44.3917 62.05 44.3028 62.15 44.3028C62.23 44.3028 62.3 44.2672 62.3 44.2138C62.3 44.1693 62.46 44.1248 62.65 44.1248C62.84 44.1248 63 44.1515 63 44.1782C63 44.2583 62.77 44.4273 62.48 44.5608C62.32 44.632 62.2 44.721 62.2 44.7655C62.2 44.8011 62.16 44.8367 62.1 44.8367C62.05 44.8367 62 44.721 62 44.5697V44.5697Z" fill="#8C8C8C"/>
<path d="M95.9 44.4273C95.9 44.0358 96.08 44.0536 96.27 44.4629C96.4 44.7388 96.39 44.7477 96.15 44.7477C95.93 44.7477 95.9 44.7121 95.9 44.4273Z" fill="#8C8C8C"/>
<path d="M92.21 44.454C91.55 44.2138 91.44 44.0358 91.94 44.0358C92.14 44.0358 92.3 44.0803 92.3 44.1248C92.3 44.1782 92.41 44.2138 92.55 44.2138C92.75 44.2138 92.8 44.2583 92.8 44.4362C92.8 44.5608 92.79 44.6587 92.78 44.6587C92.76 44.6498 92.51 44.5608 92.21 44.454V44.454Z" fill="#8C8C8C"/>
<path d="M43.98 44.4451C43.64 44.3383 43.3 44.1159 43.3 44.0002C43.3 43.9112 43.88 43.9468 44.15 44.0536C44.31 44.1159 44.4 44.2227 44.4 44.365C44.4 44.4718 44.39 44.5697 44.38 44.5697C44.36 44.5608 44.18 44.5074 43.98 44.4451Z" fill="#8C8C8C"/>
<path d="M54.5 44.2583C54.5 44.0625 54.54 44.0358 54.85 44.0358C55.28 44.0358 55.29 44.1248 54.91 44.3295C54.53 44.5252 54.5 44.5252 54.5 44.2583Z" fill="#8C8C8C"/>
<path d="M34.7 44.0892C34.7 43.9112 34.74 43.8845 34.93 43.9201C35.47 44.0447 35.56 44.3028 35.05 44.3028C34.75 44.3028 34.7 44.2761 34.7 44.0892Z" fill="#8C8C8C"/>
<path d="M12.2 44.0358C12.2 43.929 12.53 43.7688 12.74 43.7688C12.83 43.7688 12.9 43.8489 12.9 43.9468C12.9 44.0892 12.83 44.1248 12.55 44.1248C12.36 44.1248 12.2 44.0892 12.2 44.0358Z" fill="#8C8C8C"/>
<path d="M95.6 43.7154C95.6 43.3239 95.78 43.3416 95.97 43.751C96.1 44.0269 96.09 44.0358 95.85 44.0358C95.63 44.0358 95.6 44.0002 95.6 43.7154Z" fill="#8C8C8C"/>
<path d="M36.42 43.7777C36.12 43.5552 36.14 43.5018 36.55 43.5018C36.86 43.5018 36.9 43.5285 36.9 43.7243C36.9 43.9913 36.71 44.0091 36.42 43.7777Z" fill="#8C8C8C"/>
<path d="M63.5 43.7332C63.5 43.5107 63.66 43.4128 64.06 43.4128C64.2 43.4128 64.3 43.3594 64.3 43.2882C64.3 43.2171 64.37 43.137 64.46 43.1103C64.71 43.0302 65.2 43.048 65.2 43.1459C65.2 43.2616 64.78 43.5018 64.49 43.5463C64.37 43.573 64.24 43.6175 64.21 43.662C64.13 43.7599 63.75 43.9468 63.61 43.9468C63.55 43.9468 63.5 43.8489 63.5 43.7332Z" fill="#8C8C8C"/>
<path d="M10.2 43.5463C10.2 43.3505 10.24 43.3239 10.56 43.3239C11 43.3239 10.98 43.484 10.52 43.6531C10.21 43.7688 10.2 43.7599 10.2 43.5463V43.5463Z" fill="#8C8C8C"/>
<path d="M13.5 43.6442C13.5 43.5285 13.78 43.4128 14.08 43.4128C14.14 43.4128 14.2 43.4929 14.2 43.5908C14.2 43.7332 14.13 43.7688 13.85 43.7688C13.62 43.7688 13.5 43.7243 13.5 43.6442Z" fill="#8C8C8C"/>
<path d="M33 43.4573C33 43.2438 33.01 43.2349 33.32 43.3506C33.78 43.5196 33.8 43.6798 33.36 43.6798C33.04 43.6798 33 43.6531 33 43.4573Z" fill="#8C8C8C"/>
<path d="M40.2 43.4039C40.2 43.137 40.2 43.137 40.5 43.3238C40.94 43.5997 40.95 43.6798 40.56 43.6798C40.23 43.6798 40.2 43.662 40.2 43.4039Z" fill="#8C8C8C"/>
<path d="M6.2 43.5196C6.2 43.4484 6.72 43.1459 6.84 43.1459C6.87 43.1459 6.9 43.2438 6.9 43.3683C6.9 43.5641 6.86 43.5908 6.55 43.5908C6.36 43.5908 6.2 43.5552 6.2 43.5196Z" fill="#8C8C8C"/>
<path d="M35.85 43.5285C35.33 43.4128 35.26 43.1459 35.75 43.1459C36.06 43.1459 36.1 43.1726 36.1 43.3683C36.1 43.4929 36.09 43.5819 36.08 43.5819C36.06 43.573 35.96 43.5463 35.85 43.5285Z" fill="#8C8C8C"/>
<path d="M4.3 43.4217C4.3 43.1815 4.45 43.0569 4.71 43.0569C5.08 43.0569 5.08 43.1548 4.71 43.3506C4.38 43.5196 4.3 43.5374 4.3 43.4217V43.4217Z" fill="#8C8C8C"/>
<path d="M65.4 42.9234C65.4 42.7276 65.44 42.7009 65.76 42.7009C66.2 42.7009 66.18 42.8611 65.72 43.0302C65.41 43.1459 65.4 43.137 65.4 42.9234Z" fill="#8C8C8C"/>
<path d="M7.5 42.9145C7.5 42.8522 7.75 42.6564 8.03 42.514C8.18 42.4428 8.2 42.4695 8.2 42.7009C8.2 42.9501 8.17 42.9679 7.85 42.9679C7.66 42.9679 7.5 42.9412 7.5 42.9145Z" fill="#8C8C8C"/>
<path d="M33.63 42.6564C33.2 42.4962 33.21 42.345 33.65 42.345C33.96 42.345 34 42.3717 34 42.5674C34 42.692 33.99 42.7899 33.98 42.7899C33.96 42.781 33.8 42.7276 33.63 42.6564Z" fill="#8C8C8C"/>
<path d="M57.4 42.3806C57.4 42.0958 57.42 42.078 57.75 42.078C57.94 42.078 58.1 42.0869 58.1 42.1047C58.1 42.1225 57.94 42.256 57.75 42.4073C57.4 42.6831 57.4 42.6831 57.4 42.3806Z" fill="#8C8C8C"/>
<path d="M58.9 42.6297C58.9 42.5585 59.42 42.256 59.54 42.256C59.57 42.256 59.6 42.3539 59.6 42.4784C59.6 42.6742 59.56 42.7009 59.25 42.7009C59.06 42.7009 58.9 42.6653 58.9 42.6297Z" fill="#8C8C8C"/>
<path d="M40.2 42.167C39.85 41.9089 39.85 41.9089 40.23 41.9C40.58 41.9 40.6 41.9178 40.6 42.167C40.6 42.3183 40.59 42.4339 40.57 42.4339C40.56 42.4339 40.39 42.3183 40.2 42.167Z" fill="#8C8C8C"/>
<path d="M84.79 42.256C84.71 42.2115 84.51 42.1581 84.34 42.1403C83.97 42.0958 83.87 41.811 84.23 41.811C84.75 41.811 85.1 41.9178 85.1 42.0869C85.1 42.2916 84.99 42.3538 84.79 42.256V42.256Z" fill="#8C8C8C"/>
<path d="M15.3 42.078C15.3 41.9356 15.37 41.9 15.65 41.9C16.05 41.9 16.14 42.1136 15.78 42.2026C15.4 42.2916 15.3 42.2649 15.3 42.078Z" fill="#8C8C8C"/>
<path d="M38 42.0335C38 41.7665 38.03 41.7665 38.41 41.9623C38.79 42.167 38.78 42.256 38.35 42.256C38.04 42.256 38 42.2293 38 42.0335Z" fill="#8C8C8C"/>
<path d="M7 41.9445C7 41.7487 7.04 41.722 7.35 41.722C7.78 41.722 7.79 41.811 7.41 42.0157C7.03 42.2115 7 42.2115 7 41.9445Z" fill="#8C8C8C"/>
<path d="M22.9 42.0424C22.9 41.9267 23.18 41.811 23.48 41.811C23.54 41.811 23.6 41.8911 23.6 41.989C23.6 42.1314 23.53 42.167 23.25 42.167C23.02 42.167 22.9 42.1225 22.9 42.0424Z" fill="#8C8C8C"/>
<path d="M31.38 42.0157C31.05 41.9445 31.18 41.722 31.55 41.722C31.83 41.722 31.9 41.7576 31.9 41.9C31.9 42.078 31.76 42.1047 31.38 42.0157Z" fill="#8C8C8C"/>
<path d="M94.71 41.8555C94.48 41.7576 94.4 41.6775 94.44 41.5796C94.47 41.4995 94.5 41.3394 94.5 41.2237C94.5 40.8855 94.69 40.9745 94.92 41.4372C95.04 41.6686 95.16 41.8822 95.18 41.9267C95.23 42.0157 95.09 41.9979 94.71 41.8555V41.8555Z" fill="#8C8C8C"/>
<path d="M17.4 41.6419C17.4 41.4906 17.46 41.455 17.76 41.455C18.04 41.455 18.11 41.4906 18.08 41.6063C18.06 41.6953 17.93 41.7665 17.72 41.7843C17.45 41.8199 17.4 41.7932 17.4 41.6419Z" fill="#8C8C8C"/>
<path d="M10.42 41.6152C10.45 41.5529 10.61 41.455 10.78 41.3927C11.09 41.2771 11.1 41.286 11.1 41.4995C11.1 41.6953 11.06 41.722 10.74 41.722C10.51 41.722 10.4 41.6864 10.42 41.6152Z" fill="#8C8C8C"/>
<path d="M69.9 41.544C69.9 41.4017 69.97 41.3661 70.25 41.3661C70.65 41.3661 70.74 41.5796 70.38 41.6686C70 41.7576 69.9 41.7309 69.9 41.544Z" fill="#8C8C8C"/>
<path d="M81.86 41.6597C81.78 41.5885 79.39 41.2682 78.78 41.2415C78.67 41.2415 78.6 41.1703 78.6 41.0635C78.6 40.9122 78.65 40.9033 79.21 40.9567C79.55 40.9834 80.43 41.0991 81.16 41.197C82.33 41.366 82.5 41.4105 82.5 41.5529C82.5 41.6864 82.44 41.722 82.2 41.7042C82.03 41.6953 81.88 41.6686 81.86 41.6597Z" fill="#8C8C8C"/>
<path d="M18.4 41.455C18.4 41.3127 18.47 41.2771 18.75 41.2771C19.15 41.2771 19.24 41.4906 18.88 41.5796C18.5 41.6686 18.4 41.6419 18.4 41.455Z" fill="#8C8C8C"/>
<path d="M71.2 41.2949C71.2 41.1436 71.31 41.108 71.95 41.019C72.93 40.8944 73.1 40.8944 73.1 41.0457C73.1 41.1614 72.8 41.2593 72.27 41.3127C72.15 41.3305 71.86 41.3661 71.63 41.4017C71.24 41.4639 71.2 41.455 71.2 41.2949V41.2949Z" fill="#8C8C8C"/>
<path d="M36.2 41.0546C36.2 40.7876 36.39 40.7698 36.68 41.0012C36.98 41.2237 36.96 41.2771 36.55 41.2771C36.24 41.2771 36.2 41.2504 36.2 41.0546Z" fill="#8C8C8C"/>
<path d="M92.73 41.1436C92.3 40.9834 92.31 40.8321 92.75 40.8321C93.06 40.8321 93.1 40.8588 93.1 41.0546C93.1 41.1792 93.09 41.2771 93.08 41.2771C93.06 41.2682 92.9 41.2148 92.73 41.1436Z" fill="#8C8C8C"/>
<path d="M5.37 40.9923C5.51 40.5028 5.8 40.4228 5.8 40.8766C5.8 41.1436 5.77 41.1881 5.56 41.1881C5.36 41.1881 5.33 41.1525 5.37 40.9923V40.9923Z" fill="#8C8C8C"/>
<path d="M73.2 41.0101C73.2 40.8588 73.27 40.8321 73.65 40.8321C74.14 40.8321 74.29 41.0368 73.88 41.1347C73.43 41.2415 73.2 41.197 73.2 41.0101Z" fill="#8C8C8C"/>
<path d="M77.68 41.1258C77.32 41.0457 77.48 40.8321 77.9 40.8321C78.23 40.8321 78.3 40.8588 78.3 41.0101C78.3 41.1881 78.1 41.2237 77.68 41.1258Z" fill="#8C8C8C"/>
<path d="M24.3 40.9211C24.3 40.7698 24.37 40.7431 24.75 40.7431C25.13 40.7431 25.2 40.7698 25.2 40.9211C25.2 41.0724 25.13 41.0991 24.75 41.0991C24.37 41.0991 24.3 41.0724 24.3 40.9211Z" fill="#8C8C8C"/>
<path d="M75 40.9211C75 40.7609 75.07 40.7431 75.7 40.7431C76.33 40.7431 76.4 40.7609 76.4 40.9211C76.4 41.0813 76.33 41.0991 75.7 41.0991C75.07 41.0991 75 41.0813 75 40.9211Z" fill="#8C8C8C"/>
<path d="M12.32 40.9033C12.35 40.841 12.51 40.7431 12.68 40.6808C12.99 40.5651 13 40.574 13 40.7876C13 40.9834 12.96 41.0101 12.64 41.0101C12.41 41.0101 12.3 40.9745 12.32 40.9033Z" fill="#8C8C8C"/>
<path d="M10.3 40.5117C10.3 40.3249 10.35 40.2982 10.65 40.2982C11.16 40.2982 11.07 40.5562 10.53 40.6808C10.34 40.7164 10.3 40.6897 10.3 40.5117Z" fill="#8C8C8C"/>
<path d="M35 40.5295C35 40.3516 35.04 40.3249 35.23 40.3605C35.77 40.485 35.86 40.7431 35.35 40.7431C35.05 40.7431 35 40.7164 35 40.5295Z" fill="#8C8C8C"/>
<path d="M64.2 40.6274C64.2 40.5117 64.75 40.2804 64.84 40.3694C64.87 40.3961 64.9 40.4939 64.9 40.5829C64.9 40.7075 64.82 40.7431 64.55 40.7431C64.33 40.7431 64.2 40.6986 64.2 40.6274Z" fill="#8C8C8C"/>
<path d="M65.4 40.3516C65.4 40.2359 65.68 40.1202 65.98 40.1202C66.04 40.1202 66.1 40.2003 66.1 40.2982C66.1 40.4405 66.03 40.4761 65.75 40.4761C65.52 40.4761 65.4 40.4316 65.4 40.3516Z" fill="#8C8C8C"/>
<path d="M34.1 40.1647C34.1 39.9511 34.11 39.9422 34.42 40.0579C34.88 40.227 34.9 40.3872 34.46 40.3872C34.14 40.3872 34.1 40.3605 34.1 40.1647Z" fill="#8C8C8C"/>
<path d="M33.1 39.8087C33.1 39.5951 33.11 39.5862 33.42 39.7019C33.88 39.871 33.9 40.0312 33.46 40.0312C33.14 40.0312 33.1 40.0045 33.1 39.8087Z" fill="#8C8C8C"/>
<path d="M80.7 39.6752C80.7 39.4883 80.8 39.4617 81.18 39.5506C81.54 39.6396 81.45 39.8532 81.05 39.8532C80.77 39.8532 80.7 39.8176 80.7 39.6752Z" fill="#8C8C8C"/>
<path d="M70.3 39.6396C70.3 39.5239 70.58 39.4082 70.88 39.4082C70.94 39.4082 71 39.4883 71 39.5862C71 39.7286 70.93 39.7642 70.65 39.7642C70.42 39.7642 70.3 39.7197 70.3 39.6396Z" fill="#8C8C8C"/>
<path d="M79.7 39.5862C79.7 39.3994 79.8 39.3727 80.18 39.4617C80.54 39.5506 80.45 39.7642 80.05 39.7642C79.77 39.7642 79.7 39.7286 79.7 39.5862Z" fill="#8C8C8C"/>
<path d="M71.5 39.5506C71.5 39.435 71.78 39.3193 72.08 39.3193C72.14 39.3193 72.2 39.3994 72.2 39.4972C72.2 39.6396 72.13 39.6752 71.85 39.6752C71.62 39.6752 71.5 39.6307 71.5 39.5506Z" fill="#8C8C8C"/>
<path d="M73.6 39.4616C73.6 39.3994 73.7 39.3193 73.83 39.2837C74.24 39.1858 74.4 39.2214 74.4 39.4083C74.4 39.5595 74.33 39.5862 74 39.5862C73.73 39.5862 73.6 39.5506 73.6 39.4616Z" fill="#8C8C8C"/>
<path d="M76.1 39.4083C76.1 39.2214 76.26 39.1858 76.68 39.2837C77.07 39.3816 76.95 39.5862 76.5 39.5862C76.17 39.5862 76.1 39.5595 76.1 39.4083Z" fill="#8C8C8C"/>
<path d="M85.65 39.4172C85.49 39.2748 85.64 39.1413 85.95 39.1413C86.23 39.1413 86.3 39.1769 86.3 39.3193C86.3 39.4616 86.24 39.4972 86 39.4794C85.83 39.4705 85.67 39.4438 85.65 39.4172V39.4172Z" fill="#8C8C8C"/>
<path d="M18.1 39.2837C18.1 39.168 18.38 39.0523 18.68 39.0523C18.74 39.0523 18.8 39.1324 18.8 39.2303C18.8 39.3727 18.73 39.4083 18.45 39.4083C18.22 39.4083 18.1 39.3638 18.1 39.2837Z" fill="#8C8C8C"/>
<path d="M65.9 39.1502C65.9 38.99 66.29 38.8743 66.88 38.8743C67.32 38.8743 67.11 39.1235 66.6 39.2214C65.93 39.346 65.9 39.346 65.9 39.1502Z" fill="#8C8C8C"/>
<path d="M14.5 39.0523C14.5 38.9099 14.57 38.8743 14.85 38.8743C15.25 38.8743 15.34 39.0879 14.98 39.1769C14.6 39.2659 14.5 39.2392 14.5 39.0523Z" fill="#8C8C8C"/>
<path d="M84.35 39.1858C84.3 39.168 84.08 39.1324 83.88 39.0968C83.64 39.0612 83.5 38.9989 83.5 38.9188C83.5 38.7675 83.65 38.7586 84.34 38.8387C84.7 38.8832 84.8 38.9366 84.8 39.0612C84.8 39.2214 84.62 39.2659 84.35 39.1858Z" fill="#8C8C8C"/>
<path d="M93.2 38.8298C93.2 38.6162 93.25 38.5183 93.35 38.5183C93.43 38.5183 93.5 38.5272 93.5 38.545C93.5 38.5539 93.54 38.6963 93.59 38.8565C93.68 39.1235 93.67 39.1413 93.44 39.1413C93.23 39.1413 93.2 39.0968 93.2 38.8298Z" fill="#8C8C8C"/>
<path d="M20.9 38.8387C20.9 38.7052 21.15 38.6251 21.85 38.5539C22.24 38.5183 22.3 38.5272 22.3 38.6785C22.3 38.8209 22.2 38.8565 21.78 38.9099C21.02 38.99 20.9 38.9811 20.9 38.8387Z" fill="#8C8C8C"/>
<path d="M28.4 38.7853C28.4 38.634 28.46 38.6073 28.75 38.634C29.01 38.6429 29.1 38.6963 29.1 38.812C29.1 38.9277 29.02 38.9633 28.75 38.9633C28.47 38.9633 28.4 38.9277 28.4 38.7853Z" fill="#8C8C8C"/>
<path d="M27.6 38.6963C27.6 38.5095 27.7 38.4828 28.08 38.5717C28.44 38.6607 28.35 38.8743 27.95 38.8743C27.67 38.8743 27.6 38.8387 27.6 38.6963Z" fill="#8C8C8C"/>
<path d="M69 38.6963C69 38.5539 69.07 38.5183 69.35 38.5183C69.75 38.5183 69.84 38.7319 69.48 38.8209C69.1 38.9099 69 38.8832 69 38.6963Z" fill="#8C8C8C"/>
<path d="M26.6 38.6073C26.6 38.4205 26.7 38.3938 27.08 38.4828C27.44 38.5717 27.35 38.7853 26.95 38.7853C26.67 38.7853 26.6 38.7497 26.6 38.6073Z" fill="#8C8C8C"/>
<path d="M72.1 38.4294C72.1 38.287 72.17 38.2514 72.45 38.2514C72.85 38.2514 72.94 38.465 72.58 38.5539C72.2 38.6429 72.1 38.6162 72.1 38.4294Z" fill="#8C8C8C"/>
<path d="M77.88 38.545C77.55 38.4738 77.68 38.2514 78.05 38.2514C78.33 38.2514 78.4 38.287 78.4 38.4294C78.4 38.6073 78.26 38.634 77.88 38.545Z" fill="#8C8C8C"/>
<path d="M17.3 38.3493C17.3 38.1802 17.64 38.0734 18.16 38.0734C18.57 38.0734 18.43 38.3137 17.96 38.4205C17.36 38.5539 17.3 38.545 17.3 38.3493Z" fill="#8C8C8C"/>
<path d="M29.58 38.0111C29.25 37.9399 29.38 37.7174 29.75 37.7174C30.03 37.7174 30.1 37.753 30.1 37.8954C30.1 38.0734 29.96 38.1001 29.58 38.0111Z" fill="#8C8C8C"/>
<path d="M22 37.6284C22 37.4861 22.07 37.4505 22.35 37.4505C22.75 37.4505 22.84 37.664 22.48 37.753C22.1 37.842 22 37.8153 22 37.6284Z" fill="#8C8C8C"/>
<path d="M23.5 37.5394C23.5 37.3971 23.57 37.3615 23.85 37.3615C24.25 37.3615 24.34 37.575 23.98 37.664C23.6 37.753 23.5 37.7263 23.5 37.5394Z" fill="#8C8C8C"/>
<path d="M25.98 37.6551C25.65 37.5839 25.78 37.3615 26.15 37.3615C26.43 37.3615 26.5 37.3971 26.5 37.5394C26.5 37.7174 26.36 37.7441 25.98 37.6551Z" fill="#8C8C8C"/>
<path d="M92.4 37.406C92.4 37.0411 92.46 37.0233 92.71 37.2903C92.97 37.5483 92.95 37.7174 92.65 37.7174C92.43 37.7174 92.4 37.6818 92.4 37.406Z" fill="#8C8C8C"/>
<path d="M8.2 35.9198C8.21 35.7952 8.54 35.4037 8.64 35.4037C8.67 35.4037 8.7 35.5461 8.7 35.7151C8.7 35.991 8.67 36.0266 8.45 36.0266C8.31 36.0266 8.2 35.9732 8.2 35.9198Z" fill="#8C8C8C"/>
<path d="M91.2 35.4482C91.2 35.199 91.16 35.1367 91 35.1367C90.84 35.1367 90.8 35.0744 90.8 34.8252C90.8 34.6561 90.84 34.5138 90.88 34.5138C90.95 34.5138 91.7 35.6084 91.7 35.7151C91.7 35.7418 91.59 35.7596 91.45 35.7596C91.23 35.7596 91.2 35.724 91.2 35.4482Z" fill="#8C8C8C"/>
<path d="M9 34.7273C9 34.6206 9.34 34.1578 9.42 34.1578C9.46 34.1578 9.5 34.3002 9.5 34.4693C9.5 34.7451 9.47 34.7807 9.25 34.7807C9.11 34.7807 9 34.754 9 34.7273Z" fill="#8C8C8C"/>
<path d="M89.4 32.9564C89.4 32.8852 89.36 32.8229 89.3 32.8229C89.25 32.8229 89.2 32.6805 89.2 32.5115C89.2 32.3424 89.23 32.2 89.28 32.2C89.35 32.2 89.9 32.9297 89.9 33.0365C89.9 33.0632 89.79 33.0899 89.65 33.0899C89.49 33.0899 89.4 33.0365 89.4 32.9564Z" fill="#8C8C8C"/>
<path d="M88.2 31.1677C88.2 30.8206 88.29 30.8295 88.6 31.2211C88.81 31.4881 88.81 31.4881 88.51 31.4881C88.22 31.4881 88.2 31.4614 88.2 31.1677Z" fill="#8C8C8C"/>
<path d="M87.5 30.2778C87.5 29.9307 87.59 29.9396 87.9 30.3312C88.11 30.5982 88.11 30.5982 87.81 30.5982C87.52 30.5982 87.5 30.5715 87.5 30.2778Z" fill="#8C8C8C"/>
<path d="M11.1 29.9574C11.1 29.6371 11.12 29.6193 11.4 29.6193C11.57 29.6193 11.7 29.6371 11.7 29.6727C11.7 29.6994 11.57 29.8417 11.4 30.0019C11.1 30.2867 11.1 30.2867 11.1 29.9574V29.9574Z" fill="#8C8C8C"/>
<path d="M86.6 29.2099C86.6 28.8628 86.69 28.8717 87 29.2633C87.21 29.5303 87.21 29.5303 86.91 29.5303C86.62 29.5303 86.6 29.5036 86.6 29.2099Z" fill="#8C8C8C"/>
<path d="M14.7 27.4835C15.01 27.0919 15.1 27.083 15.1 27.4301C15.1 27.7238 15.08 27.7505 14.79 27.7505C14.49 27.7505 14.49 27.7505 14.7 27.4835Z" fill="#8C8C8C"/>
<path d="M88.7 26.4601C88.7 26.1931 88.73 26.1486 88.94 26.1486C89.17 26.1486 89.18 26.1664 89.07 26.4601C89.01 26.6292 88.91 26.7716 88.83 26.7716C88.75 26.7716 88.7 26.6559 88.7 26.4601Z" fill="#8C8C8C"/>
<path d="M14.6 26.113C14.6 25.8194 14.62 25.7927 14.91 25.7927C15.21 25.7927 15.21 25.7927 15 26.0596C14.69 26.4512 14.6 26.4601 14.6 26.113Z" fill="#8C8C8C"/>
<path d="M9.93 25.4812C9.82 25.1875 9.83 25.1697 10.06 25.1697C10.27 25.1697 10.3 25.2142 10.3 25.4812C10.3 25.677 10.25 25.7927 10.17 25.7927C10.09 25.7927 9.99 25.6503 9.93 25.4812Z" fill="#8C8C8C"/>
<path d="M16.65 25.6147C16.68 25.5702 16.84 25.4456 17 25.3477C17.3 25.1608 17.3 25.1608 17.3 25.4278C17.3 25.6859 17.27 25.7037 16.94 25.7037C16.74 25.7037 16.61 25.6681 16.65 25.6147Z" fill="#8C8C8C"/>
<path d="M81.9 24.7159C81.9 24.4489 81.9 24.4489 82.2 24.6358C82.64 24.9116 82.65 24.9917 82.26 24.9917C81.93 24.9917 81.9 24.9739 81.9 24.7159Z" fill="#8C8C8C"/>
<path d="M16.2 24.6447C16.2 24.3866 16.23 24.3688 16.56 24.3688C16.95 24.3688 16.94 24.4489 16.5 24.7248C16.2 24.9116 16.2 24.9116 16.2 24.6447Z" fill="#8C8C8C"/>
<path d="M81.1 24.0662C81.1 23.7637 81.1 23.7637 81.45 24.0395C81.64 24.1908 81.8 24.3243 81.8 24.3421C81.8 24.3599 81.64 24.3688 81.45 24.3688C81.12 24.3688 81.1 24.351 81.1 24.0662Z" fill="#8C8C8C"/>
<path d="M17.8 23.4255C17.8 23.1407 17.82 23.1229 18.15 23.1229C18.34 23.1229 18.5 23.1318 18.5 23.1496C18.5 23.1674 18.34 23.3009 18.15 23.4522C17.8 23.7281 17.8 23.7281 17.8 23.4255Z" fill="#8C8C8C"/>
<path d="M81.5 23.1585C81.15 22.856 81.15 22.856 81.53 22.856C81.89 22.856 81.9 22.8649 81.9 23.1674C81.9 23.3365 81.89 23.4789 81.88 23.47C81.86 23.4611 81.69 23.3276 81.5 23.1585Z" fill="#8C8C8C"/>
<path d="M89.5 22.6335C89.5 22.3843 89.54 22.322 89.7 22.322C89.91 22.322 89.94 22.411 89.84 22.7492C89.74 23.0695 89.5 22.9895 89.5 22.6335Z" fill="#8C8C8C"/>
<path d="M80.6 22.5178C80.46 22.4377 80.24 22.2775 80.1 22.1707C79.96 22.055 79.82 21.9661 79.77 21.9661C79.73 21.9661 79.55 21.8504 79.37 21.6991C79.05 21.4321 79.05 21.4321 79.43 21.4321C79.76 21.4321 79.8 21.4588 79.8 21.6546C79.8 21.8504 79.84 21.8771 80.15 21.8771C80.39 21.8771 80.5 21.9216 80.5 22.0106C80.5 22.0817 80.59 22.144 80.7 22.144C80.86 22.144 80.9 22.2063 80.9 22.411C80.9 22.5623 80.89 22.678 80.88 22.6691C80.86 22.6691 80.74 22.5979 80.6 22.5178Z" fill="#8C8C8C"/>
<path d="M78.18 21.005C77.81 20.8092 77.83 20.7202 78.25 20.7202C78.56 20.7202 78.6 20.7469 78.6 20.9427C78.6 21.2007 78.54 21.2096 78.18 21.005Z" fill="#8C8C8C"/>
<path d="M77.38 20.56C77.01 20.3642 77.03 20.2752 77.45 20.2752C77.76 20.2752 77.8 20.3019 77.8 20.4977C77.8 20.7558 77.74 20.7647 77.38 20.56Z" fill="#8C8C8C"/>
<path d="M22.6 20.3197C22.6 20.1417 22.65 20.0972 22.84 20.0972C23.18 20.0972 23.25 20.2396 22.98 20.3998C22.67 20.5956 22.6 20.5778 22.6 20.3197V20.3197Z" fill="#8C8C8C"/>
<path d="M90 19.9638C90 19.7146 90.04 19.6523 90.2 19.6523C90.41 19.6523 90.44 19.7413 90.34 20.0794C90.24 20.3998 90 20.3197 90 19.9638Z" fill="#8C8C8C"/>
<path d="M25.6 20.0439C25.6 19.946 26.02 19.6523 26.17 19.6523C26.24 19.6523 26.3 19.7502 26.3 19.8748C26.3 20.0705 26.26 20.0972 25.95 20.0972C25.76 20.0972 25.6 20.0705 25.6 20.0439Z" fill="#8C8C8C"/>
<path d="M23.6 19.5633C23.25 19.3052 23.25 19.3052 23.63 19.2963C23.98 19.2963 24 19.3141 24 19.5633C24 19.7146 23.99 19.8303 23.97 19.8303C23.96 19.8303 23.79 19.7146 23.6 19.5633Z" fill="#8C8C8C"/>
<path d="M26.6 19.5277C26.6 19.4209 26.79 19.3319 27.33 19.1717C27.46 19.1361 27.5 19.1717 27.5 19.3319C27.5 19.5633 27.33 19.6523 26.89 19.6523C26.71 19.6523 26.6 19.6078 26.6 19.5277Z" fill="#8C8C8C"/>
<path d="M71.5 18.8959C71.5 18.6823 71.51 18.6734 71.82 18.7891C72.28 18.9582 72.3 19.1184 71.86 19.1184C71.54 19.1184 71.5 19.0917 71.5 18.8959Z" fill="#8C8C8C"/>
<path d="M90.2 18.8069C90.2 18.5577 90.24 18.4954 90.4 18.4954C90.61 18.4954 90.64 18.5844 90.54 18.9226C90.44 19.2429 90.2 19.1628 90.2 18.8069Z" fill="#8C8C8C"/>
<path d="M28.1 18.9493C28.1 18.8425 28.31 18.709 28.58 18.6467C28.76 18.6111 28.8 18.6378 28.8 18.8158C28.8 19.0027 28.75 19.0294 28.45 19.0294C28.26 19.0294 28.1 18.9938 28.1 18.9493Z" fill="#8C8C8C"/>
<path d="M73.35 18.6111C72.83 18.4954 72.76 18.2284 73.25 18.2284C73.56 18.2284 73.6 18.2551 73.6 18.4509C73.6 18.5755 73.59 18.6645 73.58 18.6645C73.56 18.6556 73.46 18.6289 73.35 18.6111V18.6111Z" fill="#8C8C8C"/>
<path d="M69.8 18.2729C69.8 18.0594 69.81 18.0505 70.12 18.1661C70.58 18.3352 70.6 18.4954 70.16 18.4954C69.84 18.4954 69.8 18.4687 69.8 18.2729Z" fill="#8C8C8C"/>
<path d="M71.81 17.9704C71.05 17.6856 70.92 17.5165 71.44 17.5165C71.69 17.5165 71.8 17.5521 71.8 17.65C71.8 17.739 71.91 17.7835 72.15 17.7835C72.46 17.7835 72.5 17.8102 72.5 18.006C72.5 18.1306 72.49 18.2284 72.48 18.2284C72.46 18.2195 72.16 18.1128 71.81 17.9704V17.9704Z" fill="#8C8C8C"/>
<path d="M8.56 17.6767C8.46 17.3385 8.49 17.2495 8.7 17.2495C8.86 17.2495 8.9 17.3118 8.9 17.561C8.9 17.917 8.66 17.9971 8.56 17.6767Z" fill="#8C8C8C"/>
<path d="M32.32 17.4987C32.35 17.4364 32.51 17.3385 32.68 17.2762C32.99 17.1606 33 17.1695 33 17.383C33 17.5788 32.96 17.6055 32.64 17.6055C32.41 17.6055 32.3 17.5699 32.32 17.4987Z" fill="#8C8C8C"/>
<path d="M30 17.1161C30 16.9203 30.04 16.8936 30.36 16.8936C30.8 16.8936 30.78 17.0538 30.32 17.2228C30.01 17.3385 30 17.3296 30 17.1161Z" fill="#8C8C8C"/>
<path d="M69.43 17.1161C69 16.9559 69.01 16.8046 69.45 16.8046C69.76 16.8046 69.8 16.8313 69.8 17.0271C69.8 17.1517 69.79 17.2495 69.78 17.2495C69.76 17.2406 69.6 17.1872 69.43 17.1161Z" fill="#8C8C8C"/>
<path d="M65.5 16.9826C65.5 16.7957 65.6 16.769 65.98 16.858C66.34 16.947 66.25 17.1606 65.85 17.1606C65.57 17.1606 65.5 17.125 65.5 16.9826Z" fill="#8C8C8C"/>
<path d="M78.45 17.0716C78.48 17.0271 78.64 16.9025 78.8 16.8046C79.1 16.6177 79.1 16.6177 79.1 16.8847C79.1 17.1427 79.07 17.1605 78.74 17.1605C78.54 17.1605 78.41 17.125 78.45 17.0716Z" fill="#8C8C8C"/>
<path d="M90.5 16.8491C90.5 16.5999 90.54 16.5376 90.7 16.5376C90.91 16.5376 90.94 16.6266 90.84 16.9648C90.74 17.2851 90.5 17.205 90.5 16.8491Z" fill="#8C8C8C"/>
<path d="M34.2 16.9559C34.2 16.8402 34.75 16.6088 34.84 16.6978C34.87 16.7245 34.9 16.8224 34.9 16.9114C34.9 17.036 34.82 17.0716 34.55 17.0716C34.33 17.0716 34.2 17.0271 34.2 16.9559Z" fill="#8C8C8C"/>
<path d="M68.03 16.6889C67.33 16.4753 67.2 16.2706 67.75 16.2706C67.94 16.2706 68.1 16.3151 68.1 16.3596C68.1 16.413 68.24 16.4486 68.4 16.4486C68.65 16.4486 68.7 16.4842 68.7 16.6711C68.7 16.7957 68.69 16.8847 68.68 16.8847C68.66 16.8758 68.37 16.7868 68.03 16.6889Z" fill="#8C8C8C"/>
<path d="M35.3 16.6889C35.3 16.5732 35.85 16.3418 35.94 16.4308C35.97 16.4575 36 16.5554 36 16.6444C36 16.769 35.92 16.8046 35.65 16.8046C35.43 16.8046 35.3 16.7601 35.3 16.6889Z" fill="#8C8C8C"/>
<path d="M63.13 16.5554C62.64 16.4486 62.5 16.3774 62.5 16.2528C62.5 16.0482 62.53 16.0482 63.55 16.2795C64.1 16.4041 64.4 16.5109 64.4 16.591C64.4 16.7512 63.94 16.7423 63.13 16.5554V16.5554Z" fill="#8C8C8C"/>
<path d="M19.9 16.3596C19.55 16.1016 19.55 16.1016 19.93 16.0927C20.28 16.0927 20.3 16.1105 20.3 16.3596C20.3 16.5109 20.29 16.6266 20.27 16.6266C20.26 16.6266 20.09 16.5109 19.9 16.3596Z" fill="#8C8C8C"/>
<path d="M32.6 16.2706C32.6 16.1283 32.67 16.0927 32.95 16.0927C33.35 16.0927 33.44 16.3062 33.08 16.3952C32.7 16.4842 32.6 16.4575 32.6 16.2706Z" fill="#8C8C8C"/>
<path d="M90.6 16.1372C90.6 15.888 90.64 15.8257 90.8 15.8257C91.01 15.8257 91.04 15.9147 90.94 16.2528C90.84 16.5732 90.6 16.4931 90.6 16.1372Z" fill="#8C8C8C"/>
<path d="M17.8 15.9948C17.8 15.7278 17.8 15.7278 18.1 15.9147C18.54 16.1905 18.55 16.2706 18.16 16.2706C17.83 16.2706 17.8 16.2528 17.8 15.9948Z" fill="#8C8C8C"/>
<path d="M37.82 16.1194C37.84 16.0393 37.93 15.9681 38.02 15.9503C38.12 15.9414 38.38 15.9058 38.6 15.8702C38.95 15.8168 39 15.8257 39 15.9859C39 16.1194 38.91 16.1728 38.63 16.2172C37.98 16.3062 37.78 16.2884 37.82 16.1194V16.1194Z" fill="#8C8C8C"/>
<path d="M78.1 16.0215C78.1 15.6744 78.47 15.3807 78.9 15.3807C79.24 15.3807 79.24 15.3807 78.94 15.6566C78.78 15.8079 78.53 16.0126 78.38 16.1105C78.1 16.2795 78.1 16.2795 78.1 16.0215V16.0215Z" fill="#8C8C8C"/>
<path d="M65.98 16.1194C65.65 16.0482 65.78 15.8257 66.15 15.8257C66.43 15.8257 66.5 15.8613 66.5 16.0037C66.5 16.1817 66.36 16.2083 65.98 16.1194Z" fill="#8C8C8C"/>
<path d="M59.58 15.888C59.11 15.8168 59 15.7634 59 15.621C59 15.4697 59.05 15.4608 59.38 15.5053C60.52 15.6833 60.8 15.7545 60.8 15.8791C60.8 16.0215 60.46 16.0304 59.58 15.888Z" fill="#8C8C8C"/>
<path d="M33.1 15.6477C33.1 15.3807 33.1 15.3807 33.45 15.5765C33.89 15.8346 33.89 15.9147 33.45 15.9147C33.13 15.9147 33.1 15.8969 33.1 15.6477Z" fill="#8C8C8C"/>
<path d="M41 15.6121C41 15.4964 41.28 15.3807 41.58 15.3807C41.64 15.3807 41.7 15.4608 41.7 15.5587C41.7 15.7011 41.63 15.7367 41.35 15.7367C41.12 15.7367 41 15.6922 41 15.6121Z" fill="#8C8C8C"/>
<path d="M66.25 15.3807C66.28 15.3362 66.44 15.2117 66.6 15.1138C66.9 14.9269 66.9 14.9269 66.9 15.1939C66.9 15.4519 66.87 15.4697 66.54 15.4697C66.34 15.4697 66.21 15.4341 66.25 15.3807Z" fill="#8C8C8C"/>
<path d="M16.7 15.1049C16.7 14.8379 16.7 14.8379 17 15.0248C17.44 15.3006 17.45 15.3807 17.06 15.3807C16.73 15.3807 16.7 15.3629 16.7 15.1049Z" fill="#8C8C8C"/>
<path d="M45.4 15.1672C45.4 15.0515 45.68 14.9358 45.98 14.9358C46.04 14.9358 46.1 15.0159 46.1 15.1138C46.1 15.2561 46.03 15.2917 45.75 15.2917C45.52 15.2917 45.4 15.2472 45.4 15.1672Z" fill="#8C8C8C"/>
<path d="M54 15.1138C54 14.9269 54.1 14.9002 54.48 14.9892C54.84 15.0782 54.75 15.2917 54.35 15.2917C54.07 15.2917 54 15.2561 54 15.1138Z" fill="#8C8C8C"/>
<path d="M47.6 15.0782C47.6 14.9625 47.88 14.8468 48.18 14.8468C48.24 14.8468 48.3 14.9269 48.3 15.0248C48.3 15.1672 48.23 15.2028 47.95 15.2028C47.72 15.2028 47.6 15.1583 47.6 15.0782Z" fill="#8C8C8C"/>
<path d="M51.8 15.0248C51.8 14.8379 51.9 14.8112 52.28 14.9002C52.64 14.9892 52.55 15.2028 52.15 15.2028C51.87 15.2028 51.8 15.1672 51.8 15.0248Z" fill="#8C8C8C"/>
<path d="M90.8 14.4463C90.8 14.1972 90.84 14.1349 91 14.1349C91.21 14.1349 91.24 14.2239 91.14 14.562C91.04 14.8824 90.8 14.8023 90.8 14.4463Z" fill="#8C8C8C"/>
<path d="M81.45 14.5798C81.48 14.5353 81.64 14.4107 81.8 14.3128C82.1 14.126 82.1 14.126 82.1 14.3929C82.1 14.651 82.07 14.6688 81.74 14.6688C81.54 14.6688 81.41 14.6332 81.45 14.5798Z" fill="#8C8C8C"/>
<path d="M82.4 13.8056C82.4 13.7611 82.56 13.6454 82.75 13.5297C83.1 13.3339 83.1 13.3339 83.1 13.6009C83.1 13.8501 83.07 13.8679 82.75 13.8679C82.56 13.8679 82.4 13.8412 82.4 13.8056Z" fill="#8C8C8C"/>
<path d="M16.1 13.3339C15.75 13.0759 15.75 13.0759 16.13 13.067C16.48 13.067 16.5 13.0848 16.5 13.3339C16.5 13.4852 16.49 13.6009 16.47 13.6009C16.46 13.6009 16.29 13.4852 16.1 13.3339Z" fill="#8C8C8C"/>
<path d="M13.7 12.8801C13.7 12.6131 13.7 12.6131 14 12.8C14.44 13.0759 14.45 13.156 14.06 13.156C13.73 13.156 13.7 13.1382 13.7 12.8801Z" fill="#8C8C8C"/>
<path d="M14.58 12.2839C14.16 12.0525 14.15 11.9101 14.55 11.9101C14.87 11.9101 14.9 11.9279 14.9 12.1771C14.9 12.3283 14.89 12.444 14.88 12.4351C14.86 12.4351 14.73 12.3639 14.58 12.2839Z" fill="#8C8C8C"/>
<path d="M28.2 11.9101C28.2 11.6431 28.2 11.6431 28.55 11.8389C28.99 12.097 28.99 12.1771 28.55 12.1771C28.23 12.1771 28.2 12.1593 28.2 11.9101Z" fill="#8C8C8C"/>
<path d="M84.85 11.9813C84.88 11.919 85.04 11.7944 85.2 11.7143C85.5 11.563 85.5 11.563 85.5 11.8211C85.5 12.0703 85.47 12.0881 85.15 12.0881C84.92 12.0881 84.82 12.0525 84.85 11.9813Z" fill="#8C8C8C"/>
<path d="M70.95 11.8211C70.98 11.7766 71.14 11.652 71.3 11.5541C71.6 11.3672 71.6 11.3672 71.6 11.6342C71.6 11.8923 71.57 11.9101 71.24 11.9101C71.04 11.9101 70.91 11.8745 70.95 11.8211Z" fill="#8C8C8C"/>
<path d="M13 11.1982C12.65 10.9401 12.65 10.9401 13.03 10.9312C13.38 10.9312 13.4 10.949 13.4 11.1982C13.4 11.3494 13.39 11.4651 13.37 11.4651C13.36 11.4651 13.19 11.3494 13 11.1982Z" fill="#8C8C8C"/>
<path d="M86.45 10.9312C86.48 10.8867 86.64 10.7621 86.8 10.6642C87.1 10.4773 87.1 10.4773 87.1 10.7443C87.1 11.0024 87.07 11.0202 86.74 11.0202C86.54 11.0202 86.41 10.9846 86.45 10.9312Z" fill="#8C8C8C"/>
<path d="M12.08 10.682C11.71 10.4862 11.73 10.3972 12.15 10.3972C12.46 10.3972 12.5 10.4239 12.5 10.6197C12.5 10.8778 12.44 10.8867 12.08 10.682Z" fill="#8C8C8C"/>
<path d="M90.9 10.5307C90.9 10.1748 91.14 10.0947 91.24 10.4239C91.34 10.7532 91.31 10.8422 91.1 10.8422C90.94 10.8422 90.9 10.7799 90.9 10.5307Z" fill="#8C8C8C"/>
<path d="M85.9 10.0413C85.9 9.8633 85.95 9.77431 86.05 9.77431C86.13 9.77431 86.2 9.73872 86.2 9.68532C86.2 9.64083 86.26 9.59633 86.34 9.59633C86.42 9.59633 86.5 9.55183 86.52 9.49844C86.54 9.44505 86.71 9.41835 86.9 9.43615C87.25 9.46284 87.25 9.46284 86.8 9.75651C86.55 9.9167 86.27 10.1036 86.17 10.1748C85.93 10.3617 85.9 10.3439 85.9 10.0413Z" fill="#8C8C8C"/>
<path d="M8.1 9.64973C8.1 9.44505 8.14 9.41835 8.45 9.41835C8.82 9.41835 8.95 9.62303 8.63 9.71202C8.53 9.72982 8.37 9.78321 8.28 9.81881C8.13 9.8722 8.1 9.83661 8.1 9.64973Z" fill="#8C8C8C"/>
<path d="M9.9 9.77431C9.82 9.73871 9.58 9.68532 9.38 9.64972C8.96 9.57853 8.84 9.32936 9.23 9.32936C9.8 9.32936 10.2 9.44505 10.2 9.60523C10.2 9.80101 10.09 9.8722 9.9 9.77431Z" fill="#8C8C8C"/>
<path d="M89.2 9.49844C89.2 9.40055 89.8 9.15137 90.05 9.15137C90.29 9.15137 90.23 9.48064 89.98 9.54293C89.62 9.62303 89.2 9.60523 89.2 9.49844Z" fill="#8C8C8C"/>
<path d="M24.3 9.02679C24.3 8.72422 24.3 8.72422 24.65 9.00009C24.84 9.15138 25 9.28486 25 9.30266C25 9.32046 24.84 9.32936 24.65 9.32936C24.32 9.32936 24.3 9.31156 24.3 9.02679Z" fill="#8C8C8C"/>
<path d="M87.8 8.9378C87.8 8.73312 87.84 8.70642 88.15 8.70642C88.34 8.70642 88.5 8.73312 88.5 8.75982C88.5 8.84881 88.24 9.03569 88.02 9.09798C87.83 9.15137 87.8 9.13358 87.8 8.9378Z" fill="#8C8C8C"/>
<path d="M88.9 8.48394C88.9 8.28816 88.94 8.26147 89.26 8.26147C89.7 8.26147 89.68 8.42165 89.22 8.59073C88.91 8.70642 88.9 8.69752 88.9 8.48394V8.48394Z" fill="#8C8C8C"/>
<path d="M22.8 7.99449C22.8 7.73642 22.8 7.73642 23.1 7.8877C23.54 8.11018 23.56 8.26147 23.15 8.26147C22.83 8.26147 22.8 8.24367 22.8 7.99449Z" fill="#8C8C8C"/>
<path d="M91.3 7.23807C91.3 6.88211 91.54 6.80202 91.64 7.13128C91.74 7.46055 91.71 7.54954 91.5 7.54954C91.34 7.54954 91.3 7.48725 91.3 7.23807Z" fill="#8C8C8C"/>
<path d="M77.15 7.35376C77.18 7.29147 77.34 7.16688 77.5 7.08679C77.8 6.9355 77.8 6.9355 77.8 7.19358C77.8 7.44275 77.77 7.46055 77.45 7.46055C77.22 7.46055 77.12 7.42495 77.15 7.35376Z" fill="#8C8C8C"/>
<path d="M21.5 7.10458C21.5 6.84651 21.5 6.84651 21.8 6.99779C22.24 7.22027 22.26 7.37156 21.85 7.37156C21.53 7.37156 21.5 7.35376 21.5 7.10458Z" fill="#8C8C8C"/>
<path d="M7.8 6.46385C7.8 6.19688 7.93 5.94771 8.06 5.94771C8.15 5.94771 8.2 6.0545 8.2 6.25918C8.2 6.50835 8.16 6.57064 8 6.57064C7.89 6.57064 7.8 6.51725 7.8 6.46385Z" fill="#8C8C8C"/>
<path d="M18.3 5.0133C18.3 4.81752 18.26 4.79082 17.95 4.79082C17.62 4.79082 17.6 4.77303 17.6 4.51495C17.6 4.23908 17.6 4.23908 17.94 4.47046C18.13 4.59504 18.31 4.70183 18.35 4.70183C18.38 4.70183 18.55 4.81752 18.73 4.96881C19.05 5.23578 19.05 5.23578 18.68 5.23578C18.34 5.23578 18.3 5.20908 18.3 5.0133Z" fill="#8C8C8C"/>
<path d="M8.03 4.74633C8.04 4.51496 8.1 4.43486 8.23 4.43486C8.36 4.43486 8.4 4.50606 8.4 4.74633C8.4 4.99551 8.36 5.0578 8.2 5.0578C8.03 5.0578 8 5.00441 8.03 4.74633Z" fill="#8C8C8C"/>
<path d="M90.9 4.0344C90.9 3.67844 91.14 3.59835 91.24 3.92761C91.34 4.25688 91.31 4.34587 91.1 4.34587C90.94 4.34587 90.9 4.28358 90.9 4.0344Z" fill="#8C8C8C"/>
<path d="M16.6 3.98991C16.6 3.84752 16.53 3.81193 16.3 3.81193C16.05 3.81193 16 3.77633 16 3.58945C16 3.46486 16.03 3.36697 16.07 3.36697C16.17 3.36697 17.07 3.90092 17.2 4.0433C17.31 4.15009 17.27 4.16789 16.96 4.16789C16.67 4.16789 16.6 4.1323 16.6 3.98991Z" fill="#8C8C8C"/>
<path d="M82.6 3.85642C82.6 3.79413 83.41 3.27798 83.52 3.27798C83.56 3.27798 83.6 3.37587 83.6 3.50046C83.6 3.64284 83.54 3.72293 83.45 3.72293C83.37 3.72293 83.3 3.76743 83.3 3.81193C83.3 3.86532 83.14 3.90092 82.95 3.90092C82.76 3.90092 82.6 3.88312 82.6 3.85642Z" fill="#8C8C8C"/>
<path d="M90.7 3.1445C90.7 2.78853 90.94 2.70844 91.04 3.03771C91.14 3.36697 91.11 3.45596 90.9 3.45596C90.74 3.45596 90.7 3.39367 90.7 3.1445Z" fill="#8C8C8C"/>
<path d="M8.4 3.0822C8.4 2.81523 8.53 2.56606 8.66 2.56606C8.75 2.56606 8.8 2.67284 8.8 2.87752C8.8 3.1267 8.76 3.18899 8.6 3.18899C8.49 3.18899 8.4 3.1356 8.4 3.0822Z" fill="#8C8C8C"/>
<path d="M84 3.02881C84 2.95761 84.52 2.65504 84.64 2.65504C84.67 2.65504 84.7 2.75293 84.7 2.87752C84.7 3.0733 84.66 3.1 84.35 3.1C84.16 3.1 84 3.0644 84 3.02881Z" fill="#8C8C8C"/>
<path d="M84.8 2.58386C84.8 2.52156 86.03 1.85413 86.15 1.85413C86.18 1.85413 86.2 1.95202 86.2 2.07661C86.2 2.27239 86.16 2.29908 85.85 2.29908C85.57 2.29908 85.5 2.33468 85.5 2.47707C85.5 2.61945 85.43 2.65505 85.15 2.65505C84.96 2.65505 84.8 2.61945 84.8 2.58386Z" fill="#8C8C8C"/>
<path d="M13.6 2.25459C13.6 1.98762 13.63 1.98762 14.01 2.1834C14.39 2.38808 14.38 2.47707 13.95 2.47707C13.64 2.47707 13.6 2.45037 13.6 2.25459Z" fill="#8C8C8C"/>
<path d="M12.3 1.64055C12.3 1.43587 12.32 1.42697 12.62 1.50707C12.8 1.55156 12.96 1.58716 12.97 1.58716C12.99 1.58716 13 1.64945 13 1.72064C13 1.80963 12.89 1.85413 12.65 1.85413C12.35 1.85413 12.3 1.82743 12.3 1.64055Z" fill="#8C8C8C"/>
<path d="M10.3 0.964218C10.3 0.777338 10.4 0.750641 10.78 0.839632C11.14 0.928623 11.05 1.1422 10.65 1.1422C10.37 1.1422 10.3 1.1066 10.3 0.964218Z" fill="#8C8C8C"/>
<path d="M9.2 0.964215C9.2 0.857426 9.53 0.697243 9.74 0.697243C9.83 0.697243 9.9 0.777334 9.9 0.875224C9.9 1.01761 9.83 1.05321 9.55 1.05321C9.36 1.05321 9.2 1.01761 9.2 0.964215Z" fill="#8C8C8C"/>
</svg>
