<svg width="158" height="120" viewBox="0 0 158 120" fill="none" xmlns="http://www.w3.org/2000/svg">
<path d="M146.86 118.933C146.3 118.48 145.367 118.027 144.853 117.845C144.107 117.619 143.92 117.301 144.06 116.667C144.433 115.261 140.513 113.765 137.34 114.128L134.867 114.4V112.995V111.589L137.153 111.816C138.507 111.952 140.607 112.677 142.473 113.675C144.76 114.853 146.393 115.352 148.727 115.579C151.107 115.805 152.507 116.304 154.56 117.483C156.053 118.344 157.36 119.16 157.453 119.341C157.547 119.477 155.447 119.613 152.74 119.659C148.82 119.704 147.7 119.568 146.86 118.933Z" fill="#F9F9FA"/>
<path d="M87.9667 112.904C87.4533 112.632 86.4733 112.043 85.7733 111.589C84.1867 110.547 81.2467 110.547 79.1 111.544C77.4667 112.315 77.4667 112.269 76.1133 110.955C75.3666 110.229 73.9667 109.413 72.94 109.141C71.4 108.688 71.1667 108.507 71.26 107.373C71.3533 106.285 71.2133 106.195 70.3267 106.421C67.8067 107.101 65.8933 107.237 65.6133 106.739C65.38 106.421 64.5867 106.331 63.42 106.512C61.7867 106.784 61.6 106.693 61.6 105.832C61.6 105.243 61.2733 104.88 60.8067 104.835C60.2467 104.835 60.5267 104.563 61.5067 104.064C62.9067 103.384 63.1867 103.384 65.24 104.109C66.6867 104.653 69.7667 105.016 74.1533 105.243L80.8267 105.56L81.3867 107.147C81.8533 108.552 82.1333 108.779 83.7667 109.005C86.1467 109.323 87.5933 110.093 87.9667 111.272C88.1533 111.771 88.7133 112.36 89.2266 112.541C89.9733 112.813 90.02 112.949 89.5533 113.131C89.18 113.267 88.48 113.131 87.9667 112.904ZM79.24 109.957C80.5467 109.141 80.5467 108.507 79.24 108.507C78.12 108.507 76.5333 109.731 76.5333 110.592C76.5333 111.272 77.5133 111.045 79.24 109.957Z" fill="#F9F9FA"/>
<path d="M127.773 111.363C126.84 111.227 126.467 110.909 126.467 110.229C126.467 109.459 126.653 109.368 127.54 109.64C128.1 109.821 129.92 110.32 131.6 110.773L134.633 111.589H131.833C130.293 111.544 128.473 111.453 127.773 111.363Z" fill="#F9F9FA"/>
<path d="M7 15.5734C6.72 15.0294 6.57999 14.4854 6.67333 14.3494C6.81333 14.2587 7.18666 14.576 7.46667 15.12C7.74667 15.664 7.88667 16.208 7.79334 16.344C7.65334 16.4347 7.28 16.1174 7 15.5734Z" fill="#F9F9FA"/>
<path d="M0.933323 1.74677C-1.06096e-05 0.658772 0.653323 0.477438 1.63332 1.52011C2.09999 2.01877 2.23998 2.42677 2.00665 2.42677C1.72665 2.42677 1.25999 2.10944 0.933323 1.74677Z" fill="#F9F9FA"/>
</svg>
