<svg width="126" height="84" viewBox="0 0 126 84" fill="none" xmlns="http://www.w3.org/2000/svg">
<path d="M99.6842 56.7369V25.1579L73.3684 10.3558M58.6316 10.3558L32.3158 25.1579V56.7369M38.6316 66.6064L66 82L82.8421 72.5263L93.3684 66.6042M66 29.3685V14.6316M78.6316 50.4211L93.3684 58.8421M53.3684 50.4211L38.6316 58.8421M59.6842 33.0527L53.3684 36.7369V51.4737L59.6842 55.1579L66 58.8421L72.3158 55.1579L78.6316 51.4737V36.7369L72.3158 33.0527L66 29.3685L59.6842 33.0527Z" stroke="white" stroke-width="4" stroke-linecap="round" stroke-linejoin="round"/>
<path d="M66.0001 14.6316C69.4882 14.6316 72.3159 11.8039 72.3159 8.31579C72.3159 4.82768 69.4882 2 66.0001 2C62.512 2 59.6843 4.82768 59.6843 8.31579C59.6843 11.8039 62.512 14.6316 66.0001 14.6316Z" stroke="white" stroke-width="4" stroke-linecap="round" stroke-linejoin="round"/>
<path d="M32.3158 69.3684C35.8039 69.3684 38.6316 66.5407 38.6316 63.0526C38.6316 59.5645 35.8039 56.7368 32.3158 56.7368C28.8277 56.7368 26 59.5645 26 63.0526C26 66.5407 28.8277 69.3684 32.3158 69.3684Z" stroke="white" stroke-width="4" stroke-linecap="round" stroke-linejoin="round"/>
<path d="M99.6841 69.3684C103.172 69.3684 106 66.5407 106 63.0526C106 59.5645 103.172 56.7368 99.6841 56.7368C96.196 56.7368 93.3683 59.5645 93.3683 63.0526C93.3683 66.5407 96.196 69.3684 99.6841 69.3684Z" stroke="white" stroke-width="4" stroke-linecap="round" stroke-linejoin="round"/>
</svg>
